<?xml version="1.0" encoding="utf-8" standalone="no"?>
<!DOCTYPE svg PUBLIC "-//W3C//DTD SVG 1.1//EN"
  "http://www.w3.org/Graphics/SVG/1.1/DTD/svg11.dtd">
<svg xmlns:xlink="http://www.w3.org/1999/xlink" width="864pt" height="360pt" viewBox="0 0 864 360" xmlns="http://www.w3.org/2000/svg" version="1.1">
 <metadata>
  <rdf:RDF xmlns:dc="http://purl.org/dc/elements/1.1/" xmlns:cc="http://creativecommons.org/ns#" xmlns:rdf="http://www.w3.org/1999/02/22-rdf-syntax-ns#">
   <cc:Work>
    <dc:type rdf:resource="http://purl.org/dc/dcmitype/StillImage"/>
    <dc:date>2025-12-19T16:09:06.435436</dc:date>
    <dc:format>image/svg+xml</dc:format>
    <dc:creator>
     <cc:Agent>
      <dc:title>Matplotlib v3.10.0, https://matplotlib.org/</dc:title>
     </cc:Agent>
    </dc:creator>
   </cc:Work>
  </rdf:RDF>
 </metadata>
 <defs>
  <style type="text/css">*{stroke-linejoin: round; stroke-linecap: butt}</style>
 </defs>
 <g id="figure_1">
  <g id="patch_1">
   <path d="M 0 360 
L 864 360 
L 864 0 
L 0 0 
z
" style="fill: #ffffff"/>
  </g>
  <g id="axes_1">
   <g id="patch_2">
    <path d="M 56.18 318.04 
L 426.6 318.04 
L 426.6 25.44 
L 56.18 25.44 
z
" style="fill: #ffffff"/>
   </g>
   <g id="matplotlib.axis_1">
    <g id="xtick_1">
     <g id="line2d_1">
      <path d="M 73.017273 318.04 
L 73.017273 25.44 
" clip-path="url(#p5c900c6152)" style="fill: none; stroke: #b0b0b0; stroke-opacity: 0.3; stroke-width: 0.8; stroke-linecap: square"/>
     </g>
     <g id="line2d_2">
      <defs>
       <path id="mb824c23d85" d="M 0 0 
L 0 3.5 
" style="stroke: #000000; stroke-width: 0.8"/>
      </defs>
      <g>
       <use xlink:href="#mb824c23d85" x="73.017273" y="318.04" style="stroke: #000000; stroke-width: 0.8"/>
      </g>
     </g>
     <g id="text_1">
      <!-- 0 -->
      <g transform="translate(69.836023 332.638438) scale(0.1 -0.1)">
       <defs>
        <path id="DejaVuSans-30" d="M 2034 4250 
Q 1547 4250 1301 3770 
Q 1056 3291 1056 2328 
Q 1056 1369 1301 889 
Q 1547 409 2034 409 
Q 2525 409 2770 889 
Q 3016 1369 3016 2328 
Q 3016 3291 2770 3770 
Q 2525 4250 2034 4250 
z
M 2034 4750 
Q 2819 4750 3233 4129 
Q 3647 3509 3647 2328 
Q 3647 1150 3233 529 
Q 2819 -91 2034 -91 
Q 1250 -91 836 529 
Q 422 1150 422 2328 
Q 422 3509 836 4129 
Q 1250 4750 2034 4750 
z
" transform="scale(0.015625)"/>
       </defs>
       <use xlink:href="#DejaVuSans-30"/>
      </g>
     </g>
    </g>
    <g id="xtick_2">
     <g id="line2d_3">
      <path d="M 138.852161 318.04 
L 138.852161 25.44 
" clip-path="url(#p5c900c6152)" style="fill: none; stroke: #b0b0b0; stroke-opacity: 0.3; stroke-width: 0.8; stroke-linecap: square"/>
     </g>
     <g id="line2d_4">
      <g>
       <use xlink:href="#mb824c23d85" x="138.852161" y="318.04" style="stroke: #000000; stroke-width: 0.8"/>
      </g>
     </g>
     <g id="text_2">
      <!-- 200 -->
      <g transform="translate(129.308411 332.638438) scale(0.1 -0.1)">
       <defs>
        <path id="DejaVuSans-32" d="M 1228 531 
L 3431 531 
L 3431 0 
L 469 0 
L 469 531 
Q 828 903 1448 1529 
Q 2069 2156 2228 2338 
Q 2531 2678 2651 2914 
Q 2772 3150 2772 3378 
Q 2772 3750 2511 3984 
Q 2250 4219 1831 4219 
Q 1534 4219 1204 4116 
Q 875 4013 500 3803 
L 500 4441 
Q 881 4594 1212 4672 
Q 1544 4750 1819 4750 
Q 2544 4750 2975 4387 
Q 3406 4025 3406 3419 
Q 3406 3131 3298 2873 
Q 3191 2616 2906 2266 
Q 2828 2175 2409 1742 
Q 1991 1309 1228 531 
z
" transform="scale(0.015625)"/>
       </defs>
       <use xlink:href="#DejaVuSans-32"/>
       <use xlink:href="#DejaVuSans-30" transform="translate(63.623047 0)"/>
       <use xlink:href="#DejaVuSans-30" transform="translate(127.246094 0)"/>
      </g>
     </g>
    </g>
    <g id="xtick_3">
     <g id="line2d_5">
      <path d="M 204.68705 318.04 
L 204.68705 25.44 
" clip-path="url(#p5c900c6152)" style="fill: none; stroke: #b0b0b0; stroke-opacity: 0.3; stroke-width: 0.8; stroke-linecap: square"/>
     </g>
     <g id="line2d_6">
      <g>
       <use xlink:href="#mb824c23d85" x="204.68705" y="318.04" style="stroke: #000000; stroke-width: 0.8"/>
      </g>
     </g>
     <g id="text_3">
      <!-- 400 -->
      <g transform="translate(195.1433 332.638438) scale(0.1 -0.1)">
       <defs>
        <path id="DejaVuSans-34" d="M 2419 4116 
L 825 1625 
L 2419 1625 
L 2419 4116 
z
M 2253 4666 
L 3047 4666 
L 3047 1625 
L 3713 1625 
L 3713 1100 
L 3047 1100 
L 3047 0 
L 2419 0 
L 2419 1100 
L 313 1100 
L 313 1709 
L 2253 4666 
z
" transform="scale(0.015625)"/>
       </defs>
       <use xlink:href="#DejaVuSans-34"/>
       <use xlink:href="#DejaVuSans-30" transform="translate(63.623047 0)"/>
       <use xlink:href="#DejaVuSans-30" transform="translate(127.246094 0)"/>
      </g>
     </g>
    </g>
    <g id="xtick_4">
     <g id="line2d_7">
      <path d="M 270.521938 318.04 
L 270.521938 25.44 
" clip-path="url(#p5c900c6152)" style="fill: none; stroke: #b0b0b0; stroke-opacity: 0.3; stroke-width: 0.8; stroke-linecap: square"/>
     </g>
     <g id="line2d_8">
      <g>
       <use xlink:href="#mb824c23d85" x="270.521938" y="318.04" style="stroke: #000000; stroke-width: 0.8"/>
      </g>
     </g>
     <g id="text_4">
      <!-- 600 -->
      <g transform="translate(260.978188 332.638438) scale(0.1 -0.1)">
       <defs>
        <path id="DejaVuSans-36" d="M 2113 2584 
Q 1688 2584 1439 2293 
Q 1191 2003 1191 1497 
Q 1191 994 1439 701 
Q 1688 409 2113 409 
Q 2538 409 2786 701 
Q 3034 994 3034 1497 
Q 3034 2003 2786 2293 
Q 2538 2584 2113 2584 
z
M 3366 4563 
L 3366 3988 
Q 3128 4100 2886 4159 
Q 2644 4219 2406 4219 
Q 1781 4219 1451 3797 
Q 1122 3375 1075 2522 
Q 1259 2794 1537 2939 
Q 1816 3084 2150 3084 
Q 2853 3084 3261 2657 
Q 3669 2231 3669 1497 
Q 3669 778 3244 343 
Q 2819 -91 2113 -91 
Q 1303 -91 875 529 
Q 447 1150 447 2328 
Q 447 3434 972 4092 
Q 1497 4750 2381 4750 
Q 2619 4750 2861 4703 
Q 3103 4656 3366 4563 
z
" transform="scale(0.015625)"/>
       </defs>
       <use xlink:href="#DejaVuSans-36"/>
       <use xlink:href="#DejaVuSans-30" transform="translate(63.623047 0)"/>
       <use xlink:href="#DejaVuSans-30" transform="translate(127.246094 0)"/>
      </g>
     </g>
    </g>
    <g id="xtick_5">
     <g id="line2d_9">
      <path d="M 336.356827 318.04 
L 336.356827 25.44 
" clip-path="url(#p5c900c6152)" style="fill: none; stroke: #b0b0b0; stroke-opacity: 0.3; stroke-width: 0.8; stroke-linecap: square"/>
     </g>
     <g id="line2d_10">
      <g>
       <use xlink:href="#mb824c23d85" x="336.356827" y="318.04" style="stroke: #000000; stroke-width: 0.8"/>
      </g>
     </g>
     <g id="text_5">
      <!-- 800 -->
      <g transform="translate(326.813077 332.638438) scale(0.1 -0.1)">
       <defs>
        <path id="DejaVuSans-38" d="M 2034 2216 
Q 1584 2216 1326 1975 
Q 1069 1734 1069 1313 
Q 1069 891 1326 650 
Q 1584 409 2034 409 
Q 2484 409 2743 651 
Q 3003 894 3003 1313 
Q 3003 1734 2745 1975 
Q 2488 2216 2034 2216 
z
M 1403 2484 
Q 997 2584 770 2862 
Q 544 3141 544 3541 
Q 544 4100 942 4425 
Q 1341 4750 2034 4750 
Q 2731 4750 3128 4425 
Q 3525 4100 3525 3541 
Q 3525 3141 3298 2862 
Q 3072 2584 2669 2484 
Q 3125 2378 3379 2068 
Q 3634 1759 3634 1313 
Q 3634 634 3220 271 
Q 2806 -91 2034 -91 
Q 1263 -91 848 271 
Q 434 634 434 1313 
Q 434 1759 690 2068 
Q 947 2378 1403 2484 
z
M 1172 3481 
Q 1172 3119 1398 2916 
Q 1625 2713 2034 2713 
Q 2441 2713 2670 2916 
Q 2900 3119 2900 3481 
Q 2900 3844 2670 4047 
Q 2441 4250 2034 4250 
Q 1625 4250 1398 4047 
Q 1172 3844 1172 3481 
z
" transform="scale(0.015625)"/>
       </defs>
       <use xlink:href="#DejaVuSans-38"/>
       <use xlink:href="#DejaVuSans-30" transform="translate(63.623047 0)"/>
       <use xlink:href="#DejaVuSans-30" transform="translate(127.246094 0)"/>
      </g>
     </g>
    </g>
    <g id="xtick_6">
     <g id="line2d_11">
      <path d="M 402.191715 318.04 
L 402.191715 25.44 
" clip-path="url(#p5c900c6152)" style="fill: none; stroke: #b0b0b0; stroke-opacity: 0.3; stroke-width: 0.8; stroke-linecap: square"/>
     </g>
     <g id="line2d_12">
      <g>
       <use xlink:href="#mb824c23d85" x="402.191715" y="318.04" style="stroke: #000000; stroke-width: 0.8"/>
      </g>
     </g>
     <g id="text_6">
      <!-- 1000 -->
      <g transform="translate(389.466715 332.638438) scale(0.1 -0.1)">
       <defs>
        <path id="DejaVuSans-31" d="M 794 531 
L 1825 531 
L 1825 4091 
L 703 3866 
L 703 4441 
L 1819 4666 
L 2450 4666 
L 2450 531 
L 3481 531 
L 3481 0 
L 794 0 
L 794 531 
z
" transform="scale(0.015625)"/>
       </defs>
       <use xlink:href="#DejaVuSans-31"/>
       <use xlink:href="#DejaVuSans-30" transform="translate(63.623047 0)"/>
       <use xlink:href="#DejaVuSans-30" transform="translate(127.246094 0)"/>
       <use xlink:href="#DejaVuSans-30" transform="translate(190.869141 0)"/>
      </g>
     </g>
    </g>
    <g id="text_7">
     <!-- Time Step -->
     <g transform="translate(216.182187 346.316563) scale(0.1 -0.1)">
      <defs>
       <path id="DejaVuSans-54" d="M -19 4666 
L 3928 4666 
L 3928 4134 
L 2272 4134 
L 2272 0 
L 1638 0 
L 1638 4134 
L -19 4134 
L -19 4666 
z
" transform="scale(0.015625)"/>
       <path id="DejaVuSans-69" d="M 603 3500 
L 1178 3500 
L 1178 0 
L 603 0 
L 603 3500 
z
M 603 4863 
L 1178 4863 
L 1178 4134 
L 603 4134 
L 603 4863 
z
" transform="scale(0.015625)"/>
       <path id="DejaVuSans-6d" d="M 3328 2828 
Q 3544 3216 3844 3400 
Q 4144 3584 4550 3584 
Q 5097 3584 5394 3201 
Q 5691 2819 5691 2113 
L 5691 0 
L 5113 0 
L 5113 2094 
Q 5113 2597 4934 2840 
Q 4756 3084 4391 3084 
Q 3944 3084 3684 2787 
Q 3425 2491 3425 1978 
L 3425 0 
L 2847 0 
L 2847 2094 
Q 2847 2600 2669 2842 
Q 2491 3084 2119 3084 
Q 1678 3084 1418 2786 
Q 1159 2488 1159 1978 
L 1159 0 
L 581 0 
L 581 3500 
L 1159 3500 
L 1159 2956 
Q 1356 3278 1631 3431 
Q 1906 3584 2284 3584 
Q 2666 3584 2933 3390 
Q 3200 3197 3328 2828 
z
" transform="scale(0.015625)"/>
       <path id="DejaVuSans-65" d="M 3597 1894 
L 3597 1613 
L 953 1613 
Q 991 1019 1311 708 
Q 1631 397 2203 397 
Q 2534 397 2845 478 
Q 3156 559 3463 722 
L 3463 178 
Q 3153 47 2828 -22 
Q 2503 -91 2169 -91 
Q 1331 -91 842 396 
Q 353 884 353 1716 
Q 353 2575 817 3079 
Q 1281 3584 2069 3584 
Q 2775 3584 3186 3129 
Q 3597 2675 3597 1894 
z
M 3022 2063 
Q 3016 2534 2758 2815 
Q 2500 3097 2075 3097 
Q 1594 3097 1305 2825 
Q 1016 2553 972 2059 
L 3022 2063 
z
" transform="scale(0.015625)"/>
       <path id="DejaVuSans-20" transform="scale(0.015625)"/>
       <path id="DejaVuSans-53" d="M 3425 4513 
L 3425 3897 
Q 3066 4069 2747 4153 
Q 2428 4238 2131 4238 
Q 1616 4238 1336 4038 
Q 1056 3838 1056 3469 
Q 1056 3159 1242 3001 
Q 1428 2844 1947 2747 
L 2328 2669 
Q 3034 2534 3370 2195 
Q 3706 1856 3706 1288 
Q 3706 609 3251 259 
Q 2797 -91 1919 -91 
Q 1588 -91 1214 -16 
Q 841 59 441 206 
L 441 856 
Q 825 641 1194 531 
Q 1563 422 1919 422 
Q 2459 422 2753 634 
Q 3047 847 3047 1241 
Q 3047 1584 2836 1778 
Q 2625 1972 2144 2069 
L 1759 2144 
Q 1053 2284 737 2584 
Q 422 2884 422 3419 
Q 422 4038 858 4394 
Q 1294 4750 2059 4750 
Q 2388 4750 2728 4690 
Q 3069 4631 3425 4513 
z
" transform="scale(0.015625)"/>
       <path id="DejaVuSans-74" d="M 1172 4494 
L 1172 3500 
L 2356 3500 
L 2356 3053 
L 1172 3053 
L 1172 1153 
Q 1172 725 1289 603 
Q 1406 481 1766 481 
L 2356 481 
L 2356 0 
L 1766 0 
Q 1100 0 847 248 
Q 594 497 594 1153 
L 594 3053 
L 172 3053 
L 172 3500 
L 594 3500 
L 594 4494 
L 1172 4494 
z
" transform="scale(0.015625)"/>
       <path id="DejaVuSans-70" d="M 1159 525 
L 1159 -1331 
L 581 -1331 
L 581 3500 
L 1159 3500 
L 1159 2969 
Q 1341 3281 1617 3432 
Q 1894 3584 2278 3584 
Q 2916 3584 3314 3078 
Q 3713 2572 3713 1747 
Q 3713 922 3314 415 
Q 2916 -91 2278 -91 
Q 1894 -91 1617 61 
Q 1341 213 1159 525 
z
M 3116 1747 
Q 3116 2381 2855 2742 
Q 2594 3103 2138 3103 
Q 1681 3103 1420 2742 
Q 1159 2381 1159 1747 
Q 1159 1113 1420 752 
Q 1681 391 2138 391 
Q 2594 391 2855 752 
Q 3116 1113 3116 1747 
z
" transform="scale(0.015625)"/>
      </defs>
      <use xlink:href="#DejaVuSans-54"/>
      <use xlink:href="#DejaVuSans-69" transform="translate(57.958984 0)"/>
      <use xlink:href="#DejaVuSans-6d" transform="translate(85.742188 0)"/>
      <use xlink:href="#DejaVuSans-65" transform="translate(183.154297 0)"/>
      <use xlink:href="#DejaVuSans-20" transform="translate(244.677734 0)"/>
      <use xlink:href="#DejaVuSans-53" transform="translate(276.464844 0)"/>
      <use xlink:href="#DejaVuSans-74" transform="translate(339.941406 0)"/>
      <use xlink:href="#DejaVuSans-65" transform="translate(379.150391 0)"/>
      <use xlink:href="#DejaVuSans-70" transform="translate(440.673828 0)"/>
     </g>
    </g>
   </g>
   <g id="matplotlib.axis_2">
    <g id="ytick_1">
     <g id="line2d_13">
      <path d="M 56.18 299.172271 
L 426.6 299.172271 
" clip-path="url(#p5c900c6152)" style="fill: none; stroke: #b0b0b0; stroke-opacity: 0.3; stroke-width: 0.8; stroke-linecap: square"/>
     </g>
     <g id="line2d_14">
      <defs>
       <path id="mecaebe720f" d="M 0 0 
L -3.5 0 
" style="stroke: #000000; stroke-width: 0.8"/>
      </defs>
      <g>
       <use xlink:href="#mecaebe720f" x="56.18" y="299.172271" style="stroke: #000000; stroke-width: 0.8"/>
      </g>
     </g>
     <g id="text_8">
      <!-- −0.4 -->
      <g transform="translate(24.897187 302.971489) scale(0.1 -0.1)">
       <defs>
        <path id="DejaVuSans-2212" d="M 678 2272 
L 4684 2272 
L 4684 1741 
L 678 1741 
L 678 2272 
z
" transform="scale(0.015625)"/>
        <path id="DejaVuSans-2e" d="M 684 794 
L 1344 794 
L 1344 0 
L 684 0 
L 684 794 
z
" transform="scale(0.015625)"/>
       </defs>
       <use xlink:href="#DejaVuSans-2212"/>
       <use xlink:href="#DejaVuSans-30" transform="translate(83.789062 0)"/>
       <use xlink:href="#DejaVuSans-2e" transform="translate(147.412109 0)"/>
       <use xlink:href="#DejaVuSans-34" transform="translate(179.199219 0)"/>
      </g>
     </g>
    </g>
    <g id="ytick_2">
     <g id="line2d_15">
      <path d="M 56.18 237.100544 
L 426.6 237.100544 
" clip-path="url(#p5c900c6152)" style="fill: none; stroke: #b0b0b0; stroke-opacity: 0.3; stroke-width: 0.8; stroke-linecap: square"/>
     </g>
     <g id="line2d_16">
      <g>
       <use xlink:href="#mecaebe720f" x="56.18" y="237.100544" style="stroke: #000000; stroke-width: 0.8"/>
      </g>
     </g>
     <g id="text_9">
      <!-- −0.2 -->
      <g transform="translate(24.897187 240.899762) scale(0.1 -0.1)">
       <use xlink:href="#DejaVuSans-2212"/>
       <use xlink:href="#DejaVuSans-30" transform="translate(83.789062 0)"/>
       <use xlink:href="#DejaVuSans-2e" transform="translate(147.412109 0)"/>
       <use xlink:href="#DejaVuSans-32" transform="translate(179.199219 0)"/>
      </g>
     </g>
    </g>
    <g id="ytick_3">
     <g id="line2d_17">
      <path d="M 56.18 175.028817 
L 426.6 175.028817 
" clip-path="url(#p5c900c6152)" style="fill: none; stroke: #b0b0b0; stroke-opacity: 0.3; stroke-width: 0.8; stroke-linecap: square"/>
     </g>
     <g id="line2d_18">
      <g>
       <use xlink:href="#mecaebe720f" x="56.18" y="175.028817" style="stroke: #000000; stroke-width: 0.8"/>
      </g>
     </g>
     <g id="text_10">
      <!-- 0.0 -->
      <g transform="translate(33.276875 178.828035) scale(0.1 -0.1)">
       <use xlink:href="#DejaVuSans-30"/>
       <use xlink:href="#DejaVuSans-2e" transform="translate(63.623047 0)"/>
       <use xlink:href="#DejaVuSans-30" transform="translate(95.410156 0)"/>
      </g>
     </g>
    </g>
    <g id="ytick_4">
     <g id="line2d_19">
      <path d="M 56.18 112.95709 
L 426.6 112.95709 
" clip-path="url(#p5c900c6152)" style="fill: none; stroke: #b0b0b0; stroke-opacity: 0.3; stroke-width: 0.8; stroke-linecap: square"/>
     </g>
     <g id="line2d_20">
      <g>
       <use xlink:href="#mecaebe720f" x="56.18" y="112.95709" style="stroke: #000000; stroke-width: 0.8"/>
      </g>
     </g>
     <g id="text_11">
      <!-- 0.2 -->
      <g transform="translate(33.276875 116.756308) scale(0.1 -0.1)">
       <use xlink:href="#DejaVuSans-30"/>
       <use xlink:href="#DejaVuSans-2e" transform="translate(63.623047 0)"/>
       <use xlink:href="#DejaVuSans-32" transform="translate(95.410156 0)"/>
      </g>
     </g>
    </g>
    <g id="ytick_5">
     <g id="line2d_21">
      <path d="M 56.18 50.885363 
L 426.6 50.885363 
" clip-path="url(#p5c900c6152)" style="fill: none; stroke: #b0b0b0; stroke-opacity: 0.3; stroke-width: 0.8; stroke-linecap: square"/>
     </g>
     <g id="line2d_22">
      <g>
       <use xlink:href="#mecaebe720f" x="56.18" y="50.885363" style="stroke: #000000; stroke-width: 0.8"/>
      </g>
     </g>
     <g id="text_12">
      <!-- 0.4 -->
      <g transform="translate(33.276875 54.684581) scale(0.1 -0.1)">
       <use xlink:href="#DejaVuSans-30"/>
       <use xlink:href="#DejaVuSans-2e" transform="translate(63.623047 0)"/>
       <use xlink:href="#DejaVuSans-34" transform="translate(95.410156 0)"/>
      </g>
     </g>
    </g>
    <g id="text_13">
     <!-- H (Normalized) -->
     <g transform="translate(18.8175 209.34625) rotate(-90) scale(0.1 -0.1)">
      <defs>
       <path id="DejaVuSans-48" d="M 628 4666 
L 1259 4666 
L 1259 2753 
L 3553 2753 
L 3553 4666 
L 4184 4666 
L 4184 0 
L 3553 0 
L 3553 2222 
L 1259 2222 
L 1259 0 
L 628 0 
L 628 4666 
z
" transform="scale(0.015625)"/>
       <path id="DejaVuSans-28" d="M 1984 4856 
Q 1566 4138 1362 3434 
Q 1159 2731 1159 2009 
Q 1159 1288 1364 580 
Q 1569 -128 1984 -844 
L 1484 -844 
Q 1016 -109 783 600 
Q 550 1309 550 2009 
Q 550 2706 781 3412 
Q 1013 4119 1484 4856 
L 1984 4856 
z
" transform="scale(0.015625)"/>
       <path id="DejaVuSans-4e" d="M 628 4666 
L 1478 4666 
L 3547 763 
L 3547 4666 
L 4159 4666 
L 4159 0 
L 3309 0 
L 1241 3903 
L 1241 0 
L 628 0 
L 628 4666 
z
" transform="scale(0.015625)"/>
       <path id="DejaVuSans-6f" d="M 1959 3097 
Q 1497 3097 1228 2736 
Q 959 2375 959 1747 
Q 959 1119 1226 758 
Q 1494 397 1959 397 
Q 2419 397 2687 759 
Q 2956 1122 2956 1747 
Q 2956 2369 2687 2733 
Q 2419 3097 1959 3097 
z
M 1959 3584 
Q 2709 3584 3137 3096 
Q 3566 2609 3566 1747 
Q 3566 888 3137 398 
Q 2709 -91 1959 -91 
Q 1206 -91 779 398 
Q 353 888 353 1747 
Q 353 2609 779 3096 
Q 1206 3584 1959 3584 
z
" transform="scale(0.015625)"/>
       <path id="DejaVuSans-72" d="M 2631 2963 
Q 2534 3019 2420 3045 
Q 2306 3072 2169 3072 
Q 1681 3072 1420 2755 
Q 1159 2438 1159 1844 
L 1159 0 
L 581 0 
L 581 3500 
L 1159 3500 
L 1159 2956 
Q 1341 3275 1631 3429 
Q 1922 3584 2338 3584 
Q 2397 3584 2469 3576 
Q 2541 3569 2628 3553 
L 2631 2963 
z
" transform="scale(0.015625)"/>
       <path id="DejaVuSans-61" d="M 2194 1759 
Q 1497 1759 1228 1600 
Q 959 1441 959 1056 
Q 959 750 1161 570 
Q 1363 391 1709 391 
Q 2188 391 2477 730 
Q 2766 1069 2766 1631 
L 2766 1759 
L 2194 1759 
z
M 3341 1997 
L 3341 0 
L 2766 0 
L 2766 531 
Q 2569 213 2275 61 
Q 1981 -91 1556 -91 
Q 1019 -91 701 211 
Q 384 513 384 1019 
Q 384 1609 779 1909 
Q 1175 2209 1959 2209 
L 2766 2209 
L 2766 2266 
Q 2766 2663 2505 2880 
Q 2244 3097 1772 3097 
Q 1472 3097 1187 3025 
Q 903 2953 641 2809 
L 641 3341 
Q 956 3463 1253 3523 
Q 1550 3584 1831 3584 
Q 2591 3584 2966 3190 
Q 3341 2797 3341 1997 
z
" transform="scale(0.015625)"/>
       <path id="DejaVuSans-6c" d="M 603 4863 
L 1178 4863 
L 1178 0 
L 603 0 
L 603 4863 
z
" transform="scale(0.015625)"/>
       <path id="DejaVuSans-7a" d="M 353 3500 
L 3084 3500 
L 3084 2975 
L 922 459 
L 3084 459 
L 3084 0 
L 275 0 
L 275 525 
L 2438 3041 
L 353 3041 
L 353 3500 
z
" transform="scale(0.015625)"/>
       <path id="DejaVuSans-64" d="M 2906 2969 
L 2906 4863 
L 3481 4863 
L 3481 0 
L 2906 0 
L 2906 525 
Q 2725 213 2448 61 
Q 2172 -91 1784 -91 
Q 1150 -91 751 415 
Q 353 922 353 1747 
Q 353 2572 751 3078 
Q 1150 3584 1784 3584 
Q 2172 3584 2448 3432 
Q 2725 3281 2906 2969 
z
M 947 1747 
Q 947 1113 1208 752 
Q 1469 391 1925 391 
Q 2381 391 2643 752 
Q 2906 1113 2906 1747 
Q 2906 2381 2643 2742 
Q 2381 3103 1925 3103 
Q 1469 3103 1208 2742 
Q 947 2381 947 1747 
z
" transform="scale(0.015625)"/>
       <path id="DejaVuSans-29" d="M 513 4856 
L 1013 4856 
Q 1481 4119 1714 3412 
Q 1947 2706 1947 2009 
Q 1947 1309 1714 600 
Q 1481 -109 1013 -844 
L 513 -844 
Q 928 -128 1133 580 
Q 1338 1288 1338 2009 
Q 1338 2731 1133 3434 
Q 928 4138 513 4856 
z
" transform="scale(0.015625)"/>
      </defs>
      <use xlink:href="#DejaVuSans-48"/>
      <use xlink:href="#DejaVuSans-20" transform="translate(75.195312 0)"/>
      <use xlink:href="#DejaVuSans-28" transform="translate(106.982422 0)"/>
      <use xlink:href="#DejaVuSans-4e" transform="translate(145.996094 0)"/>
      <use xlink:href="#DejaVuSans-6f" transform="translate(220.800781 0)"/>
      <use xlink:href="#DejaVuSans-72" transform="translate(281.982422 0)"/>
      <use xlink:href="#DejaVuSans-6d" transform="translate(321.345703 0)"/>
      <use xlink:href="#DejaVuSans-61" transform="translate(418.757812 0)"/>
      <use xlink:href="#DejaVuSans-6c" transform="translate(480.037109 0)"/>
      <use xlink:href="#DejaVuSans-69" transform="translate(507.820312 0)"/>
      <use xlink:href="#DejaVuSans-7a" transform="translate(535.603516 0)"/>
      <use xlink:href="#DejaVuSans-65" transform="translate(588.09375 0)"/>
      <use xlink:href="#DejaVuSans-64" transform="translate(649.617188 0)"/>
      <use xlink:href="#DejaVuSans-29" transform="translate(713.09375 0)"/>
     </g>
    </g>
   </g>
   <g id="line2d_23">
    <path d="M 73.017273 144.774044 
L 73.346447 146.405319 
L 73.675622 146.813021 
L 74.004796 145.684575 
L 74.33397 142.993346 
L 75.650668 126.766395 
L 75.979843 125.204498 
L 76.309017 125.787354 
L 76.638192 128.462167 
L 77.954889 145.917764 
L 78.284064 147.401001 
L 78.613238 146.638799 
L 78.942413 143.856175 
L 79.929936 131.361075 
L 80.25911 129.039294 
L 80.588285 128.761538 
L 80.917459 130.567989 
L 81.575808 138.344702 
L 82.234157 145.742127 
L 82.563332 147.253283 
L 82.892506 146.832953 
L 83.22168 144.670826 
L 84.209204 134.507927 
L 84.538378 132.584337 
L 84.867553 132.308677 
L 85.196727 133.709384 
L 85.855076 139.871037 
L 86.513425 145.844606 
L 86.842599 147.158218 
L 87.171774 146.977496 
L 87.500948 145.434177 
L 88.817646 136.163992 
L 89.14682 135.861592 
L 89.475995 136.852248 
L 90.134344 141.53353 
L 90.792693 146.284158 
L 91.121867 147.419872 
L 91.451042 147.40129 
L 91.780216 146.304801 
L 93.096914 139.186752 
L 93.426088 138.952781 
L 93.755263 139.747213 
L 94.413611 143.500637 
L 95.07196 147.301646 
L 95.401135 148.199216 
L 95.730309 148.169768 
L 96.059484 147.284398 
L 97.376181 141.800864 
L 97.705356 141.712426 
L 98.03453 142.432418 
L 98.692879 145.49566 
L 99.351228 148.449334 
L 99.680403 149.110595 
L 100.009577 149.054622 
L 100.338751 148.356985 
L 101.326275 144.951191 
L 101.655449 144.362661 
L 101.984624 144.371832 
L 102.313798 144.979964 
L 102.972147 147.360593 
L 103.630496 149.603789 
L 103.95967 150.113328 
L 104.288845 150.093899 
L 104.618019 149.603838 
L 105.605543 147.176317 
L 105.934717 146.771843 
L 106.263891 146.811245 
L 106.593066 147.298421 
L 107.251415 149.154835 
L 107.909764 150.920519 
L 108.238938 151.339677 
L 108.568113 151.352896 
L 108.897287 151.002388 
L 109.88481 149.211686 
L 110.213985 148.936102 
L 110.543159 149.010861 
L 110.872334 149.436868 
L 112.518206 152.701846 
L 112.84738 152.709604 
L 113.176555 152.440453 
L 114.164078 151.161827 
L 114.493252 151.017545 
L 114.822427 151.147245 
L 115.151601 151.539603 
L 116.468299 153.869182 
L 116.797474 154.113253 
L 117.126648 154.123048 
L 117.784997 153.643864 
L 118.443346 153.129532 
L 118.77252 153.084115 
L 119.101695 153.237315 
L 119.760044 154.045413 
L 120.747567 155.419255 
L 121.076741 155.630588 
L 121.405916 155.673481 
L 122.064265 155.39809 
L 122.722614 155.092053 
L 123.051788 155.092714 
L 123.380962 155.24073 
L 124.039311 155.917534 
L 125.026835 157.067112 
L 125.356009 157.25945 
L 126.014358 157.267378 
L 127.001881 156.968965 
L 127.331056 157.00442 
L 127.989405 157.422264 
L 129.306102 158.708763 
L 129.964451 158.911975 
L 131.610323 158.836453 
L 132.268672 159.245732 
L 133.58537 160.300192 
L 134.243719 160.502954 
L 135.889591 160.681696 
L 136.54794 161.049114 
L 137.864638 161.951834 
L 138.522987 162.193256 
L 140.498033 162.646049 
L 142.802255 163.91502 
L 144.777301 164.421424 
L 147.081522 165.59986 
L 148.727394 166.044878 
L 151.689964 167.3652 
L 153.006662 167.80325 
L 156.627581 169.303454 
L 157.944279 169.837275 
L 159.919326 170.709338 
L 161.894372 171.419327 
L 163.869419 172.301184 
L 166.17364 173.183729 
L 168.477861 174.13466 
L 172.427954 175.741543 
L 185.594932 180.944598 
L 193.165944 183.985063 
L 204.357875 188.382905 
L 208.966317 190.195685 
L 214.562283 192.427582 
L 219.4999 194.373513 
L 223.120818 195.779963 
L 227.729261 197.585381 
L 230.362656 198.626545 
L 241.554587 202.972386 
L 243.529634 203.749921 
L 245.504681 204.46525 
L 250.442297 206.447632 
L 254.721565 208.096493 
L 256.367437 208.69699 
L 258.013309 209.382862 
L 259.330007 209.805134 
L 261.634228 210.837165 
L 262.950926 211.313986 
L 264.267624 211.942901 
L 266.24267 212.558836 
L 267.559368 213.231113 
L 269.534415 213.812401 
L 270.521938 214.39938 
L 271.180287 214.528752 
L 271.838636 214.58071 
L 272.496985 214.925015 
L 273.155334 215.364459 
L 273.484508 215.274332 
L 273.813683 214.718392 
L 274.142857 213.547556 
L 274.801206 209.392847 
L 275.459555 204.561217 
L 275.788729 203.035865 
L 276.117904 202.734868 
L 276.447078 203.935328 
L 276.776253 206.632999 
L 278.09295 222.088122 
L 278.422125 223.356655 
L 278.751299 222.513335 
L 279.080474 219.645677 
L 280.397171 202.304237 
L 280.726346 200.985565 
L 281.05552 201.896164 
L 281.384695 204.773248 
L 282.372218 217.011644 
L 282.701393 219.075488 
L 283.030567 219.053594 
L 283.359741 216.949026 
L 284.01809 208.750667 
L 284.676439 201.329497 
L 285.005614 199.945492 
L 285.334788 200.540818 
L 285.663962 202.876777 
L 286.651486 213.114596 
L 286.98066 214.84849 
L 287.309835 214.850649 
L 287.639009 213.136577 
L 288.297358 206.43598 
L 288.955707 200.296142 
L 289.284881 199.059572 
L 289.614056 199.38927 
L 289.94323 201.107063 
L 290.930754 209.039399 
L 291.259928 210.458649 
L 291.589102 210.543623 
L 291.918277 209.278526 
L 292.576626 204.060392 
L 293.234975 199.05186 
L 293.564149 197.933265 
L 293.893324 198.048168 
L 294.222498 199.284908 
L 295.210021 205.446062 
L 295.539196 206.578747 
L 295.86837 206.642833 
L 296.197545 205.609818 
L 296.855894 201.333319 
L 297.514242 197.222869 
L 297.843417 196.30921 
L 298.172591 196.406631 
L 298.501766 197.413275 
L 299.489289 202.275157 
L 299.818464 203.085548 
L 300.147638 203.018314 
L 300.476812 202.075152 
L 301.135161 198.521081 
L 301.79351 195.281501 
L 302.122685 194.60555 
L 302.451859 194.720661 
L 302.781034 195.520395 
L 303.768557 199.101969 
L 304.097731 199.613154 
L 304.426906 199.45248 
L 304.75608 198.640872 
L 306.072778 193.340212 
L 306.401952 192.808161 
L 306.731127 192.861667 
L 307.060301 193.418066 
L 308.047825 195.945812 
L 308.376999 196.281034 
L 308.706173 196.114778 
L 309.035348 195.458218 
L 310.352046 191.225729 
L 310.68122 190.766667 
L 311.010395 190.763195 
L 311.339569 191.155586 
L 312.327092 193.016223 
L 312.656267 193.22814 
L 312.985441 193.035698 
L 313.314616 192.450022 
L 314.631313 188.924353 
L 314.960488 188.559428 
L 315.289662 188.561313 
L 315.618837 188.868981 
L 316.60636 190.187132 
L 316.935535 190.257565 
L 317.264709 190.005804 
L 317.923058 188.707289 
L 318.581407 187.150069 
L 318.910581 186.607075 
L 319.239756 186.328554 
L 319.56893 186.317984 
L 320.227279 186.82461 
L 320.885628 187.286858 
L 321.214802 187.253485 
L 321.543977 186.99035 
L 322.202326 185.91846 
L 322.860674 184.687881 
L 323.519023 183.982447 
L 323.848198 183.913523 
L 324.506547 184.16284 
L 325.164896 184.404549 
L 325.49407 184.338451 
L 325.823244 184.101212 
L 326.481593 183.198344 
L 327.469117 181.746613 
L 327.798291 181.498566 
L 328.127466 181.40819 
L 328.785814 181.553377 
L 329.444163 181.684791 
L 329.773338 181.586291 
L 330.431687 180.964376 
L 331.748384 179.260489 
L 332.406733 178.986813 
L 333.723431 179.032063 
L 334.38178 178.612108 
L 336.027652 176.869781 
L 336.686001 176.598998 
L 338.002699 176.35041 
L 338.661048 175.922289 
L 340.636094 174.123907 
L 341.623618 173.780366 
L 342.611141 173.431081 
L 343.26949 172.94818 
L 344.915362 171.555051 
L 345.902885 171.230831 
L 346.561234 171.017786 
L 347.219583 170.604341 
L 348.865455 169.244242 
L 349.852979 168.844291 
L 350.840502 168.425364 
L 352.1572 167.444441 
L 353.144723 166.782296 
L 356.107293 165.158855 
L 358.411514 163.69143 
L 360.057386 162.847148 
L 362.690782 161.159515 
L 364.00748 160.471558 
L 366.311701 158.973707 
L 367.628399 158.262637 
L 370.590969 156.440629 
L 376.516109 152.948128 
L 377.832806 152.120976 
L 379.149504 151.313503 
L 380.795376 150.462516 
L 382.770423 149.22525 
L 384.416295 148.32088 
L 386.062167 147.300576 
L 387.70804 146.390034 
L 389.353912 145.369635 
L 390.67061 144.693931 
L 392.974831 143.281671 
L 393.962354 142.776332 
L 396.266575 141.357369 
L 397.254098 140.882846 
L 399.55832 139.42748 
L 400.545843 138.981947 
L 402.52089 137.628391 
L 403.837587 137.089257 
L 405.48346 135.811331 
L 406.800157 135.434353 
L 408.116855 134.43038 
L 408.44603 134.824905 
L 408.775204 135.850294 
L 409.433553 139.852587 
L 409.762727 142.410404 
L 409.762727 142.410404 
" clip-path="url(#p5c900c6152)" style="fill: none; stroke: #000000; stroke-opacity: 0.6; stroke-width: 1.5; stroke-linecap: square"/>
   </g>
   <g id="line2d_24">
    <path d="M 73.017273 132.99243 
L 73.675622 132.967679 
L 74.33397 133.219309 
L 76.638192 134.631694 
L 77.625715 134.578773 
L 78.284064 134.587065 
L 78.942413 134.829622 
L 80.917459 136.006221 
L 81.904983 136.074629 
L 82.563332 136.125848 
L 83.22168 136.358785 
L 85.196727 137.439363 
L 86.18425 137.571708 
L 87.171774 137.752877 
L 88.159297 138.243162 
L 89.14682 138.765867 
L 90.134344 139.021833 
L 91.451042 139.279017 
L 92.438565 139.73102 
L 93.755263 140.331089 
L 96.717833 141.223812 
L 98.03453 141.787993 
L 100.9971 142.713161 
L 102.642973 143.34721 
L 104.947194 144.059042 
L 106.92224 144.81741 
L 109.226461 145.549926 
L 111.530682 146.385062 
L 113.834904 147.163708 
L 116.139125 147.952092 
L 118.114171 148.652985 
L 120.747567 149.570702 
L 126.672707 151.683715 
L 132.597847 153.79221 
L 143.131429 157.503355 
L 159.260977 163.184226 
L 163.21107 164.679871 
L 193.824293 177.546815 
L 212.587236 186.496261 
L 216.208155 188.192639 
L 256.696612 205.986502 
L 263.938449 208.793471 
L 275.13038 212.793126 
L 275.788729 212.807319 
L 276.447078 212.57471 
L 277.105427 212.083985 
L 278.422125 210.922289 
L 279.080474 210.618509 
L 281.05552 210.232173 
L 282.043044 209.463667 
L 283.030567 208.699296 
L 283.688916 208.444179 
L 285.334788 208.014306 
L 286.322311 207.295541 
L 287.309835 206.572506 
L 288.297358 206.211275 
L 289.284881 205.939992 
L 290.272405 205.365772 
L 291.589102 204.434001 
L 292.576626 204.033744 
L 293.893324 203.563037 
L 295.210021 202.700153 
L 296.197545 202.117179 
L 298.83094 200.9566 
L 300.476812 199.957327 
L 303.110208 198.753953 
L 305.085255 197.63757 
L 307.060301 196.706127 
L 309.693697 195.241846 
L 311.339569 194.435067 
L 313.972965 192.994173 
L 315.948011 191.985874 
L 318.252232 190.755453 
L 320.556453 189.554499 
L 323.189849 188.199336 
L 329.114989 185.078012 
L 337.673524 180.270755 
L 348.207107 173.664291 
L 365.982526 162.544928 
L 396.59575 142.03964 
L 409.433553 134.218587 
L 409.762727 134.068798 
L 409.762727 134.068798 
" clip-path="url(#p5c900c6152)" style="fill: none; stroke-dasharray: 5.55,2.4; stroke-dashoffset: 0; stroke: #1f77b4; stroke-width: 1.5"/>
   </g>
   <g id="line2d_25">
    <path d="M 73.017273 44.824547 
L 73.346447 45.137557 
L 73.675622 44.994644 
L 74.992319 43.362466 
L 75.321494 43.463469 
L 76.309017 44.372853 
L 76.638192 44.354067 
L 76.967366 44.059816 
L 77.625715 43.188605 
L 77.954889 43.09932 
L 78.284064 43.569255 
L 78.613238 44.725107 
L 79.271587 48.755944 
L 79.929936 53.016073 
L 80.25911 54.267666 
L 80.588285 54.588435 
L 80.917459 53.963175 
L 81.575808 50.876972 
L 81.904983 49.276352 
L 82.234157 48.250565 
L 82.563332 48.126114 
L 82.892506 49.025342 
L 83.550855 53.258269 
L 84.209204 58.126352 
L 84.538378 59.724613 
L 84.867553 60.410725 
L 85.196727 60.161333 
L 85.525902 59.151992 
L 86.513425 55.126964 
L 86.842599 54.677461 
L 87.171774 55.043589 
L 87.500948 56.210911 
L 88.159297 60.148033 
L 88.817646 64.094681 
L 89.14682 65.310321 
L 89.475995 65.793954 
L 89.805169 65.547134 
L 90.134344 64.710701 
L 91.121867 61.448277 
L 91.451042 61.115465 
L 91.780216 61.497373 
L 92.10939 62.605499 
L 92.767739 66.336303 
L 93.426088 70.08531 
L 93.755263 71.203859 
L 94.084437 71.585915 
L 94.413611 71.242614 
L 95.07196 69.158131 
L 95.730309 67.3165 
L 96.059484 67.2189 
L 96.388658 67.849839 
L 96.717833 69.152128 
L 98.03453 76.038081 
L 98.363705 76.782964 
L 98.692879 76.86101 
L 99.022054 76.365658 
L 100.009577 73.806569 
L 100.338751 73.481646 
L 100.667926 73.719467 
L 100.9971 74.536569 
L 101.655449 77.416613 
L 102.313798 80.47997 
L 102.642973 81.521639 
L 102.972147 82.058104 
L 103.301321 82.07775 
L 103.630496 81.67036 
L 104.618019 79.795385 
L 104.947194 79.652907 
L 105.276368 79.989123 
L 105.605543 80.815548 
L 106.263891 83.506589 
L 106.92224 86.258871 
L 107.251415 87.151874 
L 107.580589 87.566589 
L 107.909764 87.506838 
L 108.238938 87.076362 
L 108.897287 85.868185 
L 109.226461 85.52149 
L 109.555636 85.572981 
L 109.88481 86.091152 
L 110.543159 88.304553 
L 111.530682 92.002957 
L 111.859857 92.631528 
L 112.189031 92.832786 
L 112.518206 92.663781 
L 113.505729 91.441018 
L 113.834904 91.364415 
L 114.164078 91.646855 
L 114.493252 92.299761 
L 115.151601 94.401985 
L 115.80995 96.617117 
L 116.139125 97.409893 
L 116.468299 97.880702 
L 116.797474 98.024733 
L 117.126648 97.902267 
L 118.114171 97.168113 
L 118.443346 97.242821 
L 118.77252 97.621029 
L 119.430869 99.229348 
L 120.418392 102.244697 
L 120.747567 102.904781 
L 121.076741 103.265846 
L 121.405916 103.34121 
L 122.064265 102.979697 
L 122.393439 102.801202 
L 122.722614 102.796207 
L 123.051788 103.050168 
L 123.380962 103.589718 
L 124.039311 105.323094 
L 124.69766 107.18772 
L 125.356009 108.316568 
L 125.685184 108.50681 
L 126.343532 108.407712 
L 126.672707 108.326974 
L 127.001881 108.366057 
L 127.331056 108.596797 
L 127.66023 109.045796 
L 128.318579 110.471657 
L 129.306102 112.740232 
L 129.964451 113.53396 
L 130.6228 113.739098 
L 131.281149 113.853796 
L 131.610323 114.052552 
L 132.268672 114.908866 
L 134.243719 118.54233 
L 134.902068 118.929681 
L 135.560417 119.125094 
L 136.218766 119.625029 
L 136.877115 120.653831 
L 138.193812 123.121004 
L 138.852161 123.794394 
L 140.168859 124.546944 
L 140.827208 125.340478 
L 142.802255 128.455101 
L 143.789778 129.261372 
L 144.448127 129.802508 
L 145.106476 130.562976 
L 147.410697 133.769455 
L 149.714918 136.051968 
L 151.689964 138.752733 
L 153.994186 141.099731 
L 155.640058 143.305618 
L 158.602628 146.560891 
L 160.2485 148.528416 
L 163.21107 151.853826 
L 165.515291 154.528466 
L 167.161163 156.353102 
L 169.13621 158.716891 
L 171.111257 160.889912 
L 173.086303 163.194771 
L 175.390524 165.80423 
L 182.632362 173.939071 
L 184.936583 176.521563 
L 188.886676 180.947816 
L 206.662096 200.44703 
L 210.941364 205.074374 
L 216.208155 210.840606 
L 220.816597 215.753789 
L 227.070912 222.459222 
L 231.35018 227.009436 
L 233.983575 229.798535 
L 241.883762 238.171159 
L 243.858808 240.218687 
L 245.833855 242.33496 
L 250.771472 247.414365 
L 255.379914 252.244078 
L 257.025786 253.94177 
L 258.671658 255.647416 
L 260.31753 257.361378 
L 261.963403 259.049052 
L 263.609275 260.765946 
L 265.255147 262.434438 
L 266.901019 264.165131 
L 268.546891 265.808168 
L 270.192764 267.547954 
L 271.838636 269.160505 
L 273.484508 270.914989 
L 275.13038 272.512269 
L 276.776253 274.282328 
L 278.422125 275.850769 
L 280.397171 277.932219 
L 281.713869 279.172277 
L 283.688916 281.284139 
L 285.005614 282.482021 
L 286.98066 284.612973 
L 288.297358 285.785937 
L 290.272405 287.934815 
L 291.589102 289.050886 
L 293.893324 291.51034 
L 294.880847 292.319266 
L 297.185068 294.829148 
L 298.172591 295.558039 
L 299.160115 296.806977 
L 299.818464 297.629832 
L 300.476812 298.136108 
L 301.464336 298.752053 
L 302.122685 299.575685 
L 303.110208 301.012165 
L 303.768557 301.45276 
L 304.426906 301.625095 
L 304.75608 301.833309 
L 305.085255 302.224512 
L 306.401952 304.547945 
L 306.731127 304.544717 
L 307.060301 304.006799 
L 307.389476 302.917608 
L 308.376999 297.778442 
L 309.035348 295.022109 
L 309.364522 294.287031 
L 309.693697 293.936349 
L 310.68122 293.568093 
L 311.010395 293.191938 
L 312.327092 291.022471 
L 312.985441 290.760472 
L 313.314616 290.637372 
L 313.64379 290.213213 
L 313.972965 289.258257 
L 314.302139 287.638196 
L 314.960488 282.668572 
L 315.618837 277.374239 
L 315.948011 275.581888 
L 316.277186 274.728668 
L 316.60636 274.845811 
L 316.935535 275.731747 
L 317.593883 278.124884 
L 317.923058 278.652276 
L 318.252232 278.227811 
L 318.581407 276.72839 
L 319.239756 271.24683 
L 319.898105 265.360543 
L 320.227279 263.420045 
L 320.556453 262.491645 
L 320.885628 262.547641 
L 321.214802 263.338068 
L 321.873151 265.439718 
L 322.202326 265.873201 
L 322.5315 265.48209 
L 322.860674 264.183528 
L 323.519023 259.49307 
L 324.177372 254.261503 
L 324.506547 252.329505 
L 324.835721 251.143454 
L 325.164896 250.729108 
L 325.49407 250.956047 
L 326.481593 252.673842 
L 326.810768 252.572441 
L 327.139942 251.792587 
L 327.469117 250.317792 
L 328.45664 243.491682 
L 329.114989 239.799702 
L 329.444163 238.902852 
L 329.773338 238.680191 
L 330.102512 238.980663 
L 330.760861 240.028033 
L 331.090036 240.140992 
L 331.41921 239.65155 
L 331.748384 238.471455 
L 332.406733 234.461268 
L 333.065082 230.0578 
L 333.394257 228.458605 
L 333.723431 227.500746 
L 334.052606 227.181003 
L 334.38178 227.346706 
L 335.040129 228.041577 
L 335.369303 227.988268 
L 335.698478 227.394479 
L 336.027652 226.213136 
L 336.686001 222.569211 
L 337.34435 218.79881 
L 337.673524 217.439008 
L 338.002699 216.575077 
L 338.331873 216.171599 
L 338.661048 216.091023 
L 339.319397 216.079674 
L 339.648571 215.754404 
L 339.977745 215.049373 
L 340.636094 212.522261 
L 341.952792 206.545435 
L 342.611141 205.040591 
L 343.26949 204.438921 
L 343.598664 204.171683 
L 343.927839 203.749662 
L 344.257013 203.079325 
L 344.915362 200.904027 
L 346.23206 195.451794 
L 346.890409 193.828559 
L 347.548758 193.028652 
L 348.207107 192.19268 
L 348.865455 190.524367 
L 350.840502 183.475319 
L 351.498851 182.34889 
L 352.1572 181.393832 
L 352.815549 179.907316 
L 353.803072 176.560275 
L 354.790595 173.383815 
L 355.778119 171.277087 
L 356.765642 169.172989 
L 357.753165 166.358983 
L 359.399038 161.563162 
L 362.361608 154.264432 
L 363.678305 150.418607 
L 364.995003 147.521005 
L 365.982526 145.068626 
L 367.957573 139.511857 
L 369.93262 134.849642 
L 372.236841 128.743733 
L 375.85776 119.586135 
L 377.832806 114.451899 
L 379.478679 110.468702 
L 381.453725 105.209091 
L 383.099597 101.285635 
L 385.074644 96.127277 
L 386.720516 92.025285 
L 388.366389 87.905238 
L 389.683086 84.631345 
L 391.328958 80.325542 
L 392.974831 76.475948 
L 394.949877 71.257552 
L 396.266575 68.243993 
L 398.570796 62.333103 
L 399.55832 60.014971 
L 401.533366 54.818126 
L 402.850064 51.914108 
L 404.825111 46.459732 
L 405.812634 44.703611 
L 406.470983 42.878241 
L 407.458506 39.507396 
L 407.787681 38.862656 
L 408.116855 38.74 
L 408.44603 39.194405 
L 409.104378 41.456301 
L 409.762727 44.023382 
L 409.762727 44.023382 
" clip-path="url(#p5c900c6152)" style="fill: none; stroke: #000000; stroke-opacity: 0.6; stroke-width: 1.5; stroke-linecap: square"/>
   </g>
   <g id="line2d_26">
    <path d="M 73.017273 46.876436 
L 73.346447 46.688146 
L 73.675622 46.659722 
L 74.004796 46.77953 
L 74.663145 47.362409 
L 75.650668 48.671718 
L 77.954889 51.839197 
L 78.613238 52.30656 
L 80.25911 52.921544 
L 80.917459 53.691622 
L 82.892506 56.732457 
L 83.550855 57.050942 
L 84.538378 57.358837 
L 85.196727 57.978834 
L 86.18425 59.580313 
L 87.171774 61.040656 
L 87.830123 61.540781 
L 89.14682 62.157217 
L 89.805169 62.862216 
L 92.10939 66.156531 
L 93.096914 66.652679 
L 93.755263 67.051948 
L 94.413611 67.792178 
L 96.388658 70.713474 
L 97.047007 71.180532 
L 98.03453 71.70539 
L 98.692879 72.337097 
L 99.680403 73.801509 
L 100.667926 75.20421 
L 101.326275 75.798503 
L 102.642973 76.822486 
L 103.301321 77.679222 
L 105.605543 81.319151 
L 107.580589 83.174721 
L 108.568113 84.777282 
L 109.555636 86.385597 
L 110.213985 87.152392 
L 111.859857 88.689912 
L 112.84738 90.155822 
L 114.164078 92.198157 
L 115.151601 93.233582 
L 116.139125 94.179352 
L 117.126648 95.623203 
L 118.77252 98.265389 
L 120.089218 99.710914 
L 121.076741 100.918822 
L 124.039311 105.219302 
L 125.356009 106.772786 
L 128.976928 111.841698 
L 130.293626 113.622246 
L 131.939498 115.97271 
L 140.168859 126.255518 
L 142.143906 128.647632 
L 144.118952 131.17575 
L 148.069046 136.481446 
L 151.031616 140.680781 
L 162.552721 156.684812 
L 189.8742 190.043876 
L 193.495119 194.332479 
L 203.699526 205.391275 
L 210.941364 212.756204 
L 227.070912 228.524221 
L 228.38761 229.690941 
L 238.921192 238.475964 
L 243.529634 242.040334 
L 245.175506 243.388001 
L 253.404867 250.430667 
L 269.863589 267.198077 
L 276.117904 274.176996 
L 280.726346 279.032907 
L 287.639009 286.357717 
L 295.86837 294.701793 
L 305.743603 302.939288 
L 307.389476 304.065838 
L 308.376999 304.691006 
L 308.706173 304.74 
L 309.035348 304.652362 
L 309.364522 304.413644 
L 310.022871 303.496241 
L 311.010395 301.330187 
L 313.972965 293.975058 
L 314.960488 292.436743 
L 315.618837 291.474434 
L 316.277186 290.13413 
L 317.264709 287.333678 
L 318.252232 284.550716 
L 318.910581 283.243192 
L 320.227279 281.17212 
L 320.885628 279.657686 
L 321.873151 276.622225 
L 322.860674 273.60369 
L 323.848198 271.523979 
L 324.506547 270.122694 
L 325.164896 268.320021 
L 327.469117 261.009594 
L 329.114989 257.189283 
L 330.102512 253.912458 
L 331.41921 249.232193 
L 332.406733 246.598239 
L 333.394257 244.124559 
L 334.38178 240.920324 
L 335.698478 236.553761 
L 336.686001 234.032715 
L 338.002699 230.739093 
L 343.26949 214.985423 
L 344.915362 209.553611 
L 347.219583 202.43004 
L 348.536281 198.109762 
L 363.349131 156.99193 
L 373.882713 130.519185 
L 382.770423 108.906371 
L 390.67061 91.264124 
L 396.924924 77.896232 
L 408.44603 56.152908 
L 409.433553 54.310648 
L 409.762727 53.845033 
L 409.762727 53.845033 
" clip-path="url(#p5c900c6152)" style="fill: none; stroke-dasharray: 5.55,2.4; stroke-dashoffset: 0; stroke: #ff7f0e; stroke-width: 1.5"/>
   </g>
   <g id="patch_3">
    <path d="M 56.18 318.04 
L 56.18 25.44 
" style="fill: none; stroke: #000000; stroke-width: 0.8; stroke-linejoin: miter; stroke-linecap: square"/>
   </g>
   <g id="patch_4">
    <path d="M 426.6 318.04 
L 426.6 25.44 
" style="fill: none; stroke: #000000; stroke-width: 0.8; stroke-linejoin: miter; stroke-linecap: square"/>
   </g>
   <g id="patch_5">
    <path d="M 56.18 318.04 
L 426.6 318.04 
" style="fill: none; stroke: #000000; stroke-width: 0.8; stroke-linejoin: miter; stroke-linecap: square"/>
   </g>
   <g id="patch_6">
    <path d="M 56.18 25.44 
L 426.6 25.44 
" style="fill: none; stroke: #000000; stroke-width: 0.8; stroke-linejoin: miter; stroke-linecap: square"/>
   </g>
   <g id="text_14">
    <!-- H Waveform (Ep 992) -->
    <g transform="translate(176.963125 19.44) scale(0.12 -0.12)">
     <defs>
      <path id="DejaVuSans-57" d="M 213 4666 
L 850 4666 
L 1831 722 
L 2809 4666 
L 3519 4666 
L 4500 722 
L 5478 4666 
L 6119 4666 
L 4947 0 
L 4153 0 
L 3169 4050 
L 2175 0 
L 1381 0 
L 213 4666 
z
" transform="scale(0.015625)"/>
      <path id="DejaVuSans-76" d="M 191 3500 
L 800 3500 
L 1894 563 
L 2988 3500 
L 3597 3500 
L 2284 0 
L 1503 0 
L 191 3500 
z
" transform="scale(0.015625)"/>
      <path id="DejaVuSans-66" d="M 2375 4863 
L 2375 4384 
L 1825 4384 
Q 1516 4384 1395 4259 
Q 1275 4134 1275 3809 
L 1275 3500 
L 2222 3500 
L 2222 3053 
L 1275 3053 
L 1275 0 
L 697 0 
L 697 3053 
L 147 3053 
L 147 3500 
L 697 3500 
L 697 3744 
Q 697 4328 969 4595 
Q 1241 4863 1831 4863 
L 2375 4863 
z
" transform="scale(0.015625)"/>
      <path id="DejaVuSans-45" d="M 628 4666 
L 3578 4666 
L 3578 4134 
L 1259 4134 
L 1259 2753 
L 3481 2753 
L 3481 2222 
L 1259 2222 
L 1259 531 
L 3634 531 
L 3634 0 
L 628 0 
L 628 4666 
z
" transform="scale(0.015625)"/>
      <path id="DejaVuSans-39" d="M 703 97 
L 703 672 
Q 941 559 1184 500 
Q 1428 441 1663 441 
Q 2288 441 2617 861 
Q 2947 1281 2994 2138 
Q 2813 1869 2534 1725 
Q 2256 1581 1919 1581 
Q 1219 1581 811 2004 
Q 403 2428 403 3163 
Q 403 3881 828 4315 
Q 1253 4750 1959 4750 
Q 2769 4750 3195 4129 
Q 3622 3509 3622 2328 
Q 3622 1225 3098 567 
Q 2575 -91 1691 -91 
Q 1453 -91 1209 -44 
Q 966 3 703 97 
z
M 1959 2075 
Q 2384 2075 2632 2365 
Q 2881 2656 2881 3163 
Q 2881 3666 2632 3958 
Q 2384 4250 1959 4250 
Q 1534 4250 1286 3958 
Q 1038 3666 1038 3163 
Q 1038 2656 1286 2365 
Q 1534 2075 1959 2075 
z
" transform="scale(0.015625)"/>
     </defs>
     <use xlink:href="#DejaVuSans-48"/>
     <use xlink:href="#DejaVuSans-20" transform="translate(75.195312 0)"/>
     <use xlink:href="#DejaVuSans-57" transform="translate(106.982422 0)"/>
     <use xlink:href="#DejaVuSans-61" transform="translate(199.484375 0)"/>
     <use xlink:href="#DejaVuSans-76" transform="translate(260.763672 0)"/>
     <use xlink:href="#DejaVuSans-65" transform="translate(319.943359 0)"/>
     <use xlink:href="#DejaVuSans-66" transform="translate(381.466797 0)"/>
     <use xlink:href="#DejaVuSans-6f" transform="translate(416.671875 0)"/>
     <use xlink:href="#DejaVuSans-72" transform="translate(477.853516 0)"/>
     <use xlink:href="#DejaVuSans-6d" transform="translate(517.216797 0)"/>
     <use xlink:href="#DejaVuSans-20" transform="translate(614.628906 0)"/>
     <use xlink:href="#DejaVuSans-28" transform="translate(646.416016 0)"/>
     <use xlink:href="#DejaVuSans-45" transform="translate(685.429688 0)"/>
     <use xlink:href="#DejaVuSans-70" transform="translate(748.613281 0)"/>
     <use xlink:href="#DejaVuSans-20" transform="translate(812.089844 0)"/>
     <use xlink:href="#DejaVuSans-39" transform="translate(843.876953 0)"/>
     <use xlink:href="#DejaVuSans-39" transform="translate(907.5 0)"/>
     <use xlink:href="#DejaVuSans-32" transform="translate(971.123047 0)"/>
     <use xlink:href="#DejaVuSans-29" transform="translate(1034.746094 0)"/>
    </g>
   </g>
   <g id="legend_1">
    <g id="patch_7">
     <path d="M 63.18 313.04 
L 126.12375 313.04 
Q 128.12375 313.04 128.12375 311.04 
L 128.12375 282.68375 
Q 128.12375 280.68375 126.12375 280.68375 
L 63.18 280.68375 
Q 61.18 280.68375 61.18 282.68375 
L 61.18 311.04 
Q 61.18 313.04 63.18 313.04 
z
" style="fill: #ffffff; opacity: 0.8; stroke: #cccccc; stroke-linejoin: miter"/>
    </g>
    <g id="line2d_27">
     <path d="M 65.18 288.782188 
L 75.18 288.782188 
L 85.18 288.782188 
" style="fill: none; stroke: #000000; stroke-opacity: 0.6; stroke-width: 1.5; stroke-linecap: square"/>
    </g>
    <g id="text_15">
     <!-- Target -->
     <g transform="translate(93.18 292.282188) scale(0.1 -0.1)">
      <defs>
       <path id="DejaVuSans-67" d="M 2906 1791 
Q 2906 2416 2648 2759 
Q 2391 3103 1925 3103 
Q 1463 3103 1205 2759 
Q 947 2416 947 1791 
Q 947 1169 1205 825 
Q 1463 481 1925 481 
Q 2391 481 2648 825 
Q 2906 1169 2906 1791 
z
M 3481 434 
Q 3481 -459 3084 -895 
Q 2688 -1331 1869 -1331 
Q 1566 -1331 1297 -1286 
Q 1028 -1241 775 -1147 
L 775 -588 
Q 1028 -725 1275 -790 
Q 1522 -856 1778 -856 
Q 2344 -856 2625 -561 
Q 2906 -266 2906 331 
L 2906 616 
Q 2728 306 2450 153 
Q 2172 0 1784 0 
Q 1141 0 747 490 
Q 353 981 353 1791 
Q 353 2603 747 3093 
Q 1141 3584 1784 3584 
Q 2172 3584 2450 3431 
Q 2728 3278 2906 2969 
L 2906 3500 
L 3481 3500 
L 3481 434 
z
" transform="scale(0.015625)"/>
      </defs>
      <use xlink:href="#DejaVuSans-54"/>
      <use xlink:href="#DejaVuSans-61" transform="translate(44.583984 0)"/>
      <use xlink:href="#DejaVuSans-72" transform="translate(105.863281 0)"/>
      <use xlink:href="#DejaVuSans-67" transform="translate(145.226562 0)"/>
      <use xlink:href="#DejaVuSans-65" transform="translate(208.703125 0)"/>
      <use xlink:href="#DejaVuSans-74" transform="translate(270.226562 0)"/>
     </g>
    </g>
    <g id="line2d_28">
     <path d="M 65.18 303.460313 
L 75.18 303.460313 
L 85.18 303.460313 
" style="fill: none; stroke-dasharray: 5.55,2.4; stroke-dashoffset: 0; stroke: #1f77b4; stroke-width: 1.5"/>
    </g>
    <g id="text_16">
     <!-- Pred -->
     <g transform="translate(93.18 306.960313) scale(0.1 -0.1)">
      <defs>
       <path id="DejaVuSans-50" d="M 1259 4147 
L 1259 2394 
L 2053 2394 
Q 2494 2394 2734 2622 
Q 2975 2850 2975 3272 
Q 2975 3691 2734 3919 
Q 2494 4147 2053 4147 
L 1259 4147 
z
M 628 4666 
L 2053 4666 
Q 2838 4666 3239 4311 
Q 3641 3956 3641 3272 
Q 3641 2581 3239 2228 
Q 2838 1875 2053 1875 
L 1259 1875 
L 1259 0 
L 628 0 
L 628 4666 
z
" transform="scale(0.015625)"/>
      </defs>
      <use xlink:href="#DejaVuSans-50"/>
      <use xlink:href="#DejaVuSans-72" transform="translate(58.552734 0)"/>
      <use xlink:href="#DejaVuSans-65" transform="translate(97.416016 0)"/>
      <use xlink:href="#DejaVuSans-64" transform="translate(158.939453 0)"/>
     </g>
    </g>
   </g>
  </g>
  <g id="axes_2">
   <g id="patch_8">
    <path d="M 482.78 318.04 
L 853.2 318.04 
L 853.2 25.44 
L 482.78 25.44 
z
" style="fill: #ffffff"/>
   </g>
   <g id="matplotlib.axis_3">
    <g id="xtick_7">
     <g id="line2d_29">
      <path d="M 506.665797 318.04 
L 506.665797 25.44 
" clip-path="url(#p00e4f2edbc)" style="fill: none; stroke: #b0b0b0; stroke-opacity: 0.3; stroke-width: 0.8; stroke-linecap: square"/>
     </g>
     <g id="line2d_30">
      <g>
       <use xlink:href="#mb824c23d85" x="506.665797" y="318.04" style="stroke: #000000; stroke-width: 0.8"/>
      </g>
     </g>
     <g id="text_17">
      <!-- −0.4 -->
      <g transform="translate(494.524391 332.638438) scale(0.1 -0.1)">
       <use xlink:href="#DejaVuSans-2212"/>
       <use xlink:href="#DejaVuSans-30" transform="translate(83.789062 0)"/>
       <use xlink:href="#DejaVuSans-2e" transform="translate(147.412109 0)"/>
       <use xlink:href="#DejaVuSans-34" transform="translate(179.199219 0)"/>
      </g>
     </g>
    </g>
    <g id="xtick_8">
     <g id="line2d_31">
      <path d="M 585.246143 318.04 
L 585.246143 25.44 
" clip-path="url(#p00e4f2edbc)" style="fill: none; stroke: #b0b0b0; stroke-opacity: 0.3; stroke-width: 0.8; stroke-linecap: square"/>
     </g>
     <g id="line2d_32">
      <g>
       <use xlink:href="#mb824c23d85" x="585.246143" y="318.04" style="stroke: #000000; stroke-width: 0.8"/>
      </g>
     </g>
     <g id="text_18">
      <!-- −0.2 -->
      <g transform="translate(573.104737 332.638438) scale(0.1 -0.1)">
       <use xlink:href="#DejaVuSans-2212"/>
       <use xlink:href="#DejaVuSans-30" transform="translate(83.789062 0)"/>
       <use xlink:href="#DejaVuSans-2e" transform="translate(147.412109 0)"/>
       <use xlink:href="#DejaVuSans-32" transform="translate(179.199219 0)"/>
      </g>
     </g>
    </g>
    <g id="xtick_9">
     <g id="line2d_33">
      <path d="M 663.826488 318.04 
L 663.826488 25.44 
" clip-path="url(#p00e4f2edbc)" style="fill: none; stroke: #b0b0b0; stroke-opacity: 0.3; stroke-width: 0.8; stroke-linecap: square"/>
     </g>
     <g id="line2d_34">
      <g>
       <use xlink:href="#mb824c23d85" x="663.826488" y="318.04" style="stroke: #000000; stroke-width: 0.8"/>
      </g>
     </g>
     <g id="text_19">
      <!-- 0.0 -->
      <g transform="translate(655.874926 332.638438) scale(0.1 -0.1)">
       <use xlink:href="#DejaVuSans-30"/>
       <use xlink:href="#DejaVuSans-2e" transform="translate(63.623047 0)"/>
       <use xlink:href="#DejaVuSans-30" transform="translate(95.410156 0)"/>
      </g>
     </g>
    </g>
    <g id="xtick_10">
     <g id="line2d_35">
      <path d="M 742.406834 318.04 
L 742.406834 25.44 
" clip-path="url(#p00e4f2edbc)" style="fill: none; stroke: #b0b0b0; stroke-opacity: 0.3; stroke-width: 0.8; stroke-linecap: square"/>
     </g>
     <g id="line2d_36">
      <g>
       <use xlink:href="#mb824c23d85" x="742.406834" y="318.04" style="stroke: #000000; stroke-width: 0.8"/>
      </g>
     </g>
     <g id="text_20">
      <!-- 0.2 -->
      <g transform="translate(734.455272 332.638438) scale(0.1 -0.1)">
       <use xlink:href="#DejaVuSans-30"/>
       <use xlink:href="#DejaVuSans-2e" transform="translate(63.623047 0)"/>
       <use xlink:href="#DejaVuSans-32" transform="translate(95.410156 0)"/>
      </g>
     </g>
    </g>
    <g id="xtick_11">
     <g id="line2d_37">
      <path d="M 820.98718 318.04 
L 820.98718 25.44 
" clip-path="url(#p00e4f2edbc)" style="fill: none; stroke: #b0b0b0; stroke-opacity: 0.3; stroke-width: 0.8; stroke-linecap: square"/>
     </g>
     <g id="line2d_38">
      <g>
       <use xlink:href="#mb824c23d85" x="820.98718" y="318.04" style="stroke: #000000; stroke-width: 0.8"/>
      </g>
     </g>
     <g id="text_21">
      <!-- 0.4 -->
      <g transform="translate(813.035617 332.638438) scale(0.1 -0.1)">
       <use xlink:href="#DejaVuSans-30"/>
       <use xlink:href="#DejaVuSans-2e" transform="translate(63.623047 0)"/>
       <use xlink:href="#DejaVuSans-34" transform="translate(95.410156 0)"/>
      </g>
     </g>
    </g>
    <g id="text_22">
     <!-- H (Normalized) -->
     <g transform="translate(630.38375 346.316563) scale(0.1 -0.1)">
      <use xlink:href="#DejaVuSans-48"/>
      <use xlink:href="#DejaVuSans-20" transform="translate(75.195312 0)"/>
      <use xlink:href="#DejaVuSans-28" transform="translate(106.982422 0)"/>
      <use xlink:href="#DejaVuSans-4e" transform="translate(145.996094 0)"/>
      <use xlink:href="#DejaVuSans-6f" transform="translate(220.800781 0)"/>
      <use xlink:href="#DejaVuSans-72" transform="translate(281.982422 0)"/>
      <use xlink:href="#DejaVuSans-6d" transform="translate(321.345703 0)"/>
      <use xlink:href="#DejaVuSans-61" transform="translate(418.757812 0)"/>
      <use xlink:href="#DejaVuSans-6c" transform="translate(480.037109 0)"/>
      <use xlink:href="#DejaVuSans-69" transform="translate(507.820312 0)"/>
      <use xlink:href="#DejaVuSans-7a" transform="translate(535.603516 0)"/>
      <use xlink:href="#DejaVuSans-65" transform="translate(588.09375 0)"/>
      <use xlink:href="#DejaVuSans-64" transform="translate(649.617188 0)"/>
      <use xlink:href="#DejaVuSans-29" transform="translate(713.09375 0)"/>
     </g>
    </g>
   </g>
   <g id="matplotlib.axis_4">
    <g id="ytick_6">
     <g id="line2d_39">
      <path d="M 482.78 282.404462 
L 853.2 282.404462 
" clip-path="url(#p00e4f2edbc)" style="fill: none; stroke: #b0b0b0; stroke-opacity: 0.3; stroke-width: 0.8; stroke-linecap: square"/>
     </g>
     <g id="line2d_40">
      <g>
       <use xlink:href="#mecaebe720f" x="482.78" y="282.404462" style="stroke: #000000; stroke-width: 0.8"/>
      </g>
     </g>
     <g id="text_23">
      <!-- −0.4 -->
      <g transform="translate(451.497188 286.203681) scale(0.1 -0.1)">
       <use xlink:href="#DejaVuSans-2212"/>
       <use xlink:href="#DejaVuSans-30" transform="translate(83.789062 0)"/>
       <use xlink:href="#DejaVuSans-2e" transform="translate(147.412109 0)"/>
       <use xlink:href="#DejaVuSans-34" transform="translate(179.199219 0)"/>
      </g>
     </g>
    </g>
    <g id="ytick_7">
     <g id="line2d_41">
      <path d="M 482.78 228.659061 
L 853.2 228.659061 
" clip-path="url(#p00e4f2edbc)" style="fill: none; stroke: #b0b0b0; stroke-opacity: 0.3; stroke-width: 0.8; stroke-linecap: square"/>
     </g>
     <g id="line2d_42">
      <g>
       <use xlink:href="#mecaebe720f" x="482.78" y="228.659061" style="stroke: #000000; stroke-width: 0.8"/>
      </g>
     </g>
     <g id="text_24">
      <!-- −0.2 -->
      <g transform="translate(451.497188 232.458279) scale(0.1 -0.1)">
       <use xlink:href="#DejaVuSans-2212"/>
       <use xlink:href="#DejaVuSans-30" transform="translate(83.789062 0)"/>
       <use xlink:href="#DejaVuSans-2e" transform="translate(147.412109 0)"/>
       <use xlink:href="#DejaVuSans-32" transform="translate(179.199219 0)"/>
      </g>
     </g>
    </g>
    <g id="ytick_8">
     <g id="line2d_43">
      <path d="M 482.78 174.913659 
L 853.2 174.913659 
" clip-path="url(#p00e4f2edbc)" style="fill: none; stroke: #b0b0b0; stroke-opacity: 0.3; stroke-width: 0.8; stroke-linecap: square"/>
     </g>
     <g id="line2d_44">
      <g>
       <use xlink:href="#mecaebe720f" x="482.78" y="174.913659" style="stroke: #000000; stroke-width: 0.8"/>
      </g>
     </g>
     <g id="text_25">
      <!-- 0.0 -->
      <g transform="translate(459.876875 178.712878) scale(0.1 -0.1)">
       <use xlink:href="#DejaVuSans-30"/>
       <use xlink:href="#DejaVuSans-2e" transform="translate(63.623047 0)"/>
       <use xlink:href="#DejaVuSans-30" transform="translate(95.410156 0)"/>
      </g>
     </g>
    </g>
    <g id="ytick_9">
     <g id="line2d_45">
      <path d="M 482.78 121.168258 
L 853.2 121.168258 
" clip-path="url(#p00e4f2edbc)" style="fill: none; stroke: #b0b0b0; stroke-opacity: 0.3; stroke-width: 0.8; stroke-linecap: square"/>
     </g>
     <g id="line2d_46">
      <g>
       <use xlink:href="#mecaebe720f" x="482.78" y="121.168258" style="stroke: #000000; stroke-width: 0.8"/>
      </g>
     </g>
     <g id="text_26">
      <!-- 0.2 -->
      <g transform="translate(459.876875 124.967477) scale(0.1 -0.1)">
       <use xlink:href="#DejaVuSans-30"/>
       <use xlink:href="#DejaVuSans-2e" transform="translate(63.623047 0)"/>
       <use xlink:href="#DejaVuSans-32" transform="translate(95.410156 0)"/>
      </g>
     </g>
    </g>
    <g id="ytick_10">
     <g id="line2d_47">
      <path d="M 482.78 67.422857 
L 853.2 67.422857 
" clip-path="url(#p00e4f2edbc)" style="fill: none; stroke: #b0b0b0; stroke-opacity: 0.3; stroke-width: 0.8; stroke-linecap: square"/>
     </g>
     <g id="line2d_48">
      <g>
       <use xlink:href="#mecaebe720f" x="482.78" y="67.422857" style="stroke: #000000; stroke-width: 0.8"/>
      </g>
     </g>
     <g id="text_27">
      <!-- 0.4 -->
      <g transform="translate(459.876875 71.222075) scale(0.1 -0.1)">
       <use xlink:href="#DejaVuSans-30"/>
       <use xlink:href="#DejaVuSans-2e" transform="translate(63.623047 0)"/>
       <use xlink:href="#DejaVuSans-34" transform="translate(95.410156 0)"/>
      </g>
     </g>
    </g>
    <g id="text_28">
     <!-- B (Normalized) -->
     <g transform="translate(445.4175 209.016563) rotate(-90) scale(0.1 -0.1)">
      <defs>
       <path id="DejaVuSans-42" d="M 1259 2228 
L 1259 519 
L 2272 519 
Q 2781 519 3026 730 
Q 3272 941 3272 1375 
Q 3272 1813 3026 2020 
Q 2781 2228 2272 2228 
L 1259 2228 
z
M 1259 4147 
L 1259 2741 
L 2194 2741 
Q 2656 2741 2882 2914 
Q 3109 3088 3109 3444 
Q 3109 3797 2882 3972 
Q 2656 4147 2194 4147 
L 1259 4147 
z
M 628 4666 
L 2241 4666 
Q 2963 4666 3353 4366 
Q 3744 4066 3744 3513 
Q 3744 3084 3544 2831 
Q 3344 2578 2956 2516 
Q 3422 2416 3680 2098 
Q 3938 1781 3938 1306 
Q 3938 681 3513 340 
Q 3088 0 2303 0 
L 628 0 
L 628 4666 
z
" transform="scale(0.015625)"/>
      </defs>
      <use xlink:href="#DejaVuSans-42"/>
      <use xlink:href="#DejaVuSans-20" transform="translate(68.603516 0)"/>
      <use xlink:href="#DejaVuSans-28" transform="translate(100.390625 0)"/>
      <use xlink:href="#DejaVuSans-4e" transform="translate(139.404297 0)"/>
      <use xlink:href="#DejaVuSans-6f" transform="translate(214.208984 0)"/>
      <use xlink:href="#DejaVuSans-72" transform="translate(275.390625 0)"/>
      <use xlink:href="#DejaVuSans-6d" transform="translate(314.753906 0)"/>
      <use xlink:href="#DejaVuSans-61" transform="translate(412.166016 0)"/>
      <use xlink:href="#DejaVuSans-6c" transform="translate(473.445312 0)"/>
      <use xlink:href="#DejaVuSans-69" transform="translate(501.228516 0)"/>
      <use xlink:href="#DejaVuSans-7a" transform="translate(529.011719 0)"/>
      <use xlink:href="#DejaVuSans-65" transform="translate(581.501953 0)"/>
      <use xlink:href="#DejaVuSans-64" transform="translate(643.025391 0)"/>
      <use xlink:href="#DejaVuSans-29" transform="translate(706.501953 0)"/>
     </g>
    </g>
   </g>
   <g id="line2d_49">
    <path d="M 702.127831 134.886048 
L 700.062702 134.941656 
L 699.546567 135.085336 
L 700.975136 135.311305 
L 709.374771 135.925556 
L 726.9021 136.884744 
L 726.164228 136.933585 
L 700.679927 136.842178 
L 698.802208 136.977529 
L 699.767125 137.191601 
L 708.518593 137.761608 
L 722.399028 138.559109 
L 715.733052 138.587288 
L 700.902277 138.651045 
L 698.989212 138.781026 
L 699.521334 138.97492 
L 706.471731 139.480897 
L 717.559517 140.125617 
L 717.908491 140.234591 
L 712.678694 140.318386 
L 700.772543 140.452139 
L 699.109561 140.579665 
L 699.338348 140.756929 
L 701.292129 140.972283 
L 713.410642 141.920868 
L 709.567388 142.050577 
L 700.216086 142.239432 
L 698.778318 142.364964 
L 698.801842 142.529491 
L 700.189954 142.724562 
L 709.497319 143.612151 
L 708.4916 143.702707 
L 697.791699 144.137117 
L 697.828979 144.296071 
L 700.818976 144.672536 
L 705.89176 145.189004 
L 706.003719 145.311459 
L 703.366669 145.492693 
L 697.47506 145.768823 
L 696.63793 145.900178 
L 696.708789 146.054737 
L 699.01153 146.406365 
L 702.648626 146.89209 
L 702.637016 147.016132 
L 700.508101 147.217277 
L 696.013565 147.52479 
L 695.36851 147.656938 
L 695.393105 147.806364 
L 697.026131 148.136854 
L 699.598697 148.601042 
L 699.548816 148.727237 
L 697.870676 148.943992 
L 694.346638 149.273213 
L 693.816001 149.405579 
L 693.799265 149.551181 
L 694.991195 149.866405 
L 696.85883 150.313336 
L 696.764189 150.439979 
L 695.341871 150.666206 
L 692.505568 151.011541 
L 692.091548 151.144563 
L 692.081727 151.287593 
L 692.981204 151.590549 
L 694.041152 151.885519 
L 694.223806 152.020984 
L 694.059611 152.147197 
L 692.823958 152.38042 
L 690.613748 152.738467 
L 690.304763 152.871497 
L 690.292363 153.011713 
L 690.898991 153.303486 
L 691.550115 153.588134 
L 691.607611 153.721519 
L 691.413665 153.848229 
L 690.390646 154.088147 
L 688.651416 154.454999 
L 688.329576 154.725102 
L 688.67821 155.009046 
L 689.065641 155.287997 
L 689.064804 155.420879 
L 688.513026 155.67268 
L 686.321802 156.301713 
L 686.246632 156.438685 
L 686.457811 156.719071 
L 686.689545 156.994909 
L 686.64466 157.127464 
L 686.115686 157.381756 
L 684.293611 158.020479 
L 684.265596 158.294933 
L 684.424122 158.704989 
L 684.114135 158.965456 
L 682.301445 159.735615 
L 682.191015 160.005766 
L 682.117926 160.409153 
L 681.787811 160.66928 
L 680.0758 161.57494 
L 679.502581 162.370116 
L 677.811189 163.412914 
L 677.446414 163.943398 
L 676.493128 164.459539 
L 675.882473 164.852486 
L 675.001779 165.775553 
L 673.64647 166.688077 
L 672.97377 167.344871 
L 670.931723 168.910256 
L 669.984699 169.557711 
L 669.164415 170.209811 
L 668.395959 170.85987 
L 667.139108 171.766773 
L 666.162296 172.544135 
L 664.801451 173.58038 
L 659.645096 177.5979 
L 658.343946 178.633341 
L 651.028546 184.307723 
L 647.076731 187.38858 
L 644.273385 189.561438 
L 641.956775 191.34819 
L 637.730797 194.664269 
L 635.122763 196.702226 
L 633.184231 198.226939 
L 624.051514 205.307502 
L 621.838991 207.068443 
L 621.203915 207.569483 
L 620.335629 208.196993 
L 619.801049 208.699442 
L 618.378496 209.703428 
L 617.890903 210.077466 
L 616.974351 210.704218 
L 616.520364 211.207019 
L 615.3604 211.956584 
L 615.127541 212.335491 
L 614.455961 212.704756 
L 613.86397 213.081212 
L 613.597335 213.586376 
L 612.763165 213.952726 
L 612.877261 214.078274 
L 613.581059 214.204479 
L 617.366326 214.429559 
L 623.539472 214.522852 
L 628.370676 214.346429 
L 628.751726 214.130983 
L 627.231991 213.836151 
L 623.816847 213.481114 
L 613.341965 212.714711 
L 602.645361 211.913345 
L 603.71297 211.806922 
L 612.876476 211.755302 
L 625.100052 211.683768 
L 629.296888 211.556927 
L 630.966274 211.34758 
L 629.813491 211.061113 
L 626.171217 210.719498 
L 608.065149 209.482208 
L 608.092865 209.328977 
L 615.455556 209.185306 
L 626.54734 209.055144 
L 630.53087 208.919269 
L 632.282965 208.71536 
L 631.529306 208.446834 
L 628.572074 208.131554 
L 613.416361 206.966572 
L 613.413627 206.801664 
L 615.583575 206.68802 
L 631.839057 206.276594 
L 633.404505 206.076793 
L 632.987121 205.825537 
L 630.812463 205.536367 
L 618.973725 204.440314 
L 618.866151 204.26398 
L 620.467714 204.128976 
L 633.414268 203.640654 
L 634.830365 203.444794 
L 634.684903 203.20776 
L 633.119238 202.939595 
L 623.885528 201.904172 
L 623.804397 201.722273 
L 625.112153 201.573684 
L 635.729699 201.021268 
L 636.886355 200.823654 
L 636.763023 200.593204 
L 635.488652 200.338385 
L 628.307779 199.358402 
L 628.392894 199.17584 
L 629.5869 199.018986 
L 638.187393 198.412554 
L 639.043121 198.212639 
L 638.897394 197.987681 
L 637.884963 197.744821 
L 632.703692 196.813069 
L 632.907099 196.628512 
L 635.575091 196.308451 
L 640.644988 195.812097 
L 641.318544 195.612542 
L 641.250806 195.394247 
L 640.546428 195.162592 
L 637.346402 194.471278 
L 636.922024 194.2664 
L 637.132498 194.079096 
L 639.263251 193.742319 
L 643.321839 193.22546 
L 643.902994 193.026819 
L 643.907389 192.813565 
L 643.410637 192.589917 
L 641.055146 191.923065 
L 640.786866 191.721443 
L 641.03049 191.533791 
L 642.882578 191.187699 
L 646.235291 190.655438 
L 646.697271 190.456629 
L 646.694884 190.246611 
L 645.693405 189.809385 
L 644.636663 189.384809 
L 644.547497 189.187092 
L 644.866216 188.999952 
L 646.510085 188.64603 
L 649.168872 188.09995 
L 649.521469 187.901546 
L 649.53485 187.695195 
L 648.893482 187.271446 
L 648.308294 186.858533 
L 648.350543 186.662769 
L 648.683661 186.474514 
L 650.040631 186.112068 
L 652.163201 185.556472 
L 652.491547 185.359274 
L 652.578802 185.156159 
L 652.263177 184.741213 
L 651.957184 184.333523 
L 652.040861 184.137587 
L 652.341195 183.947395 
L 653.484191 183.57811 
L 655.322024 183.014742 
L 655.750455 182.614723 
L 655.566654 182.202945 
L 655.400288 181.797899 
L 655.524986 181.6021 
L 656.312306 181.223216 
L 658.469359 180.464924 
L 658.815822 180.064195 
L 658.758537 179.25615 
L 659.290183 178.869576 
L 661.716334 177.7158 
L 661.8981 177.315105 
L 662.013729 176.91527 
L 662.380259 176.523293 
L 663.510357 175.94862 
L 664.702345 175.365812 
L 665.167472 174.971314 
L 665.849159 173.982239 
L 666.848512 173.406334 
L 667.966163 172.827733 
L 668.407919 172.43319 
L 669.130051 171.447264 
L 670.164945 170.87149 
L 671.149531 170.290419 
L 671.655852 169.699009 
L 672.186198 169.111696 
L 673.428008 168.340875 
L 674.484735 167.564357 
L 676.042047 166.202971 
L 678.376169 164.462493 
L 679.247997 163.688715 
L 681.384474 162.147715 
L 682.255401 161.376507 
L 684.151621 160.032441 
L 685.051808 159.262332 
L 687.358397 157.534262 
L 691.779765 154.067761 
L 692.826906 153.299766 
L 693.849135 152.528339 
L 694.926451 151.563408 
L 696.49278 150.409135 
L 697.637677 149.447046 
L 698.929342 148.485757 
L 700.082052 147.525839 
L 701.373837 146.565894 
L 702.229252 145.798327 
L 704.017116 144.456784 
L 704.656856 143.88211 
L 706.453207 142.543366 
L 707.053933 141.969459 
L 708.89637 140.633672 
L 709.460396 140.061407 
L 711.173945 138.921835 
L 711.608808 138.347283 
L 712.185875 137.971812 
L 713.261792 137.406947 
L 713.586353 137.021729 
L 713.743194 136.63762 
L 714.306896 136.263194 
L 715.142448 135.891419 
L 715.222499 135.701981 
L 714.723047 135.510782 
L 713.424945 135.323238 
L 708.358201 135.006827 
L 705.120105 134.912577 
L 705.120105 134.912577 
" clip-path="url(#p00e4f2edbc)" style="fill: none; stroke: #000000; stroke-opacity: 0.6; stroke-width: 1.5; stroke-linecap: square"/>
   </g>
   <g id="line2d_50">
    <path d="M 717.042887 134.886048 
L 717.099022 134.941656 
L 716.959247 135.311305 
L 716.477774 135.925556 
L 715.496657 136.751356 
L 714.967644 136.914777 
L 715.03464 136.789237 
L 715.024142 136.977529 
L 714.717075 137.463837 
L 713.849533 138.288143 
L 713.227548 138.593138 
L 713.129634 138.651045 
L 712.781216 139.216911 
L 712.005135 139.957863 
L 711.016351 140.756929 
L 710.395669 141.435392 
L 709.586512 141.998903 
L 709.29066 142.239432 
L 708.728873 142.935137 
L 707.899986 143.612151 
L 707.393388 144.008731 
L 706.622285 144.863617 
L 703.355829 147.806364 
L 702.345681 148.727237 
L 701.460463 149.551181 
L 700.343177 150.556215 
L 699.265902 151.590549 
L 694.549585 155.794448 
L 679.111541 169.557711 
L 676.927843 171.376351 
L 661.030662 183.147809 
L 649.933533 190.327907 
L 646.792871 192.368138 
L 622.450853 209.324417 
L 616.018371 214.522852 
L 616.000403 214.346429 
L 616.294876 213.836151 
L 617.304834 212.714711 
L 618.386775 211.913345 
L 618.958538 211.556927 
L 619.530366 210.719498 
L 620.600844 209.710495 
L 621.877088 208.71536 
L 622.636842 207.797308 
L 623.631508 206.966572 
L 624.551561 206.276594 
L 625.421105 205.230721 
L 626.600691 204.26398 
L 627.227152 203.794527 
L 628.501238 202.379394 
L 631.002942 200.072967 
L 632.267983 199.018986 
L 632.927031 198.412554 
L 634.315726 197.02069 
L 636.149187 195.394247 
L 637.634142 194.079096 
L 638.812153 193.026819 
L 640.472318 191.533791 
L 641.892078 190.246611 
L 644.114598 188.289204 
L 648.266058 184.535185 
L 656.654508 177.315105 
L 679.911476 160.032441 
L 707.122228 141.210265 
L 715.680248 134.912577 
L 715.680248 134.912577 
" clip-path="url(#p00e4f2edbc)" style="fill: none; stroke-dasharray: 5.55,2.4; stroke-dashoffset: 0; stroke: #1f77b4; stroke-width: 1.5"/>
   </g>
   <g id="line2d_51">
    <path d="M 828.659932 38.74 
L 828.263674 38.784208 
L 828.444596 39.010534 
L 829.715591 39.858766 
L 830.273602 40.400041 
L 830.510869 40.977251 
L 830.383002 41.572761 
L 829.231759 43.404901 
L 829.255541 44.006049 
L 829.628052 44.572584 
L 830.73097 45.489419 
L 830.844001 45.794614 
L 830.249082 45.992196 
L 826.505147 46.178454 
L 820.770301 46.444359 
L 818.289785 46.748705 
L 816.705318 47.209821 
L 816.299236 47.821813 
L 817.090791 48.546423 
L 818.819342 49.320303 
L 824.322729 51.225274 
L 824.480279 51.565555 
L 823.341892 51.757787 
L 811.820374 52.231926 
L 809.797039 52.591428 
L 808.928449 53.104793 
L 809.244169 53.747258 
L 810.521955 54.46824 
L 815.617481 56.46282 
L 816.186534 56.906045 
L 815.723029 57.212986 
L 814.245247 57.409015 
L 806.552474 57.841708 
L 804.264706 58.1147 
L 802.725754 58.51069 
L 802.113493 59.031118 
L 802.425958 59.652929 
L 803.48485 60.333475 
L 807.614948 62.196761 
L 808.036275 62.619436 
L 807.552795 62.921331 
L 806.149952 63.125352 
L 798.847278 63.623989 
L 796.680808 63.921849 
L 795.264768 64.339197 
L 794.781101 64.874218 
L 795.215706 65.500425 
L 796.359959 66.172482 
L 800.186012 67.940513 
L 800.309569 68.325827 
L 799.510825 68.601622 
L 795.616717 68.962525 
L 790.871572 69.39626 
L 789.144835 69.744342 
L 788.201844 70.200917 
L 788.10304 70.753605 
L 788.730136 71.370578 
L 792.38118 73.616126 
L 792.080109 73.972241 
L 791.04569 74.245353 
L 783.521579 75.207581 
L 782.202869 75.589892 
L 781.523724 76.059697 
L 781.498854 76.603239 
L 782.014593 77.192302 
L 784.388238 78.866495 
L 784.568609 79.294735 
L 784.142973 79.640863 
L 783.096751 79.91898 
L 776.20572 80.983335 
L 775.075214 81.387734 
L 774.550201 81.869457 
L 774.625843 82.412117 
L 775.17081 82.986781 
L 776.700313 84.09186 
L 777.139216 84.562378 
L 777.07403 84.957623 
L 776.418047 85.281655 
L 773.615968 85.802083 
L 770.227623 86.360921 
L 768.933935 86.721993 
L 768.138189 87.151635 
L 767.883404 87.642424 
L 768.097358 88.174481 
L 769.645327 89.735863 
L 769.742304 90.164953 
L 769.384747 90.532279 
L 768.558193 90.84666 
L 765.896861 91.399324 
L 763.092592 92.017731 
L 762.088969 92.39876 
L 761.492944 92.834136 
L 761.310605 93.314882 
L 761.465643 93.822977 
L 762.395052 95.282032 
L 762.300476 95.686119 
L 761.821679 96.039534 
L 760.957456 96.351937 
L 755.968298 97.589344 
L 755.132658 97.986182 
L 754.675565 98.429207 
L 754.580157 98.907013 
L 755.037818 99.889383 
L 755.263786 100.352093 
L 755.270109 100.775056 
L 754.948604 101.15321 
L 754.265555 101.491377 
L 752.071169 102.106725 
L 749.710628 102.767265 
L 748.837254 103.150377 
L 748.28155 103.573043 
L 748.040712 104.027721 
L 748.042808 104.500354 
L 748.268377 105.430947 
L 748.218899 105.859973 
L 747.926791 106.255009 
L 747.358377 106.617915 
L 745.553293 107.286248 
L 743.515755 107.970206 
L 742.681368 108.347059 
L 742.063867 108.753047 
L 741.676539 109.184916 
L 741.485055 109.634191 
L 741.27164 110.968075 
L 741.020023 111.374832 
L 740.576629 111.756106 
L 739.13336 112.462035 
L 736.507326 113.527607 
L 735.82978 113.919549 
L 735.336141 114.333806 
L 735.022505 114.76537 
L 734.361165 116.478537 
L 733.965488 116.864932 
L 732.663065 117.586103 
L 730.200891 118.662398 
L 729.036944 119.457025 
L 728.449601 120.305261 
L 728.041341 121.148263 
L 727.734538 121.550816 
L 726.729955 122.310196 
L 723.278632 124.168672 
L 722.392711 124.980773 
L 721.081202 126.620817 
L 720.11848 127.39293 
L 716.059205 130.074159 
L 713.704319 132.472385 
L 711.960929 133.598123 
L 710.218351 134.74932 
L 709.343276 135.548979 
L 707.812292 137.13673 
L 706.194614 138.268442 
L 704.476277 139.406088 
L 703.139887 140.584242 
L 701.43962 142.141325 
L 696.032271 146.334579 
L 693.671197 148.229957 
L 690.214373 150.873964 
L 687.469203 153.140541 
L 684.922545 155.016634 
L 681.725781 157.66523 
L 679.256616 159.548434 
L 675.989818 162.197519 
L 670.819471 166.352704 
L 662.429042 173.119376 
L 660.088566 174.995593 
L 657.784376 176.863259 
L 654.980937 179.106785 
L 651.71246 181.715295 
L 629.835376 199.388913 
L 627.113647 201.564203 
L 624.847158 203.366889 
L 622.151547 205.537033 
L 616.754563 209.86572 
L 609.086313 216.000003 
L 606.423552 218.160227 
L 604.202112 219.964272 
L 601.982991 221.757157 
L 599.342999 223.913989 
L 597.085371 225.69732 
L 594.910751 227.489396 
L 592.672994 229.266921 
L 590.491864 231.053431 
L 588.275588 232.826254 
L 586.088544 234.60625 
L 583.890786 236.372065 
L 581.704756 238.143419 
L 579.542354 239.900041 
L 577.341775 241.659434 
L 575.193788 243.405392 
L 573.00096 245.152159 
L 570.86717 246.888531 
L 568.663388 248.625103 
L 566.54197 250.354796 
L 564.322802 252.084953 
L 562.233145 253.812323 
L 559.994369 255.537667 
L 557.924326 257.264813 
L 555.286682 259.335956 
L 553.637731 260.714499 
L 550.983448 262.782591 
L 549.362951 264.161887 
L 546.700928 266.225454 
L 545.113663 267.604006 
L 542.059469 270.006316 
L 540.416303 271.373079 
L 538.175478 273.081204 
L 536.189894 274.790507 
L 533.925861 276.489614 
L 531.984996 278.194736 
L 529.681748 279.883408 
L 527.794992 281.585383 
L 525.09729 283.606864 
L 523.612365 284.960685 
L 520.89197 286.969769 
L 519.479069 288.318448 
L 516.684543 290.310809 
L 515.34143 291.657999 
L 512.164018 293.976018 
L 511.241272 294.98054 
L 510.241981 295.617094 
L 508.618464 296.594363 
L 507.977539 297.28347 
L 507.524327 297.965314 
L 506.739388 298.606802 
L 504.336564 299.883002 
L 503.975318 300.230283 
L 503.67927 300.937507 
L 503.560619 301.278228 
L 503.297029 301.600778 
L 502.80178 301.905381 
L 499.860406 303.157187 
L 499.864493 303.526724 
L 500.545476 303.905719 
L 501.924349 304.262025 
L 503.875027 304.55166 
L 506.148076 304.725817 
L 508.430329 304.74 
L 510.423547 304.562415 
L 511.919737 304.179752 
L 512.850317 303.598898 
L 513.294266 302.844015 
L 513.760464 299.894231 
L 514.236661 298.792299 
L 516.983121 294.278698 
L 517.230364 293.200705 
L 517.470641 291.272461 
L 518.00761 290.465697 
L 519.216545 289.769638 
L 521.267479 289.162299 
L 527.558825 288.023472 
L 531.110235 287.370195 
L 534.261242 286.587946 
L 536.530286 285.648359 
L 537.61043 284.555485 
L 537.462131 283.34695 
L 536.340571 282.087095 
L 533.310955 279.717925 
L 532.643297 278.732736 
L 533.180653 277.915417 
L 535.078861 277.245979 
L 538.173183 276.671195 
L 545.997136 275.505947 
L 549.470104 274.774369 
L 551.926697 273.887175 
L 553.102015 272.844692 
L 553.031126 271.681726 
L 552.030478 270.458599 
L 549.369871 268.113102 
L 548.821099 267.10452 
L 549.316231 266.239534 
L 550.960158 265.505121 
L 553.605366 264.861022 
L 560.365358 263.608711 
L 563.521048 262.88491 
L 565.966881 262.044118 
L 567.468375 261.077693 
L 567.992921 260.003208 
L 567.705625 258.859823 
L 565.530964 255.536089 
L 565.659334 254.605335 
L 566.646599 253.788785 
L 568.513631 253.067339 
L 571.103554 252.402553 
L 577.155215 251.043303 
L 579.833783 250.257218 
L 581.829115 249.363801 
L 582.964492 248.363467 
L 583.246372 247.279691 
L 582.865987 246.15395 
L 581.540057 243.975931 
L 581.397056 243.007176 
L 582.01667 242.144897 
L 583.510624 241.37965 
L 585.790429 240.680396 
L 591.515281 239.294508 
L 594.161977 238.517145 
L 596.186494 237.645127 
L 597.399106 236.676324 
L 597.803888 235.630897 
L 597.594115 234.54604 
L 596.714435 232.435294 
L 596.781922 231.481139 
L 597.533636 230.614947 
L 599.02917 229.826748 
L 601.151343 229.089196 
L 606.170975 227.614985 
L 608.415412 226.809158 
L 610.136867 225.931098 
L 611.23057 224.9819 
L 611.741357 223.978675 
L 611.843363 222.949683 
L 611.791432 221.927278 
L 611.857731 220.940447 
L 612.269509 220.008604 
L 613.162051 219.137944 
L 614.55593 218.320985 
L 618.40546 216.766971 
L 622.368352 215.154334 
L 623.927699 214.281046 
L 625.078032 213.358429 
L 625.832772 212.396409 
L 626.287093 211.413039 
L 626.932775 209.46921 
L 627.467036 208.545632 
L 628.315656 207.666752 
L 629.526816 206.82986 
L 631.069499 206.023185 
L 636.448312 203.597405 
L 637.971809 202.731279 
L 639.169611 201.825118 
L 640.02676 200.885791 
L 640.607352 199.927786 
L 641.484281 198.030005 
L 642.097718 197.122166 
L 642.992162 196.252034 
L 644.209736 195.416355 
L 647.394951 193.798328 
L 650.702803 192.142686 
L 652.062184 191.271537 
L 653.133552 190.369928 
L 653.937448 189.446156 
L 655.768632 186.678707 
L 656.592594 185.796356 
L 657.650501 184.940579 
L 660.378431 183.282114 
L 663.39592 181.601848 
L 665.908995 179.875007 
L 667.77469 178.084257 
L 670.258955 175.398932 
L 672.336567 173.67055 
L 676.097733 171.14438 
L 678.618033 169.446883 
L 680.873474 167.708341 
L 682.830858 165.936271 
L 685.58825 163.287062 
L 687.684612 161.568154 
L 691.396008 159.037061 
L 693.870724 157.324722 
L 695.987684 155.568105 
L 700.617689 151.179816 
L 702.977674 149.486635 
L 706.685811 146.935881 
L 708.789551 145.19297 
L 713.573297 140.836372 
L 722.421569 133.99195 
L 727.665769 129.688601 
L 735.144295 123.717291 
L 738.496246 121.153785 
L 741.466648 118.559226 
L 744.447535 115.994724 
L 752.215493 110.047628 
L 756.09483 106.619605 
L 764.696134 99.83868 
L 767.801638 97.297891 
L 772.147248 93.911842 
L 778.266104 88.8516 
L 782.73506 85.489736 
L 788.590513 80.424088 
L 794.24467 76.259138 
L 799.011842 72.051164 
L 805.581602 67.064498 
L 808.376047 64.555961 
L 810.570128 62.914428 
L 814.077814 60.438397 
L 816.008457 58.75192 
L 818.626137 56.245192 
L 820.883613 54.625403 
L 824.688741 52.17701 
L 825.732386 51.333415 
L 827.311631 49.623224 
L 828.813032 47.948382 
L 829.838926 47.140498 
L 832.602762 45.557853 
L 834.105615 44.755254 
L 835.391235 43.927436 
L 836.207449 43.071363 
L 836.362727 42.198584 
L 835.787469 41.337026 
L 834.565501 40.528564 
L 832.923997 39.822727 
L 829.674175 38.900318 
L 829.674175 38.900318 
" clip-path="url(#p00e4f2edbc)" style="fill: none; stroke: #000000; stroke-opacity: 0.6; stroke-width: 1.5; stroke-linecap: square"/>
   </g>
   <g id="line2d_52">
    <path d="M 826.062322 38.74 
L 826.30069 38.784208 
L 826.336673 39.010534 
L 825.875768 39.858766 
L 824.377529 41.572761 
L 821.341438 44.572584 
L 819.779664 45.794614 
L 818.83625 46.444359 
L 818.409455 47.209821 
L 817.434567 48.546423 
L 815.995741 50.068306 
L 814.554351 51.225274 
L 813.326704 51.850496 
L 813.090432 52.018767 
L 812.473137 53.104793 
L 811.406599 54.46824 
L 809.979717 55.885121 
L 808.643911 56.906045 
L 807.169465 57.841708 
L 805.824958 59.652929 
L 804.513215 61.018899 
L 803.115079 62.196761 
L 800.815649 63.921849 
L 799.583822 65.500425 
L 798.262886 66.83581 
L 796.906986 67.940513 
L 794.886977 69.39626 
L 793.830135 70.753605 
L 792.643295 72.007805 
L 791.320228 73.162995 
L 788.151809 75.589892 
L 786.382475 77.192302 
L 784.153149 78.866495 
L 781.057703 80.983335 
L 778.810719 82.986781 
L 776.66214 84.562378 
L 773.997073 86.360921 
L 771.272334 88.719849 
L 769.255311 90.164953 
L 767.003421 91.688926 
L 764.350847 93.822977 
L 761.584751 95.686119 
L 759.175967 97.240181 
L 754.963627 100.352093 
L 750.786978 103.150377 
L 747.651275 105.430947 
L 742.763579 108.753047 
L 713.850622 130.074159 
L 702.507964 137.518128 
L 689.667006 145.949881 
L 687.049271 147.8547 
L 638.017853 184.324878 
L 622.810911 196.843283 
L 614.464673 204.087911 
L 602.748234 214.553129 
L 594.626406 221.757157 
L 583.504915 233.180515 
L 579.301001 237.788198 
L 577.636582 239.550726 
L 568.790868 248.275724 
L 554.083308 260.37264 
L 545.241248 267.262836 
L 538.308824 272.391336 
L 533.516068 276.144904 
L 517.393886 288.644874 
L 511.254913 293.632013 
L 501.896902 302.497807 
L 500.155834 304.55166 
L 499.679297 304.74 
L 499.617273 304.562415 
L 499.728219 304.179752 
L 500.523883 302.844015 
L 502.005402 300.955526 
L 504.989105 297.667311 
L 509.39229 293.200705 
L 512.411555 290.465697 
L 515.192709 288.023472 
L 517.185541 285.648359 
L 519.182623 283.34695 
L 521.652987 280.853164 
L 524.114323 278.732736 
L 527.475771 276.117066 
L 528.715677 274.774369 
L 531.370487 271.681726 
L 533.782082 269.246852 
L 536.63512 267.10452 
L 541.667439 263.608711 
L 549.956184 256.576626 
L 553.908651 253.788785 
L 556.819569 251.744752 
L 562.463293 247.279691 
L 565.516585 245.036626 
L 569.887956 242.144897 
L 573.222437 240.001739 
L 576.354018 237.645127 
L 580.410453 234.54604 
L 591.096671 226.809158 
L 597.157097 221.927278 
L 602.165224 218.320985 
L 605.339872 215.979028 
L 607.641012 214.281046 
L 613.243009 210.430272 
L 633.397848 197.122166 
L 640.166777 192.142686 
L 647.329779 186.678707 
L 656.49971 179.875007 
L 662.535974 175.398932 
L 674.222443 166.824859 
L 684.572674 159.037061 
L 715.034973 133.99195 
L 747.534884 106.619605 
L 761.595032 93.911842 
L 775.343418 81.253004 
L 785.197836 72.051164 
L 789.131698 67.906275 
L 806.351682 49.623224 
L 815.93778 39.822727 
L 817.240355 38.900318 
L 817.240355 38.900318 
" clip-path="url(#p00e4f2edbc)" style="fill: none; stroke-dasharray: 5.55,2.4; stroke-dashoffset: 0; stroke: #ff7f0e; stroke-width: 1.5"/>
   </g>
   <g id="patch_9">
    <path d="M 482.78 318.04 
L 482.78 25.44 
" style="fill: none; stroke: #000000; stroke-width: 0.8; stroke-linejoin: miter; stroke-linecap: square"/>
   </g>
   <g id="patch_10">
    <path d="M 853.2 318.04 
L 853.2 25.44 
" style="fill: none; stroke: #000000; stroke-width: 0.8; stroke-linejoin: miter; stroke-linecap: square"/>
   </g>
   <g id="patch_11">
    <path d="M 482.78 318.04 
L 853.2 318.04 
" style="fill: none; stroke: #000000; stroke-width: 0.8; stroke-linejoin: miter; stroke-linecap: square"/>
   </g>
   <g id="patch_12">
    <path d="M 482.78 25.44 
L 853.2 25.44 
" style="fill: none; stroke: #000000; stroke-width: 0.8; stroke-linejoin: miter; stroke-linecap: square"/>
   </g>
   <g id="text_29">
    <!-- B-H Loop (Ep 992) -->
    <g transform="translate(613.351562 19.44) scale(0.12 -0.12)">
     <defs>
      <path id="DejaVuSans-2d" d="M 313 2009 
L 1997 2009 
L 1997 1497 
L 313 1497 
L 313 2009 
z
" transform="scale(0.015625)"/>
      <path id="DejaVuSans-4c" d="M 628 4666 
L 1259 4666 
L 1259 531 
L 3531 531 
L 3531 0 
L 628 0 
L 628 4666 
z
" transform="scale(0.015625)"/>
     </defs>
     <use xlink:href="#DejaVuSans-42"/>
     <use xlink:href="#DejaVuSans-2d" transform="translate(68.603516 0)"/>
     <use xlink:href="#DejaVuSans-48" transform="translate(104.6875 0)"/>
     <use xlink:href="#DejaVuSans-20" transform="translate(179.882812 0)"/>
     <use xlink:href="#DejaVuSans-4c" transform="translate(211.669922 0)"/>
     <use xlink:href="#DejaVuSans-6f" transform="translate(265.632812 0)"/>
     <use xlink:href="#DejaVuSans-6f" transform="translate(326.814453 0)"/>
     <use xlink:href="#DejaVuSans-70" transform="translate(387.996094 0)"/>
     <use xlink:href="#DejaVuSans-20" transform="translate(451.472656 0)"/>
     <use xlink:href="#DejaVuSans-28" transform="translate(483.259766 0)"/>
     <use xlink:href="#DejaVuSans-45" transform="translate(522.273438 0)"/>
     <use xlink:href="#DejaVuSans-70" transform="translate(585.457031 0)"/>
     <use xlink:href="#DejaVuSans-20" transform="translate(648.933594 0)"/>
     <use xlink:href="#DejaVuSans-39" transform="translate(680.720703 0)"/>
     <use xlink:href="#DejaVuSans-39" transform="translate(744.34375 0)"/>
     <use xlink:href="#DejaVuSans-32" transform="translate(807.966797 0)"/>
     <use xlink:href="#DejaVuSans-29" transform="translate(871.589844 0)"/>
    </g>
   </g>
   <g id="legend_2">
    <g id="patch_13">
     <path d="M 489.78 62.79625 
L 552.72375 62.79625 
Q 554.72375 62.79625 554.72375 60.79625 
L 554.72375 32.44 
Q 554.72375 30.44 552.72375 30.44 
L 489.78 30.44 
Q 487.78 30.44 487.78 32.44 
L 487.78 60.79625 
Q 487.78 62.79625 489.78 62.79625 
z
" style="fill: #ffffff; opacity: 0.8; stroke: #cccccc; stroke-linejoin: miter"/>
    </g>
    <g id="line2d_53">
     <path d="M 491.78 38.538437 
L 501.78 38.538437 
L 511.78 38.538437 
" style="fill: none; stroke: #000000; stroke-opacity: 0.6; stroke-width: 1.5; stroke-linecap: square"/>
    </g>
    <g id="text_30">
     <!-- Target -->
     <g transform="translate(519.78 42.038437) scale(0.1 -0.1)">
      <use xlink:href="#DejaVuSans-54"/>
      <use xlink:href="#DejaVuSans-61" transform="translate(44.583984 0)"/>
      <use xlink:href="#DejaVuSans-72" transform="translate(105.863281 0)"/>
      <use xlink:href="#DejaVuSans-67" transform="translate(145.226562 0)"/>
      <use xlink:href="#DejaVuSans-65" transform="translate(208.703125 0)"/>
      <use xlink:href="#DejaVuSans-74" transform="translate(270.226562 0)"/>
     </g>
    </g>
    <g id="line2d_54">
     <path d="M 491.78 53.216563 
L 501.78 53.216563 
L 511.78 53.216563 
" style="fill: none; stroke-dasharray: 5.55,2.4; stroke-dashoffset: 0; stroke: #1f77b4; stroke-width: 1.5"/>
    </g>
    <g id="text_31">
     <!-- Pred -->
     <g transform="translate(519.78 56.716563) scale(0.1 -0.1)">
      <use xlink:href="#DejaVuSans-50"/>
      <use xlink:href="#DejaVuSans-72" transform="translate(58.552734 0)"/>
      <use xlink:href="#DejaVuSans-65" transform="translate(97.416016 0)"/>
      <use xlink:href="#DejaVuSans-64" transform="translate(158.939453 0)"/>
     </g>
    </g>
   </g>
  </g>
 </g>
 <defs>
  <clipPath id="p5c900c6152">
   <rect x="56.18" y="25.44" width="370.42" height="292.6"/>
  </clipPath>
  <clipPath id="p00e4f2edbc">
   <rect x="482.78" y="25.44" width="370.42" height="292.6"/>
  </clipPath>
 </defs>
</svg>
