<?xml version="1.0" encoding="utf-8" standalone="no"?>
<!DOCTYPE svg PUBLIC "-//W3C//DTD SVG 1.1//EN"
  "http://www.w3.org/Graphics/SVG/1.1/DTD/svg11.dtd">
<svg xmlns:xlink="http://www.w3.org/1999/xlink" width="864pt" height="360pt" viewBox="0 0 864 360" xmlns="http://www.w3.org/2000/svg" version="1.1">
 <metadata>
  <rdf:RDF xmlns:dc="http://purl.org/dc/elements/1.1/" xmlns:cc="http://creativecommons.org/ns#" xmlns:rdf="http://www.w3.org/1999/02/22-rdf-syntax-ns#">
   <cc:Work>
    <dc:type rdf:resource="http://purl.org/dc/dcmitype/StillImage"/>
    <dc:date>2025-12-19T16:08:50.679941</dc:date>
    <dc:format>image/svg+xml</dc:format>
    <dc:creator>
     <cc:Agent>
      <dc:title>Matplotlib v3.10.0, https://matplotlib.org/</dc:title>
     </cc:Agent>
    </dc:creator>
   </cc:Work>
  </rdf:RDF>
 </metadata>
 <defs>
  <style type="text/css">*{stroke-linejoin: round; stroke-linecap: butt}</style>
 </defs>
 <g id="figure_1">
  <g id="patch_1">
   <path d="M 0 360 
L 864 360 
L 864 0 
L 0 0 
z
" style="fill: #ffffff"/>
  </g>
  <g id="axes_1">
   <g id="patch_2">
    <path d="M 56.18 318.04 
L 426.6 318.04 
L 426.6 25.44 
L 56.18 25.44 
z
" style="fill: #ffffff"/>
   </g>
   <g id="matplotlib.axis_1">
    <g id="xtick_1">
     <g id="line2d_1">
      <path d="M 73.017273 318.04 
L 73.017273 25.44 
" clip-path="url(#p63c6d62398)" style="fill: none; stroke: #b0b0b0; stroke-opacity: 0.3; stroke-width: 0.8; stroke-linecap: square"/>
     </g>
     <g id="line2d_2">
      <defs>
       <path id="mddeea6c312" d="M 0 0 
L 0 3.5 
" style="stroke: #000000; stroke-width: 0.8"/>
      </defs>
      <g>
       <use xlink:href="#mddeea6c312" x="73.017273" y="318.04" style="stroke: #000000; stroke-width: 0.8"/>
      </g>
     </g>
     <g id="text_1">
      <!-- 0 -->
      <g transform="translate(69.836023 332.638438) scale(0.1 -0.1)">
       <defs>
        <path id="DejaVuSans-30" d="M 2034 4250 
Q 1547 4250 1301 3770 
Q 1056 3291 1056 2328 
Q 1056 1369 1301 889 
Q 1547 409 2034 409 
Q 2525 409 2770 889 
Q 3016 1369 3016 2328 
Q 3016 3291 2770 3770 
Q 2525 4250 2034 4250 
z
M 2034 4750 
Q 2819 4750 3233 4129 
Q 3647 3509 3647 2328 
Q 3647 1150 3233 529 
Q 2819 -91 2034 -91 
Q 1250 -91 836 529 
Q 422 1150 422 2328 
Q 422 3509 836 4129 
Q 1250 4750 2034 4750 
z
" transform="scale(0.015625)"/>
       </defs>
       <use xlink:href="#DejaVuSans-30"/>
      </g>
     </g>
    </g>
    <g id="xtick_2">
     <g id="line2d_3">
      <path d="M 138.852161 318.04 
L 138.852161 25.44 
" clip-path="url(#p63c6d62398)" style="fill: none; stroke: #b0b0b0; stroke-opacity: 0.3; stroke-width: 0.8; stroke-linecap: square"/>
     </g>
     <g id="line2d_4">
      <g>
       <use xlink:href="#mddeea6c312" x="138.852161" y="318.04" style="stroke: #000000; stroke-width: 0.8"/>
      </g>
     </g>
     <g id="text_2">
      <!-- 200 -->
      <g transform="translate(129.308411 332.638438) scale(0.1 -0.1)">
       <defs>
        <path id="DejaVuSans-32" d="M 1228 531 
L 3431 531 
L 3431 0 
L 469 0 
L 469 531 
Q 828 903 1448 1529 
Q 2069 2156 2228 2338 
Q 2531 2678 2651 2914 
Q 2772 3150 2772 3378 
Q 2772 3750 2511 3984 
Q 2250 4219 1831 4219 
Q 1534 4219 1204 4116 
Q 875 4013 500 3803 
L 500 4441 
Q 881 4594 1212 4672 
Q 1544 4750 1819 4750 
Q 2544 4750 2975 4387 
Q 3406 4025 3406 3419 
Q 3406 3131 3298 2873 
Q 3191 2616 2906 2266 
Q 2828 2175 2409 1742 
Q 1991 1309 1228 531 
z
" transform="scale(0.015625)"/>
       </defs>
       <use xlink:href="#DejaVuSans-32"/>
       <use xlink:href="#DejaVuSans-30" transform="translate(63.623047 0)"/>
       <use xlink:href="#DejaVuSans-30" transform="translate(127.246094 0)"/>
      </g>
     </g>
    </g>
    <g id="xtick_3">
     <g id="line2d_5">
      <path d="M 204.68705 318.04 
L 204.68705 25.44 
" clip-path="url(#p63c6d62398)" style="fill: none; stroke: #b0b0b0; stroke-opacity: 0.3; stroke-width: 0.8; stroke-linecap: square"/>
     </g>
     <g id="line2d_6">
      <g>
       <use xlink:href="#mddeea6c312" x="204.68705" y="318.04" style="stroke: #000000; stroke-width: 0.8"/>
      </g>
     </g>
     <g id="text_3">
      <!-- 400 -->
      <g transform="translate(195.1433 332.638438) scale(0.1 -0.1)">
       <defs>
        <path id="DejaVuSans-34" d="M 2419 4116 
L 825 1625 
L 2419 1625 
L 2419 4116 
z
M 2253 4666 
L 3047 4666 
L 3047 1625 
L 3713 1625 
L 3713 1100 
L 3047 1100 
L 3047 0 
L 2419 0 
L 2419 1100 
L 313 1100 
L 313 1709 
L 2253 4666 
z
" transform="scale(0.015625)"/>
       </defs>
       <use xlink:href="#DejaVuSans-34"/>
       <use xlink:href="#DejaVuSans-30" transform="translate(63.623047 0)"/>
       <use xlink:href="#DejaVuSans-30" transform="translate(127.246094 0)"/>
      </g>
     </g>
    </g>
    <g id="xtick_4">
     <g id="line2d_7">
      <path d="M 270.521938 318.04 
L 270.521938 25.44 
" clip-path="url(#p63c6d62398)" style="fill: none; stroke: #b0b0b0; stroke-opacity: 0.3; stroke-width: 0.8; stroke-linecap: square"/>
     </g>
     <g id="line2d_8">
      <g>
       <use xlink:href="#mddeea6c312" x="270.521938" y="318.04" style="stroke: #000000; stroke-width: 0.8"/>
      </g>
     </g>
     <g id="text_4">
      <!-- 600 -->
      <g transform="translate(260.978188 332.638438) scale(0.1 -0.1)">
       <defs>
        <path id="DejaVuSans-36" d="M 2113 2584 
Q 1688 2584 1439 2293 
Q 1191 2003 1191 1497 
Q 1191 994 1439 701 
Q 1688 409 2113 409 
Q 2538 409 2786 701 
Q 3034 994 3034 1497 
Q 3034 2003 2786 2293 
Q 2538 2584 2113 2584 
z
M 3366 4563 
L 3366 3988 
Q 3128 4100 2886 4159 
Q 2644 4219 2406 4219 
Q 1781 4219 1451 3797 
Q 1122 3375 1075 2522 
Q 1259 2794 1537 2939 
Q 1816 3084 2150 3084 
Q 2853 3084 3261 2657 
Q 3669 2231 3669 1497 
Q 3669 778 3244 343 
Q 2819 -91 2113 -91 
Q 1303 -91 875 529 
Q 447 1150 447 2328 
Q 447 3434 972 4092 
Q 1497 4750 2381 4750 
Q 2619 4750 2861 4703 
Q 3103 4656 3366 4563 
z
" transform="scale(0.015625)"/>
       </defs>
       <use xlink:href="#DejaVuSans-36"/>
       <use xlink:href="#DejaVuSans-30" transform="translate(63.623047 0)"/>
       <use xlink:href="#DejaVuSans-30" transform="translate(127.246094 0)"/>
      </g>
     </g>
    </g>
    <g id="xtick_5">
     <g id="line2d_9">
      <path d="M 336.356827 318.04 
L 336.356827 25.44 
" clip-path="url(#p63c6d62398)" style="fill: none; stroke: #b0b0b0; stroke-opacity: 0.3; stroke-width: 0.8; stroke-linecap: square"/>
     </g>
     <g id="line2d_10">
      <g>
       <use xlink:href="#mddeea6c312" x="336.356827" y="318.04" style="stroke: #000000; stroke-width: 0.8"/>
      </g>
     </g>
     <g id="text_5">
      <!-- 800 -->
      <g transform="translate(326.813077 332.638438) scale(0.1 -0.1)">
       <defs>
        <path id="DejaVuSans-38" d="M 2034 2216 
Q 1584 2216 1326 1975 
Q 1069 1734 1069 1313 
Q 1069 891 1326 650 
Q 1584 409 2034 409 
Q 2484 409 2743 651 
Q 3003 894 3003 1313 
Q 3003 1734 2745 1975 
Q 2488 2216 2034 2216 
z
M 1403 2484 
Q 997 2584 770 2862 
Q 544 3141 544 3541 
Q 544 4100 942 4425 
Q 1341 4750 2034 4750 
Q 2731 4750 3128 4425 
Q 3525 4100 3525 3541 
Q 3525 3141 3298 2862 
Q 3072 2584 2669 2484 
Q 3125 2378 3379 2068 
Q 3634 1759 3634 1313 
Q 3634 634 3220 271 
Q 2806 -91 2034 -91 
Q 1263 -91 848 271 
Q 434 634 434 1313 
Q 434 1759 690 2068 
Q 947 2378 1403 2484 
z
M 1172 3481 
Q 1172 3119 1398 2916 
Q 1625 2713 2034 2713 
Q 2441 2713 2670 2916 
Q 2900 3119 2900 3481 
Q 2900 3844 2670 4047 
Q 2441 4250 2034 4250 
Q 1625 4250 1398 4047 
Q 1172 3844 1172 3481 
z
" transform="scale(0.015625)"/>
       </defs>
       <use xlink:href="#DejaVuSans-38"/>
       <use xlink:href="#DejaVuSans-30" transform="translate(63.623047 0)"/>
       <use xlink:href="#DejaVuSans-30" transform="translate(127.246094 0)"/>
      </g>
     </g>
    </g>
    <g id="xtick_6">
     <g id="line2d_11">
      <path d="M 402.191715 318.04 
L 402.191715 25.44 
" clip-path="url(#p63c6d62398)" style="fill: none; stroke: #b0b0b0; stroke-opacity: 0.3; stroke-width: 0.8; stroke-linecap: square"/>
     </g>
     <g id="line2d_12">
      <g>
       <use xlink:href="#mddeea6c312" x="402.191715" y="318.04" style="stroke: #000000; stroke-width: 0.8"/>
      </g>
     </g>
     <g id="text_6">
      <!-- 1000 -->
      <g transform="translate(389.466715 332.638438) scale(0.1 -0.1)">
       <defs>
        <path id="DejaVuSans-31" d="M 794 531 
L 1825 531 
L 1825 4091 
L 703 3866 
L 703 4441 
L 1819 4666 
L 2450 4666 
L 2450 531 
L 3481 531 
L 3481 0 
L 794 0 
L 794 531 
z
" transform="scale(0.015625)"/>
       </defs>
       <use xlink:href="#DejaVuSans-31"/>
       <use xlink:href="#DejaVuSans-30" transform="translate(63.623047 0)"/>
       <use xlink:href="#DejaVuSans-30" transform="translate(127.246094 0)"/>
       <use xlink:href="#DejaVuSans-30" transform="translate(190.869141 0)"/>
      </g>
     </g>
    </g>
    <g id="text_7">
     <!-- Time Step -->
     <g transform="translate(216.182187 346.316563) scale(0.1 -0.1)">
      <defs>
       <path id="DejaVuSans-54" d="M -19 4666 
L 3928 4666 
L 3928 4134 
L 2272 4134 
L 2272 0 
L 1638 0 
L 1638 4134 
L -19 4134 
L -19 4666 
z
" transform="scale(0.015625)"/>
       <path id="DejaVuSans-69" d="M 603 3500 
L 1178 3500 
L 1178 0 
L 603 0 
L 603 3500 
z
M 603 4863 
L 1178 4863 
L 1178 4134 
L 603 4134 
L 603 4863 
z
" transform="scale(0.015625)"/>
       <path id="DejaVuSans-6d" d="M 3328 2828 
Q 3544 3216 3844 3400 
Q 4144 3584 4550 3584 
Q 5097 3584 5394 3201 
Q 5691 2819 5691 2113 
L 5691 0 
L 5113 0 
L 5113 2094 
Q 5113 2597 4934 2840 
Q 4756 3084 4391 3084 
Q 3944 3084 3684 2787 
Q 3425 2491 3425 1978 
L 3425 0 
L 2847 0 
L 2847 2094 
Q 2847 2600 2669 2842 
Q 2491 3084 2119 3084 
Q 1678 3084 1418 2786 
Q 1159 2488 1159 1978 
L 1159 0 
L 581 0 
L 581 3500 
L 1159 3500 
L 1159 2956 
Q 1356 3278 1631 3431 
Q 1906 3584 2284 3584 
Q 2666 3584 2933 3390 
Q 3200 3197 3328 2828 
z
" transform="scale(0.015625)"/>
       <path id="DejaVuSans-65" d="M 3597 1894 
L 3597 1613 
L 953 1613 
Q 991 1019 1311 708 
Q 1631 397 2203 397 
Q 2534 397 2845 478 
Q 3156 559 3463 722 
L 3463 178 
Q 3153 47 2828 -22 
Q 2503 -91 2169 -91 
Q 1331 -91 842 396 
Q 353 884 353 1716 
Q 353 2575 817 3079 
Q 1281 3584 2069 3584 
Q 2775 3584 3186 3129 
Q 3597 2675 3597 1894 
z
M 3022 2063 
Q 3016 2534 2758 2815 
Q 2500 3097 2075 3097 
Q 1594 3097 1305 2825 
Q 1016 2553 972 2059 
L 3022 2063 
z
" transform="scale(0.015625)"/>
       <path id="DejaVuSans-20" transform="scale(0.015625)"/>
       <path id="DejaVuSans-53" d="M 3425 4513 
L 3425 3897 
Q 3066 4069 2747 4153 
Q 2428 4238 2131 4238 
Q 1616 4238 1336 4038 
Q 1056 3838 1056 3469 
Q 1056 3159 1242 3001 
Q 1428 2844 1947 2747 
L 2328 2669 
Q 3034 2534 3370 2195 
Q 3706 1856 3706 1288 
Q 3706 609 3251 259 
Q 2797 -91 1919 -91 
Q 1588 -91 1214 -16 
Q 841 59 441 206 
L 441 856 
Q 825 641 1194 531 
Q 1563 422 1919 422 
Q 2459 422 2753 634 
Q 3047 847 3047 1241 
Q 3047 1584 2836 1778 
Q 2625 1972 2144 2069 
L 1759 2144 
Q 1053 2284 737 2584 
Q 422 2884 422 3419 
Q 422 4038 858 4394 
Q 1294 4750 2059 4750 
Q 2388 4750 2728 4690 
Q 3069 4631 3425 4513 
z
" transform="scale(0.015625)"/>
       <path id="DejaVuSans-74" d="M 1172 4494 
L 1172 3500 
L 2356 3500 
L 2356 3053 
L 1172 3053 
L 1172 1153 
Q 1172 725 1289 603 
Q 1406 481 1766 481 
L 2356 481 
L 2356 0 
L 1766 0 
Q 1100 0 847 248 
Q 594 497 594 1153 
L 594 3053 
L 172 3053 
L 172 3500 
L 594 3500 
L 594 4494 
L 1172 4494 
z
" transform="scale(0.015625)"/>
       <path id="DejaVuSans-70" d="M 1159 525 
L 1159 -1331 
L 581 -1331 
L 581 3500 
L 1159 3500 
L 1159 2969 
Q 1341 3281 1617 3432 
Q 1894 3584 2278 3584 
Q 2916 3584 3314 3078 
Q 3713 2572 3713 1747 
Q 3713 922 3314 415 
Q 2916 -91 2278 -91 
Q 1894 -91 1617 61 
Q 1341 213 1159 525 
z
M 3116 1747 
Q 3116 2381 2855 2742 
Q 2594 3103 2138 3103 
Q 1681 3103 1420 2742 
Q 1159 2381 1159 1747 
Q 1159 1113 1420 752 
Q 1681 391 2138 391 
Q 2594 391 2855 752 
Q 3116 1113 3116 1747 
z
" transform="scale(0.015625)"/>
      </defs>
      <use xlink:href="#DejaVuSans-54"/>
      <use xlink:href="#DejaVuSans-69" transform="translate(57.958984 0)"/>
      <use xlink:href="#DejaVuSans-6d" transform="translate(85.742188 0)"/>
      <use xlink:href="#DejaVuSans-65" transform="translate(183.154297 0)"/>
      <use xlink:href="#DejaVuSans-20" transform="translate(244.677734 0)"/>
      <use xlink:href="#DejaVuSans-53" transform="translate(276.464844 0)"/>
      <use xlink:href="#DejaVuSans-74" transform="translate(339.941406 0)"/>
      <use xlink:href="#DejaVuSans-65" transform="translate(379.150391 0)"/>
      <use xlink:href="#DejaVuSans-70" transform="translate(440.673828 0)"/>
     </g>
    </g>
   </g>
   <g id="matplotlib.axis_2">
    <g id="ytick_1">
     <g id="line2d_13">
      <path d="M 56.18 299.177858 
L 426.6 299.177858 
" clip-path="url(#p63c6d62398)" style="fill: none; stroke: #b0b0b0; stroke-opacity: 0.3; stroke-width: 0.8; stroke-linecap: square"/>
     </g>
     <g id="line2d_14">
      <defs>
       <path id="m2ddef7a50f" d="M 0 0 
L -3.5 0 
" style="stroke: #000000; stroke-width: 0.8"/>
      </defs>
      <g>
       <use xlink:href="#m2ddef7a50f" x="56.18" y="299.177858" style="stroke: #000000; stroke-width: 0.8"/>
      </g>
     </g>
     <g id="text_8">
      <!-- −0.4 -->
      <g transform="translate(24.897187 302.977077) scale(0.1 -0.1)">
       <defs>
        <path id="DejaVuSans-2212" d="M 678 2272 
L 4684 2272 
L 4684 1741 
L 678 1741 
L 678 2272 
z
" transform="scale(0.015625)"/>
        <path id="DejaVuSans-2e" d="M 684 794 
L 1344 794 
L 1344 0 
L 684 0 
L 684 794 
z
" transform="scale(0.015625)"/>
       </defs>
       <use xlink:href="#DejaVuSans-2212"/>
       <use xlink:href="#DejaVuSans-30" transform="translate(83.789062 0)"/>
       <use xlink:href="#DejaVuSans-2e" transform="translate(147.412109 0)"/>
       <use xlink:href="#DejaVuSans-34" transform="translate(179.199219 0)"/>
      </g>
     </g>
    </g>
    <g id="ytick_2">
     <g id="line2d_15">
      <path d="M 56.18 237.104799 
L 426.6 237.104799 
" clip-path="url(#p63c6d62398)" style="fill: none; stroke: #b0b0b0; stroke-opacity: 0.3; stroke-width: 0.8; stroke-linecap: square"/>
     </g>
     <g id="line2d_16">
      <g>
       <use xlink:href="#m2ddef7a50f" x="56.18" y="237.104799" style="stroke: #000000; stroke-width: 0.8"/>
      </g>
     </g>
     <g id="text_9">
      <!-- −0.2 -->
      <g transform="translate(24.897187 240.904018) scale(0.1 -0.1)">
       <use xlink:href="#DejaVuSans-2212"/>
       <use xlink:href="#DejaVuSans-30" transform="translate(83.789062 0)"/>
       <use xlink:href="#DejaVuSans-2e" transform="translate(147.412109 0)"/>
       <use xlink:href="#DejaVuSans-32" transform="translate(179.199219 0)"/>
      </g>
     </g>
    </g>
    <g id="ytick_3">
     <g id="line2d_17">
      <path d="M 56.18 175.031741 
L 426.6 175.031741 
" clip-path="url(#p63c6d62398)" style="fill: none; stroke: #b0b0b0; stroke-opacity: 0.3; stroke-width: 0.8; stroke-linecap: square"/>
     </g>
     <g id="line2d_18">
      <g>
       <use xlink:href="#m2ddef7a50f" x="56.18" y="175.031741" style="stroke: #000000; stroke-width: 0.8"/>
      </g>
     </g>
     <g id="text_10">
      <!-- 0.0 -->
      <g transform="translate(33.276875 178.830959) scale(0.1 -0.1)">
       <use xlink:href="#DejaVuSans-30"/>
       <use xlink:href="#DejaVuSans-2e" transform="translate(63.623047 0)"/>
       <use xlink:href="#DejaVuSans-30" transform="translate(95.410156 0)"/>
      </g>
     </g>
    </g>
    <g id="ytick_4">
     <g id="line2d_19">
      <path d="M 56.18 112.958682 
L 426.6 112.958682 
" clip-path="url(#p63c6d62398)" style="fill: none; stroke: #b0b0b0; stroke-opacity: 0.3; stroke-width: 0.8; stroke-linecap: square"/>
     </g>
     <g id="line2d_20">
      <g>
       <use xlink:href="#m2ddef7a50f" x="56.18" y="112.958682" style="stroke: #000000; stroke-width: 0.8"/>
      </g>
     </g>
     <g id="text_11">
      <!-- 0.2 -->
      <g transform="translate(33.276875 116.757901) scale(0.1 -0.1)">
       <use xlink:href="#DejaVuSans-30"/>
       <use xlink:href="#DejaVuSans-2e" transform="translate(63.623047 0)"/>
       <use xlink:href="#DejaVuSans-32" transform="translate(95.410156 0)"/>
      </g>
     </g>
    </g>
    <g id="ytick_5">
     <g id="line2d_21">
      <path d="M 56.18 50.885623 
L 426.6 50.885623 
" clip-path="url(#p63c6d62398)" style="fill: none; stroke: #b0b0b0; stroke-opacity: 0.3; stroke-width: 0.8; stroke-linecap: square"/>
     </g>
     <g id="line2d_22">
      <g>
       <use xlink:href="#m2ddef7a50f" x="56.18" y="50.885623" style="stroke: #000000; stroke-width: 0.8"/>
      </g>
     </g>
     <g id="text_12">
      <!-- 0.4 -->
      <g transform="translate(33.276875 54.684842) scale(0.1 -0.1)">
       <use xlink:href="#DejaVuSans-30"/>
       <use xlink:href="#DejaVuSans-2e" transform="translate(63.623047 0)"/>
       <use xlink:href="#DejaVuSans-34" transform="translate(95.410156 0)"/>
      </g>
     </g>
    </g>
    <g id="text_13">
     <!-- H (Normalized) -->
     <g transform="translate(18.8175 209.34625) rotate(-90) scale(0.1 -0.1)">
      <defs>
       <path id="DejaVuSans-48" d="M 628 4666 
L 1259 4666 
L 1259 2753 
L 3553 2753 
L 3553 4666 
L 4184 4666 
L 4184 0 
L 3553 0 
L 3553 2222 
L 1259 2222 
L 1259 0 
L 628 0 
L 628 4666 
z
" transform="scale(0.015625)"/>
       <path id="DejaVuSans-28" d="M 1984 4856 
Q 1566 4138 1362 3434 
Q 1159 2731 1159 2009 
Q 1159 1288 1364 580 
Q 1569 -128 1984 -844 
L 1484 -844 
Q 1016 -109 783 600 
Q 550 1309 550 2009 
Q 550 2706 781 3412 
Q 1013 4119 1484 4856 
L 1984 4856 
z
" transform="scale(0.015625)"/>
       <path id="DejaVuSans-4e" d="M 628 4666 
L 1478 4666 
L 3547 763 
L 3547 4666 
L 4159 4666 
L 4159 0 
L 3309 0 
L 1241 3903 
L 1241 0 
L 628 0 
L 628 4666 
z
" transform="scale(0.015625)"/>
       <path id="DejaVuSans-6f" d="M 1959 3097 
Q 1497 3097 1228 2736 
Q 959 2375 959 1747 
Q 959 1119 1226 758 
Q 1494 397 1959 397 
Q 2419 397 2687 759 
Q 2956 1122 2956 1747 
Q 2956 2369 2687 2733 
Q 2419 3097 1959 3097 
z
M 1959 3584 
Q 2709 3584 3137 3096 
Q 3566 2609 3566 1747 
Q 3566 888 3137 398 
Q 2709 -91 1959 -91 
Q 1206 -91 779 398 
Q 353 888 353 1747 
Q 353 2609 779 3096 
Q 1206 3584 1959 3584 
z
" transform="scale(0.015625)"/>
       <path id="DejaVuSans-72" d="M 2631 2963 
Q 2534 3019 2420 3045 
Q 2306 3072 2169 3072 
Q 1681 3072 1420 2755 
Q 1159 2438 1159 1844 
L 1159 0 
L 581 0 
L 581 3500 
L 1159 3500 
L 1159 2956 
Q 1341 3275 1631 3429 
Q 1922 3584 2338 3584 
Q 2397 3584 2469 3576 
Q 2541 3569 2628 3553 
L 2631 2963 
z
" transform="scale(0.015625)"/>
       <path id="DejaVuSans-61" d="M 2194 1759 
Q 1497 1759 1228 1600 
Q 959 1441 959 1056 
Q 959 750 1161 570 
Q 1363 391 1709 391 
Q 2188 391 2477 730 
Q 2766 1069 2766 1631 
L 2766 1759 
L 2194 1759 
z
M 3341 1997 
L 3341 0 
L 2766 0 
L 2766 531 
Q 2569 213 2275 61 
Q 1981 -91 1556 -91 
Q 1019 -91 701 211 
Q 384 513 384 1019 
Q 384 1609 779 1909 
Q 1175 2209 1959 2209 
L 2766 2209 
L 2766 2266 
Q 2766 2663 2505 2880 
Q 2244 3097 1772 3097 
Q 1472 3097 1187 3025 
Q 903 2953 641 2809 
L 641 3341 
Q 956 3463 1253 3523 
Q 1550 3584 1831 3584 
Q 2591 3584 2966 3190 
Q 3341 2797 3341 1997 
z
" transform="scale(0.015625)"/>
       <path id="DejaVuSans-6c" d="M 603 4863 
L 1178 4863 
L 1178 0 
L 603 0 
L 603 4863 
z
" transform="scale(0.015625)"/>
       <path id="DejaVuSans-7a" d="M 353 3500 
L 3084 3500 
L 3084 2975 
L 922 459 
L 3084 459 
L 3084 0 
L 275 0 
L 275 525 
L 2438 3041 
L 353 3041 
L 353 3500 
z
" transform="scale(0.015625)"/>
       <path id="DejaVuSans-64" d="M 2906 2969 
L 2906 4863 
L 3481 4863 
L 3481 0 
L 2906 0 
L 2906 525 
Q 2725 213 2448 61 
Q 2172 -91 1784 -91 
Q 1150 -91 751 415 
Q 353 922 353 1747 
Q 353 2572 751 3078 
Q 1150 3584 1784 3584 
Q 2172 3584 2448 3432 
Q 2725 3281 2906 2969 
z
M 947 1747 
Q 947 1113 1208 752 
Q 1469 391 1925 391 
Q 2381 391 2643 752 
Q 2906 1113 2906 1747 
Q 2906 2381 2643 2742 
Q 2381 3103 1925 3103 
Q 1469 3103 1208 2742 
Q 947 2381 947 1747 
z
" transform="scale(0.015625)"/>
       <path id="DejaVuSans-29" d="M 513 4856 
L 1013 4856 
Q 1481 4119 1714 3412 
Q 1947 2706 1947 2009 
Q 1947 1309 1714 600 
Q 1481 -109 1013 -844 
L 513 -844 
Q 928 -128 1133 580 
Q 1338 1288 1338 2009 
Q 1338 2731 1133 3434 
Q 928 4138 513 4856 
z
" transform="scale(0.015625)"/>
      </defs>
      <use xlink:href="#DejaVuSans-48"/>
      <use xlink:href="#DejaVuSans-20" transform="translate(75.195312 0)"/>
      <use xlink:href="#DejaVuSans-28" transform="translate(106.982422 0)"/>
      <use xlink:href="#DejaVuSans-4e" transform="translate(145.996094 0)"/>
      <use xlink:href="#DejaVuSans-6f" transform="translate(220.800781 0)"/>
      <use xlink:href="#DejaVuSans-72" transform="translate(281.982422 0)"/>
      <use xlink:href="#DejaVuSans-6d" transform="translate(321.345703 0)"/>
      <use xlink:href="#DejaVuSans-61" transform="translate(418.757812 0)"/>
      <use xlink:href="#DejaVuSans-6c" transform="translate(480.037109 0)"/>
      <use xlink:href="#DejaVuSans-69" transform="translate(507.820312 0)"/>
      <use xlink:href="#DejaVuSans-7a" transform="translate(535.603516 0)"/>
      <use xlink:href="#DejaVuSans-65" transform="translate(588.09375 0)"/>
      <use xlink:href="#DejaVuSans-64" transform="translate(649.617188 0)"/>
      <use xlink:href="#DejaVuSans-29" transform="translate(713.09375 0)"/>
     </g>
    </g>
   </g>
   <g id="line2d_23">
    <path d="M 73.017273 144.776319 
L 73.346447 146.407629 
L 73.675622 146.81534 
L 74.004796 145.686869 
L 74.33397 142.995583 
L 75.650668 126.768283 
L 75.979843 125.206353 
L 76.309017 125.789222 
L 76.638192 128.464092 
L 77.954889 145.920063 
L 78.284064 147.403332 
L 78.613238 146.641114 
L 78.942413 143.85843 
L 79.929936 131.363063 
L 80.25911 129.041231 
L 80.588285 128.76347 
L 80.917459 130.56996 
L 81.575808 138.346839 
L 82.234157 145.744422 
L 82.563332 147.255612 
L 82.892506 146.835273 
L 83.22168 144.673098 
L 84.209204 134.509982 
L 84.538378 132.586351 
L 84.867553 132.310685 
L 85.196727 133.711422 
L 85.855076 139.873207 
L 86.513425 145.846903 
L 86.842599 147.160544 
L 87.171774 146.979818 
L 87.500948 145.436466 
L 88.817646 136.166083 
L 89.14682 135.863676 
L 89.475995 136.854353 
L 90.134344 141.535736 
L 90.792693 146.286466 
L 91.121867 147.422204 
L 91.451042 147.403622 
L 91.780216 146.307108 
L 93.096914 139.188907 
L 93.426088 138.954931 
L 93.755263 139.74938 
L 94.413611 143.502884 
L 95.07196 147.303976 
L 95.401135 148.201564 
L 95.730309 148.172116 
L 96.059484 147.286727 
L 97.376181 141.803075 
L 97.705356 141.714635 
L 98.03453 142.434643 
L 98.692879 145.497951 
L 99.351228 148.451688 
L 99.680403 149.112963 
L 100.009577 149.056989 
L 100.338751 148.359337 
L 101.326275 144.95347 
L 101.655449 144.364927 
L 101.984624 144.374098 
L 102.313798 144.982243 
L 102.972147 147.362923 
L 103.630496 149.606168 
L 103.95967 150.115717 
L 104.288845 150.096288 
L 104.618019 149.606216 
L 105.605543 147.178643 
L 105.934717 146.77416 
L 106.263891 146.813564 
L 106.593066 147.30075 
L 107.251415 149.157204 
L 107.909764 150.922926 
L 108.238938 151.342092 
L 108.568113 151.355312 
L 108.897287 151.004796 
L 109.88481 149.214056 
L 110.213985 148.938467 
L 110.543159 149.013226 
L 110.872334 149.439243 
L 112.518206 152.704291 
L 112.84738 152.712049 
L 113.176555 152.442893 
L 114.164078 151.164239 
L 114.493252 151.019954 
L 114.822427 151.149657 
L 115.151601 151.542023 
L 116.468299 153.871652 
L 116.797474 154.115728 
L 117.126648 154.125523 
L 117.784997 153.646329 
L 118.443346 153.131986 
L 118.77252 153.086568 
L 119.101695 153.239772 
L 119.760044 154.047887 
L 120.747567 155.421759 
L 121.076741 155.633096 
L 121.405916 155.67599 
L 122.064265 155.400593 
L 122.722614 155.094549 
L 123.051788 155.09521 
L 123.380962 155.24323 
L 124.039311 155.920048 
L 125.026835 157.069651 
L 125.356009 157.261993 
L 126.014358 157.269921 
L 127.001881 156.971501 
L 127.331056 157.006957 
L 127.989405 157.424811 
L 129.306102 158.711337 
L 129.964451 158.914553 
L 131.610323 158.839029 
L 132.268672 159.248317 
L 133.58537 160.3028 
L 134.243719 160.505567 
L 135.889591 160.684312 
L 136.54794 161.051739 
L 137.864638 161.954477 
L 138.522987 162.195904 
L 140.498033 162.648707 
L 142.802255 163.917706 
L 144.777301 164.424121 
L 147.081522 165.602582 
L 148.727394 166.047609 
L 151.689964 167.36796 
L 153.006662 167.806019 
L 156.627581 169.306255 
L 157.944279 169.840088 
L 159.919326 170.71217 
L 161.894372 171.422174 
L 163.869419 172.304049 
L 166.17364 173.186613 
L 168.477861 174.137565 
L 172.427954 175.744482 
L 185.594932 180.947649 
L 193.165944 183.988179 
L 204.357875 188.386116 
L 208.966317 190.198935 
L 214.562283 192.43088 
L 219.4999 194.376852 
L 223.120818 195.783332 
L 227.729261 197.588789 
L 230.362656 198.629975 
L 241.554587 202.97591 
L 243.529634 203.753462 
L 245.504681 204.468805 
L 250.442297 206.45123 
L 254.721565 208.100127 
L 256.367437 208.700637 
L 258.013309 209.386523 
L 259.330007 209.808805 
L 261.634228 210.840857 
L 262.950926 211.317688 
L 264.267624 211.946618 
L 266.24267 212.562565 
L 267.559368 213.234856 
L 269.534415 213.816157 
L 270.521938 214.403149 
L 271.180287 214.532523 
L 271.838636 214.584483 
L 272.496985 214.928795 
L 273.155334 215.368248 
L 273.484508 215.27812 
L 273.813683 214.722168 
L 274.142857 213.551306 
L 274.801206 209.396508 
L 275.459555 204.564775 
L 275.788729 203.03939 
L 276.117904 202.738387 
L 276.447078 203.938872 
L 276.776253 206.636601 
L 278.09295 222.092055 
L 278.422125 223.360616 
L 278.751299 222.517278 
L 279.080474 219.649558 
L 280.397171 202.307746 
L 280.726346 200.989046 
L 281.05552 201.899665 
L 281.384695 204.77681 
L 282.372218 217.015469 
L 282.701393 219.079357 
L 283.030567 219.057463 
L 283.359741 216.952849 
L 284.01809 208.754315 
L 284.676439 201.332985 
L 285.005614 199.948951 
L 285.334788 200.54429 
L 285.663962 202.880299 
L 286.651486 213.118337 
L 286.98066 214.852268 
L 287.309835 214.854428 
L 287.639009 213.140319 
L 288.297358 206.439578 
L 288.955707 200.299608 
L 289.284881 199.063012 
L 289.614056 199.392716 
L 289.94323 201.110546 
L 290.930754 209.043053 
L 291.259928 210.462333 
L 291.589102 210.547309 
L 291.918277 209.282185 
L 292.576626 204.063939 
L 293.234975 199.0553 
L 293.564149 197.93668 
L 293.893324 198.051586 
L 294.222498 199.288353 
L 295.210021 205.449638 
L 295.539196 206.582348 
L 295.86837 206.646436 
L 296.197545 205.613398 
L 296.855894 201.336808 
L 297.514242 197.226269 
L 297.843417 196.31259 
L 298.172591 196.410014 
L 298.501766 197.416679 
L 299.489289 202.278665 
L 299.818464 203.089074 
L 300.147638 203.021839 
L 300.476812 202.078656 
L 301.135161 198.524509 
L 301.79351 195.28486 
L 302.122685 194.608894 
L 302.451859 194.724007 
L 302.781034 195.523758 
L 303.768557 199.10541 
L 304.097731 199.616605 
L 304.426906 199.455928 
L 304.75608 198.644303 
L 306.072778 193.343529 
L 306.401952 192.811466 
L 306.731127 192.864974 
L 307.060301 193.421384 
L 308.047825 195.949185 
L 308.376999 196.284414 
L 308.706173 196.118154 
L 309.035348 195.46158 
L 310.352046 191.229001 
L 310.68122 190.769929 
L 311.010395 190.766457 
L 311.339569 191.158856 
L 312.327092 193.019533 
L 312.656267 193.231455 
L 312.985441 193.039009 
L 313.314616 192.45332 
L 314.631313 188.927575 
L 314.960488 188.562642 
L 315.289662 188.564528 
L 315.618837 188.872202 
L 316.60636 190.190381 
L 316.935535 190.260816 
L 317.264709 190.009049 
L 317.923058 188.710506 
L 318.581407 187.153253 
L 318.910581 186.610248 
L 319.239756 186.33172 
L 319.56893 186.32115 
L 320.227279 186.827787 
L 320.885628 187.290045 
L 321.214802 187.256672 
L 321.543977 186.993531 
L 322.202326 185.921618 
L 322.860674 184.691012 
L 323.519023 183.985563 
L 323.848198 183.916638 
L 324.506547 184.16596 
L 325.164896 184.407674 
L 325.49407 184.341574 
L 325.823244 184.104331 
L 326.481593 183.201443 
L 327.469117 181.749681 
L 327.798291 181.501629 
L 328.127466 181.41125 
L 328.785814 181.556441 
L 329.444163 181.687858 
L 329.773338 181.589356 
L 330.431687 180.967427 
L 331.748384 179.263504 
L 332.406733 178.989822 
L 333.723431 179.035073 
L 334.38178 178.615109 
L 336.027652 176.872745 
L 336.686001 176.601956 
L 338.002699 176.353362 
L 338.661048 175.925233 
L 340.636094 174.126812 
L 341.623618 173.783263 
L 342.611141 173.433971 
L 343.26949 172.951059 
L 344.915362 171.557901 
L 345.902885 171.233673 
L 346.561234 171.020624 
L 347.219583 170.607171 
L 348.865455 169.247042 
L 349.852979 168.847083 
L 350.840502 168.428147 
L 352.1572 167.447202 
L 353.144723 166.785044 
L 356.107293 165.161568 
L 358.411514 163.694111 
L 360.057386 162.849811 
L 362.690782 161.162142 
L 364.00748 160.47417 
L 366.311701 158.976286 
L 367.628399 158.265201 
L 370.590969 156.443154 
L 376.516109 152.950578 
L 377.832806 152.123409 
L 379.149504 151.315918 
L 380.795376 150.464913 
L 382.770423 149.227621 
L 384.416295 148.323231 
L 386.062167 147.302905 
L 387.70804 146.392344 
L 389.353912 145.371922 
L 390.67061 144.696204 
L 392.974831 143.283914 
L 393.962354 142.778564 
L 396.266575 141.35957 
L 397.254098 140.885038 
L 399.55832 139.42964 
L 400.545843 138.984098 
L 402.52089 137.630513 
L 403.837587 137.091367 
L 405.48346 135.813414 
L 406.800157 135.436427 
L 408.116855 134.432433 
L 408.44603 134.826966 
L 408.775204 135.852378 
L 409.433553 139.854756 
L 409.762727 142.412629 
L 409.762727 142.412629 
" clip-path="url(#p63c6d62398)" style="fill: none; stroke: #000000; stroke-opacity: 0.6; stroke-width: 1.5; stroke-linecap: square"/>
   </g>
   <g id="line2d_24">
    <path d="M 73.017273 133.007541 
L 73.675622 132.982572 
L 74.33397 133.233652 
L 76.638192 134.644532 
L 77.625715 134.591652 
L 78.284064 134.599703 
L 78.942413 134.841719 
L 80.917459 136.017076 
L 81.904983 136.085408 
L 82.563332 136.136331 
L 83.22168 136.368746 
L 85.196727 137.448154 
L 86.18425 137.580313 
L 87.171774 137.760981 
L 88.159297 138.250532 
L 89.14682 138.77268 
L 90.134344 139.028394 
L 91.451042 139.28502 
L 92.438565 139.736334 
L 93.755263 140.33575 
L 96.717833 141.227044 
L 98.03453 141.790588 
L 100.9971 142.714325 
L 102.642973 143.347634 
L 104.947194 144.058326 
L 106.92224 144.81575 
L 109.226461 145.54717 
L 111.530682 146.381205 
L 113.834904 147.158687 
L 116.139125 147.946032 
L 118.114171 148.646221 
L 120.747567 149.563208 
L 126.672707 151.674461 
L 132.597847 153.781253 
L 142.802255 157.371918 
L 164.856942 165.348094 
L 194.482642 177.833962 
L 212.587236 186.473268 
L 216.208155 188.169903 
L 256.696612 205.966474 
L 263.938449 208.774231 
L 275.13038 212.77479 
L 275.788729 212.789194 
L 276.447078 212.557117 
L 277.105427 212.067121 
L 278.422125 210.906541 
L 279.080474 210.602883 
L 281.05552 210.217459 
L 282.043044 209.449996 
L 283.030567 208.686247 
L 283.688916 208.4313 
L 285.334788 208.002322 
L 286.322311 207.284529 
L 287.309835 206.562128 
L 288.297358 206.201231 
L 289.284881 205.930484 
L 290.272405 205.357145 
L 291.589102 204.426347 
L 292.576626 204.026494 
L 293.893324 203.556579 
L 295.210021 202.694814 
L 296.197545 202.112392 
L 298.83094 200.953502 
L 300.476812 199.955328 
L 303.110208 198.753626 
L 305.085255 197.638385 
L 307.060301 196.70771 
L 309.693697 195.244439 
L 311.339569 194.438278 
L 313.972965 192.998422 
L 315.948011 191.990901 
L 318.252232 190.761344 
L 320.556453 189.561305 
L 323.189849 188.207174 
L 329.114989 185.088234 
L 337.673524 180.283727 
L 348.207107 173.679097 
L 365.982526 162.562896 
L 396.59575 142.058632 
L 409.433553 134.236804 
L 409.762727 134.086988 
L 409.762727 134.086988 
" clip-path="url(#p63c6d62398)" style="fill: none; stroke-dasharray: 5.55,2.4; stroke-dashoffset: 0; stroke: #1f77b4; stroke-width: 1.5"/>
   </g>
   <g id="line2d_25">
    <path d="M 73.017273 44.824678 
L 73.346447 45.137694 
L 73.675622 44.994778 
L 74.992319 43.362565 
L 75.321494 43.463571 
L 76.309017 44.372973 
L 76.638192 44.354187 
L 76.967366 44.05993 
L 77.625715 43.1887 
L 77.954889 43.099414 
L 78.284064 43.569358 
L 78.613238 44.725235 
L 79.271587 48.756158 
L 79.929936 53.016379 
L 80.25911 54.267999 
L 80.588285 54.588775 
L 80.917459 53.963502 
L 81.575808 50.877232 
L 81.904983 49.276578 
L 82.234157 48.250769 
L 82.563332 48.126316 
L 82.892506 49.025562 
L 83.550855 53.25858 
L 84.209204 58.126768 
L 84.538378 59.725063 
L 84.867553 60.41119 
L 85.196727 60.161793 
L 85.525902 59.152429 
L 86.513425 55.127315 
L 86.842599 54.677803 
L 87.171774 55.043939 
L 87.500948 56.211286 
L 88.159297 60.148492 
L 88.817646 64.095225 
L 89.14682 65.310891 
L 89.475995 65.794535 
L 89.805169 65.547709 
L 90.134344 64.711258 
L 91.121867 61.448765 
L 91.451042 61.115945 
L 91.780216 61.497861 
L 92.10939 62.606011 
L 92.767739 66.336895 
L 93.426088 70.085982 
L 93.755263 71.204556 
L 94.084437 71.58662 
L 94.413611 71.243312 
L 95.07196 69.158783 
L 95.730309 67.317113 
L 96.059484 67.219511 
L 96.388658 67.850463 
L 96.717833 69.15278 
L 98.03453 76.038881 
L 98.363705 76.78378 
L 98.692879 76.861828 
L 99.022054 76.366465 
L 100.009577 73.807321 
L 100.338751 73.482392 
L 100.667926 73.720218 
L 100.9971 74.537337 
L 101.655449 77.417443 
L 102.313798 80.480866 
L 102.642973 81.522557 
L 102.972147 82.059034 
L 103.301321 82.07868 
L 103.630496 81.671281 
L 104.618019 79.796266 
L 104.947194 79.653785 
L 105.276368 79.990008 
L 105.605543 80.816451 
L 106.263891 83.50755 
L 106.92224 86.259891 
L 107.251415 87.152912 
L 107.580589 87.567637 
L 107.909764 87.507885 
L 108.238938 87.077399 
L 108.897287 85.869196 
L 109.226461 85.522493 
L 109.555636 85.573986 
L 109.88481 86.092168 
L 110.543159 88.305617 
L 111.530682 92.0041 
L 111.859857 92.632685 
L 112.189031 92.833947 
L 112.518206 92.664938 
L 113.505729 91.442149 
L 113.834904 91.365544 
L 114.164078 91.64799 
L 114.493252 92.30091 
L 115.151601 94.403179 
L 115.80995 96.618358 
L 116.139125 97.411152 
L 116.468299 97.88197 
L 116.797474 98.026005 
L 117.126648 97.903536 
L 118.114171 97.169367 
L 118.443346 97.244076 
L 118.77252 97.622292 
L 119.430869 99.230646 
L 120.418392 102.24606 
L 120.747567 102.906158 
L 121.076741 103.26723 
L 121.405916 103.342596 
L 122.064265 102.981075 
L 122.393439 102.802576 
L 122.722614 102.797581 
L 123.051788 103.051548 
L 123.380962 103.59111 
L 124.039311 105.324523 
L 124.69766 107.189188 
L 125.356009 108.318061 
L 125.685184 108.508307 
L 126.343532 108.409207 
L 126.672707 108.328467 
L 127.001881 108.367551 
L 127.331056 108.598296 
L 127.66023 109.047305 
L 128.318579 110.473196 
L 129.306102 112.741819 
L 129.964451 113.535565 
L 130.6228 113.740708 
L 131.281149 113.855407 
L 131.610323 114.054167 
L 132.268672 114.910501 
L 134.243719 118.544042 
L 134.902068 118.931402 
L 135.560417 119.126818 
L 136.218766 119.626764 
L 136.877115 120.655589 
L 138.193812 123.122815 
L 138.852161 123.796218 
L 140.168859 124.548785 
L 140.827208 125.342336 
L 142.802255 128.457026 
L 143.789778 129.263314 
L 144.448127 129.804462 
L 145.106476 130.564946 
L 147.410697 133.771494 
L 149.714918 136.054056 
L 151.689964 138.754879 
L 153.994186 141.101927 
L 155.640058 143.307861 
L 158.602628 146.563205 
L 160.2485 148.530772 
L 163.21107 151.856253 
L 165.515291 154.53095 
L 167.161163 156.355625 
L 169.13621 158.719465 
L 171.111257 160.892533 
L 173.086303 163.197441 
L 175.390524 165.806956 
L 182.632362 173.941971 
L 184.936583 176.524519 
L 188.886676 180.950867 
L 206.662096 200.450499 
L 210.941364 205.077943 
L 216.208155 210.844298 
L 220.816597 215.757587 
L 227.070912 222.463163 
L 231.35018 227.013475 
L 233.983575 229.802634 
L 241.883762 238.175438 
L 243.858808 240.223009 
L 245.833855 242.339328 
L 250.771472 247.418842 
L 255.379914 252.248659 
L 257.025786 253.946387 
L 258.671658 255.65207 
L 260.31753 257.366068 
L 261.963403 259.053779 
L 263.609275 260.77071 
L 265.255147 262.439237 
L 266.901019 264.169968 
L 268.546891 265.81304 
L 270.192764 267.552863 
L 271.838636 269.165449 
L 273.484508 270.91997 
L 275.13038 272.517284 
L 276.776253 274.287382 
L 278.422125 275.855856 
L 280.397171 277.93735 
L 281.713869 279.177436 
L 283.688916 281.289343 
L 285.005614 282.48725 
L 286.98066 284.618249 
L 288.297358 285.791238 
L 290.272405 287.940162 
L 291.589102 289.056256 
L 293.893324 291.515764 
L 294.880847 292.324706 
L 297.185068 294.834643 
L 298.172591 295.563549 
L 299.160115 296.812514 
L 299.818464 297.635386 
L 300.476812 298.141673 
L 301.464336 298.757632 
L 302.122685 299.581282 
L 303.110208 301.017792 
L 303.768557 301.458397 
L 304.426906 301.630736 
L 304.75608 301.838953 
L 305.085255 302.230166 
L 306.401952 304.553648 
L 306.731127 304.55042 
L 307.060301 304.012491 
L 307.389476 302.923276 
L 308.376999 297.784 
L 309.035348 295.027608 
L 309.364522 294.292514 
L 309.693697 293.941824 
L 310.68122 293.57356 
L 311.010395 293.197397 
L 312.327092 291.027884 
L 312.985441 290.765879 
L 313.314616 290.642776 
L 313.64379 290.218608 
L 313.972965 289.263632 
L 314.302139 287.643536 
L 314.960488 282.673806 
L 315.618837 277.379359 
L 315.948011 275.58697 
L 316.277186 274.733731 
L 316.60636 274.850877 
L 316.935535 275.736832 
L 317.593883 278.13002 
L 317.923058 278.657423 
L 318.252232 278.232949 
L 318.581407 276.733496 
L 319.239756 271.251818 
L 319.898105 265.365405 
L 320.227279 263.424866 
L 320.556453 262.496446 
L 320.885628 262.552443 
L 321.214802 263.342886 
L 321.873151 265.444582 
L 322.202326 265.878074 
L 322.5315 265.486954 
L 322.860674 264.188365 
L 323.519023 259.497806 
L 324.177372 254.266127 
L 324.506547 252.334088 
L 324.835721 251.148011 
L 325.164896 250.733656 
L 325.49407 250.9606 
L 326.481593 252.678432 
L 326.810768 252.577029 
L 327.139942 251.797158 
L 327.469117 250.322331 
L 328.45664 243.496075 
L 329.114989 239.804016 
L 329.444163 238.907146 
L 329.773338 238.684481 
L 330.102512 238.984959 
L 330.760861 240.032352 
L 331.090036 240.145313 
L 331.41921 239.65586 
L 331.748384 238.47574 
L 332.406733 234.465467 
L 333.065082 230.061905 
L 333.394257 228.462676 
L 333.723431 227.504796 
L 334.052606 227.185046 
L 334.38178 227.350753 
L 335.040129 228.045639 
L 335.369303 227.992329 
L 335.698478 227.398527 
L 336.027652 226.217158 
L 336.686001 222.573155 
L 337.34435 218.802673 
L 337.673524 217.442842 
L 338.002699 216.578892 
L 338.331873 216.175406 
L 338.661048 216.094828 
L 339.319397 216.083479 
L 339.648571 215.758202 
L 339.977745 215.053156 
L 340.636094 212.52599 
L 341.952792 206.549035 
L 342.611141 205.044159 
L 343.26949 204.442476 
L 343.598664 204.175232 
L 343.927839 203.753203 
L 344.257013 203.082851 
L 344.915362 200.907506 
L 346.23206 195.455156 
L 346.890409 193.831886 
L 347.548758 193.031962 
L 348.207107 192.195972 
L 348.865455 190.527624 
L 350.840502 183.478424 
L 351.498851 182.351971 
L 352.1572 181.396892 
L 352.815549 179.910345 
L 353.803072 176.563232 
L 354.790595 173.386704 
L 355.778119 171.279931 
L 356.765642 169.175787 
L 357.753165 166.361721 
L 359.399038 161.565797 
L 362.361608 154.266911 
L 363.678305 150.421003 
L 364.995003 147.523339 
L 365.982526 145.070908 
L 367.957573 139.514019 
L 369.93262 134.851704 
L 372.236841 128.745664 
L 375.85776 119.587869 
L 377.832806 114.453524 
L 379.478679 110.470241 
L 381.453725 105.210517 
L 383.099597 101.286977 
L 385.074644 96.128509 
L 386.720516 92.026428 
L 388.366389 87.906293 
L 389.683086 84.63233 
L 391.328958 80.326435 
L 392.974831 76.476758 
L 394.949877 71.25825 
L 396.266575 68.244626 
L 398.570796 62.33361 
L 399.55832 60.015427 
L 401.533366 54.818471 
L 402.850064 51.91439 
L 404.825111 46.459897 
L 405.812634 44.703739 
L 406.470983 42.878329 
L 407.458506 39.507412 
L 407.787681 38.862659 
L 408.116855 38.74 
L 408.44603 39.194415 
L 409.104378 41.45636 
L 409.762727 44.023496 
L 409.762727 44.023496 
" clip-path="url(#p63c6d62398)" style="fill: none; stroke: #000000; stroke-opacity: 0.6; stroke-width: 1.5; stroke-linecap: square"/>
   </g>
   <g id="line2d_26">
    <path d="M 73.017273 46.909854 
L 73.346447 46.721532 
L 73.675622 46.692886 
L 74.004796 46.812326 
L 74.663145 47.394237 
L 75.650668 48.70178 
L 77.954889 51.865589 
L 78.613238 52.332602 
L 80.25911 52.946202 
L 80.917459 53.714863 
L 82.892506 56.75249 
L 83.550855 57.070769 
L 84.538378 57.377763 
L 85.196727 57.996488 
L 86.18425 59.595809 
L 87.171774 61.055055 
L 87.830123 61.554932 
L 89.14682 62.170567 
L 89.805169 62.87486 
L 92.10939 66.167146 
L 93.096914 66.662823 
L 93.755263 67.061565 
L 94.413611 67.801071 
L 96.388658 70.720505 
L 97.047007 71.187241 
L 98.03453 71.71149 
L 98.692879 72.342516 
L 99.680403 73.805804 
L 100.667926 75.207675 
L 101.326275 75.801573 
L 102.642973 76.825079 
L 103.301321 77.681528 
L 105.605543 81.320638 
L 107.580589 83.175508 
L 108.568113 84.77765 
L 109.555636 86.385593 
L 110.213985 87.152154 
L 111.859857 88.689106 
L 112.84738 90.154576 
L 114.164078 92.196436 
L 115.151601 93.231523 
L 116.139125 94.176916 
L 117.126648 95.620724 
L 118.77252 98.262869 
L 120.089218 99.708259 
L 121.076741 100.916091 
L 124.039311 105.2164 
L 125.356009 106.769802 
L 128.976928 111.838438 
L 130.293626 113.618923 
L 131.939498 115.969479 
L 140.168859 126.25333 
L 142.143906 128.645648 
L 144.118952 131.174038 
L 148.069046 136.480599 
L 151.031616 140.680799 
L 162.552721 156.688319 
L 189.8742 190.055049 
L 193.495119 194.344535 
L 203.699526 205.4049 
L 210.941364 212.770732 
L 227.070912 228.538911 
L 228.38761 229.705434 
L 238.921192 238.48912 
L 243.529634 242.052845 
L 245.175506 243.400318 
L 253.404867 250.44234 
L 269.863589 267.207659 
L 276.117904 274.185599 
L 280.726346 279.040301 
L 287.639009 286.36339 
L 295.86837 294.705194 
L 305.743603 302.939601 
L 307.389476 304.065537 
L 308.376999 304.690792 
L 308.706173 304.74 
L 309.035348 304.652785 
L 309.364522 304.414608 
L 310.022871 303.498555 
L 311.010395 301.334739 
L 313.972965 293.985667 
L 314.960488 292.448522 
L 315.618837 291.487312 
L 316.277186 290.147802 
L 317.264709 287.348455 
L 318.252232 284.56609 
L 318.910581 283.258779 
L 320.227279 281.188865 
L 320.885628 279.675314 
L 321.873151 276.640685 
L 322.860674 273.621761 
L 323.848198 271.542006 
L 324.506547 270.140829 
L 325.164896 268.33821 
L 327.469117 261.027534 
L 329.114989 257.207021 
L 330.102512 253.929479 
L 331.41921 249.248142 
L 332.406733 246.613706 
L 333.394257 244.139667 
L 334.38178 240.934901 
L 335.698478 236.567061 
L 336.686001 234.045202 
L 338.002699 230.750557 
L 343.26949 214.991808 
L 344.915362 209.558122 
L 347.219583 202.432174 
L 348.536281 198.110464 
L 363.349131 156.982516 
L 373.882713 130.510073 
L 382.770423 108.901179 
L 390.67061 91.265361 
L 396.924924 77.903842 
L 408.44603 56.173945 
L 409.433553 54.332478 
L 409.762727 53.866982 
L 409.762727 53.866982 
" clip-path="url(#p63c6d62398)" style="fill: none; stroke-dasharray: 5.55,2.4; stroke-dashoffset: 0; stroke: #ff7f0e; stroke-width: 1.5"/>
   </g>
   <g id="patch_3">
    <path d="M 56.18 318.04 
L 56.18 25.44 
" style="fill: none; stroke: #000000; stroke-width: 0.8; stroke-linejoin: miter; stroke-linecap: square"/>
   </g>
   <g id="patch_4">
    <path d="M 426.6 318.04 
L 426.6 25.44 
" style="fill: none; stroke: #000000; stroke-width: 0.8; stroke-linejoin: miter; stroke-linecap: square"/>
   </g>
   <g id="patch_5">
    <path d="M 56.18 318.04 
L 426.6 318.04 
" style="fill: none; stroke: #000000; stroke-width: 0.8; stroke-linejoin: miter; stroke-linecap: square"/>
   </g>
   <g id="patch_6">
    <path d="M 56.18 25.44 
L 426.6 25.44 
" style="fill: none; stroke: #000000; stroke-width: 0.8; stroke-linejoin: miter; stroke-linecap: square"/>
   </g>
   <g id="text_14">
    <!-- H Waveform (Ep 984) -->
    <g transform="translate(176.963125 19.44) scale(0.12 -0.12)">
     <defs>
      <path id="DejaVuSans-57" d="M 213 4666 
L 850 4666 
L 1831 722 
L 2809 4666 
L 3519 4666 
L 4500 722 
L 5478 4666 
L 6119 4666 
L 4947 0 
L 4153 0 
L 3169 4050 
L 2175 0 
L 1381 0 
L 213 4666 
z
" transform="scale(0.015625)"/>
      <path id="DejaVuSans-76" d="M 191 3500 
L 800 3500 
L 1894 563 
L 2988 3500 
L 3597 3500 
L 2284 0 
L 1503 0 
L 191 3500 
z
" transform="scale(0.015625)"/>
      <path id="DejaVuSans-66" d="M 2375 4863 
L 2375 4384 
L 1825 4384 
Q 1516 4384 1395 4259 
Q 1275 4134 1275 3809 
L 1275 3500 
L 2222 3500 
L 2222 3053 
L 1275 3053 
L 1275 0 
L 697 0 
L 697 3053 
L 147 3053 
L 147 3500 
L 697 3500 
L 697 3744 
Q 697 4328 969 4595 
Q 1241 4863 1831 4863 
L 2375 4863 
z
" transform="scale(0.015625)"/>
      <path id="DejaVuSans-45" d="M 628 4666 
L 3578 4666 
L 3578 4134 
L 1259 4134 
L 1259 2753 
L 3481 2753 
L 3481 2222 
L 1259 2222 
L 1259 531 
L 3634 531 
L 3634 0 
L 628 0 
L 628 4666 
z
" transform="scale(0.015625)"/>
      <path id="DejaVuSans-39" d="M 703 97 
L 703 672 
Q 941 559 1184 500 
Q 1428 441 1663 441 
Q 2288 441 2617 861 
Q 2947 1281 2994 2138 
Q 2813 1869 2534 1725 
Q 2256 1581 1919 1581 
Q 1219 1581 811 2004 
Q 403 2428 403 3163 
Q 403 3881 828 4315 
Q 1253 4750 1959 4750 
Q 2769 4750 3195 4129 
Q 3622 3509 3622 2328 
Q 3622 1225 3098 567 
Q 2575 -91 1691 -91 
Q 1453 -91 1209 -44 
Q 966 3 703 97 
z
M 1959 2075 
Q 2384 2075 2632 2365 
Q 2881 2656 2881 3163 
Q 2881 3666 2632 3958 
Q 2384 4250 1959 4250 
Q 1534 4250 1286 3958 
Q 1038 3666 1038 3163 
Q 1038 2656 1286 2365 
Q 1534 2075 1959 2075 
z
" transform="scale(0.015625)"/>
     </defs>
     <use xlink:href="#DejaVuSans-48"/>
     <use xlink:href="#DejaVuSans-20" transform="translate(75.195312 0)"/>
     <use xlink:href="#DejaVuSans-57" transform="translate(106.982422 0)"/>
     <use xlink:href="#DejaVuSans-61" transform="translate(199.484375 0)"/>
     <use xlink:href="#DejaVuSans-76" transform="translate(260.763672 0)"/>
     <use xlink:href="#DejaVuSans-65" transform="translate(319.943359 0)"/>
     <use xlink:href="#DejaVuSans-66" transform="translate(381.466797 0)"/>
     <use xlink:href="#DejaVuSans-6f" transform="translate(416.671875 0)"/>
     <use xlink:href="#DejaVuSans-72" transform="translate(477.853516 0)"/>
     <use xlink:href="#DejaVuSans-6d" transform="translate(517.216797 0)"/>
     <use xlink:href="#DejaVuSans-20" transform="translate(614.628906 0)"/>
     <use xlink:href="#DejaVuSans-28" transform="translate(646.416016 0)"/>
     <use xlink:href="#DejaVuSans-45" transform="translate(685.429688 0)"/>
     <use xlink:href="#DejaVuSans-70" transform="translate(748.613281 0)"/>
     <use xlink:href="#DejaVuSans-20" transform="translate(812.089844 0)"/>
     <use xlink:href="#DejaVuSans-39" transform="translate(843.876953 0)"/>
     <use xlink:href="#DejaVuSans-38" transform="translate(907.5 0)"/>
     <use xlink:href="#DejaVuSans-34" transform="translate(971.123047 0)"/>
     <use xlink:href="#DejaVuSans-29" transform="translate(1034.746094 0)"/>
    </g>
   </g>
   <g id="legend_1">
    <g id="patch_7">
     <path d="M 63.18 313.04 
L 126.12375 313.04 
Q 128.12375 313.04 128.12375 311.04 
L 128.12375 282.68375 
Q 128.12375 280.68375 126.12375 280.68375 
L 63.18 280.68375 
Q 61.18 280.68375 61.18 282.68375 
L 61.18 311.04 
Q 61.18 313.04 63.18 313.04 
z
" style="fill: #ffffff; opacity: 0.8; stroke: #cccccc; stroke-linejoin: miter"/>
    </g>
    <g id="line2d_27">
     <path d="M 65.18 288.782188 
L 75.18 288.782188 
L 85.18 288.782188 
" style="fill: none; stroke: #000000; stroke-opacity: 0.6; stroke-width: 1.5; stroke-linecap: square"/>
    </g>
    <g id="text_15">
     <!-- Target -->
     <g transform="translate(93.18 292.282188) scale(0.1 -0.1)">
      <defs>
       <path id="DejaVuSans-67" d="M 2906 1791 
Q 2906 2416 2648 2759 
Q 2391 3103 1925 3103 
Q 1463 3103 1205 2759 
Q 947 2416 947 1791 
Q 947 1169 1205 825 
Q 1463 481 1925 481 
Q 2391 481 2648 825 
Q 2906 1169 2906 1791 
z
M 3481 434 
Q 3481 -459 3084 -895 
Q 2688 -1331 1869 -1331 
Q 1566 -1331 1297 -1286 
Q 1028 -1241 775 -1147 
L 775 -588 
Q 1028 -725 1275 -790 
Q 1522 -856 1778 -856 
Q 2344 -856 2625 -561 
Q 2906 -266 2906 331 
L 2906 616 
Q 2728 306 2450 153 
Q 2172 0 1784 0 
Q 1141 0 747 490 
Q 353 981 353 1791 
Q 353 2603 747 3093 
Q 1141 3584 1784 3584 
Q 2172 3584 2450 3431 
Q 2728 3278 2906 2969 
L 2906 3500 
L 3481 3500 
L 3481 434 
z
" transform="scale(0.015625)"/>
      </defs>
      <use xlink:href="#DejaVuSans-54"/>
      <use xlink:href="#DejaVuSans-61" transform="translate(44.583984 0)"/>
      <use xlink:href="#DejaVuSans-72" transform="translate(105.863281 0)"/>
      <use xlink:href="#DejaVuSans-67" transform="translate(145.226562 0)"/>
      <use xlink:href="#DejaVuSans-65" transform="translate(208.703125 0)"/>
      <use xlink:href="#DejaVuSans-74" transform="translate(270.226562 0)"/>
     </g>
    </g>
    <g id="line2d_28">
     <path d="M 65.18 303.460313 
L 75.18 303.460313 
L 85.18 303.460313 
" style="fill: none; stroke-dasharray: 5.55,2.4; stroke-dashoffset: 0; stroke: #1f77b4; stroke-width: 1.5"/>
    </g>
    <g id="text_16">
     <!-- Pred -->
     <g transform="translate(93.18 306.960313) scale(0.1 -0.1)">
      <defs>
       <path id="DejaVuSans-50" d="M 1259 4147 
L 1259 2394 
L 2053 2394 
Q 2494 2394 2734 2622 
Q 2975 2850 2975 3272 
Q 2975 3691 2734 3919 
Q 2494 4147 2053 4147 
L 1259 4147 
z
M 628 4666 
L 2053 4666 
Q 2838 4666 3239 4311 
Q 3641 3956 3641 3272 
Q 3641 2581 3239 2228 
Q 2838 1875 2053 1875 
L 1259 1875 
L 1259 0 
L 628 0 
L 628 4666 
z
" transform="scale(0.015625)"/>
      </defs>
      <use xlink:href="#DejaVuSans-50"/>
      <use xlink:href="#DejaVuSans-72" transform="translate(58.552734 0)"/>
      <use xlink:href="#DejaVuSans-65" transform="translate(97.416016 0)"/>
      <use xlink:href="#DejaVuSans-64" transform="translate(158.939453 0)"/>
     </g>
    </g>
   </g>
  </g>
  <g id="axes_2">
   <g id="patch_8">
    <path d="M 482.78 318.04 
L 853.2 318.04 
L 853.2 25.44 
L 482.78 25.44 
z
" style="fill: #ffffff"/>
   </g>
   <g id="matplotlib.axis_3">
    <g id="xtick_7">
     <g id="line2d_29">
      <path d="M 506.658724 318.04 
L 506.658724 25.44 
" clip-path="url(#p7c167b40d4)" style="fill: none; stroke: #b0b0b0; stroke-opacity: 0.3; stroke-width: 0.8; stroke-linecap: square"/>
     </g>
     <g id="line2d_30">
      <g>
       <use xlink:href="#mddeea6c312" x="506.658724" y="318.04" style="stroke: #000000; stroke-width: 0.8"/>
      </g>
     </g>
     <g id="text_17">
      <!-- −0.4 -->
      <g transform="translate(494.517317 332.638438) scale(0.1 -0.1)">
       <use xlink:href="#DejaVuSans-2212"/>
       <use xlink:href="#DejaVuSans-30" transform="translate(83.789062 0)"/>
       <use xlink:href="#DejaVuSans-2e" transform="translate(147.412109 0)"/>
       <use xlink:href="#DejaVuSans-34" transform="translate(179.199219 0)"/>
      </g>
     </g>
    </g>
    <g id="xtick_8">
     <g id="line2d_31">
      <path d="M 585.240755 318.04 
L 585.240755 25.44 
" clip-path="url(#p7c167b40d4)" style="fill: none; stroke: #b0b0b0; stroke-opacity: 0.3; stroke-width: 0.8; stroke-linecap: square"/>
     </g>
     <g id="line2d_32">
      <g>
       <use xlink:href="#mddeea6c312" x="585.240755" y="318.04" style="stroke: #000000; stroke-width: 0.8"/>
      </g>
     </g>
     <g id="text_18">
      <!-- −0.2 -->
      <g transform="translate(573.099349 332.638438) scale(0.1 -0.1)">
       <use xlink:href="#DejaVuSans-2212"/>
       <use xlink:href="#DejaVuSans-30" transform="translate(83.789062 0)"/>
       <use xlink:href="#DejaVuSans-2e" transform="translate(147.412109 0)"/>
       <use xlink:href="#DejaVuSans-32" transform="translate(179.199219 0)"/>
      </g>
     </g>
    </g>
    <g id="xtick_9">
     <g id="line2d_33">
      <path d="M 663.822787 318.04 
L 663.822787 25.44 
" clip-path="url(#p7c167b40d4)" style="fill: none; stroke: #b0b0b0; stroke-opacity: 0.3; stroke-width: 0.8; stroke-linecap: square"/>
     </g>
     <g id="line2d_34">
      <g>
       <use xlink:href="#mddeea6c312" x="663.822787" y="318.04" style="stroke: #000000; stroke-width: 0.8"/>
      </g>
     </g>
     <g id="text_19">
      <!-- 0.0 -->
      <g transform="translate(655.871224 332.638438) scale(0.1 -0.1)">
       <use xlink:href="#DejaVuSans-30"/>
       <use xlink:href="#DejaVuSans-2e" transform="translate(63.623047 0)"/>
       <use xlink:href="#DejaVuSans-30" transform="translate(95.410156 0)"/>
      </g>
     </g>
    </g>
    <g id="xtick_10">
     <g id="line2d_35">
      <path d="M 742.404818 318.04 
L 742.404818 25.44 
" clip-path="url(#p7c167b40d4)" style="fill: none; stroke: #b0b0b0; stroke-opacity: 0.3; stroke-width: 0.8; stroke-linecap: square"/>
     </g>
     <g id="line2d_36">
      <g>
       <use xlink:href="#mddeea6c312" x="742.404818" y="318.04" style="stroke: #000000; stroke-width: 0.8"/>
      </g>
     </g>
     <g id="text_20">
      <!-- 0.2 -->
      <g transform="translate(734.453256 332.638438) scale(0.1 -0.1)">
       <use xlink:href="#DejaVuSans-30"/>
       <use xlink:href="#DejaVuSans-2e" transform="translate(63.623047 0)"/>
       <use xlink:href="#DejaVuSans-32" transform="translate(95.410156 0)"/>
      </g>
     </g>
    </g>
    <g id="xtick_11">
     <g id="line2d_37">
      <path d="M 820.98685 318.04 
L 820.98685 25.44 
" clip-path="url(#p7c167b40d4)" style="fill: none; stroke: #b0b0b0; stroke-opacity: 0.3; stroke-width: 0.8; stroke-linecap: square"/>
     </g>
     <g id="line2d_38">
      <g>
       <use xlink:href="#mddeea6c312" x="820.98685" y="318.04" style="stroke: #000000; stroke-width: 0.8"/>
      </g>
     </g>
     <g id="text_21">
      <!-- 0.4 -->
      <g transform="translate(813.035287 332.638438) scale(0.1 -0.1)">
       <use xlink:href="#DejaVuSans-30"/>
       <use xlink:href="#DejaVuSans-2e" transform="translate(63.623047 0)"/>
       <use xlink:href="#DejaVuSans-34" transform="translate(95.410156 0)"/>
      </g>
     </g>
    </g>
    <g id="text_22">
     <!-- H (Normalized) -->
     <g transform="translate(630.38375 346.316563) scale(0.1 -0.1)">
      <use xlink:href="#DejaVuSans-48"/>
      <use xlink:href="#DejaVuSans-20" transform="translate(75.195312 0)"/>
      <use xlink:href="#DejaVuSans-28" transform="translate(106.982422 0)"/>
      <use xlink:href="#DejaVuSans-4e" transform="translate(145.996094 0)"/>
      <use xlink:href="#DejaVuSans-6f" transform="translate(220.800781 0)"/>
      <use xlink:href="#DejaVuSans-72" transform="translate(281.982422 0)"/>
      <use xlink:href="#DejaVuSans-6d" transform="translate(321.345703 0)"/>
      <use xlink:href="#DejaVuSans-61" transform="translate(418.757812 0)"/>
      <use xlink:href="#DejaVuSans-6c" transform="translate(480.037109 0)"/>
      <use xlink:href="#DejaVuSans-69" transform="translate(507.820312 0)"/>
      <use xlink:href="#DejaVuSans-7a" transform="translate(535.603516 0)"/>
      <use xlink:href="#DejaVuSans-65" transform="translate(588.09375 0)"/>
      <use xlink:href="#DejaVuSans-64" transform="translate(649.617188 0)"/>
      <use xlink:href="#DejaVuSans-29" transform="translate(713.09375 0)"/>
     </g>
    </g>
   </g>
   <g id="matplotlib.axis_4">
    <g id="ytick_6">
     <g id="line2d_39">
      <path d="M 482.78 282.404462 
L 853.2 282.404462 
" clip-path="url(#p7c167b40d4)" style="fill: none; stroke: #b0b0b0; stroke-opacity: 0.3; stroke-width: 0.8; stroke-linecap: square"/>
     </g>
     <g id="line2d_40">
      <g>
       <use xlink:href="#m2ddef7a50f" x="482.78" y="282.404462" style="stroke: #000000; stroke-width: 0.8"/>
      </g>
     </g>
     <g id="text_23">
      <!-- −0.4 -->
      <g transform="translate(451.497188 286.203681) scale(0.1 -0.1)">
       <use xlink:href="#DejaVuSans-2212"/>
       <use xlink:href="#DejaVuSans-30" transform="translate(83.789062 0)"/>
       <use xlink:href="#DejaVuSans-2e" transform="translate(147.412109 0)"/>
       <use xlink:href="#DejaVuSans-34" transform="translate(179.199219 0)"/>
      </g>
     </g>
    </g>
    <g id="ytick_7">
     <g id="line2d_41">
      <path d="M 482.78 228.659061 
L 853.2 228.659061 
" clip-path="url(#p7c167b40d4)" style="fill: none; stroke: #b0b0b0; stroke-opacity: 0.3; stroke-width: 0.8; stroke-linecap: square"/>
     </g>
     <g id="line2d_42">
      <g>
       <use xlink:href="#m2ddef7a50f" x="482.78" y="228.659061" style="stroke: #000000; stroke-width: 0.8"/>
      </g>
     </g>
     <g id="text_24">
      <!-- −0.2 -->
      <g transform="translate(451.497188 232.458279) scale(0.1 -0.1)">
       <use xlink:href="#DejaVuSans-2212"/>
       <use xlink:href="#DejaVuSans-30" transform="translate(83.789062 0)"/>
       <use xlink:href="#DejaVuSans-2e" transform="translate(147.412109 0)"/>
       <use xlink:href="#DejaVuSans-32" transform="translate(179.199219 0)"/>
      </g>
     </g>
    </g>
    <g id="ytick_8">
     <g id="line2d_43">
      <path d="M 482.78 174.913659 
L 853.2 174.913659 
" clip-path="url(#p7c167b40d4)" style="fill: none; stroke: #b0b0b0; stroke-opacity: 0.3; stroke-width: 0.8; stroke-linecap: square"/>
     </g>
     <g id="line2d_44">
      <g>
       <use xlink:href="#m2ddef7a50f" x="482.78" y="174.913659" style="stroke: #000000; stroke-width: 0.8"/>
      </g>
     </g>
     <g id="text_25">
      <!-- 0.0 -->
      <g transform="translate(459.876875 178.712878) scale(0.1 -0.1)">
       <use xlink:href="#DejaVuSans-30"/>
       <use xlink:href="#DejaVuSans-2e" transform="translate(63.623047 0)"/>
       <use xlink:href="#DejaVuSans-30" transform="translate(95.410156 0)"/>
      </g>
     </g>
    </g>
    <g id="ytick_9">
     <g id="line2d_45">
      <path d="M 482.78 121.168258 
L 853.2 121.168258 
" clip-path="url(#p7c167b40d4)" style="fill: none; stroke: #b0b0b0; stroke-opacity: 0.3; stroke-width: 0.8; stroke-linecap: square"/>
     </g>
     <g id="line2d_46">
      <g>
       <use xlink:href="#m2ddef7a50f" x="482.78" y="121.168258" style="stroke: #000000; stroke-width: 0.8"/>
      </g>
     </g>
     <g id="text_26">
      <!-- 0.2 -->
      <g transform="translate(459.876875 124.967477) scale(0.1 -0.1)">
       <use xlink:href="#DejaVuSans-30"/>
       <use xlink:href="#DejaVuSans-2e" transform="translate(63.623047 0)"/>
       <use xlink:href="#DejaVuSans-32" transform="translate(95.410156 0)"/>
      </g>
     </g>
    </g>
    <g id="ytick_10">
     <g id="line2d_47">
      <path d="M 482.78 67.422857 
L 853.2 67.422857 
" clip-path="url(#p7c167b40d4)" style="fill: none; stroke: #b0b0b0; stroke-opacity: 0.3; stroke-width: 0.8; stroke-linecap: square"/>
     </g>
     <g id="line2d_48">
      <g>
       <use xlink:href="#m2ddef7a50f" x="482.78" y="67.422857" style="stroke: #000000; stroke-width: 0.8"/>
      </g>
     </g>
     <g id="text_27">
      <!-- 0.4 -->
      <g transform="translate(459.876875 71.222075) scale(0.1 -0.1)">
       <use xlink:href="#DejaVuSans-30"/>
       <use xlink:href="#DejaVuSans-2e" transform="translate(63.623047 0)"/>
       <use xlink:href="#DejaVuSans-34" transform="translate(95.410156 0)"/>
      </g>
     </g>
    </g>
    <g id="text_28">
     <!-- B (Normalized) -->
     <g transform="translate(445.4175 209.016563) rotate(-90) scale(0.1 -0.1)">
      <defs>
       <path id="DejaVuSans-42" d="M 1259 2228 
L 1259 519 
L 2272 519 
Q 2781 519 3026 730 
Q 3272 941 3272 1375 
Q 3272 1813 3026 2020 
Q 2781 2228 2272 2228 
L 1259 2228 
z
M 1259 4147 
L 1259 2741 
L 2194 2741 
Q 2656 2741 2882 2914 
Q 3109 3088 3109 3444 
Q 3109 3797 2882 3972 
Q 2656 4147 2194 4147 
L 1259 4147 
z
M 628 4666 
L 2241 4666 
Q 2963 4666 3353 4366 
Q 3744 4066 3744 3513 
Q 3744 3084 3544 2831 
Q 3344 2578 2956 2516 
Q 3422 2416 3680 2098 
Q 3938 1781 3938 1306 
Q 3938 681 3513 340 
Q 3088 0 2303 0 
L 628 0 
L 628 4666 
z
" transform="scale(0.015625)"/>
      </defs>
      <use xlink:href="#DejaVuSans-42"/>
      <use xlink:href="#DejaVuSans-20" transform="translate(68.603516 0)"/>
      <use xlink:href="#DejaVuSans-28" transform="translate(100.390625 0)"/>
      <use xlink:href="#DejaVuSans-4e" transform="translate(139.404297 0)"/>
      <use xlink:href="#DejaVuSans-6f" transform="translate(214.208984 0)"/>
      <use xlink:href="#DejaVuSans-72" transform="translate(275.390625 0)"/>
      <use xlink:href="#DejaVuSans-6d" transform="translate(314.753906 0)"/>
      <use xlink:href="#DejaVuSans-61" transform="translate(412.166016 0)"/>
      <use xlink:href="#DejaVuSans-6c" transform="translate(473.445312 0)"/>
      <use xlink:href="#DejaVuSans-69" transform="translate(501.228516 0)"/>
      <use xlink:href="#DejaVuSans-7a" transform="translate(529.011719 0)"/>
      <use xlink:href="#DejaVuSans-65" transform="translate(581.501953 0)"/>
      <use xlink:href="#DejaVuSans-64" transform="translate(643.025391 0)"/>
      <use xlink:href="#DejaVuSans-29" transform="translate(706.501953 0)"/>
     </g>
    </g>
   </g>
   <g id="line2d_49">
    <path d="M 702.124951 134.886048 
L 700.059778 134.941656 
L 699.543632 135.085336 
L 700.972231 135.311305 
L 709.372047 135.925556 
L 726.899752 136.884744 
L 726.161863 136.933585 
L 700.677016 136.842178 
L 698.799256 136.977529 
L 699.764195 137.191601 
L 708.51585 137.761608 
L 722.396583 138.559109 
L 715.730464 138.587288 
L 700.899371 138.651045 
L 698.986265 138.781026 
L 699.518398 138.97492 
L 706.468944 139.480897 
L 717.556968 140.125617 
L 717.90595 140.234591 
L 712.67604 140.318386 
L 700.769634 140.452139 
L 699.106617 140.579665 
L 699.335408 140.756929 
L 701.289231 140.972283 
L 713.408004 141.920868 
L 709.564667 142.050577 
L 700.213165 142.239432 
L 698.775366 142.364964 
L 698.79889 142.529491 
L 700.187032 142.724562 
L 709.494597 143.612151 
L 708.488856 143.702707 
L 697.788726 144.137117 
L 697.826007 144.296071 
L 700.816068 144.672536 
L 705.88896 145.189004 
L 706.000922 145.311459 
L 703.363816 145.492693 
L 697.47208 145.768823 
L 696.634932 145.900178 
L 696.705793 146.054737 
L 699.008584 146.406365 
L 702.645757 146.89209 
L 702.634147 147.016132 
L 700.505186 147.217277 
L 696.010554 147.52479 
L 695.365485 147.656938 
L 695.390081 147.806364 
L 697.023142 148.136854 
L 699.595763 148.601042 
L 699.54588 148.727237 
L 697.867705 148.943992 
L 694.343591 149.273213 
L 693.812942 149.405579 
L 693.796206 149.551181 
L 694.988162 149.866405 
L 696.855837 150.313336 
L 696.761194 150.439979 
L 695.338845 150.666206 
L 692.502482 151.011541 
L 692.088453 151.144563 
L 692.078631 151.287593 
L 692.978127 151.590549 
L 694.038098 151.885519 
L 694.220757 152.020984 
L 694.056558 152.147197 
L 692.820879 152.38042 
L 690.610621 152.738467 
L 690.30163 152.871497 
L 690.289229 153.011713 
L 690.89587 153.303486 
L 691.547008 153.588134 
L 691.604505 153.721519 
L 691.410556 153.848229 
L 690.387514 154.088147 
L 688.648247 154.454999 
L 688.3264 154.725102 
L 688.675041 155.009046 
L 689.062481 155.287997 
L 689.061644 155.420879 
L 688.509853 155.67268 
L 686.318583 156.301713 
L 686.243411 156.438685 
L 686.454594 156.719071 
L 686.686334 156.994909 
L 686.641448 157.127464 
L 686.112462 157.381756 
L 684.290348 158.020479 
L 684.262333 158.294933 
L 684.420862 158.704989 
L 684.110868 158.965456 
L 682.298139 159.735615 
L 682.187707 160.005766 
L 682.114617 160.409153 
L 681.784495 160.66928 
L 680.072447 161.57494 
L 679.499216 162.370116 
L 677.807787 163.412914 
L 677.443004 163.943398 
L 676.489698 164.459539 
L 675.87903 164.852486 
L 674.998317 165.775553 
L 673.642979 166.688077 
L 672.970264 167.344871 
L 670.928174 168.910256 
L 669.98113 169.557711 
L 669.160827 170.209811 
L 668.392355 170.85987 
L 667.135477 171.766773 
L 666.158645 172.544135 
L 664.79777 173.58038 
L 659.641305 177.5979 
L 658.340127 178.633341 
L 651.02457 184.307723 
L 647.07267 187.38858 
L 644.269264 189.561438 
L 641.952604 191.34819 
L 637.726536 194.664269 
L 635.118446 196.702226 
L 633.179872 198.226939 
L 624.046959 205.307502 
L 621.834389 207.068443 
L 621.199299 207.569483 
L 620.330994 208.196993 
L 619.796403 208.699442 
L 618.37382 209.703428 
L 617.886216 210.077466 
L 616.969644 210.704218 
L 616.515647 211.207019 
L 615.355658 211.956584 
L 615.122795 212.335491 
L 614.4512 212.704756 
L 613.859196 213.081212 
L 613.592556 213.586376 
L 612.758367 213.952726 
L 612.872466 214.078274 
L 613.57628 214.204479 
L 617.361627 214.429559 
L 623.534906 214.522852 
L 628.366213 214.346429 
L 628.747271 214.130983 
L 627.227504 213.836151 
L 623.812286 213.481114 
L 613.337181 212.714711 
L 602.640347 211.913345 
L 603.707979 211.806922 
L 612.871682 211.755302 
L 625.095519 211.683768 
L 629.292446 211.556927 
L 630.961868 211.34758 
L 629.80906 211.061113 
L 626.166708 210.719498 
L 608.060251 209.482208 
L 608.087968 209.328977 
L 615.450817 209.185306 
L 626.542839 209.055144 
L 630.526454 208.919269 
L 632.278587 208.71536 
L 631.524911 208.446834 
L 628.567616 208.131554 
L 613.411578 206.966572 
L 613.408844 206.801664 
L 615.578838 206.68802 
L 631.834669 206.276594 
L 633.40015 206.076793 
L 632.982758 205.825537 
L 630.808053 205.536367 
L 618.969061 204.440314 
L 618.861485 204.26398 
L 620.463082 204.128976 
L 633.409913 203.640654 
L 634.826041 203.444794 
L 634.680576 203.20776 
L 633.114877 202.939595 
L 623.880969 201.904172 
L 623.799836 201.722273 
L 625.107621 201.573684 
L 635.725394 201.021268 
L 636.882075 200.823654 
L 636.75874 200.593204 
L 635.484343 200.338385 
L 628.303315 199.358402 
L 628.388432 199.17584 
L 629.582464 199.018986 
L 638.183141 198.412554 
L 639.038887 198.212639 
L 638.893158 197.987681 
L 637.880705 197.744821 
L 632.699323 196.813069 
L 632.902734 196.628512 
L 635.570783 196.308451 
L 640.640789 195.812097 
L 641.314359 195.612542 
L 641.24662 195.394247 
L 640.542227 195.162592 
L 637.342132 194.471278 
L 636.917745 194.2664 
L 637.128223 194.079096 
L 639.259022 193.742319 
L 643.317698 193.22546 
L 643.898864 193.026819 
L 643.90326 192.813565 
L 643.406498 192.589917 
L 641.050955 191.923065 
L 640.78267 191.721443 
L 641.026299 191.533791 
L 642.878427 191.187699 
L 646.231212 190.655438 
L 646.693202 190.456629 
L 646.690815 190.246611 
L 645.689314 189.809385 
L 644.632549 189.384809 
L 644.543382 189.187092 
L 644.862108 188.999952 
L 646.506012 188.64603 
L 649.164856 188.09995 
L 649.517461 187.901546 
L 649.530842 187.695195 
L 648.88946 187.271446 
L 648.304259 186.858533 
L 648.346509 186.662769 
L 648.679635 186.474514 
L 650.036634 186.112068 
L 652.159249 185.556472 
L 652.487602 185.359274 
L 652.574859 185.156159 
L 652.259227 184.741213 
L 651.953227 184.333523 
L 652.036906 184.137587 
L 652.337247 183.947395 
L 653.480268 183.57811 
L 655.31814 183.014742 
L 655.74658 182.614723 
L 655.562775 182.202945 
L 655.396406 181.797899 
L 655.521106 181.6021 
L 656.308443 181.223216 
L 658.465542 180.464924 
L 658.812013 180.064195 
L 658.754727 179.25615 
L 659.286384 178.869576 
L 661.712587 177.7158 
L 661.894357 177.315105 
L 662.009988 176.91527 
L 662.376527 176.523293 
L 663.506649 175.94862 
L 664.698662 175.365812 
L 665.163799 174.971314 
L 665.8455 173.982239 
L 666.844875 173.406334 
L 667.96255 172.827733 
L 668.404315 172.43319 
L 669.126463 171.447264 
L 670.161379 170.87149 
L 671.145986 170.290419 
L 671.652319 169.699009 
L 672.182675 169.111696 
L 673.424512 168.340875 
L 674.481262 167.564357 
L 676.038608 166.202971 
L 678.37278 164.462493 
L 679.244627 163.688715 
L 681.381149 162.147715 
L 682.252094 161.376507 
L 684.148355 160.032441 
L 685.048561 159.262332 
L 687.3552 157.534262 
L 691.776663 154.067761 
L 692.823827 153.299766 
L 693.846078 152.528339 
L 694.923417 151.563408 
L 696.48978 150.409135 
L 697.634701 149.447046 
L 698.926394 148.485757 
L 700.079128 147.525839 
L 701.370941 146.565894 
L 702.226374 145.798327 
L 704.014277 144.456784 
L 704.65403 143.88211 
L 706.45042 142.543366 
L 707.051159 141.969459 
L 708.893635 140.633672 
L 709.457674 140.061407 
L 711.171259 138.921835 
L 711.606131 138.347283 
L 712.183211 137.971812 
L 713.259151 137.406947 
L 713.583719 137.021729 
L 713.740563 136.63762 
L 714.304277 136.263194 
L 715.139847 135.891419 
L 715.2199 135.701981 
L 714.720437 135.510782 
L 713.422307 135.323238 
L 708.355454 135.006827 
L 705.117289 134.912577 
L 705.117289 134.912577 
" clip-path="url(#p7c167b40d4)" style="fill: none; stroke: #000000; stroke-opacity: 0.6; stroke-width: 1.5; stroke-linecap: square"/>
   </g>
   <g id="line2d_50">
    <path d="M 717.023758 134.886048 
L 717.079964 134.941656 
L 716.940695 135.311305 
L 716.460056 135.925556 
L 715.480094 136.751356 
L 714.951392 136.914777 
L 715.018336 136.789237 
L 715.008143 136.977529 
L 714.701761 137.463837 
L 713.835341 138.288143 
L 713.213805 138.593138 
L 713.116159 138.651045 
L 712.768605 139.216911 
L 711.9935 139.957863 
L 711.006091 140.756929 
L 710.386338 141.435392 
L 709.578005 141.998903 
L 709.282609 142.239432 
L 708.721866 142.935137 
L 707.893972 143.612151 
L 707.388025 144.008731 
L 706.618192 144.863617 
L 703.356239 147.806364 
L 702.347431 148.727237 
L 701.463523 149.551181 
L 700.347712 150.556215 
L 699.272024 151.590549 
L 694.560298 155.794448 
L 678.989908 169.687285 
L 676.952376 171.376351 
L 661.059398 183.147809 
L 649.962727 190.327907 
L 646.821614 192.368138 
L 622.475558 209.324417 
L 616.041582 214.522852 
L 616.023347 214.346429 
L 616.317148 213.836151 
L 617.325687 212.714711 
L 618.406712 211.913345 
L 618.977861 211.556927 
L 619.548548 210.719498 
L 620.617787 209.710495 
L 621.892635 208.71536 
L 622.651182 207.797308 
L 623.644847 206.966572 
L 624.563864 206.276594 
L 625.432028 205.230721 
L 626.61038 204.26398 
L 627.236152 203.794527 
L 628.508319 202.379394 
L 631.006865 200.072967 
L 632.270513 199.018986 
L 632.928685 198.412554 
L 634.315496 197.02069 
L 636.381869 195.162592 
L 637.846849 193.906441 
L 639.023849 192.813565 
L 640.682147 191.357566 
L 642.353162 189.809385 
L 655.847214 177.913596 
L 667.368044 169.306258 
L 682.127599 158.495857 
L 707.353929 141.018617 
L 715.65722 134.912577 
L 715.65722 134.912577 
" clip-path="url(#p7c167b40d4)" style="fill: none; stroke-dasharray: 5.55,2.4; stroke-dashoffset: 0; stroke: #1f77b4; stroke-width: 1.5"/>
   </g>
   <g id="line2d_51">
    <path d="M 828.659766 38.74 
L 828.2635 38.784208 
L 828.444426 39.010534 
L 829.715448 39.858766 
L 830.273471 40.400041 
L 830.510743 40.977251 
L 830.382874 41.572761 
L 829.231606 43.404901 
L 829.255389 44.006049 
L 829.627907 44.572584 
L 830.730849 45.489419 
L 830.843883 45.794614 
L 830.248951 45.992196 
L 826.504936 46.178454 
L 820.769966 46.444359 
L 818.289397 46.748705 
L 816.704896 47.209821 
L 816.298806 47.821813 
L 817.090377 48.546423 
L 818.818965 49.320303 
L 824.322471 51.225274 
L 824.480024 51.565555 
L 823.341613 51.757787 
L 811.819847 52.231926 
L 809.796469 52.591428 
L 808.92786 53.104793 
L 809.243587 53.747258 
L 810.521401 54.46824 
L 815.617036 56.46282 
L 816.186101 56.906045 
L 815.722587 57.212986 
L 814.244772 57.409015 
L 806.551834 57.841708 
L 804.264018 58.1147 
L 802.725032 58.51069 
L 802.112759 59.031118 
L 802.42523 59.652929 
L 803.484144 60.333475 
L 807.614332 62.196761 
L 808.035668 62.619436 
L 807.552177 62.921331 
L 806.149304 63.125352 
L 798.846473 63.623989 
L 796.679956 63.921849 
L 795.263887 64.339197 
L 794.780208 64.874218 
L 795.214823 65.500425 
L 796.359101 66.172482 
L 800.185236 67.940513 
L 800.308796 68.325827 
L 799.510035 68.601622 
L 795.615843 68.962525 
L 790.870596 69.39626 
L 789.143822 69.744342 
L 788.20081 70.200917 
L 788.102004 70.753605 
L 788.729114 71.370578 
L 792.380237 73.616126 
L 792.079159 73.972241 
L 791.044718 74.245353 
L 783.520446 75.207581 
L 782.201707 75.589892 
L 781.522548 76.059697 
L 781.497677 76.603239 
L 782.013427 77.192302 
L 784.387123 78.866495 
L 784.567498 79.294735 
L 784.141853 79.640863 
L 783.095609 79.91898 
L 776.20443 80.983335 
L 775.0739 81.387734 
L 774.548875 81.869457 
L 774.624519 82.412117 
L 775.169497 82.986781 
L 776.699033 84.09186 
L 777.137945 84.562378 
L 777.072758 84.957623 
L 776.41676 85.281655 
L 773.614621 85.802083 
L 770.226204 86.360921 
L 768.932489 86.721993 
L 768.136725 87.151635 
L 767.881935 87.642424 
L 768.095894 88.174481 
L 769.643896 89.735863 
L 769.740875 90.164953 
L 769.38331 90.532279 
L 768.556738 90.84666 
L 765.895349 91.399324 
L 763.09102 92.017731 
L 762.087375 92.39876 
L 761.491337 92.834136 
L 761.308995 93.314882 
L 761.464036 93.822977 
L 762.393465 95.282032 
L 762.298887 95.686119 
L 761.82008 96.039534 
L 760.955838 96.351937 
L 755.966573 97.589344 
L 755.130915 97.986182 
L 754.673812 98.429207 
L 754.578402 98.907013 
L 755.036073 99.889383 
L 755.262046 100.352093 
L 755.268369 100.775056 
L 754.946857 101.15321 
L 754.263793 101.491377 
L 752.069361 102.106725 
L 749.708769 102.767265 
L 748.835376 103.150377 
L 748.279661 103.573043 
L 748.038817 104.027721 
L 748.040913 104.500354 
L 748.266487 105.430947 
L 748.217008 105.859973 
L 747.924894 106.255009 
L 747.356467 106.617915 
L 745.551345 107.286248 
L 743.513763 107.970206 
L 742.679358 108.347059 
L 742.061844 108.753047 
L 741.674507 109.184916 
L 741.483019 109.634191 
L 741.2696 110.968075 
L 741.017977 111.374832 
L 740.574574 111.756106 
L 739.131274 112.462035 
L 736.505183 113.527607 
L 735.827623 113.919549 
L 735.333974 114.333806 
L 735.020331 114.76537 
L 734.358977 116.478537 
L 733.963291 116.864932 
L 732.66084 117.586103 
L 730.198614 118.662398 
L 729.034641 119.457025 
L 728.447286 120.305261 
L 728.039017 121.148263 
L 727.732207 121.550816 
L 726.727603 122.310196 
L 723.276205 124.168672 
L 722.390266 124.980773 
L 721.078728 126.620817 
L 720.115986 127.39293 
L 716.056624 130.074159 
L 713.701687 132.472385 
L 711.95826 133.598123 
L 710.215644 134.74932 
L 709.340551 135.548979 
L 707.809534 137.13673 
L 706.191821 138.268442 
L 704.473447 139.406088 
L 703.137029 140.584242 
L 701.436726 142.141325 
L 696.02926 146.334579 
L 693.668135 148.229957 
L 690.211237 150.873964 
L 687.466008 153.140541 
L 684.919296 155.016634 
L 681.722463 157.66523 
L 679.253245 159.548434 
L 675.986377 162.197519 
L 670.815919 166.352704 
L 662.42531 173.119376 
L 660.084784 174.995593 
L 657.780545 176.863259 
L 654.977045 179.106785 
L 651.708498 181.715295 
L 629.830945 199.388913 
L 627.109158 201.564203 
L 624.84262 203.366889 
L 622.146951 205.537033 
L 616.749851 209.86572 
L 609.081437 216.000003 
L 606.418619 218.160227 
L 604.197131 219.964272 
L 601.977962 221.757157 
L 599.337914 223.913989 
L 597.080237 225.69732 
L 594.905571 227.489396 
L 592.667766 229.266921 
L 590.486589 231.053431 
L 588.270265 232.826254 
L 586.083174 234.60625 
L 583.88537 236.372065 
L 581.699292 238.143419 
L 579.536844 239.900041 
L 577.336217 241.659434 
L 575.188184 243.405392 
L 572.995309 245.152159 
L 570.861474 246.888531 
L 568.657645 248.625103 
L 566.536181 250.354796 
L 564.316965 252.084953 
L 562.227264 253.812323 
L 559.98844 255.537667 
L 557.918352 257.264813 
L 555.280651 259.335956 
L 553.631665 260.714499 
L 550.977325 262.782591 
L 549.356794 264.161887 
L 546.694713 266.225454 
L 545.107414 267.604006 
L 542.053155 270.006316 
L 540.409953 271.373079 
L 538.16908 273.081204 
L 536.183454 274.790507 
L 533.919373 276.489614 
L 531.978465 278.194736 
L 529.675169 279.883408 
L 527.788372 281.585383 
L 525.090612 283.606864 
L 523.605655 284.960685 
L 520.885202 286.969769 
L 519.472271 288.318448 
L 516.677684 290.310809 
L 515.334542 291.657999 
L 512.157063 293.976018 
L 511.234296 294.98054 
L 510.234984 295.617094 
L 508.611432 296.594363 
L 507.970493 297.28347 
L 507.517272 297.965314 
L 506.732316 298.606802 
L 504.329441 299.883002 
L 503.968187 300.230283 
L 503.672132 300.937507 
L 503.553478 301.278228 
L 503.289883 301.600778 
L 502.794624 301.905381 
L 499.853187 303.157187 
L 499.857273 303.526724 
L 500.538271 303.905719 
L 501.917174 304.262025 
L 503.867894 304.55166 
L 506.140992 304.725817 
L 508.423293 304.74 
L 510.416554 304.562415 
L 511.912776 304.179752 
L 512.843376 303.598898 
L 513.287335 302.844015 
L 513.753542 299.894231 
L 514.22975 298.792299 
L 516.976268 294.278698 
L 517.223517 293.200705 
L 517.463799 291.272461 
L 518.000779 290.465697 
L 519.209741 289.769638 
L 521.260718 289.162299 
L 527.5522 288.023472 
L 531.103685 287.370195 
L 534.25476 286.587946 
L 536.523853 285.648359 
L 537.60402 284.555485 
L 537.455718 283.34695 
L 536.334134 282.087095 
L 533.304453 279.717925 
L 532.636781 278.732736 
L 533.174148 277.915417 
L 535.072397 277.245979 
L 538.166785 276.671195 
L 545.990906 275.505947 
L 549.463949 274.774369 
L 551.920595 273.887175 
L 553.095938 272.844692 
L 553.025048 271.681726 
L 552.024377 270.458599 
L 549.363714 268.113102 
L 548.81493 267.10452 
L 549.310072 266.239534 
L 550.954035 265.505121 
L 553.5993 264.861022 
L 560.359436 263.608711 
L 563.515195 262.88491 
L 565.96108 262.044118 
L 567.462606 261.077693 
L 567.987163 260.003208 
L 567.699861 258.859823 
L 565.525153 255.536089 
L 565.653526 254.605335 
L 566.640812 253.788785 
L 568.507884 253.067339 
L 571.097863 252.402553 
L 577.149654 251.043303 
L 579.82828 250.257218 
L 581.823654 249.363801 
L 582.959056 248.363467 
L 583.240942 247.279691 
L 582.860548 246.15395 
L 581.53459 243.975931 
L 581.391586 243.007176 
L 582.011213 242.144897 
L 583.505199 241.37965 
L 585.785053 240.680396 
L 591.510028 239.294508 
L 594.156781 238.517145 
L 596.181341 237.645127 
L 597.393979 236.676324 
L 597.79877 235.630897 
L 597.588992 234.54604 
L 596.709294 232.435294 
L 596.776782 231.481139 
L 597.528511 230.614947 
L 599.024078 229.826748 
L 601.146297 229.089196 
L 606.166036 227.614985 
L 608.410521 226.809158 
L 610.132013 225.931098 
L 611.22574 224.9819 
L 611.736538 223.978675 
L 611.838546 222.949683 
L 611.786614 221.927278 
L 611.852914 220.940447 
L 612.264701 220.008604 
L 613.157262 219.137944 
L 614.551171 218.320985 
L 618.400784 216.766971 
L 622.363761 215.154334 
L 623.923142 214.281046 
L 625.073499 213.358429 
L 625.828255 212.396409 
L 626.282586 211.413039 
L 626.928282 209.46921 
L 627.462554 208.545632 
L 628.311193 207.666752 
L 629.522379 206.82986 
L 631.065094 206.023185 
L 636.444023 203.597405 
L 637.967552 202.731279 
L 639.165381 201.825118 
L 640.022548 200.885791 
L 640.603152 199.927786 
L 641.4801 198.030005 
L 642.09355 197.122166 
L 642.988013 196.252034 
L 644.205613 195.416355 
L 647.390897 193.798328 
L 650.698819 192.142686 
L 652.05823 191.271537 
L 653.12962 190.369928 
L 653.933534 189.446156 
L 655.764757 186.678707 
L 656.588737 185.796356 
L 657.646667 184.940579 
L 660.374655 183.282114 
L 663.392209 181.601848 
L 665.905338 179.875007 
L 667.771073 178.084257 
L 670.255391 175.398932 
L 672.333047 173.67055 
L 676.094295 171.14438 
L 678.614648 169.446883 
L 680.870138 167.708341 
L 682.827564 165.936271 
L 685.585015 163.287062 
L 687.681422 161.568154 
L 691.392897 159.037061 
L 693.867667 157.324722 
L 695.984673 155.568105 
L 700.614777 151.179816 
L 702.974813 149.486635 
L 706.683029 146.935881 
L 708.786814 145.19297 
L 713.570662 140.836372 
L 722.419124 133.99195 
L 727.663437 129.688601 
L 735.142123 123.717291 
L 738.494147 121.153785 
L 741.464612 118.559226 
L 744.445563 115.994724 
L 752.213688 110.047628 
L 756.093108 106.619605 
L 764.694596 99.83868 
L 767.800167 97.297891 
L 772.14587 93.911842 
L 778.264857 88.8516 
L 782.73391 85.489736 
L 788.589488 80.424088 
L 794.243767 76.259138 
L 799.01104 72.051164 
L 805.580942 67.064498 
L 808.375446 64.555961 
L 810.569574 62.914428 
L 814.077336 60.438397 
L 816.008021 58.75192 
L 818.625756 56.245192 
L 820.88328 54.625403 
L 824.68849 52.17701 
L 825.732158 51.333415 
L 827.311437 49.623224 
L 828.81287 47.948382 
L 829.838786 47.140498 
L 832.602681 45.557853 
L 834.105566 44.755254 
L 835.391214 43.927436 
L 836.207446 43.071363 
L 836.362727 42.198584 
L 835.787456 41.337026 
L 834.565462 40.528564 
L 832.923924 39.822727 
L 829.674031 38.900318 
L 829.674031 38.900318 
" clip-path="url(#p7c167b40d4)" style="fill: none; stroke: #000000; stroke-opacity: 0.6; stroke-width: 1.5; stroke-linecap: square"/>
   </g>
   <g id="line2d_52">
    <path d="M 826.020016 38.74 
L 826.258425 38.784208 
L 826.294689 39.010534 
L 825.834817 39.858766 
L 824.338724 41.572761 
L 821.306502 44.572584 
L 819.746251 45.794614 
L 818.803895 46.444359 
L 818.378238 47.209821 
L 817.405144 48.546423 
L 815.968208 50.068306 
L 814.528297 51.225274 
L 813.301467 51.850496 
L 813.06553 52.018767 
L 812.449919 53.104793 
L 811.38515 54.46824 
L 809.960099 55.885121 
L 808.6254 56.906045 
L 807.15193 57.841708 
L 805.808952 59.652929 
L 804.49821 61.018899 
L 803.100888 62.196761 
L 800.803094 63.921849 
L 799.572564 65.500425 
L 798.252654 66.83581 
L 796.897556 67.940513 
L 794.878944 69.39626 
L 793.823274 70.753605 
L 792.637416 72.007805 
L 791.315222 73.162995 
L 788.148527 75.589892 
L 786.379716 77.192302 
L 784.150881 78.866495 
L 781.056376 80.983335 
L 778.810081 82.986781 
L 776.661995 84.562378 
L 773.997784 86.360921 
L 771.273912 88.719849 
L 769.257361 90.164953 
L 767.006172 91.688926 
L 764.353986 93.822977 
L 761.587895 95.686119 
L 759.179329 97.240181 
L 754.967115 100.352093 
L 750.790739 103.150377 
L 747.655115 105.430947 
L 742.767783 108.753047 
L 713.851969 130.074159 
L 702.506852 137.518128 
L 689.663179 145.949881 
L 687.044832 147.8547 
L 638.002426 184.324878 
L 622.793232 196.843283 
L 614.446212 204.087911 
L 602.72951 214.553129 
L 594.608058 221.757157 
L 583.488261 233.180515 
L 579.285052 237.788198 
L 577.620961 239.550726 
L 568.776099 248.275724 
L 554.070226 260.37264 
L 545.229358 267.262836 
L 538.297933 272.391336 
L 533.506362 276.144904 
L 517.388178 288.644874 
L 511.251018 293.632013 
L 501.896506 302.497807 
L 500.156302 304.55166 
L 499.679568 304.74 
L 499.617273 304.562415 
L 499.727683 304.179752 
L 500.521865 302.844015 
L 502.001554 300.955526 
L 504.982347 297.667311 
L 509.381645 293.200705 
L 512.398667 290.465697 
L 515.177797 288.023472 
L 517.168751 285.648359 
L 519.164811 283.34695 
L 521.634279 280.853164 
L 524.095024 278.732736 
L 527.455795 276.117066 
L 528.694978 274.774369 
L 531.348171 271.681726 
L 533.758728 269.246852 
L 536.611945 267.10452 
L 541.644617 263.608711 
L 549.9332 256.576626 
L 553.885905 253.788785 
L 556.79685 251.744752 
L 562.441386 247.279691 
L 565.495388 245.036626 
L 569.867765 242.144897 
L 573.202857 240.001739 
L 576.334891 237.645127 
L 580.391999 234.54604 
L 591.081432 226.809158 
L 597.143815 221.927278 
L 602.153443 218.320985 
L 605.328891 215.979028 
L 607.630812 214.281046 
L 613.234926 210.430272 
L 633.396547 197.122166 
L 640.167629 192.142686 
L 647.333047 186.678707 
L 656.505687 179.875007 
L 662.543456 175.398932 
L 674.232459 166.824859 
L 684.584453 159.037061 
L 715.047019 133.99195 
L 747.541456 106.619605 
L 761.5968 93.911842 
L 775.339345 81.253004 
L 785.189221 72.051164 
L 789.120497 67.906275 
L 806.329726 49.623224 
L 815.910409 39.822727 
L 817.212567 38.900318 
L 817.212567 38.900318 
" clip-path="url(#p7c167b40d4)" style="fill: none; stroke-dasharray: 5.55,2.4; stroke-dashoffset: 0; stroke: #ff7f0e; stroke-width: 1.5"/>
   </g>
   <g id="patch_9">
    <path d="M 482.78 318.04 
L 482.78 25.44 
" style="fill: none; stroke: #000000; stroke-width: 0.8; stroke-linejoin: miter; stroke-linecap: square"/>
   </g>
   <g id="patch_10">
    <path d="M 853.2 318.04 
L 853.2 25.44 
" style="fill: none; stroke: #000000; stroke-width: 0.8; stroke-linejoin: miter; stroke-linecap: square"/>
   </g>
   <g id="patch_11">
    <path d="M 482.78 318.04 
L 853.2 318.04 
" style="fill: none; stroke: #000000; stroke-width: 0.8; stroke-linejoin: miter; stroke-linecap: square"/>
   </g>
   <g id="patch_12">
    <path d="M 482.78 25.44 
L 853.2 25.44 
" style="fill: none; stroke: #000000; stroke-width: 0.8; stroke-linejoin: miter; stroke-linecap: square"/>
   </g>
   <g id="text_29">
    <!-- B-H Loop (Ep 984) -->
    <g transform="translate(613.351562 19.44) scale(0.12 -0.12)">
     <defs>
      <path id="DejaVuSans-2d" d="M 313 2009 
L 1997 2009 
L 1997 1497 
L 313 1497 
L 313 2009 
z
" transform="scale(0.015625)"/>
      <path id="DejaVuSans-4c" d="M 628 4666 
L 1259 4666 
L 1259 531 
L 3531 531 
L 3531 0 
L 628 0 
L 628 4666 
z
" transform="scale(0.015625)"/>
     </defs>
     <use xlink:href="#DejaVuSans-42"/>
     <use xlink:href="#DejaVuSans-2d" transform="translate(68.603516 0)"/>
     <use xlink:href="#DejaVuSans-48" transform="translate(104.6875 0)"/>
     <use xlink:href="#DejaVuSans-20" transform="translate(179.882812 0)"/>
     <use xlink:href="#DejaVuSans-4c" transform="translate(211.669922 0)"/>
     <use xlink:href="#DejaVuSans-6f" transform="translate(265.632812 0)"/>
     <use xlink:href="#DejaVuSans-6f" transform="translate(326.814453 0)"/>
     <use xlink:href="#DejaVuSans-70" transform="translate(387.996094 0)"/>
     <use xlink:href="#DejaVuSans-20" transform="translate(451.472656 0)"/>
     <use xlink:href="#DejaVuSans-28" transform="translate(483.259766 0)"/>
     <use xlink:href="#DejaVuSans-45" transform="translate(522.273438 0)"/>
     <use xlink:href="#DejaVuSans-70" transform="translate(585.457031 0)"/>
     <use xlink:href="#DejaVuSans-20" transform="translate(648.933594 0)"/>
     <use xlink:href="#DejaVuSans-39" transform="translate(680.720703 0)"/>
     <use xlink:href="#DejaVuSans-38" transform="translate(744.34375 0)"/>
     <use xlink:href="#DejaVuSans-34" transform="translate(807.966797 0)"/>
     <use xlink:href="#DejaVuSans-29" transform="translate(871.589844 0)"/>
    </g>
   </g>
   <g id="legend_2">
    <g id="patch_13">
     <path d="M 489.78 62.79625 
L 552.72375 62.79625 
Q 554.72375 62.79625 554.72375 60.79625 
L 554.72375 32.44 
Q 554.72375 30.44 552.72375 30.44 
L 489.78 30.44 
Q 487.78 30.44 487.78 32.44 
L 487.78 60.79625 
Q 487.78 62.79625 489.78 62.79625 
z
" style="fill: #ffffff; opacity: 0.8; stroke: #cccccc; stroke-linejoin: miter"/>
    </g>
    <g id="line2d_53">
     <path d="M 491.78 38.538437 
L 501.78 38.538437 
L 511.78 38.538437 
" style="fill: none; stroke: #000000; stroke-opacity: 0.6; stroke-width: 1.5; stroke-linecap: square"/>
    </g>
    <g id="text_30">
     <!-- Target -->
     <g transform="translate(519.78 42.038437) scale(0.1 -0.1)">
      <use xlink:href="#DejaVuSans-54"/>
      <use xlink:href="#DejaVuSans-61" transform="translate(44.583984 0)"/>
      <use xlink:href="#DejaVuSans-72" transform="translate(105.863281 0)"/>
      <use xlink:href="#DejaVuSans-67" transform="translate(145.226562 0)"/>
      <use xlink:href="#DejaVuSans-65" transform="translate(208.703125 0)"/>
      <use xlink:href="#DejaVuSans-74" transform="translate(270.226562 0)"/>
     </g>
    </g>
    <g id="line2d_54">
     <path d="M 491.78 53.216563 
L 501.78 53.216563 
L 511.78 53.216563 
" style="fill: none; stroke-dasharray: 5.55,2.4; stroke-dashoffset: 0; stroke: #1f77b4; stroke-width: 1.5"/>
    </g>
    <g id="text_31">
     <!-- Pred -->
     <g transform="translate(519.78 56.716563) scale(0.1 -0.1)">
      <use xlink:href="#DejaVuSans-50"/>
      <use xlink:href="#DejaVuSans-72" transform="translate(58.552734 0)"/>
      <use xlink:href="#DejaVuSans-65" transform="translate(97.416016 0)"/>
      <use xlink:href="#DejaVuSans-64" transform="translate(158.939453 0)"/>
     </g>
    </g>
   </g>
  </g>
 </g>
 <defs>
  <clipPath id="p63c6d62398">
   <rect x="56.18" y="25.44" width="370.42" height="292.6"/>
  </clipPath>
  <clipPath id="p7c167b40d4">
   <rect x="482.78" y="25.44" width="370.42" height="292.6"/>
  </clipPath>
 </defs>
</svg>
