<?xml version="1.0" encoding="utf-8" standalone="no"?>
<!DOCTYPE svg PUBLIC "-//W3C//DTD SVG 1.1//EN"
  "http://www.w3.org/Graphics/SVG/1.1/DTD/svg11.dtd">
<svg xmlns:xlink="http://www.w3.org/1999/xlink" width="864pt" height="360pt" viewBox="0 0 864 360" xmlns="http://www.w3.org/2000/svg" version="1.1">
 <metadata>
  <rdf:RDF xmlns:dc="http://purl.org/dc/elements/1.1/" xmlns:cc="http://creativecommons.org/ns#" xmlns:rdf="http://www.w3.org/1999/02/22-rdf-syntax-ns#">
   <cc:Work>
    <dc:type rdf:resource="http://purl.org/dc/dcmitype/StillImage"/>
    <dc:date>2025-12-19T16:13:10.146849</dc:date>
    <dc:format>image/svg+xml</dc:format>
    <dc:creator>
     <cc:Agent>
      <dc:title>Matplotlib v3.10.0, https://matplotlib.org/</dc:title>
     </cc:Agent>
    </dc:creator>
   </cc:Work>
  </rdf:RDF>
 </metadata>
 <defs>
  <style type="text/css">*{stroke-linejoin: round; stroke-linecap: butt}</style>
 </defs>
 <g id="figure_1">
  <g id="patch_1">
   <path d="M 0 360 
L 864 360 
L 864 0 
L 0 0 
z
" style="fill: #ffffff"/>
  </g>
  <g id="axes_1">
   <g id="patch_2">
    <path d="M 62.57 318.04 
L 423.30833 318.04 
L 423.30833 25.44 
L 62.57 25.44 
z
" style="fill: #ffffff"/>
   </g>
   <g id="matplotlib.axis_1">
    <g id="xtick_1">
     <g id="line2d_1">
      <path d="M 78.967197 318.04 
L 78.967197 25.44 
" clip-path="url(#p26256195d1)" style="fill: none; stroke: #b0b0b0; stroke-opacity: 0.3; stroke-width: 0.8; stroke-linecap: square"/>
     </g>
     <g id="line2d_2">
      <defs>
       <path id="mf141966aa3" d="M 0 0 
L 0 3.5 
" style="stroke: #000000; stroke-width: 0.8"/>
      </defs>
      <g>
       <use xlink:href="#mf141966aa3" x="78.967197" y="318.04" style="stroke: #000000; stroke-width: 0.8"/>
      </g>
     </g>
     <g id="text_1">
      <!-- 0 -->
      <g transform="translate(75.785947 332.638438) scale(0.1 -0.1)">
       <defs>
        <path id="DejaVuSans-30" d="M 2034 4250 
Q 1547 4250 1301 3770 
Q 1056 3291 1056 2328 
Q 1056 1369 1301 889 
Q 1547 409 2034 409 
Q 2525 409 2770 889 
Q 3016 1369 3016 2328 
Q 3016 3291 2770 3770 
Q 2525 4250 2034 4250 
z
M 2034 4750 
Q 2819 4750 3233 4129 
Q 3647 3509 3647 2328 
Q 3647 1150 3233 529 
Q 2819 -91 2034 -91 
Q 1250 -91 836 529 
Q 422 1150 422 2328 
Q 422 3509 836 4129 
Q 1250 4750 2034 4750 
z
" transform="scale(0.015625)"/>
       </defs>
       <use xlink:href="#DejaVuSans-30"/>
      </g>
     </g>
    </g>
    <g id="xtick_2">
     <g id="line2d_3">
      <path d="M 143.081358 318.04 
L 143.081358 25.44 
" clip-path="url(#p26256195d1)" style="fill: none; stroke: #b0b0b0; stroke-opacity: 0.3; stroke-width: 0.8; stroke-linecap: square"/>
     </g>
     <g id="line2d_4">
      <g>
       <use xlink:href="#mf141966aa3" x="143.081358" y="318.04" style="stroke: #000000; stroke-width: 0.8"/>
      </g>
     </g>
     <g id="text_2">
      <!-- 200 -->
      <g transform="translate(133.537608 332.638438) scale(0.1 -0.1)">
       <defs>
        <path id="DejaVuSans-32" d="M 1228 531 
L 3431 531 
L 3431 0 
L 469 0 
L 469 531 
Q 828 903 1448 1529 
Q 2069 2156 2228 2338 
Q 2531 2678 2651 2914 
Q 2772 3150 2772 3378 
Q 2772 3750 2511 3984 
Q 2250 4219 1831 4219 
Q 1534 4219 1204 4116 
Q 875 4013 500 3803 
L 500 4441 
Q 881 4594 1212 4672 
Q 1544 4750 1819 4750 
Q 2544 4750 2975 4387 
Q 3406 4025 3406 3419 
Q 3406 3131 3298 2873 
Q 3191 2616 2906 2266 
Q 2828 2175 2409 1742 
Q 1991 1309 1228 531 
z
" transform="scale(0.015625)"/>
       </defs>
       <use xlink:href="#DejaVuSans-32"/>
       <use xlink:href="#DejaVuSans-30" transform="translate(63.623047 0)"/>
       <use xlink:href="#DejaVuSans-30" transform="translate(127.246094 0)"/>
      </g>
     </g>
    </g>
    <g id="xtick_3">
     <g id="line2d_5">
      <path d="M 207.19552 318.04 
L 207.19552 25.44 
" clip-path="url(#p26256195d1)" style="fill: none; stroke: #b0b0b0; stroke-opacity: 0.3; stroke-width: 0.8; stroke-linecap: square"/>
     </g>
     <g id="line2d_6">
      <g>
       <use xlink:href="#mf141966aa3" x="207.19552" y="318.04" style="stroke: #000000; stroke-width: 0.8"/>
      </g>
     </g>
     <g id="text_3">
      <!-- 400 -->
      <g transform="translate(197.65177 332.638438) scale(0.1 -0.1)">
       <defs>
        <path id="DejaVuSans-34" d="M 2419 4116 
L 825 1625 
L 2419 1625 
L 2419 4116 
z
M 2253 4666 
L 3047 4666 
L 3047 1625 
L 3713 1625 
L 3713 1100 
L 3047 1100 
L 3047 0 
L 2419 0 
L 2419 1100 
L 313 1100 
L 313 1709 
L 2253 4666 
z
" transform="scale(0.015625)"/>
       </defs>
       <use xlink:href="#DejaVuSans-34"/>
       <use xlink:href="#DejaVuSans-30" transform="translate(63.623047 0)"/>
       <use xlink:href="#DejaVuSans-30" transform="translate(127.246094 0)"/>
      </g>
     </g>
    </g>
    <g id="xtick_4">
     <g id="line2d_7">
      <path d="M 271.309682 318.04 
L 271.309682 25.44 
" clip-path="url(#p26256195d1)" style="fill: none; stroke: #b0b0b0; stroke-opacity: 0.3; stroke-width: 0.8; stroke-linecap: square"/>
     </g>
     <g id="line2d_8">
      <g>
       <use xlink:href="#mf141966aa3" x="271.309682" y="318.04" style="stroke: #000000; stroke-width: 0.8"/>
      </g>
     </g>
     <g id="text_4">
      <!-- 600 -->
      <g transform="translate(261.765932 332.638438) scale(0.1 -0.1)">
       <defs>
        <path id="DejaVuSans-36" d="M 2113 2584 
Q 1688 2584 1439 2293 
Q 1191 2003 1191 1497 
Q 1191 994 1439 701 
Q 1688 409 2113 409 
Q 2538 409 2786 701 
Q 3034 994 3034 1497 
Q 3034 2003 2786 2293 
Q 2538 2584 2113 2584 
z
M 3366 4563 
L 3366 3988 
Q 3128 4100 2886 4159 
Q 2644 4219 2406 4219 
Q 1781 4219 1451 3797 
Q 1122 3375 1075 2522 
Q 1259 2794 1537 2939 
Q 1816 3084 2150 3084 
Q 2853 3084 3261 2657 
Q 3669 2231 3669 1497 
Q 3669 778 3244 343 
Q 2819 -91 2113 -91 
Q 1303 -91 875 529 
Q 447 1150 447 2328 
Q 447 3434 972 4092 
Q 1497 4750 2381 4750 
Q 2619 4750 2861 4703 
Q 3103 4656 3366 4563 
z
" transform="scale(0.015625)"/>
       </defs>
       <use xlink:href="#DejaVuSans-36"/>
       <use xlink:href="#DejaVuSans-30" transform="translate(63.623047 0)"/>
       <use xlink:href="#DejaVuSans-30" transform="translate(127.246094 0)"/>
      </g>
     </g>
    </g>
    <g id="xtick_5">
     <g id="line2d_9">
      <path d="M 335.423843 318.04 
L 335.423843 25.44 
" clip-path="url(#p26256195d1)" style="fill: none; stroke: #b0b0b0; stroke-opacity: 0.3; stroke-width: 0.8; stroke-linecap: square"/>
     </g>
     <g id="line2d_10">
      <g>
       <use xlink:href="#mf141966aa3" x="335.423843" y="318.04" style="stroke: #000000; stroke-width: 0.8"/>
      </g>
     </g>
     <g id="text_5">
      <!-- 800 -->
      <g transform="translate(325.880093 332.638438) scale(0.1 -0.1)">
       <defs>
        <path id="DejaVuSans-38" d="M 2034 2216 
Q 1584 2216 1326 1975 
Q 1069 1734 1069 1313 
Q 1069 891 1326 650 
Q 1584 409 2034 409 
Q 2484 409 2743 651 
Q 3003 894 3003 1313 
Q 3003 1734 2745 1975 
Q 2488 2216 2034 2216 
z
M 1403 2484 
Q 997 2584 770 2862 
Q 544 3141 544 3541 
Q 544 4100 942 4425 
Q 1341 4750 2034 4750 
Q 2731 4750 3128 4425 
Q 3525 4100 3525 3541 
Q 3525 3141 3298 2862 
Q 3072 2584 2669 2484 
Q 3125 2378 3379 2068 
Q 3634 1759 3634 1313 
Q 3634 634 3220 271 
Q 2806 -91 2034 -91 
Q 1263 -91 848 271 
Q 434 634 434 1313 
Q 434 1759 690 2068 
Q 947 2378 1403 2484 
z
M 1172 3481 
Q 1172 3119 1398 2916 
Q 1625 2713 2034 2713 
Q 2441 2713 2670 2916 
Q 2900 3119 2900 3481 
Q 2900 3844 2670 4047 
Q 2441 4250 2034 4250 
Q 1625 4250 1398 4047 
Q 1172 3844 1172 3481 
z
" transform="scale(0.015625)"/>
       </defs>
       <use xlink:href="#DejaVuSans-38"/>
       <use xlink:href="#DejaVuSans-30" transform="translate(63.623047 0)"/>
       <use xlink:href="#DejaVuSans-30" transform="translate(127.246094 0)"/>
      </g>
     </g>
    </g>
    <g id="xtick_6">
     <g id="line2d_11">
      <path d="M 399.538005 318.04 
L 399.538005 25.44 
" clip-path="url(#p26256195d1)" style="fill: none; stroke: #b0b0b0; stroke-opacity: 0.3; stroke-width: 0.8; stroke-linecap: square"/>
     </g>
     <g id="line2d_12">
      <g>
       <use xlink:href="#mf141966aa3" x="399.538005" y="318.04" style="stroke: #000000; stroke-width: 0.8"/>
      </g>
     </g>
     <g id="text_6">
      <!-- 1000 -->
      <g transform="translate(386.813005 332.638438) scale(0.1 -0.1)">
       <defs>
        <path id="DejaVuSans-31" d="M 794 531 
L 1825 531 
L 1825 4091 
L 703 3866 
L 703 4441 
L 1819 4666 
L 2450 4666 
L 2450 531 
L 3481 531 
L 3481 0 
L 794 0 
L 794 531 
z
" transform="scale(0.015625)"/>
       </defs>
       <use xlink:href="#DejaVuSans-31"/>
       <use xlink:href="#DejaVuSans-30" transform="translate(63.623047 0)"/>
       <use xlink:href="#DejaVuSans-30" transform="translate(127.246094 0)"/>
       <use xlink:href="#DejaVuSans-30" transform="translate(190.869141 0)"/>
      </g>
     </g>
    </g>
    <g id="text_7">
     <!-- Time Step -->
     <g transform="translate(217.731353 346.316563) scale(0.1 -0.1)">
      <defs>
       <path id="DejaVuSans-54" d="M -19 4666 
L 3928 4666 
L 3928 4134 
L 2272 4134 
L 2272 0 
L 1638 0 
L 1638 4134 
L -19 4134 
L -19 4666 
z
" transform="scale(0.015625)"/>
       <path id="DejaVuSans-69" d="M 603 3500 
L 1178 3500 
L 1178 0 
L 603 0 
L 603 3500 
z
M 603 4863 
L 1178 4863 
L 1178 4134 
L 603 4134 
L 603 4863 
z
" transform="scale(0.015625)"/>
       <path id="DejaVuSans-6d" d="M 3328 2828 
Q 3544 3216 3844 3400 
Q 4144 3584 4550 3584 
Q 5097 3584 5394 3201 
Q 5691 2819 5691 2113 
L 5691 0 
L 5113 0 
L 5113 2094 
Q 5113 2597 4934 2840 
Q 4756 3084 4391 3084 
Q 3944 3084 3684 2787 
Q 3425 2491 3425 1978 
L 3425 0 
L 2847 0 
L 2847 2094 
Q 2847 2600 2669 2842 
Q 2491 3084 2119 3084 
Q 1678 3084 1418 2786 
Q 1159 2488 1159 1978 
L 1159 0 
L 581 0 
L 581 3500 
L 1159 3500 
L 1159 2956 
Q 1356 3278 1631 3431 
Q 1906 3584 2284 3584 
Q 2666 3584 2933 3390 
Q 3200 3197 3328 2828 
z
" transform="scale(0.015625)"/>
       <path id="DejaVuSans-65" d="M 3597 1894 
L 3597 1613 
L 953 1613 
Q 991 1019 1311 708 
Q 1631 397 2203 397 
Q 2534 397 2845 478 
Q 3156 559 3463 722 
L 3463 178 
Q 3153 47 2828 -22 
Q 2503 -91 2169 -91 
Q 1331 -91 842 396 
Q 353 884 353 1716 
Q 353 2575 817 3079 
Q 1281 3584 2069 3584 
Q 2775 3584 3186 3129 
Q 3597 2675 3597 1894 
z
M 3022 2063 
Q 3016 2534 2758 2815 
Q 2500 3097 2075 3097 
Q 1594 3097 1305 2825 
Q 1016 2553 972 2059 
L 3022 2063 
z
" transform="scale(0.015625)"/>
       <path id="DejaVuSans-20" transform="scale(0.015625)"/>
       <path id="DejaVuSans-53" d="M 3425 4513 
L 3425 3897 
Q 3066 4069 2747 4153 
Q 2428 4238 2131 4238 
Q 1616 4238 1336 4038 
Q 1056 3838 1056 3469 
Q 1056 3159 1242 3001 
Q 1428 2844 1947 2747 
L 2328 2669 
Q 3034 2534 3370 2195 
Q 3706 1856 3706 1288 
Q 3706 609 3251 259 
Q 2797 -91 1919 -91 
Q 1588 -91 1214 -16 
Q 841 59 441 206 
L 441 856 
Q 825 641 1194 531 
Q 1563 422 1919 422 
Q 2459 422 2753 634 
Q 3047 847 3047 1241 
Q 3047 1584 2836 1778 
Q 2625 1972 2144 2069 
L 1759 2144 
Q 1053 2284 737 2584 
Q 422 2884 422 3419 
Q 422 4038 858 4394 
Q 1294 4750 2059 4750 
Q 2388 4750 2728 4690 
Q 3069 4631 3425 4513 
z
" transform="scale(0.015625)"/>
       <path id="DejaVuSans-74" d="M 1172 4494 
L 1172 3500 
L 2356 3500 
L 2356 3053 
L 1172 3053 
L 1172 1153 
Q 1172 725 1289 603 
Q 1406 481 1766 481 
L 2356 481 
L 2356 0 
L 1766 0 
Q 1100 0 847 248 
Q 594 497 594 1153 
L 594 3053 
L 172 3053 
L 172 3500 
L 594 3500 
L 594 4494 
L 1172 4494 
z
" transform="scale(0.015625)"/>
       <path id="DejaVuSans-70" d="M 1159 525 
L 1159 -1331 
L 581 -1331 
L 581 3500 
L 1159 3500 
L 1159 2969 
Q 1341 3281 1617 3432 
Q 1894 3584 2278 3584 
Q 2916 3584 3314 3078 
Q 3713 2572 3713 1747 
Q 3713 922 3314 415 
Q 2916 -91 2278 -91 
Q 1894 -91 1617 61 
Q 1341 213 1159 525 
z
M 3116 1747 
Q 3116 2381 2855 2742 
Q 2594 3103 2138 3103 
Q 1681 3103 1420 2742 
Q 1159 2381 1159 1747 
Q 1159 1113 1420 752 
Q 1681 391 2138 391 
Q 2594 391 2855 752 
Q 3116 1113 3116 1747 
z
" transform="scale(0.015625)"/>
      </defs>
      <use xlink:href="#DejaVuSans-54"/>
      <use xlink:href="#DejaVuSans-69" transform="translate(57.958984 0)"/>
      <use xlink:href="#DejaVuSans-6d" transform="translate(85.742188 0)"/>
      <use xlink:href="#DejaVuSans-65" transform="translate(183.154297 0)"/>
      <use xlink:href="#DejaVuSans-20" transform="translate(244.677734 0)"/>
      <use xlink:href="#DejaVuSans-53" transform="translate(276.464844 0)"/>
      <use xlink:href="#DejaVuSans-74" transform="translate(339.941406 0)"/>
      <use xlink:href="#DejaVuSans-65" transform="translate(379.150391 0)"/>
      <use xlink:href="#DejaVuSans-70" transform="translate(440.673828 0)"/>
     </g>
    </g>
   </g>
   <g id="matplotlib.axis_2">
    <g id="ytick_1">
     <g id="line2d_13">
      <path d="M 62.57 307.649317 
L 423.30833 307.649317 
" clip-path="url(#p26256195d1)" style="fill: none; stroke: #b0b0b0; stroke-opacity: 0.3; stroke-width: 0.8; stroke-linecap: square"/>
     </g>
     <g id="line2d_14">
      <defs>
       <path id="m69298b5d33" d="M 0 0 
L -3.5 0 
" style="stroke: #000000; stroke-width: 0.8"/>
      </defs>
      <g>
       <use xlink:href="#m69298b5d33" x="62.57" y="307.649317" style="stroke: #000000; stroke-width: 0.8"/>
      </g>
     </g>
     <g id="text_8">
      <!-- −0.20 -->
      <g transform="translate(24.924688 311.448535) scale(0.1 -0.1)">
       <defs>
        <path id="DejaVuSans-2212" d="M 678 2272 
L 4684 2272 
L 4684 1741 
L 678 1741 
L 678 2272 
z
" transform="scale(0.015625)"/>
        <path id="DejaVuSans-2e" d="M 684 794 
L 1344 794 
L 1344 0 
L 684 0 
L 684 794 
z
" transform="scale(0.015625)"/>
       </defs>
       <use xlink:href="#DejaVuSans-2212"/>
       <use xlink:href="#DejaVuSans-30" transform="translate(83.789062 0)"/>
       <use xlink:href="#DejaVuSans-2e" transform="translate(147.412109 0)"/>
       <use xlink:href="#DejaVuSans-32" transform="translate(179.199219 0)"/>
       <use xlink:href="#DejaVuSans-30" transform="translate(242.822266 0)"/>
      </g>
     </g>
    </g>
    <g id="ytick_2">
     <g id="line2d_15">
      <path d="M 62.57 272.923124 
L 423.30833 272.923124 
" clip-path="url(#p26256195d1)" style="fill: none; stroke: #b0b0b0; stroke-opacity: 0.3; stroke-width: 0.8; stroke-linecap: square"/>
     </g>
     <g id="line2d_16">
      <g>
       <use xlink:href="#m69298b5d33" x="62.57" y="272.923124" style="stroke: #000000; stroke-width: 0.8"/>
      </g>
     </g>
     <g id="text_9">
      <!-- −0.15 -->
      <g transform="translate(24.924688 276.722342) scale(0.1 -0.1)">
       <defs>
        <path id="DejaVuSans-35" d="M 691 4666 
L 3169 4666 
L 3169 4134 
L 1269 4134 
L 1269 2991 
Q 1406 3038 1543 3061 
Q 1681 3084 1819 3084 
Q 2600 3084 3056 2656 
Q 3513 2228 3513 1497 
Q 3513 744 3044 326 
Q 2575 -91 1722 -91 
Q 1428 -91 1123 -41 
Q 819 9 494 109 
L 494 744 
Q 775 591 1075 516 
Q 1375 441 1709 441 
Q 2250 441 2565 725 
Q 2881 1009 2881 1497 
Q 2881 1984 2565 2268 
Q 2250 2553 1709 2553 
Q 1456 2553 1204 2497 
Q 953 2441 691 2322 
L 691 4666 
z
" transform="scale(0.015625)"/>
       </defs>
       <use xlink:href="#DejaVuSans-2212"/>
       <use xlink:href="#DejaVuSans-30" transform="translate(83.789062 0)"/>
       <use xlink:href="#DejaVuSans-2e" transform="translate(147.412109 0)"/>
       <use xlink:href="#DejaVuSans-31" transform="translate(179.199219 0)"/>
       <use xlink:href="#DejaVuSans-35" transform="translate(242.822266 0)"/>
      </g>
     </g>
    </g>
    <g id="ytick_3">
     <g id="line2d_17">
      <path d="M 62.57 238.196931 
L 423.30833 238.196931 
" clip-path="url(#p26256195d1)" style="fill: none; stroke: #b0b0b0; stroke-opacity: 0.3; stroke-width: 0.8; stroke-linecap: square"/>
     </g>
     <g id="line2d_18">
      <g>
       <use xlink:href="#m69298b5d33" x="62.57" y="238.196931" style="stroke: #000000; stroke-width: 0.8"/>
      </g>
     </g>
     <g id="text_10">
      <!-- −0.10 -->
      <g transform="translate(24.924688 241.996149) scale(0.1 -0.1)">
       <use xlink:href="#DejaVuSans-2212"/>
       <use xlink:href="#DejaVuSans-30" transform="translate(83.789062 0)"/>
       <use xlink:href="#DejaVuSans-2e" transform="translate(147.412109 0)"/>
       <use xlink:href="#DejaVuSans-31" transform="translate(179.199219 0)"/>
       <use xlink:href="#DejaVuSans-30" transform="translate(242.822266 0)"/>
      </g>
     </g>
    </g>
    <g id="ytick_4">
     <g id="line2d_19">
      <path d="M 62.57 203.470738 
L 423.30833 203.470738 
" clip-path="url(#p26256195d1)" style="fill: none; stroke: #b0b0b0; stroke-opacity: 0.3; stroke-width: 0.8; stroke-linecap: square"/>
     </g>
     <g id="line2d_20">
      <g>
       <use xlink:href="#m69298b5d33" x="62.57" y="203.470738" style="stroke: #000000; stroke-width: 0.8"/>
      </g>
     </g>
     <g id="text_11">
      <!-- −0.05 -->
      <g transform="translate(24.924688 207.269957) scale(0.1 -0.1)">
       <use xlink:href="#DejaVuSans-2212"/>
       <use xlink:href="#DejaVuSans-30" transform="translate(83.789062 0)"/>
       <use xlink:href="#DejaVuSans-2e" transform="translate(147.412109 0)"/>
       <use xlink:href="#DejaVuSans-30" transform="translate(179.199219 0)"/>
       <use xlink:href="#DejaVuSans-35" transform="translate(242.822266 0)"/>
      </g>
     </g>
    </g>
    <g id="ytick_5">
     <g id="line2d_21">
      <path d="M 62.57 168.744545 
L 423.30833 168.744545 
" clip-path="url(#p26256195d1)" style="fill: none; stroke: #b0b0b0; stroke-opacity: 0.3; stroke-width: 0.8; stroke-linecap: square"/>
     </g>
     <g id="line2d_22">
      <g>
       <use xlink:href="#m69298b5d33" x="62.57" y="168.744545" style="stroke: #000000; stroke-width: 0.8"/>
      </g>
     </g>
     <g id="text_12">
      <!-- 0.00 -->
      <g transform="translate(33.304375 172.543764) scale(0.1 -0.1)">
       <use xlink:href="#DejaVuSans-30"/>
       <use xlink:href="#DejaVuSans-2e" transform="translate(63.623047 0)"/>
       <use xlink:href="#DejaVuSans-30" transform="translate(95.410156 0)"/>
       <use xlink:href="#DejaVuSans-30" transform="translate(159.033203 0)"/>
      </g>
     </g>
    </g>
    <g id="ytick_6">
     <g id="line2d_23">
      <path d="M 62.57 134.018352 
L 423.30833 134.018352 
" clip-path="url(#p26256195d1)" style="fill: none; stroke: #b0b0b0; stroke-opacity: 0.3; stroke-width: 0.8; stroke-linecap: square"/>
     </g>
     <g id="line2d_24">
      <g>
       <use xlink:href="#m69298b5d33" x="62.57" y="134.018352" style="stroke: #000000; stroke-width: 0.8"/>
      </g>
     </g>
     <g id="text_13">
      <!-- 0.05 -->
      <g transform="translate(33.304375 137.817571) scale(0.1 -0.1)">
       <use xlink:href="#DejaVuSans-30"/>
       <use xlink:href="#DejaVuSans-2e" transform="translate(63.623047 0)"/>
       <use xlink:href="#DejaVuSans-30" transform="translate(95.410156 0)"/>
       <use xlink:href="#DejaVuSans-35" transform="translate(159.033203 0)"/>
      </g>
     </g>
    </g>
    <g id="ytick_7">
     <g id="line2d_25">
      <path d="M 62.57 99.292159 
L 423.30833 99.292159 
" clip-path="url(#p26256195d1)" style="fill: none; stroke: #b0b0b0; stroke-opacity: 0.3; stroke-width: 0.8; stroke-linecap: square"/>
     </g>
     <g id="line2d_26">
      <g>
       <use xlink:href="#m69298b5d33" x="62.57" y="99.292159" style="stroke: #000000; stroke-width: 0.8"/>
      </g>
     </g>
     <g id="text_14">
      <!-- 0.10 -->
      <g transform="translate(33.304375 103.091378) scale(0.1 -0.1)">
       <use xlink:href="#DejaVuSans-30"/>
       <use xlink:href="#DejaVuSans-2e" transform="translate(63.623047 0)"/>
       <use xlink:href="#DejaVuSans-31" transform="translate(95.410156 0)"/>
       <use xlink:href="#DejaVuSans-30" transform="translate(159.033203 0)"/>
      </g>
     </g>
    </g>
    <g id="ytick_8">
     <g id="line2d_27">
      <path d="M 62.57 64.565966 
L 423.30833 64.565966 
" clip-path="url(#p26256195d1)" style="fill: none; stroke: #b0b0b0; stroke-opacity: 0.3; stroke-width: 0.8; stroke-linecap: square"/>
     </g>
     <g id="line2d_28">
      <g>
       <use xlink:href="#m69298b5d33" x="62.57" y="64.565966" style="stroke: #000000; stroke-width: 0.8"/>
      </g>
     </g>
     <g id="text_15">
      <!-- 0.15 -->
      <g transform="translate(33.304375 68.365185) scale(0.1 -0.1)">
       <use xlink:href="#DejaVuSans-30"/>
       <use xlink:href="#DejaVuSans-2e" transform="translate(63.623047 0)"/>
       <use xlink:href="#DejaVuSans-31" transform="translate(95.410156 0)"/>
       <use xlink:href="#DejaVuSans-35" transform="translate(159.033203 0)"/>
      </g>
     </g>
    </g>
    <g id="ytick_9">
     <g id="line2d_29">
      <path d="M 62.57 29.839773 
L 423.30833 29.839773 
" clip-path="url(#p26256195d1)" style="fill: none; stroke: #b0b0b0; stroke-opacity: 0.3; stroke-width: 0.8; stroke-linecap: square"/>
     </g>
     <g id="line2d_30">
      <g>
       <use xlink:href="#m69298b5d33" x="62.57" y="29.839773" style="stroke: #000000; stroke-width: 0.8"/>
      </g>
     </g>
     <g id="text_16">
      <!-- 0.20 -->
      <g transform="translate(33.304375 33.638992) scale(0.1 -0.1)">
       <use xlink:href="#DejaVuSans-30"/>
       <use xlink:href="#DejaVuSans-2e" transform="translate(63.623047 0)"/>
       <use xlink:href="#DejaVuSans-32" transform="translate(95.410156 0)"/>
       <use xlink:href="#DejaVuSans-30" transform="translate(159.033203 0)"/>
      </g>
     </g>
    </g>
    <g id="text_17">
     <!-- H (Normalized) -->
     <g transform="translate(18.845 209.34625) rotate(-90) scale(0.1 -0.1)">
      <defs>
       <path id="DejaVuSans-48" d="M 628 4666 
L 1259 4666 
L 1259 2753 
L 3553 2753 
L 3553 4666 
L 4184 4666 
L 4184 0 
L 3553 0 
L 3553 2222 
L 1259 2222 
L 1259 0 
L 628 0 
L 628 4666 
z
" transform="scale(0.015625)"/>
       <path id="DejaVuSans-28" d="M 1984 4856 
Q 1566 4138 1362 3434 
Q 1159 2731 1159 2009 
Q 1159 1288 1364 580 
Q 1569 -128 1984 -844 
L 1484 -844 
Q 1016 -109 783 600 
Q 550 1309 550 2009 
Q 550 2706 781 3412 
Q 1013 4119 1484 4856 
L 1984 4856 
z
" transform="scale(0.015625)"/>
       <path id="DejaVuSans-4e" d="M 628 4666 
L 1478 4666 
L 3547 763 
L 3547 4666 
L 4159 4666 
L 4159 0 
L 3309 0 
L 1241 3903 
L 1241 0 
L 628 0 
L 628 4666 
z
" transform="scale(0.015625)"/>
       <path id="DejaVuSans-6f" d="M 1959 3097 
Q 1497 3097 1228 2736 
Q 959 2375 959 1747 
Q 959 1119 1226 758 
Q 1494 397 1959 397 
Q 2419 397 2687 759 
Q 2956 1122 2956 1747 
Q 2956 2369 2687 2733 
Q 2419 3097 1959 3097 
z
M 1959 3584 
Q 2709 3584 3137 3096 
Q 3566 2609 3566 1747 
Q 3566 888 3137 398 
Q 2709 -91 1959 -91 
Q 1206 -91 779 398 
Q 353 888 353 1747 
Q 353 2609 779 3096 
Q 1206 3584 1959 3584 
z
" transform="scale(0.015625)"/>
       <path id="DejaVuSans-72" d="M 2631 2963 
Q 2534 3019 2420 3045 
Q 2306 3072 2169 3072 
Q 1681 3072 1420 2755 
Q 1159 2438 1159 1844 
L 1159 0 
L 581 0 
L 581 3500 
L 1159 3500 
L 1159 2956 
Q 1341 3275 1631 3429 
Q 1922 3584 2338 3584 
Q 2397 3584 2469 3576 
Q 2541 3569 2628 3553 
L 2631 2963 
z
" transform="scale(0.015625)"/>
       <path id="DejaVuSans-61" d="M 2194 1759 
Q 1497 1759 1228 1600 
Q 959 1441 959 1056 
Q 959 750 1161 570 
Q 1363 391 1709 391 
Q 2188 391 2477 730 
Q 2766 1069 2766 1631 
L 2766 1759 
L 2194 1759 
z
M 3341 1997 
L 3341 0 
L 2766 0 
L 2766 531 
Q 2569 213 2275 61 
Q 1981 -91 1556 -91 
Q 1019 -91 701 211 
Q 384 513 384 1019 
Q 384 1609 779 1909 
Q 1175 2209 1959 2209 
L 2766 2209 
L 2766 2266 
Q 2766 2663 2505 2880 
Q 2244 3097 1772 3097 
Q 1472 3097 1187 3025 
Q 903 2953 641 2809 
L 641 3341 
Q 956 3463 1253 3523 
Q 1550 3584 1831 3584 
Q 2591 3584 2966 3190 
Q 3341 2797 3341 1997 
z
" transform="scale(0.015625)"/>
       <path id="DejaVuSans-6c" d="M 603 4863 
L 1178 4863 
L 1178 0 
L 603 0 
L 603 4863 
z
" transform="scale(0.015625)"/>
       <path id="DejaVuSans-7a" d="M 353 3500 
L 3084 3500 
L 3084 2975 
L 922 459 
L 3084 459 
L 3084 0 
L 275 0 
L 275 525 
L 2438 3041 
L 353 3041 
L 353 3500 
z
" transform="scale(0.015625)"/>
       <path id="DejaVuSans-64" d="M 2906 2969 
L 2906 4863 
L 3481 4863 
L 3481 0 
L 2906 0 
L 2906 525 
Q 2725 213 2448 61 
Q 2172 -91 1784 -91 
Q 1150 -91 751 415 
Q 353 922 353 1747 
Q 353 2572 751 3078 
Q 1150 3584 1784 3584 
Q 2172 3584 2448 3432 
Q 2725 3281 2906 2969 
z
M 947 1747 
Q 947 1113 1208 752 
Q 1469 391 1925 391 
Q 2381 391 2643 752 
Q 2906 1113 2906 1747 
Q 2906 2381 2643 2742 
Q 2381 3103 1925 3103 
Q 1469 3103 1208 2742 
Q 947 2381 947 1747 
z
" transform="scale(0.015625)"/>
       <path id="DejaVuSans-29" d="M 513 4856 
L 1013 4856 
Q 1481 4119 1714 3412 
Q 1947 2706 1947 2009 
Q 1947 1309 1714 600 
Q 1481 -109 1013 -844 
L 513 -844 
Q 928 -128 1133 580 
Q 1338 1288 1338 2009 
Q 1338 2731 1133 3434 
Q 928 4138 513 4856 
z
" transform="scale(0.015625)"/>
      </defs>
      <use xlink:href="#DejaVuSans-48"/>
      <use xlink:href="#DejaVuSans-20" transform="translate(75.195312 0)"/>
      <use xlink:href="#DejaVuSans-28" transform="translate(106.982422 0)"/>
      <use xlink:href="#DejaVuSans-4e" transform="translate(145.996094 0)"/>
      <use xlink:href="#DejaVuSans-6f" transform="translate(220.800781 0)"/>
      <use xlink:href="#DejaVuSans-72" transform="translate(281.982422 0)"/>
      <use xlink:href="#DejaVuSans-6d" transform="translate(321.345703 0)"/>
      <use xlink:href="#DejaVuSans-61" transform="translate(418.757812 0)"/>
      <use xlink:href="#DejaVuSans-6c" transform="translate(480.037109 0)"/>
      <use xlink:href="#DejaVuSans-69" transform="translate(507.820312 0)"/>
      <use xlink:href="#DejaVuSans-7a" transform="translate(535.603516 0)"/>
      <use xlink:href="#DejaVuSans-65" transform="translate(588.09375 0)"/>
      <use xlink:href="#DejaVuSans-64" transform="translate(649.617188 0)"/>
      <use xlink:href="#DejaVuSans-29" transform="translate(713.09375 0)"/>
     </g>
    </g>
   </g>
   <g id="line2d_31">
    <path d="M 78.967197 49.040198 
L 79.287768 50.596585 
L 79.608338 51.234459 
L 79.928909 50.806115 
L 80.24948 49.390581 
L 81.211192 42.996507 
L 81.531763 41.830502 
L 81.852334 41.808583 
L 82.172905 43.019337 
L 82.814047 48.233746 
L 83.455188 54.018138 
L 83.775759 55.89297 
L 84.09633 56.713238 
L 84.416901 56.487677 
L 84.737471 55.453222 
L 85.378613 52.624254 
L 85.699184 51.716825 
L 86.019755 51.574886 
L 86.340325 52.295305 
L 86.981467 55.758586 
L 87.622609 59.81528 
L 87.943179 61.258002 
L 88.26375 62.070912 
L 88.584321 62.259857 
L 88.904892 61.968113 
L 89.546033 60.918537 
L 89.866604 60.665292 
L 90.187175 60.828396 
L 90.507746 61.456665 
L 91.148888 63.785817 
L 91.790029 66.40155 
L 92.431171 68.031861 
L 92.751742 68.344252 
L 93.072312 68.404267 
L 93.713454 68.3098 
L 94.034025 68.436991 
L 94.354596 68.81244 
L 94.995737 70.349381 
L 96.27802 74.219727 
L 96.919162 75.137454 
L 98.201445 75.881045 
L 98.842587 76.987883 
L 100.766012 81.56063 
L 101.407153 82.216501 
L 102.048295 82.786546 
L 102.689437 83.73072 
L 103.651149 85.909012 
L 104.612861 87.946586 
L 105.254003 88.834553 
L 106.536286 90.376472 
L 107.177428 91.541348 
L 108.780282 94.840144 
L 109.741994 96.169852 
L 110.703707 97.453853 
L 111.665419 99.257881 
L 112.947702 101.699136 
L 115.512269 105.555687 
L 116.794552 107.994945 
L 118.076835 109.743951 
L 119.038548 111.20926 
L 121.603114 115.648384 
L 123.205968 118.080857 
L 126.091106 122.9113 
L 127.69396 125.423522 
L 129.937955 129.249336 
L 131.540809 131.68508 
L 134.105376 135.926526 
L 135.70823 138.434523 
L 137.631655 141.562174 
L 139.87565 145.077586 
L 143.401929 150.690718 
L 155.58362 169.873821 
L 167.124169 187.638224 
L 171.61216 194.536189 
L 178.023577 204.296414 
L 186.358418 216.833059 
L 191.16698 224.016167 
L 197.578396 233.524335 
L 203.0281 241.501906 
L 207.19552 247.55293 
L 219.377211 265.270724 
L 221.300636 268.03623 
L 222.90349 270.2942 
L 224.506344 272.600439 
L 226.109198 274.860376 
L 227.391481 276.657248 
L 228.994335 279.014529 
L 230.597189 281.165613 
L 232.200043 283.586904 
L 233.802897 285.688136 
L 235.405751 288.174782 
L 236.688034 289.651242 
L 237.649747 291.329771 
L 238.290888 292.387957 
L 238.93203 293.033882 
L 239.573172 293.541263 
L 239.893742 293.949818 
L 240.534884 295.289265 
L 241.176026 296.763831 
L 241.496597 297.082722 
L 241.817167 296.843541 
L 242.137738 295.923237 
L 242.77888 292.241764 
L 243.420021 287.894163 
L 243.740592 286.438888 
L 244.061163 285.903306 
L 244.381734 286.417062 
L 244.702305 287.886319 
L 245.664017 294.192 
L 245.984588 295.260277 
L 246.305159 295.172464 
L 246.625729 293.8583 
L 247.266871 288.525175 
L 247.908013 282.808416 
L 248.228583 281.035275 
L 248.549154 280.344154 
L 248.869725 280.704793 
L 249.510867 283.375966 
L 249.831438 284.78349 
L 250.152008 285.651841 
L 250.472579 285.701062 
L 250.79315 284.852509 
L 251.434292 281.13382 
L 252.075433 276.990782 
L 252.396004 275.598399 
L 252.716575 274.888319 
L 253.037146 274.832392 
L 253.357716 275.258655 
L 253.998858 276.473984 
L 254.319429 276.725728 
L 254.64 276.504183 
L 254.96057 275.776012 
L 255.601712 273.222127 
L 256.242854 270.507591 
L 256.563424 269.550475 
L 256.883995 268.977543 
L 257.204566 268.764535 
L 257.845708 268.954019 
L 258.166279 269.036098 
L 258.486849 268.912922 
L 258.80742 268.498384 
L 259.448562 266.805336 
L 260.410274 263.576485 
L 261.051416 262.286498 
L 261.371987 262.010805 
L 262.333699 261.720489 
L 262.65427 261.441298 
L 262.974841 260.949234 
L 263.615982 259.372118 
L 264.577695 256.674337 
L 265.218836 255.556788 
L 265.859978 255.018396 
L 266.50112 254.513996 
L 267.142261 253.537269 
L 268.103974 251.23787 
L 268.745115 249.77399 
L 269.386257 248.749459 
L 270.989111 246.890296 
L 271.630252 245.679873 
L 273.233107 242.340632 
L 274.194819 241.068553 
L 275.156531 239.805158 
L 276.118244 237.958977 
L 277.079956 236.019613 
L 278.041669 234.645884 
L 279.003381 233.424574 
L 279.965093 231.675102 
L 281.247377 229.219234 
L 282.52966 227.522082 
L 283.491372 226.03459 
L 285.735368 222.067452 
L 287.658793 219.161787 
L 290.54393 214.318878 
L 292.146784 211.83182 
L 294.39078 207.987416 
L 295.993634 205.570247 
L 298.23763 201.797353 
L 299.840484 199.354859 
L 302.084479 195.688853 
L 304.328475 192.160118 
L 311.060462 181.426099 
L 313.625028 177.322254 
L 323.883294 161.34548 
L 328.371285 154.49323 
L 354.01695 115.318337 
L 358.504941 108.583059 
L 361.069508 104.779683 
L 380.303756 76.475793 
L 381.90661 74.087765 
L 383.509464 71.797029 
L 384.791748 69.941042 
L 386.394602 67.556625 
L 387.997456 65.321299 
L 389.60031 62.926181 
L 391.203164 60.74021 
L 392.806018 58.29614 
L 394.408872 56.146909 
L 396.011726 53.660883 
L 397.61458 51.57146 
L 399.217434 49.026175 
L 400.499717 47.577699 
L 401.46143 45.839839 
L 402.102571 44.72528 
L 402.743713 44.075588 
L 403.384855 43.619705 
L 403.705425 43.236412 
L 404.346567 41.888737 
L 404.987709 40.297018 
L 405.308279 39.892933 
L 405.62885 40.048544 
L 405.949421 40.903834 
L 406.590563 44.561121 
L 406.911133 46.889818 
L 406.911133 46.889818 
" clip-path="url(#p26256195d1)" style="fill: none; stroke: #000000; stroke-opacity: 0.6; stroke-width: 1.5; stroke-linecap: square"/>
   </g>
   <g id="line2d_32">
    <path d="M 78.967197 65.810372 
L 79.287768 68.340485 
L 79.608338 64.628523 
L 79.928909 65.014486 
L 80.24948 68.023426 
L 80.570051 66.334456 
L 80.890622 61.380164 
L 81.211192 61.884326 
L 81.531763 56.373639 
L 81.852334 58.323576 
L 82.172905 58.002636 
L 82.493476 60.601158 
L 82.814047 68.521441 
L 83.134617 70.946686 
L 83.455188 70.38077 
L 83.775759 72.787831 
L 84.09633 73.882188 
L 84.416901 76.342413 
L 86.019755 68.205076 
L 86.340325 68.49948 
L 86.660896 70.972993 
L 86.981467 70.89109 
L 87.622609 66.601134 
L 87.943179 68.498911 
L 88.26375 67.679915 
L 88.584321 68.202447 
L 88.904892 70.338659 
L 89.225463 69.773395 
L 89.546033 71.9586 
L 90.187175 73.768709 
L 90.507746 72.462742 
L 90.828317 73.630919 
L 91.148888 74.331737 
L 91.469458 74.232767 
L 91.790029 76.958284 
L 92.751742 79.423487 
L 93.072312 80.619784 
L 93.392883 80.415231 
L 93.713454 81.308948 
L 94.354596 84.596986 
L 94.675166 85.448954 
L 94.995737 87.450708 
L 95.636879 87.276883 
L 96.598591 88.470623 
L 97.239733 89.640146 
L 98.201445 92.128009 
L 99.163158 94.573683 
L 100.12487 96.306674 
L 101.086583 97.962641 
L 102.048295 100.173745 
L 103.651149 103.961329 
L 104.292291 104.959122 
L 105.574574 106.698452 
L 106.536286 108.437901 
L 108.13914 111.396022 
L 110.703707 115.502025 
L 112.627132 118.835118 
L 114.871127 122.478155 
L 117.756265 127.2651 
L 120.641402 131.829014 
L 131.220239 147.531962 
L 141.157934 164.724554 
L 145.004783 171.504395 
L 158.148186 193.793255 
L 162.636178 201.90594 
L 168.727023 212.029534 
L 181.229285 231.81494 
L 182.832139 234.373757 
L 189.564126 248.270265 
L 191.48755 251.741359 
L 194.052117 256.015724 
L 198.540108 260.021779 
L 204.951524 265.515741 
L 210.721799 270.08792 
L 215.530361 273.776565 
L 228.032623 285.402063 
L 230.597189 288.063073 
L 236.688034 294.585043 
L 238.290888 296.790522 
L 242.77888 303.665835 
L 243.420021 304.398435 
L 244.061163 304.74 
L 244.381734 304.691379 
L 244.702305 304.485471 
L 245.343446 303.703361 
L 246.305159 302.378786 
L 246.9463 301.962292 
L 247.587442 301.955834 
L 248.228583 302.001454 
L 248.869725 301.721466 
L 249.510867 301.038315 
L 250.472579 299.908739 
L 251.113721 299.539438 
L 252.396004 299.274685 
L 253.037146 298.718539 
L 254.96057 296.131774 
L 255.601712 295.863833 
L 256.563424 295.643353 
L 257.204566 295.111528 
L 257.845708 294.162919 
L 259.127991 292.096927 
L 259.769133 291.508512 
L 261.371987 290.579525 
L 262.013128 289.863008 
L 263.615982 287.819018 
L 264.577695 287.093952 
L 265.539407 286.381078 
L 266.50112 285.325955 
L 267.783403 283.855932 
L 270.989111 280.79359 
L 272.591965 279.122306 
L 274.51539 277.258909 
L 277.079956 274.635395 
L 279.644523 272.118311 
L 290.223359 261.528935 
L 290.54393 261.203784 
L 292.146784 258.13725 
L 295.673063 251.005913 
L 305.290187 229.428541 
L 308.175325 223.155594 
L 319.715874 202.942776 
L 321.318728 200.029757 
L 323.242153 196.076513 
L 335.423843 169.249814 
L 350.1701 139.313482 
L 365.557499 111.28795 
L 377.098048 90.79621 
L 384.150606 79.59606 
L 385.75346 77.561447 
L 387.676885 75.431372 
L 390.241451 72.81091 
L 390.562022 71.380566 
L 390.882593 71.127114 
L 391.523735 70.117186 
L 391.844305 70.809848 
L 392.485447 69.374744 
L 392.806018 69.856293 
L 393.126589 69.103946 
L 393.44716 67.662053 
L 393.76773 67.89729 
L 394.088301 67.657644 
L 394.408872 65.79106 
L 394.729443 65.453862 
L 395.050014 65.622927 
L 395.370584 64.039663 
L 395.691155 61.704746 
L 396.332297 62.489279 
L 396.973438 59.381462 
L 397.61458 54.402715 
L 397.935151 54.102287 
L 398.255722 54.726024 
L 398.576292 52.671819 
L 398.896863 54.89543 
L 399.217434 53.991654 
L 399.538005 52.7148 
L 399.858576 50.717164 
L 400.179146 54.301241 
L 400.499717 54.09554 
L 400.820288 52.162141 
L 401.140859 52.91989 
L 401.46143 53.182429 
L 401.782001 51.787189 
L 402.102571 49.552857 
L 402.423142 51.686616 
L 403.384855 47.133211 
L 403.705425 42.201232 
L 404.025996 41.629386 
L 404.346567 42.724623 
L 404.667138 42.36387 
L 404.987709 39.894579 
L 405.308279 41.508352 
L 405.62885 42.342147 
L 405.949421 38.74 
L 406.269992 46.607761 
L 406.590563 45.714717 
L 406.911133 43.124547 
L 406.911133 43.124547 
" clip-path="url(#p26256195d1)" style="fill: none; stroke-dasharray: 5.55,2.4; stroke-dashoffset: 0; stroke: #1f77b4; stroke-width: 1.5"/>
   </g>
   <g id="line2d_33">
    <path d="M 78.967197 102.142952 
L 79.287768 102.811563 
L 79.608338 102.965031 
L 79.928909 102.561334 
L 80.570051 100.534912 
L 81.211192 98.498715 
L 81.531763 98.114588 
L 81.852334 98.341339 
L 82.172905 99.157861 
L 83.455188 104.310625 
L 83.775759 104.901493 
L 84.09633 104.985094 
L 84.416901 104.645365 
L 85.378613 103.006174 
L 85.699184 102.894698 
L 86.019755 103.163824 
L 86.660896 104.605495 
L 87.302038 106.307076 
L 87.622609 106.902849 
L 87.943179 107.23656 
L 88.26375 107.324766 
L 89.546033 107.013493 
L 89.866604 107.208405 
L 90.507746 108.050261 
L 91.469458 109.528408 
L 92.1106 110.052156 
L 93.713454 110.60364 
L 94.354596 111.228007 
L 95.95745 113.091512 
L 96.598591 113.472281 
L 97.880875 114.069006 
L 98.522016 114.645126 
L 100.12487 116.332208 
L 101.086583 116.854962 
L 102.048295 117.415217 
L 103.010007 118.369057 
L 103.97172 119.336222 
L 104.933432 119.971979 
L 106.215716 120.798855 
L 109.421424 123.47913 
L 110.703707 124.416143 
L 113.268273 126.527827 
L 114.550557 127.407456 
L 117.435694 129.722303 
L 118.717977 130.633039 
L 120.961973 132.462394 
L 122.885398 133.836738 
L 126.091106 136.318632 
L 128.01453 137.771263 
L 129.937955 139.272592 
L 131.86138 140.667679 
L 133.784805 142.143453 
L 135.387659 143.278811 
L 137.631655 144.98329 
L 139.55508 146.389018 
L 143.081358 149.006588 
L 151.095629 154.941257 
L 159.43047 161.048827 
L 197.257825 187.618347 
L 206.554378 193.925883 
L 214.568649 199.287359 
L 219.377211 202.479781 
L 226.750339 207.297116 
L 242.77888 217.756415 
L 247.587442 220.846892 
L 249.190296 221.820204 
L 250.79315 222.859306 
L 252.396004 223.849747 
L 253.998858 224.874567 
L 255.601712 225.852852 
L 256.883995 226.644769 
L 258.486849 227.675638 
L 260.089703 228.617085 
L 261.692557 229.661036 
L 262.974841 230.323686 
L 265.218836 231.805031 
L 266.180549 232.285519 
L 268.424544 233.785658 
L 269.386257 234.220821 
L 270.347969 235.036231 
L 270.989111 235.5387 
L 271.630252 235.768903 
L 272.271394 235.908897 
L 272.912536 236.360723 
L 273.874248 237.493382 
L 274.194819 237.620087 
L 274.51539 237.423504 
L 274.835961 236.843151 
L 275.477102 234.705837 
L 276.118244 232.348261 
L 276.438815 231.618885 
L 276.759385 231.40063 
L 277.079956 231.726537 
L 277.721098 233.536123 
L 278.362239 235.277905 
L 278.68281 235.501567 
L 279.003381 235.118041 
L 279.323952 234.157655 
L 280.606235 228.635212 
L 280.926806 227.986316 
L 281.247377 227.840299 
L 281.567948 228.103278 
L 282.52966 229.380567 
L 282.850231 229.336661 
L 283.170802 228.909461 
L 283.811943 227.18462 
L 284.453085 225.278502 
L 284.773656 224.604572 
L 285.094226 224.197739 
L 285.414797 224.031582 
L 286.37651 224.043086 
L 286.69708 223.881405 
L 287.017651 223.544124 
L 287.658793 222.432702 
L 288.620505 220.636172 
L 289.261647 219.92636 
L 290.864501 218.807574 
L 291.505643 217.938732 
L 293.108497 215.516592 
L 294.070209 214.691972 
L 295.031921 213.889562 
L 295.993634 212.59056 
L 297.275917 210.81042 
L 298.23763 209.982199 
L 299.199342 209.070324 
L 302.084479 205.547641 
L 303.046192 204.615304 
L 304.649046 202.60913 
L 305.931329 201.159462 
L 308.175325 198.763045 
L 310.098749 196.514803 
L 312.022174 194.550333 
L 313.945599 192.267178 
L 315.869024 190.346349 
L 317.792449 188.117019 
L 320.036444 185.762845 
L 323.883294 181.579609 
L 325.486148 179.796453 
L 327.089002 178.011582 
L 329.012427 175.996202 
L 330.615281 174.186799 
L 332.538706 172.200265 
L 334.462131 170.087388 
L 336.385556 168.045043 
L 340.873547 163.242553 
L 363.634074 139.51844 
L 365.557499 137.548718 
L 369.404349 133.569941 
L 393.126589 109.714891 
L 394.408872 108.51136 
L 396.011726 106.819957 
L 397.61458 105.414565 
L 399.217434 103.675266 
L 400.499717 102.699952 
L 401.46143 101.520297 
L 402.102571 100.767914 
L 402.743713 100.321692 
L 403.384855 99.995552 
L 404.025996 99.343154 
L 405.308279 97.527876 
L 405.62885 97.574204 
L 405.949421 98.015758 
L 406.590563 99.932251 
L 406.911133 101.110478 
L 406.911133 101.110478 
" clip-path="url(#p26256195d1)" style="fill: none; stroke: #000000; stroke-opacity: 0.6; stroke-width: 1.5; stroke-linecap: square"/>
   </g>
   <g id="line2d_34">
    <path d="M 78.967197 112.869429 
L 79.287768 112.655686 
L 79.928909 112.641156 
L 80.24948 112.745782 
L 81.211192 113.630779 
L 81.852334 114.144089 
L 82.493476 114.460403 
L 84.09633 114.515062 
L 84.416901 114.573696 
L 85.058042 115.092346 
L 86.340325 116.185782 
L 86.981467 116.424787 
L 87.943179 116.65635 
L 88.904892 117.19749 
L 90.187175 118.261777 
L 93.072312 120.094514 
L 94.034025 120.888562 
L 97.880875 123.619052 
L 99.804299 125.057535 
L 102.048295 126.689622 
L 104.933432 128.789518 
L 117.115123 137.630741 
L 127.69396 145.094495 
L 147.56935 159.100228 
L 162.315607 169.443981 
L 182.511568 183.243801 
L 186.037847 185.515639 
L 203.0281 194.985375 
L 206.874949 197.159238 
L 215.530361 202.520461 
L 236.046893 214.51156 
L 247.587442 221.044101 
L 249.190296 222.018925 
L 256.242854 226.624986 
L 266.180549 233.270888 
L 267.783403 234.116807 
L 271.950823 236.189495 
L 276.118244 238.796917 
L 276.759385 238.831457 
L 277.400527 238.442601 
L 278.362239 237.269741 
L 279.003381 236.528535 
L 279.644523 236.094903 
L 281.567948 235.451032 
L 282.52966 234.459681 
L 283.491372 233.570787 
L 284.453085 233.11137 
L 285.414797 232.573475 
L 286.37651 231.676716 
L 287.658793 230.480156 
L 290.223359 228.482639 
L 291.826213 227.072041 
L 294.39078 225.049733 
L 296.955346 222.770184 
L 299.199342 220.797759 
L 301.763908 218.593843 
L 313.945599 208.0336 
L 327.409573 196.346447 
L 340.873547 184.408657 
L 358.825512 166.129361 
L 362.672362 162.15428 
L 371.007203 152.521922 
L 394.408872 125.387618 
L 399.538005 119.991591 
L 400.179146 119.406358 
L 403.064284 116.668619 
L 404.025996 115.624151 
L 406.911133 112.083851 
L 406.911133 112.083851 
" clip-path="url(#p26256195d1)" style="fill: none; stroke-dasharray: 5.55,2.4; stroke-dashoffset: 0; stroke: #ff7f0e; stroke-width: 1.5"/>
   </g>
   <g id="patch_3">
    <path d="M 62.57 318.04 
L 62.57 25.44 
" style="fill: none; stroke: #000000; stroke-width: 0.8; stroke-linejoin: miter; stroke-linecap: square"/>
   </g>
   <g id="patch_4">
    <path d="M 423.30833 318.04 
L 423.30833 25.44 
" style="fill: none; stroke: #000000; stroke-width: 0.8; stroke-linejoin: miter; stroke-linecap: square"/>
   </g>
   <g id="patch_5">
    <path d="M 62.57 318.04 
L 423.30833 318.04 
" style="fill: none; stroke: #000000; stroke-width: 0.8; stroke-linejoin: miter; stroke-linecap: square"/>
   </g>
   <g id="patch_6">
    <path d="M 62.57 25.44 
L 423.30833 25.44 
" style="fill: none; stroke: #000000; stroke-width: 0.8; stroke-linejoin: miter; stroke-linecap: square"/>
   </g>
   <g id="text_18">
    <!-- H Waveform (Ep 1087) -->
    <g transform="translate(174.69479 19.44) scale(0.12 -0.12)">
     <defs>
      <path id="DejaVuSans-57" d="M 213 4666 
L 850 4666 
L 1831 722 
L 2809 4666 
L 3519 4666 
L 4500 722 
L 5478 4666 
L 6119 4666 
L 4947 0 
L 4153 0 
L 3169 4050 
L 2175 0 
L 1381 0 
L 213 4666 
z
" transform="scale(0.015625)"/>
      <path id="DejaVuSans-76" d="M 191 3500 
L 800 3500 
L 1894 563 
L 2988 3500 
L 3597 3500 
L 2284 0 
L 1503 0 
L 191 3500 
z
" transform="scale(0.015625)"/>
      <path id="DejaVuSans-66" d="M 2375 4863 
L 2375 4384 
L 1825 4384 
Q 1516 4384 1395 4259 
Q 1275 4134 1275 3809 
L 1275 3500 
L 2222 3500 
L 2222 3053 
L 1275 3053 
L 1275 0 
L 697 0 
L 697 3053 
L 147 3053 
L 147 3500 
L 697 3500 
L 697 3744 
Q 697 4328 969 4595 
Q 1241 4863 1831 4863 
L 2375 4863 
z
" transform="scale(0.015625)"/>
      <path id="DejaVuSans-45" d="M 628 4666 
L 3578 4666 
L 3578 4134 
L 1259 4134 
L 1259 2753 
L 3481 2753 
L 3481 2222 
L 1259 2222 
L 1259 531 
L 3634 531 
L 3634 0 
L 628 0 
L 628 4666 
z
" transform="scale(0.015625)"/>
      <path id="DejaVuSans-37" d="M 525 4666 
L 3525 4666 
L 3525 4397 
L 1831 0 
L 1172 0 
L 2766 4134 
L 525 4134 
L 525 4666 
z
" transform="scale(0.015625)"/>
     </defs>
     <use xlink:href="#DejaVuSans-48"/>
     <use xlink:href="#DejaVuSans-20" transform="translate(75.195312 0)"/>
     <use xlink:href="#DejaVuSans-57" transform="translate(106.982422 0)"/>
     <use xlink:href="#DejaVuSans-61" transform="translate(199.484375 0)"/>
     <use xlink:href="#DejaVuSans-76" transform="translate(260.763672 0)"/>
     <use xlink:href="#DejaVuSans-65" transform="translate(319.943359 0)"/>
     <use xlink:href="#DejaVuSans-66" transform="translate(381.466797 0)"/>
     <use xlink:href="#DejaVuSans-6f" transform="translate(416.671875 0)"/>
     <use xlink:href="#DejaVuSans-72" transform="translate(477.853516 0)"/>
     <use xlink:href="#DejaVuSans-6d" transform="translate(517.216797 0)"/>
     <use xlink:href="#DejaVuSans-20" transform="translate(614.628906 0)"/>
     <use xlink:href="#DejaVuSans-28" transform="translate(646.416016 0)"/>
     <use xlink:href="#DejaVuSans-45" transform="translate(685.429688 0)"/>
     <use xlink:href="#DejaVuSans-70" transform="translate(748.613281 0)"/>
     <use xlink:href="#DejaVuSans-20" transform="translate(812.089844 0)"/>
     <use xlink:href="#DejaVuSans-31" transform="translate(843.876953 0)"/>
     <use xlink:href="#DejaVuSans-30" transform="translate(907.5 0)"/>
     <use xlink:href="#DejaVuSans-38" transform="translate(971.123047 0)"/>
     <use xlink:href="#DejaVuSans-37" transform="translate(1034.746094 0)"/>
     <use xlink:href="#DejaVuSans-29" transform="translate(1098.369141 0)"/>
    </g>
   </g>
   <g id="legend_1">
    <g id="patch_7">
     <path d="M 69.57 313.04 
L 132.51375 313.04 
Q 134.51375 313.04 134.51375 311.04 
L 134.51375 282.68375 
Q 134.51375 280.68375 132.51375 280.68375 
L 69.57 280.68375 
Q 67.57 280.68375 67.57 282.68375 
L 67.57 311.04 
Q 67.57 313.04 69.57 313.04 
z
" style="fill: #ffffff; opacity: 0.8; stroke: #cccccc; stroke-linejoin: miter"/>
    </g>
    <g id="line2d_35">
     <path d="M 71.57 288.782188 
L 81.57 288.782188 
L 91.57 288.782188 
" style="fill: none; stroke: #000000; stroke-opacity: 0.6; stroke-width: 1.5; stroke-linecap: square"/>
    </g>
    <g id="text_19">
     <!-- Target -->
     <g transform="translate(99.57 292.282188) scale(0.1 -0.1)">
      <defs>
       <path id="DejaVuSans-67" d="M 2906 1791 
Q 2906 2416 2648 2759 
Q 2391 3103 1925 3103 
Q 1463 3103 1205 2759 
Q 947 2416 947 1791 
Q 947 1169 1205 825 
Q 1463 481 1925 481 
Q 2391 481 2648 825 
Q 2906 1169 2906 1791 
z
M 3481 434 
Q 3481 -459 3084 -895 
Q 2688 -1331 1869 -1331 
Q 1566 -1331 1297 -1286 
Q 1028 -1241 775 -1147 
L 775 -588 
Q 1028 -725 1275 -790 
Q 1522 -856 1778 -856 
Q 2344 -856 2625 -561 
Q 2906 -266 2906 331 
L 2906 616 
Q 2728 306 2450 153 
Q 2172 0 1784 0 
Q 1141 0 747 490 
Q 353 981 353 1791 
Q 353 2603 747 3093 
Q 1141 3584 1784 3584 
Q 2172 3584 2450 3431 
Q 2728 3278 2906 2969 
L 2906 3500 
L 3481 3500 
L 3481 434 
z
" transform="scale(0.015625)"/>
      </defs>
      <use xlink:href="#DejaVuSans-54"/>
      <use xlink:href="#DejaVuSans-61" transform="translate(44.583984 0)"/>
      <use xlink:href="#DejaVuSans-72" transform="translate(105.863281 0)"/>
      <use xlink:href="#DejaVuSans-67" transform="translate(145.226562 0)"/>
      <use xlink:href="#DejaVuSans-65" transform="translate(208.703125 0)"/>
      <use xlink:href="#DejaVuSans-74" transform="translate(270.226562 0)"/>
     </g>
    </g>
    <g id="line2d_36">
     <path d="M 71.57 303.460313 
L 81.57 303.460313 
L 91.57 303.460313 
" style="fill: none; stroke-dasharray: 5.55,2.4; stroke-dashoffset: 0; stroke: #1f77b4; stroke-width: 1.5"/>
    </g>
    <g id="text_20">
     <!-- Pred -->
     <g transform="translate(99.57 306.960313) scale(0.1 -0.1)">
      <defs>
       <path id="DejaVuSans-50" d="M 1259 4147 
L 1259 2394 
L 2053 2394 
Q 2494 2394 2734 2622 
Q 2975 2850 2975 3272 
Q 2975 3691 2734 3919 
Q 2494 4147 2053 4147 
L 1259 4147 
z
M 628 4666 
L 2053 4666 
Q 2838 4666 3239 4311 
Q 3641 3956 3641 3272 
Q 3641 2581 3239 2228 
Q 2838 1875 2053 1875 
L 1259 1875 
L 1259 0 
L 628 0 
L 628 4666 
z
" transform="scale(0.015625)"/>
      </defs>
      <use xlink:href="#DejaVuSans-50"/>
      <use xlink:href="#DejaVuSans-72" transform="translate(58.552734 0)"/>
      <use xlink:href="#DejaVuSans-65" transform="translate(97.416016 0)"/>
      <use xlink:href="#DejaVuSans-64" transform="translate(158.939453 0)"/>
     </g>
    </g>
   </g>
  </g>
  <g id="axes_2">
   <g id="patch_8">
    <path d="M 485.87833 318.04 
L 846.616661 318.04 
L 846.616661 25.44 
L 485.87833 25.44 
z
" style="fill: #ffffff"/>
   </g>
   <g id="matplotlib.axis_3">
    <g id="xtick_7">
     <g id="line2d_37">
      <path d="M 498.688712 318.04 
L 498.688712 25.44 
" clip-path="url(#pe30ff32906)" style="fill: none; stroke: #b0b0b0; stroke-opacity: 0.3; stroke-width: 0.8; stroke-linecap: square"/>
     </g>
     <g id="line2d_38">
      <g>
       <use xlink:href="#mf141966aa3" x="498.688712" y="318.04" style="stroke: #000000; stroke-width: 0.8"/>
      </g>
     </g>
     <g id="text_21">
      <!-- −0.20 -->
      <g transform="translate(483.366056 332.638438) scale(0.1 -0.1)">
       <use xlink:href="#DejaVuSans-2212"/>
       <use xlink:href="#DejaVuSans-30" transform="translate(83.789062 0)"/>
       <use xlink:href="#DejaVuSans-2e" transform="translate(147.412109 0)"/>
       <use xlink:href="#DejaVuSans-32" transform="translate(179.199219 0)"/>
       <use xlink:href="#DejaVuSans-30" transform="translate(242.822266 0)"/>
      </g>
     </g>
    </g>
    <g id="xtick_8">
     <g id="line2d_39">
      <path d="M 541.501661 318.04 
L 541.501661 25.44 
" clip-path="url(#pe30ff32906)" style="fill: none; stroke: #b0b0b0; stroke-opacity: 0.3; stroke-width: 0.8; stroke-linecap: square"/>
     </g>
     <g id="line2d_40">
      <g>
       <use xlink:href="#mf141966aa3" x="541.501661" y="318.04" style="stroke: #000000; stroke-width: 0.8"/>
      </g>
     </g>
     <g id="text_22">
      <!-- −0.15 -->
      <g transform="translate(526.179005 332.638438) scale(0.1 -0.1)">
       <use xlink:href="#DejaVuSans-2212"/>
       <use xlink:href="#DejaVuSans-30" transform="translate(83.789062 0)"/>
       <use xlink:href="#DejaVuSans-2e" transform="translate(147.412109 0)"/>
       <use xlink:href="#DejaVuSans-31" transform="translate(179.199219 0)"/>
       <use xlink:href="#DejaVuSans-35" transform="translate(242.822266 0)"/>
      </g>
     </g>
    </g>
    <g id="xtick_9">
     <g id="line2d_41">
      <path d="M 584.31461 318.04 
L 584.31461 25.44 
" clip-path="url(#pe30ff32906)" style="fill: none; stroke: #b0b0b0; stroke-opacity: 0.3; stroke-width: 0.8; stroke-linecap: square"/>
     </g>
     <g id="line2d_42">
      <g>
       <use xlink:href="#mf141966aa3" x="584.31461" y="318.04" style="stroke: #000000; stroke-width: 0.8"/>
      </g>
     </g>
     <g id="text_23">
      <!-- −0.10 -->
      <g transform="translate(568.991954 332.638438) scale(0.1 -0.1)">
       <use xlink:href="#DejaVuSans-2212"/>
       <use xlink:href="#DejaVuSans-30" transform="translate(83.789062 0)"/>
       <use xlink:href="#DejaVuSans-2e" transform="translate(147.412109 0)"/>
       <use xlink:href="#DejaVuSans-31" transform="translate(179.199219 0)"/>
       <use xlink:href="#DejaVuSans-30" transform="translate(242.822266 0)"/>
      </g>
     </g>
    </g>
    <g id="xtick_10">
     <g id="line2d_43">
      <path d="M 627.127559 318.04 
L 627.127559 25.44 
" clip-path="url(#pe30ff32906)" style="fill: none; stroke: #b0b0b0; stroke-opacity: 0.3; stroke-width: 0.8; stroke-linecap: square"/>
     </g>
     <g id="line2d_44">
      <g>
       <use xlink:href="#mf141966aa3" x="627.127559" y="318.04" style="stroke: #000000; stroke-width: 0.8"/>
      </g>
     </g>
     <g id="text_24">
      <!-- −0.05 -->
      <g transform="translate(611.804903 332.638438) scale(0.1 -0.1)">
       <use xlink:href="#DejaVuSans-2212"/>
       <use xlink:href="#DejaVuSans-30" transform="translate(83.789062 0)"/>
       <use xlink:href="#DejaVuSans-2e" transform="translate(147.412109 0)"/>
       <use xlink:href="#DejaVuSans-30" transform="translate(179.199219 0)"/>
       <use xlink:href="#DejaVuSans-35" transform="translate(242.822266 0)"/>
      </g>
     </g>
    </g>
    <g id="xtick_11">
     <g id="line2d_45">
      <path d="M 669.940508 318.04 
L 669.940508 25.44 
" clip-path="url(#pe30ff32906)" style="fill: none; stroke: #b0b0b0; stroke-opacity: 0.3; stroke-width: 0.8; stroke-linecap: square"/>
     </g>
     <g id="line2d_46">
      <g>
       <use xlink:href="#mf141966aa3" x="669.940508" y="318.04" style="stroke: #000000; stroke-width: 0.8"/>
      </g>
     </g>
     <g id="text_25">
      <!-- 0.00 -->
      <g transform="translate(658.807696 332.638438) scale(0.1 -0.1)">
       <use xlink:href="#DejaVuSans-30"/>
       <use xlink:href="#DejaVuSans-2e" transform="translate(63.623047 0)"/>
       <use xlink:href="#DejaVuSans-30" transform="translate(95.410156 0)"/>
       <use xlink:href="#DejaVuSans-30" transform="translate(159.033203 0)"/>
      </g>
     </g>
    </g>
    <g id="xtick_12">
     <g id="line2d_47">
      <path d="M 712.753457 318.04 
L 712.753457 25.44 
" clip-path="url(#pe30ff32906)" style="fill: none; stroke: #b0b0b0; stroke-opacity: 0.3; stroke-width: 0.8; stroke-linecap: square"/>
     </g>
     <g id="line2d_48">
      <g>
       <use xlink:href="#mf141966aa3" x="712.753457" y="318.04" style="stroke: #000000; stroke-width: 0.8"/>
      </g>
     </g>
     <g id="text_26">
      <!-- 0.05 -->
      <g transform="translate(701.620645 332.638438) scale(0.1 -0.1)">
       <use xlink:href="#DejaVuSans-30"/>
       <use xlink:href="#DejaVuSans-2e" transform="translate(63.623047 0)"/>
       <use xlink:href="#DejaVuSans-30" transform="translate(95.410156 0)"/>
       <use xlink:href="#DejaVuSans-35" transform="translate(159.033203 0)"/>
      </g>
     </g>
    </g>
    <g id="xtick_13">
     <g id="line2d_49">
      <path d="M 755.566406 318.04 
L 755.566406 25.44 
" clip-path="url(#pe30ff32906)" style="fill: none; stroke: #b0b0b0; stroke-opacity: 0.3; stroke-width: 0.8; stroke-linecap: square"/>
     </g>
     <g id="line2d_50">
      <g>
       <use xlink:href="#mf141966aa3" x="755.566406" y="318.04" style="stroke: #000000; stroke-width: 0.8"/>
      </g>
     </g>
     <g id="text_27">
      <!-- 0.10 -->
      <g transform="translate(744.433594 332.638438) scale(0.1 -0.1)">
       <use xlink:href="#DejaVuSans-30"/>
       <use xlink:href="#DejaVuSans-2e" transform="translate(63.623047 0)"/>
       <use xlink:href="#DejaVuSans-31" transform="translate(95.410156 0)"/>
       <use xlink:href="#DejaVuSans-30" transform="translate(159.033203 0)"/>
      </g>
     </g>
    </g>
    <g id="xtick_14">
     <g id="line2d_51">
      <path d="M 798.379355 318.04 
L 798.379355 25.44 
" clip-path="url(#pe30ff32906)" style="fill: none; stroke: #b0b0b0; stroke-opacity: 0.3; stroke-width: 0.8; stroke-linecap: square"/>
     </g>
     <g id="line2d_52">
      <g>
       <use xlink:href="#mf141966aa3" x="798.379355" y="318.04" style="stroke: #000000; stroke-width: 0.8"/>
      </g>
     </g>
     <g id="text_28">
      <!-- 0.15 -->
      <g transform="translate(787.246543 332.638438) scale(0.1 -0.1)">
       <use xlink:href="#DejaVuSans-30"/>
       <use xlink:href="#DejaVuSans-2e" transform="translate(63.623047 0)"/>
       <use xlink:href="#DejaVuSans-31" transform="translate(95.410156 0)"/>
       <use xlink:href="#DejaVuSans-35" transform="translate(159.033203 0)"/>
      </g>
     </g>
    </g>
    <g id="xtick_15">
     <g id="line2d_53">
      <path d="M 841.192304 318.04 
L 841.192304 25.44 
" clip-path="url(#pe30ff32906)" style="fill: none; stroke: #b0b0b0; stroke-opacity: 0.3; stroke-width: 0.8; stroke-linecap: square"/>
     </g>
     <g id="line2d_54">
      <g>
       <use xlink:href="#mf141966aa3" x="841.192304" y="318.04" style="stroke: #000000; stroke-width: 0.8"/>
      </g>
     </g>
     <g id="text_29">
      <!-- 0.20 -->
      <g transform="translate(830.059491 332.638438) scale(0.1 -0.1)">
       <use xlink:href="#DejaVuSans-30"/>
       <use xlink:href="#DejaVuSans-2e" transform="translate(63.623047 0)"/>
       <use xlink:href="#DejaVuSans-32" transform="translate(95.410156 0)"/>
       <use xlink:href="#DejaVuSans-30" transform="translate(159.033203 0)"/>
      </g>
     </g>
    </g>
    <g id="text_30">
     <!-- H (Normalized) -->
     <g transform="translate(628.641245 346.316563) scale(0.1 -0.1)">
      <use xlink:href="#DejaVuSans-48"/>
      <use xlink:href="#DejaVuSans-20" transform="translate(75.195312 0)"/>
      <use xlink:href="#DejaVuSans-28" transform="translate(106.982422 0)"/>
      <use xlink:href="#DejaVuSans-4e" transform="translate(145.996094 0)"/>
      <use xlink:href="#DejaVuSans-6f" transform="translate(220.800781 0)"/>
      <use xlink:href="#DejaVuSans-72" transform="translate(281.982422 0)"/>
      <use xlink:href="#DejaVuSans-6d" transform="translate(321.345703 0)"/>
      <use xlink:href="#DejaVuSans-61" transform="translate(418.757812 0)"/>
      <use xlink:href="#DejaVuSans-6c" transform="translate(480.037109 0)"/>
      <use xlink:href="#DejaVuSans-69" transform="translate(507.820312 0)"/>
      <use xlink:href="#DejaVuSans-7a" transform="translate(535.603516 0)"/>
      <use xlink:href="#DejaVuSans-65" transform="translate(588.09375 0)"/>
      <use xlink:href="#DejaVuSans-64" transform="translate(649.617188 0)"/>
      <use xlink:href="#DejaVuSans-29" transform="translate(713.09375 0)"/>
     </g>
    </g>
   </g>
   <g id="matplotlib.axis_4">
    <g id="ytick_10">
     <g id="line2d_55">
      <path d="M 485.87833 306.634138 
L 846.616661 306.634138 
" clip-path="url(#pe30ff32906)" style="fill: none; stroke: #b0b0b0; stroke-opacity: 0.3; stroke-width: 0.8; stroke-linecap: square"/>
     </g>
     <g id="line2d_56">
      <g>
       <use xlink:href="#m69298b5d33" x="485.87833" y="306.634138" style="stroke: #000000; stroke-width: 0.8"/>
      </g>
     </g>
     <g id="text_31">
      <!-- −0.20 -->
      <g transform="translate(448.233018 310.433357) scale(0.1 -0.1)">
       <use xlink:href="#DejaVuSans-2212"/>
       <use xlink:href="#DejaVuSans-30" transform="translate(83.789062 0)"/>
       <use xlink:href="#DejaVuSans-2e" transform="translate(147.412109 0)"/>
       <use xlink:href="#DejaVuSans-32" transform="translate(179.199219 0)"/>
       <use xlink:href="#DejaVuSans-30" transform="translate(242.822266 0)"/>
      </g>
     </g>
    </g>
    <g id="ytick_11">
     <g id="line2d_57">
      <path d="M 485.87833 272.919324 
L 846.616661 272.919324 
" clip-path="url(#pe30ff32906)" style="fill: none; stroke: #b0b0b0; stroke-opacity: 0.3; stroke-width: 0.8; stroke-linecap: square"/>
     </g>
     <g id="line2d_58">
      <g>
       <use xlink:href="#m69298b5d33" x="485.87833" y="272.919324" style="stroke: #000000; stroke-width: 0.8"/>
      </g>
     </g>
     <g id="text_32">
      <!-- −0.15 -->
      <g transform="translate(448.233018 276.718543) scale(0.1 -0.1)">
       <use xlink:href="#DejaVuSans-2212"/>
       <use xlink:href="#DejaVuSans-30" transform="translate(83.789062 0)"/>
       <use xlink:href="#DejaVuSans-2e" transform="translate(147.412109 0)"/>
       <use xlink:href="#DejaVuSans-31" transform="translate(179.199219 0)"/>
       <use xlink:href="#DejaVuSans-35" transform="translate(242.822266 0)"/>
      </g>
     </g>
    </g>
    <g id="ytick_12">
     <g id="line2d_59">
      <path d="M 485.87833 239.20451 
L 846.616661 239.20451 
" clip-path="url(#pe30ff32906)" style="fill: none; stroke: #b0b0b0; stroke-opacity: 0.3; stroke-width: 0.8; stroke-linecap: square"/>
     </g>
     <g id="line2d_60">
      <g>
       <use xlink:href="#m69298b5d33" x="485.87833" y="239.20451" style="stroke: #000000; stroke-width: 0.8"/>
      </g>
     </g>
     <g id="text_33">
      <!-- −0.10 -->
      <g transform="translate(448.233018 243.003728) scale(0.1 -0.1)">
       <use xlink:href="#DejaVuSans-2212"/>
       <use xlink:href="#DejaVuSans-30" transform="translate(83.789062 0)"/>
       <use xlink:href="#DejaVuSans-2e" transform="translate(147.412109 0)"/>
       <use xlink:href="#DejaVuSans-31" transform="translate(179.199219 0)"/>
       <use xlink:href="#DejaVuSans-30" transform="translate(242.822266 0)"/>
      </g>
     </g>
    </g>
    <g id="ytick_13">
     <g id="line2d_61">
      <path d="M 485.87833 205.489695 
L 846.616661 205.489695 
" clip-path="url(#pe30ff32906)" style="fill: none; stroke: #b0b0b0; stroke-opacity: 0.3; stroke-width: 0.8; stroke-linecap: square"/>
     </g>
     <g id="line2d_62">
      <g>
       <use xlink:href="#m69298b5d33" x="485.87833" y="205.489695" style="stroke: #000000; stroke-width: 0.8"/>
      </g>
     </g>
     <g id="text_34">
      <!-- −0.05 -->
      <g transform="translate(448.233018 209.288914) scale(0.1 -0.1)">
       <use xlink:href="#DejaVuSans-2212"/>
       <use xlink:href="#DejaVuSans-30" transform="translate(83.789062 0)"/>
       <use xlink:href="#DejaVuSans-2e" transform="translate(147.412109 0)"/>
       <use xlink:href="#DejaVuSans-30" transform="translate(179.199219 0)"/>
       <use xlink:href="#DejaVuSans-35" transform="translate(242.822266 0)"/>
      </g>
     </g>
    </g>
    <g id="ytick_14">
     <g id="line2d_63">
      <path d="M 485.87833 171.774881 
L 846.616661 171.774881 
" clip-path="url(#pe30ff32906)" style="fill: none; stroke: #b0b0b0; stroke-opacity: 0.3; stroke-width: 0.8; stroke-linecap: square"/>
     </g>
     <g id="line2d_64">
      <g>
       <use xlink:href="#m69298b5d33" x="485.87833" y="171.774881" style="stroke: #000000; stroke-width: 0.8"/>
      </g>
     </g>
     <g id="text_35">
      <!-- 0.00 -->
      <g transform="translate(456.612705 175.5741) scale(0.1 -0.1)">
       <use xlink:href="#DejaVuSans-30"/>
       <use xlink:href="#DejaVuSans-2e" transform="translate(63.623047 0)"/>
       <use xlink:href="#DejaVuSans-30" transform="translate(95.410156 0)"/>
       <use xlink:href="#DejaVuSans-30" transform="translate(159.033203 0)"/>
      </g>
     </g>
    </g>
    <g id="ytick_15">
     <g id="line2d_65">
      <path d="M 485.87833 138.060067 
L 846.616661 138.060067 
" clip-path="url(#pe30ff32906)" style="fill: none; stroke: #b0b0b0; stroke-opacity: 0.3; stroke-width: 0.8; stroke-linecap: square"/>
     </g>
     <g id="line2d_66">
      <g>
       <use xlink:href="#m69298b5d33" x="485.87833" y="138.060067" style="stroke: #000000; stroke-width: 0.8"/>
      </g>
     </g>
     <g id="text_36">
      <!-- 0.05 -->
      <g transform="translate(456.612705 141.859285) scale(0.1 -0.1)">
       <use xlink:href="#DejaVuSans-30"/>
       <use xlink:href="#DejaVuSans-2e" transform="translate(63.623047 0)"/>
       <use xlink:href="#DejaVuSans-30" transform="translate(95.410156 0)"/>
       <use xlink:href="#DejaVuSans-35" transform="translate(159.033203 0)"/>
      </g>
     </g>
    </g>
    <g id="ytick_16">
     <g id="line2d_67">
      <path d="M 485.87833 104.345252 
L 846.616661 104.345252 
" clip-path="url(#pe30ff32906)" style="fill: none; stroke: #b0b0b0; stroke-opacity: 0.3; stroke-width: 0.8; stroke-linecap: square"/>
     </g>
     <g id="line2d_68">
      <g>
       <use xlink:href="#m69298b5d33" x="485.87833" y="104.345252" style="stroke: #000000; stroke-width: 0.8"/>
      </g>
     </g>
     <g id="text_37">
      <!-- 0.10 -->
      <g transform="translate(456.612705 108.144471) scale(0.1 -0.1)">
       <use xlink:href="#DejaVuSans-30"/>
       <use xlink:href="#DejaVuSans-2e" transform="translate(63.623047 0)"/>
       <use xlink:href="#DejaVuSans-31" transform="translate(95.410156 0)"/>
       <use xlink:href="#DejaVuSans-30" transform="translate(159.033203 0)"/>
      </g>
     </g>
    </g>
    <g id="ytick_17">
     <g id="line2d_69">
      <path d="M 485.87833 70.630438 
L 846.616661 70.630438 
" clip-path="url(#pe30ff32906)" style="fill: none; stroke: #b0b0b0; stroke-opacity: 0.3; stroke-width: 0.8; stroke-linecap: square"/>
     </g>
     <g id="line2d_70">
      <g>
       <use xlink:href="#m69298b5d33" x="485.87833" y="70.630438" style="stroke: #000000; stroke-width: 0.8"/>
      </g>
     </g>
     <g id="text_38">
      <!-- 0.15 -->
      <g transform="translate(456.612705 74.429657) scale(0.1 -0.1)">
       <use xlink:href="#DejaVuSans-30"/>
       <use xlink:href="#DejaVuSans-2e" transform="translate(63.623047 0)"/>
       <use xlink:href="#DejaVuSans-31" transform="translate(95.410156 0)"/>
       <use xlink:href="#DejaVuSans-35" transform="translate(159.033203 0)"/>
      </g>
     </g>
    </g>
    <g id="ytick_18">
     <g id="line2d_71">
      <path d="M 485.87833 36.915623 
L 846.616661 36.915623 
" clip-path="url(#pe30ff32906)" style="fill: none; stroke: #b0b0b0; stroke-opacity: 0.3; stroke-width: 0.8; stroke-linecap: square"/>
     </g>
     <g id="line2d_72">
      <g>
       <use xlink:href="#m69298b5d33" x="485.87833" y="36.915623" style="stroke: #000000; stroke-width: 0.8"/>
      </g>
     </g>
     <g id="text_39">
      <!-- 0.20 -->
      <g transform="translate(456.612705 40.714842) scale(0.1 -0.1)">
       <use xlink:href="#DejaVuSans-30"/>
       <use xlink:href="#DejaVuSans-2e" transform="translate(63.623047 0)"/>
       <use xlink:href="#DejaVuSans-32" transform="translate(95.410156 0)"/>
       <use xlink:href="#DejaVuSans-30" transform="translate(159.033203 0)"/>
      </g>
     </g>
    </g>
    <g id="text_40">
     <!-- B (Normalized) -->
     <g transform="translate(442.15333 209.016563) rotate(-90) scale(0.1 -0.1)">
      <defs>
       <path id="DejaVuSans-42" d="M 1259 2228 
L 1259 519 
L 2272 519 
Q 2781 519 3026 730 
Q 3272 941 3272 1375 
Q 3272 1813 3026 2020 
Q 2781 2228 2272 2228 
L 1259 2228 
z
M 1259 4147 
L 1259 2741 
L 2194 2741 
Q 2656 2741 2882 2914 
Q 3109 3088 3109 3444 
Q 3109 3797 2882 3972 
Q 2656 4147 2194 4147 
L 1259 4147 
z
M 628 4666 
L 2241 4666 
Q 2963 4666 3353 4366 
Q 3744 4066 3744 3513 
Q 3744 3084 3544 2831 
Q 3344 2578 2956 2516 
Q 3422 2416 3680 2098 
Q 3938 1781 3938 1306 
Q 3938 681 3513 340 
Q 3088 0 2303 0 
L 628 0 
L 628 4666 
z
" transform="scale(0.015625)"/>
      </defs>
      <use xlink:href="#DejaVuSans-42"/>
      <use xlink:href="#DejaVuSans-20" transform="translate(68.603516 0)"/>
      <use xlink:href="#DejaVuSans-28" transform="translate(100.390625 0)"/>
      <use xlink:href="#DejaVuSans-4e" transform="translate(139.404297 0)"/>
      <use xlink:href="#DejaVuSans-6f" transform="translate(214.208984 0)"/>
      <use xlink:href="#DejaVuSans-72" transform="translate(275.390625 0)"/>
      <use xlink:href="#DejaVuSans-6d" transform="translate(314.753906 0)"/>
      <use xlink:href="#DejaVuSans-61" transform="translate(412.166016 0)"/>
      <use xlink:href="#DejaVuSans-6c" transform="translate(473.445312 0)"/>
      <use xlink:href="#DejaVuSans-69" transform="translate(501.228516 0)"/>
      <use xlink:href="#DejaVuSans-7a" transform="translate(529.011719 0)"/>
      <use xlink:href="#DejaVuSans-65" transform="translate(581.501953 0)"/>
      <use xlink:href="#DejaVuSans-64" transform="translate(643.025391 0)"/>
      <use xlink:href="#DejaVuSans-29" transform="translate(706.501953 0)"/>
     </g>
    </g>
   </g>
   <g id="line2d_73">
    <path d="M 817.520638 38.74 
L 815.601813 38.976455 
L 814.815396 39.486933 
L 815.343489 40.254987 
L 817.088661 41.225916 
L 822.526578 43.409674 
L 824.971736 44.411098 
L 826.40927 45.231751 
L 826.436294 45.823225 
L 824.943589 46.184052 
L 822.141887 46.359516 
L 811.383476 46.669953 
L 809.072048 47.008956 
L 808.060762 47.555264 
L 808.33885 48.299213 
L 809.614201 49.189438 
L 813.101956 51.078263 
L 814.2207 51.906835 
L 814.395693 52.579083 
L 813.507509 53.079895 
L 811.680741 53.432895 
L 804.236342 54.222692 
L 802.457651 54.621177 
L 801.455437 55.156755 
L 801.222492 55.826501 
L 801.582175 56.598453 
L 802.876167 58.232748 
L 803.188386 58.982273 
L 802.987301 59.63321 
L 802.212725 60.173691 
L 800.937973 60.616678 
L 796.116315 61.739047 
L 794.902017 62.186365 
L 794.10635 62.716577 
L 793.721212 63.330739 
L 793.647221 64.011628 
L 793.763688 65.446484 
L 793.606876 66.130628 
L 793.143996 66.757269 
L 792.342651 67.316328 
L 791.249145 67.813041 
L 787.457733 69.147298 
L 786.477503 69.628729 
L 785.777008 70.159996 
L 785.346064 70.743813 
L 784.96446 72.023551 
L 784.773288 72.678878 
L 784.429311 73.315446 
L 783.864051 73.91734 
L 783.064722 74.477454 
L 780.978355 75.49189 
L 778.88622 76.462879 
L 778.059267 76.973056 
L 777.42711 77.513256 
L 776.618505 78.681232 
L 775.915713 79.902109 
L 775.411524 80.500717 
L 774.751667 81.078777 
L 773.026507 82.166722 
L 770.282062 83.720604 
L 768.953971 84.80017 
L 768.025422 85.938716 
L 767.12127 87.099789 
L 765.890002 88.23619 
L 764.282189 89.329516 
L 761.764093 90.934687 
L 760.439549 92.02641 
L 757.162985 95.389664 
L 754.786645 97.021477 
L 753.253582 98.102695 
L 752.025561 99.197604 
L 749.329608 101.96333 
L 747.043156 103.589129 
L 744.836986 105.213391 
L 743.190691 106.857527 
L 741.536352 108.490716 
L 739.410877 110.099565 
L 737.229243 111.716662 
L 735.401275 113.350575 
L 733.057962 115.50435 
L 729.601098 118.179134 
L 727.030899 120.34548 
L 724.02561 123.027991 
L 718.059352 127.879389 
L 715.630082 130.027229 
L 710.978087 133.790372 
L 707.974046 136.474752 
L 703.45289 140.21044 
L 700.415927 142.875476 
L 693.446623 148.706966 
L 573.346589 250.726788 
L 565.860148 257.087335 
L 562.40218 260.014158 
L 559.529473 262.454014 
L 556.662673 264.888465 
L 553.807445 267.326161 
L 550.93609 269.754573 
L 548.132487 272.186371 
L 545.262969 274.605901 
L 543.103491 276.54808 
L 539.62514 279.435335 
L 537.497062 281.370159 
L 533.991738 284.239438 
L 531.940344 286.168887 
L 527.874901 289.504253 
L 526.370777 290.94771 
L 522.257972 294.267964 
L 520.878033 295.711531 
L 519.550382 296.647604 
L 517.504015 298.048629 
L 516.707671 299.015026 
L 516.082136 299.986548 
L 515.578439 300.46012 
L 514.851366 300.922108 
L 512.109122 302.291744 
L 511.715971 302.769969 
L 512.01085 303.260542 
L 513.145467 303.745389 
L 515.106194 304.189109 
L 517.684252 304.540642 
L 520.494567 304.74 
L 523.044286 304.729189 
L 524.838454 304.465173 
L 525.498758 303.932197 
L 524.865364 303.150047 
L 523.053958 302.17546 
L 515.27986 299.037021 
L 513.962812 298.242009 
L 514.071074 297.674268 
L 515.691269 297.331206 
L 518.590299 297.164463 
L 526.062258 297.007396 
L 529.314362 296.819351 
L 531.500418 296.454586 
L 532.352481 295.881641 
L 531.907859 295.114632 
L 530.48829 294.208823 
L 526.879348 292.320199 
L 525.808783 291.507071 
L 525.7481 290.857129 
L 526.794256 290.381084 
L 528.790442 290.050381 
L 536.486759 289.273857 
L 538.203389 288.858099 
L 539.078827 288.298065 
L 539.147778 287.601361 
L 538.62225 286.805344 
L 537.123905 285.148673 
L 536.813537 284.404684 
L 537.086674 283.769091 
L 537.984415 283.249991 
L 539.403716 282.829471 
L 544.479704 281.735778 
L 545.659705 281.278222 
L 546.366058 280.729753 
L 546.628668 280.093375 
L 546.575105 279.390914 
L 546.293866 277.93129 
L 546.445726 277.24812 
L 546.956798 276.630914 
L 547.845646 276.086977 
L 550.417388 275.169482 
L 553.024869 274.298861 
L 553.980601 273.811151 
L 554.615259 273.267072 
L 554.955153 272.666726 
L 555.313075 270.693098 
L 555.657282 270.055314 
L 556.263933 269.458646 
L 557.134574 268.908418 
L 559.379462 267.916359 
L 561.534334 266.953599 
L 562.336126 266.43884 
L 562.912129 265.889035 
L 563.575898 264.695698 
L 564.197758 263.457257 
L 564.708032 262.856851 
L 565.401938 262.281624 
L 567.232757 261.207344 
L 570.041579 259.664334 
L 571.304694 258.574037 
L 573.596804 255.668681 
L 575.089101 254.557536 
L 578.510418 252.418465 
L 579.799868 251.319919 
L 583.013184 247.932585 
L 585.449729 246.30338 
L 586.998964 245.222076 
L 588.202149 244.121762 
L 590.198315 241.888066 
L 591.563217 240.790601 
L 595.382961 238.0839 
L 596.974601 236.429776 
L 598.020548 235.330849 
L 599.309219 234.248178 
L 603.607448 231.007025 
L 607.782505 227.213851 
L 613.162642 222.887837 
L 616.819415 219.658515 
L 620.966211 216.414066 
L 625.228548 212.63472 
L 627.990665 210.482502 
L 634.235655 205.103953 
L 636.721627 202.950449 
L 639.782916 200.277572 
L 647.382316 193.894653 
L 658.07375 184.891679 
L 661.188173 182.249964 
L 664.248876 179.613293 
L 667.991675 176.464563 
L 674.117619 171.218174 
L 683.940455 162.89999 
L 687.510555 159.791096 
L 697.350826 151.556223 
L 711.296303 139.737219 
L 719.061731 133.087107 
L 729.264477 124.464956 
L 732.816921 121.433581 
L 736.386143 118.410113 
L 744.111915 111.879914 
L 747.667619 108.87941 
L 750.596225 106.381668 
L 753.516557 103.895296 
L 756.423982 101.409229 
L 759.361354 98.936542 
L 762.214763 96.46187 
L 765.177768 94.001832 
L 768.025741 91.536258 
L 771.532609 88.592841 
L 773.819839 86.626015 
L 777.34716 83.692782 
L 779.622799 81.72905 
L 783.159625 78.801644 
L 785.403187 76.840977 
L 788.939235 73.920846 
L 791.138905 71.963676 
L 794.692255 69.053985 
L 796.839101 67.101386 
L 800.401 64.208123 
L 802.488758 62.261734 
L 806.604613 58.900886 
L 808.151978 57.446638 
L 812.30241 54.102761 
L 813.787868 52.651116 
L 815.763715 51.234637 
L 817.028399 50.289562 
L 817.971984 49.323988 
L 818.806363 48.35094 
L 819.955181 47.398398 
L 822.840379 45.532884 
L 823.641367 44.562729 
L 824.203412 43.582486 
L 824.675964 43.104834 
L 825.392243 42.640475 
L 828.29986 41.27521 
L 828.798045 40.798603 
L 828.606197 40.30618 
L 827.551734 39.813909 
L 825.631045 39.35603 
L 823.042767 38.983488 
L 820.171782 38.757905 
L 820.171782 38.757905 
" clip-path="url(#pe30ff32906)" style="fill: none; stroke: #000000; stroke-opacity: 0.6; stroke-width: 1.5; stroke-linecap: square"/>
   </g>
   <g id="line2d_74">
    <path d="M 796.845162 38.74 
L 793.725856 38.976455 
L 798.30223 39.486933 
L 797.826387 40.254987 
L 794.116749 41.225916 
L 796.199033 42.312726 
L 802.307041 43.409674 
L 801.685474 44.411098 
L 808.479445 45.231751 
L 806.075423 45.823225 
L 806.4711 46.184052 
L 803.267456 46.359516 
L 790.512745 46.502627 
L 791.210446 46.669953 
L 788.242848 47.008956 
L 786.893646 47.555264 
L 783.860504 48.299213 
L 785.833671 49.189438 
L 788.439009 50.145858 
L 789.829869 51.078263 
L 791.603393 51.906835 
L 793.892798 52.579083 
L 793.529836 53.079895 
L 790.480311 53.432895 
L 790.581287 53.692901 
L 795.870253 54.222692 
L 793.530538 54.621177 
L 794.540254 55.156755 
L 793.896039 55.826501 
L 791.262364 56.598453 
L 791.959261 57.420333 
L 789.265183 58.232748 
L 787.033552 59.63321 
L 788.643642 60.173691 
L 786.33941 60.995359 
L 786.461427 61.354287 
L 783.101214 61.739047 
L 782.086049 62.186365 
L 781.408227 62.716577 
L 778.587054 64.011628 
L 778.83924 64.72894 
L 777.737402 65.446484 
L 775.349106 66.130628 
L 773.683673 66.757269 
L 772.633305 67.316328 
L 770.165398 67.813041 
L 770.379702 68.701005 
L 767.466101 71.371007 
L 765.491199 72.678878 
L 759.889523 75.974094 
L 755.459676 79.291515 
L 749.121358 83.200952 
L 747.025504 85.363489 
L 745.776775 86.519689 
L 743.505787 88.23619 
L 740.643893 90.398501 
L 734.85465 95.389664 
L 732.100489 97.561104 
L 725.608727 103.049673 
L 722.355526 105.760036 
L 713.106324 113.893372 
L 696.092907 129.492985 
L 677.043332 144.459169 
L 667.20613 151.873002 
L 652.373154 163.463412 
L 645.787165 168.692989 
L 639.781028 173.3744 
L 627.023414 182.680767 
L 619.069647 188.844271 
L 600.768265 203.689919 
L 592.773636 210.314467 
L 589.761828 212.84759 
L 588.198998 213.861021 
L 574.225804 222.428371 
L 568.980385 225.941754 
L 562.34632 230.943819 
L 558.465262 236.423521 
L 553.998694 242.856328 
L 549.033226 250.235134 
L 543.802583 258.547471 
L 540.0864 264.399509 
L 532.79441 274.119688 
L 527.237373 281.370159 
L 524.52057 284.722908 
L 515.734447 294.752208 
L 514.292881 296.18224 
L 512.076216 298.048629 
L 508.808163 300.46012 
L 506.32289 302.291744 
L 503.599836 304.540642 
L 503.107762 304.74 
L 502.696634 304.729189 
L 502.405059 304.465173 
L 502.275527 303.932197 
L 502.33547 303.150047 
L 502.589328 302.17546 
L 503.55357 300.015415 
L 504.71354 298.242009 
L 505.708047 297.007396 
L 505.651804 296.454586 
L 505.996993 295.114632 
L 506.839231 293.247028 
L 508.803391 289.571202 
L 509.013561 288.858099 
L 509.699218 287.601361 
L 511.475969 285.148673 
L 512.888368 283.249991 
L 513.218705 282.469257 
L 513.490528 281.278222 
L 514.1462 280.093375 
L 515.315713 278.657163 
L 518.588258 275.169482 
L 519.182456 273.811151 
L 519.733579 272.666726 
L 520.616953 271.356474 
L 524.030845 266.953599 
L 524.909728 265.305117 
L 526.210559 263.457257 
L 528.719079 260.183785 
L 530.463435 257.417706 
L 532.684744 254.557536 
L 534.220231 252.418465 
L 536.584623 249.05089 
L 539.023758 245.764301 
L 542.883943 240.24909 
L 545.846616 235.878579 
L 548.970872 231.553751 
L 552.230708 227.213851 
L 555.950107 222.346039 
L 558.957922 220.194746 
L 567.634986 214.242707 
L 602.858652 192.835606 
L 626.405318 174.886507 
L 630.592598 171.740928 
L 635.365835 168.608786 
L 670.931105 147.438776 
L 680.063674 141.789698 
L 694.511933 132.578151 
L 706.950814 124.464956 
L 722.770081 113.38528 
L 746.428485 96.954182 
L 767.974092 81.72905 
L 776.827451 74.898527 
L 781.880982 70.512694 
L 784.178796 68.074807 
L 788.214395 63.2322 
L 789.977826 62.745505 
L 790.2903 62.261734 
L 791.535412 61.303636 
L 790.681448 60.827099 
L 792.450748 59.869755 
L 791.85706 59.386596 
L 792.784606 58.900886 
L 794.562276 58.414281 
L 794.272259 57.928902 
L 794.567712 57.446638 
L 796.868971 56.968363 
L 797.284693 56.493434 
L 797.076258 56.020092 
L 799.028219 55.545866 
L 801.906873 55.068676 
L 801.307354 54.587407 
L 800.939645 54.102761 
L 802.599815 53.616709 
L 804.771185 53.131973 
L 808.465371 52.651116 
L 810.909342 52.175312 
L 811.279731 51.70396 
L 810.510743 51.234637 
L 813.043315 50.76423 
L 810.301887 50.289562 
L 811.416127 49.809297 
L 812.990325 49.323988 
L 815.453155 48.83657 
L 811.034447 48.35094 
L 811.28805 47.870966 
L 813.671682 47.398398 
L 812.737475 46.932482 
L 812.413798 46.46965 
L 814.13395 46.004718 
L 816.888596 45.532884 
L 814.257944 45.051805 
L 816.236905 44.562729 
L 818.712021 44.070608 
L 819.871709 43.582486 
L 825.952208 43.104834 
L 826.657221 42.640475 
L 825.306934 42.186626 
L 825.751696 41.735158 
L 828.796016 41.27521 
L 826.80644 40.798603 
L 825.778478 40.30618 
L 830.219464 39.813909 
L 820.519522 39.35603 
L 821.620531 38.983488 
L 824.813879 38.757905 
L 824.813879 38.757905 
" clip-path="url(#pe30ff32906)" style="fill: none; stroke-dasharray: 5.55,2.4; stroke-dashoffset: 0; stroke: #1f77b4; stroke-width: 1.5"/>
   </g>
   <g id="line2d_75">
    <path d="M 752.051743 104.106706 
L 751.227432 104.198312 
L 751.038225 104.43435 
L 751.535932 104.80123 
L 754.034251 105.776334 
L 756.544621 106.717888 
L 757.0182 107.056554 
L 756.738645 107.277696 
L 755.731978 107.389925 
L 749.37928 107.541049 
L 748.650816 107.721628 
L 748.547746 107.999796 
L 748.966588 108.358985 
L 750.987501 109.554632 
L 751.124937 109.868033 
L 750.793139 110.105689 
L 749.015743 110.396115 
L 746.917911 110.626762 
L 746.183399 110.794058 
L 745.771977 111.018335 
L 745.66323 111.298885 
L 746.04699 112.618563 
L 745.806689 112.892792 
L 744.768787 113.320688 
L 742.946422 113.848574 
L 742.300708 114.293309 
L 742.078467 114.844532 
L 741.853757 115.431298 
L 741.2828 115.968996 
L 740.355974 116.426753 
L 738.908807 117.05137 
L 738.283329 117.51193 
L 737.775715 118.300512 
L 737.348446 118.833653 
L 736.638164 119.325442 
L 734.558208 120.450339 
L 734.09217 120.941103 
L 733.505059 121.712317 
L 732.876825 122.206211 
L 730.295692 123.847147 
L 729.051404 125.077329 
L 725.746967 127.461792 
L 724.591751 128.41676 
L 721.988315 130.314631 
L 720.903845 131.263005 
L 718.049935 133.374446 
L 716.927115 134.304561 
L 714.671754 135.92398 
L 712.977363 137.304236 
L 709.917506 139.60697 
L 707.794558 141.209076 
L 706.275652 142.366783 
L 704.555689 143.743517 
L 702.736248 145.128893 
L 701.336497 146.276416 
L 699.235093 147.880223 
L 697.50201 149.247367 
L 694.573953 151.530346 
L 684.606628 159.212285 
L 677.738291 164.526695 
L 672.096559 168.888953 
L 660.968142 177.57943 
L 649.666675 186.368486 
L 628.097989 203.165575 
L 622.149057 207.865339 
L 615.129596 213.310055 
L 611.812751 215.901834 
L 604.505017 221.599172 
L 603.223937 222.572914 
L 602.002851 223.548861 
L 600.739378 224.52195 
L 599.533278 225.495421 
L 598.556947 226.276271 
L 597.286016 227.24409 
L 596.125333 228.221293 
L 594.838275 229.1845 
L 594.021313 229.969751 
L 592.195004 231.315261 
L 591.602624 231.903851 
L 589.753145 233.239229 
L 589.216644 233.828859 
L 588.211349 234.386371 
L 587.591868 234.760274 
L 587.308057 235.154274 
L 587.135463 235.553302 
L 586.578419 235.92923 
L 585.181996 236.467717 
L 585.025784 236.659971 
L 585.268146 236.860274 
L 585.983647 237.058432 
L 588.618681 237.358831 
L 591.525271 237.323995 
L 592.424499 237.112358 
L 592.693578 236.759113 
L 592.291777 236.279225 
L 591.33163 235.707244 
L 587.913395 233.952904 
L 587.637648 233.515649 
L 588.110487 233.193541 
L 589.29452 232.976464 
L 596.102985 232.365266 
L 596.90299 232.065641 
L 597.08301 231.670491 
L 596.758791 231.197803 
L 595.546873 230.164758 
L 595.184057 229.685298 
L 595.238188 229.270987 
L 595.764871 228.931889 
L 596.70103 228.659613 
L 600.241378 227.974439 
L 601.072248 227.690458 
L 601.573821 227.349009 
L 601.778671 226.952553 
L 601.764489 225.617427 
L 601.96382 225.200448 
L 602.379644 224.823997 
L 603.749886 224.189243 
L 605.964777 223.332422 
L 606.839884 222.660676 
L 608.219204 220.704264 
L 609.290375 220.000492 
L 612.276563 218.397662 
L 613.006003 217.688549 
L 614.282484 216.195627 
L 615.289673 215.496938 
L 618.078671 213.847248 
L 619.099762 212.779981 
L 619.789511 212.055605 
L 620.725734 211.356329 
L 623.840775 209.336538 
L 626.172573 207.240751 
L 629.977067 204.51629 
L 632.459628 202.462937 
L 636.086143 199.745207 
L 637.660229 198.385913 
L 641.671793 195.351367 
L 642.851877 194.341107 
L 646.839585 191.32917 
L 648.959124 189.667365 
L 653.295565 186.327066 
L 656.314921 183.99739 
L 658.515438 182.32417 
L 660.534508 180.657204 
L 663.230906 178.661479 
L 665.680048 176.668568 
L 667.88856 175.020683 
L 670.802904 172.705581 
L 675.895398 168.776601 
L 687.630308 159.699114 
L 692.181759 156.172882 
L 698.2116 151.391461 
L 703.912881 146.960423 
L 705.972553 145.383662 
L 708.400967 143.489863 
L 710.790992 141.595816 
L 716.498538 137.189437 
L 718.494088 135.621852 
L 720.518685 134.055994 
L 722.519396 132.497954 
L 724.527011 130.940787 
L 726.527744 129.394848 
L 728.072896 128.153181 
L 730.52673 126.31032 
L 732.047129 125.074662 
L 734.519579 123.242908 
L 736.423534 121.707519 
L 738.476236 120.191472 
L 740.343087 118.661645 
L 742.385404 117.155234 
L 743.7774 115.932703 
L 746.60004 113.831141 
L 747.597303 112.916118 
L 750.452696 110.827136 
L 751.365034 109.910988 
L 752.819398 109.031243 
L 753.746989 108.443843 
L 754.297123 107.833716 
L 754.699212 107.215701 
L 755.503536 106.62167 
L 757.396493 105.762905 
L 757.741541 105.463903 
L 757.684424 105.155099 
L 757.140044 104.845717 
L 756.12636 104.555351 
L 753.324651 104.152605 
L 753.324651 104.152605 
" clip-path="url(#pe30ff32906)" style="fill: none; stroke: #000000; stroke-opacity: 0.6; stroke-width: 1.5; stroke-linecap: square"/>
   </g>
   <g id="line2d_76">
    <path d="M 738.827371 104.106706 
L 739.090888 104.198312 
L 739.108802 104.80123 
L 738.979812 105.265082 
L 738.24352 106.278272 
L 737.50416 107.056554 
L 737.043187 107.389925 
L 736.865904 107.424625 
L 736.874548 107.452518 
L 736.461365 108.765544 
L 735.362602 109.868033 
L 734.357773 110.626762 
L 733.761042 111.622102 
L 732.847747 112.618563 
L 731.03088 114.056006 
L 730.586693 114.558717 
L 727.852972 116.840592 
L 726.792282 117.764989 
L 724.943594 119.325442 
L 722.984589 120.941103 
L 720.887523 122.67267 
L 716.863006 126.01819 
L 693.828892 145.128893 
L 682.111623 154.711432 
L 648.817233 181.672401 
L 634.90883 194.931214 
L 627.832198 200.902766 
L 604.26002 221.599172 
L 599.122386 225.495421 
L 589.722063 232.469336 
L 586.265518 235.745129 
L 583.738299 237.399072 
L 583.574904 237.323995 
L 583.49764 237.112358 
L 583.53232 236.759113 
L 584.01173 235.707244 
L 584.937311 234.490727 
L 585.949088 233.515649 
L 587.09048 232.573025 
L 587.425219 231.670491 
L 588.063966 230.681949 
L 589.343802 229.270987 
L 590.432071 228.212933 
L 591.577769 226.516177 
L 592.757847 225.200448 
L 595.240766 222.660676 
L 597.38499 220.341931 
L 599.4787 218.05042 
L 601.275069 216.195627 
L 604.321737 213.142593 
L 607.154303 210.353576 
L 615.725402 201.785691 
L 629.343984 188.336804 
L 645.903192 172.379716 
L 649.413339 169.102301 
L 676.720443 147.274519 
L 689.479831 138.445849 
L 704.240691 128.461563 
L 727.791153 112.617226 
L 730.046657 110.827136 
L 730.329708 110.519673 
L 731.124138 109.910988 
L 732.151226 109.031243 
L 735.431151 106.62167 
L 739.418667 104.312963 
L 739.795888 104.152605 
L 739.795888 104.152605 
" clip-path="url(#pe30ff32906)" style="fill: none; stroke-dasharray: 5.55,2.4; stroke-dashoffset: 0; stroke: #ff7f0e; stroke-width: 1.5"/>
   </g>
   <g id="patch_9">
    <path d="M 485.87833 318.04 
L 485.87833 25.44 
" style="fill: none; stroke: #000000; stroke-width: 0.8; stroke-linejoin: miter; stroke-linecap: square"/>
   </g>
   <g id="patch_10">
    <path d="M 846.616661 318.04 
L 846.616661 25.44 
" style="fill: none; stroke: #000000; stroke-width: 0.8; stroke-linejoin: miter; stroke-linecap: square"/>
   </g>
   <g id="patch_11">
    <path d="M 485.87833 318.04 
L 846.616661 318.04 
" style="fill: none; stroke: #000000; stroke-width: 0.8; stroke-linejoin: miter; stroke-linecap: square"/>
   </g>
   <g id="patch_12">
    <path d="M 485.87833 25.44 
L 846.616661 25.44 
" style="fill: none; stroke: #000000; stroke-width: 0.8; stroke-linejoin: miter; stroke-linecap: square"/>
   </g>
   <g id="text_41">
    <!-- B-H Loop (Ep 1087) -->
    <g transform="translate(607.791558 19.44) scale(0.12 -0.12)">
     <defs>
      <path id="DejaVuSans-2d" d="M 313 2009 
L 1997 2009 
L 1997 1497 
L 313 1497 
L 313 2009 
z
" transform="scale(0.015625)"/>
      <path id="DejaVuSans-4c" d="M 628 4666 
L 1259 4666 
L 1259 531 
L 3531 531 
L 3531 0 
L 628 0 
L 628 4666 
z
" transform="scale(0.015625)"/>
     </defs>
     <use xlink:href="#DejaVuSans-42"/>
     <use xlink:href="#DejaVuSans-2d" transform="translate(68.603516 0)"/>
     <use xlink:href="#DejaVuSans-48" transform="translate(104.6875 0)"/>
     <use xlink:href="#DejaVuSans-20" transform="translate(179.882812 0)"/>
     <use xlink:href="#DejaVuSans-4c" transform="translate(211.669922 0)"/>
     <use xlink:href="#DejaVuSans-6f" transform="translate(265.632812 0)"/>
     <use xlink:href="#DejaVuSans-6f" transform="translate(326.814453 0)"/>
     <use xlink:href="#DejaVuSans-70" transform="translate(387.996094 0)"/>
     <use xlink:href="#DejaVuSans-20" transform="translate(451.472656 0)"/>
     <use xlink:href="#DejaVuSans-28" transform="translate(483.259766 0)"/>
     <use xlink:href="#DejaVuSans-45" transform="translate(522.273438 0)"/>
     <use xlink:href="#DejaVuSans-70" transform="translate(585.457031 0)"/>
     <use xlink:href="#DejaVuSans-20" transform="translate(648.933594 0)"/>
     <use xlink:href="#DejaVuSans-31" transform="translate(680.720703 0)"/>
     <use xlink:href="#DejaVuSans-30" transform="translate(744.34375 0)"/>
     <use xlink:href="#DejaVuSans-38" transform="translate(807.966797 0)"/>
     <use xlink:href="#DejaVuSans-37" transform="translate(871.589844 0)"/>
     <use xlink:href="#DejaVuSans-29" transform="translate(935.212891 0)"/>
    </g>
   </g>
   <g id="legend_2">
    <g id="patch_13">
     <path d="M 492.87833 62.79625 
L 555.82208 62.79625 
Q 557.82208 62.79625 557.82208 60.79625 
L 557.82208 32.44 
Q 557.82208 30.44 555.82208 30.44 
L 492.87833 30.44 
Q 490.87833 30.44 490.87833 32.44 
L 490.87833 60.79625 
Q 490.87833 62.79625 492.87833 62.79625 
z
" style="fill: #ffffff; opacity: 0.8; stroke: #cccccc; stroke-linejoin: miter"/>
    </g>
    <g id="line2d_77">
     <path d="M 494.87833 38.538437 
L 504.87833 38.538437 
L 514.87833 38.538437 
" style="fill: none; stroke: #000000; stroke-opacity: 0.6; stroke-width: 1.5; stroke-linecap: square"/>
    </g>
    <g id="text_42">
     <!-- Target -->
     <g transform="translate(522.87833 42.038437) scale(0.1 -0.1)">
      <use xlink:href="#DejaVuSans-54"/>
      <use xlink:href="#DejaVuSans-61" transform="translate(44.583984 0)"/>
      <use xlink:href="#DejaVuSans-72" transform="translate(105.863281 0)"/>
      <use xlink:href="#DejaVuSans-67" transform="translate(145.226562 0)"/>
      <use xlink:href="#DejaVuSans-65" transform="translate(208.703125 0)"/>
      <use xlink:href="#DejaVuSans-74" transform="translate(270.226562 0)"/>
     </g>
    </g>
    <g id="line2d_78">
     <path d="M 494.87833 53.216563 
L 504.87833 53.216563 
L 514.87833 53.216563 
" style="fill: none; stroke-dasharray: 5.55,2.4; stroke-dashoffset: 0; stroke: #1f77b4; stroke-width: 1.5"/>
    </g>
    <g id="text_43">
     <!-- Pred -->
     <g transform="translate(522.87833 56.716563) scale(0.1 -0.1)">
      <use xlink:href="#DejaVuSans-50"/>
      <use xlink:href="#DejaVuSans-72" transform="translate(58.552734 0)"/>
      <use xlink:href="#DejaVuSans-65" transform="translate(97.416016 0)"/>
      <use xlink:href="#DejaVuSans-64" transform="translate(158.939453 0)"/>
     </g>
    </g>
   </g>
  </g>
 </g>
 <defs>
  <clipPath id="p26256195d1">
   <rect x="62.57" y="25.44" width="360.73833" height="292.6"/>
  </clipPath>
  <clipPath id="pe30ff32906">
   <rect x="485.87833" y="25.44" width="360.73833" height="292.6"/>
  </clipPath>
 </defs>
</svg>
