<?xml version="1.0" encoding="utf-8" standalone="no"?>
<!DOCTYPE svg PUBLIC "-//W3C//DTD SVG 1.1//EN"
  "http://www.w3.org/Graphics/SVG/1.1/DTD/svg11.dtd">
<svg xmlns:xlink="http://www.w3.org/1999/xlink" width="460.8pt" height="345.6pt" viewBox="0 0 460.8 345.6" xmlns="http://www.w3.org/2000/svg" version="1.1">
 <metadata>
  <rdf:RDF xmlns:dc="http://purl.org/dc/elements/1.1/" xmlns:cc="http://creativecommons.org/ns#" xmlns:rdf="http://www.w3.org/1999/02/22-rdf-syntax-ns#">
   <cc:Work>
    <dc:type rdf:resource="http://purl.org/dc/dcmitype/StillImage"/>
    <dc:date>2025-06-02T20:38:36.796646</dc:date>
    <dc:format>image/svg+xml</dc:format>
    <dc:creator>
     <cc:Agent>
      <dc:title>Matplotlib v3.10.3, https://matplotlib.org/</dc:title>
     </cc:Agent>
    </dc:creator>
   </cc:Work>
  </rdf:RDF>
 </metadata>
 <defs>
  <style type="text/css">*{stroke-linejoin: round; stroke-linecap: butt}</style>
 </defs>
 <g id="figure_1">
  <g id="patch_1">
   <path d="M 0 345.6 
L 460.8 345.6 
L 460.8 0 
L 0 0 
z
" style="fill: #ffffff"/>
  </g>
  <g id="axes_1">
   <g id="patch_2">
    <path d="M 57.6 307.584 
L 414.72 307.584 
L 414.72 41.472 
L 57.6 41.472 
z
" style="fill: #ffffff"/>
   </g>
   <g id="matplotlib.axis_1">
    <g id="xtick_1">
     <g id="line2d_1">
      <path d="M 73.481535 307.584 
L 73.481535 41.472 
" clip-path="url(#p9b3bf7dc06)" style="fill: none; stroke: #b0b0b0; stroke-opacity: 0.5; stroke-width: 0.8; stroke-linecap: square"/>
     </g>
     <g id="line2d_2">
      <defs>
       <path id="md46e44f599" d="M 0 0 
L 0 3.5 
" style="stroke: #000000; stroke-width: 0.8"/>
      </defs>
      <g>
       <use xlink:href="#md46e44f599" x="73.481535" y="307.584" style="stroke: #000000; stroke-width: 0.8"/>
      </g>
     </g>
     <g id="text_1">
      <!-- −1.00 -->
      <g transform="translate(58.158879 322.182437) scale(0.1 -0.1)">
       <defs>
        <path id="DejaVuSans-2212" d="M 678 2272 
L 4684 2272 
L 4684 1741 
L 678 1741 
L 678 2272 
z
" transform="scale(0.015625)"/>
        <path id="DejaVuSans-31" d="M 794 531 
L 1825 531 
L 1825 4091 
L 703 3866 
L 703 4441 
L 1819 4666 
L 2450 4666 
L 2450 531 
L 3481 531 
L 3481 0 
L 794 0 
L 794 531 
z
" transform="scale(0.015625)"/>
        <path id="DejaVuSans-2e" d="M 684 794 
L 1344 794 
L 1344 0 
L 684 0 
L 684 794 
z
" transform="scale(0.015625)"/>
        <path id="DejaVuSans-30" d="M 2034 4250 
Q 1547 4250 1301 3770 
Q 1056 3291 1056 2328 
Q 1056 1369 1301 889 
Q 1547 409 2034 409 
Q 2525 409 2770 889 
Q 3016 1369 3016 2328 
Q 3016 3291 2770 3770 
Q 2525 4250 2034 4250 
z
M 2034 4750 
Q 2819 4750 3233 4129 
Q 3647 3509 3647 2328 
Q 3647 1150 3233 529 
Q 2819 -91 2034 -91 
Q 1250 -91 836 529 
Q 422 1150 422 2328 
Q 422 3509 836 4129 
Q 1250 4750 2034 4750 
z
" transform="scale(0.015625)"/>
       </defs>
       <use xlink:href="#DejaVuSans-2212"/>
       <use xlink:href="#DejaVuSans-31" transform="translate(83.789062 0)"/>
       <use xlink:href="#DejaVuSans-2e" transform="translate(147.412109 0)"/>
       <use xlink:href="#DejaVuSans-30" transform="translate(179.199219 0)"/>
       <use xlink:href="#DejaVuSans-30" transform="translate(242.822266 0)"/>
      </g>
     </g>
    </g>
    <g id="xtick_2">
     <g id="line2d_3">
      <path d="M 114.107252 307.584 
L 114.107252 41.472 
" clip-path="url(#p9b3bf7dc06)" style="fill: none; stroke: #b0b0b0; stroke-opacity: 0.5; stroke-width: 0.8; stroke-linecap: square"/>
     </g>
     <g id="line2d_4">
      <g>
       <use xlink:href="#md46e44f599" x="114.107252" y="307.584" style="stroke: #000000; stroke-width: 0.8"/>
      </g>
     </g>
     <g id="text_2">
      <!-- −0.75 -->
      <g transform="translate(98.784596 322.182437) scale(0.1 -0.1)">
       <defs>
        <path id="DejaVuSans-37" d="M 525 4666 
L 3525 4666 
L 3525 4397 
L 1831 0 
L 1172 0 
L 2766 4134 
L 525 4134 
L 525 4666 
z
" transform="scale(0.015625)"/>
        <path id="DejaVuSans-35" d="M 691 4666 
L 3169 4666 
L 3169 4134 
L 1269 4134 
L 1269 2991 
Q 1406 3038 1543 3061 
Q 1681 3084 1819 3084 
Q 2600 3084 3056 2656 
Q 3513 2228 3513 1497 
Q 3513 744 3044 326 
Q 2575 -91 1722 -91 
Q 1428 -91 1123 -41 
Q 819 9 494 109 
L 494 744 
Q 775 591 1075 516 
Q 1375 441 1709 441 
Q 2250 441 2565 725 
Q 2881 1009 2881 1497 
Q 2881 1984 2565 2268 
Q 2250 2553 1709 2553 
Q 1456 2553 1204 2497 
Q 953 2441 691 2322 
L 691 4666 
z
" transform="scale(0.015625)"/>
       </defs>
       <use xlink:href="#DejaVuSans-2212"/>
       <use xlink:href="#DejaVuSans-30" transform="translate(83.789062 0)"/>
       <use xlink:href="#DejaVuSans-2e" transform="translate(147.412109 0)"/>
       <use xlink:href="#DejaVuSans-37" transform="translate(179.199219 0)"/>
       <use xlink:href="#DejaVuSans-35" transform="translate(242.822266 0)"/>
      </g>
     </g>
    </g>
    <g id="xtick_3">
     <g id="line2d_5">
      <path d="M 154.732969 307.584 
L 154.732969 41.472 
" clip-path="url(#p9b3bf7dc06)" style="fill: none; stroke: #b0b0b0; stroke-opacity: 0.5; stroke-width: 0.8; stroke-linecap: square"/>
     </g>
     <g id="line2d_6">
      <g>
       <use xlink:href="#md46e44f599" x="154.732969" y="307.584" style="stroke: #000000; stroke-width: 0.8"/>
      </g>
     </g>
     <g id="text_3">
      <!-- −0.50 -->
      <g transform="translate(139.410313 322.182437) scale(0.1 -0.1)">
       <use xlink:href="#DejaVuSans-2212"/>
       <use xlink:href="#DejaVuSans-30" transform="translate(83.789062 0)"/>
       <use xlink:href="#DejaVuSans-2e" transform="translate(147.412109 0)"/>
       <use xlink:href="#DejaVuSans-35" transform="translate(179.199219 0)"/>
       <use xlink:href="#DejaVuSans-30" transform="translate(242.822266 0)"/>
      </g>
     </g>
    </g>
    <g id="xtick_4">
     <g id="line2d_7">
      <path d="M 195.358687 307.584 
L 195.358687 41.472 
" clip-path="url(#p9b3bf7dc06)" style="fill: none; stroke: #b0b0b0; stroke-opacity: 0.5; stroke-width: 0.8; stroke-linecap: square"/>
     </g>
     <g id="line2d_8">
      <g>
       <use xlink:href="#md46e44f599" x="195.358687" y="307.584" style="stroke: #000000; stroke-width: 0.8"/>
      </g>
     </g>
     <g id="text_4">
      <!-- −0.25 -->
      <g transform="translate(180.03603 322.182437) scale(0.1 -0.1)">
       <defs>
        <path id="DejaVuSans-32" d="M 1228 531 
L 3431 531 
L 3431 0 
L 469 0 
L 469 531 
Q 828 903 1448 1529 
Q 2069 2156 2228 2338 
Q 2531 2678 2651 2914 
Q 2772 3150 2772 3378 
Q 2772 3750 2511 3984 
Q 2250 4219 1831 4219 
Q 1534 4219 1204 4116 
Q 875 4013 500 3803 
L 500 4441 
Q 881 4594 1212 4672 
Q 1544 4750 1819 4750 
Q 2544 4750 2975 4387 
Q 3406 4025 3406 3419 
Q 3406 3131 3298 2873 
Q 3191 2616 2906 2266 
Q 2828 2175 2409 1742 
Q 1991 1309 1228 531 
z
" transform="scale(0.015625)"/>
       </defs>
       <use xlink:href="#DejaVuSans-2212"/>
       <use xlink:href="#DejaVuSans-30" transform="translate(83.789062 0)"/>
       <use xlink:href="#DejaVuSans-2e" transform="translate(147.412109 0)"/>
       <use xlink:href="#DejaVuSans-32" transform="translate(179.199219 0)"/>
       <use xlink:href="#DejaVuSans-35" transform="translate(242.822266 0)"/>
      </g>
     </g>
    </g>
    <g id="xtick_5">
     <g id="line2d_9">
      <path d="M 235.984404 307.584 
L 235.984404 41.472 
" clip-path="url(#p9b3bf7dc06)" style="fill: none; stroke: #b0b0b0; stroke-opacity: 0.5; stroke-width: 0.8; stroke-linecap: square"/>
     </g>
     <g id="line2d_10">
      <g>
       <use xlink:href="#md46e44f599" x="235.984404" y="307.584" style="stroke: #000000; stroke-width: 0.8"/>
      </g>
     </g>
     <g id="text_5">
      <!-- 0.00 -->
      <g transform="translate(224.851591 322.182437) scale(0.1 -0.1)">
       <use xlink:href="#DejaVuSans-30"/>
       <use xlink:href="#DejaVuSans-2e" transform="translate(63.623047 0)"/>
       <use xlink:href="#DejaVuSans-30" transform="translate(95.410156 0)"/>
       <use xlink:href="#DejaVuSans-30" transform="translate(159.033203 0)"/>
      </g>
     </g>
    </g>
    <g id="xtick_6">
     <g id="line2d_11">
      <path d="M 276.610121 307.584 
L 276.610121 41.472 
" clip-path="url(#p9b3bf7dc06)" style="fill: none; stroke: #b0b0b0; stroke-opacity: 0.5; stroke-width: 0.8; stroke-linecap: square"/>
     </g>
     <g id="line2d_12">
      <g>
       <use xlink:href="#md46e44f599" x="276.610121" y="307.584" style="stroke: #000000; stroke-width: 0.8"/>
      </g>
     </g>
     <g id="text_6">
      <!-- 0.25 -->
      <g transform="translate(265.477309 322.182437) scale(0.1 -0.1)">
       <use xlink:href="#DejaVuSans-30"/>
       <use xlink:href="#DejaVuSans-2e" transform="translate(63.623047 0)"/>
       <use xlink:href="#DejaVuSans-32" transform="translate(95.410156 0)"/>
       <use xlink:href="#DejaVuSans-35" transform="translate(159.033203 0)"/>
      </g>
     </g>
    </g>
    <g id="xtick_7">
     <g id="line2d_13">
      <path d="M 317.235838 307.584 
L 317.235838 41.472 
" clip-path="url(#p9b3bf7dc06)" style="fill: none; stroke: #b0b0b0; stroke-opacity: 0.5; stroke-width: 0.8; stroke-linecap: square"/>
     </g>
     <g id="line2d_14">
      <g>
       <use xlink:href="#md46e44f599" x="317.235838" y="307.584" style="stroke: #000000; stroke-width: 0.8"/>
      </g>
     </g>
     <g id="text_7">
      <!-- 0.50 -->
      <g transform="translate(306.103026 322.182437) scale(0.1 -0.1)">
       <use xlink:href="#DejaVuSans-30"/>
       <use xlink:href="#DejaVuSans-2e" transform="translate(63.623047 0)"/>
       <use xlink:href="#DejaVuSans-35" transform="translate(95.410156 0)"/>
       <use xlink:href="#DejaVuSans-30" transform="translate(159.033203 0)"/>
      </g>
     </g>
    </g>
    <g id="xtick_8">
     <g id="line2d_15">
      <path d="M 357.861556 307.584 
L 357.861556 41.472 
" clip-path="url(#p9b3bf7dc06)" style="fill: none; stroke: #b0b0b0; stroke-opacity: 0.5; stroke-width: 0.8; stroke-linecap: square"/>
     </g>
     <g id="line2d_16">
      <g>
       <use xlink:href="#md46e44f599" x="357.861556" y="307.584" style="stroke: #000000; stroke-width: 0.8"/>
      </g>
     </g>
     <g id="text_8">
      <!-- 0.75 -->
      <g transform="translate(346.728743 322.182437) scale(0.1 -0.1)">
       <use xlink:href="#DejaVuSans-30"/>
       <use xlink:href="#DejaVuSans-2e" transform="translate(63.623047 0)"/>
       <use xlink:href="#DejaVuSans-37" transform="translate(95.410156 0)"/>
       <use xlink:href="#DejaVuSans-35" transform="translate(159.033203 0)"/>
      </g>
     </g>
    </g>
    <g id="xtick_9">
     <g id="line2d_17">
      <path d="M 398.487273 307.584 
L 398.487273 41.472 
" clip-path="url(#p9b3bf7dc06)" style="fill: none; stroke: #b0b0b0; stroke-opacity: 0.5; stroke-width: 0.8; stroke-linecap: square"/>
     </g>
     <g id="line2d_18">
      <g>
       <use xlink:href="#md46e44f599" x="398.487273" y="307.584" style="stroke: #000000; stroke-width: 0.8"/>
      </g>
     </g>
     <g id="text_9">
      <!-- 1.00 -->
      <g transform="translate(387.35446 322.182437) scale(0.1 -0.1)">
       <use xlink:href="#DejaVuSans-31"/>
       <use xlink:href="#DejaVuSans-2e" transform="translate(63.623047 0)"/>
       <use xlink:href="#DejaVuSans-30" transform="translate(95.410156 0)"/>
       <use xlink:href="#DejaVuSans-30" transform="translate(159.033203 0)"/>
      </g>
     </g>
    </g>
    <g id="text_10">
     <!-- Index -->
     <g transform="translate(222.393594 335.860562) scale(0.1 -0.1)">
      <defs>
       <path id="DejaVuSans-49" d="M 628 4666 
L 1259 4666 
L 1259 0 
L 628 0 
L 628 4666 
z
" transform="scale(0.015625)"/>
       <path id="DejaVuSans-6e" d="M 3513 2113 
L 3513 0 
L 2938 0 
L 2938 2094 
Q 2938 2591 2744 2837 
Q 2550 3084 2163 3084 
Q 1697 3084 1428 2787 
Q 1159 2491 1159 1978 
L 1159 0 
L 581 0 
L 581 3500 
L 1159 3500 
L 1159 2956 
Q 1366 3272 1645 3428 
Q 1925 3584 2291 3584 
Q 2894 3584 3203 3211 
Q 3513 2838 3513 2113 
z
" transform="scale(0.015625)"/>
       <path id="DejaVuSans-64" d="M 2906 2969 
L 2906 4863 
L 3481 4863 
L 3481 0 
L 2906 0 
L 2906 525 
Q 2725 213 2448 61 
Q 2172 -91 1784 -91 
Q 1150 -91 751 415 
Q 353 922 353 1747 
Q 353 2572 751 3078 
Q 1150 3584 1784 3584 
Q 2172 3584 2448 3432 
Q 2725 3281 2906 2969 
z
M 947 1747 
Q 947 1113 1208 752 
Q 1469 391 1925 391 
Q 2381 391 2643 752 
Q 2906 1113 2906 1747 
Q 2906 2381 2643 2742 
Q 2381 3103 1925 3103 
Q 1469 3103 1208 2742 
Q 947 2381 947 1747 
z
" transform="scale(0.015625)"/>
       <path id="DejaVuSans-65" d="M 3597 1894 
L 3597 1613 
L 953 1613 
Q 991 1019 1311 708 
Q 1631 397 2203 397 
Q 2534 397 2845 478 
Q 3156 559 3463 722 
L 3463 178 
Q 3153 47 2828 -22 
Q 2503 -91 2169 -91 
Q 1331 -91 842 396 
Q 353 884 353 1716 
Q 353 2575 817 3079 
Q 1281 3584 2069 3584 
Q 2775 3584 3186 3129 
Q 3597 2675 3597 1894 
z
M 3022 2063 
Q 3016 2534 2758 2815 
Q 2500 3097 2075 3097 
Q 1594 3097 1305 2825 
Q 1016 2553 972 2059 
L 3022 2063 
z
" transform="scale(0.015625)"/>
       <path id="DejaVuSans-78" d="M 3513 3500 
L 2247 1797 
L 3578 0 
L 2900 0 
L 1881 1375 
L 863 0 
L 184 0 
L 1544 1831 
L 300 3500 
L 978 3500 
L 1906 2253 
L 2834 3500 
L 3513 3500 
z
" transform="scale(0.015625)"/>
      </defs>
      <use xlink:href="#DejaVuSans-49"/>
      <use xlink:href="#DejaVuSans-6e" transform="translate(29.492188 0)"/>
      <use xlink:href="#DejaVuSans-64" transform="translate(92.871094 0)"/>
      <use xlink:href="#DejaVuSans-65" transform="translate(156.347656 0)"/>
      <use xlink:href="#DejaVuSans-78" transform="translate(216.121094 0)"/>
     </g>
    </g>
   </g>
   <g id="matplotlib.axis_2">
    <g id="ytick_1">
     <g id="line2d_19">
      <path d="M 57.6 295.551787 
L 414.72 295.551787 
" clip-path="url(#p9b3bf7dc06)" style="fill: none; stroke: #b0b0b0; stroke-opacity: 0.5; stroke-width: 0.8; stroke-linecap: square"/>
     </g>
     <g id="line2d_20">
      <defs>
       <path id="m9e451daf6a" d="M 0 0 
L -3.5 0 
" style="stroke: #000000; stroke-width: 0.8"/>
      </defs>
      <g>
       <use xlink:href="#m9e451daf6a" x="57.6" y="295.551787" style="stroke: #000000; stroke-width: 0.8"/>
      </g>
     </g>
     <g id="text_11">
      <!-- −1.00 -->
      <g transform="translate(19.954687 299.351006) scale(0.1 -0.1)">
       <use xlink:href="#DejaVuSans-2212"/>
       <use xlink:href="#DejaVuSans-31" transform="translate(83.789062 0)"/>
       <use xlink:href="#DejaVuSans-2e" transform="translate(147.412109 0)"/>
       <use xlink:href="#DejaVuSans-30" transform="translate(179.199219 0)"/>
       <use xlink:href="#DejaVuSans-30" transform="translate(242.822266 0)"/>
      </g>
     </g>
    </g>
    <g id="ytick_2">
     <g id="line2d_21">
      <path d="M 57.6 265.303813 
L 414.72 265.303813 
" clip-path="url(#p9b3bf7dc06)" style="fill: none; stroke: #b0b0b0; stroke-opacity: 0.5; stroke-width: 0.8; stroke-linecap: square"/>
     </g>
     <g id="line2d_22">
      <g>
       <use xlink:href="#m9e451daf6a" x="57.6" y="265.303813" style="stroke: #000000; stroke-width: 0.8"/>
      </g>
     </g>
     <g id="text_12">
      <!-- −0.75 -->
      <g transform="translate(19.954687 269.103032) scale(0.1 -0.1)">
       <use xlink:href="#DejaVuSans-2212"/>
       <use xlink:href="#DejaVuSans-30" transform="translate(83.789062 0)"/>
       <use xlink:href="#DejaVuSans-2e" transform="translate(147.412109 0)"/>
       <use xlink:href="#DejaVuSans-37" transform="translate(179.199219 0)"/>
       <use xlink:href="#DejaVuSans-35" transform="translate(242.822266 0)"/>
      </g>
     </g>
    </g>
    <g id="ytick_3">
     <g id="line2d_23">
      <path d="M 57.6 235.055839 
L 414.72 235.055839 
" clip-path="url(#p9b3bf7dc06)" style="fill: none; stroke: #b0b0b0; stroke-opacity: 0.5; stroke-width: 0.8; stroke-linecap: square"/>
     </g>
     <g id="line2d_24">
      <g>
       <use xlink:href="#m9e451daf6a" x="57.6" y="235.055839" style="stroke: #000000; stroke-width: 0.8"/>
      </g>
     </g>
     <g id="text_13">
      <!-- −0.50 -->
      <g transform="translate(19.954687 238.855057) scale(0.1 -0.1)">
       <use xlink:href="#DejaVuSans-2212"/>
       <use xlink:href="#DejaVuSans-30" transform="translate(83.789062 0)"/>
       <use xlink:href="#DejaVuSans-2e" transform="translate(147.412109 0)"/>
       <use xlink:href="#DejaVuSans-35" transform="translate(179.199219 0)"/>
       <use xlink:href="#DejaVuSans-30" transform="translate(242.822266 0)"/>
      </g>
     </g>
    </g>
    <g id="ytick_4">
     <g id="line2d_25">
      <path d="M 57.6 204.807864 
L 414.72 204.807864 
" clip-path="url(#p9b3bf7dc06)" style="fill: none; stroke: #b0b0b0; stroke-opacity: 0.5; stroke-width: 0.8; stroke-linecap: square"/>
     </g>
     <g id="line2d_26">
      <g>
       <use xlink:href="#m9e451daf6a" x="57.6" y="204.807864" style="stroke: #000000; stroke-width: 0.8"/>
      </g>
     </g>
     <g id="text_14">
      <!-- −0.25 -->
      <g transform="translate(19.954687 208.607083) scale(0.1 -0.1)">
       <use xlink:href="#DejaVuSans-2212"/>
       <use xlink:href="#DejaVuSans-30" transform="translate(83.789062 0)"/>
       <use xlink:href="#DejaVuSans-2e" transform="translate(147.412109 0)"/>
       <use xlink:href="#DejaVuSans-32" transform="translate(179.199219 0)"/>
       <use xlink:href="#DejaVuSans-35" transform="translate(242.822266 0)"/>
      </g>
     </g>
    </g>
    <g id="ytick_5">
     <g id="line2d_27">
      <path d="M 57.6 174.55989 
L 414.72 174.55989 
" clip-path="url(#p9b3bf7dc06)" style="fill: none; stroke: #b0b0b0; stroke-opacity: 0.5; stroke-width: 0.8; stroke-linecap: square"/>
     </g>
     <g id="line2d_28">
      <g>
       <use xlink:href="#m9e451daf6a" x="57.6" y="174.55989" style="stroke: #000000; stroke-width: 0.8"/>
      </g>
     </g>
     <g id="text_15">
      <!-- 0.00 -->
      <g transform="translate(28.334375 178.359109) scale(0.1 -0.1)">
       <use xlink:href="#DejaVuSans-30"/>
       <use xlink:href="#DejaVuSans-2e" transform="translate(63.623047 0)"/>
       <use xlink:href="#DejaVuSans-30" transform="translate(95.410156 0)"/>
       <use xlink:href="#DejaVuSans-30" transform="translate(159.033203 0)"/>
      </g>
     </g>
    </g>
    <g id="ytick_6">
     <g id="line2d_29">
      <path d="M 57.6 144.311916 
L 414.72 144.311916 
" clip-path="url(#p9b3bf7dc06)" style="fill: none; stroke: #b0b0b0; stroke-opacity: 0.5; stroke-width: 0.8; stroke-linecap: square"/>
     </g>
     <g id="line2d_30">
      <g>
       <use xlink:href="#m9e451daf6a" x="57.6" y="144.311916" style="stroke: #000000; stroke-width: 0.8"/>
      </g>
     </g>
     <g id="text_16">
      <!-- 0.25 -->
      <g transform="translate(28.334375 148.111134) scale(0.1 -0.1)">
       <use xlink:href="#DejaVuSans-30"/>
       <use xlink:href="#DejaVuSans-2e" transform="translate(63.623047 0)"/>
       <use xlink:href="#DejaVuSans-32" transform="translate(95.410156 0)"/>
       <use xlink:href="#DejaVuSans-35" transform="translate(159.033203 0)"/>
      </g>
     </g>
    </g>
    <g id="ytick_7">
     <g id="line2d_31">
      <path d="M 57.6 114.063941 
L 414.72 114.063941 
" clip-path="url(#p9b3bf7dc06)" style="fill: none; stroke: #b0b0b0; stroke-opacity: 0.5; stroke-width: 0.8; stroke-linecap: square"/>
     </g>
     <g id="line2d_32">
      <g>
       <use xlink:href="#m9e451daf6a" x="57.6" y="114.063941" style="stroke: #000000; stroke-width: 0.8"/>
      </g>
     </g>
     <g id="text_17">
      <!-- 0.50 -->
      <g transform="translate(28.334375 117.86316) scale(0.1 -0.1)">
       <use xlink:href="#DejaVuSans-30"/>
       <use xlink:href="#DejaVuSans-2e" transform="translate(63.623047 0)"/>
       <use xlink:href="#DejaVuSans-35" transform="translate(95.410156 0)"/>
       <use xlink:href="#DejaVuSans-30" transform="translate(159.033203 0)"/>
      </g>
     </g>
    </g>
    <g id="ytick_8">
     <g id="line2d_33">
      <path d="M 57.6 83.815967 
L 414.72 83.815967 
" clip-path="url(#p9b3bf7dc06)" style="fill: none; stroke: #b0b0b0; stroke-opacity: 0.5; stroke-width: 0.8; stroke-linecap: square"/>
     </g>
     <g id="line2d_34">
      <g>
       <use xlink:href="#m9e451daf6a" x="57.6" y="83.815967" style="stroke: #000000; stroke-width: 0.8"/>
      </g>
     </g>
     <g id="text_18">
      <!-- 0.75 -->
      <g transform="translate(28.334375 87.615186) scale(0.1 -0.1)">
       <use xlink:href="#DejaVuSans-30"/>
       <use xlink:href="#DejaVuSans-2e" transform="translate(63.623047 0)"/>
       <use xlink:href="#DejaVuSans-37" transform="translate(95.410156 0)"/>
       <use xlink:href="#DejaVuSans-35" transform="translate(159.033203 0)"/>
      </g>
     </g>
    </g>
    <g id="ytick_9">
     <g id="line2d_35">
      <path d="M 57.6 53.567993 
L 414.72 53.567993 
" clip-path="url(#p9b3bf7dc06)" style="fill: none; stroke: #b0b0b0; stroke-opacity: 0.5; stroke-width: 0.8; stroke-linecap: square"/>
     </g>
     <g id="line2d_36">
      <g>
       <use xlink:href="#m9e451daf6a" x="57.6" y="53.567993" style="stroke: #000000; stroke-width: 0.8"/>
      </g>
     </g>
     <g id="text_19">
      <!-- 1.00 -->
      <g transform="translate(28.334375 57.367212) scale(0.1 -0.1)">
       <use xlink:href="#DejaVuSans-31"/>
       <use xlink:href="#DejaVuSans-2e" transform="translate(63.623047 0)"/>
       <use xlink:href="#DejaVuSans-30" transform="translate(95.410156 0)"/>
       <use xlink:href="#DejaVuSans-30" transform="translate(159.033203 0)"/>
      </g>
     </g>
    </g>
    <g id="text_20">
     <!-- Value -->
     <g transform="translate(13.875 188.25925) rotate(-90) scale(0.1 -0.1)">
      <defs>
       <path id="DejaVuSans-56" d="M 1831 0 
L 50 4666 
L 709 4666 
L 2188 738 
L 3669 4666 
L 4325 4666 
L 2547 0 
L 1831 0 
z
" transform="scale(0.015625)"/>
       <path id="DejaVuSans-61" d="M 2194 1759 
Q 1497 1759 1228 1600 
Q 959 1441 959 1056 
Q 959 750 1161 570 
Q 1363 391 1709 391 
Q 2188 391 2477 730 
Q 2766 1069 2766 1631 
L 2766 1759 
L 2194 1759 
z
M 3341 1997 
L 3341 0 
L 2766 0 
L 2766 531 
Q 2569 213 2275 61 
Q 1981 -91 1556 -91 
Q 1019 -91 701 211 
Q 384 513 384 1019 
Q 384 1609 779 1909 
Q 1175 2209 1959 2209 
L 2766 2209 
L 2766 2266 
Q 2766 2663 2505 2880 
Q 2244 3097 1772 3097 
Q 1472 3097 1187 3025 
Q 903 2953 641 2809 
L 641 3341 
Q 956 3463 1253 3523 
Q 1550 3584 1831 3584 
Q 2591 3584 2966 3190 
Q 3341 2797 3341 1997 
z
" transform="scale(0.015625)"/>
       <path id="DejaVuSans-6c" d="M 603 4863 
L 1178 4863 
L 1178 0 
L 603 0 
L 603 4863 
z
" transform="scale(0.015625)"/>
       <path id="DejaVuSans-75" d="M 544 1381 
L 544 3500 
L 1119 3500 
L 1119 1403 
Q 1119 906 1312 657 
Q 1506 409 1894 409 
Q 2359 409 2629 706 
Q 2900 1003 2900 1516 
L 2900 3500 
L 3475 3500 
L 3475 0 
L 2900 0 
L 2900 538 
Q 2691 219 2414 64 
Q 2138 -91 1772 -91 
Q 1169 -91 856 284 
Q 544 659 544 1381 
z
M 1991 3584 
L 1991 3584 
z
" transform="scale(0.015625)"/>
      </defs>
      <use xlink:href="#DejaVuSans-56"/>
      <use xlink:href="#DejaVuSans-61" transform="translate(60.658203 0)"/>
      <use xlink:href="#DejaVuSans-6c" transform="translate(121.9375 0)"/>
      <use xlink:href="#DejaVuSans-75" transform="translate(149.720703 0)"/>
      <use xlink:href="#DejaVuSans-65" transform="translate(213.099609 0)"/>
     </g>
    </g>
   </g>
   <g id="line2d_37">
    <path d="M 213.958015 178.144482 
L 267.83451 177.653871 
L 236.12339 177.169749 
L 243.278027 176.692227 
L 248.4213 172.885235 
L 250.758208 170.942263 
L 255.716085 167.142814 
L 261.920531 161.89513 
L 265.352879 159.05021 
L 268.701471 156.200659 
L 287.279682 141.537853 
L 290.924592 138.709357 
L 294.572002 135.880497 
L 309.327435 124.666776 
L 312.988289 121.877543 
L 315.327159 120.024502 
L 323.024303 113.546734 
L 326.877257 110.320727 
L 329.6333 108.023756 
L 332.901661 105.272984 
L 334.080661 104.357685 
L 344.961171 96.604315 
L 348.126038 94.331237 
L 351.937924 91.606982 
L 355.132439 89.341822 
L 356.945993 87.981822 
L 360.865597 84.812859 
L 363.123958 83.000903 
L 365.867767 80.737763 
L 368.756924 78.482873 
L 371.461273 76.223728 
L 374.364649 73.976518 
L 377.082539 71.725818 
L 380.137596 69.490169 
L 382.857327 67.24663 
L 385.983934 65.026269 
L 388.584721 62.787418 
L 392.331344 60.131212 
L 393.655991 58.782585 
L 394.883721 57.911861 
L 397.842084 56.156214 
L 398.134608 55.696094 
L 398.169032 55.236732 
L 397.937316 54.38892 
L 397.523727 54.045161 
L 396.19967 53.784495 
L 393.194147 53.623025 
L 384.204193 53.616239 
L 382.10968 53.754754 
L 382.511462 53.963525 
L 385.746367 54.502403 
L 386.577555 54.797223 
L 386.357569 55.098953 
L 384.942949 55.412372 
L 372.767856 57.088021 
L 371.020196 57.679465 
L 370.646241 58.339456 
L 371.334891 59.048508 
L 373.864778 60.494753 
L 375.291679 61.16655 
L 376.961581 61.767773 
L 380.261257 62.715351 
L 380.618696 63.075834 
L 379.137612 63.392095 
L 370.904817 64.030848 
L 366.082272 64.420625 
L 362.261658 64.888548 
L 360.219158 65.441049 
L 360.147134 66.068905 
L 361.458676 66.74893 
L 368.191237 69.325569 
L 369.662277 69.807194 
L 370.292521 70.216875 
L 369.314572 70.576817 
L 366.373053 70.918932 
L 357.460946 71.68562 
L 353.830612 72.161764 
L 351.933004 72.712794 
L 351.903452 73.329392 
L 353.135599 73.989023 
L 360.114899 76.924371 
L 360.088234 77.337218 
L 358.574517 77.714706 
L 345.576751 79.410699 
L 344.365303 79.965875 
L 344.484033 80.569536 
L 345.397154 81.201503 
L 349.68708 83.543387 
L 350.081035 84.011613 
L 349.622736 84.437513 
L 348.073947 84.838901 
L 339.696028 86.110759 
L 337.602376 86.611704 
L 336.526667 87.159078 
L 336.421546 87.74396 
L 336.978545 88.350209 
L 340.17676 90.613833 
L 340.314707 91.082953 
L 339.695873 91.51786 
L 338.169381 91.933801 
L 330.805685 93.248995 
L 329.030642 93.754173 
L 328.185216 94.297746 
L 328.166154 94.870923 
L 328.678965 95.459165 
L 330.85301 97.150369 
L 331.216252 97.65184 
L 331.082266 98.119345 
L 330.279991 98.561478 
L 328.782576 98.99159 
L 322.796306 100.35252 
L 321.476395 100.861059 
L 320.818217 101.398661 
L 320.727818 101.957537 
L 321.013911 102.526048 
L 322.318131 104.166294 
L 322.431136 104.664152 
L 322.142564 105.136013 
L 321.351601 105.588495 
L 320.054007 106.031768 
L 315.030372 107.416223 
L 313.818866 107.921004 
L 313.11222 108.449289 
L 312.878964 108.995133 
L 312.992226 109.54925 
L 313.915871 111.158024 
L 313.945001 111.652796 
L 313.606314 112.125211 
L 312.819129 112.580989 
L 310.045055 113.479651 
L 306.987582 114.423307 
L 305.910652 114.925824 
L 305.291019 115.447967 
L 305.073822 115.984047 
L 305.145168 116.525691 
L 305.668049 118.097819 
L 305.529404 118.586479 
L 305.059022 119.057431 
L 304.225068 119.515942 
L 301.722443 120.426027 
L 299.152074 121.3745 
L 298.225126 121.872888 
L 297.625461 122.386363 
L 297.329236 122.91044 
L 297.242731 123.438771 
L 297.274385 124.984021 
L 297.051662 125.471887 
L 296.581648 125.945698 
L 295.824044 126.409297 
L 293.6068 127.329598 
L 291.232038 128.280339 
L 290.319464 128.77607 
L 289.688368 129.284951 
L 289.333606 129.803319 
L 289.187039 130.325694 
L 289.035382 131.858716 
L 288.744886 132.346193 
L 288.203036 132.821984 
L 287.398944 133.289899 
L 282.234394 135.686661 
L 281.679463 136.195297 
L 281.096342 137.225475 
L 280.691407 138.242123 
L 280.348312 138.737382 
L 279.841327 139.223294 
L 278.30279 140.175942 
L 274.597594 142.09973 
L 273.369658 143.099376 
L 272.577991 144.109956 
L 271.864729 145.109075 
L 270.876595 146.084022 
L 269.4414 147.039748 
L 266.101453 148.963836 
L 264.888088 149.952469 
L 262.11355 152.897261 
L 259.79795 154.327588 
L 258.248085 155.290832 
L 257.019883 156.268117 
L 253.924315 159.192675 
L 248.646163 163.043849 
L 243.983124 166.904155 
L 239.530424 170.265568 
L 236.090782 173.143198 
L 232.227345 176.008369 
L 228.64524 178.873363 
L 224.295741 182.201131 
L 197.253721 202.972155 
L 194.219476 205.330174 
L 191.178164 207.679833 
L 188.087249 210.029697 
L 185.109883 212.374297 
L 181.495337 215.180372 
L 178.717404 217.51105 
L 176.538855 219.37547 
L 174.427033 221.233048 
L 170.523992 224.47905 
L 168.409032 226.330288 
L 165.063619 229.101992 
L 162.375378 231.407984 
L 159.649381 233.713006 
L 157.549995 235.550964 
L 154.205571 238.305039 
L 152.174364 240.138255 
L 147.818613 243.792514 
L 145.645217 245.613737 
L 143.452246 247.435457 
L 140.870995 249.70666 
L 138.052062 251.975505 
L 135.557113 254.243088 
L 133.71082 255.597268 
L 131.833136 256.957376 
L 129.474516 258.76776 
L 124.992586 261.930759 
L 123.218105 263.284471 
L 118.708358 266.444044 
L 117.003315 267.797107 
L 112.42039 270.947861 
L 110.779459 272.299286 
L 108.727311 273.640485 
L 106.727216 274.987915 
L 103.281293 277.675477 
L 100.47003 279.461154 
L 97.192943 282.138086 
L 94.196534 283.911849 
L 93.212153 284.810071 
L 92.393421 285.70253 
L 91.187 286.581331 
L 87.846373 288.342438 
L 87.290662 288.791797 
L 86.687346 289.692103 
L 86.448433 290.13666 
L 86.07287 290.574618 
L 85.417124 291.006547 
L 83.256533 291.86641 
L 80.949142 292.753382 
L 80.437628 293.211698 
L 80.690246 293.67259 
L 81.810172 294.122375 
L 83.710531 294.54172 
L 86.204163 294.907965 
L 92.030335 295.395604 
L 95.36053 295.474976 
L 94.940239 295.365618 
L 92.307604 294.932318 
L 91.294417 294.652902 
L 90.852003 294.357 
L 90.950528 294.05434 
L 91.591117 293.744476 
L 94.560318 293.055407 
L 96.529253 292.639005 
L 98.186535 292.150875 
L 99.040775 291.58178 
L 99.01872 290.934149 
L 98.547645 290.223669 
L 98.193819 289.478082 
L 98.228368 288.733311 
L 98.61474 288.027532 
L 99.565743 286.856089 
L 99.575806 286.419227 
L 99.288667 286.072187 
L 99.476274 285.786734 
L 101.139803 285.522599 
L 108.149197 284.881683 
L 110.910393 284.433765 
L 111.662844 283.879014 
L 110.538705 283.225917 
L 108.910521 282.502131 
L 108.005022 281.749348 
L 107.98905 281.015126 
L 109.149724 279.294615 
L 108.923761 278.921042 
L 109.052555 278.616125 
L 110.652244 278.337005 
L 117.794684 277.668691 
L 120.46276 277.20635 
L 120.953119 276.638496 
L 117.987686 275.251437 
L 117.219631 274.506211 
L 117.333169 273.788014 
L 118.377331 272.58321 
L 118.499142 272.130929 
L 118.38293 271.767908 
L 118.82114 271.463063 
L 120.722294 271.174076 
L 127.397214 270.470397 
L 129.505162 269.992666 
L 129.635883 269.416987 
L 127.019831 268.043097 
L 126.478165 267.315778 
L 126.684872 266.618026 
L 127.746779 265.444758 
L 127.928042 264.998175 
L 127.949719 264.633574 
L 128.521024 264.321698 
L 130.397895 264.023048 
L 136.602195 263.303574 
L 138.558258 262.823673 
L 138.698772 262.250439 
L 136.298832 260.892249 
L 135.794108 260.175703 
L 136.010017 259.488957 
L 137.078123 258.334302 
L 137.349948 257.532349 
L 138.026975 257.220328 
L 140.00273 256.918368 
L 146.09355 256.186145 
L 147.839428 255.699998 
L 147.790853 255.123252 
L 145.236907 253.772266 
L 144.742441 253.066935 
L 144.940576 252.394691 
L 145.891811 251.267996 
L 146.238529 250.474928 
L 147.053842 250.157535 
L 154.554477 249.09017 
L 155.946509 248.597829 
L 155.737913 248.021349 
L 153.507864 246.689784 
L 153.124447 245.999627 
L 153.358566 245.342159 
L 154.58307 243.800512 
L 154.852896 243.435204 
L 155.729283 243.109402 
L 162.758127 242.019905 
L 164.05174 241.527246 
L 163.876018 240.955064 
L 161.840744 239.642971 
L 161.496123 238.965319 
L 161.738296 238.320075 
L 163.36464 236.433608 
L 164.327475 236.103422 
L 171.036368 234.993663 
L 172.133551 234.498805 
L 171.884904 233.929735 
L 170.039357 232.641015 
L 169.783915 231.981035 
L 170.061916 231.353979 
L 171.898445 229.492605 
L 172.948535 229.153051 
L 179.014297 228.01349 
L 179.931351 227.518639 
L 179.724983 226.95721 
L 178.241806 225.701992 
L 178.069755 225.062244 
L 178.356584 224.453149 
L 179.803768 222.977683 
L 180.390105 222.599044 
L 181.479026 222.246317 
L 186.952892 221.070222 
L 187.742178 220.5728 
L 187.570505 220.015828 
L 186.393394 218.787466 
L 186.306637 218.165834 
L 186.620635 217.573888 
L 187.660739 216.545413 
L 188.19516 216.114829 
L 188.920442 215.725048 
L 190.087843 215.354173 
L 193.499522 214.570264 
L 194.872022 214.117241 
L 195.474523 213.611024 
L 195.367472 213.055638 
L 194.976892 212.464904 
L 194.745752 211.859376 
L 194.870099 211.26192 
L 195.293336 210.693103 
L 196.486719 209.688794 
L 197.169582 209.253673 
L 198.054708 208.848442 
L 203.176478 207.151545 
L 203.638008 206.640298 
L 203.646299 206.092127 
L 203.514173 205.519581 
L 203.518532 204.939827 
L 203.775352 204.370921 
L 204.242269 203.828172 
L 205.491642 202.85148 
L 207.213015 201.995493 
L 210.75958 200.704716 
L 211.525843 200.222464 
L 211.885394 199.708455 
L 212.250285 198.064512 
L 212.630257 197.526261 
L 213.793684 196.525118 
L 215.375839 195.623492 
L 219.21812 193.830951 
L 219.751893 193.336603 
L 220.323468 192.296463 
L 221.005947 191.243554 
L 222.124887 190.240961 
L 223.593567 189.304704 
L 226.911641 187.469835 
L 228.035433 186.49099 
L 229.8505 184.464504 
L 231.064817 183.487038 
L 233.253692 182.082595 
L 235.41545 180.672162 
L 236.550127 179.696243 
L 238.066645 178.206149 
L 238.066645 178.206149 
" clip-path="url(#p9b3bf7dc06)" style="fill: none; stroke: #1f77b4; stroke-width: 1.5; stroke-linecap: square"/>
   </g>
   <g id="line2d_38">
    <path d="M 236.521463 178.144482 
L 238.479531 176.692227 
L 241.820634 174.336224 
L 246.790991 170.46389 
L 250.543544 167.620099 
L 259.305883 160.951739 
L 273.75126 150.048619 
L 277.450748 147.215662 
L 281.254997 144.372478 
L 284.927813 141.537853 
L 289.290751 138.23599 
L 297.324999 132.13452 
L 372.428568 75.32772 
L 374.711424 73.524007 
L 376.437873 72.17248 
L 380.1307 69.490169 
L 382.337299 67.690804 
L 386.130811 65.026269 
L 388.22578 63.229393 
L 390.299469 61.911206 
L 391.628494 61.029751 
L 392.626648 60.131212 
L 394.010254 58.782585 
L 395.458697 57.911861 
L 397.921101 56.607997 
L 398.381919 56.156214 
L 398.487273 55.696094 
L 398.20579 55.236732 
L 397.580709 54.793935 
L 395.801821 54.045161 
L 394.188988 53.568 
L 394.654009 53.754754 
L 395.475851 54.219698 
L 395.574337 54.502403 
L 395.274906 54.797223 
L 394.525555 55.098953 
L 388.905771 56.573236 
L 387.737639 57.088021 
L 386.989275 57.679465 
L 386.711318 58.339456 
L 386.861382 59.048508 
L 387.865812 60.494753 
L 388.304256 61.16655 
L 388.414278 61.767773 
L 388.03489 62.2841 
L 387.08751 62.715351 
L 385.59363 63.075834 
L 377.575446 64.420625 
L 376.210941 64.888548 
L 375.438237 65.441049 
L 375.260355 66.068905 
L 375.565142 66.74893 
L 376.73895 68.130861 
L 377.081077 68.764118 
L 376.958666 69.325569 
L 376.254082 69.807194 
L 374.9697 70.216875 
L 371.238943 70.918932 
L 367.563163 71.68562 
L 366.317446 72.161764 
L 365.620486 72.712794 
L 365.446672 73.329392 
L 365.663365 73.989023 
L 366.407671 75.312215 
L 366.483366 75.915609 
L 366.139884 76.454076 
L 365.320338 76.924371 
L 364.067628 77.337218 
L 357.872123 78.914932 
L 356.877388 79.410699 
L 356.27964 79.965875 
L 356.035255 80.569536 
L 356.124336 81.836707 
L 356.144096 82.450378 
L 355.952692 83.022892 
L 355.456511 83.543387 
L 354.624781 84.011613 
L 352.153436 84.838901 
L 349.38453 85.655991 
L 348.222965 86.110759 
L 347.337584 86.611704 
L 346.757601 87.159078 
L 346.450818 87.74396 
L 346.150923 89.546995 
L 345.841109 90.101876 
L 345.269755 90.613833 
L 344.416241 91.082953 
L 342.065573 91.933801 
L 339.567544 92.783185 
L 338.546173 93.248995 
L 337.769216 93.754173 
L 337.242854 94.297746 
L 336.921359 94.870923 
L 336.249727 96.613012 
L 335.800213 97.150369 
L 335.140049 97.65184 
L 333.243167 98.561478 
L 329.965227 99.875194 
L 328.34515 100.861059 
L 327.793914 101.398661 
L 327.046112 102.526048 
L 326.337955 103.640707 
L 325.839284 104.166294 
L 325.192904 104.664152 
L 323.467317 105.588495 
L 320.460932 106.936242 
L 318.862173 107.921004 
L 317.82883 108.995133 
L 316.692162 110.639548 
L 316.182862 111.158024 
L 314.755336 112.125211 
L 310.226783 114.423307 
L 308.982616 115.447967 
L 306.62988 118.097819 
L 305.215348 119.057431 
L 300.339942 121.872888 
L 299.18769 122.91044 
L 297.155791 124.984021 
L 295.819472 125.945698 
L 291.034867 128.77607 
L 289.864342 129.803319 
L 287.748316 131.858716 
L 286.352957 132.821984 
L 282.446192 135.187681 
L 280.629809 136.709825 
L 278.924825 138.242123 
L 276.907576 139.701731 
L 273.319899 142.09973 
L 270.859175 144.109956 
L 268.40142 146.084022 
L 262.394645 150.450407 
L 259.931044 152.416936 
L 253.985451 156.759665 
L 250.116731 159.672009 
L 243.017842 164.983002 
L 232.833491 172.666747 
L 227.134407 176.966581 
L 197.108071 199.675289 
L 187.171183 207.210814 
L 181.023468 211.906547 
L 172.453908 218.443116 
L 167.567431 222.158724 
L 153.577816 232.790513 
L 148.120892 236.926 
L 136.783942 245.613737 
L 127.908796 252.430598 
L 124.270588 255.145456 
L 109.458686 266.444044 
L 107.056179 268.245724 
L 104.068817 270.495465 
L 101.136141 272.746821 
L 98.156654 274.987915 
L 95.876054 276.785693 
L 92.238359 279.461154 
L 90.026646 281.254006 
L 86.293225 283.911849 
L 84.190914 285.70253 
L 79.819976 288.791797 
L 78.440671 290.13666 
L 77.057124 291.006547 
L 74.590719 292.304621 
L 74.052123 292.753382 
L 73.832727 293.211698 
L 73.982869 293.67259 
L 74.487273 294.122375 
L 76.170319 294.907965 
L 78.171489 295.474976 
L 77.066964 294.932318 
L 76.820671 294.652902 
L 76.923661 294.357 
L 77.479033 294.05434 
L 79.914423 293.41726 
L 83.194949 292.639005 
L 84.615913 292.150875 
L 85.618872 291.58178 
L 86.085268 290.934149 
L 86.002047 290.223669 
L 85.470648 289.478082 
L 83.938199 288.027532 
L 83.489256 287.394333 
L 83.589302 286.856089 
L 84.388691 286.419227 
L 85.90942 286.072187 
L 90.51996 285.522599 
L 95.27419 284.881683 
L 96.91084 284.433765 
L 97.776578 283.879014 
L 97.841677 283.225917 
L 97.236878 282.502131 
L 94.428957 280.343409 
L 94.300231 279.765732 
L 94.96149 279.294615 
L 96.425052 278.921042 
L 101.014631 278.337005 
L 105.628735 277.668691 
L 107.131119 277.20635 
L 107.857215 276.638496 
L 107.820922 275.976651 
L 107.190726 275.251437 
L 105.345228 273.788014 
L 104.797557 273.13804 
L 104.855469 272.58321 
L 105.638499 272.130929 
L 107.118915 271.767908 
L 115.525427 270.470397 
L 116.844466 269.992666 
L 117.488134 269.416987 
L 117.481596 268.757053 
L 116.976146 268.043097 
L 115.499042 266.618026 
L 115.101164 265.986564 
L 115.240554 265.444758 
L 116.026828 264.998175 
L 117.441806 264.633574 
L 125.391879 263.303574 
L 126.644647 262.823673 
L 127.251199 262.250439 
L 127.231963 261.596931 
L 126.733651 260.892249 
L 125.322198 259.488957 
L 124.979752 258.867635 
L 125.183166 258.334302 
L 126.030937 257.893798 
L 127.489637 257.532349 
L 135.230338 256.186145 
L 136.36457 255.699998 
L 136.872045 255.123252 
L 136.799478 254.470688 
L 136.309438 253.772266 
L 135.081795 252.394691 
L 134.867397 251.788557 
L 135.177492 251.267996 
L 136.080036 250.835238 
L 137.524692 250.474928 
L 143.227823 249.499945 
L 144.780225 249.09017 
L 145.834083 248.597829 
L 146.323949 248.021349 
L 146.294998 247.37581 
L 145.893245 246.689784 
L 144.869588 245.342159 
L 144.720405 244.747477 
L 145.051596 244.233082 
L 145.930642 243.800512 
L 147.316592 243.435204 
L 152.782011 242.434389 
L 154.276075 242.019905 
L 155.292133 241.527246 
L 155.765494 240.955064 
L 155.740432 240.317833 
L 155.361155 239.642971 
L 154.42424 238.320075 
L 154.325647 237.735807 
L 154.697684 237.228739 
L 155.594944 236.799623 
L 156.965353 236.433608 
L 162.174666 235.414079 
L 163.557104 234.993663 
L 164.486406 234.498805 
L 164.919178 233.929735 
L 164.911386 233.301554 
L 163.902476 231.353979 
L 163.906282 230.785281 
L 164.333029 230.288425 
L 165.221539 229.862499 
L 168.096559 229.153051 
L 171.338646 228.440652 
L 172.629761 228.01349 
L 173.523617 227.518639 
L 173.980565 226.95721 
L 174.046885 226.343514 
L 173.350404 224.453149 
L 173.418767 223.89711 
L 173.869884 223.405739 
L 174.74199 222.977683 
L 177.488304 222.246317 
L 180.54739 221.506154 
L 181.758412 221.070222 
L 182.596913 220.5728 
L 183.034629 220.015828 
L 183.125648 219.413126 
L 182.740424 217.573888 
L 182.939257 217.030784 
L 183.491747 216.545413 
L 184.410806 216.114829 
L 187.037866 215.354173 
L 189.766445 214.570264 
L 190.811624 214.117241 
L 191.535192 213.611024 
L 191.937046 213.055638 
L 192.081793 212.464904 
L 192.079269 211.26192 
L 192.203278 210.693103 
L 192.55759 210.167043 
L 193.194342 209.688794 
L 194.107071 209.253673 
L 199.701928 207.151545 
L 200.342594 206.640298 
L 200.74157 206.092127 
L 201.089507 204.939827 
L 201.244063 204.370921 
L 201.524374 203.828172 
L 202.00304 203.321049 
L 202.708672 202.85148 
L 204.675797 201.995493 
L 206.836426 201.155309 
L 207.756228 200.704716 
L 208.487513 200.222464 
L 209.020813 199.708455 
L 209.666099 198.616634 
L 210.277606 197.526261 
L 210.75972 197.011679 
L 211.407772 196.525118 
L 213.122568 195.623492 
L 215.842348 194.302666 
L 217.146943 193.336603 
L 218.485602 191.766976 
L 219.50159 190.733552 
L 220.862998 189.765867 
L 224.679202 187.469835 
L 225.883974 186.49099 
L 228.697245 183.970556 
L 230.781622 182.546279 
L 233.550052 180.672162 
L 235.861447 178.702149 
L 236.446368 178.206149 
L 236.446368 178.206149 
" clip-path="url(#p9b3bf7dc06)" style="fill: none; stroke: #ff7f0e; stroke-opacity: 0.7; stroke-width: 1.5; stroke-linecap: square"/>
   </g>
   <g id="patch_3">
    <path d="M 57.6 307.584 
L 57.6 41.472 
" style="fill: none; stroke: #000000; stroke-width: 0.8; stroke-linejoin: miter; stroke-linecap: square"/>
   </g>
   <g id="patch_4">
    <path d="M 414.72 307.584 
L 414.72 41.472 
" style="fill: none; stroke: #000000; stroke-width: 0.8; stroke-linejoin: miter; stroke-linecap: square"/>
   </g>
   <g id="patch_5">
    <path d="M 57.6 307.584 
L 414.72 307.584 
" style="fill: none; stroke: #000000; stroke-width: 0.8; stroke-linejoin: miter; stroke-linecap: square"/>
   </g>
   <g id="patch_6">
    <path d="M 57.6 41.472 
L 414.72 41.472 
" style="fill: none; stroke: #000000; stroke-width: 0.8; stroke-linejoin: miter; stroke-linecap: square"/>
   </g>
   <g id="text_21">
    <!-- Best Model - Predicted vs Target -->
    <g transform="translate(139.75125 35.472) scale(0.12 -0.12)">
     <defs>
      <path id="DejaVuSans-42" d="M 1259 2228 
L 1259 519 
L 2272 519 
Q 2781 519 3026 730 
Q 3272 941 3272 1375 
Q 3272 1813 3026 2020 
Q 2781 2228 2272 2228 
L 1259 2228 
z
M 1259 4147 
L 1259 2741 
L 2194 2741 
Q 2656 2741 2882 2914 
Q 3109 3088 3109 3444 
Q 3109 3797 2882 3972 
Q 2656 4147 2194 4147 
L 1259 4147 
z
M 628 4666 
L 2241 4666 
Q 2963 4666 3353 4366 
Q 3744 4066 3744 3513 
Q 3744 3084 3544 2831 
Q 3344 2578 2956 2516 
Q 3422 2416 3680 2098 
Q 3938 1781 3938 1306 
Q 3938 681 3513 340 
Q 3088 0 2303 0 
L 628 0 
L 628 4666 
z
" transform="scale(0.015625)"/>
      <path id="DejaVuSans-73" d="M 2834 3397 
L 2834 2853 
Q 2591 2978 2328 3040 
Q 2066 3103 1784 3103 
Q 1356 3103 1142 2972 
Q 928 2841 928 2578 
Q 928 2378 1081 2264 
Q 1234 2150 1697 2047 
L 1894 2003 
Q 2506 1872 2764 1633 
Q 3022 1394 3022 966 
Q 3022 478 2636 193 
Q 2250 -91 1575 -91 
Q 1294 -91 989 -36 
Q 684 19 347 128 
L 347 722 
Q 666 556 975 473 
Q 1284 391 1588 391 
Q 1994 391 2212 530 
Q 2431 669 2431 922 
Q 2431 1156 2273 1281 
Q 2116 1406 1581 1522 
L 1381 1569 
Q 847 1681 609 1914 
Q 372 2147 372 2553 
Q 372 3047 722 3315 
Q 1072 3584 1716 3584 
Q 2034 3584 2315 3537 
Q 2597 3491 2834 3397 
z
" transform="scale(0.015625)"/>
      <path id="DejaVuSans-74" d="M 1172 4494 
L 1172 3500 
L 2356 3500 
L 2356 3053 
L 1172 3053 
L 1172 1153 
Q 1172 725 1289 603 
Q 1406 481 1766 481 
L 2356 481 
L 2356 0 
L 1766 0 
Q 1100 0 847 248 
Q 594 497 594 1153 
L 594 3053 
L 172 3053 
L 172 3500 
L 594 3500 
L 594 4494 
L 1172 4494 
z
" transform="scale(0.015625)"/>
      <path id="DejaVuSans-20" transform="scale(0.015625)"/>
      <path id="DejaVuSans-4d" d="M 628 4666 
L 1569 4666 
L 2759 1491 
L 3956 4666 
L 4897 4666 
L 4897 0 
L 4281 0 
L 4281 4097 
L 3078 897 
L 2444 897 
L 1241 4097 
L 1241 0 
L 628 0 
L 628 4666 
z
" transform="scale(0.015625)"/>
      <path id="DejaVuSans-6f" d="M 1959 3097 
Q 1497 3097 1228 2736 
Q 959 2375 959 1747 
Q 959 1119 1226 758 
Q 1494 397 1959 397 
Q 2419 397 2687 759 
Q 2956 1122 2956 1747 
Q 2956 2369 2687 2733 
Q 2419 3097 1959 3097 
z
M 1959 3584 
Q 2709 3584 3137 3096 
Q 3566 2609 3566 1747 
Q 3566 888 3137 398 
Q 2709 -91 1959 -91 
Q 1206 -91 779 398 
Q 353 888 353 1747 
Q 353 2609 779 3096 
Q 1206 3584 1959 3584 
z
" transform="scale(0.015625)"/>
      <path id="DejaVuSans-2d" d="M 313 2009 
L 1997 2009 
L 1997 1497 
L 313 1497 
L 313 2009 
z
" transform="scale(0.015625)"/>
      <path id="DejaVuSans-50" d="M 1259 4147 
L 1259 2394 
L 2053 2394 
Q 2494 2394 2734 2622 
Q 2975 2850 2975 3272 
Q 2975 3691 2734 3919 
Q 2494 4147 2053 4147 
L 1259 4147 
z
M 628 4666 
L 2053 4666 
Q 2838 4666 3239 4311 
Q 3641 3956 3641 3272 
Q 3641 2581 3239 2228 
Q 2838 1875 2053 1875 
L 1259 1875 
L 1259 0 
L 628 0 
L 628 4666 
z
" transform="scale(0.015625)"/>
      <path id="DejaVuSans-72" d="M 2631 2963 
Q 2534 3019 2420 3045 
Q 2306 3072 2169 3072 
Q 1681 3072 1420 2755 
Q 1159 2438 1159 1844 
L 1159 0 
L 581 0 
L 581 3500 
L 1159 3500 
L 1159 2956 
Q 1341 3275 1631 3429 
Q 1922 3584 2338 3584 
Q 2397 3584 2469 3576 
Q 2541 3569 2628 3553 
L 2631 2963 
z
" transform="scale(0.015625)"/>
      <path id="DejaVuSans-69" d="M 603 3500 
L 1178 3500 
L 1178 0 
L 603 0 
L 603 3500 
z
M 603 4863 
L 1178 4863 
L 1178 4134 
L 603 4134 
L 603 4863 
z
" transform="scale(0.015625)"/>
      <path id="DejaVuSans-63" d="M 3122 3366 
L 3122 2828 
Q 2878 2963 2633 3030 
Q 2388 3097 2138 3097 
Q 1578 3097 1268 2742 
Q 959 2388 959 1747 
Q 959 1106 1268 751 
Q 1578 397 2138 397 
Q 2388 397 2633 464 
Q 2878 531 3122 666 
L 3122 134 
Q 2881 22 2623 -34 
Q 2366 -91 2075 -91 
Q 1284 -91 818 406 
Q 353 903 353 1747 
Q 353 2603 823 3093 
Q 1294 3584 2113 3584 
Q 2378 3584 2631 3529 
Q 2884 3475 3122 3366 
z
" transform="scale(0.015625)"/>
      <path id="DejaVuSans-76" d="M 191 3500 
L 800 3500 
L 1894 563 
L 2988 3500 
L 3597 3500 
L 2284 0 
L 1503 0 
L 191 3500 
z
" transform="scale(0.015625)"/>
      <path id="DejaVuSans-54" d="M -19 4666 
L 3928 4666 
L 3928 4134 
L 2272 4134 
L 2272 0 
L 1638 0 
L 1638 4134 
L -19 4134 
L -19 4666 
z
" transform="scale(0.015625)"/>
      <path id="DejaVuSans-67" d="M 2906 1791 
Q 2906 2416 2648 2759 
Q 2391 3103 1925 3103 
Q 1463 3103 1205 2759 
Q 947 2416 947 1791 
Q 947 1169 1205 825 
Q 1463 481 1925 481 
Q 2391 481 2648 825 
Q 2906 1169 2906 1791 
z
M 3481 434 
Q 3481 -459 3084 -895 
Q 2688 -1331 1869 -1331 
Q 1566 -1331 1297 -1286 
Q 1028 -1241 775 -1147 
L 775 -588 
Q 1028 -725 1275 -790 
Q 1522 -856 1778 -856 
Q 2344 -856 2625 -561 
Q 2906 -266 2906 331 
L 2906 616 
Q 2728 306 2450 153 
Q 2172 0 1784 0 
Q 1141 0 747 490 
Q 353 981 353 1791 
Q 353 2603 747 3093 
Q 1141 3584 1784 3584 
Q 2172 3584 2450 3431 
Q 2728 3278 2906 2969 
L 2906 3500 
L 3481 3500 
L 3481 434 
z
" transform="scale(0.015625)"/>
     </defs>
     <use xlink:href="#DejaVuSans-42"/>
     <use xlink:href="#DejaVuSans-65" transform="translate(68.603516 0)"/>
     <use xlink:href="#DejaVuSans-73" transform="translate(130.126953 0)"/>
     <use xlink:href="#DejaVuSans-74" transform="translate(182.226562 0)"/>
     <use xlink:href="#DejaVuSans-20" transform="translate(221.435547 0)"/>
     <use xlink:href="#DejaVuSans-4d" transform="translate(253.222656 0)"/>
     <use xlink:href="#DejaVuSans-6f" transform="translate(339.501953 0)"/>
     <use xlink:href="#DejaVuSans-64" transform="translate(400.683594 0)"/>
     <use xlink:href="#DejaVuSans-65" transform="translate(464.160156 0)"/>
     <use xlink:href="#DejaVuSans-6c" transform="translate(525.683594 0)"/>
     <use xlink:href="#DejaVuSans-20" transform="translate(553.466797 0)"/>
     <use xlink:href="#DejaVuSans-2d" transform="translate(585.253906 0)"/>
     <use xlink:href="#DejaVuSans-20" transform="translate(621.337891 0)"/>
     <use xlink:href="#DejaVuSans-50" transform="translate(653.125 0)"/>
     <use xlink:href="#DejaVuSans-72" transform="translate(711.677734 0)"/>
     <use xlink:href="#DejaVuSans-65" transform="translate(750.541016 0)"/>
     <use xlink:href="#DejaVuSans-64" transform="translate(812.064453 0)"/>
     <use xlink:href="#DejaVuSans-69" transform="translate(875.541016 0)"/>
     <use xlink:href="#DejaVuSans-63" transform="translate(903.324219 0)"/>
     <use xlink:href="#DejaVuSans-74" transform="translate(958.304688 0)"/>
     <use xlink:href="#DejaVuSans-65" transform="translate(997.513672 0)"/>
     <use xlink:href="#DejaVuSans-64" transform="translate(1059.037109 0)"/>
     <use xlink:href="#DejaVuSans-20" transform="translate(1122.513672 0)"/>
     <use xlink:href="#DejaVuSans-76" transform="translate(1154.300781 0)"/>
     <use xlink:href="#DejaVuSans-73" transform="translate(1213.480469 0)"/>
     <use xlink:href="#DejaVuSans-20" transform="translate(1265.580078 0)"/>
     <use xlink:href="#DejaVuSans-54" transform="translate(1297.367188 0)"/>
     <use xlink:href="#DejaVuSans-61" transform="translate(1341.951172 0)"/>
     <use xlink:href="#DejaVuSans-72" transform="translate(1403.230469 0)"/>
     <use xlink:href="#DejaVuSans-67" transform="translate(1442.59375 0)"/>
     <use xlink:href="#DejaVuSans-65" transform="translate(1506.070312 0)"/>
     <use xlink:href="#DejaVuSans-74" transform="translate(1567.59375 0)"/>
    </g>
   </g>
   <g id="legend_1">
    <g id="patch_7">
     <path d="M 64.6 78.82825 
L 181.128125 78.82825 
Q 183.128125 78.82825 183.128125 76.82825 
L 183.128125 48.472 
Q 183.128125 46.472 181.128125 46.472 
L 64.6 46.472 
Q 62.6 46.472 62.6 48.472 
L 62.6 76.82825 
Q 62.6 78.82825 64.6 78.82825 
z
" style="fill: #ffffff; opacity: 0.8; stroke: #cccccc; stroke-linejoin: miter"/>
    </g>
    <g id="line2d_39">
     <path d="M 66.6 54.570437 
L 76.6 54.570437 
L 86.6 54.570437 
" style="fill: none; stroke: #1f77b4; stroke-width: 1.5; stroke-linecap: square"/>
    </g>
    <g id="text_22">
     <!-- Pred: Sample 1 -->
     <g transform="translate(94.6 58.070437) scale(0.1 -0.1)">
      <defs>
       <path id="DejaVuSans-3a" d="M 750 794 
L 1409 794 
L 1409 0 
L 750 0 
L 750 794 
z
M 750 3309 
L 1409 3309 
L 1409 2516 
L 750 2516 
L 750 3309 
z
" transform="scale(0.015625)"/>
       <path id="DejaVuSans-53" d="M 3425 4513 
L 3425 3897 
Q 3066 4069 2747 4153 
Q 2428 4238 2131 4238 
Q 1616 4238 1336 4038 
Q 1056 3838 1056 3469 
Q 1056 3159 1242 3001 
Q 1428 2844 1947 2747 
L 2328 2669 
Q 3034 2534 3370 2195 
Q 3706 1856 3706 1288 
Q 3706 609 3251 259 
Q 2797 -91 1919 -91 
Q 1588 -91 1214 -16 
Q 841 59 441 206 
L 441 856 
Q 825 641 1194 531 
Q 1563 422 1919 422 
Q 2459 422 2753 634 
Q 3047 847 3047 1241 
Q 3047 1584 2836 1778 
Q 2625 1972 2144 2069 
L 1759 2144 
Q 1053 2284 737 2584 
Q 422 2884 422 3419 
Q 422 4038 858 4394 
Q 1294 4750 2059 4750 
Q 2388 4750 2728 4690 
Q 3069 4631 3425 4513 
z
" transform="scale(0.015625)"/>
       <path id="DejaVuSans-6d" d="M 3328 2828 
Q 3544 3216 3844 3400 
Q 4144 3584 4550 3584 
Q 5097 3584 5394 3201 
Q 5691 2819 5691 2113 
L 5691 0 
L 5113 0 
L 5113 2094 
Q 5113 2597 4934 2840 
Q 4756 3084 4391 3084 
Q 3944 3084 3684 2787 
Q 3425 2491 3425 1978 
L 3425 0 
L 2847 0 
L 2847 2094 
Q 2847 2600 2669 2842 
Q 2491 3084 2119 3084 
Q 1678 3084 1418 2786 
Q 1159 2488 1159 1978 
L 1159 0 
L 581 0 
L 581 3500 
L 1159 3500 
L 1159 2956 
Q 1356 3278 1631 3431 
Q 1906 3584 2284 3584 
Q 2666 3584 2933 3390 
Q 3200 3197 3328 2828 
z
" transform="scale(0.015625)"/>
       <path id="DejaVuSans-70" d="M 1159 525 
L 1159 -1331 
L 581 -1331 
L 581 3500 
L 1159 3500 
L 1159 2969 
Q 1341 3281 1617 3432 
Q 1894 3584 2278 3584 
Q 2916 3584 3314 3078 
Q 3713 2572 3713 1747 
Q 3713 922 3314 415 
Q 2916 -91 2278 -91 
Q 1894 -91 1617 61 
Q 1341 213 1159 525 
z
M 3116 1747 
Q 3116 2381 2855 2742 
Q 2594 3103 2138 3103 
Q 1681 3103 1420 2742 
Q 1159 2381 1159 1747 
Q 1159 1113 1420 752 
Q 1681 391 2138 391 
Q 2594 391 2855 752 
Q 3116 1113 3116 1747 
z
" transform="scale(0.015625)"/>
      </defs>
      <use xlink:href="#DejaVuSans-50"/>
      <use xlink:href="#DejaVuSans-72" transform="translate(58.552734 0)"/>
      <use xlink:href="#DejaVuSans-65" transform="translate(97.416016 0)"/>
      <use xlink:href="#DejaVuSans-64" transform="translate(158.939453 0)"/>
      <use xlink:href="#DejaVuSans-3a" transform="translate(222.416016 0)"/>
      <use xlink:href="#DejaVuSans-20" transform="translate(256.107422 0)"/>
      <use xlink:href="#DejaVuSans-53" transform="translate(287.894531 0)"/>
      <use xlink:href="#DejaVuSans-61" transform="translate(351.371094 0)"/>
      <use xlink:href="#DejaVuSans-6d" transform="translate(412.650391 0)"/>
      <use xlink:href="#DejaVuSans-70" transform="translate(510.0625 0)"/>
      <use xlink:href="#DejaVuSans-6c" transform="translate(573.539062 0)"/>
      <use xlink:href="#DejaVuSans-65" transform="translate(601.322266 0)"/>
      <use xlink:href="#DejaVuSans-20" transform="translate(662.845703 0)"/>
      <use xlink:href="#DejaVuSans-31" transform="translate(694.632812 0)"/>
     </g>
    </g>
    <g id="line2d_40">
     <path d="M 66.6 69.248562 
L 76.6 69.248562 
L 86.6 69.248562 
" style="fill: none; stroke: #ff7f0e; stroke-opacity: 0.7; stroke-width: 1.5; stroke-linecap: square"/>
    </g>
    <g id="text_23">
     <!-- Target: Sample 1 -->
     <g transform="translate(94.6 72.748562) scale(0.1 -0.1)">
      <use xlink:href="#DejaVuSans-54"/>
      <use xlink:href="#DejaVuSans-61" transform="translate(44.583984 0)"/>
      <use xlink:href="#DejaVuSans-72" transform="translate(105.863281 0)"/>
      <use xlink:href="#DejaVuSans-67" transform="translate(145.226562 0)"/>
      <use xlink:href="#DejaVuSans-65" transform="translate(208.703125 0)"/>
      <use xlink:href="#DejaVuSans-74" transform="translate(270.226562 0)"/>
      <use xlink:href="#DejaVuSans-3a" transform="translate(309.435547 0)"/>
      <use xlink:href="#DejaVuSans-20" transform="translate(343.126953 0)"/>
      <use xlink:href="#DejaVuSans-53" transform="translate(374.914062 0)"/>
      <use xlink:href="#DejaVuSans-61" transform="translate(438.390625 0)"/>
      <use xlink:href="#DejaVuSans-6d" transform="translate(499.669922 0)"/>
      <use xlink:href="#DejaVuSans-70" transform="translate(597.082031 0)"/>
      <use xlink:href="#DejaVuSans-6c" transform="translate(660.558594 0)"/>
      <use xlink:href="#DejaVuSans-65" transform="translate(688.341797 0)"/>
      <use xlink:href="#DejaVuSans-20" transform="translate(749.865234 0)"/>
      <use xlink:href="#DejaVuSans-31" transform="translate(781.652344 0)"/>
     </g>
    </g>
   </g>
  </g>
 </g>
 <defs>
  <clipPath id="p9b3bf7dc06">
   <rect x="57.6" y="41.472" width="357.12" height="266.112"/>
  </clipPath>
 </defs>
</svg>
