<?xml version="1.0" encoding="utf-8" standalone="no"?>
<!DOCTYPE svg PUBLIC "-//W3C//DTD SVG 1.1//EN"
  "http://www.w3.org/Graphics/SVG/1.1/DTD/svg11.dtd">
<svg xmlns:xlink="http://www.w3.org/1999/xlink" width="460.8pt" height="345.6pt" viewBox="0 0 460.8 345.6" xmlns="http://www.w3.org/2000/svg" version="1.1">
 <metadata>
  <rdf:RDF xmlns:dc="http://purl.org/dc/elements/1.1/" xmlns:cc="http://creativecommons.org/ns#" xmlns:rdf="http://www.w3.org/1999/02/22-rdf-syntax-ns#">
   <cc:Work>
    <dc:type rdf:resource="http://purl.org/dc/dcmitype/StillImage"/>
    <dc:date>2025-06-02T19:56:28.410540</dc:date>
    <dc:format>image/svg+xml</dc:format>
    <dc:creator>
     <cc:Agent>
      <dc:title>Matplotlib v3.10.3, https://matplotlib.org/</dc:title>
     </cc:Agent>
    </dc:creator>
   </cc:Work>
  </rdf:RDF>
 </metadata>
 <defs>
  <style type="text/css">*{stroke-linejoin: round; stroke-linecap: butt}</style>
 </defs>
 <g id="figure_1">
  <g id="patch_1">
   <path d="M 0 345.6 
L 460.8 345.6 
L 460.8 0 
L 0 0 
z
" style="fill: #ffffff"/>
  </g>
  <g id="axes_1">
   <g id="patch_2">
    <path d="M 57.6 307.584 
L 414.72 307.584 
L 414.72 41.472 
L 57.6 41.472 
z
" style="fill: #ffffff"/>
   </g>
   <g id="matplotlib.axis_1">
    <g id="xtick_1">
     <g id="line2d_1">
      <path d="M 87.378583 307.584 
L 87.378583 41.472 
" clip-path="url(#p2ee087a20c)" style="fill: none; stroke: #b0b0b0; stroke-opacity: 0.5; stroke-width: 0.8; stroke-linecap: square"/>
     </g>
     <g id="line2d_2">
      <defs>
       <path id="mf8ac42beac" d="M 0 0 
L 0 3.5 
" style="stroke: #000000; stroke-width: 0.8"/>
      </defs>
      <g>
       <use xlink:href="#mf8ac42beac" x="87.378583" y="307.584" style="stroke: #000000; stroke-width: 0.8"/>
      </g>
     </g>
     <g id="text_1">
      <!-- −1.0 -->
      <g transform="translate(75.237177 322.182437) scale(0.1 -0.1)">
       <defs>
        <path id="DejaVuSans-2212" d="M 678 2272 
L 4684 2272 
L 4684 1741 
L 678 1741 
L 678 2272 
z
" transform="scale(0.015625)"/>
        <path id="DejaVuSans-31" d="M 794 531 
L 1825 531 
L 1825 4091 
L 703 3866 
L 703 4441 
L 1819 4666 
L 2450 4666 
L 2450 531 
L 3481 531 
L 3481 0 
L 794 0 
L 794 531 
z
" transform="scale(0.015625)"/>
        <path id="DejaVuSans-2e" d="M 684 794 
L 1344 794 
L 1344 0 
L 684 0 
L 684 794 
z
" transform="scale(0.015625)"/>
        <path id="DejaVuSans-30" d="M 2034 4250 
Q 1547 4250 1301 3770 
Q 1056 3291 1056 2328 
Q 1056 1369 1301 889 
Q 1547 409 2034 409 
Q 2525 409 2770 889 
Q 3016 1369 3016 2328 
Q 3016 3291 2770 3770 
Q 2525 4250 2034 4250 
z
M 2034 4750 
Q 2819 4750 3233 4129 
Q 3647 3509 3647 2328 
Q 3647 1150 3233 529 
Q 2819 -91 2034 -91 
Q 1250 -91 836 529 
Q 422 1150 422 2328 
Q 422 3509 836 4129 
Q 1250 4750 2034 4750 
z
" transform="scale(0.015625)"/>
       </defs>
       <use xlink:href="#DejaVuSans-2212"/>
       <use xlink:href="#DejaVuSans-31" transform="translate(83.789062 0)"/>
       <use xlink:href="#DejaVuSans-2e" transform="translate(147.412109 0)"/>
       <use xlink:href="#DejaVuSans-30" transform="translate(179.199219 0)"/>
      </g>
     </g>
    </g>
    <g id="xtick_2">
     <g id="line2d_3">
      <path d="M 160.646564 307.584 
L 160.646564 41.472 
" clip-path="url(#p2ee087a20c)" style="fill: none; stroke: #b0b0b0; stroke-opacity: 0.5; stroke-width: 0.8; stroke-linecap: square"/>
     </g>
     <g id="line2d_4">
      <g>
       <use xlink:href="#mf8ac42beac" x="160.646564" y="307.584" style="stroke: #000000; stroke-width: 0.8"/>
      </g>
     </g>
     <g id="text_2">
      <!-- −0.5 -->
      <g transform="translate(148.505157 322.182437) scale(0.1 -0.1)">
       <defs>
        <path id="DejaVuSans-35" d="M 691 4666 
L 3169 4666 
L 3169 4134 
L 1269 4134 
L 1269 2991 
Q 1406 3038 1543 3061 
Q 1681 3084 1819 3084 
Q 2600 3084 3056 2656 
Q 3513 2228 3513 1497 
Q 3513 744 3044 326 
Q 2575 -91 1722 -91 
Q 1428 -91 1123 -41 
Q 819 9 494 109 
L 494 744 
Q 775 591 1075 516 
Q 1375 441 1709 441 
Q 2250 441 2565 725 
Q 2881 1009 2881 1497 
Q 2881 1984 2565 2268 
Q 2250 2553 1709 2553 
Q 1456 2553 1204 2497 
Q 953 2441 691 2322 
L 691 4666 
z
" transform="scale(0.015625)"/>
       </defs>
       <use xlink:href="#DejaVuSans-2212"/>
       <use xlink:href="#DejaVuSans-30" transform="translate(83.789062 0)"/>
       <use xlink:href="#DejaVuSans-2e" transform="translate(147.412109 0)"/>
       <use xlink:href="#DejaVuSans-35" transform="translate(179.199219 0)"/>
      </g>
     </g>
    </g>
    <g id="xtick_3">
     <g id="line2d_5">
      <path d="M 233.914545 307.584 
L 233.914545 41.472 
" clip-path="url(#p2ee087a20c)" style="fill: none; stroke: #b0b0b0; stroke-opacity: 0.5; stroke-width: 0.8; stroke-linecap: square"/>
     </g>
     <g id="line2d_6">
      <g>
       <use xlink:href="#mf8ac42beac" x="233.914545" y="307.584" style="stroke: #000000; stroke-width: 0.8"/>
      </g>
     </g>
     <g id="text_3">
      <!-- 0.0 -->
      <g transform="translate(225.962982 322.182437) scale(0.1 -0.1)">
       <use xlink:href="#DejaVuSans-30"/>
       <use xlink:href="#DejaVuSans-2e" transform="translate(63.623047 0)"/>
       <use xlink:href="#DejaVuSans-30" transform="translate(95.410156 0)"/>
      </g>
     </g>
    </g>
    <g id="xtick_4">
     <g id="line2d_7">
      <path d="M 307.182525 307.584 
L 307.182525 41.472 
" clip-path="url(#p2ee087a20c)" style="fill: none; stroke: #b0b0b0; stroke-opacity: 0.5; stroke-width: 0.8; stroke-linecap: square"/>
     </g>
     <g id="line2d_8">
      <g>
       <use xlink:href="#mf8ac42beac" x="307.182525" y="307.584" style="stroke: #000000; stroke-width: 0.8"/>
      </g>
     </g>
     <g id="text_4">
      <!-- 0.5 -->
      <g transform="translate(299.230963 322.182437) scale(0.1 -0.1)">
       <use xlink:href="#DejaVuSans-30"/>
       <use xlink:href="#DejaVuSans-2e" transform="translate(63.623047 0)"/>
       <use xlink:href="#DejaVuSans-35" transform="translate(95.410156 0)"/>
      </g>
     </g>
    </g>
    <g id="xtick_5">
     <g id="line2d_9">
      <path d="M 380.450506 307.584 
L 380.450506 41.472 
" clip-path="url(#p2ee087a20c)" style="fill: none; stroke: #b0b0b0; stroke-opacity: 0.5; stroke-width: 0.8; stroke-linecap: square"/>
     </g>
     <g id="line2d_10">
      <g>
       <use xlink:href="#mf8ac42beac" x="380.450506" y="307.584" style="stroke: #000000; stroke-width: 0.8"/>
      </g>
     </g>
     <g id="text_5">
      <!-- 1.0 -->
      <g transform="translate(372.498944 322.182437) scale(0.1 -0.1)">
       <use xlink:href="#DejaVuSans-31"/>
       <use xlink:href="#DejaVuSans-2e" transform="translate(63.623047 0)"/>
       <use xlink:href="#DejaVuSans-30" transform="translate(95.410156 0)"/>
      </g>
     </g>
    </g>
    <g id="text_6">
     <!-- Index -->
     <g transform="translate(222.393594 335.860562) scale(0.1 -0.1)">
      <defs>
       <path id="DejaVuSans-49" d="M 628 4666 
L 1259 4666 
L 1259 0 
L 628 0 
L 628 4666 
z
" transform="scale(0.015625)"/>
       <path id="DejaVuSans-6e" d="M 3513 2113 
L 3513 0 
L 2938 0 
L 2938 2094 
Q 2938 2591 2744 2837 
Q 2550 3084 2163 3084 
Q 1697 3084 1428 2787 
Q 1159 2491 1159 1978 
L 1159 0 
L 581 0 
L 581 3500 
L 1159 3500 
L 1159 2956 
Q 1366 3272 1645 3428 
Q 1925 3584 2291 3584 
Q 2894 3584 3203 3211 
Q 3513 2838 3513 2113 
z
" transform="scale(0.015625)"/>
       <path id="DejaVuSans-64" d="M 2906 2969 
L 2906 4863 
L 3481 4863 
L 3481 0 
L 2906 0 
L 2906 525 
Q 2725 213 2448 61 
Q 2172 -91 1784 -91 
Q 1150 -91 751 415 
Q 353 922 353 1747 
Q 353 2572 751 3078 
Q 1150 3584 1784 3584 
Q 2172 3584 2448 3432 
Q 2725 3281 2906 2969 
z
M 947 1747 
Q 947 1113 1208 752 
Q 1469 391 1925 391 
Q 2381 391 2643 752 
Q 2906 1113 2906 1747 
Q 2906 2381 2643 2742 
Q 2381 3103 1925 3103 
Q 1469 3103 1208 2742 
Q 947 2381 947 1747 
z
" transform="scale(0.015625)"/>
       <path id="DejaVuSans-65" d="M 3597 1894 
L 3597 1613 
L 953 1613 
Q 991 1019 1311 708 
Q 1631 397 2203 397 
Q 2534 397 2845 478 
Q 3156 559 3463 722 
L 3463 178 
Q 3153 47 2828 -22 
Q 2503 -91 2169 -91 
Q 1331 -91 842 396 
Q 353 884 353 1716 
Q 353 2575 817 3079 
Q 1281 3584 2069 3584 
Q 2775 3584 3186 3129 
Q 3597 2675 3597 1894 
z
M 3022 2063 
Q 3016 2534 2758 2815 
Q 2500 3097 2075 3097 
Q 1594 3097 1305 2825 
Q 1016 2553 972 2059 
L 3022 2063 
z
" transform="scale(0.015625)"/>
       <path id="DejaVuSans-78" d="M 3513 3500 
L 2247 1797 
L 3578 0 
L 2900 0 
L 1881 1375 
L 863 0 
L 184 0 
L 1544 1831 
L 300 3500 
L 978 3500 
L 1906 2253 
L 2834 3500 
L 3513 3500 
z
" transform="scale(0.015625)"/>
      </defs>
      <use xlink:href="#DejaVuSans-49"/>
      <use xlink:href="#DejaVuSans-6e" transform="translate(29.492188 0)"/>
      <use xlink:href="#DejaVuSans-64" transform="translate(92.871094 0)"/>
      <use xlink:href="#DejaVuSans-65" transform="translate(156.347656 0)"/>
      <use xlink:href="#DejaVuSans-78" transform="translate(216.121094 0)"/>
     </g>
    </g>
   </g>
   <g id="matplotlib.axis_2">
    <g id="ytick_1">
     <g id="line2d_11">
      <path d="M 57.6 295.546377 
L 414.72 295.546377 
" clip-path="url(#p2ee087a20c)" style="fill: none; stroke: #b0b0b0; stroke-opacity: 0.5; stroke-width: 0.8; stroke-linecap: square"/>
     </g>
     <g id="line2d_12">
      <defs>
       <path id="mb6f52662d9" d="M 0 0 
L -3.5 0 
" style="stroke: #000000; stroke-width: 0.8"/>
      </defs>
      <g>
       <use xlink:href="#mb6f52662d9" x="57.6" y="295.546377" style="stroke: #000000; stroke-width: 0.8"/>
      </g>
     </g>
     <g id="text_7">
      <!-- −1.00 -->
      <g transform="translate(19.954687 299.345596) scale(0.1 -0.1)">
       <use xlink:href="#DejaVuSans-2212"/>
       <use xlink:href="#DejaVuSans-31" transform="translate(83.789062 0)"/>
       <use xlink:href="#DejaVuSans-2e" transform="translate(147.412109 0)"/>
       <use xlink:href="#DejaVuSans-30" transform="translate(179.199219 0)"/>
       <use xlink:href="#DejaVuSans-30" transform="translate(242.822266 0)"/>
      </g>
     </g>
    </g>
    <g id="ytick_2">
     <g id="line2d_13">
      <path d="M 57.6 265.299073 
L 414.72 265.299073 
" clip-path="url(#p2ee087a20c)" style="fill: none; stroke: #b0b0b0; stroke-opacity: 0.5; stroke-width: 0.8; stroke-linecap: square"/>
     </g>
     <g id="line2d_14">
      <g>
       <use xlink:href="#mb6f52662d9" x="57.6" y="265.299073" style="stroke: #000000; stroke-width: 0.8"/>
      </g>
     </g>
     <g id="text_8">
      <!-- −0.75 -->
      <g transform="translate(19.954687 269.098292) scale(0.1 -0.1)">
       <defs>
        <path id="DejaVuSans-37" d="M 525 4666 
L 3525 4666 
L 3525 4397 
L 1831 0 
L 1172 0 
L 2766 4134 
L 525 4134 
L 525 4666 
z
" transform="scale(0.015625)"/>
       </defs>
       <use xlink:href="#DejaVuSans-2212"/>
       <use xlink:href="#DejaVuSans-30" transform="translate(83.789062 0)"/>
       <use xlink:href="#DejaVuSans-2e" transform="translate(147.412109 0)"/>
       <use xlink:href="#DejaVuSans-37" transform="translate(179.199219 0)"/>
       <use xlink:href="#DejaVuSans-35" transform="translate(242.822266 0)"/>
      </g>
     </g>
    </g>
    <g id="ytick_3">
     <g id="line2d_15">
      <path d="M 57.6 235.051769 
L 414.72 235.051769 
" clip-path="url(#p2ee087a20c)" style="fill: none; stroke: #b0b0b0; stroke-opacity: 0.5; stroke-width: 0.8; stroke-linecap: square"/>
     </g>
     <g id="line2d_16">
      <g>
       <use xlink:href="#mb6f52662d9" x="57.6" y="235.051769" style="stroke: #000000; stroke-width: 0.8"/>
      </g>
     </g>
     <g id="text_9">
      <!-- −0.50 -->
      <g transform="translate(19.954687 238.850987) scale(0.1 -0.1)">
       <use xlink:href="#DejaVuSans-2212"/>
       <use xlink:href="#DejaVuSans-30" transform="translate(83.789062 0)"/>
       <use xlink:href="#DejaVuSans-2e" transform="translate(147.412109 0)"/>
       <use xlink:href="#DejaVuSans-35" transform="translate(179.199219 0)"/>
       <use xlink:href="#DejaVuSans-30" transform="translate(242.822266 0)"/>
      </g>
     </g>
    </g>
    <g id="ytick_4">
     <g id="line2d_17">
      <path d="M 57.6 204.804464 
L 414.72 204.804464 
" clip-path="url(#p2ee087a20c)" style="fill: none; stroke: #b0b0b0; stroke-opacity: 0.5; stroke-width: 0.8; stroke-linecap: square"/>
     </g>
     <g id="line2d_18">
      <g>
       <use xlink:href="#mb6f52662d9" x="57.6" y="204.804464" style="stroke: #000000; stroke-width: 0.8"/>
      </g>
     </g>
     <g id="text_10">
      <!-- −0.25 -->
      <g transform="translate(19.954687 208.603683) scale(0.1 -0.1)">
       <defs>
        <path id="DejaVuSans-32" d="M 1228 531 
L 3431 531 
L 3431 0 
L 469 0 
L 469 531 
Q 828 903 1448 1529 
Q 2069 2156 2228 2338 
Q 2531 2678 2651 2914 
Q 2772 3150 2772 3378 
Q 2772 3750 2511 3984 
Q 2250 4219 1831 4219 
Q 1534 4219 1204 4116 
Q 875 4013 500 3803 
L 500 4441 
Q 881 4594 1212 4672 
Q 1544 4750 1819 4750 
Q 2544 4750 2975 4387 
Q 3406 4025 3406 3419 
Q 3406 3131 3298 2873 
Q 3191 2616 2906 2266 
Q 2828 2175 2409 1742 
Q 1991 1309 1228 531 
z
" transform="scale(0.015625)"/>
       </defs>
       <use xlink:href="#DejaVuSans-2212"/>
       <use xlink:href="#DejaVuSans-30" transform="translate(83.789062 0)"/>
       <use xlink:href="#DejaVuSans-2e" transform="translate(147.412109 0)"/>
       <use xlink:href="#DejaVuSans-32" transform="translate(179.199219 0)"/>
       <use xlink:href="#DejaVuSans-35" transform="translate(242.822266 0)"/>
      </g>
     </g>
    </g>
    <g id="ytick_5">
     <g id="line2d_19">
      <path d="M 57.6 174.55716 
L 414.72 174.55716 
" clip-path="url(#p2ee087a20c)" style="fill: none; stroke: #b0b0b0; stroke-opacity: 0.5; stroke-width: 0.8; stroke-linecap: square"/>
     </g>
     <g id="line2d_20">
      <g>
       <use xlink:href="#mb6f52662d9" x="57.6" y="174.55716" style="stroke: #000000; stroke-width: 0.8"/>
      </g>
     </g>
     <g id="text_11">
      <!-- 0.00 -->
      <g transform="translate(28.334375 178.356379) scale(0.1 -0.1)">
       <use xlink:href="#DejaVuSans-30"/>
       <use xlink:href="#DejaVuSans-2e" transform="translate(63.623047 0)"/>
       <use xlink:href="#DejaVuSans-30" transform="translate(95.410156 0)"/>
       <use xlink:href="#DejaVuSans-30" transform="translate(159.033203 0)"/>
      </g>
     </g>
    </g>
    <g id="ytick_6">
     <g id="line2d_21">
      <path d="M 57.6 144.309855 
L 414.72 144.309855 
" clip-path="url(#p2ee087a20c)" style="fill: none; stroke: #b0b0b0; stroke-opacity: 0.5; stroke-width: 0.8; stroke-linecap: square"/>
     </g>
     <g id="line2d_22">
      <g>
       <use xlink:href="#mb6f52662d9" x="57.6" y="144.309855" style="stroke: #000000; stroke-width: 0.8"/>
      </g>
     </g>
     <g id="text_12">
      <!-- 0.25 -->
      <g transform="translate(28.334375 148.109074) scale(0.1 -0.1)">
       <use xlink:href="#DejaVuSans-30"/>
       <use xlink:href="#DejaVuSans-2e" transform="translate(63.623047 0)"/>
       <use xlink:href="#DejaVuSans-32" transform="translate(95.410156 0)"/>
       <use xlink:href="#DejaVuSans-35" transform="translate(159.033203 0)"/>
      </g>
     </g>
    </g>
    <g id="ytick_7">
     <g id="line2d_23">
      <path d="M 57.6 114.062551 
L 414.72 114.062551 
" clip-path="url(#p2ee087a20c)" style="fill: none; stroke: #b0b0b0; stroke-opacity: 0.5; stroke-width: 0.8; stroke-linecap: square"/>
     </g>
     <g id="line2d_24">
      <g>
       <use xlink:href="#mb6f52662d9" x="57.6" y="114.062551" style="stroke: #000000; stroke-width: 0.8"/>
      </g>
     </g>
     <g id="text_13">
      <!-- 0.50 -->
      <g transform="translate(28.334375 117.86177) scale(0.1 -0.1)">
       <use xlink:href="#DejaVuSans-30"/>
       <use xlink:href="#DejaVuSans-2e" transform="translate(63.623047 0)"/>
       <use xlink:href="#DejaVuSans-35" transform="translate(95.410156 0)"/>
       <use xlink:href="#DejaVuSans-30" transform="translate(159.033203 0)"/>
      </g>
     </g>
    </g>
    <g id="ytick_8">
     <g id="line2d_25">
      <path d="M 57.6 83.815247 
L 414.72 83.815247 
" clip-path="url(#p2ee087a20c)" style="fill: none; stroke: #b0b0b0; stroke-opacity: 0.5; stroke-width: 0.8; stroke-linecap: square"/>
     </g>
     <g id="line2d_26">
      <g>
       <use xlink:href="#mb6f52662d9" x="57.6" y="83.815247" style="stroke: #000000; stroke-width: 0.8"/>
      </g>
     </g>
     <g id="text_14">
      <!-- 0.75 -->
      <g transform="translate(28.334375 87.614465) scale(0.1 -0.1)">
       <use xlink:href="#DejaVuSans-30"/>
       <use xlink:href="#DejaVuSans-2e" transform="translate(63.623047 0)"/>
       <use xlink:href="#DejaVuSans-37" transform="translate(95.410156 0)"/>
       <use xlink:href="#DejaVuSans-35" transform="translate(159.033203 0)"/>
      </g>
     </g>
    </g>
    <g id="ytick_9">
     <g id="line2d_27">
      <path d="M 57.6 53.567942 
L 414.72 53.567942 
" clip-path="url(#p2ee087a20c)" style="fill: none; stroke: #b0b0b0; stroke-opacity: 0.5; stroke-width: 0.8; stroke-linecap: square"/>
     </g>
     <g id="line2d_28">
      <g>
       <use xlink:href="#mb6f52662d9" x="57.6" y="53.567942" style="stroke: #000000; stroke-width: 0.8"/>
      </g>
     </g>
     <g id="text_15">
      <!-- 1.00 -->
      <g transform="translate(28.334375 57.367161) scale(0.1 -0.1)">
       <use xlink:href="#DejaVuSans-31"/>
       <use xlink:href="#DejaVuSans-2e" transform="translate(63.623047 0)"/>
       <use xlink:href="#DejaVuSans-30" transform="translate(95.410156 0)"/>
       <use xlink:href="#DejaVuSans-30" transform="translate(159.033203 0)"/>
      </g>
     </g>
    </g>
    <g id="text_16">
     <!-- Value -->
     <g transform="translate(13.875 188.25925) rotate(-90) scale(0.1 -0.1)">
      <defs>
       <path id="DejaVuSans-56" d="M 1831 0 
L 50 4666 
L 709 4666 
L 2188 738 
L 3669 4666 
L 4325 4666 
L 2547 0 
L 1831 0 
z
" transform="scale(0.015625)"/>
       <path id="DejaVuSans-61" d="M 2194 1759 
Q 1497 1759 1228 1600 
Q 959 1441 959 1056 
Q 959 750 1161 570 
Q 1363 391 1709 391 
Q 2188 391 2477 730 
Q 2766 1069 2766 1631 
L 2766 1759 
L 2194 1759 
z
M 3341 1997 
L 3341 0 
L 2766 0 
L 2766 531 
Q 2569 213 2275 61 
Q 1981 -91 1556 -91 
Q 1019 -91 701 211 
Q 384 513 384 1019 
Q 384 1609 779 1909 
Q 1175 2209 1959 2209 
L 2766 2209 
L 2766 2266 
Q 2766 2663 2505 2880 
Q 2244 3097 1772 3097 
Q 1472 3097 1187 3025 
Q 903 2953 641 2809 
L 641 3341 
Q 956 3463 1253 3523 
Q 1550 3584 1831 3584 
Q 2591 3584 2966 3190 
Q 3341 2797 3341 1997 
z
" transform="scale(0.015625)"/>
       <path id="DejaVuSans-6c" d="M 603 4863 
L 1178 4863 
L 1178 0 
L 603 0 
L 603 4863 
z
" transform="scale(0.015625)"/>
       <path id="DejaVuSans-75" d="M 544 1381 
L 544 3500 
L 1119 3500 
L 1119 1403 
Q 1119 906 1312 657 
Q 1506 409 1894 409 
Q 2359 409 2629 706 
Q 2900 1003 2900 1516 
L 2900 3500 
L 3475 3500 
L 3475 0 
L 2900 0 
L 2900 538 
Q 2691 219 2414 64 
Q 2138 -91 1772 -91 
Q 1169 -91 856 284 
Q 544 659 544 1381 
z
M 1991 3584 
L 1991 3584 
z
" transform="scale(0.015625)"/>
      </defs>
      <use xlink:href="#DejaVuSans-56"/>
      <use xlink:href="#DejaVuSans-61" transform="translate(60.658203 0)"/>
      <use xlink:href="#DejaVuSans-6c" transform="translate(121.9375 0)"/>
      <use xlink:href="#DejaVuSans-75" transform="translate(149.720703 0)"/>
      <use xlink:href="#DejaVuSans-65" transform="translate(213.099609 0)"/>
     </g>
    </g>
   </g>
   <g id="line2d_29">
    <path d="M 93.839288 293.214403 
L 93.487771 293.679942 
L 93.146018 294.585579 
L 92.814633 294.981982 
L 92.066826 295.293996 
L 91.042459 295.477276 
L 90.260143 295.488 
L 89.079643 295.291638 
L 83.649768 294.871942 
L 77.231616 294.238323 
L 74.050175 293.42883 
L 73.832727 292.507681 
L 75.938234 291.55726 
L 80.10549 290.664828 
L 84.857711 289.907294 
L 89.382729 289.336394 
L 94.913738 288.968073 
L 105.009033 288.709266 
L 107.935976 288.676936 
L 107.053138 288.592165 
L 100.624103 288.377572 
L 92.548955 287.98409 
L 86.255414 287.401262 
L 83.017497 286.658966 
L 83.016502 285.820288 
L 85.578931 284.967194 
L 89.844429 284.182032 
L 94.080362 283.529159 
L 98.251521 283.041523 
L 109.318159 282.349831 
L 108.839654 282.172081 
L 98.643653 281.502737 
L 94.062456 280.954322 
L 91.857982 280.280319 
L 92.13311 279.529102 
L 94.403781 278.763939 
L 101.359333 277.430421 
L 107.979324 276.557401 
L 112.15417 276.013891 
L 111.39238 275.745117 
L 104.897209 274.986451 
L 102.19684 274.458784 
L 101.108495 273.845538 
L 101.67394 273.180723 
L 103.53667 272.507693 
L 108.760898 271.296519 
L 115.28055 270.035671 
L 116.019081 269.703076 
L 115.43629 269.359079 
L 111.85083 268.525687 
L 110.429964 268.012746 
L 109.968579 267.444961 
L 110.525254 266.844696 
L 111.891671 266.240183 
L 115.644951 265.120645 
L 119.048695 264.199403 
L 120.156256 263.798723 
L 120.591378 263.412035 
L 120.290449 263.016425 
L 118.513916 262.128334 
L 117.907569 261.622676 
L 117.884773 261.083348 
L 118.488308 260.525602 
L 119.585387 259.967842 
L 125.588498 257.560586 
L 125.886422 257.137183 
L 125.785507 256.704889 
L 125.154783 255.774877 
L 125.092071 255.272371 
L 125.389462 254.751707 
L 126.049525 254.22329 
L 128.03312 253.186425 
L 130.065618 252.220038 
L 130.835312 251.762532 
L 131.362859 251.313723 
L 131.639551 250.864892 
L 132.109967 248.95428 
L 132.570803 248.44705 
L 133.999477 247.432195 
L 137.148872 245.51264 
L 138.025352 244.587741 
L 138.920994 243.15412 
L 139.919316 242.162031 
L 141.337666 241.170757 
L 143.516218 239.733905 
L 144.556839 238.800122 
L 146.618701 236.39671 
L 147.92307 235.416015 
L 150.576999 233.515243 
L 151.488782 232.580085 
L 152.712386 231.145645 
L 153.823545 230.171438 
L 157.535512 227.32049 
L 160.343626 224.453633 
L 165.018672 220.644711 
L 167.020276 218.721838 
L 169.495643 216.784593 
L 171.827558 214.882512 
L 174.948087 211.989968 
L 179.177119 208.637379 
L 181.762406 206.233567 
L 186.984424 201.937802 
L 189.169028 200.017663 
L 192.050195 197.630044 
L 215.91392 175.730539 
L 231.175349 175.671149 
L 237.907006 175.195934 
L 209.54309 174.721335 
L 217.068156 174.247314 
L 218.358362 173.773731 
L 219.50651 172.82719 
L 240.71411 156.764009 
L 248.828278 150.614568 
L 253.545379 146.82387 
L 281.778965 124.181467 
L 306.949357 105.443956 
L 314.323173 99.846735 
L 323.790967 92.393262 
L 333.282116 84.926232 
L 346.24042 74.669144 
L 356.656995 66.307315 
L 364.115499 60.297054 
L 366.397245 58.436778 
L 369.280997 56.137262 
L 370.356626 55.208448 
L 371.960378 53.952006 
L 371.359708 53.685836 
L 369.810571 53.568 
L 368.438337 53.640029 
L 371.329356 53.929788 
L 378.730851 54.443002 
L 390.509677 56.022765 
L 396.469021 56.965174 
L 398.487273 57.898799 
L 397.129258 58.7399 
L 391.684762 59.422066 
L 381.61118 59.909349 
L 369.775477 60.203506 
L 348.37675 60.45772 
L 368.403819 61.356506 
L 374.617477 61.996744 
L 385.734066 63.59437 
L 387.766991 64.404137 
L 385.898321 65.123782 
L 379.928208 65.705038 
L 370.880042 66.13263 
L 349.916594 66.820948 
L 350.85368 67.054507 
L 361.397234 67.848049 
L 366.494885 68.434194 
L 371.213444 69.116036 
L 375.313001 69.843966 
L 377.020708 70.560979 
L 375.641652 71.2159 
L 371.313914 71.774526 
L 364.93407 72.226501 
L 352.666512 72.886961 
L 349.708824 73.174383 
L 349.842484 73.493154 
L 362.66305 75.508694 
L 365.179039 76.148399 
L 366.050426 76.779746 
L 364.880643 77.370341 
L 361.839631 77.89932 
L 347.456216 79.49572 
L 347.154762 79.877836 
L 348.278883 80.301643 
L 354.328268 81.865728 
L 355.647677 82.444308 
L 355.88365 83.016427 
L 354.85978 83.56249 
L 352.721171 84.070196 
L 344.634205 85.380543 
L 343.181014 85.789335 
L 342.76668 86.212103 
L 343.214344 86.661302 
L 346.341353 88.184634 
L 346.848576 88.72389 
L 346.649846 89.257167 
L 345.687107 89.773087 
L 344.093539 90.265222 
L 338.724315 91.620584 
L 337.746239 92.060148 
L 337.371349 92.510161 
L 337.486466 92.976984 
L 338.694933 94.476202 
L 338.68874 94.989957 
L 338.243417 95.497872 
L 337.368108 95.994212 
L 332.690765 97.861548 
L 332.057752 98.320749 
L 331.757313 98.787681 
L 331.706287 99.265054 
L 331.831248 100.248929 
L 331.743705 100.74886 
L 331.424984 101.247962 
L 330.845049 101.74211 
L 329.098423 102.706622 
L 327.257764 103.644632 
L 326.553576 104.11113 
L 326.051104 104.580672 
L 325.535672 105.537259 
L 325.186067 106.515718 
L 324.86587 107.007594 
L 324.388152 107.497234 
L 322.985811 108.461869 
L 320.684081 109.875528 
L 319.708206 110.819819 
L 318.061674 113.238887 
L 316.765637 114.197738 
L 314.596021 115.607554 
L 313.594739 116.548127 
L 311.87076 118.951871 
L 310.652999 119.907556 
L 308.004486 121.783734 
L 307.163738 122.727375 
L 305.786482 124.649015 
L 304.701386 125.607746 
L 301.630179 127.965906 
L 300.817215 128.915652 
L 299.335323 130.844618 
L 298.261782 131.80736 
L 295.261611 134.181168 
L 293.911414 135.616845 
L 292.571234 137.068704 
L 291.388262 138.031802 
L 288.181501 140.406148 
L 286.803834 141.840765 
L 285.369447 143.285982 
L 283.480357 144.717528 
L 281.599005 146.135161 
L 280.128398 147.560752 
L 278.706842 148.997377 
L 276.95501 150.427427 
L 274.575825 152.319398 
L 268.703363 157.55223 
L 266.537568 159.447929 
L 263.394688 162.30444 
L 259.479044 165.61765 
L 256.873494 167.992575 
L 252.449566 171.772947 
L 249.793392 174.140387 
L 230.199501 190.614803 
L 226.32848 193.911866 
L 219.705235 199.572431 
L 198.705154 217.465235 
L 192.007083 223.555229 
L 172.552839 241.298632 
L 168.502299 245.017374 
L 156.112392 256.160196 
L 147.599825 262.667099 
L 140.30191 268.249666 
L 126.192042 278.917118 
L 123.137858 281.22668 
L 120.751625 283.077509 
L 117.633987 285.380796 
L 115.3361 287.231539 
L 112.153689 289.530867 
L 109.94428 291.381422 
L 107.797207 292.752606 
L 107.797207 292.752606 
" clip-path="url(#p2ee087a20c)" style="fill: none; stroke: #1f77b4; stroke-width: 1.5; stroke-linecap: square"/>
   </g>
   <g id="line2d_30">
    <path d="M 104.882413 293.214403 
L 105.282903 293.679942 
L 107.1035 294.142403 
L 110.620798 294.585579 
L 115.767256 294.981982 
L 122.046595 295.293996 
L 128.548727 295.477276 
L 134.081238 295.488 
L 137.400942 295.291638 
L 137.501674 294.871942 
L 133.890308 294.238323 
L 126.777497 293.42883 
L 90.014379 289.907294 
L 87.378583 289.336394 
L 89.539473 288.968073 
L 96.125873 288.77872 
L 126.689613 288.592165 
L 133.660222 288.377572 
L 136.390654 287.98409 
L 134.537331 287.401262 
L 128.766847 286.658966 
L 105.009662 284.182032 
L 101.206405 283.529159 
L 101.3902 283.041523 
L 105.43094 282.713832 
L 120.507014 282.349831 
L 128.151084 282.172081 
L 133.686608 281.904548 
L 136.104434 281.502737 
L 135.168169 280.954322 
L 131.425536 280.280319 
L 116.138242 278.048087 
L 114.085665 277.430421 
L 114.757536 276.935054 
L 117.940305 276.557401 
L 136.589646 275.412782 
L 137.771028 274.986451 
L 136.786812 274.458784 
L 134.113136 273.845538 
L 127.190066 272.507693 
L 124.817764 271.86894 
L 124.076613 271.296519 
L 125.164591 270.80571 
L 127.849981 270.392461 
L 138.855042 269.359079 
L 141.051856 268.973046 
L 141.756123 268.525687 
L 141.010779 268.012746 
L 139.188069 267.444961 
L 134.782919 266.240183 
L 133.470541 265.65869 
L 133.328994 265.120645 
L 134.446433 264.635303 
L 136.614189 264.199403 
L 144.542035 263.016425 
L 145.976736 262.592366 
L 146.349775 262.128334 
L 145.751524 261.622676 
L 141.852304 259.967842 
L 141.329509 259.427216 
L 141.681349 258.915652 
L 142.903416 258.437601 
L 146.982089 257.560586 
L 150.730023 256.704889 
L 151.69084 256.252655 
L 151.904619 255.774877 
L 151.486599 255.272371 
L 149.246078 253.698334 
L 149.149644 253.186425 
L 149.656342 252.693373 
L 150.730756 252.220038 
L 156.642726 250.40823 
L 157.416517 249.938162 
L 157.704694 249.452927 
L 157.588956 248.95428 
L 156.654211 247.432195 
L 156.786229 246.936042 
L 157.32562 246.451407 
L 158.251089 245.977927 
L 162.989445 244.118617 
L 163.625524 243.64089 
L 163.886664 243.15412 
L 163.837691 242.660037 
L 163.394233 241.664292 
L 163.347793 241.170757 
L 163.604483 240.68421 
L 164.218787 240.205553 
L 166.313621 239.266577 
L 168.618154 238.330839 
L 169.45788 237.856199 
L 169.968963 237.374887 
L 170.159409 236.88772 
L 169.976466 235.905035 
L 169.901845 235.416015 
L 170.027946 234.932126 
L 170.436733 234.45459 
L 171.137633 233.982942 
L 175.684578 231.62898 
L 176.100528 231.145645 
L 176.403064 230.171438 
L 176.652496 229.204279 
L 176.986244 228.727811 
L 177.513861 228.256138 
L 179.046578 227.32049 
L 181.493973 225.903506 
L 182.539328 224.93895 
L 183.119844 223.968918 
L 183.647422 223.007565 
L 184.537186 222.059661 
L 185.903411 221.117584 
L 188.220731 219.689556 
L 189.360495 218.721838 
L 190.049377 217.749873 
L 190.617333 216.784593 
L 191.505424 215.830618 
L 192.853573 214.882512 
L 195.011839 213.448144 
L 195.960926 212.477366 
L 197.198439 210.537759 
L 198.26379 209.584854 
L 201.505202 207.202338 
L 202.281878 206.233567 
L 203.319163 204.78526 
L 204.329123 203.833137 
L 207.823348 200.980114 
L 211.069031 197.630044 
L 214.969135 194.296594 
L 217.772559 191.429521 
L 221.65676 188.097041 
L 223.941709 185.708943 
L 227.714543 182.384138 
L 229.575525 180.475528 
L 236.335459 174.247314 
L 245.866079 165.262845 
L 247.914511 163.374122 
L 250.350404 161.012815 
L 253.531146 158.184341 
L 256.602606 155.347098 
L 260.192564 152.035754 
L 267.813323 144.929036 
L 270.701799 142.086133 
L 273.284871 139.723253 
L 275.618459 137.359018 
L 278.750163 134.532431 
L 281.168574 132.174751 
L 284.275626 129.354527 
L 286.804052 127.001297 
L 289.351909 124.651968 
L 291.357426 122.77116 
L 293.970003 120.423814 
L 296.919157 117.606151 
L 298.973303 115.732119 
L 301.882109 112.919532 
L 303.927477 111.050328 
L 306.820889 108.243684 
L 308.883411 106.378591 
L 311.75504 103.576504 
L 313.872906 101.714137 
L 317.254562 98.449554 
L 319.340443 96.58746 
L 321.738686 94.25408 
L 324.360814 91.926994 
L 326.76083 89.592388 
L 329.395011 87.262995 
L 331.753408 84.926232 
L 334.408796 82.596471 
L 336.650994 80.259174 
L 339.354 77.932515 
L 341.538237 75.597273 
L 344.26542 73.27701 
L 346.415271 70.946903 
L 349.214397 68.632503 
L 351.318201 66.307315 
L 354.246909 63.998453 
L 355.696834 62.137362 
L 356.991202 61.215708 
L 358.427711 60.297054 
L 358.951555 59.835135 
L 359.272826 59.370439 
L 359.860115 57.971866 
L 360.440958 57.510552 
L 363.399441 56.137262 
L 363.692291 55.674045 
L 362.789792 55.208448 
L 360.265261 54.750379 
L 355.974966 54.320796 
L 350.183905 53.952006 
L 343.605025 53.685836 
L 337.322856 53.568 
L 332.603205 53.640029 
L 330.621077 53.929788 
L 332.167568 54.443002 
L 337.40908 55.15752 
L 345.767322 56.022765 
L 374.669734 58.7399 
L 379.635498 59.422066 
L 380.124493 59.909349 
L 376.00959 60.203506 
L 368.096575 60.344016 
L 339.184844 60.599087 
L 334.155862 60.888283 
L 333.382525 61.356506 
L 336.736231 61.996744 
L 343.197067 62.765666 
L 358.563013 64.404137 
L 363.85017 65.123782 
L 365.821607 65.705038 
L 364.129115 66.13263 
L 359.263506 66.426009 
L 338.88202 67.054507 
L 334.986757 67.387521 
L 333.995746 67.848049 
L 335.799782 68.434194 
L 344.404713 69.843966 
L 348.761021 70.560979 
L 351.625602 71.2159 
L 352.323344 71.774526 
L 350.73099 72.226501 
L 347.26636 72.585981 
L 334.55257 73.493154 
L 332.483843 73.878098 
L 332.249818 74.346954 
L 333.663409 74.897316 
L 341.327253 76.779746 
L 342.5518 77.370341 
L 342.324047 77.89932 
L 340.662806 78.361074 
L 334.658324 79.134199 
L 329.16827 79.877836 
L 327.898803 80.301643 
L 327.841725 80.777524 
L 328.814456 81.30328 
L 333.367764 83.016427 
L 333.827568 83.56249 
L 333.300615 84.070196 
L 331.848533 84.536781 
L 323.661954 86.212103 
L 322.861899 86.661302 
L 322.86548 87.142397 
L 323.503882 87.653145 
L 325.394308 88.72389 
L 325.941656 89.257167 
L 325.880473 89.773087 
L 325.134273 90.265222 
L 323.789613 90.733091 
L 318.666615 92.060148 
L 317.517672 92.510161 
L 316.929037 92.976984 
L 316.882388 93.462623 
L 317.237731 93.964436 
L 318.238734 94.989957 
L 318.417314 95.497872 
L 318.168415 95.994212 
L 317.456174 96.47636 
L 315.004259 97.405124 
L 312.379607 98.320749 
L 311.446539 98.787681 
L 310.890265 99.265054 
L 310.696295 99.752942 
L 310.76947 100.248929 
L 311.094969 101.247962 
L 311.026737 101.74211 
L 310.656746 102.228534 
L 309.960533 102.706622 
L 307.859882 103.644632 
L 305.715416 104.580672 
L 304.9626 105.055688 
L 304.512495 105.537259 
L 304.344911 106.024649 
L 304.478025 107.497234 
L 304.287301 107.982389 
L 303.821631 108.461869 
L 303.076423 108.936019 
L 299.139222 110.819819 
L 298.503292 111.298253 
L 298.130996 111.781072 
L 297.981488 112.266926 
L 297.833399 113.720602 
L 297.520098 114.197738 
L 296.975969 114.670331 
L 295.32779 115.607554 
L 293.519107 116.548127 
L 292.24443 117.503315 
L 291.651433 118.469312 
L 291.283867 119.431646 
L 290.989248 119.907556 
L 290.55155 120.37951 
L 289.244574 121.315829 
L 286.253163 123.204547 
L 285.310103 124.166849 
L 283.545025 126.554785 
L 282.307814 127.494932 
L 279.474833 129.395222 
L 278.475944 130.360942 
L 276.584299 132.760304 
L 275.377997 133.707144 
L 272.745332 135.616845 
L 271.847812 136.584537 
L 270.355284 138.509504 
L 269.249985 139.458569 
L 266.758349 141.360394 
L 265.834048 142.322545 
L 264.280199 144.24268 
L 263.250252 145.190598 
L 259.89045 148.039161 
L 257.085893 150.901134 
L 252.732867 154.699203 
L 250.341422 157.078728 
L 245.618665 161.353157 
L 243.663924 163.252121 
L 239.98446 166.56768 
L 237.564425 168.938947 
L 232.95331 173.194243 
L 217.502837 187.796132 
L 212.341922 192.499959 
L 200.69671 203.350121 
L 185.378108 217.933536 
L 182.382641 220.746137 
L 175.815963 226.833409 
L 169.818468 232.443676 
L 162.501363 239.43723 
L 159.523692 242.22767 
L 127.705918 272.430018 
L 126.294084 273.823291 
L 123.710736 276.136962 
L 121.46156 278.455524 
L 118.818514 280.763383 
L 117.143822 282.616224 
L 113.93168 285.380796 
L 112.793856 286.770211 
L 111.663158 287.691352 
L 109.76018 289.068969 
L 109.356781 289.530867 
L 108.653641 290.921248 
L 108.175504 291.381422 
L 107.405206 291.838827 
L 105.427621 292.752606 
L 105.427621 292.752606 
" clip-path="url(#p2ee087a20c)" style="fill: none; stroke: #ff7f0e; stroke-opacity: 0.5; stroke-width: 1.5; stroke-linecap: square"/>
   </g>
   <g id="patch_3">
    <path d="M 57.6 307.584 
L 57.6 41.472 
" style="fill: none; stroke: #000000; stroke-width: 0.8; stroke-linejoin: miter; stroke-linecap: square"/>
   </g>
   <g id="patch_4">
    <path d="M 414.72 307.584 
L 414.72 41.472 
" style="fill: none; stroke: #000000; stroke-width: 0.8; stroke-linejoin: miter; stroke-linecap: square"/>
   </g>
   <g id="patch_5">
    <path d="M 57.6 307.584 
L 414.72 307.584 
" style="fill: none; stroke: #000000; stroke-width: 0.8; stroke-linejoin: miter; stroke-linecap: square"/>
   </g>
   <g id="patch_6">
    <path d="M 57.6 41.472 
L 414.72 41.472 
" style="fill: none; stroke: #000000; stroke-width: 0.8; stroke-linejoin: miter; stroke-linecap: square"/>
   </g>
   <g id="text_17">
    <!-- Compare - Epoch 450 -->
    <g transform="translate(171.234375 35.472) scale(0.12 -0.12)">
     <defs>
      <path id="DejaVuSans-43" d="M 4122 4306 
L 4122 3641 
Q 3803 3938 3442 4084 
Q 3081 4231 2675 4231 
Q 1875 4231 1450 3742 
Q 1025 3253 1025 2328 
Q 1025 1406 1450 917 
Q 1875 428 2675 428 
Q 3081 428 3442 575 
Q 3803 722 4122 1019 
L 4122 359 
Q 3791 134 3420 21 
Q 3050 -91 2638 -91 
Q 1578 -91 968 557 
Q 359 1206 359 2328 
Q 359 3453 968 4101 
Q 1578 4750 2638 4750 
Q 3056 4750 3426 4639 
Q 3797 4528 4122 4306 
z
" transform="scale(0.015625)"/>
      <path id="DejaVuSans-6f" d="M 1959 3097 
Q 1497 3097 1228 2736 
Q 959 2375 959 1747 
Q 959 1119 1226 758 
Q 1494 397 1959 397 
Q 2419 397 2687 759 
Q 2956 1122 2956 1747 
Q 2956 2369 2687 2733 
Q 2419 3097 1959 3097 
z
M 1959 3584 
Q 2709 3584 3137 3096 
Q 3566 2609 3566 1747 
Q 3566 888 3137 398 
Q 2709 -91 1959 -91 
Q 1206 -91 779 398 
Q 353 888 353 1747 
Q 353 2609 779 3096 
Q 1206 3584 1959 3584 
z
" transform="scale(0.015625)"/>
      <path id="DejaVuSans-6d" d="M 3328 2828 
Q 3544 3216 3844 3400 
Q 4144 3584 4550 3584 
Q 5097 3584 5394 3201 
Q 5691 2819 5691 2113 
L 5691 0 
L 5113 0 
L 5113 2094 
Q 5113 2597 4934 2840 
Q 4756 3084 4391 3084 
Q 3944 3084 3684 2787 
Q 3425 2491 3425 1978 
L 3425 0 
L 2847 0 
L 2847 2094 
Q 2847 2600 2669 2842 
Q 2491 3084 2119 3084 
Q 1678 3084 1418 2786 
Q 1159 2488 1159 1978 
L 1159 0 
L 581 0 
L 581 3500 
L 1159 3500 
L 1159 2956 
Q 1356 3278 1631 3431 
Q 1906 3584 2284 3584 
Q 2666 3584 2933 3390 
Q 3200 3197 3328 2828 
z
" transform="scale(0.015625)"/>
      <path id="DejaVuSans-70" d="M 1159 525 
L 1159 -1331 
L 581 -1331 
L 581 3500 
L 1159 3500 
L 1159 2969 
Q 1341 3281 1617 3432 
Q 1894 3584 2278 3584 
Q 2916 3584 3314 3078 
Q 3713 2572 3713 1747 
Q 3713 922 3314 415 
Q 2916 -91 2278 -91 
Q 1894 -91 1617 61 
Q 1341 213 1159 525 
z
M 3116 1747 
Q 3116 2381 2855 2742 
Q 2594 3103 2138 3103 
Q 1681 3103 1420 2742 
Q 1159 2381 1159 1747 
Q 1159 1113 1420 752 
Q 1681 391 2138 391 
Q 2594 391 2855 752 
Q 3116 1113 3116 1747 
z
" transform="scale(0.015625)"/>
      <path id="DejaVuSans-72" d="M 2631 2963 
Q 2534 3019 2420 3045 
Q 2306 3072 2169 3072 
Q 1681 3072 1420 2755 
Q 1159 2438 1159 1844 
L 1159 0 
L 581 0 
L 581 3500 
L 1159 3500 
L 1159 2956 
Q 1341 3275 1631 3429 
Q 1922 3584 2338 3584 
Q 2397 3584 2469 3576 
Q 2541 3569 2628 3553 
L 2631 2963 
z
" transform="scale(0.015625)"/>
      <path id="DejaVuSans-20" transform="scale(0.015625)"/>
      <path id="DejaVuSans-2d" d="M 313 2009 
L 1997 2009 
L 1997 1497 
L 313 1497 
L 313 2009 
z
" transform="scale(0.015625)"/>
      <path id="DejaVuSans-45" d="M 628 4666 
L 3578 4666 
L 3578 4134 
L 1259 4134 
L 1259 2753 
L 3481 2753 
L 3481 2222 
L 1259 2222 
L 1259 531 
L 3634 531 
L 3634 0 
L 628 0 
L 628 4666 
z
" transform="scale(0.015625)"/>
      <path id="DejaVuSans-63" d="M 3122 3366 
L 3122 2828 
Q 2878 2963 2633 3030 
Q 2388 3097 2138 3097 
Q 1578 3097 1268 2742 
Q 959 2388 959 1747 
Q 959 1106 1268 751 
Q 1578 397 2138 397 
Q 2388 397 2633 464 
Q 2878 531 3122 666 
L 3122 134 
Q 2881 22 2623 -34 
Q 2366 -91 2075 -91 
Q 1284 -91 818 406 
Q 353 903 353 1747 
Q 353 2603 823 3093 
Q 1294 3584 2113 3584 
Q 2378 3584 2631 3529 
Q 2884 3475 3122 3366 
z
" transform="scale(0.015625)"/>
      <path id="DejaVuSans-68" d="M 3513 2113 
L 3513 0 
L 2938 0 
L 2938 2094 
Q 2938 2591 2744 2837 
Q 2550 3084 2163 3084 
Q 1697 3084 1428 2787 
Q 1159 2491 1159 1978 
L 1159 0 
L 581 0 
L 581 4863 
L 1159 4863 
L 1159 2956 
Q 1366 3272 1645 3428 
Q 1925 3584 2291 3584 
Q 2894 3584 3203 3211 
Q 3513 2838 3513 2113 
z
" transform="scale(0.015625)"/>
      <path id="DejaVuSans-34" d="M 2419 4116 
L 825 1625 
L 2419 1625 
L 2419 4116 
z
M 2253 4666 
L 3047 4666 
L 3047 1625 
L 3713 1625 
L 3713 1100 
L 3047 1100 
L 3047 0 
L 2419 0 
L 2419 1100 
L 313 1100 
L 313 1709 
L 2253 4666 
z
" transform="scale(0.015625)"/>
     </defs>
     <use xlink:href="#DejaVuSans-43"/>
     <use xlink:href="#DejaVuSans-6f" transform="translate(69.824219 0)"/>
     <use xlink:href="#DejaVuSans-6d" transform="translate(131.005859 0)"/>
     <use xlink:href="#DejaVuSans-70" transform="translate(228.417969 0)"/>
     <use xlink:href="#DejaVuSans-61" transform="translate(291.894531 0)"/>
     <use xlink:href="#DejaVuSans-72" transform="translate(353.173828 0)"/>
     <use xlink:href="#DejaVuSans-65" transform="translate(392.037109 0)"/>
     <use xlink:href="#DejaVuSans-20" transform="translate(453.560547 0)"/>
     <use xlink:href="#DejaVuSans-2d" transform="translate(485.347656 0)"/>
     <use xlink:href="#DejaVuSans-20" transform="translate(521.431641 0)"/>
     <use xlink:href="#DejaVuSans-45" transform="translate(553.21875 0)"/>
     <use xlink:href="#DejaVuSans-70" transform="translate(616.402344 0)"/>
     <use xlink:href="#DejaVuSans-6f" transform="translate(679.878906 0)"/>
     <use xlink:href="#DejaVuSans-63" transform="translate(741.060547 0)"/>
     <use xlink:href="#DejaVuSans-68" transform="translate(796.041016 0)"/>
     <use xlink:href="#DejaVuSans-20" transform="translate(859.419922 0)"/>
     <use xlink:href="#DejaVuSans-34" transform="translate(891.207031 0)"/>
     <use xlink:href="#DejaVuSans-35" transform="translate(954.830078 0)"/>
     <use xlink:href="#DejaVuSans-30" transform="translate(1018.453125 0)"/>
    </g>
   </g>
   <g id="legend_1">
    <g id="patch_7">
     <path d="M 64.6 78.82825 
L 181.128125 78.82825 
Q 183.128125 78.82825 183.128125 76.82825 
L 183.128125 48.472 
Q 183.128125 46.472 181.128125 46.472 
L 64.6 46.472 
Q 62.6 46.472 62.6 48.472 
L 62.6 76.82825 
Q 62.6 78.82825 64.6 78.82825 
z
" style="fill: #ffffff; opacity: 0.8; stroke: #cccccc; stroke-linejoin: miter"/>
    </g>
    <g id="line2d_31">
     <path d="M 66.6 54.570437 
L 76.6 54.570437 
L 86.6 54.570437 
" style="fill: none; stroke: #1f77b4; stroke-width: 1.5; stroke-linecap: square"/>
    </g>
    <g id="text_18">
     <!-- Pred: Sample 1 -->
     <g transform="translate(94.6 58.070437) scale(0.1 -0.1)">
      <defs>
       <path id="DejaVuSans-50" d="M 1259 4147 
L 1259 2394 
L 2053 2394 
Q 2494 2394 2734 2622 
Q 2975 2850 2975 3272 
Q 2975 3691 2734 3919 
Q 2494 4147 2053 4147 
L 1259 4147 
z
M 628 4666 
L 2053 4666 
Q 2838 4666 3239 4311 
Q 3641 3956 3641 3272 
Q 3641 2581 3239 2228 
Q 2838 1875 2053 1875 
L 1259 1875 
L 1259 0 
L 628 0 
L 628 4666 
z
" transform="scale(0.015625)"/>
       <path id="DejaVuSans-3a" d="M 750 794 
L 1409 794 
L 1409 0 
L 750 0 
L 750 794 
z
M 750 3309 
L 1409 3309 
L 1409 2516 
L 750 2516 
L 750 3309 
z
" transform="scale(0.015625)"/>
       <path id="DejaVuSans-53" d="M 3425 4513 
L 3425 3897 
Q 3066 4069 2747 4153 
Q 2428 4238 2131 4238 
Q 1616 4238 1336 4038 
Q 1056 3838 1056 3469 
Q 1056 3159 1242 3001 
Q 1428 2844 1947 2747 
L 2328 2669 
Q 3034 2534 3370 2195 
Q 3706 1856 3706 1288 
Q 3706 609 3251 259 
Q 2797 -91 1919 -91 
Q 1588 -91 1214 -16 
Q 841 59 441 206 
L 441 856 
Q 825 641 1194 531 
Q 1563 422 1919 422 
Q 2459 422 2753 634 
Q 3047 847 3047 1241 
Q 3047 1584 2836 1778 
Q 2625 1972 2144 2069 
L 1759 2144 
Q 1053 2284 737 2584 
Q 422 2884 422 3419 
Q 422 4038 858 4394 
Q 1294 4750 2059 4750 
Q 2388 4750 2728 4690 
Q 3069 4631 3425 4513 
z
" transform="scale(0.015625)"/>
      </defs>
      <use xlink:href="#DejaVuSans-50"/>
      <use xlink:href="#DejaVuSans-72" transform="translate(58.552734 0)"/>
      <use xlink:href="#DejaVuSans-65" transform="translate(97.416016 0)"/>
      <use xlink:href="#DejaVuSans-64" transform="translate(158.939453 0)"/>
      <use xlink:href="#DejaVuSans-3a" transform="translate(222.416016 0)"/>
      <use xlink:href="#DejaVuSans-20" transform="translate(256.107422 0)"/>
      <use xlink:href="#DejaVuSans-53" transform="translate(287.894531 0)"/>
      <use xlink:href="#DejaVuSans-61" transform="translate(351.371094 0)"/>
      <use xlink:href="#DejaVuSans-6d" transform="translate(412.650391 0)"/>
      <use xlink:href="#DejaVuSans-70" transform="translate(510.0625 0)"/>
      <use xlink:href="#DejaVuSans-6c" transform="translate(573.539062 0)"/>
      <use xlink:href="#DejaVuSans-65" transform="translate(601.322266 0)"/>
      <use xlink:href="#DejaVuSans-20" transform="translate(662.845703 0)"/>
      <use xlink:href="#DejaVuSans-31" transform="translate(694.632812 0)"/>
     </g>
    </g>
    <g id="line2d_32">
     <path d="M 66.6 69.248562 
L 76.6 69.248562 
L 86.6 69.248562 
" style="fill: none; stroke: #ff7f0e; stroke-opacity: 0.5; stroke-width: 1.5; stroke-linecap: square"/>
    </g>
    <g id="text_19">
     <!-- Target: Sample 1 -->
     <g transform="translate(94.6 72.748562) scale(0.1 -0.1)">
      <defs>
       <path id="DejaVuSans-54" d="M -19 4666 
L 3928 4666 
L 3928 4134 
L 2272 4134 
L 2272 0 
L 1638 0 
L 1638 4134 
L -19 4134 
L -19 4666 
z
" transform="scale(0.015625)"/>
       <path id="DejaVuSans-67" d="M 2906 1791 
Q 2906 2416 2648 2759 
Q 2391 3103 1925 3103 
Q 1463 3103 1205 2759 
Q 947 2416 947 1791 
Q 947 1169 1205 825 
Q 1463 481 1925 481 
Q 2391 481 2648 825 
Q 2906 1169 2906 1791 
z
M 3481 434 
Q 3481 -459 3084 -895 
Q 2688 -1331 1869 -1331 
Q 1566 -1331 1297 -1286 
Q 1028 -1241 775 -1147 
L 775 -588 
Q 1028 -725 1275 -790 
Q 1522 -856 1778 -856 
Q 2344 -856 2625 -561 
Q 2906 -266 2906 331 
L 2906 616 
Q 2728 306 2450 153 
Q 2172 0 1784 0 
Q 1141 0 747 490 
Q 353 981 353 1791 
Q 353 2603 747 3093 
Q 1141 3584 1784 3584 
Q 2172 3584 2450 3431 
Q 2728 3278 2906 2969 
L 2906 3500 
L 3481 3500 
L 3481 434 
z
" transform="scale(0.015625)"/>
       <path id="DejaVuSans-74" d="M 1172 4494 
L 1172 3500 
L 2356 3500 
L 2356 3053 
L 1172 3053 
L 1172 1153 
Q 1172 725 1289 603 
Q 1406 481 1766 481 
L 2356 481 
L 2356 0 
L 1766 0 
Q 1100 0 847 248 
Q 594 497 594 1153 
L 594 3053 
L 172 3053 
L 172 3500 
L 594 3500 
L 594 4494 
L 1172 4494 
z
" transform="scale(0.015625)"/>
      </defs>
      <use xlink:href="#DejaVuSans-54"/>
      <use xlink:href="#DejaVuSans-61" transform="translate(44.583984 0)"/>
      <use xlink:href="#DejaVuSans-72" transform="translate(105.863281 0)"/>
      <use xlink:href="#DejaVuSans-67" transform="translate(145.226562 0)"/>
      <use xlink:href="#DejaVuSans-65" transform="translate(208.703125 0)"/>
      <use xlink:href="#DejaVuSans-74" transform="translate(270.226562 0)"/>
      <use xlink:href="#DejaVuSans-3a" transform="translate(309.435547 0)"/>
      <use xlink:href="#DejaVuSans-20" transform="translate(343.126953 0)"/>
      <use xlink:href="#DejaVuSans-53" transform="translate(374.914062 0)"/>
      <use xlink:href="#DejaVuSans-61" transform="translate(438.390625 0)"/>
      <use xlink:href="#DejaVuSans-6d" transform="translate(499.669922 0)"/>
      <use xlink:href="#DejaVuSans-70" transform="translate(597.082031 0)"/>
      <use xlink:href="#DejaVuSans-6c" transform="translate(660.558594 0)"/>
      <use xlink:href="#DejaVuSans-65" transform="translate(688.341797 0)"/>
      <use xlink:href="#DejaVuSans-20" transform="translate(749.865234 0)"/>
      <use xlink:href="#DejaVuSans-31" transform="translate(781.652344 0)"/>
     </g>
    </g>
   </g>
  </g>
 </g>
 <defs>
  <clipPath id="p2ee087a20c">
   <rect x="57.6" y="41.472" width="357.12" height="266.112"/>
  </clipPath>
 </defs>
</svg>
