<?xml version="1.0" encoding="utf-8" standalone="no"?>
<!DOCTYPE svg PUBLIC "-//W3C//DTD SVG 1.1//EN"
  "http://www.w3.org/Graphics/SVG/1.1/DTD/svg11.dtd">
<svg xmlns:xlink="http://www.w3.org/1999/xlink" width="460.8pt" height="345.6pt" viewBox="0 0 460.8 345.6" xmlns="http://www.w3.org/2000/svg" version="1.1">
 <metadata>
  <rdf:RDF xmlns:dc="http://purl.org/dc/elements/1.1/" xmlns:cc="http://creativecommons.org/ns#" xmlns:rdf="http://www.w3.org/1999/02/22-rdf-syntax-ns#">
   <cc:Work>
    <dc:type rdf:resource="http://purl.org/dc/dcmitype/StillImage"/>
    <dc:date>2025-06-02T20:34:03.126400</dc:date>
    <dc:format>image/svg+xml</dc:format>
    <dc:creator>
     <cc:Agent>
      <dc:title>Matplotlib v3.10.3, https://matplotlib.org/</dc:title>
     </cc:Agent>
    </dc:creator>
   </cc:Work>
  </rdf:RDF>
 </metadata>
 <defs>
  <style type="text/css">*{stroke-linejoin: round; stroke-linecap: butt}</style>
 </defs>
 <g id="figure_1">
  <g id="patch_1">
   <path d="M 0 345.6 
L 460.8 345.6 
L 460.8 0 
L 0 0 
z
" style="fill: #ffffff"/>
  </g>
  <g id="axes_1">
   <g id="patch_2">
    <path d="M 57.6 307.584 
L 414.72 307.584 
L 414.72 41.472 
L 57.6 41.472 
z
" style="fill: #ffffff"/>
   </g>
   <g id="matplotlib.axis_1">
    <g id="xtick_1">
     <g id="line2d_1">
      <path d="M 71.825679 307.584 
L 71.825679 41.472 
" clip-path="url(#p792c548aa3)" style="fill: none; stroke: #b0b0b0; stroke-opacity: 0.5; stroke-width: 0.8; stroke-linecap: square"/>
     </g>
     <g id="line2d_2">
      <defs>
       <path id="m5e2cb37f23" d="M 0 0 
L 0 3.5 
" style="stroke: #000000; stroke-width: 0.8"/>
      </defs>
      <g>
       <use xlink:href="#m5e2cb37f23" x="71.825679" y="307.584" style="stroke: #000000; stroke-width: 0.8"/>
      </g>
     </g>
     <g id="text_1">
      <!-- −1.5 -->
      <g transform="translate(59.684272 322.182437) scale(0.1 -0.1)">
       <defs>
        <path id="DejaVuSans-2212" d="M 678 2272 
L 4684 2272 
L 4684 1741 
L 678 1741 
L 678 2272 
z
" transform="scale(0.015625)"/>
        <path id="DejaVuSans-31" d="M 794 531 
L 1825 531 
L 1825 4091 
L 703 3866 
L 703 4441 
L 1819 4666 
L 2450 4666 
L 2450 531 
L 3481 531 
L 3481 0 
L 794 0 
L 794 531 
z
" transform="scale(0.015625)"/>
        <path id="DejaVuSans-2e" d="M 684 794 
L 1344 794 
L 1344 0 
L 684 0 
L 684 794 
z
" transform="scale(0.015625)"/>
        <path id="DejaVuSans-35" d="M 691 4666 
L 3169 4666 
L 3169 4134 
L 1269 4134 
L 1269 2991 
Q 1406 3038 1543 3061 
Q 1681 3084 1819 3084 
Q 2600 3084 3056 2656 
Q 3513 2228 3513 1497 
Q 3513 744 3044 326 
Q 2575 -91 1722 -91 
Q 1428 -91 1123 -41 
Q 819 9 494 109 
L 494 744 
Q 775 591 1075 516 
Q 1375 441 1709 441 
Q 2250 441 2565 725 
Q 2881 1009 2881 1497 
Q 2881 1984 2565 2268 
Q 2250 2553 1709 2553 
Q 1456 2553 1204 2497 
Q 953 2441 691 2322 
L 691 4666 
z
" transform="scale(0.015625)"/>
       </defs>
       <use xlink:href="#DejaVuSans-2212"/>
       <use xlink:href="#DejaVuSans-31" transform="translate(83.789062 0)"/>
       <use xlink:href="#DejaVuSans-2e" transform="translate(147.412109 0)"/>
       <use xlink:href="#DejaVuSans-35" transform="translate(179.199219 0)"/>
      </g>
     </g>
    </g>
    <g id="xtick_2">
     <g id="line2d_3">
      <path d="M 128.272713 307.584 
L 128.272713 41.472 
" clip-path="url(#p792c548aa3)" style="fill: none; stroke: #b0b0b0; stroke-opacity: 0.5; stroke-width: 0.8; stroke-linecap: square"/>
     </g>
     <g id="line2d_4">
      <g>
       <use xlink:href="#m5e2cb37f23" x="128.272713" y="307.584" style="stroke: #000000; stroke-width: 0.8"/>
      </g>
     </g>
     <g id="text_2">
      <!-- −1.0 -->
      <g transform="translate(116.131307 322.182437) scale(0.1 -0.1)">
       <defs>
        <path id="DejaVuSans-30" d="M 2034 4250 
Q 1547 4250 1301 3770 
Q 1056 3291 1056 2328 
Q 1056 1369 1301 889 
Q 1547 409 2034 409 
Q 2525 409 2770 889 
Q 3016 1369 3016 2328 
Q 3016 3291 2770 3770 
Q 2525 4250 2034 4250 
z
M 2034 4750 
Q 2819 4750 3233 4129 
Q 3647 3509 3647 2328 
Q 3647 1150 3233 529 
Q 2819 -91 2034 -91 
Q 1250 -91 836 529 
Q 422 1150 422 2328 
Q 422 3509 836 4129 
Q 1250 4750 2034 4750 
z
" transform="scale(0.015625)"/>
       </defs>
       <use xlink:href="#DejaVuSans-2212"/>
       <use xlink:href="#DejaVuSans-31" transform="translate(83.789062 0)"/>
       <use xlink:href="#DejaVuSans-2e" transform="translate(147.412109 0)"/>
       <use xlink:href="#DejaVuSans-30" transform="translate(179.199219 0)"/>
      </g>
     </g>
    </g>
    <g id="xtick_3">
     <g id="line2d_5">
      <path d="M 184.719747 307.584 
L 184.719747 41.472 
" clip-path="url(#p792c548aa3)" style="fill: none; stroke: #b0b0b0; stroke-opacity: 0.5; stroke-width: 0.8; stroke-linecap: square"/>
     </g>
     <g id="line2d_6">
      <g>
       <use xlink:href="#m5e2cb37f23" x="184.719747" y="307.584" style="stroke: #000000; stroke-width: 0.8"/>
      </g>
     </g>
     <g id="text_3">
      <!-- −0.5 -->
      <g transform="translate(172.578341 322.182437) scale(0.1 -0.1)">
       <use xlink:href="#DejaVuSans-2212"/>
       <use xlink:href="#DejaVuSans-30" transform="translate(83.789062 0)"/>
       <use xlink:href="#DejaVuSans-2e" transform="translate(147.412109 0)"/>
       <use xlink:href="#DejaVuSans-35" transform="translate(179.199219 0)"/>
      </g>
     </g>
    </g>
    <g id="xtick_4">
     <g id="line2d_7">
      <path d="M 241.166781 307.584 
L 241.166781 41.472 
" clip-path="url(#p792c548aa3)" style="fill: none; stroke: #b0b0b0; stroke-opacity: 0.5; stroke-width: 0.8; stroke-linecap: square"/>
     </g>
     <g id="line2d_8">
      <g>
       <use xlink:href="#m5e2cb37f23" x="241.166781" y="307.584" style="stroke: #000000; stroke-width: 0.8"/>
      </g>
     </g>
     <g id="text_4">
      <!-- 0.0 -->
      <g transform="translate(233.215219 322.182437) scale(0.1 -0.1)">
       <use xlink:href="#DejaVuSans-30"/>
       <use xlink:href="#DejaVuSans-2e" transform="translate(63.623047 0)"/>
       <use xlink:href="#DejaVuSans-30" transform="translate(95.410156 0)"/>
      </g>
     </g>
    </g>
    <g id="xtick_5">
     <g id="line2d_9">
      <path d="M 297.613815 307.584 
L 297.613815 41.472 
" clip-path="url(#p792c548aa3)" style="fill: none; stroke: #b0b0b0; stroke-opacity: 0.5; stroke-width: 0.8; stroke-linecap: square"/>
     </g>
     <g id="line2d_10">
      <g>
       <use xlink:href="#m5e2cb37f23" x="297.613815" y="307.584" style="stroke: #000000; stroke-width: 0.8"/>
      </g>
     </g>
     <g id="text_5">
      <!-- 0.5 -->
      <g transform="translate(289.662253 322.182437) scale(0.1 -0.1)">
       <use xlink:href="#DejaVuSans-30"/>
       <use xlink:href="#DejaVuSans-2e" transform="translate(63.623047 0)"/>
       <use xlink:href="#DejaVuSans-35" transform="translate(95.410156 0)"/>
      </g>
     </g>
    </g>
    <g id="xtick_6">
     <g id="line2d_11">
      <path d="M 354.060849 307.584 
L 354.060849 41.472 
" clip-path="url(#p792c548aa3)" style="fill: none; stroke: #b0b0b0; stroke-opacity: 0.5; stroke-width: 0.8; stroke-linecap: square"/>
     </g>
     <g id="line2d_12">
      <g>
       <use xlink:href="#m5e2cb37f23" x="354.060849" y="307.584" style="stroke: #000000; stroke-width: 0.8"/>
      </g>
     </g>
     <g id="text_6">
      <!-- 1.0 -->
      <g transform="translate(346.109287 322.182437) scale(0.1 -0.1)">
       <use xlink:href="#DejaVuSans-31"/>
       <use xlink:href="#DejaVuSans-2e" transform="translate(63.623047 0)"/>
       <use xlink:href="#DejaVuSans-30" transform="translate(95.410156 0)"/>
      </g>
     </g>
    </g>
    <g id="xtick_7">
     <g id="line2d_13">
      <path d="M 410.507883 307.584 
L 410.507883 41.472 
" clip-path="url(#p792c548aa3)" style="fill: none; stroke: #b0b0b0; stroke-opacity: 0.5; stroke-width: 0.8; stroke-linecap: square"/>
     </g>
     <g id="line2d_14">
      <g>
       <use xlink:href="#m5e2cb37f23" x="410.507883" y="307.584" style="stroke: #000000; stroke-width: 0.8"/>
      </g>
     </g>
     <g id="text_7">
      <!-- 1.5 -->
      <g transform="translate(402.556321 322.182437) scale(0.1 -0.1)">
       <use xlink:href="#DejaVuSans-31"/>
       <use xlink:href="#DejaVuSans-2e" transform="translate(63.623047 0)"/>
       <use xlink:href="#DejaVuSans-35" transform="translate(95.410156 0)"/>
      </g>
     </g>
    </g>
    <g id="text_8">
     <!-- Index -->
     <g transform="translate(222.393594 335.860562) scale(0.1 -0.1)">
      <defs>
       <path id="DejaVuSans-49" d="M 628 4666 
L 1259 4666 
L 1259 0 
L 628 0 
L 628 4666 
z
" transform="scale(0.015625)"/>
       <path id="DejaVuSans-6e" d="M 3513 2113 
L 3513 0 
L 2938 0 
L 2938 2094 
Q 2938 2591 2744 2837 
Q 2550 3084 2163 3084 
Q 1697 3084 1428 2787 
Q 1159 2491 1159 1978 
L 1159 0 
L 581 0 
L 581 3500 
L 1159 3500 
L 1159 2956 
Q 1366 3272 1645 3428 
Q 1925 3584 2291 3584 
Q 2894 3584 3203 3211 
Q 3513 2838 3513 2113 
z
" transform="scale(0.015625)"/>
       <path id="DejaVuSans-64" d="M 2906 2969 
L 2906 4863 
L 3481 4863 
L 3481 0 
L 2906 0 
L 2906 525 
Q 2725 213 2448 61 
Q 2172 -91 1784 -91 
Q 1150 -91 751 415 
Q 353 922 353 1747 
Q 353 2572 751 3078 
Q 1150 3584 1784 3584 
Q 2172 3584 2448 3432 
Q 2725 3281 2906 2969 
z
M 947 1747 
Q 947 1113 1208 752 
Q 1469 391 1925 391 
Q 2381 391 2643 752 
Q 2906 1113 2906 1747 
Q 2906 2381 2643 2742 
Q 2381 3103 1925 3103 
Q 1469 3103 1208 2742 
Q 947 2381 947 1747 
z
" transform="scale(0.015625)"/>
       <path id="DejaVuSans-65" d="M 3597 1894 
L 3597 1613 
L 953 1613 
Q 991 1019 1311 708 
Q 1631 397 2203 397 
Q 2534 397 2845 478 
Q 3156 559 3463 722 
L 3463 178 
Q 3153 47 2828 -22 
Q 2503 -91 2169 -91 
Q 1331 -91 842 396 
Q 353 884 353 1716 
Q 353 2575 817 3079 
Q 1281 3584 2069 3584 
Q 2775 3584 3186 3129 
Q 3597 2675 3597 1894 
z
M 3022 2063 
Q 3016 2534 2758 2815 
Q 2500 3097 2075 3097 
Q 1594 3097 1305 2825 
Q 1016 2553 972 2059 
L 3022 2063 
z
" transform="scale(0.015625)"/>
       <path id="DejaVuSans-78" d="M 3513 3500 
L 2247 1797 
L 3578 0 
L 2900 0 
L 1881 1375 
L 863 0 
L 184 0 
L 1544 1831 
L 300 3500 
L 978 3500 
L 1906 2253 
L 2834 3500 
L 3513 3500 
z
" transform="scale(0.015625)"/>
      </defs>
      <use xlink:href="#DejaVuSans-49"/>
      <use xlink:href="#DejaVuSans-6e" transform="translate(29.492188 0)"/>
      <use xlink:href="#DejaVuSans-64" transform="translate(92.871094 0)"/>
      <use xlink:href="#DejaVuSans-65" transform="translate(156.347656 0)"/>
      <use xlink:href="#DejaVuSans-78" transform="translate(216.121094 0)"/>
     </g>
    </g>
   </g>
   <g id="matplotlib.axis_2">
    <g id="ytick_1">
     <g id="line2d_15">
      <path d="M 57.6 295.546377 
L 414.72 295.546377 
" clip-path="url(#p792c548aa3)" style="fill: none; stroke: #b0b0b0; stroke-opacity: 0.5; stroke-width: 0.8; stroke-linecap: square"/>
     </g>
     <g id="line2d_16">
      <defs>
       <path id="m2d17d9aa12" d="M 0 0 
L -3.5 0 
" style="stroke: #000000; stroke-width: 0.8"/>
      </defs>
      <g>
       <use xlink:href="#m2d17d9aa12" x="57.6" y="295.546377" style="stroke: #000000; stroke-width: 0.8"/>
      </g>
     </g>
     <g id="text_9">
      <!-- −1.00 -->
      <g transform="translate(19.954687 299.345596) scale(0.1 -0.1)">
       <use xlink:href="#DejaVuSans-2212"/>
       <use xlink:href="#DejaVuSans-31" transform="translate(83.789062 0)"/>
       <use xlink:href="#DejaVuSans-2e" transform="translate(147.412109 0)"/>
       <use xlink:href="#DejaVuSans-30" transform="translate(179.199219 0)"/>
       <use xlink:href="#DejaVuSans-30" transform="translate(242.822266 0)"/>
      </g>
     </g>
    </g>
    <g id="ytick_2">
     <g id="line2d_17">
      <path d="M 57.6 265.299073 
L 414.72 265.299073 
" clip-path="url(#p792c548aa3)" style="fill: none; stroke: #b0b0b0; stroke-opacity: 0.5; stroke-width: 0.8; stroke-linecap: square"/>
     </g>
     <g id="line2d_18">
      <g>
       <use xlink:href="#m2d17d9aa12" x="57.6" y="265.299073" style="stroke: #000000; stroke-width: 0.8"/>
      </g>
     </g>
     <g id="text_10">
      <!-- −0.75 -->
      <g transform="translate(19.954687 269.098292) scale(0.1 -0.1)">
       <defs>
        <path id="DejaVuSans-37" d="M 525 4666 
L 3525 4666 
L 3525 4397 
L 1831 0 
L 1172 0 
L 2766 4134 
L 525 4134 
L 525 4666 
z
" transform="scale(0.015625)"/>
       </defs>
       <use xlink:href="#DejaVuSans-2212"/>
       <use xlink:href="#DejaVuSans-30" transform="translate(83.789062 0)"/>
       <use xlink:href="#DejaVuSans-2e" transform="translate(147.412109 0)"/>
       <use xlink:href="#DejaVuSans-37" transform="translate(179.199219 0)"/>
       <use xlink:href="#DejaVuSans-35" transform="translate(242.822266 0)"/>
      </g>
     </g>
    </g>
    <g id="ytick_3">
     <g id="line2d_19">
      <path d="M 57.6 235.051769 
L 414.72 235.051769 
" clip-path="url(#p792c548aa3)" style="fill: none; stroke: #b0b0b0; stroke-opacity: 0.5; stroke-width: 0.8; stroke-linecap: square"/>
     </g>
     <g id="line2d_20">
      <g>
       <use xlink:href="#m2d17d9aa12" x="57.6" y="235.051769" style="stroke: #000000; stroke-width: 0.8"/>
      </g>
     </g>
     <g id="text_11">
      <!-- −0.50 -->
      <g transform="translate(19.954687 238.850987) scale(0.1 -0.1)">
       <use xlink:href="#DejaVuSans-2212"/>
       <use xlink:href="#DejaVuSans-30" transform="translate(83.789062 0)"/>
       <use xlink:href="#DejaVuSans-2e" transform="translate(147.412109 0)"/>
       <use xlink:href="#DejaVuSans-35" transform="translate(179.199219 0)"/>
       <use xlink:href="#DejaVuSans-30" transform="translate(242.822266 0)"/>
      </g>
     </g>
    </g>
    <g id="ytick_4">
     <g id="line2d_21">
      <path d="M 57.6 204.804464 
L 414.72 204.804464 
" clip-path="url(#p792c548aa3)" style="fill: none; stroke: #b0b0b0; stroke-opacity: 0.5; stroke-width: 0.8; stroke-linecap: square"/>
     </g>
     <g id="line2d_22">
      <g>
       <use xlink:href="#m2d17d9aa12" x="57.6" y="204.804464" style="stroke: #000000; stroke-width: 0.8"/>
      </g>
     </g>
     <g id="text_12">
      <!-- −0.25 -->
      <g transform="translate(19.954687 208.603683) scale(0.1 -0.1)">
       <defs>
        <path id="DejaVuSans-32" d="M 1228 531 
L 3431 531 
L 3431 0 
L 469 0 
L 469 531 
Q 828 903 1448 1529 
Q 2069 2156 2228 2338 
Q 2531 2678 2651 2914 
Q 2772 3150 2772 3378 
Q 2772 3750 2511 3984 
Q 2250 4219 1831 4219 
Q 1534 4219 1204 4116 
Q 875 4013 500 3803 
L 500 4441 
Q 881 4594 1212 4672 
Q 1544 4750 1819 4750 
Q 2544 4750 2975 4387 
Q 3406 4025 3406 3419 
Q 3406 3131 3298 2873 
Q 3191 2616 2906 2266 
Q 2828 2175 2409 1742 
Q 1991 1309 1228 531 
z
" transform="scale(0.015625)"/>
       </defs>
       <use xlink:href="#DejaVuSans-2212"/>
       <use xlink:href="#DejaVuSans-30" transform="translate(83.789062 0)"/>
       <use xlink:href="#DejaVuSans-2e" transform="translate(147.412109 0)"/>
       <use xlink:href="#DejaVuSans-32" transform="translate(179.199219 0)"/>
       <use xlink:href="#DejaVuSans-35" transform="translate(242.822266 0)"/>
      </g>
     </g>
    </g>
    <g id="ytick_5">
     <g id="line2d_23">
      <path d="M 57.6 174.55716 
L 414.72 174.55716 
" clip-path="url(#p792c548aa3)" style="fill: none; stroke: #b0b0b0; stroke-opacity: 0.5; stroke-width: 0.8; stroke-linecap: square"/>
     </g>
     <g id="line2d_24">
      <g>
       <use xlink:href="#m2d17d9aa12" x="57.6" y="174.55716" style="stroke: #000000; stroke-width: 0.8"/>
      </g>
     </g>
     <g id="text_13">
      <!-- 0.00 -->
      <g transform="translate(28.334375 178.356379) scale(0.1 -0.1)">
       <use xlink:href="#DejaVuSans-30"/>
       <use xlink:href="#DejaVuSans-2e" transform="translate(63.623047 0)"/>
       <use xlink:href="#DejaVuSans-30" transform="translate(95.410156 0)"/>
       <use xlink:href="#DejaVuSans-30" transform="translate(159.033203 0)"/>
      </g>
     </g>
    </g>
    <g id="ytick_6">
     <g id="line2d_25">
      <path d="M 57.6 144.309855 
L 414.72 144.309855 
" clip-path="url(#p792c548aa3)" style="fill: none; stroke: #b0b0b0; stroke-opacity: 0.5; stroke-width: 0.8; stroke-linecap: square"/>
     </g>
     <g id="line2d_26">
      <g>
       <use xlink:href="#m2d17d9aa12" x="57.6" y="144.309855" style="stroke: #000000; stroke-width: 0.8"/>
      </g>
     </g>
     <g id="text_14">
      <!-- 0.25 -->
      <g transform="translate(28.334375 148.109074) scale(0.1 -0.1)">
       <use xlink:href="#DejaVuSans-30"/>
       <use xlink:href="#DejaVuSans-2e" transform="translate(63.623047 0)"/>
       <use xlink:href="#DejaVuSans-32" transform="translate(95.410156 0)"/>
       <use xlink:href="#DejaVuSans-35" transform="translate(159.033203 0)"/>
      </g>
     </g>
    </g>
    <g id="ytick_7">
     <g id="line2d_27">
      <path d="M 57.6 114.062551 
L 414.72 114.062551 
" clip-path="url(#p792c548aa3)" style="fill: none; stroke: #b0b0b0; stroke-opacity: 0.5; stroke-width: 0.8; stroke-linecap: square"/>
     </g>
     <g id="line2d_28">
      <g>
       <use xlink:href="#m2d17d9aa12" x="57.6" y="114.062551" style="stroke: #000000; stroke-width: 0.8"/>
      </g>
     </g>
     <g id="text_15">
      <!-- 0.50 -->
      <g transform="translate(28.334375 117.86177) scale(0.1 -0.1)">
       <use xlink:href="#DejaVuSans-30"/>
       <use xlink:href="#DejaVuSans-2e" transform="translate(63.623047 0)"/>
       <use xlink:href="#DejaVuSans-35" transform="translate(95.410156 0)"/>
       <use xlink:href="#DejaVuSans-30" transform="translate(159.033203 0)"/>
      </g>
     </g>
    </g>
    <g id="ytick_8">
     <g id="line2d_29">
      <path d="M 57.6 83.815247 
L 414.72 83.815247 
" clip-path="url(#p792c548aa3)" style="fill: none; stroke: #b0b0b0; stroke-opacity: 0.5; stroke-width: 0.8; stroke-linecap: square"/>
     </g>
     <g id="line2d_30">
      <g>
       <use xlink:href="#m2d17d9aa12" x="57.6" y="83.815247" style="stroke: #000000; stroke-width: 0.8"/>
      </g>
     </g>
     <g id="text_16">
      <!-- 0.75 -->
      <g transform="translate(28.334375 87.614465) scale(0.1 -0.1)">
       <use xlink:href="#DejaVuSans-30"/>
       <use xlink:href="#DejaVuSans-2e" transform="translate(63.623047 0)"/>
       <use xlink:href="#DejaVuSans-37" transform="translate(95.410156 0)"/>
       <use xlink:href="#DejaVuSans-35" transform="translate(159.033203 0)"/>
      </g>
     </g>
    </g>
    <g id="ytick_9">
     <g id="line2d_31">
      <path d="M 57.6 53.567942 
L 414.72 53.567942 
" clip-path="url(#p792c548aa3)" style="fill: none; stroke: #b0b0b0; stroke-opacity: 0.5; stroke-width: 0.8; stroke-linecap: square"/>
     </g>
     <g id="line2d_32">
      <g>
       <use xlink:href="#m2d17d9aa12" x="57.6" y="53.567942" style="stroke: #000000; stroke-width: 0.8"/>
      </g>
     </g>
     <g id="text_17">
      <!-- 1.00 -->
      <g transform="translate(28.334375 57.367161) scale(0.1 -0.1)">
       <use xlink:href="#DejaVuSans-31"/>
       <use xlink:href="#DejaVuSans-2e" transform="translate(63.623047 0)"/>
       <use xlink:href="#DejaVuSans-30" transform="translate(95.410156 0)"/>
       <use xlink:href="#DejaVuSans-30" transform="translate(159.033203 0)"/>
      </g>
     </g>
    </g>
    <g id="text_18">
     <!-- Value -->
     <g transform="translate(13.875 188.25925) rotate(-90) scale(0.1 -0.1)">
      <defs>
       <path id="DejaVuSans-56" d="M 1831 0 
L 50 4666 
L 709 4666 
L 2188 738 
L 3669 4666 
L 4325 4666 
L 2547 0 
L 1831 0 
z
" transform="scale(0.015625)"/>
       <path id="DejaVuSans-61" d="M 2194 1759 
Q 1497 1759 1228 1600 
Q 959 1441 959 1056 
Q 959 750 1161 570 
Q 1363 391 1709 391 
Q 2188 391 2477 730 
Q 2766 1069 2766 1631 
L 2766 1759 
L 2194 1759 
z
M 3341 1997 
L 3341 0 
L 2766 0 
L 2766 531 
Q 2569 213 2275 61 
Q 1981 -91 1556 -91 
Q 1019 -91 701 211 
Q 384 513 384 1019 
Q 384 1609 779 1909 
Q 1175 2209 1959 2209 
L 2766 2209 
L 2766 2266 
Q 2766 2663 2505 2880 
Q 2244 3097 1772 3097 
Q 1472 3097 1187 3025 
Q 903 2953 641 2809 
L 641 3341 
Q 956 3463 1253 3523 
Q 1550 3584 1831 3584 
Q 2591 3584 2966 3190 
Q 3341 2797 3341 1997 
z
" transform="scale(0.015625)"/>
       <path id="DejaVuSans-6c" d="M 603 4863 
L 1178 4863 
L 1178 0 
L 603 0 
L 603 4863 
z
" transform="scale(0.015625)"/>
       <path id="DejaVuSans-75" d="M 544 1381 
L 544 3500 
L 1119 3500 
L 1119 1403 
Q 1119 906 1312 657 
Q 1506 409 1894 409 
Q 2359 409 2629 706 
Q 2900 1003 2900 1516 
L 2900 3500 
L 3475 3500 
L 3475 0 
L 2900 0 
L 2900 538 
Q 2691 219 2414 64 
Q 2138 -91 1772 -91 
Q 1169 -91 856 284 
Q 544 659 544 1381 
z
M 1991 3584 
L 1991 3584 
z
" transform="scale(0.015625)"/>
      </defs>
      <use xlink:href="#DejaVuSans-56"/>
      <use xlink:href="#DejaVuSans-61" transform="translate(60.658203 0)"/>
      <use xlink:href="#DejaVuSans-6c" transform="translate(121.9375 0)"/>
      <use xlink:href="#DejaVuSans-75" transform="translate(149.720703 0)"/>
      <use xlink:href="#DejaVuSans-65" transform="translate(213.099609 0)"/>
     </g>
    </g>
   </g>
   <g id="line2d_33">
    <path d="M 152.269799 293.214403 
L 151.997132 293.679942 
L 151.957122 294.142403 
L 152.140299 294.981982 
L 151.530529 295.293996 
L 149.129484 295.477276 
L 141.551938 295.488 
L 121.250129 295.291638 
L 96.203028 294.871942 
L 80.750716 294.238323 
L 74.756674 293.42883 
L 73.832727 292.507681 
L 74.91556 291.55726 
L 77.319378 290.664828 
L 82.291444 289.907294 
L 88.701325 289.336394 
L 96.786998 288.968073 
L 107.936902 288.77872 
L 129.69964 288.592165 
L 100.599763 287.98409 
L 87.844708 287.401262 
L 81.764078 286.658966 
L 80.500935 285.820288 
L 81.616093 284.967194 
L 84.70689 284.182032 
L 90.136946 283.529159 
L 96.363797 283.041523 
L 103.989583 282.713832 
L 119.233754 282.349831 
L 120.286386 282.172081 
L 101.965416 281.502737 
L 93.155661 280.954322 
L 88.481407 280.280319 
L 87.253686 279.529102 
L 88.188264 278.763939 
L 90.939353 278.048087 
L 95.391576 277.430421 
L 100.524452 276.935054 
L 115.326082 276.013891 
L 114.944803 275.745117 
L 103.721419 274.986451 
L 98.428662 274.458784 
L 95.440765 273.845538 
L 94.62817 273.180723 
L 95.506602 272.507693 
L 97.807224 271.86894 
L 101.190517 271.296519 
L 108.913631 270.392461 
L 112.222003 270.035671 
L 113.999539 269.703076 
L 113.410024 269.359079 
L 104.135468 268.012746 
L 102.34041 267.444961 
L 101.891007 266.844696 
L 102.650403 266.240183 
L 104.412475 265.65869 
L 106.87575 265.120645 
L 114.239872 263.798723 
L 115.159513 263.412035 
L 114.734037 263.016425 
L 109.619706 261.622676 
L 108.680552 261.083348 
L 108.604003 260.525602 
L 109.345916 259.967842 
L 110.751526 259.427216 
L 117.394015 257.560586 
L 117.84389 257.137183 
L 117.535822 256.704889 
L 114.986873 255.272371 
L 114.696866 254.751707 
L 114.950967 254.22329 
L 115.700121 253.698334 
L 118.129725 252.693373 
L 120.472094 251.762532 
L 121.156649 251.313723 
L 121.396794 250.864892 
L 121.263089 250.40823 
L 120.547243 249.452927 
L 120.3598 248.95428 
L 120.457909 248.44705 
L 120.86636 247.937542 
L 121.552423 247.432195 
L 125.620715 245.05098 
L 125.884937 244.587741 
L 125.939845 243.64089 
L 125.948593 243.15412 
L 126.08207 242.660037 
L 126.400783 242.162031 
L 126.917396 241.664292 
L 128.385074 240.68421 
L 129.907802 239.733905 
L 130.895358 238.800122 
L 131.265138 237.856199 
L 131.542851 236.88772 
L 131.837339 236.39671 
L 132.288068 235.905035 
L 133.583147 234.932126 
L 135.566516 233.515243 
L 136.280518 232.580085 
L 137.135197 230.658947 
L 138.120903 229.685836 
L 140.609749 227.787782 
L 141.367112 226.851838 
L 142.349561 224.93895 
L 143.226957 223.968918 
L 146.458887 221.117584 
L 147.393392 219.689556 
L 148.067323 218.721838 
L 148.99236 217.749873 
L 152.212515 214.882512 
L 153.20863 213.448144 
L 153.901712 212.477366 
L 154.854715 211.503331 
L 158.103138 208.637379 
L 160.352774 205.748773 
L 163.96021 202.413433 
L 165.442194 200.499025 
L 166.913862 199.05777 
L 168.849913 197.156107 
L 170.769121 194.775729 
L 172.491856 192.859199 
L 175.19996 190.005588 
L 178.061969 186.661017 
L 180.366535 184.287806 
L 183.21014 180.951328 
L 185.482921 178.581229 
L 187.921518 175.730539 
L 209.265045 175.671149 
L 215.468233 175.195934 
L 186.627832 174.721335 
L 189.256069 174.247314 
L 189.945507 173.773731 
L 191.960344 171.880766 
L 219.925397 145.876684 
L 228.358486 137.830871 
L 231.346045 135.004244 
L 234.33517 132.174751 
L 237.250537 129.354527 
L 240.738809 126.062126 
L 249.935012 118.074716 
L 256.998286 111.985323 
L 265.568664 104.509199 
L 269.31533 101.247624 
L 272.503986 98.449554 
L 280.266768 91.460056 
L 287.050722 85.392759 
L 290.190855 82.596471 
L 292.826137 80.259174 
L 295.427163 77.932515 
L 297.523842 76.063029 
L 300.75092 73.27701 
L 302.828032 71.411643 
L 305.560447 69.096341 
L 308.119793 66.770677 
L 310.83439 64.462024 
L 312.813621 62.601459 
L 315.616469 60.297054 
L 317.485297 58.436778 
L 320.350901 56.137262 
L 321.167903 55.208448 
L 321.895202 54.750379 
L 323.245983 54.320796 
L 325.475816 53.952006 
L 328.721137 53.685836 
L 334.61707 53.568 
L 347.275382 53.640029 
L 364.068544 53.929788 
L 376.038525 54.443002 
L 384.76036 55.15752 
L 392.838362 56.022765 
L 397.142884 56.965174 
L 398.487273 57.898799 
L 397.686991 58.7399 
L 394.55243 59.422066 
L 387.862501 59.909349 
L 377.78784 60.203506 
L 350.266454 60.45772 
L 353.773588 60.599087 
L 362.238172 60.888283 
L 370.261616 61.356506 
L 377.567922 61.996744 
L 384.841094 62.765666 
L 389.248637 63.59437 
L 390.61001 64.404137 
L 389.634357 65.123782 
L 386.242572 65.705038 
L 380.17719 66.13263 
L 360.556283 66.820948 
L 359.894081 67.054507 
L 378.216424 69.116036 
L 381.727325 69.843966 
L 382.972462 70.560979 
L 382.301539 71.2159 
L 379.866337 71.774526 
L 375.841958 72.226501 
L 363.012439 73.174383 
L 361.8512 73.493154 
L 362.935405 73.878098 
L 372.270737 75.508694 
L 374.49053 76.148399 
L 375.280677 76.779746 
L 374.718186 77.370341 
L 372.96256 77.89932 
L 370.279744 78.361074 
L 361.979051 79.49572 
L 361.003695 79.877836 
L 361.352998 80.301643 
L 362.728529 80.777524 
L 366.457168 81.865728 
L 367.681067 82.444308 
L 368.045376 83.016427 
L 367.527215 83.56249 
L 366.235003 84.070196 
L 362.292812 84.968881 
L 358.881634 85.789335 
L 358.166973 86.212103 
L 358.231813 86.661302 
L 358.908213 87.142397 
L 360.794409 88.184634 
L 361.339472 88.72389 
L 361.35464 89.257167 
L 360.813331 89.773087 
L 359.793993 90.265222 
L 354.797541 92.060148 
L 354.307616 92.510161 
L 354.264321 92.976984 
L 354.944086 93.964436 
L 355.287629 94.476202 
L 355.385253 94.989957 
L 355.157059 95.497872 
L 354.601364 95.994212 
L 352.825262 96.945332 
L 351.032916 97.861548 
L 350.431692 98.320749 
L 350.096816 98.787681 
L 349.995639 99.265054 
L 350.095443 100.74886 
L 349.920401 101.247962 
L 349.54818 101.74211 
L 348.310391 102.706622 
L 346.268386 104.11113 
L 345.818047 104.580672 
L 345.345798 105.537259 
L 344.903857 107.007594 
L 344.140201 107.982389 
L 342.353568 109.406426 
L 341.311864 110.345965 
L 340.688535 111.298253 
L 340.063067 112.753682 
L 339.326819 113.720602 
L 337.669457 115.139606 
L 336.656889 116.076426 
L 335.999188 117.023752 
L 335.010394 118.951871 
L 334.135474 119.907556 
L 332.052247 121.783734 
L 331.355088 122.727375 
L 329.997045 125.129706 
L 329.092774 126.082665 
L 327.175854 127.965906 
L 326.519405 128.915652 
L 325.437898 130.844618 
L 324.659708 131.80736 
L 321.561766 135.135649 
L 319.812364 137.551421 
L 318.296648 138.984812 
L 316.798333 140.406148 
L 315.691653 141.840765 
L 314.615031 143.285982 
L 313.173859 144.717528 
L 311.233017 146.608643 
L 307.577899 150.901134 
L 305.761766 152.793265 
L 302.539243 156.604609 
L 299.900508 159.447929 
L 297.027789 162.77872 
L 294.398563 165.61765 
L 291.951225 168.466183 
L 288.923493 171.772947 
L 286.434465 174.612615 
L 282.834034 178.384779 
L 274.410416 187.326491 
L 270.460702 191.55739 
L 264.341282 198.156846 
L 248.423752 215.119901 
L 240.918449 223.555229 
L 213.922439 254.303965 
L 212.600021 255.696481 
L 209.666942 258.483848 
L 206.202127 261.736424 
L 173.500137 292.752606 
L 173.500137 292.752606 
" clip-path="url(#p792c548aa3)" style="fill: none; stroke: #1f77b4; stroke-width: 1.5; stroke-linecap: square"/>
   </g>
   <g id="line2d_34">
    <path d="M 141.757994 293.214403 
L 142.066539 293.679942 
L 143.469161 294.142403 
L 146.178954 294.585579 
L 150.143882 294.981982 
L 154.981604 295.293996 
L 159.990969 295.477276 
L 164.253319 295.488 
L 166.810882 295.291638 
L 166.888487 294.871942 
L 164.106223 294.238323 
L 158.626379 293.42883 
L 130.30338 289.907294 
L 128.272713 289.336394 
L 129.937504 288.968073 
L 135.01179 288.77872 
L 158.558672 288.592165 
L 163.928961 288.377572 
L 166.032537 287.98409 
L 164.604701 287.401262 
L 160.159012 286.658966 
L 141.856029 284.182032 
L 138.925928 283.529159 
L 139.067527 283.041523 
L 142.180589 282.713832 
L 153.795481 282.349831 
L 159.684617 282.172081 
L 163.949289 281.904548 
L 165.812027 281.502737 
L 165.090711 280.954322 
L 162.207316 280.280319 
L 150.429697 278.048087 
L 148.848352 277.430421 
L 149.365975 276.935054 
L 151.81804 276.557401 
L 166.185844 275.412782 
L 167.096003 274.986451 
L 166.337745 274.458784 
L 164.277894 273.845538 
L 158.944231 272.507693 
L 157.116564 271.86894 
L 156.545567 271.296519 
L 157.383766 270.80571 
L 159.452641 270.392461 
L 167.931148 269.359079 
L 169.623615 268.973046 
L 170.166195 268.525687 
L 169.591968 268.012746 
L 166.414738 266.844696 
L 164.793908 266.240183 
L 163.782827 265.65869 
L 163.673776 265.120645 
L 164.534673 264.635303 
L 166.204753 264.199403 
L 172.312514 263.016425 
L 173.417835 262.592366 
L 173.705231 262.128334 
L 173.244327 261.622676 
L 170.240295 259.967842 
L 169.837523 259.427216 
L 170.108588 258.915652 
L 171.050091 258.437601 
L 174.192378 257.560586 
L 177.079857 256.704889 
L 177.820088 256.252655 
L 177.984788 255.774877 
L 177.662737 255.272371 
L 175.936598 253.698334 
L 175.862303 253.186425 
L 176.252673 252.693373 
L 177.080422 252.220038 
L 181.635115 250.40823 
L 182.231258 249.938162 
L 182.453275 249.452927 
L 182.364109 248.95428 
L 181.643963 247.432195 
L 181.745672 246.936042 
L 182.161229 246.451407 
L 182.874228 245.977927 
L 186.524747 244.118617 
L 187.014794 243.64089 
L 187.215981 243.15412 
L 187.178252 242.660037 
L 186.836603 241.664292 
L 186.800825 241.170757 
L 186.998584 240.68421 
L 187.471855 240.205553 
L 189.085755 239.266577 
L 190.861211 238.330839 
L 191.508151 237.856199 
L 191.901899 237.374887 
L 192.048622 236.88772 
L 191.94734 234.932126 
L 192.262278 234.45459 
L 192.802265 233.982942 
L 196.305317 231.62898 
L 196.625773 231.145645 
L 196.858852 230.171438 
L 197.051019 229.204279 
L 197.308145 228.727811 
L 198.257803 227.787782 
L 200.780984 225.903506 
L 201.586346 224.93895 
L 202.218614 223.486543 
L 202.73522 222.532167 
L 203.612572 221.588695 
L 206.450637 219.206918 
L 207.140152 218.235648 
L 208.105899 216.306311 
L 208.976862 215.356496 
L 211.195403 213.448144 
L 211.926598 212.477366 
L 213.246206 210.059938 
L 214.222827 209.111205 
L 215.792193 207.683598 
L 216.526378 206.7186 
L 217.954146 204.307886 
L 219.32782 202.887201 
L 220.687943 201.459949 
L 222.062302 199.537001 
L 223.150142 198.104561 
L 227.601524 192.859199 
L 228.730691 191.429521 
L 231.723153 188.097041 
L 233.483521 185.708943 
L 236.390183 182.384138 
L 238.228936 180.000976 
L 241.03086 176.682238 
L 249.945417 165.733831 
L 251.952619 163.374122 
L 253.829277 161.012815 
L 256.654658 157.710841 
L 259.058156 154.875256 
L 263.380556 149.667432 
L 266.526604 145.876684 
L 271.842827 139.249915 
L 273.296264 137.359018 
L 276.061948 134.060307 
L 277.572176 132.174751 
L 279.965908 129.354527 
L 281.913855 127.001297 
L 283.876772 124.651968 
L 285.840472 122.301755 
L 287.795169 119.953652 
L 289.706723 117.606151 
L 291.646327 115.262818 
L 293.530275 112.919532 
L 295.460226 110.582257 
L 297.335204 108.243684 
L 299.276015 105.911486 
L 300.724226 104.04252 
L 303.4665 100.780699 
L 304.95022 98.914711 
L 306.980504 96.58746 
L 308.828156 94.25408 
L 310.848292 91.926994 
L 312.69731 89.592388 
L 314.726733 87.262995 
L 316.543687 84.926232 
L 318.589447 82.596471 
L 320.316879 80.259174 
L 322.399326 77.932515 
L 324.082103 75.597273 
L 326.183177 73.27701 
L 327.839462 70.946903 
L 329.995962 68.632503 
L 331.616772 66.307315 
L 333.873104 63.998453 
L 334.990153 62.137362 
L 335.987359 61.215708 
L 337.094072 60.297054 
L 337.497652 59.835135 
L 337.871711 58.903673 
L 337.977693 58.436778 
L 338.197623 57.971866 
L 338.645116 57.510552 
L 340.924387 56.137262 
L 341.150004 55.674045 
L 340.454702 55.208448 
L 338.509755 54.750379 
L 335.204432 54.320796 
L 330.742889 53.952006 
L 325.674396 53.685836 
L 320.834494 53.568 
L 317.198386 53.640029 
L 315.671318 53.929788 
L 316.862763 54.443002 
L 320.900923 55.15752 
L 327.34027 56.022765 
L 349.607233 58.7399 
L 353.432952 59.422066 
L 353.809682 59.909349 
L 350.639484 60.203506 
L 344.543148 60.344016 
L 322.269005 60.599087 
L 318.394582 60.888283 
L 317.798789 61.356506 
L 320.382547 61.996744 
L 325.360097 62.765666 
L 337.198312 64.404137 
L 341.271638 65.123782 
L 342.790469 65.705038 
L 341.486542 66.13263 
L 337.737985 66.426009 
L 322.035704 67.054507 
L 319.03472 67.387521 
L 318.271226 67.848049 
L 319.661089 68.434194 
L 326.290491 69.843966 
L 329.646672 70.560979 
L 331.8536 71.2159 
L 332.391153 71.774526 
L 331.164374 72.226501 
L 328.495157 72.585981 
L 318.700214 73.493154 
L 317.106427 73.878098 
L 316.92613 74.346954 
L 318.015187 74.897316 
L 323.919557 76.779746 
L 324.862972 77.370341 
L 324.687506 77.89932 
L 323.407655 78.361074 
L 318.781689 79.134199 
L 314.552048 79.877836 
L 313.574026 80.301643 
L 313.530052 80.777524 
L 314.279462 81.30328 
L 317.787417 83.016427 
L 318.141659 83.56249 
L 317.735684 84.070196 
L 316.616972 84.536781 
L 310.309877 86.212103 
L 309.6935 86.661302 
L 309.696259 87.142397 
L 310.188096 87.653145 
L 311.644516 88.72389 
L 312.066203 89.257167 
L 312.019066 89.773087 
L 311.44418 90.265222 
L 310.408229 90.733091 
L 306.461374 92.060148 
L 305.576207 92.510161 
L 305.122712 92.976984 
L 305.086772 93.462623 
L 305.360535 93.964436 
L 306.131727 94.989957 
L 306.269308 95.497872 
L 306.077552 95.994212 
L 305.528828 96.47636 
L 303.639826 97.405124 
L 301.617745 98.320749 
L 300.898891 98.787681 
L 300.470327 99.265054 
L 300.32089 99.752942 
L 300.523332 100.74886 
L 300.628035 101.247962 
L 300.575468 101.74211 
L 300.290421 102.228534 
L 299.754044 102.706622 
L 298.135663 103.644632 
L 296.483526 104.580672 
L 295.903543 105.055688 
L 295.556773 105.537259 
L 295.427664 106.024649 
L 295.530217 107.497234 
L 295.383279 107.982389 
L 295.024519 108.461869 
L 293.709172 109.406426 
L 291.417103 110.819819 
L 290.92717 111.298253 
L 290.640346 111.781072 
L 290.510076 112.753682 
L 290.411072 113.720602 
L 290.169699 114.197738 
L 289.750492 114.670331 
L 288.480704 115.607554 
L 287.08726 116.548127 
L 286.105225 117.503315 
L 285.648369 118.469312 
L 285.365189 119.431646 
L 284.800998 120.37951 
L 283.794079 121.315829 
L 281.48944 123.204547 
L 280.762888 124.166849 
L 279.403039 126.554785 
L 278.449868 127.494932 
L 276.267287 129.395222 
L 275.497723 130.360942 
L 274.040364 132.760304 
L 273.111007 133.707144 
L 271.082752 135.616845 
L 270.391286 136.584537 
L 269.241414 138.509504 
L 268.389871 139.458569 
L 266.470267 141.360394 
L 265.758168 142.322545 
L 264.186433 144.717528 
L 260.495604 148.997377 
L 259.018425 150.901134 
L 255.664771 154.699203 
L 253.405461 157.55223 
L 250.89698 160.399941 
L 248.25691 163.72491 
L 246.207391 166.092425 
L 243.571322 169.411069 
L 240.806493 172.720515 
L 231.990406 183.562863 
L 229.6724 186.385974 
L 227.69673 188.734688 
L 225.309324 191.55739 
L 222.926196 194.382349 
L 220.206239 197.68472 
L 172.453958 256.160196 
L 170.603944 258.483848 
L 169.050619 260.343353 
L 167.5 262.201567 
L 165.67096 264.528948 
L 163.710988 266.852225 
L 161.968995 269.179541 
L 159.668286 271.964723 
L 158.253948 273.823291 
L 156.263689 276.136962 
L 154.530881 278.455524 
L 152.494628 280.763383 
L 151.204415 282.616224 
L 148.449443 285.843978 
L 147.853118 286.770211 
L 146.982007 287.691352 
L 145.515917 289.068969 
L 145.009479 289.994423 
L 144.663419 290.921248 
L 144.295053 291.381422 
L 142.932805 292.294905 
L 142.178032 292.752606 
L 142.178032 292.752606 
" clip-path="url(#p792c548aa3)" style="fill: none; stroke: #ff7f0e; stroke-opacity: 0.5; stroke-width: 1.5; stroke-linecap: square"/>
   </g>
   <g id="patch_3">
    <path d="M 57.6 307.584 
L 57.6 41.472 
" style="fill: none; stroke: #000000; stroke-width: 0.8; stroke-linejoin: miter; stroke-linecap: square"/>
   </g>
   <g id="patch_4">
    <path d="M 414.72 307.584 
L 414.72 41.472 
" style="fill: none; stroke: #000000; stroke-width: 0.8; stroke-linejoin: miter; stroke-linecap: square"/>
   </g>
   <g id="patch_5">
    <path d="M 57.6 307.584 
L 414.72 307.584 
" style="fill: none; stroke: #000000; stroke-width: 0.8; stroke-linejoin: miter; stroke-linecap: square"/>
   </g>
   <g id="patch_6">
    <path d="M 57.6 41.472 
L 414.72 41.472 
" style="fill: none; stroke: #000000; stroke-width: 0.8; stroke-linejoin: miter; stroke-linecap: square"/>
   </g>
   <g id="text_19">
    <!-- Compare - Epoch 600 -->
    <g transform="translate(171.234375 35.472) scale(0.12 -0.12)">
     <defs>
      <path id="DejaVuSans-43" d="M 4122 4306 
L 4122 3641 
Q 3803 3938 3442 4084 
Q 3081 4231 2675 4231 
Q 1875 4231 1450 3742 
Q 1025 3253 1025 2328 
Q 1025 1406 1450 917 
Q 1875 428 2675 428 
Q 3081 428 3442 575 
Q 3803 722 4122 1019 
L 4122 359 
Q 3791 134 3420 21 
Q 3050 -91 2638 -91 
Q 1578 -91 968 557 
Q 359 1206 359 2328 
Q 359 3453 968 4101 
Q 1578 4750 2638 4750 
Q 3056 4750 3426 4639 
Q 3797 4528 4122 4306 
z
" transform="scale(0.015625)"/>
      <path id="DejaVuSans-6f" d="M 1959 3097 
Q 1497 3097 1228 2736 
Q 959 2375 959 1747 
Q 959 1119 1226 758 
Q 1494 397 1959 397 
Q 2419 397 2687 759 
Q 2956 1122 2956 1747 
Q 2956 2369 2687 2733 
Q 2419 3097 1959 3097 
z
M 1959 3584 
Q 2709 3584 3137 3096 
Q 3566 2609 3566 1747 
Q 3566 888 3137 398 
Q 2709 -91 1959 -91 
Q 1206 -91 779 398 
Q 353 888 353 1747 
Q 353 2609 779 3096 
Q 1206 3584 1959 3584 
z
" transform="scale(0.015625)"/>
      <path id="DejaVuSans-6d" d="M 3328 2828 
Q 3544 3216 3844 3400 
Q 4144 3584 4550 3584 
Q 5097 3584 5394 3201 
Q 5691 2819 5691 2113 
L 5691 0 
L 5113 0 
L 5113 2094 
Q 5113 2597 4934 2840 
Q 4756 3084 4391 3084 
Q 3944 3084 3684 2787 
Q 3425 2491 3425 1978 
L 3425 0 
L 2847 0 
L 2847 2094 
Q 2847 2600 2669 2842 
Q 2491 3084 2119 3084 
Q 1678 3084 1418 2786 
Q 1159 2488 1159 1978 
L 1159 0 
L 581 0 
L 581 3500 
L 1159 3500 
L 1159 2956 
Q 1356 3278 1631 3431 
Q 1906 3584 2284 3584 
Q 2666 3584 2933 3390 
Q 3200 3197 3328 2828 
z
" transform="scale(0.015625)"/>
      <path id="DejaVuSans-70" d="M 1159 525 
L 1159 -1331 
L 581 -1331 
L 581 3500 
L 1159 3500 
L 1159 2969 
Q 1341 3281 1617 3432 
Q 1894 3584 2278 3584 
Q 2916 3584 3314 3078 
Q 3713 2572 3713 1747 
Q 3713 922 3314 415 
Q 2916 -91 2278 -91 
Q 1894 -91 1617 61 
Q 1341 213 1159 525 
z
M 3116 1747 
Q 3116 2381 2855 2742 
Q 2594 3103 2138 3103 
Q 1681 3103 1420 2742 
Q 1159 2381 1159 1747 
Q 1159 1113 1420 752 
Q 1681 391 2138 391 
Q 2594 391 2855 752 
Q 3116 1113 3116 1747 
z
" transform="scale(0.015625)"/>
      <path id="DejaVuSans-72" d="M 2631 2963 
Q 2534 3019 2420 3045 
Q 2306 3072 2169 3072 
Q 1681 3072 1420 2755 
Q 1159 2438 1159 1844 
L 1159 0 
L 581 0 
L 581 3500 
L 1159 3500 
L 1159 2956 
Q 1341 3275 1631 3429 
Q 1922 3584 2338 3584 
Q 2397 3584 2469 3576 
Q 2541 3569 2628 3553 
L 2631 2963 
z
" transform="scale(0.015625)"/>
      <path id="DejaVuSans-20" transform="scale(0.015625)"/>
      <path id="DejaVuSans-2d" d="M 313 2009 
L 1997 2009 
L 1997 1497 
L 313 1497 
L 313 2009 
z
" transform="scale(0.015625)"/>
      <path id="DejaVuSans-45" d="M 628 4666 
L 3578 4666 
L 3578 4134 
L 1259 4134 
L 1259 2753 
L 3481 2753 
L 3481 2222 
L 1259 2222 
L 1259 531 
L 3634 531 
L 3634 0 
L 628 0 
L 628 4666 
z
" transform="scale(0.015625)"/>
      <path id="DejaVuSans-63" d="M 3122 3366 
L 3122 2828 
Q 2878 2963 2633 3030 
Q 2388 3097 2138 3097 
Q 1578 3097 1268 2742 
Q 959 2388 959 1747 
Q 959 1106 1268 751 
Q 1578 397 2138 397 
Q 2388 397 2633 464 
Q 2878 531 3122 666 
L 3122 134 
Q 2881 22 2623 -34 
Q 2366 -91 2075 -91 
Q 1284 -91 818 406 
Q 353 903 353 1747 
Q 353 2603 823 3093 
Q 1294 3584 2113 3584 
Q 2378 3584 2631 3529 
Q 2884 3475 3122 3366 
z
" transform="scale(0.015625)"/>
      <path id="DejaVuSans-68" d="M 3513 2113 
L 3513 0 
L 2938 0 
L 2938 2094 
Q 2938 2591 2744 2837 
Q 2550 3084 2163 3084 
Q 1697 3084 1428 2787 
Q 1159 2491 1159 1978 
L 1159 0 
L 581 0 
L 581 4863 
L 1159 4863 
L 1159 2956 
Q 1366 3272 1645 3428 
Q 1925 3584 2291 3584 
Q 2894 3584 3203 3211 
Q 3513 2838 3513 2113 
z
" transform="scale(0.015625)"/>
      <path id="DejaVuSans-36" d="M 2113 2584 
Q 1688 2584 1439 2293 
Q 1191 2003 1191 1497 
Q 1191 994 1439 701 
Q 1688 409 2113 409 
Q 2538 409 2786 701 
Q 3034 994 3034 1497 
Q 3034 2003 2786 2293 
Q 2538 2584 2113 2584 
z
M 3366 4563 
L 3366 3988 
Q 3128 4100 2886 4159 
Q 2644 4219 2406 4219 
Q 1781 4219 1451 3797 
Q 1122 3375 1075 2522 
Q 1259 2794 1537 2939 
Q 1816 3084 2150 3084 
Q 2853 3084 3261 2657 
Q 3669 2231 3669 1497 
Q 3669 778 3244 343 
Q 2819 -91 2113 -91 
Q 1303 -91 875 529 
Q 447 1150 447 2328 
Q 447 3434 972 4092 
Q 1497 4750 2381 4750 
Q 2619 4750 2861 4703 
Q 3103 4656 3366 4563 
z
" transform="scale(0.015625)"/>
     </defs>
     <use xlink:href="#DejaVuSans-43"/>
     <use xlink:href="#DejaVuSans-6f" transform="translate(69.824219 0)"/>
     <use xlink:href="#DejaVuSans-6d" transform="translate(131.005859 0)"/>
     <use xlink:href="#DejaVuSans-70" transform="translate(228.417969 0)"/>
     <use xlink:href="#DejaVuSans-61" transform="translate(291.894531 0)"/>
     <use xlink:href="#DejaVuSans-72" transform="translate(353.173828 0)"/>
     <use xlink:href="#DejaVuSans-65" transform="translate(392.037109 0)"/>
     <use xlink:href="#DejaVuSans-20" transform="translate(453.560547 0)"/>
     <use xlink:href="#DejaVuSans-2d" transform="translate(485.347656 0)"/>
     <use xlink:href="#DejaVuSans-20" transform="translate(521.431641 0)"/>
     <use xlink:href="#DejaVuSans-45" transform="translate(553.21875 0)"/>
     <use xlink:href="#DejaVuSans-70" transform="translate(616.402344 0)"/>
     <use xlink:href="#DejaVuSans-6f" transform="translate(679.878906 0)"/>
     <use xlink:href="#DejaVuSans-63" transform="translate(741.060547 0)"/>
     <use xlink:href="#DejaVuSans-68" transform="translate(796.041016 0)"/>
     <use xlink:href="#DejaVuSans-20" transform="translate(859.419922 0)"/>
     <use xlink:href="#DejaVuSans-36" transform="translate(891.207031 0)"/>
     <use xlink:href="#DejaVuSans-30" transform="translate(954.830078 0)"/>
     <use xlink:href="#DejaVuSans-30" transform="translate(1018.453125 0)"/>
    </g>
   </g>
   <g id="legend_1">
    <g id="patch_7">
     <path d="M 64.6 78.82825 
L 181.128125 78.82825 
Q 183.128125 78.82825 183.128125 76.82825 
L 183.128125 48.472 
Q 183.128125 46.472 181.128125 46.472 
L 64.6 46.472 
Q 62.6 46.472 62.6 48.472 
L 62.6 76.82825 
Q 62.6 78.82825 64.6 78.82825 
z
" style="fill: #ffffff; opacity: 0.8; stroke: #cccccc; stroke-linejoin: miter"/>
    </g>
    <g id="line2d_35">
     <path d="M 66.6 54.570437 
L 76.6 54.570437 
L 86.6 54.570437 
" style="fill: none; stroke: #1f77b4; stroke-width: 1.5; stroke-linecap: square"/>
    </g>
    <g id="text_20">
     <!-- Pred: Sample 1 -->
     <g transform="translate(94.6 58.070437) scale(0.1 -0.1)">
      <defs>
       <path id="DejaVuSans-50" d="M 1259 4147 
L 1259 2394 
L 2053 2394 
Q 2494 2394 2734 2622 
Q 2975 2850 2975 3272 
Q 2975 3691 2734 3919 
Q 2494 4147 2053 4147 
L 1259 4147 
z
M 628 4666 
L 2053 4666 
Q 2838 4666 3239 4311 
Q 3641 3956 3641 3272 
Q 3641 2581 3239 2228 
Q 2838 1875 2053 1875 
L 1259 1875 
L 1259 0 
L 628 0 
L 628 4666 
z
" transform="scale(0.015625)"/>
       <path id="DejaVuSans-3a" d="M 750 794 
L 1409 794 
L 1409 0 
L 750 0 
L 750 794 
z
M 750 3309 
L 1409 3309 
L 1409 2516 
L 750 2516 
L 750 3309 
z
" transform="scale(0.015625)"/>
       <path id="DejaVuSans-53" d="M 3425 4513 
L 3425 3897 
Q 3066 4069 2747 4153 
Q 2428 4238 2131 4238 
Q 1616 4238 1336 4038 
Q 1056 3838 1056 3469 
Q 1056 3159 1242 3001 
Q 1428 2844 1947 2747 
L 2328 2669 
Q 3034 2534 3370 2195 
Q 3706 1856 3706 1288 
Q 3706 609 3251 259 
Q 2797 -91 1919 -91 
Q 1588 -91 1214 -16 
Q 841 59 441 206 
L 441 856 
Q 825 641 1194 531 
Q 1563 422 1919 422 
Q 2459 422 2753 634 
Q 3047 847 3047 1241 
Q 3047 1584 2836 1778 
Q 2625 1972 2144 2069 
L 1759 2144 
Q 1053 2284 737 2584 
Q 422 2884 422 3419 
Q 422 4038 858 4394 
Q 1294 4750 2059 4750 
Q 2388 4750 2728 4690 
Q 3069 4631 3425 4513 
z
" transform="scale(0.015625)"/>
      </defs>
      <use xlink:href="#DejaVuSans-50"/>
      <use xlink:href="#DejaVuSans-72" transform="translate(58.552734 0)"/>
      <use xlink:href="#DejaVuSans-65" transform="translate(97.416016 0)"/>
      <use xlink:href="#DejaVuSans-64" transform="translate(158.939453 0)"/>
      <use xlink:href="#DejaVuSans-3a" transform="translate(222.416016 0)"/>
      <use xlink:href="#DejaVuSans-20" transform="translate(256.107422 0)"/>
      <use xlink:href="#DejaVuSans-53" transform="translate(287.894531 0)"/>
      <use xlink:href="#DejaVuSans-61" transform="translate(351.371094 0)"/>
      <use xlink:href="#DejaVuSans-6d" transform="translate(412.650391 0)"/>
      <use xlink:href="#DejaVuSans-70" transform="translate(510.0625 0)"/>
      <use xlink:href="#DejaVuSans-6c" transform="translate(573.539062 0)"/>
      <use xlink:href="#DejaVuSans-65" transform="translate(601.322266 0)"/>
      <use xlink:href="#DejaVuSans-20" transform="translate(662.845703 0)"/>
      <use xlink:href="#DejaVuSans-31" transform="translate(694.632812 0)"/>
     </g>
    </g>
    <g id="line2d_36">
     <path d="M 66.6 69.248562 
L 76.6 69.248562 
L 86.6 69.248562 
" style="fill: none; stroke: #ff7f0e; stroke-opacity: 0.5; stroke-width: 1.5; stroke-linecap: square"/>
    </g>
    <g id="text_21">
     <!-- Target: Sample 1 -->
     <g transform="translate(94.6 72.748562) scale(0.1 -0.1)">
      <defs>
       <path id="DejaVuSans-54" d="M -19 4666 
L 3928 4666 
L 3928 4134 
L 2272 4134 
L 2272 0 
L 1638 0 
L 1638 4134 
L -19 4134 
L -19 4666 
z
" transform="scale(0.015625)"/>
       <path id="DejaVuSans-67" d="M 2906 1791 
Q 2906 2416 2648 2759 
Q 2391 3103 1925 3103 
Q 1463 3103 1205 2759 
Q 947 2416 947 1791 
Q 947 1169 1205 825 
Q 1463 481 1925 481 
Q 2391 481 2648 825 
Q 2906 1169 2906 1791 
z
M 3481 434 
Q 3481 -459 3084 -895 
Q 2688 -1331 1869 -1331 
Q 1566 -1331 1297 -1286 
Q 1028 -1241 775 -1147 
L 775 -588 
Q 1028 -725 1275 -790 
Q 1522 -856 1778 -856 
Q 2344 -856 2625 -561 
Q 2906 -266 2906 331 
L 2906 616 
Q 2728 306 2450 153 
Q 2172 0 1784 0 
Q 1141 0 747 490 
Q 353 981 353 1791 
Q 353 2603 747 3093 
Q 1141 3584 1784 3584 
Q 2172 3584 2450 3431 
Q 2728 3278 2906 2969 
L 2906 3500 
L 3481 3500 
L 3481 434 
z
" transform="scale(0.015625)"/>
       <path id="DejaVuSans-74" d="M 1172 4494 
L 1172 3500 
L 2356 3500 
L 2356 3053 
L 1172 3053 
L 1172 1153 
Q 1172 725 1289 603 
Q 1406 481 1766 481 
L 2356 481 
L 2356 0 
L 1766 0 
Q 1100 0 847 248 
Q 594 497 594 1153 
L 594 3053 
L 172 3053 
L 172 3500 
L 594 3500 
L 594 4494 
L 1172 4494 
z
" transform="scale(0.015625)"/>
      </defs>
      <use xlink:href="#DejaVuSans-54"/>
      <use xlink:href="#DejaVuSans-61" transform="translate(44.583984 0)"/>
      <use xlink:href="#DejaVuSans-72" transform="translate(105.863281 0)"/>
      <use xlink:href="#DejaVuSans-67" transform="translate(145.226562 0)"/>
      <use xlink:href="#DejaVuSans-65" transform="translate(208.703125 0)"/>
      <use xlink:href="#DejaVuSans-74" transform="translate(270.226562 0)"/>
      <use xlink:href="#DejaVuSans-3a" transform="translate(309.435547 0)"/>
      <use xlink:href="#DejaVuSans-20" transform="translate(343.126953 0)"/>
      <use xlink:href="#DejaVuSans-53" transform="translate(374.914062 0)"/>
      <use xlink:href="#DejaVuSans-61" transform="translate(438.390625 0)"/>
      <use xlink:href="#DejaVuSans-6d" transform="translate(499.669922 0)"/>
      <use xlink:href="#DejaVuSans-70" transform="translate(597.082031 0)"/>
      <use xlink:href="#DejaVuSans-6c" transform="translate(660.558594 0)"/>
      <use xlink:href="#DejaVuSans-65" transform="translate(688.341797 0)"/>
      <use xlink:href="#DejaVuSans-20" transform="translate(749.865234 0)"/>
      <use xlink:href="#DejaVuSans-31" transform="translate(781.652344 0)"/>
     </g>
    </g>
   </g>
  </g>
 </g>
 <defs>
  <clipPath id="p792c548aa3">
   <rect x="57.6" y="41.472" width="357.12" height="266.112"/>
  </clipPath>
 </defs>
</svg>
