<?xml version="1.0" encoding="utf-8" standalone="no"?>
<!DOCTYPE svg PUBLIC "-//W3C//DTD SVG 1.1//EN"
  "http://www.w3.org/Graphics/SVG/1.1/DTD/svg11.dtd">
<svg xmlns:xlink="http://www.w3.org/1999/xlink" width="460.8pt" height="345.6pt" viewBox="0 0 460.8 345.6" xmlns="http://www.w3.org/2000/svg" version="1.1">
 <metadata>
  <rdf:RDF xmlns:dc="http://purl.org/dc/elements/1.1/" xmlns:cc="http://creativecommons.org/ns#" xmlns:rdf="http://www.w3.org/1999/02/22-rdf-syntax-ns#">
   <cc:Work>
    <dc:type rdf:resource="http://purl.org/dc/dcmitype/StillImage"/>
    <dc:date>2025-06-02T18:41:41.928320</dc:date>
    <dc:format>image/svg+xml</dc:format>
    <dc:creator>
     <cc:Agent>
      <dc:title>Matplotlib v3.10.3, https://matplotlib.org/</dc:title>
     </cc:Agent>
    </dc:creator>
   </cc:Work>
  </rdf:RDF>
 </metadata>
 <defs>
  <style type="text/css">*{stroke-linejoin: round; stroke-linecap: butt}</style>
 </defs>
 <g id="figure_1">
  <g id="patch_1">
   <path d="M 0 345.6 
L 460.8 345.6 
L 460.8 0 
L 0 0 
z
" style="fill: #ffffff"/>
  </g>
  <g id="axes_1">
   <g id="patch_2">
    <path d="M 57.6 307.584 
L 414.72 307.584 
L 414.72 41.472 
L 57.6 41.472 
z
" style="fill: #ffffff"/>
   </g>
   <g id="matplotlib.axis_1">
    <g id="xtick_1">
     <g id="line2d_1">
      <path d="M 95.135821 307.584 
L 95.135821 41.472 
" clip-path="url(#p974857ae4b)" style="fill: none; stroke: #b0b0b0; stroke-opacity: 0.5; stroke-width: 0.8; stroke-linecap: square"/>
     </g>
     <g id="line2d_2">
      <defs>
       <path id="m0d6fc034ee" d="M 0 0 
L 0 3.5 
" style="stroke: #000000; stroke-width: 0.8"/>
      </defs>
      <g>
       <use xlink:href="#m0d6fc034ee" x="95.135821" y="307.584" style="stroke: #000000; stroke-width: 0.8"/>
      </g>
     </g>
     <g id="text_1">
      <!-- −1.0 -->
      <g transform="translate(82.994415 322.182437) scale(0.1 -0.1)">
       <defs>
        <path id="DejaVuSans-2212" d="M 678 2272 
L 4684 2272 
L 4684 1741 
L 678 1741 
L 678 2272 
z
" transform="scale(0.015625)"/>
        <path id="DejaVuSans-31" d="M 794 531 
L 1825 531 
L 1825 4091 
L 703 3866 
L 703 4441 
L 1819 4666 
L 2450 4666 
L 2450 531 
L 3481 531 
L 3481 0 
L 794 0 
L 794 531 
z
" transform="scale(0.015625)"/>
        <path id="DejaVuSans-2e" d="M 684 794 
L 1344 794 
L 1344 0 
L 684 0 
L 684 794 
z
" transform="scale(0.015625)"/>
        <path id="DejaVuSans-30" d="M 2034 4250 
Q 1547 4250 1301 3770 
Q 1056 3291 1056 2328 
Q 1056 1369 1301 889 
Q 1547 409 2034 409 
Q 2525 409 2770 889 
Q 3016 1369 3016 2328 
Q 3016 3291 2770 3770 
Q 2525 4250 2034 4250 
z
M 2034 4750 
Q 2819 4750 3233 4129 
Q 3647 3509 3647 2328 
Q 3647 1150 3233 529 
Q 2819 -91 2034 -91 
Q 1250 -91 836 529 
Q 422 1150 422 2328 
Q 422 3509 836 4129 
Q 1250 4750 2034 4750 
z
" transform="scale(0.015625)"/>
       </defs>
       <use xlink:href="#DejaVuSans-2212"/>
       <use xlink:href="#DejaVuSans-31" transform="translate(83.789062 0)"/>
       <use xlink:href="#DejaVuSans-2e" transform="translate(147.412109 0)"/>
       <use xlink:href="#DejaVuSans-30" transform="translate(179.199219 0)"/>
      </g>
     </g>
    </g>
    <g id="xtick_2">
     <g id="line2d_3">
      <path d="M 166.221226 307.584 
L 166.221226 41.472 
" clip-path="url(#p974857ae4b)" style="fill: none; stroke: #b0b0b0; stroke-opacity: 0.5; stroke-width: 0.8; stroke-linecap: square"/>
     </g>
     <g id="line2d_4">
      <g>
       <use xlink:href="#m0d6fc034ee" x="166.221226" y="307.584" style="stroke: #000000; stroke-width: 0.8"/>
      </g>
     </g>
     <g id="text_2">
      <!-- −0.5 -->
      <g transform="translate(154.07982 322.182437) scale(0.1 -0.1)">
       <defs>
        <path id="DejaVuSans-35" d="M 691 4666 
L 3169 4666 
L 3169 4134 
L 1269 4134 
L 1269 2991 
Q 1406 3038 1543 3061 
Q 1681 3084 1819 3084 
Q 2600 3084 3056 2656 
Q 3513 2228 3513 1497 
Q 3513 744 3044 326 
Q 2575 -91 1722 -91 
Q 1428 -91 1123 -41 
Q 819 9 494 109 
L 494 744 
Q 775 591 1075 516 
Q 1375 441 1709 441 
Q 2250 441 2565 725 
Q 2881 1009 2881 1497 
Q 2881 1984 2565 2268 
Q 2250 2553 1709 2553 
Q 1456 2553 1204 2497 
Q 953 2441 691 2322 
L 691 4666 
z
" transform="scale(0.015625)"/>
       </defs>
       <use xlink:href="#DejaVuSans-2212"/>
       <use xlink:href="#DejaVuSans-30" transform="translate(83.789062 0)"/>
       <use xlink:href="#DejaVuSans-2e" transform="translate(147.412109 0)"/>
       <use xlink:href="#DejaVuSans-35" transform="translate(179.199219 0)"/>
      </g>
     </g>
    </g>
    <g id="xtick_3">
     <g id="line2d_5">
      <path d="M 237.306631 307.584 
L 237.306631 41.472 
" clip-path="url(#p974857ae4b)" style="fill: none; stroke: #b0b0b0; stroke-opacity: 0.5; stroke-width: 0.8; stroke-linecap: square"/>
     </g>
     <g id="line2d_6">
      <g>
       <use xlink:href="#m0d6fc034ee" x="237.306631" y="307.584" style="stroke: #000000; stroke-width: 0.8"/>
      </g>
     </g>
     <g id="text_3">
      <!-- 0.0 -->
      <g transform="translate(229.355068 322.182437) scale(0.1 -0.1)">
       <use xlink:href="#DejaVuSans-30"/>
       <use xlink:href="#DejaVuSans-2e" transform="translate(63.623047 0)"/>
       <use xlink:href="#DejaVuSans-30" transform="translate(95.410156 0)"/>
      </g>
     </g>
    </g>
    <g id="xtick_4">
     <g id="line2d_7">
      <path d="M 308.392036 307.584 
L 308.392036 41.472 
" clip-path="url(#p974857ae4b)" style="fill: none; stroke: #b0b0b0; stroke-opacity: 0.5; stroke-width: 0.8; stroke-linecap: square"/>
     </g>
     <g id="line2d_8">
      <g>
       <use xlink:href="#m0d6fc034ee" x="308.392036" y="307.584" style="stroke: #000000; stroke-width: 0.8"/>
      </g>
     </g>
     <g id="text_4">
      <!-- 0.5 -->
      <g transform="translate(300.440473 322.182437) scale(0.1 -0.1)">
       <use xlink:href="#DejaVuSans-30"/>
       <use xlink:href="#DejaVuSans-2e" transform="translate(63.623047 0)"/>
       <use xlink:href="#DejaVuSans-35" transform="translate(95.410156 0)"/>
      </g>
     </g>
    </g>
    <g id="xtick_5">
     <g id="line2d_9">
      <path d="M 379.47744 307.584 
L 379.47744 41.472 
" clip-path="url(#p974857ae4b)" style="fill: none; stroke: #b0b0b0; stroke-opacity: 0.5; stroke-width: 0.8; stroke-linecap: square"/>
     </g>
     <g id="line2d_10">
      <g>
       <use xlink:href="#m0d6fc034ee" x="379.47744" y="307.584" style="stroke: #000000; stroke-width: 0.8"/>
      </g>
     </g>
     <g id="text_5">
      <!-- 1.0 -->
      <g transform="translate(371.525878 322.182437) scale(0.1 -0.1)">
       <use xlink:href="#DejaVuSans-31"/>
       <use xlink:href="#DejaVuSans-2e" transform="translate(63.623047 0)"/>
       <use xlink:href="#DejaVuSans-30" transform="translate(95.410156 0)"/>
      </g>
     </g>
    </g>
    <g id="text_6">
     <!-- Index -->
     <g transform="translate(222.393594 335.860562) scale(0.1 -0.1)">
      <defs>
       <path id="DejaVuSans-49" d="M 628 4666 
L 1259 4666 
L 1259 0 
L 628 0 
L 628 4666 
z
" transform="scale(0.015625)"/>
       <path id="DejaVuSans-6e" d="M 3513 2113 
L 3513 0 
L 2938 0 
L 2938 2094 
Q 2938 2591 2744 2837 
Q 2550 3084 2163 3084 
Q 1697 3084 1428 2787 
Q 1159 2491 1159 1978 
L 1159 0 
L 581 0 
L 581 3500 
L 1159 3500 
L 1159 2956 
Q 1366 3272 1645 3428 
Q 1925 3584 2291 3584 
Q 2894 3584 3203 3211 
Q 3513 2838 3513 2113 
z
" transform="scale(0.015625)"/>
       <path id="DejaVuSans-64" d="M 2906 2969 
L 2906 4863 
L 3481 4863 
L 3481 0 
L 2906 0 
L 2906 525 
Q 2725 213 2448 61 
Q 2172 -91 1784 -91 
Q 1150 -91 751 415 
Q 353 922 353 1747 
Q 353 2572 751 3078 
Q 1150 3584 1784 3584 
Q 2172 3584 2448 3432 
Q 2725 3281 2906 2969 
z
M 947 1747 
Q 947 1113 1208 752 
Q 1469 391 1925 391 
Q 2381 391 2643 752 
Q 2906 1113 2906 1747 
Q 2906 2381 2643 2742 
Q 2381 3103 1925 3103 
Q 1469 3103 1208 2742 
Q 947 2381 947 1747 
z
" transform="scale(0.015625)"/>
       <path id="DejaVuSans-65" d="M 3597 1894 
L 3597 1613 
L 953 1613 
Q 991 1019 1311 708 
Q 1631 397 2203 397 
Q 2534 397 2845 478 
Q 3156 559 3463 722 
L 3463 178 
Q 3153 47 2828 -22 
Q 2503 -91 2169 -91 
Q 1331 -91 842 396 
Q 353 884 353 1716 
Q 353 2575 817 3079 
Q 1281 3584 2069 3584 
Q 2775 3584 3186 3129 
Q 3597 2675 3597 1894 
z
M 3022 2063 
Q 3016 2534 2758 2815 
Q 2500 3097 2075 3097 
Q 1594 3097 1305 2825 
Q 1016 2553 972 2059 
L 3022 2063 
z
" transform="scale(0.015625)"/>
       <path id="DejaVuSans-78" d="M 3513 3500 
L 2247 1797 
L 3578 0 
L 2900 0 
L 1881 1375 
L 863 0 
L 184 0 
L 1544 1831 
L 300 3500 
L 978 3500 
L 1906 2253 
L 2834 3500 
L 3513 3500 
z
" transform="scale(0.015625)"/>
      </defs>
      <use xlink:href="#DejaVuSans-49"/>
      <use xlink:href="#DejaVuSans-6e" transform="translate(29.492188 0)"/>
      <use xlink:href="#DejaVuSans-64" transform="translate(92.871094 0)"/>
      <use xlink:href="#DejaVuSans-65" transform="translate(156.347656 0)"/>
      <use xlink:href="#DejaVuSans-78" transform="translate(216.121094 0)"/>
     </g>
    </g>
   </g>
   <g id="matplotlib.axis_2">
    <g id="ytick_1">
     <g id="line2d_11">
      <path d="M 57.6 295.546377 
L 414.72 295.546377 
" clip-path="url(#p974857ae4b)" style="fill: none; stroke: #b0b0b0; stroke-opacity: 0.5; stroke-width: 0.8; stroke-linecap: square"/>
     </g>
     <g id="line2d_12">
      <defs>
       <path id="m7e30fbb7e6" d="M 0 0 
L -3.5 0 
" style="stroke: #000000; stroke-width: 0.8"/>
      </defs>
      <g>
       <use xlink:href="#m7e30fbb7e6" x="57.6" y="295.546377" style="stroke: #000000; stroke-width: 0.8"/>
      </g>
     </g>
     <g id="text_7">
      <!-- −1.00 -->
      <g transform="translate(19.954687 299.345596) scale(0.1 -0.1)">
       <use xlink:href="#DejaVuSans-2212"/>
       <use xlink:href="#DejaVuSans-31" transform="translate(83.789062 0)"/>
       <use xlink:href="#DejaVuSans-2e" transform="translate(147.412109 0)"/>
       <use xlink:href="#DejaVuSans-30" transform="translate(179.199219 0)"/>
       <use xlink:href="#DejaVuSans-30" transform="translate(242.822266 0)"/>
      </g>
     </g>
    </g>
    <g id="ytick_2">
     <g id="line2d_13">
      <path d="M 57.6 265.299073 
L 414.72 265.299073 
" clip-path="url(#p974857ae4b)" style="fill: none; stroke: #b0b0b0; stroke-opacity: 0.5; stroke-width: 0.8; stroke-linecap: square"/>
     </g>
     <g id="line2d_14">
      <g>
       <use xlink:href="#m7e30fbb7e6" x="57.6" y="265.299073" style="stroke: #000000; stroke-width: 0.8"/>
      </g>
     </g>
     <g id="text_8">
      <!-- −0.75 -->
      <g transform="translate(19.954687 269.098292) scale(0.1 -0.1)">
       <defs>
        <path id="DejaVuSans-37" d="M 525 4666 
L 3525 4666 
L 3525 4397 
L 1831 0 
L 1172 0 
L 2766 4134 
L 525 4134 
L 525 4666 
z
" transform="scale(0.015625)"/>
       </defs>
       <use xlink:href="#DejaVuSans-2212"/>
       <use xlink:href="#DejaVuSans-30" transform="translate(83.789062 0)"/>
       <use xlink:href="#DejaVuSans-2e" transform="translate(147.412109 0)"/>
       <use xlink:href="#DejaVuSans-37" transform="translate(179.199219 0)"/>
       <use xlink:href="#DejaVuSans-35" transform="translate(242.822266 0)"/>
      </g>
     </g>
    </g>
    <g id="ytick_3">
     <g id="line2d_15">
      <path d="M 57.6 235.051769 
L 414.72 235.051769 
" clip-path="url(#p974857ae4b)" style="fill: none; stroke: #b0b0b0; stroke-opacity: 0.5; stroke-width: 0.8; stroke-linecap: square"/>
     </g>
     <g id="line2d_16">
      <g>
       <use xlink:href="#m7e30fbb7e6" x="57.6" y="235.051769" style="stroke: #000000; stroke-width: 0.8"/>
      </g>
     </g>
     <g id="text_9">
      <!-- −0.50 -->
      <g transform="translate(19.954687 238.850987) scale(0.1 -0.1)">
       <use xlink:href="#DejaVuSans-2212"/>
       <use xlink:href="#DejaVuSans-30" transform="translate(83.789062 0)"/>
       <use xlink:href="#DejaVuSans-2e" transform="translate(147.412109 0)"/>
       <use xlink:href="#DejaVuSans-35" transform="translate(179.199219 0)"/>
       <use xlink:href="#DejaVuSans-30" transform="translate(242.822266 0)"/>
      </g>
     </g>
    </g>
    <g id="ytick_4">
     <g id="line2d_17">
      <path d="M 57.6 204.804464 
L 414.72 204.804464 
" clip-path="url(#p974857ae4b)" style="fill: none; stroke: #b0b0b0; stroke-opacity: 0.5; stroke-width: 0.8; stroke-linecap: square"/>
     </g>
     <g id="line2d_18">
      <g>
       <use xlink:href="#m7e30fbb7e6" x="57.6" y="204.804464" style="stroke: #000000; stroke-width: 0.8"/>
      </g>
     </g>
     <g id="text_10">
      <!-- −0.25 -->
      <g transform="translate(19.954687 208.603683) scale(0.1 -0.1)">
       <defs>
        <path id="DejaVuSans-32" d="M 1228 531 
L 3431 531 
L 3431 0 
L 469 0 
L 469 531 
Q 828 903 1448 1529 
Q 2069 2156 2228 2338 
Q 2531 2678 2651 2914 
Q 2772 3150 2772 3378 
Q 2772 3750 2511 3984 
Q 2250 4219 1831 4219 
Q 1534 4219 1204 4116 
Q 875 4013 500 3803 
L 500 4441 
Q 881 4594 1212 4672 
Q 1544 4750 1819 4750 
Q 2544 4750 2975 4387 
Q 3406 4025 3406 3419 
Q 3406 3131 3298 2873 
Q 3191 2616 2906 2266 
Q 2828 2175 2409 1742 
Q 1991 1309 1228 531 
z
" transform="scale(0.015625)"/>
       </defs>
       <use xlink:href="#DejaVuSans-2212"/>
       <use xlink:href="#DejaVuSans-30" transform="translate(83.789062 0)"/>
       <use xlink:href="#DejaVuSans-2e" transform="translate(147.412109 0)"/>
       <use xlink:href="#DejaVuSans-32" transform="translate(179.199219 0)"/>
       <use xlink:href="#DejaVuSans-35" transform="translate(242.822266 0)"/>
      </g>
     </g>
    </g>
    <g id="ytick_5">
     <g id="line2d_19">
      <path d="M 57.6 174.55716 
L 414.72 174.55716 
" clip-path="url(#p974857ae4b)" style="fill: none; stroke: #b0b0b0; stroke-opacity: 0.5; stroke-width: 0.8; stroke-linecap: square"/>
     </g>
     <g id="line2d_20">
      <g>
       <use xlink:href="#m7e30fbb7e6" x="57.6" y="174.55716" style="stroke: #000000; stroke-width: 0.8"/>
      </g>
     </g>
     <g id="text_11">
      <!-- 0.00 -->
      <g transform="translate(28.334375 178.356379) scale(0.1 -0.1)">
       <use xlink:href="#DejaVuSans-30"/>
       <use xlink:href="#DejaVuSans-2e" transform="translate(63.623047 0)"/>
       <use xlink:href="#DejaVuSans-30" transform="translate(95.410156 0)"/>
       <use xlink:href="#DejaVuSans-30" transform="translate(159.033203 0)"/>
      </g>
     </g>
    </g>
    <g id="ytick_6">
     <g id="line2d_21">
      <path d="M 57.6 144.309855 
L 414.72 144.309855 
" clip-path="url(#p974857ae4b)" style="fill: none; stroke: #b0b0b0; stroke-opacity: 0.5; stroke-width: 0.8; stroke-linecap: square"/>
     </g>
     <g id="line2d_22">
      <g>
       <use xlink:href="#m7e30fbb7e6" x="57.6" y="144.309855" style="stroke: #000000; stroke-width: 0.8"/>
      </g>
     </g>
     <g id="text_12">
      <!-- 0.25 -->
      <g transform="translate(28.334375 148.109074) scale(0.1 -0.1)">
       <use xlink:href="#DejaVuSans-30"/>
       <use xlink:href="#DejaVuSans-2e" transform="translate(63.623047 0)"/>
       <use xlink:href="#DejaVuSans-32" transform="translate(95.410156 0)"/>
       <use xlink:href="#DejaVuSans-35" transform="translate(159.033203 0)"/>
      </g>
     </g>
    </g>
    <g id="ytick_7">
     <g id="line2d_23">
      <path d="M 57.6 114.062551 
L 414.72 114.062551 
" clip-path="url(#p974857ae4b)" style="fill: none; stroke: #b0b0b0; stroke-opacity: 0.5; stroke-width: 0.8; stroke-linecap: square"/>
     </g>
     <g id="line2d_24">
      <g>
       <use xlink:href="#m7e30fbb7e6" x="57.6" y="114.062551" style="stroke: #000000; stroke-width: 0.8"/>
      </g>
     </g>
     <g id="text_13">
      <!-- 0.50 -->
      <g transform="translate(28.334375 117.86177) scale(0.1 -0.1)">
       <use xlink:href="#DejaVuSans-30"/>
       <use xlink:href="#DejaVuSans-2e" transform="translate(63.623047 0)"/>
       <use xlink:href="#DejaVuSans-35" transform="translate(95.410156 0)"/>
       <use xlink:href="#DejaVuSans-30" transform="translate(159.033203 0)"/>
      </g>
     </g>
    </g>
    <g id="ytick_8">
     <g id="line2d_25">
      <path d="M 57.6 83.815247 
L 414.72 83.815247 
" clip-path="url(#p974857ae4b)" style="fill: none; stroke: #b0b0b0; stroke-opacity: 0.5; stroke-width: 0.8; stroke-linecap: square"/>
     </g>
     <g id="line2d_26">
      <g>
       <use xlink:href="#m7e30fbb7e6" x="57.6" y="83.815247" style="stroke: #000000; stroke-width: 0.8"/>
      </g>
     </g>
     <g id="text_14">
      <!-- 0.75 -->
      <g transform="translate(28.334375 87.614465) scale(0.1 -0.1)">
       <use xlink:href="#DejaVuSans-30"/>
       <use xlink:href="#DejaVuSans-2e" transform="translate(63.623047 0)"/>
       <use xlink:href="#DejaVuSans-37" transform="translate(95.410156 0)"/>
       <use xlink:href="#DejaVuSans-35" transform="translate(159.033203 0)"/>
      </g>
     </g>
    </g>
    <g id="ytick_9">
     <g id="line2d_27">
      <path d="M 57.6 53.567942 
L 414.72 53.567942 
" clip-path="url(#p974857ae4b)" style="fill: none; stroke: #b0b0b0; stroke-opacity: 0.5; stroke-width: 0.8; stroke-linecap: square"/>
     </g>
     <g id="line2d_28">
      <g>
       <use xlink:href="#m7e30fbb7e6" x="57.6" y="53.567942" style="stroke: #000000; stroke-width: 0.8"/>
      </g>
     </g>
     <g id="text_15">
      <!-- 1.00 -->
      <g transform="translate(28.334375 57.367161) scale(0.1 -0.1)">
       <use xlink:href="#DejaVuSans-31"/>
       <use xlink:href="#DejaVuSans-2e" transform="translate(63.623047 0)"/>
       <use xlink:href="#DejaVuSans-30" transform="translate(95.410156 0)"/>
       <use xlink:href="#DejaVuSans-30" transform="translate(159.033203 0)"/>
      </g>
     </g>
    </g>
    <g id="text_16">
     <!-- Value -->
     <g transform="translate(13.875 188.25925) rotate(-90) scale(0.1 -0.1)">
      <defs>
       <path id="DejaVuSans-56" d="M 1831 0 
L 50 4666 
L 709 4666 
L 2188 738 
L 3669 4666 
L 4325 4666 
L 2547 0 
L 1831 0 
z
" transform="scale(0.015625)"/>
       <path id="DejaVuSans-61" d="M 2194 1759 
Q 1497 1759 1228 1600 
Q 959 1441 959 1056 
Q 959 750 1161 570 
Q 1363 391 1709 391 
Q 2188 391 2477 730 
Q 2766 1069 2766 1631 
L 2766 1759 
L 2194 1759 
z
M 3341 1997 
L 3341 0 
L 2766 0 
L 2766 531 
Q 2569 213 2275 61 
Q 1981 -91 1556 -91 
Q 1019 -91 701 211 
Q 384 513 384 1019 
Q 384 1609 779 1909 
Q 1175 2209 1959 2209 
L 2766 2209 
L 2766 2266 
Q 2766 2663 2505 2880 
Q 2244 3097 1772 3097 
Q 1472 3097 1187 3025 
Q 903 2953 641 2809 
L 641 3341 
Q 956 3463 1253 3523 
Q 1550 3584 1831 3584 
Q 2591 3584 2966 3190 
Q 3341 2797 3341 1997 
z
" transform="scale(0.015625)"/>
       <path id="DejaVuSans-6c" d="M 603 4863 
L 1178 4863 
L 1178 0 
L 603 0 
L 603 4863 
z
" transform="scale(0.015625)"/>
       <path id="DejaVuSans-75" d="M 544 1381 
L 544 3500 
L 1119 3500 
L 1119 1403 
Q 1119 906 1312 657 
Q 1506 409 1894 409 
Q 2359 409 2629 706 
Q 2900 1003 2900 1516 
L 2900 3500 
L 3475 3500 
L 3475 0 
L 2900 0 
L 2900 538 
Q 2691 219 2414 64 
Q 2138 -91 1772 -91 
Q 1169 -91 856 284 
Q 544 659 544 1381 
z
M 1991 3584 
L 1991 3584 
z
" transform="scale(0.015625)"/>
      </defs>
      <use xlink:href="#DejaVuSans-56"/>
      <use xlink:href="#DejaVuSans-61" transform="translate(60.658203 0)"/>
      <use xlink:href="#DejaVuSans-6c" transform="translate(121.9375 0)"/>
      <use xlink:href="#DejaVuSans-75" transform="translate(149.720703 0)"/>
      <use xlink:href="#DejaVuSans-65" transform="translate(213.099609 0)"/>
     </g>
    </g>
   </g>
   <g id="line2d_29">
    <path d="M 134.496367 293.214403 
L 134.147982 293.679942 
L 134.10829 294.142403 
L 134.238214 294.585579 
L 134.119221 294.981982 
L 132.960108 295.293996 
L 129.6001 295.477276 
L 122.49405 295.488 
L 113.440749 295.291638 
L 105.68701 294.871942 
L 85.017308 293.42883 
L 76.782642 292.507681 
L 73.832727 291.55726 
L 74.137894 290.664828 
L 77.11774 289.907294 
L 82.35307 289.336394 
L 89.00409 288.968073 
L 95.531008 288.77872 
L 117.371043 288.592165 
L 103.170432 287.401262 
L 93.000397 286.658966 
L 84.82788 285.820288 
L 81.977602 284.967194 
L 82.920593 284.182032 
L 86.439829 283.529159 
L 91.675006 283.041523 
L 97.572261 282.713832 
L 114.934341 282.172081 
L 115.209078 281.904548 
L 111.915981 281.502737 
L 92.708026 279.529102 
L 90.402731 278.763939 
L 91.181088 278.048087 
L 94.052534 277.430421 
L 98.217788 276.935054 
L 107.676071 276.266546 
L 115.162615 275.745117 
L 115.494382 275.412782 
L 113.24188 274.986451 
L 104.338663 273.845538 
L 100.722714 273.180723 
L 99.360071 272.507693 
L 100.075679 271.86894 
L 102.283759 271.296519 
L 105.406172 270.80571 
L 117.09323 269.359079 
L 117.296963 268.973046 
L 115.913694 268.525687 
L 110.692855 267.444961 
L 108.679474 266.844696 
L 107.958909 266.240183 
L 108.550363 265.65869 
L 110.16199 265.120645 
L 114.941417 264.199403 
L 119.332224 263.412035 
L 120.506319 263.016425 
L 120.682427 262.592366 
L 119.895629 262.128334 
L 117.060495 261.083348 
L 116.077277 260.525602 
L 115.886374 259.967842 
L 116.51408 259.427216 
L 117.799168 258.915652 
L 121.317709 257.98934 
L 124.325366 257.137183 
L 125.072505 256.704889 
L 125.191396 256.252655 
L 124.79032 255.774877 
L 123.505655 254.751707 
L 123.232113 254.22329 
L 123.450031 253.698334 
L 124.144615 253.186425 
L 126.486026 252.220038 
L 128.932354 251.313723 
L 129.797139 250.864892 
L 130.293429 250.40823 
L 130.450572 249.938162 
L 130.088222 248.44705 
L 130.231044 247.937542 
L 130.651559 247.432195 
L 131.355515 246.936042 
L 135.893465 244.587741 
L 136.366774 244.118617 
L 136.821712 243.15412 
L 137.203925 242.162031 
L 137.586019 241.664292 
L 138.147221 241.170757 
L 139.707343 240.205553 
L 142.135283 238.800122 
L 143.135499 237.856199 
L 144.361947 235.905035 
L 145.528127 234.932126 
L 149.17066 232.580085 
L 149.984558 231.62898 
L 150.9969 230.171438 
L 152.116033 229.204279 
L 155.579763 226.851838 
L 156.457843 225.903506 
L 157.556384 224.453633 
L 158.592607 223.486543 
L 160.636901 222.059661 
L 162.509147 220.644711 
L 163.853486 219.206918 
L 165.251016 217.749873 
L 167.140939 216.306311 
L 169.710434 214.407183 
L 171.114167 212.963898 
L 172.538051 211.503331 
L 173.784511 210.537759 
L 177.057219 208.161855 
L 178.441623 206.7186 
L 179.400707 205.748773 
L 180.596733 204.78526 
L 183.846375 202.413433 
L 185.799052 200.499025 
L 187.436275 199.05777 
L 190.351891 196.682036 
L 192.299599 194.775729 
L 194.284537 192.859199 
L 199.552725 188.097041 
L 201.60257 186.184271 
L 204.890087 183.338272 
L 207.867433 180.475528 
L 211.126866 177.633179 
L 213.092848 175.730539 
L 219.404919 175.671149 
L 248.414564 175.195934 
L 210.909126 174.721335 
L 214.83278 174.247314 
L 216.694925 172.82719 
L 242.226443 152.983728 
L 247.959407 148.24558 
L 256.580938 140.668968 
L 283.319832 117.137875 
L 290.279994 111.050328 
L 293.990264 107.777488 
L 296.636728 105.443956 
L 299.303966 103.110921 
L 300.887955 101.714137 
L 304.867843 97.519398 
L 324.097814 76.997613 
L 325.201261 75.597273 
L 327.615126 72.811052 
L 329.023876 70.946903 
L 331.440477 68.167411 
L 332.833194 66.307315 
L 334.92685 63.998453 
L 336.619556 61.675543 
L 338.422883 59.835135 
L 339.942592 57.510552 
L 341.923526 55.674045 
L 342.052298 55.208448 
L 342.02152 54.750379 
L 342.161486 54.320796 
L 343.129755 53.952006 
L 345.713499 53.685836 
L 350.538558 53.568 
L 357.504618 53.640029 
L 365.556634 53.929788 
L 373.491556 54.443002 
L 381.731552 55.15752 
L 389.393898 56.022765 
L 394.001116 56.965174 
L 396.709368 57.898799 
L 398.487273 58.7399 
L 398.14104 59.422066 
L 393.361614 59.909349 
L 385.214773 60.203506 
L 370.837817 60.400446 
L 364.620498 60.45772 
L 361.891527 60.599087 
L 363.563845 60.888283 
L 382.124053 62.765666 
L 386.886159 63.59437 
L 389.508247 64.404137 
L 390.539351 65.123782 
L 388.937436 65.705038 
L 384.09181 66.13263 
L 364.670715 67.054507 
L 364.053848 67.387521 
L 366.58801 67.848049 
L 376.091604 69.116036 
L 379.668615 69.843966 
L 381.637202 70.560979 
L 382.122087 71.2159 
L 380.757868 71.774526 
L 377.516954 72.226501 
L 363.975709 73.493154 
L 363.346723 73.878098 
L 364.692121 74.346954 
L 370.230788 75.508694 
L 372.387211 76.148399 
L 373.508445 76.779746 
L 373.51419 77.370341 
L 372.323842 77.89932 
L 370.120727 78.361074 
L 362.507251 79.49572 
L 360.946273 79.877836 
L 360.436788 80.301643 
L 361.012133 80.777524 
L 364.912073 82.444308 
L 365.393526 83.016427 
L 365.13855 83.56249 
L 364.143376 84.070196 
L 362.565476 84.536781 
L 357.233414 85.789335 
L 356.141221 86.212103 
L 355.688199 86.661302 
L 355.856891 87.142397 
L 357.511185 88.72389 
L 357.550843 89.257167 
L 357.118523 89.773087 
L 356.233308 90.265222 
L 353.650954 91.181814 
L 351.201084 92.060148 
L 350.423616 92.510161 
L 350.038488 92.976984 
L 349.979712 93.462623 
L 350.317089 94.989957 
L 350.084748 95.497872 
L 349.56312 95.994212 
L 347.852118 96.945332 
L 345.937137 97.861548 
L 345.169355 98.320749 
L 344.620542 98.787681 
L 344.288733 99.265054 
L 344.012293 100.248929 
L 343.632071 101.247962 
L 343.222224 101.74211 
L 341.945305 102.706622 
L 339.055699 104.580672 
L 338.226065 105.537259 
L 337.013464 107.497234 
L 335.92099 108.461869 
L 332.753089 110.819819 
L 331.9849 111.781072 
L 330.937526 113.238887 
L 329.890431 114.197738 
L 326.83259 116.548127 
L 326.026565 117.503315 
L 324.946506 118.951871 
L 323.938367 119.907556 
L 320.497448 122.727375 
L 318.062213 125.607746 
L 314.233827 128.915652 
L 311.715876 131.80736 
L 306.927472 136.100154 
L 305.505574 137.551421 
L 303.725945 138.984812 
L 301.33638 140.882148 
L 297.252596 144.717528 
L 294.853472 146.608643 
L 292.903455 148.518318 
L 291.356422 149.952296 
L 286.895145 153.744546 
L 284.33676 156.129588 
L 278.926148 160.876598 
L 276.229226 163.252121 
L 272.963631 166.092425 
L 269.797963 168.938947 
L 266.525314 171.772947 
L 262.789003 175.084349 
L 257.769539 179.328415 
L 218.337771 212.771841 
L 215.078015 215.589562 
L 197.102571 231.976928 
L 188.90994 239.43723 
L 175.633657 251.516331 
L 170.380455 256.160196 
L 162.592354 262.201567 
L 158.425092 265.457712 
L 155.453432 267.783888 
L 151.79629 270.570874 
L 148.859561 272.895183 
L 146.411156 274.748478 
L 143.988301 276.601038 
L 141.041242 278.917118 
L 137.992451 281.22668 
L 135.050171 283.537762 
L 132.566862 285.380796 
L 129.717923 287.691352 
L 127.147222 289.530867 
L 125.066319 291.381422 
L 122.86345 292.752606 
L 122.86345 292.752606 
" clip-path="url(#p974857ae4b)" style="fill: none; stroke: #1f77b4; stroke-width: 1.5; stroke-linecap: square"/>
   </g>
   <g id="line2d_30">
    <path d="M 112.118231 293.214403 
L 112.506791 293.679942 
L 114.273154 294.142403 
L 117.685676 294.585579 
L 122.678826 294.981982 
L 128.77111 295.293996 
L 135.079551 295.477276 
L 140.447254 295.488 
L 143.668067 295.291638 
L 143.765798 294.871942 
L 140.262011 294.238323 
L 133.361083 293.42883 
L 97.6931 289.907294 
L 95.135821 289.336394 
L 97.232341 288.968073 
L 103.622539 288.77872 
L 133.275817 288.592165 
L 140.038779 288.377572 
L 142.687875 287.98409 
L 140.88976 287.401262 
L 135.291173 286.658966 
L 112.241689 284.182032 
L 108.551728 283.529159 
L 108.730047 283.041523 
L 112.650418 282.713832 
L 127.277391 282.349831 
L 134.693753 282.172081 
L 140.06438 281.904548 
L 142.41018 281.502737 
L 141.501806 280.954322 
L 137.870662 280.280319 
L 123.038761 278.048087 
L 121.047327 277.430421 
L 121.699185 276.935054 
L 124.787142 276.557401 
L 142.880939 275.412782 
L 144.027129 274.986451 
L 143.072232 274.458784 
L 140.478201 273.845538 
L 133.761363 272.507693 
L 131.459729 271.86894 
L 130.740655 271.296519 
L 131.796224 270.80571 
L 134.401619 270.392461 
L 145.078851 269.359079 
L 147.210224 268.973046 
L 147.893512 268.525687 
L 147.170371 268.012746 
L 143.169192 266.844696 
L 141.128033 266.240183 
L 139.854749 265.65869 
L 139.717418 265.120645 
L 140.80157 264.635303 
L 142.904751 264.199403 
L 150.596434 263.016425 
L 151.988397 262.592366 
L 152.350323 262.128334 
L 151.769894 261.622676 
L 147.986828 259.967842 
L 147.479606 259.427216 
L 147.820966 258.915652 
L 149.006628 258.437601 
L 152.963801 257.560586 
L 156.600089 256.704889 
L 157.532284 256.252655 
L 157.739694 255.774877 
L 157.334127 255.272371 
L 155.160349 253.698334 
L 155.066787 253.186425 
L 155.558392 252.693373 
L 156.6008 252.220038 
L 162.336658 250.40823 
L 163.087399 249.938162 
L 163.366991 249.452927 
L 163.254702 248.95428 
L 162.347801 247.432195 
L 162.475887 246.936042 
L 162.999209 246.451407 
L 163.89711 245.977927 
L 168.494315 244.118617 
L 169.111446 243.64089 
L 169.364807 243.15412 
L 169.317293 242.660037 
L 168.887045 241.664292 
L 168.841988 241.170757 
L 169.091032 240.68421 
L 169.687037 240.205553 
L 171.719468 239.266577 
L 173.955352 238.330839 
L 174.770063 237.856199 
L 175.265921 237.374887 
L 175.450694 236.88772 
L 175.273201 235.905035 
L 175.200803 235.416015 
L 175.323147 234.932126 
L 175.719757 234.45459 
L 176.399778 233.982942 
L 180.811274 231.62898 
L 181.214833 231.145645 
L 181.508357 230.171438 
L 181.750359 229.204279 
L 182.074165 228.727811 
L 182.586065 228.256138 
L 184.073123 227.32049 
L 186.447613 225.903506 
L 187.461828 224.93895 
L 188.025051 223.968918 
L 188.536913 223.007565 
L 189.400172 222.059661 
L 190.725698 221.117584 
L 192.973988 219.689556 
L 194.0798 218.721838 
L 194.74816 217.749873 
L 195.299197 216.784593 
L 196.160834 215.830618 
L 197.468823 214.882512 
L 199.562796 213.448144 
L 200.483611 212.477366 
L 201.68426 210.537759 
L 202.717875 209.584854 
L 205.862729 207.202338 
L 206.616268 206.233567 
L 207.622654 204.78526 
L 208.602528 203.833137 
L 211.992663 200.980114 
L 215.141661 197.630044 
L 218.925585 194.296594 
L 221.645498 191.429521 
L 225.413993 188.097041 
L 227.630876 185.708943 
L 231.291321 182.384138 
L 233.096866 180.475528 
L 239.655429 174.247314 
L 248.902142 165.262845 
L 250.889553 163.374122 
L 253.252883 161.012815 
L 256.338875 158.184341 
L 259.318839 155.347098 
L 262.801856 152.035754 
L 270.195601 144.929036 
L 272.998032 142.086133 
L 275.504157 139.723253 
L 277.76823 137.359018 
L 280.806644 134.532431 
L 283.153012 132.174751 
L 286.167508 129.354527 
L 288.620616 127.001297 
L 291.092574 124.651968 
L 293.038349 122.77116 
L 295.5731 120.423814 
L 298.434402 117.606151 
L 300.427357 115.732119 
L 303.249513 112.919532 
L 305.679957 110.582257 
L 307.526345 108.710371 
L 310.485293 105.911486 
L 312.309068 104.04252 
L 315.332139 101.247624 
L 317.630986 98.914711 
L 320.187782 96.58746 
L 322.514584 94.25408 
L 325.058601 91.926994 
L 327.387123 89.592388 
L 329.942834 87.262995 
L 332.230978 84.926232 
L 334.807264 82.596471 
L 336.982669 80.259174 
L 339.605156 77.932515 
L 341.724327 75.597273 
L 344.37027 73.27701 
L 346.456079 70.946903 
L 349.171822 68.632503 
L 351.212956 66.307315 
L 354.05442 63.998453 
L 355.461154 62.137362 
L 356.716964 61.215708 
L 358.110681 60.297054 
L 358.61892 59.835135 
L 358.930621 59.370439 
L 359.500415 57.971866 
L 360.063956 57.510552 
L 362.934308 56.137262 
L 363.218434 55.674045 
L 362.34282 55.208448 
L 359.893492 54.750379 
L 355.731001 54.320796 
L 350.112449 53.952006 
L 343.729548 53.685836 
L 337.634518 53.568 
L 333.05546 53.640029 
L 331.132378 53.929788 
L 332.6328 54.443002 
L 337.718173 55.15752 
L 345.827432 56.022765 
L 373.868871 58.7399 
L 378.686711 59.422066 
L 379.161138 59.909349 
L 375.168815 60.203506 
L 367.49152 60.344016 
L 339.441039 60.599087 
L 334.561864 60.888283 
L 333.811564 61.356506 
L 337.065367 61.996744 
L 343.333742 62.765666 
L 358.241952 64.404137 
L 363.371611 65.123782 
L 365.284321 65.705038 
L 363.642247 66.13263 
L 358.921579 66.426009 
L 339.147236 67.054507 
L 335.368008 67.387521 
L 334.406518 67.848049 
L 336.156815 68.434194 
L 344.505414 69.843966 
L 348.731952 70.560979 
L 351.5112 71.2159 
L 352.188157 71.774526 
L 350.643238 72.226501 
L 347.281815 72.585981 
L 334.946755 73.493154 
L 332.939653 73.878098 
L 332.7126 74.346954 
L 334.084081 74.897316 
L 341.519628 76.779746 
L 342.707697 77.370341 
L 342.486728 77.89932 
L 340.874974 78.361074 
L 335.049359 79.134199 
L 329.722848 79.877836 
L 328.491197 80.301643 
L 328.43582 80.777524 
L 329.379573 81.30328 
L 333.797243 83.016427 
L 334.243351 83.56249 
L 333.732095 84.070196 
L 332.323269 84.536781 
L 324.380559 86.212103 
L 323.604337 86.661302 
L 323.607811 87.142397 
L 324.227196 87.653145 
L 326.061309 88.72389 
L 326.592351 89.257167 
L 326.532991 89.773087 
L 325.809019 90.265222 
L 324.504415 90.733091 
L 319.534026 92.060148 
L 318.419309 92.510161 
L 317.848209 92.976984 
L 317.802949 93.462623 
L 318.147707 93.964436 
L 319.118892 94.989957 
L 319.292152 95.497872 
L 319.050667 95.994212 
L 318.359643 96.47636 
L 315.980768 97.405124 
L 313.434302 98.320749 
L 312.529028 98.787681 
L 311.989325 99.265054 
L 311.801134 99.752942 
L 311.872129 100.248929 
L 312.187931 101.247962 
L 312.121732 101.74211 
L 311.762763 102.228534 
L 311.087289 102.706622 
L 309.049214 103.644632 
L 306.96863 104.580672 
L 306.23824 105.055688 
L 305.801543 105.537259 
L 305.638951 106.024649 
L 305.7681 107.497234 
L 305.583056 107.982389 
L 305.131259 108.461869 
L 304.408249 108.936019 
L 300.588334 110.819819 
L 299.971348 111.298253 
L 299.610142 111.781072 
L 299.465087 112.266926 
L 299.32141 113.720602 
L 299.017442 114.197738 
L 298.489522 114.670331 
L 296.890441 115.607554 
L 295.135636 116.548127 
L 293.898931 117.503315 
L 293.323598 118.469312 
L 292.966981 119.431646 
L 292.681139 119.907556 
L 292.256479 120.37951 
L 290.988437 121.315829 
L 288.086137 123.204547 
L 287.17117 124.166849 
L 285.458672 126.554785 
L 284.258316 127.494932 
L 281.509727 129.395222 
L 280.540593 130.360942 
L 278.705298 132.760304 
L 277.534931 133.707144 
L 274.98069 135.616845 
L 274.109906 136.584537 
L 272.661839 138.509504 
L 271.589466 139.458569 
L 269.172053 141.360394 
L 268.275286 142.322545 
L 266.767724 144.24268 
L 265.768459 145.190598 
L 262.508741 148.039161 
L 259.787729 150.901134 
L 255.564375 154.699203 
L 253.244169 157.078728 
L 248.662097 161.353157 
L 246.765587 163.252121 
L 243.19573 166.56768 
L 240.847785 168.938947 
L 236.37403 173.194243 
L 221.383811 187.796132 
L 216.376634 192.499959 
L 205.078321 203.350121 
L 189.708813 218.40186 
L 182.397047 225.428688 
L 156.087892 251.05276 
L 154.140922 252.908947 
L 151.799511 255.232686 
L 149.33676 257.553166 
L 147.004305 259.879032 
L 144.535894 262.201567 
L 142.232531 264.528948 
L 139.76428 266.852225 
L 137.570537 269.179541 
L 135.094431 271.499566 
L 132.89207 273.823291 
L 130.385678 276.136962 
L 128.203502 278.455524 
L 125.63919 280.763383 
L 124.014386 282.616224 
L 120.89793 285.380796 
L 119.794 286.770211 
L 118.696984 287.691352 
L 116.850694 289.068969 
L 116.459312 289.530867 
L 115.777118 290.921248 
L 115.313224 291.381422 
L 114.565873 291.838827 
L 112.647197 292.752606 
L 112.647197 292.752606 
" clip-path="url(#p974857ae4b)" style="fill: none; stroke: #ff7f0e; stroke-opacity: 0.5; stroke-width: 1.5; stroke-linecap: square"/>
   </g>
   <g id="patch_3">
    <path d="M 57.6 307.584 
L 57.6 41.472 
" style="fill: none; stroke: #000000; stroke-width: 0.8; stroke-linejoin: miter; stroke-linecap: square"/>
   </g>
   <g id="patch_4">
    <path d="M 414.72 307.584 
L 414.72 41.472 
" style="fill: none; stroke: #000000; stroke-width: 0.8; stroke-linejoin: miter; stroke-linecap: square"/>
   </g>
   <g id="patch_5">
    <path d="M 57.6 307.584 
L 414.72 307.584 
" style="fill: none; stroke: #000000; stroke-width: 0.8; stroke-linejoin: miter; stroke-linecap: square"/>
   </g>
   <g id="patch_6">
    <path d="M 57.6 41.472 
L 414.72 41.472 
" style="fill: none; stroke: #000000; stroke-width: 0.8; stroke-linejoin: miter; stroke-linecap: square"/>
   </g>
   <g id="text_17">
    <!-- Compare - Epoch 150 -->
    <g transform="translate(171.234375 35.472) scale(0.12 -0.12)">
     <defs>
      <path id="DejaVuSans-43" d="M 4122 4306 
L 4122 3641 
Q 3803 3938 3442 4084 
Q 3081 4231 2675 4231 
Q 1875 4231 1450 3742 
Q 1025 3253 1025 2328 
Q 1025 1406 1450 917 
Q 1875 428 2675 428 
Q 3081 428 3442 575 
Q 3803 722 4122 1019 
L 4122 359 
Q 3791 134 3420 21 
Q 3050 -91 2638 -91 
Q 1578 -91 968 557 
Q 359 1206 359 2328 
Q 359 3453 968 4101 
Q 1578 4750 2638 4750 
Q 3056 4750 3426 4639 
Q 3797 4528 4122 4306 
z
" transform="scale(0.015625)"/>
      <path id="DejaVuSans-6f" d="M 1959 3097 
Q 1497 3097 1228 2736 
Q 959 2375 959 1747 
Q 959 1119 1226 758 
Q 1494 397 1959 397 
Q 2419 397 2687 759 
Q 2956 1122 2956 1747 
Q 2956 2369 2687 2733 
Q 2419 3097 1959 3097 
z
M 1959 3584 
Q 2709 3584 3137 3096 
Q 3566 2609 3566 1747 
Q 3566 888 3137 398 
Q 2709 -91 1959 -91 
Q 1206 -91 779 398 
Q 353 888 353 1747 
Q 353 2609 779 3096 
Q 1206 3584 1959 3584 
z
" transform="scale(0.015625)"/>
      <path id="DejaVuSans-6d" d="M 3328 2828 
Q 3544 3216 3844 3400 
Q 4144 3584 4550 3584 
Q 5097 3584 5394 3201 
Q 5691 2819 5691 2113 
L 5691 0 
L 5113 0 
L 5113 2094 
Q 5113 2597 4934 2840 
Q 4756 3084 4391 3084 
Q 3944 3084 3684 2787 
Q 3425 2491 3425 1978 
L 3425 0 
L 2847 0 
L 2847 2094 
Q 2847 2600 2669 2842 
Q 2491 3084 2119 3084 
Q 1678 3084 1418 2786 
Q 1159 2488 1159 1978 
L 1159 0 
L 581 0 
L 581 3500 
L 1159 3500 
L 1159 2956 
Q 1356 3278 1631 3431 
Q 1906 3584 2284 3584 
Q 2666 3584 2933 3390 
Q 3200 3197 3328 2828 
z
" transform="scale(0.015625)"/>
      <path id="DejaVuSans-70" d="M 1159 525 
L 1159 -1331 
L 581 -1331 
L 581 3500 
L 1159 3500 
L 1159 2969 
Q 1341 3281 1617 3432 
Q 1894 3584 2278 3584 
Q 2916 3584 3314 3078 
Q 3713 2572 3713 1747 
Q 3713 922 3314 415 
Q 2916 -91 2278 -91 
Q 1894 -91 1617 61 
Q 1341 213 1159 525 
z
M 3116 1747 
Q 3116 2381 2855 2742 
Q 2594 3103 2138 3103 
Q 1681 3103 1420 2742 
Q 1159 2381 1159 1747 
Q 1159 1113 1420 752 
Q 1681 391 2138 391 
Q 2594 391 2855 752 
Q 3116 1113 3116 1747 
z
" transform="scale(0.015625)"/>
      <path id="DejaVuSans-72" d="M 2631 2963 
Q 2534 3019 2420 3045 
Q 2306 3072 2169 3072 
Q 1681 3072 1420 2755 
Q 1159 2438 1159 1844 
L 1159 0 
L 581 0 
L 581 3500 
L 1159 3500 
L 1159 2956 
Q 1341 3275 1631 3429 
Q 1922 3584 2338 3584 
Q 2397 3584 2469 3576 
Q 2541 3569 2628 3553 
L 2631 2963 
z
" transform="scale(0.015625)"/>
      <path id="DejaVuSans-20" transform="scale(0.015625)"/>
      <path id="DejaVuSans-2d" d="M 313 2009 
L 1997 2009 
L 1997 1497 
L 313 1497 
L 313 2009 
z
" transform="scale(0.015625)"/>
      <path id="DejaVuSans-45" d="M 628 4666 
L 3578 4666 
L 3578 4134 
L 1259 4134 
L 1259 2753 
L 3481 2753 
L 3481 2222 
L 1259 2222 
L 1259 531 
L 3634 531 
L 3634 0 
L 628 0 
L 628 4666 
z
" transform="scale(0.015625)"/>
      <path id="DejaVuSans-63" d="M 3122 3366 
L 3122 2828 
Q 2878 2963 2633 3030 
Q 2388 3097 2138 3097 
Q 1578 3097 1268 2742 
Q 959 2388 959 1747 
Q 959 1106 1268 751 
Q 1578 397 2138 397 
Q 2388 397 2633 464 
Q 2878 531 3122 666 
L 3122 134 
Q 2881 22 2623 -34 
Q 2366 -91 2075 -91 
Q 1284 -91 818 406 
Q 353 903 353 1747 
Q 353 2603 823 3093 
Q 1294 3584 2113 3584 
Q 2378 3584 2631 3529 
Q 2884 3475 3122 3366 
z
" transform="scale(0.015625)"/>
      <path id="DejaVuSans-68" d="M 3513 2113 
L 3513 0 
L 2938 0 
L 2938 2094 
Q 2938 2591 2744 2837 
Q 2550 3084 2163 3084 
Q 1697 3084 1428 2787 
Q 1159 2491 1159 1978 
L 1159 0 
L 581 0 
L 581 4863 
L 1159 4863 
L 1159 2956 
Q 1366 3272 1645 3428 
Q 1925 3584 2291 3584 
Q 2894 3584 3203 3211 
Q 3513 2838 3513 2113 
z
" transform="scale(0.015625)"/>
     </defs>
     <use xlink:href="#DejaVuSans-43"/>
     <use xlink:href="#DejaVuSans-6f" transform="translate(69.824219 0)"/>
     <use xlink:href="#DejaVuSans-6d" transform="translate(131.005859 0)"/>
     <use xlink:href="#DejaVuSans-70" transform="translate(228.417969 0)"/>
     <use xlink:href="#DejaVuSans-61" transform="translate(291.894531 0)"/>
     <use xlink:href="#DejaVuSans-72" transform="translate(353.173828 0)"/>
     <use xlink:href="#DejaVuSans-65" transform="translate(392.037109 0)"/>
     <use xlink:href="#DejaVuSans-20" transform="translate(453.560547 0)"/>
     <use xlink:href="#DejaVuSans-2d" transform="translate(485.347656 0)"/>
     <use xlink:href="#DejaVuSans-20" transform="translate(521.431641 0)"/>
     <use xlink:href="#DejaVuSans-45" transform="translate(553.21875 0)"/>
     <use xlink:href="#DejaVuSans-70" transform="translate(616.402344 0)"/>
     <use xlink:href="#DejaVuSans-6f" transform="translate(679.878906 0)"/>
     <use xlink:href="#DejaVuSans-63" transform="translate(741.060547 0)"/>
     <use xlink:href="#DejaVuSans-68" transform="translate(796.041016 0)"/>
     <use xlink:href="#DejaVuSans-20" transform="translate(859.419922 0)"/>
     <use xlink:href="#DejaVuSans-31" transform="translate(891.207031 0)"/>
     <use xlink:href="#DejaVuSans-35" transform="translate(954.830078 0)"/>
     <use xlink:href="#DejaVuSans-30" transform="translate(1018.453125 0)"/>
    </g>
   </g>
   <g id="legend_1">
    <g id="patch_7">
     <path d="M 64.6 78.82825 
L 181.128125 78.82825 
Q 183.128125 78.82825 183.128125 76.82825 
L 183.128125 48.472 
Q 183.128125 46.472 181.128125 46.472 
L 64.6 46.472 
Q 62.6 46.472 62.6 48.472 
L 62.6 76.82825 
Q 62.6 78.82825 64.6 78.82825 
z
" style="fill: #ffffff; opacity: 0.8; stroke: #cccccc; stroke-linejoin: miter"/>
    </g>
    <g id="line2d_31">
     <path d="M 66.6 54.570437 
L 76.6 54.570437 
L 86.6 54.570437 
" style="fill: none; stroke: #1f77b4; stroke-width: 1.5; stroke-linecap: square"/>
    </g>
    <g id="text_18">
     <!-- Pred: Sample 1 -->
     <g transform="translate(94.6 58.070437) scale(0.1 -0.1)">
      <defs>
       <path id="DejaVuSans-50" d="M 1259 4147 
L 1259 2394 
L 2053 2394 
Q 2494 2394 2734 2622 
Q 2975 2850 2975 3272 
Q 2975 3691 2734 3919 
Q 2494 4147 2053 4147 
L 1259 4147 
z
M 628 4666 
L 2053 4666 
Q 2838 4666 3239 4311 
Q 3641 3956 3641 3272 
Q 3641 2581 3239 2228 
Q 2838 1875 2053 1875 
L 1259 1875 
L 1259 0 
L 628 0 
L 628 4666 
z
" transform="scale(0.015625)"/>
       <path id="DejaVuSans-3a" d="M 750 794 
L 1409 794 
L 1409 0 
L 750 0 
L 750 794 
z
M 750 3309 
L 1409 3309 
L 1409 2516 
L 750 2516 
L 750 3309 
z
" transform="scale(0.015625)"/>
       <path id="DejaVuSans-53" d="M 3425 4513 
L 3425 3897 
Q 3066 4069 2747 4153 
Q 2428 4238 2131 4238 
Q 1616 4238 1336 4038 
Q 1056 3838 1056 3469 
Q 1056 3159 1242 3001 
Q 1428 2844 1947 2747 
L 2328 2669 
Q 3034 2534 3370 2195 
Q 3706 1856 3706 1288 
Q 3706 609 3251 259 
Q 2797 -91 1919 -91 
Q 1588 -91 1214 -16 
Q 841 59 441 206 
L 441 856 
Q 825 641 1194 531 
Q 1563 422 1919 422 
Q 2459 422 2753 634 
Q 3047 847 3047 1241 
Q 3047 1584 2836 1778 
Q 2625 1972 2144 2069 
L 1759 2144 
Q 1053 2284 737 2584 
Q 422 2884 422 3419 
Q 422 4038 858 4394 
Q 1294 4750 2059 4750 
Q 2388 4750 2728 4690 
Q 3069 4631 3425 4513 
z
" transform="scale(0.015625)"/>
      </defs>
      <use xlink:href="#DejaVuSans-50"/>
      <use xlink:href="#DejaVuSans-72" transform="translate(58.552734 0)"/>
      <use xlink:href="#DejaVuSans-65" transform="translate(97.416016 0)"/>
      <use xlink:href="#DejaVuSans-64" transform="translate(158.939453 0)"/>
      <use xlink:href="#DejaVuSans-3a" transform="translate(222.416016 0)"/>
      <use xlink:href="#DejaVuSans-20" transform="translate(256.107422 0)"/>
      <use xlink:href="#DejaVuSans-53" transform="translate(287.894531 0)"/>
      <use xlink:href="#DejaVuSans-61" transform="translate(351.371094 0)"/>
      <use xlink:href="#DejaVuSans-6d" transform="translate(412.650391 0)"/>
      <use xlink:href="#DejaVuSans-70" transform="translate(510.0625 0)"/>
      <use xlink:href="#DejaVuSans-6c" transform="translate(573.539062 0)"/>
      <use xlink:href="#DejaVuSans-65" transform="translate(601.322266 0)"/>
      <use xlink:href="#DejaVuSans-20" transform="translate(662.845703 0)"/>
      <use xlink:href="#DejaVuSans-31" transform="translate(694.632812 0)"/>
     </g>
    </g>
    <g id="line2d_32">
     <path d="M 66.6 69.248562 
L 76.6 69.248562 
L 86.6 69.248562 
" style="fill: none; stroke: #ff7f0e; stroke-opacity: 0.5; stroke-width: 1.5; stroke-linecap: square"/>
    </g>
    <g id="text_19">
     <!-- Target: Sample 1 -->
     <g transform="translate(94.6 72.748562) scale(0.1 -0.1)">
      <defs>
       <path id="DejaVuSans-54" d="M -19 4666 
L 3928 4666 
L 3928 4134 
L 2272 4134 
L 2272 0 
L 1638 0 
L 1638 4134 
L -19 4134 
L -19 4666 
z
" transform="scale(0.015625)"/>
       <path id="DejaVuSans-67" d="M 2906 1791 
Q 2906 2416 2648 2759 
Q 2391 3103 1925 3103 
Q 1463 3103 1205 2759 
Q 947 2416 947 1791 
Q 947 1169 1205 825 
Q 1463 481 1925 481 
Q 2391 481 2648 825 
Q 2906 1169 2906 1791 
z
M 3481 434 
Q 3481 -459 3084 -895 
Q 2688 -1331 1869 -1331 
Q 1566 -1331 1297 -1286 
Q 1028 -1241 775 -1147 
L 775 -588 
Q 1028 -725 1275 -790 
Q 1522 -856 1778 -856 
Q 2344 -856 2625 -561 
Q 2906 -266 2906 331 
L 2906 616 
Q 2728 306 2450 153 
Q 2172 0 1784 0 
Q 1141 0 747 490 
Q 353 981 353 1791 
Q 353 2603 747 3093 
Q 1141 3584 1784 3584 
Q 2172 3584 2450 3431 
Q 2728 3278 2906 2969 
L 2906 3500 
L 3481 3500 
L 3481 434 
z
" transform="scale(0.015625)"/>
       <path id="DejaVuSans-74" d="M 1172 4494 
L 1172 3500 
L 2356 3500 
L 2356 3053 
L 1172 3053 
L 1172 1153 
Q 1172 725 1289 603 
Q 1406 481 1766 481 
L 2356 481 
L 2356 0 
L 1766 0 
Q 1100 0 847 248 
Q 594 497 594 1153 
L 594 3053 
L 172 3053 
L 172 3500 
L 594 3500 
L 594 4494 
L 1172 4494 
z
" transform="scale(0.015625)"/>
      </defs>
      <use xlink:href="#DejaVuSans-54"/>
      <use xlink:href="#DejaVuSans-61" transform="translate(44.583984 0)"/>
      <use xlink:href="#DejaVuSans-72" transform="translate(105.863281 0)"/>
      <use xlink:href="#DejaVuSans-67" transform="translate(145.226562 0)"/>
      <use xlink:href="#DejaVuSans-65" transform="translate(208.703125 0)"/>
      <use xlink:href="#DejaVuSans-74" transform="translate(270.226562 0)"/>
      <use xlink:href="#DejaVuSans-3a" transform="translate(309.435547 0)"/>
      <use xlink:href="#DejaVuSans-20" transform="translate(343.126953 0)"/>
      <use xlink:href="#DejaVuSans-53" transform="translate(374.914062 0)"/>
      <use xlink:href="#DejaVuSans-61" transform="translate(438.390625 0)"/>
      <use xlink:href="#DejaVuSans-6d" transform="translate(499.669922 0)"/>
      <use xlink:href="#DejaVuSans-70" transform="translate(597.082031 0)"/>
      <use xlink:href="#DejaVuSans-6c" transform="translate(660.558594 0)"/>
      <use xlink:href="#DejaVuSans-65" transform="translate(688.341797 0)"/>
      <use xlink:href="#DejaVuSans-20" transform="translate(749.865234 0)"/>
      <use xlink:href="#DejaVuSans-31" transform="translate(781.652344 0)"/>
     </g>
    </g>
   </g>
  </g>
 </g>
 <defs>
  <clipPath id="p974857ae4b">
   <rect x="57.6" y="41.472" width="357.12" height="266.112"/>
  </clipPath>
 </defs>
</svg>
