<?xml version="1.0" encoding="utf-8" standalone="no"?>
<!DOCTYPE svg PUBLIC "-//W3C//DTD SVG 1.1//EN"
  "http://www.w3.org/Graphics/SVG/1.1/DTD/svg11.dtd">
<svg xmlns:xlink="http://www.w3.org/1999/xlink" width="460.8pt" height="345.6pt" viewBox="0 0 460.8 345.6" xmlns="http://www.w3.org/2000/svg" version="1.1">
 <metadata>
  <rdf:RDF xmlns:dc="http://purl.org/dc/elements/1.1/" xmlns:cc="http://creativecommons.org/ns#" xmlns:rdf="http://www.w3.org/1999/02/22-rdf-syntax-ns#">
   <cc:Work>
    <dc:type rdf:resource="http://purl.org/dc/dcmitype/StillImage"/>
    <dc:date>2025-05-30T20:04:40.488389</dc:date>
    <dc:format>image/svg+xml</dc:format>
    <dc:creator>
     <cc:Agent>
      <dc:title>Matplotlib v3.10.3, https://matplotlib.org/</dc:title>
     </cc:Agent>
    </dc:creator>
   </cc:Work>
  </rdf:RDF>
 </metadata>
 <defs>
  <style type="text/css">*{stroke-linejoin: round; stroke-linecap: butt}</style>
 </defs>
 <g id="figure_1">
  <g id="patch_1">
   <path d="M 0 345.6 
L 460.8 345.6 
L 460.8 0 
L 0 0 
z
" style="fill: #ffffff"/>
  </g>
  <g id="axes_1">
   <g id="patch_2">
    <path d="M 57.6 307.584 
L 414.72 307.584 
L 414.72 41.472 
L 57.6 41.472 
z
" style="fill: #ffffff"/>
   </g>
   <g id="matplotlib.axis_1">
    <g id="xtick_1">
     <g id="line2d_1">
      <path d="M 77.32786 307.584 
L 77.32786 41.472 
" clip-path="url(#p8891294c19)" style="fill: none; stroke: #b0b0b0; stroke-opacity: 0.5; stroke-width: 0.8; stroke-linecap: square"/>
     </g>
     <g id="line2d_2">
      <defs>
       <path id="m4aadddfb69" d="M 0 0 
L 0 3.5 
" style="stroke: #000000; stroke-width: 0.8"/>
      </defs>
      <g>
       <use xlink:href="#m4aadddfb69" x="77.32786" y="307.584" style="stroke: #000000; stroke-width: 0.8"/>
      </g>
     </g>
     <g id="text_1">
      <!-- −1.00 -->
      <g transform="translate(62.005204 322.182437) scale(0.1 -0.1)">
       <defs>
        <path id="DejaVuSans-2212" d="M 678 2272 
L 4684 2272 
L 4684 1741 
L 678 1741 
L 678 2272 
z
" transform="scale(0.015625)"/>
        <path id="DejaVuSans-31" d="M 794 531 
L 1825 531 
L 1825 4091 
L 703 3866 
L 703 4441 
L 1819 4666 
L 2450 4666 
L 2450 531 
L 3481 531 
L 3481 0 
L 794 0 
L 794 531 
z
" transform="scale(0.015625)"/>
        <path id="DejaVuSans-2e" d="M 684 794 
L 1344 794 
L 1344 0 
L 684 0 
L 684 794 
z
" transform="scale(0.015625)"/>
        <path id="DejaVuSans-30" d="M 2034 4250 
Q 1547 4250 1301 3770 
Q 1056 3291 1056 2328 
Q 1056 1369 1301 889 
Q 1547 409 2034 409 
Q 2525 409 2770 889 
Q 3016 1369 3016 2328 
Q 3016 3291 2770 3770 
Q 2525 4250 2034 4250 
z
M 2034 4750 
Q 2819 4750 3233 4129 
Q 3647 3509 3647 2328 
Q 3647 1150 3233 529 
Q 2819 -91 2034 -91 
Q 1250 -91 836 529 
Q 422 1150 422 2328 
Q 422 3509 836 4129 
Q 1250 4750 2034 4750 
z
" transform="scale(0.015625)"/>
       </defs>
       <use xlink:href="#DejaVuSans-2212"/>
       <use xlink:href="#DejaVuSans-31" transform="translate(83.789062 0)"/>
       <use xlink:href="#DejaVuSans-2e" transform="translate(147.412109 0)"/>
       <use xlink:href="#DejaVuSans-30" transform="translate(179.199219 0)"/>
       <use xlink:href="#DejaVuSans-30" transform="translate(242.822266 0)"/>
      </g>
     </g>
    </g>
    <g id="xtick_2">
     <g id="line2d_3">
      <path d="M 117.343059 307.584 
L 117.343059 41.472 
" clip-path="url(#p8891294c19)" style="fill: none; stroke: #b0b0b0; stroke-opacity: 0.5; stroke-width: 0.8; stroke-linecap: square"/>
     </g>
     <g id="line2d_4">
      <g>
       <use xlink:href="#m4aadddfb69" x="117.343059" y="307.584" style="stroke: #000000; stroke-width: 0.8"/>
      </g>
     </g>
     <g id="text_2">
      <!-- −0.75 -->
      <g transform="translate(102.020403 322.182437) scale(0.1 -0.1)">
       <defs>
        <path id="DejaVuSans-37" d="M 525 4666 
L 3525 4666 
L 3525 4397 
L 1831 0 
L 1172 0 
L 2766 4134 
L 525 4134 
L 525 4666 
z
" transform="scale(0.015625)"/>
        <path id="DejaVuSans-35" d="M 691 4666 
L 3169 4666 
L 3169 4134 
L 1269 4134 
L 1269 2991 
Q 1406 3038 1543 3061 
Q 1681 3084 1819 3084 
Q 2600 3084 3056 2656 
Q 3513 2228 3513 1497 
Q 3513 744 3044 326 
Q 2575 -91 1722 -91 
Q 1428 -91 1123 -41 
Q 819 9 494 109 
L 494 744 
Q 775 591 1075 516 
Q 1375 441 1709 441 
Q 2250 441 2565 725 
Q 2881 1009 2881 1497 
Q 2881 1984 2565 2268 
Q 2250 2553 1709 2553 
Q 1456 2553 1204 2497 
Q 953 2441 691 2322 
L 691 4666 
z
" transform="scale(0.015625)"/>
       </defs>
       <use xlink:href="#DejaVuSans-2212"/>
       <use xlink:href="#DejaVuSans-30" transform="translate(83.789062 0)"/>
       <use xlink:href="#DejaVuSans-2e" transform="translate(147.412109 0)"/>
       <use xlink:href="#DejaVuSans-37" transform="translate(179.199219 0)"/>
       <use xlink:href="#DejaVuSans-35" transform="translate(242.822266 0)"/>
      </g>
     </g>
    </g>
    <g id="xtick_3">
     <g id="line2d_5">
      <path d="M 157.358258 307.584 
L 157.358258 41.472 
" clip-path="url(#p8891294c19)" style="fill: none; stroke: #b0b0b0; stroke-opacity: 0.5; stroke-width: 0.8; stroke-linecap: square"/>
     </g>
     <g id="line2d_6">
      <g>
       <use xlink:href="#m4aadddfb69" x="157.358258" y="307.584" style="stroke: #000000; stroke-width: 0.8"/>
      </g>
     </g>
     <g id="text_3">
      <!-- −0.50 -->
      <g transform="translate(142.035602 322.182437) scale(0.1 -0.1)">
       <use xlink:href="#DejaVuSans-2212"/>
       <use xlink:href="#DejaVuSans-30" transform="translate(83.789062 0)"/>
       <use xlink:href="#DejaVuSans-2e" transform="translate(147.412109 0)"/>
       <use xlink:href="#DejaVuSans-35" transform="translate(179.199219 0)"/>
       <use xlink:href="#DejaVuSans-30" transform="translate(242.822266 0)"/>
      </g>
     </g>
    </g>
    <g id="xtick_4">
     <g id="line2d_7">
      <path d="M 197.373457 307.584 
L 197.373457 41.472 
" clip-path="url(#p8891294c19)" style="fill: none; stroke: #b0b0b0; stroke-opacity: 0.5; stroke-width: 0.8; stroke-linecap: square"/>
     </g>
     <g id="line2d_8">
      <g>
       <use xlink:href="#m4aadddfb69" x="197.373457" y="307.584" style="stroke: #000000; stroke-width: 0.8"/>
      </g>
     </g>
     <g id="text_4">
      <!-- −0.25 -->
      <g transform="translate(182.050801 322.182437) scale(0.1 -0.1)">
       <defs>
        <path id="DejaVuSans-32" d="M 1228 531 
L 3431 531 
L 3431 0 
L 469 0 
L 469 531 
Q 828 903 1448 1529 
Q 2069 2156 2228 2338 
Q 2531 2678 2651 2914 
Q 2772 3150 2772 3378 
Q 2772 3750 2511 3984 
Q 2250 4219 1831 4219 
Q 1534 4219 1204 4116 
Q 875 4013 500 3803 
L 500 4441 
Q 881 4594 1212 4672 
Q 1544 4750 1819 4750 
Q 2544 4750 2975 4387 
Q 3406 4025 3406 3419 
Q 3406 3131 3298 2873 
Q 3191 2616 2906 2266 
Q 2828 2175 2409 1742 
Q 1991 1309 1228 531 
z
" transform="scale(0.015625)"/>
       </defs>
       <use xlink:href="#DejaVuSans-2212"/>
       <use xlink:href="#DejaVuSans-30" transform="translate(83.789062 0)"/>
       <use xlink:href="#DejaVuSans-2e" transform="translate(147.412109 0)"/>
       <use xlink:href="#DejaVuSans-32" transform="translate(179.199219 0)"/>
       <use xlink:href="#DejaVuSans-35" transform="translate(242.822266 0)"/>
      </g>
     </g>
    </g>
    <g id="xtick_5">
     <g id="line2d_9">
      <path d="M 237.388656 307.584 
L 237.388656 41.472 
" clip-path="url(#p8891294c19)" style="fill: none; stroke: #b0b0b0; stroke-opacity: 0.5; stroke-width: 0.8; stroke-linecap: square"/>
     </g>
     <g id="line2d_10">
      <g>
       <use xlink:href="#m4aadddfb69" x="237.388656" y="307.584" style="stroke: #000000; stroke-width: 0.8"/>
      </g>
     </g>
     <g id="text_5">
      <!-- 0.00 -->
      <g transform="translate(226.255844 322.182437) scale(0.1 -0.1)">
       <use xlink:href="#DejaVuSans-30"/>
       <use xlink:href="#DejaVuSans-2e" transform="translate(63.623047 0)"/>
       <use xlink:href="#DejaVuSans-30" transform="translate(95.410156 0)"/>
       <use xlink:href="#DejaVuSans-30" transform="translate(159.033203 0)"/>
      </g>
     </g>
    </g>
    <g id="xtick_6">
     <g id="line2d_11">
      <path d="M 277.403855 307.584 
L 277.403855 41.472 
" clip-path="url(#p8891294c19)" style="fill: none; stroke: #b0b0b0; stroke-opacity: 0.5; stroke-width: 0.8; stroke-linecap: square"/>
     </g>
     <g id="line2d_12">
      <g>
       <use xlink:href="#m4aadddfb69" x="277.403855" y="307.584" style="stroke: #000000; stroke-width: 0.8"/>
      </g>
     </g>
     <g id="text_6">
      <!-- 0.25 -->
      <g transform="translate(266.271043 322.182437) scale(0.1 -0.1)">
       <use xlink:href="#DejaVuSans-30"/>
       <use xlink:href="#DejaVuSans-2e" transform="translate(63.623047 0)"/>
       <use xlink:href="#DejaVuSans-32" transform="translate(95.410156 0)"/>
       <use xlink:href="#DejaVuSans-35" transform="translate(159.033203 0)"/>
      </g>
     </g>
    </g>
    <g id="xtick_7">
     <g id="line2d_13">
      <path d="M 317.419054 307.584 
L 317.419054 41.472 
" clip-path="url(#p8891294c19)" style="fill: none; stroke: #b0b0b0; stroke-opacity: 0.5; stroke-width: 0.8; stroke-linecap: square"/>
     </g>
     <g id="line2d_14">
      <g>
       <use xlink:href="#m4aadddfb69" x="317.419054" y="307.584" style="stroke: #000000; stroke-width: 0.8"/>
      </g>
     </g>
     <g id="text_7">
      <!-- 0.50 -->
      <g transform="translate(306.286242 322.182437) scale(0.1 -0.1)">
       <use xlink:href="#DejaVuSans-30"/>
       <use xlink:href="#DejaVuSans-2e" transform="translate(63.623047 0)"/>
       <use xlink:href="#DejaVuSans-35" transform="translate(95.410156 0)"/>
       <use xlink:href="#DejaVuSans-30" transform="translate(159.033203 0)"/>
      </g>
     </g>
    </g>
    <g id="xtick_8">
     <g id="line2d_15">
      <path d="M 357.434253 307.584 
L 357.434253 41.472 
" clip-path="url(#p8891294c19)" style="fill: none; stroke: #b0b0b0; stroke-opacity: 0.5; stroke-width: 0.8; stroke-linecap: square"/>
     </g>
     <g id="line2d_16">
      <g>
       <use xlink:href="#m4aadddfb69" x="357.434253" y="307.584" style="stroke: #000000; stroke-width: 0.8"/>
      </g>
     </g>
     <g id="text_8">
      <!-- 0.75 -->
      <g transform="translate(346.301441 322.182437) scale(0.1 -0.1)">
       <use xlink:href="#DejaVuSans-30"/>
       <use xlink:href="#DejaVuSans-2e" transform="translate(63.623047 0)"/>
       <use xlink:href="#DejaVuSans-37" transform="translate(95.410156 0)"/>
       <use xlink:href="#DejaVuSans-35" transform="translate(159.033203 0)"/>
      </g>
     </g>
    </g>
    <g id="xtick_9">
     <g id="line2d_17">
      <path d="M 397.449453 307.584 
L 397.449453 41.472 
" clip-path="url(#p8891294c19)" style="fill: none; stroke: #b0b0b0; stroke-opacity: 0.5; stroke-width: 0.8; stroke-linecap: square"/>
     </g>
     <g id="line2d_18">
      <g>
       <use xlink:href="#m4aadddfb69" x="397.449453" y="307.584" style="stroke: #000000; stroke-width: 0.8"/>
      </g>
     </g>
     <g id="text_9">
      <!-- 1.00 -->
      <g transform="translate(386.31664 322.182437) scale(0.1 -0.1)">
       <use xlink:href="#DejaVuSans-31"/>
       <use xlink:href="#DejaVuSans-2e" transform="translate(63.623047 0)"/>
       <use xlink:href="#DejaVuSans-30" transform="translate(95.410156 0)"/>
       <use xlink:href="#DejaVuSans-30" transform="translate(159.033203 0)"/>
      </g>
     </g>
    </g>
    <g id="text_10">
     <!-- Index -->
     <g transform="translate(222.393594 335.860562) scale(0.1 -0.1)">
      <defs>
       <path id="DejaVuSans-49" d="M 628 4666 
L 1259 4666 
L 1259 0 
L 628 0 
L 628 4666 
z
" transform="scale(0.015625)"/>
       <path id="DejaVuSans-6e" d="M 3513 2113 
L 3513 0 
L 2938 0 
L 2938 2094 
Q 2938 2591 2744 2837 
Q 2550 3084 2163 3084 
Q 1697 3084 1428 2787 
Q 1159 2491 1159 1978 
L 1159 0 
L 581 0 
L 581 3500 
L 1159 3500 
L 1159 2956 
Q 1366 3272 1645 3428 
Q 1925 3584 2291 3584 
Q 2894 3584 3203 3211 
Q 3513 2838 3513 2113 
z
" transform="scale(0.015625)"/>
       <path id="DejaVuSans-64" d="M 2906 2969 
L 2906 4863 
L 3481 4863 
L 3481 0 
L 2906 0 
L 2906 525 
Q 2725 213 2448 61 
Q 2172 -91 1784 -91 
Q 1150 -91 751 415 
Q 353 922 353 1747 
Q 353 2572 751 3078 
Q 1150 3584 1784 3584 
Q 2172 3584 2448 3432 
Q 2725 3281 2906 2969 
z
M 947 1747 
Q 947 1113 1208 752 
Q 1469 391 1925 391 
Q 2381 391 2643 752 
Q 2906 1113 2906 1747 
Q 2906 2381 2643 2742 
Q 2381 3103 1925 3103 
Q 1469 3103 1208 2742 
Q 947 2381 947 1747 
z
" transform="scale(0.015625)"/>
       <path id="DejaVuSans-65" d="M 3597 1894 
L 3597 1613 
L 953 1613 
Q 991 1019 1311 708 
Q 1631 397 2203 397 
Q 2534 397 2845 478 
Q 3156 559 3463 722 
L 3463 178 
Q 3153 47 2828 -22 
Q 2503 -91 2169 -91 
Q 1331 -91 842 396 
Q 353 884 353 1716 
Q 353 2575 817 3079 
Q 1281 3584 2069 3584 
Q 2775 3584 3186 3129 
Q 3597 2675 3597 1894 
z
M 3022 2063 
Q 3016 2534 2758 2815 
Q 2500 3097 2075 3097 
Q 1594 3097 1305 2825 
Q 1016 2553 972 2059 
L 3022 2063 
z
" transform="scale(0.015625)"/>
       <path id="DejaVuSans-78" d="M 3513 3500 
L 2247 1797 
L 3578 0 
L 2900 0 
L 1881 1375 
L 863 0 
L 184 0 
L 1544 1831 
L 300 3500 
L 978 3500 
L 1906 2253 
L 2834 3500 
L 3513 3500 
z
" transform="scale(0.015625)"/>
      </defs>
      <use xlink:href="#DejaVuSans-49"/>
      <use xlink:href="#DejaVuSans-6e" transform="translate(29.492188 0)"/>
      <use xlink:href="#DejaVuSans-64" transform="translate(92.871094 0)"/>
      <use xlink:href="#DejaVuSans-65" transform="translate(156.347656 0)"/>
      <use xlink:href="#DejaVuSans-78" transform="translate(216.121094 0)"/>
     </g>
    </g>
   </g>
   <g id="matplotlib.axis_2">
    <g id="ytick_1">
     <g id="line2d_19">
      <path d="M 57.6 295.50573 
L 414.72 295.50573 
" clip-path="url(#p8891294c19)" style="fill: none; stroke: #b0b0b0; stroke-opacity: 0.5; stroke-width: 0.8; stroke-linecap: square"/>
     </g>
     <g id="line2d_20">
      <defs>
       <path id="m2dcf08bc7a" d="M 0 0 
L -3.5 0 
" style="stroke: #000000; stroke-width: 0.8"/>
      </defs>
      <g>
       <use xlink:href="#m2dcf08bc7a" x="57.6" y="295.50573" style="stroke: #000000; stroke-width: 0.8"/>
      </g>
     </g>
     <g id="text_11">
      <!-- −1.00 -->
      <g transform="translate(19.954687 299.304949) scale(0.1 -0.1)">
       <use xlink:href="#DejaVuSans-2212"/>
       <use xlink:href="#DejaVuSans-31" transform="translate(83.789062 0)"/>
       <use xlink:href="#DejaVuSans-2e" transform="translate(147.412109 0)"/>
       <use xlink:href="#DejaVuSans-30" transform="translate(179.199219 0)"/>
       <use xlink:href="#DejaVuSans-30" transform="translate(242.822266 0)"/>
      </g>
     </g>
    </g>
    <g id="ytick_2">
     <g id="line2d_21">
      <path d="M 57.6 265.263499 
L 414.72 265.263499 
" clip-path="url(#p8891294c19)" style="fill: none; stroke: #b0b0b0; stroke-opacity: 0.5; stroke-width: 0.8; stroke-linecap: square"/>
     </g>
     <g id="line2d_22">
      <g>
       <use xlink:href="#m2dcf08bc7a" x="57.6" y="265.263499" style="stroke: #000000; stroke-width: 0.8"/>
      </g>
     </g>
     <g id="text_12">
      <!-- −0.75 -->
      <g transform="translate(19.954687 269.062717) scale(0.1 -0.1)">
       <use xlink:href="#DejaVuSans-2212"/>
       <use xlink:href="#DejaVuSans-30" transform="translate(83.789062 0)"/>
       <use xlink:href="#DejaVuSans-2e" transform="translate(147.412109 0)"/>
       <use xlink:href="#DejaVuSans-37" transform="translate(179.199219 0)"/>
       <use xlink:href="#DejaVuSans-35" transform="translate(242.822266 0)"/>
      </g>
     </g>
    </g>
    <g id="ytick_3">
     <g id="line2d_23">
      <path d="M 57.6 235.021267 
L 414.72 235.021267 
" clip-path="url(#p8891294c19)" style="fill: none; stroke: #b0b0b0; stroke-opacity: 0.5; stroke-width: 0.8; stroke-linecap: square"/>
     </g>
     <g id="line2d_24">
      <g>
       <use xlink:href="#m2dcf08bc7a" x="57.6" y="235.021267" style="stroke: #000000; stroke-width: 0.8"/>
      </g>
     </g>
     <g id="text_13">
      <!-- −0.50 -->
      <g transform="translate(19.954687 238.820486) scale(0.1 -0.1)">
       <use xlink:href="#DejaVuSans-2212"/>
       <use xlink:href="#DejaVuSans-30" transform="translate(83.789062 0)"/>
       <use xlink:href="#DejaVuSans-2e" transform="translate(147.412109 0)"/>
       <use xlink:href="#DejaVuSans-35" transform="translate(179.199219 0)"/>
       <use xlink:href="#DejaVuSans-30" transform="translate(242.822266 0)"/>
      </g>
     </g>
    </g>
    <g id="ytick_4">
     <g id="line2d_25">
      <path d="M 57.6 204.779035 
L 414.72 204.779035 
" clip-path="url(#p8891294c19)" style="fill: none; stroke: #b0b0b0; stroke-opacity: 0.5; stroke-width: 0.8; stroke-linecap: square"/>
     </g>
     <g id="line2d_26">
      <g>
       <use xlink:href="#m2dcf08bc7a" x="57.6" y="204.779035" style="stroke: #000000; stroke-width: 0.8"/>
      </g>
     </g>
     <g id="text_14">
      <!-- −0.25 -->
      <g transform="translate(19.954687 208.578254) scale(0.1 -0.1)">
       <use xlink:href="#DejaVuSans-2212"/>
       <use xlink:href="#DejaVuSans-30" transform="translate(83.789062 0)"/>
       <use xlink:href="#DejaVuSans-2e" transform="translate(147.412109 0)"/>
       <use xlink:href="#DejaVuSans-32" transform="translate(179.199219 0)"/>
       <use xlink:href="#DejaVuSans-35" transform="translate(242.822266 0)"/>
      </g>
     </g>
    </g>
    <g id="ytick_5">
     <g id="line2d_27">
      <path d="M 57.6 174.536804 
L 414.72 174.536804 
" clip-path="url(#p8891294c19)" style="fill: none; stroke: #b0b0b0; stroke-opacity: 0.5; stroke-width: 0.8; stroke-linecap: square"/>
     </g>
     <g id="line2d_28">
      <g>
       <use xlink:href="#m2dcf08bc7a" x="57.6" y="174.536804" style="stroke: #000000; stroke-width: 0.8"/>
      </g>
     </g>
     <g id="text_15">
      <!-- 0.00 -->
      <g transform="translate(28.334375 178.336023) scale(0.1 -0.1)">
       <use xlink:href="#DejaVuSans-30"/>
       <use xlink:href="#DejaVuSans-2e" transform="translate(63.623047 0)"/>
       <use xlink:href="#DejaVuSans-30" transform="translate(95.410156 0)"/>
       <use xlink:href="#DejaVuSans-30" transform="translate(159.033203 0)"/>
      </g>
     </g>
    </g>
    <g id="ytick_6">
     <g id="line2d_29">
      <path d="M 57.6 144.294572 
L 414.72 144.294572 
" clip-path="url(#p8891294c19)" style="fill: none; stroke: #b0b0b0; stroke-opacity: 0.5; stroke-width: 0.8; stroke-linecap: square"/>
     </g>
     <g id="line2d_30">
      <g>
       <use xlink:href="#m2dcf08bc7a" x="57.6" y="144.294572" style="stroke: #000000; stroke-width: 0.8"/>
      </g>
     </g>
     <g id="text_16">
      <!-- 0.25 -->
      <g transform="translate(28.334375 148.093791) scale(0.1 -0.1)">
       <use xlink:href="#DejaVuSans-30"/>
       <use xlink:href="#DejaVuSans-2e" transform="translate(63.623047 0)"/>
       <use xlink:href="#DejaVuSans-32" transform="translate(95.410156 0)"/>
       <use xlink:href="#DejaVuSans-35" transform="translate(159.033203 0)"/>
      </g>
     </g>
    </g>
    <g id="ytick_7">
     <g id="line2d_31">
      <path d="M 57.6 114.052341 
L 414.72 114.052341 
" clip-path="url(#p8891294c19)" style="fill: none; stroke: #b0b0b0; stroke-opacity: 0.5; stroke-width: 0.8; stroke-linecap: square"/>
     </g>
     <g id="line2d_32">
      <g>
       <use xlink:href="#m2dcf08bc7a" x="57.6" y="114.052341" style="stroke: #000000; stroke-width: 0.8"/>
      </g>
     </g>
     <g id="text_17">
      <!-- 0.50 -->
      <g transform="translate(28.334375 117.851559) scale(0.1 -0.1)">
       <use xlink:href="#DejaVuSans-30"/>
       <use xlink:href="#DejaVuSans-2e" transform="translate(63.623047 0)"/>
       <use xlink:href="#DejaVuSans-35" transform="translate(95.410156 0)"/>
       <use xlink:href="#DejaVuSans-30" transform="translate(159.033203 0)"/>
      </g>
     </g>
    </g>
    <g id="ytick_8">
     <g id="line2d_33">
      <path d="M 57.6 83.810109 
L 414.72 83.810109 
" clip-path="url(#p8891294c19)" style="fill: none; stroke: #b0b0b0; stroke-opacity: 0.5; stroke-width: 0.8; stroke-linecap: square"/>
     </g>
     <g id="line2d_34">
      <g>
       <use xlink:href="#m2dcf08bc7a" x="57.6" y="83.810109" style="stroke: #000000; stroke-width: 0.8"/>
      </g>
     </g>
     <g id="text_18">
      <!-- 0.75 -->
      <g transform="translate(28.334375 87.609328) scale(0.1 -0.1)">
       <use xlink:href="#DejaVuSans-30"/>
       <use xlink:href="#DejaVuSans-2e" transform="translate(63.623047 0)"/>
       <use xlink:href="#DejaVuSans-37" transform="translate(95.410156 0)"/>
       <use xlink:href="#DejaVuSans-35" transform="translate(159.033203 0)"/>
      </g>
     </g>
    </g>
    <g id="ytick_9">
     <g id="line2d_35">
      <path d="M 57.6 53.567877 
L 414.72 53.567877 
" clip-path="url(#p8891294c19)" style="fill: none; stroke: #b0b0b0; stroke-opacity: 0.5; stroke-width: 0.8; stroke-linecap: square"/>
     </g>
     <g id="line2d_36">
      <g>
       <use xlink:href="#m2dcf08bc7a" x="57.6" y="53.567877" style="stroke: #000000; stroke-width: 0.8"/>
      </g>
     </g>
     <g id="text_19">
      <!-- 1.00 -->
      <g transform="translate(28.334375 57.367096) scale(0.1 -0.1)">
       <use xlink:href="#DejaVuSans-31"/>
       <use xlink:href="#DejaVuSans-2e" transform="translate(63.623047 0)"/>
       <use xlink:href="#DejaVuSans-30" transform="translate(95.410156 0)"/>
       <use xlink:href="#DejaVuSans-30" transform="translate(159.033203 0)"/>
      </g>
     </g>
    </g>
    <g id="text_20">
     <!-- Value -->
     <g transform="translate(13.875 188.25925) rotate(-90) scale(0.1 -0.1)">
      <defs>
       <path id="DejaVuSans-56" d="M 1831 0 
L 50 4666 
L 709 4666 
L 2188 738 
L 3669 4666 
L 4325 4666 
L 2547 0 
L 1831 0 
z
" transform="scale(0.015625)"/>
       <path id="DejaVuSans-61" d="M 2194 1759 
Q 1497 1759 1228 1600 
Q 959 1441 959 1056 
Q 959 750 1161 570 
Q 1363 391 1709 391 
Q 2188 391 2477 730 
Q 2766 1069 2766 1631 
L 2766 1759 
L 2194 1759 
z
M 3341 1997 
L 3341 0 
L 2766 0 
L 2766 531 
Q 2569 213 2275 61 
Q 1981 -91 1556 -91 
Q 1019 -91 701 211 
Q 384 513 384 1019 
Q 384 1609 779 1909 
Q 1175 2209 1959 2209 
L 2766 2209 
L 2766 2266 
Q 2766 2663 2505 2880 
Q 2244 3097 1772 3097 
Q 1472 3097 1187 3025 
Q 903 2953 641 2809 
L 641 3341 
Q 956 3463 1253 3523 
Q 1550 3584 1831 3584 
Q 2591 3584 2966 3190 
Q 3341 2797 3341 1997 
z
" transform="scale(0.015625)"/>
       <path id="DejaVuSans-6c" d="M 603 4863 
L 1178 4863 
L 1178 0 
L 603 0 
L 603 4863 
z
" transform="scale(0.015625)"/>
       <path id="DejaVuSans-75" d="M 544 1381 
L 544 3500 
L 1119 3500 
L 1119 1403 
Q 1119 906 1312 657 
Q 1506 409 1894 409 
Q 2359 409 2629 706 
Q 2900 1003 2900 1516 
L 2900 3500 
L 3475 3500 
L 3475 0 
L 2900 0 
L 2900 538 
Q 2691 219 2414 64 
Q 2138 -91 1772 -91 
Q 1169 -91 856 284 
Q 544 659 544 1381 
z
M 1991 3584 
L 1991 3584 
z
" transform="scale(0.015625)"/>
      </defs>
      <use xlink:href="#DejaVuSans-56"/>
      <use xlink:href="#DejaVuSans-61" transform="translate(60.658203 0)"/>
      <use xlink:href="#DejaVuSans-6c" transform="translate(121.9375 0)"/>
      <use xlink:href="#DejaVuSans-75" transform="translate(149.720703 0)"/>
      <use xlink:href="#DejaVuSans-65" transform="translate(213.099609 0)"/>
     </g>
    </g>
   </g>
   <g id="line2d_37">
    <path d="M 222.250641 177.029613 
L 253.213415 176.555445 
L 241.975994 176.081934 
L 244.080465 174.657153 
L 245.709759 173.225757 
L 247.350979 171.80344 
L 250.975384 168.963712 
L 252.667668 167.545937 
L 265.348261 158.616609 
L 267.27439 157.216735 
L 270.821675 154.879464 
L 273.8763 152.538958 
L 276.576362 150.674265 
L 278.785019 148.798341 
L 280.577358 147.400819 
L 283.119723 145.533033 
L 286.496846 142.735732 
L 289.038543 140.87429 
L 293.001539 137.626474 
L 294.899052 136.236964 
L 298.305902 133.463886 
L 301.559072 131.161465 
L 304.364369 128.863402 
L 307.626559 126.570902 
L 310.372754 124.279794 
L 314.203932 121.537457 
L 316.353224 119.710783 
L 319.903366 116.978984 
L 321.849276 115.159873 
L 325.858368 111.986414 
L 327.295166 110.63058 
L 331.297493 107.473322 
L 332.682954 106.123466 
L 334.511051 104.784821 
L 336.250594 103.434741 
L 338.57373 101.192501 
L 341.578774 98.95923 
L 344.436553 96.2806 
L 346.888198 94.497836 
L 349.661449 91.822934 
L 352.149787 90.046804 
L 353.427662 88.702261 
L 354.31919 87.815789 
L 355.552855 86.93518 
L 357.504299 85.602289 
L 358.438196 84.705493 
L 359.72272 83.374549 
L 360.969093 82.497847 
L 362.982244 81.170213 
L 363.918536 80.274584 
L 365.104995 78.946012 
L 366.327287 78.073803 
L 368.412945 76.753465 
L 369.352633 75.860447 
L 370.423835 74.536699 
L 371.618403 73.671195 
L 373.811705 72.36062 
L 374.774261 71.470053 
L 375.617744 70.149514 
L 376.084946 69.718734 
L 377.471905 68.860808 
L 378.96545 67.988959 
L 379.519573 67.545539 
L 379.893842 67.099769 
L 380.541785 65.781472 
L 380.97197 65.353626 
L 382.426103 64.503214 
L 384.072809 63.635395 
L 384.661564 63.191601 
L 384.99685 62.744612 
L 385.303879 61.429603 
L 385.701254 61.007244 
L 386.415064 60.588996 
L 389.351446 59.30241 
L 389.965951 58.854102 
L 390.171832 58.401482 
L 390.018747 57.952546 
L 389.728911 57.514873 
L 389.658932 57.092111 
L 390.104362 56.681816 
L 391.162007 56.275421 
L 394.110152 55.429637 
L 394.93942 54.980673 
L 394.400828 54.5293 
L 391.608134 54.108881 
L 382.946435 53.569911 
L 385.402698 53.805284 
L 386.549765 54.295564 
L 385.376691 55.017128 
L 381.750741 55.91231 
L 379.943175 56.89519 
L 381.60546 57.866441 
L 387.22548 58.732276 
L 394.578909 59.422959 
L 398.487273 59.907124 
L 397.727115 60.197628 
L 386.439373 60.439346 
L 380.130901 60.562325 
L 376.496326 60.796033 
L 376.055609 61.191078 
L 375.805222 61.759496 
L 374.023635 62.473879 
L 372.453281 63.275904 
L 373.10858 64.091375 
L 376.316233 64.848544 
L 380.570349 65.494444 
L 382.87597 66.005943 
L 381.947749 66.393065 
L 378.223304 66.69416 
L 369.458321 67.262989 
L 367.585452 67.636173 
L 366.180499 68.685316 
L 365.345221 69.338693 
L 365.132891 70.031394 
L 365.9999 70.71907 
L 369.071879 71.937137 
L 369.281615 72.435175 
L 367.997653 72.867685 
L 361.194055 74.041624 
L 359.901841 74.485369 
L 359.056364 74.98239 
L 358.427902 75.530654 
L 358.016922 76.117199 
L 357.938901 76.722093 
L 358.198236 77.323476 
L 358.605429 77.902327 
L 358.826536 78.446273 
L 358.575224 78.951492 
L 357.770799 79.4227 
L 352.781006 81.231219 
L 351.928288 81.728529 
L 351.27422 82.254045 
L 350.806103 82.80218 
L 350.533887 83.362716 
L 350.332557 85.001562 
L 350.006563 85.507481 
L 349.369476 85.992223 
L 347.401623 86.92828 
L 345.420146 87.883855 
L 344.026394 88.905779 
L 343.259462 89.975984 
L 342.816789 91.036065 
L 342.480635 91.547565 
L 341.954274 92.045206 
L 340.399804 93.01425 
L 337.855217 94.486573 
L 336.522361 95.511916 
L 333.795428 98.071316 
L 327.94705 102.068762 
L 325.446329 104.089906 
L 309.222462 116.041359 
L 307.216128 117.508148 
L 303.560011 119.963818 
L 299.131602 123.401845 
L 295.529212 125.843606 
L 291.002918 129.273799 
L 286.156174 132.695675 
L 282.977233 135.151935 
L 279.849624 137.58712 
L 277.3033 139.55008 
L 273.162203 142.963517 
L 270.52122 144.908626 
L 265.121596 149.268509 
L 262.636503 151.205748 
L 259.696352 153.617768 
L 254.745193 157.463264 
L 233.996235 173.696677 
L 208.761025 192.473093 
L 205.553597 194.807873 
L 202.468533 197.134672 
L 198.625871 199.931461 
L 195.498336 202.257035 
L 191.745938 205.049393 
L 183.655483 211.070359 
L 179.279875 214.297856 
L 172.389965 219.800631 
L 155.364512 233.452956 
L 153.075473 235.254412 
L 150.807642 237.062354 
L 148.109111 239.3082 
L 145.241047 241.555747 
L 142.589407 243.791455 
L 139.710754 246.02823 
L 137.104469 248.254882 
L 134.193264 250.483921 
L 131.652665 252.706044 
L 128.205091 255.374176 
L 126.22474 257.147466 
L 122.791601 259.81055 
L 120.856318 261.581316 
L 116.953583 264.682932 
L 115.53785 266.004567 
L 111.604471 269.097711 
L 110.271262 270.415957 
L 108.46361 271.723208 
L 106.750161 273.049458 
L 104.519794 275.236641 
L 101.466705 277.424566 
L 99.392687 279.602764 
L 96.210307 281.778346 
L 95.498757 282.660621 
L 94.839394 283.52319 
L 93.680421 284.371195 
L 91.470042 285.670118 
L 90.931335 286.113984 
L 90.352311 286.998617 
L 89.891054 287.855606 
L 89.398046 288.273998 
L 87.792736 289.114108 
L 86.112153 289.988192 
L 85.572521 290.437185 
L 85.336864 290.886193 
L 85.445138 291.755251 
L 85.289658 292.169282 
L 84.677711 292.575309 
L 81.257556 293.846515 
L 80.763384 294.298147 
L 81.719634 294.736203 
L 85.59621 295.11832 
L 93.743101 295.388772 
L 103.602355 295.488 
L 102.711513 295.365418 
L 97.093287 294.992781 
L 93.922488 294.374259 
L 95.040333 293.550748 
L 98.050271 292.596024 
L 96.338043 291.60519 
L 88.400142 290.677296 
L 79.17684 289.895936 
L 73.832727 289.312276 
L 74.99295 288.934773 
L 92.893312 288.621348 
L 104.421901 288.352245 
L 104.557689 288.035453 
L 103.548967 287.54381 
L 103.501799 286.886893 
L 104.883359 286.110905 
L 104.059262 285.285981 
L 99.0109 284.488579 
L 92.501212 283.783338 
L 88.481589 283.208734 
L 88.666252 282.769821 
L 93.13413 282.439466 
L 104.785532 281.892168 
L 108.292485 281.559722 
L 109.99026 281.132403 
L 110.756399 280.598097 
L 111.347587 279.970526 
L 111.241823 279.283795 
L 109.459071 278.582542 
L 103.37143 277.30114 
L 102.098726 276.76956 
L 102.992553 276.312289 
L 105.649355 275.909305 
L 112.22656 275.143382 
L 114.635751 274.72088 
L 116.218421 274.246506 
L 117.154274 273.716938 
L 117.536766 273.141224 
L 117.288431 272.537483 
L 116.415086 271.928046 
L 114.269248 270.771959 
L 113.993074 270.248974 
L 114.585626 269.764066 
L 115.943506 269.308187 
L 121.382259 267.965158 
L 122.752399 267.480042 
L 123.722626 266.965096 
L 124.286843 266.423356 
L 124.436598 265.863548 
L 124.220986 265.297877 
L 123.423803 264.198053 
L 123.384897 263.68054 
L 123.85207 263.186994 
L 124.830329 262.712253 
L 130.209026 260.807073 
L 131.044886 260.291911 
L 131.535251 259.760424 
L 131.70404 259.219687 
L 131.598218 257.626317 
L 131.970044 257.122633 
L 132.698661 256.632318 
L 136.005409 255.181971 
L 137.955747 254.178231 
L 138.600408 253.661598 
L 139.395178 252.617394 
L 140.1818 251.587697 
L 140.791659 251.08379 
L 142.477585 250.091831 
L 145.221013 248.601633 
L 146.655941 247.589443 
L 150.449849 244.54817 
L 158.356142 239.031151 
L 160.29266 237.5368 
L 162.725287 236.057086 
L 165.037042 234.558571 
L 166.719447 233.051832 
L 167.925722 232.064131 
L 169.512647 231.08933 
L 172.105461 229.617706 
L 173.459526 228.619583 
L 175.65692 226.634974 
L 177.169211 225.663867 
L 180.471447 223.712202 
L 182.333479 222.224917 
L 184.229174 220.748963 
L 192.195127 215.355724 
L 194.108181 213.876081 
L 196.574914 211.918248 
L 200.679757 208.968582 
L 202.792257 207.001426 
L 204.177663 206.034174 
L 207.143566 204.086811 
L 208.73872 202.608941 
L 209.796505 201.634185 
L 211.131728 200.670428 
L 214.014838 198.73805 
L 216.251988 196.790704 
L 218.163453 195.344567 
L 220.833219 193.415556 
L 224.525897 190.520685 
L 227.052532 188.590798 
L 229.441578 186.669414 
L 233.348392 183.785804 
L 235.607742 181.86773 
L 240.154895 178.522167 
L 241.804906 177.088924 
L 241.804906 177.088924 
" clip-path="url(#p8891294c19)" style="fill: none; stroke: #1f77b4; stroke-width: 1.5; stroke-linecap: square"/>
   </g>
   <g id="line2d_38">
    <path d="M 237.566574 177.029613 
L 241.286561 174.180022 
L 244.416424 171.80344 
L 247.449457 169.438286 
L 249.904695 167.545937 
L 253.051926 165.193857 
L 256.019253 162.836665 
L 259.798439 160.028928 
L 262.818139 157.68201 
L 265.982054 155.349542 
L 269.633305 152.538958 
L 272.70204 150.205193 
L 275.798123 147.865947 
L 278.854487 145.533033 
L 281.898127 143.199312 
L 284.93368 140.87429 
L 287.314927 139.010983 
L 290.981591 136.236964 
L 293.310876 134.382541 
L 297.583606 131.161465 
L 299.974121 129.32011 
L 303.05338 127.031767 
L 305.986022 124.734855 
L 309.053197 122.456328 
L 311.979533 120.164902 
L 315.047801 117.893907 
L 317.921345 115.611981 
L 320.988831 113.352292 
L 323.794147 111.080561 
L 327.414707 108.3803 
L 329.649213 106.571255 
L 333.306656 103.886308 
L 335.521471 102.083515 
L 339.704674 98.95923 
L 341.968727 97.165961 
L 345.027874 94.946714 
L 347.78422 92.706298 
L 350.897261 90.49421 
L 354.256214 87.815789 
L 356.705198 86.049134 
L 359.39665 83.815185 
L 363.061362 81.170213 
L 365.119496 79.385344 
L 368.793014 76.753465 
L 370.821907 74.973809 
L 375.004995 71.916061 
L 376.486051 70.584887 
L 378.506491 69.290239 
L 379.788316 68.427569 
L 380.747209 67.545539 
L 382.12936 66.215165 
L 383.46608 65.353626 
L 385.558559 64.072765 
L 386.463663 63.191601 
L 387.199626 62.299231 
L 388.33906 61.429603 
L 391.432982 59.741013 
L 391.894364 59.30241 
L 392.349039 58.401482 
L 392.58274 57.952546 
L 393.021348 57.514873 
L 393.758867 57.092111 
L 396.926812 55.861174 
L 397.449453 55.429637 
L 397.189716 54.980673 
L 395.972365 54.5293 
L 393.826059 54.108881 
L 391.012138 53.769312 
L 387.991572 53.569911 
L 385.333158 53.568 
L 383.581833 53.805284 
L 383.120537 54.295564 
L 384.062085 55.017128 
L 386.202199 55.91231 
L 394.14425 58.732276 
L 395.119294 59.422959 
L 394.558845 59.907124 
L 392.504919 60.197628 
L 385.629215 60.439346 
L 382.105213 60.562325 
L 379.371173 60.796033 
L 377.826225 61.191078 
L 377.570056 61.759496 
L 378.396834 62.473879 
L 382.516002 64.848544 
L 382.792434 65.494444 
L 382.09532 66.005943 
L 380.522418 66.393065 
L 372.385449 67.636173 
L 371.496449 68.110157 
L 371.243572 68.685316 
L 371.439464 69.338693 
L 372.076293 70.71907 
L 372.014815 71.362735 
L 371.513583 71.937137 
L 370.58107 72.435175 
L 367.934572 73.259046 
L 365.434738 74.041624 
L 364.573463 74.485369 
L 364.011487 74.98239 
L 363.688851 75.530654 
L 363.016055 77.323476 
L 362.53315 77.902327 
L 361.831685 78.446273 
L 359.889114 79.4227 
L 356.786005 80.761547 
L 356.005278 81.231219 
L 355.404111 81.728529 
L 354.611478 82.80218 
L 353.90696 83.923325 
L 353.40529 84.47239 
L 352.746422 85.001562 
L 350.996404 85.992223 
L 348.161293 87.399329 
L 346.828256 88.386118 
L 345.958013 89.438196 
L 345.086023 90.510895 
L 343.78362 91.547565 
L 341.130415 93.01425 
L 339.481668 93.987288 
L 338.246028 94.995571 
L 336.238907 97.063971 
L 334.892618 98.071316 
L 330.26762 101.052664 
L 328.545746 102.577313 
L 326.809027 104.089906 
L 324.636142 105.582346 
L 321.706524 107.576192 
L 320.024414 109.084545 
L 318.28302 110.58323 
L 316.060053 112.062353 
L 313.890392 113.546271 
L 312.213086 115.046906 
L 310.50173 116.533246 
L 308.344148 117.994286 
L 306.197784 119.46689 
L 303.824528 121.454852 
L 301.962634 122.918718 
L 295.980257 127.324481 
L 291.553617 130.732924 
L 287.467759 133.679997 
L 283.7789 136.613891 
L 279.721239 139.55008 
L 276.729125 141.997728 
L 272.129614 145.399084 
L 269.103507 147.82883 
L 263.955556 151.691009 
L 257.601078 156.500589 
L 246.253823 165.1349 
L 242.457416 167.994688 
L 238.13644 171.330326 
L 210.390074 192.473093 
L 201.813172 198.997142 
L 197.502939 202.257035 
L 188.487707 209.224148 
L 174.056314 220.256459 
L 171.041315 222.540502 
L 167.448937 225.275066 
L 163.915433 228.00998 
L 137.419235 248.254882 
L 135.131493 250.035951 
L 132.88548 251.822017 
L 129.291767 254.480112 
L 126.456103 256.706584 
L 123.471695 258.91764 
L 120.651734 261.141415 
L 117.664331 263.346457 
L 115.502751 265.125861 
L 111.383497 268.207425 
L 109.825603 269.540135 
L 105.166545 273.049458 
L 103.537976 274.370819 
L 100.449569 276.540402 
L 97.963301 278.743072 
L 94.764474 280.896251 
L 92.353957 283.094797 
L 89.011823 285.230786 
L 88.19388 286.113984 
L 87.392336 286.998617 
L 86.114242 287.855606 
L 83.747401 289.114108 
L 83.189261 289.546027 
L 82.827662 289.988192 
L 82.082664 291.327413 
L 81.49722 291.755251 
L 79.518366 292.575309 
L 78.426528 292.983895 
L 77.648397 293.405944 
L 77.510854 293.846515 
L 78.261222 294.298147 
L 79.977449 294.736203 
L 82.513221 295.11832 
L 85.498678 295.388772 
L 88.403882 295.488 
L 90.653863 295.365418 
L 91.76834 294.992781 
L 91.490334 294.374259 
L 89.867537 293.550748 
L 84.280164 291.60519 
L 81.639848 290.677296 
L 80.00253 289.895936 
L 79.816665 289.312276 
L 81.209969 288.934773 
L 83.959636 288.72801 
L 94.499051 288.352245 
L 96.646235 288.035453 
L 97.480597 287.54381 
L 97.072288 286.886893 
L 95.777136 286.110905 
L 92.717302 284.488579 
L 92.005514 283.783338 
L 92.263352 283.208734 
L 93.50048 282.769821 
L 95.490619 282.439466 
L 100.141691 281.892168 
L 101.997426 281.559722 
L 103.191823 281.132403 
L 103.686777 280.598097 
L 103.618907 279.970526 
L 102.866945 278.582542 
L 102.747223 277.910663 
L 103.05365 277.30114 
L 103.828013 276.76956 
L 104.992625 276.312289 
L 109.080252 275.143382 
L 110.081714 274.72088 
L 110.767952 274.246506 
L 111.173342 273.716938 
L 112.148071 271.334219 
L 112.741988 270.771959 
L 113.553625 270.248974 
L 115.629647 269.308187 
L 117.750385 268.424109 
L 119.323048 267.480042 
L 119.841862 266.965096 
L 120.539454 265.863548 
L 121.297732 264.739179 
L 121.875716 264.198053 
L 123.527182 263.186994 
L 127.30116 261.302688 
L 128.462958 260.291911 
L 130.194162 258.145574 
L 131.678786 257.122633 
L 135.242333 255.181971 
L 136.522402 254.178231 
L 139.093731 251.587697 
L 140.565094 250.586055 
L 143.754429 248.601633 
L 145.671766 247.079703 
L 147.956379 245.050051 
L 150.08847 243.549355 
L 153.10376 241.551767 
L 154.287548 240.544797 
L 156.446285 238.530027 
L 157.87174 237.5368 
L 160.966272 235.560591 
L 162.157983 234.558571 
L 164.311812 232.555777 
L 166.468994 231.08933 
L 168.649802 229.617706 
L 171.009655 227.620403 
L 172.884509 226.148285 
L 178.90449 221.730615 
L 185.444631 216.834097 
L 187.494731 215.355724 
L 191.803261 211.918248 
L 194.633468 209.959495 
L 199.578598 206.034174 
L 201.62889 204.577743 
L 207.234793 200.189711 
L 210.340173 197.76291 
L 213.584231 195.344567 
L 221.837189 189.073557 
L 224.992458 186.669414 
L 228.174547 184.268528 
L 231.289153 181.86773 
L 234.464881 179.483026 
L 237.486318 177.088924 
L 237.486318 177.088924 
" clip-path="url(#p8891294c19)" style="fill: none; stroke: #ff7f0e; stroke-opacity: 0.5; stroke-width: 1.5; stroke-linecap: square"/>
   </g>
   <g id="patch_3">
    <path d="M 57.6 307.584 
L 57.6 41.472 
" style="fill: none; stroke: #000000; stroke-width: 0.8; stroke-linejoin: miter; stroke-linecap: square"/>
   </g>
   <g id="patch_4">
    <path d="M 414.72 307.584 
L 414.72 41.472 
" style="fill: none; stroke: #000000; stroke-width: 0.8; stroke-linejoin: miter; stroke-linecap: square"/>
   </g>
   <g id="patch_5">
    <path d="M 57.6 307.584 
L 414.72 307.584 
" style="fill: none; stroke: #000000; stroke-width: 0.8; stroke-linejoin: miter; stroke-linecap: square"/>
   </g>
   <g id="patch_6">
    <path d="M 57.6 41.472 
L 414.72 41.472 
" style="fill: none; stroke: #000000; stroke-width: 0.8; stroke-linejoin: miter; stroke-linecap: square"/>
   </g>
   <g id="text_21">
    <!-- Compare - Epoch 900 -->
    <g transform="translate(171.234375 35.472) scale(0.12 -0.12)">
     <defs>
      <path id="DejaVuSans-43" d="M 4122 4306 
L 4122 3641 
Q 3803 3938 3442 4084 
Q 3081 4231 2675 4231 
Q 1875 4231 1450 3742 
Q 1025 3253 1025 2328 
Q 1025 1406 1450 917 
Q 1875 428 2675 428 
Q 3081 428 3442 575 
Q 3803 722 4122 1019 
L 4122 359 
Q 3791 134 3420 21 
Q 3050 -91 2638 -91 
Q 1578 -91 968 557 
Q 359 1206 359 2328 
Q 359 3453 968 4101 
Q 1578 4750 2638 4750 
Q 3056 4750 3426 4639 
Q 3797 4528 4122 4306 
z
" transform="scale(0.015625)"/>
      <path id="DejaVuSans-6f" d="M 1959 3097 
Q 1497 3097 1228 2736 
Q 959 2375 959 1747 
Q 959 1119 1226 758 
Q 1494 397 1959 397 
Q 2419 397 2687 759 
Q 2956 1122 2956 1747 
Q 2956 2369 2687 2733 
Q 2419 3097 1959 3097 
z
M 1959 3584 
Q 2709 3584 3137 3096 
Q 3566 2609 3566 1747 
Q 3566 888 3137 398 
Q 2709 -91 1959 -91 
Q 1206 -91 779 398 
Q 353 888 353 1747 
Q 353 2609 779 3096 
Q 1206 3584 1959 3584 
z
" transform="scale(0.015625)"/>
      <path id="DejaVuSans-6d" d="M 3328 2828 
Q 3544 3216 3844 3400 
Q 4144 3584 4550 3584 
Q 5097 3584 5394 3201 
Q 5691 2819 5691 2113 
L 5691 0 
L 5113 0 
L 5113 2094 
Q 5113 2597 4934 2840 
Q 4756 3084 4391 3084 
Q 3944 3084 3684 2787 
Q 3425 2491 3425 1978 
L 3425 0 
L 2847 0 
L 2847 2094 
Q 2847 2600 2669 2842 
Q 2491 3084 2119 3084 
Q 1678 3084 1418 2786 
Q 1159 2488 1159 1978 
L 1159 0 
L 581 0 
L 581 3500 
L 1159 3500 
L 1159 2956 
Q 1356 3278 1631 3431 
Q 1906 3584 2284 3584 
Q 2666 3584 2933 3390 
Q 3200 3197 3328 2828 
z
" transform="scale(0.015625)"/>
      <path id="DejaVuSans-70" d="M 1159 525 
L 1159 -1331 
L 581 -1331 
L 581 3500 
L 1159 3500 
L 1159 2969 
Q 1341 3281 1617 3432 
Q 1894 3584 2278 3584 
Q 2916 3584 3314 3078 
Q 3713 2572 3713 1747 
Q 3713 922 3314 415 
Q 2916 -91 2278 -91 
Q 1894 -91 1617 61 
Q 1341 213 1159 525 
z
M 3116 1747 
Q 3116 2381 2855 2742 
Q 2594 3103 2138 3103 
Q 1681 3103 1420 2742 
Q 1159 2381 1159 1747 
Q 1159 1113 1420 752 
Q 1681 391 2138 391 
Q 2594 391 2855 752 
Q 3116 1113 3116 1747 
z
" transform="scale(0.015625)"/>
      <path id="DejaVuSans-72" d="M 2631 2963 
Q 2534 3019 2420 3045 
Q 2306 3072 2169 3072 
Q 1681 3072 1420 2755 
Q 1159 2438 1159 1844 
L 1159 0 
L 581 0 
L 581 3500 
L 1159 3500 
L 1159 2956 
Q 1341 3275 1631 3429 
Q 1922 3584 2338 3584 
Q 2397 3584 2469 3576 
Q 2541 3569 2628 3553 
L 2631 2963 
z
" transform="scale(0.015625)"/>
      <path id="DejaVuSans-20" transform="scale(0.015625)"/>
      <path id="DejaVuSans-2d" d="M 313 2009 
L 1997 2009 
L 1997 1497 
L 313 1497 
L 313 2009 
z
" transform="scale(0.015625)"/>
      <path id="DejaVuSans-45" d="M 628 4666 
L 3578 4666 
L 3578 4134 
L 1259 4134 
L 1259 2753 
L 3481 2753 
L 3481 2222 
L 1259 2222 
L 1259 531 
L 3634 531 
L 3634 0 
L 628 0 
L 628 4666 
z
" transform="scale(0.015625)"/>
      <path id="DejaVuSans-63" d="M 3122 3366 
L 3122 2828 
Q 2878 2963 2633 3030 
Q 2388 3097 2138 3097 
Q 1578 3097 1268 2742 
Q 959 2388 959 1747 
Q 959 1106 1268 751 
Q 1578 397 2138 397 
Q 2388 397 2633 464 
Q 2878 531 3122 666 
L 3122 134 
Q 2881 22 2623 -34 
Q 2366 -91 2075 -91 
Q 1284 -91 818 406 
Q 353 903 353 1747 
Q 353 2603 823 3093 
Q 1294 3584 2113 3584 
Q 2378 3584 2631 3529 
Q 2884 3475 3122 3366 
z
" transform="scale(0.015625)"/>
      <path id="DejaVuSans-68" d="M 3513 2113 
L 3513 0 
L 2938 0 
L 2938 2094 
Q 2938 2591 2744 2837 
Q 2550 3084 2163 3084 
Q 1697 3084 1428 2787 
Q 1159 2491 1159 1978 
L 1159 0 
L 581 0 
L 581 4863 
L 1159 4863 
L 1159 2956 
Q 1366 3272 1645 3428 
Q 1925 3584 2291 3584 
Q 2894 3584 3203 3211 
Q 3513 2838 3513 2113 
z
" transform="scale(0.015625)"/>
      <path id="DejaVuSans-39" d="M 703 97 
L 703 672 
Q 941 559 1184 500 
Q 1428 441 1663 441 
Q 2288 441 2617 861 
Q 2947 1281 2994 2138 
Q 2813 1869 2534 1725 
Q 2256 1581 1919 1581 
Q 1219 1581 811 2004 
Q 403 2428 403 3163 
Q 403 3881 828 4315 
Q 1253 4750 1959 4750 
Q 2769 4750 3195 4129 
Q 3622 3509 3622 2328 
Q 3622 1225 3098 567 
Q 2575 -91 1691 -91 
Q 1453 -91 1209 -44 
Q 966 3 703 97 
z
M 1959 2075 
Q 2384 2075 2632 2365 
Q 2881 2656 2881 3163 
Q 2881 3666 2632 3958 
Q 2384 4250 1959 4250 
Q 1534 4250 1286 3958 
Q 1038 3666 1038 3163 
Q 1038 2656 1286 2365 
Q 1534 2075 1959 2075 
z
" transform="scale(0.015625)"/>
     </defs>
     <use xlink:href="#DejaVuSans-43"/>
     <use xlink:href="#DejaVuSans-6f" transform="translate(69.824219 0)"/>
     <use xlink:href="#DejaVuSans-6d" transform="translate(131.005859 0)"/>
     <use xlink:href="#DejaVuSans-70" transform="translate(228.417969 0)"/>
     <use xlink:href="#DejaVuSans-61" transform="translate(291.894531 0)"/>
     <use xlink:href="#DejaVuSans-72" transform="translate(353.173828 0)"/>
     <use xlink:href="#DejaVuSans-65" transform="translate(392.037109 0)"/>
     <use xlink:href="#DejaVuSans-20" transform="translate(453.560547 0)"/>
     <use xlink:href="#DejaVuSans-2d" transform="translate(485.347656 0)"/>
     <use xlink:href="#DejaVuSans-20" transform="translate(521.431641 0)"/>
     <use xlink:href="#DejaVuSans-45" transform="translate(553.21875 0)"/>
     <use xlink:href="#DejaVuSans-70" transform="translate(616.402344 0)"/>
     <use xlink:href="#DejaVuSans-6f" transform="translate(679.878906 0)"/>
     <use xlink:href="#DejaVuSans-63" transform="translate(741.060547 0)"/>
     <use xlink:href="#DejaVuSans-68" transform="translate(796.041016 0)"/>
     <use xlink:href="#DejaVuSans-20" transform="translate(859.419922 0)"/>
     <use xlink:href="#DejaVuSans-39" transform="translate(891.207031 0)"/>
     <use xlink:href="#DejaVuSans-30" transform="translate(954.830078 0)"/>
     <use xlink:href="#DejaVuSans-30" transform="translate(1018.453125 0)"/>
    </g>
   </g>
   <g id="legend_1">
    <g id="patch_7">
     <path d="M 64.6 78.82825 
L 181.128125 78.82825 
Q 183.128125 78.82825 183.128125 76.82825 
L 183.128125 48.472 
Q 183.128125 46.472 181.128125 46.472 
L 64.6 46.472 
Q 62.6 46.472 62.6 48.472 
L 62.6 76.82825 
Q 62.6 78.82825 64.6 78.82825 
z
" style="fill: #ffffff; opacity: 0.8; stroke: #cccccc; stroke-linejoin: miter"/>
    </g>
    <g id="line2d_39">
     <path d="M 66.6 54.570437 
L 76.6 54.570437 
L 86.6 54.570437 
" style="fill: none; stroke: #1f77b4; stroke-width: 1.5; stroke-linecap: square"/>
    </g>
    <g id="text_22">
     <!-- Pred: Sample 1 -->
     <g transform="translate(94.6 58.070437) scale(0.1 -0.1)">
      <defs>
       <path id="DejaVuSans-50" d="M 1259 4147 
L 1259 2394 
L 2053 2394 
Q 2494 2394 2734 2622 
Q 2975 2850 2975 3272 
Q 2975 3691 2734 3919 
Q 2494 4147 2053 4147 
L 1259 4147 
z
M 628 4666 
L 2053 4666 
Q 2838 4666 3239 4311 
Q 3641 3956 3641 3272 
Q 3641 2581 3239 2228 
Q 2838 1875 2053 1875 
L 1259 1875 
L 1259 0 
L 628 0 
L 628 4666 
z
" transform="scale(0.015625)"/>
       <path id="DejaVuSans-3a" d="M 750 794 
L 1409 794 
L 1409 0 
L 750 0 
L 750 794 
z
M 750 3309 
L 1409 3309 
L 1409 2516 
L 750 2516 
L 750 3309 
z
" transform="scale(0.015625)"/>
       <path id="DejaVuSans-53" d="M 3425 4513 
L 3425 3897 
Q 3066 4069 2747 4153 
Q 2428 4238 2131 4238 
Q 1616 4238 1336 4038 
Q 1056 3838 1056 3469 
Q 1056 3159 1242 3001 
Q 1428 2844 1947 2747 
L 2328 2669 
Q 3034 2534 3370 2195 
Q 3706 1856 3706 1288 
Q 3706 609 3251 259 
Q 2797 -91 1919 -91 
Q 1588 -91 1214 -16 
Q 841 59 441 206 
L 441 856 
Q 825 641 1194 531 
Q 1563 422 1919 422 
Q 2459 422 2753 634 
Q 3047 847 3047 1241 
Q 3047 1584 2836 1778 
Q 2625 1972 2144 2069 
L 1759 2144 
Q 1053 2284 737 2584 
Q 422 2884 422 3419 
Q 422 4038 858 4394 
Q 1294 4750 2059 4750 
Q 2388 4750 2728 4690 
Q 3069 4631 3425 4513 
z
" transform="scale(0.015625)"/>
      </defs>
      <use xlink:href="#DejaVuSans-50"/>
      <use xlink:href="#DejaVuSans-72" transform="translate(58.552734 0)"/>
      <use xlink:href="#DejaVuSans-65" transform="translate(97.416016 0)"/>
      <use xlink:href="#DejaVuSans-64" transform="translate(158.939453 0)"/>
      <use xlink:href="#DejaVuSans-3a" transform="translate(222.416016 0)"/>
      <use xlink:href="#DejaVuSans-20" transform="translate(256.107422 0)"/>
      <use xlink:href="#DejaVuSans-53" transform="translate(287.894531 0)"/>
      <use xlink:href="#DejaVuSans-61" transform="translate(351.371094 0)"/>
      <use xlink:href="#DejaVuSans-6d" transform="translate(412.650391 0)"/>
      <use xlink:href="#DejaVuSans-70" transform="translate(510.0625 0)"/>
      <use xlink:href="#DejaVuSans-6c" transform="translate(573.539062 0)"/>
      <use xlink:href="#DejaVuSans-65" transform="translate(601.322266 0)"/>
      <use xlink:href="#DejaVuSans-20" transform="translate(662.845703 0)"/>
      <use xlink:href="#DejaVuSans-31" transform="translate(694.632812 0)"/>
     </g>
    </g>
    <g id="line2d_40">
     <path d="M 66.6 69.248562 
L 76.6 69.248562 
L 86.6 69.248562 
" style="fill: none; stroke: #ff7f0e; stroke-opacity: 0.5; stroke-width: 1.5; stroke-linecap: square"/>
    </g>
    <g id="text_23">
     <!-- Target: Sample 1 -->
     <g transform="translate(94.6 72.748562) scale(0.1 -0.1)">
      <defs>
       <path id="DejaVuSans-54" d="M -19 4666 
L 3928 4666 
L 3928 4134 
L 2272 4134 
L 2272 0 
L 1638 0 
L 1638 4134 
L -19 4134 
L -19 4666 
z
" transform="scale(0.015625)"/>
       <path id="DejaVuSans-67" d="M 2906 1791 
Q 2906 2416 2648 2759 
Q 2391 3103 1925 3103 
Q 1463 3103 1205 2759 
Q 947 2416 947 1791 
Q 947 1169 1205 825 
Q 1463 481 1925 481 
Q 2391 481 2648 825 
Q 2906 1169 2906 1791 
z
M 3481 434 
Q 3481 -459 3084 -895 
Q 2688 -1331 1869 -1331 
Q 1566 -1331 1297 -1286 
Q 1028 -1241 775 -1147 
L 775 -588 
Q 1028 -725 1275 -790 
Q 1522 -856 1778 -856 
Q 2344 -856 2625 -561 
Q 2906 -266 2906 331 
L 2906 616 
Q 2728 306 2450 153 
Q 2172 0 1784 0 
Q 1141 0 747 490 
Q 353 981 353 1791 
Q 353 2603 747 3093 
Q 1141 3584 1784 3584 
Q 2172 3584 2450 3431 
Q 2728 3278 2906 2969 
L 2906 3500 
L 3481 3500 
L 3481 434 
z
" transform="scale(0.015625)"/>
       <path id="DejaVuSans-74" d="M 1172 4494 
L 1172 3500 
L 2356 3500 
L 2356 3053 
L 1172 3053 
L 1172 1153 
Q 1172 725 1289 603 
Q 1406 481 1766 481 
L 2356 481 
L 2356 0 
L 1766 0 
Q 1100 0 847 248 
Q 594 497 594 1153 
L 594 3053 
L 172 3053 
L 172 3500 
L 594 3500 
L 594 4494 
L 1172 4494 
z
" transform="scale(0.015625)"/>
      </defs>
      <use xlink:href="#DejaVuSans-54"/>
      <use xlink:href="#DejaVuSans-61" transform="translate(44.583984 0)"/>
      <use xlink:href="#DejaVuSans-72" transform="translate(105.863281 0)"/>
      <use xlink:href="#DejaVuSans-67" transform="translate(145.226562 0)"/>
      <use xlink:href="#DejaVuSans-65" transform="translate(208.703125 0)"/>
      <use xlink:href="#DejaVuSans-74" transform="translate(270.226562 0)"/>
      <use xlink:href="#DejaVuSans-3a" transform="translate(309.435547 0)"/>
      <use xlink:href="#DejaVuSans-20" transform="translate(343.126953 0)"/>
      <use xlink:href="#DejaVuSans-53" transform="translate(374.914062 0)"/>
      <use xlink:href="#DejaVuSans-61" transform="translate(438.390625 0)"/>
      <use xlink:href="#DejaVuSans-6d" transform="translate(499.669922 0)"/>
      <use xlink:href="#DejaVuSans-70" transform="translate(597.082031 0)"/>
      <use xlink:href="#DejaVuSans-6c" transform="translate(660.558594 0)"/>
      <use xlink:href="#DejaVuSans-65" transform="translate(688.341797 0)"/>
      <use xlink:href="#DejaVuSans-20" transform="translate(749.865234 0)"/>
      <use xlink:href="#DejaVuSans-31" transform="translate(781.652344 0)"/>
     </g>
    </g>
   </g>
  </g>
 </g>
 <defs>
  <clipPath id="p8891294c19">
   <rect x="57.6" y="41.472" width="357.12" height="266.112"/>
  </clipPath>
 </defs>
</svg>
