<?xml version="1.0" encoding="utf-8" standalone="no"?>
<!DOCTYPE svg PUBLIC "-//W3C//DTD SVG 1.1//EN"
  "http://www.w3.org/Graphics/SVG/1.1/DTD/svg11.dtd">
<svg xmlns:xlink="http://www.w3.org/1999/xlink" width="460.8pt" height="345.6pt" viewBox="0 0 460.8 345.6" xmlns="http://www.w3.org/2000/svg" version="1.1">
 <metadata>
  <rdf:RDF xmlns:dc="http://purl.org/dc/elements/1.1/" xmlns:cc="http://creativecommons.org/ns#" xmlns:rdf="http://www.w3.org/1999/02/22-rdf-syntax-ns#">
   <cc:Work>
    <dc:type rdf:resource="http://purl.org/dc/dcmitype/StillImage"/>
    <dc:date>2025-05-30T20:30:37.791727</dc:date>
    <dc:format>image/svg+xml</dc:format>
    <dc:creator>
     <cc:Agent>
      <dc:title>Matplotlib v3.10.3, https://matplotlib.org/</dc:title>
     </cc:Agent>
    </dc:creator>
   </cc:Work>
  </rdf:RDF>
 </metadata>
 <defs>
  <style type="text/css">*{stroke-linejoin: round; stroke-linecap: butt}</style>
 </defs>
 <g id="figure_1">
  <g id="patch_1">
   <path d="M 0 345.6 
L 460.8 345.6 
L 460.8 0 
L 0 0 
z
" style="fill: #ffffff"/>
  </g>
  <g id="axes_1">
   <g id="patch_2">
    <path d="M 57.6 307.584 
L 414.72 307.584 
L 414.72 41.472 
L 57.6 41.472 
z
" style="fill: #ffffff"/>
   </g>
   <g id="matplotlib.axis_1">
    <g id="xtick_1">
     <g id="line2d_1">
      <path d="M 75.719422 307.584 
L 75.719422 41.472 
" clip-path="url(#p463c196c8e)" style="fill: none; stroke: #b0b0b0; stroke-opacity: 0.5; stroke-width: 0.8; stroke-linecap: square"/>
     </g>
     <g id="line2d_2">
      <defs>
       <path id="ma0e97995c0" d="M 0 0 
L 0 3.5 
" style="stroke: #000000; stroke-width: 0.8"/>
      </defs>
      <g>
       <use xlink:href="#ma0e97995c0" x="75.719422" y="307.584" style="stroke: #000000; stroke-width: 0.8"/>
      </g>
     </g>
     <g id="text_1">
      <!-- −1.00 -->
      <g transform="translate(60.396766 322.182437) scale(0.1 -0.1)">
       <defs>
        <path id="DejaVuSans-2212" d="M 678 2272 
L 4684 2272 
L 4684 1741 
L 678 1741 
L 678 2272 
z
" transform="scale(0.015625)"/>
        <path id="DejaVuSans-31" d="M 794 531 
L 1825 531 
L 1825 4091 
L 703 3866 
L 703 4441 
L 1819 4666 
L 2450 4666 
L 2450 531 
L 3481 531 
L 3481 0 
L 794 0 
L 794 531 
z
" transform="scale(0.015625)"/>
        <path id="DejaVuSans-2e" d="M 684 794 
L 1344 794 
L 1344 0 
L 684 0 
L 684 794 
z
" transform="scale(0.015625)"/>
        <path id="DejaVuSans-30" d="M 2034 4250 
Q 1547 4250 1301 3770 
Q 1056 3291 1056 2328 
Q 1056 1369 1301 889 
Q 1547 409 2034 409 
Q 2525 409 2770 889 
Q 3016 1369 3016 2328 
Q 3016 3291 2770 3770 
Q 2525 4250 2034 4250 
z
M 2034 4750 
Q 2819 4750 3233 4129 
Q 3647 3509 3647 2328 
Q 3647 1150 3233 529 
Q 2819 -91 2034 -91 
Q 1250 -91 836 529 
Q 422 1150 422 2328 
Q 422 3509 836 4129 
Q 1250 4750 2034 4750 
z
" transform="scale(0.015625)"/>
       </defs>
       <use xlink:href="#DejaVuSans-2212"/>
       <use xlink:href="#DejaVuSans-31" transform="translate(83.789062 0)"/>
       <use xlink:href="#DejaVuSans-2e" transform="translate(147.412109 0)"/>
       <use xlink:href="#DejaVuSans-30" transform="translate(179.199219 0)"/>
       <use xlink:href="#DejaVuSans-30" transform="translate(242.822266 0)"/>
      </g>
     </g>
    </g>
    <g id="xtick_2">
     <g id="line2d_3">
      <path d="M 116.041509 307.584 
L 116.041509 41.472 
" clip-path="url(#p463c196c8e)" style="fill: none; stroke: #b0b0b0; stroke-opacity: 0.5; stroke-width: 0.8; stroke-linecap: square"/>
     </g>
     <g id="line2d_4">
      <g>
       <use xlink:href="#ma0e97995c0" x="116.041509" y="307.584" style="stroke: #000000; stroke-width: 0.8"/>
      </g>
     </g>
     <g id="text_2">
      <!-- −0.75 -->
      <g transform="translate(100.718853 322.182437) scale(0.1 -0.1)">
       <defs>
        <path id="DejaVuSans-37" d="M 525 4666 
L 3525 4666 
L 3525 4397 
L 1831 0 
L 1172 0 
L 2766 4134 
L 525 4134 
L 525 4666 
z
" transform="scale(0.015625)"/>
        <path id="DejaVuSans-35" d="M 691 4666 
L 3169 4666 
L 3169 4134 
L 1269 4134 
L 1269 2991 
Q 1406 3038 1543 3061 
Q 1681 3084 1819 3084 
Q 2600 3084 3056 2656 
Q 3513 2228 3513 1497 
Q 3513 744 3044 326 
Q 2575 -91 1722 -91 
Q 1428 -91 1123 -41 
Q 819 9 494 109 
L 494 744 
Q 775 591 1075 516 
Q 1375 441 1709 441 
Q 2250 441 2565 725 
Q 2881 1009 2881 1497 
Q 2881 1984 2565 2268 
Q 2250 2553 1709 2553 
Q 1456 2553 1204 2497 
Q 953 2441 691 2322 
L 691 4666 
z
" transform="scale(0.015625)"/>
       </defs>
       <use xlink:href="#DejaVuSans-2212"/>
       <use xlink:href="#DejaVuSans-30" transform="translate(83.789062 0)"/>
       <use xlink:href="#DejaVuSans-2e" transform="translate(147.412109 0)"/>
       <use xlink:href="#DejaVuSans-37" transform="translate(179.199219 0)"/>
       <use xlink:href="#DejaVuSans-35" transform="translate(242.822266 0)"/>
      </g>
     </g>
    </g>
    <g id="xtick_3">
     <g id="line2d_5">
      <path d="M 156.363596 307.584 
L 156.363596 41.472 
" clip-path="url(#p463c196c8e)" style="fill: none; stroke: #b0b0b0; stroke-opacity: 0.5; stroke-width: 0.8; stroke-linecap: square"/>
     </g>
     <g id="line2d_6">
      <g>
       <use xlink:href="#ma0e97995c0" x="156.363596" y="307.584" style="stroke: #000000; stroke-width: 0.8"/>
      </g>
     </g>
     <g id="text_3">
      <!-- −0.50 -->
      <g transform="translate(141.040939 322.182437) scale(0.1 -0.1)">
       <use xlink:href="#DejaVuSans-2212"/>
       <use xlink:href="#DejaVuSans-30" transform="translate(83.789062 0)"/>
       <use xlink:href="#DejaVuSans-2e" transform="translate(147.412109 0)"/>
       <use xlink:href="#DejaVuSans-35" transform="translate(179.199219 0)"/>
       <use xlink:href="#DejaVuSans-30" transform="translate(242.822266 0)"/>
      </g>
     </g>
    </g>
    <g id="xtick_4">
     <g id="line2d_7">
      <path d="M 196.685683 307.584 
L 196.685683 41.472 
" clip-path="url(#p463c196c8e)" style="fill: none; stroke: #b0b0b0; stroke-opacity: 0.5; stroke-width: 0.8; stroke-linecap: square"/>
     </g>
     <g id="line2d_8">
      <g>
       <use xlink:href="#ma0e97995c0" x="196.685683" y="307.584" style="stroke: #000000; stroke-width: 0.8"/>
      </g>
     </g>
     <g id="text_4">
      <!-- −0.25 -->
      <g transform="translate(181.363026 322.182437) scale(0.1 -0.1)">
       <defs>
        <path id="DejaVuSans-32" d="M 1228 531 
L 3431 531 
L 3431 0 
L 469 0 
L 469 531 
Q 828 903 1448 1529 
Q 2069 2156 2228 2338 
Q 2531 2678 2651 2914 
Q 2772 3150 2772 3378 
Q 2772 3750 2511 3984 
Q 2250 4219 1831 4219 
Q 1534 4219 1204 4116 
Q 875 4013 500 3803 
L 500 4441 
Q 881 4594 1212 4672 
Q 1544 4750 1819 4750 
Q 2544 4750 2975 4387 
Q 3406 4025 3406 3419 
Q 3406 3131 3298 2873 
Q 3191 2616 2906 2266 
Q 2828 2175 2409 1742 
Q 1991 1309 1228 531 
z
" transform="scale(0.015625)"/>
       </defs>
       <use xlink:href="#DejaVuSans-2212"/>
       <use xlink:href="#DejaVuSans-30" transform="translate(83.789062 0)"/>
       <use xlink:href="#DejaVuSans-2e" transform="translate(147.412109 0)"/>
       <use xlink:href="#DejaVuSans-32" transform="translate(179.199219 0)"/>
       <use xlink:href="#DejaVuSans-35" transform="translate(242.822266 0)"/>
      </g>
     </g>
    </g>
    <g id="xtick_5">
     <g id="line2d_9">
      <path d="M 237.00777 307.584 
L 237.00777 41.472 
" clip-path="url(#p463c196c8e)" style="fill: none; stroke: #b0b0b0; stroke-opacity: 0.5; stroke-width: 0.8; stroke-linecap: square"/>
     </g>
     <g id="line2d_10">
      <g>
       <use xlink:href="#ma0e97995c0" x="237.00777" y="307.584" style="stroke: #000000; stroke-width: 0.8"/>
      </g>
     </g>
     <g id="text_5">
      <!-- 0.00 -->
      <g transform="translate(225.874957 322.182437) scale(0.1 -0.1)">
       <use xlink:href="#DejaVuSans-30"/>
       <use xlink:href="#DejaVuSans-2e" transform="translate(63.623047 0)"/>
       <use xlink:href="#DejaVuSans-30" transform="translate(95.410156 0)"/>
       <use xlink:href="#DejaVuSans-30" transform="translate(159.033203 0)"/>
      </g>
     </g>
    </g>
    <g id="xtick_6">
     <g id="line2d_11">
      <path d="M 277.329856 307.584 
L 277.329856 41.472 
" clip-path="url(#p463c196c8e)" style="fill: none; stroke: #b0b0b0; stroke-opacity: 0.5; stroke-width: 0.8; stroke-linecap: square"/>
     </g>
     <g id="line2d_12">
      <g>
       <use xlink:href="#ma0e97995c0" x="277.329856" y="307.584" style="stroke: #000000; stroke-width: 0.8"/>
      </g>
     </g>
     <g id="text_6">
      <!-- 0.25 -->
      <g transform="translate(266.197044 322.182437) scale(0.1 -0.1)">
       <use xlink:href="#DejaVuSans-30"/>
       <use xlink:href="#DejaVuSans-2e" transform="translate(63.623047 0)"/>
       <use xlink:href="#DejaVuSans-32" transform="translate(95.410156 0)"/>
       <use xlink:href="#DejaVuSans-35" transform="translate(159.033203 0)"/>
      </g>
     </g>
    </g>
    <g id="xtick_7">
     <g id="line2d_13">
      <path d="M 317.651943 307.584 
L 317.651943 41.472 
" clip-path="url(#p463c196c8e)" style="fill: none; stroke: #b0b0b0; stroke-opacity: 0.5; stroke-width: 0.8; stroke-linecap: square"/>
     </g>
     <g id="line2d_14">
      <g>
       <use xlink:href="#ma0e97995c0" x="317.651943" y="307.584" style="stroke: #000000; stroke-width: 0.8"/>
      </g>
     </g>
     <g id="text_7">
      <!-- 0.50 -->
      <g transform="translate(306.519131 322.182437) scale(0.1 -0.1)">
       <use xlink:href="#DejaVuSans-30"/>
       <use xlink:href="#DejaVuSans-2e" transform="translate(63.623047 0)"/>
       <use xlink:href="#DejaVuSans-35" transform="translate(95.410156 0)"/>
       <use xlink:href="#DejaVuSans-30" transform="translate(159.033203 0)"/>
      </g>
     </g>
    </g>
    <g id="xtick_8">
     <g id="line2d_15">
      <path d="M 357.97403 307.584 
L 357.97403 41.472 
" clip-path="url(#p463c196c8e)" style="fill: none; stroke: #b0b0b0; stroke-opacity: 0.5; stroke-width: 0.8; stroke-linecap: square"/>
     </g>
     <g id="line2d_16">
      <g>
       <use xlink:href="#ma0e97995c0" x="357.97403" y="307.584" style="stroke: #000000; stroke-width: 0.8"/>
      </g>
     </g>
     <g id="text_8">
      <!-- 0.75 -->
      <g transform="translate(346.841218 322.182437) scale(0.1 -0.1)">
       <use xlink:href="#DejaVuSans-30"/>
       <use xlink:href="#DejaVuSans-2e" transform="translate(63.623047 0)"/>
       <use xlink:href="#DejaVuSans-37" transform="translate(95.410156 0)"/>
       <use xlink:href="#DejaVuSans-35" transform="translate(159.033203 0)"/>
      </g>
     </g>
    </g>
    <g id="xtick_9">
     <g id="line2d_17">
      <path d="M 398.296117 307.584 
L 398.296117 41.472 
" clip-path="url(#p463c196c8e)" style="fill: none; stroke: #b0b0b0; stroke-opacity: 0.5; stroke-width: 0.8; stroke-linecap: square"/>
     </g>
     <g id="line2d_18">
      <g>
       <use xlink:href="#ma0e97995c0" x="398.296117" y="307.584" style="stroke: #000000; stroke-width: 0.8"/>
      </g>
     </g>
     <g id="text_9">
      <!-- 1.00 -->
      <g transform="translate(387.163305 322.182437) scale(0.1 -0.1)">
       <use xlink:href="#DejaVuSans-31"/>
       <use xlink:href="#DejaVuSans-2e" transform="translate(63.623047 0)"/>
       <use xlink:href="#DejaVuSans-30" transform="translate(95.410156 0)"/>
       <use xlink:href="#DejaVuSans-30" transform="translate(159.033203 0)"/>
      </g>
     </g>
    </g>
    <g id="text_10">
     <!-- Index -->
     <g transform="translate(222.393594 335.860562) scale(0.1 -0.1)">
      <defs>
       <path id="DejaVuSans-49" d="M 628 4666 
L 1259 4666 
L 1259 0 
L 628 0 
L 628 4666 
z
" transform="scale(0.015625)"/>
       <path id="DejaVuSans-6e" d="M 3513 2113 
L 3513 0 
L 2938 0 
L 2938 2094 
Q 2938 2591 2744 2837 
Q 2550 3084 2163 3084 
Q 1697 3084 1428 2787 
Q 1159 2491 1159 1978 
L 1159 0 
L 581 0 
L 581 3500 
L 1159 3500 
L 1159 2956 
Q 1366 3272 1645 3428 
Q 1925 3584 2291 3584 
Q 2894 3584 3203 3211 
Q 3513 2838 3513 2113 
z
" transform="scale(0.015625)"/>
       <path id="DejaVuSans-64" d="M 2906 2969 
L 2906 4863 
L 3481 4863 
L 3481 0 
L 2906 0 
L 2906 525 
Q 2725 213 2448 61 
Q 2172 -91 1784 -91 
Q 1150 -91 751 415 
Q 353 922 353 1747 
Q 353 2572 751 3078 
Q 1150 3584 1784 3584 
Q 2172 3584 2448 3432 
Q 2725 3281 2906 2969 
z
M 947 1747 
Q 947 1113 1208 752 
Q 1469 391 1925 391 
Q 2381 391 2643 752 
Q 2906 1113 2906 1747 
Q 2906 2381 2643 2742 
Q 2381 3103 1925 3103 
Q 1469 3103 1208 2742 
Q 947 2381 947 1747 
z
" transform="scale(0.015625)"/>
       <path id="DejaVuSans-65" d="M 3597 1894 
L 3597 1613 
L 953 1613 
Q 991 1019 1311 708 
Q 1631 397 2203 397 
Q 2534 397 2845 478 
Q 3156 559 3463 722 
L 3463 178 
Q 3153 47 2828 -22 
Q 2503 -91 2169 -91 
Q 1331 -91 842 396 
Q 353 884 353 1716 
Q 353 2575 817 3079 
Q 1281 3584 2069 3584 
Q 2775 3584 3186 3129 
Q 3597 2675 3597 1894 
z
M 3022 2063 
Q 3016 2534 2758 2815 
Q 2500 3097 2075 3097 
Q 1594 3097 1305 2825 
Q 1016 2553 972 2059 
L 3022 2063 
z
" transform="scale(0.015625)"/>
       <path id="DejaVuSans-78" d="M 3513 3500 
L 2247 1797 
L 3578 0 
L 2900 0 
L 1881 1375 
L 863 0 
L 184 0 
L 1544 1831 
L 300 3500 
L 978 3500 
L 1906 2253 
L 2834 3500 
L 3513 3500 
z
" transform="scale(0.015625)"/>
      </defs>
      <use xlink:href="#DejaVuSans-49"/>
      <use xlink:href="#DejaVuSans-6e" transform="translate(29.492188 0)"/>
      <use xlink:href="#DejaVuSans-64" transform="translate(92.871094 0)"/>
      <use xlink:href="#DejaVuSans-65" transform="translate(156.347656 0)"/>
      <use xlink:href="#DejaVuSans-78" transform="translate(216.121094 0)"/>
     </g>
    </g>
   </g>
   <g id="matplotlib.axis_2">
    <g id="ytick_1">
     <g id="line2d_19">
      <path d="M 57.6 295.50573 
L 414.72 295.50573 
" clip-path="url(#p463c196c8e)" style="fill: none; stroke: #b0b0b0; stroke-opacity: 0.5; stroke-width: 0.8; stroke-linecap: square"/>
     </g>
     <g id="line2d_20">
      <defs>
       <path id="m5ce2938cc4" d="M 0 0 
L -3.5 0 
" style="stroke: #000000; stroke-width: 0.8"/>
      </defs>
      <g>
       <use xlink:href="#m5ce2938cc4" x="57.6" y="295.50573" style="stroke: #000000; stroke-width: 0.8"/>
      </g>
     </g>
     <g id="text_11">
      <!-- −1.00 -->
      <g transform="translate(19.954687 299.304949) scale(0.1 -0.1)">
       <use xlink:href="#DejaVuSans-2212"/>
       <use xlink:href="#DejaVuSans-31" transform="translate(83.789062 0)"/>
       <use xlink:href="#DejaVuSans-2e" transform="translate(147.412109 0)"/>
       <use xlink:href="#DejaVuSans-30" transform="translate(179.199219 0)"/>
       <use xlink:href="#DejaVuSans-30" transform="translate(242.822266 0)"/>
      </g>
     </g>
    </g>
    <g id="ytick_2">
     <g id="line2d_21">
      <path d="M 57.6 265.263499 
L 414.72 265.263499 
" clip-path="url(#p463c196c8e)" style="fill: none; stroke: #b0b0b0; stroke-opacity: 0.5; stroke-width: 0.8; stroke-linecap: square"/>
     </g>
     <g id="line2d_22">
      <g>
       <use xlink:href="#m5ce2938cc4" x="57.6" y="265.263499" style="stroke: #000000; stroke-width: 0.8"/>
      </g>
     </g>
     <g id="text_12">
      <!-- −0.75 -->
      <g transform="translate(19.954687 269.062717) scale(0.1 -0.1)">
       <use xlink:href="#DejaVuSans-2212"/>
       <use xlink:href="#DejaVuSans-30" transform="translate(83.789062 0)"/>
       <use xlink:href="#DejaVuSans-2e" transform="translate(147.412109 0)"/>
       <use xlink:href="#DejaVuSans-37" transform="translate(179.199219 0)"/>
       <use xlink:href="#DejaVuSans-35" transform="translate(242.822266 0)"/>
      </g>
     </g>
    </g>
    <g id="ytick_3">
     <g id="line2d_23">
      <path d="M 57.6 235.021267 
L 414.72 235.021267 
" clip-path="url(#p463c196c8e)" style="fill: none; stroke: #b0b0b0; stroke-opacity: 0.5; stroke-width: 0.8; stroke-linecap: square"/>
     </g>
     <g id="line2d_24">
      <g>
       <use xlink:href="#m5ce2938cc4" x="57.6" y="235.021267" style="stroke: #000000; stroke-width: 0.8"/>
      </g>
     </g>
     <g id="text_13">
      <!-- −0.50 -->
      <g transform="translate(19.954687 238.820486) scale(0.1 -0.1)">
       <use xlink:href="#DejaVuSans-2212"/>
       <use xlink:href="#DejaVuSans-30" transform="translate(83.789062 0)"/>
       <use xlink:href="#DejaVuSans-2e" transform="translate(147.412109 0)"/>
       <use xlink:href="#DejaVuSans-35" transform="translate(179.199219 0)"/>
       <use xlink:href="#DejaVuSans-30" transform="translate(242.822266 0)"/>
      </g>
     </g>
    </g>
    <g id="ytick_4">
     <g id="line2d_25">
      <path d="M 57.6 204.779035 
L 414.72 204.779035 
" clip-path="url(#p463c196c8e)" style="fill: none; stroke: #b0b0b0; stroke-opacity: 0.5; stroke-width: 0.8; stroke-linecap: square"/>
     </g>
     <g id="line2d_26">
      <g>
       <use xlink:href="#m5ce2938cc4" x="57.6" y="204.779035" style="stroke: #000000; stroke-width: 0.8"/>
      </g>
     </g>
     <g id="text_14">
      <!-- −0.25 -->
      <g transform="translate(19.954687 208.578254) scale(0.1 -0.1)">
       <use xlink:href="#DejaVuSans-2212"/>
       <use xlink:href="#DejaVuSans-30" transform="translate(83.789062 0)"/>
       <use xlink:href="#DejaVuSans-2e" transform="translate(147.412109 0)"/>
       <use xlink:href="#DejaVuSans-32" transform="translate(179.199219 0)"/>
       <use xlink:href="#DejaVuSans-35" transform="translate(242.822266 0)"/>
      </g>
     </g>
    </g>
    <g id="ytick_5">
     <g id="line2d_27">
      <path d="M 57.6 174.536804 
L 414.72 174.536804 
" clip-path="url(#p463c196c8e)" style="fill: none; stroke: #b0b0b0; stroke-opacity: 0.5; stroke-width: 0.8; stroke-linecap: square"/>
     </g>
     <g id="line2d_28">
      <g>
       <use xlink:href="#m5ce2938cc4" x="57.6" y="174.536804" style="stroke: #000000; stroke-width: 0.8"/>
      </g>
     </g>
     <g id="text_15">
      <!-- 0.00 -->
      <g transform="translate(28.334375 178.336023) scale(0.1 -0.1)">
       <use xlink:href="#DejaVuSans-30"/>
       <use xlink:href="#DejaVuSans-2e" transform="translate(63.623047 0)"/>
       <use xlink:href="#DejaVuSans-30" transform="translate(95.410156 0)"/>
       <use xlink:href="#DejaVuSans-30" transform="translate(159.033203 0)"/>
      </g>
     </g>
    </g>
    <g id="ytick_6">
     <g id="line2d_29">
      <path d="M 57.6 144.294572 
L 414.72 144.294572 
" clip-path="url(#p463c196c8e)" style="fill: none; stroke: #b0b0b0; stroke-opacity: 0.5; stroke-width: 0.8; stroke-linecap: square"/>
     </g>
     <g id="line2d_30">
      <g>
       <use xlink:href="#m5ce2938cc4" x="57.6" y="144.294572" style="stroke: #000000; stroke-width: 0.8"/>
      </g>
     </g>
     <g id="text_16">
      <!-- 0.25 -->
      <g transform="translate(28.334375 148.093791) scale(0.1 -0.1)">
       <use xlink:href="#DejaVuSans-30"/>
       <use xlink:href="#DejaVuSans-2e" transform="translate(63.623047 0)"/>
       <use xlink:href="#DejaVuSans-32" transform="translate(95.410156 0)"/>
       <use xlink:href="#DejaVuSans-35" transform="translate(159.033203 0)"/>
      </g>
     </g>
    </g>
    <g id="ytick_7">
     <g id="line2d_31">
      <path d="M 57.6 114.052341 
L 414.72 114.052341 
" clip-path="url(#p463c196c8e)" style="fill: none; stroke: #b0b0b0; stroke-opacity: 0.5; stroke-width: 0.8; stroke-linecap: square"/>
     </g>
     <g id="line2d_32">
      <g>
       <use xlink:href="#m5ce2938cc4" x="57.6" y="114.052341" style="stroke: #000000; stroke-width: 0.8"/>
      </g>
     </g>
     <g id="text_17">
      <!-- 0.50 -->
      <g transform="translate(28.334375 117.851559) scale(0.1 -0.1)">
       <use xlink:href="#DejaVuSans-30"/>
       <use xlink:href="#DejaVuSans-2e" transform="translate(63.623047 0)"/>
       <use xlink:href="#DejaVuSans-35" transform="translate(95.410156 0)"/>
       <use xlink:href="#DejaVuSans-30" transform="translate(159.033203 0)"/>
      </g>
     </g>
    </g>
    <g id="ytick_8">
     <g id="line2d_33">
      <path d="M 57.6 83.810109 
L 414.72 83.810109 
" clip-path="url(#p463c196c8e)" style="fill: none; stroke: #b0b0b0; stroke-opacity: 0.5; stroke-width: 0.8; stroke-linecap: square"/>
     </g>
     <g id="line2d_34">
      <g>
       <use xlink:href="#m5ce2938cc4" x="57.6" y="83.810109" style="stroke: #000000; stroke-width: 0.8"/>
      </g>
     </g>
     <g id="text_18">
      <!-- 0.75 -->
      <g transform="translate(28.334375 87.609328) scale(0.1 -0.1)">
       <use xlink:href="#DejaVuSans-30"/>
       <use xlink:href="#DejaVuSans-2e" transform="translate(63.623047 0)"/>
       <use xlink:href="#DejaVuSans-37" transform="translate(95.410156 0)"/>
       <use xlink:href="#DejaVuSans-35" transform="translate(159.033203 0)"/>
      </g>
     </g>
    </g>
    <g id="ytick_9">
     <g id="line2d_35">
      <path d="M 57.6 53.567877 
L 414.72 53.567877 
" clip-path="url(#p463c196c8e)" style="fill: none; stroke: #b0b0b0; stroke-opacity: 0.5; stroke-width: 0.8; stroke-linecap: square"/>
     </g>
     <g id="line2d_36">
      <g>
       <use xlink:href="#m5ce2938cc4" x="57.6" y="53.567877" style="stroke: #000000; stroke-width: 0.8"/>
      </g>
     </g>
     <g id="text_19">
      <!-- 1.00 -->
      <g transform="translate(28.334375 57.367096) scale(0.1 -0.1)">
       <use xlink:href="#DejaVuSans-31"/>
       <use xlink:href="#DejaVuSans-2e" transform="translate(63.623047 0)"/>
       <use xlink:href="#DejaVuSans-30" transform="translate(95.410156 0)"/>
       <use xlink:href="#DejaVuSans-30" transform="translate(159.033203 0)"/>
      </g>
     </g>
    </g>
    <g id="text_20">
     <!-- Value -->
     <g transform="translate(13.875 188.25925) rotate(-90) scale(0.1 -0.1)">
      <defs>
       <path id="DejaVuSans-56" d="M 1831 0 
L 50 4666 
L 709 4666 
L 2188 738 
L 3669 4666 
L 4325 4666 
L 2547 0 
L 1831 0 
z
" transform="scale(0.015625)"/>
       <path id="DejaVuSans-61" d="M 2194 1759 
Q 1497 1759 1228 1600 
Q 959 1441 959 1056 
Q 959 750 1161 570 
Q 1363 391 1709 391 
Q 2188 391 2477 730 
Q 2766 1069 2766 1631 
L 2766 1759 
L 2194 1759 
z
M 3341 1997 
L 3341 0 
L 2766 0 
L 2766 531 
Q 2569 213 2275 61 
Q 1981 -91 1556 -91 
Q 1019 -91 701 211 
Q 384 513 384 1019 
Q 384 1609 779 1909 
Q 1175 2209 1959 2209 
L 2766 2209 
L 2766 2266 
Q 2766 2663 2505 2880 
Q 2244 3097 1772 3097 
Q 1472 3097 1187 3025 
Q 903 2953 641 2809 
L 641 3341 
Q 956 3463 1253 3523 
Q 1550 3584 1831 3584 
Q 2591 3584 2966 3190 
Q 3341 2797 3341 1997 
z
" transform="scale(0.015625)"/>
       <path id="DejaVuSans-6c" d="M 603 4863 
L 1178 4863 
L 1178 0 
L 603 0 
L 603 4863 
z
" transform="scale(0.015625)"/>
       <path id="DejaVuSans-75" d="M 544 1381 
L 544 3500 
L 1119 3500 
L 1119 1403 
Q 1119 906 1312 657 
Q 1506 409 1894 409 
Q 2359 409 2629 706 
Q 2900 1003 2900 1516 
L 2900 3500 
L 3475 3500 
L 3475 0 
L 2900 0 
L 2900 538 
Q 2691 219 2414 64 
Q 2138 -91 1772 -91 
Q 1169 -91 856 284 
Q 544 659 544 1381 
z
M 1991 3584 
L 1991 3584 
z
" transform="scale(0.015625)"/>
      </defs>
      <use xlink:href="#DejaVuSans-56"/>
      <use xlink:href="#DejaVuSans-61" transform="translate(60.658203 0)"/>
      <use xlink:href="#DejaVuSans-6c" transform="translate(121.9375 0)"/>
      <use xlink:href="#DejaVuSans-75" transform="translate(149.720703 0)"/>
      <use xlink:href="#DejaVuSans-65" transform="translate(213.099609 0)"/>
     </g>
    </g>
   </g>
   <g id="line2d_37">
    <path d="M 224.416457 177.029613 
L 253.256155 176.555445 
L 238.856169 176.081934 
L 241.920617 175.608125 
L 242.905505 175.133284 
L 245.13584 173.225757 
L 246.807043 171.80344 
L 250.465252 168.963712 
L 252.172544 167.545937 
L 258.208748 163.305452 
L 260.234002 161.903006 
L 263.126633 160.028928 
L 267.601911 156.751657 
L 270.420619 154.879464 
L 273.489956 152.538958 
L 276.219964 150.674265 
L 278.425847 148.798341 
L 280.252092 147.400819 
L 282.811494 145.533033 
L 286.22091 142.735732 
L 288.780196 140.87429 
L 292.117645 138.087638 
L 294.690463 136.236964 
L 298.142736 133.463886 
L 301.438933 131.161465 
L 304.287741 128.863402 
L 307.595629 126.570902 
L 310.378454 124.279794 
L 313.710798 121.997147 
L 317.061985 119.257561 
L 319.567825 117.43673 
L 322.693915 114.708814 
L 325.201558 112.897364 
L 328.91542 109.733351 
L 330.791357 108.3803 
L 334.420409 105.231435 
L 336.331849 103.886308 
L 337.745634 102.532234 
L 338.692721 101.637103 
L 340.586588 100.30396 
L 342.391673 98.95923 
L 344.734309 96.722786 
L 348.372772 94.04797 
L 349.633837 92.706298 
L 350.78302 91.822934 
L 353.36982 90.046804 
L 354.650285 88.702261 
L 355.589854 87.815789 
L 356.910158 86.93518 
L 358.939316 85.602289 
L 359.87428 84.705493 
L 360.702755 83.815185 
L 361.84518 82.936018 
L 364.65909 81.170213 
L 365.588892 80.274584 
L 366.343804 79.385344 
L 367.430057 78.509457 
L 370.854955 76.307306 
L 372.936122 74.103193 
L 376.520058 71.916061 
L 377.159761 71.025473 
L 377.732536 70.149514 
L 378.242774 69.718734 
L 379.746725 68.860808 
L 381.29237 67.988959 
L 381.826729 67.545539 
L 382.162981 67.099769 
L 382.762712 65.781472 
L 383.240409 65.353626 
L 384.837226 64.503214 
L 386.550897 63.635395 
L 387.113634 63.191601 
L 387.390937 62.744612 
L 387.610635 61.429603 
L 388.069883 61.007244 
L 388.881092 60.588996 
L 392.00926 59.30241 
L 392.57118 58.854102 
L 392.672199 58.401482 
L 392.003251 57.092111 
L 392.56522 56.681816 
L 393.805837 56.275421 
L 397.02863 55.429637 
L 397.749011 54.980673 
L 396.848069 54.5293 
L 393.48412 54.108881 
L 384.425488 53.569911 
L 388.129785 53.568 
L 388.471315 53.805284 
L 387.752396 54.295564 
L 384.536976 55.017128 
L 379.596658 55.91231 
L 377.3409 56.89519 
L 379.579334 57.866441 
L 386.861135 58.732276 
L 394.921517 59.422959 
L 398.487273 59.907124 
L 398.254154 60.197628 
L 394.532918 60.347934 
L 380.214404 60.562325 
L 376.983103 60.796033 
L 377.124201 61.191078 
L 375.841573 61.759496 
L 372.859608 62.473879 
L 370.548063 63.275904 
L 371.17276 64.091375 
L 375.075989 64.848544 
L 379.98616 65.494444 
L 382.175489 66.005943 
L 381.1742 66.393065 
L 377.292755 66.69416 
L 368.365454 67.262989 
L 367.280355 67.636173 
L 366.676952 68.110157 
L 363.990315 69.338693 
L 363.435768 70.031394 
L 364.305773 70.71907 
L 367.782816 71.937137 
L 367.915829 72.435175 
L 366.482182 72.867685 
L 361.694161 73.640327 
L 360.017906 74.041624 
L 358.961706 74.485369 
L 357.250535 75.530654 
L 356.611254 76.117199 
L 356.384567 76.722093 
L 356.605198 77.323476 
L 357.047862 77.902327 
L 357.305909 78.446273 
L 357.055515 78.951492 
L 356.239576 79.4227 
L 351.533693 81.231219 
L 349.965456 82.254045 
L 349.406256 82.80218 
L 349.057977 83.362716 
L 348.905083 84.47239 
L 348.823541 85.001562 
L 348.504603 85.507481 
L 347.874205 85.992223 
L 343.310775 88.386118 
L 342.165457 89.438196 
L 341.57209 90.510895 
L 340.998432 91.547565 
L 340.472956 92.045206 
L 338.951768 93.01425 
L 336.480051 94.486573 
L 335.128676 95.511916 
L 332.36217 98.071316 
L 326.573284 102.068762 
L 323.387436 104.588845 
L 316.555813 109.586368 
L 313.946185 111.570429 
L 309.710404 114.546283 
L 305.911515 117.508148 
L 302.2828 119.963818 
L 297.843548 123.401845 
L 294.264747 125.843606 
L 289.72002 129.273799 
L 284.877452 132.695675 
L 281.684312 135.151935 
L 278.550352 137.58712 
L 275.414932 140.04315 
L 272.485005 142.48092 
L 268.599359 145.399084 
L 265.08838 148.308503 
L 261.267693 151.205748 
L 257.656416 154.097053 
L 253.322702 157.463264 
L 230.545042 175.119305 
L 222.872831 180.782179 
L 213.91369 187.340553 
L 210.073525 190.148367 
L 206.880581 192.473093 
L 203.643949 194.807873 
L 200.50271 197.134672 
L 196.6243 199.931461 
L 192.790086 202.721914 
L 184.532492 208.759909 
L 180.809041 211.530359 
L 177.642549 213.836994 
L 164.724487 223.912364 
L 162.364383 225.728973 
L 159.441989 228.00998 
L 156.593542 230.276739 
L 153.66947 232.54671 
L 150.861145 234.804139 
L 147.952291 237.062354 
L 145.176902 239.3082 
L 142.273682 241.555747 
L 139.544102 243.791455 
L 136.635796 246.02823 
L 133.950582 248.254882 
L 131.016627 250.483921 
L 128.395132 252.706044 
L 124.917301 255.374176 
L 122.83822 257.147466 
L 119.338105 259.81055 
L 117.303574 261.581316 
L 113.796095 264.237919 
L 111.823321 266.004567 
L 107.818928 269.097711 
L 106.399855 270.415957 
L 102.382791 273.492712 
L 101.036858 274.80475 
L 99.162641 276.102772 
L 97.917919 276.981463 
L 96.97587 277.867322 
L 95.745318 279.174385 
L 94.539089 280.030826 
L 92.526668 281.335784 
L 91.600702 282.22103 
L 90.527553 283.52319 
L 89.303058 284.371195 
L 87.128649 285.670118 
L 86.24182 286.55837 
L 85.44159 287.855606 
L 84.892541 288.273998 
L 81.146224 290.437185 
L 80.916979 290.886193 
L 80.938985 291.755251 
L 80.691234 292.169282 
L 79.985582 292.575309 
L 76.671277 293.846515 
L 76.283025 294.298147 
L 77.348628 294.736203 
L 81.548156 295.11832 
L 90.74132 295.388772 
L 103.138146 295.488 
L 104.688097 295.365418 
L 94.253259 294.992781 
L 91.863729 294.374259 
L 94.308095 293.550748 
L 98.87562 292.596024 
L 97.239819 291.60519 
L 73.832727 289.312276 
L 77.64061 288.934773 
L 108.277657 288.352245 
L 104.434339 288.035453 
L 101.868602 287.54381 
L 102.402749 286.886893 
L 104.772946 286.110905 
L 104.232031 285.285981 
L 98.159748 284.488579 
L 91.314575 283.783338 
L 87.987907 283.208734 
L 89.487984 282.769821 
L 107.372119 281.892168 
L 108.939702 281.559722 
L 109.122465 281.132403 
L 109.663726 280.598097 
L 110.608208 279.970526 
L 110.760467 279.283795 
L 108.745355 278.582542 
L 102.193539 277.30114 
L 101.264833 276.76956 
L 102.701326 276.312289 
L 111.999729 275.143382 
L 113.887154 274.72088 
L 115.194191 274.246506 
L 116.115264 273.716938 
L 116.571503 273.141224 
L 116.326954 272.537483 
L 115.350007 271.928046 
L 113.069244 270.771959 
L 112.88526 270.248974 
L 113.62533 269.764066 
L 115.104804 269.308187 
L 120.371041 267.965158 
L 121.662677 267.480042 
L 122.609764 266.965096 
L 123.177597 266.423356 
L 123.314042 265.863548 
L 123.054313 265.297877 
L 122.190922 264.198053 
L 122.188364 263.68054 
L 122.726059 263.186994 
L 123.769368 262.712253 
L 129.067406 260.807073 
L 129.881384 260.291911 
L 130.354005 259.760424 
L 130.496477 259.219687 
L 130.291286 258.145574 
L 130.356139 257.626317 
L 130.765579 257.122633 
L 131.535479 256.632318 
L 136.746121 254.178231 
L 137.367809 253.661598 
L 138.124471 252.617394 
L 138.912127 251.587697 
L 139.536353 251.08379 
L 141.24189 250.091831 
L 143.95606 248.601633 
L 145.363539 247.589443 
L 148.431334 245.050051 
L 152.145879 242.552378 
L 155.106338 240.544797 
L 160.52205 236.550977 
L 162.965744 235.060945 
L 164.250934 234.054916 
L 166.523905 232.064131 
L 168.128764 231.08933 
L 170.708763 229.617706 
L 172.035719 228.619583 
L 174.226404 226.634974 
L 175.759041 225.663867 
L 179.043337 223.712202 
L 180.882195 222.224917 
L 182.789722 220.748963 
L 190.043124 215.848909 
L 192.067764 214.368885 
L 195.14272 211.918248 
L 198.679746 209.464608 
L 202.782096 206.034174 
L 205.750133 204.086811 
L 207.328707 202.608941 
L 208.401777 201.634185 
L 209.763294 200.670428 
L 212.651817 198.73805 
L 217.530993 194.863525 
L 219.502893 193.415556 
L 223.225455 190.520685 
L 225.756507 188.590798 
L 228.168869 186.669414 
L 232.093148 183.785804 
L 234.374147 181.86773 
L 238.945897 178.522167 
L 240.61222 177.088924 
L 240.61222 177.088924 
" clip-path="url(#p463c196c8e)" style="fill: none; stroke: #1f77b4; stroke-width: 1.5; stroke-linecap: square"/>
   </g>
   <g id="line2d_38">
    <path d="M 237.187052 177.029613 
L 240.935568 174.180022 
L 244.089435 171.80344 
L 246.564455 169.912761 
L 249.619797 167.545937 
L 252.791165 165.193857 
L 255.781249 162.836665 
L 259.589419 160.028928 
L 262.632278 157.68201 
L 265.820458 155.349542 
L 269.499712 152.538958 
L 272.591982 150.205193 
L 275.71181 147.865947 
L 278.791614 145.533033 
L 281.858596 143.199312 
L 284.91743 140.87429 
L 287.316939 139.010983 
L 291.011724 136.236964 
L 293.358873 134.382541 
L 297.664371 131.161465 
L 300.07322 129.32011 
L 303.176094 127.031767 
L 306.131228 124.734855 
L 309.221926 122.456328 
L 312.170705 120.164902 
L 315.262504 117.893907 
L 318.158086 115.611981 
L 321.249097 113.352292 
L 324.075928 111.080561 
L 327.724255 108.3803 
L 329.975899 106.571255 
L 333.661392 103.886308 
L 335.893193 102.083515 
L 340.108478 98.95923 
L 342.389895 97.165961 
L 345.472503 94.946714 
L 348.249988 92.706298 
L 351.386904 90.49421 
L 354.771618 87.815789 
L 357.239383 86.049134 
L 359.951477 83.815185 
L 363.644295 81.170213 
L 365.718213 79.385344 
L 369.419905 76.753465 
L 371.464357 74.973809 
L 375.679527 71.916061 
L 377.171942 70.584887 
L 379.207877 69.290239 
L 380.499532 68.427569 
L 381.465779 67.545539 
L 382.85853 66.215165 
L 384.205502 65.353626 
L 386.314029 64.072765 
L 387.226074 63.191601 
L 387.967682 62.299231 
L 389.115855 61.429603 
L 392.233505 59.741013 
L 392.698425 59.30241 
L 393.156587 58.401482 
L 393.39208 57.952546 
L 393.834053 57.514873 
L 394.577227 57.092111 
L 397.769469 55.861174 
L 398.296117 55.429637 
L 398.034389 54.980673 
L 396.807702 54.5293 
L 394.644935 54.108881 
L 391.809433 53.769312 
L 388.765701 53.569911 
L 386.086899 53.568 
L 384.322143 53.805284 
L 383.857309 54.295564 
L 384.806078 55.017128 
L 386.962606 55.91231 
L 394.965566 58.732276 
L 395.948088 59.422959 
L 395.383341 59.907124 
L 393.313663 60.197628 
L 386.385227 60.439346 
L 382.834198 60.562325 
L 380.07919 60.796033 
L 378.522393 61.191078 
L 378.26426 61.759496 
L 379.097379 62.473879 
L 383.248138 64.848544 
L 383.52669 65.494444 
L 382.824229 66.005943 
L 381.239265 66.393065 
L 373.039891 67.636173 
L 372.144073 68.110157 
L 371.889256 68.685316 
L 372.086651 69.338693 
L 372.728364 70.71907 
L 372.666415 71.362735 
L 372.161339 71.937137 
L 371.221673 72.435175 
L 368.554879 73.259046 
L 366.035873 74.041624 
L 365.167992 74.485369 
L 364.601707 74.98239 
L 364.276596 75.530654 
L 363.59864 77.323476 
L 363.112032 77.902327 
L 362.405187 78.446273 
L 360.447718 79.4227 
L 357.32081 80.761547 
L 356.534096 81.231219 
L 355.928318 81.728529 
L 355.129606 82.80218 
L 354.419685 83.923325 
L 353.914167 84.47239 
L 353.250247 85.001562 
L 351.486807 85.992223 
L 348.629953 87.399329 
L 347.286693 88.386118 
L 346.409775 89.438196 
L 345.531098 90.510895 
L 344.218706 91.547565 
L 341.545153 93.01425 
L 339.883761 93.987288 
L 338.638645 94.995571 
L 336.616131 97.063971 
L 335.259517 98.071316 
L 330.599048 101.052664 
L 328.863969 102.577313 
L 327.11393 104.089906 
L 324.92438 105.582346 
L 321.972295 107.576192 
L 320.277284 109.084545 
L 318.522535 110.58323 
L 316.282519 112.062353 
L 314.096219 113.546271 
L 312.406049 115.046906 
L 310.681568 116.533246 
L 308.507439 117.994286 
L 306.344614 119.46689 
L 303.953156 121.454852 
L 302.076984 122.918718 
L 296.048726 127.324481 
L 291.588137 130.732924 
L 287.470943 133.679997 
L 283.753793 136.613891 
L 279.665013 139.55008 
L 276.649951 141.997728 
L 272.015165 145.399084 
L 268.965851 147.82883 
L 263.778419 151.691009 
L 257.375206 156.500589 
L 245.940926 165.1349 
L 242.115403 167.994688 
L 237.761289 171.330326 
L 209.802127 192.473093 
L 201.159447 198.997142 
L 196.816158 202.257035 
L 187.731785 209.224148 
L 173.189714 220.256459 
L 170.151592 222.540502 
L 166.531663 225.275066 
L 162.97106 228.00998 
L 136.899216 247.811888 
L 134.508917 249.588609 
L 131.70313 251.822017 
L 128.081855 254.480112 
L 125.224444 256.706584 
L 122.217147 258.91764 
L 119.37556 261.141415 
L 116.365245 263.346457 
L 114.187087 265.125861 
L 110.036241 268.207425 
L 108.466399 269.540135 
L 103.77161 273.049458 
L 102.130551 274.370819 
L 99.018458 276.540402 
L 96.513122 278.743072 
L 93.289762 280.896251 
L 90.860758 283.094797 
L 87.492993 285.230786 
L 86.668776 286.113984 
L 85.861086 286.998617 
L 84.573189 287.855606 
L 82.188196 289.114108 
L 81.625776 289.546027 
L 81.261404 289.988192 
L 80.510692 291.327413 
L 79.920758 291.755251 
L 77.926728 292.575309 
L 76.826517 292.983895 
L 76.042417 293.405944 
L 75.903819 293.846515 
L 76.659943 294.298147 
L 78.389331 294.736203 
L 80.944551 295.11832 
L 83.952905 295.388772 
L 86.88039 295.488 
L 89.147626 295.365418 
L 90.270651 294.992781 
L 89.990512 294.374259 
L 88.355269 293.550748 
L 82.725045 291.60519 
L 80.06448 290.677296 
L 78.414605 289.895936 
L 78.227314 289.312276 
L 79.631304 288.934773 
L 82.402059 288.72801 
L 93.022304 288.352245 
L 95.185955 288.035453 
L 96.026716 287.54381 
L 95.615276 286.886893 
L 94.310191 286.110905 
L 91.22689 284.488579 
L 90.509643 283.783338 
L 90.769458 283.208734 
L 92.016074 282.769821 
L 94.021477 282.439466 
L 98.708219 281.892168 
L 100.578186 281.559722 
L 101.781743 281.132403 
L 102.280493 280.598097 
L 102.212103 279.970526 
L 101.454374 278.582542 
L 101.333733 277.910663 
L 101.64251 277.30114 
L 102.422812 276.76956 
L 103.596356 276.312289 
L 107.715332 275.143382 
L 108.724475 274.72088 
L 109.415976 274.246506 
L 109.824474 273.716938 
L 110.80668 271.334219 
L 111.405151 270.771959 
L 112.223013 270.248974 
L 114.314956 269.308187 
L 116.451959 268.424109 
L 118.036683 267.480042 
L 118.559476 266.965096 
L 119.262418 265.863548 
L 120.026511 264.739179 
L 120.608928 264.198053 
L 122.27306 263.186994 
L 126.075982 261.302688 
L 127.246689 260.291911 
L 128.991171 258.145574 
L 130.487181 257.122633 
L 134.078057 255.181971 
L 135.367944 254.178231 
L 137.958993 251.587697 
L 139.441641 250.586055 
L 142.655436 248.601633 
L 144.587477 247.079703 
L 146.889611 245.050051 
L 149.038053 243.549355 
L 152.076469 241.551767 
L 153.269335 240.544797 
L 155.444628 238.530027 
L 156.881015 237.5368 
L 159.999281 235.560591 
L 161.200131 234.558571 
L 163.370478 232.555777 
L 165.544204 231.08933 
L 167.741738 229.617706 
L 170.119689 227.620403 
L 172.008922 226.148285 
L 178.075072 221.730615 
L 184.665371 216.834097 
L 186.731194 215.355724 
L 191.072768 211.918248 
L 193.92468 209.959495 
L 198.907736 206.034174 
L 200.973752 204.577743 
L 206.622648 200.189711 
L 209.751844 197.76291 
L 213.020782 195.344567 
L 221.337034 189.073557 
L 224.516501 186.669414 
L 227.722994 184.268528 
L 230.861488 181.86773 
L 234.061571 179.483026 
L 237.10618 177.088924 
L 237.10618 177.088924 
" clip-path="url(#p463c196c8e)" style="fill: none; stroke: #ff7f0e; stroke-opacity: 0.5; stroke-width: 1.5; stroke-linecap: square"/>
   </g>
   <g id="patch_3">
    <path d="M 57.6 307.584 
L 57.6 41.472 
" style="fill: none; stroke: #000000; stroke-width: 0.8; stroke-linejoin: miter; stroke-linecap: square"/>
   </g>
   <g id="patch_4">
    <path d="M 414.72 307.584 
L 414.72 41.472 
" style="fill: none; stroke: #000000; stroke-width: 0.8; stroke-linejoin: miter; stroke-linecap: square"/>
   </g>
   <g id="patch_5">
    <path d="M 57.6 307.584 
L 414.72 307.584 
" style="fill: none; stroke: #000000; stroke-width: 0.8; stroke-linejoin: miter; stroke-linecap: square"/>
   </g>
   <g id="patch_6">
    <path d="M 57.6 41.472 
L 414.72 41.472 
" style="fill: none; stroke: #000000; stroke-width: 0.8; stroke-linejoin: miter; stroke-linecap: square"/>
   </g>
   <g id="text_21">
    <!-- Compare - Epoch 1200 -->
    <g transform="translate(167.416875 35.472) scale(0.12 -0.12)">
     <defs>
      <path id="DejaVuSans-43" d="M 4122 4306 
L 4122 3641 
Q 3803 3938 3442 4084 
Q 3081 4231 2675 4231 
Q 1875 4231 1450 3742 
Q 1025 3253 1025 2328 
Q 1025 1406 1450 917 
Q 1875 428 2675 428 
Q 3081 428 3442 575 
Q 3803 722 4122 1019 
L 4122 359 
Q 3791 134 3420 21 
Q 3050 -91 2638 -91 
Q 1578 -91 968 557 
Q 359 1206 359 2328 
Q 359 3453 968 4101 
Q 1578 4750 2638 4750 
Q 3056 4750 3426 4639 
Q 3797 4528 4122 4306 
z
" transform="scale(0.015625)"/>
      <path id="DejaVuSans-6f" d="M 1959 3097 
Q 1497 3097 1228 2736 
Q 959 2375 959 1747 
Q 959 1119 1226 758 
Q 1494 397 1959 397 
Q 2419 397 2687 759 
Q 2956 1122 2956 1747 
Q 2956 2369 2687 2733 
Q 2419 3097 1959 3097 
z
M 1959 3584 
Q 2709 3584 3137 3096 
Q 3566 2609 3566 1747 
Q 3566 888 3137 398 
Q 2709 -91 1959 -91 
Q 1206 -91 779 398 
Q 353 888 353 1747 
Q 353 2609 779 3096 
Q 1206 3584 1959 3584 
z
" transform="scale(0.015625)"/>
      <path id="DejaVuSans-6d" d="M 3328 2828 
Q 3544 3216 3844 3400 
Q 4144 3584 4550 3584 
Q 5097 3584 5394 3201 
Q 5691 2819 5691 2113 
L 5691 0 
L 5113 0 
L 5113 2094 
Q 5113 2597 4934 2840 
Q 4756 3084 4391 3084 
Q 3944 3084 3684 2787 
Q 3425 2491 3425 1978 
L 3425 0 
L 2847 0 
L 2847 2094 
Q 2847 2600 2669 2842 
Q 2491 3084 2119 3084 
Q 1678 3084 1418 2786 
Q 1159 2488 1159 1978 
L 1159 0 
L 581 0 
L 581 3500 
L 1159 3500 
L 1159 2956 
Q 1356 3278 1631 3431 
Q 1906 3584 2284 3584 
Q 2666 3584 2933 3390 
Q 3200 3197 3328 2828 
z
" transform="scale(0.015625)"/>
      <path id="DejaVuSans-70" d="M 1159 525 
L 1159 -1331 
L 581 -1331 
L 581 3500 
L 1159 3500 
L 1159 2969 
Q 1341 3281 1617 3432 
Q 1894 3584 2278 3584 
Q 2916 3584 3314 3078 
Q 3713 2572 3713 1747 
Q 3713 922 3314 415 
Q 2916 -91 2278 -91 
Q 1894 -91 1617 61 
Q 1341 213 1159 525 
z
M 3116 1747 
Q 3116 2381 2855 2742 
Q 2594 3103 2138 3103 
Q 1681 3103 1420 2742 
Q 1159 2381 1159 1747 
Q 1159 1113 1420 752 
Q 1681 391 2138 391 
Q 2594 391 2855 752 
Q 3116 1113 3116 1747 
z
" transform="scale(0.015625)"/>
      <path id="DejaVuSans-72" d="M 2631 2963 
Q 2534 3019 2420 3045 
Q 2306 3072 2169 3072 
Q 1681 3072 1420 2755 
Q 1159 2438 1159 1844 
L 1159 0 
L 581 0 
L 581 3500 
L 1159 3500 
L 1159 2956 
Q 1341 3275 1631 3429 
Q 1922 3584 2338 3584 
Q 2397 3584 2469 3576 
Q 2541 3569 2628 3553 
L 2631 2963 
z
" transform="scale(0.015625)"/>
      <path id="DejaVuSans-20" transform="scale(0.015625)"/>
      <path id="DejaVuSans-2d" d="M 313 2009 
L 1997 2009 
L 1997 1497 
L 313 1497 
L 313 2009 
z
" transform="scale(0.015625)"/>
      <path id="DejaVuSans-45" d="M 628 4666 
L 3578 4666 
L 3578 4134 
L 1259 4134 
L 1259 2753 
L 3481 2753 
L 3481 2222 
L 1259 2222 
L 1259 531 
L 3634 531 
L 3634 0 
L 628 0 
L 628 4666 
z
" transform="scale(0.015625)"/>
      <path id="DejaVuSans-63" d="M 3122 3366 
L 3122 2828 
Q 2878 2963 2633 3030 
Q 2388 3097 2138 3097 
Q 1578 3097 1268 2742 
Q 959 2388 959 1747 
Q 959 1106 1268 751 
Q 1578 397 2138 397 
Q 2388 397 2633 464 
Q 2878 531 3122 666 
L 3122 134 
Q 2881 22 2623 -34 
Q 2366 -91 2075 -91 
Q 1284 -91 818 406 
Q 353 903 353 1747 
Q 353 2603 823 3093 
Q 1294 3584 2113 3584 
Q 2378 3584 2631 3529 
Q 2884 3475 3122 3366 
z
" transform="scale(0.015625)"/>
      <path id="DejaVuSans-68" d="M 3513 2113 
L 3513 0 
L 2938 0 
L 2938 2094 
Q 2938 2591 2744 2837 
Q 2550 3084 2163 3084 
Q 1697 3084 1428 2787 
Q 1159 2491 1159 1978 
L 1159 0 
L 581 0 
L 581 4863 
L 1159 4863 
L 1159 2956 
Q 1366 3272 1645 3428 
Q 1925 3584 2291 3584 
Q 2894 3584 3203 3211 
Q 3513 2838 3513 2113 
z
" transform="scale(0.015625)"/>
     </defs>
     <use xlink:href="#DejaVuSans-43"/>
     <use xlink:href="#DejaVuSans-6f" transform="translate(69.824219 0)"/>
     <use xlink:href="#DejaVuSans-6d" transform="translate(131.005859 0)"/>
     <use xlink:href="#DejaVuSans-70" transform="translate(228.417969 0)"/>
     <use xlink:href="#DejaVuSans-61" transform="translate(291.894531 0)"/>
     <use xlink:href="#DejaVuSans-72" transform="translate(353.173828 0)"/>
     <use xlink:href="#DejaVuSans-65" transform="translate(392.037109 0)"/>
     <use xlink:href="#DejaVuSans-20" transform="translate(453.560547 0)"/>
     <use xlink:href="#DejaVuSans-2d" transform="translate(485.347656 0)"/>
     <use xlink:href="#DejaVuSans-20" transform="translate(521.431641 0)"/>
     <use xlink:href="#DejaVuSans-45" transform="translate(553.21875 0)"/>
     <use xlink:href="#DejaVuSans-70" transform="translate(616.402344 0)"/>
     <use xlink:href="#DejaVuSans-6f" transform="translate(679.878906 0)"/>
     <use xlink:href="#DejaVuSans-63" transform="translate(741.060547 0)"/>
     <use xlink:href="#DejaVuSans-68" transform="translate(796.041016 0)"/>
     <use xlink:href="#DejaVuSans-20" transform="translate(859.419922 0)"/>
     <use xlink:href="#DejaVuSans-31" transform="translate(891.207031 0)"/>
     <use xlink:href="#DejaVuSans-32" transform="translate(954.830078 0)"/>
     <use xlink:href="#DejaVuSans-30" transform="translate(1018.453125 0)"/>
     <use xlink:href="#DejaVuSans-30" transform="translate(1082.076172 0)"/>
    </g>
   </g>
   <g id="legend_1">
    <g id="patch_7">
     <path d="M 64.6 78.82825 
L 181.128125 78.82825 
Q 183.128125 78.82825 183.128125 76.82825 
L 183.128125 48.472 
Q 183.128125 46.472 181.128125 46.472 
L 64.6 46.472 
Q 62.6 46.472 62.6 48.472 
L 62.6 76.82825 
Q 62.6 78.82825 64.6 78.82825 
z
" style="fill: #ffffff; opacity: 0.8; stroke: #cccccc; stroke-linejoin: miter"/>
    </g>
    <g id="line2d_39">
     <path d="M 66.6 54.570437 
L 76.6 54.570437 
L 86.6 54.570437 
" style="fill: none; stroke: #1f77b4; stroke-width: 1.5; stroke-linecap: square"/>
    </g>
    <g id="text_22">
     <!-- Pred: Sample 1 -->
     <g transform="translate(94.6 58.070437) scale(0.1 -0.1)">
      <defs>
       <path id="DejaVuSans-50" d="M 1259 4147 
L 1259 2394 
L 2053 2394 
Q 2494 2394 2734 2622 
Q 2975 2850 2975 3272 
Q 2975 3691 2734 3919 
Q 2494 4147 2053 4147 
L 1259 4147 
z
M 628 4666 
L 2053 4666 
Q 2838 4666 3239 4311 
Q 3641 3956 3641 3272 
Q 3641 2581 3239 2228 
Q 2838 1875 2053 1875 
L 1259 1875 
L 1259 0 
L 628 0 
L 628 4666 
z
" transform="scale(0.015625)"/>
       <path id="DejaVuSans-3a" d="M 750 794 
L 1409 794 
L 1409 0 
L 750 0 
L 750 794 
z
M 750 3309 
L 1409 3309 
L 1409 2516 
L 750 2516 
L 750 3309 
z
" transform="scale(0.015625)"/>
       <path id="DejaVuSans-53" d="M 3425 4513 
L 3425 3897 
Q 3066 4069 2747 4153 
Q 2428 4238 2131 4238 
Q 1616 4238 1336 4038 
Q 1056 3838 1056 3469 
Q 1056 3159 1242 3001 
Q 1428 2844 1947 2747 
L 2328 2669 
Q 3034 2534 3370 2195 
Q 3706 1856 3706 1288 
Q 3706 609 3251 259 
Q 2797 -91 1919 -91 
Q 1588 -91 1214 -16 
Q 841 59 441 206 
L 441 856 
Q 825 641 1194 531 
Q 1563 422 1919 422 
Q 2459 422 2753 634 
Q 3047 847 3047 1241 
Q 3047 1584 2836 1778 
Q 2625 1972 2144 2069 
L 1759 2144 
Q 1053 2284 737 2584 
Q 422 2884 422 3419 
Q 422 4038 858 4394 
Q 1294 4750 2059 4750 
Q 2388 4750 2728 4690 
Q 3069 4631 3425 4513 
z
" transform="scale(0.015625)"/>
      </defs>
      <use xlink:href="#DejaVuSans-50"/>
      <use xlink:href="#DejaVuSans-72" transform="translate(58.552734 0)"/>
      <use xlink:href="#DejaVuSans-65" transform="translate(97.416016 0)"/>
      <use xlink:href="#DejaVuSans-64" transform="translate(158.939453 0)"/>
      <use xlink:href="#DejaVuSans-3a" transform="translate(222.416016 0)"/>
      <use xlink:href="#DejaVuSans-20" transform="translate(256.107422 0)"/>
      <use xlink:href="#DejaVuSans-53" transform="translate(287.894531 0)"/>
      <use xlink:href="#DejaVuSans-61" transform="translate(351.371094 0)"/>
      <use xlink:href="#DejaVuSans-6d" transform="translate(412.650391 0)"/>
      <use xlink:href="#DejaVuSans-70" transform="translate(510.0625 0)"/>
      <use xlink:href="#DejaVuSans-6c" transform="translate(573.539062 0)"/>
      <use xlink:href="#DejaVuSans-65" transform="translate(601.322266 0)"/>
      <use xlink:href="#DejaVuSans-20" transform="translate(662.845703 0)"/>
      <use xlink:href="#DejaVuSans-31" transform="translate(694.632812 0)"/>
     </g>
    </g>
    <g id="line2d_40">
     <path d="M 66.6 69.248562 
L 76.6 69.248562 
L 86.6 69.248562 
" style="fill: none; stroke: #ff7f0e; stroke-opacity: 0.5; stroke-width: 1.5; stroke-linecap: square"/>
    </g>
    <g id="text_23">
     <!-- Target: Sample 1 -->
     <g transform="translate(94.6 72.748562) scale(0.1 -0.1)">
      <defs>
       <path id="DejaVuSans-54" d="M -19 4666 
L 3928 4666 
L 3928 4134 
L 2272 4134 
L 2272 0 
L 1638 0 
L 1638 4134 
L -19 4134 
L -19 4666 
z
" transform="scale(0.015625)"/>
       <path id="DejaVuSans-67" d="M 2906 1791 
Q 2906 2416 2648 2759 
Q 2391 3103 1925 3103 
Q 1463 3103 1205 2759 
Q 947 2416 947 1791 
Q 947 1169 1205 825 
Q 1463 481 1925 481 
Q 2391 481 2648 825 
Q 2906 1169 2906 1791 
z
M 3481 434 
Q 3481 -459 3084 -895 
Q 2688 -1331 1869 -1331 
Q 1566 -1331 1297 -1286 
Q 1028 -1241 775 -1147 
L 775 -588 
Q 1028 -725 1275 -790 
Q 1522 -856 1778 -856 
Q 2344 -856 2625 -561 
Q 2906 -266 2906 331 
L 2906 616 
Q 2728 306 2450 153 
Q 2172 0 1784 0 
Q 1141 0 747 490 
Q 353 981 353 1791 
Q 353 2603 747 3093 
Q 1141 3584 1784 3584 
Q 2172 3584 2450 3431 
Q 2728 3278 2906 2969 
L 2906 3500 
L 3481 3500 
L 3481 434 
z
" transform="scale(0.015625)"/>
       <path id="DejaVuSans-74" d="M 1172 4494 
L 1172 3500 
L 2356 3500 
L 2356 3053 
L 1172 3053 
L 1172 1153 
Q 1172 725 1289 603 
Q 1406 481 1766 481 
L 2356 481 
L 2356 0 
L 1766 0 
Q 1100 0 847 248 
Q 594 497 594 1153 
L 594 3053 
L 172 3053 
L 172 3500 
L 594 3500 
L 594 4494 
L 1172 4494 
z
" transform="scale(0.015625)"/>
      </defs>
      <use xlink:href="#DejaVuSans-54"/>
      <use xlink:href="#DejaVuSans-61" transform="translate(44.583984 0)"/>
      <use xlink:href="#DejaVuSans-72" transform="translate(105.863281 0)"/>
      <use xlink:href="#DejaVuSans-67" transform="translate(145.226562 0)"/>
      <use xlink:href="#DejaVuSans-65" transform="translate(208.703125 0)"/>
      <use xlink:href="#DejaVuSans-74" transform="translate(270.226562 0)"/>
      <use xlink:href="#DejaVuSans-3a" transform="translate(309.435547 0)"/>
      <use xlink:href="#DejaVuSans-20" transform="translate(343.126953 0)"/>
      <use xlink:href="#DejaVuSans-53" transform="translate(374.914062 0)"/>
      <use xlink:href="#DejaVuSans-61" transform="translate(438.390625 0)"/>
      <use xlink:href="#DejaVuSans-6d" transform="translate(499.669922 0)"/>
      <use xlink:href="#DejaVuSans-70" transform="translate(597.082031 0)"/>
      <use xlink:href="#DejaVuSans-6c" transform="translate(660.558594 0)"/>
      <use xlink:href="#DejaVuSans-65" transform="translate(688.341797 0)"/>
      <use xlink:href="#DejaVuSans-20" transform="translate(749.865234 0)"/>
      <use xlink:href="#DejaVuSans-31" transform="translate(781.652344 0)"/>
     </g>
    </g>
   </g>
  </g>
 </g>
 <defs>
  <clipPath id="p463c196c8e">
   <rect x="57.6" y="41.472" width="357.12" height="266.112"/>
  </clipPath>
 </defs>
</svg>
