<?xml version="1.0" encoding="utf-8" standalone="no"?>
<!DOCTYPE svg PUBLIC "-//W3C//DTD SVG 1.1//EN"
  "http://www.w3.org/Graphics/SVG/1.1/DTD/svg11.dtd">
<svg xmlns:xlink="http://www.w3.org/1999/xlink" width="460.8pt" height="345.6pt" viewBox="0 0 460.8 345.6" xmlns="http://www.w3.org/2000/svg" version="1.1">
 <metadata>
  <rdf:RDF xmlns:dc="http://purl.org/dc/elements/1.1/" xmlns:cc="http://creativecommons.org/ns#" xmlns:rdf="http://www.w3.org/1999/02/22-rdf-syntax-ns#">
   <cc:Work>
    <dc:type rdf:resource="http://purl.org/dc/dcmitype/StillImage"/>
    <dc:date>2025-06-02T19:19:10.582089</dc:date>
    <dc:format>image/svg+xml</dc:format>
    <dc:creator>
     <cc:Agent>
      <dc:title>Matplotlib v3.10.3, https://matplotlib.org/</dc:title>
     </cc:Agent>
    </dc:creator>
   </cc:Work>
  </rdf:RDF>
 </metadata>
 <defs>
  <style type="text/css">*{stroke-linejoin: round; stroke-linecap: butt}</style>
 </defs>
 <g id="figure_1">
  <g id="patch_1">
   <path d="M 0 345.6 
L 460.8 345.6 
L 460.8 0 
L 0 0 
z
" style="fill: #ffffff"/>
  </g>
  <g id="axes_1">
   <g id="patch_2">
    <path d="M 57.6 307.584 
L 414.72 307.584 
L 414.72 41.472 
L 57.6 41.472 
z
" style="fill: #ffffff"/>
   </g>
   <g id="matplotlib.axis_1">
    <g id="xtick_1">
     <g id="line2d_1">
      <path d="M 64.718148 307.584 
L 64.718148 41.472 
" clip-path="url(#pb483643671)" style="fill: none; stroke: #b0b0b0; stroke-opacity: 0.5; stroke-width: 0.8; stroke-linecap: square"/>
     </g>
     <g id="line2d_2">
      <defs>
       <path id="m836aa57a1b" d="M 0 0 
L 0 3.5 
" style="stroke: #000000; stroke-width: 0.8"/>
      </defs>
      <g>
       <use xlink:href="#m836aa57a1b" x="64.718148" y="307.584" style="stroke: #000000; stroke-width: 0.8"/>
      </g>
     </g>
     <g id="text_1">
      <!-- −1.5 -->
      <g transform="translate(52.576741 322.182437) scale(0.1 -0.1)">
       <defs>
        <path id="DejaVuSans-2212" d="M 678 2272 
L 4684 2272 
L 4684 1741 
L 678 1741 
L 678 2272 
z
" transform="scale(0.015625)"/>
        <path id="DejaVuSans-31" d="M 794 531 
L 1825 531 
L 1825 4091 
L 703 3866 
L 703 4441 
L 1819 4666 
L 2450 4666 
L 2450 531 
L 3481 531 
L 3481 0 
L 794 0 
L 794 531 
z
" transform="scale(0.015625)"/>
        <path id="DejaVuSans-2e" d="M 684 794 
L 1344 794 
L 1344 0 
L 684 0 
L 684 794 
z
" transform="scale(0.015625)"/>
        <path id="DejaVuSans-35" d="M 691 4666 
L 3169 4666 
L 3169 4134 
L 1269 4134 
L 1269 2991 
Q 1406 3038 1543 3061 
Q 1681 3084 1819 3084 
Q 2600 3084 3056 2656 
Q 3513 2228 3513 1497 
Q 3513 744 3044 326 
Q 2575 -91 1722 -91 
Q 1428 -91 1123 -41 
Q 819 9 494 109 
L 494 744 
Q 775 591 1075 516 
Q 1375 441 1709 441 
Q 2250 441 2565 725 
Q 2881 1009 2881 1497 
Q 2881 1984 2565 2268 
Q 2250 2553 1709 2553 
Q 1456 2553 1204 2497 
Q 953 2441 691 2322 
L 691 4666 
z
" transform="scale(0.015625)"/>
       </defs>
       <use xlink:href="#DejaVuSans-2212"/>
       <use xlink:href="#DejaVuSans-31" transform="translate(83.789062 0)"/>
       <use xlink:href="#DejaVuSans-2e" transform="translate(147.412109 0)"/>
       <use xlink:href="#DejaVuSans-35" transform="translate(179.199219 0)"/>
      </g>
     </g>
    </g>
    <g id="xtick_2">
     <g id="line2d_3">
      <path d="M 121.491608 307.584 
L 121.491608 41.472 
" clip-path="url(#pb483643671)" style="fill: none; stroke: #b0b0b0; stroke-opacity: 0.5; stroke-width: 0.8; stroke-linecap: square"/>
     </g>
     <g id="line2d_4">
      <g>
       <use xlink:href="#m836aa57a1b" x="121.491608" y="307.584" style="stroke: #000000; stroke-width: 0.8"/>
      </g>
     </g>
     <g id="text_2">
      <!-- −1.0 -->
      <g transform="translate(109.350202 322.182437) scale(0.1 -0.1)">
       <defs>
        <path id="DejaVuSans-30" d="M 2034 4250 
Q 1547 4250 1301 3770 
Q 1056 3291 1056 2328 
Q 1056 1369 1301 889 
Q 1547 409 2034 409 
Q 2525 409 2770 889 
Q 3016 1369 3016 2328 
Q 3016 3291 2770 3770 
Q 2525 4250 2034 4250 
z
M 2034 4750 
Q 2819 4750 3233 4129 
Q 3647 3509 3647 2328 
Q 3647 1150 3233 529 
Q 2819 -91 2034 -91 
Q 1250 -91 836 529 
Q 422 1150 422 2328 
Q 422 3509 836 4129 
Q 1250 4750 2034 4750 
z
" transform="scale(0.015625)"/>
       </defs>
       <use xlink:href="#DejaVuSans-2212"/>
       <use xlink:href="#DejaVuSans-31" transform="translate(83.789062 0)"/>
       <use xlink:href="#DejaVuSans-2e" transform="translate(147.412109 0)"/>
       <use xlink:href="#DejaVuSans-30" transform="translate(179.199219 0)"/>
      </g>
     </g>
    </g>
    <g id="xtick_3">
     <g id="line2d_5">
      <path d="M 178.265068 307.584 
L 178.265068 41.472 
" clip-path="url(#pb483643671)" style="fill: none; stroke: #b0b0b0; stroke-opacity: 0.5; stroke-width: 0.8; stroke-linecap: square"/>
     </g>
     <g id="line2d_6">
      <g>
       <use xlink:href="#m836aa57a1b" x="178.265068" y="307.584" style="stroke: #000000; stroke-width: 0.8"/>
      </g>
     </g>
     <g id="text_3">
      <!-- −0.5 -->
      <g transform="translate(166.123662 322.182437) scale(0.1 -0.1)">
       <use xlink:href="#DejaVuSans-2212"/>
       <use xlink:href="#DejaVuSans-30" transform="translate(83.789062 0)"/>
       <use xlink:href="#DejaVuSans-2e" transform="translate(147.412109 0)"/>
       <use xlink:href="#DejaVuSans-35" transform="translate(179.199219 0)"/>
      </g>
     </g>
    </g>
    <g id="xtick_4">
     <g id="line2d_7">
      <path d="M 235.038528 307.584 
L 235.038528 41.472 
" clip-path="url(#pb483643671)" style="fill: none; stroke: #b0b0b0; stroke-opacity: 0.5; stroke-width: 0.8; stroke-linecap: square"/>
     </g>
     <g id="line2d_8">
      <g>
       <use xlink:href="#m836aa57a1b" x="235.038528" y="307.584" style="stroke: #000000; stroke-width: 0.8"/>
      </g>
     </g>
     <g id="text_4">
      <!-- 0.0 -->
      <g transform="translate(227.086965 322.182437) scale(0.1 -0.1)">
       <use xlink:href="#DejaVuSans-30"/>
       <use xlink:href="#DejaVuSans-2e" transform="translate(63.623047 0)"/>
       <use xlink:href="#DejaVuSans-30" transform="translate(95.410156 0)"/>
      </g>
     </g>
    </g>
    <g id="xtick_5">
     <g id="line2d_9">
      <path d="M 291.811988 307.584 
L 291.811988 41.472 
" clip-path="url(#pb483643671)" style="fill: none; stroke: #b0b0b0; stroke-opacity: 0.5; stroke-width: 0.8; stroke-linecap: square"/>
     </g>
     <g id="line2d_10">
      <g>
       <use xlink:href="#m836aa57a1b" x="291.811988" y="307.584" style="stroke: #000000; stroke-width: 0.8"/>
      </g>
     </g>
     <g id="text_5">
      <!-- 0.5 -->
      <g transform="translate(283.860426 322.182437) scale(0.1 -0.1)">
       <use xlink:href="#DejaVuSans-30"/>
       <use xlink:href="#DejaVuSans-2e" transform="translate(63.623047 0)"/>
       <use xlink:href="#DejaVuSans-35" transform="translate(95.410156 0)"/>
      </g>
     </g>
    </g>
    <g id="xtick_6">
     <g id="line2d_11">
      <path d="M 348.585448 307.584 
L 348.585448 41.472 
" clip-path="url(#pb483643671)" style="fill: none; stroke: #b0b0b0; stroke-opacity: 0.5; stroke-width: 0.8; stroke-linecap: square"/>
     </g>
     <g id="line2d_12">
      <g>
       <use xlink:href="#m836aa57a1b" x="348.585448" y="307.584" style="stroke: #000000; stroke-width: 0.8"/>
      </g>
     </g>
     <g id="text_6">
      <!-- 1.0 -->
      <g transform="translate(340.633886 322.182437) scale(0.1 -0.1)">
       <use xlink:href="#DejaVuSans-31"/>
       <use xlink:href="#DejaVuSans-2e" transform="translate(63.623047 0)"/>
       <use xlink:href="#DejaVuSans-30" transform="translate(95.410156 0)"/>
      </g>
     </g>
    </g>
    <g id="xtick_7">
     <g id="line2d_13">
      <path d="M 405.358908 307.584 
L 405.358908 41.472 
" clip-path="url(#pb483643671)" style="fill: none; stroke: #b0b0b0; stroke-opacity: 0.5; stroke-width: 0.8; stroke-linecap: square"/>
     </g>
     <g id="line2d_14">
      <g>
       <use xlink:href="#m836aa57a1b" x="405.358908" y="307.584" style="stroke: #000000; stroke-width: 0.8"/>
      </g>
     </g>
     <g id="text_7">
      <!-- 1.5 -->
      <g transform="translate(397.407346 322.182437) scale(0.1 -0.1)">
       <use xlink:href="#DejaVuSans-31"/>
       <use xlink:href="#DejaVuSans-2e" transform="translate(63.623047 0)"/>
       <use xlink:href="#DejaVuSans-35" transform="translate(95.410156 0)"/>
      </g>
     </g>
    </g>
    <g id="text_8">
     <!-- Index -->
     <g transform="translate(222.393594 335.860562) scale(0.1 -0.1)">
      <defs>
       <path id="DejaVuSans-49" d="M 628 4666 
L 1259 4666 
L 1259 0 
L 628 0 
L 628 4666 
z
" transform="scale(0.015625)"/>
       <path id="DejaVuSans-6e" d="M 3513 2113 
L 3513 0 
L 2938 0 
L 2938 2094 
Q 2938 2591 2744 2837 
Q 2550 3084 2163 3084 
Q 1697 3084 1428 2787 
Q 1159 2491 1159 1978 
L 1159 0 
L 581 0 
L 581 3500 
L 1159 3500 
L 1159 2956 
Q 1366 3272 1645 3428 
Q 1925 3584 2291 3584 
Q 2894 3584 3203 3211 
Q 3513 2838 3513 2113 
z
" transform="scale(0.015625)"/>
       <path id="DejaVuSans-64" d="M 2906 2969 
L 2906 4863 
L 3481 4863 
L 3481 0 
L 2906 0 
L 2906 525 
Q 2725 213 2448 61 
Q 2172 -91 1784 -91 
Q 1150 -91 751 415 
Q 353 922 353 1747 
Q 353 2572 751 3078 
Q 1150 3584 1784 3584 
Q 2172 3584 2448 3432 
Q 2725 3281 2906 2969 
z
M 947 1747 
Q 947 1113 1208 752 
Q 1469 391 1925 391 
Q 2381 391 2643 752 
Q 2906 1113 2906 1747 
Q 2906 2381 2643 2742 
Q 2381 3103 1925 3103 
Q 1469 3103 1208 2742 
Q 947 2381 947 1747 
z
" transform="scale(0.015625)"/>
       <path id="DejaVuSans-65" d="M 3597 1894 
L 3597 1613 
L 953 1613 
Q 991 1019 1311 708 
Q 1631 397 2203 397 
Q 2534 397 2845 478 
Q 3156 559 3463 722 
L 3463 178 
Q 3153 47 2828 -22 
Q 2503 -91 2169 -91 
Q 1331 -91 842 396 
Q 353 884 353 1716 
Q 353 2575 817 3079 
Q 1281 3584 2069 3584 
Q 2775 3584 3186 3129 
Q 3597 2675 3597 1894 
z
M 3022 2063 
Q 3016 2534 2758 2815 
Q 2500 3097 2075 3097 
Q 1594 3097 1305 2825 
Q 1016 2553 972 2059 
L 3022 2063 
z
" transform="scale(0.015625)"/>
       <path id="DejaVuSans-78" d="M 3513 3500 
L 2247 1797 
L 3578 0 
L 2900 0 
L 1881 1375 
L 863 0 
L 184 0 
L 1544 1831 
L 300 3500 
L 978 3500 
L 1906 2253 
L 2834 3500 
L 3513 3500 
z
" transform="scale(0.015625)"/>
      </defs>
      <use xlink:href="#DejaVuSans-49"/>
      <use xlink:href="#DejaVuSans-6e" transform="translate(29.492188 0)"/>
      <use xlink:href="#DejaVuSans-64" transform="translate(92.871094 0)"/>
      <use xlink:href="#DejaVuSans-65" transform="translate(156.347656 0)"/>
      <use xlink:href="#DejaVuSans-78" transform="translate(216.121094 0)"/>
     </g>
    </g>
   </g>
   <g id="matplotlib.axis_2">
    <g id="ytick_1">
     <g id="line2d_15">
      <path d="M 57.6 295.546377 
L 414.72 295.546377 
" clip-path="url(#pb483643671)" style="fill: none; stroke: #b0b0b0; stroke-opacity: 0.5; stroke-width: 0.8; stroke-linecap: square"/>
     </g>
     <g id="line2d_16">
      <defs>
       <path id="mc1ac030d6c" d="M 0 0 
L -3.5 0 
" style="stroke: #000000; stroke-width: 0.8"/>
      </defs>
      <g>
       <use xlink:href="#mc1ac030d6c" x="57.6" y="295.546377" style="stroke: #000000; stroke-width: 0.8"/>
      </g>
     </g>
     <g id="text_9">
      <!-- −1.00 -->
      <g transform="translate(19.954687 299.345596) scale(0.1 -0.1)">
       <use xlink:href="#DejaVuSans-2212"/>
       <use xlink:href="#DejaVuSans-31" transform="translate(83.789062 0)"/>
       <use xlink:href="#DejaVuSans-2e" transform="translate(147.412109 0)"/>
       <use xlink:href="#DejaVuSans-30" transform="translate(179.199219 0)"/>
       <use xlink:href="#DejaVuSans-30" transform="translate(242.822266 0)"/>
      </g>
     </g>
    </g>
    <g id="ytick_2">
     <g id="line2d_17">
      <path d="M 57.6 265.299073 
L 414.72 265.299073 
" clip-path="url(#pb483643671)" style="fill: none; stroke: #b0b0b0; stroke-opacity: 0.5; stroke-width: 0.8; stroke-linecap: square"/>
     </g>
     <g id="line2d_18">
      <g>
       <use xlink:href="#mc1ac030d6c" x="57.6" y="265.299073" style="stroke: #000000; stroke-width: 0.8"/>
      </g>
     </g>
     <g id="text_10">
      <!-- −0.75 -->
      <g transform="translate(19.954687 269.098292) scale(0.1 -0.1)">
       <defs>
        <path id="DejaVuSans-37" d="M 525 4666 
L 3525 4666 
L 3525 4397 
L 1831 0 
L 1172 0 
L 2766 4134 
L 525 4134 
L 525 4666 
z
" transform="scale(0.015625)"/>
       </defs>
       <use xlink:href="#DejaVuSans-2212"/>
       <use xlink:href="#DejaVuSans-30" transform="translate(83.789062 0)"/>
       <use xlink:href="#DejaVuSans-2e" transform="translate(147.412109 0)"/>
       <use xlink:href="#DejaVuSans-37" transform="translate(179.199219 0)"/>
       <use xlink:href="#DejaVuSans-35" transform="translate(242.822266 0)"/>
      </g>
     </g>
    </g>
    <g id="ytick_3">
     <g id="line2d_19">
      <path d="M 57.6 235.051769 
L 414.72 235.051769 
" clip-path="url(#pb483643671)" style="fill: none; stroke: #b0b0b0; stroke-opacity: 0.5; stroke-width: 0.8; stroke-linecap: square"/>
     </g>
     <g id="line2d_20">
      <g>
       <use xlink:href="#mc1ac030d6c" x="57.6" y="235.051769" style="stroke: #000000; stroke-width: 0.8"/>
      </g>
     </g>
     <g id="text_11">
      <!-- −0.50 -->
      <g transform="translate(19.954687 238.850987) scale(0.1 -0.1)">
       <use xlink:href="#DejaVuSans-2212"/>
       <use xlink:href="#DejaVuSans-30" transform="translate(83.789062 0)"/>
       <use xlink:href="#DejaVuSans-2e" transform="translate(147.412109 0)"/>
       <use xlink:href="#DejaVuSans-35" transform="translate(179.199219 0)"/>
       <use xlink:href="#DejaVuSans-30" transform="translate(242.822266 0)"/>
      </g>
     </g>
    </g>
    <g id="ytick_4">
     <g id="line2d_21">
      <path d="M 57.6 204.804464 
L 414.72 204.804464 
" clip-path="url(#pb483643671)" style="fill: none; stroke: #b0b0b0; stroke-opacity: 0.5; stroke-width: 0.8; stroke-linecap: square"/>
     </g>
     <g id="line2d_22">
      <g>
       <use xlink:href="#mc1ac030d6c" x="57.6" y="204.804464" style="stroke: #000000; stroke-width: 0.8"/>
      </g>
     </g>
     <g id="text_12">
      <!-- −0.25 -->
      <g transform="translate(19.954687 208.603683) scale(0.1 -0.1)">
       <defs>
        <path id="DejaVuSans-32" d="M 1228 531 
L 3431 531 
L 3431 0 
L 469 0 
L 469 531 
Q 828 903 1448 1529 
Q 2069 2156 2228 2338 
Q 2531 2678 2651 2914 
Q 2772 3150 2772 3378 
Q 2772 3750 2511 3984 
Q 2250 4219 1831 4219 
Q 1534 4219 1204 4116 
Q 875 4013 500 3803 
L 500 4441 
Q 881 4594 1212 4672 
Q 1544 4750 1819 4750 
Q 2544 4750 2975 4387 
Q 3406 4025 3406 3419 
Q 3406 3131 3298 2873 
Q 3191 2616 2906 2266 
Q 2828 2175 2409 1742 
Q 1991 1309 1228 531 
z
" transform="scale(0.015625)"/>
       </defs>
       <use xlink:href="#DejaVuSans-2212"/>
       <use xlink:href="#DejaVuSans-30" transform="translate(83.789062 0)"/>
       <use xlink:href="#DejaVuSans-2e" transform="translate(147.412109 0)"/>
       <use xlink:href="#DejaVuSans-32" transform="translate(179.199219 0)"/>
       <use xlink:href="#DejaVuSans-35" transform="translate(242.822266 0)"/>
      </g>
     </g>
    </g>
    <g id="ytick_5">
     <g id="line2d_23">
      <path d="M 57.6 174.55716 
L 414.72 174.55716 
" clip-path="url(#pb483643671)" style="fill: none; stroke: #b0b0b0; stroke-opacity: 0.5; stroke-width: 0.8; stroke-linecap: square"/>
     </g>
     <g id="line2d_24">
      <g>
       <use xlink:href="#mc1ac030d6c" x="57.6" y="174.55716" style="stroke: #000000; stroke-width: 0.8"/>
      </g>
     </g>
     <g id="text_13">
      <!-- 0.00 -->
      <g transform="translate(28.334375 178.356379) scale(0.1 -0.1)">
       <use xlink:href="#DejaVuSans-30"/>
       <use xlink:href="#DejaVuSans-2e" transform="translate(63.623047 0)"/>
       <use xlink:href="#DejaVuSans-30" transform="translate(95.410156 0)"/>
       <use xlink:href="#DejaVuSans-30" transform="translate(159.033203 0)"/>
      </g>
     </g>
    </g>
    <g id="ytick_6">
     <g id="line2d_25">
      <path d="M 57.6 144.309855 
L 414.72 144.309855 
" clip-path="url(#pb483643671)" style="fill: none; stroke: #b0b0b0; stroke-opacity: 0.5; stroke-width: 0.8; stroke-linecap: square"/>
     </g>
     <g id="line2d_26">
      <g>
       <use xlink:href="#mc1ac030d6c" x="57.6" y="144.309855" style="stroke: #000000; stroke-width: 0.8"/>
      </g>
     </g>
     <g id="text_14">
      <!-- 0.25 -->
      <g transform="translate(28.334375 148.109074) scale(0.1 -0.1)">
       <use xlink:href="#DejaVuSans-30"/>
       <use xlink:href="#DejaVuSans-2e" transform="translate(63.623047 0)"/>
       <use xlink:href="#DejaVuSans-32" transform="translate(95.410156 0)"/>
       <use xlink:href="#DejaVuSans-35" transform="translate(159.033203 0)"/>
      </g>
     </g>
    </g>
    <g id="ytick_7">
     <g id="line2d_27">
      <path d="M 57.6 114.062551 
L 414.72 114.062551 
" clip-path="url(#pb483643671)" style="fill: none; stroke: #b0b0b0; stroke-opacity: 0.5; stroke-width: 0.8; stroke-linecap: square"/>
     </g>
     <g id="line2d_28">
      <g>
       <use xlink:href="#mc1ac030d6c" x="57.6" y="114.062551" style="stroke: #000000; stroke-width: 0.8"/>
      </g>
     </g>
     <g id="text_15">
      <!-- 0.50 -->
      <g transform="translate(28.334375 117.86177) scale(0.1 -0.1)">
       <use xlink:href="#DejaVuSans-30"/>
       <use xlink:href="#DejaVuSans-2e" transform="translate(63.623047 0)"/>
       <use xlink:href="#DejaVuSans-35" transform="translate(95.410156 0)"/>
       <use xlink:href="#DejaVuSans-30" transform="translate(159.033203 0)"/>
      </g>
     </g>
    </g>
    <g id="ytick_8">
     <g id="line2d_29">
      <path d="M 57.6 83.815247 
L 414.72 83.815247 
" clip-path="url(#pb483643671)" style="fill: none; stroke: #b0b0b0; stroke-opacity: 0.5; stroke-width: 0.8; stroke-linecap: square"/>
     </g>
     <g id="line2d_30">
      <g>
       <use xlink:href="#mc1ac030d6c" x="57.6" y="83.815247" style="stroke: #000000; stroke-width: 0.8"/>
      </g>
     </g>
     <g id="text_16">
      <!-- 0.75 -->
      <g transform="translate(28.334375 87.614465) scale(0.1 -0.1)">
       <use xlink:href="#DejaVuSans-30"/>
       <use xlink:href="#DejaVuSans-2e" transform="translate(63.623047 0)"/>
       <use xlink:href="#DejaVuSans-37" transform="translate(95.410156 0)"/>
       <use xlink:href="#DejaVuSans-35" transform="translate(159.033203 0)"/>
      </g>
     </g>
    </g>
    <g id="ytick_9">
     <g id="line2d_31">
      <path d="M 57.6 53.567942 
L 414.72 53.567942 
" clip-path="url(#pb483643671)" style="fill: none; stroke: #b0b0b0; stroke-opacity: 0.5; stroke-width: 0.8; stroke-linecap: square"/>
     </g>
     <g id="line2d_32">
      <g>
       <use xlink:href="#mc1ac030d6c" x="57.6" y="53.567942" style="stroke: #000000; stroke-width: 0.8"/>
      </g>
     </g>
     <g id="text_17">
      <!-- 1.00 -->
      <g transform="translate(28.334375 57.367161) scale(0.1 -0.1)">
       <use xlink:href="#DejaVuSans-31"/>
       <use xlink:href="#DejaVuSans-2e" transform="translate(63.623047 0)"/>
       <use xlink:href="#DejaVuSans-30" transform="translate(95.410156 0)"/>
       <use xlink:href="#DejaVuSans-30" transform="translate(159.033203 0)"/>
      </g>
     </g>
    </g>
    <g id="text_18">
     <!-- Value -->
     <g transform="translate(13.875 188.25925) rotate(-90) scale(0.1 -0.1)">
      <defs>
       <path id="DejaVuSans-56" d="M 1831 0 
L 50 4666 
L 709 4666 
L 2188 738 
L 3669 4666 
L 4325 4666 
L 2547 0 
L 1831 0 
z
" transform="scale(0.015625)"/>
       <path id="DejaVuSans-61" d="M 2194 1759 
Q 1497 1759 1228 1600 
Q 959 1441 959 1056 
Q 959 750 1161 570 
Q 1363 391 1709 391 
Q 2188 391 2477 730 
Q 2766 1069 2766 1631 
L 2766 1759 
L 2194 1759 
z
M 3341 1997 
L 3341 0 
L 2766 0 
L 2766 531 
Q 2569 213 2275 61 
Q 1981 -91 1556 -91 
Q 1019 -91 701 211 
Q 384 513 384 1019 
Q 384 1609 779 1909 
Q 1175 2209 1959 2209 
L 2766 2209 
L 2766 2266 
Q 2766 2663 2505 2880 
Q 2244 3097 1772 3097 
Q 1472 3097 1187 3025 
Q 903 2953 641 2809 
L 641 3341 
Q 956 3463 1253 3523 
Q 1550 3584 1831 3584 
Q 2591 3584 2966 3190 
Q 3341 2797 3341 1997 
z
" transform="scale(0.015625)"/>
       <path id="DejaVuSans-6c" d="M 603 4863 
L 1178 4863 
L 1178 0 
L 603 0 
L 603 4863 
z
" transform="scale(0.015625)"/>
       <path id="DejaVuSans-75" d="M 544 1381 
L 544 3500 
L 1119 3500 
L 1119 1403 
Q 1119 906 1312 657 
Q 1506 409 1894 409 
Q 2359 409 2629 706 
Q 2900 1003 2900 1516 
L 2900 3500 
L 3475 3500 
L 3475 0 
L 2900 0 
L 2900 538 
Q 2691 219 2414 64 
Q 2138 -91 1772 -91 
Q 1169 -91 856 284 
Q 544 659 544 1381 
z
M 1991 3584 
L 1991 3584 
z
" transform="scale(0.015625)"/>
      </defs>
      <use xlink:href="#DejaVuSans-56"/>
      <use xlink:href="#DejaVuSans-61" transform="translate(60.658203 0)"/>
      <use xlink:href="#DejaVuSans-6c" transform="translate(121.9375 0)"/>
      <use xlink:href="#DejaVuSans-75" transform="translate(149.720703 0)"/>
      <use xlink:href="#DejaVuSans-65" transform="translate(213.099609 0)"/>
     </g>
    </g>
   </g>
   <g id="line2d_33">
    <path d="M 146.080389 293.214403 
L 145.96308 293.679942 
L 145.600401 294.142403 
L 144.448906 294.585579 
L 141.779908 294.981982 
L 136.868615 295.293996 
L 128.828477 295.477276 
L 116.176906 295.488 
L 100.684181 295.291638 
L 87.205441 294.871942 
L 77.676015 294.238323 
L 73.832727 293.42883 
L 74.187529 292.507681 
L 76.493685 291.55726 
L 80.21829 290.664828 
L 84.946443 289.907294 
L 89.621563 289.336394 
L 95.261436 288.968073 
L 106.68335 288.709266 
L 109.723542 288.676936 
L 108.326791 288.592165 
L 101.262432 288.377572 
L 92.173314 287.98409 
L 84.443099 287.401262 
L 80.524526 286.658966 
L 80.658964 285.820288 
L 83.148098 284.967194 
L 87.188995 284.182032 
L 91.676453 283.529159 
L 95.988338 283.041523 
L 106.309476 282.349831 
L 105.245098 282.172081 
L 94.956825 281.502737 
L 89.735995 280.954322 
L 87.030788 280.280319 
L 87.164752 279.529102 
L 89.269658 278.763939 
L 92.605026 278.048087 
L 99.676234 276.935054 
L 105.139478 276.266546 
L 105.976224 276.013891 
L 104.775215 275.745117 
L 98.223472 274.986451 
L 95.245613 274.458784 
L 93.836017 273.845538 
L 94.171421 273.180723 
L 95.858408 272.507693 
L 98.363284 271.86894 
L 107.051985 270.035671 
L 107.376399 269.703076 
L 106.500548 269.359079 
L 102.742076 268.525687 
L 101.173461 268.012746 
L 100.518827 267.444961 
L 100.901418 266.844696 
L 102.146878 266.240183 
L 105.857027 265.120645 
L 109.064373 264.199403 
L 109.928366 263.798723 
L 110.093666 263.412035 
L 109.578762 263.016425 
L 107.553772 262.128334 
L 106.811981 261.622676 
L 106.637233 261.083348 
L 107.10154 260.525602 
L 108.096777 259.967842 
L 113.02369 257.98934 
L 113.577468 257.560586 
L 113.680828 257.137183 
L 113.412223 256.704889 
L 112.511358 255.774877 
L 112.314249 255.272371 
L 112.478357 254.751707 
L 113.020306 254.22329 
L 114.826922 253.186425 
L 116.667296 252.220038 
L 117.301505 251.762532 
L 117.677585 251.313723 
L 117.799732 250.864892 
L 117.60395 249.452927 
L 117.726585 248.95428 
L 118.065089 248.44705 
L 119.279904 247.432195 
L 121.462181 245.977927 
L 122.355364 245.05098 
L 122.739829 244.118617 
L 123.08073 243.15412 
L 123.832044 242.162031 
L 125.031245 241.170757 
L 126.87943 239.733905 
L 127.663846 238.800122 
L 128.679373 236.88772 
L 129.578133 235.905035 
L 132.364061 233.515243 
L 133.018675 232.580085 
L 133.851752 231.145645 
L 134.722195 230.171438 
L 137.75503 227.32049 
L 139.802124 224.453633 
L 143.56197 220.644711 
L 145.070777 218.721838 
L 146.564532 217.265876 
L 148.565503 215.356496 
L 150.080773 213.448144 
L 151.365149 211.989968 
L 154.817386 208.637379 
L 156.79077 206.233567 
L 160.619128 202.413433 
L 162.240242 200.499025 
L 166.295054 196.207224 
L 168.779694 193.33784 
L 172.233975 189.530086 
L 174.315511 187.139052 
L 177.360108 183.813604 
L 179.428203 181.428317 
L 182.461377 178.107594 
L 184.549515 175.730539 
L 215.306385 175.671149 
L 210.689034 175.195934 
L 182.958711 174.721335 
L 185.229427 174.247314 
L 186.629034 173.773731 
L 186.987253 173.300407 
L 190.100336 170.460971 
L 218.215241 144.454868 
L 237.572466 126.062126 
L 247.855115 117.137875 
L 263.478068 103.576504 
L 268.727453 98.914711 
L 276.469971 91.926994 
L 283.197199 85.860023 
L 291.025603 78.864142 
L 295.191652 75.132772 
L 301.917446 69.096341 
L 304.476723 66.770677 
L 307.079409 64.462024 
L 309.093367 62.601459 
L 311.751259 60.297054 
L 313.697004 58.436778 
L 316.386035 56.137262 
L 317.283205 55.208448 
L 317.969757 54.750379 
L 319.066783 54.320796 
L 320.78704 53.952006 
L 323.612364 53.685836 
L 329.325852 53.568 
L 341.22816 53.640029 
L 358.169803 53.929788 
L 373.440635 54.443002 
L 385.460062 55.15752 
L 394.601523 56.022765 
L 398.487273 56.965174 
L 397.461716 57.898799 
L 392.783158 58.7399 
L 384.901938 59.422066 
L 373.993466 59.909349 
L 361.76112 60.203506 
L 336.1925 60.45772 
L 365.274025 61.356506 
L 376.308096 61.996744 
L 384.665182 62.765666 
L 388.294076 63.59437 
L 386.970892 64.404137 
L 382.039499 65.123782 
L 374.391799 65.705038 
L 364.969685 66.13263 
L 343.579384 66.820948 
L 345.05536 67.054507 
L 360.802525 67.848049 
L 369.201546 68.434194 
L 375.572477 69.116036 
L 378.51291 69.843966 
L 377.729983 70.560979 
L 374.036158 71.2159 
L 368.318305 71.774526 
L 355.0032 72.585981 
L 349.848234 72.886961 
L 347.29561 73.174383 
L 348.230985 73.493154 
L 363.155042 74.897316 
L 367.179453 75.508694 
L 368.965602 76.148399 
L 368.346486 76.779746 
L 365.735367 77.370341 
L 361.789911 77.89932 
L 349.799356 79.134199 
L 348.303151 79.49572 
L 348.825182 79.877836 
L 351.058935 80.301643 
L 357.320902 81.30328 
L 359.598728 81.865728 
L 360.518381 82.444308 
L 359.960162 83.016427 
L 358.138454 83.56249 
L 352.493708 84.536781 
L 347.727519 85.380543 
L 346.805748 85.789335 
L 347.070929 86.212103 
L 348.302014 86.661302 
L 351.708493 87.653145 
L 352.845775 88.184634 
L 353.147042 88.72389 
L 352.548068 89.257167 
L 351.18896 89.773087 
L 344.434139 91.620584 
L 343.901138 92.060148 
L 344.048516 92.510161 
L 345.551334 93.462623 
L 346.29971 93.964436 
L 346.700324 94.476202 
L 346.588782 94.989957 
L 345.959846 95.497872 
L 343.675076 96.47636 
L 341.38504 97.405124 
L 340.691342 97.861548 
L 340.401458 98.320749 
L 340.46863 98.787681 
L 341.316075 100.248929 
L 341.281275 100.74886 
L 340.939569 101.247962 
L 340.315898 101.74211 
L 337.046449 103.644632 
L 336.584626 104.11113 
L 336.358767 104.580672 
L 336.368344 105.537259 
L 336.40372 106.024649 
L 336.321659 106.515718 
L 336.059632 107.007594 
L 335.601335 107.497234 
L 334.264068 108.461869 
L 332.90134 109.406426 
L 332.405291 109.875528 
L 332.079768 110.345965 
L 331.823534 111.298253 
L 331.618344 112.266926 
L 331.353773 112.753682 
L 330.377141 113.720602 
L 327.974914 115.607554 
L 327.419281 116.548127 
L 327.046483 117.985769 
L 326.791082 118.469312 
L 325.892518 119.431646 
L 323.604013 121.315829 
L 322.987604 122.253871 
L 322.337626 124.166849 
L 321.586454 125.129706 
L 319.039176 127.494932 
L 318.486535 128.439234 
L 317.72247 130.360942 
L 316.970784 131.327083 
L 314.187949 134.181168 
L 313.406876 135.616845 
L 312.832625 136.584537 
L 311.960321 137.551421 
L 309.29897 139.931937 
L 308.615917 140.882148 
L 307.424187 142.804678 
L 306.485984 143.765501 
L 304.369424 145.662796 
L 303.604046 146.608643 
L 301.973735 148.997377 
L 300.534299 150.427427 
L 299.123315 151.846456 
L 298.046918 153.268318 
L 296.613119 155.176665 
L 292.432593 159.923611 
L 290.866942 161.829208 
L 287.836449 165.143583 
L 285.949941 167.518138 
L 282.548162 171.299652 
L 280.590676 173.667586 
L 260.782054 195.32423 
L 257.838174 198.628793 
L 247.868689 209.479782 
L 238.49835 219.808059 
L 235.572433 223.087328 
L 224.028608 236.177479 
L 221.568075 238.971244 
L 218.624834 242.22767 
L 207.208571 255.232686 
L 204.721715 257.553166 
L 202.232966 259.879032 
L 199.728713 262.201567 
L 197.234049 264.528948 
L 194.719779 266.852225 
L 192.736073 268.71491 
L 189.651768 271.499566 
L 187.669778 273.359633 
L 185.016173 275.67355 
L 182.594387 277.993027 
L 179.931804 280.300865 
L 177.533042 282.616224 
L 175.332452 284.457556 
L 172.47538 287.231539 
L 170.760591 288.608975 
L 169.532118 289.994423 
L 168.574579 290.921248 
L 166.134099 292.752606 
L 166.134099 292.752606 
" clip-path="url(#pb483643671)" style="fill: none; stroke: #1f77b4; stroke-width: 1.5; stroke-linecap: square"/>
   </g>
   <g id="line2d_34">
    <path d="M 135.054872 293.214403 
L 135.365202 293.679942 
L 136.775935 294.142403 
L 139.501398 294.585579 
L 143.489255 294.981982 
L 148.354953 295.293996 
L 153.393286 295.477276 
L 157.680285 295.488 
L 160.252638 295.291638 
L 160.330692 294.871942 
L 157.532339 294.238323 
L 152.020805 293.42883 
L 123.534018 289.907294 
L 121.491608 289.336394 
L 123.166026 288.968073 
L 128.269656 288.77872 
L 151.952706 288.592165 
L 157.354051 288.377572 
L 159.469792 287.98409 
L 158.0337 287.401262 
L 153.562301 286.658966 
L 135.153474 284.182032 
L 132.206429 283.529159 
L 132.348847 283.041523 
L 135.479911 282.713832 
L 147.161971 282.349831 
L 153.085163 282.172081 
L 157.374497 281.904548 
L 159.248007 281.502737 
L 158.52252 280.954322 
L 155.622451 280.280319 
L 143.776723 278.048087 
L 142.186234 277.430421 
L 142.706849 276.935054 
L 145.173094 276.557401 
L 159.623986 275.412782 
L 160.539408 274.986451 
L 159.776765 274.458784 
L 157.705002 273.845538 
L 152.340495 272.507693 
L 150.502259 271.86894 
L 149.92796 271.296519 
L 150.771007 270.80571 
L 152.851845 270.392461 
L 161.379382 269.359079 
L 163.081637 268.973046 
L 163.627355 268.525687 
L 163.049807 268.012746 
L 159.854203 266.844696 
L 158.224 266.240183 
L 157.207072 265.65869 
L 157.097391 265.120645 
L 157.963266 264.635303 
L 159.643004 264.199403 
L 165.786086 263.016425 
L 166.897798 262.592366 
L 167.186856 262.128334 
L 166.723287 261.622676 
L 163.701883 259.967842 
L 163.296782 259.427216 
L 163.569415 258.915652 
L 164.516362 258.437601 
L 167.67682 257.560586 
L 170.580997 256.704889 
L 171.325509 256.252655 
L 171.491161 255.774877 
L 171.167248 255.272371 
L 169.431127 253.698334 
L 169.356402 253.186425 
L 169.74903 252.693373 
L 170.581566 252.220038 
L 175.162597 250.40823 
L 175.762188 249.938162 
L 175.985489 249.452927 
L 175.895807 248.95428 
L 175.171497 247.432195 
L 175.273794 246.936042 
L 175.691754 246.451407 
L 176.408877 245.977927 
L 180.080506 244.118617 
L 180.573387 243.64089 
L 180.775737 243.15412 
L 180.73779 242.660037 
L 180.394165 241.664292 
L 180.35818 241.170757 
L 180.557083 240.68421 
L 181.033091 240.205553 
L 182.656324 239.266577 
L 184.442047 238.330839 
L 185.092729 237.856199 
L 185.488754 237.374887 
L 185.636325 236.88772 
L 185.534458 234.932126 
L 185.851217 234.45459 
L 186.394326 233.982942 
L 189.917636 231.62898 
L 190.239945 231.145645 
L 190.474372 230.171438 
L 190.66765 229.204279 
L 190.926263 228.727811 
L 191.881413 227.787782 
L 194.419185 225.903506 
L 195.229204 224.93895 
L 195.865128 223.486543 
L 196.384722 222.532167 
L 197.267148 221.588695 
L 200.121624 219.206918 
L 200.815127 218.235648 
L 201.786459 216.306311 
L 202.662459 215.356496 
L 204.89383 213.448144 
L 205.629253 212.477366 
L 206.956492 210.059938 
L 207.938761 209.111205 
L 209.517201 207.683598 
L 210.255633 206.7186 
L 211.691658 204.307886 
L 213.073275 202.887201 
L 214.441264 201.459949 
L 215.82357 199.537001 
L 216.917701 198.104561 
L 221.056129 193.33784 
L 222.530521 191.429521 
L 225.540288 188.097041 
L 227.310836 185.708943 
L 230.234307 182.384138 
L 232.083694 180.000976 
L 234.901821 176.682238 
L 243.867929 165.733831 
L 245.886739 163.374122 
L 247.77425 161.012815 
L 250.615969 157.710841 
L 253.033366 154.875256 
L 257.380763 149.667432 
L 260.545004 145.876684 
L 265.89197 139.249915 
L 267.353811 137.359018 
L 270.135489 134.060307 
L 271.654451 132.174751 
L 274.062025 129.354527 
L 276.021237 127.001297 
L 277.995505 124.651968 
L 279.970561 122.301755 
L 281.936562 119.953652 
L 283.85917 117.606151 
L 285.80999 115.262818 
L 287.704833 112.919532 
L 289.645944 110.582257 
L 291.531766 108.243684 
L 293.483801 105.911486 
L 294.940386 104.04252 
L 297.698518 100.780699 
L 299.190819 98.914711 
L 301.232843 96.58746 
L 303.09118 94.25408 
L 305.122999 91.926994 
L 306.982709 89.592388 
L 309.023867 87.262995 
L 310.851329 84.926232 
L 312.90892 82.596471 
L 314.64634 80.259174 
L 316.74083 77.932515 
L 318.433339 75.597273 
L 320.546562 73.27701 
L 322.212426 70.946903 
L 324.381397 68.632503 
L 326.01158 66.307315 
L 328.280959 63.998453 
L 329.404468 62.137362 
L 330.407441 61.215708 
L 331.520555 60.297054 
L 331.926468 59.835135 
L 332.30269 58.903673 
L 332.409284 58.436778 
L 332.630487 57.971866 
L 333.080568 57.510552 
L 335.373019 56.137262 
L 335.599941 55.674045 
L 334.900618 55.208448 
L 332.944424 54.750379 
L 329.619986 54.320796 
L 325.132643 53.952006 
L 320.03484 53.685836 
L 315.166949 53.568 
L 311.509814 53.640029 
L 309.973915 53.929788 
L 311.17225 54.443002 
L 315.233762 55.15752 
L 321.710347 56.022765 
L 344.106077 58.7399 
L 347.95392 59.422066 
L 348.332829 59.909349 
L 345.144297 60.203506 
L 339.012707 60.344016 
L 316.609756 60.599087 
L 312.712927 60.888283 
L 312.113689 61.356506 
L 314.712389 61.996744 
L 319.718723 62.765666 
L 331.625396 64.404137 
L 335.722278 65.123782 
L 337.249893 65.705038 
L 335.938425 66.13263 
L 332.168191 66.426009 
L 316.375105 67.054507 
L 313.356767 67.387521 
L 312.588858 67.848049 
L 313.986759 68.434194 
L 320.654497 69.843966 
L 324.030087 70.560979 
L 326.249777 71.2159 
L 326.790439 71.774526 
L 325.556565 72.226501 
L 322.871913 72.585981 
L 313.020326 73.493154 
L 311.417323 73.878098 
L 311.235984 74.346954 
L 312.331338 74.897316 
L 318.269853 76.779746 
L 319.218723 77.370341 
L 319.042242 77.89932 
L 317.75499 78.361074 
L 313.102272 79.134199 
L 308.848172 79.877836 
L 307.864495 80.301643 
L 307.820267 80.777524 
L 308.57401 81.30328 
L 312.102251 83.016427 
L 312.458541 83.56249 
L 312.050219 84.070196 
L 310.925038 84.536781 
L 304.58147 86.212103 
L 303.961528 86.661302 
L 303.964303 87.142397 
L 304.458984 87.653145 
L 305.923827 88.72389 
L 306.347952 89.257167 
L 306.300543 89.773087 
L 305.722332 90.265222 
L 304.68039 90.733091 
L 300.710711 92.060148 
L 299.820425 92.510161 
L 299.364307 92.976984 
L 299.32816 93.462623 
L 299.603506 93.964436 
L 300.379158 94.989957 
L 300.517535 95.497872 
L 300.324669 95.994212 
L 299.772772 96.47636 
L 297.872847 97.405124 
L 295.839072 98.320749 
L 295.116061 98.787681 
L 294.685019 99.265054 
L 294.534717 99.752942 
L 294.73833 100.74886 
L 294.843639 101.247962 
L 294.790768 101.74211 
L 294.504072 102.228534 
L 293.964594 102.706622 
L 292.336854 103.644632 
L 290.675163 104.580672 
L 290.091825 105.055688 
L 289.743051 105.537259 
L 289.613194 106.024649 
L 289.716341 107.497234 
L 289.568553 107.982389 
L 289.207718 108.461869 
L 287.884765 109.406426 
L 285.579441 110.819819 
L 285.086675 111.298253 
L 284.798192 111.781072 
L 284.667169 112.753682 
L 284.567592 113.720602 
L 284.324823 114.197738 
L 283.903192 114.670331 
L 282.626061 115.607554 
L 281.224559 116.548127 
L 280.236845 117.503315 
L 279.777347 118.469312 
L 279.492529 119.431646 
L 278.925076 120.37951 
L 277.912334 121.315829 
L 275.594367 123.204547 
L 274.863614 124.166849 
L 273.495902 126.554785 
L 272.537218 127.494932 
L 270.342015 129.395222 
L 269.568002 130.360942 
L 268.102215 132.760304 
L 267.167483 133.707144 
L 265.127499 135.616845 
L 264.432034 136.584537 
L 263.275513 138.509504 
L 262.419045 139.458569 
L 260.488341 141.360394 
L 259.772124 142.322545 
L 258.191299 144.717528 
L 254.479127 148.997377 
L 252.993405 150.901134 
L 249.620358 154.699203 
L 247.347982 157.55223 
L 244.824996 160.399941 
L 242.169658 163.72491 
L 240.108287 166.092425 
L 237.456974 169.411069 
L 234.676156 172.720515 
L 225.809087 183.562863 
L 223.477676 186.385974 
L 221.490581 188.734688 
L 219.089369 191.55739 
L 216.69246 194.382349 
L 213.956773 197.68472 
L 165.928347 256.160196 
L 164.067635 258.483848 
L 162.505328 260.343353 
L 160.945741 262.201567 
L 159.106124 264.528948 
L 157.134818 266.852225 
L 155.382751 269.179541 
L 153.068737 271.964723 
L 151.646221 273.823291 
L 149.644452 276.136962 
L 147.901624 278.455524 
L 145.853596 280.763383 
L 144.555921 282.616224 
L 141.785018 285.843978 
L 141.185244 286.770211 
L 140.309096 287.691352 
L 138.834528 289.068969 
L 138.32516 289.994423 
L 137.977099 290.921248 
L 137.606603 291.381422 
L 136.236477 292.294905 
L 135.47734 292.752606 
L 135.47734 292.752606 
" clip-path="url(#pb483643671)" style="fill: none; stroke: #ff7f0e; stroke-opacity: 0.5; stroke-width: 1.5; stroke-linecap: square"/>
   </g>
   <g id="patch_3">
    <path d="M 57.6 307.584 
L 57.6 41.472 
" style="fill: none; stroke: #000000; stroke-width: 0.8; stroke-linejoin: miter; stroke-linecap: square"/>
   </g>
   <g id="patch_4">
    <path d="M 414.72 307.584 
L 414.72 41.472 
" style="fill: none; stroke: #000000; stroke-width: 0.8; stroke-linejoin: miter; stroke-linecap: square"/>
   </g>
   <g id="patch_5">
    <path d="M 57.6 307.584 
L 414.72 307.584 
" style="fill: none; stroke: #000000; stroke-width: 0.8; stroke-linejoin: miter; stroke-linecap: square"/>
   </g>
   <g id="patch_6">
    <path d="M 57.6 41.472 
L 414.72 41.472 
" style="fill: none; stroke: #000000; stroke-width: 0.8; stroke-linejoin: miter; stroke-linecap: square"/>
   </g>
   <g id="text_19">
    <!-- Compare - Epoch 300 -->
    <g transform="translate(171.234375 35.472) scale(0.12 -0.12)">
     <defs>
      <path id="DejaVuSans-43" d="M 4122 4306 
L 4122 3641 
Q 3803 3938 3442 4084 
Q 3081 4231 2675 4231 
Q 1875 4231 1450 3742 
Q 1025 3253 1025 2328 
Q 1025 1406 1450 917 
Q 1875 428 2675 428 
Q 3081 428 3442 575 
Q 3803 722 4122 1019 
L 4122 359 
Q 3791 134 3420 21 
Q 3050 -91 2638 -91 
Q 1578 -91 968 557 
Q 359 1206 359 2328 
Q 359 3453 968 4101 
Q 1578 4750 2638 4750 
Q 3056 4750 3426 4639 
Q 3797 4528 4122 4306 
z
" transform="scale(0.015625)"/>
      <path id="DejaVuSans-6f" d="M 1959 3097 
Q 1497 3097 1228 2736 
Q 959 2375 959 1747 
Q 959 1119 1226 758 
Q 1494 397 1959 397 
Q 2419 397 2687 759 
Q 2956 1122 2956 1747 
Q 2956 2369 2687 2733 
Q 2419 3097 1959 3097 
z
M 1959 3584 
Q 2709 3584 3137 3096 
Q 3566 2609 3566 1747 
Q 3566 888 3137 398 
Q 2709 -91 1959 -91 
Q 1206 -91 779 398 
Q 353 888 353 1747 
Q 353 2609 779 3096 
Q 1206 3584 1959 3584 
z
" transform="scale(0.015625)"/>
      <path id="DejaVuSans-6d" d="M 3328 2828 
Q 3544 3216 3844 3400 
Q 4144 3584 4550 3584 
Q 5097 3584 5394 3201 
Q 5691 2819 5691 2113 
L 5691 0 
L 5113 0 
L 5113 2094 
Q 5113 2597 4934 2840 
Q 4756 3084 4391 3084 
Q 3944 3084 3684 2787 
Q 3425 2491 3425 1978 
L 3425 0 
L 2847 0 
L 2847 2094 
Q 2847 2600 2669 2842 
Q 2491 3084 2119 3084 
Q 1678 3084 1418 2786 
Q 1159 2488 1159 1978 
L 1159 0 
L 581 0 
L 581 3500 
L 1159 3500 
L 1159 2956 
Q 1356 3278 1631 3431 
Q 1906 3584 2284 3584 
Q 2666 3584 2933 3390 
Q 3200 3197 3328 2828 
z
" transform="scale(0.015625)"/>
      <path id="DejaVuSans-70" d="M 1159 525 
L 1159 -1331 
L 581 -1331 
L 581 3500 
L 1159 3500 
L 1159 2969 
Q 1341 3281 1617 3432 
Q 1894 3584 2278 3584 
Q 2916 3584 3314 3078 
Q 3713 2572 3713 1747 
Q 3713 922 3314 415 
Q 2916 -91 2278 -91 
Q 1894 -91 1617 61 
Q 1341 213 1159 525 
z
M 3116 1747 
Q 3116 2381 2855 2742 
Q 2594 3103 2138 3103 
Q 1681 3103 1420 2742 
Q 1159 2381 1159 1747 
Q 1159 1113 1420 752 
Q 1681 391 2138 391 
Q 2594 391 2855 752 
Q 3116 1113 3116 1747 
z
" transform="scale(0.015625)"/>
      <path id="DejaVuSans-72" d="M 2631 2963 
Q 2534 3019 2420 3045 
Q 2306 3072 2169 3072 
Q 1681 3072 1420 2755 
Q 1159 2438 1159 1844 
L 1159 0 
L 581 0 
L 581 3500 
L 1159 3500 
L 1159 2956 
Q 1341 3275 1631 3429 
Q 1922 3584 2338 3584 
Q 2397 3584 2469 3576 
Q 2541 3569 2628 3553 
L 2631 2963 
z
" transform="scale(0.015625)"/>
      <path id="DejaVuSans-20" transform="scale(0.015625)"/>
      <path id="DejaVuSans-2d" d="M 313 2009 
L 1997 2009 
L 1997 1497 
L 313 1497 
L 313 2009 
z
" transform="scale(0.015625)"/>
      <path id="DejaVuSans-45" d="M 628 4666 
L 3578 4666 
L 3578 4134 
L 1259 4134 
L 1259 2753 
L 3481 2753 
L 3481 2222 
L 1259 2222 
L 1259 531 
L 3634 531 
L 3634 0 
L 628 0 
L 628 4666 
z
" transform="scale(0.015625)"/>
      <path id="DejaVuSans-63" d="M 3122 3366 
L 3122 2828 
Q 2878 2963 2633 3030 
Q 2388 3097 2138 3097 
Q 1578 3097 1268 2742 
Q 959 2388 959 1747 
Q 959 1106 1268 751 
Q 1578 397 2138 397 
Q 2388 397 2633 464 
Q 2878 531 3122 666 
L 3122 134 
Q 2881 22 2623 -34 
Q 2366 -91 2075 -91 
Q 1284 -91 818 406 
Q 353 903 353 1747 
Q 353 2603 823 3093 
Q 1294 3584 2113 3584 
Q 2378 3584 2631 3529 
Q 2884 3475 3122 3366 
z
" transform="scale(0.015625)"/>
      <path id="DejaVuSans-68" d="M 3513 2113 
L 3513 0 
L 2938 0 
L 2938 2094 
Q 2938 2591 2744 2837 
Q 2550 3084 2163 3084 
Q 1697 3084 1428 2787 
Q 1159 2491 1159 1978 
L 1159 0 
L 581 0 
L 581 4863 
L 1159 4863 
L 1159 2956 
Q 1366 3272 1645 3428 
Q 1925 3584 2291 3584 
Q 2894 3584 3203 3211 
Q 3513 2838 3513 2113 
z
" transform="scale(0.015625)"/>
      <path id="DejaVuSans-33" d="M 2597 2516 
Q 3050 2419 3304 2112 
Q 3559 1806 3559 1356 
Q 3559 666 3084 287 
Q 2609 -91 1734 -91 
Q 1441 -91 1130 -33 
Q 819 25 488 141 
L 488 750 
Q 750 597 1062 519 
Q 1375 441 1716 441 
Q 2309 441 2620 675 
Q 2931 909 2931 1356 
Q 2931 1769 2642 2001 
Q 2353 2234 1838 2234 
L 1294 2234 
L 1294 2753 
L 1863 2753 
Q 2328 2753 2575 2939 
Q 2822 3125 2822 3475 
Q 2822 3834 2567 4026 
Q 2313 4219 1838 4219 
Q 1578 4219 1281 4162 
Q 984 4106 628 3988 
L 628 4550 
Q 988 4650 1302 4700 
Q 1616 4750 1894 4750 
Q 2613 4750 3031 4423 
Q 3450 4097 3450 3541 
Q 3450 3153 3228 2886 
Q 3006 2619 2597 2516 
z
" transform="scale(0.015625)"/>
     </defs>
     <use xlink:href="#DejaVuSans-43"/>
     <use xlink:href="#DejaVuSans-6f" transform="translate(69.824219 0)"/>
     <use xlink:href="#DejaVuSans-6d" transform="translate(131.005859 0)"/>
     <use xlink:href="#DejaVuSans-70" transform="translate(228.417969 0)"/>
     <use xlink:href="#DejaVuSans-61" transform="translate(291.894531 0)"/>
     <use xlink:href="#DejaVuSans-72" transform="translate(353.173828 0)"/>
     <use xlink:href="#DejaVuSans-65" transform="translate(392.037109 0)"/>
     <use xlink:href="#DejaVuSans-20" transform="translate(453.560547 0)"/>
     <use xlink:href="#DejaVuSans-2d" transform="translate(485.347656 0)"/>
     <use xlink:href="#DejaVuSans-20" transform="translate(521.431641 0)"/>
     <use xlink:href="#DejaVuSans-45" transform="translate(553.21875 0)"/>
     <use xlink:href="#DejaVuSans-70" transform="translate(616.402344 0)"/>
     <use xlink:href="#DejaVuSans-6f" transform="translate(679.878906 0)"/>
     <use xlink:href="#DejaVuSans-63" transform="translate(741.060547 0)"/>
     <use xlink:href="#DejaVuSans-68" transform="translate(796.041016 0)"/>
     <use xlink:href="#DejaVuSans-20" transform="translate(859.419922 0)"/>
     <use xlink:href="#DejaVuSans-33" transform="translate(891.207031 0)"/>
     <use xlink:href="#DejaVuSans-30" transform="translate(954.830078 0)"/>
     <use xlink:href="#DejaVuSans-30" transform="translate(1018.453125 0)"/>
    </g>
   </g>
   <g id="legend_1">
    <g id="patch_7">
     <path d="M 64.6 78.82825 
L 181.128125 78.82825 
Q 183.128125 78.82825 183.128125 76.82825 
L 183.128125 48.472 
Q 183.128125 46.472 181.128125 46.472 
L 64.6 46.472 
Q 62.6 46.472 62.6 48.472 
L 62.6 76.82825 
Q 62.6 78.82825 64.6 78.82825 
z
" style="fill: #ffffff; opacity: 0.8; stroke: #cccccc; stroke-linejoin: miter"/>
    </g>
    <g id="line2d_35">
     <path d="M 66.6 54.570437 
L 76.6 54.570437 
L 86.6 54.570437 
" style="fill: none; stroke: #1f77b4; stroke-width: 1.5; stroke-linecap: square"/>
    </g>
    <g id="text_20">
     <!-- Pred: Sample 1 -->
     <g transform="translate(94.6 58.070437) scale(0.1 -0.1)">
      <defs>
       <path id="DejaVuSans-50" d="M 1259 4147 
L 1259 2394 
L 2053 2394 
Q 2494 2394 2734 2622 
Q 2975 2850 2975 3272 
Q 2975 3691 2734 3919 
Q 2494 4147 2053 4147 
L 1259 4147 
z
M 628 4666 
L 2053 4666 
Q 2838 4666 3239 4311 
Q 3641 3956 3641 3272 
Q 3641 2581 3239 2228 
Q 2838 1875 2053 1875 
L 1259 1875 
L 1259 0 
L 628 0 
L 628 4666 
z
" transform="scale(0.015625)"/>
       <path id="DejaVuSans-3a" d="M 750 794 
L 1409 794 
L 1409 0 
L 750 0 
L 750 794 
z
M 750 3309 
L 1409 3309 
L 1409 2516 
L 750 2516 
L 750 3309 
z
" transform="scale(0.015625)"/>
       <path id="DejaVuSans-53" d="M 3425 4513 
L 3425 3897 
Q 3066 4069 2747 4153 
Q 2428 4238 2131 4238 
Q 1616 4238 1336 4038 
Q 1056 3838 1056 3469 
Q 1056 3159 1242 3001 
Q 1428 2844 1947 2747 
L 2328 2669 
Q 3034 2534 3370 2195 
Q 3706 1856 3706 1288 
Q 3706 609 3251 259 
Q 2797 -91 1919 -91 
Q 1588 -91 1214 -16 
Q 841 59 441 206 
L 441 856 
Q 825 641 1194 531 
Q 1563 422 1919 422 
Q 2459 422 2753 634 
Q 3047 847 3047 1241 
Q 3047 1584 2836 1778 
Q 2625 1972 2144 2069 
L 1759 2144 
Q 1053 2284 737 2584 
Q 422 2884 422 3419 
Q 422 4038 858 4394 
Q 1294 4750 2059 4750 
Q 2388 4750 2728 4690 
Q 3069 4631 3425 4513 
z
" transform="scale(0.015625)"/>
      </defs>
      <use xlink:href="#DejaVuSans-50"/>
      <use xlink:href="#DejaVuSans-72" transform="translate(58.552734 0)"/>
      <use xlink:href="#DejaVuSans-65" transform="translate(97.416016 0)"/>
      <use xlink:href="#DejaVuSans-64" transform="translate(158.939453 0)"/>
      <use xlink:href="#DejaVuSans-3a" transform="translate(222.416016 0)"/>
      <use xlink:href="#DejaVuSans-20" transform="translate(256.107422 0)"/>
      <use xlink:href="#DejaVuSans-53" transform="translate(287.894531 0)"/>
      <use xlink:href="#DejaVuSans-61" transform="translate(351.371094 0)"/>
      <use xlink:href="#DejaVuSans-6d" transform="translate(412.650391 0)"/>
      <use xlink:href="#DejaVuSans-70" transform="translate(510.0625 0)"/>
      <use xlink:href="#DejaVuSans-6c" transform="translate(573.539062 0)"/>
      <use xlink:href="#DejaVuSans-65" transform="translate(601.322266 0)"/>
      <use xlink:href="#DejaVuSans-20" transform="translate(662.845703 0)"/>
      <use xlink:href="#DejaVuSans-31" transform="translate(694.632812 0)"/>
     </g>
    </g>
    <g id="line2d_36">
     <path d="M 66.6 69.248562 
L 76.6 69.248562 
L 86.6 69.248562 
" style="fill: none; stroke: #ff7f0e; stroke-opacity: 0.5; stroke-width: 1.5; stroke-linecap: square"/>
    </g>
    <g id="text_21">
     <!-- Target: Sample 1 -->
     <g transform="translate(94.6 72.748562) scale(0.1 -0.1)">
      <defs>
       <path id="DejaVuSans-54" d="M -19 4666 
L 3928 4666 
L 3928 4134 
L 2272 4134 
L 2272 0 
L 1638 0 
L 1638 4134 
L -19 4134 
L -19 4666 
z
" transform="scale(0.015625)"/>
       <path id="DejaVuSans-67" d="M 2906 1791 
Q 2906 2416 2648 2759 
Q 2391 3103 1925 3103 
Q 1463 3103 1205 2759 
Q 947 2416 947 1791 
Q 947 1169 1205 825 
Q 1463 481 1925 481 
Q 2391 481 2648 825 
Q 2906 1169 2906 1791 
z
M 3481 434 
Q 3481 -459 3084 -895 
Q 2688 -1331 1869 -1331 
Q 1566 -1331 1297 -1286 
Q 1028 -1241 775 -1147 
L 775 -588 
Q 1028 -725 1275 -790 
Q 1522 -856 1778 -856 
Q 2344 -856 2625 -561 
Q 2906 -266 2906 331 
L 2906 616 
Q 2728 306 2450 153 
Q 2172 0 1784 0 
Q 1141 0 747 490 
Q 353 981 353 1791 
Q 353 2603 747 3093 
Q 1141 3584 1784 3584 
Q 2172 3584 2450 3431 
Q 2728 3278 2906 2969 
L 2906 3500 
L 3481 3500 
L 3481 434 
z
" transform="scale(0.015625)"/>
       <path id="DejaVuSans-74" d="M 1172 4494 
L 1172 3500 
L 2356 3500 
L 2356 3053 
L 1172 3053 
L 1172 1153 
Q 1172 725 1289 603 
Q 1406 481 1766 481 
L 2356 481 
L 2356 0 
L 1766 0 
Q 1100 0 847 248 
Q 594 497 594 1153 
L 594 3053 
L 172 3053 
L 172 3500 
L 594 3500 
L 594 4494 
L 1172 4494 
z
" transform="scale(0.015625)"/>
      </defs>
      <use xlink:href="#DejaVuSans-54"/>
      <use xlink:href="#DejaVuSans-61" transform="translate(44.583984 0)"/>
      <use xlink:href="#DejaVuSans-72" transform="translate(105.863281 0)"/>
      <use xlink:href="#DejaVuSans-67" transform="translate(145.226562 0)"/>
      <use xlink:href="#DejaVuSans-65" transform="translate(208.703125 0)"/>
      <use xlink:href="#DejaVuSans-74" transform="translate(270.226562 0)"/>
      <use xlink:href="#DejaVuSans-3a" transform="translate(309.435547 0)"/>
      <use xlink:href="#DejaVuSans-20" transform="translate(343.126953 0)"/>
      <use xlink:href="#DejaVuSans-53" transform="translate(374.914062 0)"/>
      <use xlink:href="#DejaVuSans-61" transform="translate(438.390625 0)"/>
      <use xlink:href="#DejaVuSans-6d" transform="translate(499.669922 0)"/>
      <use xlink:href="#DejaVuSans-70" transform="translate(597.082031 0)"/>
      <use xlink:href="#DejaVuSans-6c" transform="translate(660.558594 0)"/>
      <use xlink:href="#DejaVuSans-65" transform="translate(688.341797 0)"/>
      <use xlink:href="#DejaVuSans-20" transform="translate(749.865234 0)"/>
      <use xlink:href="#DejaVuSans-31" transform="translate(781.652344 0)"/>
     </g>
    </g>
   </g>
  </g>
 </g>
 <defs>
  <clipPath id="pb483643671">
   <rect x="57.6" y="41.472" width="357.12" height="266.112"/>
  </clipPath>
 </defs>
</svg>
