<?xml version="1.0" encoding="utf-8" standalone="no"?>
<!DOCTYPE svg PUBLIC "-//W3C//DTD SVG 1.1//EN"
  "http://www.w3.org/Graphics/SVG/1.1/DTD/svg11.dtd">
<svg xmlns:xlink="http://www.w3.org/1999/xlink" width="460.8pt" height="345.6pt" viewBox="0 0 460.8 345.6" xmlns="http://www.w3.org/2000/svg" version="1.1">
 <metadata>
  <rdf:RDF xmlns:dc="http://purl.org/dc/elements/1.1/" xmlns:cc="http://creativecommons.org/ns#" xmlns:rdf="http://www.w3.org/1999/02/22-rdf-syntax-ns#">
   <cc:Work>
    <dc:type rdf:resource="http://purl.org/dc/dcmitype/StillImage"/>
    <dc:date>2025-04-15T23:49:42.531063</dc:date>
    <dc:format>image/svg+xml</dc:format>
    <dc:creator>
     <cc:Agent>
      <dc:title>Matplotlib v3.10.0, https://matplotlib.org/</dc:title>
     </cc:Agent>
    </dc:creator>
   </cc:Work>
  </rdf:RDF>
 </metadata>
 <defs>
  <style type="text/css">*{stroke-linejoin: round; stroke-linecap: butt}</style>
 </defs>
 <g id="figure_1">
  <g id="patch_1">
   <path d="M 0 345.6 
L 460.8 345.6 
L 460.8 0 
L 0 0 
z
" style="fill: #ffffff"/>
  </g>
  <g id="axes_1">
   <g id="patch_2">
    <path d="M 57.6 307.584 
L 414.72 307.584 
L 414.72 41.472 
L 57.6 41.472 
z
" style="fill: #ffffff"/>
   </g>
   <g id="matplotlib.axis_1">
    <g id="xtick_1">
     <g id="line2d_1">
      <path d="M 96.964195 307.584 
L 96.964195 41.472 
" clip-path="url(#p88a40ce2c2)" style="fill: none; stroke: #b0b0b0; stroke-opacity: 0.5; stroke-width: 0.8; stroke-linecap: square"/>
     </g>
     <g id="line2d_2">
      <defs>
       <path id="m6d7fcdb55e" d="M 0 0 
L 0 3.5 
" style="stroke: #000000; stroke-width: 0.8"/>
      </defs>
      <g>
       <use xlink:href="#m6d7fcdb55e" x="96.964195" y="307.584" style="stroke: #000000; stroke-width: 0.8"/>
      </g>
     </g>
     <g id="text_1">
      <!-- −1.0 -->
      <g transform="translate(84.822789 322.182437) scale(0.1 -0.1)">
       <defs>
        <path id="DejaVuSans-2212" d="M 678 2272 
L 4684 2272 
L 4684 1741 
L 678 1741 
L 678 2272 
z
" transform="scale(0.015625)"/>
        <path id="DejaVuSans-31" d="M 794 531 
L 1825 531 
L 1825 4091 
L 703 3866 
L 703 4441 
L 1819 4666 
L 2450 4666 
L 2450 531 
L 3481 531 
L 3481 0 
L 794 0 
L 794 531 
z
" transform="scale(0.015625)"/>
        <path id="DejaVuSans-2e" d="M 684 794 
L 1344 794 
L 1344 0 
L 684 0 
L 684 794 
z
" transform="scale(0.015625)"/>
        <path id="DejaVuSans-30" d="M 2034 4250 
Q 1547 4250 1301 3770 
Q 1056 3291 1056 2328 
Q 1056 1369 1301 889 
Q 1547 409 2034 409 
Q 2525 409 2770 889 
Q 3016 1369 3016 2328 
Q 3016 3291 2770 3770 
Q 2525 4250 2034 4250 
z
M 2034 4750 
Q 2819 4750 3233 4129 
Q 3647 3509 3647 2328 
Q 3647 1150 3233 529 
Q 2819 -91 2034 -91 
Q 1250 -91 836 529 
Q 422 1150 422 2328 
Q 422 3509 836 4129 
Q 1250 4750 2034 4750 
z
" transform="scale(0.015625)"/>
       </defs>
       <use xlink:href="#DejaVuSans-2212"/>
       <use xlink:href="#DejaVuSans-31" transform="translate(83.789062 0)"/>
       <use xlink:href="#DejaVuSans-2e" transform="translate(147.412109 0)"/>
       <use xlink:href="#DejaVuSans-30" transform="translate(179.199219 0)"/>
      </g>
     </g>
    </g>
    <g id="xtick_2">
     <g id="line2d_3">
      <path d="M 166.136273 307.584 
L 166.136273 41.472 
" clip-path="url(#p88a40ce2c2)" style="fill: none; stroke: #b0b0b0; stroke-opacity: 0.5; stroke-width: 0.8; stroke-linecap: square"/>
     </g>
     <g id="line2d_4">
      <g>
       <use xlink:href="#m6d7fcdb55e" x="166.136273" y="307.584" style="stroke: #000000; stroke-width: 0.8"/>
      </g>
     </g>
     <g id="text_2">
      <!-- −0.5 -->
      <g transform="translate(153.994866 322.182437) scale(0.1 -0.1)">
       <defs>
        <path id="DejaVuSans-35" d="M 691 4666 
L 3169 4666 
L 3169 4134 
L 1269 4134 
L 1269 2991 
Q 1406 3038 1543 3061 
Q 1681 3084 1819 3084 
Q 2600 3084 3056 2656 
Q 3513 2228 3513 1497 
Q 3513 744 3044 326 
Q 2575 -91 1722 -91 
Q 1428 -91 1123 -41 
Q 819 9 494 109 
L 494 744 
Q 775 591 1075 516 
Q 1375 441 1709 441 
Q 2250 441 2565 725 
Q 2881 1009 2881 1497 
Q 2881 1984 2565 2268 
Q 2250 2553 1709 2553 
Q 1456 2553 1204 2497 
Q 953 2441 691 2322 
L 691 4666 
z
" transform="scale(0.015625)"/>
       </defs>
       <use xlink:href="#DejaVuSans-2212"/>
       <use xlink:href="#DejaVuSans-30" transform="translate(83.789062 0)"/>
       <use xlink:href="#DejaVuSans-2e" transform="translate(147.412109 0)"/>
       <use xlink:href="#DejaVuSans-35" transform="translate(179.199219 0)"/>
      </g>
     </g>
    </g>
    <g id="xtick_3">
     <g id="line2d_5">
      <path d="M 235.30835 307.584 
L 235.30835 41.472 
" clip-path="url(#p88a40ce2c2)" style="fill: none; stroke: #b0b0b0; stroke-opacity: 0.5; stroke-width: 0.8; stroke-linecap: square"/>
     </g>
     <g id="line2d_6">
      <g>
       <use xlink:href="#m6d7fcdb55e" x="235.30835" y="307.584" style="stroke: #000000; stroke-width: 0.8"/>
      </g>
     </g>
     <g id="text_3">
      <!-- 0.0 -->
      <g transform="translate(227.356787 322.182437) scale(0.1 -0.1)">
       <use xlink:href="#DejaVuSans-30"/>
       <use xlink:href="#DejaVuSans-2e" transform="translate(63.623047 0)"/>
       <use xlink:href="#DejaVuSans-30" transform="translate(95.410156 0)"/>
      </g>
     </g>
    </g>
    <g id="xtick_4">
     <g id="line2d_7">
      <path d="M 304.480427 307.584 
L 304.480427 41.472 
" clip-path="url(#p88a40ce2c2)" style="fill: none; stroke: #b0b0b0; stroke-opacity: 0.5; stroke-width: 0.8; stroke-linecap: square"/>
     </g>
     <g id="line2d_8">
      <g>
       <use xlink:href="#m6d7fcdb55e" x="304.480427" y="307.584" style="stroke: #000000; stroke-width: 0.8"/>
      </g>
     </g>
     <g id="text_4">
      <!-- 0.5 -->
      <g transform="translate(296.528864 322.182437) scale(0.1 -0.1)">
       <use xlink:href="#DejaVuSans-30"/>
       <use xlink:href="#DejaVuSans-2e" transform="translate(63.623047 0)"/>
       <use xlink:href="#DejaVuSans-35" transform="translate(95.410156 0)"/>
      </g>
     </g>
    </g>
    <g id="xtick_5">
     <g id="line2d_9">
      <path d="M 373.652504 307.584 
L 373.652504 41.472 
" clip-path="url(#p88a40ce2c2)" style="fill: none; stroke: #b0b0b0; stroke-opacity: 0.5; stroke-width: 0.8; stroke-linecap: square"/>
     </g>
     <g id="line2d_10">
      <g>
       <use xlink:href="#m6d7fcdb55e" x="373.652504" y="307.584" style="stroke: #000000; stroke-width: 0.8"/>
      </g>
     </g>
     <g id="text_5">
      <!-- 1.0 -->
      <g transform="translate(365.700941 322.182437) scale(0.1 -0.1)">
       <use xlink:href="#DejaVuSans-31"/>
       <use xlink:href="#DejaVuSans-2e" transform="translate(63.623047 0)"/>
       <use xlink:href="#DejaVuSans-30" transform="translate(95.410156 0)"/>
      </g>
     </g>
    </g>
    <g id="text_6">
     <!-- Index -->
     <g transform="translate(222.393594 335.860562) scale(0.1 -0.1)">
      <defs>
       <path id="DejaVuSans-49" d="M 628 4666 
L 1259 4666 
L 1259 0 
L 628 0 
L 628 4666 
z
" transform="scale(0.015625)"/>
       <path id="DejaVuSans-6e" d="M 3513 2113 
L 3513 0 
L 2938 0 
L 2938 2094 
Q 2938 2591 2744 2837 
Q 2550 3084 2163 3084 
Q 1697 3084 1428 2787 
Q 1159 2491 1159 1978 
L 1159 0 
L 581 0 
L 581 3500 
L 1159 3500 
L 1159 2956 
Q 1366 3272 1645 3428 
Q 1925 3584 2291 3584 
Q 2894 3584 3203 3211 
Q 3513 2838 3513 2113 
z
" transform="scale(0.015625)"/>
       <path id="DejaVuSans-64" d="M 2906 2969 
L 2906 4863 
L 3481 4863 
L 3481 0 
L 2906 0 
L 2906 525 
Q 2725 213 2448 61 
Q 2172 -91 1784 -91 
Q 1150 -91 751 415 
Q 353 922 353 1747 
Q 353 2572 751 3078 
Q 1150 3584 1784 3584 
Q 2172 3584 2448 3432 
Q 2725 3281 2906 2969 
z
M 947 1747 
Q 947 1113 1208 752 
Q 1469 391 1925 391 
Q 2381 391 2643 752 
Q 2906 1113 2906 1747 
Q 2906 2381 2643 2742 
Q 2381 3103 1925 3103 
Q 1469 3103 1208 2742 
Q 947 2381 947 1747 
z
" transform="scale(0.015625)"/>
       <path id="DejaVuSans-65" d="M 3597 1894 
L 3597 1613 
L 953 1613 
Q 991 1019 1311 708 
Q 1631 397 2203 397 
Q 2534 397 2845 478 
Q 3156 559 3463 722 
L 3463 178 
Q 3153 47 2828 -22 
Q 2503 -91 2169 -91 
Q 1331 -91 842 396 
Q 353 884 353 1716 
Q 353 2575 817 3079 
Q 1281 3584 2069 3584 
Q 2775 3584 3186 3129 
Q 3597 2675 3597 1894 
z
M 3022 2063 
Q 3016 2534 2758 2815 
Q 2500 3097 2075 3097 
Q 1594 3097 1305 2825 
Q 1016 2553 972 2059 
L 3022 2063 
z
" transform="scale(0.015625)"/>
       <path id="DejaVuSans-78" d="M 3513 3500 
L 2247 1797 
L 3578 0 
L 2900 0 
L 1881 1375 
L 863 0 
L 184 0 
L 1544 1831 
L 300 3500 
L 978 3500 
L 1906 2253 
L 2834 3500 
L 3513 3500 
z
" transform="scale(0.015625)"/>
      </defs>
      <use xlink:href="#DejaVuSans-49"/>
      <use xlink:href="#DejaVuSans-6e" transform="translate(29.492188 0)"/>
      <use xlink:href="#DejaVuSans-64" transform="translate(92.871094 0)"/>
      <use xlink:href="#DejaVuSans-65" transform="translate(156.347656 0)"/>
      <use xlink:href="#DejaVuSans-78" transform="translate(216.121094 0)"/>
     </g>
    </g>
   </g>
   <g id="matplotlib.axis_2">
    <g id="ytick_1">
     <g id="line2d_11">
      <path d="M 57.6 275.510055 
L 414.72 275.510055 
" clip-path="url(#p88a40ce2c2)" style="fill: none; stroke: #b0b0b0; stroke-opacity: 0.5; stroke-width: 0.8; stroke-linecap: square"/>
     </g>
     <g id="line2d_12">
      <defs>
       <path id="m253a0c902e" d="M 0 0 
L -3.5 0 
" style="stroke: #000000; stroke-width: 0.8"/>
      </defs>
      <g>
       <use xlink:href="#m253a0c902e" x="57.6" y="275.510055" style="stroke: #000000; stroke-width: 0.8"/>
      </g>
     </g>
     <g id="text_7">
      <!-- −1.0 -->
      <g transform="translate(26.317187 279.309274) scale(0.1 -0.1)">
       <use xlink:href="#DejaVuSans-2212"/>
       <use xlink:href="#DejaVuSans-31" transform="translate(83.789062 0)"/>
       <use xlink:href="#DejaVuSans-2e" transform="translate(147.412109 0)"/>
       <use xlink:href="#DejaVuSans-30" transform="translate(179.199219 0)"/>
      </g>
     </g>
    </g>
    <g id="ytick_2">
     <g id="line2d_13">
      <path d="M 57.6 225.025611 
L 414.72 225.025611 
" clip-path="url(#p88a40ce2c2)" style="fill: none; stroke: #b0b0b0; stroke-opacity: 0.5; stroke-width: 0.8; stroke-linecap: square"/>
     </g>
     <g id="line2d_14">
      <g>
       <use xlink:href="#m253a0c902e" x="57.6" y="225.025611" style="stroke: #000000; stroke-width: 0.8"/>
      </g>
     </g>
     <g id="text_8">
      <!-- −0.5 -->
      <g transform="translate(26.317187 228.82483) scale(0.1 -0.1)">
       <use xlink:href="#DejaVuSans-2212"/>
       <use xlink:href="#DejaVuSans-30" transform="translate(83.789062 0)"/>
       <use xlink:href="#DejaVuSans-2e" transform="translate(147.412109 0)"/>
       <use xlink:href="#DejaVuSans-35" transform="translate(179.199219 0)"/>
      </g>
     </g>
    </g>
    <g id="ytick_3">
     <g id="line2d_15">
      <path d="M 57.6 174.541168 
L 414.72 174.541168 
" clip-path="url(#p88a40ce2c2)" style="fill: none; stroke: #b0b0b0; stroke-opacity: 0.5; stroke-width: 0.8; stroke-linecap: square"/>
     </g>
     <g id="line2d_16">
      <g>
       <use xlink:href="#m253a0c902e" x="57.6" y="174.541168" style="stroke: #000000; stroke-width: 0.8"/>
      </g>
     </g>
     <g id="text_9">
      <!-- 0.0 -->
      <g transform="translate(34.696875 178.340387) scale(0.1 -0.1)">
       <use xlink:href="#DejaVuSans-30"/>
       <use xlink:href="#DejaVuSans-2e" transform="translate(63.623047 0)"/>
       <use xlink:href="#DejaVuSans-30" transform="translate(95.410156 0)"/>
      </g>
     </g>
    </g>
    <g id="ytick_4">
     <g id="line2d_17">
      <path d="M 57.6 124.056724 
L 414.72 124.056724 
" clip-path="url(#p88a40ce2c2)" style="fill: none; stroke: #b0b0b0; stroke-opacity: 0.5; stroke-width: 0.8; stroke-linecap: square"/>
     </g>
     <g id="line2d_18">
      <g>
       <use xlink:href="#m253a0c902e" x="57.6" y="124.056724" style="stroke: #000000; stroke-width: 0.8"/>
      </g>
     </g>
     <g id="text_10">
      <!-- 0.5 -->
      <g transform="translate(34.696875 127.855943) scale(0.1 -0.1)">
       <use xlink:href="#DejaVuSans-30"/>
       <use xlink:href="#DejaVuSans-2e" transform="translate(63.623047 0)"/>
       <use xlink:href="#DejaVuSans-35" transform="translate(95.410156 0)"/>
      </g>
     </g>
    </g>
    <g id="ytick_5">
     <g id="line2d_19">
      <path d="M 57.6 73.572281 
L 414.72 73.572281 
" clip-path="url(#p88a40ce2c2)" style="fill: none; stroke: #b0b0b0; stroke-opacity: 0.5; stroke-width: 0.8; stroke-linecap: square"/>
     </g>
     <g id="line2d_20">
      <g>
       <use xlink:href="#m253a0c902e" x="57.6" y="73.572281" style="stroke: #000000; stroke-width: 0.8"/>
      </g>
     </g>
     <g id="text_11">
      <!-- 1.0 -->
      <g transform="translate(34.696875 77.371499) scale(0.1 -0.1)">
       <use xlink:href="#DejaVuSans-31"/>
       <use xlink:href="#DejaVuSans-2e" transform="translate(63.623047 0)"/>
       <use xlink:href="#DejaVuSans-30" transform="translate(95.410156 0)"/>
      </g>
     </g>
    </g>
    <g id="text_12">
     <!-- Value -->
     <g transform="translate(20.2375 188.25925) rotate(-90) scale(0.1 -0.1)">
      <defs>
       <path id="DejaVuSans-56" d="M 1831 0 
L 50 4666 
L 709 4666 
L 2188 738 
L 3669 4666 
L 4325 4666 
L 2547 0 
L 1831 0 
z
" transform="scale(0.015625)"/>
       <path id="DejaVuSans-61" d="M 2194 1759 
Q 1497 1759 1228 1600 
Q 959 1441 959 1056 
Q 959 750 1161 570 
Q 1363 391 1709 391 
Q 2188 391 2477 730 
Q 2766 1069 2766 1631 
L 2766 1759 
L 2194 1759 
z
M 3341 1997 
L 3341 0 
L 2766 0 
L 2766 531 
Q 2569 213 2275 61 
Q 1981 -91 1556 -91 
Q 1019 -91 701 211 
Q 384 513 384 1019 
Q 384 1609 779 1909 
Q 1175 2209 1959 2209 
L 2766 2209 
L 2766 2266 
Q 2766 2663 2505 2880 
Q 2244 3097 1772 3097 
Q 1472 3097 1187 3025 
Q 903 2953 641 2809 
L 641 3341 
Q 956 3463 1253 3523 
Q 1550 3584 1831 3584 
Q 2591 3584 2966 3190 
Q 3341 2797 3341 1997 
z
" transform="scale(0.015625)"/>
       <path id="DejaVuSans-6c" d="M 603 4863 
L 1178 4863 
L 1178 0 
L 603 0 
L 603 4863 
z
" transform="scale(0.015625)"/>
       <path id="DejaVuSans-75" d="M 544 1381 
L 544 3500 
L 1119 3500 
L 1119 1403 
Q 1119 906 1312 657 
Q 1506 409 1894 409 
Q 2359 409 2629 706 
Q 2900 1003 2900 1516 
L 2900 3500 
L 3475 3500 
L 3475 0 
L 2900 0 
L 2900 538 
Q 2691 219 2414 64 
Q 2138 -91 1772 -91 
Q 1169 -91 856 284 
Q 544 659 544 1381 
z
M 1991 3584 
L 1991 3584 
z
" transform="scale(0.015625)"/>
      </defs>
      <use xlink:href="#DejaVuSans-56"/>
      <use xlink:href="#DejaVuSans-61" transform="translate(60.658203 0)"/>
      <use xlink:href="#DejaVuSans-6c" transform="translate(121.9375 0)"/>
      <use xlink:href="#DejaVuSans-75" transform="translate(149.720703 0)"/>
      <use xlink:href="#DejaVuSans-65" transform="translate(213.099609 0)"/>
     </g>
    </g>
   </g>
   <g id="line2d_21">
    <path d="M 232.297269 177.476808 
L 238.043372 176.999573 
L 237.841247 176.522276 
L 239.761284 176.045229 
L 240.633199 175.568756 
L 240.061466 174.618515 
L 240.366067 174.144899 
L 243.577397 172.25442 
L 245.92537 170.355731 
L 257.1227 161.877823 
L 261.460859 158.598225 
L 273.825535 149.254682 
L 283.769402 141.793032 
L 295.99393 132.516402 
L 308.137705 123.332348 
L 326.139778 109.675972 
L 329.621904 109.166861 
L 325.972599 108.714123 
L 326.645024 108.261444 
L 329.490142 107.357593 
L 330.158493 106.906853 
L 330.887369 106.007106 
L 332.086521 105.107394 
L 333.950585 103.755144 
L 336.239274 101.957726 
L 340.976525 98.36951 
L 348.027434 93.006119 
L 358.061491 85.429692 
L 360.956876 83.207948 
L 363.924809 80.983351 
L 366.773514 78.765031 
L 369.767488 76.549473 
L 372.568095 74.338026 
L 375.569886 72.132591 
L 378.328158 69.932717 
L 381.357358 67.737297 
L 384.03007 65.54793 
L 387.152054 63.364438 
L 389.056012 61.611079 
L 390.365387 60.754711 
L 392.457171 59.45107 
L 393.361983 58.561048 
L 394.043248 57.684375 
L 394.522206 57.258405 
L 396.071456 56.419406 
L 397.94271 55.554035 
L 398.487273 55.104053 
L 398.439281 54.655431 
L 397.588233 54.234156 
L 395.76182 53.879707 
L 392.875472 53.640772 
L 389.007295 53.568 
L 384.64667 53.70418 
L 380.877988 54.074204 
L 379.068677 54.676603 
L 379.848068 55.479662 
L 388.240949 58.393982 
L 389.81309 59.247221 
L 390.427644 59.921863 
L 390.169579 60.388804 
L 389.121666 60.657962 
L 387.384574 60.776509 
L 377.432845 61.031477 
L 373.227565 61.348516 
L 370.370581 61.858416 
L 370.095389 62.553207 
L 365.275299 63.499366 
L 379.513332 64.406756 
L 383.203364 65.290098 
L 382.171894 66.073621 
L 376.494175 67.652127 
L 366.875913 68.27045 
L 363.693255 68.698357 
L 362.289818 69.2821 
L 363.038163 70.001734 
L 369.872105 72.432395 
L 370.717101 73.123912 
L 370.484202 73.683094 
L 369.412484 74.10458 
L 367.726499 74.411701 
L 357.232154 75.530114 
L 355.33053 76.022507 
L 354.852289 76.633367 
L 355.775943 77.337005 
L 359.220385 78.837352 
L 360.312611 79.531836 
L 360.534065 80.136203 
L 359.935186 80.634228 
L 358.673679 81.03267 
L 354.772567 81.65372 
L 350.08207 82.327995 
L 348.23919 82.77507 
L 347.287649 83.31299 
L 347.367915 83.930687 
L 348.213249 84.600954 
L 350.18841 85.949576 
L 350.510613 86.557674 
L 350.19222 87.092374 
L 349.300239 87.551263 
L 347.941396 87.94805 
L 340.877392 89.48228 
L 339.796579 89.978921 
L 339.385402 90.536009 
L 339.559804 91.138817 
L 340.534806 92.384064 
L 340.74394 92.975035 
L 340.536422 93.519816 
L 339.892265 94.012112 
L 338.86237 94.457008 
L 336.027864 95.269925 
L 333.114041 96.120383 
L 332.056909 96.600064 
L 331.42752 97.121813 
L 331.209621 97.678516 
L 331.401818 99.402368 
L 331.153351 99.940835 
L 330.594935 100.445318 
L 329.741759 100.917092 
L 327.422353 101.800259 
L 325.021775 102.693687 
L 324.080128 103.172538 
L 323.41247 103.678123 
L 323.001466 104.206991 
L 321.996532 106.364208 
L 321.421105 106.868998 
L 319.745683 107.822699 
L 316.807798 109.213213 
L 315.32008 110.191636 
L 314.36378 111.220528 
L 313.04874 112.773168 
L 311.757819 113.763621 
L 306.517326 117.138696 
L 303.088312 120.130826 
L 297.617364 124.007862 
L 295.188115 125.97287 
L 284.637457 133.757948 
L 281.525356 136.203293 
L 277.026842 136.750291 
L 282.174242 137.235534 
L 281.435974 137.720464 
L 277.359941 138.692192 
L 276.599301 139.179956 
L 276.305251 140.159174 
L 275.818364 140.649607 
L 272.954705 142.601543 
L 271.050949 144.051719 
L 268.396197 145.989169 
L 262.719076 150.341414 
L 258.830936 153.227859 
L 255.102697 156.112191 
L 250.57655 159.463572 
L 246.828719 162.335947 
L 242.984719 165.196581 
L 237.973566 169.006168 
L 231.110928 174.224336 
L 208.798477 191.117168 
L 189.761834 205.53671 
L 185.717478 206.058414 
L 190.152391 206.522394 
L 189.620024 206.986675 
L 186.10914 207.915764 
L 185.342658 208.380163 
L 184.921785 209.307663 
L 184.459327 209.770554 
L 181.134735 212.080886 
L 178.146237 214.388592 
L 124.958328 255.091787 
L 117.444507 260.86689 
L 112.266229 264.860385 
L 103.545588 271.493613 
L 100.036943 271.991253 
L 103.724773 272.434152 
L 103.36017 272.876948 
L 100.419992 273.759808 
L 99.623664 274.199216 
L 98.531413 275.513461 
L 96.060241 277.274415 
L 94.534608 278.591501 
L 89.952496 282.090876 
L 88.313101 283.39571 
L 85.250686 285.570656 
L 82.782754 287.746229 
L 79.495076 289.911739 
L 78.065722 291.657984 
L 77.412214 292.078393 
L 73.893599 293.799722 
L 73.854167 294.24956 
L 74.652392 294.682582 
L 76.419351 295.064426 
L 79.113403 295.34975 
L 82.520945 295.488 
L 86.191648 295.432572 
L 89.44659 295.150595 
L 91.437526 294.632571 
L 91.623456 293.898277 
L 90.231968 292.997759 
L 83.878658 290.109028 
L 80.96655 288.828039 
L 81.215858 288.499637 
L 83.126396 288.345643 
L 94.480432 288.158501 
L 98.331696 287.90115 
L 100.98136 287.44858 
L 101.603666 286.795965 
L 100.12689 285.978968 
L 92.272116 283.296541 
L 90.746086 282.59495 
L 90.336724 282.074748 
L 91.406191 281.733611 
L 93.905095 281.531857 
L 104.890759 281.034054 
L 107.848616 280.662477 
L 109.387781 280.121175 
L 109.143008 279.420896 
L 107.453049 278.605283 
L 102.968437 276.902814 
L 101.344958 276.158108 
L 100.552167 275.552628 
L 100.88438 275.101695 
L 102.483089 274.787833 
L 108.378756 274.371222 
L 111.710526 274.137908 
L 114.610884 273.808748 
L 116.56999 273.348752 
L 117.193467 272.751642 
L 116.500658 272.040163 
L 110.815749 269.08747 
L 110.730288 268.564518 
L 111.657001 268.160888 
L 113.563623 267.850035 
L 121.68625 266.992698 
L 123.722053 266.575191 
L 124.798051 266.049783 
L 124.814741 265.424586 
L 124.005639 264.728514 
L 121.637739 263.299314 
L 120.833264 262.654402 
L 120.627008 262.096351 
L 121.190157 261.632245 
L 122.545586 261.249029 
L 131.034548 259.841212 
L 132.256747 259.355488 
L 132.698533 258.791629 
L 132.45926 258.166054 
L 130.526152 256.227545 
L 130.379457 255.662236 
L 130.780961 255.164764 
L 131.780964 254.730267 
L 135.118737 253.969505 
L 138.632898 253.169022 
L 139.831093 252.698494 
L 140.48456 252.171804 
L 140.626325 251.597419 
L 140.420506 250.9936 
L 139.828496 249.792322 
L 139.835043 249.236871 
L 143.879684 248.666723 
L 138.907159 248.206805 
L 140.482334 247.779133 
L 146.115376 246.946736 
L 147.515787 246.504565 
L 148.054289 246.028061 
L 148.614189 244.403131 
L 149.134657 242.740756 
L 149.583996 242.235449 
L 150.331145 241.758667 
L 152.527249 240.858541 
L 154.806513 239.951163 
L 155.683454 239.470482 
L 156.332303 238.967305 
L 156.776554 238.444732 
L 158.04841 236.322432 
L 158.615913 235.821235 
L 160.194716 234.864983 
L 162.948857 233.461999 
L 164.383595 232.483846 
L 165.396033 231.465558 
L 166.800323 229.935157 
L 168.07521 228.953411 
L 172.569205 226.06932 
L 176.663697 222.606551 
L 180.21104 220.187421 
L 185.235712 216.266837 
L 187.931187 214.31278 
L 191.668163 211.371832 
L 195.683357 208.440483 
L 199.424658 205.504506 
L 204.645715 201.615202 
L 208.411424 198.708042 
L 212.970245 195.329106 
L 216.031045 192.916038 
L 221.225204 189.072504 
L 224.328886 186.670461 
L 228.230967 183.801969 
L 233.230975 179.97559 
L 235.787106 178.072891 
L 239.847191 177.536445 
L 239.847191 177.536445 
" clip-path="url(#p88a40ce2c2)" style="fill: none; stroke: #1f77b4; stroke-width: 1.5; stroke-linecap: square"/>
   </g>
   <g id="line2d_22">
    <path d="M 235.540288 177.476808 
L 265.950445 154.393676 
L 270.304789 151.12179 
L 274.05131 148.323237 
L 278.332448 145.05163 
L 381.169103 66.8541 
L 383.020369 65.54793 
L 384.910243 64.246118 
L 388.07857 61.611079 
L 390.817892 59.891025 
L 391.699269 59.006576 
L 392.438107 58.119022 
L 392.96593 57.684375 
L 394.57625 56.838719 
L 396.387671 55.992967 
L 396.879707 55.554035 
L 396.779156 55.104053 
L 395.916794 54.655431 
L 394.251079 54.234156 
L 391.905286 53.879707 
L 389.168536 53.640772 
L 386.456211 53.568 
L 384.233085 53.70418 
L 382.9168 54.074204 
L 382.779769 54.676603 
L 383.87653 55.479662 
L 386.012084 56.422909 
L 393.789157 59.247221 
L 394.914053 59.921863 
L 394.603775 60.388804 
L 392.795437 60.657962 
L 385.837121 60.819816 
L 378.216953 61.031477 
L 375.674016 61.348516 
L 374.489501 61.858416 
L 374.716166 62.553207 
L 376.360277 63.499366 
L 382.435336 66.073621 
L 383.109228 66.704162 
L 382.535722 67.161534 
L 380.734014 67.461614 
L 374.702923 67.801896 
L 371.465009 67.986053 
L 368.768936 68.27045 
L 366.993376 68.698357 
L 366.312953 69.2821 
L 366.669945 70.001734 
L 367.795609 70.809812 
L 370.638006 72.432395 
L 371.46096 73.123912 
L 371.451593 73.683094 
L 370.505452 74.10458 
L 368.719477 74.411701 
L 361.474104 75.15737 
L 359.681087 75.530114 
L 358.642039 76.022507 
L 358.393613 76.633367 
L 358.801862 77.337005 
L 361.009246 79.531836 
L 361.032211 80.136203 
L 360.386116 80.634228 
L 359.092185 81.03267 
L 355.29668 81.65372 
L 351.725102 82.327995 
L 350.616029 82.77507 
L 350.083134 83.31299 
L 350.064037 83.930687 
L 351.127773 85.949576 
L 351.091639 86.557674 
L 350.597022 87.092374 
L 349.628073 87.551263 
L 346.692266 88.308541 
L 343.67569 89.048198 
L 342.584082 89.48228 
L 341.889814 89.978921 
L 341.573516 90.536009 
L 341.535065 91.138817 
L 341.652133 92.384064 
L 341.480089 92.975035 
L 341.002244 93.519816 
L 340.190207 94.012112 
L 337.812247 94.86937 
L 335.290198 95.68077 
L 334.303107 96.120383 
L 333.593873 96.600064 
L 333.154644 97.121813 
L 332.770135 98.255946 
L 332.588798 98.836343 
L 332.26192 99.402368 
L 331.717927 99.940835 
L 330.938659 100.445318 
L 328.866327 101.364438 
L 326.732414 102.239077 
L 325.868156 102.693687 
L 325.196853 103.172538 
L 324.337847 104.206991 
L 323.659395 105.298461 
L 323.195147 105.839173 
L 322.585771 106.364208 
L 320.957781 107.353687 
L 317.501217 109.213213 
L 316.335289 110.191636 
L 314.347898 112.261824 
L 312.953549 113.273889 
L 308.460007 116.152389 
L 305.067398 119.147119 
L 299.497491 123.026255 
L 297.221967 124.993198 
L 295.018656 126.45953 
L 292.816912 127.913422 
L 291.040243 129.372156 
L 289.311198 130.834994 
L 287.204666 132.294658 
L 284.332341 134.247439 
L 277.866416 139.179956 
L 275.202993 141.139622 
L 270.864364 144.534777 
L 266.264387 147.934382 
L 262.528473 150.820411 
L 258.583322 153.711346 
L 254.187534 157.065398 
L 249.680717 160.425867 
L 243.934684 164.718117 
L 232.02453 173.751671 
L 227.57354 177.053507 
L 207.219494 192.513711 
L 95.759379 277.274415 
L 93.487652 279.027593 
L 90.587121 281.212482 
L 88.383258 282.962795 
L 85.353513 285.131615 
L 82.745961 287.317407 
L 79.539967 289.470508 
L 77.881309 291.230871 
L 76.422732 292.078393 
L 74.605373 292.919811 
L 73.971837 293.353761 
L 73.832727 293.799722 
L 74.389214 294.24956 
L 75.741022 294.682582 
L 77.838134 295.064426 
L 80.461073 295.34975 
L 83.241443 295.488 
L 85.722635 295.432572 
L 87.450014 295.150595 
L 88.07316 294.632571 
L 87.434775 293.898277 
L 85.625431 292.997759 
L 80.054877 291.013542 
L 77.467461 290.109028 
L 75.826863 289.366092 
L 75.576202 288.828039 
L 76.898771 288.499637 
L 79.671737 288.345643 
L 91.658584 288.158501 
L 94.680083 287.90115 
L 96.332539 287.44858 
L 96.457168 286.795965 
L 95.21099 285.978968 
L 93.02977 285.06586 
L 88.385929 283.296541 
L 87.169321 282.59495 
L 87.250874 282.074748 
L 88.718489 281.733611 
L 91.369728 281.531857 
L 101.438302 281.034054 
L 103.645422 280.662477 
L 104.665463 280.121175 
L 104.483796 279.420896 
L 103.337386 278.605283 
L 98.762374 276.158108 
L 98.435752 275.552628 
L 99.162361 275.101695 
L 100.891818 274.787833 
L 110.971746 273.808748 
L 112.269033 273.348752 
L 112.639515 272.751642 
L 112.189542 272.040163 
L 109.143635 269.731251 
L 108.821053 269.08747 
L 109.277904 268.564518 
L 110.536393 268.160888 
L 114.718122 267.586817 
L 118.951125 266.992698 
L 120.310182 266.575191 
L 120.957737 266.049783 
L 120.931498 265.424586 
L 120.413059 264.728514 
L 119.054966 263.299314 
L 118.808594 262.654402 
L 119.128075 262.096351 
L 120.067166 261.632245 
L 121.5432 261.249029 
L 126.968534 260.24912 
L 128.278553 259.841212 
L 129.070634 259.355488 
L 129.345728 258.791629 
L 129.217726 258.166054 
L 128.5761 256.850526 
L 128.511666 256.227545 
L 128.843186 255.662236 
L 129.629166 255.164764 
L 130.824771 254.730267 
L 136.468171 253.169022 
L 137.260335 252.698494 
L 137.66954 252.171804 
L 137.77414 251.597419 
L 137.67255 250.384051 
L 137.801583 249.792322 
L 138.219991 249.236871 
L 139.088281 248.666723 
L 141.437339 247.779133 
L 143.943301 246.946736 
L 144.924454 246.504565 
L 145.629401 246.028061 
L 146.067418 245.514256 
L 146.463801 244.403131 
L 146.65735 243.833609 
L 146.99644 243.275492 
L 147.547839 242.740756 
L 148.324434 242.235449 
L 150.351059 241.303444 
L 152.39937 240.411466 
L 153.860224 239.470482 
L 154.699794 238.444732 
L 155.411692 237.372111 
L 155.899819 236.840588 
L 157.299207 235.821235 
L 161.564163 233.461999 
L 162.676188 232.483846 
L 164.589117 230.439639 
L 166.000239 229.439791 
L 169.963558 227.044259 
L 171.079697 226.06932 
L 173.153526 224.075853 
L 174.589951 223.091932 
L 178.40337 220.675324 
L 180.021156 219.204054 
L 181.117411 218.218653 
L 182.467426 217.239633 
L 186.882932 214.31278 
L 191.079356 210.885587 
L 195.278794 207.948223 
L 199.551505 204.536365 
L 204.220995 201.12692 
L 207.887095 198.228002 
L 212.511597 194.843407 
L 215.590628 192.438363 
L 220.803445 188.588863 
L 224.591592 185.71763 
L 229.701341 181.881141 
L 235.461508 177.536445 
L 235.461508 177.536445 
" clip-path="url(#p88a40ce2c2)" style="fill: none; stroke: #ff7f0e; stroke-opacity: 0.5; stroke-width: 1.5; stroke-linecap: square"/>
   </g>
   <g id="patch_3">
    <path d="M 57.6 307.584 
L 57.6 41.472 
" style="fill: none; stroke: #000000; stroke-width: 0.8; stroke-linejoin: miter; stroke-linecap: square"/>
   </g>
   <g id="patch_4">
    <path d="M 414.72 307.584 
L 414.72 41.472 
" style="fill: none; stroke: #000000; stroke-width: 0.8; stroke-linejoin: miter; stroke-linecap: square"/>
   </g>
   <g id="patch_5">
    <path d="M 57.6 307.584 
L 414.72 307.584 
" style="fill: none; stroke: #000000; stroke-width: 0.8; stroke-linejoin: miter; stroke-linecap: square"/>
   </g>
   <g id="patch_6">
    <path d="M 57.6 41.472 
L 414.72 41.472 
" style="fill: none; stroke: #000000; stroke-width: 0.8; stroke-linejoin: miter; stroke-linecap: square"/>
   </g>
   <g id="text_13">
    <!-- Compare - Epoch 900 -->
    <g transform="translate(171.234375 35.472) scale(0.12 -0.12)">
     <defs>
      <path id="DejaVuSans-43" d="M 4122 4306 
L 4122 3641 
Q 3803 3938 3442 4084 
Q 3081 4231 2675 4231 
Q 1875 4231 1450 3742 
Q 1025 3253 1025 2328 
Q 1025 1406 1450 917 
Q 1875 428 2675 428 
Q 3081 428 3442 575 
Q 3803 722 4122 1019 
L 4122 359 
Q 3791 134 3420 21 
Q 3050 -91 2638 -91 
Q 1578 -91 968 557 
Q 359 1206 359 2328 
Q 359 3453 968 4101 
Q 1578 4750 2638 4750 
Q 3056 4750 3426 4639 
Q 3797 4528 4122 4306 
z
" transform="scale(0.015625)"/>
      <path id="DejaVuSans-6f" d="M 1959 3097 
Q 1497 3097 1228 2736 
Q 959 2375 959 1747 
Q 959 1119 1226 758 
Q 1494 397 1959 397 
Q 2419 397 2687 759 
Q 2956 1122 2956 1747 
Q 2956 2369 2687 2733 
Q 2419 3097 1959 3097 
z
M 1959 3584 
Q 2709 3584 3137 3096 
Q 3566 2609 3566 1747 
Q 3566 888 3137 398 
Q 2709 -91 1959 -91 
Q 1206 -91 779 398 
Q 353 888 353 1747 
Q 353 2609 779 3096 
Q 1206 3584 1959 3584 
z
" transform="scale(0.015625)"/>
      <path id="DejaVuSans-6d" d="M 3328 2828 
Q 3544 3216 3844 3400 
Q 4144 3584 4550 3584 
Q 5097 3584 5394 3201 
Q 5691 2819 5691 2113 
L 5691 0 
L 5113 0 
L 5113 2094 
Q 5113 2597 4934 2840 
Q 4756 3084 4391 3084 
Q 3944 3084 3684 2787 
Q 3425 2491 3425 1978 
L 3425 0 
L 2847 0 
L 2847 2094 
Q 2847 2600 2669 2842 
Q 2491 3084 2119 3084 
Q 1678 3084 1418 2786 
Q 1159 2488 1159 1978 
L 1159 0 
L 581 0 
L 581 3500 
L 1159 3500 
L 1159 2956 
Q 1356 3278 1631 3431 
Q 1906 3584 2284 3584 
Q 2666 3584 2933 3390 
Q 3200 3197 3328 2828 
z
" transform="scale(0.015625)"/>
      <path id="DejaVuSans-70" d="M 1159 525 
L 1159 -1331 
L 581 -1331 
L 581 3500 
L 1159 3500 
L 1159 2969 
Q 1341 3281 1617 3432 
Q 1894 3584 2278 3584 
Q 2916 3584 3314 3078 
Q 3713 2572 3713 1747 
Q 3713 922 3314 415 
Q 2916 -91 2278 -91 
Q 1894 -91 1617 61 
Q 1341 213 1159 525 
z
M 3116 1747 
Q 3116 2381 2855 2742 
Q 2594 3103 2138 3103 
Q 1681 3103 1420 2742 
Q 1159 2381 1159 1747 
Q 1159 1113 1420 752 
Q 1681 391 2138 391 
Q 2594 391 2855 752 
Q 3116 1113 3116 1747 
z
" transform="scale(0.015625)"/>
      <path id="DejaVuSans-72" d="M 2631 2963 
Q 2534 3019 2420 3045 
Q 2306 3072 2169 3072 
Q 1681 3072 1420 2755 
Q 1159 2438 1159 1844 
L 1159 0 
L 581 0 
L 581 3500 
L 1159 3500 
L 1159 2956 
Q 1341 3275 1631 3429 
Q 1922 3584 2338 3584 
Q 2397 3584 2469 3576 
Q 2541 3569 2628 3553 
L 2631 2963 
z
" transform="scale(0.015625)"/>
      <path id="DejaVuSans-20" transform="scale(0.015625)"/>
      <path id="DejaVuSans-2d" d="M 313 2009 
L 1997 2009 
L 1997 1497 
L 313 1497 
L 313 2009 
z
" transform="scale(0.015625)"/>
      <path id="DejaVuSans-45" d="M 628 4666 
L 3578 4666 
L 3578 4134 
L 1259 4134 
L 1259 2753 
L 3481 2753 
L 3481 2222 
L 1259 2222 
L 1259 531 
L 3634 531 
L 3634 0 
L 628 0 
L 628 4666 
z
" transform="scale(0.015625)"/>
      <path id="DejaVuSans-63" d="M 3122 3366 
L 3122 2828 
Q 2878 2963 2633 3030 
Q 2388 3097 2138 3097 
Q 1578 3097 1268 2742 
Q 959 2388 959 1747 
Q 959 1106 1268 751 
Q 1578 397 2138 397 
Q 2388 397 2633 464 
Q 2878 531 3122 666 
L 3122 134 
Q 2881 22 2623 -34 
Q 2366 -91 2075 -91 
Q 1284 -91 818 406 
Q 353 903 353 1747 
Q 353 2603 823 3093 
Q 1294 3584 2113 3584 
Q 2378 3584 2631 3529 
Q 2884 3475 3122 3366 
z
" transform="scale(0.015625)"/>
      <path id="DejaVuSans-68" d="M 3513 2113 
L 3513 0 
L 2938 0 
L 2938 2094 
Q 2938 2591 2744 2837 
Q 2550 3084 2163 3084 
Q 1697 3084 1428 2787 
Q 1159 2491 1159 1978 
L 1159 0 
L 581 0 
L 581 4863 
L 1159 4863 
L 1159 2956 
Q 1366 3272 1645 3428 
Q 1925 3584 2291 3584 
Q 2894 3584 3203 3211 
Q 3513 2838 3513 2113 
z
" transform="scale(0.015625)"/>
      <path id="DejaVuSans-39" d="M 703 97 
L 703 672 
Q 941 559 1184 500 
Q 1428 441 1663 441 
Q 2288 441 2617 861 
Q 2947 1281 2994 2138 
Q 2813 1869 2534 1725 
Q 2256 1581 1919 1581 
Q 1219 1581 811 2004 
Q 403 2428 403 3163 
Q 403 3881 828 4315 
Q 1253 4750 1959 4750 
Q 2769 4750 3195 4129 
Q 3622 3509 3622 2328 
Q 3622 1225 3098 567 
Q 2575 -91 1691 -91 
Q 1453 -91 1209 -44 
Q 966 3 703 97 
z
M 1959 2075 
Q 2384 2075 2632 2365 
Q 2881 2656 2881 3163 
Q 2881 3666 2632 3958 
Q 2384 4250 1959 4250 
Q 1534 4250 1286 3958 
Q 1038 3666 1038 3163 
Q 1038 2656 1286 2365 
Q 1534 2075 1959 2075 
z
" transform="scale(0.015625)"/>
     </defs>
     <use xlink:href="#DejaVuSans-43"/>
     <use xlink:href="#DejaVuSans-6f" transform="translate(69.824219 0)"/>
     <use xlink:href="#DejaVuSans-6d" transform="translate(131.005859 0)"/>
     <use xlink:href="#DejaVuSans-70" transform="translate(228.417969 0)"/>
     <use xlink:href="#DejaVuSans-61" transform="translate(291.894531 0)"/>
     <use xlink:href="#DejaVuSans-72" transform="translate(353.173828 0)"/>
     <use xlink:href="#DejaVuSans-65" transform="translate(392.037109 0)"/>
     <use xlink:href="#DejaVuSans-20" transform="translate(453.560547 0)"/>
     <use xlink:href="#DejaVuSans-2d" transform="translate(485.347656 0)"/>
     <use xlink:href="#DejaVuSans-20" transform="translate(521.431641 0)"/>
     <use xlink:href="#DejaVuSans-45" transform="translate(553.21875 0)"/>
     <use xlink:href="#DejaVuSans-70" transform="translate(616.402344 0)"/>
     <use xlink:href="#DejaVuSans-6f" transform="translate(679.878906 0)"/>
     <use xlink:href="#DejaVuSans-63" transform="translate(741.060547 0)"/>
     <use xlink:href="#DejaVuSans-68" transform="translate(796.041016 0)"/>
     <use xlink:href="#DejaVuSans-20" transform="translate(859.419922 0)"/>
     <use xlink:href="#DejaVuSans-39" transform="translate(891.207031 0)"/>
     <use xlink:href="#DejaVuSans-30" transform="translate(954.830078 0)"/>
     <use xlink:href="#DejaVuSans-30" transform="translate(1018.453125 0)"/>
    </g>
   </g>
   <g id="legend_1">
    <g id="patch_7">
     <path d="M 64.6 78.82825 
L 181.128125 78.82825 
Q 183.128125 78.82825 183.128125 76.82825 
L 183.128125 48.472 
Q 183.128125 46.472 181.128125 46.472 
L 64.6 46.472 
Q 62.6 46.472 62.6 48.472 
L 62.6 76.82825 
Q 62.6 78.82825 64.6 78.82825 
z
" style="fill: #ffffff; opacity: 0.8; stroke: #cccccc; stroke-linejoin: miter"/>
    </g>
    <g id="line2d_23">
     <path d="M 66.6 54.570437 
L 76.6 54.570437 
L 86.6 54.570437 
" style="fill: none; stroke: #1f77b4; stroke-width: 1.5; stroke-linecap: square"/>
    </g>
    <g id="text_14">
     <!-- Pred: Sample 1 -->
     <g transform="translate(94.6 58.070437) scale(0.1 -0.1)">
      <defs>
       <path id="DejaVuSans-50" d="M 1259 4147 
L 1259 2394 
L 2053 2394 
Q 2494 2394 2734 2622 
Q 2975 2850 2975 3272 
Q 2975 3691 2734 3919 
Q 2494 4147 2053 4147 
L 1259 4147 
z
M 628 4666 
L 2053 4666 
Q 2838 4666 3239 4311 
Q 3641 3956 3641 3272 
Q 3641 2581 3239 2228 
Q 2838 1875 2053 1875 
L 1259 1875 
L 1259 0 
L 628 0 
L 628 4666 
z
" transform="scale(0.015625)"/>
       <path id="DejaVuSans-3a" d="M 750 794 
L 1409 794 
L 1409 0 
L 750 0 
L 750 794 
z
M 750 3309 
L 1409 3309 
L 1409 2516 
L 750 2516 
L 750 3309 
z
" transform="scale(0.015625)"/>
       <path id="DejaVuSans-53" d="M 3425 4513 
L 3425 3897 
Q 3066 4069 2747 4153 
Q 2428 4238 2131 4238 
Q 1616 4238 1336 4038 
Q 1056 3838 1056 3469 
Q 1056 3159 1242 3001 
Q 1428 2844 1947 2747 
L 2328 2669 
Q 3034 2534 3370 2195 
Q 3706 1856 3706 1288 
Q 3706 609 3251 259 
Q 2797 -91 1919 -91 
Q 1588 -91 1214 -16 
Q 841 59 441 206 
L 441 856 
Q 825 641 1194 531 
Q 1563 422 1919 422 
Q 2459 422 2753 634 
Q 3047 847 3047 1241 
Q 3047 1584 2836 1778 
Q 2625 1972 2144 2069 
L 1759 2144 
Q 1053 2284 737 2584 
Q 422 2884 422 3419 
Q 422 4038 858 4394 
Q 1294 4750 2059 4750 
Q 2388 4750 2728 4690 
Q 3069 4631 3425 4513 
z
" transform="scale(0.015625)"/>
      </defs>
      <use xlink:href="#DejaVuSans-50"/>
      <use xlink:href="#DejaVuSans-72" transform="translate(58.552734 0)"/>
      <use xlink:href="#DejaVuSans-65" transform="translate(97.416016 0)"/>
      <use xlink:href="#DejaVuSans-64" transform="translate(158.939453 0)"/>
      <use xlink:href="#DejaVuSans-3a" transform="translate(222.416016 0)"/>
      <use xlink:href="#DejaVuSans-20" transform="translate(256.107422 0)"/>
      <use xlink:href="#DejaVuSans-53" transform="translate(287.894531 0)"/>
      <use xlink:href="#DejaVuSans-61" transform="translate(351.371094 0)"/>
      <use xlink:href="#DejaVuSans-6d" transform="translate(412.650391 0)"/>
      <use xlink:href="#DejaVuSans-70" transform="translate(510.0625 0)"/>
      <use xlink:href="#DejaVuSans-6c" transform="translate(573.539062 0)"/>
      <use xlink:href="#DejaVuSans-65" transform="translate(601.322266 0)"/>
      <use xlink:href="#DejaVuSans-20" transform="translate(662.845703 0)"/>
      <use xlink:href="#DejaVuSans-31" transform="translate(694.632812 0)"/>
     </g>
    </g>
    <g id="line2d_24">
     <path d="M 66.6 69.248562 
L 76.6 69.248562 
L 86.6 69.248562 
" style="fill: none; stroke: #ff7f0e; stroke-opacity: 0.5; stroke-width: 1.5; stroke-linecap: square"/>
    </g>
    <g id="text_15">
     <!-- Target: Sample 1 -->
     <g transform="translate(94.6 72.748562) scale(0.1 -0.1)">
      <defs>
       <path id="DejaVuSans-54" d="M -19 4666 
L 3928 4666 
L 3928 4134 
L 2272 4134 
L 2272 0 
L 1638 0 
L 1638 4134 
L -19 4134 
L -19 4666 
z
" transform="scale(0.015625)"/>
       <path id="DejaVuSans-67" d="M 2906 1791 
Q 2906 2416 2648 2759 
Q 2391 3103 1925 3103 
Q 1463 3103 1205 2759 
Q 947 2416 947 1791 
Q 947 1169 1205 825 
Q 1463 481 1925 481 
Q 2391 481 2648 825 
Q 2906 1169 2906 1791 
z
M 3481 434 
Q 3481 -459 3084 -895 
Q 2688 -1331 1869 -1331 
Q 1566 -1331 1297 -1286 
Q 1028 -1241 775 -1147 
L 775 -588 
Q 1028 -725 1275 -790 
Q 1522 -856 1778 -856 
Q 2344 -856 2625 -561 
Q 2906 -266 2906 331 
L 2906 616 
Q 2728 306 2450 153 
Q 2172 0 1784 0 
Q 1141 0 747 490 
Q 353 981 353 1791 
Q 353 2603 747 3093 
Q 1141 3584 1784 3584 
Q 2172 3584 2450 3431 
Q 2728 3278 2906 2969 
L 2906 3500 
L 3481 3500 
L 3481 434 
z
" transform="scale(0.015625)"/>
       <path id="DejaVuSans-74" d="M 1172 4494 
L 1172 3500 
L 2356 3500 
L 2356 3053 
L 1172 3053 
L 1172 1153 
Q 1172 725 1289 603 
Q 1406 481 1766 481 
L 2356 481 
L 2356 0 
L 1766 0 
Q 1100 0 847 248 
Q 594 497 594 1153 
L 594 3053 
L 172 3053 
L 172 3500 
L 594 3500 
L 594 4494 
L 1172 4494 
z
" transform="scale(0.015625)"/>
      </defs>
      <use xlink:href="#DejaVuSans-54"/>
      <use xlink:href="#DejaVuSans-61" transform="translate(44.583984 0)"/>
      <use xlink:href="#DejaVuSans-72" transform="translate(105.863281 0)"/>
      <use xlink:href="#DejaVuSans-67" transform="translate(145.226562 0)"/>
      <use xlink:href="#DejaVuSans-65" transform="translate(208.703125 0)"/>
      <use xlink:href="#DejaVuSans-74" transform="translate(270.226562 0)"/>
      <use xlink:href="#DejaVuSans-3a" transform="translate(309.435547 0)"/>
      <use xlink:href="#DejaVuSans-20" transform="translate(343.126953 0)"/>
      <use xlink:href="#DejaVuSans-53" transform="translate(374.914062 0)"/>
      <use xlink:href="#DejaVuSans-61" transform="translate(438.390625 0)"/>
      <use xlink:href="#DejaVuSans-6d" transform="translate(499.669922 0)"/>
      <use xlink:href="#DejaVuSans-70" transform="translate(597.082031 0)"/>
      <use xlink:href="#DejaVuSans-6c" transform="translate(660.558594 0)"/>
      <use xlink:href="#DejaVuSans-65" transform="translate(688.341797 0)"/>
      <use xlink:href="#DejaVuSans-20" transform="translate(749.865234 0)"/>
      <use xlink:href="#DejaVuSans-31" transform="translate(781.652344 0)"/>
     </g>
    </g>
   </g>
  </g>
 </g>
 <defs>
  <clipPath id="p88a40ce2c2">
   <rect x="57.6" y="41.472" width="357.12" height="266.112"/>
  </clipPath>
 </defs>
</svg>
