<?xml version="1.0" encoding="utf-8" standalone="no"?>
<!DOCTYPE svg PUBLIC "-//W3C//DTD SVG 1.1//EN"
  "http://www.w3.org/Graphics/SVG/1.1/DTD/svg11.dtd">
<svg xmlns:xlink="http://www.w3.org/1999/xlink" width="460.8pt" height="345.6pt" viewBox="0 0 460.8 345.6" xmlns="http://www.w3.org/2000/svg" version="1.1">
 <metadata>
  <rdf:RDF xmlns:dc="http://purl.org/dc/elements/1.1/" xmlns:cc="http://creativecommons.org/ns#" xmlns:rdf="http://www.w3.org/1999/02/22-rdf-syntax-ns#">
   <cc:Work>
    <dc:type rdf:resource="http://purl.org/dc/dcmitype/StillImage"/>
    <dc:date>2025-04-15T21:55:36.259664</dc:date>
    <dc:format>image/svg+xml</dc:format>
    <dc:creator>
     <cc:Agent>
      <dc:title>Matplotlib v3.10.0, https://matplotlib.org/</dc:title>
     </cc:Agent>
    </dc:creator>
   </cc:Work>
  </rdf:RDF>
 </metadata>
 <defs>
  <style type="text/css">*{stroke-linejoin: round; stroke-linecap: butt}</style>
 </defs>
 <g id="figure_1">
  <g id="patch_1">
   <path d="M 0 345.6 
L 460.8 345.6 
L 460.8 0 
L 0 0 
z
" style="fill: #ffffff"/>
  </g>
  <g id="axes_1">
   <g id="patch_2">
    <path d="M 57.6 307.584 
L 414.72 307.584 
L 414.72 41.472 
L 57.6 41.472 
z
" style="fill: #ffffff"/>
   </g>
   <g id="matplotlib.axis_1">
    <g id="xtick_1">
     <g id="line2d_1">
      <path d="M 96.965447 307.584 
L 96.965447 41.472 
" clip-path="url(#pb48dd9922f)" style="fill: none; stroke: #b0b0b0; stroke-opacity: 0.5; stroke-width: 0.8; stroke-linecap: square"/>
     </g>
     <g id="line2d_2">
      <defs>
       <path id="mf942af78e2" d="M 0 0 
L 0 3.5 
" style="stroke: #000000; stroke-width: 0.8"/>
      </defs>
      <g>
       <use xlink:href="#mf942af78e2" x="96.965447" y="307.584" style="stroke: #000000; stroke-width: 0.8"/>
      </g>
     </g>
     <g id="text_1">
      <!-- −1.0 -->
      <g transform="translate(84.824041 322.182437) scale(0.1 -0.1)">
       <defs>
        <path id="DejaVuSans-2212" d="M 678 2272 
L 4684 2272 
L 4684 1741 
L 678 1741 
L 678 2272 
z
" transform="scale(0.015625)"/>
        <path id="DejaVuSans-31" d="M 794 531 
L 1825 531 
L 1825 4091 
L 703 3866 
L 703 4441 
L 1819 4666 
L 2450 4666 
L 2450 531 
L 3481 531 
L 3481 0 
L 794 0 
L 794 531 
z
" transform="scale(0.015625)"/>
        <path id="DejaVuSans-2e" d="M 684 794 
L 1344 794 
L 1344 0 
L 684 0 
L 684 794 
z
" transform="scale(0.015625)"/>
        <path id="DejaVuSans-30" d="M 2034 4250 
Q 1547 4250 1301 3770 
Q 1056 3291 1056 2328 
Q 1056 1369 1301 889 
Q 1547 409 2034 409 
Q 2525 409 2770 889 
Q 3016 1369 3016 2328 
Q 3016 3291 2770 3770 
Q 2525 4250 2034 4250 
z
M 2034 4750 
Q 2819 4750 3233 4129 
Q 3647 3509 3647 2328 
Q 3647 1150 3233 529 
Q 2819 -91 2034 -91 
Q 1250 -91 836 529 
Q 422 1150 422 2328 
Q 422 3509 836 4129 
Q 1250 4750 2034 4750 
z
" transform="scale(0.015625)"/>
       </defs>
       <use xlink:href="#DejaVuSans-2212"/>
       <use xlink:href="#DejaVuSans-31" transform="translate(83.789062 0)"/>
       <use xlink:href="#DejaVuSans-2e" transform="translate(147.412109 0)"/>
       <use xlink:href="#DejaVuSans-30" transform="translate(179.199219 0)"/>
      </g>
     </g>
    </g>
    <g id="xtick_2">
     <g id="line2d_3">
      <path d="M 166.141266 307.584 
L 166.141266 41.472 
" clip-path="url(#pb48dd9922f)" style="fill: none; stroke: #b0b0b0; stroke-opacity: 0.5; stroke-width: 0.8; stroke-linecap: square"/>
     </g>
     <g id="line2d_4">
      <g>
       <use xlink:href="#mf942af78e2" x="166.141266" y="307.584" style="stroke: #000000; stroke-width: 0.8"/>
      </g>
     </g>
     <g id="text_2">
      <!-- −0.5 -->
      <g transform="translate(153.99986 322.182437) scale(0.1 -0.1)">
       <defs>
        <path id="DejaVuSans-35" d="M 691 4666 
L 3169 4666 
L 3169 4134 
L 1269 4134 
L 1269 2991 
Q 1406 3038 1543 3061 
Q 1681 3084 1819 3084 
Q 2600 3084 3056 2656 
Q 3513 2228 3513 1497 
Q 3513 744 3044 326 
Q 2575 -91 1722 -91 
Q 1428 -91 1123 -41 
Q 819 9 494 109 
L 494 744 
Q 775 591 1075 516 
Q 1375 441 1709 441 
Q 2250 441 2565 725 
Q 2881 1009 2881 1497 
Q 2881 1984 2565 2268 
Q 2250 2553 1709 2553 
Q 1456 2553 1204 2497 
Q 953 2441 691 2322 
L 691 4666 
z
" transform="scale(0.015625)"/>
       </defs>
       <use xlink:href="#DejaVuSans-2212"/>
       <use xlink:href="#DejaVuSans-30" transform="translate(83.789062 0)"/>
       <use xlink:href="#DejaVuSans-2e" transform="translate(147.412109 0)"/>
       <use xlink:href="#DejaVuSans-35" transform="translate(179.199219 0)"/>
      </g>
     </g>
    </g>
    <g id="xtick_3">
     <g id="line2d_5">
      <path d="M 235.317086 307.584 
L 235.317086 41.472 
" clip-path="url(#pb48dd9922f)" style="fill: none; stroke: #b0b0b0; stroke-opacity: 0.5; stroke-width: 0.8; stroke-linecap: square"/>
     </g>
     <g id="line2d_6">
      <g>
       <use xlink:href="#mf942af78e2" x="235.317086" y="307.584" style="stroke: #000000; stroke-width: 0.8"/>
      </g>
     </g>
     <g id="text_3">
      <!-- 0.0 -->
      <g transform="translate(227.365523 322.182437) scale(0.1 -0.1)">
       <use xlink:href="#DejaVuSans-30"/>
       <use xlink:href="#DejaVuSans-2e" transform="translate(63.623047 0)"/>
       <use xlink:href="#DejaVuSans-30" transform="translate(95.410156 0)"/>
      </g>
     </g>
    </g>
    <g id="xtick_4">
     <g id="line2d_7">
      <path d="M 304.492905 307.584 
L 304.492905 41.472 
" clip-path="url(#pb48dd9922f)" style="fill: none; stroke: #b0b0b0; stroke-opacity: 0.5; stroke-width: 0.8; stroke-linecap: square"/>
     </g>
     <g id="line2d_8">
      <g>
       <use xlink:href="#mf942af78e2" x="304.492905" y="307.584" style="stroke: #000000; stroke-width: 0.8"/>
      </g>
     </g>
     <g id="text_4">
      <!-- 0.5 -->
      <g transform="translate(296.541343 322.182437) scale(0.1 -0.1)">
       <use xlink:href="#DejaVuSans-30"/>
       <use xlink:href="#DejaVuSans-2e" transform="translate(63.623047 0)"/>
       <use xlink:href="#DejaVuSans-35" transform="translate(95.410156 0)"/>
      </g>
     </g>
    </g>
    <g id="xtick_5">
     <g id="line2d_9">
      <path d="M 373.668725 307.584 
L 373.668725 41.472 
" clip-path="url(#pb48dd9922f)" style="fill: none; stroke: #b0b0b0; stroke-opacity: 0.5; stroke-width: 0.8; stroke-linecap: square"/>
     </g>
     <g id="line2d_10">
      <g>
       <use xlink:href="#mf942af78e2" x="373.668725" y="307.584" style="stroke: #000000; stroke-width: 0.8"/>
      </g>
     </g>
     <g id="text_5">
      <!-- 1.0 -->
      <g transform="translate(365.717162 322.182437) scale(0.1 -0.1)">
       <use xlink:href="#DejaVuSans-31"/>
       <use xlink:href="#DejaVuSans-2e" transform="translate(63.623047 0)"/>
       <use xlink:href="#DejaVuSans-30" transform="translate(95.410156 0)"/>
      </g>
     </g>
    </g>
    <g id="text_6">
     <!-- Index -->
     <g transform="translate(222.393594 335.860562) scale(0.1 -0.1)">
      <defs>
       <path id="DejaVuSans-49" d="M 628 4666 
L 1259 4666 
L 1259 0 
L 628 0 
L 628 4666 
z
" transform="scale(0.015625)"/>
       <path id="DejaVuSans-6e" d="M 3513 2113 
L 3513 0 
L 2938 0 
L 2938 2094 
Q 2938 2591 2744 2837 
Q 2550 3084 2163 3084 
Q 1697 3084 1428 2787 
Q 1159 2491 1159 1978 
L 1159 0 
L 581 0 
L 581 3500 
L 1159 3500 
L 1159 2956 
Q 1366 3272 1645 3428 
Q 1925 3584 2291 3584 
Q 2894 3584 3203 3211 
Q 3513 2838 3513 2113 
z
" transform="scale(0.015625)"/>
       <path id="DejaVuSans-64" d="M 2906 2969 
L 2906 4863 
L 3481 4863 
L 3481 0 
L 2906 0 
L 2906 525 
Q 2725 213 2448 61 
Q 2172 -91 1784 -91 
Q 1150 -91 751 415 
Q 353 922 353 1747 
Q 353 2572 751 3078 
Q 1150 3584 1784 3584 
Q 2172 3584 2448 3432 
Q 2725 3281 2906 2969 
z
M 947 1747 
Q 947 1113 1208 752 
Q 1469 391 1925 391 
Q 2381 391 2643 752 
Q 2906 1113 2906 1747 
Q 2906 2381 2643 2742 
Q 2381 3103 1925 3103 
Q 1469 3103 1208 2742 
Q 947 2381 947 1747 
z
" transform="scale(0.015625)"/>
       <path id="DejaVuSans-65" d="M 3597 1894 
L 3597 1613 
L 953 1613 
Q 991 1019 1311 708 
Q 1631 397 2203 397 
Q 2534 397 2845 478 
Q 3156 559 3463 722 
L 3463 178 
Q 3153 47 2828 -22 
Q 2503 -91 2169 -91 
Q 1331 -91 842 396 
Q 353 884 353 1716 
Q 353 2575 817 3079 
Q 1281 3584 2069 3584 
Q 2775 3584 3186 3129 
Q 3597 2675 3597 1894 
z
M 3022 2063 
Q 3016 2534 2758 2815 
Q 2500 3097 2075 3097 
Q 1594 3097 1305 2825 
Q 1016 2553 972 2059 
L 3022 2063 
z
" transform="scale(0.015625)"/>
       <path id="DejaVuSans-78" d="M 3513 3500 
L 2247 1797 
L 3578 0 
L 2900 0 
L 1881 1375 
L 863 0 
L 184 0 
L 1544 1831 
L 300 3500 
L 978 3500 
L 1906 2253 
L 2834 3500 
L 3513 3500 
z
" transform="scale(0.015625)"/>
      </defs>
      <use xlink:href="#DejaVuSans-49"/>
      <use xlink:href="#DejaVuSans-6e" transform="translate(29.492188 0)"/>
      <use xlink:href="#DejaVuSans-64" transform="translate(92.871094 0)"/>
      <use xlink:href="#DejaVuSans-65" transform="translate(156.347656 0)"/>
      <use xlink:href="#DejaVuSans-78" transform="translate(216.121094 0)"/>
     </g>
    </g>
   </g>
   <g id="matplotlib.axis_2">
    <g id="ytick_1">
     <g id="line2d_11">
      <path d="M 57.6 275.510055 
L 414.72 275.510055 
" clip-path="url(#pb48dd9922f)" style="fill: none; stroke: #b0b0b0; stroke-opacity: 0.5; stroke-width: 0.8; stroke-linecap: square"/>
     </g>
     <g id="line2d_12">
      <defs>
       <path id="m1632db2dff" d="M 0 0 
L -3.5 0 
" style="stroke: #000000; stroke-width: 0.8"/>
      </defs>
      <g>
       <use xlink:href="#m1632db2dff" x="57.6" y="275.510055" style="stroke: #000000; stroke-width: 0.8"/>
      </g>
     </g>
     <g id="text_7">
      <!-- −1.0 -->
      <g transform="translate(26.317187 279.309274) scale(0.1 -0.1)">
       <use xlink:href="#DejaVuSans-2212"/>
       <use xlink:href="#DejaVuSans-31" transform="translate(83.789062 0)"/>
       <use xlink:href="#DejaVuSans-2e" transform="translate(147.412109 0)"/>
       <use xlink:href="#DejaVuSans-30" transform="translate(179.199219 0)"/>
      </g>
     </g>
    </g>
    <g id="ytick_2">
     <g id="line2d_13">
      <path d="M 57.6 225.025611 
L 414.72 225.025611 
" clip-path="url(#pb48dd9922f)" style="fill: none; stroke: #b0b0b0; stroke-opacity: 0.5; stroke-width: 0.8; stroke-linecap: square"/>
     </g>
     <g id="line2d_14">
      <g>
       <use xlink:href="#m1632db2dff" x="57.6" y="225.025611" style="stroke: #000000; stroke-width: 0.8"/>
      </g>
     </g>
     <g id="text_8">
      <!-- −0.5 -->
      <g transform="translate(26.317187 228.82483) scale(0.1 -0.1)">
       <use xlink:href="#DejaVuSans-2212"/>
       <use xlink:href="#DejaVuSans-30" transform="translate(83.789062 0)"/>
       <use xlink:href="#DejaVuSans-2e" transform="translate(147.412109 0)"/>
       <use xlink:href="#DejaVuSans-35" transform="translate(179.199219 0)"/>
      </g>
     </g>
    </g>
    <g id="ytick_3">
     <g id="line2d_15">
      <path d="M 57.6 174.541168 
L 414.72 174.541168 
" clip-path="url(#pb48dd9922f)" style="fill: none; stroke: #b0b0b0; stroke-opacity: 0.5; stroke-width: 0.8; stroke-linecap: square"/>
     </g>
     <g id="line2d_16">
      <g>
       <use xlink:href="#m1632db2dff" x="57.6" y="174.541168" style="stroke: #000000; stroke-width: 0.8"/>
      </g>
     </g>
     <g id="text_9">
      <!-- 0.0 -->
      <g transform="translate(34.696875 178.340387) scale(0.1 -0.1)">
       <use xlink:href="#DejaVuSans-30"/>
       <use xlink:href="#DejaVuSans-2e" transform="translate(63.623047 0)"/>
       <use xlink:href="#DejaVuSans-30" transform="translate(95.410156 0)"/>
      </g>
     </g>
    </g>
    <g id="ytick_4">
     <g id="line2d_17">
      <path d="M 57.6 124.056724 
L 414.72 124.056724 
" clip-path="url(#pb48dd9922f)" style="fill: none; stroke: #b0b0b0; stroke-opacity: 0.5; stroke-width: 0.8; stroke-linecap: square"/>
     </g>
     <g id="line2d_18">
      <g>
       <use xlink:href="#m1632db2dff" x="57.6" y="124.056724" style="stroke: #000000; stroke-width: 0.8"/>
      </g>
     </g>
     <g id="text_10">
      <!-- 0.5 -->
      <g transform="translate(34.696875 127.855943) scale(0.1 -0.1)">
       <use xlink:href="#DejaVuSans-30"/>
       <use xlink:href="#DejaVuSans-2e" transform="translate(63.623047 0)"/>
       <use xlink:href="#DejaVuSans-35" transform="translate(95.410156 0)"/>
      </g>
     </g>
    </g>
    <g id="ytick_5">
     <g id="line2d_19">
      <path d="M 57.6 73.572281 
L 414.72 73.572281 
" clip-path="url(#pb48dd9922f)" style="fill: none; stroke: #b0b0b0; stroke-opacity: 0.5; stroke-width: 0.8; stroke-linecap: square"/>
     </g>
     <g id="line2d_20">
      <g>
       <use xlink:href="#m1632db2dff" x="57.6" y="73.572281" style="stroke: #000000; stroke-width: 0.8"/>
      </g>
     </g>
     <g id="text_11">
      <!-- 1.0 -->
      <g transform="translate(34.696875 77.371499) scale(0.1 -0.1)">
       <use xlink:href="#DejaVuSans-31"/>
       <use xlink:href="#DejaVuSans-2e" transform="translate(63.623047 0)"/>
       <use xlink:href="#DejaVuSans-30" transform="translate(95.410156 0)"/>
      </g>
     </g>
    </g>
    <g id="text_12">
     <!-- Value -->
     <g transform="translate(20.2375 188.25925) rotate(-90) scale(0.1 -0.1)">
      <defs>
       <path id="DejaVuSans-56" d="M 1831 0 
L 50 4666 
L 709 4666 
L 2188 738 
L 3669 4666 
L 4325 4666 
L 2547 0 
L 1831 0 
z
" transform="scale(0.015625)"/>
       <path id="DejaVuSans-61" d="M 2194 1759 
Q 1497 1759 1228 1600 
Q 959 1441 959 1056 
Q 959 750 1161 570 
Q 1363 391 1709 391 
Q 2188 391 2477 730 
Q 2766 1069 2766 1631 
L 2766 1759 
L 2194 1759 
z
M 3341 1997 
L 3341 0 
L 2766 0 
L 2766 531 
Q 2569 213 2275 61 
Q 1981 -91 1556 -91 
Q 1019 -91 701 211 
Q 384 513 384 1019 
Q 384 1609 779 1909 
Q 1175 2209 1959 2209 
L 2766 2209 
L 2766 2266 
Q 2766 2663 2505 2880 
Q 2244 3097 1772 3097 
Q 1472 3097 1187 3025 
Q 903 2953 641 2809 
L 641 3341 
Q 956 3463 1253 3523 
Q 1550 3584 1831 3584 
Q 2591 3584 2966 3190 
Q 3341 2797 3341 1997 
z
" transform="scale(0.015625)"/>
       <path id="DejaVuSans-6c" d="M 603 4863 
L 1178 4863 
L 1178 0 
L 603 0 
L 603 4863 
z
" transform="scale(0.015625)"/>
       <path id="DejaVuSans-75" d="M 544 1381 
L 544 3500 
L 1119 3500 
L 1119 1403 
Q 1119 906 1312 657 
Q 1506 409 1894 409 
Q 2359 409 2629 706 
Q 2900 1003 2900 1516 
L 2900 3500 
L 3475 3500 
L 3475 0 
L 2900 0 
L 2900 538 
Q 2691 219 2414 64 
Q 2138 -91 1772 -91 
Q 1169 -91 856 284 
Q 544 659 544 1381 
z
M 1991 3584 
L 1991 3584 
z
" transform="scale(0.015625)"/>
      </defs>
      <use xlink:href="#DejaVuSans-56"/>
      <use xlink:href="#DejaVuSans-61" transform="translate(60.658203 0)"/>
      <use xlink:href="#DejaVuSans-6c" transform="translate(121.9375 0)"/>
      <use xlink:href="#DejaVuSans-75" transform="translate(149.720703 0)"/>
      <use xlink:href="#DejaVuSans-65" transform="translate(213.099609 0)"/>
     </g>
    </g>
   </g>
   <g id="line2d_21">
    <path d="M 233.842106 177.476808 
L 234.963167 176.999573 
L 240.749897 176.522276 
L 242.585537 176.045229 
L 239.63284 175.093131 
L 239.407449 174.618515 
L 240.439742 174.144899 
L 241.807498 173.672084 
L 242.833412 173.199704 
L 243.426204 172.727297 
L 244.323598 171.780766 
L 257.374578 161.877823 
L 262.317664 158.129645 
L 282.647643 142.724748 
L 289.375806 137.607072 
L 298.464375 130.671934 
L 326.106902 109.675972 
L 328.873165 109.166861 
L 326.581408 108.714123 
L 327.06026 108.261444 
L 329.242926 107.357593 
L 329.960354 106.906853 
L 331.435602 105.557406 
L 335.026316 102.854777 
L 342.678645 97.028832 
L 347.383852 93.452051 
L 355.626211 87.214231 
L 358.540168 84.983339 
L 361.470666 82.764947 
L 364.391178 80.537173 
L 367.285747 78.323896 
L 370.221598 76.104505 
L 373.079957 73.898931 
L 376.016145 71.689422 
L 378.228687 69.932717 
L 381.790671 67.294958 
L 383.935939 65.54793 
L 387.559885 62.921714 
L 389.588021 61.182281 
L 392.867071 59.006576 
L 395.126634 56.838719 
L 398.308623 55.104053 
L 398.487273 54.655431 
L 397.97936 54.234156 
L 396.601074 53.879707 
L 394.254544 53.640772 
L 390.971124 53.568 
L 387.043298 53.70418 
L 383.129721 54.074204 
L 380.166344 54.676603 
L 378.908834 55.479662 
L 379.513708 56.422909 
L 381.573724 57.424544 
L 384.471163 58.393982 
L 391.760569 60.388804 
L 391.705532 60.657962 
L 390.135335 60.776509 
L 379.821463 61.031477 
L 375.693414 61.348516 
L 372.288987 61.858416 
L 370.474267 62.553207 
L 365.714808 63.499366 
L 374.179293 64.406756 
L 377.548425 65.290098 
L 379.387999 66.073621 
L 380.4583 66.704162 
L 380.946948 67.161534 
L 380.528971 67.461614 
L 378.934711 67.652127 
L 369.054064 68.27045 
L 365.691265 68.698357 
L 363.392935 69.2821 
L 362.617543 70.001734 
L 363.353385 70.809812 
L 365.141518 71.642384 
L 370.65521 73.683094 
L 370.832961 74.10458 
L 369.812898 74.411701 
L 365.048153 74.879569 
L 359.000836 75.530114 
L 356.594273 76.022507 
L 355.202454 76.633367 
L 355.001703 77.337005 
L 355.838169 78.089167 
L 358.849622 79.531836 
L 360.047775 80.136203 
L 360.516244 80.634228 
L 360.059122 81.03267 
L 358.703034 81.358791 
L 349.499754 82.77507 
L 347.958527 83.31299 
L 347.270992 83.930687 
L 347.403891 84.600954 
L 348.128172 85.286736 
L 349.935445 86.557674 
L 350.345332 87.092374 
L 350.130678 87.551263 
L 349.235218 87.94805 
L 345.899434 88.664844 
L 342.050987 89.48228 
L 340.58486 89.978921 
L 339.675175 90.536009 
L 339.35138 91.138817 
L 339.501662 91.763839 
L 340.569637 93.519816 
L 340.399505 94.012112 
L 339.765382 94.457008 
L 338.686406 94.86937 
L 332.878928 96.600064 
L 331.922379 97.121813 
L 331.36573 97.678516 
L 331.163669 98.255946 
L 331.256589 99.940835 
L 331.003301 100.445318 
L 330.442711 100.917092 
L 329.569854 101.364438 
L 324.867897 103.172538 
L 323.984988 103.678123 
L 323.355565 104.206991 
L 322.959762 104.750737 
L 322.263238 106.364208 
L 321.869671 106.868998 
L 321.290749 107.353687 
L 319.61085 108.283489 
L 316.722919 109.694965 
L 315.28069 110.701578 
L 314.314484 111.742621 
L 312.968778 113.273889 
L 311.684146 114.244236 
L 307.101481 117.138696 
L 305.418729 118.647366 
L 303.714033 120.130826 
L 301.63728 121.575745 
L 298.850838 123.515921 
L 293.16532 127.913422 
L 289.952003 130.347612 
L 286.019476 133.269251 
L 282.237516 136.203293 
L 278.891754 136.750291 
L 281.914377 137.235534 
L 281.37065 137.720464 
L 278.625762 138.692192 
L 277.77809 139.179956 
L 275.729255 141.139622 
L 270.48687 145.018575 
L 266.698515 147.934382 
L 262.883277 150.820411 
L 259.028076 153.711346 
L 255.293541 156.588791 
L 250.806254 159.945091 
L 247.055849 162.811328 
L 242.629569 166.153464 
L 237.605309 169.954049 
L 225.776825 178.944617 
L 221.427979 182.231072 
L 213.420234 188.316079 
L 190.769561 205.53671 
L 187.78455 206.058414 
L 190.330251 206.522394 
L 189.858536 206.986675 
L 187.451272 207.915764 
L 186.69149 208.380163 
L 185.326092 209.770554 
L 179.761541 213.927702 
L 104.558336 271.493613 
L 102.054853 271.991253 
L 104.028365 272.434152 
L 103.582029 272.876948 
L 101.567796 273.759808 
L 100.88755 274.199216 
L 99.442088 275.513461 
L 96.531521 277.714864 
L 94.292129 279.462999 
L 91.392101 281.652052 
L 88.654791 283.827757 
L 85.719452 286.010467 
L 83.685328 287.746229 
L 80.030029 290.354812 
L 78.795972 291.657984 
L 77.549528 292.496695 
L 75.154213 293.799722 
L 74.807732 294.24956 
L 75.037988 294.682582 
L 76.038128 295.064426 
L 77.935872 295.34975 
L 80.767933 295.488 
L 84.364057 295.432572 
L 88.248705 295.150595 
L 91.606573 294.632571 
L 93.602301 293.898277 
L 93.834586 292.997759 
L 92.499576 292.00627 
L 90.110412 291.013542 
L 87.210186 290.109028 
L 82.316377 288.828039 
L 81.675549 288.499637 
L 82.654116 288.345643 
L 92.044671 288.158501 
L 96.135364 287.90115 
L 99.833339 287.44858 
L 102.242335 286.795965 
L 102.736591 285.978968 
L 101.404946 285.06586 
L 98.892119 284.142931 
L 91.821969 282.074748 
L 91.741237 281.733611 
L 93.180613 281.531857 
L 102.858209 281.034054 
L 106.422815 280.662477 
L 109.194067 280.121175 
L 110.547747 279.420896 
L 110.281899 278.605283 
L 108.720237 277.740971 
L 104.201061 276.158108 
L 102.490082 275.552628 
L 101.839004 275.101695 
L 102.481349 274.787833 
L 104.309015 274.565436 
L 113.314546 273.808748 
L 116.05475 273.348752 
L 117.835495 272.751642 
L 118.35247 272.040163 
L 117.682911 271.260341 
L 116.216512 270.471046 
L 112.940167 269.08747 
L 112.089494 268.564518 
L 112.214468 268.160888 
L 113.373936 267.850035 
L 123.183656 266.575191 
L 125.054286 266.049783 
L 125.999818 265.424586 
L 125.97724 264.728514 
L 125.197971 264.004402 
L 122.134516 262.096351 
L 122.069056 261.632245 
L 122.804652 261.249029 
L 124.280856 260.917004 
L 130.663636 259.841212 
L 132.404732 259.355488 
L 133.504232 258.791629 
L 133.881695 258.166054 
L 133.643126 257.507535 
L 131.835334 255.662236 
L 131.788429 255.164764 
L 132.315786 254.730267 
L 133.411139 254.340732 
L 140.015202 252.698494 
L 141.107488 252.171804 
L 141.691028 251.597419 
L 141.814823 250.9936 
L 141.326034 249.792322 
L 141.131336 249.236871 
L 143.883473 248.666723 
L 140.549602 248.206805 
L 141.435381 247.779133 
L 145.698506 246.946736 
L 147.284586 246.504565 
L 148.287983 246.028061 
L 148.955372 245.514256 
L 149.45315 244.968573 
L 149.802723 244.403131 
L 150.070302 243.275492 
L 150.169754 242.740756 
L 150.437382 242.235449 
L 150.976301 241.758667 
L 151.794212 241.303444 
L 156.104672 239.470482 
L 156.929823 238.967305 
L 157.549878 238.444732 
L 158.311581 237.372111 
L 158.926994 236.322432 
L 159.374848 235.821235 
L 160.70585 234.864983 
L 164.96975 232.483846 
L 166.143155 231.465558 
L 168.068669 229.439791 
L 169.370326 228.474115 
L 173.766795 225.573335 
L 177.91118 222.124074 
L 181.380977 219.696654 
L 185.732301 216.266837 
L 189.060425 213.820767 
L 192.828077 210.885587 
L 196.777485 207.948223 
L 200.529865 205.020269 
L 205.087621 201.615202 
L 209.467953 198.228002 
L 213.369852 195.329106 
L 217.052682 192.438363 
L 221.591221 189.072504 
L 224.648879 186.670461 
L 229.764253 182.840213 
L 234.14613 179.500399 
L 236.056314 178.072891 
L 239.241136 177.536445 
L 239.241136 177.536445 
" clip-path="url(#pb48dd9922f)" style="fill: none; stroke: #1f77b4; stroke-width: 1.5; stroke-linecap: square"/>
   </g>
   <g id="line2d_22">
    <path d="M 235.549037 177.476808 
L 265.960839 154.393676 
L 270.315419 151.12179 
L 274.062142 148.323237 
L 278.343512 145.05163 
L 381.185731 66.8541 
L 383.037098 65.54793 
L 384.927073 64.246118 
L 388.095571 61.611079 
L 390.835042 59.891025 
L 391.716467 59.006576 
L 392.455344 58.119022 
L 392.983196 57.684375 
L 394.593603 56.838719 
L 396.405123 55.992967 
L 396.897185 55.554035 
L 396.796629 55.104053 
L 395.93422 54.655431 
L 394.268414 54.234156 
L 391.922495 53.879707 
L 389.185597 53.640772 
L 386.473125 53.568 
L 384.249879 53.70418 
L 382.933523 54.074204 
L 382.796484 54.676603 
L 383.893305 55.479662 
L 386.028974 56.422909 
L 393.806467 59.247221 
L 394.931425 59.921863 
L 394.621129 60.388804 
L 392.812694 60.657962 
L 385.854002 60.819816 
L 378.233421 61.031477 
L 375.690346 61.348516 
L 374.505768 61.858416 
L 374.732445 62.553207 
L 376.376645 63.499366 
L 382.452032 66.073621 
L 383.125961 66.704162 
L 382.552424 67.161534 
L 380.750618 67.461614 
L 374.719201 67.801896 
L 371.481112 67.986053 
L 368.784893 68.27045 
L 367.009237 68.698357 
L 366.328777 69.2821 
L 366.685789 70.001734 
L 367.811513 70.809812 
L 370.654064 72.432395 
L 371.477063 73.123912 
L 371.467695 73.683094 
L 370.521503 74.10458 
L 368.735431 74.411701 
L 361.489666 75.15737 
L 359.696552 75.530114 
L 358.657448 76.022507 
L 358.409009 76.633367 
L 358.81728 77.337005 
L 361.024783 79.531836 
L 361.04775 80.136203 
L 360.401619 80.634228 
L 359.107619 81.03267 
L 355.311908 81.65372 
L 351.740136 82.327995 
L 350.631004 82.77507 
L 350.09808 83.31299 
L 350.078982 83.930687 
L 351.142775 85.949576 
L 351.10664 86.557674 
L 350.611996 87.092374 
L 349.642994 87.551263 
L 346.707028 88.308541 
L 343.690289 89.048198 
L 342.598622 89.48228 
L 341.904317 89.978921 
L 341.588001 90.536009 
L 341.549548 91.138817 
L 341.666622 92.384064 
L 341.49457 92.975035 
L 341.016699 93.519816 
L 340.204618 94.012112 
L 337.826529 94.86937 
L 335.304343 95.68077 
L 334.3172 96.120383 
L 333.607927 96.600064 
L 333.168674 97.121813 
L 332.784144 98.255946 
L 332.602798 98.836343 
L 332.275902 99.402368 
L 331.731879 99.940835 
L 330.952569 100.445318 
L 328.880125 101.364438 
L 326.746097 102.239077 
L 325.881792 102.693687 
L 325.210452 103.172538 
L 324.3514 104.206991 
L 323.672911 105.298461 
L 323.208639 105.839173 
L 322.59923 106.364208 
L 320.971151 107.353687 
L 317.5144 109.213213 
L 316.348409 110.191636 
L 314.360911 112.261824 
L 312.966486 113.273889 
L 308.472701 116.152389 
L 305.079909 119.147119 
L 299.509701 123.026255 
L 297.234053 124.993198 
L 295.030623 126.45953 
L 292.82876 127.913422 
L 291.051995 129.372156 
L 289.322856 130.834994 
L 287.21621 132.294658 
L 284.343729 134.247439 
L 277.877455 139.179956 
L 275.213888 141.139622 
L 270.875024 144.534777 
L 266.274798 147.934382 
L 262.538682 150.820411 
L 258.593318 153.711346 
L 254.197292 157.065398 
L 249.690231 160.425867 
L 243.943887 164.718117 
L 232.033089 173.751671 
L 227.581858 177.053507 
L 207.226711 192.513711 
L 95.760565 277.274415 
L 93.488715 279.027593 
L 90.588027 281.212482 
L 88.384045 282.962795 
L 85.354136 285.131615 
L 82.746443 287.317407 
L 79.540275 289.470508 
L 77.881528 291.230871 
L 76.422872 292.078393 
L 74.605415 292.919811 
L 73.971844 293.353761 
L 73.832727 293.799722 
L 74.389244 294.24956 
L 75.741126 294.682582 
L 77.83835 295.064426 
L 80.461431 295.34975 
L 83.241952 295.488 
L 85.723278 295.432572 
L 87.45075 295.150595 
L 88.073931 294.632571 
L 87.435511 293.898277 
L 85.626069 292.997759 
L 80.055214 291.013542 
L 77.467658 290.109028 
L 75.826971 289.366092 
L 75.576297 288.828039 
L 76.898937 288.499637 
L 79.672053 288.345643 
L 91.659548 288.158501 
L 94.681211 287.90115 
L 96.333756 287.44858 
L 96.458392 286.795965 
L 95.212147 285.978968 
L 93.030809 285.06586 
L 88.386717 283.296541 
L 87.170043 282.59495 
L 87.2516 282.074748 
L 88.719294 281.733611 
L 91.370677 281.531857 
L 101.439795 281.034054 
L 103.647035 280.662477 
L 104.667131 280.121175 
L 104.485455 279.420896 
L 103.338983 278.605283 
L 98.763723 276.158108 
L 98.437083 275.552628 
L 99.163731 275.101695 
L 100.893282 274.787833 
L 110.973756 273.808748 
L 112.271112 273.348752 
L 112.641615 272.751642 
L 112.191617 272.040163 
L 109.145545 269.731251 
L 108.822946 269.08747 
L 109.279821 268.564518 
L 110.538379 268.160888 
L 114.720334 267.586817 
L 118.953566 266.992698 
L 120.312697 266.575191 
L 120.960286 266.049783 
L 120.934046 265.424586 
L 120.415579 264.728514 
L 119.057413 263.299314 
L 118.811027 262.654402 
L 119.130526 262.096351 
L 120.069667 261.632245 
L 121.545781 261.249029 
L 126.971409 260.24912 
L 128.281498 259.841212 
L 129.073623 259.355488 
L 129.348731 258.791629 
L 129.220722 258.166054 
L 128.579062 256.850526 
L 128.514624 256.227545 
L 128.846162 255.662236 
L 129.632185 255.164764 
L 130.827855 254.730267 
L 136.471559 253.169022 
L 137.263766 252.698494 
L 137.672994 252.171804 
L 137.777599 251.597419 
L 137.676004 250.384051 
L 137.805043 249.792322 
L 138.223474 249.236871 
L 139.091812 248.666723 
L 141.440997 247.779133 
L 143.947094 246.946736 
L 144.928301 246.504565 
L 145.633285 246.028061 
L 146.071326 245.514256 
L 146.46773 244.403131 
L 146.66129 243.833609 
L 147.000398 243.275492 
L 147.551827 242.740756 
L 148.328465 242.235449 
L 150.355199 241.303444 
L 152.403621 240.411466 
L 153.864553 239.470482 
L 154.704169 238.444732 
L 155.416105 237.372111 
L 155.904259 236.840588 
L 157.303723 235.821235 
L 161.56891 233.461999 
L 162.680994 232.483846 
L 164.594027 230.439639 
L 166.005226 229.439791 
L 169.968759 227.044259 
L 171.084959 226.06932 
L 173.158899 224.075853 
L 174.595402 223.091932 
L 178.409028 220.675324 
L 180.026902 219.204054 
L 181.123215 218.218653 
L 182.473303 217.239633 
L 186.889049 214.31278 
L 191.0857 210.885587 
L 195.285365 207.948223 
L 199.558307 204.536365 
L 204.22805 201.12692 
L 207.894348 198.228002 
L 212.5191 194.843407 
L 215.598298 192.438363 
L 220.811397 188.588863 
L 224.599749 185.71763 
L 229.709774 181.881141 
L 235.470253 177.536445 
L 235.470253 177.536445 
" clip-path="url(#pb48dd9922f)" style="fill: none; stroke: #ff7f0e; stroke-opacity: 0.5; stroke-width: 1.5; stroke-linecap: square"/>
   </g>
   <g id="patch_3">
    <path d="M 57.6 307.584 
L 57.6 41.472 
" style="fill: none; stroke: #000000; stroke-width: 0.8; stroke-linejoin: miter; stroke-linecap: square"/>
   </g>
   <g id="patch_4">
    <path d="M 414.72 307.584 
L 414.72 41.472 
" style="fill: none; stroke: #000000; stroke-width: 0.8; stroke-linejoin: miter; stroke-linecap: square"/>
   </g>
   <g id="patch_5">
    <path d="M 57.6 307.584 
L 414.72 307.584 
" style="fill: none; stroke: #000000; stroke-width: 0.8; stroke-linejoin: miter; stroke-linecap: square"/>
   </g>
   <g id="patch_6">
    <path d="M 57.6 41.472 
L 414.72 41.472 
" style="fill: none; stroke: #000000; stroke-width: 0.8; stroke-linejoin: miter; stroke-linecap: square"/>
   </g>
   <g id="text_13">
    <!-- Compare - Epoch 300 -->
    <g transform="translate(171.234375 35.472) scale(0.12 -0.12)">
     <defs>
      <path id="DejaVuSans-43" d="M 4122 4306 
L 4122 3641 
Q 3803 3938 3442 4084 
Q 3081 4231 2675 4231 
Q 1875 4231 1450 3742 
Q 1025 3253 1025 2328 
Q 1025 1406 1450 917 
Q 1875 428 2675 428 
Q 3081 428 3442 575 
Q 3803 722 4122 1019 
L 4122 359 
Q 3791 134 3420 21 
Q 3050 -91 2638 -91 
Q 1578 -91 968 557 
Q 359 1206 359 2328 
Q 359 3453 968 4101 
Q 1578 4750 2638 4750 
Q 3056 4750 3426 4639 
Q 3797 4528 4122 4306 
z
" transform="scale(0.015625)"/>
      <path id="DejaVuSans-6f" d="M 1959 3097 
Q 1497 3097 1228 2736 
Q 959 2375 959 1747 
Q 959 1119 1226 758 
Q 1494 397 1959 397 
Q 2419 397 2687 759 
Q 2956 1122 2956 1747 
Q 2956 2369 2687 2733 
Q 2419 3097 1959 3097 
z
M 1959 3584 
Q 2709 3584 3137 3096 
Q 3566 2609 3566 1747 
Q 3566 888 3137 398 
Q 2709 -91 1959 -91 
Q 1206 -91 779 398 
Q 353 888 353 1747 
Q 353 2609 779 3096 
Q 1206 3584 1959 3584 
z
" transform="scale(0.015625)"/>
      <path id="DejaVuSans-6d" d="M 3328 2828 
Q 3544 3216 3844 3400 
Q 4144 3584 4550 3584 
Q 5097 3584 5394 3201 
Q 5691 2819 5691 2113 
L 5691 0 
L 5113 0 
L 5113 2094 
Q 5113 2597 4934 2840 
Q 4756 3084 4391 3084 
Q 3944 3084 3684 2787 
Q 3425 2491 3425 1978 
L 3425 0 
L 2847 0 
L 2847 2094 
Q 2847 2600 2669 2842 
Q 2491 3084 2119 3084 
Q 1678 3084 1418 2786 
Q 1159 2488 1159 1978 
L 1159 0 
L 581 0 
L 581 3500 
L 1159 3500 
L 1159 2956 
Q 1356 3278 1631 3431 
Q 1906 3584 2284 3584 
Q 2666 3584 2933 3390 
Q 3200 3197 3328 2828 
z
" transform="scale(0.015625)"/>
      <path id="DejaVuSans-70" d="M 1159 525 
L 1159 -1331 
L 581 -1331 
L 581 3500 
L 1159 3500 
L 1159 2969 
Q 1341 3281 1617 3432 
Q 1894 3584 2278 3584 
Q 2916 3584 3314 3078 
Q 3713 2572 3713 1747 
Q 3713 922 3314 415 
Q 2916 -91 2278 -91 
Q 1894 -91 1617 61 
Q 1341 213 1159 525 
z
M 3116 1747 
Q 3116 2381 2855 2742 
Q 2594 3103 2138 3103 
Q 1681 3103 1420 2742 
Q 1159 2381 1159 1747 
Q 1159 1113 1420 752 
Q 1681 391 2138 391 
Q 2594 391 2855 752 
Q 3116 1113 3116 1747 
z
" transform="scale(0.015625)"/>
      <path id="DejaVuSans-72" d="M 2631 2963 
Q 2534 3019 2420 3045 
Q 2306 3072 2169 3072 
Q 1681 3072 1420 2755 
Q 1159 2438 1159 1844 
L 1159 0 
L 581 0 
L 581 3500 
L 1159 3500 
L 1159 2956 
Q 1341 3275 1631 3429 
Q 1922 3584 2338 3584 
Q 2397 3584 2469 3576 
Q 2541 3569 2628 3553 
L 2631 2963 
z
" transform="scale(0.015625)"/>
      <path id="DejaVuSans-20" transform="scale(0.015625)"/>
      <path id="DejaVuSans-2d" d="M 313 2009 
L 1997 2009 
L 1997 1497 
L 313 1497 
L 313 2009 
z
" transform="scale(0.015625)"/>
      <path id="DejaVuSans-45" d="M 628 4666 
L 3578 4666 
L 3578 4134 
L 1259 4134 
L 1259 2753 
L 3481 2753 
L 3481 2222 
L 1259 2222 
L 1259 531 
L 3634 531 
L 3634 0 
L 628 0 
L 628 4666 
z
" transform="scale(0.015625)"/>
      <path id="DejaVuSans-63" d="M 3122 3366 
L 3122 2828 
Q 2878 2963 2633 3030 
Q 2388 3097 2138 3097 
Q 1578 3097 1268 2742 
Q 959 2388 959 1747 
Q 959 1106 1268 751 
Q 1578 397 2138 397 
Q 2388 397 2633 464 
Q 2878 531 3122 666 
L 3122 134 
Q 2881 22 2623 -34 
Q 2366 -91 2075 -91 
Q 1284 -91 818 406 
Q 353 903 353 1747 
Q 353 2603 823 3093 
Q 1294 3584 2113 3584 
Q 2378 3584 2631 3529 
Q 2884 3475 3122 3366 
z
" transform="scale(0.015625)"/>
      <path id="DejaVuSans-68" d="M 3513 2113 
L 3513 0 
L 2938 0 
L 2938 2094 
Q 2938 2591 2744 2837 
Q 2550 3084 2163 3084 
Q 1697 3084 1428 2787 
Q 1159 2491 1159 1978 
L 1159 0 
L 581 0 
L 581 4863 
L 1159 4863 
L 1159 2956 
Q 1366 3272 1645 3428 
Q 1925 3584 2291 3584 
Q 2894 3584 3203 3211 
Q 3513 2838 3513 2113 
z
" transform="scale(0.015625)"/>
      <path id="DejaVuSans-33" d="M 2597 2516 
Q 3050 2419 3304 2112 
Q 3559 1806 3559 1356 
Q 3559 666 3084 287 
Q 2609 -91 1734 -91 
Q 1441 -91 1130 -33 
Q 819 25 488 141 
L 488 750 
Q 750 597 1062 519 
Q 1375 441 1716 441 
Q 2309 441 2620 675 
Q 2931 909 2931 1356 
Q 2931 1769 2642 2001 
Q 2353 2234 1838 2234 
L 1294 2234 
L 1294 2753 
L 1863 2753 
Q 2328 2753 2575 2939 
Q 2822 3125 2822 3475 
Q 2822 3834 2567 4026 
Q 2313 4219 1838 4219 
Q 1578 4219 1281 4162 
Q 984 4106 628 3988 
L 628 4550 
Q 988 4650 1302 4700 
Q 1616 4750 1894 4750 
Q 2613 4750 3031 4423 
Q 3450 4097 3450 3541 
Q 3450 3153 3228 2886 
Q 3006 2619 2597 2516 
z
" transform="scale(0.015625)"/>
     </defs>
     <use xlink:href="#DejaVuSans-43"/>
     <use xlink:href="#DejaVuSans-6f" transform="translate(69.824219 0)"/>
     <use xlink:href="#DejaVuSans-6d" transform="translate(131.005859 0)"/>
     <use xlink:href="#DejaVuSans-70" transform="translate(228.417969 0)"/>
     <use xlink:href="#DejaVuSans-61" transform="translate(291.894531 0)"/>
     <use xlink:href="#DejaVuSans-72" transform="translate(353.173828 0)"/>
     <use xlink:href="#DejaVuSans-65" transform="translate(392.037109 0)"/>
     <use xlink:href="#DejaVuSans-20" transform="translate(453.560547 0)"/>
     <use xlink:href="#DejaVuSans-2d" transform="translate(485.347656 0)"/>
     <use xlink:href="#DejaVuSans-20" transform="translate(521.431641 0)"/>
     <use xlink:href="#DejaVuSans-45" transform="translate(553.21875 0)"/>
     <use xlink:href="#DejaVuSans-70" transform="translate(616.402344 0)"/>
     <use xlink:href="#DejaVuSans-6f" transform="translate(679.878906 0)"/>
     <use xlink:href="#DejaVuSans-63" transform="translate(741.060547 0)"/>
     <use xlink:href="#DejaVuSans-68" transform="translate(796.041016 0)"/>
     <use xlink:href="#DejaVuSans-20" transform="translate(859.419922 0)"/>
     <use xlink:href="#DejaVuSans-33" transform="translate(891.207031 0)"/>
     <use xlink:href="#DejaVuSans-30" transform="translate(954.830078 0)"/>
     <use xlink:href="#DejaVuSans-30" transform="translate(1018.453125 0)"/>
    </g>
   </g>
   <g id="legend_1">
    <g id="patch_7">
     <path d="M 64.6 78.82825 
L 181.128125 78.82825 
Q 183.128125 78.82825 183.128125 76.82825 
L 183.128125 48.472 
Q 183.128125 46.472 181.128125 46.472 
L 64.6 46.472 
Q 62.6 46.472 62.6 48.472 
L 62.6 76.82825 
Q 62.6 78.82825 64.6 78.82825 
z
" style="fill: #ffffff; opacity: 0.8; stroke: #cccccc; stroke-linejoin: miter"/>
    </g>
    <g id="line2d_23">
     <path d="M 66.6 54.570437 
L 76.6 54.570437 
L 86.6 54.570437 
" style="fill: none; stroke: #1f77b4; stroke-width: 1.5; stroke-linecap: square"/>
    </g>
    <g id="text_14">
     <!-- Pred: Sample 1 -->
     <g transform="translate(94.6 58.070437) scale(0.1 -0.1)">
      <defs>
       <path id="DejaVuSans-50" d="M 1259 4147 
L 1259 2394 
L 2053 2394 
Q 2494 2394 2734 2622 
Q 2975 2850 2975 3272 
Q 2975 3691 2734 3919 
Q 2494 4147 2053 4147 
L 1259 4147 
z
M 628 4666 
L 2053 4666 
Q 2838 4666 3239 4311 
Q 3641 3956 3641 3272 
Q 3641 2581 3239 2228 
Q 2838 1875 2053 1875 
L 1259 1875 
L 1259 0 
L 628 0 
L 628 4666 
z
" transform="scale(0.015625)"/>
       <path id="DejaVuSans-3a" d="M 750 794 
L 1409 794 
L 1409 0 
L 750 0 
L 750 794 
z
M 750 3309 
L 1409 3309 
L 1409 2516 
L 750 2516 
L 750 3309 
z
" transform="scale(0.015625)"/>
       <path id="DejaVuSans-53" d="M 3425 4513 
L 3425 3897 
Q 3066 4069 2747 4153 
Q 2428 4238 2131 4238 
Q 1616 4238 1336 4038 
Q 1056 3838 1056 3469 
Q 1056 3159 1242 3001 
Q 1428 2844 1947 2747 
L 2328 2669 
Q 3034 2534 3370 2195 
Q 3706 1856 3706 1288 
Q 3706 609 3251 259 
Q 2797 -91 1919 -91 
Q 1588 -91 1214 -16 
Q 841 59 441 206 
L 441 856 
Q 825 641 1194 531 
Q 1563 422 1919 422 
Q 2459 422 2753 634 
Q 3047 847 3047 1241 
Q 3047 1584 2836 1778 
Q 2625 1972 2144 2069 
L 1759 2144 
Q 1053 2284 737 2584 
Q 422 2884 422 3419 
Q 422 4038 858 4394 
Q 1294 4750 2059 4750 
Q 2388 4750 2728 4690 
Q 3069 4631 3425 4513 
z
" transform="scale(0.015625)"/>
      </defs>
      <use xlink:href="#DejaVuSans-50"/>
      <use xlink:href="#DejaVuSans-72" transform="translate(58.552734 0)"/>
      <use xlink:href="#DejaVuSans-65" transform="translate(97.416016 0)"/>
      <use xlink:href="#DejaVuSans-64" transform="translate(158.939453 0)"/>
      <use xlink:href="#DejaVuSans-3a" transform="translate(222.416016 0)"/>
      <use xlink:href="#DejaVuSans-20" transform="translate(256.107422 0)"/>
      <use xlink:href="#DejaVuSans-53" transform="translate(287.894531 0)"/>
      <use xlink:href="#DejaVuSans-61" transform="translate(351.371094 0)"/>
      <use xlink:href="#DejaVuSans-6d" transform="translate(412.650391 0)"/>
      <use xlink:href="#DejaVuSans-70" transform="translate(510.0625 0)"/>
      <use xlink:href="#DejaVuSans-6c" transform="translate(573.539062 0)"/>
      <use xlink:href="#DejaVuSans-65" transform="translate(601.322266 0)"/>
      <use xlink:href="#DejaVuSans-20" transform="translate(662.845703 0)"/>
      <use xlink:href="#DejaVuSans-31" transform="translate(694.632812 0)"/>
     </g>
    </g>
    <g id="line2d_24">
     <path d="M 66.6 69.248562 
L 76.6 69.248562 
L 86.6 69.248562 
" style="fill: none; stroke: #ff7f0e; stroke-opacity: 0.5; stroke-width: 1.5; stroke-linecap: square"/>
    </g>
    <g id="text_15">
     <!-- Target: Sample 1 -->
     <g transform="translate(94.6 72.748562) scale(0.1 -0.1)">
      <defs>
       <path id="DejaVuSans-54" d="M -19 4666 
L 3928 4666 
L 3928 4134 
L 2272 4134 
L 2272 0 
L 1638 0 
L 1638 4134 
L -19 4134 
L -19 4666 
z
" transform="scale(0.015625)"/>
       <path id="DejaVuSans-67" d="M 2906 1791 
Q 2906 2416 2648 2759 
Q 2391 3103 1925 3103 
Q 1463 3103 1205 2759 
Q 947 2416 947 1791 
Q 947 1169 1205 825 
Q 1463 481 1925 481 
Q 2391 481 2648 825 
Q 2906 1169 2906 1791 
z
M 3481 434 
Q 3481 -459 3084 -895 
Q 2688 -1331 1869 -1331 
Q 1566 -1331 1297 -1286 
Q 1028 -1241 775 -1147 
L 775 -588 
Q 1028 -725 1275 -790 
Q 1522 -856 1778 -856 
Q 2344 -856 2625 -561 
Q 2906 -266 2906 331 
L 2906 616 
Q 2728 306 2450 153 
Q 2172 0 1784 0 
Q 1141 0 747 490 
Q 353 981 353 1791 
Q 353 2603 747 3093 
Q 1141 3584 1784 3584 
Q 2172 3584 2450 3431 
Q 2728 3278 2906 2969 
L 2906 3500 
L 3481 3500 
L 3481 434 
z
" transform="scale(0.015625)"/>
       <path id="DejaVuSans-74" d="M 1172 4494 
L 1172 3500 
L 2356 3500 
L 2356 3053 
L 1172 3053 
L 1172 1153 
Q 1172 725 1289 603 
Q 1406 481 1766 481 
L 2356 481 
L 2356 0 
L 1766 0 
Q 1100 0 847 248 
Q 594 497 594 1153 
L 594 3053 
L 172 3053 
L 172 3500 
L 594 3500 
L 594 4494 
L 1172 4494 
z
" transform="scale(0.015625)"/>
      </defs>
      <use xlink:href="#DejaVuSans-54"/>
      <use xlink:href="#DejaVuSans-61" transform="translate(44.583984 0)"/>
      <use xlink:href="#DejaVuSans-72" transform="translate(105.863281 0)"/>
      <use xlink:href="#DejaVuSans-67" transform="translate(145.226562 0)"/>
      <use xlink:href="#DejaVuSans-65" transform="translate(208.703125 0)"/>
      <use xlink:href="#DejaVuSans-74" transform="translate(270.226562 0)"/>
      <use xlink:href="#DejaVuSans-3a" transform="translate(309.435547 0)"/>
      <use xlink:href="#DejaVuSans-20" transform="translate(343.126953 0)"/>
      <use xlink:href="#DejaVuSans-53" transform="translate(374.914062 0)"/>
      <use xlink:href="#DejaVuSans-61" transform="translate(438.390625 0)"/>
      <use xlink:href="#DejaVuSans-6d" transform="translate(499.669922 0)"/>
      <use xlink:href="#DejaVuSans-70" transform="translate(597.082031 0)"/>
      <use xlink:href="#DejaVuSans-6c" transform="translate(660.558594 0)"/>
      <use xlink:href="#DejaVuSans-65" transform="translate(688.341797 0)"/>
      <use xlink:href="#DejaVuSans-20" transform="translate(749.865234 0)"/>
      <use xlink:href="#DejaVuSans-31" transform="translate(781.652344 0)"/>
     </g>
    </g>
   </g>
  </g>
 </g>
 <defs>
  <clipPath id="pb48dd9922f">
   <rect x="57.6" y="41.472" width="357.12" height="266.112"/>
  </clipPath>
 </defs>
</svg>
