<?xml version="1.0" encoding="utf-8" standalone="no"?>
<!DOCTYPE svg PUBLIC "-//W3C//DTD SVG 1.1//EN"
  "http://www.w3.org/Graphics/SVG/1.1/DTD/svg11.dtd">
<svg xmlns:xlink="http://www.w3.org/1999/xlink" width="460.8pt" height="345.6pt" viewBox="0 0 460.8 345.6" xmlns="http://www.w3.org/2000/svg" version="1.1">
 <metadata>
  <rdf:RDF xmlns:dc="http://purl.org/dc/elements/1.1/" xmlns:cc="http://creativecommons.org/ns#" xmlns:rdf="http://www.w3.org/1999/02/22-rdf-syntax-ns#">
   <cc:Work>
    <dc:type rdf:resource="http://purl.org/dc/dcmitype/StillImage"/>
    <dc:date>2025-04-16T00:45:53.323398</dc:date>
    <dc:format>image/svg+xml</dc:format>
    <dc:creator>
     <cc:Agent>
      <dc:title>Matplotlib v3.10.0, https://matplotlib.org/</dc:title>
     </cc:Agent>
    </dc:creator>
   </cc:Work>
  </rdf:RDF>
 </metadata>
 <defs>
  <style type="text/css">*{stroke-linejoin: round; stroke-linecap: butt}</style>
 </defs>
 <g id="figure_1">
  <g id="patch_1">
   <path d="M 0 345.6 
L 460.8 345.6 
L 460.8 0 
L 0 0 
z
" style="fill: #ffffff"/>
  </g>
  <g id="axes_1">
   <g id="patch_2">
    <path d="M 57.6 307.584 
L 414.72 307.584 
L 414.72 41.472 
L 57.6 41.472 
z
" style="fill: #ffffff"/>
   </g>
   <g id="matplotlib.axis_1">
    <g id="xtick_1">
     <g id="line2d_1">
      <path d="M 97.190208 307.584 
L 97.190208 41.472 
" clip-path="url(#p20d4ee6e95)" style="fill: none; stroke: #b0b0b0; stroke-opacity: 0.5; stroke-width: 0.8; stroke-linecap: square"/>
     </g>
     <g id="line2d_2">
      <defs>
       <path id="m7804928297" d="M 0 0 
L 0 3.5 
" style="stroke: #000000; stroke-width: 0.8"/>
      </defs>
      <g>
       <use xlink:href="#m7804928297" x="97.190208" y="307.584" style="stroke: #000000; stroke-width: 0.8"/>
      </g>
     </g>
     <g id="text_1">
      <!-- −1.0 -->
      <g transform="translate(85.048802 322.182437) scale(0.1 -0.1)">
       <defs>
        <path id="DejaVuSans-2212" d="M 678 2272 
L 4684 2272 
L 4684 1741 
L 678 1741 
L 678 2272 
z
" transform="scale(0.015625)"/>
        <path id="DejaVuSans-31" d="M 794 531 
L 1825 531 
L 1825 4091 
L 703 3866 
L 703 4441 
L 1819 4666 
L 2450 4666 
L 2450 531 
L 3481 531 
L 3481 0 
L 794 0 
L 794 531 
z
" transform="scale(0.015625)"/>
        <path id="DejaVuSans-2e" d="M 684 794 
L 1344 794 
L 1344 0 
L 684 0 
L 684 794 
z
" transform="scale(0.015625)"/>
        <path id="DejaVuSans-30" d="M 2034 4250 
Q 1547 4250 1301 3770 
Q 1056 3291 1056 2328 
Q 1056 1369 1301 889 
Q 1547 409 2034 409 
Q 2525 409 2770 889 
Q 3016 1369 3016 2328 
Q 3016 3291 2770 3770 
Q 2525 4250 2034 4250 
z
M 2034 4750 
Q 2819 4750 3233 4129 
Q 3647 3509 3647 2328 
Q 3647 1150 3233 529 
Q 2819 -91 2034 -91 
Q 1250 -91 836 529 
Q 422 1150 422 2328 
Q 422 3509 836 4129 
Q 1250 4750 2034 4750 
z
" transform="scale(0.015625)"/>
       </defs>
       <use xlink:href="#DejaVuSans-2212"/>
       <use xlink:href="#DejaVuSans-31" transform="translate(83.789062 0)"/>
       <use xlink:href="#DejaVuSans-2e" transform="translate(147.412109 0)"/>
       <use xlink:href="#DejaVuSans-30" transform="translate(179.199219 0)"/>
      </g>
     </g>
    </g>
    <g id="xtick_2">
     <g id="line2d_3">
      <path d="M 166.35137 307.584 
L 166.35137 41.472 
" clip-path="url(#p20d4ee6e95)" style="fill: none; stroke: #b0b0b0; stroke-opacity: 0.5; stroke-width: 0.8; stroke-linecap: square"/>
     </g>
     <g id="line2d_4">
      <g>
       <use xlink:href="#m7804928297" x="166.35137" y="307.584" style="stroke: #000000; stroke-width: 0.8"/>
      </g>
     </g>
     <g id="text_2">
      <!-- −0.5 -->
      <g transform="translate(154.209963 322.182437) scale(0.1 -0.1)">
       <defs>
        <path id="DejaVuSans-35" d="M 691 4666 
L 3169 4666 
L 3169 4134 
L 1269 4134 
L 1269 2991 
Q 1406 3038 1543 3061 
Q 1681 3084 1819 3084 
Q 2600 3084 3056 2656 
Q 3513 2228 3513 1497 
Q 3513 744 3044 326 
Q 2575 -91 1722 -91 
Q 1428 -91 1123 -41 
Q 819 9 494 109 
L 494 744 
Q 775 591 1075 516 
Q 1375 441 1709 441 
Q 2250 441 2565 725 
Q 2881 1009 2881 1497 
Q 2881 1984 2565 2268 
Q 2250 2553 1709 2553 
Q 1456 2553 1204 2497 
Q 953 2441 691 2322 
L 691 4666 
z
" transform="scale(0.015625)"/>
       </defs>
       <use xlink:href="#DejaVuSans-2212"/>
       <use xlink:href="#DejaVuSans-30" transform="translate(83.789062 0)"/>
       <use xlink:href="#DejaVuSans-2e" transform="translate(147.412109 0)"/>
       <use xlink:href="#DejaVuSans-35" transform="translate(179.199219 0)"/>
      </g>
     </g>
    </g>
    <g id="xtick_3">
     <g id="line2d_5">
      <path d="M 235.512531 307.584 
L 235.512531 41.472 
" clip-path="url(#p20d4ee6e95)" style="fill: none; stroke: #b0b0b0; stroke-opacity: 0.5; stroke-width: 0.8; stroke-linecap: square"/>
     </g>
     <g id="line2d_6">
      <g>
       <use xlink:href="#m7804928297" x="235.512531" y="307.584" style="stroke: #000000; stroke-width: 0.8"/>
      </g>
     </g>
     <g id="text_3">
      <!-- 0.0 -->
      <g transform="translate(227.560968 322.182437) scale(0.1 -0.1)">
       <use xlink:href="#DejaVuSans-30"/>
       <use xlink:href="#DejaVuSans-2e" transform="translate(63.623047 0)"/>
       <use xlink:href="#DejaVuSans-30" transform="translate(95.410156 0)"/>
      </g>
     </g>
    </g>
    <g id="xtick_4">
     <g id="line2d_7">
      <path d="M 304.673692 307.584 
L 304.673692 41.472 
" clip-path="url(#p20d4ee6e95)" style="fill: none; stroke: #b0b0b0; stroke-opacity: 0.5; stroke-width: 0.8; stroke-linecap: square"/>
     </g>
     <g id="line2d_8">
      <g>
       <use xlink:href="#m7804928297" x="304.673692" y="307.584" style="stroke: #000000; stroke-width: 0.8"/>
      </g>
     </g>
     <g id="text_4">
      <!-- 0.5 -->
      <g transform="translate(296.72213 322.182437) scale(0.1 -0.1)">
       <use xlink:href="#DejaVuSans-30"/>
       <use xlink:href="#DejaVuSans-2e" transform="translate(63.623047 0)"/>
       <use xlink:href="#DejaVuSans-35" transform="translate(95.410156 0)"/>
      </g>
     </g>
    </g>
    <g id="xtick_5">
     <g id="line2d_9">
      <path d="M 373.834854 307.584 
L 373.834854 41.472 
" clip-path="url(#p20d4ee6e95)" style="fill: none; stroke: #b0b0b0; stroke-opacity: 0.5; stroke-width: 0.8; stroke-linecap: square"/>
     </g>
     <g id="line2d_10">
      <g>
       <use xlink:href="#m7804928297" x="373.834854" y="307.584" style="stroke: #000000; stroke-width: 0.8"/>
      </g>
     </g>
     <g id="text_5">
      <!-- 1.0 -->
      <g transform="translate(365.883291 322.182437) scale(0.1 -0.1)">
       <use xlink:href="#DejaVuSans-31"/>
       <use xlink:href="#DejaVuSans-2e" transform="translate(63.623047 0)"/>
       <use xlink:href="#DejaVuSans-30" transform="translate(95.410156 0)"/>
      </g>
     </g>
    </g>
    <g id="text_6">
     <!-- Index -->
     <g transform="translate(222.393594 335.860562) scale(0.1 -0.1)">
      <defs>
       <path id="DejaVuSans-49" d="M 628 4666 
L 1259 4666 
L 1259 0 
L 628 0 
L 628 4666 
z
" transform="scale(0.015625)"/>
       <path id="DejaVuSans-6e" d="M 3513 2113 
L 3513 0 
L 2938 0 
L 2938 2094 
Q 2938 2591 2744 2837 
Q 2550 3084 2163 3084 
Q 1697 3084 1428 2787 
Q 1159 2491 1159 1978 
L 1159 0 
L 581 0 
L 581 3500 
L 1159 3500 
L 1159 2956 
Q 1366 3272 1645 3428 
Q 1925 3584 2291 3584 
Q 2894 3584 3203 3211 
Q 3513 2838 3513 2113 
z
" transform="scale(0.015625)"/>
       <path id="DejaVuSans-64" d="M 2906 2969 
L 2906 4863 
L 3481 4863 
L 3481 0 
L 2906 0 
L 2906 525 
Q 2725 213 2448 61 
Q 2172 -91 1784 -91 
Q 1150 -91 751 415 
Q 353 922 353 1747 
Q 353 2572 751 3078 
Q 1150 3584 1784 3584 
Q 2172 3584 2448 3432 
Q 2725 3281 2906 2969 
z
M 947 1747 
Q 947 1113 1208 752 
Q 1469 391 1925 391 
Q 2381 391 2643 752 
Q 2906 1113 2906 1747 
Q 2906 2381 2643 2742 
Q 2381 3103 1925 3103 
Q 1469 3103 1208 2742 
Q 947 2381 947 1747 
z
" transform="scale(0.015625)"/>
       <path id="DejaVuSans-65" d="M 3597 1894 
L 3597 1613 
L 953 1613 
Q 991 1019 1311 708 
Q 1631 397 2203 397 
Q 2534 397 2845 478 
Q 3156 559 3463 722 
L 3463 178 
Q 3153 47 2828 -22 
Q 2503 -91 2169 -91 
Q 1331 -91 842 396 
Q 353 884 353 1716 
Q 353 2575 817 3079 
Q 1281 3584 2069 3584 
Q 2775 3584 3186 3129 
Q 3597 2675 3597 1894 
z
M 3022 2063 
Q 3016 2534 2758 2815 
Q 2500 3097 2075 3097 
Q 1594 3097 1305 2825 
Q 1016 2553 972 2059 
L 3022 2063 
z
" transform="scale(0.015625)"/>
       <path id="DejaVuSans-78" d="M 3513 3500 
L 2247 1797 
L 3578 0 
L 2900 0 
L 1881 1375 
L 863 0 
L 184 0 
L 1544 1831 
L 300 3500 
L 978 3500 
L 1906 2253 
L 2834 3500 
L 3513 3500 
z
" transform="scale(0.015625)"/>
      </defs>
      <use xlink:href="#DejaVuSans-49"/>
      <use xlink:href="#DejaVuSans-6e" transform="translate(29.492188 0)"/>
      <use xlink:href="#DejaVuSans-64" transform="translate(92.871094 0)"/>
      <use xlink:href="#DejaVuSans-65" transform="translate(156.347656 0)"/>
      <use xlink:href="#DejaVuSans-78" transform="translate(216.121094 0)"/>
     </g>
    </g>
   </g>
   <g id="matplotlib.axis_2">
    <g id="ytick_1">
     <g id="line2d_11">
      <path d="M 57.6 275.510055 
L 414.72 275.510055 
" clip-path="url(#p20d4ee6e95)" style="fill: none; stroke: #b0b0b0; stroke-opacity: 0.5; stroke-width: 0.8; stroke-linecap: square"/>
     </g>
     <g id="line2d_12">
      <defs>
       <path id="m29ca8e4563" d="M 0 0 
L -3.5 0 
" style="stroke: #000000; stroke-width: 0.8"/>
      </defs>
      <g>
       <use xlink:href="#m29ca8e4563" x="57.6" y="275.510055" style="stroke: #000000; stroke-width: 0.8"/>
      </g>
     </g>
     <g id="text_7">
      <!-- −1.0 -->
      <g transform="translate(26.317187 279.309274) scale(0.1 -0.1)">
       <use xlink:href="#DejaVuSans-2212"/>
       <use xlink:href="#DejaVuSans-31" transform="translate(83.789062 0)"/>
       <use xlink:href="#DejaVuSans-2e" transform="translate(147.412109 0)"/>
       <use xlink:href="#DejaVuSans-30" transform="translate(179.199219 0)"/>
      </g>
     </g>
    </g>
    <g id="ytick_2">
     <g id="line2d_13">
      <path d="M 57.6 225.025611 
L 414.72 225.025611 
" clip-path="url(#p20d4ee6e95)" style="fill: none; stroke: #b0b0b0; stroke-opacity: 0.5; stroke-width: 0.8; stroke-linecap: square"/>
     </g>
     <g id="line2d_14">
      <g>
       <use xlink:href="#m29ca8e4563" x="57.6" y="225.025611" style="stroke: #000000; stroke-width: 0.8"/>
      </g>
     </g>
     <g id="text_8">
      <!-- −0.5 -->
      <g transform="translate(26.317187 228.82483) scale(0.1 -0.1)">
       <use xlink:href="#DejaVuSans-2212"/>
       <use xlink:href="#DejaVuSans-30" transform="translate(83.789062 0)"/>
       <use xlink:href="#DejaVuSans-2e" transform="translate(147.412109 0)"/>
       <use xlink:href="#DejaVuSans-35" transform="translate(179.199219 0)"/>
      </g>
     </g>
    </g>
    <g id="ytick_3">
     <g id="line2d_15">
      <path d="M 57.6 174.541168 
L 414.72 174.541168 
" clip-path="url(#p20d4ee6e95)" style="fill: none; stroke: #b0b0b0; stroke-opacity: 0.5; stroke-width: 0.8; stroke-linecap: square"/>
     </g>
     <g id="line2d_16">
      <g>
       <use xlink:href="#m29ca8e4563" x="57.6" y="174.541168" style="stroke: #000000; stroke-width: 0.8"/>
      </g>
     </g>
     <g id="text_9">
      <!-- 0.0 -->
      <g transform="translate(34.696875 178.340387) scale(0.1 -0.1)">
       <use xlink:href="#DejaVuSans-30"/>
       <use xlink:href="#DejaVuSans-2e" transform="translate(63.623047 0)"/>
       <use xlink:href="#DejaVuSans-30" transform="translate(95.410156 0)"/>
      </g>
     </g>
    </g>
    <g id="ytick_4">
     <g id="line2d_17">
      <path d="M 57.6 124.056724 
L 414.72 124.056724 
" clip-path="url(#p20d4ee6e95)" style="fill: none; stroke: #b0b0b0; stroke-opacity: 0.5; stroke-width: 0.8; stroke-linecap: square"/>
     </g>
     <g id="line2d_18">
      <g>
       <use xlink:href="#m29ca8e4563" x="57.6" y="124.056724" style="stroke: #000000; stroke-width: 0.8"/>
      </g>
     </g>
     <g id="text_10">
      <!-- 0.5 -->
      <g transform="translate(34.696875 127.855943) scale(0.1 -0.1)">
       <use xlink:href="#DejaVuSans-30"/>
       <use xlink:href="#DejaVuSans-2e" transform="translate(63.623047 0)"/>
       <use xlink:href="#DejaVuSans-35" transform="translate(95.410156 0)"/>
      </g>
     </g>
    </g>
    <g id="ytick_5">
     <g id="line2d_19">
      <path d="M 57.6 73.572281 
L 414.72 73.572281 
" clip-path="url(#p20d4ee6e95)" style="fill: none; stroke: #b0b0b0; stroke-opacity: 0.5; stroke-width: 0.8; stroke-linecap: square"/>
     </g>
     <g id="line2d_20">
      <g>
       <use xlink:href="#m29ca8e4563" x="57.6" y="73.572281" style="stroke: #000000; stroke-width: 0.8"/>
      </g>
     </g>
     <g id="text_11">
      <!-- 1.0 -->
      <g transform="translate(34.696875 77.371499) scale(0.1 -0.1)">
       <use xlink:href="#DejaVuSans-31"/>
       <use xlink:href="#DejaVuSans-2e" transform="translate(63.623047 0)"/>
       <use xlink:href="#DejaVuSans-30" transform="translate(95.410156 0)"/>
      </g>
     </g>
    </g>
    <g id="text_12">
     <!-- Value -->
     <g transform="translate(20.2375 188.25925) rotate(-90) scale(0.1 -0.1)">
      <defs>
       <path id="DejaVuSans-56" d="M 1831 0 
L 50 4666 
L 709 4666 
L 2188 738 
L 3669 4666 
L 4325 4666 
L 2547 0 
L 1831 0 
z
" transform="scale(0.015625)"/>
       <path id="DejaVuSans-61" d="M 2194 1759 
Q 1497 1759 1228 1600 
Q 959 1441 959 1056 
Q 959 750 1161 570 
Q 1363 391 1709 391 
Q 2188 391 2477 730 
Q 2766 1069 2766 1631 
L 2766 1759 
L 2194 1759 
z
M 3341 1997 
L 3341 0 
L 2766 0 
L 2766 531 
Q 2569 213 2275 61 
Q 1981 -91 1556 -91 
Q 1019 -91 701 211 
Q 384 513 384 1019 
Q 384 1609 779 1909 
Q 1175 2209 1959 2209 
L 2766 2209 
L 2766 2266 
Q 2766 2663 2505 2880 
Q 2244 3097 1772 3097 
Q 1472 3097 1187 3025 
Q 903 2953 641 2809 
L 641 3341 
Q 956 3463 1253 3523 
Q 1550 3584 1831 3584 
Q 2591 3584 2966 3190 
Q 3341 2797 3341 1997 
z
" transform="scale(0.015625)"/>
       <path id="DejaVuSans-6c" d="M 603 4863 
L 1178 4863 
L 1178 0 
L 603 0 
L 603 4863 
z
" transform="scale(0.015625)"/>
       <path id="DejaVuSans-75" d="M 544 1381 
L 544 3500 
L 1119 3500 
L 1119 1403 
Q 1119 906 1312 657 
Q 1506 409 1894 409 
Q 2359 409 2629 706 
Q 2900 1003 2900 1516 
L 2900 3500 
L 3475 3500 
L 3475 0 
L 2900 0 
L 2900 538 
Q 2691 219 2414 64 
Q 2138 -91 1772 -91 
Q 1169 -91 856 284 
Q 544 659 544 1381 
z
M 1991 3584 
L 1991 3584 
z
" transform="scale(0.015625)"/>
      </defs>
      <use xlink:href="#DejaVuSans-56"/>
      <use xlink:href="#DejaVuSans-61" transform="translate(60.658203 0)"/>
      <use xlink:href="#DejaVuSans-6c" transform="translate(121.9375 0)"/>
      <use xlink:href="#DejaVuSans-75" transform="translate(149.720703 0)"/>
      <use xlink:href="#DejaVuSans-65" transform="translate(213.099609 0)"/>
     </g>
    </g>
   </g>
   <g id="line2d_21">
    <path d="M 234.494015 177.476808 
L 238.454054 176.999573 
L 237.106816 176.522276 
L 239.530253 175.568756 
L 239.870935 175.093131 
L 239.925082 174.618515 
L 240.203809 174.144899 
L 241.611286 173.199704 
L 243.098378 172.25442 
L 263.55854 156.726909 
L 279.04138 145.05163 
L 288.332963 138.070622 
L 295.697425 132.516402 
L 307.259809 123.790196 
L 316.279022 116.937399 
L 319.929095 114.209836 
L 325.917945 109.675972 
L 329.625392 109.166861 
L 325.613173 108.714123 
L 326.346411 108.261444 
L 329.263106 107.357593 
L 329.942383 106.906853 
L 330.687749 106.007106 
L 331.878615 105.107394 
L 333.743052 103.755144 
L 336.649597 101.510133 
L 340.217751 98.818174 
L 343.173764 96.58293 
L 346.131732 94.346514 
L 349.063646 92.115971 
L 352.025059 89.884736 
L 354.945529 87.658616 
L 357.905294 85.429692 
L 360.801393 83.207948 
L 363.780928 80.983351 
L 366.624492 78.765031 
L 369.636116 76.549473 
L 372.425917 74.338026 
L 375.449124 72.132591 
L 378.192581 69.932717 
L 381.249138 67.737297 
L 383.278493 65.980808 
L 387.518026 62.921714 
L 388.910449 61.611079 
L 390.246693 60.754711 
L 392.39919 59.45107 
L 393.270666 58.561048 
L 393.88364 57.684375 
L 394.349957 57.258405 
L 395.042129 56.838719 
L 397.941988 55.554035 
L 398.487273 55.104053 
L 398.358689 54.655431 
L 397.324068 54.234156 
L 395.216701 53.879707 
L 392.010818 53.640772 
L 387.919062 53.568 
L 383.630969 53.70418 
L 380.357199 54.074204 
L 379.305148 54.676603 
L 380.703969 55.479662 
L 386.392268 57.424544 
L 388.321715 58.393982 
L 389.285482 59.247221 
L 389.665873 59.921863 
L 389.701095 60.388804 
L 389.247408 60.657962 
L 387.94035 60.776509 
L 377.050763 61.031477 
L 372.750319 61.348516 
L 370.279133 61.858416 
L 370.581101 62.553207 
L 366.555946 63.499366 
L 380.067696 64.406756 
L 383.015011 65.290098 
L 381.681504 66.073621 
L 378.313877 67.161534 
L 377.776523 67.461614 
L 376.732767 67.652127 
L 366.709445 68.27045 
L 363.647793 68.698357 
L 362.573911 69.2821 
L 363.627487 70.001734 
L 368.345869 71.642384 
L 369.893679 72.432395 
L 370.386453 73.123912 
L 370.05003 73.683094 
L 369.146837 74.10458 
L 367.729391 74.411701 
L 363.04346 74.879569 
L 360.006641 75.15737 
L 357.225802 75.530114 
L 355.483279 76.022507 
L 355.244786 76.633367 
L 356.315461 77.337005 
L 359.454143 78.837352 
L 360.2375 79.531836 
L 360.25009 80.136203 
L 359.634725 80.634228 
L 358.509907 81.03267 
L 356.907905 81.358791 
L 350.154331 82.327995 
L 348.385638 82.77507 
L 347.573103 83.31299 
L 347.771527 83.930687 
L 350.272163 85.949576 
L 350.401538 86.557674 
L 349.988061 87.092374 
L 349.118571 87.551263 
L 347.851459 87.94805 
L 341.026882 89.48228 
L 340.026838 89.978921 
L 339.691207 90.536009 
L 339.888386 91.138817 
L 340.684473 92.384064 
L 340.753373 92.975035 
L 340.443284 93.519816 
L 339.765771 94.012112 
L 338.765349 94.457008 
L 336.054259 95.269925 
L 333.249264 96.120383 
L 332.248857 96.600064 
L 331.667716 97.121813 
L 331.46794 97.678516 
L 331.467 99.402368 
L 331.137091 99.940835 
L 330.53378 100.445318 
L 329.679098 100.917092 
L 327.43863 101.800259 
L 325.136904 102.693687 
L 324.238616 103.172538 
L 323.602393 103.678123 
L 323.201736 104.206991 
L 322.457953 105.839173 
L 322.023064 106.364208 
L 321.412209 106.868998 
L 319.74073 107.822699 
L 316.90212 109.213213 
L 315.463997 110.191636 
L 314.502423 111.220528 
L 313.623997 112.261824 
L 312.479845 113.273889 
L 310.205953 114.719284 
L 307.888291 116.152389 
L 306.627279 117.138696 
L 303.7925 119.64175 
L 301.697422 121.095961 
L 298.915293 123.026255 
L 293.190078 127.428944 
L 289.964514 129.859884 
L 286.699248 132.294658 
L 283.444552 134.737307 
L 281.57173 136.203293 
L 277.36692 136.750291 
L 282.145104 137.235534 
L 281.274712 137.720464 
L 277.485288 138.692192 
L 276.727481 139.179956 
L 276.310924 140.159174 
L 275.836634 140.649607 
L 271.087916 144.051719 
L 267.822105 146.475675 
L 262.747052 150.341414 
L 258.261326 153.711346 
L 255.11947 156.112191 
L 250.609669 159.463572 
L 246.839348 162.335947 
L 242.396132 165.675181 
L 237.343025 169.479998 
L 224.857436 178.944617 
L 220.46121 182.231072 
L 204.451652 194.373582 
L 189.720047 205.53671 
L 186.001832 206.058414 
L 190.031818 206.522394 
L 189.39975 206.986675 
L 186.114363 207.915764 
L 185.324402 208.380163 
L 184.39584 209.770554 
L 179.929439 213.004742 
L 134.136213 247.957465 
L 125.988138 254.200327 
L 120.759626 258.200803 
L 109.779068 266.629415 
L 103.441378 271.493613 
L 100.205451 271.991253 
L 103.564809 272.434152 
L 103.139401 272.876948 
L 100.328585 273.759808 
L 99.48265 274.199216 
L 97.83865 275.952394 
L 95.947558 277.274415 
L 93.822828 279.027593 
L 90.847992 281.212482 
L 88.777612 282.962795 
L 84.695948 286.010467 
L 83.242234 287.317407 
L 81.219705 288.601814 
L 79.919722 289.470508 
L 79.05062 290.354812 
L 78.379521 291.230871 
L 77.899089 291.657984 
L 76.34301 292.496695 
L 74.452808 293.353761 
L 73.86249 293.799722 
L 73.832727 294.24956 
L 74.544158 294.682582 
L 76.071843 295.064426 
L 78.33129 295.34975 
L 81.131438 295.488 
L 84.186874 295.432572 
L 87.120453 295.150595 
L 89.337539 294.632571 
L 90.215727 293.898277 
L 89.550944 292.997759 
L 87.741506 292.00627 
L 82.99224 290.109028 
L 80.966265 289.366092 
L 80.025039 288.828039 
L 80.825578 288.499637 
L 83.3802 288.345643 
L 94.451961 288.158501 
L 97.374798 287.90115 
L 99.357274 287.44858 
L 99.972111 286.795965 
L 98.996035 285.978968 
L 96.788001 285.06586 
L 89.79886 282.59495 
L 89.466354 282.074748 
L 90.944587 281.733611 
L 93.964537 281.531857 
L 101.443452 281.261386 
L 104.579462 281.034054 
L 106.857253 280.662477 
L 108.034878 280.121175 
L 107.908043 279.420896 
L 106.576284 278.605283 
L 100.52137 276.158108 
L 99.680242 275.552628 
L 100.216161 275.101695 
L 102.196065 274.787833 
L 113.996323 273.808748 
L 115.55683 273.348752 
L 116.0802 272.751642 
L 115.550951 272.040163 
L 114.22287 271.260341 
L 110.983282 269.731251 
L 110.00662 269.08747 
L 109.998458 268.564518 
L 111.159734 268.160888 
L 113.339892 267.850035 
L 121.254619 266.992698 
L 122.97851 266.575191 
L 123.88111 266.049783 
L 123.915185 265.424586 
L 123.219814 264.728514 
L 120.082765 262.654402 
L 119.903007 262.096351 
L 120.596275 261.632245 
L 122.137522 261.249029 
L 128.751581 260.24912 
L 130.442476 259.841212 
L 131.510274 259.355488 
L 131.903355 258.791629 
L 131.697906 258.166054 
L 129.815685 256.227545 
L 129.684265 255.662236 
L 130.157409 255.164764 
L 131.270701 254.730267 
L 134.743901 253.969505 
L 138.098296 253.169022 
L 139.191587 252.698494 
L 139.786752 252.171804 
L 139.92029 251.597419 
L 139.728272 250.9936 
L 139.147684 249.792322 
L 139.168205 249.236871 
L 143.167472 248.666723 
L 138.404775 248.206805 
L 140.077689 247.779133 
L 145.541923 246.946736 
L 146.957374 246.504565 
L 147.518125 246.028061 
L 147.806507 244.968573 
L 148.225764 243.275492 
L 148.497928 242.740756 
L 148.992665 242.235449 
L 149.77815 241.758667 
L 152.00879 240.858541 
L 154.259349 239.951163 
L 155.110008 239.470482 
L 155.735068 238.967305 
L 156.458009 237.909929 
L 157.014729 236.840588 
L 157.435511 236.322432 
L 158.021417 235.821235 
L 159.642597 234.864983 
L 162.39819 233.461999 
L 163.804802 232.483846 
L 164.800295 231.465558 
L 166.210337 229.935157 
L 167.506643 228.953411 
L 172.004604 226.06932 
L 176.104184 222.606551 
L 179.659361 220.187421 
L 184.6893 216.266837 
L 187.388038 214.31278 
L 191.128852 211.371832 
L 195.151171 208.440483 
L 198.89947 205.504506 
L 203.514256 202.103968 
L 207.904859 198.708042 
L 212.470872 195.329106 
L 215.537639 192.916038 
L 220.150593 189.556719 
L 223.854103 186.670461 
L 227.766861 183.801969 
L 232.130871 180.450902 
L 235.340964 178.072891 
L 239.47799 177.536445 
L 239.47799 177.536445 
" clip-path="url(#p20d4ee6e95)" style="fill: none; stroke: #1f77b4; stroke-width: 1.5; stroke-linecap: square"/>
   </g>
   <g id="line2d_22">
    <path d="M 235.744433 177.476808 
L 266.149791 154.393676 
L 270.503448 151.12179 
L 274.249377 148.323237 
L 278.52984 145.05163 
L 381.350267 66.8541 
L 383.201241 65.54793 
L 385.090817 64.246118 
L 388.258643 61.611079 
L 390.997533 59.891025 
L 391.878771 59.006576 
L 392.617492 58.119022 
L 393.145232 57.684375 
L 394.755298 56.838719 
L 396.566433 55.992967 
L 397.058392 55.554035 
L 396.957857 55.104053 
L 396.095631 54.655431 
L 394.430178 54.234156 
L 392.084756 53.879707 
L 389.348438 53.640772 
L 386.636541 53.568 
L 384.413766 53.70418 
L 383.097688 54.074204 
L 382.960679 54.676603 
L 384.057267 55.479662 
L 386.192484 56.422909 
L 393.968329 59.247221 
L 395.093048 59.921863 
L 394.782818 60.388804 
L 392.974766 60.657962 
L 386.017548 60.819816 
L 378.398582 61.031477 
L 375.856047 61.348516 
L 374.671719 61.858416 
L 374.898348 62.553207 
L 376.5422 63.499366 
L 382.616299 66.073621 
L 383.290085 66.704162 
L 382.71667 67.161534 
L 380.915246 67.461614 
L 374.885107 67.801896 
L 371.647704 67.986053 
L 368.952057 68.27045 
L 367.176777 68.698357 
L 366.496461 69.2821 
L 366.853397 70.001734 
L 367.978883 70.809812 
L 370.820831 72.432395 
L 371.643656 73.123912 
L 371.63429 73.683094 
L 370.688298 74.10458 
L 368.902605 74.411701 
L 361.658375 75.15737 
L 359.865641 75.530114 
L 358.826757 76.022507 
L 358.578371 76.633367 
L 358.986555 77.337005 
L 361.193591 79.531836 
L 361.216552 80.136203 
L 360.570559 80.634228 
L 359.276833 81.03267 
L 355.481926 81.65372 
L 351.910912 82.327995 
L 350.802014 82.77507 
L 350.269203 83.31299 
L 350.250109 83.930687 
L 351.313677 85.949576 
L 351.277549 86.557674 
L 350.78301 87.092374 
L 349.814214 87.551263 
L 346.87887 88.308541 
L 343.86277 89.048198 
L 342.771335 89.48228 
L 342.077176 89.978921 
L 341.760928 90.536009 
L 341.722483 91.138817 
L 341.839532 92.384064 
L 341.667516 92.975035 
L 341.189746 93.519816 
L 340.377838 94.012112 
L 338.000253 94.86937 
L 335.478601 95.68077 
L 334.491667 96.120383 
L 333.782544 96.600064 
L 333.343384 97.121813 
L 332.958936 98.255946 
L 332.777628 98.836343 
L 332.450802 99.402368 
L 331.906894 99.940835 
L 331.127749 100.445318 
L 329.055744 101.364438 
L 326.922168 102.239077 
L 326.058046 102.693687 
L 325.386849 103.172538 
L 324.527979 104.206991 
L 323.849634 105.298461 
L 323.38546 105.839173 
L 322.77618 106.364208 
L 321.148446 107.353687 
L 317.692428 109.213213 
L 316.526683 110.191636 
L 314.539607 112.261824 
L 313.145477 113.273889 
L 308.652644 116.152389 
L 305.260571 119.147119 
L 299.691543 123.026255 
L 297.416378 124.993198 
L 295.213415 126.45953 
L 293.012018 127.913422 
L 291.235629 129.372156 
L 289.506858 130.834994 
L 287.400658 132.294658 
L 284.528786 134.247439 
L 278.063881 139.179956 
L 275.400879 141.139622 
L 271.062934 144.534777 
L 266.463683 147.934382 
L 262.728359 150.820411 
L 258.783831 153.711346 
L 254.388736 157.065398 
L 249.88263 160.425867 
L 244.137504 164.718117 
L 232.22923 173.751671 
L 227.778942 177.053507 
L 207.428108 192.513711 
L 95.985582 277.274415 
L 93.714213 279.027593 
L 90.81414 281.212482 
L 88.610625 282.962795 
L 85.581358 285.131615 
L 82.974217 287.317407 
L 79.768729 289.470508 
L 78.110334 291.230871 
L 76.651986 292.078393 
L 74.834914 292.919811 
L 74.201478 293.353761 
L 74.06239 293.799722 
L 74.618789 294.24956 
L 75.970384 294.682582 
L 78.067165 295.064426 
L 80.68969 295.34975 
L 83.469622 295.488 
L 85.950421 295.432572 
L 87.677528 295.150595 
L 88.300576 294.632571 
L 87.662292 293.898277 
L 85.853233 292.997759 
L 80.283558 291.013542 
L 77.696551 290.109028 
L 76.056211 289.366092 
L 75.80559 288.828039 
L 77.12795 288.499637 
L 79.900479 288.345643 
L 91.885434 288.158501 
L 94.906456 287.90115 
L 96.558651 287.44858 
L 96.683261 286.795965 
L 95.43728 285.978968 
L 93.256404 285.06586 
L 88.613296 283.296541 
L 87.39688 282.59495 
L 87.478419 282.074748 
L 88.945803 281.733611 
L 91.596623 281.531857 
L 101.663608 281.034054 
L 103.870381 280.662477 
L 104.890261 280.121175 
L 104.708623 279.420896 
L 103.562393 278.605283 
L 98.988103 276.158108 
L 98.661532 275.552628 
L 99.388027 275.101695 
L 101.117211 274.787833 
L 111.195549 273.808748 
L 112.49263 273.348752 
L 112.863054 272.751642 
L 112.413152 272.040163 
L 109.367725 269.731251 
L 109.045195 269.08747 
L 109.501973 268.564518 
L 110.760264 268.160888 
L 114.941333 267.586817 
L 119.173668 266.992698 
L 120.532511 266.575191 
L 121.179963 266.049783 
L 121.153729 265.424586 
L 120.635371 264.728514 
L 119.277493 263.299314 
L 119.031159 262.654402 
L 119.35059 262.096351 
L 120.289533 261.632245 
L 121.765334 261.249029 
L 127.189812 260.24912 
L 128.499624 259.841212 
L 129.291581 259.355488 
L 129.56663 258.791629 
L 129.438649 258.166054 
L 128.797124 256.850526 
L 128.7327 256.227545 
L 129.064168 255.662236 
L 129.850024 255.164764 
L 131.045441 254.730267 
L 136.687949 253.169022 
L 137.479988 252.698494 
L 137.889129 252.171804 
L 137.993713 251.597419 
L 137.892139 250.384051 
L 138.021151 249.792322 
L 138.439493 249.236871 
L 139.307647 248.666723 
L 141.656334 247.779133 
L 144.1619 246.946736 
L 145.142899 246.504565 
L 145.847734 246.028061 
L 146.285682 245.514256 
L 146.682002 244.403131 
L 146.875521 243.833609 
L 147.214557 243.275492 
L 147.765869 242.740756 
L 148.542342 242.235449 
L 150.568647 241.303444 
L 152.616635 240.411466 
L 154.077258 239.470482 
L 154.916696 238.444732 
L 155.628481 237.372111 
L 156.116532 236.840588 
L 157.515699 235.821235 
L 161.779982 233.461999 
L 162.891831 232.483846 
L 164.804458 230.439639 
L 166.215358 229.439791 
L 170.178051 227.044259 
L 171.294014 226.06932 
L 173.367516 224.075853 
L 174.803714 223.091932 
L 178.616532 220.675324 
L 180.234062 219.204054 
L 181.330144 218.218653 
L 182.679946 217.239633 
L 187.094756 214.31278 
L 191.290517 210.885587 
L 195.489292 207.948223 
L 199.761329 204.536365 
L 204.430082 201.12692 
L 208.095603 198.228002 
L 212.719376 194.843407 
L 215.797921 192.438363 
L 221.009915 188.588863 
L 224.797465 185.71763 
L 229.906407 181.881141 
L 235.665665 177.536445 
L 235.665665 177.536445 
" clip-path="url(#p20d4ee6e95)" style="fill: none; stroke: #ff7f0e; stroke-opacity: 0.5; stroke-width: 1.5; stroke-linecap: square"/>
   </g>
   <g id="patch_3">
    <path d="M 57.6 307.584 
L 57.6 41.472 
" style="fill: none; stroke: #000000; stroke-width: 0.8; stroke-linejoin: miter; stroke-linecap: square"/>
   </g>
   <g id="patch_4">
    <path d="M 414.72 307.584 
L 414.72 41.472 
" style="fill: none; stroke: #000000; stroke-width: 0.8; stroke-linejoin: miter; stroke-linecap: square"/>
   </g>
   <g id="patch_5">
    <path d="M 57.6 307.584 
L 414.72 307.584 
" style="fill: none; stroke: #000000; stroke-width: 0.8; stroke-linejoin: miter; stroke-linecap: square"/>
   </g>
   <g id="patch_6">
    <path d="M 57.6 41.472 
L 414.72 41.472 
" style="fill: none; stroke: #000000; stroke-width: 0.8; stroke-linejoin: miter; stroke-linecap: square"/>
   </g>
   <g id="text_13">
    <!-- Compare - Epoch 1200 -->
    <g transform="translate(167.416875 35.472) scale(0.12 -0.12)">
     <defs>
      <path id="DejaVuSans-43" d="M 4122 4306 
L 4122 3641 
Q 3803 3938 3442 4084 
Q 3081 4231 2675 4231 
Q 1875 4231 1450 3742 
Q 1025 3253 1025 2328 
Q 1025 1406 1450 917 
Q 1875 428 2675 428 
Q 3081 428 3442 575 
Q 3803 722 4122 1019 
L 4122 359 
Q 3791 134 3420 21 
Q 3050 -91 2638 -91 
Q 1578 -91 968 557 
Q 359 1206 359 2328 
Q 359 3453 968 4101 
Q 1578 4750 2638 4750 
Q 3056 4750 3426 4639 
Q 3797 4528 4122 4306 
z
" transform="scale(0.015625)"/>
      <path id="DejaVuSans-6f" d="M 1959 3097 
Q 1497 3097 1228 2736 
Q 959 2375 959 1747 
Q 959 1119 1226 758 
Q 1494 397 1959 397 
Q 2419 397 2687 759 
Q 2956 1122 2956 1747 
Q 2956 2369 2687 2733 
Q 2419 3097 1959 3097 
z
M 1959 3584 
Q 2709 3584 3137 3096 
Q 3566 2609 3566 1747 
Q 3566 888 3137 398 
Q 2709 -91 1959 -91 
Q 1206 -91 779 398 
Q 353 888 353 1747 
Q 353 2609 779 3096 
Q 1206 3584 1959 3584 
z
" transform="scale(0.015625)"/>
      <path id="DejaVuSans-6d" d="M 3328 2828 
Q 3544 3216 3844 3400 
Q 4144 3584 4550 3584 
Q 5097 3584 5394 3201 
Q 5691 2819 5691 2113 
L 5691 0 
L 5113 0 
L 5113 2094 
Q 5113 2597 4934 2840 
Q 4756 3084 4391 3084 
Q 3944 3084 3684 2787 
Q 3425 2491 3425 1978 
L 3425 0 
L 2847 0 
L 2847 2094 
Q 2847 2600 2669 2842 
Q 2491 3084 2119 3084 
Q 1678 3084 1418 2786 
Q 1159 2488 1159 1978 
L 1159 0 
L 581 0 
L 581 3500 
L 1159 3500 
L 1159 2956 
Q 1356 3278 1631 3431 
Q 1906 3584 2284 3584 
Q 2666 3584 2933 3390 
Q 3200 3197 3328 2828 
z
" transform="scale(0.015625)"/>
      <path id="DejaVuSans-70" d="M 1159 525 
L 1159 -1331 
L 581 -1331 
L 581 3500 
L 1159 3500 
L 1159 2969 
Q 1341 3281 1617 3432 
Q 1894 3584 2278 3584 
Q 2916 3584 3314 3078 
Q 3713 2572 3713 1747 
Q 3713 922 3314 415 
Q 2916 -91 2278 -91 
Q 1894 -91 1617 61 
Q 1341 213 1159 525 
z
M 3116 1747 
Q 3116 2381 2855 2742 
Q 2594 3103 2138 3103 
Q 1681 3103 1420 2742 
Q 1159 2381 1159 1747 
Q 1159 1113 1420 752 
Q 1681 391 2138 391 
Q 2594 391 2855 752 
Q 3116 1113 3116 1747 
z
" transform="scale(0.015625)"/>
      <path id="DejaVuSans-72" d="M 2631 2963 
Q 2534 3019 2420 3045 
Q 2306 3072 2169 3072 
Q 1681 3072 1420 2755 
Q 1159 2438 1159 1844 
L 1159 0 
L 581 0 
L 581 3500 
L 1159 3500 
L 1159 2956 
Q 1341 3275 1631 3429 
Q 1922 3584 2338 3584 
Q 2397 3584 2469 3576 
Q 2541 3569 2628 3553 
L 2631 2963 
z
" transform="scale(0.015625)"/>
      <path id="DejaVuSans-20" transform="scale(0.015625)"/>
      <path id="DejaVuSans-2d" d="M 313 2009 
L 1997 2009 
L 1997 1497 
L 313 1497 
L 313 2009 
z
" transform="scale(0.015625)"/>
      <path id="DejaVuSans-45" d="M 628 4666 
L 3578 4666 
L 3578 4134 
L 1259 4134 
L 1259 2753 
L 3481 2753 
L 3481 2222 
L 1259 2222 
L 1259 531 
L 3634 531 
L 3634 0 
L 628 0 
L 628 4666 
z
" transform="scale(0.015625)"/>
      <path id="DejaVuSans-63" d="M 3122 3366 
L 3122 2828 
Q 2878 2963 2633 3030 
Q 2388 3097 2138 3097 
Q 1578 3097 1268 2742 
Q 959 2388 959 1747 
Q 959 1106 1268 751 
Q 1578 397 2138 397 
Q 2388 397 2633 464 
Q 2878 531 3122 666 
L 3122 134 
Q 2881 22 2623 -34 
Q 2366 -91 2075 -91 
Q 1284 -91 818 406 
Q 353 903 353 1747 
Q 353 2603 823 3093 
Q 1294 3584 2113 3584 
Q 2378 3584 2631 3529 
Q 2884 3475 3122 3366 
z
" transform="scale(0.015625)"/>
      <path id="DejaVuSans-68" d="M 3513 2113 
L 3513 0 
L 2938 0 
L 2938 2094 
Q 2938 2591 2744 2837 
Q 2550 3084 2163 3084 
Q 1697 3084 1428 2787 
Q 1159 2491 1159 1978 
L 1159 0 
L 581 0 
L 581 4863 
L 1159 4863 
L 1159 2956 
Q 1366 3272 1645 3428 
Q 1925 3584 2291 3584 
Q 2894 3584 3203 3211 
Q 3513 2838 3513 2113 
z
" transform="scale(0.015625)"/>
      <path id="DejaVuSans-32" d="M 1228 531 
L 3431 531 
L 3431 0 
L 469 0 
L 469 531 
Q 828 903 1448 1529 
Q 2069 2156 2228 2338 
Q 2531 2678 2651 2914 
Q 2772 3150 2772 3378 
Q 2772 3750 2511 3984 
Q 2250 4219 1831 4219 
Q 1534 4219 1204 4116 
Q 875 4013 500 3803 
L 500 4441 
Q 881 4594 1212 4672 
Q 1544 4750 1819 4750 
Q 2544 4750 2975 4387 
Q 3406 4025 3406 3419 
Q 3406 3131 3298 2873 
Q 3191 2616 2906 2266 
Q 2828 2175 2409 1742 
Q 1991 1309 1228 531 
z
" transform="scale(0.015625)"/>
     </defs>
     <use xlink:href="#DejaVuSans-43"/>
     <use xlink:href="#DejaVuSans-6f" transform="translate(69.824219 0)"/>
     <use xlink:href="#DejaVuSans-6d" transform="translate(131.005859 0)"/>
     <use xlink:href="#DejaVuSans-70" transform="translate(228.417969 0)"/>
     <use xlink:href="#DejaVuSans-61" transform="translate(291.894531 0)"/>
     <use xlink:href="#DejaVuSans-72" transform="translate(353.173828 0)"/>
     <use xlink:href="#DejaVuSans-65" transform="translate(392.037109 0)"/>
     <use xlink:href="#DejaVuSans-20" transform="translate(453.560547 0)"/>
     <use xlink:href="#DejaVuSans-2d" transform="translate(485.347656 0)"/>
     <use xlink:href="#DejaVuSans-20" transform="translate(521.431641 0)"/>
     <use xlink:href="#DejaVuSans-45" transform="translate(553.21875 0)"/>
     <use xlink:href="#DejaVuSans-70" transform="translate(616.402344 0)"/>
     <use xlink:href="#DejaVuSans-6f" transform="translate(679.878906 0)"/>
     <use xlink:href="#DejaVuSans-63" transform="translate(741.060547 0)"/>
     <use xlink:href="#DejaVuSans-68" transform="translate(796.041016 0)"/>
     <use xlink:href="#DejaVuSans-20" transform="translate(859.419922 0)"/>
     <use xlink:href="#DejaVuSans-31" transform="translate(891.207031 0)"/>
     <use xlink:href="#DejaVuSans-32" transform="translate(954.830078 0)"/>
     <use xlink:href="#DejaVuSans-30" transform="translate(1018.453125 0)"/>
     <use xlink:href="#DejaVuSans-30" transform="translate(1082.076172 0)"/>
    </g>
   </g>
   <g id="legend_1">
    <g id="patch_7">
     <path d="M 64.6 78.82825 
L 181.128125 78.82825 
Q 183.128125 78.82825 183.128125 76.82825 
L 183.128125 48.472 
Q 183.128125 46.472 181.128125 46.472 
L 64.6 46.472 
Q 62.6 46.472 62.6 48.472 
L 62.6 76.82825 
Q 62.6 78.82825 64.6 78.82825 
z
" style="fill: #ffffff; opacity: 0.8; stroke: #cccccc; stroke-linejoin: miter"/>
    </g>
    <g id="line2d_23">
     <path d="M 66.6 54.570437 
L 76.6 54.570437 
L 86.6 54.570437 
" style="fill: none; stroke: #1f77b4; stroke-width: 1.5; stroke-linecap: square"/>
    </g>
    <g id="text_14">
     <!-- Pred: Sample 1 -->
     <g transform="translate(94.6 58.070437) scale(0.1 -0.1)">
      <defs>
       <path id="DejaVuSans-50" d="M 1259 4147 
L 1259 2394 
L 2053 2394 
Q 2494 2394 2734 2622 
Q 2975 2850 2975 3272 
Q 2975 3691 2734 3919 
Q 2494 4147 2053 4147 
L 1259 4147 
z
M 628 4666 
L 2053 4666 
Q 2838 4666 3239 4311 
Q 3641 3956 3641 3272 
Q 3641 2581 3239 2228 
Q 2838 1875 2053 1875 
L 1259 1875 
L 1259 0 
L 628 0 
L 628 4666 
z
" transform="scale(0.015625)"/>
       <path id="DejaVuSans-3a" d="M 750 794 
L 1409 794 
L 1409 0 
L 750 0 
L 750 794 
z
M 750 3309 
L 1409 3309 
L 1409 2516 
L 750 2516 
L 750 3309 
z
" transform="scale(0.015625)"/>
       <path id="DejaVuSans-53" d="M 3425 4513 
L 3425 3897 
Q 3066 4069 2747 4153 
Q 2428 4238 2131 4238 
Q 1616 4238 1336 4038 
Q 1056 3838 1056 3469 
Q 1056 3159 1242 3001 
Q 1428 2844 1947 2747 
L 2328 2669 
Q 3034 2534 3370 2195 
Q 3706 1856 3706 1288 
Q 3706 609 3251 259 
Q 2797 -91 1919 -91 
Q 1588 -91 1214 -16 
Q 841 59 441 206 
L 441 856 
Q 825 641 1194 531 
Q 1563 422 1919 422 
Q 2459 422 2753 634 
Q 3047 847 3047 1241 
Q 3047 1584 2836 1778 
Q 2625 1972 2144 2069 
L 1759 2144 
Q 1053 2284 737 2584 
Q 422 2884 422 3419 
Q 422 4038 858 4394 
Q 1294 4750 2059 4750 
Q 2388 4750 2728 4690 
Q 3069 4631 3425 4513 
z
" transform="scale(0.015625)"/>
      </defs>
      <use xlink:href="#DejaVuSans-50"/>
      <use xlink:href="#DejaVuSans-72" transform="translate(58.552734 0)"/>
      <use xlink:href="#DejaVuSans-65" transform="translate(97.416016 0)"/>
      <use xlink:href="#DejaVuSans-64" transform="translate(158.939453 0)"/>
      <use xlink:href="#DejaVuSans-3a" transform="translate(222.416016 0)"/>
      <use xlink:href="#DejaVuSans-20" transform="translate(256.107422 0)"/>
      <use xlink:href="#DejaVuSans-53" transform="translate(287.894531 0)"/>
      <use xlink:href="#DejaVuSans-61" transform="translate(351.371094 0)"/>
      <use xlink:href="#DejaVuSans-6d" transform="translate(412.650391 0)"/>
      <use xlink:href="#DejaVuSans-70" transform="translate(510.0625 0)"/>
      <use xlink:href="#DejaVuSans-6c" transform="translate(573.539062 0)"/>
      <use xlink:href="#DejaVuSans-65" transform="translate(601.322266 0)"/>
      <use xlink:href="#DejaVuSans-20" transform="translate(662.845703 0)"/>
      <use xlink:href="#DejaVuSans-31" transform="translate(694.632812 0)"/>
     </g>
    </g>
    <g id="line2d_24">
     <path d="M 66.6 69.248562 
L 76.6 69.248562 
L 86.6 69.248562 
" style="fill: none; stroke: #ff7f0e; stroke-opacity: 0.5; stroke-width: 1.5; stroke-linecap: square"/>
    </g>
    <g id="text_15">
     <!-- Target: Sample 1 -->
     <g transform="translate(94.6 72.748562) scale(0.1 -0.1)">
      <defs>
       <path id="DejaVuSans-54" d="M -19 4666 
L 3928 4666 
L 3928 4134 
L 2272 4134 
L 2272 0 
L 1638 0 
L 1638 4134 
L -19 4134 
L -19 4666 
z
" transform="scale(0.015625)"/>
       <path id="DejaVuSans-67" d="M 2906 1791 
Q 2906 2416 2648 2759 
Q 2391 3103 1925 3103 
Q 1463 3103 1205 2759 
Q 947 2416 947 1791 
Q 947 1169 1205 825 
Q 1463 481 1925 481 
Q 2391 481 2648 825 
Q 2906 1169 2906 1791 
z
M 3481 434 
Q 3481 -459 3084 -895 
Q 2688 -1331 1869 -1331 
Q 1566 -1331 1297 -1286 
Q 1028 -1241 775 -1147 
L 775 -588 
Q 1028 -725 1275 -790 
Q 1522 -856 1778 -856 
Q 2344 -856 2625 -561 
Q 2906 -266 2906 331 
L 2906 616 
Q 2728 306 2450 153 
Q 2172 0 1784 0 
Q 1141 0 747 490 
Q 353 981 353 1791 
Q 353 2603 747 3093 
Q 1141 3584 1784 3584 
Q 2172 3584 2450 3431 
Q 2728 3278 2906 2969 
L 2906 3500 
L 3481 3500 
L 3481 434 
z
" transform="scale(0.015625)"/>
       <path id="DejaVuSans-74" d="M 1172 4494 
L 1172 3500 
L 2356 3500 
L 2356 3053 
L 1172 3053 
L 1172 1153 
Q 1172 725 1289 603 
Q 1406 481 1766 481 
L 2356 481 
L 2356 0 
L 1766 0 
Q 1100 0 847 248 
Q 594 497 594 1153 
L 594 3053 
L 172 3053 
L 172 3500 
L 594 3500 
L 594 4494 
L 1172 4494 
z
" transform="scale(0.015625)"/>
      </defs>
      <use xlink:href="#DejaVuSans-54"/>
      <use xlink:href="#DejaVuSans-61" transform="translate(44.583984 0)"/>
      <use xlink:href="#DejaVuSans-72" transform="translate(105.863281 0)"/>
      <use xlink:href="#DejaVuSans-67" transform="translate(145.226562 0)"/>
      <use xlink:href="#DejaVuSans-65" transform="translate(208.703125 0)"/>
      <use xlink:href="#DejaVuSans-74" transform="translate(270.226562 0)"/>
      <use xlink:href="#DejaVuSans-3a" transform="translate(309.435547 0)"/>
      <use xlink:href="#DejaVuSans-20" transform="translate(343.126953 0)"/>
      <use xlink:href="#DejaVuSans-53" transform="translate(374.914062 0)"/>
      <use xlink:href="#DejaVuSans-61" transform="translate(438.390625 0)"/>
      <use xlink:href="#DejaVuSans-6d" transform="translate(499.669922 0)"/>
      <use xlink:href="#DejaVuSans-70" transform="translate(597.082031 0)"/>
      <use xlink:href="#DejaVuSans-6c" transform="translate(660.558594 0)"/>
      <use xlink:href="#DejaVuSans-65" transform="translate(688.341797 0)"/>
      <use xlink:href="#DejaVuSans-20" transform="translate(749.865234 0)"/>
      <use xlink:href="#DejaVuSans-31" transform="translate(781.652344 0)"/>
     </g>
    </g>
   </g>
  </g>
 </g>
 <defs>
  <clipPath id="p20d4ee6e95">
   <rect x="57.6" y="41.472" width="357.12" height="266.112"/>
  </clipPath>
 </defs>
</svg>
