<?xml version="1.0" encoding="utf-8" standalone="no"?>
<!DOCTYPE svg PUBLIC "-//W3C//DTD SVG 1.1//EN"
  "http://www.w3.org/Graphics/SVG/1.1/DTD/svg11.dtd">
<svg xmlns:xlink="http://www.w3.org/1999/xlink" width="460.8pt" height="345.6pt" viewBox="0 0 460.8 345.6" xmlns="http://www.w3.org/2000/svg" version="1.1">
 <metadata>
  <rdf:RDF xmlns:dc="http://purl.org/dc/elements/1.1/" xmlns:cc="http://creativecommons.org/ns#" xmlns:rdf="http://www.w3.org/1999/02/22-rdf-syntax-ns#">
   <cc:Work>
    <dc:type rdf:resource="http://purl.org/dc/dcmitype/StillImage"/>
    <dc:date>2025-04-16T03:36:22.248244</dc:date>
    <dc:format>image/svg+xml</dc:format>
    <dc:creator>
     <cc:Agent>
      <dc:title>Matplotlib v3.10.0, https://matplotlib.org/</dc:title>
     </cc:Agent>
    </dc:creator>
   </cc:Work>
  </rdf:RDF>
 </metadata>
 <defs>
  <style type="text/css">*{stroke-linejoin: round; stroke-linecap: butt}</style>
 </defs>
 <g id="figure_1">
  <g id="patch_1">
   <path d="M 0 345.6 
L 460.8 345.6 
L 460.8 0 
L 0 0 
z
" style="fill: #ffffff"/>
  </g>
  <g id="axes_1">
   <g id="patch_2">
    <path d="M 57.6 307.584 
L 414.72 307.584 
L 414.72 41.472 
L 57.6 41.472 
z
" style="fill: #ffffff"/>
   </g>
   <g id="matplotlib.axis_1">
    <g id="xtick_1">
     <g id="line2d_1">
      <path d="M 97.213011 307.584 
L 97.213011 41.472 
" clip-path="url(#p775e36ad61)" style="fill: none; stroke: #b0b0b0; stroke-opacity: 0.5; stroke-width: 0.8; stroke-linecap: square"/>
     </g>
     <g id="line2d_2">
      <defs>
       <path id="m1a7d1e41b0" d="M 0 0 
L 0 3.5 
" style="stroke: #000000; stroke-width: 0.8"/>
      </defs>
      <g>
       <use xlink:href="#m1a7d1e41b0" x="97.213011" y="307.584" style="stroke: #000000; stroke-width: 0.8"/>
      </g>
     </g>
     <g id="text_1">
      <!-- −1.0 -->
      <g transform="translate(85.071605 322.182437) scale(0.1 -0.1)">
       <defs>
        <path id="DejaVuSans-2212" d="M 678 2272 
L 4684 2272 
L 4684 1741 
L 678 1741 
L 678 2272 
z
" transform="scale(0.015625)"/>
        <path id="DejaVuSans-31" d="M 794 531 
L 1825 531 
L 1825 4091 
L 703 3866 
L 703 4441 
L 1819 4666 
L 2450 4666 
L 2450 531 
L 3481 531 
L 3481 0 
L 794 0 
L 794 531 
z
" transform="scale(0.015625)"/>
        <path id="DejaVuSans-2e" d="M 684 794 
L 1344 794 
L 1344 0 
L 684 0 
L 684 794 
z
" transform="scale(0.015625)"/>
        <path id="DejaVuSans-30" d="M 2034 4250 
Q 1547 4250 1301 3770 
Q 1056 3291 1056 2328 
Q 1056 1369 1301 889 
Q 1547 409 2034 409 
Q 2525 409 2770 889 
Q 3016 1369 3016 2328 
Q 3016 3291 2770 3770 
Q 2525 4250 2034 4250 
z
M 2034 4750 
Q 2819 4750 3233 4129 
Q 3647 3509 3647 2328 
Q 3647 1150 3233 529 
Q 2819 -91 2034 -91 
Q 1250 -91 836 529 
Q 422 1150 422 2328 
Q 422 3509 836 4129 
Q 1250 4750 2034 4750 
z
" transform="scale(0.015625)"/>
       </defs>
       <use xlink:href="#DejaVuSans-2212"/>
       <use xlink:href="#DejaVuSans-31" transform="translate(83.789062 0)"/>
       <use xlink:href="#DejaVuSans-2e" transform="translate(147.412109 0)"/>
       <use xlink:href="#DejaVuSans-30" transform="translate(179.199219 0)"/>
      </g>
     </g>
    </g>
    <g id="xtick_2">
     <g id="line2d_3">
      <path d="M 166.349494 307.584 
L 166.349494 41.472 
" clip-path="url(#p775e36ad61)" style="fill: none; stroke: #b0b0b0; stroke-opacity: 0.5; stroke-width: 0.8; stroke-linecap: square"/>
     </g>
     <g id="line2d_4">
      <g>
       <use xlink:href="#m1a7d1e41b0" x="166.349494" y="307.584" style="stroke: #000000; stroke-width: 0.8"/>
      </g>
     </g>
     <g id="text_2">
      <!-- −0.5 -->
      <g transform="translate(154.208087 322.182437) scale(0.1 -0.1)">
       <defs>
        <path id="DejaVuSans-35" d="M 691 4666 
L 3169 4666 
L 3169 4134 
L 1269 4134 
L 1269 2991 
Q 1406 3038 1543 3061 
Q 1681 3084 1819 3084 
Q 2600 3084 3056 2656 
Q 3513 2228 3513 1497 
Q 3513 744 3044 326 
Q 2575 -91 1722 -91 
Q 1428 -91 1123 -41 
Q 819 9 494 109 
L 494 744 
Q 775 591 1075 516 
Q 1375 441 1709 441 
Q 2250 441 2565 725 
Q 2881 1009 2881 1497 
Q 2881 1984 2565 2268 
Q 2250 2553 1709 2553 
Q 1456 2553 1204 2497 
Q 953 2441 691 2322 
L 691 4666 
z
" transform="scale(0.015625)"/>
       </defs>
       <use xlink:href="#DejaVuSans-2212"/>
       <use xlink:href="#DejaVuSans-30" transform="translate(83.789062 0)"/>
       <use xlink:href="#DejaVuSans-2e" transform="translate(147.412109 0)"/>
       <use xlink:href="#DejaVuSans-35" transform="translate(179.199219 0)"/>
      </g>
     </g>
    </g>
    <g id="xtick_3">
     <g id="line2d_5">
      <path d="M 235.485976 307.584 
L 235.485976 41.472 
" clip-path="url(#p775e36ad61)" style="fill: none; stroke: #b0b0b0; stroke-opacity: 0.5; stroke-width: 0.8; stroke-linecap: square"/>
     </g>
     <g id="line2d_6">
      <g>
       <use xlink:href="#m1a7d1e41b0" x="235.485976" y="307.584" style="stroke: #000000; stroke-width: 0.8"/>
      </g>
     </g>
     <g id="text_3">
      <!-- 0.0 -->
      <g transform="translate(227.534414 322.182437) scale(0.1 -0.1)">
       <use xlink:href="#DejaVuSans-30"/>
       <use xlink:href="#DejaVuSans-2e" transform="translate(63.623047 0)"/>
       <use xlink:href="#DejaVuSans-30" transform="translate(95.410156 0)"/>
      </g>
     </g>
    </g>
    <g id="xtick_4">
     <g id="line2d_7">
      <path d="M 304.622459 307.584 
L 304.622459 41.472 
" clip-path="url(#p775e36ad61)" style="fill: none; stroke: #b0b0b0; stroke-opacity: 0.5; stroke-width: 0.8; stroke-linecap: square"/>
     </g>
     <g id="line2d_8">
      <g>
       <use xlink:href="#m1a7d1e41b0" x="304.622459" y="307.584" style="stroke: #000000; stroke-width: 0.8"/>
      </g>
     </g>
     <g id="text_4">
      <!-- 0.5 -->
      <g transform="translate(296.670897 322.182437) scale(0.1 -0.1)">
       <use xlink:href="#DejaVuSans-30"/>
       <use xlink:href="#DejaVuSans-2e" transform="translate(63.623047 0)"/>
       <use xlink:href="#DejaVuSans-35" transform="translate(95.410156 0)"/>
      </g>
     </g>
    </g>
    <g id="xtick_5">
     <g id="line2d_9">
      <path d="M 373.758942 307.584 
L 373.758942 41.472 
" clip-path="url(#p775e36ad61)" style="fill: none; stroke: #b0b0b0; stroke-opacity: 0.5; stroke-width: 0.8; stroke-linecap: square"/>
     </g>
     <g id="line2d_10">
      <g>
       <use xlink:href="#m1a7d1e41b0" x="373.758942" y="307.584" style="stroke: #000000; stroke-width: 0.8"/>
      </g>
     </g>
     <g id="text_5">
      <!-- 1.0 -->
      <g transform="translate(365.807379 322.182437) scale(0.1 -0.1)">
       <use xlink:href="#DejaVuSans-31"/>
       <use xlink:href="#DejaVuSans-2e" transform="translate(63.623047 0)"/>
       <use xlink:href="#DejaVuSans-30" transform="translate(95.410156 0)"/>
      </g>
     </g>
    </g>
    <g id="text_6">
     <!-- Index -->
     <g transform="translate(222.393594 335.860562) scale(0.1 -0.1)">
      <defs>
       <path id="DejaVuSans-49" d="M 628 4666 
L 1259 4666 
L 1259 0 
L 628 0 
L 628 4666 
z
" transform="scale(0.015625)"/>
       <path id="DejaVuSans-6e" d="M 3513 2113 
L 3513 0 
L 2938 0 
L 2938 2094 
Q 2938 2591 2744 2837 
Q 2550 3084 2163 3084 
Q 1697 3084 1428 2787 
Q 1159 2491 1159 1978 
L 1159 0 
L 581 0 
L 581 3500 
L 1159 3500 
L 1159 2956 
Q 1366 3272 1645 3428 
Q 1925 3584 2291 3584 
Q 2894 3584 3203 3211 
Q 3513 2838 3513 2113 
z
" transform="scale(0.015625)"/>
       <path id="DejaVuSans-64" d="M 2906 2969 
L 2906 4863 
L 3481 4863 
L 3481 0 
L 2906 0 
L 2906 525 
Q 2725 213 2448 61 
Q 2172 -91 1784 -91 
Q 1150 -91 751 415 
Q 353 922 353 1747 
Q 353 2572 751 3078 
Q 1150 3584 1784 3584 
Q 2172 3584 2448 3432 
Q 2725 3281 2906 2969 
z
M 947 1747 
Q 947 1113 1208 752 
Q 1469 391 1925 391 
Q 2381 391 2643 752 
Q 2906 1113 2906 1747 
Q 2906 2381 2643 2742 
Q 2381 3103 1925 3103 
Q 1469 3103 1208 2742 
Q 947 2381 947 1747 
z
" transform="scale(0.015625)"/>
       <path id="DejaVuSans-65" d="M 3597 1894 
L 3597 1613 
L 953 1613 
Q 991 1019 1311 708 
Q 1631 397 2203 397 
Q 2534 397 2845 478 
Q 3156 559 3463 722 
L 3463 178 
Q 3153 47 2828 -22 
Q 2503 -91 2169 -91 
Q 1331 -91 842 396 
Q 353 884 353 1716 
Q 353 2575 817 3079 
Q 1281 3584 2069 3584 
Q 2775 3584 3186 3129 
Q 3597 2675 3597 1894 
z
M 3022 2063 
Q 3016 2534 2758 2815 
Q 2500 3097 2075 3097 
Q 1594 3097 1305 2825 
Q 1016 2553 972 2059 
L 3022 2063 
z
" transform="scale(0.015625)"/>
       <path id="DejaVuSans-78" d="M 3513 3500 
L 2247 1797 
L 3578 0 
L 2900 0 
L 1881 1375 
L 863 0 
L 184 0 
L 1544 1831 
L 300 3500 
L 978 3500 
L 1906 2253 
L 2834 3500 
L 3513 3500 
z
" transform="scale(0.015625)"/>
      </defs>
      <use xlink:href="#DejaVuSans-49"/>
      <use xlink:href="#DejaVuSans-6e" transform="translate(29.492188 0)"/>
      <use xlink:href="#DejaVuSans-64" transform="translate(92.871094 0)"/>
      <use xlink:href="#DejaVuSans-65" transform="translate(156.347656 0)"/>
      <use xlink:href="#DejaVuSans-78" transform="translate(216.121094 0)"/>
     </g>
    </g>
   </g>
   <g id="matplotlib.axis_2">
    <g id="ytick_1">
     <g id="line2d_11">
      <path d="M 57.6 275.510055 
L 414.72 275.510055 
" clip-path="url(#p775e36ad61)" style="fill: none; stroke: #b0b0b0; stroke-opacity: 0.5; stroke-width: 0.8; stroke-linecap: square"/>
     </g>
     <g id="line2d_12">
      <defs>
       <path id="m51a5e6f9c0" d="M 0 0 
L -3.5 0 
" style="stroke: #000000; stroke-width: 0.8"/>
      </defs>
      <g>
       <use xlink:href="#m51a5e6f9c0" x="57.6" y="275.510055" style="stroke: #000000; stroke-width: 0.8"/>
      </g>
     </g>
     <g id="text_7">
      <!-- −1.0 -->
      <g transform="translate(26.317187 279.309274) scale(0.1 -0.1)">
       <use xlink:href="#DejaVuSans-2212"/>
       <use xlink:href="#DejaVuSans-31" transform="translate(83.789062 0)"/>
       <use xlink:href="#DejaVuSans-2e" transform="translate(147.412109 0)"/>
       <use xlink:href="#DejaVuSans-30" transform="translate(179.199219 0)"/>
      </g>
     </g>
    </g>
    <g id="ytick_2">
     <g id="line2d_13">
      <path d="M 57.6 225.025611 
L 414.72 225.025611 
" clip-path="url(#p775e36ad61)" style="fill: none; stroke: #b0b0b0; stroke-opacity: 0.5; stroke-width: 0.8; stroke-linecap: square"/>
     </g>
     <g id="line2d_14">
      <g>
       <use xlink:href="#m51a5e6f9c0" x="57.6" y="225.025611" style="stroke: #000000; stroke-width: 0.8"/>
      </g>
     </g>
     <g id="text_8">
      <!-- −0.5 -->
      <g transform="translate(26.317187 228.82483) scale(0.1 -0.1)">
       <use xlink:href="#DejaVuSans-2212"/>
       <use xlink:href="#DejaVuSans-30" transform="translate(83.789062 0)"/>
       <use xlink:href="#DejaVuSans-2e" transform="translate(147.412109 0)"/>
       <use xlink:href="#DejaVuSans-35" transform="translate(179.199219 0)"/>
      </g>
     </g>
    </g>
    <g id="ytick_3">
     <g id="line2d_15">
      <path d="M 57.6 174.541168 
L 414.72 174.541168 
" clip-path="url(#p775e36ad61)" style="fill: none; stroke: #b0b0b0; stroke-opacity: 0.5; stroke-width: 0.8; stroke-linecap: square"/>
     </g>
     <g id="line2d_16">
      <g>
       <use xlink:href="#m51a5e6f9c0" x="57.6" y="174.541168" style="stroke: #000000; stroke-width: 0.8"/>
      </g>
     </g>
     <g id="text_9">
      <!-- 0.0 -->
      <g transform="translate(34.696875 178.340387) scale(0.1 -0.1)">
       <use xlink:href="#DejaVuSans-30"/>
       <use xlink:href="#DejaVuSans-2e" transform="translate(63.623047 0)"/>
       <use xlink:href="#DejaVuSans-30" transform="translate(95.410156 0)"/>
      </g>
     </g>
    </g>
    <g id="ytick_4">
     <g id="line2d_17">
      <path d="M 57.6 124.056724 
L 414.72 124.056724 
" clip-path="url(#p775e36ad61)" style="fill: none; stroke: #b0b0b0; stroke-opacity: 0.5; stroke-width: 0.8; stroke-linecap: square"/>
     </g>
     <g id="line2d_18">
      <g>
       <use xlink:href="#m51a5e6f9c0" x="57.6" y="124.056724" style="stroke: #000000; stroke-width: 0.8"/>
      </g>
     </g>
     <g id="text_10">
      <!-- 0.5 -->
      <g transform="translate(34.696875 127.855943) scale(0.1 -0.1)">
       <use xlink:href="#DejaVuSans-30"/>
       <use xlink:href="#DejaVuSans-2e" transform="translate(63.623047 0)"/>
       <use xlink:href="#DejaVuSans-35" transform="translate(95.410156 0)"/>
      </g>
     </g>
    </g>
    <g id="ytick_5">
     <g id="line2d_19">
      <path d="M 57.6 73.572281 
L 414.72 73.572281 
" clip-path="url(#p775e36ad61)" style="fill: none; stroke: #b0b0b0; stroke-opacity: 0.5; stroke-width: 0.8; stroke-linecap: square"/>
     </g>
     <g id="line2d_20">
      <g>
       <use xlink:href="#m51a5e6f9c0" x="57.6" y="73.572281" style="stroke: #000000; stroke-width: 0.8"/>
      </g>
     </g>
     <g id="text_11">
      <!-- 1.0 -->
      <g transform="translate(34.696875 77.371499) scale(0.1 -0.1)">
       <use xlink:href="#DejaVuSans-31"/>
       <use xlink:href="#DejaVuSans-2e" transform="translate(63.623047 0)"/>
       <use xlink:href="#DejaVuSans-30" transform="translate(95.410156 0)"/>
      </g>
     </g>
    </g>
    <g id="text_12">
     <!-- Value -->
     <g transform="translate(20.2375 188.25925) rotate(-90) scale(0.1 -0.1)">
      <defs>
       <path id="DejaVuSans-56" d="M 1831 0 
L 50 4666 
L 709 4666 
L 2188 738 
L 3669 4666 
L 4325 4666 
L 2547 0 
L 1831 0 
z
" transform="scale(0.015625)"/>
       <path id="DejaVuSans-61" d="M 2194 1759 
Q 1497 1759 1228 1600 
Q 959 1441 959 1056 
Q 959 750 1161 570 
Q 1363 391 1709 391 
Q 2188 391 2477 730 
Q 2766 1069 2766 1631 
L 2766 1759 
L 2194 1759 
z
M 3341 1997 
L 3341 0 
L 2766 0 
L 2766 531 
Q 2569 213 2275 61 
Q 1981 -91 1556 -91 
Q 1019 -91 701 211 
Q 384 513 384 1019 
Q 384 1609 779 1909 
Q 1175 2209 1959 2209 
L 2766 2209 
L 2766 2266 
Q 2766 2663 2505 2880 
Q 2244 3097 1772 3097 
Q 1472 3097 1187 3025 
Q 903 2953 641 2809 
L 641 3341 
Q 956 3463 1253 3523 
Q 1550 3584 1831 3584 
Q 2591 3584 2966 3190 
Q 3341 2797 3341 1997 
z
" transform="scale(0.015625)"/>
       <path id="DejaVuSans-6c" d="M 603 4863 
L 1178 4863 
L 1178 0 
L 603 0 
L 603 4863 
z
" transform="scale(0.015625)"/>
       <path id="DejaVuSans-75" d="M 544 1381 
L 544 3500 
L 1119 3500 
L 1119 1403 
Q 1119 906 1312 657 
Q 1506 409 1894 409 
Q 2359 409 2629 706 
Q 2900 1003 2900 1516 
L 2900 3500 
L 3475 3500 
L 3475 0 
L 2900 0 
L 2900 538 
Q 2691 219 2414 64 
Q 2138 -91 1772 -91 
Q 1169 -91 856 284 
Q 544 659 544 1381 
z
M 1991 3584 
L 1991 3584 
z
" transform="scale(0.015625)"/>
      </defs>
      <use xlink:href="#DejaVuSans-56"/>
      <use xlink:href="#DejaVuSans-61" transform="translate(60.658203 0)"/>
      <use xlink:href="#DejaVuSans-6c" transform="translate(121.9375 0)"/>
      <use xlink:href="#DejaVuSans-75" transform="translate(149.720703 0)"/>
      <use xlink:href="#DejaVuSans-65" transform="translate(213.099609 0)"/>
     </g>
    </g>
   </g>
   <g id="line2d_21">
    <path d="M 236.659699 177.476808 
L 238.053978 176.999573 
L 238.231237 176.522276 
L 238.577479 176.045229 
L 239.108752 175.568756 
L 239.71971 174.618515 
L 240.26982 174.144899 
L 243.722071 171.780766 
L 249.265907 167.522541 
L 252.439691 165.168066 
L 256.106535 162.345221 
L 260.480127 159.067244 
L 267.30679 153.926992 
L 279.044948 145.05163 
L 288.966299 137.607072 
L 302.384315 127.454846 
L 307.251417 123.790196 
L 321.107727 113.300622 
L 325.284115 110.128156 
L 325.898255 109.675972 
L 329.791392 109.166861 
L 325.486276 108.714123 
L 326.147822 108.261444 
L 329.294169 107.357593 
L 330.046291 106.906853 
L 331.153689 105.557406 
L 334.26941 103.304614 
L 336.62166 101.510133 
L 339.619863 99.267463 
L 342.52289 97.028832 
L 346.090645 94.346514 
L 349.03193 92.115971 
L 351.981449 89.884736 
L 354.911014 87.658616 
L 357.858324 85.429692 
L 360.139284 83.650678 
L 363.730725 80.983351 
L 365.961987 79.206268 
L 369.584936 76.549473 
L 371.764662 74.77747 
L 375.907556 71.689422 
L 377.521052 70.369266 
L 381.193493 67.737297 
L 383.21258 65.980808 
L 387.007163 63.364438 
L 388.830806 61.611079 
L 390.214029 60.754711 
L 392.375896 59.45107 
L 393.18205 58.561048 
L 393.757684 57.684375 
L 394.243847 57.258405 
L 394.981315 56.838719 
L 397.992506 55.554035 
L 398.487273 55.104053 
L 398.237664 54.655431 
L 397.020875 54.234156 
L 394.711316 53.879707 
L 391.373819 53.640772 
L 387.358639 53.568 
L 383.478194 53.70418 
L 380.879418 54.074204 
L 380.400475 54.676603 
L 381.827775 55.479662 
L 384.054454 56.422909 
L 385.961454 57.424544 
L 387.147074 58.393982 
L 387.941163 59.247221 
L 388.80079 59.921863 
L 389.656955 60.388804 
L 389.791229 60.657962 
L 388.430144 60.776509 
L 376.237126 61.031477 
L 372.385939 61.348516 
L 370.669223 61.858416 
L 371.467268 62.553207 
L 367.910475 63.499366 
L 379.452464 64.406756 
L 381.810154 65.290098 
L 380.709309 66.073621 
L 379.052065 66.704162 
L 378.002846 67.461614 
L 376.884842 67.652127 
L 366.334009 68.27045 
L 363.645233 68.698357 
L 363.008438 69.2821 
L 364.209238 70.001734 
L 368.127908 71.642384 
L 369.242451 72.432395 
L 369.650944 73.123912 
L 369.592444 73.683094 
L 369.087606 74.10458 
L 367.882355 74.411701 
L 362.875515 74.879569 
L 359.721635 75.15737 
L 357.07898 75.530114 
L 355.639507 76.022507 
L 355.627812 76.633367 
L 356.662254 77.337005 
L 358.047653 78.089167 
L 359.155504 78.837352 
L 359.730825 79.531836 
L 359.787577 80.136203 
L 359.395659 80.634228 
L 358.488733 81.03267 
L 356.951868 81.358791 
L 350.039232 82.327995 
L 348.416225 82.77507 
L 347.767585 83.31299 
L 348.013584 83.930687 
L 349.521768 85.286736 
L 349.997331 85.949576 
L 350.069866 86.557674 
L 349.734651 87.092374 
L 348.998403 87.551263 
L 347.822541 87.94805 
L 341.029196 89.48228 
L 340.115981 89.978921 
L 339.828164 90.536009 
L 339.989265 91.138817 
L 340.557654 92.384064 
L 340.555849 92.975035 
L 340.250815 93.519816 
L 339.63155 94.012112 
L 338.695225 94.457008 
L 336.027062 95.269925 
L 333.253042 96.120383 
L 332.293064 96.600064 
L 331.740111 97.121813 
L 331.530558 97.678516 
L 331.498827 98.836343 
L 331.359097 99.402368 
L 331.013094 99.940835 
L 330.428509 100.445318 
L 329.60831 100.917092 
L 327.416848 101.800259 
L 325.143998 102.693687 
L 324.264632 103.172538 
L 323.64038 103.678123 
L 323.234567 104.206991 
L 322.400712 105.839173 
L 321.951646 106.364208 
L 321.344808 106.868998 
L 319.707016 107.822699 
L 316.907076 109.213213 
L 315.482652 110.191636 
L 314.505128 111.220528 
L 313.06179 112.773168 
L 311.743413 113.763621 
L 307.233887 116.642121 
L 304.974248 118.647366 
L 303.109623 120.130826 
L 297.699179 124.007862 
L 295.234021 125.97287 
L 288.704464 130.834994 
L 281.573336 136.203293 
L 277.683706 136.750291 
L 281.790884 137.235534 
L 281.120466 137.720464 
L 277.665553 138.692192 
L 276.760477 139.179956 
L 275.828072 140.649607 
L 274.409286 141.62853 
L 272.971095 142.601543 
L 269.089814 145.503372 
L 189.724354 205.53671 
L 186.30355 206.058414 
L 189.607783 206.522394 
L 189.264244 206.986675 
L 186.342706 207.915764 
L 185.364794 208.380163 
L 184.915596 208.844176 
L 184.360698 209.770554 
L 183.078164 210.695069 
L 181.626205 211.618922 
L 140.602273 243.032411 
L 131.842117 249.7447 
L 127.177317 253.308976 
L 103.510057 271.493613 
L 100.492643 271.991253 
L 103.188029 272.434152 
L 103.122186 272.876948 
L 99.018638 274.637552 
L 97.971182 275.952394 
L 94.980892 278.153989 
L 93.319923 279.462999 
L 90.917728 281.212482 
L 88.895789 282.962795 
L 84.791269 286.010467 
L 83.373134 287.317407 
L 82.070334 288.173486 
L 80.002818 289.470508 
L 79.139169 290.354812 
L 78.520909 291.230871 
L 78.067318 291.657984 
L 77.398751 292.078393 
L 73.891441 293.799722 
L 73.832727 294.24956 
L 74.562959 294.682582 
L 76.165593 295.064426 
L 78.544942 295.34975 
L 81.480409 295.488 
L 84.66494 295.432572 
L 87.717142 295.150595 
L 90.03064 294.632571 
L 90.907706 293.898277 
L 90.068041 292.997759 
L 87.97069 292.00627 
L 81.195954 289.366092 
L 80.573524 288.828039 
L 81.555969 288.499637 
L 84.013152 288.345643 
L 94.409477 288.158501 
L 97.425449 287.90115 
L 99.640186 287.44858 
L 100.469698 286.795965 
L 99.501091 285.978968 
L 97.059484 285.06586 
L 91.421165 283.296541 
L 89.853427 282.59495 
L 89.864536 282.074748 
L 91.608993 281.733611 
L 98.208857 281.40155 
L 104.621839 281.034054 
L 106.908485 280.662477 
L 108.223162 280.121175 
L 108.207907 279.420896 
L 106.82906 278.605283 
L 100.502138 276.158108 
L 99.89268 275.552628 
L 100.708708 275.101695 
L 102.834731 274.787833 
L 111.720235 274.137908 
L 114.033684 273.808748 
L 115.616175 273.348752 
L 116.218182 272.751642 
L 115.710081 272.040163 
L 114.303707 271.260341 
L 110.947245 269.731251 
L 110.103063 269.08747 
L 110.318205 268.564518 
L 111.664488 268.160888 
L 116.521345 267.586817 
L 121.354202 266.992698 
L 123.016209 266.575191 
L 123.931352 266.049783 
L 123.984857 265.424586 
L 123.263155 264.728514 
L 120.89326 263.299314 
L 120.126649 262.654402 
L 120.103292 262.096351 
L 120.961213 261.632245 
L 122.589058 261.249029 
L 128.915585 260.24912 
L 130.509589 259.841212 
L 131.538221 259.355488 
L 131.923273 258.791629 
L 131.705305 258.166054 
L 129.844129 256.227545 
L 129.817137 255.662236 
L 130.413474 255.164764 
L 131.612882 254.730267 
L 138.200556 253.169022 
L 139.234231 252.698494 
L 139.798657 252.171804 
L 139.915063 251.597419 
L 139.712168 250.9936 
L 139.173498 249.792322 
L 139.265064 249.236871 
L 143.300815 248.666723 
L 138.839322 248.206805 
L 140.328689 247.779133 
L 145.654524 246.946736 
L 147.169977 246.504565 
L 147.732375 246.028061 
L 147.9977 243.833609 
L 148.251158 243.275492 
L 148.621862 242.740756 
L 149.182158 242.235449 
L 149.990043 241.758667 
L 152.181119 240.858541 
L 154.360854 239.951163 
L 155.177648 239.470482 
L 155.772823 238.967305 
L 156.46558 237.909929 
L 157.056107 236.840588 
L 157.512896 236.322432 
L 158.910707 235.336679 
L 163.225737 232.978959 
L 164.363686 231.978154 
L 166.276011 229.935157 
L 167.605341 228.953411 
L 172.04801 226.06932 
L 176.177264 222.606551 
L 179.705846 220.187421 
L 184.036675 216.752838 
L 187.4279 214.31278 
L 191.175942 211.371832 
L 194.563087 208.932252 
L 199.616707 205.020269 
L 203.536928 202.103968 
L 207.935282 198.708042 
L 212.483689 195.329106 
L 215.560154 192.916038 
L 220.155147 189.556719 
L 223.20735 187.147593 
L 228.372894 183.321003 
L 232.140171 180.450902 
L 235.340123 178.072891 
L 239.535916 177.536445 
L 239.535916 177.536445 
" clip-path="url(#p775e36ad61)" style="fill: none; stroke: #1f77b4; stroke-width: 1.5; stroke-linecap: square"/>
   </g>
   <g id="line2d_22">
    <path d="M 235.717795 177.476808 
L 266.112304 154.393676 
L 270.464408 151.12179 
L 274.209 148.323237 
L 278.487936 145.05163 
L 381.271674 66.8541 
L 383.121987 65.54793 
L 385.010888 64.246118 
L 388.177585 61.611079 
L 390.915497 59.891025 
L 391.796421 59.006576 
L 392.534878 58.119022 
L 393.06243 57.684375 
L 394.671921 56.838719 
L 396.482411 55.992967 
L 396.974193 55.554035 
L 396.873694 55.104053 
L 396.011776 54.655431 
L 394.346917 54.234156 
L 392.002332 53.879707 
L 389.26699 53.640772 
L 386.556061 53.568 
L 384.334079 53.70418 
L 383.018471 54.074204 
L 382.881511 54.676603 
L 383.977708 55.479662 
L 386.112162 56.422909 
L 393.885233 59.247221 
L 395.009551 59.921863 
L 394.699432 60.388804 
L 392.892025 60.657962 
L 385.93729 60.819816 
L 378.321042 61.031477 
L 375.779414 61.348516 
L 374.595509 61.858416 
L 374.822057 62.553207 
L 376.465322 63.499366 
L 382.537254 66.073621 
L 383.2108 66.704162 
L 382.637589 67.161534 
L 380.836808 67.461614 
L 374.808821 67.801896 
L 371.572573 67.986053 
L 368.877888 68.27045 
L 367.103241 68.698357 
L 366.423168 69.2821 
L 366.779976 70.001734 
L 367.905061 70.809812 
L 370.745995 72.432395 
L 371.568526 73.123912 
L 371.559163 73.683094 
L 370.613509 74.10458 
L 368.828454 74.411701 
L 361.586808 75.15737 
L 359.794714 75.530114 
L 358.756201 76.022507 
L 358.507903 76.633367 
L 358.915942 77.337005 
L 361.12219 79.531836 
L 361.145143 80.136203 
L 360.499381 80.634228 
L 359.206116 81.03267 
L 355.412564 81.65372 
L 351.842823 82.327995 
L 350.734321 82.77507 
L 350.201701 83.31299 
L 350.182613 83.930687 
L 351.245802 85.949576 
L 351.209687 86.557674 
L 350.715324 87.092374 
L 349.746874 87.551263 
L 346.812577 88.308541 
L 343.797553 89.048198 
L 342.706507 89.48228 
L 342.012596 89.978921 
L 341.696461 90.536009 
L 341.65803 91.138817 
L 341.775037 92.384064 
L 341.603082 92.975035 
L 341.125483 93.519816 
L 340.313864 94.012112 
L 337.937128 94.86937 
L 335.416376 95.68077 
L 334.429794 96.120383 
L 333.720924 96.600064 
L 333.281921 97.121813 
L 332.89761 98.255946 
L 332.716367 98.836343 
L 332.389657 99.402368 
L 331.845943 99.940835 
L 331.067077 100.445318 
L 328.995811 101.364438 
L 326.862997 102.239077 
L 325.999183 102.693687 
L 325.328225 103.172538 
L 324.469661 104.206991 
L 323.791558 105.298461 
L 323.32755 105.839173 
L 322.718487 106.364208 
L 321.091335 107.353687 
L 317.636549 109.213213 
L 316.471221 110.191636 
L 314.484853 112.261824 
L 313.091221 113.273889 
L 308.599991 116.152389 
L 305.209129 119.147119 
L 299.642088 123.026255 
L 297.367734 124.993198 
L 295.165557 126.45953 
L 292.964946 127.913422 
L 291.189191 129.372156 
L 289.461036 130.834994 
L 287.355588 132.294658 
L 284.484741 134.247439 
L 278.022143 139.179956 
L 275.360091 141.139622 
L 271.023694 144.534777 
L 266.426085 147.934382 
L 262.692093 150.820411 
L 258.748972 153.711346 
L 254.355446 157.065398 
L 249.850948 160.425867 
L 244.107872 164.718117 
L 232.203847 173.751671 
L 227.755147 177.053507 
L 207.411575 192.513711 
L 96.008814 277.274415 
L 93.738256 279.027593 
L 90.839218 281.212482 
L 88.636489 282.962795 
L 85.608303 285.131615 
L 83.002092 287.317407 
L 79.797748 289.470508 
L 78.139944 291.230871 
L 76.682118 292.078393 
L 74.865694 292.919811 
L 74.232483 293.353761 
L 74.093446 293.799722 
L 74.649646 294.24956 
L 76.000759 294.682582 
L 78.096791 295.064426 
L 80.71838 295.34975 
L 83.49732 295.488 
L 85.977235 295.432572 
L 87.703725 295.150595 
L 88.326551 294.632571 
L 87.688494 293.898277 
L 85.880081 292.997759 
L 80.312393 291.013542 
L 77.726309 290.109028 
L 76.086555 289.366092 
L 75.836023 288.828039 
L 77.157912 288.499637 
L 79.929451 288.345643 
L 91.910129 288.158501 
L 94.930073 287.90115 
L 96.581679 287.44858 
L 96.706244 286.795965 
L 95.460708 285.978968 
L 93.28061 285.06586 
L 88.639159 283.296541 
L 87.423177 282.59495 
L 87.504687 282.074748 
L 88.971547 281.733611 
L 91.621422 281.531857 
L 101.684815 281.034054 
L 103.890799 280.662477 
L 104.910316 280.121175 
L 104.728742 279.420896 
L 103.582922 278.605283 
L 99.010264 276.158108 
L 98.68381 275.552628 
L 99.410045 275.101695 
L 101.138612 274.787833 
L 111.213354 273.808748 
L 112.509973 273.348752 
L 112.880264 272.751642 
L 112.430522 272.040163 
L 109.386183 269.731251 
L 109.063767 269.08747 
L 109.520383 268.564518 
L 110.778224 268.160888 
L 114.957802 267.586817 
L 119.188627 266.992698 
L 120.546984 266.575191 
L 121.194206 266.049783 
L 121.167981 265.424586 
L 120.649808 264.728514 
L 119.292414 263.299314 
L 119.046169 262.654402 
L 119.365485 262.096351 
L 120.304093 261.632245 
L 121.779367 261.249029 
L 127.20191 260.24912 
L 128.511254 259.841212 
L 129.302929 259.355488 
L 129.57788 258.791629 
L 129.449944 258.166054 
L 128.808648 256.850526 
L 128.744248 256.227545 
L 129.075597 255.662236 
L 129.861173 255.164764 
L 131.056163 254.730267 
L 136.696658 253.169022 
L 137.488415 252.698494 
L 137.897409 252.171804 
L 138.001956 251.597419 
L 137.900418 250.384051 
L 138.029384 249.792322 
L 138.447577 249.236871 
L 139.315421 248.666723 
L 141.66327 247.779133 
L 144.167942 246.946736 
L 145.14859 246.504565 
L 145.853174 246.028061 
L 146.290966 245.514256 
L 146.687145 244.403131 
L 146.880594 243.833609 
L 147.21951 243.275492 
L 147.770625 242.740756 
L 148.546821 242.235449 
L 150.572403 241.303444 
L 152.61966 240.411466 
L 154.079762 239.470482 
L 154.9189 238.444732 
L 155.630431 237.372111 
L 156.118308 236.840588 
L 157.516976 235.821235 
L 161.779737 233.461999 
L 162.891189 232.483846 
L 164.803134 230.439639 
L 166.21353 229.439791 
L 170.17481 227.044259 
L 171.290375 226.06932 
L 173.363136 224.075853 
L 174.798822 223.091932 
L 178.610279 220.675324 
L 180.227233 219.204054 
L 181.322923 218.218653 
L 182.672243 217.239633 
L 187.085478 214.31278 
L 191.279742 210.885587 
L 195.477019 207.948223 
L 199.747532 204.536365 
L 204.414619 201.12692 
L 208.078832 198.228002 
L 212.700955 194.843407 
L 215.778401 192.438363 
L 220.988536 188.588863 
L 224.774734 185.71763 
L 229.881853 181.881141 
L 235.639056 177.536445 
L 235.639056 177.536445 
" clip-path="url(#p775e36ad61)" style="fill: none; stroke: #ff7f0e; stroke-opacity: 0.5; stroke-width: 1.5; stroke-linecap: square"/>
   </g>
   <g id="patch_3">
    <path d="M 57.6 307.584 
L 57.6 41.472 
" style="fill: none; stroke: #000000; stroke-width: 0.8; stroke-linejoin: miter; stroke-linecap: square"/>
   </g>
   <g id="patch_4">
    <path d="M 414.72 307.584 
L 414.72 41.472 
" style="fill: none; stroke: #000000; stroke-width: 0.8; stroke-linejoin: miter; stroke-linecap: square"/>
   </g>
   <g id="patch_5">
    <path d="M 57.6 307.584 
L 414.72 307.584 
" style="fill: none; stroke: #000000; stroke-width: 0.8; stroke-linejoin: miter; stroke-linecap: square"/>
   </g>
   <g id="patch_6">
    <path d="M 57.6 41.472 
L 414.72 41.472 
" style="fill: none; stroke: #000000; stroke-width: 0.8; stroke-linejoin: miter; stroke-linecap: square"/>
   </g>
   <g id="text_13">
    <!-- Compare - Epoch 2100 -->
    <g transform="translate(167.416875 35.472) scale(0.12 -0.12)">
     <defs>
      <path id="DejaVuSans-43" d="M 4122 4306 
L 4122 3641 
Q 3803 3938 3442 4084 
Q 3081 4231 2675 4231 
Q 1875 4231 1450 3742 
Q 1025 3253 1025 2328 
Q 1025 1406 1450 917 
Q 1875 428 2675 428 
Q 3081 428 3442 575 
Q 3803 722 4122 1019 
L 4122 359 
Q 3791 134 3420 21 
Q 3050 -91 2638 -91 
Q 1578 -91 968 557 
Q 359 1206 359 2328 
Q 359 3453 968 4101 
Q 1578 4750 2638 4750 
Q 3056 4750 3426 4639 
Q 3797 4528 4122 4306 
z
" transform="scale(0.015625)"/>
      <path id="DejaVuSans-6f" d="M 1959 3097 
Q 1497 3097 1228 2736 
Q 959 2375 959 1747 
Q 959 1119 1226 758 
Q 1494 397 1959 397 
Q 2419 397 2687 759 
Q 2956 1122 2956 1747 
Q 2956 2369 2687 2733 
Q 2419 3097 1959 3097 
z
M 1959 3584 
Q 2709 3584 3137 3096 
Q 3566 2609 3566 1747 
Q 3566 888 3137 398 
Q 2709 -91 1959 -91 
Q 1206 -91 779 398 
Q 353 888 353 1747 
Q 353 2609 779 3096 
Q 1206 3584 1959 3584 
z
" transform="scale(0.015625)"/>
      <path id="DejaVuSans-6d" d="M 3328 2828 
Q 3544 3216 3844 3400 
Q 4144 3584 4550 3584 
Q 5097 3584 5394 3201 
Q 5691 2819 5691 2113 
L 5691 0 
L 5113 0 
L 5113 2094 
Q 5113 2597 4934 2840 
Q 4756 3084 4391 3084 
Q 3944 3084 3684 2787 
Q 3425 2491 3425 1978 
L 3425 0 
L 2847 0 
L 2847 2094 
Q 2847 2600 2669 2842 
Q 2491 3084 2119 3084 
Q 1678 3084 1418 2786 
Q 1159 2488 1159 1978 
L 1159 0 
L 581 0 
L 581 3500 
L 1159 3500 
L 1159 2956 
Q 1356 3278 1631 3431 
Q 1906 3584 2284 3584 
Q 2666 3584 2933 3390 
Q 3200 3197 3328 2828 
z
" transform="scale(0.015625)"/>
      <path id="DejaVuSans-70" d="M 1159 525 
L 1159 -1331 
L 581 -1331 
L 581 3500 
L 1159 3500 
L 1159 2969 
Q 1341 3281 1617 3432 
Q 1894 3584 2278 3584 
Q 2916 3584 3314 3078 
Q 3713 2572 3713 1747 
Q 3713 922 3314 415 
Q 2916 -91 2278 -91 
Q 1894 -91 1617 61 
Q 1341 213 1159 525 
z
M 3116 1747 
Q 3116 2381 2855 2742 
Q 2594 3103 2138 3103 
Q 1681 3103 1420 2742 
Q 1159 2381 1159 1747 
Q 1159 1113 1420 752 
Q 1681 391 2138 391 
Q 2594 391 2855 752 
Q 3116 1113 3116 1747 
z
" transform="scale(0.015625)"/>
      <path id="DejaVuSans-72" d="M 2631 2963 
Q 2534 3019 2420 3045 
Q 2306 3072 2169 3072 
Q 1681 3072 1420 2755 
Q 1159 2438 1159 1844 
L 1159 0 
L 581 0 
L 581 3500 
L 1159 3500 
L 1159 2956 
Q 1341 3275 1631 3429 
Q 1922 3584 2338 3584 
Q 2397 3584 2469 3576 
Q 2541 3569 2628 3553 
L 2631 2963 
z
" transform="scale(0.015625)"/>
      <path id="DejaVuSans-20" transform="scale(0.015625)"/>
      <path id="DejaVuSans-2d" d="M 313 2009 
L 1997 2009 
L 1997 1497 
L 313 1497 
L 313 2009 
z
" transform="scale(0.015625)"/>
      <path id="DejaVuSans-45" d="M 628 4666 
L 3578 4666 
L 3578 4134 
L 1259 4134 
L 1259 2753 
L 3481 2753 
L 3481 2222 
L 1259 2222 
L 1259 531 
L 3634 531 
L 3634 0 
L 628 0 
L 628 4666 
z
" transform="scale(0.015625)"/>
      <path id="DejaVuSans-63" d="M 3122 3366 
L 3122 2828 
Q 2878 2963 2633 3030 
Q 2388 3097 2138 3097 
Q 1578 3097 1268 2742 
Q 959 2388 959 1747 
Q 959 1106 1268 751 
Q 1578 397 2138 397 
Q 2388 397 2633 464 
Q 2878 531 3122 666 
L 3122 134 
Q 2881 22 2623 -34 
Q 2366 -91 2075 -91 
Q 1284 -91 818 406 
Q 353 903 353 1747 
Q 353 2603 823 3093 
Q 1294 3584 2113 3584 
Q 2378 3584 2631 3529 
Q 2884 3475 3122 3366 
z
" transform="scale(0.015625)"/>
      <path id="DejaVuSans-68" d="M 3513 2113 
L 3513 0 
L 2938 0 
L 2938 2094 
Q 2938 2591 2744 2837 
Q 2550 3084 2163 3084 
Q 1697 3084 1428 2787 
Q 1159 2491 1159 1978 
L 1159 0 
L 581 0 
L 581 4863 
L 1159 4863 
L 1159 2956 
Q 1366 3272 1645 3428 
Q 1925 3584 2291 3584 
Q 2894 3584 3203 3211 
Q 3513 2838 3513 2113 
z
" transform="scale(0.015625)"/>
      <path id="DejaVuSans-32" d="M 1228 531 
L 3431 531 
L 3431 0 
L 469 0 
L 469 531 
Q 828 903 1448 1529 
Q 2069 2156 2228 2338 
Q 2531 2678 2651 2914 
Q 2772 3150 2772 3378 
Q 2772 3750 2511 3984 
Q 2250 4219 1831 4219 
Q 1534 4219 1204 4116 
Q 875 4013 500 3803 
L 500 4441 
Q 881 4594 1212 4672 
Q 1544 4750 1819 4750 
Q 2544 4750 2975 4387 
Q 3406 4025 3406 3419 
Q 3406 3131 3298 2873 
Q 3191 2616 2906 2266 
Q 2828 2175 2409 1742 
Q 1991 1309 1228 531 
z
" transform="scale(0.015625)"/>
     </defs>
     <use xlink:href="#DejaVuSans-43"/>
     <use xlink:href="#DejaVuSans-6f" transform="translate(69.824219 0)"/>
     <use xlink:href="#DejaVuSans-6d" transform="translate(131.005859 0)"/>
     <use xlink:href="#DejaVuSans-70" transform="translate(228.417969 0)"/>
     <use xlink:href="#DejaVuSans-61" transform="translate(291.894531 0)"/>
     <use xlink:href="#DejaVuSans-72" transform="translate(353.173828 0)"/>
     <use xlink:href="#DejaVuSans-65" transform="translate(392.037109 0)"/>
     <use xlink:href="#DejaVuSans-20" transform="translate(453.560547 0)"/>
     <use xlink:href="#DejaVuSans-2d" transform="translate(485.347656 0)"/>
     <use xlink:href="#DejaVuSans-20" transform="translate(521.431641 0)"/>
     <use xlink:href="#DejaVuSans-45" transform="translate(553.21875 0)"/>
     <use xlink:href="#DejaVuSans-70" transform="translate(616.402344 0)"/>
     <use xlink:href="#DejaVuSans-6f" transform="translate(679.878906 0)"/>
     <use xlink:href="#DejaVuSans-63" transform="translate(741.060547 0)"/>
     <use xlink:href="#DejaVuSans-68" transform="translate(796.041016 0)"/>
     <use xlink:href="#DejaVuSans-20" transform="translate(859.419922 0)"/>
     <use xlink:href="#DejaVuSans-32" transform="translate(891.207031 0)"/>
     <use xlink:href="#DejaVuSans-31" transform="translate(954.830078 0)"/>
     <use xlink:href="#DejaVuSans-30" transform="translate(1018.453125 0)"/>
     <use xlink:href="#DejaVuSans-30" transform="translate(1082.076172 0)"/>
    </g>
   </g>
   <g id="legend_1">
    <g id="patch_7">
     <path d="M 64.6 78.82825 
L 181.128125 78.82825 
Q 183.128125 78.82825 183.128125 76.82825 
L 183.128125 48.472 
Q 183.128125 46.472 181.128125 46.472 
L 64.6 46.472 
Q 62.6 46.472 62.6 48.472 
L 62.6 76.82825 
Q 62.6 78.82825 64.6 78.82825 
z
" style="fill: #ffffff; opacity: 0.8; stroke: #cccccc; stroke-linejoin: miter"/>
    </g>
    <g id="line2d_23">
     <path d="M 66.6 54.570437 
L 76.6 54.570437 
L 86.6 54.570437 
" style="fill: none; stroke: #1f77b4; stroke-width: 1.5; stroke-linecap: square"/>
    </g>
    <g id="text_14">
     <!-- Pred: Sample 1 -->
     <g transform="translate(94.6 58.070437) scale(0.1 -0.1)">
      <defs>
       <path id="DejaVuSans-50" d="M 1259 4147 
L 1259 2394 
L 2053 2394 
Q 2494 2394 2734 2622 
Q 2975 2850 2975 3272 
Q 2975 3691 2734 3919 
Q 2494 4147 2053 4147 
L 1259 4147 
z
M 628 4666 
L 2053 4666 
Q 2838 4666 3239 4311 
Q 3641 3956 3641 3272 
Q 3641 2581 3239 2228 
Q 2838 1875 2053 1875 
L 1259 1875 
L 1259 0 
L 628 0 
L 628 4666 
z
" transform="scale(0.015625)"/>
       <path id="DejaVuSans-3a" d="M 750 794 
L 1409 794 
L 1409 0 
L 750 0 
L 750 794 
z
M 750 3309 
L 1409 3309 
L 1409 2516 
L 750 2516 
L 750 3309 
z
" transform="scale(0.015625)"/>
       <path id="DejaVuSans-53" d="M 3425 4513 
L 3425 3897 
Q 3066 4069 2747 4153 
Q 2428 4238 2131 4238 
Q 1616 4238 1336 4038 
Q 1056 3838 1056 3469 
Q 1056 3159 1242 3001 
Q 1428 2844 1947 2747 
L 2328 2669 
Q 3034 2534 3370 2195 
Q 3706 1856 3706 1288 
Q 3706 609 3251 259 
Q 2797 -91 1919 -91 
Q 1588 -91 1214 -16 
Q 841 59 441 206 
L 441 856 
Q 825 641 1194 531 
Q 1563 422 1919 422 
Q 2459 422 2753 634 
Q 3047 847 3047 1241 
Q 3047 1584 2836 1778 
Q 2625 1972 2144 2069 
L 1759 2144 
Q 1053 2284 737 2584 
Q 422 2884 422 3419 
Q 422 4038 858 4394 
Q 1294 4750 2059 4750 
Q 2388 4750 2728 4690 
Q 3069 4631 3425 4513 
z
" transform="scale(0.015625)"/>
      </defs>
      <use xlink:href="#DejaVuSans-50"/>
      <use xlink:href="#DejaVuSans-72" transform="translate(58.552734 0)"/>
      <use xlink:href="#DejaVuSans-65" transform="translate(97.416016 0)"/>
      <use xlink:href="#DejaVuSans-64" transform="translate(158.939453 0)"/>
      <use xlink:href="#DejaVuSans-3a" transform="translate(222.416016 0)"/>
      <use xlink:href="#DejaVuSans-20" transform="translate(256.107422 0)"/>
      <use xlink:href="#DejaVuSans-53" transform="translate(287.894531 0)"/>
      <use xlink:href="#DejaVuSans-61" transform="translate(351.371094 0)"/>
      <use xlink:href="#DejaVuSans-6d" transform="translate(412.650391 0)"/>
      <use xlink:href="#DejaVuSans-70" transform="translate(510.0625 0)"/>
      <use xlink:href="#DejaVuSans-6c" transform="translate(573.539062 0)"/>
      <use xlink:href="#DejaVuSans-65" transform="translate(601.322266 0)"/>
      <use xlink:href="#DejaVuSans-20" transform="translate(662.845703 0)"/>
      <use xlink:href="#DejaVuSans-31" transform="translate(694.632812 0)"/>
     </g>
    </g>
    <g id="line2d_24">
     <path d="M 66.6 69.248562 
L 76.6 69.248562 
L 86.6 69.248562 
" style="fill: none; stroke: #ff7f0e; stroke-opacity: 0.5; stroke-width: 1.5; stroke-linecap: square"/>
    </g>
    <g id="text_15">
     <!-- Target: Sample 1 -->
     <g transform="translate(94.6 72.748562) scale(0.1 -0.1)">
      <defs>
       <path id="DejaVuSans-54" d="M -19 4666 
L 3928 4666 
L 3928 4134 
L 2272 4134 
L 2272 0 
L 1638 0 
L 1638 4134 
L -19 4134 
L -19 4666 
z
" transform="scale(0.015625)"/>
       <path id="DejaVuSans-67" d="M 2906 1791 
Q 2906 2416 2648 2759 
Q 2391 3103 1925 3103 
Q 1463 3103 1205 2759 
Q 947 2416 947 1791 
Q 947 1169 1205 825 
Q 1463 481 1925 481 
Q 2391 481 2648 825 
Q 2906 1169 2906 1791 
z
M 3481 434 
Q 3481 -459 3084 -895 
Q 2688 -1331 1869 -1331 
Q 1566 -1331 1297 -1286 
Q 1028 -1241 775 -1147 
L 775 -588 
Q 1028 -725 1275 -790 
Q 1522 -856 1778 -856 
Q 2344 -856 2625 -561 
Q 2906 -266 2906 331 
L 2906 616 
Q 2728 306 2450 153 
Q 2172 0 1784 0 
Q 1141 0 747 490 
Q 353 981 353 1791 
Q 353 2603 747 3093 
Q 1141 3584 1784 3584 
Q 2172 3584 2450 3431 
Q 2728 3278 2906 2969 
L 2906 3500 
L 3481 3500 
L 3481 434 
z
" transform="scale(0.015625)"/>
       <path id="DejaVuSans-74" d="M 1172 4494 
L 1172 3500 
L 2356 3500 
L 2356 3053 
L 1172 3053 
L 1172 1153 
Q 1172 725 1289 603 
Q 1406 481 1766 481 
L 2356 481 
L 2356 0 
L 1766 0 
Q 1100 0 847 248 
Q 594 497 594 1153 
L 594 3053 
L 172 3053 
L 172 3500 
L 594 3500 
L 594 4494 
L 1172 4494 
z
" transform="scale(0.015625)"/>
      </defs>
      <use xlink:href="#DejaVuSans-54"/>
      <use xlink:href="#DejaVuSans-61" transform="translate(44.583984 0)"/>
      <use xlink:href="#DejaVuSans-72" transform="translate(105.863281 0)"/>
      <use xlink:href="#DejaVuSans-67" transform="translate(145.226562 0)"/>
      <use xlink:href="#DejaVuSans-65" transform="translate(208.703125 0)"/>
      <use xlink:href="#DejaVuSans-74" transform="translate(270.226562 0)"/>
      <use xlink:href="#DejaVuSans-3a" transform="translate(309.435547 0)"/>
      <use xlink:href="#DejaVuSans-20" transform="translate(343.126953 0)"/>
      <use xlink:href="#DejaVuSans-53" transform="translate(374.914062 0)"/>
      <use xlink:href="#DejaVuSans-61" transform="translate(438.390625 0)"/>
      <use xlink:href="#DejaVuSans-6d" transform="translate(499.669922 0)"/>
      <use xlink:href="#DejaVuSans-70" transform="translate(597.082031 0)"/>
      <use xlink:href="#DejaVuSans-6c" transform="translate(660.558594 0)"/>
      <use xlink:href="#DejaVuSans-65" transform="translate(688.341797 0)"/>
      <use xlink:href="#DejaVuSans-20" transform="translate(749.865234 0)"/>
      <use xlink:href="#DejaVuSans-31" transform="translate(781.652344 0)"/>
     </g>
    </g>
   </g>
  </g>
 </g>
 <defs>
  <clipPath id="p775e36ad61">
   <rect x="57.6" y="41.472" width="357.12" height="266.112"/>
  </clipPath>
 </defs>
</svg>
