<?xml version="1.0" encoding="utf-8" standalone="no"?>
<!DOCTYPE svg PUBLIC "-//W3C//DTD SVG 1.1//EN"
  "http://www.w3.org/Graphics/SVG/1.1/DTD/svg11.dtd">
<svg xmlns:xlink="http://www.w3.org/1999/xlink" width="460.8pt" height="345.6pt" viewBox="0 0 460.8 345.6" xmlns="http://www.w3.org/2000/svg" version="1.1">
 <metadata>
  <rdf:RDF xmlns:dc="http://purl.org/dc/elements/1.1/" xmlns:cc="http://creativecommons.org/ns#" xmlns:rdf="http://www.w3.org/1999/02/22-rdf-syntax-ns#">
   <cc:Work>
    <dc:type rdf:resource="http://purl.org/dc/dcmitype/StillImage"/>
    <dc:date>2025-05-30T19:38:37.267418</dc:date>
    <dc:format>image/svg+xml</dc:format>
    <dc:creator>
     <cc:Agent>
      <dc:title>Matplotlib v3.10.3, https://matplotlib.org/</dc:title>
     </cc:Agent>
    </dc:creator>
   </cc:Work>
  </rdf:RDF>
 </metadata>
 <defs>
  <style type="text/css">*{stroke-linejoin: round; stroke-linecap: butt}</style>
 </defs>
 <g id="figure_1">
  <g id="patch_1">
   <path d="M 0 345.6 
L 460.8 345.6 
L 460.8 0 
L 0 0 
z
" style="fill: #ffffff"/>
  </g>
  <g id="axes_1">
   <g id="patch_2">
    <path d="M 57.6 307.584 
L 414.72 307.584 
L 414.72 41.472 
L 57.6 41.472 
z
" style="fill: #ffffff"/>
   </g>
   <g id="matplotlib.axis_1">
    <g id="xtick_1">
     <g id="line2d_1">
      <path d="M 74.580144 307.584 
L 74.580144 41.472 
" clip-path="url(#p2a082b66bc)" style="fill: none; stroke: #b0b0b0; stroke-opacity: 0.5; stroke-width: 0.8; stroke-linecap: square"/>
     </g>
     <g id="line2d_2">
      <defs>
       <path id="ma169e9413d" d="M 0 0 
L 0 3.5 
" style="stroke: #000000; stroke-width: 0.8"/>
      </defs>
      <g>
       <use xlink:href="#ma169e9413d" x="74.580144" y="307.584" style="stroke: #000000; stroke-width: 0.8"/>
      </g>
     </g>
     <g id="text_1">
      <!-- −1.00 -->
      <g transform="translate(59.257488 322.182437) scale(0.1 -0.1)">
       <defs>
        <path id="DejaVuSans-2212" d="M 678 2272 
L 4684 2272 
L 4684 1741 
L 678 1741 
L 678 2272 
z
" transform="scale(0.015625)"/>
        <path id="DejaVuSans-31" d="M 794 531 
L 1825 531 
L 1825 4091 
L 703 3866 
L 703 4441 
L 1819 4666 
L 2450 4666 
L 2450 531 
L 3481 531 
L 3481 0 
L 794 0 
L 794 531 
z
" transform="scale(0.015625)"/>
        <path id="DejaVuSans-2e" d="M 684 794 
L 1344 794 
L 1344 0 
L 684 0 
L 684 794 
z
" transform="scale(0.015625)"/>
        <path id="DejaVuSans-30" d="M 2034 4250 
Q 1547 4250 1301 3770 
Q 1056 3291 1056 2328 
Q 1056 1369 1301 889 
Q 1547 409 2034 409 
Q 2525 409 2770 889 
Q 3016 1369 3016 2328 
Q 3016 3291 2770 3770 
Q 2525 4250 2034 4250 
z
M 2034 4750 
Q 2819 4750 3233 4129 
Q 3647 3509 3647 2328 
Q 3647 1150 3233 529 
Q 2819 -91 2034 -91 
Q 1250 -91 836 529 
Q 422 1150 422 2328 
Q 422 3509 836 4129 
Q 1250 4750 2034 4750 
z
" transform="scale(0.015625)"/>
       </defs>
       <use xlink:href="#DejaVuSans-2212"/>
       <use xlink:href="#DejaVuSans-31" transform="translate(83.789062 0)"/>
       <use xlink:href="#DejaVuSans-2e" transform="translate(147.412109 0)"/>
       <use xlink:href="#DejaVuSans-30" transform="translate(179.199219 0)"/>
       <use xlink:href="#DejaVuSans-30" transform="translate(242.822266 0)"/>
      </g>
     </g>
    </g>
    <g id="xtick_2">
     <g id="line2d_3">
      <path d="M 114.898251 307.584 
L 114.898251 41.472 
" clip-path="url(#p2a082b66bc)" style="fill: none; stroke: #b0b0b0; stroke-opacity: 0.5; stroke-width: 0.8; stroke-linecap: square"/>
     </g>
     <g id="line2d_4">
      <g>
       <use xlink:href="#ma169e9413d" x="114.898251" y="307.584" style="stroke: #000000; stroke-width: 0.8"/>
      </g>
     </g>
     <g id="text_2">
      <!-- −0.75 -->
      <g transform="translate(99.575595 322.182437) scale(0.1 -0.1)">
       <defs>
        <path id="DejaVuSans-37" d="M 525 4666 
L 3525 4666 
L 3525 4397 
L 1831 0 
L 1172 0 
L 2766 4134 
L 525 4134 
L 525 4666 
z
" transform="scale(0.015625)"/>
        <path id="DejaVuSans-35" d="M 691 4666 
L 3169 4666 
L 3169 4134 
L 1269 4134 
L 1269 2991 
Q 1406 3038 1543 3061 
Q 1681 3084 1819 3084 
Q 2600 3084 3056 2656 
Q 3513 2228 3513 1497 
Q 3513 744 3044 326 
Q 2575 -91 1722 -91 
Q 1428 -91 1123 -41 
Q 819 9 494 109 
L 494 744 
Q 775 591 1075 516 
Q 1375 441 1709 441 
Q 2250 441 2565 725 
Q 2881 1009 2881 1497 
Q 2881 1984 2565 2268 
Q 2250 2553 1709 2553 
Q 1456 2553 1204 2497 
Q 953 2441 691 2322 
L 691 4666 
z
" transform="scale(0.015625)"/>
       </defs>
       <use xlink:href="#DejaVuSans-2212"/>
       <use xlink:href="#DejaVuSans-30" transform="translate(83.789062 0)"/>
       <use xlink:href="#DejaVuSans-2e" transform="translate(147.412109 0)"/>
       <use xlink:href="#DejaVuSans-37" transform="translate(179.199219 0)"/>
       <use xlink:href="#DejaVuSans-35" transform="translate(242.822266 0)"/>
      </g>
     </g>
    </g>
    <g id="xtick_3">
     <g id="line2d_5">
      <path d="M 155.216357 307.584 
L 155.216357 41.472 
" clip-path="url(#p2a082b66bc)" style="fill: none; stroke: #b0b0b0; stroke-opacity: 0.5; stroke-width: 0.8; stroke-linecap: square"/>
     </g>
     <g id="line2d_6">
      <g>
       <use xlink:href="#ma169e9413d" x="155.216357" y="307.584" style="stroke: #000000; stroke-width: 0.8"/>
      </g>
     </g>
     <g id="text_3">
      <!-- −0.50 -->
      <g transform="translate(139.893701 322.182437) scale(0.1 -0.1)">
       <use xlink:href="#DejaVuSans-2212"/>
       <use xlink:href="#DejaVuSans-30" transform="translate(83.789062 0)"/>
       <use xlink:href="#DejaVuSans-2e" transform="translate(147.412109 0)"/>
       <use xlink:href="#DejaVuSans-35" transform="translate(179.199219 0)"/>
       <use xlink:href="#DejaVuSans-30" transform="translate(242.822266 0)"/>
      </g>
     </g>
    </g>
    <g id="xtick_4">
     <g id="line2d_7">
      <path d="M 195.534464 307.584 
L 195.534464 41.472 
" clip-path="url(#p2a082b66bc)" style="fill: none; stroke: #b0b0b0; stroke-opacity: 0.5; stroke-width: 0.8; stroke-linecap: square"/>
     </g>
     <g id="line2d_8">
      <g>
       <use xlink:href="#ma169e9413d" x="195.534464" y="307.584" style="stroke: #000000; stroke-width: 0.8"/>
      </g>
     </g>
     <g id="text_4">
      <!-- −0.25 -->
      <g transform="translate(180.211808 322.182437) scale(0.1 -0.1)">
       <defs>
        <path id="DejaVuSans-32" d="M 1228 531 
L 3431 531 
L 3431 0 
L 469 0 
L 469 531 
Q 828 903 1448 1529 
Q 2069 2156 2228 2338 
Q 2531 2678 2651 2914 
Q 2772 3150 2772 3378 
Q 2772 3750 2511 3984 
Q 2250 4219 1831 4219 
Q 1534 4219 1204 4116 
Q 875 4013 500 3803 
L 500 4441 
Q 881 4594 1212 4672 
Q 1544 4750 1819 4750 
Q 2544 4750 2975 4387 
Q 3406 4025 3406 3419 
Q 3406 3131 3298 2873 
Q 3191 2616 2906 2266 
Q 2828 2175 2409 1742 
Q 1991 1309 1228 531 
z
" transform="scale(0.015625)"/>
       </defs>
       <use xlink:href="#DejaVuSans-2212"/>
       <use xlink:href="#DejaVuSans-30" transform="translate(83.789062 0)"/>
       <use xlink:href="#DejaVuSans-2e" transform="translate(147.412109 0)"/>
       <use xlink:href="#DejaVuSans-32" transform="translate(179.199219 0)"/>
       <use xlink:href="#DejaVuSans-35" transform="translate(242.822266 0)"/>
      </g>
     </g>
    </g>
    <g id="xtick_5">
     <g id="line2d_9">
      <path d="M 235.85257 307.584 
L 235.85257 41.472 
" clip-path="url(#p2a082b66bc)" style="fill: none; stroke: #b0b0b0; stroke-opacity: 0.5; stroke-width: 0.8; stroke-linecap: square"/>
     </g>
     <g id="line2d_10">
      <g>
       <use xlink:href="#ma169e9413d" x="235.85257" y="307.584" style="stroke: #000000; stroke-width: 0.8"/>
      </g>
     </g>
     <g id="text_5">
      <!-- 0.00 -->
      <g transform="translate(224.719758 322.182437) scale(0.1 -0.1)">
       <use xlink:href="#DejaVuSans-30"/>
       <use xlink:href="#DejaVuSans-2e" transform="translate(63.623047 0)"/>
       <use xlink:href="#DejaVuSans-30" transform="translate(95.410156 0)"/>
       <use xlink:href="#DejaVuSans-30" transform="translate(159.033203 0)"/>
      </g>
     </g>
    </g>
    <g id="xtick_6">
     <g id="line2d_11">
      <path d="M 276.170677 307.584 
L 276.170677 41.472 
" clip-path="url(#p2a082b66bc)" style="fill: none; stroke: #b0b0b0; stroke-opacity: 0.5; stroke-width: 0.8; stroke-linecap: square"/>
     </g>
     <g id="line2d_12">
      <g>
       <use xlink:href="#ma169e9413d" x="276.170677" y="307.584" style="stroke: #000000; stroke-width: 0.8"/>
      </g>
     </g>
     <g id="text_6">
      <!-- 0.25 -->
      <g transform="translate(265.037864 322.182437) scale(0.1 -0.1)">
       <use xlink:href="#DejaVuSans-30"/>
       <use xlink:href="#DejaVuSans-2e" transform="translate(63.623047 0)"/>
       <use xlink:href="#DejaVuSans-32" transform="translate(95.410156 0)"/>
       <use xlink:href="#DejaVuSans-35" transform="translate(159.033203 0)"/>
      </g>
     </g>
    </g>
    <g id="xtick_7">
     <g id="line2d_13">
      <path d="M 316.488783 307.584 
L 316.488783 41.472 
" clip-path="url(#p2a082b66bc)" style="fill: none; stroke: #b0b0b0; stroke-opacity: 0.5; stroke-width: 0.8; stroke-linecap: square"/>
     </g>
     <g id="line2d_14">
      <g>
       <use xlink:href="#ma169e9413d" x="316.488783" y="307.584" style="stroke: #000000; stroke-width: 0.8"/>
      </g>
     </g>
     <g id="text_7">
      <!-- 0.50 -->
      <g transform="translate(305.355971 322.182437) scale(0.1 -0.1)">
       <use xlink:href="#DejaVuSans-30"/>
       <use xlink:href="#DejaVuSans-2e" transform="translate(63.623047 0)"/>
       <use xlink:href="#DejaVuSans-35" transform="translate(95.410156 0)"/>
       <use xlink:href="#DejaVuSans-30" transform="translate(159.033203 0)"/>
      </g>
     </g>
    </g>
    <g id="xtick_8">
     <g id="line2d_15">
      <path d="M 356.80689 307.584 
L 356.80689 41.472 
" clip-path="url(#p2a082b66bc)" style="fill: none; stroke: #b0b0b0; stroke-opacity: 0.5; stroke-width: 0.8; stroke-linecap: square"/>
     </g>
     <g id="line2d_16">
      <g>
       <use xlink:href="#ma169e9413d" x="356.80689" y="307.584" style="stroke: #000000; stroke-width: 0.8"/>
      </g>
     </g>
     <g id="text_8">
      <!-- 0.75 -->
      <g transform="translate(345.674077 322.182437) scale(0.1 -0.1)">
       <use xlink:href="#DejaVuSans-30"/>
       <use xlink:href="#DejaVuSans-2e" transform="translate(63.623047 0)"/>
       <use xlink:href="#DejaVuSans-37" transform="translate(95.410156 0)"/>
       <use xlink:href="#DejaVuSans-35" transform="translate(159.033203 0)"/>
      </g>
     </g>
    </g>
    <g id="xtick_9">
     <g id="line2d_17">
      <path d="M 397.124996 307.584 
L 397.124996 41.472 
" clip-path="url(#p2a082b66bc)" style="fill: none; stroke: #b0b0b0; stroke-opacity: 0.5; stroke-width: 0.8; stroke-linecap: square"/>
     </g>
     <g id="line2d_18">
      <g>
       <use xlink:href="#ma169e9413d" x="397.124996" y="307.584" style="stroke: #000000; stroke-width: 0.8"/>
      </g>
     </g>
     <g id="text_9">
      <!-- 1.00 -->
      <g transform="translate(385.992184 322.182437) scale(0.1 -0.1)">
       <use xlink:href="#DejaVuSans-31"/>
       <use xlink:href="#DejaVuSans-2e" transform="translate(63.623047 0)"/>
       <use xlink:href="#DejaVuSans-30" transform="translate(95.410156 0)"/>
       <use xlink:href="#DejaVuSans-30" transform="translate(159.033203 0)"/>
      </g>
     </g>
    </g>
    <g id="text_10">
     <!-- Index -->
     <g transform="translate(222.393594 335.860562) scale(0.1 -0.1)">
      <defs>
       <path id="DejaVuSans-49" d="M 628 4666 
L 1259 4666 
L 1259 0 
L 628 0 
L 628 4666 
z
" transform="scale(0.015625)"/>
       <path id="DejaVuSans-6e" d="M 3513 2113 
L 3513 0 
L 2938 0 
L 2938 2094 
Q 2938 2591 2744 2837 
Q 2550 3084 2163 3084 
Q 1697 3084 1428 2787 
Q 1159 2491 1159 1978 
L 1159 0 
L 581 0 
L 581 3500 
L 1159 3500 
L 1159 2956 
Q 1366 3272 1645 3428 
Q 1925 3584 2291 3584 
Q 2894 3584 3203 3211 
Q 3513 2838 3513 2113 
z
" transform="scale(0.015625)"/>
       <path id="DejaVuSans-64" d="M 2906 2969 
L 2906 4863 
L 3481 4863 
L 3481 0 
L 2906 0 
L 2906 525 
Q 2725 213 2448 61 
Q 2172 -91 1784 -91 
Q 1150 -91 751 415 
Q 353 922 353 1747 
Q 353 2572 751 3078 
Q 1150 3584 1784 3584 
Q 2172 3584 2448 3432 
Q 2725 3281 2906 2969 
z
M 947 1747 
Q 947 1113 1208 752 
Q 1469 391 1925 391 
Q 2381 391 2643 752 
Q 2906 1113 2906 1747 
Q 2906 2381 2643 2742 
Q 2381 3103 1925 3103 
Q 1469 3103 1208 2742 
Q 947 2381 947 1747 
z
" transform="scale(0.015625)"/>
       <path id="DejaVuSans-65" d="M 3597 1894 
L 3597 1613 
L 953 1613 
Q 991 1019 1311 708 
Q 1631 397 2203 397 
Q 2534 397 2845 478 
Q 3156 559 3463 722 
L 3463 178 
Q 3153 47 2828 -22 
Q 2503 -91 2169 -91 
Q 1331 -91 842 396 
Q 353 884 353 1716 
Q 353 2575 817 3079 
Q 1281 3584 2069 3584 
Q 2775 3584 3186 3129 
Q 3597 2675 3597 1894 
z
M 3022 2063 
Q 3016 2534 2758 2815 
Q 2500 3097 2075 3097 
Q 1594 3097 1305 2825 
Q 1016 2553 972 2059 
L 3022 2063 
z
" transform="scale(0.015625)"/>
       <path id="DejaVuSans-78" d="M 3513 3500 
L 2247 1797 
L 3578 0 
L 2900 0 
L 1881 1375 
L 863 0 
L 184 0 
L 1544 1831 
L 300 3500 
L 978 3500 
L 1906 2253 
L 2834 3500 
L 3513 3500 
z
" transform="scale(0.015625)"/>
      </defs>
      <use xlink:href="#DejaVuSans-49"/>
      <use xlink:href="#DejaVuSans-6e" transform="translate(29.492188 0)"/>
      <use xlink:href="#DejaVuSans-64" transform="translate(92.871094 0)"/>
      <use xlink:href="#DejaVuSans-65" transform="translate(156.347656 0)"/>
      <use xlink:href="#DejaVuSans-78" transform="translate(216.121094 0)"/>
     </g>
    </g>
   </g>
   <g id="matplotlib.axis_2">
    <g id="ytick_1">
     <g id="line2d_19">
      <path d="M 57.6 295.50573 
L 414.72 295.50573 
" clip-path="url(#p2a082b66bc)" style="fill: none; stroke: #b0b0b0; stroke-opacity: 0.5; stroke-width: 0.8; stroke-linecap: square"/>
     </g>
     <g id="line2d_20">
      <defs>
       <path id="mfd5a727541" d="M 0 0 
L -3.5 0 
" style="stroke: #000000; stroke-width: 0.8"/>
      </defs>
      <g>
       <use xlink:href="#mfd5a727541" x="57.6" y="295.50573" style="stroke: #000000; stroke-width: 0.8"/>
      </g>
     </g>
     <g id="text_11">
      <!-- −1.00 -->
      <g transform="translate(19.954687 299.304949) scale(0.1 -0.1)">
       <use xlink:href="#DejaVuSans-2212"/>
       <use xlink:href="#DejaVuSans-31" transform="translate(83.789062 0)"/>
       <use xlink:href="#DejaVuSans-2e" transform="translate(147.412109 0)"/>
       <use xlink:href="#DejaVuSans-30" transform="translate(179.199219 0)"/>
       <use xlink:href="#DejaVuSans-30" transform="translate(242.822266 0)"/>
      </g>
     </g>
    </g>
    <g id="ytick_2">
     <g id="line2d_21">
      <path d="M 57.6 265.263499 
L 414.72 265.263499 
" clip-path="url(#p2a082b66bc)" style="fill: none; stroke: #b0b0b0; stroke-opacity: 0.5; stroke-width: 0.8; stroke-linecap: square"/>
     </g>
     <g id="line2d_22">
      <g>
       <use xlink:href="#mfd5a727541" x="57.6" y="265.263499" style="stroke: #000000; stroke-width: 0.8"/>
      </g>
     </g>
     <g id="text_12">
      <!-- −0.75 -->
      <g transform="translate(19.954687 269.062717) scale(0.1 -0.1)">
       <use xlink:href="#DejaVuSans-2212"/>
       <use xlink:href="#DejaVuSans-30" transform="translate(83.789062 0)"/>
       <use xlink:href="#DejaVuSans-2e" transform="translate(147.412109 0)"/>
       <use xlink:href="#DejaVuSans-37" transform="translate(179.199219 0)"/>
       <use xlink:href="#DejaVuSans-35" transform="translate(242.822266 0)"/>
      </g>
     </g>
    </g>
    <g id="ytick_3">
     <g id="line2d_23">
      <path d="M 57.6 235.021267 
L 414.72 235.021267 
" clip-path="url(#p2a082b66bc)" style="fill: none; stroke: #b0b0b0; stroke-opacity: 0.5; stroke-width: 0.8; stroke-linecap: square"/>
     </g>
     <g id="line2d_24">
      <g>
       <use xlink:href="#mfd5a727541" x="57.6" y="235.021267" style="stroke: #000000; stroke-width: 0.8"/>
      </g>
     </g>
     <g id="text_13">
      <!-- −0.50 -->
      <g transform="translate(19.954687 238.820486) scale(0.1 -0.1)">
       <use xlink:href="#DejaVuSans-2212"/>
       <use xlink:href="#DejaVuSans-30" transform="translate(83.789062 0)"/>
       <use xlink:href="#DejaVuSans-2e" transform="translate(147.412109 0)"/>
       <use xlink:href="#DejaVuSans-35" transform="translate(179.199219 0)"/>
       <use xlink:href="#DejaVuSans-30" transform="translate(242.822266 0)"/>
      </g>
     </g>
    </g>
    <g id="ytick_4">
     <g id="line2d_25">
      <path d="M 57.6 204.779035 
L 414.72 204.779035 
" clip-path="url(#p2a082b66bc)" style="fill: none; stroke: #b0b0b0; stroke-opacity: 0.5; stroke-width: 0.8; stroke-linecap: square"/>
     </g>
     <g id="line2d_26">
      <g>
       <use xlink:href="#mfd5a727541" x="57.6" y="204.779035" style="stroke: #000000; stroke-width: 0.8"/>
      </g>
     </g>
     <g id="text_14">
      <!-- −0.25 -->
      <g transform="translate(19.954687 208.578254) scale(0.1 -0.1)">
       <use xlink:href="#DejaVuSans-2212"/>
       <use xlink:href="#DejaVuSans-30" transform="translate(83.789062 0)"/>
       <use xlink:href="#DejaVuSans-2e" transform="translate(147.412109 0)"/>
       <use xlink:href="#DejaVuSans-32" transform="translate(179.199219 0)"/>
       <use xlink:href="#DejaVuSans-35" transform="translate(242.822266 0)"/>
      </g>
     </g>
    </g>
    <g id="ytick_5">
     <g id="line2d_27">
      <path d="M 57.6 174.536804 
L 414.72 174.536804 
" clip-path="url(#p2a082b66bc)" style="fill: none; stroke: #b0b0b0; stroke-opacity: 0.5; stroke-width: 0.8; stroke-linecap: square"/>
     </g>
     <g id="line2d_28">
      <g>
       <use xlink:href="#mfd5a727541" x="57.6" y="174.536804" style="stroke: #000000; stroke-width: 0.8"/>
      </g>
     </g>
     <g id="text_15">
      <!-- 0.00 -->
      <g transform="translate(28.334375 178.336023) scale(0.1 -0.1)">
       <use xlink:href="#DejaVuSans-30"/>
       <use xlink:href="#DejaVuSans-2e" transform="translate(63.623047 0)"/>
       <use xlink:href="#DejaVuSans-30" transform="translate(95.410156 0)"/>
       <use xlink:href="#DejaVuSans-30" transform="translate(159.033203 0)"/>
      </g>
     </g>
    </g>
    <g id="ytick_6">
     <g id="line2d_29">
      <path d="M 57.6 144.294572 
L 414.72 144.294572 
" clip-path="url(#p2a082b66bc)" style="fill: none; stroke: #b0b0b0; stroke-opacity: 0.5; stroke-width: 0.8; stroke-linecap: square"/>
     </g>
     <g id="line2d_30">
      <g>
       <use xlink:href="#mfd5a727541" x="57.6" y="144.294572" style="stroke: #000000; stroke-width: 0.8"/>
      </g>
     </g>
     <g id="text_16">
      <!-- 0.25 -->
      <g transform="translate(28.334375 148.093791) scale(0.1 -0.1)">
       <use xlink:href="#DejaVuSans-30"/>
       <use xlink:href="#DejaVuSans-2e" transform="translate(63.623047 0)"/>
       <use xlink:href="#DejaVuSans-32" transform="translate(95.410156 0)"/>
       <use xlink:href="#DejaVuSans-35" transform="translate(159.033203 0)"/>
      </g>
     </g>
    </g>
    <g id="ytick_7">
     <g id="line2d_31">
      <path d="M 57.6 114.052341 
L 414.72 114.052341 
" clip-path="url(#p2a082b66bc)" style="fill: none; stroke: #b0b0b0; stroke-opacity: 0.5; stroke-width: 0.8; stroke-linecap: square"/>
     </g>
     <g id="line2d_32">
      <g>
       <use xlink:href="#mfd5a727541" x="57.6" y="114.052341" style="stroke: #000000; stroke-width: 0.8"/>
      </g>
     </g>
     <g id="text_17">
      <!-- 0.50 -->
      <g transform="translate(28.334375 117.851559) scale(0.1 -0.1)">
       <use xlink:href="#DejaVuSans-30"/>
       <use xlink:href="#DejaVuSans-2e" transform="translate(63.623047 0)"/>
       <use xlink:href="#DejaVuSans-35" transform="translate(95.410156 0)"/>
       <use xlink:href="#DejaVuSans-30" transform="translate(159.033203 0)"/>
      </g>
     </g>
    </g>
    <g id="ytick_8">
     <g id="line2d_33">
      <path d="M 57.6 83.810109 
L 414.72 83.810109 
" clip-path="url(#p2a082b66bc)" style="fill: none; stroke: #b0b0b0; stroke-opacity: 0.5; stroke-width: 0.8; stroke-linecap: square"/>
     </g>
     <g id="line2d_34">
      <g>
       <use xlink:href="#mfd5a727541" x="57.6" y="83.810109" style="stroke: #000000; stroke-width: 0.8"/>
      </g>
     </g>
     <g id="text_18">
      <!-- 0.75 -->
      <g transform="translate(28.334375 87.609328) scale(0.1 -0.1)">
       <use xlink:href="#DejaVuSans-30"/>
       <use xlink:href="#DejaVuSans-2e" transform="translate(63.623047 0)"/>
       <use xlink:href="#DejaVuSans-37" transform="translate(95.410156 0)"/>
       <use xlink:href="#DejaVuSans-35" transform="translate(159.033203 0)"/>
      </g>
     </g>
    </g>
    <g id="ytick_9">
     <g id="line2d_35">
      <path d="M 57.6 53.567877 
L 414.72 53.567877 
" clip-path="url(#p2a082b66bc)" style="fill: none; stroke: #b0b0b0; stroke-opacity: 0.5; stroke-width: 0.8; stroke-linecap: square"/>
     </g>
     <g id="line2d_36">
      <g>
       <use xlink:href="#mfd5a727541" x="57.6" y="53.567877" style="stroke: #000000; stroke-width: 0.8"/>
      </g>
     </g>
     <g id="text_19">
      <!-- 1.00 -->
      <g transform="translate(28.334375 57.367096) scale(0.1 -0.1)">
       <use xlink:href="#DejaVuSans-31"/>
       <use xlink:href="#DejaVuSans-2e" transform="translate(63.623047 0)"/>
       <use xlink:href="#DejaVuSans-30" transform="translate(95.410156 0)"/>
       <use xlink:href="#DejaVuSans-30" transform="translate(159.033203 0)"/>
      </g>
     </g>
    </g>
    <g id="text_20">
     <!-- Value -->
     <g transform="translate(13.875 188.25925) rotate(-90) scale(0.1 -0.1)">
      <defs>
       <path id="DejaVuSans-56" d="M 1831 0 
L 50 4666 
L 709 4666 
L 2188 738 
L 3669 4666 
L 4325 4666 
L 2547 0 
L 1831 0 
z
" transform="scale(0.015625)"/>
       <path id="DejaVuSans-61" d="M 2194 1759 
Q 1497 1759 1228 1600 
Q 959 1441 959 1056 
Q 959 750 1161 570 
Q 1363 391 1709 391 
Q 2188 391 2477 730 
Q 2766 1069 2766 1631 
L 2766 1759 
L 2194 1759 
z
M 3341 1997 
L 3341 0 
L 2766 0 
L 2766 531 
Q 2569 213 2275 61 
Q 1981 -91 1556 -91 
Q 1019 -91 701 211 
Q 384 513 384 1019 
Q 384 1609 779 1909 
Q 1175 2209 1959 2209 
L 2766 2209 
L 2766 2266 
Q 2766 2663 2505 2880 
Q 2244 3097 1772 3097 
Q 1472 3097 1187 3025 
Q 903 2953 641 2809 
L 641 3341 
Q 956 3463 1253 3523 
Q 1550 3584 1831 3584 
Q 2591 3584 2966 3190 
Q 3341 2797 3341 1997 
z
" transform="scale(0.015625)"/>
       <path id="DejaVuSans-6c" d="M 603 4863 
L 1178 4863 
L 1178 0 
L 603 0 
L 603 4863 
z
" transform="scale(0.015625)"/>
       <path id="DejaVuSans-75" d="M 544 1381 
L 544 3500 
L 1119 3500 
L 1119 1403 
Q 1119 906 1312 657 
Q 1506 409 1894 409 
Q 2359 409 2629 706 
Q 2900 1003 2900 1516 
L 2900 3500 
L 3475 3500 
L 3475 0 
L 2900 0 
L 2900 538 
Q 2691 219 2414 64 
Q 2138 -91 1772 -91 
Q 1169 -91 856 284 
Q 544 659 544 1381 
z
M 1991 3584 
L 1991 3584 
z
" transform="scale(0.015625)"/>
      </defs>
      <use xlink:href="#DejaVuSans-56"/>
      <use xlink:href="#DejaVuSans-61" transform="translate(60.658203 0)"/>
      <use xlink:href="#DejaVuSans-6c" transform="translate(121.9375 0)"/>
      <use xlink:href="#DejaVuSans-75" transform="translate(149.720703 0)"/>
      <use xlink:href="#DejaVuSans-65" transform="translate(213.099609 0)"/>
     </g>
    </g>
   </g>
   <g id="line2d_37">
    <path d="M 214.65394 177.029613 
L 254.54805 176.555445 
L 240.698001 176.081934 
L 246.114428 171.331427 
L 248.518877 169.438286 
L 250.732872 167.545937 
L 263.28799 158.616609 
L 265.213305 157.216735 
L 268.708028 154.879464 
L 271.774356 152.538958 
L 274.42109 150.674265 
L 276.612303 148.798341 
L 278.386099 147.400819 
L 280.882747 145.533033 
L 284.249421 142.735732 
L 286.753168 140.87429 
L 290.71436 137.626474 
L 293.145503 135.772051 
L 295.973843 133.463886 
L 299.165029 131.161465 
L 301.959283 128.863402 
L 305.166844 126.570902 
L 307.914275 124.279794 
L 311.698534 121.537457 
L 313.858328 119.710783 
L 317.789097 116.52172 
L 319.25418 115.159873 
L 323.1884 111.986414 
L 324.620454 110.63058 
L 329.000294 107.02125 
L 330.507548 105.677234 
L 333.457016 103.434741 
L 335.751367 101.192501 
L 339.131104 98.508657 
L 340.922476 96.722786 
L 344.355035 94.04797 
L 346.081465 92.263902 
L 349.972188 89.149322 
L 351.251815 87.815789 
L 352.451581 86.93518 
L 354.346164 85.602289 
L 355.273452 84.705493 
L 356.551157 83.374549 
L 357.761525 82.497847 
L 359.718186 81.170213 
L 360.650982 80.274584 
L 361.84176 78.946012 
L 363.03127 78.073803 
L 365.05965 76.753465 
L 365.999386 75.860447 
L 367.08706 74.536699 
L 368.251615 73.671195 
L 370.383927 72.36062 
L 371.347963 71.470053 
L 372.229188 70.149514 
L 373.305028 69.290239 
L 375.49316 67.988959 
L 376.430186 67.099769 
L 377.134394 65.781472 
L 377.559309 65.353626 
L 378.968879 64.503214 
L 380.569855 63.635395 
L 381.15482 63.191601 
L 381.508428 62.744612 
L 381.900775 61.429603 
L 382.290739 61.007244 
L 382.978019 60.588996 
L 385.812829 59.30241 
L 386.424708 58.854102 
L 386.666128 58.401482 
L 386.577875 57.952546 
L 386.349192 57.514873 
L 386.299293 57.092111 
L 386.717306 56.681816 
L 387.717909 56.275421 
L 390.539587 55.429637 
L 391.35781 54.980673 
L 390.953255 54.5293 
L 388.514869 54.108881 
L 383.517478 53.769312 
L 376.097206 53.568 
L 377.305287 53.805284 
L 380.692108 54.295564 
L 383.390842 55.017128 
L 381.451454 56.89519 
L 382.194555 57.866441 
L 385.745406 58.732276 
L 392.165979 59.422959 
L 397.73728 59.907124 
L 398.487273 60.197628 
L 393.438147 60.347934 
L 377.322551 60.562325 
L 372.306079 60.796033 
L 371.635937 61.191078 
L 372.927638 61.759496 
L 373.3087 62.473879 
L 372.969607 63.275904 
L 373.506864 64.091375 
L 375.679087 64.848544 
L 381.820395 66.005943 
L 381.586886 66.393065 
L 378.066892 66.69416 
L 368.058114 67.262989 
L 365.427822 67.636173 
L 364.735985 68.110157 
L 364.823113 69.338693 
L 365.014135 70.031394 
L 365.727225 70.71907 
L 368.171254 71.937137 
L 368.491391 72.435175 
L 367.39894 72.867685 
L 358.501858 74.485369 
L 357.69392 74.98239 
L 357.322586 75.530654 
L 357.184645 76.117199 
L 357.237514 76.722093 
L 357.899822 78.446273 
L 357.62917 78.951492 
L 356.82352 79.4227 
L 354.060334 80.312388 
L 351.432974 81.231219 
L 350.563487 81.728529 
L 349.974024 82.254045 
L 349.597354 82.80218 
L 349.289367 83.923325 
L 349.094309 85.001562 
L 348.732702 85.507481 
L 348.064839 85.992223 
L 345.976649 86.92828 
L 343.849855 87.883855 
L 343.055932 88.386118 
L 342.463605 88.905779 
L 341.752196 89.975984 
L 341.277392 91.036065 
L 340.911749 91.547565 
L 340.355526 92.045206 
L 338.715311 93.01425 
L 336.042013 94.486573 
L 334.705902 95.511916 
L 332.584385 97.571036 
L 331.130116 98.566477 
L 327.149083 101.052664 
L 321.105314 105.582346 
L 317.487416 108.078447 
L 312.074674 112.062353 
L 309.122385 114.04557 
L 303.798594 117.994286 
L 301.521041 119.46689 
L 299.632893 120.959684 
L 297.793506 122.434077 
L 294.794192 124.37064 
L 292.68557 125.843606 
L 288.826689 128.788541 
L 283.221359 132.695675 
L 280.034186 135.151935 
L 276.905285 137.58712 
L 274.383683 139.55008 
L 270.925507 142.48092 
L 267.066669 145.399084 
L 264.271223 147.82883 
L 259.85126 151.205748 
L 256.956459 153.617768 
L 252.673187 156.982097 
L 245.492398 162.739457 
L 241.894133 165.614117 
L 238.937734 167.994688 
L 235.90531 170.377405 
L 232.401859 173.22375 
L 228.183558 176.541089 
L 220.859522 182.191056 
L 216.036186 185.94254 
L 206.236194 193.404418 
L 203.319142 195.741455 
L 200.855412 197.598976 
L 197.815713 199.931461 
L 194.816687 202.257035 
L 191.223344 205.049393 
L 187.541205 207.830374 
L 178.149468 215.216327 
L 167.870894 223.912364 
L 165.682968 225.728973 
L 163.462922 227.553347 
L 160.340658 230.276739 
L 158.104343 232.09205 
L 155.014416 234.804139 
L 152.278732 237.062354 
L 149.715055 239.3082 
L 146.970326 241.555747 
L 144.448281 243.791455 
L 141.681318 246.02823 
L 139.200002 248.254882 
L 136.388205 250.483921 
L 133.970101 252.706044 
L 130.635361 255.374176 
L 128.778709 257.147466 
L 125.484418 259.81055 
L 123.669793 261.581316 
L 119.921019 264.682932 
L 118.592291 266.004567 
L 114.793387 269.097711 
L 113.54924 270.415957 
L 111.777861 271.723208 
L 110.594908 272.605613 
L 109.706647 273.492712 
L 108.541025 274.80475 
L 107.40598 275.66861 
L 105.502583 276.981463 
L 104.62033 277.867322 
L 103.583113 279.174385 
L 102.454316 280.030826 
L 100.418928 281.335784 
L 99.537868 282.22103 
L 98.677714 283.52319 
L 97.542381 284.371195 
L 95.295958 285.670118 
L 94.768612 286.113984 
L 94.434728 286.55837 
L 93.888859 287.855606 
L 93.422715 288.273998 
L 91.782385 289.114108 
L 90.042777 289.988192 
L 89.5127 290.437185 
L 89.312085 290.886193 
L 89.455198 292.169282 
L 88.878231 292.575309 
L 85.241415 293.846515 
L 84.739773 294.298147 
L 85.724774 294.736203 
L 89.534963 295.11832 
L 97.420542 295.388772 
L 106.637618 295.488 
L 107.68141 295.365418 
L 101.431326 294.992781 
L 95.142811 294.374259 
L 94.06623 293.550748 
L 95.162276 292.596024 
L 93.887407 291.60519 
L 89.16831 290.677296 
L 73.832727 288.934773 
L 78.925033 288.72801 
L 104.95876 288.352245 
L 106.967002 288.035453 
L 105.054944 287.54381 
L 103.449575 286.886893 
L 103.362514 286.110905 
L 102.364247 285.285981 
L 99.079799 284.488579 
L 90.494164 283.208734 
L 89.608307 282.769821 
L 92.760389 282.439466 
L 105.148993 281.892168 
L 109.511396 281.559722 
L 111.159609 281.132403 
L 111.204307 280.598097 
L 110.941249 279.970526 
L 110.399638 279.283795 
L 109.023346 278.582542 
L 104.662231 277.30114 
L 103.54101 276.76956 
L 104.193868 276.312289 
L 106.597966 275.909305 
L 113.231467 275.143382 
L 115.610995 274.72088 
L 116.943771 274.246506 
L 117.507626 273.716938 
L 117.587775 273.141224 
L 117.278538 272.537483 
L 116.628209 271.928046 
L 115.186599 270.771959 
L 115.080371 270.248974 
L 115.703132 269.764066 
L 117.028342 269.308187 
L 122.286926 267.965158 
L 123.503188 267.480042 
L 124.291698 266.965096 
L 124.712432 266.423356 
L 124.823476 265.863548 
L 124.697647 265.297877 
L 124.275434 264.198053 
L 124.375607 263.68054 
L 124.905933 263.186994 
L 125.888733 262.712253 
L 130.972849 260.807073 
L 131.69636 260.291911 
L 132.119188 259.760424 
L 132.296781 259.219687 
L 132.341037 258.145574 
L 132.502596 257.626317 
L 132.940805 257.122633 
L 133.69049 256.632318 
L 138.704069 254.178231 
L 139.775123 253.13968 
L 140.55429 252.099124 
L 141.0493 251.587697 
L 142.486795 250.586055 
L 146.785889 248.097258 
L 149.258996 246.060922 
L 151.291846 244.54817 
L 158.521092 239.534719 
L 161.107142 237.5368 
L 166.344059 234.054916 
L 168.691352 232.064131 
L 171.122769 230.601945 
L 172.757298 229.617706 
L 174.074986 228.619583 
L 176.331392 226.634974 
L 177.835175 225.663867 
L 181.023093 223.712202 
L 182.861351 222.224917 
L 184.765301 220.748963 
L 191.176882 216.341708 
L 193.854237 214.368885 
L 196.855579 211.918248 
L 200.225163 209.464608 
L 204.245062 206.034174 
L 207.064981 204.086811 
L 208.627353 202.608941 
L 209.685817 201.634185 
L 211.710381 200.189711 
L 213.748223 198.73805 
L 218.469644 194.863525 
L 220.945281 192.931806 
L 223.312779 191.00215 
L 226.400476 188.590798 
L 228.736508 186.669414 
L 232.504031 183.785804 
L 234.729532 181.86773 
L 239.124569 178.522167 
L 240.754292 177.088924 
L 240.754292 177.088924 
" clip-path="url(#p2a082b66bc)" style="fill: none; stroke: #1f77b4; stroke-width: 1.5; stroke-linecap: square"/>
   </g>
   <g id="line2d_38">
    <path d="M 236.031835 177.029613 
L 239.779981 174.180022 
L 242.933537 171.80344 
L 245.408312 169.912761 
L 248.463353 167.545937 
L 251.634408 165.193857 
L 254.624197 162.836665 
L 258.431991 160.028928 
L 261.47455 157.68201 
L 264.662415 155.349542 
L 268.341305 152.538958 
L 271.43327 150.205193 
L 274.55279 147.865947 
L 277.63229 145.533033 
L 280.698969 143.199312 
L 283.757501 140.87429 
L 286.156774 139.010983 
L 289.851193 136.236964 
L 292.198111 134.382541 
L 296.503184 131.161465 
L 298.911796 129.32011 
L 302.014363 127.031767 
L 304.969205 124.734855 
L 308.059598 122.456328 
L 311.008086 120.164902 
L 314.09958 117.893907 
L 316.994876 115.611981 
L 320.085582 113.352292 
L 322.912134 111.080561 
L 326.560101 108.3803 
L 328.811522 106.571255 
L 332.496651 103.886308 
L 334.728232 102.083515 
L 338.943101 98.95923 
L 341.224292 97.165961 
L 344.306597 94.946714 
L 347.083807 92.706298 
L 350.220413 90.49421 
L 353.604793 87.815789 
L 356.072315 86.049134 
L 358.784141 83.815185 
L 362.476595 81.170213 
L 364.550308 79.385344 
L 368.251634 76.753465 
L 370.295885 74.973809 
L 374.510639 71.916061 
L 376.002906 70.584887 
L 378.03864 69.290239 
L 379.330168 68.427569 
L 380.296319 67.545539 
L 381.688933 66.215165 
L 383.035772 65.353626 
L 385.144091 64.072765 
L 386.056046 63.191601 
L 386.79758 62.299231 
L 387.94564 61.429603 
L 391.062983 59.741013 
L 391.527857 59.30241 
L 391.985973 58.401482 
L 392.221443 57.952546 
L 392.663372 57.514873 
L 393.406473 57.092111 
L 396.5984 55.861174 
L 397.124996 55.429637 
L 396.863294 54.980673 
L 395.636728 54.5293 
L 393.474175 54.108881 
L 390.638952 53.769312 
L 387.595521 53.569911 
L 384.916984 53.568 
L 383.152401 53.805284 
L 382.687614 54.295564 
L 383.636289 55.017128 
L 385.792604 55.91231 
L 393.794774 58.732276 
L 394.777199 59.422959 
L 394.212508 59.907124 
L 392.143033 60.197628 
L 385.215281 60.439346 
L 381.664604 60.562325 
L 378.909867 60.796033 
L 377.353225 61.191078 
L 377.095117 61.759496 
L 377.928153 62.473879 
L 382.078502 64.848544 
L 382.357027 65.494444 
L 381.654636 66.005943 
L 380.069828 66.393065 
L 371.871263 67.636173 
L 370.975533 68.110157 
L 370.720742 68.685316 
L 370.918117 69.338693 
L 371.559767 70.71907 
L 371.497824 71.362735 
L 370.992798 71.937137 
L 370.053225 72.435175 
L 367.386694 73.259046 
L 364.867937 74.041624 
L 364.000141 74.485369 
L 363.433912 74.98239 
L 363.108834 75.530654 
L 362.430945 77.323476 
L 361.944384 77.902327 
L 361.237609 78.446273 
L 359.280333 79.4227 
L 356.153734 80.761547 
L 355.367097 81.231219 
L 354.76138 81.728529 
L 353.962747 82.80218 
L 353.252896 83.923325 
L 352.747428 84.47239 
L 352.083573 85.001562 
L 350.320307 85.992223 
L 347.463735 87.399329 
L 346.120607 88.386118 
L 345.243776 89.438196 
L 344.365186 90.510895 
L 343.052923 91.547565 
L 340.379635 93.01425 
L 338.718407 93.987288 
L 337.473413 94.995571 
L 335.451098 97.063971 
L 334.094618 98.071316 
L 329.43461 101.052664 
L 327.699702 102.577313 
L 325.949836 104.089906 
L 323.760502 105.582346 
L 320.808708 107.576192 
L 319.113865 109.084545 
L 317.359289 110.58323 
L 315.119495 112.062353 
L 312.93341 113.546271 
L 311.243407 115.046906 
L 309.519096 116.533246 
L 307.345181 117.994286 
L 305.182571 119.46689 
L 302.791349 121.454852 
L 300.915361 122.918718 
L 294.887698 127.324481 
L 290.42755 130.732924 
L 286.310763 133.679997 
L 282.59398 136.613891 
L 278.505603 139.55008 
L 275.490839 141.997728 
L 270.85651 145.399084 
L 267.807497 147.82883 
L 262.620577 151.691009 
L 256.217996 156.500589 
L 244.784845 165.1349 
L 240.959699 167.994688 
L 236.606015 171.330326 
L 208.649614 192.473093 
L 200.007786 198.997142 
L 195.664926 202.257035 
L 186.58145 209.224148 
L 172.040814 220.256459 
L 169.002992 222.540502 
L 165.383421 225.275066 
L 161.823169 228.00998 
L 135.753899 247.811888 
L 133.363836 249.588609 
L 130.558326 251.822017 
L 126.937409 254.480112 
L 124.080279 256.706584 
L 121.07328 258.91764 
L 118.231972 261.141415 
L 115.221955 263.346457 
L 113.044012 265.125861 
L 108.893576 268.207425 
L 107.323889 269.540135 
L 102.629563 273.049458 
L 100.988666 274.370819 
L 97.87688 276.540402 
L 95.371792 278.743072 
L 92.14875 280.896251 
L 89.719986 283.094797 
L 86.352553 285.230786 
L 85.528418 286.113984 
L 84.720807 286.998617 
L 83.433038 287.855606 
L 81.04828 289.114108 
L 80.485915 289.546027 
L 80.121579 289.988192 
L 79.370942 291.327413 
L 78.781065 291.755251 
L 76.787232 292.575309 
L 75.68713 292.983895 
L 74.903108 293.405944 
L 74.764523 293.846515 
L 75.520572 294.298147 
L 77.24979 294.736203 
L 79.804758 295.11832 
L 82.812814 295.388772 
L 85.74001 295.488 
L 88.007023 295.365418 
L 89.129937 294.992781 
L 88.849826 294.374259 
L 87.214744 293.550748 
L 81.585076 291.60519 
L 78.924773 290.677296 
L 77.275061 289.895936 
L 77.087789 289.312276 
L 78.49164 288.934773 
L 81.262122 288.72801 
L 91.881318 288.352245 
L 94.044755 288.035453 
L 94.885434 287.54381 
L 94.474034 286.886893 
L 93.169078 286.110905 
L 90.086081 284.488579 
L 89.368905 283.783338 
L 89.628695 283.208734 
L 90.875188 282.769821 
L 92.880393 282.439466 
L 97.566672 281.892168 
L 99.436455 281.559722 
L 100.639893 281.132403 
L 101.138594 280.598097 
L 101.07021 279.970526 
L 100.312555 278.582542 
L 100.191927 277.910663 
L 100.500674 277.30114 
L 101.280898 276.76956 
L 102.454326 276.312289 
L 106.572896 275.143382 
L 107.581939 274.72088 
L 108.273372 274.246506 
L 108.68183 273.716938 
L 109.663938 271.334219 
L 110.262351 270.771959 
L 111.080132 270.248974 
L 113.171869 269.308187 
L 115.30866 268.424109 
L 116.893228 267.480042 
L 117.41597 266.965096 
L 118.118842 265.863548 
L 118.88286 264.739179 
L 119.465219 264.198053 
L 121.129186 263.186994 
L 124.931733 261.302688 
L 126.102325 260.291911 
L 127.846634 258.145574 
L 129.342497 257.122633 
L 132.933019 255.181971 
L 134.222778 254.178231 
L 136.813571 251.587697 
L 138.296073 250.586055 
L 141.50955 248.601633 
L 143.441401 247.079703 
L 145.743308 245.050051 
L 147.891538 243.549355 
L 150.929654 241.551767 
L 152.122402 240.544797 
L 154.297481 238.530027 
L 155.733726 237.5368 
L 158.851683 235.560591 
L 160.052415 234.558571 
L 162.222548 232.555777 
L 164.396059 231.08933 
L 166.593376 229.617706 
L 168.971093 227.620403 
L 170.860139 226.148285 
L 176.92569 221.730615 
L 183.515338 216.834097 
L 185.580958 215.355724 
L 189.922103 211.918248 
L 192.773734 209.959495 
L 197.756298 206.034174 
L 199.82211 204.577743 
L 205.470448 200.189711 
L 208.599335 197.76291 
L 211.867951 195.344567 
L 220.183382 189.073557 
L 223.362535 186.669414 
L 226.568712 184.268528 
L 229.706895 181.86773 
L 232.906663 179.483026 
L 235.950971 177.088924 
L 235.950971 177.088924 
" clip-path="url(#p2a082b66bc)" style="fill: none; stroke: #ff7f0e; stroke-opacity: 0.5; stroke-width: 1.5; stroke-linecap: square"/>
   </g>
   <g id="patch_3">
    <path d="M 57.6 307.584 
L 57.6 41.472 
" style="fill: none; stroke: #000000; stroke-width: 0.8; stroke-linejoin: miter; stroke-linecap: square"/>
   </g>
   <g id="patch_4">
    <path d="M 414.72 307.584 
L 414.72 41.472 
" style="fill: none; stroke: #000000; stroke-width: 0.8; stroke-linejoin: miter; stroke-linecap: square"/>
   </g>
   <g id="patch_5">
    <path d="M 57.6 307.584 
L 414.72 307.584 
" style="fill: none; stroke: #000000; stroke-width: 0.8; stroke-linejoin: miter; stroke-linecap: square"/>
   </g>
   <g id="patch_6">
    <path d="M 57.6 41.472 
L 414.72 41.472 
" style="fill: none; stroke: #000000; stroke-width: 0.8; stroke-linejoin: miter; stroke-linecap: square"/>
   </g>
   <g id="text_21">
    <!-- Compare - Epoch 600 -->
    <g transform="translate(171.234375 35.472) scale(0.12 -0.12)">
     <defs>
      <path id="DejaVuSans-43" d="M 4122 4306 
L 4122 3641 
Q 3803 3938 3442 4084 
Q 3081 4231 2675 4231 
Q 1875 4231 1450 3742 
Q 1025 3253 1025 2328 
Q 1025 1406 1450 917 
Q 1875 428 2675 428 
Q 3081 428 3442 575 
Q 3803 722 4122 1019 
L 4122 359 
Q 3791 134 3420 21 
Q 3050 -91 2638 -91 
Q 1578 -91 968 557 
Q 359 1206 359 2328 
Q 359 3453 968 4101 
Q 1578 4750 2638 4750 
Q 3056 4750 3426 4639 
Q 3797 4528 4122 4306 
z
" transform="scale(0.015625)"/>
      <path id="DejaVuSans-6f" d="M 1959 3097 
Q 1497 3097 1228 2736 
Q 959 2375 959 1747 
Q 959 1119 1226 758 
Q 1494 397 1959 397 
Q 2419 397 2687 759 
Q 2956 1122 2956 1747 
Q 2956 2369 2687 2733 
Q 2419 3097 1959 3097 
z
M 1959 3584 
Q 2709 3584 3137 3096 
Q 3566 2609 3566 1747 
Q 3566 888 3137 398 
Q 2709 -91 1959 -91 
Q 1206 -91 779 398 
Q 353 888 353 1747 
Q 353 2609 779 3096 
Q 1206 3584 1959 3584 
z
" transform="scale(0.015625)"/>
      <path id="DejaVuSans-6d" d="M 3328 2828 
Q 3544 3216 3844 3400 
Q 4144 3584 4550 3584 
Q 5097 3584 5394 3201 
Q 5691 2819 5691 2113 
L 5691 0 
L 5113 0 
L 5113 2094 
Q 5113 2597 4934 2840 
Q 4756 3084 4391 3084 
Q 3944 3084 3684 2787 
Q 3425 2491 3425 1978 
L 3425 0 
L 2847 0 
L 2847 2094 
Q 2847 2600 2669 2842 
Q 2491 3084 2119 3084 
Q 1678 3084 1418 2786 
Q 1159 2488 1159 1978 
L 1159 0 
L 581 0 
L 581 3500 
L 1159 3500 
L 1159 2956 
Q 1356 3278 1631 3431 
Q 1906 3584 2284 3584 
Q 2666 3584 2933 3390 
Q 3200 3197 3328 2828 
z
" transform="scale(0.015625)"/>
      <path id="DejaVuSans-70" d="M 1159 525 
L 1159 -1331 
L 581 -1331 
L 581 3500 
L 1159 3500 
L 1159 2969 
Q 1341 3281 1617 3432 
Q 1894 3584 2278 3584 
Q 2916 3584 3314 3078 
Q 3713 2572 3713 1747 
Q 3713 922 3314 415 
Q 2916 -91 2278 -91 
Q 1894 -91 1617 61 
Q 1341 213 1159 525 
z
M 3116 1747 
Q 3116 2381 2855 2742 
Q 2594 3103 2138 3103 
Q 1681 3103 1420 2742 
Q 1159 2381 1159 1747 
Q 1159 1113 1420 752 
Q 1681 391 2138 391 
Q 2594 391 2855 752 
Q 3116 1113 3116 1747 
z
" transform="scale(0.015625)"/>
      <path id="DejaVuSans-72" d="M 2631 2963 
Q 2534 3019 2420 3045 
Q 2306 3072 2169 3072 
Q 1681 3072 1420 2755 
Q 1159 2438 1159 1844 
L 1159 0 
L 581 0 
L 581 3500 
L 1159 3500 
L 1159 2956 
Q 1341 3275 1631 3429 
Q 1922 3584 2338 3584 
Q 2397 3584 2469 3576 
Q 2541 3569 2628 3553 
L 2631 2963 
z
" transform="scale(0.015625)"/>
      <path id="DejaVuSans-20" transform="scale(0.015625)"/>
      <path id="DejaVuSans-2d" d="M 313 2009 
L 1997 2009 
L 1997 1497 
L 313 1497 
L 313 2009 
z
" transform="scale(0.015625)"/>
      <path id="DejaVuSans-45" d="M 628 4666 
L 3578 4666 
L 3578 4134 
L 1259 4134 
L 1259 2753 
L 3481 2753 
L 3481 2222 
L 1259 2222 
L 1259 531 
L 3634 531 
L 3634 0 
L 628 0 
L 628 4666 
z
" transform="scale(0.015625)"/>
      <path id="DejaVuSans-63" d="M 3122 3366 
L 3122 2828 
Q 2878 2963 2633 3030 
Q 2388 3097 2138 3097 
Q 1578 3097 1268 2742 
Q 959 2388 959 1747 
Q 959 1106 1268 751 
Q 1578 397 2138 397 
Q 2388 397 2633 464 
Q 2878 531 3122 666 
L 3122 134 
Q 2881 22 2623 -34 
Q 2366 -91 2075 -91 
Q 1284 -91 818 406 
Q 353 903 353 1747 
Q 353 2603 823 3093 
Q 1294 3584 2113 3584 
Q 2378 3584 2631 3529 
Q 2884 3475 3122 3366 
z
" transform="scale(0.015625)"/>
      <path id="DejaVuSans-68" d="M 3513 2113 
L 3513 0 
L 2938 0 
L 2938 2094 
Q 2938 2591 2744 2837 
Q 2550 3084 2163 3084 
Q 1697 3084 1428 2787 
Q 1159 2491 1159 1978 
L 1159 0 
L 581 0 
L 581 4863 
L 1159 4863 
L 1159 2956 
Q 1366 3272 1645 3428 
Q 1925 3584 2291 3584 
Q 2894 3584 3203 3211 
Q 3513 2838 3513 2113 
z
" transform="scale(0.015625)"/>
      <path id="DejaVuSans-36" d="M 2113 2584 
Q 1688 2584 1439 2293 
Q 1191 2003 1191 1497 
Q 1191 994 1439 701 
Q 1688 409 2113 409 
Q 2538 409 2786 701 
Q 3034 994 3034 1497 
Q 3034 2003 2786 2293 
Q 2538 2584 2113 2584 
z
M 3366 4563 
L 3366 3988 
Q 3128 4100 2886 4159 
Q 2644 4219 2406 4219 
Q 1781 4219 1451 3797 
Q 1122 3375 1075 2522 
Q 1259 2794 1537 2939 
Q 1816 3084 2150 3084 
Q 2853 3084 3261 2657 
Q 3669 2231 3669 1497 
Q 3669 778 3244 343 
Q 2819 -91 2113 -91 
Q 1303 -91 875 529 
Q 447 1150 447 2328 
Q 447 3434 972 4092 
Q 1497 4750 2381 4750 
Q 2619 4750 2861 4703 
Q 3103 4656 3366 4563 
z
" transform="scale(0.015625)"/>
     </defs>
     <use xlink:href="#DejaVuSans-43"/>
     <use xlink:href="#DejaVuSans-6f" transform="translate(69.824219 0)"/>
     <use xlink:href="#DejaVuSans-6d" transform="translate(131.005859 0)"/>
     <use xlink:href="#DejaVuSans-70" transform="translate(228.417969 0)"/>
     <use xlink:href="#DejaVuSans-61" transform="translate(291.894531 0)"/>
     <use xlink:href="#DejaVuSans-72" transform="translate(353.173828 0)"/>
     <use xlink:href="#DejaVuSans-65" transform="translate(392.037109 0)"/>
     <use xlink:href="#DejaVuSans-20" transform="translate(453.560547 0)"/>
     <use xlink:href="#DejaVuSans-2d" transform="translate(485.347656 0)"/>
     <use xlink:href="#DejaVuSans-20" transform="translate(521.431641 0)"/>
     <use xlink:href="#DejaVuSans-45" transform="translate(553.21875 0)"/>
     <use xlink:href="#DejaVuSans-70" transform="translate(616.402344 0)"/>
     <use xlink:href="#DejaVuSans-6f" transform="translate(679.878906 0)"/>
     <use xlink:href="#DejaVuSans-63" transform="translate(741.060547 0)"/>
     <use xlink:href="#DejaVuSans-68" transform="translate(796.041016 0)"/>
     <use xlink:href="#DejaVuSans-20" transform="translate(859.419922 0)"/>
     <use xlink:href="#DejaVuSans-36" transform="translate(891.207031 0)"/>
     <use xlink:href="#DejaVuSans-30" transform="translate(954.830078 0)"/>
     <use xlink:href="#DejaVuSans-30" transform="translate(1018.453125 0)"/>
    </g>
   </g>
   <g id="legend_1">
    <g id="patch_7">
     <path d="M 64.6 78.82825 
L 181.128125 78.82825 
Q 183.128125 78.82825 183.128125 76.82825 
L 183.128125 48.472 
Q 183.128125 46.472 181.128125 46.472 
L 64.6 46.472 
Q 62.6 46.472 62.6 48.472 
L 62.6 76.82825 
Q 62.6 78.82825 64.6 78.82825 
z
" style="fill: #ffffff; opacity: 0.8; stroke: #cccccc; stroke-linejoin: miter"/>
    </g>
    <g id="line2d_39">
     <path d="M 66.6 54.570437 
L 76.6 54.570437 
L 86.6 54.570437 
" style="fill: none; stroke: #1f77b4; stroke-width: 1.5; stroke-linecap: square"/>
    </g>
    <g id="text_22">
     <!-- Pred: Sample 1 -->
     <g transform="translate(94.6 58.070437) scale(0.1 -0.1)">
      <defs>
       <path id="DejaVuSans-50" d="M 1259 4147 
L 1259 2394 
L 2053 2394 
Q 2494 2394 2734 2622 
Q 2975 2850 2975 3272 
Q 2975 3691 2734 3919 
Q 2494 4147 2053 4147 
L 1259 4147 
z
M 628 4666 
L 2053 4666 
Q 2838 4666 3239 4311 
Q 3641 3956 3641 3272 
Q 3641 2581 3239 2228 
Q 2838 1875 2053 1875 
L 1259 1875 
L 1259 0 
L 628 0 
L 628 4666 
z
" transform="scale(0.015625)"/>
       <path id="DejaVuSans-3a" d="M 750 794 
L 1409 794 
L 1409 0 
L 750 0 
L 750 794 
z
M 750 3309 
L 1409 3309 
L 1409 2516 
L 750 2516 
L 750 3309 
z
" transform="scale(0.015625)"/>
       <path id="DejaVuSans-53" d="M 3425 4513 
L 3425 3897 
Q 3066 4069 2747 4153 
Q 2428 4238 2131 4238 
Q 1616 4238 1336 4038 
Q 1056 3838 1056 3469 
Q 1056 3159 1242 3001 
Q 1428 2844 1947 2747 
L 2328 2669 
Q 3034 2534 3370 2195 
Q 3706 1856 3706 1288 
Q 3706 609 3251 259 
Q 2797 -91 1919 -91 
Q 1588 -91 1214 -16 
Q 841 59 441 206 
L 441 856 
Q 825 641 1194 531 
Q 1563 422 1919 422 
Q 2459 422 2753 634 
Q 3047 847 3047 1241 
Q 3047 1584 2836 1778 
Q 2625 1972 2144 2069 
L 1759 2144 
Q 1053 2284 737 2584 
Q 422 2884 422 3419 
Q 422 4038 858 4394 
Q 1294 4750 2059 4750 
Q 2388 4750 2728 4690 
Q 3069 4631 3425 4513 
z
" transform="scale(0.015625)"/>
      </defs>
      <use xlink:href="#DejaVuSans-50"/>
      <use xlink:href="#DejaVuSans-72" transform="translate(58.552734 0)"/>
      <use xlink:href="#DejaVuSans-65" transform="translate(97.416016 0)"/>
      <use xlink:href="#DejaVuSans-64" transform="translate(158.939453 0)"/>
      <use xlink:href="#DejaVuSans-3a" transform="translate(222.416016 0)"/>
      <use xlink:href="#DejaVuSans-20" transform="translate(256.107422 0)"/>
      <use xlink:href="#DejaVuSans-53" transform="translate(287.894531 0)"/>
      <use xlink:href="#DejaVuSans-61" transform="translate(351.371094 0)"/>
      <use xlink:href="#DejaVuSans-6d" transform="translate(412.650391 0)"/>
      <use xlink:href="#DejaVuSans-70" transform="translate(510.0625 0)"/>
      <use xlink:href="#DejaVuSans-6c" transform="translate(573.539062 0)"/>
      <use xlink:href="#DejaVuSans-65" transform="translate(601.322266 0)"/>
      <use xlink:href="#DejaVuSans-20" transform="translate(662.845703 0)"/>
      <use xlink:href="#DejaVuSans-31" transform="translate(694.632812 0)"/>
     </g>
    </g>
    <g id="line2d_40">
     <path d="M 66.6 69.248562 
L 76.6 69.248562 
L 86.6 69.248562 
" style="fill: none; stroke: #ff7f0e; stroke-opacity: 0.5; stroke-width: 1.5; stroke-linecap: square"/>
    </g>
    <g id="text_23">
     <!-- Target: Sample 1 -->
     <g transform="translate(94.6 72.748562) scale(0.1 -0.1)">
      <defs>
       <path id="DejaVuSans-54" d="M -19 4666 
L 3928 4666 
L 3928 4134 
L 2272 4134 
L 2272 0 
L 1638 0 
L 1638 4134 
L -19 4134 
L -19 4666 
z
" transform="scale(0.015625)"/>
       <path id="DejaVuSans-67" d="M 2906 1791 
Q 2906 2416 2648 2759 
Q 2391 3103 1925 3103 
Q 1463 3103 1205 2759 
Q 947 2416 947 1791 
Q 947 1169 1205 825 
Q 1463 481 1925 481 
Q 2391 481 2648 825 
Q 2906 1169 2906 1791 
z
M 3481 434 
Q 3481 -459 3084 -895 
Q 2688 -1331 1869 -1331 
Q 1566 -1331 1297 -1286 
Q 1028 -1241 775 -1147 
L 775 -588 
Q 1028 -725 1275 -790 
Q 1522 -856 1778 -856 
Q 2344 -856 2625 -561 
Q 2906 -266 2906 331 
L 2906 616 
Q 2728 306 2450 153 
Q 2172 0 1784 0 
Q 1141 0 747 490 
Q 353 981 353 1791 
Q 353 2603 747 3093 
Q 1141 3584 1784 3584 
Q 2172 3584 2450 3431 
Q 2728 3278 2906 2969 
L 2906 3500 
L 3481 3500 
L 3481 434 
z
" transform="scale(0.015625)"/>
       <path id="DejaVuSans-74" d="M 1172 4494 
L 1172 3500 
L 2356 3500 
L 2356 3053 
L 1172 3053 
L 1172 1153 
Q 1172 725 1289 603 
Q 1406 481 1766 481 
L 2356 481 
L 2356 0 
L 1766 0 
Q 1100 0 847 248 
Q 594 497 594 1153 
L 594 3053 
L 172 3053 
L 172 3500 
L 594 3500 
L 594 4494 
L 1172 4494 
z
" transform="scale(0.015625)"/>
      </defs>
      <use xlink:href="#DejaVuSans-54"/>
      <use xlink:href="#DejaVuSans-61" transform="translate(44.583984 0)"/>
      <use xlink:href="#DejaVuSans-72" transform="translate(105.863281 0)"/>
      <use xlink:href="#DejaVuSans-67" transform="translate(145.226562 0)"/>
      <use xlink:href="#DejaVuSans-65" transform="translate(208.703125 0)"/>
      <use xlink:href="#DejaVuSans-74" transform="translate(270.226562 0)"/>
      <use xlink:href="#DejaVuSans-3a" transform="translate(309.435547 0)"/>
      <use xlink:href="#DejaVuSans-20" transform="translate(343.126953 0)"/>
      <use xlink:href="#DejaVuSans-53" transform="translate(374.914062 0)"/>
      <use xlink:href="#DejaVuSans-61" transform="translate(438.390625 0)"/>
      <use xlink:href="#DejaVuSans-6d" transform="translate(499.669922 0)"/>
      <use xlink:href="#DejaVuSans-70" transform="translate(597.082031 0)"/>
      <use xlink:href="#DejaVuSans-6c" transform="translate(660.558594 0)"/>
      <use xlink:href="#DejaVuSans-65" transform="translate(688.341797 0)"/>
      <use xlink:href="#DejaVuSans-20" transform="translate(749.865234 0)"/>
      <use xlink:href="#DejaVuSans-31" transform="translate(781.652344 0)"/>
     </g>
    </g>
   </g>
  </g>
 </g>
 <defs>
  <clipPath id="p2a082b66bc">
   <rect x="57.6" y="41.472" width="357.12" height="266.112"/>
  </clipPath>
 </defs>
</svg>
