<?xml version="1.0" encoding="utf-8" standalone="no"?>
<!DOCTYPE svg PUBLIC "-//W3C//DTD SVG 1.1//EN"
  "http://www.w3.org/Graphics/SVG/1.1/DTD/svg11.dtd">
<svg xmlns:xlink="http://www.w3.org/1999/xlink" width="460.8pt" height="345.6pt" viewBox="0 0 460.8 345.6" xmlns="http://www.w3.org/2000/svg" version="1.1">
 <metadata>
  <rdf:RDF xmlns:dc="http://purl.org/dc/elements/1.1/" xmlns:cc="http://creativecommons.org/ns#" xmlns:rdf="http://www.w3.org/1999/02/22-rdf-syntax-ns#">
   <cc:Work>
    <dc:type rdf:resource="http://purl.org/dc/dcmitype/StillImage"/>
    <dc:date>2025-05-30T19:51:38.145205</dc:date>
    <dc:format>image/svg+xml</dc:format>
    <dc:creator>
     <cc:Agent>
      <dc:title>Matplotlib v3.10.3, https://matplotlib.org/</dc:title>
     </cc:Agent>
    </dc:creator>
   </cc:Work>
  </rdf:RDF>
 </metadata>
 <defs>
  <style type="text/css">*{stroke-linejoin: round; stroke-linecap: butt}</style>
 </defs>
 <g id="figure_1">
  <g id="patch_1">
   <path d="M 0 345.6 
L 460.8 345.6 
L 460.8 0 
L 0 0 
z
" style="fill: #ffffff"/>
  </g>
  <g id="axes_1">
   <g id="patch_2">
    <path d="M 57.6 307.584 
L 414.72 307.584 
L 414.72 41.472 
L 57.6 41.472 
z
" style="fill: #ffffff"/>
   </g>
   <g id="matplotlib.axis_1">
    <g id="xtick_1">
     <g id="line2d_1">
      <path d="M 74.485743 307.584 
L 74.485743 41.472 
" clip-path="url(#p03b8c56d86)" style="fill: none; stroke: #b0b0b0; stroke-opacity: 0.5; stroke-width: 0.8; stroke-linecap: square"/>
     </g>
     <g id="line2d_2">
      <defs>
       <path id="m8ef7520cda" d="M 0 0 
L 0 3.5 
" style="stroke: #000000; stroke-width: 0.8"/>
      </defs>
      <g>
       <use xlink:href="#m8ef7520cda" x="74.485743" y="307.584" style="stroke: #000000; stroke-width: 0.8"/>
      </g>
     </g>
     <g id="text_1">
      <!-- −1.00 -->
      <g transform="translate(59.163087 322.182437) scale(0.1 -0.1)">
       <defs>
        <path id="DejaVuSans-2212" d="M 678 2272 
L 4684 2272 
L 4684 1741 
L 678 1741 
L 678 2272 
z
" transform="scale(0.015625)"/>
        <path id="DejaVuSans-31" d="M 794 531 
L 1825 531 
L 1825 4091 
L 703 3866 
L 703 4441 
L 1819 4666 
L 2450 4666 
L 2450 531 
L 3481 531 
L 3481 0 
L 794 0 
L 794 531 
z
" transform="scale(0.015625)"/>
        <path id="DejaVuSans-2e" d="M 684 794 
L 1344 794 
L 1344 0 
L 684 0 
L 684 794 
z
" transform="scale(0.015625)"/>
        <path id="DejaVuSans-30" d="M 2034 4250 
Q 1547 4250 1301 3770 
Q 1056 3291 1056 2328 
Q 1056 1369 1301 889 
Q 1547 409 2034 409 
Q 2525 409 2770 889 
Q 3016 1369 3016 2328 
Q 3016 3291 2770 3770 
Q 2525 4250 2034 4250 
z
M 2034 4750 
Q 2819 4750 3233 4129 
Q 3647 3509 3647 2328 
Q 3647 1150 3233 529 
Q 2819 -91 2034 -91 
Q 1250 -91 836 529 
Q 422 1150 422 2328 
Q 422 3509 836 4129 
Q 1250 4750 2034 4750 
z
" transform="scale(0.015625)"/>
       </defs>
       <use xlink:href="#DejaVuSans-2212"/>
       <use xlink:href="#DejaVuSans-31" transform="translate(83.789062 0)"/>
       <use xlink:href="#DejaVuSans-2e" transform="translate(147.412109 0)"/>
       <use xlink:href="#DejaVuSans-30" transform="translate(179.199219 0)"/>
       <use xlink:href="#DejaVuSans-30" transform="translate(242.822266 0)"/>
      </g>
     </g>
    </g>
    <g id="xtick_2">
     <g id="line2d_3">
      <path d="M 114.985934 307.584 
L 114.985934 41.472 
" clip-path="url(#p03b8c56d86)" style="fill: none; stroke: #b0b0b0; stroke-opacity: 0.5; stroke-width: 0.8; stroke-linecap: square"/>
     </g>
     <g id="line2d_4">
      <g>
       <use xlink:href="#m8ef7520cda" x="114.985934" y="307.584" style="stroke: #000000; stroke-width: 0.8"/>
      </g>
     </g>
     <g id="text_2">
      <!-- −0.75 -->
      <g transform="translate(99.663278 322.182437) scale(0.1 -0.1)">
       <defs>
        <path id="DejaVuSans-37" d="M 525 4666 
L 3525 4666 
L 3525 4397 
L 1831 0 
L 1172 0 
L 2766 4134 
L 525 4134 
L 525 4666 
z
" transform="scale(0.015625)"/>
        <path id="DejaVuSans-35" d="M 691 4666 
L 3169 4666 
L 3169 4134 
L 1269 4134 
L 1269 2991 
Q 1406 3038 1543 3061 
Q 1681 3084 1819 3084 
Q 2600 3084 3056 2656 
Q 3513 2228 3513 1497 
Q 3513 744 3044 326 
Q 2575 -91 1722 -91 
Q 1428 -91 1123 -41 
Q 819 9 494 109 
L 494 744 
Q 775 591 1075 516 
Q 1375 441 1709 441 
Q 2250 441 2565 725 
Q 2881 1009 2881 1497 
Q 2881 1984 2565 2268 
Q 2250 2553 1709 2553 
Q 1456 2553 1204 2497 
Q 953 2441 691 2322 
L 691 4666 
z
" transform="scale(0.015625)"/>
       </defs>
       <use xlink:href="#DejaVuSans-2212"/>
       <use xlink:href="#DejaVuSans-30" transform="translate(83.789062 0)"/>
       <use xlink:href="#DejaVuSans-2e" transform="translate(147.412109 0)"/>
       <use xlink:href="#DejaVuSans-37" transform="translate(179.199219 0)"/>
       <use xlink:href="#DejaVuSans-35" transform="translate(242.822266 0)"/>
      </g>
     </g>
    </g>
    <g id="xtick_3">
     <g id="line2d_5">
      <path d="M 155.486126 307.584 
L 155.486126 41.472 
" clip-path="url(#p03b8c56d86)" style="fill: none; stroke: #b0b0b0; stroke-opacity: 0.5; stroke-width: 0.8; stroke-linecap: square"/>
     </g>
     <g id="line2d_6">
      <g>
       <use xlink:href="#m8ef7520cda" x="155.486126" y="307.584" style="stroke: #000000; stroke-width: 0.8"/>
      </g>
     </g>
     <g id="text_3">
      <!-- −0.50 -->
      <g transform="translate(140.163469 322.182437) scale(0.1 -0.1)">
       <use xlink:href="#DejaVuSans-2212"/>
       <use xlink:href="#DejaVuSans-30" transform="translate(83.789062 0)"/>
       <use xlink:href="#DejaVuSans-2e" transform="translate(147.412109 0)"/>
       <use xlink:href="#DejaVuSans-35" transform="translate(179.199219 0)"/>
       <use xlink:href="#DejaVuSans-30" transform="translate(242.822266 0)"/>
      </g>
     </g>
    </g>
    <g id="xtick_4">
     <g id="line2d_7">
      <path d="M 195.986317 307.584 
L 195.986317 41.472 
" clip-path="url(#p03b8c56d86)" style="fill: none; stroke: #b0b0b0; stroke-opacity: 0.5; stroke-width: 0.8; stroke-linecap: square"/>
     </g>
     <g id="line2d_8">
      <g>
       <use xlink:href="#m8ef7520cda" x="195.986317" y="307.584" style="stroke: #000000; stroke-width: 0.8"/>
      </g>
     </g>
     <g id="text_4">
      <!-- −0.25 -->
      <g transform="translate(180.66366 322.182437) scale(0.1 -0.1)">
       <defs>
        <path id="DejaVuSans-32" d="M 1228 531 
L 3431 531 
L 3431 0 
L 469 0 
L 469 531 
Q 828 903 1448 1529 
Q 2069 2156 2228 2338 
Q 2531 2678 2651 2914 
Q 2772 3150 2772 3378 
Q 2772 3750 2511 3984 
Q 2250 4219 1831 4219 
Q 1534 4219 1204 4116 
Q 875 4013 500 3803 
L 500 4441 
Q 881 4594 1212 4672 
Q 1544 4750 1819 4750 
Q 2544 4750 2975 4387 
Q 3406 4025 3406 3419 
Q 3406 3131 3298 2873 
Q 3191 2616 2906 2266 
Q 2828 2175 2409 1742 
Q 1991 1309 1228 531 
z
" transform="scale(0.015625)"/>
       </defs>
       <use xlink:href="#DejaVuSans-2212"/>
       <use xlink:href="#DejaVuSans-30" transform="translate(83.789062 0)"/>
       <use xlink:href="#DejaVuSans-2e" transform="translate(147.412109 0)"/>
       <use xlink:href="#DejaVuSans-32" transform="translate(179.199219 0)"/>
       <use xlink:href="#DejaVuSans-35" transform="translate(242.822266 0)"/>
      </g>
     </g>
    </g>
    <g id="xtick_5">
     <g id="line2d_9">
      <path d="M 236.486508 307.584 
L 236.486508 41.472 
" clip-path="url(#p03b8c56d86)" style="fill: none; stroke: #b0b0b0; stroke-opacity: 0.5; stroke-width: 0.8; stroke-linecap: square"/>
     </g>
     <g id="line2d_10">
      <g>
       <use xlink:href="#m8ef7520cda" x="236.486508" y="307.584" style="stroke: #000000; stroke-width: 0.8"/>
      </g>
     </g>
     <g id="text_5">
      <!-- 0.00 -->
      <g transform="translate(225.353695 322.182437) scale(0.1 -0.1)">
       <use xlink:href="#DejaVuSans-30"/>
       <use xlink:href="#DejaVuSans-2e" transform="translate(63.623047 0)"/>
       <use xlink:href="#DejaVuSans-30" transform="translate(95.410156 0)"/>
       <use xlink:href="#DejaVuSans-30" transform="translate(159.033203 0)"/>
      </g>
     </g>
    </g>
    <g id="xtick_6">
     <g id="line2d_11">
      <path d="M 276.986699 307.584 
L 276.986699 41.472 
" clip-path="url(#p03b8c56d86)" style="fill: none; stroke: #b0b0b0; stroke-opacity: 0.5; stroke-width: 0.8; stroke-linecap: square"/>
     </g>
     <g id="line2d_12">
      <g>
       <use xlink:href="#m8ef7520cda" x="276.986699" y="307.584" style="stroke: #000000; stroke-width: 0.8"/>
      </g>
     </g>
     <g id="text_6">
      <!-- 0.25 -->
      <g transform="translate(265.853887 322.182437) scale(0.1 -0.1)">
       <use xlink:href="#DejaVuSans-30"/>
       <use xlink:href="#DejaVuSans-2e" transform="translate(63.623047 0)"/>
       <use xlink:href="#DejaVuSans-32" transform="translate(95.410156 0)"/>
       <use xlink:href="#DejaVuSans-35" transform="translate(159.033203 0)"/>
      </g>
     </g>
    </g>
    <g id="xtick_7">
     <g id="line2d_13">
      <path d="M 317.48689 307.584 
L 317.48689 41.472 
" clip-path="url(#p03b8c56d86)" style="fill: none; stroke: #b0b0b0; stroke-opacity: 0.5; stroke-width: 0.8; stroke-linecap: square"/>
     </g>
     <g id="line2d_14">
      <g>
       <use xlink:href="#m8ef7520cda" x="317.48689" y="307.584" style="stroke: #000000; stroke-width: 0.8"/>
      </g>
     </g>
     <g id="text_7">
      <!-- 0.50 -->
      <g transform="translate(306.354078 322.182437) scale(0.1 -0.1)">
       <use xlink:href="#DejaVuSans-30"/>
       <use xlink:href="#DejaVuSans-2e" transform="translate(63.623047 0)"/>
       <use xlink:href="#DejaVuSans-35" transform="translate(95.410156 0)"/>
       <use xlink:href="#DejaVuSans-30" transform="translate(159.033203 0)"/>
      </g>
     </g>
    </g>
    <g id="xtick_8">
     <g id="line2d_15">
      <path d="M 357.987082 307.584 
L 357.987082 41.472 
" clip-path="url(#p03b8c56d86)" style="fill: none; stroke: #b0b0b0; stroke-opacity: 0.5; stroke-width: 0.8; stroke-linecap: square"/>
     </g>
     <g id="line2d_16">
      <g>
       <use xlink:href="#m8ef7520cda" x="357.987082" y="307.584" style="stroke: #000000; stroke-width: 0.8"/>
      </g>
     </g>
     <g id="text_8">
      <!-- 0.75 -->
      <g transform="translate(346.854269 322.182437) scale(0.1 -0.1)">
       <use xlink:href="#DejaVuSans-30"/>
       <use xlink:href="#DejaVuSans-2e" transform="translate(63.623047 0)"/>
       <use xlink:href="#DejaVuSans-37" transform="translate(95.410156 0)"/>
       <use xlink:href="#DejaVuSans-35" transform="translate(159.033203 0)"/>
      </g>
     </g>
    </g>
    <g id="xtick_9">
     <g id="line2d_17">
      <path d="M 398.487273 307.584 
L 398.487273 41.472 
" clip-path="url(#p03b8c56d86)" style="fill: none; stroke: #b0b0b0; stroke-opacity: 0.5; stroke-width: 0.8; stroke-linecap: square"/>
     </g>
     <g id="line2d_18">
      <g>
       <use xlink:href="#m8ef7520cda" x="398.487273" y="307.584" style="stroke: #000000; stroke-width: 0.8"/>
      </g>
     </g>
     <g id="text_9">
      <!-- 1.00 -->
      <g transform="translate(387.35446 322.182437) scale(0.1 -0.1)">
       <use xlink:href="#DejaVuSans-31"/>
       <use xlink:href="#DejaVuSans-2e" transform="translate(63.623047 0)"/>
       <use xlink:href="#DejaVuSans-30" transform="translate(95.410156 0)"/>
       <use xlink:href="#DejaVuSans-30" transform="translate(159.033203 0)"/>
      </g>
     </g>
    </g>
    <g id="text_10">
     <!-- Index -->
     <g transform="translate(222.393594 335.860562) scale(0.1 -0.1)">
      <defs>
       <path id="DejaVuSans-49" d="M 628 4666 
L 1259 4666 
L 1259 0 
L 628 0 
L 628 4666 
z
" transform="scale(0.015625)"/>
       <path id="DejaVuSans-6e" d="M 3513 2113 
L 3513 0 
L 2938 0 
L 2938 2094 
Q 2938 2591 2744 2837 
Q 2550 3084 2163 3084 
Q 1697 3084 1428 2787 
Q 1159 2491 1159 1978 
L 1159 0 
L 581 0 
L 581 3500 
L 1159 3500 
L 1159 2956 
Q 1366 3272 1645 3428 
Q 1925 3584 2291 3584 
Q 2894 3584 3203 3211 
Q 3513 2838 3513 2113 
z
" transform="scale(0.015625)"/>
       <path id="DejaVuSans-64" d="M 2906 2969 
L 2906 4863 
L 3481 4863 
L 3481 0 
L 2906 0 
L 2906 525 
Q 2725 213 2448 61 
Q 2172 -91 1784 -91 
Q 1150 -91 751 415 
Q 353 922 353 1747 
Q 353 2572 751 3078 
Q 1150 3584 1784 3584 
Q 2172 3584 2448 3432 
Q 2725 3281 2906 2969 
z
M 947 1747 
Q 947 1113 1208 752 
Q 1469 391 1925 391 
Q 2381 391 2643 752 
Q 2906 1113 2906 1747 
Q 2906 2381 2643 2742 
Q 2381 3103 1925 3103 
Q 1469 3103 1208 2742 
Q 947 2381 947 1747 
z
" transform="scale(0.015625)"/>
       <path id="DejaVuSans-65" d="M 3597 1894 
L 3597 1613 
L 953 1613 
Q 991 1019 1311 708 
Q 1631 397 2203 397 
Q 2534 397 2845 478 
Q 3156 559 3463 722 
L 3463 178 
Q 3153 47 2828 -22 
Q 2503 -91 2169 -91 
Q 1331 -91 842 396 
Q 353 884 353 1716 
Q 353 2575 817 3079 
Q 1281 3584 2069 3584 
Q 2775 3584 3186 3129 
Q 3597 2675 3597 1894 
z
M 3022 2063 
Q 3016 2534 2758 2815 
Q 2500 3097 2075 3097 
Q 1594 3097 1305 2825 
Q 1016 2553 972 2059 
L 3022 2063 
z
" transform="scale(0.015625)"/>
       <path id="DejaVuSans-78" d="M 3513 3500 
L 2247 1797 
L 3578 0 
L 2900 0 
L 1881 1375 
L 863 0 
L 184 0 
L 1544 1831 
L 300 3500 
L 978 3500 
L 1906 2253 
L 2834 3500 
L 3513 3500 
z
" transform="scale(0.015625)"/>
      </defs>
      <use xlink:href="#DejaVuSans-49"/>
      <use xlink:href="#DejaVuSans-6e" transform="translate(29.492188 0)"/>
      <use xlink:href="#DejaVuSans-64" transform="translate(92.871094 0)"/>
      <use xlink:href="#DejaVuSans-65" transform="translate(156.347656 0)"/>
      <use xlink:href="#DejaVuSans-78" transform="translate(216.121094 0)"/>
     </g>
    </g>
   </g>
   <g id="matplotlib.axis_2">
    <g id="ytick_1">
     <g id="line2d_19">
      <path d="M 57.6 295.50573 
L 414.72 295.50573 
" clip-path="url(#p03b8c56d86)" style="fill: none; stroke: #b0b0b0; stroke-opacity: 0.5; stroke-width: 0.8; stroke-linecap: square"/>
     </g>
     <g id="line2d_20">
      <defs>
       <path id="me8d40735c0" d="M 0 0 
L -3.5 0 
" style="stroke: #000000; stroke-width: 0.8"/>
      </defs>
      <g>
       <use xlink:href="#me8d40735c0" x="57.6" y="295.50573" style="stroke: #000000; stroke-width: 0.8"/>
      </g>
     </g>
     <g id="text_11">
      <!-- −1.00 -->
      <g transform="translate(19.954687 299.304949) scale(0.1 -0.1)">
       <use xlink:href="#DejaVuSans-2212"/>
       <use xlink:href="#DejaVuSans-31" transform="translate(83.789062 0)"/>
       <use xlink:href="#DejaVuSans-2e" transform="translate(147.412109 0)"/>
       <use xlink:href="#DejaVuSans-30" transform="translate(179.199219 0)"/>
       <use xlink:href="#DejaVuSans-30" transform="translate(242.822266 0)"/>
      </g>
     </g>
    </g>
    <g id="ytick_2">
     <g id="line2d_21">
      <path d="M 57.6 265.263499 
L 414.72 265.263499 
" clip-path="url(#p03b8c56d86)" style="fill: none; stroke: #b0b0b0; stroke-opacity: 0.5; stroke-width: 0.8; stroke-linecap: square"/>
     </g>
     <g id="line2d_22">
      <g>
       <use xlink:href="#me8d40735c0" x="57.6" y="265.263499" style="stroke: #000000; stroke-width: 0.8"/>
      </g>
     </g>
     <g id="text_12">
      <!-- −0.75 -->
      <g transform="translate(19.954687 269.062717) scale(0.1 -0.1)">
       <use xlink:href="#DejaVuSans-2212"/>
       <use xlink:href="#DejaVuSans-30" transform="translate(83.789062 0)"/>
       <use xlink:href="#DejaVuSans-2e" transform="translate(147.412109 0)"/>
       <use xlink:href="#DejaVuSans-37" transform="translate(179.199219 0)"/>
       <use xlink:href="#DejaVuSans-35" transform="translate(242.822266 0)"/>
      </g>
     </g>
    </g>
    <g id="ytick_3">
     <g id="line2d_23">
      <path d="M 57.6 235.021267 
L 414.72 235.021267 
" clip-path="url(#p03b8c56d86)" style="fill: none; stroke: #b0b0b0; stroke-opacity: 0.5; stroke-width: 0.8; stroke-linecap: square"/>
     </g>
     <g id="line2d_24">
      <g>
       <use xlink:href="#me8d40735c0" x="57.6" y="235.021267" style="stroke: #000000; stroke-width: 0.8"/>
      </g>
     </g>
     <g id="text_13">
      <!-- −0.50 -->
      <g transform="translate(19.954687 238.820486) scale(0.1 -0.1)">
       <use xlink:href="#DejaVuSans-2212"/>
       <use xlink:href="#DejaVuSans-30" transform="translate(83.789062 0)"/>
       <use xlink:href="#DejaVuSans-2e" transform="translate(147.412109 0)"/>
       <use xlink:href="#DejaVuSans-35" transform="translate(179.199219 0)"/>
       <use xlink:href="#DejaVuSans-30" transform="translate(242.822266 0)"/>
      </g>
     </g>
    </g>
    <g id="ytick_4">
     <g id="line2d_25">
      <path d="M 57.6 204.779035 
L 414.72 204.779035 
" clip-path="url(#p03b8c56d86)" style="fill: none; stroke: #b0b0b0; stroke-opacity: 0.5; stroke-width: 0.8; stroke-linecap: square"/>
     </g>
     <g id="line2d_26">
      <g>
       <use xlink:href="#me8d40735c0" x="57.6" y="204.779035" style="stroke: #000000; stroke-width: 0.8"/>
      </g>
     </g>
     <g id="text_14">
      <!-- −0.25 -->
      <g transform="translate(19.954687 208.578254) scale(0.1 -0.1)">
       <use xlink:href="#DejaVuSans-2212"/>
       <use xlink:href="#DejaVuSans-30" transform="translate(83.789062 0)"/>
       <use xlink:href="#DejaVuSans-2e" transform="translate(147.412109 0)"/>
       <use xlink:href="#DejaVuSans-32" transform="translate(179.199219 0)"/>
       <use xlink:href="#DejaVuSans-35" transform="translate(242.822266 0)"/>
      </g>
     </g>
    </g>
    <g id="ytick_5">
     <g id="line2d_27">
      <path d="M 57.6 174.536804 
L 414.72 174.536804 
" clip-path="url(#p03b8c56d86)" style="fill: none; stroke: #b0b0b0; stroke-opacity: 0.5; stroke-width: 0.8; stroke-linecap: square"/>
     </g>
     <g id="line2d_28">
      <g>
       <use xlink:href="#me8d40735c0" x="57.6" y="174.536804" style="stroke: #000000; stroke-width: 0.8"/>
      </g>
     </g>
     <g id="text_15">
      <!-- 0.00 -->
      <g transform="translate(28.334375 178.336023) scale(0.1 -0.1)">
       <use xlink:href="#DejaVuSans-30"/>
       <use xlink:href="#DejaVuSans-2e" transform="translate(63.623047 0)"/>
       <use xlink:href="#DejaVuSans-30" transform="translate(95.410156 0)"/>
       <use xlink:href="#DejaVuSans-30" transform="translate(159.033203 0)"/>
      </g>
     </g>
    </g>
    <g id="ytick_6">
     <g id="line2d_29">
      <path d="M 57.6 144.294572 
L 414.72 144.294572 
" clip-path="url(#p03b8c56d86)" style="fill: none; stroke: #b0b0b0; stroke-opacity: 0.5; stroke-width: 0.8; stroke-linecap: square"/>
     </g>
     <g id="line2d_30">
      <g>
       <use xlink:href="#me8d40735c0" x="57.6" y="144.294572" style="stroke: #000000; stroke-width: 0.8"/>
      </g>
     </g>
     <g id="text_16">
      <!-- 0.25 -->
      <g transform="translate(28.334375 148.093791) scale(0.1 -0.1)">
       <use xlink:href="#DejaVuSans-30"/>
       <use xlink:href="#DejaVuSans-2e" transform="translate(63.623047 0)"/>
       <use xlink:href="#DejaVuSans-32" transform="translate(95.410156 0)"/>
       <use xlink:href="#DejaVuSans-35" transform="translate(159.033203 0)"/>
      </g>
     </g>
    </g>
    <g id="ytick_7">
     <g id="line2d_31">
      <path d="M 57.6 114.052341 
L 414.72 114.052341 
" clip-path="url(#p03b8c56d86)" style="fill: none; stroke: #b0b0b0; stroke-opacity: 0.5; stroke-width: 0.8; stroke-linecap: square"/>
     </g>
     <g id="line2d_32">
      <g>
       <use xlink:href="#me8d40735c0" x="57.6" y="114.052341" style="stroke: #000000; stroke-width: 0.8"/>
      </g>
     </g>
     <g id="text_17">
      <!-- 0.50 -->
      <g transform="translate(28.334375 117.851559) scale(0.1 -0.1)">
       <use xlink:href="#DejaVuSans-30"/>
       <use xlink:href="#DejaVuSans-2e" transform="translate(63.623047 0)"/>
       <use xlink:href="#DejaVuSans-35" transform="translate(95.410156 0)"/>
       <use xlink:href="#DejaVuSans-30" transform="translate(159.033203 0)"/>
      </g>
     </g>
    </g>
    <g id="ytick_8">
     <g id="line2d_33">
      <path d="M 57.6 83.810109 
L 414.72 83.810109 
" clip-path="url(#p03b8c56d86)" style="fill: none; stroke: #b0b0b0; stroke-opacity: 0.5; stroke-width: 0.8; stroke-linecap: square"/>
     </g>
     <g id="line2d_34">
      <g>
       <use xlink:href="#me8d40735c0" x="57.6" y="83.810109" style="stroke: #000000; stroke-width: 0.8"/>
      </g>
     </g>
     <g id="text_18">
      <!-- 0.75 -->
      <g transform="translate(28.334375 87.609328) scale(0.1 -0.1)">
       <use xlink:href="#DejaVuSans-30"/>
       <use xlink:href="#DejaVuSans-2e" transform="translate(63.623047 0)"/>
       <use xlink:href="#DejaVuSans-37" transform="translate(95.410156 0)"/>
       <use xlink:href="#DejaVuSans-35" transform="translate(159.033203 0)"/>
      </g>
     </g>
    </g>
    <g id="ytick_9">
     <g id="line2d_35">
      <path d="M 57.6 53.567877 
L 414.72 53.567877 
" clip-path="url(#p03b8c56d86)" style="fill: none; stroke: #b0b0b0; stroke-opacity: 0.5; stroke-width: 0.8; stroke-linecap: square"/>
     </g>
     <g id="line2d_36">
      <g>
       <use xlink:href="#me8d40735c0" x="57.6" y="53.567877" style="stroke: #000000; stroke-width: 0.8"/>
      </g>
     </g>
     <g id="text_19">
      <!-- 1.00 -->
      <g transform="translate(28.334375 57.367096) scale(0.1 -0.1)">
       <use xlink:href="#DejaVuSans-31"/>
       <use xlink:href="#DejaVuSans-2e" transform="translate(63.623047 0)"/>
       <use xlink:href="#DejaVuSans-30" transform="translate(95.410156 0)"/>
       <use xlink:href="#DejaVuSans-30" transform="translate(159.033203 0)"/>
      </g>
     </g>
    </g>
    <g id="text_20">
     <!-- Value -->
     <g transform="translate(13.875 188.25925) rotate(-90) scale(0.1 -0.1)">
      <defs>
       <path id="DejaVuSans-56" d="M 1831 0 
L 50 4666 
L 709 4666 
L 2188 738 
L 3669 4666 
L 4325 4666 
L 2547 0 
L 1831 0 
z
" transform="scale(0.015625)"/>
       <path id="DejaVuSans-61" d="M 2194 1759 
Q 1497 1759 1228 1600 
Q 959 1441 959 1056 
Q 959 750 1161 570 
Q 1363 391 1709 391 
Q 2188 391 2477 730 
Q 2766 1069 2766 1631 
L 2766 1759 
L 2194 1759 
z
M 3341 1997 
L 3341 0 
L 2766 0 
L 2766 531 
Q 2569 213 2275 61 
Q 1981 -91 1556 -91 
Q 1019 -91 701 211 
Q 384 513 384 1019 
Q 384 1609 779 1909 
Q 1175 2209 1959 2209 
L 2766 2209 
L 2766 2266 
Q 2766 2663 2505 2880 
Q 2244 3097 1772 3097 
Q 1472 3097 1187 3025 
Q 903 2953 641 2809 
L 641 3341 
Q 956 3463 1253 3523 
Q 1550 3584 1831 3584 
Q 2591 3584 2966 3190 
Q 3341 2797 3341 1997 
z
" transform="scale(0.015625)"/>
       <path id="DejaVuSans-6c" d="M 603 4863 
L 1178 4863 
L 1178 0 
L 603 0 
L 603 4863 
z
" transform="scale(0.015625)"/>
       <path id="DejaVuSans-75" d="M 544 1381 
L 544 3500 
L 1119 3500 
L 1119 1403 
Q 1119 906 1312 657 
Q 1506 409 1894 409 
Q 2359 409 2629 706 
Q 2900 1003 2900 1516 
L 2900 3500 
L 3475 3500 
L 3475 0 
L 2900 0 
L 2900 538 
Q 2691 219 2414 64 
Q 2138 -91 1772 -91 
Q 1169 -91 856 284 
Q 544 659 544 1381 
z
M 1991 3584 
L 1991 3584 
z
" transform="scale(0.015625)"/>
      </defs>
      <use xlink:href="#DejaVuSans-56"/>
      <use xlink:href="#DejaVuSans-61" transform="translate(60.658203 0)"/>
      <use xlink:href="#DejaVuSans-6c" transform="translate(121.9375 0)"/>
      <use xlink:href="#DejaVuSans-75" transform="translate(149.720703 0)"/>
      <use xlink:href="#DejaVuSans-65" transform="translate(213.099609 0)"/>
     </g>
    </g>
   </g>
   <g id="line2d_37">
    <path d="M 219.113475 177.029613 
L 253.250368 176.555445 
L 241.527108 176.081934 
L 242.522356 175.133284 
L 244.214575 173.702602 
L 246.325733 171.80344 
L 249.88139 168.963712 
L 251.548146 167.545937 
L 264.086151 158.616609 
L 265.993558 157.216735 
L 269.507269 154.879464 
L 273.244348 152.074021 
L 275.796602 150.205193 
L 279.160882 147.400819 
L 281.676072 145.533033 
L 285.02187 142.735732 
L 287.542689 140.87429 
L 291.478802 137.626474 
L 293.366482 136.236964 
L 296.742383 133.463886 
L 299.968443 131.161465 
L 302.752436 128.863402 
L 305.994722 126.570902 
L 309.381452 123.825346 
L 311.995563 121.997147 
L 316.53745 118.349797 
L 318.208232 116.978984 
L 320.136622 115.159873 
L 324.121449 111.986414 
L 325.547563 110.63058 
L 329.972366 107.02125 
L 331.475728 105.677234 
L 334.471965 103.434741 
L 336.775258 101.192501 
L 340.223425 98.508657 
L 342.01496 96.722786 
L 345.517113 94.04797 
L 347.239415 92.263902 
L 349.100251 90.939252 
L 350.297025 90.046804 
L 351.586874 88.702261 
L 352.472097 87.815789 
L 353.692943 86.93518 
L 355.645019 85.602289 
L 356.58982 84.705493 
L 357.869346 83.374549 
L 359.101538 82.497847 
L 361.117884 81.170213 
L 362.069637 80.274584 
L 363.255867 78.946012 
L 364.463128 78.073803 
L 366.552879 76.753465 
L 367.512946 75.860447 
L 368.588827 74.536699 
L 369.766569 73.671195 
L 371.964177 72.36062 
L 372.952836 71.470053 
L 373.821653 70.149514 
L 374.284311 69.718734 
L 375.664085 68.860808 
L 377.176794 67.988959 
L 378.148381 67.099769 
L 378.830596 65.781472 
L 379.254002 65.353626 
L 380.695169 64.503214 
L 382.36193 63.635395 
L 382.974893 63.191601 
L 383.339619 62.744612 
L 383.688104 61.429603 
L 384.072413 61.007244 
L 384.769904 60.588996 
L 387.72041 59.30241 
L 388.3691 58.854102 
L 388.61836 58.401482 
L 388.504863 57.952546 
L 388.234109 57.514873 
L 388.152313 57.092111 
L 388.563398 56.681816 
L 389.584307 56.275421 
L 392.525544 55.429637 
L 393.411964 54.980673 
L 392.986704 54.5293 
L 390.349004 54.108881 
L 380.532389 53.569911 
L 380.70555 53.568 
L 381.347867 53.805284 
L 383.642315 54.295564 
L 384.677371 55.017128 
L 382.385577 55.91231 
L 380.807932 56.89519 
L 381.962838 57.866441 
L 386.669162 58.732276 
L 398.358655 59.907124 
L 397.819541 60.197628 
L 385.286307 60.439346 
L 378.351137 60.562325 
L 374.124079 60.796033 
L 373.615054 61.191078 
L 374.285788 61.759496 
L 373.658689 62.473879 
L 372.655556 63.275904 
L 373.226042 64.091375 
L 375.981188 64.848544 
L 382.418108 66.005943 
L 381.634756 66.393065 
L 377.816736 66.69416 
L 368.362567 67.262989 
L 366.126122 67.636173 
L 365.484375 68.110157 
L 364.846983 69.338693 
L 364.841314 70.031394 
L 365.650883 70.71907 
L 368.475687 71.937137 
L 368.708928 72.435175 
L 367.439135 72.867685 
L 360.185173 74.041624 
L 358.766456 74.485369 
L 357.954985 74.98239 
L 357.478577 75.530654 
L 357.223253 76.117199 
L 357.225455 76.722093 
L 358.029317 78.446273 
L 357.750954 78.951492 
L 356.912494 79.4227 
L 351.616112 81.231219 
L 350.754893 81.728529 
L 350.139594 82.254045 
L 349.725622 82.80218 
L 349.490962 83.362716 
L 349.256022 85.001562 
L 348.90213 85.507481 
L 348.231279 85.992223 
L 346.159227 86.92828 
L 344.078939 87.883855 
L 343.289899 88.386118 
L 342.686631 88.905779 
L 341.954069 89.975984 
L 341.498036 91.036065 
L 341.142483 91.547565 
L 340.591338 92.045206 
L 338.966001 93.01425 
L 336.32833 94.486573 
L 334.988705 95.511916 
L 332.880791 97.571036 
L 331.440464 98.566477 
L 327.494444 101.052664 
L 321.491629 105.582346 
L 317.895088 108.078447 
L 312.519444 112.062353 
L 309.580945 114.04557 
L 304.290608 117.994286 
L 302.022351 119.46689 
L 300.133845 120.959684 
L 298.305144 122.434077 
L 295.327109 124.37064 
L 293.218635 125.843606 
L 289.368721 128.788541 
L 283.772935 132.695675 
L 280.584312 135.151935 
L 277.450824 137.58712 
L 274.913479 139.55008 
L 270.782218 142.963517 
L 268.149168 144.908626 
L 263.450477 148.788016 
L 260.889426 150.719988 
L 256.773002 154.097053 
L 253.096114 156.982097 
L 245.866209 162.739457 
L 242.236684 165.614117 
L 239.262221 167.994688 
L 236.201376 170.377405 
L 232.671862 173.22375 
L 222.793781 180.782179 
L 214.807262 186.874663 
L 210.459151 190.148367 
L 208.042477 192.008904 
L 204.257548 194.807873 
L 201.250786 197.134672 
L 197.49699 199.931461 
L 194.44521 202.257035 
L 190.780672 205.049393 
L 187.034849 207.830374 
L 177.460256 215.216327 
L 161.33963 228.465545 
L 159.151219 230.276739 
L 156.331943 232.54671 
L 153.673733 234.804139 
L 150.858749 237.062354 
L 148.226041 239.3082 
L 145.402531 241.555747 
L 142.811807 243.791455 
L 139.967749 246.02823 
L 137.417252 248.254882 
L 134.529298 250.483921 
L 132.040242 252.706044 
L 128.612585 255.374176 
L 126.685682 257.147466 
L 123.281393 259.81055 
L 121.395798 261.581316 
L 117.518345 264.682932 
L 116.140917 266.004567 
L 112.216266 269.097711 
L 110.922613 270.415957 
L 109.121731 271.723208 
L 107.391685 273.049458 
L 105.215069 275.236641 
L 102.126453 277.424566 
L 100.110377 279.602764 
L 96.872132 281.778346 
L 96.16707 282.660621 
L 95.55011 283.52319 
L 94.412421 284.371195 
L 92.134938 285.670118 
L 91.574813 286.113984 
L 91.205094 286.55837 
L 90.596872 287.855606 
L 90.131492 288.273998 
L 88.510346 289.114108 
L 86.741754 289.988192 
L 86.168265 290.437185 
L 85.921148 290.886193 
L 85.999526 292.169282 
L 85.435471 292.575309 
L 81.859604 293.846515 
L 81.295027 294.298147 
L 82.220458 294.736203 
L 86.093605 295.11832 
L 94.209973 295.388772 
L 103.787661 295.488 
L 104.437316 295.365418 
L 99.670102 294.992781 
L 95.319582 294.374259 
L 95.516294 293.550748 
L 97.543088 292.596024 
L 95.900371 291.60519 
L 89.27064 290.677296 
L 74.274103 289.312276 
L 73.832727 288.934773 
L 81.113273 288.72801 
L 104.344851 288.352245 
L 106.060973 288.035453 
L 105.027839 287.54381 
L 104.397283 286.886893 
L 105.060708 286.110905 
L 104.015311 285.285981 
L 99.609066 284.488579 
L 89.287249 283.208734 
L 88.864316 282.769821 
L 92.729602 282.439466 
L 105.057714 281.892168 
L 109.278593 281.559722 
L 111.22838 281.132403 
L 111.811467 280.598097 
L 112.034656 279.970526 
L 111.664609 279.283795 
L 109.960354 278.582542 
L 104.326504 277.30114 
L 102.984861 276.76956 
L 103.733568 276.312289 
L 106.329178 275.909305 
L 113.19158 275.143382 
L 115.730277 274.72088 
L 117.306715 274.246506 
L 118.127117 273.716938 
L 118.373654 273.141224 
L 118.059941 272.537483 
L 117.224677 271.928046 
L 115.241664 270.771959 
L 114.987383 270.248974 
L 115.577364 269.764066 
L 116.943833 269.308187 
L 122.4944 267.965158 
L 123.852574 267.480042 
L 124.775861 266.965096 
L 125.284848 266.423356 
L 125.403076 265.863548 
L 125.195646 265.297877 
L 124.479055 264.198053 
L 124.468395 263.68054 
L 124.950268 263.186994 
L 125.941128 262.712253 
L 131.345802 260.807073 
L 132.152657 260.291911 
L 132.615749 259.760424 
L 132.774735 259.219687 
L 132.726185 257.626317 
L 133.113024 257.122633 
L 133.852036 256.632318 
L 139.107998 254.178231 
L 139.741596 253.661598 
L 140.537501 252.617394 
L 141.34538 251.587697 
L 141.96458 251.08379 
L 143.662877 250.091831 
L 146.405644 248.601633 
L 147.832241 247.589443 
L 150.921484 245.050051 
L 154.653228 242.552378 
L 157.616596 240.544797 
L 163.041461 236.550977 
L 165.476969 235.060945 
L 166.774335 234.054916 
L 169.054116 232.064131 
L 170.634455 231.08933 
L 173.197674 229.617706 
L 174.532109 228.619583 
L 176.721596 226.634974 
L 178.22575 225.663867 
L 181.486059 223.712202 
L 183.321278 222.224917 
L 185.200359 220.748963 
L 193.057604 215.355724 
L 194.936188 213.876081 
L 197.356278 211.918248 
L 200.798296 209.464608 
L 202.359768 207.979234 
L 203.433368 207.001426 
L 204.792529 206.034174 
L 207.685592 204.086811 
L 209.240072 202.608941 
L 210.277015 201.634185 
L 211.585866 200.670428 
L 214.400667 198.73805 
L 219.804632 194.381769 
L 222.203433 192.44836 
L 224.658898 190.520685 
L 227.124851 188.590798 
L 229.458897 186.669414 
L 233.270935 183.785804 
L 235.480208 181.86773 
L 239.922378 178.522167 
L 241.536658 177.088924 
L 241.536658 177.088924 
" clip-path="url(#p03b8c56d86)" style="fill: none; stroke: #1f77b4; stroke-width: 1.5; stroke-linecap: square"/>
   </g>
   <g id="line2d_38">
    <path d="M 236.666582 177.029613 
L 240.431656 174.180022 
L 243.599453 171.80344 
L 246.085405 169.912761 
L 249.154243 167.545937 
L 252.339619 165.193857 
L 255.342911 162.836665 
L 259.167902 160.028928 
L 262.224201 157.68201 
L 265.426463 155.349542 
L 269.121968 152.538958 
L 272.227897 150.205193 
L 275.361505 147.865947 
L 278.454913 145.533033 
L 281.535442 143.199312 
L 284.607787 140.87429 
L 287.017895 139.010983 
L 290.729 136.236964 
L 293.086516 134.382541 
L 297.411032 131.161465 
L 299.830521 129.32011 
L 302.947101 127.031767 
L 305.915287 124.734855 
L 309.019637 122.456328 
L 311.981441 120.164902 
L 315.086897 117.893907 
L 317.995269 115.611981 
L 321.099933 113.352292 
L 323.93925 111.080561 
L 327.603692 108.3803 
L 329.865281 106.571255 
L 333.567053 103.886308 
L 335.808712 102.083515 
L 340.042616 98.95923 
L 342.33411 97.165961 
L 345.430335 94.946714 
L 348.220088 92.706298 
L 351.370859 90.49421 
L 354.770524 87.815789 
L 357.249189 86.049134 
L 359.973262 83.815185 
L 363.682392 81.170213 
L 365.765471 79.385344 
L 369.483513 76.753465 
L 371.536996 74.973809 
L 375.770784 71.916061 
L 377.269791 70.584887 
L 379.314719 69.290239 
L 380.612079 68.427569 
L 381.582594 67.545539 
L 382.981497 66.215165 
L 384.334418 65.353626 
L 386.452259 64.072765 
L 387.368333 63.191601 
L 388.113216 62.299231 
L 389.266461 61.429603 
L 392.397882 59.741013 
L 392.864855 59.30241 
L 393.325041 58.401482 
L 393.561574 57.952546 
L 394.005499 57.514873 
L 394.751956 57.092111 
L 397.958298 55.861174 
L 398.487273 55.429637 
L 398.224388 54.980673 
L 396.992283 54.5293 
L 394.819963 54.108881 
L 391.971936 53.769312 
L 388.91476 53.569911 
L 386.224126 53.568 
L 384.451575 53.805284 
L 383.984688 54.295564 
L 384.937648 55.017128 
L 387.103701 55.91231 
L 395.14201 58.732276 
L 396.128872 59.422959 
L 395.561631 59.907124 
L 393.48281 60.197628 
L 386.523771 60.439346 
L 382.957058 60.562325 
L 380.189881 60.796033 
L 378.626208 61.191078 
L 378.366934 61.759496 
L 379.203733 62.473879 
L 383.372826 64.848544 
L 383.652608 65.494444 
L 382.947045 66.005943 
L 381.35508 66.393065 
L 373.119489 67.636173 
L 372.219714 68.110157 
L 371.963772 68.685316 
L 372.162038 69.338693 
L 372.806586 70.71907 
L 372.744363 71.362735 
L 372.237056 71.937137 
L 371.29324 72.435175 
L 368.614666 73.259046 
L 366.084534 74.041624 
L 365.212819 74.485369 
L 364.644033 74.98239 
L 364.317486 75.530654 
L 363.636536 77.323476 
L 363.147778 77.902327 
L 362.437811 78.446273 
L 360.471695 79.4227 
L 357.330976 80.761547 
L 356.540787 81.231219 
L 355.932333 81.728529 
L 355.130094 82.80218 
L 354.417037 83.923325 
L 353.909286 84.47239 
L 353.242433 85.001562 
L 351.471204 85.992223 
L 348.601731 87.399329 
L 347.252537 88.386118 
L 346.371746 89.438196 
L 345.489188 90.510895 
L 344.171 91.547565 
L 341.485637 93.01425 
L 339.816907 93.987288 
L 338.566291 94.995571 
L 336.534843 97.063971 
L 335.172237 98.071316 
L 330.491183 101.052664 
L 328.748439 102.577313 
L 326.990671 104.089906 
L 324.79145 105.582346 
L 321.826325 107.576192 
L 320.123828 109.084545 
L 318.361328 110.58323 
L 316.111418 112.062353 
L 313.91546 113.546271 
L 312.217825 115.046906 
L 310.485727 116.533246 
L 308.301994 117.994286 
L 306.129616 119.46689 
L 303.727595 121.454852 
L 301.843135 122.918718 
L 295.78825 127.324481 
L 291.307959 130.732924 
L 287.17258 133.679997 
L 283.439011 136.613891 
L 279.33217 139.55008 
L 276.303791 141.997728 
L 271.648533 145.399084 
L 268.585749 147.82883 
L 263.375404 151.691009 
L 256.943908 156.500589 
L 245.459123 165.1349 
L 241.616702 167.994688 
L 237.243355 171.330326 
L 209.160697 192.473093 
L 200.479842 198.997142 
L 196.117368 202.257035 
L 186.99287 209.224148 
L 172.386565 220.256459 
L 169.335023 222.540502 
L 165.699106 225.275066 
L 162.122775 228.00998 
L 135.935771 247.811888 
L 133.534913 249.588609 
L 130.716733 251.822017 
L 127.079464 254.480112 
L 124.83091 256.26434 
L 120.649177 259.363965 
L 118.334712 261.141415 
L 115.3111 263.346457 
L 113.123321 265.125861 
L 108.954141 268.207425 
L 107.377365 269.540135 
L 102.661839 273.049458 
L 101.013531 274.370819 
L 97.887692 276.540402 
L 95.37129 278.743072 
L 92.133692 280.896251 
L 89.693959 283.094797 
L 86.311318 285.230786 
L 85.483461 286.113984 
L 84.672203 286.998617 
L 83.378618 287.855606 
L 80.98309 289.114108 
L 80.418186 289.546027 
L 80.052204 289.988192 
L 79.298177 291.327413 
L 78.705636 291.755251 
L 76.702799 292.575309 
L 75.597728 292.983895 
L 74.810165 293.405944 
L 74.670955 293.846515 
L 75.430418 294.298147 
L 77.167446 294.736203 
L 79.733952 295.11832 
L 82.755594 295.388772 
L 85.696009 295.488 
L 87.97326 295.365418 
L 89.101245 294.992781 
L 88.819869 294.374259 
L 87.177403 293.550748 
L 81.52231 291.60519 
L 78.849994 290.677296 
L 77.192831 289.895936 
L 77.004713 289.312276 
L 78.414904 288.934773 
L 81.197898 288.72801 
L 91.865053 288.352245 
L 94.03826 288.035453 
L 94.882735 287.54381 
L 94.469478 286.886893 
L 93.158628 286.110905 
L 90.061708 284.488579 
L 89.341293 283.783338 
L 89.602256 283.208734 
L 90.854379 282.769821 
L 92.868639 282.439466 
L 97.576083 281.892168 
L 99.45431 281.559722 
L 100.663183 281.132403 
L 101.164136 280.598097 
L 101.095443 279.970526 
L 100.334367 278.582542 
L 100.213194 277.910663 
L 100.523335 277.30114 
L 101.307083 276.76956 
L 102.48581 276.312289 
L 106.622981 275.143382 
L 107.63658 274.72088 
L 108.331136 274.246506 
L 108.741439 273.716938 
L 109.727983 271.334219 
L 110.329098 270.771959 
L 111.150572 270.248974 
L 113.251756 269.308187 
L 115.398197 268.424109 
L 116.989921 267.480042 
L 117.515024 266.965096 
L 118.22107 265.863548 
L 118.988539 264.739179 
L 119.573528 264.198053 
L 121.24501 263.186994 
L 125.06473 261.302688 
L 126.240608 260.291911 
L 127.992795 258.145574 
L 129.495414 257.122633 
L 133.102151 255.181971 
L 134.397735 254.178231 
L 137.000229 251.587697 
L 138.489425 250.586055 
L 141.717416 248.601633 
L 143.657991 247.079703 
L 145.970294 245.050051 
L 148.128226 243.549355 
L 151.180062 241.551767 
L 152.378198 240.544797 
L 154.563099 238.530027 
L 156.005831 237.5368 
L 159.137869 235.560591 
L 160.344024 234.558571 
L 162.523958 232.555777 
L 164.707285 231.08933 
L 166.914525 229.617706 
L 169.30298 227.620403 
L 171.200557 226.148285 
L 177.293502 221.730615 
L 183.912911 216.834097 
L 185.987859 215.355724 
L 190.348609 211.918248 
L 193.213119 209.959495 
L 198.218185 206.034174 
L 200.293326 204.577743 
L 205.967174 200.189711 
L 209.110192 197.76291 
L 212.393569 195.344567 
L 220.746554 189.073557 
L 223.940065 186.669414 
L 227.160721 184.268528 
L 230.313078 181.86773 
L 233.527296 179.483026 
L 236.585353 177.088924 
L 236.585353 177.088924 
" clip-path="url(#p03b8c56d86)" style="fill: none; stroke: #ff7f0e; stroke-opacity: 0.5; stroke-width: 1.5; stroke-linecap: square"/>
   </g>
   <g id="patch_3">
    <path d="M 57.6 307.584 
L 57.6 41.472 
" style="fill: none; stroke: #000000; stroke-width: 0.8; stroke-linejoin: miter; stroke-linecap: square"/>
   </g>
   <g id="patch_4">
    <path d="M 414.72 307.584 
L 414.72 41.472 
" style="fill: none; stroke: #000000; stroke-width: 0.8; stroke-linejoin: miter; stroke-linecap: square"/>
   </g>
   <g id="patch_5">
    <path d="M 57.6 307.584 
L 414.72 307.584 
" style="fill: none; stroke: #000000; stroke-width: 0.8; stroke-linejoin: miter; stroke-linecap: square"/>
   </g>
   <g id="patch_6">
    <path d="M 57.6 41.472 
L 414.72 41.472 
" style="fill: none; stroke: #000000; stroke-width: 0.8; stroke-linejoin: miter; stroke-linecap: square"/>
   </g>
   <g id="text_21">
    <!-- Compare - Epoch 750 -->
    <g transform="translate(171.234375 35.472) scale(0.12 -0.12)">
     <defs>
      <path id="DejaVuSans-43" d="M 4122 4306 
L 4122 3641 
Q 3803 3938 3442 4084 
Q 3081 4231 2675 4231 
Q 1875 4231 1450 3742 
Q 1025 3253 1025 2328 
Q 1025 1406 1450 917 
Q 1875 428 2675 428 
Q 3081 428 3442 575 
Q 3803 722 4122 1019 
L 4122 359 
Q 3791 134 3420 21 
Q 3050 -91 2638 -91 
Q 1578 -91 968 557 
Q 359 1206 359 2328 
Q 359 3453 968 4101 
Q 1578 4750 2638 4750 
Q 3056 4750 3426 4639 
Q 3797 4528 4122 4306 
z
" transform="scale(0.015625)"/>
      <path id="DejaVuSans-6f" d="M 1959 3097 
Q 1497 3097 1228 2736 
Q 959 2375 959 1747 
Q 959 1119 1226 758 
Q 1494 397 1959 397 
Q 2419 397 2687 759 
Q 2956 1122 2956 1747 
Q 2956 2369 2687 2733 
Q 2419 3097 1959 3097 
z
M 1959 3584 
Q 2709 3584 3137 3096 
Q 3566 2609 3566 1747 
Q 3566 888 3137 398 
Q 2709 -91 1959 -91 
Q 1206 -91 779 398 
Q 353 888 353 1747 
Q 353 2609 779 3096 
Q 1206 3584 1959 3584 
z
" transform="scale(0.015625)"/>
      <path id="DejaVuSans-6d" d="M 3328 2828 
Q 3544 3216 3844 3400 
Q 4144 3584 4550 3584 
Q 5097 3584 5394 3201 
Q 5691 2819 5691 2113 
L 5691 0 
L 5113 0 
L 5113 2094 
Q 5113 2597 4934 2840 
Q 4756 3084 4391 3084 
Q 3944 3084 3684 2787 
Q 3425 2491 3425 1978 
L 3425 0 
L 2847 0 
L 2847 2094 
Q 2847 2600 2669 2842 
Q 2491 3084 2119 3084 
Q 1678 3084 1418 2786 
Q 1159 2488 1159 1978 
L 1159 0 
L 581 0 
L 581 3500 
L 1159 3500 
L 1159 2956 
Q 1356 3278 1631 3431 
Q 1906 3584 2284 3584 
Q 2666 3584 2933 3390 
Q 3200 3197 3328 2828 
z
" transform="scale(0.015625)"/>
      <path id="DejaVuSans-70" d="M 1159 525 
L 1159 -1331 
L 581 -1331 
L 581 3500 
L 1159 3500 
L 1159 2969 
Q 1341 3281 1617 3432 
Q 1894 3584 2278 3584 
Q 2916 3584 3314 3078 
Q 3713 2572 3713 1747 
Q 3713 922 3314 415 
Q 2916 -91 2278 -91 
Q 1894 -91 1617 61 
Q 1341 213 1159 525 
z
M 3116 1747 
Q 3116 2381 2855 2742 
Q 2594 3103 2138 3103 
Q 1681 3103 1420 2742 
Q 1159 2381 1159 1747 
Q 1159 1113 1420 752 
Q 1681 391 2138 391 
Q 2594 391 2855 752 
Q 3116 1113 3116 1747 
z
" transform="scale(0.015625)"/>
      <path id="DejaVuSans-72" d="M 2631 2963 
Q 2534 3019 2420 3045 
Q 2306 3072 2169 3072 
Q 1681 3072 1420 2755 
Q 1159 2438 1159 1844 
L 1159 0 
L 581 0 
L 581 3500 
L 1159 3500 
L 1159 2956 
Q 1341 3275 1631 3429 
Q 1922 3584 2338 3584 
Q 2397 3584 2469 3576 
Q 2541 3569 2628 3553 
L 2631 2963 
z
" transform="scale(0.015625)"/>
      <path id="DejaVuSans-20" transform="scale(0.015625)"/>
      <path id="DejaVuSans-2d" d="M 313 2009 
L 1997 2009 
L 1997 1497 
L 313 1497 
L 313 2009 
z
" transform="scale(0.015625)"/>
      <path id="DejaVuSans-45" d="M 628 4666 
L 3578 4666 
L 3578 4134 
L 1259 4134 
L 1259 2753 
L 3481 2753 
L 3481 2222 
L 1259 2222 
L 1259 531 
L 3634 531 
L 3634 0 
L 628 0 
L 628 4666 
z
" transform="scale(0.015625)"/>
      <path id="DejaVuSans-63" d="M 3122 3366 
L 3122 2828 
Q 2878 2963 2633 3030 
Q 2388 3097 2138 3097 
Q 1578 3097 1268 2742 
Q 959 2388 959 1747 
Q 959 1106 1268 751 
Q 1578 397 2138 397 
Q 2388 397 2633 464 
Q 2878 531 3122 666 
L 3122 134 
Q 2881 22 2623 -34 
Q 2366 -91 2075 -91 
Q 1284 -91 818 406 
Q 353 903 353 1747 
Q 353 2603 823 3093 
Q 1294 3584 2113 3584 
Q 2378 3584 2631 3529 
Q 2884 3475 3122 3366 
z
" transform="scale(0.015625)"/>
      <path id="DejaVuSans-68" d="M 3513 2113 
L 3513 0 
L 2938 0 
L 2938 2094 
Q 2938 2591 2744 2837 
Q 2550 3084 2163 3084 
Q 1697 3084 1428 2787 
Q 1159 2491 1159 1978 
L 1159 0 
L 581 0 
L 581 4863 
L 1159 4863 
L 1159 2956 
Q 1366 3272 1645 3428 
Q 1925 3584 2291 3584 
Q 2894 3584 3203 3211 
Q 3513 2838 3513 2113 
z
" transform="scale(0.015625)"/>
     </defs>
     <use xlink:href="#DejaVuSans-43"/>
     <use xlink:href="#DejaVuSans-6f" transform="translate(69.824219 0)"/>
     <use xlink:href="#DejaVuSans-6d" transform="translate(131.005859 0)"/>
     <use xlink:href="#DejaVuSans-70" transform="translate(228.417969 0)"/>
     <use xlink:href="#DejaVuSans-61" transform="translate(291.894531 0)"/>
     <use xlink:href="#DejaVuSans-72" transform="translate(353.173828 0)"/>
     <use xlink:href="#DejaVuSans-65" transform="translate(392.037109 0)"/>
     <use xlink:href="#DejaVuSans-20" transform="translate(453.560547 0)"/>
     <use xlink:href="#DejaVuSans-2d" transform="translate(485.347656 0)"/>
     <use xlink:href="#DejaVuSans-20" transform="translate(521.431641 0)"/>
     <use xlink:href="#DejaVuSans-45" transform="translate(553.21875 0)"/>
     <use xlink:href="#DejaVuSans-70" transform="translate(616.402344 0)"/>
     <use xlink:href="#DejaVuSans-6f" transform="translate(679.878906 0)"/>
     <use xlink:href="#DejaVuSans-63" transform="translate(741.060547 0)"/>
     <use xlink:href="#DejaVuSans-68" transform="translate(796.041016 0)"/>
     <use xlink:href="#DejaVuSans-20" transform="translate(859.419922 0)"/>
     <use xlink:href="#DejaVuSans-37" transform="translate(891.207031 0)"/>
     <use xlink:href="#DejaVuSans-35" transform="translate(954.830078 0)"/>
     <use xlink:href="#DejaVuSans-30" transform="translate(1018.453125 0)"/>
    </g>
   </g>
   <g id="legend_1">
    <g id="patch_7">
     <path d="M 64.6 78.82825 
L 181.128125 78.82825 
Q 183.128125 78.82825 183.128125 76.82825 
L 183.128125 48.472 
Q 183.128125 46.472 181.128125 46.472 
L 64.6 46.472 
Q 62.6 46.472 62.6 48.472 
L 62.6 76.82825 
Q 62.6 78.82825 64.6 78.82825 
z
" style="fill: #ffffff; opacity: 0.8; stroke: #cccccc; stroke-linejoin: miter"/>
    </g>
    <g id="line2d_39">
     <path d="M 66.6 54.570437 
L 76.6 54.570437 
L 86.6 54.570437 
" style="fill: none; stroke: #1f77b4; stroke-width: 1.5; stroke-linecap: square"/>
    </g>
    <g id="text_22">
     <!-- Pred: Sample 1 -->
     <g transform="translate(94.6 58.070437) scale(0.1 -0.1)">
      <defs>
       <path id="DejaVuSans-50" d="M 1259 4147 
L 1259 2394 
L 2053 2394 
Q 2494 2394 2734 2622 
Q 2975 2850 2975 3272 
Q 2975 3691 2734 3919 
Q 2494 4147 2053 4147 
L 1259 4147 
z
M 628 4666 
L 2053 4666 
Q 2838 4666 3239 4311 
Q 3641 3956 3641 3272 
Q 3641 2581 3239 2228 
Q 2838 1875 2053 1875 
L 1259 1875 
L 1259 0 
L 628 0 
L 628 4666 
z
" transform="scale(0.015625)"/>
       <path id="DejaVuSans-3a" d="M 750 794 
L 1409 794 
L 1409 0 
L 750 0 
L 750 794 
z
M 750 3309 
L 1409 3309 
L 1409 2516 
L 750 2516 
L 750 3309 
z
" transform="scale(0.015625)"/>
       <path id="DejaVuSans-53" d="M 3425 4513 
L 3425 3897 
Q 3066 4069 2747 4153 
Q 2428 4238 2131 4238 
Q 1616 4238 1336 4038 
Q 1056 3838 1056 3469 
Q 1056 3159 1242 3001 
Q 1428 2844 1947 2747 
L 2328 2669 
Q 3034 2534 3370 2195 
Q 3706 1856 3706 1288 
Q 3706 609 3251 259 
Q 2797 -91 1919 -91 
Q 1588 -91 1214 -16 
Q 841 59 441 206 
L 441 856 
Q 825 641 1194 531 
Q 1563 422 1919 422 
Q 2459 422 2753 634 
Q 3047 847 3047 1241 
Q 3047 1584 2836 1778 
Q 2625 1972 2144 2069 
L 1759 2144 
Q 1053 2284 737 2584 
Q 422 2884 422 3419 
Q 422 4038 858 4394 
Q 1294 4750 2059 4750 
Q 2388 4750 2728 4690 
Q 3069 4631 3425 4513 
z
" transform="scale(0.015625)"/>
      </defs>
      <use xlink:href="#DejaVuSans-50"/>
      <use xlink:href="#DejaVuSans-72" transform="translate(58.552734 0)"/>
      <use xlink:href="#DejaVuSans-65" transform="translate(97.416016 0)"/>
      <use xlink:href="#DejaVuSans-64" transform="translate(158.939453 0)"/>
      <use xlink:href="#DejaVuSans-3a" transform="translate(222.416016 0)"/>
      <use xlink:href="#DejaVuSans-20" transform="translate(256.107422 0)"/>
      <use xlink:href="#DejaVuSans-53" transform="translate(287.894531 0)"/>
      <use xlink:href="#DejaVuSans-61" transform="translate(351.371094 0)"/>
      <use xlink:href="#DejaVuSans-6d" transform="translate(412.650391 0)"/>
      <use xlink:href="#DejaVuSans-70" transform="translate(510.0625 0)"/>
      <use xlink:href="#DejaVuSans-6c" transform="translate(573.539062 0)"/>
      <use xlink:href="#DejaVuSans-65" transform="translate(601.322266 0)"/>
      <use xlink:href="#DejaVuSans-20" transform="translate(662.845703 0)"/>
      <use xlink:href="#DejaVuSans-31" transform="translate(694.632812 0)"/>
     </g>
    </g>
    <g id="line2d_40">
     <path d="M 66.6 69.248562 
L 76.6 69.248562 
L 86.6 69.248562 
" style="fill: none; stroke: #ff7f0e; stroke-opacity: 0.5; stroke-width: 1.5; stroke-linecap: square"/>
    </g>
    <g id="text_23">
     <!-- Target: Sample 1 -->
     <g transform="translate(94.6 72.748562) scale(0.1 -0.1)">
      <defs>
       <path id="DejaVuSans-54" d="M -19 4666 
L 3928 4666 
L 3928 4134 
L 2272 4134 
L 2272 0 
L 1638 0 
L 1638 4134 
L -19 4134 
L -19 4666 
z
" transform="scale(0.015625)"/>
       <path id="DejaVuSans-67" d="M 2906 1791 
Q 2906 2416 2648 2759 
Q 2391 3103 1925 3103 
Q 1463 3103 1205 2759 
Q 947 2416 947 1791 
Q 947 1169 1205 825 
Q 1463 481 1925 481 
Q 2391 481 2648 825 
Q 2906 1169 2906 1791 
z
M 3481 434 
Q 3481 -459 3084 -895 
Q 2688 -1331 1869 -1331 
Q 1566 -1331 1297 -1286 
Q 1028 -1241 775 -1147 
L 775 -588 
Q 1028 -725 1275 -790 
Q 1522 -856 1778 -856 
Q 2344 -856 2625 -561 
Q 2906 -266 2906 331 
L 2906 616 
Q 2728 306 2450 153 
Q 2172 0 1784 0 
Q 1141 0 747 490 
Q 353 981 353 1791 
Q 353 2603 747 3093 
Q 1141 3584 1784 3584 
Q 2172 3584 2450 3431 
Q 2728 3278 2906 2969 
L 2906 3500 
L 3481 3500 
L 3481 434 
z
" transform="scale(0.015625)"/>
       <path id="DejaVuSans-74" d="M 1172 4494 
L 1172 3500 
L 2356 3500 
L 2356 3053 
L 1172 3053 
L 1172 1153 
Q 1172 725 1289 603 
Q 1406 481 1766 481 
L 2356 481 
L 2356 0 
L 1766 0 
Q 1100 0 847 248 
Q 594 497 594 1153 
L 594 3053 
L 172 3053 
L 172 3500 
L 594 3500 
L 594 4494 
L 1172 4494 
z
" transform="scale(0.015625)"/>
      </defs>
      <use xlink:href="#DejaVuSans-54"/>
      <use xlink:href="#DejaVuSans-61" transform="translate(44.583984 0)"/>
      <use xlink:href="#DejaVuSans-72" transform="translate(105.863281 0)"/>
      <use xlink:href="#DejaVuSans-67" transform="translate(145.226562 0)"/>
      <use xlink:href="#DejaVuSans-65" transform="translate(208.703125 0)"/>
      <use xlink:href="#DejaVuSans-74" transform="translate(270.226562 0)"/>
      <use xlink:href="#DejaVuSans-3a" transform="translate(309.435547 0)"/>
      <use xlink:href="#DejaVuSans-20" transform="translate(343.126953 0)"/>
      <use xlink:href="#DejaVuSans-53" transform="translate(374.914062 0)"/>
      <use xlink:href="#DejaVuSans-61" transform="translate(438.390625 0)"/>
      <use xlink:href="#DejaVuSans-6d" transform="translate(499.669922 0)"/>
      <use xlink:href="#DejaVuSans-70" transform="translate(597.082031 0)"/>
      <use xlink:href="#DejaVuSans-6c" transform="translate(660.558594 0)"/>
      <use xlink:href="#DejaVuSans-65" transform="translate(688.341797 0)"/>
      <use xlink:href="#DejaVuSans-20" transform="translate(749.865234 0)"/>
      <use xlink:href="#DejaVuSans-31" transform="translate(781.652344 0)"/>
     </g>
    </g>
   </g>
  </g>
 </g>
 <defs>
  <clipPath id="p03b8c56d86">
   <rect x="57.6" y="41.472" width="357.12" height="266.112"/>
  </clipPath>
 </defs>
</svg>
