<?xml version="1.0" encoding="utf-8" standalone="no"?>
<!DOCTYPE svg PUBLIC "-//W3C//DTD SVG 1.1//EN"
  "http://www.w3.org/Graphics/SVG/1.1/DTD/svg11.dtd">
<svg xmlns:xlink="http://www.w3.org/1999/xlink" width="460.8pt" height="345.6pt" viewBox="0 0 460.8 345.6" xmlns="http://www.w3.org/2000/svg" version="1.1">
 <metadata>
  <rdf:RDF xmlns:dc="http://purl.org/dc/elements/1.1/" xmlns:cc="http://creativecommons.org/ns#" xmlns:rdf="http://www.w3.org/1999/02/22-rdf-syntax-ns#">
   <cc:Work>
    <dc:type rdf:resource="http://purl.org/dc/dcmitype/StillImage"/>
    <dc:date>2025-05-30T20:43:43.029375</dc:date>
    <dc:format>image/svg+xml</dc:format>
    <dc:creator>
     <cc:Agent>
      <dc:title>Matplotlib v3.10.3, https://matplotlib.org/</dc:title>
     </cc:Agent>
    </dc:creator>
   </cc:Work>
  </rdf:RDF>
 </metadata>
 <defs>
  <style type="text/css">*{stroke-linejoin: round; stroke-linecap: butt}</style>
 </defs>
 <g id="figure_1">
  <g id="patch_1">
   <path d="M 0 345.6 
L 460.8 345.6 
L 460.8 0 
L 0 0 
z
" style="fill: #ffffff"/>
  </g>
  <g id="axes_1">
   <g id="patch_2">
    <path d="M 57.6 307.584 
L 414.72 307.584 
L 414.72 41.472 
L 57.6 41.472 
z
" style="fill: #ffffff"/>
   </g>
   <g id="matplotlib.axis_1">
    <g id="xtick_1">
     <g id="line2d_1">
      <path d="M 76.007451 307.584 
L 76.007451 41.472 
" clip-path="url(#p6e01cc831e)" style="fill: none; stroke: #b0b0b0; stroke-opacity: 0.5; stroke-width: 0.8; stroke-linecap: square"/>
     </g>
     <g id="line2d_2">
      <defs>
       <path id="m80d3a9acb5" d="M 0 0 
L 0 3.5 
" style="stroke: #000000; stroke-width: 0.8"/>
      </defs>
      <g>
       <use xlink:href="#m80d3a9acb5" x="76.007451" y="307.584" style="stroke: #000000; stroke-width: 0.8"/>
      </g>
     </g>
     <g id="text_1">
      <!-- −1.00 -->
      <g transform="translate(60.684794 322.182437) scale(0.1 -0.1)">
       <defs>
        <path id="DejaVuSans-2212" d="M 678 2272 
L 4684 2272 
L 4684 1741 
L 678 1741 
L 678 2272 
z
" transform="scale(0.015625)"/>
        <path id="DejaVuSans-31" d="M 794 531 
L 1825 531 
L 1825 4091 
L 703 3866 
L 703 4441 
L 1819 4666 
L 2450 4666 
L 2450 531 
L 3481 531 
L 3481 0 
L 794 0 
L 794 531 
z
" transform="scale(0.015625)"/>
        <path id="DejaVuSans-2e" d="M 684 794 
L 1344 794 
L 1344 0 
L 684 0 
L 684 794 
z
" transform="scale(0.015625)"/>
        <path id="DejaVuSans-30" d="M 2034 4250 
Q 1547 4250 1301 3770 
Q 1056 3291 1056 2328 
Q 1056 1369 1301 889 
Q 1547 409 2034 409 
Q 2525 409 2770 889 
Q 3016 1369 3016 2328 
Q 3016 3291 2770 3770 
Q 2525 4250 2034 4250 
z
M 2034 4750 
Q 2819 4750 3233 4129 
Q 3647 3509 3647 2328 
Q 3647 1150 3233 529 
Q 2819 -91 2034 -91 
Q 1250 -91 836 529 
Q 422 1150 422 2328 
Q 422 3509 836 4129 
Q 1250 4750 2034 4750 
z
" transform="scale(0.015625)"/>
       </defs>
       <use xlink:href="#DejaVuSans-2212"/>
       <use xlink:href="#DejaVuSans-31" transform="translate(83.789062 0)"/>
       <use xlink:href="#DejaVuSans-2e" transform="translate(147.412109 0)"/>
       <use xlink:href="#DejaVuSans-30" transform="translate(179.199219 0)"/>
       <use xlink:href="#DejaVuSans-30" transform="translate(242.822266 0)"/>
      </g>
     </g>
    </g>
    <g id="xtick_2">
     <g id="line2d_3">
      <path d="M 116.009254 307.584 
L 116.009254 41.472 
" clip-path="url(#p6e01cc831e)" style="fill: none; stroke: #b0b0b0; stroke-opacity: 0.5; stroke-width: 0.8; stroke-linecap: square"/>
     </g>
     <g id="line2d_4">
      <g>
       <use xlink:href="#m80d3a9acb5" x="116.009254" y="307.584" style="stroke: #000000; stroke-width: 0.8"/>
      </g>
     </g>
     <g id="text_2">
      <!-- −0.75 -->
      <g transform="translate(100.686598 322.182437) scale(0.1 -0.1)">
       <defs>
        <path id="DejaVuSans-37" d="M 525 4666 
L 3525 4666 
L 3525 4397 
L 1831 0 
L 1172 0 
L 2766 4134 
L 525 4134 
L 525 4666 
z
" transform="scale(0.015625)"/>
        <path id="DejaVuSans-35" d="M 691 4666 
L 3169 4666 
L 3169 4134 
L 1269 4134 
L 1269 2991 
Q 1406 3038 1543 3061 
Q 1681 3084 1819 3084 
Q 2600 3084 3056 2656 
Q 3513 2228 3513 1497 
Q 3513 744 3044 326 
Q 2575 -91 1722 -91 
Q 1428 -91 1123 -41 
Q 819 9 494 109 
L 494 744 
Q 775 591 1075 516 
Q 1375 441 1709 441 
Q 2250 441 2565 725 
Q 2881 1009 2881 1497 
Q 2881 1984 2565 2268 
Q 2250 2553 1709 2553 
Q 1456 2553 1204 2497 
Q 953 2441 691 2322 
L 691 4666 
z
" transform="scale(0.015625)"/>
       </defs>
       <use xlink:href="#DejaVuSans-2212"/>
       <use xlink:href="#DejaVuSans-30" transform="translate(83.789062 0)"/>
       <use xlink:href="#DejaVuSans-2e" transform="translate(147.412109 0)"/>
       <use xlink:href="#DejaVuSans-37" transform="translate(179.199219 0)"/>
       <use xlink:href="#DejaVuSans-35" transform="translate(242.822266 0)"/>
      </g>
     </g>
    </g>
    <g id="xtick_3">
     <g id="line2d_5">
      <path d="M 156.011057 307.584 
L 156.011057 41.472 
" clip-path="url(#p6e01cc831e)" style="fill: none; stroke: #b0b0b0; stroke-opacity: 0.5; stroke-width: 0.8; stroke-linecap: square"/>
     </g>
     <g id="line2d_6">
      <g>
       <use xlink:href="#m80d3a9acb5" x="156.011057" y="307.584" style="stroke: #000000; stroke-width: 0.8"/>
      </g>
     </g>
     <g id="text_3">
      <!-- −0.50 -->
      <g transform="translate(140.688401 322.182437) scale(0.1 -0.1)">
       <use xlink:href="#DejaVuSans-2212"/>
       <use xlink:href="#DejaVuSans-30" transform="translate(83.789062 0)"/>
       <use xlink:href="#DejaVuSans-2e" transform="translate(147.412109 0)"/>
       <use xlink:href="#DejaVuSans-35" transform="translate(179.199219 0)"/>
       <use xlink:href="#DejaVuSans-30" transform="translate(242.822266 0)"/>
      </g>
     </g>
    </g>
    <g id="xtick_4">
     <g id="line2d_7">
      <path d="M 196.01286 307.584 
L 196.01286 41.472 
" clip-path="url(#p6e01cc831e)" style="fill: none; stroke: #b0b0b0; stroke-opacity: 0.5; stroke-width: 0.8; stroke-linecap: square"/>
     </g>
     <g id="line2d_8">
      <g>
       <use xlink:href="#m80d3a9acb5" x="196.01286" y="307.584" style="stroke: #000000; stroke-width: 0.8"/>
      </g>
     </g>
     <g id="text_4">
      <!-- −0.25 -->
      <g transform="translate(180.690204 322.182437) scale(0.1 -0.1)">
       <defs>
        <path id="DejaVuSans-32" d="M 1228 531 
L 3431 531 
L 3431 0 
L 469 0 
L 469 531 
Q 828 903 1448 1529 
Q 2069 2156 2228 2338 
Q 2531 2678 2651 2914 
Q 2772 3150 2772 3378 
Q 2772 3750 2511 3984 
Q 2250 4219 1831 4219 
Q 1534 4219 1204 4116 
Q 875 4013 500 3803 
L 500 4441 
Q 881 4594 1212 4672 
Q 1544 4750 1819 4750 
Q 2544 4750 2975 4387 
Q 3406 4025 3406 3419 
Q 3406 3131 3298 2873 
Q 3191 2616 2906 2266 
Q 2828 2175 2409 1742 
Q 1991 1309 1228 531 
z
" transform="scale(0.015625)"/>
       </defs>
       <use xlink:href="#DejaVuSans-2212"/>
       <use xlink:href="#DejaVuSans-30" transform="translate(83.789062 0)"/>
       <use xlink:href="#DejaVuSans-2e" transform="translate(147.412109 0)"/>
       <use xlink:href="#DejaVuSans-32" transform="translate(179.199219 0)"/>
       <use xlink:href="#DejaVuSans-35" transform="translate(242.822266 0)"/>
      </g>
     </g>
    </g>
    <g id="xtick_5">
     <g id="line2d_9">
      <path d="M 236.014663 307.584 
L 236.014663 41.472 
" clip-path="url(#p6e01cc831e)" style="fill: none; stroke: #b0b0b0; stroke-opacity: 0.5; stroke-width: 0.8; stroke-linecap: square"/>
     </g>
     <g id="line2d_10">
      <g>
       <use xlink:href="#m80d3a9acb5" x="236.014663" y="307.584" style="stroke: #000000; stroke-width: 0.8"/>
      </g>
     </g>
     <g id="text_5">
      <!-- 0.00 -->
      <g transform="translate(224.881851 322.182437) scale(0.1 -0.1)">
       <use xlink:href="#DejaVuSans-30"/>
       <use xlink:href="#DejaVuSans-2e" transform="translate(63.623047 0)"/>
       <use xlink:href="#DejaVuSans-30" transform="translate(95.410156 0)"/>
       <use xlink:href="#DejaVuSans-30" transform="translate(159.033203 0)"/>
      </g>
     </g>
    </g>
    <g id="xtick_6">
     <g id="line2d_11">
      <path d="M 276.016466 307.584 
L 276.016466 41.472 
" clip-path="url(#p6e01cc831e)" style="fill: none; stroke: #b0b0b0; stroke-opacity: 0.5; stroke-width: 0.8; stroke-linecap: square"/>
     </g>
     <g id="line2d_12">
      <g>
       <use xlink:href="#m80d3a9acb5" x="276.016466" y="307.584" style="stroke: #000000; stroke-width: 0.8"/>
      </g>
     </g>
     <g id="text_6">
      <!-- 0.25 -->
      <g transform="translate(264.883654 322.182437) scale(0.1 -0.1)">
       <use xlink:href="#DejaVuSans-30"/>
       <use xlink:href="#DejaVuSans-2e" transform="translate(63.623047 0)"/>
       <use xlink:href="#DejaVuSans-32" transform="translate(95.410156 0)"/>
       <use xlink:href="#DejaVuSans-35" transform="translate(159.033203 0)"/>
      </g>
     </g>
    </g>
    <g id="xtick_7">
     <g id="line2d_13">
      <path d="M 316.018269 307.584 
L 316.018269 41.472 
" clip-path="url(#p6e01cc831e)" style="fill: none; stroke: #b0b0b0; stroke-opacity: 0.5; stroke-width: 0.8; stroke-linecap: square"/>
     </g>
     <g id="line2d_14">
      <g>
       <use xlink:href="#m80d3a9acb5" x="316.018269" y="307.584" style="stroke: #000000; stroke-width: 0.8"/>
      </g>
     </g>
     <g id="text_7">
      <!-- 0.50 -->
      <g transform="translate(304.885457 322.182437) scale(0.1 -0.1)">
       <use xlink:href="#DejaVuSans-30"/>
       <use xlink:href="#DejaVuSans-2e" transform="translate(63.623047 0)"/>
       <use xlink:href="#DejaVuSans-35" transform="translate(95.410156 0)"/>
       <use xlink:href="#DejaVuSans-30" transform="translate(159.033203 0)"/>
      </g>
     </g>
    </g>
    <g id="xtick_8">
     <g id="line2d_15">
      <path d="M 356.020072 307.584 
L 356.020072 41.472 
" clip-path="url(#p6e01cc831e)" style="fill: none; stroke: #b0b0b0; stroke-opacity: 0.5; stroke-width: 0.8; stroke-linecap: square"/>
     </g>
     <g id="line2d_16">
      <g>
       <use xlink:href="#m80d3a9acb5" x="356.020072" y="307.584" style="stroke: #000000; stroke-width: 0.8"/>
      </g>
     </g>
     <g id="text_8">
      <!-- 0.75 -->
      <g transform="translate(344.88726 322.182437) scale(0.1 -0.1)">
       <use xlink:href="#DejaVuSans-30"/>
       <use xlink:href="#DejaVuSans-2e" transform="translate(63.623047 0)"/>
       <use xlink:href="#DejaVuSans-37" transform="translate(95.410156 0)"/>
       <use xlink:href="#DejaVuSans-35" transform="translate(159.033203 0)"/>
      </g>
     </g>
    </g>
    <g id="xtick_9">
     <g id="line2d_17">
      <path d="M 396.021875 307.584 
L 396.021875 41.472 
" clip-path="url(#p6e01cc831e)" style="fill: none; stroke: #b0b0b0; stroke-opacity: 0.5; stroke-width: 0.8; stroke-linecap: square"/>
     </g>
     <g id="line2d_18">
      <g>
       <use xlink:href="#m80d3a9acb5" x="396.021875" y="307.584" style="stroke: #000000; stroke-width: 0.8"/>
      </g>
     </g>
     <g id="text_9">
      <!-- 1.00 -->
      <g transform="translate(384.889063 322.182437) scale(0.1 -0.1)">
       <use xlink:href="#DejaVuSans-31"/>
       <use xlink:href="#DejaVuSans-2e" transform="translate(63.623047 0)"/>
       <use xlink:href="#DejaVuSans-30" transform="translate(95.410156 0)"/>
       <use xlink:href="#DejaVuSans-30" transform="translate(159.033203 0)"/>
      </g>
     </g>
    </g>
    <g id="text_10">
     <!-- Index -->
     <g transform="translate(222.393594 335.860562) scale(0.1 -0.1)">
      <defs>
       <path id="DejaVuSans-49" d="M 628 4666 
L 1259 4666 
L 1259 0 
L 628 0 
L 628 4666 
z
" transform="scale(0.015625)"/>
       <path id="DejaVuSans-6e" d="M 3513 2113 
L 3513 0 
L 2938 0 
L 2938 2094 
Q 2938 2591 2744 2837 
Q 2550 3084 2163 3084 
Q 1697 3084 1428 2787 
Q 1159 2491 1159 1978 
L 1159 0 
L 581 0 
L 581 3500 
L 1159 3500 
L 1159 2956 
Q 1366 3272 1645 3428 
Q 1925 3584 2291 3584 
Q 2894 3584 3203 3211 
Q 3513 2838 3513 2113 
z
" transform="scale(0.015625)"/>
       <path id="DejaVuSans-64" d="M 2906 2969 
L 2906 4863 
L 3481 4863 
L 3481 0 
L 2906 0 
L 2906 525 
Q 2725 213 2448 61 
Q 2172 -91 1784 -91 
Q 1150 -91 751 415 
Q 353 922 353 1747 
Q 353 2572 751 3078 
Q 1150 3584 1784 3584 
Q 2172 3584 2448 3432 
Q 2725 3281 2906 2969 
z
M 947 1747 
Q 947 1113 1208 752 
Q 1469 391 1925 391 
Q 2381 391 2643 752 
Q 2906 1113 2906 1747 
Q 2906 2381 2643 2742 
Q 2381 3103 1925 3103 
Q 1469 3103 1208 2742 
Q 947 2381 947 1747 
z
" transform="scale(0.015625)"/>
       <path id="DejaVuSans-65" d="M 3597 1894 
L 3597 1613 
L 953 1613 
Q 991 1019 1311 708 
Q 1631 397 2203 397 
Q 2534 397 2845 478 
Q 3156 559 3463 722 
L 3463 178 
Q 3153 47 2828 -22 
Q 2503 -91 2169 -91 
Q 1331 -91 842 396 
Q 353 884 353 1716 
Q 353 2575 817 3079 
Q 1281 3584 2069 3584 
Q 2775 3584 3186 3129 
Q 3597 2675 3597 1894 
z
M 3022 2063 
Q 3016 2534 2758 2815 
Q 2500 3097 2075 3097 
Q 1594 3097 1305 2825 
Q 1016 2553 972 2059 
L 3022 2063 
z
" transform="scale(0.015625)"/>
       <path id="DejaVuSans-78" d="M 3513 3500 
L 2247 1797 
L 3578 0 
L 2900 0 
L 1881 1375 
L 863 0 
L 184 0 
L 1544 1831 
L 300 3500 
L 978 3500 
L 1906 2253 
L 2834 3500 
L 3513 3500 
z
" transform="scale(0.015625)"/>
      </defs>
      <use xlink:href="#DejaVuSans-49"/>
      <use xlink:href="#DejaVuSans-6e" transform="translate(29.492188 0)"/>
      <use xlink:href="#DejaVuSans-64" transform="translate(92.871094 0)"/>
      <use xlink:href="#DejaVuSans-65" transform="translate(156.347656 0)"/>
      <use xlink:href="#DejaVuSans-78" transform="translate(216.121094 0)"/>
     </g>
    </g>
   </g>
   <g id="matplotlib.axis_2">
    <g id="ytick_1">
     <g id="line2d_19">
      <path d="M 57.6 295.50573 
L 414.72 295.50573 
" clip-path="url(#p6e01cc831e)" style="fill: none; stroke: #b0b0b0; stroke-opacity: 0.5; stroke-width: 0.8; stroke-linecap: square"/>
     </g>
     <g id="line2d_20">
      <defs>
       <path id="m79f2f54ece" d="M 0 0 
L -3.5 0 
" style="stroke: #000000; stroke-width: 0.8"/>
      </defs>
      <g>
       <use xlink:href="#m79f2f54ece" x="57.6" y="295.50573" style="stroke: #000000; stroke-width: 0.8"/>
      </g>
     </g>
     <g id="text_11">
      <!-- −1.00 -->
      <g transform="translate(19.954687 299.304949) scale(0.1 -0.1)">
       <use xlink:href="#DejaVuSans-2212"/>
       <use xlink:href="#DejaVuSans-31" transform="translate(83.789062 0)"/>
       <use xlink:href="#DejaVuSans-2e" transform="translate(147.412109 0)"/>
       <use xlink:href="#DejaVuSans-30" transform="translate(179.199219 0)"/>
       <use xlink:href="#DejaVuSans-30" transform="translate(242.822266 0)"/>
      </g>
     </g>
    </g>
    <g id="ytick_2">
     <g id="line2d_21">
      <path d="M 57.6 265.263499 
L 414.72 265.263499 
" clip-path="url(#p6e01cc831e)" style="fill: none; stroke: #b0b0b0; stroke-opacity: 0.5; stroke-width: 0.8; stroke-linecap: square"/>
     </g>
     <g id="line2d_22">
      <g>
       <use xlink:href="#m79f2f54ece" x="57.6" y="265.263499" style="stroke: #000000; stroke-width: 0.8"/>
      </g>
     </g>
     <g id="text_12">
      <!-- −0.75 -->
      <g transform="translate(19.954687 269.062717) scale(0.1 -0.1)">
       <use xlink:href="#DejaVuSans-2212"/>
       <use xlink:href="#DejaVuSans-30" transform="translate(83.789062 0)"/>
       <use xlink:href="#DejaVuSans-2e" transform="translate(147.412109 0)"/>
       <use xlink:href="#DejaVuSans-37" transform="translate(179.199219 0)"/>
       <use xlink:href="#DejaVuSans-35" transform="translate(242.822266 0)"/>
      </g>
     </g>
    </g>
    <g id="ytick_3">
     <g id="line2d_23">
      <path d="M 57.6 235.021267 
L 414.72 235.021267 
" clip-path="url(#p6e01cc831e)" style="fill: none; stroke: #b0b0b0; stroke-opacity: 0.5; stroke-width: 0.8; stroke-linecap: square"/>
     </g>
     <g id="line2d_24">
      <g>
       <use xlink:href="#m79f2f54ece" x="57.6" y="235.021267" style="stroke: #000000; stroke-width: 0.8"/>
      </g>
     </g>
     <g id="text_13">
      <!-- −0.50 -->
      <g transform="translate(19.954687 238.820486) scale(0.1 -0.1)">
       <use xlink:href="#DejaVuSans-2212"/>
       <use xlink:href="#DejaVuSans-30" transform="translate(83.789062 0)"/>
       <use xlink:href="#DejaVuSans-2e" transform="translate(147.412109 0)"/>
       <use xlink:href="#DejaVuSans-35" transform="translate(179.199219 0)"/>
       <use xlink:href="#DejaVuSans-30" transform="translate(242.822266 0)"/>
      </g>
     </g>
    </g>
    <g id="ytick_4">
     <g id="line2d_25">
      <path d="M 57.6 204.779035 
L 414.72 204.779035 
" clip-path="url(#p6e01cc831e)" style="fill: none; stroke: #b0b0b0; stroke-opacity: 0.5; stroke-width: 0.8; stroke-linecap: square"/>
     </g>
     <g id="line2d_26">
      <g>
       <use xlink:href="#m79f2f54ece" x="57.6" y="204.779035" style="stroke: #000000; stroke-width: 0.8"/>
      </g>
     </g>
     <g id="text_14">
      <!-- −0.25 -->
      <g transform="translate(19.954687 208.578254) scale(0.1 -0.1)">
       <use xlink:href="#DejaVuSans-2212"/>
       <use xlink:href="#DejaVuSans-30" transform="translate(83.789062 0)"/>
       <use xlink:href="#DejaVuSans-2e" transform="translate(147.412109 0)"/>
       <use xlink:href="#DejaVuSans-32" transform="translate(179.199219 0)"/>
       <use xlink:href="#DejaVuSans-35" transform="translate(242.822266 0)"/>
      </g>
     </g>
    </g>
    <g id="ytick_5">
     <g id="line2d_27">
      <path d="M 57.6 174.536804 
L 414.72 174.536804 
" clip-path="url(#p6e01cc831e)" style="fill: none; stroke: #b0b0b0; stroke-opacity: 0.5; stroke-width: 0.8; stroke-linecap: square"/>
     </g>
     <g id="line2d_28">
      <g>
       <use xlink:href="#m79f2f54ece" x="57.6" y="174.536804" style="stroke: #000000; stroke-width: 0.8"/>
      </g>
     </g>
     <g id="text_15">
      <!-- 0.00 -->
      <g transform="translate(28.334375 178.336023) scale(0.1 -0.1)">
       <use xlink:href="#DejaVuSans-30"/>
       <use xlink:href="#DejaVuSans-2e" transform="translate(63.623047 0)"/>
       <use xlink:href="#DejaVuSans-30" transform="translate(95.410156 0)"/>
       <use xlink:href="#DejaVuSans-30" transform="translate(159.033203 0)"/>
      </g>
     </g>
    </g>
    <g id="ytick_6">
     <g id="line2d_29">
      <path d="M 57.6 144.294572 
L 414.72 144.294572 
" clip-path="url(#p6e01cc831e)" style="fill: none; stroke: #b0b0b0; stroke-opacity: 0.5; stroke-width: 0.8; stroke-linecap: square"/>
     </g>
     <g id="line2d_30">
      <g>
       <use xlink:href="#m79f2f54ece" x="57.6" y="144.294572" style="stroke: #000000; stroke-width: 0.8"/>
      </g>
     </g>
     <g id="text_16">
      <!-- 0.25 -->
      <g transform="translate(28.334375 148.093791) scale(0.1 -0.1)">
       <use xlink:href="#DejaVuSans-30"/>
       <use xlink:href="#DejaVuSans-2e" transform="translate(63.623047 0)"/>
       <use xlink:href="#DejaVuSans-32" transform="translate(95.410156 0)"/>
       <use xlink:href="#DejaVuSans-35" transform="translate(159.033203 0)"/>
      </g>
     </g>
    </g>
    <g id="ytick_7">
     <g id="line2d_31">
      <path d="M 57.6 114.052341 
L 414.72 114.052341 
" clip-path="url(#p6e01cc831e)" style="fill: none; stroke: #b0b0b0; stroke-opacity: 0.5; stroke-width: 0.8; stroke-linecap: square"/>
     </g>
     <g id="line2d_32">
      <g>
       <use xlink:href="#m79f2f54ece" x="57.6" y="114.052341" style="stroke: #000000; stroke-width: 0.8"/>
      </g>
     </g>
     <g id="text_17">
      <!-- 0.50 -->
      <g transform="translate(28.334375 117.851559) scale(0.1 -0.1)">
       <use xlink:href="#DejaVuSans-30"/>
       <use xlink:href="#DejaVuSans-2e" transform="translate(63.623047 0)"/>
       <use xlink:href="#DejaVuSans-35" transform="translate(95.410156 0)"/>
       <use xlink:href="#DejaVuSans-30" transform="translate(159.033203 0)"/>
      </g>
     </g>
    </g>
    <g id="ytick_8">
     <g id="line2d_33">
      <path d="M 57.6 83.810109 
L 414.72 83.810109 
" clip-path="url(#p6e01cc831e)" style="fill: none; stroke: #b0b0b0; stroke-opacity: 0.5; stroke-width: 0.8; stroke-linecap: square"/>
     </g>
     <g id="line2d_34">
      <g>
       <use xlink:href="#m79f2f54ece" x="57.6" y="83.810109" style="stroke: #000000; stroke-width: 0.8"/>
      </g>
     </g>
     <g id="text_18">
      <!-- 0.75 -->
      <g transform="translate(28.334375 87.609328) scale(0.1 -0.1)">
       <use xlink:href="#DejaVuSans-30"/>
       <use xlink:href="#DejaVuSans-2e" transform="translate(63.623047 0)"/>
       <use xlink:href="#DejaVuSans-37" transform="translate(95.410156 0)"/>
       <use xlink:href="#DejaVuSans-35" transform="translate(159.033203 0)"/>
      </g>
     </g>
    </g>
    <g id="ytick_9">
     <g id="line2d_35">
      <path d="M 57.6 53.567877 
L 414.72 53.567877 
" clip-path="url(#p6e01cc831e)" style="fill: none; stroke: #b0b0b0; stroke-opacity: 0.5; stroke-width: 0.8; stroke-linecap: square"/>
     </g>
     <g id="line2d_36">
      <g>
       <use xlink:href="#m79f2f54ece" x="57.6" y="53.567877" style="stroke: #000000; stroke-width: 0.8"/>
      </g>
     </g>
     <g id="text_19">
      <!-- 1.00 -->
      <g transform="translate(28.334375 57.367096) scale(0.1 -0.1)">
       <use xlink:href="#DejaVuSans-31"/>
       <use xlink:href="#DejaVuSans-2e" transform="translate(63.623047 0)"/>
       <use xlink:href="#DejaVuSans-30" transform="translate(95.410156 0)"/>
       <use xlink:href="#DejaVuSans-30" transform="translate(159.033203 0)"/>
      </g>
     </g>
    </g>
    <g id="text_20">
     <!-- Value -->
     <g transform="translate(13.875 188.25925) rotate(-90) scale(0.1 -0.1)">
      <defs>
       <path id="DejaVuSans-56" d="M 1831 0 
L 50 4666 
L 709 4666 
L 2188 738 
L 3669 4666 
L 4325 4666 
L 2547 0 
L 1831 0 
z
" transform="scale(0.015625)"/>
       <path id="DejaVuSans-61" d="M 2194 1759 
Q 1497 1759 1228 1600 
Q 959 1441 959 1056 
Q 959 750 1161 570 
Q 1363 391 1709 391 
Q 2188 391 2477 730 
Q 2766 1069 2766 1631 
L 2766 1759 
L 2194 1759 
z
M 3341 1997 
L 3341 0 
L 2766 0 
L 2766 531 
Q 2569 213 2275 61 
Q 1981 -91 1556 -91 
Q 1019 -91 701 211 
Q 384 513 384 1019 
Q 384 1609 779 1909 
Q 1175 2209 1959 2209 
L 2766 2209 
L 2766 2266 
Q 2766 2663 2505 2880 
Q 2244 3097 1772 3097 
Q 1472 3097 1187 3025 
Q 903 2953 641 2809 
L 641 3341 
Q 956 3463 1253 3523 
Q 1550 3584 1831 3584 
Q 2591 3584 2966 3190 
Q 3341 2797 3341 1997 
z
" transform="scale(0.015625)"/>
       <path id="DejaVuSans-6c" d="M 603 4863 
L 1178 4863 
L 1178 0 
L 603 0 
L 603 4863 
z
" transform="scale(0.015625)"/>
       <path id="DejaVuSans-75" d="M 544 1381 
L 544 3500 
L 1119 3500 
L 1119 1403 
Q 1119 906 1312 657 
Q 1506 409 1894 409 
Q 2359 409 2629 706 
Q 2900 1003 2900 1516 
L 2900 3500 
L 3475 3500 
L 3475 0 
L 2900 0 
L 2900 538 
Q 2691 219 2414 64 
Q 2138 -91 1772 -91 
Q 1169 -91 856 284 
Q 544 659 544 1381 
z
M 1991 3584 
L 1991 3584 
z
" transform="scale(0.015625)"/>
      </defs>
      <use xlink:href="#DejaVuSans-56"/>
      <use xlink:href="#DejaVuSans-61" transform="translate(60.658203 0)"/>
      <use xlink:href="#DejaVuSans-6c" transform="translate(121.9375 0)"/>
      <use xlink:href="#DejaVuSans-75" transform="translate(149.720703 0)"/>
      <use xlink:href="#DejaVuSans-65" transform="translate(213.099609 0)"/>
     </g>
    </g>
   </g>
   <g id="line2d_37">
    <path d="M 225.791753 177.029613 
L 253.345371 176.555445 
L 237.557663 176.081934 
L 241.771449 175.608125 
L 243.116338 174.657153 
L 251.733412 167.545937 
L 257.708294 163.305452 
L 259.72038 161.903006 
L 262.567674 160.028928 
L 267.016999 156.751657 
L 269.793527 154.879464 
L 272.851984 152.538958 
L 275.545497 150.674265 
L 286.803524 141.807228 
L 288.551368 140.406953 
L 290.705825 138.548842 
L 294.431245 135.772051 
L 296.677283 133.922642 
L 301.136574 130.699079 
L 302.805856 129.32011 
L 307.780464 125.649832 
L 309.512501 124.279794 
L 312.814447 121.997147 
L 316.172142 119.257561 
L 318.667028 117.43673 
L 321.817729 114.708814 
L 324.315038 112.897364 
L 327.402125 110.181875 
L 329.92095 108.3803 
L 333.577979 105.231435 
L 335.479157 103.886308 
L 336.908188 102.532234 
L 337.878786 101.637103 
L 339.790817 100.30396 
L 341.596948 98.95923 
L 343.988661 96.722786 
L 347.171235 94.497836 
L 350.104469 91.822934 
L 352.694355 90.046804 
L 353.994224 88.702261 
L 354.960206 87.815789 
L 356.297518 86.93518 
L 358.328488 85.602289 
L 359.272792 84.705493 
L 360.128534 83.815185 
L 361.299451 82.936018 
L 364.120861 81.170213 
L 365.056887 80.274584 
L 365.839546 79.385344 
L 366.958437 78.509457 
L 369.86615 76.753465 
L 370.79322 75.860447 
L 371.485667 74.973809 
L 372.540554 74.103193 
L 376.128954 71.916061 
L 376.775841 71.025473 
L 377.380803 70.149514 
L 377.908476 69.718734 
L 379.425478 68.860808 
L 380.952856 67.988959 
L 381.47513 67.545539 
L 381.805098 67.099769 
L 382.444565 65.781472 
L 382.944237 65.353626 
L 384.558918 64.503214 
L 386.248581 63.635395 
L 386.794432 63.191601 
L 387.060442 62.744612 
L 387.329324 61.429603 
L 387.818829 61.007244 
L 389.726473 60.16883 
L 391.742202 59.30241 
L 392.275674 58.854102 
L 392.356377 58.401482 
L 391.766084 57.514873 
L 391.769813 57.092111 
L 392.380506 56.681816 
L 393.648474 56.275421 
L 396.828892 55.429637 
L 397.480834 54.980673 
L 396.504742 54.5293 
L 393.150337 54.108881 
L 384.240548 53.569911 
L 387.642706 53.568 
L 386.08272 53.805284 
L 384.844537 54.295564 
L 381.842617 55.017128 
L 376.629894 55.91231 
L 374.176446 56.89519 
L 376.824261 57.866441 
L 384.913949 58.732276 
L 398.174377 59.907124 
L 398.487273 60.197628 
L 394.84124 60.347934 
L 378.952682 60.562325 
L 375.32085 60.796033 
L 374.977683 61.191078 
L 373.571332 61.759496 
L 370.48144 62.473879 
L 367.98107 63.275904 
L 368.710254 64.091375 
L 373.02117 64.848544 
L 378.384381 65.494444 
L 380.865839 66.005943 
L 380.231445 66.393065 
L 376.226013 66.69416 
L 366.742373 67.262989 
L 365.51057 67.636173 
L 364.730554 68.110157 
L 361.821926 69.338693 
L 361.206854 70.031394 
L 362.155288 70.71907 
L 366.033618 71.937137 
L 366.278713 72.435175 
L 364.881336 72.867685 
L 358.250054 74.041624 
L 357.099575 74.485369 
L 355.263813 75.530654 
L 354.578252 76.117199 
L 354.337353 76.722093 
L 354.591022 77.323476 
L 355.444676 78.446273 
L 355.253923 78.951492 
L 354.464254 79.4227 
L 349.638921 81.231219 
L 348.008389 82.254045 
L 347.431266 82.80218 
L 347.080785 83.362716 
L 346.965051 83.923325 
L 346.941284 85.001562 
L 346.654587 85.507481 
L 346.038381 85.992223 
L 344.108916 86.92828 
L 342.17287 87.883855 
L 340.724717 88.905779 
L 340.224358 89.438196 
L 339.655552 90.510895 
L 339.120774 91.547565 
L 338.603764 92.045206 
L 337.070472 93.01425 
L 334.568948 94.486573 
L 333.22207 95.511916 
L 330.501229 98.071316 
L 324.723038 102.068762 
L 321.563182 104.588845 
L 314.767717 109.586368 
L 312.175389 111.570429 
L 307.957317 114.546283 
L 304.898717 117.021752 
L 299.954656 120.462065 
L 297.571593 122.434077 
L 294.674181 124.37064 
L 292.60573 125.843606 
L 288.089378 129.273799 
L 283.277364 132.695675 
L 280.106149 135.151935 
L 276.980803 137.58712 
L 274.444935 139.55008 
L 270.950687 142.48092 
L 267.090378 145.399084 
L 264.236531 147.82883 
L 259.227169 151.691009 
L 256.835685 153.617768 
L 251.282862 157.944076 
L 225.444214 177.955369 
L 217.726752 183.598715 
L 197.300407 198.53022 
L 172.843657 216.590118 
L 169.925931 218.886273 
L 166.953241 221.168037 
L 164.04077 223.456056 
L 161.718673 225.275066 
L 158.719237 227.553347 
L 155.285354 230.276739 
L 152.354238 232.54671 
L 149.508755 234.804139 
L 146.590066 237.062354 
L 143.776218 239.3082 
L 140.863117 241.555747 
L 138.092902 243.791455 
L 135.173631 246.02823 
L 132.446438 248.254882 
L 129.50134 250.483921 
L 126.838103 252.706044 
L 123.859778 254.927123 
L 121.210218 257.147466 
L 117.668417 259.81055 
L 115.579337 261.581316 
L 112.028237 264.237919 
L 110.00114 266.004567 
L 106.412721 268.652986 
L 104.479918 270.415957 
L 100.411894 273.492712 
L 99.01651 274.80475 
L 97.077927 276.102772 
L 95.834986 276.981463 
L 94.906275 277.867322 
L 93.627035 279.174385 
L 92.359945 280.030826 
L 90.333124 281.335784 
L 89.432281 282.22103 
L 88.312922 283.52319 
L 87.012471 284.371195 
L 84.823404 285.670118 
L 83.982149 286.55837 
L 83.511337 287.431293 
L 83.136106 287.855606 
L 82.533357 288.273998 
L 79.235297 289.988192 
L 78.773765 290.437185 
L 78.586808 290.886193 
L 78.608734 291.755251 
L 78.296067 292.169282 
L 77.495727 292.575309 
L 74.099062 293.846515 
L 73.832727 294.298147 
L 75.086465 294.736203 
L 79.591969 295.11832 
L 89.541691 295.388772 
L 103.002696 295.488 
L 106.291017 295.365418 
L 93.889154 294.992781 
L 92.031618 294.374259 
L 95.051373 293.550748 
L 100.111845 292.596024 
L 98.36308 291.60519 
L 80.371661 289.895936 
L 76.323961 289.312276 
L 79.872857 288.934773 
L 109.601389 288.352245 
L 105.100654 288.035453 
L 101.751085 287.54381 
L 102.68052 286.886893 
L 105.450421 286.110905 
L 104.966657 285.285981 
L 92.645497 283.783338 
L 90.207901 283.208734 
L 91.767114 282.769821 
L 109.033918 281.892168 
L 109.903784 281.559722 
L 109.189794 281.132403 
L 109.641569 280.598097 
L 110.800737 279.970526 
L 111.101205 279.283795 
L 109.084675 278.582542 
L 105.651693 277.910663 
L 103.236423 277.30114 
L 102.903232 276.76956 
L 104.610386 276.312289 
L 112.976261 275.143382 
L 114.239383 274.72088 
L 116.105446 273.716938 
L 116.634454 273.141224 
L 116.465226 272.537483 
L 115.568789 271.928046 
L 114.421658 271.334219 
L 113.684644 270.771959 
L 113.771814 270.248974 
L 114.689938 269.764066 
L 121.790917 267.480042 
L 122.674307 266.965096 
L 123.252508 266.423356 
L 123.432837 265.863548 
L 123.240071 265.297877 
L 122.61902 264.198053 
L 122.76987 263.68054 
L 123.417024 263.186994 
L 125.746383 262.247065 
L 128.217808 261.302688 
L 129.223274 260.807073 
L 129.991675 260.291911 
L 130.468209 259.760424 
L 130.64725 259.219687 
L 130.59389 258.145574 
L 130.75688 257.626317 
L 131.243724 257.122633 
L 132.038133 256.632318 
L 136.901023 254.178231 
L 137.965142 253.13968 
L 138.709814 252.099124 
L 139.203582 251.587697 
L 140.653824 250.586055 
L 144.134167 248.601633 
L 145.516285 247.589443 
L 148.627721 245.050051 
L 152.296976 242.552378 
L 155.875085 240.039679 
L 159.057974 237.5368 
L 164.280964 234.054916 
L 165.946674 232.555777 
L 167.361347 231.57595 
L 171.383487 229.119866 
L 173.055797 227.620403 
L 174.240285 226.634974 
L 175.759881 225.663867 
L 178.948349 223.712202 
L 180.788904 222.224917 
L 182.711689 220.748963 
L 189.167392 216.341708 
L 191.880498 214.368885 
L 194.946747 211.918248 
L 198.420321 209.464608 
L 201.80102 206.517081 
L 205.428455 204.086811 
L 207.014158 202.608941 
L 208.102912 201.634185 
L 210.193642 200.189711 
L 212.27806 198.73805 
L 217.135154 194.863525 
L 219.666804 192.931806 
L 222.111401 191.00215 
L 225.278279 188.590798 
L 227.681463 186.669414 
L 230.986169 184.268528 
L 234.501424 181.392082 
L 237.213324 179.483026 
L 240.015579 177.088924 
L 240.015579 177.088924 
" clip-path="url(#p6e01cc831e)" style="fill: none; stroke: #1f77b4; stroke-width: 1.5; stroke-linecap: square"/>
   </g>
   <g id="line2d_38">
    <path d="M 236.192522 177.029613 
L 239.911263 174.180022 
L 243.040078 171.80344 
L 246.072096 169.438286 
L 248.526511 167.545937 
L 251.672689 165.193857 
L 254.639023 162.836665 
L 258.416944 160.028928 
L 261.435633 157.68201 
L 264.598489 155.349542 
L 268.248517 152.538958 
L 271.316225 150.205193 
L 274.411272 147.865947 
L 277.466612 145.533033 
L 280.509233 143.199312 
L 283.543771 140.87429 
L 285.92422 139.010983 
L 289.589656 136.236964 
L 291.918162 134.382541 
L 296.189461 131.161465 
L 298.579176 129.32011 
L 301.657404 127.031767 
L 304.589064 124.734855 
L 307.655213 122.456328 
L 310.580569 120.164902 
L 313.64781 117.893907 
L 316.520392 115.611981 
L 319.58685 113.352292 
L 322.391228 111.080561 
L 326.010575 108.3803 
L 328.244334 106.571255 
L 331.900552 103.886308 
L 334.114626 102.083515 
L 338.296428 98.95923 
L 340.559723 97.165961 
L 343.617847 94.946714 
L 346.373269 92.706298 
L 349.485268 90.49421 
L 352.843097 87.815789 
L 355.291261 86.049134 
L 357.981812 83.815185 
L 361.645297 81.170213 
L 363.702742 79.385344 
L 367.37503 76.753465 
L 369.403244 74.973809 
L 373.584932 71.916061 
L 375.065492 70.584887 
L 377.085256 69.290239 
L 378.366651 68.427569 
L 379.325223 67.545539 
L 380.706911 66.215165 
L 382.043184 65.353626 
L 384.134962 64.072765 
L 385.039763 63.191601 
L 385.77548 62.299231 
L 386.914533 61.429603 
L 390.007419 59.741013 
L 390.468647 59.30241 
L 390.923169 58.401482 
L 391.156792 57.952546 
L 391.595254 57.514873 
L 392.332525 57.092111 
L 395.49941 55.861174 
L 396.021875 55.429637 
L 395.762226 54.980673 
L 394.545283 54.5293 
L 392.399695 54.108881 
L 389.586716 53.769312 
L 386.567161 53.569911 
L 383.909637 53.568 
L 382.158898 53.805284 
L 381.697757 54.295564 
L 382.63899 55.017128 
L 384.778388 55.91231 
L 392.717779 58.732276 
L 393.692497 59.422959 
L 393.132236 59.907124 
L 391.078997 60.197628 
L 384.205595 60.439346 
L 380.682773 60.562325 
L 377.949648 60.796033 
L 376.405217 61.191078 
L 376.149134 61.759496 
L 376.975635 62.473879 
L 381.093424 64.848544 
L 381.369764 65.494444 
L 380.672883 66.005943 
L 379.100508 66.393065 
L 370.966263 67.636173 
L 370.07756 68.110157 
L 369.824768 68.685316 
L 370.020595 69.338693 
L 370.65721 70.71907 
L 370.595753 71.362735 
L 370.094689 71.937137 
L 369.162487 72.435175 
L 366.516876 73.259046 
L 364.017879 74.041624 
L 363.156891 74.485369 
L 362.595104 74.98239 
L 362.272576 75.530654 
L 361.600005 77.323476 
L 361.117262 77.902327 
L 360.416032 78.446273 
L 358.474111 79.4227 
L 355.37204 80.761547 
L 354.591575 81.231219 
L 353.99061 81.728529 
L 353.198242 82.80218 
L 352.49396 83.923325 
L 351.992457 84.47239 
L 351.333811 85.001562 
L 349.584378 85.992223 
L 346.750217 87.399329 
L 345.417626 88.386118 
L 344.547673 89.438196 
L 343.675976 90.510895 
L 342.374008 91.547565 
L 339.721692 93.01425 
L 338.073497 93.987288 
L 336.838271 94.995571 
L 334.831821 97.063971 
L 333.485983 98.071316 
L 328.862533 101.052664 
L 327.141236 102.577313 
L 325.405098 104.089906 
L 323.23294 105.582346 
L 320.304303 107.576192 
L 318.622757 109.084545 
L 316.881946 110.58323 
L 314.659723 112.062353 
L 312.490788 113.546271 
L 310.814044 115.046906 
L 309.103261 116.533246 
L 306.9464 117.994286 
L 304.800756 119.46689 
L 302.428294 121.454852 
L 300.567024 122.918718 
L 294.586649 127.324481 
L 290.161491 130.732924 
L 286.077001 133.679997 
L 282.389377 136.613891 
L 278.333074 139.55008 
L 275.341961 141.997728 
L 270.74399 145.399084 
L 267.718897 147.82883 
L 262.572669 151.691009 
L 256.220318 156.500589 
L 244.876862 165.1349 
L 241.081726 167.994688 
L 236.762197 171.330326 
L 209.025119 192.473093 
L 200.451088 198.997142 
L 196.142298 202.257035 
L 187.130085 209.224148 
L 172.703523 220.256459 
L 169.689533 222.540502 
L 166.098358 225.275066 
L 162.566037 228.00998 
L 136.078709 248.254882 
L 133.791733 250.035951 
L 131.546472 251.822017 
L 127.953962 254.480112 
L 125.119247 256.706584 
L 122.135838 258.91764 
L 119.316822 261.141415 
L 116.330418 263.346457 
L 114.169562 265.125861 
L 110.051687 268.207425 
L 108.494314 269.540135 
L 103.836817 273.049458 
L 102.208793 274.370819 
L 99.121419 276.540402 
L 96.635984 278.743072 
L 93.438227 280.896251 
L 91.028517 283.094797 
L 87.687503 285.230786 
L 86.869833 286.113984 
L 86.068558 286.998617 
L 84.790891 287.855606 
L 82.424843 289.114108 
L 81.86689 289.546027 
L 81.505412 289.988192 
L 80.760663 291.327413 
L 80.175415 291.755251 
L 78.197224 292.575309 
L 77.105752 292.983895 
L 76.327881 293.405944 
L 76.190383 293.846515 
L 76.940501 294.298147 
L 78.656153 294.736203 
L 81.191076 295.11832 
L 84.175534 295.388772 
L 87.079765 295.488 
L 89.328993 295.365418 
L 90.443097 294.992781 
L 90.165184 294.374259 
L 88.54293 293.550748 
L 82.957427 291.60519 
L 80.317995 290.677296 
L 78.681226 289.895936 
L 78.495423 289.312276 
L 79.88826 288.934773 
L 82.637007 288.72801 
L 93.172893 288.352245 
L 95.319358 288.035453 
L 96.153441 287.54381 
L 95.745269 286.886893 
L 94.45055 286.110905 
L 91.391741 284.488579 
L 90.680191 283.783338 
L 90.937943 283.208734 
L 92.174657 282.769821 
L 94.16413 282.439466 
L 98.813645 281.892168 
L 100.668759 281.559722 
L 101.862755 281.132403 
L 102.357544 280.598097 
L 102.289697 279.970526 
L 101.537986 278.582542 
L 101.418304 277.910663 
L 101.724629 277.30114 
L 102.498732 276.76956 
L 103.662954 276.312289 
L 107.749213 275.143382 
L 108.75034 274.72088 
L 109.436349 274.246506 
L 109.841602 273.716938 
L 110.816006 271.334219 
L 111.409723 270.771959 
L 112.221089 270.248974 
L 114.296416 269.308187 
L 116.416443 268.424109 
L 117.98858 267.480042 
L 118.507221 266.965096 
L 119.204579 265.863548 
L 119.962603 264.739179 
L 120.540393 264.198053 
L 122.191307 263.186994 
L 125.964021 261.302688 
L 127.12543 260.291911 
L 128.856055 258.145574 
L 130.340182 257.122633 
L 133.902535 255.181971 
L 135.182176 254.178231 
L 137.752645 251.587697 
L 139.223515 250.586055 
L 142.411782 248.601633 
L 144.328478 247.079703 
L 146.612325 245.050051 
L 148.743702 243.549355 
L 151.757983 241.551767 
L 152.941375 240.544797 
L 155.099389 238.530027 
L 156.524367 237.5368 
L 159.617863 235.560591 
L 160.809175 234.558571 
L 162.962283 232.555777 
L 165.118742 231.08933 
L 167.298821 229.617706 
L 169.657884 227.620403 
L 171.53211 226.148285 
L 177.550076 221.730615 
L 184.088027 216.834097 
L 186.137442 215.355724 
L 190.444529 211.918248 
L 193.273789 209.959495 
L 198.217263 206.034174 
L 200.266868 204.577743 
L 205.870894 200.189711 
L 208.975235 197.76291 
L 212.218207 195.344567 
L 220.468402 189.073557 
L 223.622615 186.669414 
L 226.803638 184.268528 
L 229.917202 181.86773 
L 233.091867 179.483026 
L 236.112292 177.088924 
L 236.112292 177.088924 
" clip-path="url(#p6e01cc831e)" style="fill: none; stroke: #ff7f0e; stroke-opacity: 0.5; stroke-width: 1.5; stroke-linecap: square"/>
   </g>
   <g id="patch_3">
    <path d="M 57.6 307.584 
L 57.6 41.472 
" style="fill: none; stroke: #000000; stroke-width: 0.8; stroke-linejoin: miter; stroke-linecap: square"/>
   </g>
   <g id="patch_4">
    <path d="M 414.72 307.584 
L 414.72 41.472 
" style="fill: none; stroke: #000000; stroke-width: 0.8; stroke-linejoin: miter; stroke-linecap: square"/>
   </g>
   <g id="patch_5">
    <path d="M 57.6 307.584 
L 414.72 307.584 
" style="fill: none; stroke: #000000; stroke-width: 0.8; stroke-linejoin: miter; stroke-linecap: square"/>
   </g>
   <g id="patch_6">
    <path d="M 57.6 41.472 
L 414.72 41.472 
" style="fill: none; stroke: #000000; stroke-width: 0.8; stroke-linejoin: miter; stroke-linecap: square"/>
   </g>
   <g id="text_21">
    <!-- Compare - Epoch 1350 -->
    <g transform="translate(167.416875 35.472) scale(0.12 -0.12)">
     <defs>
      <path id="DejaVuSans-43" d="M 4122 4306 
L 4122 3641 
Q 3803 3938 3442 4084 
Q 3081 4231 2675 4231 
Q 1875 4231 1450 3742 
Q 1025 3253 1025 2328 
Q 1025 1406 1450 917 
Q 1875 428 2675 428 
Q 3081 428 3442 575 
Q 3803 722 4122 1019 
L 4122 359 
Q 3791 134 3420 21 
Q 3050 -91 2638 -91 
Q 1578 -91 968 557 
Q 359 1206 359 2328 
Q 359 3453 968 4101 
Q 1578 4750 2638 4750 
Q 3056 4750 3426 4639 
Q 3797 4528 4122 4306 
z
" transform="scale(0.015625)"/>
      <path id="DejaVuSans-6f" d="M 1959 3097 
Q 1497 3097 1228 2736 
Q 959 2375 959 1747 
Q 959 1119 1226 758 
Q 1494 397 1959 397 
Q 2419 397 2687 759 
Q 2956 1122 2956 1747 
Q 2956 2369 2687 2733 
Q 2419 3097 1959 3097 
z
M 1959 3584 
Q 2709 3584 3137 3096 
Q 3566 2609 3566 1747 
Q 3566 888 3137 398 
Q 2709 -91 1959 -91 
Q 1206 -91 779 398 
Q 353 888 353 1747 
Q 353 2609 779 3096 
Q 1206 3584 1959 3584 
z
" transform="scale(0.015625)"/>
      <path id="DejaVuSans-6d" d="M 3328 2828 
Q 3544 3216 3844 3400 
Q 4144 3584 4550 3584 
Q 5097 3584 5394 3201 
Q 5691 2819 5691 2113 
L 5691 0 
L 5113 0 
L 5113 2094 
Q 5113 2597 4934 2840 
Q 4756 3084 4391 3084 
Q 3944 3084 3684 2787 
Q 3425 2491 3425 1978 
L 3425 0 
L 2847 0 
L 2847 2094 
Q 2847 2600 2669 2842 
Q 2491 3084 2119 3084 
Q 1678 3084 1418 2786 
Q 1159 2488 1159 1978 
L 1159 0 
L 581 0 
L 581 3500 
L 1159 3500 
L 1159 2956 
Q 1356 3278 1631 3431 
Q 1906 3584 2284 3584 
Q 2666 3584 2933 3390 
Q 3200 3197 3328 2828 
z
" transform="scale(0.015625)"/>
      <path id="DejaVuSans-70" d="M 1159 525 
L 1159 -1331 
L 581 -1331 
L 581 3500 
L 1159 3500 
L 1159 2969 
Q 1341 3281 1617 3432 
Q 1894 3584 2278 3584 
Q 2916 3584 3314 3078 
Q 3713 2572 3713 1747 
Q 3713 922 3314 415 
Q 2916 -91 2278 -91 
Q 1894 -91 1617 61 
Q 1341 213 1159 525 
z
M 3116 1747 
Q 3116 2381 2855 2742 
Q 2594 3103 2138 3103 
Q 1681 3103 1420 2742 
Q 1159 2381 1159 1747 
Q 1159 1113 1420 752 
Q 1681 391 2138 391 
Q 2594 391 2855 752 
Q 3116 1113 3116 1747 
z
" transform="scale(0.015625)"/>
      <path id="DejaVuSans-72" d="M 2631 2963 
Q 2534 3019 2420 3045 
Q 2306 3072 2169 3072 
Q 1681 3072 1420 2755 
Q 1159 2438 1159 1844 
L 1159 0 
L 581 0 
L 581 3500 
L 1159 3500 
L 1159 2956 
Q 1341 3275 1631 3429 
Q 1922 3584 2338 3584 
Q 2397 3584 2469 3576 
Q 2541 3569 2628 3553 
L 2631 2963 
z
" transform="scale(0.015625)"/>
      <path id="DejaVuSans-20" transform="scale(0.015625)"/>
      <path id="DejaVuSans-2d" d="M 313 2009 
L 1997 2009 
L 1997 1497 
L 313 1497 
L 313 2009 
z
" transform="scale(0.015625)"/>
      <path id="DejaVuSans-45" d="M 628 4666 
L 3578 4666 
L 3578 4134 
L 1259 4134 
L 1259 2753 
L 3481 2753 
L 3481 2222 
L 1259 2222 
L 1259 531 
L 3634 531 
L 3634 0 
L 628 0 
L 628 4666 
z
" transform="scale(0.015625)"/>
      <path id="DejaVuSans-63" d="M 3122 3366 
L 3122 2828 
Q 2878 2963 2633 3030 
Q 2388 3097 2138 3097 
Q 1578 3097 1268 2742 
Q 959 2388 959 1747 
Q 959 1106 1268 751 
Q 1578 397 2138 397 
Q 2388 397 2633 464 
Q 2878 531 3122 666 
L 3122 134 
Q 2881 22 2623 -34 
Q 2366 -91 2075 -91 
Q 1284 -91 818 406 
Q 353 903 353 1747 
Q 353 2603 823 3093 
Q 1294 3584 2113 3584 
Q 2378 3584 2631 3529 
Q 2884 3475 3122 3366 
z
" transform="scale(0.015625)"/>
      <path id="DejaVuSans-68" d="M 3513 2113 
L 3513 0 
L 2938 0 
L 2938 2094 
Q 2938 2591 2744 2837 
Q 2550 3084 2163 3084 
Q 1697 3084 1428 2787 
Q 1159 2491 1159 1978 
L 1159 0 
L 581 0 
L 581 4863 
L 1159 4863 
L 1159 2956 
Q 1366 3272 1645 3428 
Q 1925 3584 2291 3584 
Q 2894 3584 3203 3211 
Q 3513 2838 3513 2113 
z
" transform="scale(0.015625)"/>
      <path id="DejaVuSans-33" d="M 2597 2516 
Q 3050 2419 3304 2112 
Q 3559 1806 3559 1356 
Q 3559 666 3084 287 
Q 2609 -91 1734 -91 
Q 1441 -91 1130 -33 
Q 819 25 488 141 
L 488 750 
Q 750 597 1062 519 
Q 1375 441 1716 441 
Q 2309 441 2620 675 
Q 2931 909 2931 1356 
Q 2931 1769 2642 2001 
Q 2353 2234 1838 2234 
L 1294 2234 
L 1294 2753 
L 1863 2753 
Q 2328 2753 2575 2939 
Q 2822 3125 2822 3475 
Q 2822 3834 2567 4026 
Q 2313 4219 1838 4219 
Q 1578 4219 1281 4162 
Q 984 4106 628 3988 
L 628 4550 
Q 988 4650 1302 4700 
Q 1616 4750 1894 4750 
Q 2613 4750 3031 4423 
Q 3450 4097 3450 3541 
Q 3450 3153 3228 2886 
Q 3006 2619 2597 2516 
z
" transform="scale(0.015625)"/>
     </defs>
     <use xlink:href="#DejaVuSans-43"/>
     <use xlink:href="#DejaVuSans-6f" transform="translate(69.824219 0)"/>
     <use xlink:href="#DejaVuSans-6d" transform="translate(131.005859 0)"/>
     <use xlink:href="#DejaVuSans-70" transform="translate(228.417969 0)"/>
     <use xlink:href="#DejaVuSans-61" transform="translate(291.894531 0)"/>
     <use xlink:href="#DejaVuSans-72" transform="translate(353.173828 0)"/>
     <use xlink:href="#DejaVuSans-65" transform="translate(392.037109 0)"/>
     <use xlink:href="#DejaVuSans-20" transform="translate(453.560547 0)"/>
     <use xlink:href="#DejaVuSans-2d" transform="translate(485.347656 0)"/>
     <use xlink:href="#DejaVuSans-20" transform="translate(521.431641 0)"/>
     <use xlink:href="#DejaVuSans-45" transform="translate(553.21875 0)"/>
     <use xlink:href="#DejaVuSans-70" transform="translate(616.402344 0)"/>
     <use xlink:href="#DejaVuSans-6f" transform="translate(679.878906 0)"/>
     <use xlink:href="#DejaVuSans-63" transform="translate(741.060547 0)"/>
     <use xlink:href="#DejaVuSans-68" transform="translate(796.041016 0)"/>
     <use xlink:href="#DejaVuSans-20" transform="translate(859.419922 0)"/>
     <use xlink:href="#DejaVuSans-31" transform="translate(891.207031 0)"/>
     <use xlink:href="#DejaVuSans-33" transform="translate(954.830078 0)"/>
     <use xlink:href="#DejaVuSans-35" transform="translate(1018.453125 0)"/>
     <use xlink:href="#DejaVuSans-30" transform="translate(1082.076172 0)"/>
    </g>
   </g>
   <g id="legend_1">
    <g id="patch_7">
     <path d="M 64.6 78.82825 
L 181.128125 78.82825 
Q 183.128125 78.82825 183.128125 76.82825 
L 183.128125 48.472 
Q 183.128125 46.472 181.128125 46.472 
L 64.6 46.472 
Q 62.6 46.472 62.6 48.472 
L 62.6 76.82825 
Q 62.6 78.82825 64.6 78.82825 
z
" style="fill: #ffffff; opacity: 0.8; stroke: #cccccc; stroke-linejoin: miter"/>
    </g>
    <g id="line2d_39">
     <path d="M 66.6 54.570437 
L 76.6 54.570437 
L 86.6 54.570437 
" style="fill: none; stroke: #1f77b4; stroke-width: 1.5; stroke-linecap: square"/>
    </g>
    <g id="text_22">
     <!-- Pred: Sample 1 -->
     <g transform="translate(94.6 58.070437) scale(0.1 -0.1)">
      <defs>
       <path id="DejaVuSans-50" d="M 1259 4147 
L 1259 2394 
L 2053 2394 
Q 2494 2394 2734 2622 
Q 2975 2850 2975 3272 
Q 2975 3691 2734 3919 
Q 2494 4147 2053 4147 
L 1259 4147 
z
M 628 4666 
L 2053 4666 
Q 2838 4666 3239 4311 
Q 3641 3956 3641 3272 
Q 3641 2581 3239 2228 
Q 2838 1875 2053 1875 
L 1259 1875 
L 1259 0 
L 628 0 
L 628 4666 
z
" transform="scale(0.015625)"/>
       <path id="DejaVuSans-3a" d="M 750 794 
L 1409 794 
L 1409 0 
L 750 0 
L 750 794 
z
M 750 3309 
L 1409 3309 
L 1409 2516 
L 750 2516 
L 750 3309 
z
" transform="scale(0.015625)"/>
       <path id="DejaVuSans-53" d="M 3425 4513 
L 3425 3897 
Q 3066 4069 2747 4153 
Q 2428 4238 2131 4238 
Q 1616 4238 1336 4038 
Q 1056 3838 1056 3469 
Q 1056 3159 1242 3001 
Q 1428 2844 1947 2747 
L 2328 2669 
Q 3034 2534 3370 2195 
Q 3706 1856 3706 1288 
Q 3706 609 3251 259 
Q 2797 -91 1919 -91 
Q 1588 -91 1214 -16 
Q 841 59 441 206 
L 441 856 
Q 825 641 1194 531 
Q 1563 422 1919 422 
Q 2459 422 2753 634 
Q 3047 847 3047 1241 
Q 3047 1584 2836 1778 
Q 2625 1972 2144 2069 
L 1759 2144 
Q 1053 2284 737 2584 
Q 422 2884 422 3419 
Q 422 4038 858 4394 
Q 1294 4750 2059 4750 
Q 2388 4750 2728 4690 
Q 3069 4631 3425 4513 
z
" transform="scale(0.015625)"/>
      </defs>
      <use xlink:href="#DejaVuSans-50"/>
      <use xlink:href="#DejaVuSans-72" transform="translate(58.552734 0)"/>
      <use xlink:href="#DejaVuSans-65" transform="translate(97.416016 0)"/>
      <use xlink:href="#DejaVuSans-64" transform="translate(158.939453 0)"/>
      <use xlink:href="#DejaVuSans-3a" transform="translate(222.416016 0)"/>
      <use xlink:href="#DejaVuSans-20" transform="translate(256.107422 0)"/>
      <use xlink:href="#DejaVuSans-53" transform="translate(287.894531 0)"/>
      <use xlink:href="#DejaVuSans-61" transform="translate(351.371094 0)"/>
      <use xlink:href="#DejaVuSans-6d" transform="translate(412.650391 0)"/>
      <use xlink:href="#DejaVuSans-70" transform="translate(510.0625 0)"/>
      <use xlink:href="#DejaVuSans-6c" transform="translate(573.539062 0)"/>
      <use xlink:href="#DejaVuSans-65" transform="translate(601.322266 0)"/>
      <use xlink:href="#DejaVuSans-20" transform="translate(662.845703 0)"/>
      <use xlink:href="#DejaVuSans-31" transform="translate(694.632812 0)"/>
     </g>
    </g>
    <g id="line2d_40">
     <path d="M 66.6 69.248562 
L 76.6 69.248562 
L 86.6 69.248562 
" style="fill: none; stroke: #ff7f0e; stroke-opacity: 0.5; stroke-width: 1.5; stroke-linecap: square"/>
    </g>
    <g id="text_23">
     <!-- Target: Sample 1 -->
     <g transform="translate(94.6 72.748562) scale(0.1 -0.1)">
      <defs>
       <path id="DejaVuSans-54" d="M -19 4666 
L 3928 4666 
L 3928 4134 
L 2272 4134 
L 2272 0 
L 1638 0 
L 1638 4134 
L -19 4134 
L -19 4666 
z
" transform="scale(0.015625)"/>
       <path id="DejaVuSans-67" d="M 2906 1791 
Q 2906 2416 2648 2759 
Q 2391 3103 1925 3103 
Q 1463 3103 1205 2759 
Q 947 2416 947 1791 
Q 947 1169 1205 825 
Q 1463 481 1925 481 
Q 2391 481 2648 825 
Q 2906 1169 2906 1791 
z
M 3481 434 
Q 3481 -459 3084 -895 
Q 2688 -1331 1869 -1331 
Q 1566 -1331 1297 -1286 
Q 1028 -1241 775 -1147 
L 775 -588 
Q 1028 -725 1275 -790 
Q 1522 -856 1778 -856 
Q 2344 -856 2625 -561 
Q 2906 -266 2906 331 
L 2906 616 
Q 2728 306 2450 153 
Q 2172 0 1784 0 
Q 1141 0 747 490 
Q 353 981 353 1791 
Q 353 2603 747 3093 
Q 1141 3584 1784 3584 
Q 2172 3584 2450 3431 
Q 2728 3278 2906 2969 
L 2906 3500 
L 3481 3500 
L 3481 434 
z
" transform="scale(0.015625)"/>
       <path id="DejaVuSans-74" d="M 1172 4494 
L 1172 3500 
L 2356 3500 
L 2356 3053 
L 1172 3053 
L 1172 1153 
Q 1172 725 1289 603 
Q 1406 481 1766 481 
L 2356 481 
L 2356 0 
L 1766 0 
Q 1100 0 847 248 
Q 594 497 594 1153 
L 594 3053 
L 172 3053 
L 172 3500 
L 594 3500 
L 594 4494 
L 1172 4494 
z
" transform="scale(0.015625)"/>
      </defs>
      <use xlink:href="#DejaVuSans-54"/>
      <use xlink:href="#DejaVuSans-61" transform="translate(44.583984 0)"/>
      <use xlink:href="#DejaVuSans-72" transform="translate(105.863281 0)"/>
      <use xlink:href="#DejaVuSans-67" transform="translate(145.226562 0)"/>
      <use xlink:href="#DejaVuSans-65" transform="translate(208.703125 0)"/>
      <use xlink:href="#DejaVuSans-74" transform="translate(270.226562 0)"/>
      <use xlink:href="#DejaVuSans-3a" transform="translate(309.435547 0)"/>
      <use xlink:href="#DejaVuSans-20" transform="translate(343.126953 0)"/>
      <use xlink:href="#DejaVuSans-53" transform="translate(374.914062 0)"/>
      <use xlink:href="#DejaVuSans-61" transform="translate(438.390625 0)"/>
      <use xlink:href="#DejaVuSans-6d" transform="translate(499.669922 0)"/>
      <use xlink:href="#DejaVuSans-70" transform="translate(597.082031 0)"/>
      <use xlink:href="#DejaVuSans-6c" transform="translate(660.558594 0)"/>
      <use xlink:href="#DejaVuSans-65" transform="translate(688.341797 0)"/>
      <use xlink:href="#DejaVuSans-20" transform="translate(749.865234 0)"/>
      <use xlink:href="#DejaVuSans-31" transform="translate(781.652344 0)"/>
     </g>
    </g>
   </g>
  </g>
 </g>
 <defs>
  <clipPath id="p6e01cc831e">
   <rect x="57.6" y="41.472" width="357.12" height="266.112"/>
  </clipPath>
 </defs>
</svg>
