<?xml version="1.0" encoding="utf-8" standalone="no"?>
<!DOCTYPE svg PUBLIC "-//W3C//DTD SVG 1.1//EN"
  "http://www.w3.org/Graphics/SVG/1.1/DTD/svg11.dtd">
<svg xmlns:xlink="http://www.w3.org/1999/xlink" width="460.8pt" height="345.6pt" viewBox="0 0 460.8 345.6" xmlns="http://www.w3.org/2000/svg" version="1.1">
 <metadata>
  <rdf:RDF xmlns:dc="http://purl.org/dc/elements/1.1/" xmlns:cc="http://creativecommons.org/ns#" xmlns:rdf="http://www.w3.org/1999/02/22-rdf-syntax-ns#">
   <cc:Work>
    <dc:type rdf:resource="http://purl.org/dc/dcmitype/StillImage"/>
    <dc:date>2025-06-03T14:19:42.409042</dc:date>
    <dc:format>image/svg+xml</dc:format>
    <dc:creator>
     <cc:Agent>
      <dc:title>Matplotlib v3.10.3, https://matplotlib.org/</dc:title>
     </cc:Agent>
    </dc:creator>
   </cc:Work>
  </rdf:RDF>
 </metadata>
 <defs>
  <style type="text/css">*{stroke-linejoin: round; stroke-linecap: butt}</style>
 </defs>
 <g id="figure_1">
  <g id="patch_1">
   <path d="M 0 345.6 
L 460.8 345.6 
L 460.8 0 
L 0 0 
z
" style="fill: #ffffff"/>
  </g>
  <g id="axes_1">
   <g id="patch_2">
    <path d="M 57.6 307.584 
L 414.72 307.584 
L 414.72 41.472 
L 57.6 41.472 
z
" style="fill: #ffffff"/>
   </g>
   <g id="matplotlib.axis_1">
    <g id="xtick_1">
     <g id="line2d_1">
      <path d="M 81.125356 307.584 
L 81.125356 41.472 
" clip-path="url(#pcfb5608388)" style="fill: none; stroke: #b0b0b0; stroke-opacity: 0.5; stroke-width: 0.8; stroke-linecap: square"/>
     </g>
     <g id="line2d_2">
      <defs>
       <path id="m03fc050983" d="M 0 0 
L 0 3.5 
" style="stroke: #000000; stroke-width: 0.8"/>
      </defs>
      <g>
       <use xlink:href="#m03fc050983" x="81.125356" y="307.584" style="stroke: #000000; stroke-width: 0.8"/>
      </g>
     </g>
     <g id="text_1">
      <!-- −1.0 -->
      <g transform="translate(68.983949 322.182437) scale(0.1 -0.1)">
       <defs>
        <path id="DejaVuSans-2212" d="M 678 2272 
L 4684 2272 
L 4684 1741 
L 678 1741 
L 678 2272 
z
" transform="scale(0.015625)"/>
        <path id="DejaVuSans-31" d="M 794 531 
L 1825 531 
L 1825 4091 
L 703 3866 
L 703 4441 
L 1819 4666 
L 2450 4666 
L 2450 531 
L 3481 531 
L 3481 0 
L 794 0 
L 794 531 
z
" transform="scale(0.015625)"/>
        <path id="DejaVuSans-2e" d="M 684 794 
L 1344 794 
L 1344 0 
L 684 0 
L 684 794 
z
" transform="scale(0.015625)"/>
        <path id="DejaVuSans-30" d="M 2034 4250 
Q 1547 4250 1301 3770 
Q 1056 3291 1056 2328 
Q 1056 1369 1301 889 
Q 1547 409 2034 409 
Q 2525 409 2770 889 
Q 3016 1369 3016 2328 
Q 3016 3291 2770 3770 
Q 2525 4250 2034 4250 
z
M 2034 4750 
Q 2819 4750 3233 4129 
Q 3647 3509 3647 2328 
Q 3647 1150 3233 529 
Q 2819 -91 2034 -91 
Q 1250 -91 836 529 
Q 422 1150 422 2328 
Q 422 3509 836 4129 
Q 1250 4750 2034 4750 
z
" transform="scale(0.015625)"/>
       </defs>
       <use xlink:href="#DejaVuSans-2212"/>
       <use xlink:href="#DejaVuSans-31" transform="translate(83.789062 0)"/>
       <use xlink:href="#DejaVuSans-2e" transform="translate(147.412109 0)"/>
       <use xlink:href="#DejaVuSans-30" transform="translate(179.199219 0)"/>
      </g>
     </g>
    </g>
    <g id="xtick_2">
     <g id="line2d_3">
      <path d="M 160.465835 307.584 
L 160.465835 41.472 
" clip-path="url(#pcfb5608388)" style="fill: none; stroke: #b0b0b0; stroke-opacity: 0.5; stroke-width: 0.8; stroke-linecap: square"/>
     </g>
     <g id="line2d_4">
      <g>
       <use xlink:href="#m03fc050983" x="160.465835" y="307.584" style="stroke: #000000; stroke-width: 0.8"/>
      </g>
     </g>
     <g id="text_2">
      <!-- −0.5 -->
      <g transform="translate(148.324429 322.182437) scale(0.1 -0.1)">
       <defs>
        <path id="DejaVuSans-35" d="M 691 4666 
L 3169 4666 
L 3169 4134 
L 1269 4134 
L 1269 2991 
Q 1406 3038 1543 3061 
Q 1681 3084 1819 3084 
Q 2600 3084 3056 2656 
Q 3513 2228 3513 1497 
Q 3513 744 3044 326 
Q 2575 -91 1722 -91 
Q 1428 -91 1123 -41 
Q 819 9 494 109 
L 494 744 
Q 775 591 1075 516 
Q 1375 441 1709 441 
Q 2250 441 2565 725 
Q 2881 1009 2881 1497 
Q 2881 1984 2565 2268 
Q 2250 2553 1709 2553 
Q 1456 2553 1204 2497 
Q 953 2441 691 2322 
L 691 4666 
z
" transform="scale(0.015625)"/>
       </defs>
       <use xlink:href="#DejaVuSans-2212"/>
       <use xlink:href="#DejaVuSans-30" transform="translate(83.789062 0)"/>
       <use xlink:href="#DejaVuSans-2e" transform="translate(147.412109 0)"/>
       <use xlink:href="#DejaVuSans-35" transform="translate(179.199219 0)"/>
      </g>
     </g>
    </g>
    <g id="xtick_3">
     <g id="line2d_5">
      <path d="M 239.806314 307.584 
L 239.806314 41.472 
" clip-path="url(#pcfb5608388)" style="fill: none; stroke: #b0b0b0; stroke-opacity: 0.5; stroke-width: 0.8; stroke-linecap: square"/>
     </g>
     <g id="line2d_6">
      <g>
       <use xlink:href="#m03fc050983" x="239.806314" y="307.584" style="stroke: #000000; stroke-width: 0.8"/>
      </g>
     </g>
     <g id="text_3">
      <!-- 0.0 -->
      <g transform="translate(231.854752 322.182437) scale(0.1 -0.1)">
       <use xlink:href="#DejaVuSans-30"/>
       <use xlink:href="#DejaVuSans-2e" transform="translate(63.623047 0)"/>
       <use xlink:href="#DejaVuSans-30" transform="translate(95.410156 0)"/>
      </g>
     </g>
    </g>
    <g id="xtick_4">
     <g id="line2d_7">
      <path d="M 319.146793 307.584 
L 319.146793 41.472 
" clip-path="url(#pcfb5608388)" style="fill: none; stroke: #b0b0b0; stroke-opacity: 0.5; stroke-width: 0.8; stroke-linecap: square"/>
     </g>
     <g id="line2d_8">
      <g>
       <use xlink:href="#m03fc050983" x="319.146793" y="307.584" style="stroke: #000000; stroke-width: 0.8"/>
      </g>
     </g>
     <g id="text_4">
      <!-- 0.5 -->
      <g transform="translate(311.195231 322.182437) scale(0.1 -0.1)">
       <use xlink:href="#DejaVuSans-30"/>
       <use xlink:href="#DejaVuSans-2e" transform="translate(63.623047 0)"/>
       <use xlink:href="#DejaVuSans-35" transform="translate(95.410156 0)"/>
      </g>
     </g>
    </g>
    <g id="xtick_5">
     <g id="line2d_9">
      <path d="M 398.487273 307.584 
L 398.487273 41.472 
" clip-path="url(#pcfb5608388)" style="fill: none; stroke: #b0b0b0; stroke-opacity: 0.5; stroke-width: 0.8; stroke-linecap: square"/>
     </g>
     <g id="line2d_10">
      <g>
       <use xlink:href="#m03fc050983" x="398.487273" y="307.584" style="stroke: #000000; stroke-width: 0.8"/>
      </g>
     </g>
     <g id="text_5">
      <!-- 1.0 -->
      <g transform="translate(390.53571 322.182437) scale(0.1 -0.1)">
       <use xlink:href="#DejaVuSans-31"/>
       <use xlink:href="#DejaVuSans-2e" transform="translate(63.623047 0)"/>
       <use xlink:href="#DejaVuSans-30" transform="translate(95.410156 0)"/>
      </g>
     </g>
    </g>
    <g id="text_6">
     <!-- Index -->
     <g transform="translate(222.393594 335.860562) scale(0.1 -0.1)">
      <defs>
       <path id="DejaVuSans-49" d="M 628 4666 
L 1259 4666 
L 1259 0 
L 628 0 
L 628 4666 
z
" transform="scale(0.015625)"/>
       <path id="DejaVuSans-6e" d="M 3513 2113 
L 3513 0 
L 2938 0 
L 2938 2094 
Q 2938 2591 2744 2837 
Q 2550 3084 2163 3084 
Q 1697 3084 1428 2787 
Q 1159 2491 1159 1978 
L 1159 0 
L 581 0 
L 581 3500 
L 1159 3500 
L 1159 2956 
Q 1366 3272 1645 3428 
Q 1925 3584 2291 3584 
Q 2894 3584 3203 3211 
Q 3513 2838 3513 2113 
z
" transform="scale(0.015625)"/>
       <path id="DejaVuSans-64" d="M 2906 2969 
L 2906 4863 
L 3481 4863 
L 3481 0 
L 2906 0 
L 2906 525 
Q 2725 213 2448 61 
Q 2172 -91 1784 -91 
Q 1150 -91 751 415 
Q 353 922 353 1747 
Q 353 2572 751 3078 
Q 1150 3584 1784 3584 
Q 2172 3584 2448 3432 
Q 2725 3281 2906 2969 
z
M 947 1747 
Q 947 1113 1208 752 
Q 1469 391 1925 391 
Q 2381 391 2643 752 
Q 2906 1113 2906 1747 
Q 2906 2381 2643 2742 
Q 2381 3103 1925 3103 
Q 1469 3103 1208 2742 
Q 947 2381 947 1747 
z
" transform="scale(0.015625)"/>
       <path id="DejaVuSans-65" d="M 3597 1894 
L 3597 1613 
L 953 1613 
Q 991 1019 1311 708 
Q 1631 397 2203 397 
Q 2534 397 2845 478 
Q 3156 559 3463 722 
L 3463 178 
Q 3153 47 2828 -22 
Q 2503 -91 2169 -91 
Q 1331 -91 842 396 
Q 353 884 353 1716 
Q 353 2575 817 3079 
Q 1281 3584 2069 3584 
Q 2775 3584 3186 3129 
Q 3597 2675 3597 1894 
z
M 3022 2063 
Q 3016 2534 2758 2815 
Q 2500 3097 2075 3097 
Q 1594 3097 1305 2825 
Q 1016 2553 972 2059 
L 3022 2063 
z
" transform="scale(0.015625)"/>
       <path id="DejaVuSans-78" d="M 3513 3500 
L 2247 1797 
L 3578 0 
L 2900 0 
L 1881 1375 
L 863 0 
L 184 0 
L 1544 1831 
L 300 3500 
L 978 3500 
L 1906 2253 
L 2834 3500 
L 3513 3500 
z
" transform="scale(0.015625)"/>
      </defs>
      <use xlink:href="#DejaVuSans-49"/>
      <use xlink:href="#DejaVuSans-6e" transform="translate(29.492188 0)"/>
      <use xlink:href="#DejaVuSans-64" transform="translate(92.871094 0)"/>
      <use xlink:href="#DejaVuSans-65" transform="translate(156.347656 0)"/>
      <use xlink:href="#DejaVuSans-78" transform="translate(216.121094 0)"/>
     </g>
    </g>
   </g>
   <g id="matplotlib.axis_2">
    <g id="ytick_1">
     <g id="line2d_11">
      <path d="M 57.6 298.099035 
L 414.72 298.099035 
" clip-path="url(#pcfb5608388)" style="fill: none; stroke: #b0b0b0; stroke-opacity: 0.5; stroke-width: 0.8; stroke-linecap: square"/>
     </g>
     <g id="line2d_12">
      <defs>
       <path id="m7dcff102da" d="M 0 0 
L -3.5 0 
" style="stroke: #000000; stroke-width: 0.8"/>
      </defs>
      <g>
       <use xlink:href="#m7dcff102da" x="57.6" y="298.099035" style="stroke: #000000; stroke-width: 0.8"/>
      </g>
     </g>
     <g id="text_7">
      <!-- −1.00 -->
      <g transform="translate(19.954687 301.898254) scale(0.1 -0.1)">
       <use xlink:href="#DejaVuSans-2212"/>
       <use xlink:href="#DejaVuSans-31" transform="translate(83.789062 0)"/>
       <use xlink:href="#DejaVuSans-2e" transform="translate(147.412109 0)"/>
       <use xlink:href="#DejaVuSans-30" transform="translate(179.199219 0)"/>
       <use xlink:href="#DejaVuSans-30" transform="translate(242.822266 0)"/>
      </g>
     </g>
    </g>
    <g id="ytick_2">
     <g id="line2d_13">
      <path d="M 57.6 267.532654 
L 414.72 267.532654 
" clip-path="url(#pcfb5608388)" style="fill: none; stroke: #b0b0b0; stroke-opacity: 0.5; stroke-width: 0.8; stroke-linecap: square"/>
     </g>
     <g id="line2d_14">
      <g>
       <use xlink:href="#m7dcff102da" x="57.6" y="267.532654" style="stroke: #000000; stroke-width: 0.8"/>
      </g>
     </g>
     <g id="text_8">
      <!-- −0.75 -->
      <g transform="translate(19.954687 271.331873) scale(0.1 -0.1)">
       <defs>
        <path id="DejaVuSans-37" d="M 525 4666 
L 3525 4666 
L 3525 4397 
L 1831 0 
L 1172 0 
L 2766 4134 
L 525 4134 
L 525 4666 
z
" transform="scale(0.015625)"/>
       </defs>
       <use xlink:href="#DejaVuSans-2212"/>
       <use xlink:href="#DejaVuSans-30" transform="translate(83.789062 0)"/>
       <use xlink:href="#DejaVuSans-2e" transform="translate(147.412109 0)"/>
       <use xlink:href="#DejaVuSans-37" transform="translate(179.199219 0)"/>
       <use xlink:href="#DejaVuSans-35" transform="translate(242.822266 0)"/>
      </g>
     </g>
    </g>
    <g id="ytick_3">
     <g id="line2d_15">
      <path d="M 57.6 236.966273 
L 414.72 236.966273 
" clip-path="url(#pcfb5608388)" style="fill: none; stroke: #b0b0b0; stroke-opacity: 0.5; stroke-width: 0.8; stroke-linecap: square"/>
     </g>
     <g id="line2d_16">
      <g>
       <use xlink:href="#m7dcff102da" x="57.6" y="236.966273" style="stroke: #000000; stroke-width: 0.8"/>
      </g>
     </g>
     <g id="text_9">
      <!-- −0.50 -->
      <g transform="translate(19.954687 240.765492) scale(0.1 -0.1)">
       <use xlink:href="#DejaVuSans-2212"/>
       <use xlink:href="#DejaVuSans-30" transform="translate(83.789062 0)"/>
       <use xlink:href="#DejaVuSans-2e" transform="translate(147.412109 0)"/>
       <use xlink:href="#DejaVuSans-35" transform="translate(179.199219 0)"/>
       <use xlink:href="#DejaVuSans-30" transform="translate(242.822266 0)"/>
      </g>
     </g>
    </g>
    <g id="ytick_4">
     <g id="line2d_17">
      <path d="M 57.6 206.399892 
L 414.72 206.399892 
" clip-path="url(#pcfb5608388)" style="fill: none; stroke: #b0b0b0; stroke-opacity: 0.5; stroke-width: 0.8; stroke-linecap: square"/>
     </g>
     <g id="line2d_18">
      <g>
       <use xlink:href="#m7dcff102da" x="57.6" y="206.399892" style="stroke: #000000; stroke-width: 0.8"/>
      </g>
     </g>
     <g id="text_10">
      <!-- −0.25 -->
      <g transform="translate(19.954687 210.19911) scale(0.1 -0.1)">
       <defs>
        <path id="DejaVuSans-32" d="M 1228 531 
L 3431 531 
L 3431 0 
L 469 0 
L 469 531 
Q 828 903 1448 1529 
Q 2069 2156 2228 2338 
Q 2531 2678 2651 2914 
Q 2772 3150 2772 3378 
Q 2772 3750 2511 3984 
Q 2250 4219 1831 4219 
Q 1534 4219 1204 4116 
Q 875 4013 500 3803 
L 500 4441 
Q 881 4594 1212 4672 
Q 1544 4750 1819 4750 
Q 2544 4750 2975 4387 
Q 3406 4025 3406 3419 
Q 3406 3131 3298 2873 
Q 3191 2616 2906 2266 
Q 2828 2175 2409 1742 
Q 1991 1309 1228 531 
z
" transform="scale(0.015625)"/>
       </defs>
       <use xlink:href="#DejaVuSans-2212"/>
       <use xlink:href="#DejaVuSans-30" transform="translate(83.789062 0)"/>
       <use xlink:href="#DejaVuSans-2e" transform="translate(147.412109 0)"/>
       <use xlink:href="#DejaVuSans-32" transform="translate(179.199219 0)"/>
       <use xlink:href="#DejaVuSans-35" transform="translate(242.822266 0)"/>
      </g>
     </g>
    </g>
    <g id="ytick_5">
     <g id="line2d_19">
      <path d="M 57.6 175.83351 
L 414.72 175.83351 
" clip-path="url(#pcfb5608388)" style="fill: none; stroke: #b0b0b0; stroke-opacity: 0.5; stroke-width: 0.8; stroke-linecap: square"/>
     </g>
     <g id="line2d_20">
      <g>
       <use xlink:href="#m7dcff102da" x="57.6" y="175.83351" style="stroke: #000000; stroke-width: 0.8"/>
      </g>
     </g>
     <g id="text_11">
      <!-- 0.00 -->
      <g transform="translate(28.334375 179.632729) scale(0.1 -0.1)">
       <use xlink:href="#DejaVuSans-30"/>
       <use xlink:href="#DejaVuSans-2e" transform="translate(63.623047 0)"/>
       <use xlink:href="#DejaVuSans-30" transform="translate(95.410156 0)"/>
       <use xlink:href="#DejaVuSans-30" transform="translate(159.033203 0)"/>
      </g>
     </g>
    </g>
    <g id="ytick_6">
     <g id="line2d_21">
      <path d="M 57.6 145.267129 
L 414.72 145.267129 
" clip-path="url(#pcfb5608388)" style="fill: none; stroke: #b0b0b0; stroke-opacity: 0.5; stroke-width: 0.8; stroke-linecap: square"/>
     </g>
     <g id="line2d_22">
      <g>
       <use xlink:href="#m7dcff102da" x="57.6" y="145.267129" style="stroke: #000000; stroke-width: 0.8"/>
      </g>
     </g>
     <g id="text_12">
      <!-- 0.25 -->
      <g transform="translate(28.334375 149.066348) scale(0.1 -0.1)">
       <use xlink:href="#DejaVuSans-30"/>
       <use xlink:href="#DejaVuSans-2e" transform="translate(63.623047 0)"/>
       <use xlink:href="#DejaVuSans-32" transform="translate(95.410156 0)"/>
       <use xlink:href="#DejaVuSans-35" transform="translate(159.033203 0)"/>
      </g>
     </g>
    </g>
    <g id="ytick_7">
     <g id="line2d_23">
      <path d="M 57.6 114.700748 
L 414.72 114.700748 
" clip-path="url(#pcfb5608388)" style="fill: none; stroke: #b0b0b0; stroke-opacity: 0.5; stroke-width: 0.8; stroke-linecap: square"/>
     </g>
     <g id="line2d_24">
      <g>
       <use xlink:href="#m7dcff102da" x="57.6" y="114.700748" style="stroke: #000000; stroke-width: 0.8"/>
      </g>
     </g>
     <g id="text_13">
      <!-- 0.50 -->
      <g transform="translate(28.334375 118.499967) scale(0.1 -0.1)">
       <use xlink:href="#DejaVuSans-30"/>
       <use xlink:href="#DejaVuSans-2e" transform="translate(63.623047 0)"/>
       <use xlink:href="#DejaVuSans-35" transform="translate(95.410156 0)"/>
       <use xlink:href="#DejaVuSans-30" transform="translate(159.033203 0)"/>
      </g>
     </g>
    </g>
    <g id="ytick_8">
     <g id="line2d_25">
      <path d="M 57.6 84.134367 
L 414.72 84.134367 
" clip-path="url(#pcfb5608388)" style="fill: none; stroke: #b0b0b0; stroke-opacity: 0.5; stroke-width: 0.8; stroke-linecap: square"/>
     </g>
     <g id="line2d_26">
      <g>
       <use xlink:href="#m7dcff102da" x="57.6" y="84.134367" style="stroke: #000000; stroke-width: 0.8"/>
      </g>
     </g>
     <g id="text_14">
      <!-- 0.75 -->
      <g transform="translate(28.334375 87.933585) scale(0.1 -0.1)">
       <use xlink:href="#DejaVuSans-30"/>
       <use xlink:href="#DejaVuSans-2e" transform="translate(63.623047 0)"/>
       <use xlink:href="#DejaVuSans-37" transform="translate(95.410156 0)"/>
       <use xlink:href="#DejaVuSans-35" transform="translate(159.033203 0)"/>
      </g>
     </g>
    </g>
    <g id="ytick_9">
     <g id="line2d_27">
      <path d="M 57.6 53.567985 
L 414.72 53.567985 
" clip-path="url(#pcfb5608388)" style="fill: none; stroke: #b0b0b0; stroke-opacity: 0.5; stroke-width: 0.8; stroke-linecap: square"/>
     </g>
     <g id="line2d_28">
      <g>
       <use xlink:href="#m7dcff102da" x="57.6" y="53.567985" style="stroke: #000000; stroke-width: 0.8"/>
      </g>
     </g>
     <g id="text_15">
      <!-- 1.00 -->
      <g transform="translate(28.334375 57.367204) scale(0.1 -0.1)">
       <use xlink:href="#DejaVuSans-31"/>
       <use xlink:href="#DejaVuSans-2e" transform="translate(63.623047 0)"/>
       <use xlink:href="#DejaVuSans-30" transform="translate(95.410156 0)"/>
       <use xlink:href="#DejaVuSans-30" transform="translate(159.033203 0)"/>
      </g>
     </g>
    </g>
    <g id="text_16">
     <!-- Value -->
     <g transform="translate(13.875 188.25925) rotate(-90) scale(0.1 -0.1)">
      <defs>
       <path id="DejaVuSans-56" d="M 1831 0 
L 50 4666 
L 709 4666 
L 2188 738 
L 3669 4666 
L 4325 4666 
L 2547 0 
L 1831 0 
z
" transform="scale(0.015625)"/>
       <path id="DejaVuSans-61" d="M 2194 1759 
Q 1497 1759 1228 1600 
Q 959 1441 959 1056 
Q 959 750 1161 570 
Q 1363 391 1709 391 
Q 2188 391 2477 730 
Q 2766 1069 2766 1631 
L 2766 1759 
L 2194 1759 
z
M 3341 1997 
L 3341 0 
L 2766 0 
L 2766 531 
Q 2569 213 2275 61 
Q 1981 -91 1556 -91 
Q 1019 -91 701 211 
Q 384 513 384 1019 
Q 384 1609 779 1909 
Q 1175 2209 1959 2209 
L 2766 2209 
L 2766 2266 
Q 2766 2663 2505 2880 
Q 2244 3097 1772 3097 
Q 1472 3097 1187 3025 
Q 903 2953 641 2809 
L 641 3341 
Q 956 3463 1253 3523 
Q 1550 3584 1831 3584 
Q 2591 3584 2966 3190 
Q 3341 2797 3341 1997 
z
" transform="scale(0.015625)"/>
       <path id="DejaVuSans-6c" d="M 603 4863 
L 1178 4863 
L 1178 0 
L 603 0 
L 603 4863 
z
" transform="scale(0.015625)"/>
       <path id="DejaVuSans-75" d="M 544 1381 
L 544 3500 
L 1119 3500 
L 1119 1403 
Q 1119 906 1312 657 
Q 1506 409 1894 409 
Q 2359 409 2629 706 
Q 2900 1003 2900 1516 
L 2900 3500 
L 3475 3500 
L 3475 0 
L 2900 0 
L 2900 538 
Q 2691 219 2414 64 
Q 2138 -91 1772 -91 
Q 1169 -91 856 284 
Q 544 659 544 1381 
z
M 1991 3584 
L 1991 3584 
z
" transform="scale(0.015625)"/>
      </defs>
      <use xlink:href="#DejaVuSans-56"/>
      <use xlink:href="#DejaVuSans-61" transform="translate(60.658203 0)"/>
      <use xlink:href="#DejaVuSans-6c" transform="translate(121.9375 0)"/>
      <use xlink:href="#DejaVuSans-75" transform="translate(149.720703 0)"/>
      <use xlink:href="#DejaVuSans-65" transform="translate(213.099609 0)"/>
     </g>
    </g>
   </g>
   <g id="line2d_29">
    <path d="M 181.422016 179.338178 
L 153.48279 178.728901 
L 176.824565 178.121081 
L 179.461792 177.516465 
L 179.635543 176.915915 
L 184.777772 169.149426 
L 189.003955 162.005826 
L 191.862932 157.253506 
L 192.917257 155.485043 
L 197.007602 149.583337 
L 206.447196 136.132758 
L 208.523017 133.233495 
L 210.622616 130.337245 
L 213.153591 126.861343 
L 216.755442 121.66033 
L 218.570125 118.760539 
L 220.337961 115.875366 
L 222.110754 112.984214 
L 223.930516 110.091476 
L 225.65981 107.211376 
L 228.009615 104.327537 
L 231.313478 100.299531 
L 237.403601 92.863132 
L 240.80442 88.303409 
L 242.631389 85.477536 
L 244.224269 83.198166 
L 245.761971 80.939945 
L 247.616576 78.115769 
L 249.587289 75.29902 
L 251.031147 73.059892 
L 253.893932 69.136864 
L 254.975421 67.46466 
L 257.856715 63.562635 
L 258.872725 61.899446 
L 260.307967 60.196685 
L 261.202147 59.093497 
L 261.778279 58.0194 
L 262.134056 56.921299 
L 262.467814 56.351394 
L 262.964091 55.775004 
L 263.613959 55.210252 
L 264.438026 54.684401 
L 265.548324 54.229845 
L 267.673054 53.653658 
L 265.563221 53.568 
L 253.564193 53.784959 
L 248.364004 54.042335 
L 244.63949 54.359447 
L 242.222013 54.710396 
L 240.799862 55.079673 
L 236.882828 56.835924 
L 232.953157 58.033808 
L 231.239365 58.69198 
L 230.228102 59.345247 
L 230.013507 59.951451 
L 230.416849 60.472375 
L 231.450205 60.883599 
L 233.66246 61.181502 
L 243.486914 61.689031 
L 243.553074 61.895394 
L 229.432078 63.829492 
L 226.626506 64.528424 
L 225.283405 65.22323 
L 225.138866 65.860821 
L 225.670157 66.401313 
L 226.82053 66.825743 
L 229.102425 67.13924 
L 237.446551 67.758722 
L 237.098482 68.014021 
L 225.193761 69.969231 
L 223.02299 70.62029 
L 221.952425 71.261249 
L 221.78966 71.851617 
L 222.249921 72.361865 
L 223.317043 72.778766 
L 225.193052 73.107444 
L 231.3412 73.840663 
L 231.067331 74.126344 
L 226.797972 74.933292 
L 221.227186 76.055086 
L 219.292517 76.676083 
L 218.270662 77.287855 
L 218.056076 77.854378 
L 218.451057 78.349235 
L 219.437804 78.760838 
L 221.123515 79.094632 
L 225.232105 79.624461 
L 226.179648 79.889446 
L 225.763604 80.200021 
L 221.78111 81.036775 
L 216.927126 82.140918 
L 215.327852 82.735666 
L 214.518587 83.315059 
L 214.396937 83.849604 
L 214.830781 84.319829 
L 215.801193 84.719684 
L 218.979907 85.353428 
L 220.324985 85.635523 
L 220.807709 85.933404 
L 220.244118 86.272598 
L 216.822898 87.129079 
L 212.907017 88.193687 
L 211.609117 88.755801 
L 210.922467 89.303063 
L 210.796409 89.812714 
L 211.150304 90.269784 
L 211.946214 90.669997 
L 215.352197 91.642665 
L 215.665649 91.962087 
L 215.160548 92.316293 
L 212.268537 93.174954 
L 208.89405 94.2091 
L 207.792453 94.750298 
L 207.224795 95.277476 
L 207.151107 95.770911 
L 207.512445 96.2181 
L 208.257442 96.616053 
L 211.109653 97.622966 
L 211.283947 97.959776 
L 210.774514 98.328565 
L 208.269653 99.195235 
L 205.531839 100.201782 
L 204.643286 100.719981 
L 204.191528 101.22335 
L 204.155256 101.69681 
L 204.482242 102.131661 
L 205.105835 102.527064 
L 207.156706 103.572586 
L 207.185279 103.925065 
L 206.701506 104.303575 
L 204.634253 105.162629 
L 202.388053 106.131056 
L 201.624859 106.626809 
L 201.205136 107.110661 
L 201.126784 107.570399 
L 201.354035 107.998676 
L 202.440433 108.762693 
L 203.401888 109.462076 
L 203.402513 109.820618 
L 202.978098 110.201249 
L 201.170585 111.050247 
L 199.171393 111.992962 
L 198.481319 112.47328 
L 198.09644 112.942303 
L 198.0186 113.38963 
L 198.213134 113.809461 
L 199.111325 114.571867 
L 199.551232 114.929666 
L 199.771908 115.286998 
L 199.664133 115.655426 
L 199.205745 116.043848 
L 195.325248 118.280217 
L 195.005705 118.73517 
L 194.928659 119.172448 
L 195.056477 119.588376 
L 195.972108 121.103573 
L 195.811083 121.483034 
L 195.398785 121.877923 
L 192.130606 124.080963 
L 191.816786 124.527994 
L 191.69837 124.960797 
L 191.752471 125.376084 
L 192.337815 126.91283 
L 192.160286 127.298103 
L 191.768162 127.696873 
L 188.874913 129.874752 
L 188.623677 130.310364 
L 188.54071 130.732669 
L 188.720812 131.534334 
L 188.891086 132.301823 
L 188.789629 132.687231 
L 188.518578 133.081009 
L 187.565776 133.903436 
L 186.040985 135.197789 
L 185.458166 136.050925 
L 185.279039 136.867999 
L 185.186926 137.656171 
L 184.824661 138.442535 
L 184.071426 139.252183 
L 182.271668 140.941895 
L 181.721149 141.781812 
L 181.32909 142.995164 
L 181.013487 143.787985 
L 180.417119 144.592444 
L 178.437383 146.678783 
L 177.966936 147.504615 
L 177.296322 149.108481 
L 176.727619 149.913057 
L 174.712358 152.381201 
L 172.763933 155.606819 
L 170.704645 158.450531 
L 168.651187 161.656624 
L 167.19945 163.671562 
L 165.421863 166.457059 
L 163.763007 168.850267 
L 162.153542 171.231653 
L 150.939141 187.067147 
L 147.263025 192.180759 
L 143.096079 198.055925 
L 138.044183 205.082901 
L 134.763104 209.731451 
L 129.59965 217.036469 
L 128.428735 218.947032 
L 127.077188 221.235369 
L 124.077649 226.178507 
L 122.675738 228.459028 
L 121.527276 230.352993 
L 120.353598 232.252155 
L 119.223476 234.143697 
L 117.845796 236.416009 
L 116.676668 238.305886 
L 115.561262 240.192483 
L 114.656196 241.697058 
L 113.470544 243.584063 
L 112.395421 245.456297 
L 110.989547 247.711756 
L 109.874812 249.581177 
L 108.722189 251.454475 
L 107.613716 253.318262 
L 106.46428 255.185671 
L 105.634169 256.666561 
L 104.775977 257.787182 
L 103.634041 259.269318 
L 102.481171 260.743612 
L 100.915058 262.596687 
L 99.521611 264.429364 
L 97.954249 266.273482 
L 96.577222 268.096502 
L 94.98508 269.936102 
L 93.650879 271.749066 
L 91.768751 273.947143 
L 90.721878 275.391084 
L 88.807242 277.586523 
L 87.7958 279.025232 
L 85.842821 281.220022 
L 84.889395 282.651575 
L 82.867901 284.848544 
L 82.006645 286.270259 
L 79.88952 288.470011 
L 79.166824 289.877683 
L 78.334491 290.61405 
L 77.412513 291.363346 
L 76.901472 292.082748 
L 76.72277 293.109592 
L 76.453308 293.466298 
L 75.286649 294.224455 
L 74.088853 294.954242 
L 73.832727 295.239508 
L 73.887887 295.42666 
L 74.677602 295.488 
L 80.865503 295.187933 
L 85.545637 294.843194 
L 89.759846 294.401405 
L 93.029282 293.89416 
L 95.28598 293.349215 
L 96.693368 292.783771 
L 97.53986 292.201179 
L 98.947163 290.939682 
L 100.137127 290.228048 
L 105.075231 287.749421 
L 105.988801 286.892444 
L 106.27176 286.090452 
L 106.386543 284.798566 
L 105.919936 284.334186 
L 104.147011 283.965579 
L 99.032418 283.31127 
L 98.217639 282.904746 
L 99.59582 282.379121 
L 109.844679 280.020987 
L 112.060244 279.088576 
L 112.839763 278.181868 
L 112.794554 276.092136 
L 111.9205 275.644008 
L 105.662884 274.533051 
L 105.898031 274.057061 
L 107.863562 273.464245 
L 114.061251 271.933617 
L 116.624734 271.055805 
L 118.088454 270.167534 
L 118.578441 269.320672 
L 118.671585 267.90274 
L 118.51144 267.359005 
L 117.568711 266.90697 
L 114.035147 266.119502 
L 113.10041 265.688653 
L 113.574811 265.177523 
L 115.358509 264.563011 
L 120.656258 263.035947 
L 122.831012 262.17886 
L 124.099639 261.318101 
L 124.571344 260.500899 
L 124.77091 259.133258 
L 124.572886 258.604208 
L 123.602842 258.157063 
L 120.390107 257.346858 
L 119.780597 256.890851 
L 120.528176 256.350411 
L 127.343292 254.158412 
L 129.05089 253.31464 
L 129.91156 252.484 
L 130.169843 251.708607 
L 130.199882 250.424184 
L 129.741882 249.917689 
L 128.618115 249.47206 
L 127.175174 249.048818 
L 126.13306 248.606075 
L 126.056184 248.107196 
L 127.055586 247.52816 
L 132.762995 245.327737 
L 134.032795 244.521036 
L 134.689179 243.737161 
L 134.950697 243.007921 
L 135.045003 242.3534 
L 134.958774 241.778278 
L 134.481716 241.271295 
L 131.962687 239.879641 
L 132.127315 239.351859 
L 133.097765 238.754291 
L 137.88977 236.581936 
L 138.947954 235.806139 
L 139.535323 235.056326 
L 139.81604 234.35887 
L 139.927816 233.728978 
L 139.819 233.167655 
L 139.348648 232.661721 
L 137.823563 231.712337 
L 137.527061 231.208816 
L 137.917123 230.653333 
L 138.951586 230.034591 
L 141.85104 228.629904 
L 143.062294 227.883603 
L 143.878748 227.144303 
L 144.349214 226.437716 
L 144.594207 225.78184 
L 144.654834 225.183375 
L 144.470467 224.636773 
L 143.172992 223.119529 
L 143.279916 222.578742 
L 143.883732 221.992987 
L 148.004409 219.277382 
L 148.620265 218.585006 
L 149.01291 217.923052 
L 149.227609 217.300867 
L 149.272639 216.719346 
L 149.146184 216.171104 
L 148.707715 215.116108 
L 148.706911 214.575562 
L 149.0143 214.007709 
L 149.683869 213.405779 
L 152.433884 211.435218 
L 153.737015 210.107385 
L 154.134171 209.477763 
L 154.38063 208.878406 
L 154.489531 207.753934 
L 154.563267 206.655897 
L 154.850898 206.086334 
L 155.368929 205.49281 
L 158.868699 202.296592 
L 159.601845 201.070036 
L 160.71325 198.182203 
L 161.761418 196.972198 
L 163.538798 195.092792 
L 164.457262 193.852697 
L 165.458357 192.053434 
L 166.482449 190.280223 
L 167.821577 188.471791 
L 170.162207 185.405155 
L 171.659154 183.010925 
L 172.782779 181.22894 
L 174.149884 179.414267 
L 174.149884 179.414267 
" clip-path="url(#pcfb5608388)" style="fill: none; stroke: #1f77b4; stroke-width: 1.5; stroke-linecap: square"/>
   </g>
   <g id="line2d_30">
    <path d="M 240.166131 179.338178 
L 242.458006 177.516465 
L 247.143891 173.943133 
L 250.003464 171.542969 
L 256.956888 166.164326 
L 259.17583 164.381205 
L 264.600311 160.212533 
L 269.839798 156.076055 
L 282.666575 146.062767 
L 285.685958 143.718421 
L 289.256025 140.792842 
L 293.86712 137.305222 
L 297.453786 134.386723 
L 301.984364 130.919283 
L 305.664463 128.016048 
L 310.078724 124.546151 
L 313.916348 121.66033 
L 316.811077 119.342427 
L 319.724392 117.023978 
L 323.570338 114.146803 
L 327.888397 110.666023 
L 331.658461 107.7902 
L 335.270972 104.901325 
L 339.009086 102.029569 
L 341.855726 99.725735 
L 346.38051 96.298941 
L 349.15664 93.999939 
L 354.436125 90.020833 
L 357.255232 87.735247 
L 361.131019 84.910095 
L 364.604288 82.063378 
L 369.166914 78.685266 
L 371.906563 76.415501 
L 376.505793 73.059892 
L 379.141232 70.797503 
L 383.83509 67.46466 
L 386.320496 65.207875 
L 388.027895 64.107988 
L 389.818043 63.014885 
L 391.203109 61.899446 
L 393.380511 59.639789 
L 395.290087 58.55549 
L 397.426015 57.476905 
L 398.172715 56.921299 
L 398.487273 56.351394 
L 398.291055 55.775004 
L 397.613957 55.210252 
L 396.596386 54.684401 
L 393.540419 53.568 
L 394.185293 53.784959 
L 394.679622 54.042335 
L 394.954711 54.359447 
L 394.810078 54.710396 
L 394.161449 55.079673 
L 389.458502 56.835924 
L 389.01904 57.407272 
L 389.189362 58.033808 
L 389.874092 58.69198 
L 391.701231 59.951451 
L 392.149413 60.472375 
L 391.897572 60.883599 
L 390.824085 61.181502 
L 386.640729 61.53745 
L 381.848138 61.895394 
L 380.149601 62.200883 
L 379.248261 62.629903 
L 379.187293 63.18145 
L 379.831675 63.829492 
L 382.901271 65.860821 
L 383.189082 66.401313 
L 382.754018 66.825743 
L 381.593355 67.13924 
L 377.763676 67.559173 
L 373.771251 68.014021 
L 372.382392 68.358433 
L 371.601851 68.806481 
L 371.437999 69.351812 
L 371.784875 69.969231 
L 373.728567 71.851617 
L 373.887728 72.361865 
L 373.523969 72.778766 
L 372.605831 73.107444 
L 369.490562 73.601135 
L 366.012782 74.126344 
L 364.697933 74.486205 
L 363.872097 74.933292 
L 363.573466 75.463187 
L 363.734264 76.055086 
L 365.124295 77.854378 
L 365.164663 78.349235 
L 364.735027 78.760838 
L 363.814033 79.094632 
L 360.907259 79.624461 
L 357.867211 80.200021 
L 356.784511 80.579559 
L 356.141198 81.036775 
L 355.935143 81.564375 
L 356.074726 82.140918 
L 356.724755 83.315059 
L 356.863515 83.849604 
L 356.680765 84.319829 
L 356.110052 84.719684 
L 355.164921 85.05745 
L 349.997798 86.272598 
L 349.090423 86.669604 
L 348.523787 87.129079 
L 348.285546 87.643182 
L 348.300074 88.193687 
L 348.576507 89.303063 
L 348.55673 89.812714 
L 348.28129 90.269784 
L 347.698575 90.669997 
L 346.818838 91.020166 
L 342.226654 92.316293 
L 341.40865 92.719253 
L 340.874247 93.174954 
L 340.608039 93.676799 
L 340.563283 94.750298 
L 340.553664 95.277476 
L 340.399563 95.770911 
L 340.022751 96.2181 
L 339.39371 96.616053 
L 337.516642 97.300665 
L 335.396472 97.959776 
L 334.492682 98.328565 
L 333.784278 98.739855 
L 333.290327 99.195235 
L 332.98745 99.687366 
L 332.283567 101.69681 
L 331.861896 102.131661 
L 331.261314 102.527064 
L 329.611156 103.232955 
L 326.909926 104.303575 
L 326.210507 104.715791 
L 325.674487 105.162629 
L 325.042949 106.131056 
L 324.390272 107.570399 
L 323.990459 107.998676 
L 323.431796 108.394371 
L 321.883719 109.114079 
L 319.299731 110.201249 
L 318.100011 111.050247 
L 317.439295 111.992962 
L 316.949057 112.942303 
L 316.161148 113.809461 
L 314.877014 114.571867 
L 311.770532 116.043848 
L 310.611292 116.893741 
L 309.807167 117.815006 
L 308.732625 119.172448 
L 307.723004 119.983557 
L 305.64706 121.103573 
L 303.539799 122.291658 
L 302.510803 123.170946 
L 300.604665 125.376084 
L 299.426396 126.158364 
L 295.990516 128.1118 
L 295.064755 128.983727 
L 293.496943 130.732669 
L 292.39249 131.534334 
L 289.226256 133.486239 
L 287.774287 134.763667 
L 285.917781 136.464201 
L 284.213673 137.656171 
L 281.866077 139.252183 
L 279.894116 140.941895 
L 278.435193 142.192337 
L 276.163097 143.787985 
L 274.005557 145.419137 
L 271.012095 147.909842 
L 267.274869 150.731622 
L 263.129202 153.998238 
L 252.30188 162.46367 
L 249.201647 164.86641 
L 246.191998 167.25657 
L 239.549149 172.42246 
L 232.887538 177.576202 
L 220.39941 187.462043 
L 213.433934 192.964263 
L 209.51738 196.102134 
L 191.3794 210.503885 
L 188.005016 213.200499 
L 184.66994 215.889894 
L 170.744 226.940738 
L 164.567586 231.873899 
L 160.783363 234.903713 
L 154.188404 240.192483 
L 151.857676 242.075349 
L 149.534468 243.958361 
L 147.187265 245.833044 
L 144.87483 247.711756 
L 142.531306 249.581177 
L 140.232263 251.454475 
L 137.876368 253.318262 
L 135.622989 255.185671 
L 133.257504 257.039409 
L 131.027373 258.901265 
L 128.649383 260.743612 
L 126.442804 262.596687 
L 124.060057 264.429364 
L 121.893286 266.273482 
L 119.072202 268.465014 
L 117.354674 269.936102 
L 114.512669 272.11612 
L 112.833133 273.585131 
L 109.957949 275.757097 
L 108.334453 277.225146 
L 105.42242 279.390639 
L 103.880179 280.859447 
L 100.55808 283.384947 
L 99.457306 284.488632 
L 97.813503 285.557364 
L 96.768617 286.270259 
L 96.062625 287.003558 
L 95.481574 287.745734 
L 94.595169 288.470011 
L 92.199842 289.877683 
L 91.587533 290.61405 
L 91.230659 291.363346 
L 90.901006 291.728746 
L 90.363576 292.082748 
L 87.344137 293.466298 
L 87.185326 293.83959 
L 87.559745 294.224455 
L 88.461993 294.604817 
L 91.231964 295.239508 
L 93.632578 295.488 
L 94.186322 295.408237 
L 94.265827 295.187933 
L 93.696004 294.401405 
L 93.58157 293.89416 
L 93.904981 293.349215 
L 94.769917 292.783771 
L 100.488023 290.228048 
L 101.074871 289.450375 
L 100.978295 288.615435 
L 100.31807 287.749421 
L 98.59342 286.090452 
L 98.334295 285.384262 
L 98.913605 284.798566 
L 100.446663 284.334186 
L 102.825778 283.965579 
L 108.744841 283.31127 
L 111.36964 282.904746 
L 113.225778 282.379121 
L 114.098195 281.712962 
L 113.992595 280.914694 
L 113.129645 280.020987 
L 110.724596 278.181868 
L 110.052426 277.358742 
L 110.171703 276.658156 
L 111.201446 276.092136 
L 113.065945 275.644008 
L 122.842172 274.057061 
L 124.216258 273.464245 
L 124.813018 272.749747 
L 124.708411 271.933617 
L 124.108246 271.055805 
L 122.611262 269.320672 
L 122.318419 268.55753 
L 122.627775 267.90274 
L 123.62417 267.359005 
L 125.261096 266.90697 
L 131.936809 265.688653 
L 133.814199 265.177523 
L 135.117765 264.563011 
L 135.752603 263.842814 
L 135.758921 263.035947 
L 135.30601 262.17886 
L 134.122884 260.500899 
L 133.981475 259.765486 
L 134.433574 259.133258 
L 135.551212 258.604208 
L 137.263728 258.157063 
L 143.635088 256.890851 
L 145.226521 256.350411 
L 146.21428 255.708476 
L 146.573225 254.969543 
L 146.413146 254.158412 
L 145.463125 252.484 
L 145.220146 251.708607 
L 145.43354 251.018203 
L 146.21148 250.424184 
L 147.540535 249.917689 
L 151.262429 249.048818 
L 153.201278 248.606075 
L 154.881003 248.107196 
L 156.133164 247.52816 
L 156.881367 246.862074 
L 157.152494 246.119913 
L 157.067409 245.327737 
L 156.606845 243.737161 
L 156.647023 243.007921 
L 157.080499 242.3534 
L 157.971936 241.778278 
L 159.293226 241.271295 
L 165.884284 239.351859 
L 166.964634 238.754291 
L 167.609091 238.083665 
L 167.856922 237.351553 
L 167.686421 235.056326 
L 167.936848 234.35887 
L 168.568944 233.728978 
L 169.607337 233.167655 
L 172.574118 232.186727 
L 175.652245 231.208816 
L 176.827544 230.653333 
L 177.643274 230.034591 
L 178.109612 229.355034 
L 178.311637 228.629904 
L 178.493247 227.144303 
L 178.771936 226.437716 
L 179.319542 225.78184 
L 180.169548 225.183375 
L 181.289584 224.636773 
L 186.412841 222.578742 
L 187.330217 221.992987 
L 188.006875 221.359178 
L 188.477984 220.684401 
L 189.483812 218.585006 
L 189.988285 217.923052 
L 190.681721 217.300867 
L 191.572279 216.719346 
L 193.784132 215.642374 
L 196.061988 214.575562 
L 197.030122 214.007709 
L 197.823824 213.405779 
L 198.444348 212.770436 
L 201.007274 209.477763 
L 202.831084 208.306617 
L 205.974249 206.655897 
L 207.609677 205.49281 
L 208.77897 204.236045 
L 209.894227 202.936643 
L 211.364838 201.673485 
L 214.166293 199.910419 
L 215.927866 198.766579 
L 217.376359 197.584059 
L 220.095785 195.092792 
L 222.567772 193.245491 
L 225.77669 190.873161 
L 235.680566 183.010925 
L 238.658132 180.627864 
L 240.076216 179.414267 
L 240.076216 179.414267 
" clip-path="url(#pcfb5608388)" style="fill: none; stroke: #ff7f0e; stroke-opacity: 0.5; stroke-width: 1.5; stroke-linecap: square"/>
   </g>
   <g id="patch_3">
    <path d="M 57.6 307.584 
L 57.6 41.472 
" style="fill: none; stroke: #000000; stroke-width: 0.8; stroke-linejoin: miter; stroke-linecap: square"/>
   </g>
   <g id="patch_4">
    <path d="M 414.72 307.584 
L 414.72 41.472 
" style="fill: none; stroke: #000000; stroke-width: 0.8; stroke-linejoin: miter; stroke-linecap: square"/>
   </g>
   <g id="patch_5">
    <path d="M 57.6 307.584 
L 414.72 307.584 
" style="fill: none; stroke: #000000; stroke-width: 0.8; stroke-linejoin: miter; stroke-linecap: square"/>
   </g>
   <g id="patch_6">
    <path d="M 57.6 41.472 
L 414.72 41.472 
" style="fill: none; stroke: #000000; stroke-width: 0.8; stroke-linejoin: miter; stroke-linecap: square"/>
   </g>
   <g id="text_17">
    <!-- Compare - Epoch 1 -->
    <g transform="translate(178.869375 35.472) scale(0.12 -0.12)">
     <defs>
      <path id="DejaVuSans-43" d="M 4122 4306 
L 4122 3641 
Q 3803 3938 3442 4084 
Q 3081 4231 2675 4231 
Q 1875 4231 1450 3742 
Q 1025 3253 1025 2328 
Q 1025 1406 1450 917 
Q 1875 428 2675 428 
Q 3081 428 3442 575 
Q 3803 722 4122 1019 
L 4122 359 
Q 3791 134 3420 21 
Q 3050 -91 2638 -91 
Q 1578 -91 968 557 
Q 359 1206 359 2328 
Q 359 3453 968 4101 
Q 1578 4750 2638 4750 
Q 3056 4750 3426 4639 
Q 3797 4528 4122 4306 
z
" transform="scale(0.015625)"/>
      <path id="DejaVuSans-6f" d="M 1959 3097 
Q 1497 3097 1228 2736 
Q 959 2375 959 1747 
Q 959 1119 1226 758 
Q 1494 397 1959 397 
Q 2419 397 2687 759 
Q 2956 1122 2956 1747 
Q 2956 2369 2687 2733 
Q 2419 3097 1959 3097 
z
M 1959 3584 
Q 2709 3584 3137 3096 
Q 3566 2609 3566 1747 
Q 3566 888 3137 398 
Q 2709 -91 1959 -91 
Q 1206 -91 779 398 
Q 353 888 353 1747 
Q 353 2609 779 3096 
Q 1206 3584 1959 3584 
z
" transform="scale(0.015625)"/>
      <path id="DejaVuSans-6d" d="M 3328 2828 
Q 3544 3216 3844 3400 
Q 4144 3584 4550 3584 
Q 5097 3584 5394 3201 
Q 5691 2819 5691 2113 
L 5691 0 
L 5113 0 
L 5113 2094 
Q 5113 2597 4934 2840 
Q 4756 3084 4391 3084 
Q 3944 3084 3684 2787 
Q 3425 2491 3425 1978 
L 3425 0 
L 2847 0 
L 2847 2094 
Q 2847 2600 2669 2842 
Q 2491 3084 2119 3084 
Q 1678 3084 1418 2786 
Q 1159 2488 1159 1978 
L 1159 0 
L 581 0 
L 581 3500 
L 1159 3500 
L 1159 2956 
Q 1356 3278 1631 3431 
Q 1906 3584 2284 3584 
Q 2666 3584 2933 3390 
Q 3200 3197 3328 2828 
z
" transform="scale(0.015625)"/>
      <path id="DejaVuSans-70" d="M 1159 525 
L 1159 -1331 
L 581 -1331 
L 581 3500 
L 1159 3500 
L 1159 2969 
Q 1341 3281 1617 3432 
Q 1894 3584 2278 3584 
Q 2916 3584 3314 3078 
Q 3713 2572 3713 1747 
Q 3713 922 3314 415 
Q 2916 -91 2278 -91 
Q 1894 -91 1617 61 
Q 1341 213 1159 525 
z
M 3116 1747 
Q 3116 2381 2855 2742 
Q 2594 3103 2138 3103 
Q 1681 3103 1420 2742 
Q 1159 2381 1159 1747 
Q 1159 1113 1420 752 
Q 1681 391 2138 391 
Q 2594 391 2855 752 
Q 3116 1113 3116 1747 
z
" transform="scale(0.015625)"/>
      <path id="DejaVuSans-72" d="M 2631 2963 
Q 2534 3019 2420 3045 
Q 2306 3072 2169 3072 
Q 1681 3072 1420 2755 
Q 1159 2438 1159 1844 
L 1159 0 
L 581 0 
L 581 3500 
L 1159 3500 
L 1159 2956 
Q 1341 3275 1631 3429 
Q 1922 3584 2338 3584 
Q 2397 3584 2469 3576 
Q 2541 3569 2628 3553 
L 2631 2963 
z
" transform="scale(0.015625)"/>
      <path id="DejaVuSans-20" transform="scale(0.015625)"/>
      <path id="DejaVuSans-2d" d="M 313 2009 
L 1997 2009 
L 1997 1497 
L 313 1497 
L 313 2009 
z
" transform="scale(0.015625)"/>
      <path id="DejaVuSans-45" d="M 628 4666 
L 3578 4666 
L 3578 4134 
L 1259 4134 
L 1259 2753 
L 3481 2753 
L 3481 2222 
L 1259 2222 
L 1259 531 
L 3634 531 
L 3634 0 
L 628 0 
L 628 4666 
z
" transform="scale(0.015625)"/>
      <path id="DejaVuSans-63" d="M 3122 3366 
L 3122 2828 
Q 2878 2963 2633 3030 
Q 2388 3097 2138 3097 
Q 1578 3097 1268 2742 
Q 959 2388 959 1747 
Q 959 1106 1268 751 
Q 1578 397 2138 397 
Q 2388 397 2633 464 
Q 2878 531 3122 666 
L 3122 134 
Q 2881 22 2623 -34 
Q 2366 -91 2075 -91 
Q 1284 -91 818 406 
Q 353 903 353 1747 
Q 353 2603 823 3093 
Q 1294 3584 2113 3584 
Q 2378 3584 2631 3529 
Q 2884 3475 3122 3366 
z
" transform="scale(0.015625)"/>
      <path id="DejaVuSans-68" d="M 3513 2113 
L 3513 0 
L 2938 0 
L 2938 2094 
Q 2938 2591 2744 2837 
Q 2550 3084 2163 3084 
Q 1697 3084 1428 2787 
Q 1159 2491 1159 1978 
L 1159 0 
L 581 0 
L 581 4863 
L 1159 4863 
L 1159 2956 
Q 1366 3272 1645 3428 
Q 1925 3584 2291 3584 
Q 2894 3584 3203 3211 
Q 3513 2838 3513 2113 
z
" transform="scale(0.015625)"/>
     </defs>
     <use xlink:href="#DejaVuSans-43"/>
     <use xlink:href="#DejaVuSans-6f" transform="translate(69.824219 0)"/>
     <use xlink:href="#DejaVuSans-6d" transform="translate(131.005859 0)"/>
     <use xlink:href="#DejaVuSans-70" transform="translate(228.417969 0)"/>
     <use xlink:href="#DejaVuSans-61" transform="translate(291.894531 0)"/>
     <use xlink:href="#DejaVuSans-72" transform="translate(353.173828 0)"/>
     <use xlink:href="#DejaVuSans-65" transform="translate(392.037109 0)"/>
     <use xlink:href="#DejaVuSans-20" transform="translate(453.560547 0)"/>
     <use xlink:href="#DejaVuSans-2d" transform="translate(485.347656 0)"/>
     <use xlink:href="#DejaVuSans-20" transform="translate(521.431641 0)"/>
     <use xlink:href="#DejaVuSans-45" transform="translate(553.21875 0)"/>
     <use xlink:href="#DejaVuSans-70" transform="translate(616.402344 0)"/>
     <use xlink:href="#DejaVuSans-6f" transform="translate(679.878906 0)"/>
     <use xlink:href="#DejaVuSans-63" transform="translate(741.060547 0)"/>
     <use xlink:href="#DejaVuSans-68" transform="translate(796.041016 0)"/>
     <use xlink:href="#DejaVuSans-20" transform="translate(859.419922 0)"/>
     <use xlink:href="#DejaVuSans-31" transform="translate(891.207031 0)"/>
    </g>
   </g>
   <g id="legend_1">
    <g id="patch_7">
     <path d="M 64.6 78.82825 
L 181.128125 78.82825 
Q 183.128125 78.82825 183.128125 76.82825 
L 183.128125 48.472 
Q 183.128125 46.472 181.128125 46.472 
L 64.6 46.472 
Q 62.6 46.472 62.6 48.472 
L 62.6 76.82825 
Q 62.6 78.82825 64.6 78.82825 
z
" style="fill: #ffffff; opacity: 0.8; stroke: #cccccc; stroke-linejoin: miter"/>
    </g>
    <g id="line2d_31">
     <path d="M 66.6 54.570437 
L 76.6 54.570437 
L 86.6 54.570437 
" style="fill: none; stroke: #1f77b4; stroke-width: 1.5; stroke-linecap: square"/>
    </g>
    <g id="text_18">
     <!-- Pred: Sample 1 -->
     <g transform="translate(94.6 58.070437) scale(0.1 -0.1)">
      <defs>
       <path id="DejaVuSans-50" d="M 1259 4147 
L 1259 2394 
L 2053 2394 
Q 2494 2394 2734 2622 
Q 2975 2850 2975 3272 
Q 2975 3691 2734 3919 
Q 2494 4147 2053 4147 
L 1259 4147 
z
M 628 4666 
L 2053 4666 
Q 2838 4666 3239 4311 
Q 3641 3956 3641 3272 
Q 3641 2581 3239 2228 
Q 2838 1875 2053 1875 
L 1259 1875 
L 1259 0 
L 628 0 
L 628 4666 
z
" transform="scale(0.015625)"/>
       <path id="DejaVuSans-3a" d="M 750 794 
L 1409 794 
L 1409 0 
L 750 0 
L 750 794 
z
M 750 3309 
L 1409 3309 
L 1409 2516 
L 750 2516 
L 750 3309 
z
" transform="scale(0.015625)"/>
       <path id="DejaVuSans-53" d="M 3425 4513 
L 3425 3897 
Q 3066 4069 2747 4153 
Q 2428 4238 2131 4238 
Q 1616 4238 1336 4038 
Q 1056 3838 1056 3469 
Q 1056 3159 1242 3001 
Q 1428 2844 1947 2747 
L 2328 2669 
Q 3034 2534 3370 2195 
Q 3706 1856 3706 1288 
Q 3706 609 3251 259 
Q 2797 -91 1919 -91 
Q 1588 -91 1214 -16 
Q 841 59 441 206 
L 441 856 
Q 825 641 1194 531 
Q 1563 422 1919 422 
Q 2459 422 2753 634 
Q 3047 847 3047 1241 
Q 3047 1584 2836 1778 
Q 2625 1972 2144 2069 
L 1759 2144 
Q 1053 2284 737 2584 
Q 422 2884 422 3419 
Q 422 4038 858 4394 
Q 1294 4750 2059 4750 
Q 2388 4750 2728 4690 
Q 3069 4631 3425 4513 
z
" transform="scale(0.015625)"/>
      </defs>
      <use xlink:href="#DejaVuSans-50"/>
      <use xlink:href="#DejaVuSans-72" transform="translate(58.552734 0)"/>
      <use xlink:href="#DejaVuSans-65" transform="translate(97.416016 0)"/>
      <use xlink:href="#DejaVuSans-64" transform="translate(158.939453 0)"/>
      <use xlink:href="#DejaVuSans-3a" transform="translate(222.416016 0)"/>
      <use xlink:href="#DejaVuSans-20" transform="translate(256.107422 0)"/>
      <use xlink:href="#DejaVuSans-53" transform="translate(287.894531 0)"/>
      <use xlink:href="#DejaVuSans-61" transform="translate(351.371094 0)"/>
      <use xlink:href="#DejaVuSans-6d" transform="translate(412.650391 0)"/>
      <use xlink:href="#DejaVuSans-70" transform="translate(510.0625 0)"/>
      <use xlink:href="#DejaVuSans-6c" transform="translate(573.539062 0)"/>
      <use xlink:href="#DejaVuSans-65" transform="translate(601.322266 0)"/>
      <use xlink:href="#DejaVuSans-20" transform="translate(662.845703 0)"/>
      <use xlink:href="#DejaVuSans-31" transform="translate(694.632812 0)"/>
     </g>
    </g>
    <g id="line2d_32">
     <path d="M 66.6 69.248562 
L 76.6 69.248562 
L 86.6 69.248562 
" style="fill: none; stroke: #ff7f0e; stroke-opacity: 0.5; stroke-width: 1.5; stroke-linecap: square"/>
    </g>
    <g id="text_19">
     <!-- Target: Sample 1 -->
     <g transform="translate(94.6 72.748562) scale(0.1 -0.1)">
      <defs>
       <path id="DejaVuSans-54" d="M -19 4666 
L 3928 4666 
L 3928 4134 
L 2272 4134 
L 2272 0 
L 1638 0 
L 1638 4134 
L -19 4134 
L -19 4666 
z
" transform="scale(0.015625)"/>
       <path id="DejaVuSans-67" d="M 2906 1791 
Q 2906 2416 2648 2759 
Q 2391 3103 1925 3103 
Q 1463 3103 1205 2759 
Q 947 2416 947 1791 
Q 947 1169 1205 825 
Q 1463 481 1925 481 
Q 2391 481 2648 825 
Q 2906 1169 2906 1791 
z
M 3481 434 
Q 3481 -459 3084 -895 
Q 2688 -1331 1869 -1331 
Q 1566 -1331 1297 -1286 
Q 1028 -1241 775 -1147 
L 775 -588 
Q 1028 -725 1275 -790 
Q 1522 -856 1778 -856 
Q 2344 -856 2625 -561 
Q 2906 -266 2906 331 
L 2906 616 
Q 2728 306 2450 153 
Q 2172 0 1784 0 
Q 1141 0 747 490 
Q 353 981 353 1791 
Q 353 2603 747 3093 
Q 1141 3584 1784 3584 
Q 2172 3584 2450 3431 
Q 2728 3278 2906 2969 
L 2906 3500 
L 3481 3500 
L 3481 434 
z
" transform="scale(0.015625)"/>
       <path id="DejaVuSans-74" d="M 1172 4494 
L 1172 3500 
L 2356 3500 
L 2356 3053 
L 1172 3053 
L 1172 1153 
Q 1172 725 1289 603 
Q 1406 481 1766 481 
L 2356 481 
L 2356 0 
L 1766 0 
Q 1100 0 847 248 
Q 594 497 594 1153 
L 594 3053 
L 172 3053 
L 172 3500 
L 594 3500 
L 594 4494 
L 1172 4494 
z
" transform="scale(0.015625)"/>
      </defs>
      <use xlink:href="#DejaVuSans-54"/>
      <use xlink:href="#DejaVuSans-61" transform="translate(44.583984 0)"/>
      <use xlink:href="#DejaVuSans-72" transform="translate(105.863281 0)"/>
      <use xlink:href="#DejaVuSans-67" transform="translate(145.226562 0)"/>
      <use xlink:href="#DejaVuSans-65" transform="translate(208.703125 0)"/>
      <use xlink:href="#DejaVuSans-74" transform="translate(270.226562 0)"/>
      <use xlink:href="#DejaVuSans-3a" transform="translate(309.435547 0)"/>
      <use xlink:href="#DejaVuSans-20" transform="translate(343.126953 0)"/>
      <use xlink:href="#DejaVuSans-53" transform="translate(374.914062 0)"/>
      <use xlink:href="#DejaVuSans-61" transform="translate(438.390625 0)"/>
      <use xlink:href="#DejaVuSans-6d" transform="translate(499.669922 0)"/>
      <use xlink:href="#DejaVuSans-70" transform="translate(597.082031 0)"/>
      <use xlink:href="#DejaVuSans-6c" transform="translate(660.558594 0)"/>
      <use xlink:href="#DejaVuSans-65" transform="translate(688.341797 0)"/>
      <use xlink:href="#DejaVuSans-20" transform="translate(749.865234 0)"/>
      <use xlink:href="#DejaVuSans-31" transform="translate(781.652344 0)"/>
     </g>
    </g>
   </g>
  </g>
 </g>
 <defs>
  <clipPath id="pcfb5608388">
   <rect x="57.6" y="41.472" width="357.12" height="266.112"/>
  </clipPath>
 </defs>
</svg>
