<?xml version="1.0" encoding="utf-8" standalone="no"?>
<!DOCTYPE svg PUBLIC "-//W3C//DTD SVG 1.1//EN"
  "http://www.w3.org/Graphics/SVG/1.1/DTD/svg11.dtd">
<svg xmlns:xlink="http://www.w3.org/1999/xlink" width="460.8pt" height="345.6pt" viewBox="0 0 460.8 345.6" xmlns="http://www.w3.org/2000/svg" version="1.1">
 <metadata>
  <rdf:RDF xmlns:dc="http://purl.org/dc/elements/1.1/" xmlns:cc="http://creativecommons.org/ns#" xmlns:rdf="http://www.w3.org/1999/02/22-rdf-syntax-ns#">
   <cc:Work>
    <dc:type rdf:resource="http://purl.org/dc/dcmitype/StillImage"/>
    <dc:date>2025-06-03T15:00:32.662905</dc:date>
    <dc:format>image/svg+xml</dc:format>
    <dc:creator>
     <cc:Agent>
      <dc:title>Matplotlib v3.10.3, https://matplotlib.org/</dc:title>
     </cc:Agent>
    </dc:creator>
   </cc:Work>
  </rdf:RDF>
 </metadata>
 <defs>
  <style type="text/css">*{stroke-linejoin: round; stroke-linecap: butt}</style>
 </defs>
 <g id="figure_1">
  <g id="patch_1">
   <path d="M 0 345.6 
L 460.8 345.6 
L 460.8 0 
L 0 0 
z
" style="fill: #ffffff"/>
  </g>
  <g id="axes_1">
   <g id="patch_2">
    <path d="M 57.6 307.584 
L 414.72 307.584 
L 414.72 41.472 
L 57.6 41.472 
z
" style="fill: #ffffff"/>
   </g>
   <g id="matplotlib.axis_1">
    <g id="xtick_1">
     <g id="line2d_1">
      <path d="M 76.063197 307.584 
L 76.063197 41.472 
" clip-path="url(#p40aee6ffa9)" style="fill: none; stroke: #b0b0b0; stroke-opacity: 0.5; stroke-width: 0.8; stroke-linecap: square"/>
     </g>
     <g id="line2d_2">
      <defs>
       <path id="m3c04965c14" d="M 0 0 
L 0 3.5 
" style="stroke: #000000; stroke-width: 0.8"/>
      </defs>
      <g>
       <use xlink:href="#m3c04965c14" x="76.063197" y="307.584" style="stroke: #000000; stroke-width: 0.8"/>
      </g>
     </g>
     <g id="text_1">
      <!-- −1.00 -->
      <g transform="translate(60.740541 322.182437) scale(0.1 -0.1)">
       <defs>
        <path id="DejaVuSans-2212" d="M 678 2272 
L 4684 2272 
L 4684 1741 
L 678 1741 
L 678 2272 
z
" transform="scale(0.015625)"/>
        <path id="DejaVuSans-31" d="M 794 531 
L 1825 531 
L 1825 4091 
L 703 3866 
L 703 4441 
L 1819 4666 
L 2450 4666 
L 2450 531 
L 3481 531 
L 3481 0 
L 794 0 
L 794 531 
z
" transform="scale(0.015625)"/>
        <path id="DejaVuSans-2e" d="M 684 794 
L 1344 794 
L 1344 0 
L 684 0 
L 684 794 
z
" transform="scale(0.015625)"/>
        <path id="DejaVuSans-30" d="M 2034 4250 
Q 1547 4250 1301 3770 
Q 1056 3291 1056 2328 
Q 1056 1369 1301 889 
Q 1547 409 2034 409 
Q 2525 409 2770 889 
Q 3016 1369 3016 2328 
Q 3016 3291 2770 3770 
Q 2525 4250 2034 4250 
z
M 2034 4750 
Q 2819 4750 3233 4129 
Q 3647 3509 3647 2328 
Q 3647 1150 3233 529 
Q 2819 -91 2034 -91 
Q 1250 -91 836 529 
Q 422 1150 422 2328 
Q 422 3509 836 4129 
Q 1250 4750 2034 4750 
z
" transform="scale(0.015625)"/>
       </defs>
       <use xlink:href="#DejaVuSans-2212"/>
       <use xlink:href="#DejaVuSans-31" transform="translate(83.789062 0)"/>
       <use xlink:href="#DejaVuSans-2e" transform="translate(147.412109 0)"/>
       <use xlink:href="#DejaVuSans-30" transform="translate(179.199219 0)"/>
       <use xlink:href="#DejaVuSans-30" transform="translate(242.822266 0)"/>
      </g>
     </g>
    </g>
    <g id="xtick_2">
     <g id="line2d_3">
      <path d="M 115.821424 307.584 
L 115.821424 41.472 
" clip-path="url(#p40aee6ffa9)" style="fill: none; stroke: #b0b0b0; stroke-opacity: 0.5; stroke-width: 0.8; stroke-linecap: square"/>
     </g>
     <g id="line2d_4">
      <g>
       <use xlink:href="#m3c04965c14" x="115.821424" y="307.584" style="stroke: #000000; stroke-width: 0.8"/>
      </g>
     </g>
     <g id="text_2">
      <!-- −0.75 -->
      <g transform="translate(100.498768 322.182437) scale(0.1 -0.1)">
       <defs>
        <path id="DejaVuSans-37" d="M 525 4666 
L 3525 4666 
L 3525 4397 
L 1831 0 
L 1172 0 
L 2766 4134 
L 525 4134 
L 525 4666 
z
" transform="scale(0.015625)"/>
        <path id="DejaVuSans-35" d="M 691 4666 
L 3169 4666 
L 3169 4134 
L 1269 4134 
L 1269 2991 
Q 1406 3038 1543 3061 
Q 1681 3084 1819 3084 
Q 2600 3084 3056 2656 
Q 3513 2228 3513 1497 
Q 3513 744 3044 326 
Q 2575 -91 1722 -91 
Q 1428 -91 1123 -41 
Q 819 9 494 109 
L 494 744 
Q 775 591 1075 516 
Q 1375 441 1709 441 
Q 2250 441 2565 725 
Q 2881 1009 2881 1497 
Q 2881 1984 2565 2268 
Q 2250 2553 1709 2553 
Q 1456 2553 1204 2497 
Q 953 2441 691 2322 
L 691 4666 
z
" transform="scale(0.015625)"/>
       </defs>
       <use xlink:href="#DejaVuSans-2212"/>
       <use xlink:href="#DejaVuSans-30" transform="translate(83.789062 0)"/>
       <use xlink:href="#DejaVuSans-2e" transform="translate(147.412109 0)"/>
       <use xlink:href="#DejaVuSans-37" transform="translate(179.199219 0)"/>
       <use xlink:href="#DejaVuSans-35" transform="translate(242.822266 0)"/>
      </g>
     </g>
    </g>
    <g id="xtick_3">
     <g id="line2d_5">
      <path d="M 155.579651 307.584 
L 155.579651 41.472 
" clip-path="url(#p40aee6ffa9)" style="fill: none; stroke: #b0b0b0; stroke-opacity: 0.5; stroke-width: 0.8; stroke-linecap: square"/>
     </g>
     <g id="line2d_6">
      <g>
       <use xlink:href="#m3c04965c14" x="155.579651" y="307.584" style="stroke: #000000; stroke-width: 0.8"/>
      </g>
     </g>
     <g id="text_3">
      <!-- −0.50 -->
      <g transform="translate(140.256994 322.182437) scale(0.1 -0.1)">
       <use xlink:href="#DejaVuSans-2212"/>
       <use xlink:href="#DejaVuSans-30" transform="translate(83.789062 0)"/>
       <use xlink:href="#DejaVuSans-2e" transform="translate(147.412109 0)"/>
       <use xlink:href="#DejaVuSans-35" transform="translate(179.199219 0)"/>
       <use xlink:href="#DejaVuSans-30" transform="translate(242.822266 0)"/>
      </g>
     </g>
    </g>
    <g id="xtick_4">
     <g id="line2d_7">
      <path d="M 195.337877 307.584 
L 195.337877 41.472 
" clip-path="url(#p40aee6ffa9)" style="fill: none; stroke: #b0b0b0; stroke-opacity: 0.5; stroke-width: 0.8; stroke-linecap: square"/>
     </g>
     <g id="line2d_8">
      <g>
       <use xlink:href="#m3c04965c14" x="195.337877" y="307.584" style="stroke: #000000; stroke-width: 0.8"/>
      </g>
     </g>
     <g id="text_4">
      <!-- −0.25 -->
      <g transform="translate(180.015221 322.182437) scale(0.1 -0.1)">
       <defs>
        <path id="DejaVuSans-32" d="M 1228 531 
L 3431 531 
L 3431 0 
L 469 0 
L 469 531 
Q 828 903 1448 1529 
Q 2069 2156 2228 2338 
Q 2531 2678 2651 2914 
Q 2772 3150 2772 3378 
Q 2772 3750 2511 3984 
Q 2250 4219 1831 4219 
Q 1534 4219 1204 4116 
Q 875 4013 500 3803 
L 500 4441 
Q 881 4594 1212 4672 
Q 1544 4750 1819 4750 
Q 2544 4750 2975 4387 
Q 3406 4025 3406 3419 
Q 3406 3131 3298 2873 
Q 3191 2616 2906 2266 
Q 2828 2175 2409 1742 
Q 1991 1309 1228 531 
z
" transform="scale(0.015625)"/>
       </defs>
       <use xlink:href="#DejaVuSans-2212"/>
       <use xlink:href="#DejaVuSans-30" transform="translate(83.789062 0)"/>
       <use xlink:href="#DejaVuSans-2e" transform="translate(147.412109 0)"/>
       <use xlink:href="#DejaVuSans-32" transform="translate(179.199219 0)"/>
       <use xlink:href="#DejaVuSans-35" transform="translate(242.822266 0)"/>
      </g>
     </g>
    </g>
    <g id="xtick_5">
     <g id="line2d_9">
      <path d="M 235.096104 307.584 
L 235.096104 41.472 
" clip-path="url(#p40aee6ffa9)" style="fill: none; stroke: #b0b0b0; stroke-opacity: 0.5; stroke-width: 0.8; stroke-linecap: square"/>
     </g>
     <g id="line2d_10">
      <g>
       <use xlink:href="#m3c04965c14" x="235.096104" y="307.584" style="stroke: #000000; stroke-width: 0.8"/>
      </g>
     </g>
     <g id="text_5">
      <!-- 0.00 -->
      <g transform="translate(223.963291 322.182437) scale(0.1 -0.1)">
       <use xlink:href="#DejaVuSans-30"/>
       <use xlink:href="#DejaVuSans-2e" transform="translate(63.623047 0)"/>
       <use xlink:href="#DejaVuSans-30" transform="translate(95.410156 0)"/>
       <use xlink:href="#DejaVuSans-30" transform="translate(159.033203 0)"/>
      </g>
     </g>
    </g>
    <g id="xtick_6">
     <g id="line2d_11">
      <path d="M 274.85433 307.584 
L 274.85433 41.472 
" clip-path="url(#p40aee6ffa9)" style="fill: none; stroke: #b0b0b0; stroke-opacity: 0.5; stroke-width: 0.8; stroke-linecap: square"/>
     </g>
     <g id="line2d_12">
      <g>
       <use xlink:href="#m3c04965c14" x="274.85433" y="307.584" style="stroke: #000000; stroke-width: 0.8"/>
      </g>
     </g>
     <g id="text_6">
      <!-- 0.25 -->
      <g transform="translate(263.721518 322.182437) scale(0.1 -0.1)">
       <use xlink:href="#DejaVuSans-30"/>
       <use xlink:href="#DejaVuSans-2e" transform="translate(63.623047 0)"/>
       <use xlink:href="#DejaVuSans-32" transform="translate(95.410156 0)"/>
       <use xlink:href="#DejaVuSans-35" transform="translate(159.033203 0)"/>
      </g>
     </g>
    </g>
    <g id="xtick_7">
     <g id="line2d_13">
      <path d="M 314.612557 307.584 
L 314.612557 41.472 
" clip-path="url(#p40aee6ffa9)" style="fill: none; stroke: #b0b0b0; stroke-opacity: 0.5; stroke-width: 0.8; stroke-linecap: square"/>
     </g>
     <g id="line2d_14">
      <g>
       <use xlink:href="#m3c04965c14" x="314.612557" y="307.584" style="stroke: #000000; stroke-width: 0.8"/>
      </g>
     </g>
     <g id="text_7">
      <!-- 0.50 -->
      <g transform="translate(303.479744 322.182437) scale(0.1 -0.1)">
       <use xlink:href="#DejaVuSans-30"/>
       <use xlink:href="#DejaVuSans-2e" transform="translate(63.623047 0)"/>
       <use xlink:href="#DejaVuSans-35" transform="translate(95.410156 0)"/>
       <use xlink:href="#DejaVuSans-30" transform="translate(159.033203 0)"/>
      </g>
     </g>
    </g>
    <g id="xtick_8">
     <g id="line2d_15">
      <path d="M 354.370784 307.584 
L 354.370784 41.472 
" clip-path="url(#p40aee6ffa9)" style="fill: none; stroke: #b0b0b0; stroke-opacity: 0.5; stroke-width: 0.8; stroke-linecap: square"/>
     </g>
     <g id="line2d_16">
      <g>
       <use xlink:href="#m3c04965c14" x="354.370784" y="307.584" style="stroke: #000000; stroke-width: 0.8"/>
      </g>
     </g>
     <g id="text_8">
      <!-- 0.75 -->
      <g transform="translate(343.237971 322.182437) scale(0.1 -0.1)">
       <use xlink:href="#DejaVuSans-30"/>
       <use xlink:href="#DejaVuSans-2e" transform="translate(63.623047 0)"/>
       <use xlink:href="#DejaVuSans-37" transform="translate(95.410156 0)"/>
       <use xlink:href="#DejaVuSans-35" transform="translate(159.033203 0)"/>
      </g>
     </g>
    </g>
    <g id="xtick_9">
     <g id="line2d_17">
      <path d="M 394.12901 307.584 
L 394.12901 41.472 
" clip-path="url(#p40aee6ffa9)" style="fill: none; stroke: #b0b0b0; stroke-opacity: 0.5; stroke-width: 0.8; stroke-linecap: square"/>
     </g>
     <g id="line2d_18">
      <g>
       <use xlink:href="#m3c04965c14" x="394.12901" y="307.584" style="stroke: #000000; stroke-width: 0.8"/>
      </g>
     </g>
     <g id="text_9">
      <!-- 1.00 -->
      <g transform="translate(382.996198 322.182437) scale(0.1 -0.1)">
       <use xlink:href="#DejaVuSans-31"/>
       <use xlink:href="#DejaVuSans-2e" transform="translate(63.623047 0)"/>
       <use xlink:href="#DejaVuSans-30" transform="translate(95.410156 0)"/>
       <use xlink:href="#DejaVuSans-30" transform="translate(159.033203 0)"/>
      </g>
     </g>
    </g>
    <g id="text_10">
     <!-- Index -->
     <g transform="translate(222.393594 335.860562) scale(0.1 -0.1)">
      <defs>
       <path id="DejaVuSans-49" d="M 628 4666 
L 1259 4666 
L 1259 0 
L 628 0 
L 628 4666 
z
" transform="scale(0.015625)"/>
       <path id="DejaVuSans-6e" d="M 3513 2113 
L 3513 0 
L 2938 0 
L 2938 2094 
Q 2938 2591 2744 2837 
Q 2550 3084 2163 3084 
Q 1697 3084 1428 2787 
Q 1159 2491 1159 1978 
L 1159 0 
L 581 0 
L 581 3500 
L 1159 3500 
L 1159 2956 
Q 1366 3272 1645 3428 
Q 1925 3584 2291 3584 
Q 2894 3584 3203 3211 
Q 3513 2838 3513 2113 
z
" transform="scale(0.015625)"/>
       <path id="DejaVuSans-64" d="M 2906 2969 
L 2906 4863 
L 3481 4863 
L 3481 0 
L 2906 0 
L 2906 525 
Q 2725 213 2448 61 
Q 2172 -91 1784 -91 
Q 1150 -91 751 415 
Q 353 922 353 1747 
Q 353 2572 751 3078 
Q 1150 3584 1784 3584 
Q 2172 3584 2448 3432 
Q 2725 3281 2906 2969 
z
M 947 1747 
Q 947 1113 1208 752 
Q 1469 391 1925 391 
Q 2381 391 2643 752 
Q 2906 1113 2906 1747 
Q 2906 2381 2643 2742 
Q 2381 3103 1925 3103 
Q 1469 3103 1208 2742 
Q 947 2381 947 1747 
z
" transform="scale(0.015625)"/>
       <path id="DejaVuSans-65" d="M 3597 1894 
L 3597 1613 
L 953 1613 
Q 991 1019 1311 708 
Q 1631 397 2203 397 
Q 2534 397 2845 478 
Q 3156 559 3463 722 
L 3463 178 
Q 3153 47 2828 -22 
Q 2503 -91 2169 -91 
Q 1331 -91 842 396 
Q 353 884 353 1716 
Q 353 2575 817 3079 
Q 1281 3584 2069 3584 
Q 2775 3584 3186 3129 
Q 3597 2675 3597 1894 
z
M 3022 2063 
Q 3016 2534 2758 2815 
Q 2500 3097 2075 3097 
Q 1594 3097 1305 2825 
Q 1016 2553 972 2059 
L 3022 2063 
z
" transform="scale(0.015625)"/>
       <path id="DejaVuSans-78" d="M 3513 3500 
L 2247 1797 
L 3578 0 
L 2900 0 
L 1881 1375 
L 863 0 
L 184 0 
L 1544 1831 
L 300 3500 
L 978 3500 
L 1906 2253 
L 2834 3500 
L 3513 3500 
z
" transform="scale(0.015625)"/>
      </defs>
      <use xlink:href="#DejaVuSans-49"/>
      <use xlink:href="#DejaVuSans-6e" transform="translate(29.492188 0)"/>
      <use xlink:href="#DejaVuSans-64" transform="translate(92.871094 0)"/>
      <use xlink:href="#DejaVuSans-65" transform="translate(156.347656 0)"/>
      <use xlink:href="#DejaVuSans-78" transform="translate(216.121094 0)"/>
     </g>
    </g>
   </g>
   <g id="matplotlib.axis_2">
    <g id="ytick_1">
     <g id="line2d_19">
      <path d="M 57.6 295.50573 
L 414.72 295.50573 
" clip-path="url(#p40aee6ffa9)" style="fill: none; stroke: #b0b0b0; stroke-opacity: 0.5; stroke-width: 0.8; stroke-linecap: square"/>
     </g>
     <g id="line2d_20">
      <defs>
       <path id="mb03121409a" d="M 0 0 
L -3.5 0 
" style="stroke: #000000; stroke-width: 0.8"/>
      </defs>
      <g>
       <use xlink:href="#mb03121409a" x="57.6" y="295.50573" style="stroke: #000000; stroke-width: 0.8"/>
      </g>
     </g>
     <g id="text_11">
      <!-- −1.00 -->
      <g transform="translate(19.954687 299.304949) scale(0.1 -0.1)">
       <use xlink:href="#DejaVuSans-2212"/>
       <use xlink:href="#DejaVuSans-31" transform="translate(83.789062 0)"/>
       <use xlink:href="#DejaVuSans-2e" transform="translate(147.412109 0)"/>
       <use xlink:href="#DejaVuSans-30" transform="translate(179.199219 0)"/>
       <use xlink:href="#DejaVuSans-30" transform="translate(242.822266 0)"/>
      </g>
     </g>
    </g>
    <g id="ytick_2">
     <g id="line2d_21">
      <path d="M 57.6 265.263499 
L 414.72 265.263499 
" clip-path="url(#p40aee6ffa9)" style="fill: none; stroke: #b0b0b0; stroke-opacity: 0.5; stroke-width: 0.8; stroke-linecap: square"/>
     </g>
     <g id="line2d_22">
      <g>
       <use xlink:href="#mb03121409a" x="57.6" y="265.263499" style="stroke: #000000; stroke-width: 0.8"/>
      </g>
     </g>
     <g id="text_12">
      <!-- −0.75 -->
      <g transform="translate(19.954687 269.062717) scale(0.1 -0.1)">
       <use xlink:href="#DejaVuSans-2212"/>
       <use xlink:href="#DejaVuSans-30" transform="translate(83.789062 0)"/>
       <use xlink:href="#DejaVuSans-2e" transform="translate(147.412109 0)"/>
       <use xlink:href="#DejaVuSans-37" transform="translate(179.199219 0)"/>
       <use xlink:href="#DejaVuSans-35" transform="translate(242.822266 0)"/>
      </g>
     </g>
    </g>
    <g id="ytick_3">
     <g id="line2d_23">
      <path d="M 57.6 235.021267 
L 414.72 235.021267 
" clip-path="url(#p40aee6ffa9)" style="fill: none; stroke: #b0b0b0; stroke-opacity: 0.5; stroke-width: 0.8; stroke-linecap: square"/>
     </g>
     <g id="line2d_24">
      <g>
       <use xlink:href="#mb03121409a" x="57.6" y="235.021267" style="stroke: #000000; stroke-width: 0.8"/>
      </g>
     </g>
     <g id="text_13">
      <!-- −0.50 -->
      <g transform="translate(19.954687 238.820486) scale(0.1 -0.1)">
       <use xlink:href="#DejaVuSans-2212"/>
       <use xlink:href="#DejaVuSans-30" transform="translate(83.789062 0)"/>
       <use xlink:href="#DejaVuSans-2e" transform="translate(147.412109 0)"/>
       <use xlink:href="#DejaVuSans-35" transform="translate(179.199219 0)"/>
       <use xlink:href="#DejaVuSans-30" transform="translate(242.822266 0)"/>
      </g>
     </g>
    </g>
    <g id="ytick_4">
     <g id="line2d_25">
      <path d="M 57.6 204.779035 
L 414.72 204.779035 
" clip-path="url(#p40aee6ffa9)" style="fill: none; stroke: #b0b0b0; stroke-opacity: 0.5; stroke-width: 0.8; stroke-linecap: square"/>
     </g>
     <g id="line2d_26">
      <g>
       <use xlink:href="#mb03121409a" x="57.6" y="204.779035" style="stroke: #000000; stroke-width: 0.8"/>
      </g>
     </g>
     <g id="text_14">
      <!-- −0.25 -->
      <g transform="translate(19.954687 208.578254) scale(0.1 -0.1)">
       <use xlink:href="#DejaVuSans-2212"/>
       <use xlink:href="#DejaVuSans-30" transform="translate(83.789062 0)"/>
       <use xlink:href="#DejaVuSans-2e" transform="translate(147.412109 0)"/>
       <use xlink:href="#DejaVuSans-32" transform="translate(179.199219 0)"/>
       <use xlink:href="#DejaVuSans-35" transform="translate(242.822266 0)"/>
      </g>
     </g>
    </g>
    <g id="ytick_5">
     <g id="line2d_27">
      <path d="M 57.6 174.536804 
L 414.72 174.536804 
" clip-path="url(#p40aee6ffa9)" style="fill: none; stroke: #b0b0b0; stroke-opacity: 0.5; stroke-width: 0.8; stroke-linecap: square"/>
     </g>
     <g id="line2d_28">
      <g>
       <use xlink:href="#mb03121409a" x="57.6" y="174.536804" style="stroke: #000000; stroke-width: 0.8"/>
      </g>
     </g>
     <g id="text_15">
      <!-- 0.00 -->
      <g transform="translate(28.334375 178.336023) scale(0.1 -0.1)">
       <use xlink:href="#DejaVuSans-30"/>
       <use xlink:href="#DejaVuSans-2e" transform="translate(63.623047 0)"/>
       <use xlink:href="#DejaVuSans-30" transform="translate(95.410156 0)"/>
       <use xlink:href="#DejaVuSans-30" transform="translate(159.033203 0)"/>
      </g>
     </g>
    </g>
    <g id="ytick_6">
     <g id="line2d_29">
      <path d="M 57.6 144.294572 
L 414.72 144.294572 
" clip-path="url(#p40aee6ffa9)" style="fill: none; stroke: #b0b0b0; stroke-opacity: 0.5; stroke-width: 0.8; stroke-linecap: square"/>
     </g>
     <g id="line2d_30">
      <g>
       <use xlink:href="#mb03121409a" x="57.6" y="144.294572" style="stroke: #000000; stroke-width: 0.8"/>
      </g>
     </g>
     <g id="text_16">
      <!-- 0.25 -->
      <g transform="translate(28.334375 148.093791) scale(0.1 -0.1)">
       <use xlink:href="#DejaVuSans-30"/>
       <use xlink:href="#DejaVuSans-2e" transform="translate(63.623047 0)"/>
       <use xlink:href="#DejaVuSans-32" transform="translate(95.410156 0)"/>
       <use xlink:href="#DejaVuSans-35" transform="translate(159.033203 0)"/>
      </g>
     </g>
    </g>
    <g id="ytick_7">
     <g id="line2d_31">
      <path d="M 57.6 114.052341 
L 414.72 114.052341 
" clip-path="url(#p40aee6ffa9)" style="fill: none; stroke: #b0b0b0; stroke-opacity: 0.5; stroke-width: 0.8; stroke-linecap: square"/>
     </g>
     <g id="line2d_32">
      <g>
       <use xlink:href="#mb03121409a" x="57.6" y="114.052341" style="stroke: #000000; stroke-width: 0.8"/>
      </g>
     </g>
     <g id="text_17">
      <!-- 0.50 -->
      <g transform="translate(28.334375 117.851559) scale(0.1 -0.1)">
       <use xlink:href="#DejaVuSans-30"/>
       <use xlink:href="#DejaVuSans-2e" transform="translate(63.623047 0)"/>
       <use xlink:href="#DejaVuSans-35" transform="translate(95.410156 0)"/>
       <use xlink:href="#DejaVuSans-30" transform="translate(159.033203 0)"/>
      </g>
     </g>
    </g>
    <g id="ytick_8">
     <g id="line2d_33">
      <path d="M 57.6 83.810109 
L 414.72 83.810109 
" clip-path="url(#p40aee6ffa9)" style="fill: none; stroke: #b0b0b0; stroke-opacity: 0.5; stroke-width: 0.8; stroke-linecap: square"/>
     </g>
     <g id="line2d_34">
      <g>
       <use xlink:href="#mb03121409a" x="57.6" y="83.810109" style="stroke: #000000; stroke-width: 0.8"/>
      </g>
     </g>
     <g id="text_18">
      <!-- 0.75 -->
      <g transform="translate(28.334375 87.609328) scale(0.1 -0.1)">
       <use xlink:href="#DejaVuSans-30"/>
       <use xlink:href="#DejaVuSans-2e" transform="translate(63.623047 0)"/>
       <use xlink:href="#DejaVuSans-37" transform="translate(95.410156 0)"/>
       <use xlink:href="#DejaVuSans-35" transform="translate(159.033203 0)"/>
      </g>
     </g>
    </g>
    <g id="ytick_9">
     <g id="line2d_35">
      <path d="M 57.6 53.567877 
L 414.72 53.567877 
" clip-path="url(#p40aee6ffa9)" style="fill: none; stroke: #b0b0b0; stroke-opacity: 0.5; stroke-width: 0.8; stroke-linecap: square"/>
     </g>
     <g id="line2d_36">
      <g>
       <use xlink:href="#mb03121409a" x="57.6" y="53.567877" style="stroke: #000000; stroke-width: 0.8"/>
      </g>
     </g>
     <g id="text_19">
      <!-- 1.00 -->
      <g transform="translate(28.334375 57.367096) scale(0.1 -0.1)">
       <use xlink:href="#DejaVuSans-31"/>
       <use xlink:href="#DejaVuSans-2e" transform="translate(63.623047 0)"/>
       <use xlink:href="#DejaVuSans-30" transform="translate(95.410156 0)"/>
       <use xlink:href="#DejaVuSans-30" transform="translate(159.033203 0)"/>
      </g>
     </g>
    </g>
    <g id="text_20">
     <!-- Value -->
     <g transform="translate(13.875 188.25925) rotate(-90) scale(0.1 -0.1)">
      <defs>
       <path id="DejaVuSans-56" d="M 1831 0 
L 50 4666 
L 709 4666 
L 2188 738 
L 3669 4666 
L 4325 4666 
L 2547 0 
L 1831 0 
z
" transform="scale(0.015625)"/>
       <path id="DejaVuSans-61" d="M 2194 1759 
Q 1497 1759 1228 1600 
Q 959 1441 959 1056 
Q 959 750 1161 570 
Q 1363 391 1709 391 
Q 2188 391 2477 730 
Q 2766 1069 2766 1631 
L 2766 1759 
L 2194 1759 
z
M 3341 1997 
L 3341 0 
L 2766 0 
L 2766 531 
Q 2569 213 2275 61 
Q 1981 -91 1556 -91 
Q 1019 -91 701 211 
Q 384 513 384 1019 
Q 384 1609 779 1909 
Q 1175 2209 1959 2209 
L 2766 2209 
L 2766 2266 
Q 2766 2663 2505 2880 
Q 2244 3097 1772 3097 
Q 1472 3097 1187 3025 
Q 903 2953 641 2809 
L 641 3341 
Q 956 3463 1253 3523 
Q 1550 3584 1831 3584 
Q 2591 3584 2966 3190 
Q 3341 2797 3341 1997 
z
" transform="scale(0.015625)"/>
       <path id="DejaVuSans-6c" d="M 603 4863 
L 1178 4863 
L 1178 0 
L 603 0 
L 603 4863 
z
" transform="scale(0.015625)"/>
       <path id="DejaVuSans-75" d="M 544 1381 
L 544 3500 
L 1119 3500 
L 1119 1403 
Q 1119 906 1312 657 
Q 1506 409 1894 409 
Q 2359 409 2629 706 
Q 2900 1003 2900 1516 
L 2900 3500 
L 3475 3500 
L 3475 0 
L 2900 0 
L 2900 538 
Q 2691 219 2414 64 
Q 2138 -91 1772 -91 
Q 1169 -91 856 284 
Q 544 659 544 1381 
z
M 1991 3584 
L 1991 3584 
z
" transform="scale(0.015625)"/>
      </defs>
      <use xlink:href="#DejaVuSans-56"/>
      <use xlink:href="#DejaVuSans-61" transform="translate(60.658203 0)"/>
      <use xlink:href="#DejaVuSans-6c" transform="translate(121.9375 0)"/>
      <use xlink:href="#DejaVuSans-75" transform="translate(149.720703 0)"/>
      <use xlink:href="#DejaVuSans-65" transform="translate(213.099609 0)"/>
     </g>
    </g>
   </g>
   <g id="line2d_37">
    <path d="M 220.639979 177.029613 
L 249.231077 176.555445 
L 235.907813 176.081934 
L 240.493555 175.608125 
L 240.532017 175.133284 
L 242.352999 173.702602 
L 244.698764 171.80344 
L 247.977855 169.438286 
L 252.637074 165.665784 
L 254.247246 164.24818 
L 255.744868 162.836665 
L 258.223776 160.968718 
L 259.871902 159.5576 
L 261.868599 157.68201 
L 265.944394 154.409096 
L 267.43357 153.004394 
L 269.306289 151.608665 
L 271.159008 150.205193 
L 273.905795 147.865947 
L 277.061581 145.533033 
L 279.801103 143.199312 
L 282.969137 140.87429 
L 286.302936 138.087638 
L 288.851364 136.236964 
L 292.180968 133.463886 
L 294.785877 131.623967 
L 298.757032 128.407008 
L 300.710078 127.031767 
L 304.615277 123.825346 
L 306.605514 122.456328 
L 308.172423 121.078337 
L 309.800596 119.710783 
L 313.205944 116.978984 
L 314.536018 115.611981 
L 316.28012 114.257788 
L 318.019137 112.897364 
L 320.883332 110.181875 
L 323.279317 108.3803 
L 326.076315 105.677234 
L 329.033908 103.434741 
L 331.091944 101.637103 
L 333.18928 100.30396 
L 335.148894 98.95923 
L 337.783762 96.722786 
L 341.261188 94.497836 
L 343.809474 92.263902 
L 347.866026 89.598005 
L 349.849765 87.815789 
L 353.192626 85.602289 
L 354.06368 84.705493 
L 354.850909 83.815185 
L 355.988714 82.936018 
L 358.758213 81.170213 
L 359.622584 80.274584 
L 360.333659 79.385344 
L 361.420276 78.509457 
L 364.298681 76.753465 
L 365.157241 75.860447 
L 365.775041 74.973809 
L 366.20944 74.536699 
L 367.54023 73.671195 
L 369.834295 72.36062 
L 370.352375 71.916061 
L 370.959929 71.025473 
L 371.603635 70.149514 
L 372.175396 69.718734 
L 376.00372 67.545539 
L 376.348541 67.099769 
L 377.022552 65.781472 
L 377.564966 65.353626 
L 379.326561 64.503214 
L 381.13561 63.635395 
L 381.708716 63.191601 
L 381.987677 62.744612 
L 382.26495 61.429603 
L 382.798832 61.007244 
L 384.889542 60.16883 
L 387.040871 59.30241 
L 387.595796 58.854102 
L 387.682198 58.401482 
L 387.044994 57.514873 
L 387.033695 57.092111 
L 387.705792 56.681816 
L 390.916117 55.861174 
L 392.535839 55.429637 
L 393.238022 54.980673 
L 392.311478 54.5293 
L 388.815065 54.108881 
L 377.622561 53.569911 
L 375.581748 53.568 
L 375.379957 53.805284 
L 377.892677 54.295564 
L 378.836814 55.017128 
L 378.114706 55.91231 
L 378.438844 56.89519 
L 381.40566 57.866441 
L 386.635952 58.732276 
L 392.992883 59.422959 
L 398.487273 59.907124 
L 397.81092 60.197628 
L 392.152144 60.347934 
L 373.311978 60.562325 
L 367.050028 60.796033 
L 367.334363 61.191078 
L 368.825406 61.759496 
L 369.808029 63.275904 
L 371.673705 64.091375 
L 374.882361 64.848544 
L 380.661219 66.005943 
L 379.70946 66.393065 
L 375.226168 66.69416 
L 363.136069 67.262989 
L 360.542379 67.636173 
L 360.3289 68.110157 
L 361.220571 69.338693 
L 362.016114 70.031394 
L 363.316295 70.71907 
L 364.811747 71.362735 
L 365.863017 71.937137 
L 365.762425 72.435175 
L 364.09397 72.867685 
L 355.255032 74.041624 
L 353.760652 74.485369 
L 353.159696 74.98239 
L 353.050004 75.530654 
L 353.195072 76.117199 
L 354.284372 77.902327 
L 354.29532 78.446273 
L 353.762965 78.951492 
L 352.617889 79.4227 
L 346.329881 81.231219 
L 345.51302 81.728529 
L 345.040278 82.254045 
L 344.80694 82.80218 
L 344.459304 85.001562 
L 343.923014 85.507481 
L 343.021476 85.992223 
L 338.124042 87.883855 
L 337.345723 88.386118 
L 336.818638 88.905779 
L 336.262082 89.975984 
L 335.77369 91.036065 
L 335.301432 91.547565 
L 334.585229 92.045206 
L 332.588684 93.01425 
L 330.587968 93.987288 
L 329.314717 94.995571 
L 328.553317 96.031577 
L 327.819142 97.063971 
L 326.680456 98.071316 
L 322.408984 101.052664 
L 319.233959 104.089906 
L 313.631939 108.581554 
L 310.846776 111.077778 
L 306.464872 114.546283 
L 304.416425 116.533246 
L 302.401002 117.994286 
L 300.426686 119.46689 
L 298.940282 120.959684 
L 297.951337 121.94639 
L 296.723832 122.918718 
L 293.426622 125.350125 
L 289.636299 128.788541 
L 286.517126 131.221952 
L 280.692423 136.127476 
L 275.628266 140.04315 
L 273.314081 141.997728 
L 268.735903 145.399084 
L 266.522875 147.34776 
L 260.830831 151.691009 
L 259.058884 153.138066 
L 254.652169 156.500589 
L 248.594157 161.305042 
L 232.125354 174.170292 
L 215.167244 187.340553 
L 212.710939 189.211613 
L 209.827079 191.544986 
L 206.074399 194.339853 
L 203.186804 196.670734 
L 199.476841 199.464402 
L 196.531296 201.792577 
L 193.488173 204.119123 
L 190.524096 206.439379 
L 187.494827 208.759909 
L 184.583151 211.070359 
L 181.524227 213.375358 
L 170.13942 222.998609 
L 168.109921 224.821444 
L 164.79798 227.553347 
L 162.828062 229.372642 
L 159.023208 232.54671 
L 156.999046 234.354259 
L 154.23341 236.609987 
L 151.761564 238.860728 
L 148.980709 241.105211 
L 146.558979 243.346363 
L 143.750179 245.579432 
L 141.380092 247.811888 
L 138.056833 250.483921 
L 136.224523 252.264572 
L 132.366823 255.374176 
L 130.753281 256.706584 
L 126.287583 259.81055 
L 124.720896 261.141415 
L 122.676937 262.460729 
L 120.737314 263.791961 
L 118.096332 266.004567 
L 114.662282 268.207425 
L 112.152178 270.415957 
L 108.120471 273.049458 
L 106.810535 274.370819 
L 105.547113 275.236641 
L 102.59061 276.981463 
L 101.694532 277.867322 
L 100.928308 278.743072 
L 99.705001 279.602764 
L 96.54867 281.335784 
L 95.705314 282.22103 
L 95.104965 283.094797 
L 94.620185 283.52319 
L 93.04072 284.371195 
L 91.181035 285.230786 
L 90.460433 285.670118 
L 89.987009 286.113984 
L 89.589674 286.998617 
L 89.405732 287.431293 
L 89.005278 287.855606 
L 88.270989 288.273998 
L 84.219906 289.988192 
L 83.831964 290.437185 
L 83.809982 290.886193 
L 84.135788 291.755251 
L 83.803309 292.169282 
L 82.775917 292.575309 
L 79.468033 293.405944 
L 78.282861 293.846515 
L 78.19099 294.298147 
L 80.006209 294.736203 
L 85.375655 295.11832 
L 95.991128 295.388772 
L 105.848558 295.488 
L 101.185504 295.365418 
L 97.81503 294.992781 
L 94.071781 294.374259 
L 93.581332 293.550748 
L 94.041979 292.596024 
L 92.685861 291.60519 
L 88.075018 290.677296 
L 80.581657 289.895936 
L 73.832727 289.312276 
L 76.418588 288.934773 
L 92.324157 288.621348 
L 106.689373 288.352245 
L 107.125449 288.035453 
L 104.895586 287.54381 
L 103.231113 286.886893 
L 102.607142 286.110905 
L 101.491878 285.285981 
L 98.557196 284.488579 
L 90.252538 283.208734 
L 90.801359 282.769821 
L 96.034201 282.439466 
L 108.895264 281.892168 
L 112.046183 281.559722 
L 112.738479 281.132403 
L 110.429466 279.283795 
L 109.17211 278.582542 
L 105.433648 277.30114 
L 104.672486 276.76956 
L 105.970857 276.312289 
L 112.906041 275.530461 
L 116.144396 275.143382 
L 118.188023 274.72088 
L 119.063428 274.246506 
L 119.183585 273.716938 
L 118.946759 273.141224 
L 118.519375 272.537483 
L 116.906155 270.771959 
L 117.075035 270.248974 
L 118.0245 269.764066 
L 119.681114 269.308187 
L 123.646781 268.424109 
L 125.198529 267.965158 
L 126.240282 267.480042 
L 126.820251 266.965096 
L 127.06976 266.423356 
L 127.094481 265.863548 
L 126.811739 264.198053 
L 127.110027 263.68054 
L 127.868621 263.186994 
L 129.078542 262.712253 
L 133.363769 261.302688 
L 134.313271 260.807073 
L 134.921924 260.291911 
L 135.255152 259.760424 
L 135.465181 258.678618 
L 135.576371 258.145574 
L 135.875389 257.626317 
L 136.478999 257.122633 
L 137.398291 256.632318 
L 140.854381 255.181971 
L 141.694684 254.685599 
L 142.300152 254.178231 
L 143.002752 253.13968 
L 143.55346 252.099124 
L 143.980711 251.587697 
L 145.315985 250.586055 
L 148.465558 248.601633 
L 149.577115 247.589443 
L 151.571375 245.554253 
L 154.081668 243.549355 
L 157.838823 240.544797 
L 161.78739 237.043658 
L 164.52457 235.060945 
L 165.548569 234.054916 
L 166.932086 232.555777 
L 168.192911 231.57595 
L 171.093392 229.617706 
L 172.128382 228.619583 
L 173.429308 227.125498 
L 174.619707 226.148285 
L 178.079801 223.712202 
L 181.794988 220.260948 
L 184.341946 218.308111 
L 191.336503 212.405748 
L 195.900457 208.968582 
L 198.037975 207.001426 
L 200.213362 205.550953 
L 201.648806 204.577743 
L 202.802564 203.593942 
L 204.863927 201.634185 
L 206.972681 200.189711 
L 208.999308 198.73805 
L 213.072027 195.344567 
L 215.648299 193.415556 
L 218.606892 191.00215 
L 221.698851 188.590798 
L 224.065242 186.669414 
L 227.285003 184.268528 
L 230.082565 181.86773 
L 233.963536 179.002635 
L 236.133468 177.088924 
L 236.133468 177.088924 
" clip-path="url(#p40aee6ffa9)" style="fill: none; stroke: #1f77b4; stroke-width: 1.5; stroke-linecap: square"/>
   </g>
   <g id="line2d_38">
    <path d="M 235.272879 177.029613 
L 238.968976 174.180022 
L 242.07874 171.80344 
L 245.092296 169.438286 
L 247.531766 167.545937 
L 250.658786 165.193857 
L 253.607057 162.836665 
L 257.361974 160.028928 
L 260.362282 157.68201 
L 263.505878 155.349542 
L 267.133682 152.538958 
L 270.18271 150.205193 
L 273.25891 147.865947 
L 276.295646 145.533033 
L 279.31974 143.199312 
L 282.3358 140.87429 
L 284.701755 139.010983 
L 288.344872 136.236964 
L 290.659199 134.382541 
L 294.904489 131.161465 
L 297.279653 129.32011 
L 300.339137 127.031767 
L 303.252946 124.734855 
L 306.300424 122.456328 
L 309.207968 120.164902 
L 312.256531 117.893907 
L 315.111622 115.611981 
L 318.159409 113.352292 
L 320.946709 111.080561 
L 324.544018 108.3803 
L 326.764175 106.571255 
L 330.39813 103.886308 
L 332.598722 102.083515 
L 336.755061 98.95923 
L 339.004575 97.165961 
L 342.044077 94.946714 
L 344.782721 92.706298 
L 347.875771 90.49421 
L 351.213153 87.815789 
L 353.64641 86.049134 
L 356.320577 83.815185 
L 359.961756 81.170213 
L 362.006672 79.385344 
L 365.6566 76.753465 
L 367.672463 74.973809 
L 371.828688 71.916061 
L 373.300233 70.584887 
L 375.307698 69.290239 
L 376.581291 68.427569 
L 377.534026 67.545539 
L 378.907301 66.215165 
L 380.235437 65.353626 
L 382.314478 64.072765 
L 383.21377 63.191601 
L 383.945006 62.299231 
L 385.077124 61.429603 
L 388.151177 59.741013 
L 388.609596 59.30241 
L 389.061351 58.401482 
L 389.293551 57.952546 
L 389.729343 57.514873 
L 390.462125 57.092111 
L 393.609726 55.861174 
L 394.12901 55.429637 
L 393.870942 54.980673 
L 392.661408 54.5293 
L 390.528886 54.108881 
L 387.733035 53.769312 
L 384.731867 53.569911 
L 382.090525 53.568 
L 380.350446 53.805284 
L 379.892113 54.295564 
L 380.827615 55.017128 
L 382.953985 55.91231 
L 390.845033 58.732276 
L 391.813816 59.422959 
L 391.256966 59.907124 
L 389.21623 60.197628 
L 382.38468 60.439346 
L 378.883309 60.562325 
L 376.166827 60.796033 
L 374.6318 61.191078 
L 374.377277 61.759496 
L 375.198745 62.473879 
L 379.29146 64.848544 
L 379.566117 65.494444 
L 378.873479 66.005943 
L 377.310679 66.393065 
L 369.225964 67.636173 
L 368.342673 68.110157 
L 368.09142 68.685316 
L 368.286055 69.338693 
L 368.918794 70.71907 
L 368.857711 71.362735 
L 368.359698 71.937137 
L 367.433173 72.435175 
L 364.80367 73.259046 
L 362.31989 74.041624 
L 361.464146 74.485369 
L 360.905779 74.98239 
L 360.585215 75.530654 
L 359.916739 77.323476 
L 359.436936 77.902327 
L 358.739976 78.446273 
L 356.809879 79.4227 
L 353.726698 80.761547 
L 352.950985 81.231219 
L 352.353678 81.728529 
L 351.566136 82.80218 
L 350.866142 83.923325 
L 350.367693 84.47239 
L 349.713057 85.001562 
L 347.974277 85.992223 
L 345.157373 87.399329 
L 343.832897 88.386118 
L 342.968242 89.438196 
L 342.101852 90.510895 
L 340.807812 91.547565 
L 338.171646 93.01425 
L 336.533487 93.987288 
L 335.305783 94.995571 
L 333.311551 97.063971 
L 331.973908 98.071316 
L 327.378611 101.052664 
L 325.667794 102.577313 
L 323.942228 104.089906 
L 321.783297 105.582346 
L 318.872493 107.576192 
L 317.201185 109.084545 
L 315.470975 110.58323 
L 313.262283 112.062353 
L 311.106555 113.546271 
L 309.440021 115.046906 
L 307.739655 116.533246 
L 305.595928 117.994286 
L 303.463349 119.46689 
L 301.105332 121.454852 
L 299.255396 122.918718 
L 293.311436 127.324481 
L 288.913224 130.732924 
L 284.853605 133.679997 
L 281.188436 136.613891 
L 277.156832 139.55008 
L 274.183933 141.997728 
L 269.613959 145.399084 
L 266.607286 147.82883 
L 261.492394 151.691009 
L 255.178724 156.500589 
L 243.90434 165.1349 
L 240.132312 167.994688 
L 235.839086 171.330326 
L 208.270903 192.473093 
L 199.749081 198.997142 
L 195.466528 202.257035 
L 186.50919 209.224148 
L 172.170474 220.256459 
L 168.604194 222.998609 
L 164.995639 225.728973 
L 151.458375 236.157496 
L 147.959269 238.860728 
L 145.106041 241.105211 
L 142.202726 243.346363 
L 139.310074 245.579432 
L 137.006425 247.368209 
L 134.030585 249.588609 
L 131.264034 251.822017 
L 127.693399 254.480112 
L 124.875946 256.706584 
L 121.910703 258.91764 
L 119.108852 261.141415 
L 116.140633 263.346457 
L 113.992934 265.125861 
L 109.900134 268.207425 
L 108.352244 269.540135 
L 103.723107 273.049458 
L 102.104996 274.370819 
L 99.036422 276.540402 
L 96.566121 278.743072 
L 93.387835 280.896251 
L 90.992799 283.094797 
L 87.672128 285.230786 
L 86.859437 286.113984 
L 86.063041 286.998617 
L 84.793155 287.855606 
L 82.441513 289.114108 
L 81.886957 289.546027 
L 81.52768 289.988192 
L 80.787467 291.327413 
L 80.205782 291.755251 
L 78.239637 292.575309 
L 77.154811 292.983895 
L 76.381676 293.405944 
L 76.245016 293.846515 
L 76.990566 294.298147 
L 78.695771 294.736203 
L 81.215259 295.11832 
L 84.181544 295.388772 
L 87.068091 295.488 
L 89.303623 295.365418 
L 90.410943 294.992781 
L 90.134722 294.374259 
L 88.522346 293.550748 
L 82.970854 291.60519 
L 80.347495 290.677296 
L 78.720691 289.895936 
L 78.53602 289.312276 
L 79.920376 288.934773 
L 82.652385 288.72801 
L 93.124117 288.352245 
L 95.257512 288.035453 
L 96.086516 287.54381 
L 95.68083 286.886893 
L 94.393995 286.110905 
L 91.35381 284.488579 
L 90.646594 283.783338 
L 90.902776 283.208734 
L 92.131959 282.769821 
L 94.109318 282.439466 
L 98.730522 281.892168 
L 100.574339 281.559722 
L 101.761066 281.132403 
L 102.252841 280.598097 
L 102.185407 279.970526 
L 101.438274 278.582542 
L 101.319321 277.910663 
L 101.62378 277.30114 
L 102.39317 276.76956 
L 103.550303 276.312289 
L 107.61168 275.143382 
L 108.60671 274.72088 
L 109.288542 274.246506 
L 109.691328 273.716938 
L 110.659798 271.334219 
L 111.249901 270.771959 
L 112.056326 270.248974 
L 114.119016 269.308187 
L 116.226134 268.424109 
L 117.788697 267.480042 
L 118.30418 266.965096 
L 118.997292 265.863548 
L 119.7507 264.739179 
L 120.324973 264.198053 
L 121.965833 263.186994 
L 125.715576 261.302688 
L 126.869912 260.291911 
L 128.589999 258.145574 
L 130.065089 257.122633 
L 133.605751 255.181971 
L 134.8776 254.178231 
L 137.432416 251.587697 
L 138.89433 250.586055 
L 142.063184 248.601633 
L 143.968208 247.079703 
L 146.238149 245.050051 
L 148.356548 243.549355 
L 151.352474 241.551767 
L 152.52866 240.544797 
L 154.673534 238.530027 
L 156.089835 237.5368 
L 159.164494 235.560591 
L 160.348553 234.558571 
L 162.488549 232.555777 
L 164.631878 231.08933 
L 166.798682 229.617706 
L 169.14338 227.620403 
L 171.006194 226.148285 
L 176.987515 221.730615 
L 183.485656 216.834097 
L 185.522592 215.355724 
L 189.803453 211.918248 
L 192.615484 209.959495 
L 197.528857 206.034174 
L 199.565982 204.577743 
L 205.135885 200.189711 
L 208.221322 197.76291 
L 211.444548 195.344567 
L 219.644506 189.073557 
L 222.779512 186.669414 
L 225.941166 184.268528 
L 229.035771 181.86773 
L 232.191105 179.483026 
L 235.193138 177.088924 
L 235.193138 177.088924 
" clip-path="url(#p40aee6ffa9)" style="fill: none; stroke: #ff7f0e; stroke-opacity: 0.5; stroke-width: 1.5; stroke-linecap: square"/>
   </g>
   <g id="patch_3">
    <path d="M 57.6 307.584 
L 57.6 41.472 
" style="fill: none; stroke: #000000; stroke-width: 0.8; stroke-linejoin: miter; stroke-linecap: square"/>
   </g>
   <g id="patch_4">
    <path d="M 414.72 307.584 
L 414.72 41.472 
" style="fill: none; stroke: #000000; stroke-width: 0.8; stroke-linejoin: miter; stroke-linecap: square"/>
   </g>
   <g id="patch_5">
    <path d="M 57.6 307.584 
L 414.72 307.584 
" style="fill: none; stroke: #000000; stroke-width: 0.8; stroke-linejoin: miter; stroke-linecap: square"/>
   </g>
   <g id="patch_6">
    <path d="M 57.6 41.472 
L 414.72 41.472 
" style="fill: none; stroke: #000000; stroke-width: 0.8; stroke-linejoin: miter; stroke-linecap: square"/>
   </g>
   <g id="text_21">
    <!-- Compare - Epoch 450 -->
    <g transform="translate(171.234375 35.472) scale(0.12 -0.12)">
     <defs>
      <path id="DejaVuSans-43" d="M 4122 4306 
L 4122 3641 
Q 3803 3938 3442 4084 
Q 3081 4231 2675 4231 
Q 1875 4231 1450 3742 
Q 1025 3253 1025 2328 
Q 1025 1406 1450 917 
Q 1875 428 2675 428 
Q 3081 428 3442 575 
Q 3803 722 4122 1019 
L 4122 359 
Q 3791 134 3420 21 
Q 3050 -91 2638 -91 
Q 1578 -91 968 557 
Q 359 1206 359 2328 
Q 359 3453 968 4101 
Q 1578 4750 2638 4750 
Q 3056 4750 3426 4639 
Q 3797 4528 4122 4306 
z
" transform="scale(0.015625)"/>
      <path id="DejaVuSans-6f" d="M 1959 3097 
Q 1497 3097 1228 2736 
Q 959 2375 959 1747 
Q 959 1119 1226 758 
Q 1494 397 1959 397 
Q 2419 397 2687 759 
Q 2956 1122 2956 1747 
Q 2956 2369 2687 2733 
Q 2419 3097 1959 3097 
z
M 1959 3584 
Q 2709 3584 3137 3096 
Q 3566 2609 3566 1747 
Q 3566 888 3137 398 
Q 2709 -91 1959 -91 
Q 1206 -91 779 398 
Q 353 888 353 1747 
Q 353 2609 779 3096 
Q 1206 3584 1959 3584 
z
" transform="scale(0.015625)"/>
      <path id="DejaVuSans-6d" d="M 3328 2828 
Q 3544 3216 3844 3400 
Q 4144 3584 4550 3584 
Q 5097 3584 5394 3201 
Q 5691 2819 5691 2113 
L 5691 0 
L 5113 0 
L 5113 2094 
Q 5113 2597 4934 2840 
Q 4756 3084 4391 3084 
Q 3944 3084 3684 2787 
Q 3425 2491 3425 1978 
L 3425 0 
L 2847 0 
L 2847 2094 
Q 2847 2600 2669 2842 
Q 2491 3084 2119 3084 
Q 1678 3084 1418 2786 
Q 1159 2488 1159 1978 
L 1159 0 
L 581 0 
L 581 3500 
L 1159 3500 
L 1159 2956 
Q 1356 3278 1631 3431 
Q 1906 3584 2284 3584 
Q 2666 3584 2933 3390 
Q 3200 3197 3328 2828 
z
" transform="scale(0.015625)"/>
      <path id="DejaVuSans-70" d="M 1159 525 
L 1159 -1331 
L 581 -1331 
L 581 3500 
L 1159 3500 
L 1159 2969 
Q 1341 3281 1617 3432 
Q 1894 3584 2278 3584 
Q 2916 3584 3314 3078 
Q 3713 2572 3713 1747 
Q 3713 922 3314 415 
Q 2916 -91 2278 -91 
Q 1894 -91 1617 61 
Q 1341 213 1159 525 
z
M 3116 1747 
Q 3116 2381 2855 2742 
Q 2594 3103 2138 3103 
Q 1681 3103 1420 2742 
Q 1159 2381 1159 1747 
Q 1159 1113 1420 752 
Q 1681 391 2138 391 
Q 2594 391 2855 752 
Q 3116 1113 3116 1747 
z
" transform="scale(0.015625)"/>
      <path id="DejaVuSans-72" d="M 2631 2963 
Q 2534 3019 2420 3045 
Q 2306 3072 2169 3072 
Q 1681 3072 1420 2755 
Q 1159 2438 1159 1844 
L 1159 0 
L 581 0 
L 581 3500 
L 1159 3500 
L 1159 2956 
Q 1341 3275 1631 3429 
Q 1922 3584 2338 3584 
Q 2397 3584 2469 3576 
Q 2541 3569 2628 3553 
L 2631 2963 
z
" transform="scale(0.015625)"/>
      <path id="DejaVuSans-20" transform="scale(0.015625)"/>
      <path id="DejaVuSans-2d" d="M 313 2009 
L 1997 2009 
L 1997 1497 
L 313 1497 
L 313 2009 
z
" transform="scale(0.015625)"/>
      <path id="DejaVuSans-45" d="M 628 4666 
L 3578 4666 
L 3578 4134 
L 1259 4134 
L 1259 2753 
L 3481 2753 
L 3481 2222 
L 1259 2222 
L 1259 531 
L 3634 531 
L 3634 0 
L 628 0 
L 628 4666 
z
" transform="scale(0.015625)"/>
      <path id="DejaVuSans-63" d="M 3122 3366 
L 3122 2828 
Q 2878 2963 2633 3030 
Q 2388 3097 2138 3097 
Q 1578 3097 1268 2742 
Q 959 2388 959 1747 
Q 959 1106 1268 751 
Q 1578 397 2138 397 
Q 2388 397 2633 464 
Q 2878 531 3122 666 
L 3122 134 
Q 2881 22 2623 -34 
Q 2366 -91 2075 -91 
Q 1284 -91 818 406 
Q 353 903 353 1747 
Q 353 2603 823 3093 
Q 1294 3584 2113 3584 
Q 2378 3584 2631 3529 
Q 2884 3475 3122 3366 
z
" transform="scale(0.015625)"/>
      <path id="DejaVuSans-68" d="M 3513 2113 
L 3513 0 
L 2938 0 
L 2938 2094 
Q 2938 2591 2744 2837 
Q 2550 3084 2163 3084 
Q 1697 3084 1428 2787 
Q 1159 2491 1159 1978 
L 1159 0 
L 581 0 
L 581 4863 
L 1159 4863 
L 1159 2956 
Q 1366 3272 1645 3428 
Q 1925 3584 2291 3584 
Q 2894 3584 3203 3211 
Q 3513 2838 3513 2113 
z
" transform="scale(0.015625)"/>
      <path id="DejaVuSans-34" d="M 2419 4116 
L 825 1625 
L 2419 1625 
L 2419 4116 
z
M 2253 4666 
L 3047 4666 
L 3047 1625 
L 3713 1625 
L 3713 1100 
L 3047 1100 
L 3047 0 
L 2419 0 
L 2419 1100 
L 313 1100 
L 313 1709 
L 2253 4666 
z
" transform="scale(0.015625)"/>
     </defs>
     <use xlink:href="#DejaVuSans-43"/>
     <use xlink:href="#DejaVuSans-6f" transform="translate(69.824219 0)"/>
     <use xlink:href="#DejaVuSans-6d" transform="translate(131.005859 0)"/>
     <use xlink:href="#DejaVuSans-70" transform="translate(228.417969 0)"/>
     <use xlink:href="#DejaVuSans-61" transform="translate(291.894531 0)"/>
     <use xlink:href="#DejaVuSans-72" transform="translate(353.173828 0)"/>
     <use xlink:href="#DejaVuSans-65" transform="translate(392.037109 0)"/>
     <use xlink:href="#DejaVuSans-20" transform="translate(453.560547 0)"/>
     <use xlink:href="#DejaVuSans-2d" transform="translate(485.347656 0)"/>
     <use xlink:href="#DejaVuSans-20" transform="translate(521.431641 0)"/>
     <use xlink:href="#DejaVuSans-45" transform="translate(553.21875 0)"/>
     <use xlink:href="#DejaVuSans-70" transform="translate(616.402344 0)"/>
     <use xlink:href="#DejaVuSans-6f" transform="translate(679.878906 0)"/>
     <use xlink:href="#DejaVuSans-63" transform="translate(741.060547 0)"/>
     <use xlink:href="#DejaVuSans-68" transform="translate(796.041016 0)"/>
     <use xlink:href="#DejaVuSans-20" transform="translate(859.419922 0)"/>
     <use xlink:href="#DejaVuSans-34" transform="translate(891.207031 0)"/>
     <use xlink:href="#DejaVuSans-35" transform="translate(954.830078 0)"/>
     <use xlink:href="#DejaVuSans-30" transform="translate(1018.453125 0)"/>
    </g>
   </g>
   <g id="legend_1">
    <g id="patch_7">
     <path d="M 64.6 78.82825 
L 181.128125 78.82825 
Q 183.128125 78.82825 183.128125 76.82825 
L 183.128125 48.472 
Q 183.128125 46.472 181.128125 46.472 
L 64.6 46.472 
Q 62.6 46.472 62.6 48.472 
L 62.6 76.82825 
Q 62.6 78.82825 64.6 78.82825 
z
" style="fill: #ffffff; opacity: 0.8; stroke: #cccccc; stroke-linejoin: miter"/>
    </g>
    <g id="line2d_39">
     <path d="M 66.6 54.570437 
L 76.6 54.570437 
L 86.6 54.570437 
" style="fill: none; stroke: #1f77b4; stroke-width: 1.5; stroke-linecap: square"/>
    </g>
    <g id="text_22">
     <!-- Pred: Sample 1 -->
     <g transform="translate(94.6 58.070437) scale(0.1 -0.1)">
      <defs>
       <path id="DejaVuSans-50" d="M 1259 4147 
L 1259 2394 
L 2053 2394 
Q 2494 2394 2734 2622 
Q 2975 2850 2975 3272 
Q 2975 3691 2734 3919 
Q 2494 4147 2053 4147 
L 1259 4147 
z
M 628 4666 
L 2053 4666 
Q 2838 4666 3239 4311 
Q 3641 3956 3641 3272 
Q 3641 2581 3239 2228 
Q 2838 1875 2053 1875 
L 1259 1875 
L 1259 0 
L 628 0 
L 628 4666 
z
" transform="scale(0.015625)"/>
       <path id="DejaVuSans-3a" d="M 750 794 
L 1409 794 
L 1409 0 
L 750 0 
L 750 794 
z
M 750 3309 
L 1409 3309 
L 1409 2516 
L 750 2516 
L 750 3309 
z
" transform="scale(0.015625)"/>
       <path id="DejaVuSans-53" d="M 3425 4513 
L 3425 3897 
Q 3066 4069 2747 4153 
Q 2428 4238 2131 4238 
Q 1616 4238 1336 4038 
Q 1056 3838 1056 3469 
Q 1056 3159 1242 3001 
Q 1428 2844 1947 2747 
L 2328 2669 
Q 3034 2534 3370 2195 
Q 3706 1856 3706 1288 
Q 3706 609 3251 259 
Q 2797 -91 1919 -91 
Q 1588 -91 1214 -16 
Q 841 59 441 206 
L 441 856 
Q 825 641 1194 531 
Q 1563 422 1919 422 
Q 2459 422 2753 634 
Q 3047 847 3047 1241 
Q 3047 1584 2836 1778 
Q 2625 1972 2144 2069 
L 1759 2144 
Q 1053 2284 737 2584 
Q 422 2884 422 3419 
Q 422 4038 858 4394 
Q 1294 4750 2059 4750 
Q 2388 4750 2728 4690 
Q 3069 4631 3425 4513 
z
" transform="scale(0.015625)"/>
      </defs>
      <use xlink:href="#DejaVuSans-50"/>
      <use xlink:href="#DejaVuSans-72" transform="translate(58.552734 0)"/>
      <use xlink:href="#DejaVuSans-65" transform="translate(97.416016 0)"/>
      <use xlink:href="#DejaVuSans-64" transform="translate(158.939453 0)"/>
      <use xlink:href="#DejaVuSans-3a" transform="translate(222.416016 0)"/>
      <use xlink:href="#DejaVuSans-20" transform="translate(256.107422 0)"/>
      <use xlink:href="#DejaVuSans-53" transform="translate(287.894531 0)"/>
      <use xlink:href="#DejaVuSans-61" transform="translate(351.371094 0)"/>
      <use xlink:href="#DejaVuSans-6d" transform="translate(412.650391 0)"/>
      <use xlink:href="#DejaVuSans-70" transform="translate(510.0625 0)"/>
      <use xlink:href="#DejaVuSans-6c" transform="translate(573.539062 0)"/>
      <use xlink:href="#DejaVuSans-65" transform="translate(601.322266 0)"/>
      <use xlink:href="#DejaVuSans-20" transform="translate(662.845703 0)"/>
      <use xlink:href="#DejaVuSans-31" transform="translate(694.632812 0)"/>
     </g>
    </g>
    <g id="line2d_40">
     <path d="M 66.6 69.248562 
L 76.6 69.248562 
L 86.6 69.248562 
" style="fill: none; stroke: #ff7f0e; stroke-opacity: 0.5; stroke-width: 1.5; stroke-linecap: square"/>
    </g>
    <g id="text_23">
     <!-- Target: Sample 1 -->
     <g transform="translate(94.6 72.748562) scale(0.1 -0.1)">
      <defs>
       <path id="DejaVuSans-54" d="M -19 4666 
L 3928 4666 
L 3928 4134 
L 2272 4134 
L 2272 0 
L 1638 0 
L 1638 4134 
L -19 4134 
L -19 4666 
z
" transform="scale(0.015625)"/>
       <path id="DejaVuSans-67" d="M 2906 1791 
Q 2906 2416 2648 2759 
Q 2391 3103 1925 3103 
Q 1463 3103 1205 2759 
Q 947 2416 947 1791 
Q 947 1169 1205 825 
Q 1463 481 1925 481 
Q 2391 481 2648 825 
Q 2906 1169 2906 1791 
z
M 3481 434 
Q 3481 -459 3084 -895 
Q 2688 -1331 1869 -1331 
Q 1566 -1331 1297 -1286 
Q 1028 -1241 775 -1147 
L 775 -588 
Q 1028 -725 1275 -790 
Q 1522 -856 1778 -856 
Q 2344 -856 2625 -561 
Q 2906 -266 2906 331 
L 2906 616 
Q 2728 306 2450 153 
Q 2172 0 1784 0 
Q 1141 0 747 490 
Q 353 981 353 1791 
Q 353 2603 747 3093 
Q 1141 3584 1784 3584 
Q 2172 3584 2450 3431 
Q 2728 3278 2906 2969 
L 2906 3500 
L 3481 3500 
L 3481 434 
z
" transform="scale(0.015625)"/>
       <path id="DejaVuSans-74" d="M 1172 4494 
L 1172 3500 
L 2356 3500 
L 2356 3053 
L 1172 3053 
L 1172 1153 
Q 1172 725 1289 603 
Q 1406 481 1766 481 
L 2356 481 
L 2356 0 
L 1766 0 
Q 1100 0 847 248 
Q 594 497 594 1153 
L 594 3053 
L 172 3053 
L 172 3500 
L 594 3500 
L 594 4494 
L 1172 4494 
z
" transform="scale(0.015625)"/>
      </defs>
      <use xlink:href="#DejaVuSans-54"/>
      <use xlink:href="#DejaVuSans-61" transform="translate(44.583984 0)"/>
      <use xlink:href="#DejaVuSans-72" transform="translate(105.863281 0)"/>
      <use xlink:href="#DejaVuSans-67" transform="translate(145.226562 0)"/>
      <use xlink:href="#DejaVuSans-65" transform="translate(208.703125 0)"/>
      <use xlink:href="#DejaVuSans-74" transform="translate(270.226562 0)"/>
      <use xlink:href="#DejaVuSans-3a" transform="translate(309.435547 0)"/>
      <use xlink:href="#DejaVuSans-20" transform="translate(343.126953 0)"/>
      <use xlink:href="#DejaVuSans-53" transform="translate(374.914062 0)"/>
      <use xlink:href="#DejaVuSans-61" transform="translate(438.390625 0)"/>
      <use xlink:href="#DejaVuSans-6d" transform="translate(499.669922 0)"/>
      <use xlink:href="#DejaVuSans-70" transform="translate(597.082031 0)"/>
      <use xlink:href="#DejaVuSans-6c" transform="translate(660.558594 0)"/>
      <use xlink:href="#DejaVuSans-65" transform="translate(688.341797 0)"/>
      <use xlink:href="#DejaVuSans-20" transform="translate(749.865234 0)"/>
      <use xlink:href="#DejaVuSans-31" transform="translate(781.652344 0)"/>
     </g>
    </g>
   </g>
  </g>
 </g>
 <defs>
  <clipPath id="p40aee6ffa9">
   <rect x="57.6" y="41.472" width="357.12" height="266.112"/>
  </clipPath>
 </defs>
</svg>
