<?xml version="1.0" encoding="utf-8" standalone="no"?>
<!DOCTYPE svg PUBLIC "-//W3C//DTD SVG 1.1//EN"
  "http://www.w3.org/Graphics/SVG/1.1/DTD/svg11.dtd">
<svg xmlns:xlink="http://www.w3.org/1999/xlink" width="460.8pt" height="345.6pt" viewBox="0 0 460.8 345.6" xmlns="http://www.w3.org/2000/svg" version="1.1">
 <metadata>
  <rdf:RDF xmlns:dc="http://purl.org/dc/elements/1.1/" xmlns:cc="http://creativecommons.org/ns#" xmlns:rdf="http://www.w3.org/1999/02/22-rdf-syntax-ns#">
   <cc:Work>
    <dc:type rdf:resource="http://purl.org/dc/dcmitype/StillImage"/>
    <dc:date>2025-06-03T14:47:26.595287</dc:date>
    <dc:format>image/svg+xml</dc:format>
    <dc:creator>
     <cc:Agent>
      <dc:title>Matplotlib v3.10.3, https://matplotlib.org/</dc:title>
     </cc:Agent>
    </dc:creator>
   </cc:Work>
  </rdf:RDF>
 </metadata>
 <defs>
  <style type="text/css">*{stroke-linejoin: round; stroke-linecap: butt}</style>
 </defs>
 <g id="figure_1">
  <g id="patch_1">
   <path d="M 0 345.6 
L 460.8 345.6 
L 460.8 0 
L 0 0 
z
" style="fill: #ffffff"/>
  </g>
  <g id="axes_1">
   <g id="patch_2">
    <path d="M 57.6 307.584 
L 414.72 307.584 
L 414.72 41.472 
L 57.6 41.472 
z
" style="fill: #ffffff"/>
   </g>
   <g id="matplotlib.axis_1">
    <g id="xtick_1">
     <g id="line2d_1">
      <path d="M 74.328881 307.584 
L 74.328881 41.472 
" clip-path="url(#p2a558cb53e)" style="fill: none; stroke: #b0b0b0; stroke-opacity: 0.5; stroke-width: 0.8; stroke-linecap: square"/>
     </g>
     <g id="line2d_2">
      <defs>
       <path id="m9821b05ee2" d="M 0 0 
L 0 3.5 
" style="stroke: #000000; stroke-width: 0.8"/>
      </defs>
      <g>
       <use xlink:href="#m9821b05ee2" x="74.328881" y="307.584" style="stroke: #000000; stroke-width: 0.8"/>
      </g>
     </g>
     <g id="text_1">
      <!-- −1.00 -->
      <g transform="translate(59.006225 322.182437) scale(0.1 -0.1)">
       <defs>
        <path id="DejaVuSans-2212" d="M 678 2272 
L 4684 2272 
L 4684 1741 
L 678 1741 
L 678 2272 
z
" transform="scale(0.015625)"/>
        <path id="DejaVuSans-31" d="M 794 531 
L 1825 531 
L 1825 4091 
L 703 3866 
L 703 4441 
L 1819 4666 
L 2450 4666 
L 2450 531 
L 3481 531 
L 3481 0 
L 794 0 
L 794 531 
z
" transform="scale(0.015625)"/>
        <path id="DejaVuSans-2e" d="M 684 794 
L 1344 794 
L 1344 0 
L 684 0 
L 684 794 
z
" transform="scale(0.015625)"/>
        <path id="DejaVuSans-30" d="M 2034 4250 
Q 1547 4250 1301 3770 
Q 1056 3291 1056 2328 
Q 1056 1369 1301 889 
Q 1547 409 2034 409 
Q 2525 409 2770 889 
Q 3016 1369 3016 2328 
Q 3016 3291 2770 3770 
Q 2525 4250 2034 4250 
z
M 2034 4750 
Q 2819 4750 3233 4129 
Q 3647 3509 3647 2328 
Q 3647 1150 3233 529 
Q 2819 -91 2034 -91 
Q 1250 -91 836 529 
Q 422 1150 422 2328 
Q 422 3509 836 4129 
Q 1250 4750 2034 4750 
z
" transform="scale(0.015625)"/>
       </defs>
       <use xlink:href="#DejaVuSans-2212"/>
       <use xlink:href="#DejaVuSans-31" transform="translate(83.789062 0)"/>
       <use xlink:href="#DejaVuSans-2e" transform="translate(147.412109 0)"/>
       <use xlink:href="#DejaVuSans-30" transform="translate(179.199219 0)"/>
       <use xlink:href="#DejaVuSans-30" transform="translate(242.822266 0)"/>
      </g>
     </g>
    </g>
    <g id="xtick_2">
     <g id="line2d_3">
      <path d="M 114.798358 307.584 
L 114.798358 41.472 
" clip-path="url(#p2a558cb53e)" style="fill: none; stroke: #b0b0b0; stroke-opacity: 0.5; stroke-width: 0.8; stroke-linecap: square"/>
     </g>
     <g id="line2d_4">
      <g>
       <use xlink:href="#m9821b05ee2" x="114.798358" y="307.584" style="stroke: #000000; stroke-width: 0.8"/>
      </g>
     </g>
     <g id="text_2">
      <!-- −0.75 -->
      <g transform="translate(99.475701 322.182437) scale(0.1 -0.1)">
       <defs>
        <path id="DejaVuSans-37" d="M 525 4666 
L 3525 4666 
L 3525 4397 
L 1831 0 
L 1172 0 
L 2766 4134 
L 525 4134 
L 525 4666 
z
" transform="scale(0.015625)"/>
        <path id="DejaVuSans-35" d="M 691 4666 
L 3169 4666 
L 3169 4134 
L 1269 4134 
L 1269 2991 
Q 1406 3038 1543 3061 
Q 1681 3084 1819 3084 
Q 2600 3084 3056 2656 
Q 3513 2228 3513 1497 
Q 3513 744 3044 326 
Q 2575 -91 1722 -91 
Q 1428 -91 1123 -41 
Q 819 9 494 109 
L 494 744 
Q 775 591 1075 516 
Q 1375 441 1709 441 
Q 2250 441 2565 725 
Q 2881 1009 2881 1497 
Q 2881 1984 2565 2268 
Q 2250 2553 1709 2553 
Q 1456 2553 1204 2497 
Q 953 2441 691 2322 
L 691 4666 
z
" transform="scale(0.015625)"/>
       </defs>
       <use xlink:href="#DejaVuSans-2212"/>
       <use xlink:href="#DejaVuSans-30" transform="translate(83.789062 0)"/>
       <use xlink:href="#DejaVuSans-2e" transform="translate(147.412109 0)"/>
       <use xlink:href="#DejaVuSans-37" transform="translate(179.199219 0)"/>
       <use xlink:href="#DejaVuSans-35" transform="translate(242.822266 0)"/>
      </g>
     </g>
    </g>
    <g id="xtick_3">
     <g id="line2d_5">
      <path d="M 155.267834 307.584 
L 155.267834 41.472 
" clip-path="url(#p2a558cb53e)" style="fill: none; stroke: #b0b0b0; stroke-opacity: 0.5; stroke-width: 0.8; stroke-linecap: square"/>
     </g>
     <g id="line2d_6">
      <g>
       <use xlink:href="#m9821b05ee2" x="155.267834" y="307.584" style="stroke: #000000; stroke-width: 0.8"/>
      </g>
     </g>
     <g id="text_3">
      <!-- −0.50 -->
      <g transform="translate(139.945178 322.182437) scale(0.1 -0.1)">
       <use xlink:href="#DejaVuSans-2212"/>
       <use xlink:href="#DejaVuSans-30" transform="translate(83.789062 0)"/>
       <use xlink:href="#DejaVuSans-2e" transform="translate(147.412109 0)"/>
       <use xlink:href="#DejaVuSans-35" transform="translate(179.199219 0)"/>
       <use xlink:href="#DejaVuSans-30" transform="translate(242.822266 0)"/>
      </g>
     </g>
    </g>
    <g id="xtick_4">
     <g id="line2d_7">
      <path d="M 195.73731 307.584 
L 195.73731 41.472 
" clip-path="url(#p2a558cb53e)" style="fill: none; stroke: #b0b0b0; stroke-opacity: 0.5; stroke-width: 0.8; stroke-linecap: square"/>
     </g>
     <g id="line2d_8">
      <g>
       <use xlink:href="#m9821b05ee2" x="195.73731" y="307.584" style="stroke: #000000; stroke-width: 0.8"/>
      </g>
     </g>
     <g id="text_4">
      <!-- −0.25 -->
      <g transform="translate(180.414654 322.182437) scale(0.1 -0.1)">
       <defs>
        <path id="DejaVuSans-32" d="M 1228 531 
L 3431 531 
L 3431 0 
L 469 0 
L 469 531 
Q 828 903 1448 1529 
Q 2069 2156 2228 2338 
Q 2531 2678 2651 2914 
Q 2772 3150 2772 3378 
Q 2772 3750 2511 3984 
Q 2250 4219 1831 4219 
Q 1534 4219 1204 4116 
Q 875 4013 500 3803 
L 500 4441 
Q 881 4594 1212 4672 
Q 1544 4750 1819 4750 
Q 2544 4750 2975 4387 
Q 3406 4025 3406 3419 
Q 3406 3131 3298 2873 
Q 3191 2616 2906 2266 
Q 2828 2175 2409 1742 
Q 1991 1309 1228 531 
z
" transform="scale(0.015625)"/>
       </defs>
       <use xlink:href="#DejaVuSans-2212"/>
       <use xlink:href="#DejaVuSans-30" transform="translate(83.789062 0)"/>
       <use xlink:href="#DejaVuSans-2e" transform="translate(147.412109 0)"/>
       <use xlink:href="#DejaVuSans-32" transform="translate(179.199219 0)"/>
       <use xlink:href="#DejaVuSans-35" transform="translate(242.822266 0)"/>
      </g>
     </g>
    </g>
    <g id="xtick_5">
     <g id="line2d_9">
      <path d="M 236.206786 307.584 
L 236.206786 41.472 
" clip-path="url(#p2a558cb53e)" style="fill: none; stroke: #b0b0b0; stroke-opacity: 0.5; stroke-width: 0.8; stroke-linecap: square"/>
     </g>
     <g id="line2d_10">
      <g>
       <use xlink:href="#m9821b05ee2" x="236.206786" y="307.584" style="stroke: #000000; stroke-width: 0.8"/>
      </g>
     </g>
     <g id="text_5">
      <!-- 0.00 -->
      <g transform="translate(225.073974 322.182437) scale(0.1 -0.1)">
       <use xlink:href="#DejaVuSans-30"/>
       <use xlink:href="#DejaVuSans-2e" transform="translate(63.623047 0)"/>
       <use xlink:href="#DejaVuSans-30" transform="translate(95.410156 0)"/>
       <use xlink:href="#DejaVuSans-30" transform="translate(159.033203 0)"/>
      </g>
     </g>
    </g>
    <g id="xtick_6">
     <g id="line2d_11">
      <path d="M 276.676263 307.584 
L 276.676263 41.472 
" clip-path="url(#p2a558cb53e)" style="fill: none; stroke: #b0b0b0; stroke-opacity: 0.5; stroke-width: 0.8; stroke-linecap: square"/>
     </g>
     <g id="line2d_12">
      <g>
       <use xlink:href="#m9821b05ee2" x="276.676263" y="307.584" style="stroke: #000000; stroke-width: 0.8"/>
      </g>
     </g>
     <g id="text_6">
      <!-- 0.25 -->
      <g transform="translate(265.54345 322.182437) scale(0.1 -0.1)">
       <use xlink:href="#DejaVuSans-30"/>
       <use xlink:href="#DejaVuSans-2e" transform="translate(63.623047 0)"/>
       <use xlink:href="#DejaVuSans-32" transform="translate(95.410156 0)"/>
       <use xlink:href="#DejaVuSans-35" transform="translate(159.033203 0)"/>
      </g>
     </g>
    </g>
    <g id="xtick_7">
     <g id="line2d_13">
      <path d="M 317.145739 307.584 
L 317.145739 41.472 
" clip-path="url(#p2a558cb53e)" style="fill: none; stroke: #b0b0b0; stroke-opacity: 0.5; stroke-width: 0.8; stroke-linecap: square"/>
     </g>
     <g id="line2d_14">
      <g>
       <use xlink:href="#m9821b05ee2" x="317.145739" y="307.584" style="stroke: #000000; stroke-width: 0.8"/>
      </g>
     </g>
     <g id="text_7">
      <!-- 0.50 -->
      <g transform="translate(306.012926 322.182437) scale(0.1 -0.1)">
       <use xlink:href="#DejaVuSans-30"/>
       <use xlink:href="#DejaVuSans-2e" transform="translate(63.623047 0)"/>
       <use xlink:href="#DejaVuSans-35" transform="translate(95.410156 0)"/>
       <use xlink:href="#DejaVuSans-30" transform="translate(159.033203 0)"/>
      </g>
     </g>
    </g>
    <g id="xtick_8">
     <g id="line2d_15">
      <path d="M 357.615215 307.584 
L 357.615215 41.472 
" clip-path="url(#p2a558cb53e)" style="fill: none; stroke: #b0b0b0; stroke-opacity: 0.5; stroke-width: 0.8; stroke-linecap: square"/>
     </g>
     <g id="line2d_16">
      <g>
       <use xlink:href="#m9821b05ee2" x="357.615215" y="307.584" style="stroke: #000000; stroke-width: 0.8"/>
      </g>
     </g>
     <g id="text_8">
      <!-- 0.75 -->
      <g transform="translate(346.482403 322.182437) scale(0.1 -0.1)">
       <use xlink:href="#DejaVuSans-30"/>
       <use xlink:href="#DejaVuSans-2e" transform="translate(63.623047 0)"/>
       <use xlink:href="#DejaVuSans-37" transform="translate(95.410156 0)"/>
       <use xlink:href="#DejaVuSans-35" transform="translate(159.033203 0)"/>
      </g>
     </g>
    </g>
    <g id="xtick_9">
     <g id="line2d_17">
      <path d="M 398.084691 307.584 
L 398.084691 41.472 
" clip-path="url(#p2a558cb53e)" style="fill: none; stroke: #b0b0b0; stroke-opacity: 0.5; stroke-width: 0.8; stroke-linecap: square"/>
     </g>
     <g id="line2d_18">
      <g>
       <use xlink:href="#m9821b05ee2" x="398.084691" y="307.584" style="stroke: #000000; stroke-width: 0.8"/>
      </g>
     </g>
     <g id="text_9">
      <!-- 1.00 -->
      <g transform="translate(386.951879 322.182437) scale(0.1 -0.1)">
       <use xlink:href="#DejaVuSans-31"/>
       <use xlink:href="#DejaVuSans-2e" transform="translate(63.623047 0)"/>
       <use xlink:href="#DejaVuSans-30" transform="translate(95.410156 0)"/>
       <use xlink:href="#DejaVuSans-30" transform="translate(159.033203 0)"/>
      </g>
     </g>
    </g>
    <g id="text_10">
     <!-- Index -->
     <g transform="translate(222.393594 335.860562) scale(0.1 -0.1)">
      <defs>
       <path id="DejaVuSans-49" d="M 628 4666 
L 1259 4666 
L 1259 0 
L 628 0 
L 628 4666 
z
" transform="scale(0.015625)"/>
       <path id="DejaVuSans-6e" d="M 3513 2113 
L 3513 0 
L 2938 0 
L 2938 2094 
Q 2938 2591 2744 2837 
Q 2550 3084 2163 3084 
Q 1697 3084 1428 2787 
Q 1159 2491 1159 1978 
L 1159 0 
L 581 0 
L 581 3500 
L 1159 3500 
L 1159 2956 
Q 1366 3272 1645 3428 
Q 1925 3584 2291 3584 
Q 2894 3584 3203 3211 
Q 3513 2838 3513 2113 
z
" transform="scale(0.015625)"/>
       <path id="DejaVuSans-64" d="M 2906 2969 
L 2906 4863 
L 3481 4863 
L 3481 0 
L 2906 0 
L 2906 525 
Q 2725 213 2448 61 
Q 2172 -91 1784 -91 
Q 1150 -91 751 415 
Q 353 922 353 1747 
Q 353 2572 751 3078 
Q 1150 3584 1784 3584 
Q 2172 3584 2448 3432 
Q 2725 3281 2906 2969 
z
M 947 1747 
Q 947 1113 1208 752 
Q 1469 391 1925 391 
Q 2381 391 2643 752 
Q 2906 1113 2906 1747 
Q 2906 2381 2643 2742 
Q 2381 3103 1925 3103 
Q 1469 3103 1208 2742 
Q 947 2381 947 1747 
z
" transform="scale(0.015625)"/>
       <path id="DejaVuSans-65" d="M 3597 1894 
L 3597 1613 
L 953 1613 
Q 991 1019 1311 708 
Q 1631 397 2203 397 
Q 2534 397 2845 478 
Q 3156 559 3463 722 
L 3463 178 
Q 3153 47 2828 -22 
Q 2503 -91 2169 -91 
Q 1331 -91 842 396 
Q 353 884 353 1716 
Q 353 2575 817 3079 
Q 1281 3584 2069 3584 
Q 2775 3584 3186 3129 
Q 3597 2675 3597 1894 
z
M 3022 2063 
Q 3016 2534 2758 2815 
Q 2500 3097 2075 3097 
Q 1594 3097 1305 2825 
Q 1016 2553 972 2059 
L 3022 2063 
z
" transform="scale(0.015625)"/>
       <path id="DejaVuSans-78" d="M 3513 3500 
L 2247 1797 
L 3578 0 
L 2900 0 
L 1881 1375 
L 863 0 
L 184 0 
L 1544 1831 
L 300 3500 
L 978 3500 
L 1906 2253 
L 2834 3500 
L 3513 3500 
z
" transform="scale(0.015625)"/>
      </defs>
      <use xlink:href="#DejaVuSans-49"/>
      <use xlink:href="#DejaVuSans-6e" transform="translate(29.492188 0)"/>
      <use xlink:href="#DejaVuSans-64" transform="translate(92.871094 0)"/>
      <use xlink:href="#DejaVuSans-65" transform="translate(156.347656 0)"/>
      <use xlink:href="#DejaVuSans-78" transform="translate(216.121094 0)"/>
     </g>
    </g>
   </g>
   <g id="matplotlib.axis_2">
    <g id="ytick_1">
     <g id="line2d_19">
      <path d="M 57.6 295.50573 
L 414.72 295.50573 
" clip-path="url(#p2a558cb53e)" style="fill: none; stroke: #b0b0b0; stroke-opacity: 0.5; stroke-width: 0.8; stroke-linecap: square"/>
     </g>
     <g id="line2d_20">
      <defs>
       <path id="m2e97cf28c1" d="M 0 0 
L -3.5 0 
" style="stroke: #000000; stroke-width: 0.8"/>
      </defs>
      <g>
       <use xlink:href="#m2e97cf28c1" x="57.6" y="295.50573" style="stroke: #000000; stroke-width: 0.8"/>
      </g>
     </g>
     <g id="text_11">
      <!-- −1.00 -->
      <g transform="translate(19.954687 299.304949) scale(0.1 -0.1)">
       <use xlink:href="#DejaVuSans-2212"/>
       <use xlink:href="#DejaVuSans-31" transform="translate(83.789062 0)"/>
       <use xlink:href="#DejaVuSans-2e" transform="translate(147.412109 0)"/>
       <use xlink:href="#DejaVuSans-30" transform="translate(179.199219 0)"/>
       <use xlink:href="#DejaVuSans-30" transform="translate(242.822266 0)"/>
      </g>
     </g>
    </g>
    <g id="ytick_2">
     <g id="line2d_21">
      <path d="M 57.6 265.263499 
L 414.72 265.263499 
" clip-path="url(#p2a558cb53e)" style="fill: none; stroke: #b0b0b0; stroke-opacity: 0.5; stroke-width: 0.8; stroke-linecap: square"/>
     </g>
     <g id="line2d_22">
      <g>
       <use xlink:href="#m2e97cf28c1" x="57.6" y="265.263499" style="stroke: #000000; stroke-width: 0.8"/>
      </g>
     </g>
     <g id="text_12">
      <!-- −0.75 -->
      <g transform="translate(19.954687 269.062717) scale(0.1 -0.1)">
       <use xlink:href="#DejaVuSans-2212"/>
       <use xlink:href="#DejaVuSans-30" transform="translate(83.789062 0)"/>
       <use xlink:href="#DejaVuSans-2e" transform="translate(147.412109 0)"/>
       <use xlink:href="#DejaVuSans-37" transform="translate(179.199219 0)"/>
       <use xlink:href="#DejaVuSans-35" transform="translate(242.822266 0)"/>
      </g>
     </g>
    </g>
    <g id="ytick_3">
     <g id="line2d_23">
      <path d="M 57.6 235.021267 
L 414.72 235.021267 
" clip-path="url(#p2a558cb53e)" style="fill: none; stroke: #b0b0b0; stroke-opacity: 0.5; stroke-width: 0.8; stroke-linecap: square"/>
     </g>
     <g id="line2d_24">
      <g>
       <use xlink:href="#m2e97cf28c1" x="57.6" y="235.021267" style="stroke: #000000; stroke-width: 0.8"/>
      </g>
     </g>
     <g id="text_13">
      <!-- −0.50 -->
      <g transform="translate(19.954687 238.820486) scale(0.1 -0.1)">
       <use xlink:href="#DejaVuSans-2212"/>
       <use xlink:href="#DejaVuSans-30" transform="translate(83.789062 0)"/>
       <use xlink:href="#DejaVuSans-2e" transform="translate(147.412109 0)"/>
       <use xlink:href="#DejaVuSans-35" transform="translate(179.199219 0)"/>
       <use xlink:href="#DejaVuSans-30" transform="translate(242.822266 0)"/>
      </g>
     </g>
    </g>
    <g id="ytick_4">
     <g id="line2d_25">
      <path d="M 57.6 204.779035 
L 414.72 204.779035 
" clip-path="url(#p2a558cb53e)" style="fill: none; stroke: #b0b0b0; stroke-opacity: 0.5; stroke-width: 0.8; stroke-linecap: square"/>
     </g>
     <g id="line2d_26">
      <g>
       <use xlink:href="#m2e97cf28c1" x="57.6" y="204.779035" style="stroke: #000000; stroke-width: 0.8"/>
      </g>
     </g>
     <g id="text_14">
      <!-- −0.25 -->
      <g transform="translate(19.954687 208.578254) scale(0.1 -0.1)">
       <use xlink:href="#DejaVuSans-2212"/>
       <use xlink:href="#DejaVuSans-30" transform="translate(83.789062 0)"/>
       <use xlink:href="#DejaVuSans-2e" transform="translate(147.412109 0)"/>
       <use xlink:href="#DejaVuSans-32" transform="translate(179.199219 0)"/>
       <use xlink:href="#DejaVuSans-35" transform="translate(242.822266 0)"/>
      </g>
     </g>
    </g>
    <g id="ytick_5">
     <g id="line2d_27">
      <path d="M 57.6 174.536804 
L 414.72 174.536804 
" clip-path="url(#p2a558cb53e)" style="fill: none; stroke: #b0b0b0; stroke-opacity: 0.5; stroke-width: 0.8; stroke-linecap: square"/>
     </g>
     <g id="line2d_28">
      <g>
       <use xlink:href="#m2e97cf28c1" x="57.6" y="174.536804" style="stroke: #000000; stroke-width: 0.8"/>
      </g>
     </g>
     <g id="text_15">
      <!-- 0.00 -->
      <g transform="translate(28.334375 178.336023) scale(0.1 -0.1)">
       <use xlink:href="#DejaVuSans-30"/>
       <use xlink:href="#DejaVuSans-2e" transform="translate(63.623047 0)"/>
       <use xlink:href="#DejaVuSans-30" transform="translate(95.410156 0)"/>
       <use xlink:href="#DejaVuSans-30" transform="translate(159.033203 0)"/>
      </g>
     </g>
    </g>
    <g id="ytick_6">
     <g id="line2d_29">
      <path d="M 57.6 144.294572 
L 414.72 144.294572 
" clip-path="url(#p2a558cb53e)" style="fill: none; stroke: #b0b0b0; stroke-opacity: 0.5; stroke-width: 0.8; stroke-linecap: square"/>
     </g>
     <g id="line2d_30">
      <g>
       <use xlink:href="#m2e97cf28c1" x="57.6" y="144.294572" style="stroke: #000000; stroke-width: 0.8"/>
      </g>
     </g>
     <g id="text_16">
      <!-- 0.25 -->
      <g transform="translate(28.334375 148.093791) scale(0.1 -0.1)">
       <use xlink:href="#DejaVuSans-30"/>
       <use xlink:href="#DejaVuSans-2e" transform="translate(63.623047 0)"/>
       <use xlink:href="#DejaVuSans-32" transform="translate(95.410156 0)"/>
       <use xlink:href="#DejaVuSans-35" transform="translate(159.033203 0)"/>
      </g>
     </g>
    </g>
    <g id="ytick_7">
     <g id="line2d_31">
      <path d="M 57.6 114.052341 
L 414.72 114.052341 
" clip-path="url(#p2a558cb53e)" style="fill: none; stroke: #b0b0b0; stroke-opacity: 0.5; stroke-width: 0.8; stroke-linecap: square"/>
     </g>
     <g id="line2d_32">
      <g>
       <use xlink:href="#m2e97cf28c1" x="57.6" y="114.052341" style="stroke: #000000; stroke-width: 0.8"/>
      </g>
     </g>
     <g id="text_17">
      <!-- 0.50 -->
      <g transform="translate(28.334375 117.851559) scale(0.1 -0.1)">
       <use xlink:href="#DejaVuSans-30"/>
       <use xlink:href="#DejaVuSans-2e" transform="translate(63.623047 0)"/>
       <use xlink:href="#DejaVuSans-35" transform="translate(95.410156 0)"/>
       <use xlink:href="#DejaVuSans-30" transform="translate(159.033203 0)"/>
      </g>
     </g>
    </g>
    <g id="ytick_8">
     <g id="line2d_33">
      <path d="M 57.6 83.810109 
L 414.72 83.810109 
" clip-path="url(#p2a558cb53e)" style="fill: none; stroke: #b0b0b0; stroke-opacity: 0.5; stroke-width: 0.8; stroke-linecap: square"/>
     </g>
     <g id="line2d_34">
      <g>
       <use xlink:href="#m2e97cf28c1" x="57.6" y="83.810109" style="stroke: #000000; stroke-width: 0.8"/>
      </g>
     </g>
     <g id="text_18">
      <!-- 0.75 -->
      <g transform="translate(28.334375 87.609328) scale(0.1 -0.1)">
       <use xlink:href="#DejaVuSans-30"/>
       <use xlink:href="#DejaVuSans-2e" transform="translate(63.623047 0)"/>
       <use xlink:href="#DejaVuSans-37" transform="translate(95.410156 0)"/>
       <use xlink:href="#DejaVuSans-35" transform="translate(159.033203 0)"/>
      </g>
     </g>
    </g>
    <g id="ytick_9">
     <g id="line2d_35">
      <path d="M 57.6 53.567877 
L 414.72 53.567877 
" clip-path="url(#p2a558cb53e)" style="fill: none; stroke: #b0b0b0; stroke-opacity: 0.5; stroke-width: 0.8; stroke-linecap: square"/>
     </g>
     <g id="line2d_36">
      <g>
       <use xlink:href="#m2e97cf28c1" x="57.6" y="53.567877" style="stroke: #000000; stroke-width: 0.8"/>
      </g>
     </g>
     <g id="text_19">
      <!-- 1.00 -->
      <g transform="translate(28.334375 57.367096) scale(0.1 -0.1)">
       <use xlink:href="#DejaVuSans-31"/>
       <use xlink:href="#DejaVuSans-2e" transform="translate(63.623047 0)"/>
       <use xlink:href="#DejaVuSans-30" transform="translate(95.410156 0)"/>
       <use xlink:href="#DejaVuSans-30" transform="translate(159.033203 0)"/>
      </g>
     </g>
    </g>
    <g id="text_20">
     <!-- Value -->
     <g transform="translate(13.875 188.25925) rotate(-90) scale(0.1 -0.1)">
      <defs>
       <path id="DejaVuSans-56" d="M 1831 0 
L 50 4666 
L 709 4666 
L 2188 738 
L 3669 4666 
L 4325 4666 
L 2547 0 
L 1831 0 
z
" transform="scale(0.015625)"/>
       <path id="DejaVuSans-61" d="M 2194 1759 
Q 1497 1759 1228 1600 
Q 959 1441 959 1056 
Q 959 750 1161 570 
Q 1363 391 1709 391 
Q 2188 391 2477 730 
Q 2766 1069 2766 1631 
L 2766 1759 
L 2194 1759 
z
M 3341 1997 
L 3341 0 
L 2766 0 
L 2766 531 
Q 2569 213 2275 61 
Q 1981 -91 1556 -91 
Q 1019 -91 701 211 
Q 384 513 384 1019 
Q 384 1609 779 1909 
Q 1175 2209 1959 2209 
L 2766 2209 
L 2766 2266 
Q 2766 2663 2505 2880 
Q 2244 3097 1772 3097 
Q 1472 3097 1187 3025 
Q 903 2953 641 2809 
L 641 3341 
Q 956 3463 1253 3523 
Q 1550 3584 1831 3584 
Q 2591 3584 2966 3190 
Q 3341 2797 3341 1997 
z
" transform="scale(0.015625)"/>
       <path id="DejaVuSans-6c" d="M 603 4863 
L 1178 4863 
L 1178 0 
L 603 0 
L 603 4863 
z
" transform="scale(0.015625)"/>
       <path id="DejaVuSans-75" d="M 544 1381 
L 544 3500 
L 1119 3500 
L 1119 1403 
Q 1119 906 1312 657 
Q 1506 409 1894 409 
Q 2359 409 2629 706 
Q 2900 1003 2900 1516 
L 2900 3500 
L 3475 3500 
L 3475 0 
L 2900 0 
L 2900 538 
Q 2691 219 2414 64 
Q 2138 -91 1772 -91 
Q 1169 -91 856 284 
Q 544 659 544 1381 
z
M 1991 3584 
L 1991 3584 
z
" transform="scale(0.015625)"/>
      </defs>
      <use xlink:href="#DejaVuSans-56"/>
      <use xlink:href="#DejaVuSans-61" transform="translate(60.658203 0)"/>
      <use xlink:href="#DejaVuSans-6c" transform="translate(121.9375 0)"/>
      <use xlink:href="#DejaVuSans-75" transform="translate(149.720703 0)"/>
      <use xlink:href="#DejaVuSans-65" transform="translate(213.099609 0)"/>
     </g>
    </g>
   </g>
   <g id="line2d_37">
    <path d="M 218.994148 177.029613 
L 248.821628 176.555445 
L 235.061455 176.081934 
L 240.524385 175.608125 
L 240.590454 175.133284 
L 242.391833 173.702602 
L 244.760805 171.80344 
L 248.017869 169.438286 
L 260.856319 158.616609 
L 262.531213 157.216735 
L 264.966201 155.349542 
L 268.682186 152.074021 
L 271.183904 150.205193 
L 273.969124 147.865947 
L 277.108842 145.533033 
L 279.889903 143.199312 
L 283.040186 140.87429 
L 285.777539 138.548842 
L 289.492246 135.772051 
L 291.703017 133.922642 
L 295.502222 131.161465 
L 297.679209 129.32011 
L 302.008487 126.109922 
L 303.620236 124.734855 
L 308.483771 121.078337 
L 310.161237 119.710783 
L 313.10154 117.43673 
L 315.509763 115.159873 
L 318.46205 112.897364 
L 321.420121 110.181875 
L 323.804116 108.3803 
L 326.700031 105.677234 
L 329.12343 103.886308 
L 331.802578 101.637103 
L 336.405228 98.508657 
L 337.98734 97.165961 
L 340.103738 95.83793 
L 342.111917 94.497836 
L 344.785739 92.263902 
L 348.312127 90.046804 
L 351.628328 87.375449 
L 354.269884 85.602289 
L 357.20092 82.936018 
L 359.927906 81.170213 
L 360.811416 80.274584 
L 361.593923 79.385344 
L 362.737388 78.509457 
L 365.565492 76.753465 
L 366.437037 75.860447 
L 367.134173 74.973809 
L 368.227445 74.103193 
L 371.199536 72.36062 
L 372.066846 71.470053 
L 372.678842 70.584887 
L 373.112647 70.149514 
L 374.49864 69.290239 
L 376.927936 67.988959 
L 377.457802 67.545539 
L 378.047462 66.655203 
L 378.284086 66.215165 
L 378.652376 65.781472 
L 379.243087 65.353626 
L 383.252295 63.191601 
L 383.539275 62.744612 
L 383.75886 61.860029 
L 384.032882 61.429603 
L 384.630675 61.007244 
L 386.70462 60.16883 
L 388.685956 59.30241 
L 389.187899 58.854102 
L 389.288351 58.401482 
L 388.865498 57.514873 
L 388.987361 57.092111 
L 389.747513 56.681816 
L 394.28541 55.429637 
L 394.854045 54.980673 
L 393.990855 54.5293 
L 390.838382 54.108881 
L 384.946949 53.769312 
L 376.495723 53.568 
L 375.952927 53.805284 
L 378.524492 54.295564 
L 379.597251 55.017128 
L 379.051069 55.91231 
L 379.580655 56.89519 
L 382.852994 57.866441 
L 388.271661 58.732276 
L 398.487273 59.907124 
L 398.0191 60.197628 
L 392.715956 60.347934 
L 374.014267 60.562325 
L 367.879032 60.796033 
L 367.925886 61.191078 
L 369.424306 61.759496 
L 370.813503 63.275904 
L 372.9464 64.091375 
L 381.296904 66.005943 
L 380.041476 66.393065 
L 375.578269 66.69416 
L 363.881277 67.262989 
L 361.288562 67.636173 
L 361.031193 68.110157 
L 362.139218 69.338693 
L 363.113754 70.031394 
L 367.002797 71.937137 
L 366.686899 72.435175 
L 364.876731 72.867685 
L 356.107996 74.041624 
L 354.626577 74.485369 
L 354.047425 74.98239 
L 353.995592 75.530654 
L 354.226272 76.117199 
L 355.470894 77.902327 
L 355.43336 78.446273 
L 354.824567 78.951492 
L 353.613803 79.4227 
L 347.31127 81.231219 
L 346.517029 81.728529 
L 346.080079 82.254045 
L 345.893098 82.80218 
L 345.859212 84.47239 
L 345.613537 85.001562 
L 345.040058 85.507481 
L 344.101406 85.992223 
L 339.187828 87.883855 
L 338.429742 88.386118 
L 337.930644 88.905779 
L 337.433525 89.975984 
L 336.958791 91.036065 
L 336.47107 91.547565 
L 335.733892 92.045206 
L 333.711125 93.01425 
L 331.718007 93.987288 
L 330.477747 94.995571 
L 329.753199 96.031577 
L 329.031189 97.063971 
L 327.880913 98.071316 
L 324.196199 100.54849 
L 322.635401 102.068762 
L 321.082302 103.588465 
L 319.203763 105.08601 
L 316.038269 107.576192 
L 310.840031 112.062353 
L 308.890989 113.546271 
L 307.320126 115.046906 
L 305.769155 116.533246 
L 303.753349 117.994286 
L 301.801967 119.46689 
L 300.340265 120.959684 
L 299.352699 121.94639 
L 298.121022 122.918718 
L 295.421713 124.858893 
L 293.840667 126.338067 
L 292.30112 127.814594 
L 289.803811 129.75915 
L 287.429943 131.712307 
L 282.832412 135.640282 
L 276.613397 140.535218 
L 274.837143 141.997728 
L 270.828616 144.908626 
L 267.409733 147.82883 
L 264.058164 150.234667 
L 259.299602 154.097053 
L 256.795867 156.018976 
L 251.950645 159.865914 
L 242.277824 167.519972 
L 239.1534 169.899888 
L 235.628783 172.751189 
L 232.523323 175.119305 
L 228.902204 177.955369 
L 225.237526 180.782179 
L 217.968875 186.408846 
L 213.663492 189.680362 
L 211.320543 191.544986 
L 207.561069 194.339853 
L 204.65428 196.670734 
L 200.936564 199.464402 
L 197.973482 201.792577 
L 194.921934 204.119123 
L 191.939746 206.439379 
L 188.903019 208.759909 
L 185.969677 211.070359 
L 182.902879 213.375358 
L 170.948576 223.456056 
L 169.377391 224.821444 
L 166.048554 227.553347 
L 164.053464 229.372642 
L 160.70258 232.09205 
L 158.174724 234.354259 
L 155.394868 236.609987 
L 152.892369 238.860728 
L 150.098441 241.105211 
L 147.64539 243.346363 
L 144.824224 245.579432 
L 142.422765 247.811888 
L 139.086794 250.483921 
L 137.225506 252.264572 
L 133.350164 255.374176 
L 131.700115 256.706584 
L 127.188694 259.81055 
L 125.584795 261.141415 
L 123.513369 262.460729 
L 121.562986 263.791961 
L 118.862997 266.004567 
L 115.405211 268.207425 
L 112.833135 270.415957 
L 108.772664 273.049458 
L 107.420788 274.370819 
L 106.127788 275.236641 
L 103.163812 276.981463 
L 102.255649 277.867322 
L 101.453951 278.743072 
L 100.19586 279.602764 
L 97.038263 281.335784 
L 96.186527 282.22103 
L 95.546183 283.094797 
L 95.03762 283.52319 
L 93.43237 284.371195 
L 91.582179 285.230786 
L 90.870068 285.670118 
L 90.400062 286.113984 
L 89.976138 286.998617 
L 89.762198 287.431293 
L 89.330169 287.855606 
L 88.573394 288.273998 
L 84.557075 289.988192 
L 84.1785 290.437185 
L 84.149004 290.886193 
L 84.395055 291.755251 
L 84.014241 292.169282 
L 82.962188 292.575309 
L 79.693352 293.405944 
L 78.543172 293.846515 
L 78.471366 294.298147 
L 80.238367 294.736203 
L 85.353187 295.11832 
L 95.509248 295.388772 
L 105.230153 295.488 
L 102.157629 295.365418 
L 96.011423 294.992781 
L 92.417272 294.374259 
L 94.282689 292.596024 
L 92.669643 291.60519 
L 87.481492 290.677296 
L 73.832727 289.312276 
L 75.740965 288.934773 
L 90.725512 288.621348 
L 106.485831 288.352245 
L 106.340754 288.035453 
L 103.344744 287.54381 
L 102.445699 286.886893 
L 102.479045 286.110905 
L 101.369332 285.285981 
L 98.109218 284.488579 
L 90.106588 283.208734 
L 90.795725 282.769821 
L 95.680898 282.439466 
L 108.538896 281.892168 
L 111.512791 281.559722 
L 111.669138 281.132403 
L 111.06652 280.598097 
L 110.070179 279.283795 
L 108.790215 278.582542 
L 105.039668 277.30114 
L 104.470879 276.76956 
L 105.877193 276.312289 
L 117.463245 274.72088 
L 118.213815 274.246506 
L 118.402813 273.716938 
L 118.313312 273.141224 
L 117.988132 272.537483 
L 116.490311 270.771959 
L 116.72734 270.248974 
L 117.716107 269.764066 
L 121.297184 268.86693 
L 124.569667 267.965158 
L 125.546943 267.480042 
L 126.129395 266.965096 
L 126.426072 266.423356 
L 126.504999 265.863548 
L 126.340875 264.198053 
L 126.679833 263.68054 
L 127.461588 263.186994 
L 130.10271 262.247065 
L 132.75513 261.302688 
L 133.663408 260.807073 
L 134.269268 260.291911 
L 134.626896 259.760424 
L 135.382339 257.626317 
L 136.006483 257.122633 
L 138.047689 256.149948 
L 140.270126 255.181971 
L 141.079264 254.685599 
L 141.674086 254.178231 
L 142.401847 253.13968 
L 142.996089 252.099124 
L 143.440064 251.587697 
L 144.779107 250.586055 
L 147.861675 248.601633 
L 148.968725 247.589443 
L 150.988164 245.554253 
L 153.491137 243.549355 
L 157.219703 240.544797 
L 160.514166 237.5368 
L 164.425189 234.558571 
L 166.911382 232.064131 
L 170.985468 229.119866 
L 173.357165 226.634974 
L 175.451024 225.17963 
L 176.821531 224.20458 
L 177.923782 223.217171 
L 179.90945 221.238641 
L 182.4497 219.286089 
L 184.796398 217.326078 
L 189.447059 213.384418 
L 191.342223 211.918248 
L 194.677041 209.464608 
L 198.088948 206.517081 
L 201.597423 204.086811 
L 204.911336 201.151413 
L 208.364813 198.73805 
L 211.8009 195.825552 
L 215.044196 193.415556 
L 218.024425 191.00215 
L 221.117933 188.590798 
L 223.507128 186.669414 
L 226.712538 184.268528 
L 229.551396 181.86773 
L 233.413847 179.002635 
L 235.622072 177.088924 
L 235.622072 177.088924 
" clip-path="url(#p2a558cb53e)" style="fill: none; stroke: #1f77b4; stroke-width: 1.5; stroke-linecap: square"/>
   </g>
   <g id="line2d_38">
    <path d="M 236.386724 177.029613 
L 240.148942 174.180022 
L 243.314338 171.80344 
L 245.798404 169.912761 
L 248.864915 167.545937 
L 252.047875 165.193857 
L 255.048889 162.836665 
L 258.870979 160.028928 
L 261.924961 157.68201 
L 265.124794 155.349542 
L 268.817496 152.538958 
L 271.92107 150.205193 
L 275.052301 147.865947 
L 278.143363 145.533033 
L 281.221556 143.199312 
L 284.291571 140.87429 
L 286.699851 139.010983 
L 290.408141 136.236964 
L 292.76387 134.382541 
L 297.085106 131.161465 
L 299.50276 129.32011 
L 302.616976 127.031767 
L 305.582911 124.734855 
L 308.684907 122.456328 
L 311.644465 120.164902 
L 314.747566 117.893907 
L 317.653732 115.611981 
L 320.756042 113.352292 
L 323.593205 111.080561 
L 327.254868 108.3803 
L 329.514742 106.571255 
L 333.213706 103.886308 
L 335.453666 102.083515 
L 339.684359 98.95923 
L 341.974115 97.165961 
L 345.067991 94.946714 
L 347.855629 92.706298 
L 351.004011 90.49421 
L 354.401097 87.815789 
L 356.877883 86.049134 
L 359.59989 83.815185 
L 363.306206 81.170213 
L 365.387705 79.385344 
L 369.102928 76.753465 
L 371.154853 74.973809 
L 375.385431 71.916061 
L 376.883301 70.584887 
L 378.926678 69.290239 
L 380.223055 68.427569 
L 381.192833 67.545539 
L 382.590675 66.215165 
L 383.942571 65.353626 
L 386.058805 64.072765 
L 386.974184 63.191601 
L 387.718502 62.299231 
L 388.870873 61.429603 
L 391.999919 59.741013 
L 392.466538 59.30241 
L 392.926375 58.401482 
L 393.162729 57.952546 
L 393.606317 57.514873 
L 394.352208 57.092111 
L 397.556118 55.861174 
L 398.084691 55.429637 
L 397.822006 54.980673 
L 396.590835 54.5293 
L 394.420163 54.108881 
L 391.574296 53.769312 
L 388.519439 53.569911 
L 385.830845 53.568 
L 384.059638 53.805284 
L 383.593105 54.295564 
L 384.545343 55.017128 
L 386.709753 55.91231 
L 394.741966 58.732276 
L 395.72808 59.422959 
L 395.161268 59.907124 
L 393.084024 60.197628 
L 386.130263 60.439346 
L 382.566255 60.562325 
L 379.801176 60.796033 
L 378.238689 61.191078 
L 377.979612 61.759496 
L 378.815776 62.473879 
L 382.981707 64.848544 
L 383.261278 65.494444 
L 382.556249 66.005943 
L 380.965491 66.393065 
L 372.736146 67.636173 
L 371.837053 68.110157 
L 371.581306 68.685316 
L 371.779422 69.338693 
L 372.423481 70.71907 
L 372.361305 71.362735 
L 371.854382 71.937137 
L 370.911282 72.435175 
L 368.23474 73.259046 
L 365.706526 74.041624 
L 364.835473 74.485369 
L 364.267118 74.98239 
L 363.940819 75.530654 
L 363.260385 77.323476 
L 362.771998 77.902327 
L 362.062569 78.446273 
L 360.097945 79.4227 
L 356.959607 80.761547 
L 356.170017 81.231219 
L 355.562025 81.728529 
L 354.760394 82.80218 
L 354.047878 83.923325 
L 353.540512 84.47239 
L 352.874165 85.001562 
L 351.10428 85.992223 
L 348.236983 87.399329 
L 346.888812 88.386118 
L 346.008689 89.438196 
L 345.1268 90.510895 
L 343.809611 91.547565 
L 341.126286 93.01425 
L 339.458821 93.987288 
L 338.209153 94.995571 
L 336.179246 97.063971 
L 334.817673 98.071316 
L 330.140169 101.052664 
L 328.398747 102.577313 
L 326.642312 104.089906 
L 324.444759 105.582346 
L 321.481882 107.576192 
L 319.780676 109.084545 
L 318.019513 110.58323 
L 315.771309 112.062353 
L 313.577017 113.546271 
L 311.880669 115.046906 
L 310.149885 116.533246 
L 307.967808 117.994286 
L 305.797078 119.46689 
L 303.396879 121.454852 
L 301.513848 122.918718 
L 295.463555 127.324481 
L 290.986661 130.732924 
L 286.854418 133.679997 
L 283.123681 136.613891 
L 279.019955 139.55008 
L 275.993872 141.997728 
L 271.342145 145.399084 
L 268.281684 147.82883 
L 263.07529 151.691009 
L 256.648672 156.500589 
L 245.172596 165.1349 
L 241.333089 167.994688 
L 236.96306 171.330326 
L 208.901699 192.473093 
L 200.227427 198.997142 
L 195.868262 202.257035 
L 186.750684 209.224148 
L 172.155456 220.256459 
L 169.106229 222.540502 
L 165.473069 225.275066 
L 161.89945 228.00998 
L 135.732306 247.811888 
L 133.333269 249.588609 
L 130.517226 251.822017 
L 126.882715 254.480112 
L 124.635867 256.26434 
L 120.457306 259.363965 
L 118.144595 261.141415 
L 115.123277 263.346457 
L 112.937157 265.125861 
L 108.771139 268.207425 
L 107.195559 269.540135 
L 102.483609 273.049458 
L 100.836551 274.370819 
L 97.713082 276.540402 
L 95.198589 278.743072 
L 91.963446 280.896251 
L 89.525564 283.094797 
L 86.145488 285.230786 
L 85.318259 286.113984 
L 84.507616 286.998617 
L 83.215012 287.855606 
L 80.821301 289.114108 
L 80.256825 289.546027 
L 79.891121 289.988192 
L 79.137665 291.327413 
L 78.545574 291.755251 
L 76.544256 292.575309 
L 75.440023 292.983895 
L 74.653058 293.405944 
L 74.513953 293.846515 
L 75.27284 294.298147 
L 77.00855 294.736203 
L 79.57311 295.11832 
L 82.59246 295.388772 
L 85.530646 295.488 
L 87.80617 295.365418 
L 88.933299 294.992781 
L 88.652137 294.374259 
L 87.010917 293.550748 
L 81.360112 291.60519 
L 78.689822 290.677296 
L 77.033916 289.895936 
L 76.845941 289.312276 
L 78.255062 288.934773 
L 81.035946 288.72801 
L 91.695011 288.352245 
L 93.86657 288.035453 
L 94.710405 287.54381 
L 94.297461 286.886893 
L 92.987605 286.110905 
L 89.893034 284.488579 
L 89.173165 283.783338 
L 89.43393 283.208734 
L 90.685103 282.769821 
L 92.697836 282.439466 
L 97.40171 281.892168 
L 99.278512 281.559722 
L 100.486468 281.132403 
L 100.987042 280.598097 
L 100.918401 279.970526 
L 100.157902 278.582542 
L 100.036821 277.910663 
L 100.346727 277.30114 
L 101.129881 276.76956 
L 102.307714 276.312289 
L 106.441746 275.143382 
L 107.454577 274.72088 
L 108.148607 274.246506 
L 108.558598 273.716938 
L 109.544394 271.334219 
L 110.145053 270.771959 
L 110.965904 270.248974 
L 113.065494 269.308187 
L 115.210308 268.424109 
L 116.800824 267.480042 
L 117.325529 266.965096 
L 118.03104 265.863548 
L 118.797926 264.739179 
L 119.382472 264.198053 
L 121.052687 263.186994 
L 124.86951 261.302688 
L 126.044496 260.291911 
L 127.795355 258.145574 
L 129.296833 257.122633 
L 132.900835 255.181971 
L 134.195436 254.178231 
L 136.795957 251.587697 
L 138.284024 250.586055 
L 141.509566 248.601633 
L 143.44867 247.079703 
L 145.759219 245.050051 
L 147.915515 243.549355 
L 150.965036 241.551767 
L 152.162263 240.544797 
L 154.345507 238.530027 
L 155.787145 237.5368 
L 158.916808 235.560591 
L 160.122049 234.558571 
L 162.300329 232.555777 
L 164.482 231.08933 
L 166.687567 229.617706 
L 169.07421 227.620403 
L 170.970348 226.148285 
L 177.058672 221.730615 
L 183.67306 216.834097 
L 185.746435 215.355724 
L 190.103878 211.918248 
L 192.966216 209.959495 
L 197.967486 206.034174 
L 200.041053 204.577743 
L 205.710598 200.189711 
L 208.851232 197.76291 
L 212.132119 195.344567 
L 220.47877 189.073557 
L 223.669859 186.669414 
L 226.888073 184.268528 
L 230.038038 181.86773 
L 233.249819 179.483026 
L 236.305557 177.088924 
L 236.305557 177.088924 
" clip-path="url(#p2a558cb53e)" style="fill: none; stroke: #ff7f0e; stroke-opacity: 0.5; stroke-width: 1.5; stroke-linecap: square"/>
   </g>
   <g id="patch_3">
    <path d="M 57.6 307.584 
L 57.6 41.472 
" style="fill: none; stroke: #000000; stroke-width: 0.8; stroke-linejoin: miter; stroke-linecap: square"/>
   </g>
   <g id="patch_4">
    <path d="M 414.72 307.584 
L 414.72 41.472 
" style="fill: none; stroke: #000000; stroke-width: 0.8; stroke-linejoin: miter; stroke-linecap: square"/>
   </g>
   <g id="patch_5">
    <path d="M 57.6 307.584 
L 414.72 307.584 
" style="fill: none; stroke: #000000; stroke-width: 0.8; stroke-linejoin: miter; stroke-linecap: square"/>
   </g>
   <g id="patch_6">
    <path d="M 57.6 41.472 
L 414.72 41.472 
" style="fill: none; stroke: #000000; stroke-width: 0.8; stroke-linejoin: miter; stroke-linecap: square"/>
   </g>
   <g id="text_21">
    <!-- Compare - Epoch 300 -->
    <g transform="translate(171.234375 35.472) scale(0.12 -0.12)">
     <defs>
      <path id="DejaVuSans-43" d="M 4122 4306 
L 4122 3641 
Q 3803 3938 3442 4084 
Q 3081 4231 2675 4231 
Q 1875 4231 1450 3742 
Q 1025 3253 1025 2328 
Q 1025 1406 1450 917 
Q 1875 428 2675 428 
Q 3081 428 3442 575 
Q 3803 722 4122 1019 
L 4122 359 
Q 3791 134 3420 21 
Q 3050 -91 2638 -91 
Q 1578 -91 968 557 
Q 359 1206 359 2328 
Q 359 3453 968 4101 
Q 1578 4750 2638 4750 
Q 3056 4750 3426 4639 
Q 3797 4528 4122 4306 
z
" transform="scale(0.015625)"/>
      <path id="DejaVuSans-6f" d="M 1959 3097 
Q 1497 3097 1228 2736 
Q 959 2375 959 1747 
Q 959 1119 1226 758 
Q 1494 397 1959 397 
Q 2419 397 2687 759 
Q 2956 1122 2956 1747 
Q 2956 2369 2687 2733 
Q 2419 3097 1959 3097 
z
M 1959 3584 
Q 2709 3584 3137 3096 
Q 3566 2609 3566 1747 
Q 3566 888 3137 398 
Q 2709 -91 1959 -91 
Q 1206 -91 779 398 
Q 353 888 353 1747 
Q 353 2609 779 3096 
Q 1206 3584 1959 3584 
z
" transform="scale(0.015625)"/>
      <path id="DejaVuSans-6d" d="M 3328 2828 
Q 3544 3216 3844 3400 
Q 4144 3584 4550 3584 
Q 5097 3584 5394 3201 
Q 5691 2819 5691 2113 
L 5691 0 
L 5113 0 
L 5113 2094 
Q 5113 2597 4934 2840 
Q 4756 3084 4391 3084 
Q 3944 3084 3684 2787 
Q 3425 2491 3425 1978 
L 3425 0 
L 2847 0 
L 2847 2094 
Q 2847 2600 2669 2842 
Q 2491 3084 2119 3084 
Q 1678 3084 1418 2786 
Q 1159 2488 1159 1978 
L 1159 0 
L 581 0 
L 581 3500 
L 1159 3500 
L 1159 2956 
Q 1356 3278 1631 3431 
Q 1906 3584 2284 3584 
Q 2666 3584 2933 3390 
Q 3200 3197 3328 2828 
z
" transform="scale(0.015625)"/>
      <path id="DejaVuSans-70" d="M 1159 525 
L 1159 -1331 
L 581 -1331 
L 581 3500 
L 1159 3500 
L 1159 2969 
Q 1341 3281 1617 3432 
Q 1894 3584 2278 3584 
Q 2916 3584 3314 3078 
Q 3713 2572 3713 1747 
Q 3713 922 3314 415 
Q 2916 -91 2278 -91 
Q 1894 -91 1617 61 
Q 1341 213 1159 525 
z
M 3116 1747 
Q 3116 2381 2855 2742 
Q 2594 3103 2138 3103 
Q 1681 3103 1420 2742 
Q 1159 2381 1159 1747 
Q 1159 1113 1420 752 
Q 1681 391 2138 391 
Q 2594 391 2855 752 
Q 3116 1113 3116 1747 
z
" transform="scale(0.015625)"/>
      <path id="DejaVuSans-72" d="M 2631 2963 
Q 2534 3019 2420 3045 
Q 2306 3072 2169 3072 
Q 1681 3072 1420 2755 
Q 1159 2438 1159 1844 
L 1159 0 
L 581 0 
L 581 3500 
L 1159 3500 
L 1159 2956 
Q 1341 3275 1631 3429 
Q 1922 3584 2338 3584 
Q 2397 3584 2469 3576 
Q 2541 3569 2628 3553 
L 2631 2963 
z
" transform="scale(0.015625)"/>
      <path id="DejaVuSans-20" transform="scale(0.015625)"/>
      <path id="DejaVuSans-2d" d="M 313 2009 
L 1997 2009 
L 1997 1497 
L 313 1497 
L 313 2009 
z
" transform="scale(0.015625)"/>
      <path id="DejaVuSans-45" d="M 628 4666 
L 3578 4666 
L 3578 4134 
L 1259 4134 
L 1259 2753 
L 3481 2753 
L 3481 2222 
L 1259 2222 
L 1259 531 
L 3634 531 
L 3634 0 
L 628 0 
L 628 4666 
z
" transform="scale(0.015625)"/>
      <path id="DejaVuSans-63" d="M 3122 3366 
L 3122 2828 
Q 2878 2963 2633 3030 
Q 2388 3097 2138 3097 
Q 1578 3097 1268 2742 
Q 959 2388 959 1747 
Q 959 1106 1268 751 
Q 1578 397 2138 397 
Q 2388 397 2633 464 
Q 2878 531 3122 666 
L 3122 134 
Q 2881 22 2623 -34 
Q 2366 -91 2075 -91 
Q 1284 -91 818 406 
Q 353 903 353 1747 
Q 353 2603 823 3093 
Q 1294 3584 2113 3584 
Q 2378 3584 2631 3529 
Q 2884 3475 3122 3366 
z
" transform="scale(0.015625)"/>
      <path id="DejaVuSans-68" d="M 3513 2113 
L 3513 0 
L 2938 0 
L 2938 2094 
Q 2938 2591 2744 2837 
Q 2550 3084 2163 3084 
Q 1697 3084 1428 2787 
Q 1159 2491 1159 1978 
L 1159 0 
L 581 0 
L 581 4863 
L 1159 4863 
L 1159 2956 
Q 1366 3272 1645 3428 
Q 1925 3584 2291 3584 
Q 2894 3584 3203 3211 
Q 3513 2838 3513 2113 
z
" transform="scale(0.015625)"/>
      <path id="DejaVuSans-33" d="M 2597 2516 
Q 3050 2419 3304 2112 
Q 3559 1806 3559 1356 
Q 3559 666 3084 287 
Q 2609 -91 1734 -91 
Q 1441 -91 1130 -33 
Q 819 25 488 141 
L 488 750 
Q 750 597 1062 519 
Q 1375 441 1716 441 
Q 2309 441 2620 675 
Q 2931 909 2931 1356 
Q 2931 1769 2642 2001 
Q 2353 2234 1838 2234 
L 1294 2234 
L 1294 2753 
L 1863 2753 
Q 2328 2753 2575 2939 
Q 2822 3125 2822 3475 
Q 2822 3834 2567 4026 
Q 2313 4219 1838 4219 
Q 1578 4219 1281 4162 
Q 984 4106 628 3988 
L 628 4550 
Q 988 4650 1302 4700 
Q 1616 4750 1894 4750 
Q 2613 4750 3031 4423 
Q 3450 4097 3450 3541 
Q 3450 3153 3228 2886 
Q 3006 2619 2597 2516 
z
" transform="scale(0.015625)"/>
     </defs>
     <use xlink:href="#DejaVuSans-43"/>
     <use xlink:href="#DejaVuSans-6f" transform="translate(69.824219 0)"/>
     <use xlink:href="#DejaVuSans-6d" transform="translate(131.005859 0)"/>
     <use xlink:href="#DejaVuSans-70" transform="translate(228.417969 0)"/>
     <use xlink:href="#DejaVuSans-61" transform="translate(291.894531 0)"/>
     <use xlink:href="#DejaVuSans-72" transform="translate(353.173828 0)"/>
     <use xlink:href="#DejaVuSans-65" transform="translate(392.037109 0)"/>
     <use xlink:href="#DejaVuSans-20" transform="translate(453.560547 0)"/>
     <use xlink:href="#DejaVuSans-2d" transform="translate(485.347656 0)"/>
     <use xlink:href="#DejaVuSans-20" transform="translate(521.431641 0)"/>
     <use xlink:href="#DejaVuSans-45" transform="translate(553.21875 0)"/>
     <use xlink:href="#DejaVuSans-70" transform="translate(616.402344 0)"/>
     <use xlink:href="#DejaVuSans-6f" transform="translate(679.878906 0)"/>
     <use xlink:href="#DejaVuSans-63" transform="translate(741.060547 0)"/>
     <use xlink:href="#DejaVuSans-68" transform="translate(796.041016 0)"/>
     <use xlink:href="#DejaVuSans-20" transform="translate(859.419922 0)"/>
     <use xlink:href="#DejaVuSans-33" transform="translate(891.207031 0)"/>
     <use xlink:href="#DejaVuSans-30" transform="translate(954.830078 0)"/>
     <use xlink:href="#DejaVuSans-30" transform="translate(1018.453125 0)"/>
    </g>
   </g>
   <g id="legend_1">
    <g id="patch_7">
     <path d="M 64.6 78.82825 
L 181.128125 78.82825 
Q 183.128125 78.82825 183.128125 76.82825 
L 183.128125 48.472 
Q 183.128125 46.472 181.128125 46.472 
L 64.6 46.472 
Q 62.6 46.472 62.6 48.472 
L 62.6 76.82825 
Q 62.6 78.82825 64.6 78.82825 
z
" style="fill: #ffffff; opacity: 0.8; stroke: #cccccc; stroke-linejoin: miter"/>
    </g>
    <g id="line2d_39">
     <path d="M 66.6 54.570437 
L 76.6 54.570437 
L 86.6 54.570437 
" style="fill: none; stroke: #1f77b4; stroke-width: 1.5; stroke-linecap: square"/>
    </g>
    <g id="text_22">
     <!-- Pred: Sample 1 -->
     <g transform="translate(94.6 58.070437) scale(0.1 -0.1)">
      <defs>
       <path id="DejaVuSans-50" d="M 1259 4147 
L 1259 2394 
L 2053 2394 
Q 2494 2394 2734 2622 
Q 2975 2850 2975 3272 
Q 2975 3691 2734 3919 
Q 2494 4147 2053 4147 
L 1259 4147 
z
M 628 4666 
L 2053 4666 
Q 2838 4666 3239 4311 
Q 3641 3956 3641 3272 
Q 3641 2581 3239 2228 
Q 2838 1875 2053 1875 
L 1259 1875 
L 1259 0 
L 628 0 
L 628 4666 
z
" transform="scale(0.015625)"/>
       <path id="DejaVuSans-3a" d="M 750 794 
L 1409 794 
L 1409 0 
L 750 0 
L 750 794 
z
M 750 3309 
L 1409 3309 
L 1409 2516 
L 750 2516 
L 750 3309 
z
" transform="scale(0.015625)"/>
       <path id="DejaVuSans-53" d="M 3425 4513 
L 3425 3897 
Q 3066 4069 2747 4153 
Q 2428 4238 2131 4238 
Q 1616 4238 1336 4038 
Q 1056 3838 1056 3469 
Q 1056 3159 1242 3001 
Q 1428 2844 1947 2747 
L 2328 2669 
Q 3034 2534 3370 2195 
Q 3706 1856 3706 1288 
Q 3706 609 3251 259 
Q 2797 -91 1919 -91 
Q 1588 -91 1214 -16 
Q 841 59 441 206 
L 441 856 
Q 825 641 1194 531 
Q 1563 422 1919 422 
Q 2459 422 2753 634 
Q 3047 847 3047 1241 
Q 3047 1584 2836 1778 
Q 2625 1972 2144 2069 
L 1759 2144 
Q 1053 2284 737 2584 
Q 422 2884 422 3419 
Q 422 4038 858 4394 
Q 1294 4750 2059 4750 
Q 2388 4750 2728 4690 
Q 3069 4631 3425 4513 
z
" transform="scale(0.015625)"/>
      </defs>
      <use xlink:href="#DejaVuSans-50"/>
      <use xlink:href="#DejaVuSans-72" transform="translate(58.552734 0)"/>
      <use xlink:href="#DejaVuSans-65" transform="translate(97.416016 0)"/>
      <use xlink:href="#DejaVuSans-64" transform="translate(158.939453 0)"/>
      <use xlink:href="#DejaVuSans-3a" transform="translate(222.416016 0)"/>
      <use xlink:href="#DejaVuSans-20" transform="translate(256.107422 0)"/>
      <use xlink:href="#DejaVuSans-53" transform="translate(287.894531 0)"/>
      <use xlink:href="#DejaVuSans-61" transform="translate(351.371094 0)"/>
      <use xlink:href="#DejaVuSans-6d" transform="translate(412.650391 0)"/>
      <use xlink:href="#DejaVuSans-70" transform="translate(510.0625 0)"/>
      <use xlink:href="#DejaVuSans-6c" transform="translate(573.539062 0)"/>
      <use xlink:href="#DejaVuSans-65" transform="translate(601.322266 0)"/>
      <use xlink:href="#DejaVuSans-20" transform="translate(662.845703 0)"/>
      <use xlink:href="#DejaVuSans-31" transform="translate(694.632812 0)"/>
     </g>
    </g>
    <g id="line2d_40">
     <path d="M 66.6 69.248562 
L 76.6 69.248562 
L 86.6 69.248562 
" style="fill: none; stroke: #ff7f0e; stroke-opacity: 0.5; stroke-width: 1.5; stroke-linecap: square"/>
    </g>
    <g id="text_23">
     <!-- Target: Sample 1 -->
     <g transform="translate(94.6 72.748562) scale(0.1 -0.1)">
      <defs>
       <path id="DejaVuSans-54" d="M -19 4666 
L 3928 4666 
L 3928 4134 
L 2272 4134 
L 2272 0 
L 1638 0 
L 1638 4134 
L -19 4134 
L -19 4666 
z
" transform="scale(0.015625)"/>
       <path id="DejaVuSans-67" d="M 2906 1791 
Q 2906 2416 2648 2759 
Q 2391 3103 1925 3103 
Q 1463 3103 1205 2759 
Q 947 2416 947 1791 
Q 947 1169 1205 825 
Q 1463 481 1925 481 
Q 2391 481 2648 825 
Q 2906 1169 2906 1791 
z
M 3481 434 
Q 3481 -459 3084 -895 
Q 2688 -1331 1869 -1331 
Q 1566 -1331 1297 -1286 
Q 1028 -1241 775 -1147 
L 775 -588 
Q 1028 -725 1275 -790 
Q 1522 -856 1778 -856 
Q 2344 -856 2625 -561 
Q 2906 -266 2906 331 
L 2906 616 
Q 2728 306 2450 153 
Q 2172 0 1784 0 
Q 1141 0 747 490 
Q 353 981 353 1791 
Q 353 2603 747 3093 
Q 1141 3584 1784 3584 
Q 2172 3584 2450 3431 
Q 2728 3278 2906 2969 
L 2906 3500 
L 3481 3500 
L 3481 434 
z
" transform="scale(0.015625)"/>
       <path id="DejaVuSans-74" d="M 1172 4494 
L 1172 3500 
L 2356 3500 
L 2356 3053 
L 1172 3053 
L 1172 1153 
Q 1172 725 1289 603 
Q 1406 481 1766 481 
L 2356 481 
L 2356 0 
L 1766 0 
Q 1100 0 847 248 
Q 594 497 594 1153 
L 594 3053 
L 172 3053 
L 172 3500 
L 594 3500 
L 594 4494 
L 1172 4494 
z
" transform="scale(0.015625)"/>
      </defs>
      <use xlink:href="#DejaVuSans-54"/>
      <use xlink:href="#DejaVuSans-61" transform="translate(44.583984 0)"/>
      <use xlink:href="#DejaVuSans-72" transform="translate(105.863281 0)"/>
      <use xlink:href="#DejaVuSans-67" transform="translate(145.226562 0)"/>
      <use xlink:href="#DejaVuSans-65" transform="translate(208.703125 0)"/>
      <use xlink:href="#DejaVuSans-74" transform="translate(270.226562 0)"/>
      <use xlink:href="#DejaVuSans-3a" transform="translate(309.435547 0)"/>
      <use xlink:href="#DejaVuSans-20" transform="translate(343.126953 0)"/>
      <use xlink:href="#DejaVuSans-53" transform="translate(374.914062 0)"/>
      <use xlink:href="#DejaVuSans-61" transform="translate(438.390625 0)"/>
      <use xlink:href="#DejaVuSans-6d" transform="translate(499.669922 0)"/>
      <use xlink:href="#DejaVuSans-70" transform="translate(597.082031 0)"/>
      <use xlink:href="#DejaVuSans-6c" transform="translate(660.558594 0)"/>
      <use xlink:href="#DejaVuSans-65" transform="translate(688.341797 0)"/>
      <use xlink:href="#DejaVuSans-20" transform="translate(749.865234 0)"/>
      <use xlink:href="#DejaVuSans-31" transform="translate(781.652344 0)"/>
     </g>
    </g>
   </g>
  </g>
 </g>
 <defs>
  <clipPath id="p2a558cb53e">
   <rect x="57.6" y="41.472" width="357.12" height="266.112"/>
  </clipPath>
 </defs>
</svg>
