<?xml version="1.0" encoding="utf-8" standalone="no"?>
<!DOCTYPE svg PUBLIC "-//W3C//DTD SVG 1.1//EN"
  "http://www.w3.org/Graphics/SVG/1.1/DTD/svg11.dtd">
<svg xmlns:xlink="http://www.w3.org/1999/xlink" width="460.8pt" height="345.6pt" viewBox="0 0 460.8 345.6" xmlns="http://www.w3.org/2000/svg" version="1.1">
 <metadata>
  <rdf:RDF xmlns:dc="http://purl.org/dc/elements/1.1/" xmlns:cc="http://creativecommons.org/ns#" xmlns:rdf="http://www.w3.org/1999/02/22-rdf-syntax-ns#">
   <cc:Work>
    <dc:type rdf:resource="http://purl.org/dc/dcmitype/StillImage"/>
    <dc:date>2025-05-21T04:56:12.887261</dc:date>
    <dc:format>image/svg+xml</dc:format>
    <dc:creator>
     <cc:Agent>
      <dc:title>Matplotlib v3.10.0, https://matplotlib.org/</dc:title>
     </cc:Agent>
    </dc:creator>
   </cc:Work>
  </rdf:RDF>
 </metadata>
 <defs>
  <style type="text/css">*{stroke-linejoin: round; stroke-linecap: butt}</style>
 </defs>
 <g id="figure_1">
  <g id="patch_1">
   <path d="M 0 345.6 
L 460.8 345.6 
L 460.8 0 
L 0 0 
z
" style="fill: #ffffff"/>
  </g>
  <g id="axes_1">
   <g id="patch_2">
    <path d="M 57.6 307.584 
L 414.72 307.584 
L 414.72 41.472 
L 57.6 41.472 
z
" style="fill: #ffffff"/>
   </g>
   <g id="matplotlib.axis_1">
    <g id="xtick_1">
     <g id="line2d_1">
      <path d="M 94.914366 307.584 
L 94.914366 41.472 
" clip-path="url(#pe218c2305c)" style="fill: none; stroke: #b0b0b0; stroke-opacity: 0.5; stroke-width: 0.8; stroke-linecap: square"/>
     </g>
     <g id="line2d_2">
      <defs>
       <path id="m844cebc0ed" d="M 0 0 
L 0 3.5 
" style="stroke: #000000; stroke-width: 0.8"/>
      </defs>
      <g>
       <use xlink:href="#m844cebc0ed" x="94.914366" y="307.584" style="stroke: #000000; stroke-width: 0.8"/>
      </g>
     </g>
     <g id="text_1">
      <!-- −1.5 -->
      <g transform="translate(82.772959 322.182437) scale(0.1 -0.1)">
       <defs>
        <path id="DejaVuSans-2212" d="M 678 2272 
L 4684 2272 
L 4684 1741 
L 678 1741 
L 678 2272 
z
" transform="scale(0.015625)"/>
        <path id="DejaVuSans-31" d="M 794 531 
L 1825 531 
L 1825 4091 
L 703 3866 
L 703 4441 
L 1819 4666 
L 2450 4666 
L 2450 531 
L 3481 531 
L 3481 0 
L 794 0 
L 794 531 
z
" transform="scale(0.015625)"/>
        <path id="DejaVuSans-2e" d="M 684 794 
L 1344 794 
L 1344 0 
L 684 0 
L 684 794 
z
" transform="scale(0.015625)"/>
        <path id="DejaVuSans-35" d="M 691 4666 
L 3169 4666 
L 3169 4134 
L 1269 4134 
L 1269 2991 
Q 1406 3038 1543 3061 
Q 1681 3084 1819 3084 
Q 2600 3084 3056 2656 
Q 3513 2228 3513 1497 
Q 3513 744 3044 326 
Q 2575 -91 1722 -91 
Q 1428 -91 1123 -41 
Q 819 9 494 109 
L 494 744 
Q 775 591 1075 516 
Q 1375 441 1709 441 
Q 2250 441 2565 725 
Q 2881 1009 2881 1497 
Q 2881 1984 2565 2268 
Q 2250 2553 1709 2553 
Q 1456 2553 1204 2497 
Q 953 2441 691 2322 
L 691 4666 
z
" transform="scale(0.015625)"/>
       </defs>
       <use xlink:href="#DejaVuSans-2212"/>
       <use xlink:href="#DejaVuSans-31" transform="translate(83.789062 0)"/>
       <use xlink:href="#DejaVuSans-2e" transform="translate(147.412109 0)"/>
       <use xlink:href="#DejaVuSans-35" transform="translate(179.199219 0)"/>
      </g>
     </g>
    </g>
    <g id="xtick_2">
     <g id="line2d_3">
      <path d="M 143.735749 307.584 
L 143.735749 41.472 
" clip-path="url(#pe218c2305c)" style="fill: none; stroke: #b0b0b0; stroke-opacity: 0.5; stroke-width: 0.8; stroke-linecap: square"/>
     </g>
     <g id="line2d_4">
      <g>
       <use xlink:href="#m844cebc0ed" x="143.735749" y="307.584" style="stroke: #000000; stroke-width: 0.8"/>
      </g>
     </g>
     <g id="text_2">
      <!-- −1.0 -->
      <g transform="translate(131.594343 322.182437) scale(0.1 -0.1)">
       <defs>
        <path id="DejaVuSans-30" d="M 2034 4250 
Q 1547 4250 1301 3770 
Q 1056 3291 1056 2328 
Q 1056 1369 1301 889 
Q 1547 409 2034 409 
Q 2525 409 2770 889 
Q 3016 1369 3016 2328 
Q 3016 3291 2770 3770 
Q 2525 4250 2034 4250 
z
M 2034 4750 
Q 2819 4750 3233 4129 
Q 3647 3509 3647 2328 
Q 3647 1150 3233 529 
Q 2819 -91 2034 -91 
Q 1250 -91 836 529 
Q 422 1150 422 2328 
Q 422 3509 836 4129 
Q 1250 4750 2034 4750 
z
" transform="scale(0.015625)"/>
       </defs>
       <use xlink:href="#DejaVuSans-2212"/>
       <use xlink:href="#DejaVuSans-31" transform="translate(83.789062 0)"/>
       <use xlink:href="#DejaVuSans-2e" transform="translate(147.412109 0)"/>
       <use xlink:href="#DejaVuSans-30" transform="translate(179.199219 0)"/>
      </g>
     </g>
    </g>
    <g id="xtick_3">
     <g id="line2d_5">
      <path d="M 192.557132 307.584 
L 192.557132 41.472 
" clip-path="url(#pe218c2305c)" style="fill: none; stroke: #b0b0b0; stroke-opacity: 0.5; stroke-width: 0.8; stroke-linecap: square"/>
     </g>
     <g id="line2d_6">
      <g>
       <use xlink:href="#m844cebc0ed" x="192.557132" y="307.584" style="stroke: #000000; stroke-width: 0.8"/>
      </g>
     </g>
     <g id="text_3">
      <!-- −0.5 -->
      <g transform="translate(180.415726 322.182437) scale(0.1 -0.1)">
       <use xlink:href="#DejaVuSans-2212"/>
       <use xlink:href="#DejaVuSans-30" transform="translate(83.789062 0)"/>
       <use xlink:href="#DejaVuSans-2e" transform="translate(147.412109 0)"/>
       <use xlink:href="#DejaVuSans-35" transform="translate(179.199219 0)"/>
      </g>
     </g>
    </g>
    <g id="xtick_4">
     <g id="line2d_7">
      <path d="M 241.378516 307.584 
L 241.378516 41.472 
" clip-path="url(#pe218c2305c)" style="fill: none; stroke: #b0b0b0; stroke-opacity: 0.5; stroke-width: 0.8; stroke-linecap: square"/>
     </g>
     <g id="line2d_8">
      <g>
       <use xlink:href="#m844cebc0ed" x="241.378516" y="307.584" style="stroke: #000000; stroke-width: 0.8"/>
      </g>
     </g>
     <g id="text_4">
      <!-- 0.0 -->
      <g transform="translate(233.426953 322.182437) scale(0.1 -0.1)">
       <use xlink:href="#DejaVuSans-30"/>
       <use xlink:href="#DejaVuSans-2e" transform="translate(63.623047 0)"/>
       <use xlink:href="#DejaVuSans-30" transform="translate(95.410156 0)"/>
      </g>
     </g>
    </g>
    <g id="xtick_5">
     <g id="line2d_9">
      <path d="M 290.199899 307.584 
L 290.199899 41.472 
" clip-path="url(#pe218c2305c)" style="fill: none; stroke: #b0b0b0; stroke-opacity: 0.5; stroke-width: 0.8; stroke-linecap: square"/>
     </g>
     <g id="line2d_10">
      <g>
       <use xlink:href="#m844cebc0ed" x="290.199899" y="307.584" style="stroke: #000000; stroke-width: 0.8"/>
      </g>
     </g>
     <g id="text_5">
      <!-- 0.5 -->
      <g transform="translate(282.248337 322.182437) scale(0.1 -0.1)">
       <use xlink:href="#DejaVuSans-30"/>
       <use xlink:href="#DejaVuSans-2e" transform="translate(63.623047 0)"/>
       <use xlink:href="#DejaVuSans-35" transform="translate(95.410156 0)"/>
      </g>
     </g>
    </g>
    <g id="xtick_6">
     <g id="line2d_11">
      <path d="M 339.021283 307.584 
L 339.021283 41.472 
" clip-path="url(#pe218c2305c)" style="fill: none; stroke: #b0b0b0; stroke-opacity: 0.5; stroke-width: 0.8; stroke-linecap: square"/>
     </g>
     <g id="line2d_12">
      <g>
       <use xlink:href="#m844cebc0ed" x="339.021283" y="307.584" style="stroke: #000000; stroke-width: 0.8"/>
      </g>
     </g>
     <g id="text_6">
      <!-- 1.0 -->
      <g transform="translate(331.06972 322.182437) scale(0.1 -0.1)">
       <use xlink:href="#DejaVuSans-31"/>
       <use xlink:href="#DejaVuSans-2e" transform="translate(63.623047 0)"/>
       <use xlink:href="#DejaVuSans-30" transform="translate(95.410156 0)"/>
      </g>
     </g>
    </g>
    <g id="xtick_7">
     <g id="line2d_13">
      <path d="M 387.842666 307.584 
L 387.842666 41.472 
" clip-path="url(#pe218c2305c)" style="fill: none; stroke: #b0b0b0; stroke-opacity: 0.5; stroke-width: 0.8; stroke-linecap: square"/>
     </g>
     <g id="line2d_14">
      <g>
       <use xlink:href="#m844cebc0ed" x="387.842666" y="307.584" style="stroke: #000000; stroke-width: 0.8"/>
      </g>
     </g>
     <g id="text_7">
      <!-- 1.5 -->
      <g transform="translate(379.891104 322.182437) scale(0.1 -0.1)">
       <use xlink:href="#DejaVuSans-31"/>
       <use xlink:href="#DejaVuSans-2e" transform="translate(63.623047 0)"/>
       <use xlink:href="#DejaVuSans-35" transform="translate(95.410156 0)"/>
      </g>
     </g>
    </g>
    <g id="text_8">
     <!-- Index -->
     <g transform="translate(222.393594 335.860562) scale(0.1 -0.1)">
      <defs>
       <path id="DejaVuSans-49" d="M 628 4666 
L 1259 4666 
L 1259 0 
L 628 0 
L 628 4666 
z
" transform="scale(0.015625)"/>
       <path id="DejaVuSans-6e" d="M 3513 2113 
L 3513 0 
L 2938 0 
L 2938 2094 
Q 2938 2591 2744 2837 
Q 2550 3084 2163 3084 
Q 1697 3084 1428 2787 
Q 1159 2491 1159 1978 
L 1159 0 
L 581 0 
L 581 3500 
L 1159 3500 
L 1159 2956 
Q 1366 3272 1645 3428 
Q 1925 3584 2291 3584 
Q 2894 3584 3203 3211 
Q 3513 2838 3513 2113 
z
" transform="scale(0.015625)"/>
       <path id="DejaVuSans-64" d="M 2906 2969 
L 2906 4863 
L 3481 4863 
L 3481 0 
L 2906 0 
L 2906 525 
Q 2725 213 2448 61 
Q 2172 -91 1784 -91 
Q 1150 -91 751 415 
Q 353 922 353 1747 
Q 353 2572 751 3078 
Q 1150 3584 1784 3584 
Q 2172 3584 2448 3432 
Q 2725 3281 2906 2969 
z
M 947 1747 
Q 947 1113 1208 752 
Q 1469 391 1925 391 
Q 2381 391 2643 752 
Q 2906 1113 2906 1747 
Q 2906 2381 2643 2742 
Q 2381 3103 1925 3103 
Q 1469 3103 1208 2742 
Q 947 2381 947 1747 
z
" transform="scale(0.015625)"/>
       <path id="DejaVuSans-65" d="M 3597 1894 
L 3597 1613 
L 953 1613 
Q 991 1019 1311 708 
Q 1631 397 2203 397 
Q 2534 397 2845 478 
Q 3156 559 3463 722 
L 3463 178 
Q 3153 47 2828 -22 
Q 2503 -91 2169 -91 
Q 1331 -91 842 396 
Q 353 884 353 1716 
Q 353 2575 817 3079 
Q 1281 3584 2069 3584 
Q 2775 3584 3186 3129 
Q 3597 2675 3597 1894 
z
M 3022 2063 
Q 3016 2534 2758 2815 
Q 2500 3097 2075 3097 
Q 1594 3097 1305 2825 
Q 1016 2553 972 2059 
L 3022 2063 
z
" transform="scale(0.015625)"/>
       <path id="DejaVuSans-78" d="M 3513 3500 
L 2247 1797 
L 3578 0 
L 2900 0 
L 1881 1375 
L 863 0 
L 184 0 
L 1544 1831 
L 300 3500 
L 978 3500 
L 1906 2253 
L 2834 3500 
L 3513 3500 
z
" transform="scale(0.015625)"/>
      </defs>
      <use xlink:href="#DejaVuSans-49"/>
      <use xlink:href="#DejaVuSans-6e" transform="translate(29.492188 0)"/>
      <use xlink:href="#DejaVuSans-64" transform="translate(92.871094 0)"/>
      <use xlink:href="#DejaVuSans-65" transform="translate(156.347656 0)"/>
      <use xlink:href="#DejaVuSans-78" transform="translate(216.121094 0)"/>
     </g>
    </g>
   </g>
   <g id="matplotlib.axis_2">
    <g id="ytick_1">
     <g id="line2d_15">
      <path d="M 57.6 279.291362 
L 414.72 279.291362 
" clip-path="url(#pe218c2305c)" style="fill: none; stroke: #b0b0b0; stroke-opacity: 0.5; stroke-width: 0.8; stroke-linecap: square"/>
     </g>
     <g id="line2d_16">
      <defs>
       <path id="mbae99faeea" d="M 0 0 
L -3.5 0 
" style="stroke: #000000; stroke-width: 0.8"/>
      </defs>
      <g>
       <use xlink:href="#mbae99faeea" x="57.6" y="279.291362" style="stroke: #000000; stroke-width: 0.8"/>
      </g>
     </g>
     <g id="text_9">
      <!-- −1.5 -->
      <g transform="translate(26.317187 283.090581) scale(0.1 -0.1)">
       <use xlink:href="#DejaVuSans-2212"/>
       <use xlink:href="#DejaVuSans-31" transform="translate(83.789062 0)"/>
       <use xlink:href="#DejaVuSans-2e" transform="translate(147.412109 0)"/>
       <use xlink:href="#DejaVuSans-35" transform="translate(179.199219 0)"/>
      </g>
     </g>
    </g>
    <g id="ytick_2">
     <g id="line2d_17">
      <path d="M 57.6 243.120574 
L 414.72 243.120574 
" clip-path="url(#pe218c2305c)" style="fill: none; stroke: #b0b0b0; stroke-opacity: 0.5; stroke-width: 0.8; stroke-linecap: square"/>
     </g>
     <g id="line2d_18">
      <g>
       <use xlink:href="#mbae99faeea" x="57.6" y="243.120574" style="stroke: #000000; stroke-width: 0.8"/>
      </g>
     </g>
     <g id="text_10">
      <!-- −1.0 -->
      <g transform="translate(26.317187 246.919793) scale(0.1 -0.1)">
       <use xlink:href="#DejaVuSans-2212"/>
       <use xlink:href="#DejaVuSans-31" transform="translate(83.789062 0)"/>
       <use xlink:href="#DejaVuSans-2e" transform="translate(147.412109 0)"/>
       <use xlink:href="#DejaVuSans-30" transform="translate(179.199219 0)"/>
      </g>
     </g>
    </g>
    <g id="ytick_3">
     <g id="line2d_19">
      <path d="M 57.6 206.949786 
L 414.72 206.949786 
" clip-path="url(#pe218c2305c)" style="fill: none; stroke: #b0b0b0; stroke-opacity: 0.5; stroke-width: 0.8; stroke-linecap: square"/>
     </g>
     <g id="line2d_20">
      <g>
       <use xlink:href="#mbae99faeea" x="57.6" y="206.949786" style="stroke: #000000; stroke-width: 0.8"/>
      </g>
     </g>
     <g id="text_11">
      <!-- −0.5 -->
      <g transform="translate(26.317187 210.749005) scale(0.1 -0.1)">
       <use xlink:href="#DejaVuSans-2212"/>
       <use xlink:href="#DejaVuSans-30" transform="translate(83.789062 0)"/>
       <use xlink:href="#DejaVuSans-2e" transform="translate(147.412109 0)"/>
       <use xlink:href="#DejaVuSans-35" transform="translate(179.199219 0)"/>
      </g>
     </g>
    </g>
    <g id="ytick_4">
     <g id="line2d_21">
      <path d="M 57.6 170.778998 
L 414.72 170.778998 
" clip-path="url(#pe218c2305c)" style="fill: none; stroke: #b0b0b0; stroke-opacity: 0.5; stroke-width: 0.8; stroke-linecap: square"/>
     </g>
     <g id="line2d_22">
      <g>
       <use xlink:href="#mbae99faeea" x="57.6" y="170.778998" style="stroke: #000000; stroke-width: 0.8"/>
      </g>
     </g>
     <g id="text_12">
      <!-- 0.0 -->
      <g transform="translate(34.696875 174.578217) scale(0.1 -0.1)">
       <use xlink:href="#DejaVuSans-30"/>
       <use xlink:href="#DejaVuSans-2e" transform="translate(63.623047 0)"/>
       <use xlink:href="#DejaVuSans-30" transform="translate(95.410156 0)"/>
      </g>
     </g>
    </g>
    <g id="ytick_5">
     <g id="line2d_23">
      <path d="M 57.6 134.60821 
L 414.72 134.60821 
" clip-path="url(#pe218c2305c)" style="fill: none; stroke: #b0b0b0; stroke-opacity: 0.5; stroke-width: 0.8; stroke-linecap: square"/>
     </g>
     <g id="line2d_24">
      <g>
       <use xlink:href="#mbae99faeea" x="57.6" y="134.60821" style="stroke: #000000; stroke-width: 0.8"/>
      </g>
     </g>
     <g id="text_13">
      <!-- 0.5 -->
      <g transform="translate(34.696875 138.407429) scale(0.1 -0.1)">
       <use xlink:href="#DejaVuSans-30"/>
       <use xlink:href="#DejaVuSans-2e" transform="translate(63.623047 0)"/>
       <use xlink:href="#DejaVuSans-35" transform="translate(95.410156 0)"/>
      </g>
     </g>
    </g>
    <g id="ytick_6">
     <g id="line2d_25">
      <path d="M 57.6 98.437422 
L 414.72 98.437422 
" clip-path="url(#pe218c2305c)" style="fill: none; stroke: #b0b0b0; stroke-opacity: 0.5; stroke-width: 0.8; stroke-linecap: square"/>
     </g>
     <g id="line2d_26">
      <g>
       <use xlink:href="#mbae99faeea" x="57.6" y="98.437422" style="stroke: #000000; stroke-width: 0.8"/>
      </g>
     </g>
     <g id="text_14">
      <!-- 1.0 -->
      <g transform="translate(34.696875 102.236641) scale(0.1 -0.1)">
       <use xlink:href="#DejaVuSans-31"/>
       <use xlink:href="#DejaVuSans-2e" transform="translate(63.623047 0)"/>
       <use xlink:href="#DejaVuSans-30" transform="translate(95.410156 0)"/>
      </g>
     </g>
    </g>
    <g id="ytick_7">
     <g id="line2d_27">
      <path d="M 57.6 62.266634 
L 414.72 62.266634 
" clip-path="url(#pe218c2305c)" style="fill: none; stroke: #b0b0b0; stroke-opacity: 0.5; stroke-width: 0.8; stroke-linecap: square"/>
     </g>
     <g id="line2d_28">
      <g>
       <use xlink:href="#mbae99faeea" x="57.6" y="62.266634" style="stroke: #000000; stroke-width: 0.8"/>
      </g>
     </g>
     <g id="text_15">
      <!-- 1.5 -->
      <g transform="translate(34.696875 66.065852) scale(0.1 -0.1)">
       <use xlink:href="#DejaVuSans-31"/>
       <use xlink:href="#DejaVuSans-2e" transform="translate(63.623047 0)"/>
       <use xlink:href="#DejaVuSans-35" transform="translate(95.410156 0)"/>
      </g>
     </g>
    </g>
    <g id="text_16">
     <!-- Value -->
     <g transform="translate(20.2375 188.25925) rotate(-90) scale(0.1 -0.1)">
      <defs>
       <path id="DejaVuSans-56" d="M 1831 0 
L 50 4666 
L 709 4666 
L 2188 738 
L 3669 4666 
L 4325 4666 
L 2547 0 
L 1831 0 
z
" transform="scale(0.015625)"/>
       <path id="DejaVuSans-61" d="M 2194 1759 
Q 1497 1759 1228 1600 
Q 959 1441 959 1056 
Q 959 750 1161 570 
Q 1363 391 1709 391 
Q 2188 391 2477 730 
Q 2766 1069 2766 1631 
L 2766 1759 
L 2194 1759 
z
M 3341 1997 
L 3341 0 
L 2766 0 
L 2766 531 
Q 2569 213 2275 61 
Q 1981 -91 1556 -91 
Q 1019 -91 701 211 
Q 384 513 384 1019 
Q 384 1609 779 1909 
Q 1175 2209 1959 2209 
L 2766 2209 
L 2766 2266 
Q 2766 2663 2505 2880 
Q 2244 3097 1772 3097 
Q 1472 3097 1187 3025 
Q 903 2953 641 2809 
L 641 3341 
Q 956 3463 1253 3523 
Q 1550 3584 1831 3584 
Q 2591 3584 2966 3190 
Q 3341 2797 3341 1997 
z
" transform="scale(0.015625)"/>
       <path id="DejaVuSans-6c" d="M 603 4863 
L 1178 4863 
L 1178 0 
L 603 0 
L 603 4863 
z
" transform="scale(0.015625)"/>
       <path id="DejaVuSans-75" d="M 544 1381 
L 544 3500 
L 1119 3500 
L 1119 1403 
Q 1119 906 1312 657 
Q 1506 409 1894 409 
Q 2359 409 2629 706 
Q 2900 1003 2900 1516 
L 2900 3500 
L 3475 3500 
L 3475 0 
L 2900 0 
L 2900 538 
Q 2691 219 2414 64 
Q 2138 -91 1772 -91 
Q 1169 -91 856 284 
Q 544 659 544 1381 
z
M 1991 3584 
L 1991 3584 
z
" transform="scale(0.015625)"/>
      </defs>
      <use xlink:href="#DejaVuSans-56"/>
      <use xlink:href="#DejaVuSans-61" transform="translate(60.658203 0)"/>
      <use xlink:href="#DejaVuSans-6c" transform="translate(121.9375 0)"/>
      <use xlink:href="#DejaVuSans-75" transform="translate(149.720703 0)"/>
      <use xlink:href="#DejaVuSans-65" transform="translate(213.099609 0)"/>
     </g>
    </g>
   </g>
   <g id="line2d_29">
    <path d="M 241.103359 171.919972 
L 243.884119 171.330028 
L 245.837277 170.737708 
L 244.954264 170.145371 
L 245.634267 169.556292 
L 247.069389 168.970529 
L 249.696322 166.61902 
L 252.060137 164.861214 
L 253.59368 163.685481 
L 255.988926 161.927281 
L 257.527835 160.750252 
L 259.933205 158.989332 
L 261.462212 157.808362 
L 263.906822 156.041537 
L 265.419637 154.857117 
L 267.877462 153.087627 
L 269.375975 151.902695 
L 271.841951 150.135825 
L 273.322049 148.953683 
L 275.792835 147.194283 
L 277.254775 146.018527 
L 279.723135 144.269116 
L 282.030735 142.520054 
L 283.632051 141.362335 
L 285.929185 139.62324 
L 287.509942 138.474616 
L 289.766397 136.748636 
L 291.356902 135.609587 
L 293.566218 133.898373 
L 295.171154 132.768385 
L 297.341808 131.070335 
L 298.962627 129.946449 
L 301.100654 128.255596 
L 302.725256 127.135586 
L 304.818749 125.44697 
L 306.489229 124.327141 
L 309.418172 122.075332 
L 310.933329 120.953283 
L 312.258482 119.823144 
L 313.974359 118.698227 
L 316.865425 116.438484 
L 318.403798 115.313502 
L 319.685406 114.180078 
L 322.137223 112.492152 
L 323.379883 111.361513 
L 325.834179 109.678409 
L 327.048375 108.553345 
L 329.492491 106.878398 
L 330.677447 105.759815 
L 333.662418 103.543097 
L 334.225849 102.986435 
L 337.246165 100.785188 
L 337.771941 100.233106 
L 338.488826 99.682188 
L 340.239645 98.592689 
L 341.958862 96.953095 
L 343.726245 95.871155 
L 345.390964 94.240923 
L 347.20571 93.165795 
L 348.795502 91.543635 
L 351.247406 89.936256 
L 351.628846 89.396579 
L 352.217198 88.854453 
L 354.721272 87.248126 
L 355.084961 86.709234 
L 355.656609 86.167246 
L 356.444295 85.628216 
L 357.448331 85.093973 
L 358.18096 84.559488 
L 358.536781 84.019345 
L 359.116763 83.475443 
L 359.886698 82.934835 
L 361.746781 81.86696 
L 362.042261 81.32743 
L 362.597753 80.782553 
L 363.336632 80.240169 
L 365.321786 79.172009 
L 365.590051 78.633246 
L 366.088077 78.088128 
L 366.821602 77.5447 
L 368.893264 76.47761 
L 369.163543 75.940865 
L 369.58485 75.397127 
L 370.301486 74.854673 
L 371.199389 74.321059 
L 372.459225 73.792507 
L 372.719238 73.258505 
L 373.108768 72.715845 
L 374.608316 71.642192 
L 376.051131 71.11846 
L 376.661122 70.050396 
L 377.989039 68.980089 
L 379.53879 68.461308 
L 380.00462 67.938896 
L 380.210519 67.403772 
L 381.381239 66.338295 
L 382.960707 65.824903 
L 383.6226 65.30858 
L 383.760149 64.77682 
L 384.742256 63.71455 
L 386.366235 63.207696 
L 387.23313 62.698668 
L 387.355931 62.169677 
L 387.783198 61.630215 
L 388.020524 61.106958 
L 389.726262 60.607934 
L 390.828097 60.108358 
L 391.173384 59.037267 
L 391.07583 58.513104 
L 393.087849 58.024377 
L 394.403684 57.536986 
L 394.606941 57.0084 
L 394.508758 56.450579 
L 393.591741 55.925571 
L 396.387535 55.461111 
L 398.213036 54.992046 
L 398.487273 54.436114 
L 396.226613 53.862356 
L 388.953313 53.568 
L 384.698047 53.93132 
L 383.342054 55.138245 
L 385.164308 57.043378 
L 383.800539 59.318911 
L 377.163291 61.748818 
L 367.574926 64.359929 
L 365.248955 67.24663 
L 362.556512 70.288179 
L 370.65165 75.34071 
L 363.073244 77.058672 
L 350.673476 78.753195 
L 343.922122 80.982961 
L 345.736646 83.890014 
L 347.269217 87.068837 
L 353.369632 89.91223 
L 346.795449 92.121377 
L 327.621199 95.868766 
L 324.250777 98.309264 
L 326.737216 101.186409 
L 324.533604 104.103311 
L 326.283073 106.681841 
L 318.453827 108.849688 
L 310.372518 110.853809 
L 305.187222 113.032652 
L 303.56017 115.551195 
L 305.598292 118.297341 
L 299.539967 120.996108 
L 299.029353 123.43548 
L 294.485405 125.625953 
L 286.485844 127.774259 
L 283.537014 130.101293 
L 282.927676 132.659182 
L 274.249687 140.152497 
L 267.919369 142.379299 
L 264.750816 144.674775 
L 261.74885 147.12069 
L 260.277063 149.654794 
L 256.639054 152.150594 
L 248.728531 156.856207 
L 245.547479 159.18499 
L 242.514827 161.575855 
L 240.6938 164.015211 
L 237.008581 166.457516 
L 233.125511 168.869798 
L 230.334961 171.247972 
L 227.305303 173.60731 
L 220.196859 178.351657 
L 218.354296 180.758924 
L 215.231904 183.173503 
L 211.756659 185.566539 
L 208.865144 187.924819 
L 202.518149 192.628505 
L 199.767222 195.02019 
L 196.661216 197.418237 
L 193.163209 199.789063 
L 190.201078 202.128237 
L 186.387879 204.464561 
L 183.023592 206.824676 
L 180.866999 209.201694 
L 178.045417 211.565828 
L 174.270112 213.902443 
L 167.715438 218.571733 
L 162.469428 223.282318 
L 158.692028 225.611672 
L 152.447319 230.266094 
L 147.28063 234.95875 
L 143.453783 237.281951 
L 140.15369 239.599956 
L 137.145107 241.936036 
L 134.846827 244.288235 
L 132.289629 246.628947 
L 128.38675 248.942131 
L 124.817135 251.248994 
L 121.892254 253.583307 
L 119.783589 255.945164 
L 117.363742 258.295121 
L 109.646634 262.888952 
L 106.859745 265.20349 
L 102.413457 269.916899 
L 99.099163 272.224504 
L 94.921908 274.497122 
L 91.920705 276.795293 
L 89.673664 279.14412 
L 87.944693 281.491256 
L 84.872393 283.775387 
L 79.478114 286.025687 
L 76.034629 288.341079 
L 75.141078 290.723366 
L 79.381398 292.936437 
L 87.30097 295.413284 
L 83.747208 295.488 
L 78.426133 295.14498 
L 77.462149 294.651251 
L 85.128867 293.987961 
L 85.716311 292.979573 
L 86.734862 291.644223 
L 81.274492 290.367928 
L 76.369451 289.656724 
L 81.434215 289.663554 
L 90.293036 289.96123 
L 95.578633 289.83371 
L 98.337307 288.865353 
L 90.806427 287.304232 
L 81.206643 285.867647 
L 82.770735 285.154762 
L 88.366116 285.171639 
L 97.313098 285.354092 
L 101.480133 285.039048 
L 100.739729 283.979546 
L 95.39435 282.503999 
L 89.193633 281.233474 
L 92.715607 280.604308 
L 96.492751 280.557791 
L 102.220339 280.60586 
L 104.792704 280.205234 
L 104.809256 279.16047 
L 101.578153 277.763908 
L 96.951061 276.569798 
L 99.133582 275.970186 
L 107.886212 275.869279 
L 111.082873 275.389857 
L 107.295591 272.974256 
L 104.25388 271.884115 
L 106.843449 271.353079 
L 113.575924 271.111268 
L 116.516669 270.540106 
L 114.061006 269.474352 
L 112.082812 267.247544 
L 113.831315 266.747899 
L 117.553274 266.586375 
L 119.250504 266.368581 
L 121.68454 265.755275 
L 119.679668 264.716979 
L 118.998371 263.549802 
L 118.775222 262.642217 
L 120.439114 262.174178 
L 123.748566 261.982497 
L 125.394277 261.696222 
L 127.282413 261.031448 
L 125.37471 260.008935 
L 124.606173 258.925692 
L 125.55059 258.112512 
L 127.327727 257.67764 
L 129.819008 257.436165 
L 131.012776 257.067662 
L 132.678973 256.366617 
L 130.278564 254.400661 
L 133.693974 253.225178 
L 135.746838 252.930598 
L 136.389047 252.505403 
L 138.469102 251.791241 
L 137.414245 250.857345 
L 136.062745 249.939929 
L 137.861626 249.253993 
L 141.692221 248.483026 
L 142.535638 247.992609 
L 144.050789 247.251869 
L 142.915239 246.357884 
L 142.057994 245.519177 
L 143.871249 244.885743 
L 147.316714 244.016223 
L 149.057639 243.453625 
L 149.420118 242.703066 
L 148.558048 241.861281 
L 148.895978 241.084424 
L 153.200137 239.488873 
L 155.680663 238.882241 
L 155.201122 238.13502 
L 154.51787 237.333702 
L 155.351323 236.601404 
L 156.965181 236.000244 
L 157.805438 235.486094 
L 160.731343 234.308887 
L 160.732786 233.569569 
L 160.346841 232.815298 
L 163.259459 231.544553 
L 164.047901 230.998021 
L 165.54128 230.415755 
L 166.510606 229.041934 
L 166.676714 228.33114 
L 168.546866 227.674214 
L 169.29153 227.076582 
L 170.516341 226.49984 
L 171.343876 225.893648 
L 171.720072 225.233631 
L 172.489337 224.538105 
L 172.776459 223.852156 
L 174.401242 223.211301 
L 175.202668 222.614052 
L 176.489555 222.025146 
L 177.048201 221.406493 
L 177.424974 220.748429 
L 178.926082 219.420577 
L 180.304336 218.800975 
L 181.093902 218.203532 
L 182.11534 217.601781 
L 182.586187 216.978229 
L 183.337445 216.335309 
L 183.920308 215.689452 
L 185.042705 215.056815 
L 189.144737 211.989459 
L 189.778397 211.355688 
L 193.254835 208.923383 
L 195.500936 207.059731 
L 197.234214 205.847317 
L 201.271301 202.78518 
L 204.471233 200.338904 
L 226.817639 183.696464 
L 229.233728 181.859869 
L 231.674329 180.041874 
L 234.086515 178.224302 
L 238.8671 174.628893 
L 241.203742 172.841359 
L 242.488267 171.956749 
L 242.488267 171.956749 
" clip-path="url(#pe218c2305c)" style="fill: none; stroke: #1f77b4; stroke-width: 1.5; stroke-linecap: square"/>
   </g>
   <g id="line2d_30">
    <path d="M 242.154682 171.919972 
L 247.647777 167.796624 
L 252.30699 164.272765 
L 270.960637 150.135825 
L 274.798015 147.194283 
L 280.114364 143.101309 
L 294.615342 132.202742 
L 297.62517 129.946449 
L 305.089674 124.327141 
L 329.386387 105.759815 
L 334.554747 101.881819 
L 336.735405 100.233106 
L 338.992049 98.592689 
L 351.16716 89.396579 
L 352.529951 88.315794 
L 354.741467 86.709234 
L 356.080361 85.628216 
L 358.299175 84.019345 
L 359.60301 82.934835 
L 361.857896 81.32743 
L 363.119361 80.240169 
L 365.398726 78.633246 
L 366.639111 77.5447 
L 368.928673 75.940865 
L 370.131147 74.854673 
L 372.481888 73.258505 
L 373.647452 72.173719 
L 376.593552 70.050396 
L 377.143876 69.509494 
L 378.792729 68.461308 
L 379.578878 67.938896 
L 381.35782 66.338295 
L 383.114051 65.30858 
L 384.792971 63.71455 
L 386.671434 62.698668 
L 387.18508 62.169677 
L 387.518809 61.630215 
L 388.154965 61.106958 
L 390.234019 60.108358 
L 390.736992 59.5816 
L 390.908739 59.037267 
L 391.444036 58.513104 
L 393.870832 57.536986 
L 394.316245 57.0084 
L 394.113082 56.450579 
L 394.447323 55.925571 
L 397.998035 54.992046 
L 397.797758 54.436114 
L 394.194957 53.862356 
L 388.663048 53.568 
L 384.357358 53.93132 
L 383.027497 55.138245 
L 383.184543 57.043378 
L 381.704969 59.318911 
L 377.342418 61.748818 
L 372.309873 64.359929 
L 369.978361 67.24663 
L 371.960664 73.101983 
L 368.655461 75.34071 
L 360.262691 77.058672 
L 350.66584 78.753195 
L 345.060995 80.982961 
L 345.228063 83.890014 
L 347.988471 87.068837 
L 348.18642 89.91223 
L 343.210026 92.121377 
L 334.908804 93.929958 
L 327.543578 95.868766 
L 324.048929 98.309264 
L 323.954273 101.186409 
L 324.322211 104.103311 
L 322.375905 106.681841 
L 317.496245 108.849688 
L 311.292508 110.853809 
L 306.102219 113.032652 
L 303.219545 115.551195 
L 302.067588 118.297341 
L 300.788145 120.996108 
L 297.769954 123.43548 
L 292.946922 125.625953 
L 287.797684 127.774259 
L 284.004631 130.101293 
L 281.945377 132.659182 
L 280.414206 135.301681 
L 277.830864 137.826047 
L 273.73758 140.152497 
L 269.119539 142.379299 
L 265.316819 144.674775 
L 262.71996 147.12069 
L 260.55158 149.654794 
L 257.799589 152.150594 
L 254.203405 154.53937 
L 250.321322 156.856207 
L 246.813108 159.18499 
L 243.827517 161.575855 
L 238.144472 166.457516 
L 234.999384 168.869798 
L 228.220701 173.60731 
L 224.825123 175.969165 
L 221.685701 178.351657 
L 216.128853 183.173503 
L 213.048693 185.566539 
L 205.925321 190.267443 
L 202.776262 192.628505 
L 197.453377 197.418237 
L 194.278316 199.789063 
L 187.22859 204.464561 
L 184.302761 206.824676 
L 181.668029 209.201694 
L 178.785518 211.565828 
L 168.924407 218.571733 
L 163.133917 223.282318 
L 153.713714 230.266094 
L 150.844775 232.615593 
L 147.744062 234.95875 
L 141.056203 239.599956 
L 138.217237 241.936036 
L 135.611256 244.288235 
L 132.639211 246.628947 
L 125.493659 251.248994 
L 122.524454 253.583307 
L 120.127688 255.945164 
L 117.515084 258.295121 
L 114.1203 260.602734 
L 110.349139 262.888952 
L 107.116627 265.20349 
L 102.261114 269.916899 
L 99.023201 272.224504 
L 95.221718 274.497122 
L 91.95637 276.795293 
L 87.444234 281.491256 
L 83.908607 283.775387 
L 79.450004 286.025687 
L 76.381661 288.341079 
L 76.744408 290.723366 
L 79.813425 292.936437 
L 82.339999 294.588332 
L 81.714202 295.413284 
L 78.785376 295.488 
L 77.069313 295.14498 
L 78.887085 294.651251 
L 82.540183 293.987961 
L 83.818165 292.979573 
L 80.545472 291.644223 
L 75.408168 290.367928 
L 73.832727 289.656724 
L 78.761118 289.663554 
L 87.479014 289.96123 
L 93.729677 289.83371 
L 93.187362 288.865353 
L 81.471719 285.867647 
L 81.217375 285.154762 
L 87.020483 285.171639 
L 94.815671 285.354092 
L 99.409332 285.039048 
L 98.410033 283.979546 
L 89.48079 281.233474 
L 89.535824 280.604308 
L 94.246595 280.557791 
L 100.68565 280.60586 
L 104.74221 280.205234 
L 104.139192 279.16047 
L 96.61277 276.569798 
L 97.015931 275.970186 
L 107.597437 275.869279 
L 110.81129 275.389857 
L 109.648008 274.316704 
L 105.91449 272.974256 
L 103.320568 271.884115 
L 104.493942 271.353079 
L 114.026016 271.111268 
L 116.379423 270.540106 
L 115.144939 269.474352 
L 112.082743 268.231302 
L 110.233903 267.247544 
L 111.622931 266.747899 
L 120.14147 266.368581 
L 122.041548 265.755275 
L 120.767011 264.716979 
L 118.095311 263.549802 
L 116.855182 262.642217 
L 118.66228 262.174178 
L 126.352464 261.696222 
L 127.556859 261.031448 
L 126.190087 260.008935 
L 124.132789 258.925692 
L 123.64901 258.112512 
L 125.646025 257.67764 
L 129.118867 257.436165 
L 132.052326 257.067662 
L 132.965175 256.366617 
L 131.939372 255.390232 
L 130.469564 254.400661 
L 130.316324 253.657825 
L 132.203528 253.225178 
L 135.293672 252.930598 
L 137.84022 252.505403 
L 138.550477 251.791241 
L 137.604011 250.857345 
L 136.489966 249.939929 
L 136.776215 249.253993 
L 138.836295 248.82659 
L 141.604956 248.483026 
L 143.531608 247.992609 
L 143.86387 247.251869 
L 143.170037 246.357884 
L 142.748928 245.519177 
L 143.539209 244.885743 
L 147.608876 244.016223 
L 149.041355 243.453625 
L 149.431956 242.703066 
L 149.225301 241.861281 
L 149.245833 241.084424 
L 150.096694 240.467237 
L 153.567621 239.488873 
L 154.817761 238.882241 
L 155.214566 238.13502 
L 155.16321 237.333702 
L 155.417095 236.601404 
L 156.442939 236.000244 
L 159.54928 234.949975 
L 160.444518 234.308887 
L 160.999573 232.815298 
L 161.646788 232.132911 
L 162.791196 231.544553 
L 165.271961 230.415755 
L 166.055101 229.756682 
L 167.13588 228.33114 
L 167.899831 227.674214 
L 171.902563 225.233631 
L 173.103012 223.852156 
L 173.932537 223.211301 
L 176.907987 221.406493 
L 179.025499 219.420577 
L 182.566364 216.978229 
L 185.786875 214.442862 
L 189.195679 211.989459 
L 190.70774 210.732477 
L 194.835971 207.680941 
L 197.365484 205.847317 
L 214.505965 192.924424 
L 217.750093 190.449433 
L 236.946801 175.821097 
L 240.099312 173.435304 
L 242.102968 171.956749 
L 242.102968 171.956749 
" clip-path="url(#pe218c2305c)" style="fill: none; stroke: #ff7f0e; stroke-opacity: 0.7; stroke-width: 1.5; stroke-linecap: square"/>
   </g>
   <g id="patch_3">
    <path d="M 57.6 307.584 
L 57.6 41.472 
" style="fill: none; stroke: #000000; stroke-width: 0.8; stroke-linejoin: miter; stroke-linecap: square"/>
   </g>
   <g id="patch_4">
    <path d="M 414.72 307.584 
L 414.72 41.472 
" style="fill: none; stroke: #000000; stroke-width: 0.8; stroke-linejoin: miter; stroke-linecap: square"/>
   </g>
   <g id="patch_5">
    <path d="M 57.6 307.584 
L 414.72 307.584 
" style="fill: none; stroke: #000000; stroke-width: 0.8; stroke-linejoin: miter; stroke-linecap: square"/>
   </g>
   <g id="patch_6">
    <path d="M 57.6 41.472 
L 414.72 41.472 
" style="fill: none; stroke: #000000; stroke-width: 0.8; stroke-linejoin: miter; stroke-linecap: square"/>
   </g>
   <g id="text_17">
    <!-- Best Model - Predicted vs Target -->
    <g transform="translate(139.75125 35.472) scale(0.12 -0.12)">
     <defs>
      <path id="DejaVuSans-42" d="M 1259 2228 
L 1259 519 
L 2272 519 
Q 2781 519 3026 730 
Q 3272 941 3272 1375 
Q 3272 1813 3026 2020 
Q 2781 2228 2272 2228 
L 1259 2228 
z
M 1259 4147 
L 1259 2741 
L 2194 2741 
Q 2656 2741 2882 2914 
Q 3109 3088 3109 3444 
Q 3109 3797 2882 3972 
Q 2656 4147 2194 4147 
L 1259 4147 
z
M 628 4666 
L 2241 4666 
Q 2963 4666 3353 4366 
Q 3744 4066 3744 3513 
Q 3744 3084 3544 2831 
Q 3344 2578 2956 2516 
Q 3422 2416 3680 2098 
Q 3938 1781 3938 1306 
Q 3938 681 3513 340 
Q 3088 0 2303 0 
L 628 0 
L 628 4666 
z
" transform="scale(0.015625)"/>
      <path id="DejaVuSans-73" d="M 2834 3397 
L 2834 2853 
Q 2591 2978 2328 3040 
Q 2066 3103 1784 3103 
Q 1356 3103 1142 2972 
Q 928 2841 928 2578 
Q 928 2378 1081 2264 
Q 1234 2150 1697 2047 
L 1894 2003 
Q 2506 1872 2764 1633 
Q 3022 1394 3022 966 
Q 3022 478 2636 193 
Q 2250 -91 1575 -91 
Q 1294 -91 989 -36 
Q 684 19 347 128 
L 347 722 
Q 666 556 975 473 
Q 1284 391 1588 391 
Q 1994 391 2212 530 
Q 2431 669 2431 922 
Q 2431 1156 2273 1281 
Q 2116 1406 1581 1522 
L 1381 1569 
Q 847 1681 609 1914 
Q 372 2147 372 2553 
Q 372 3047 722 3315 
Q 1072 3584 1716 3584 
Q 2034 3584 2315 3537 
Q 2597 3491 2834 3397 
z
" transform="scale(0.015625)"/>
      <path id="DejaVuSans-74" d="M 1172 4494 
L 1172 3500 
L 2356 3500 
L 2356 3053 
L 1172 3053 
L 1172 1153 
Q 1172 725 1289 603 
Q 1406 481 1766 481 
L 2356 481 
L 2356 0 
L 1766 0 
Q 1100 0 847 248 
Q 594 497 594 1153 
L 594 3053 
L 172 3053 
L 172 3500 
L 594 3500 
L 594 4494 
L 1172 4494 
z
" transform="scale(0.015625)"/>
      <path id="DejaVuSans-20" transform="scale(0.015625)"/>
      <path id="DejaVuSans-4d" d="M 628 4666 
L 1569 4666 
L 2759 1491 
L 3956 4666 
L 4897 4666 
L 4897 0 
L 4281 0 
L 4281 4097 
L 3078 897 
L 2444 897 
L 1241 4097 
L 1241 0 
L 628 0 
L 628 4666 
z
" transform="scale(0.015625)"/>
      <path id="DejaVuSans-6f" d="M 1959 3097 
Q 1497 3097 1228 2736 
Q 959 2375 959 1747 
Q 959 1119 1226 758 
Q 1494 397 1959 397 
Q 2419 397 2687 759 
Q 2956 1122 2956 1747 
Q 2956 2369 2687 2733 
Q 2419 3097 1959 3097 
z
M 1959 3584 
Q 2709 3584 3137 3096 
Q 3566 2609 3566 1747 
Q 3566 888 3137 398 
Q 2709 -91 1959 -91 
Q 1206 -91 779 398 
Q 353 888 353 1747 
Q 353 2609 779 3096 
Q 1206 3584 1959 3584 
z
" transform="scale(0.015625)"/>
      <path id="DejaVuSans-2d" d="M 313 2009 
L 1997 2009 
L 1997 1497 
L 313 1497 
L 313 2009 
z
" transform="scale(0.015625)"/>
      <path id="DejaVuSans-50" d="M 1259 4147 
L 1259 2394 
L 2053 2394 
Q 2494 2394 2734 2622 
Q 2975 2850 2975 3272 
Q 2975 3691 2734 3919 
Q 2494 4147 2053 4147 
L 1259 4147 
z
M 628 4666 
L 2053 4666 
Q 2838 4666 3239 4311 
Q 3641 3956 3641 3272 
Q 3641 2581 3239 2228 
Q 2838 1875 2053 1875 
L 1259 1875 
L 1259 0 
L 628 0 
L 628 4666 
z
" transform="scale(0.015625)"/>
      <path id="DejaVuSans-72" d="M 2631 2963 
Q 2534 3019 2420 3045 
Q 2306 3072 2169 3072 
Q 1681 3072 1420 2755 
Q 1159 2438 1159 1844 
L 1159 0 
L 581 0 
L 581 3500 
L 1159 3500 
L 1159 2956 
Q 1341 3275 1631 3429 
Q 1922 3584 2338 3584 
Q 2397 3584 2469 3576 
Q 2541 3569 2628 3553 
L 2631 2963 
z
" transform="scale(0.015625)"/>
      <path id="DejaVuSans-69" d="M 603 3500 
L 1178 3500 
L 1178 0 
L 603 0 
L 603 3500 
z
M 603 4863 
L 1178 4863 
L 1178 4134 
L 603 4134 
L 603 4863 
z
" transform="scale(0.015625)"/>
      <path id="DejaVuSans-63" d="M 3122 3366 
L 3122 2828 
Q 2878 2963 2633 3030 
Q 2388 3097 2138 3097 
Q 1578 3097 1268 2742 
Q 959 2388 959 1747 
Q 959 1106 1268 751 
Q 1578 397 2138 397 
Q 2388 397 2633 464 
Q 2878 531 3122 666 
L 3122 134 
Q 2881 22 2623 -34 
Q 2366 -91 2075 -91 
Q 1284 -91 818 406 
Q 353 903 353 1747 
Q 353 2603 823 3093 
Q 1294 3584 2113 3584 
Q 2378 3584 2631 3529 
Q 2884 3475 3122 3366 
z
" transform="scale(0.015625)"/>
      <path id="DejaVuSans-76" d="M 191 3500 
L 800 3500 
L 1894 563 
L 2988 3500 
L 3597 3500 
L 2284 0 
L 1503 0 
L 191 3500 
z
" transform="scale(0.015625)"/>
      <path id="DejaVuSans-54" d="M -19 4666 
L 3928 4666 
L 3928 4134 
L 2272 4134 
L 2272 0 
L 1638 0 
L 1638 4134 
L -19 4134 
L -19 4666 
z
" transform="scale(0.015625)"/>
      <path id="DejaVuSans-67" d="M 2906 1791 
Q 2906 2416 2648 2759 
Q 2391 3103 1925 3103 
Q 1463 3103 1205 2759 
Q 947 2416 947 1791 
Q 947 1169 1205 825 
Q 1463 481 1925 481 
Q 2391 481 2648 825 
Q 2906 1169 2906 1791 
z
M 3481 434 
Q 3481 -459 3084 -895 
Q 2688 -1331 1869 -1331 
Q 1566 -1331 1297 -1286 
Q 1028 -1241 775 -1147 
L 775 -588 
Q 1028 -725 1275 -790 
Q 1522 -856 1778 -856 
Q 2344 -856 2625 -561 
Q 2906 -266 2906 331 
L 2906 616 
Q 2728 306 2450 153 
Q 2172 0 1784 0 
Q 1141 0 747 490 
Q 353 981 353 1791 
Q 353 2603 747 3093 
Q 1141 3584 1784 3584 
Q 2172 3584 2450 3431 
Q 2728 3278 2906 2969 
L 2906 3500 
L 3481 3500 
L 3481 434 
z
" transform="scale(0.015625)"/>
     </defs>
     <use xlink:href="#DejaVuSans-42"/>
     <use xlink:href="#DejaVuSans-65" transform="translate(68.603516 0)"/>
     <use xlink:href="#DejaVuSans-73" transform="translate(130.126953 0)"/>
     <use xlink:href="#DejaVuSans-74" transform="translate(182.226562 0)"/>
     <use xlink:href="#DejaVuSans-20" transform="translate(221.435547 0)"/>
     <use xlink:href="#DejaVuSans-4d" transform="translate(253.222656 0)"/>
     <use xlink:href="#DejaVuSans-6f" transform="translate(339.501953 0)"/>
     <use xlink:href="#DejaVuSans-64" transform="translate(400.683594 0)"/>
     <use xlink:href="#DejaVuSans-65" transform="translate(464.160156 0)"/>
     <use xlink:href="#DejaVuSans-6c" transform="translate(525.683594 0)"/>
     <use xlink:href="#DejaVuSans-20" transform="translate(553.466797 0)"/>
     <use xlink:href="#DejaVuSans-2d" transform="translate(585.253906 0)"/>
     <use xlink:href="#DejaVuSans-20" transform="translate(621.337891 0)"/>
     <use xlink:href="#DejaVuSans-50" transform="translate(653.125 0)"/>
     <use xlink:href="#DejaVuSans-72" transform="translate(711.677734 0)"/>
     <use xlink:href="#DejaVuSans-65" transform="translate(750.541016 0)"/>
     <use xlink:href="#DejaVuSans-64" transform="translate(812.064453 0)"/>
     <use xlink:href="#DejaVuSans-69" transform="translate(875.541016 0)"/>
     <use xlink:href="#DejaVuSans-63" transform="translate(903.324219 0)"/>
     <use xlink:href="#DejaVuSans-74" transform="translate(958.304688 0)"/>
     <use xlink:href="#DejaVuSans-65" transform="translate(997.513672 0)"/>
     <use xlink:href="#DejaVuSans-64" transform="translate(1059.037109 0)"/>
     <use xlink:href="#DejaVuSans-20" transform="translate(1122.513672 0)"/>
     <use xlink:href="#DejaVuSans-76" transform="translate(1154.300781 0)"/>
     <use xlink:href="#DejaVuSans-73" transform="translate(1213.480469 0)"/>
     <use xlink:href="#DejaVuSans-20" transform="translate(1265.580078 0)"/>
     <use xlink:href="#DejaVuSans-54" transform="translate(1297.367188 0)"/>
     <use xlink:href="#DejaVuSans-61" transform="translate(1341.951172 0)"/>
     <use xlink:href="#DejaVuSans-72" transform="translate(1403.230469 0)"/>
     <use xlink:href="#DejaVuSans-67" transform="translate(1442.59375 0)"/>
     <use xlink:href="#DejaVuSans-65" transform="translate(1506.070312 0)"/>
     <use xlink:href="#DejaVuSans-74" transform="translate(1567.59375 0)"/>
    </g>
   </g>
   <g id="legend_1">
    <g id="patch_7">
     <path d="M 64.6 78.82825 
L 181.128125 78.82825 
Q 183.128125 78.82825 183.128125 76.82825 
L 183.128125 48.472 
Q 183.128125 46.472 181.128125 46.472 
L 64.6 46.472 
Q 62.6 46.472 62.6 48.472 
L 62.6 76.82825 
Q 62.6 78.82825 64.6 78.82825 
z
" style="fill: #ffffff; opacity: 0.8; stroke: #cccccc; stroke-linejoin: miter"/>
    </g>
    <g id="line2d_31">
     <path d="M 66.6 54.570437 
L 76.6 54.570437 
L 86.6 54.570437 
" style="fill: none; stroke: #1f77b4; stroke-width: 1.5; stroke-linecap: square"/>
    </g>
    <g id="text_18">
     <!-- Pred: Sample 1 -->
     <g transform="translate(94.6 58.070437) scale(0.1 -0.1)">
      <defs>
       <path id="DejaVuSans-3a" d="M 750 794 
L 1409 794 
L 1409 0 
L 750 0 
L 750 794 
z
M 750 3309 
L 1409 3309 
L 1409 2516 
L 750 2516 
L 750 3309 
z
" transform="scale(0.015625)"/>
       <path id="DejaVuSans-53" d="M 3425 4513 
L 3425 3897 
Q 3066 4069 2747 4153 
Q 2428 4238 2131 4238 
Q 1616 4238 1336 4038 
Q 1056 3838 1056 3469 
Q 1056 3159 1242 3001 
Q 1428 2844 1947 2747 
L 2328 2669 
Q 3034 2534 3370 2195 
Q 3706 1856 3706 1288 
Q 3706 609 3251 259 
Q 2797 -91 1919 -91 
Q 1588 -91 1214 -16 
Q 841 59 441 206 
L 441 856 
Q 825 641 1194 531 
Q 1563 422 1919 422 
Q 2459 422 2753 634 
Q 3047 847 3047 1241 
Q 3047 1584 2836 1778 
Q 2625 1972 2144 2069 
L 1759 2144 
Q 1053 2284 737 2584 
Q 422 2884 422 3419 
Q 422 4038 858 4394 
Q 1294 4750 2059 4750 
Q 2388 4750 2728 4690 
Q 3069 4631 3425 4513 
z
" transform="scale(0.015625)"/>
       <path id="DejaVuSans-6d" d="M 3328 2828 
Q 3544 3216 3844 3400 
Q 4144 3584 4550 3584 
Q 5097 3584 5394 3201 
Q 5691 2819 5691 2113 
L 5691 0 
L 5113 0 
L 5113 2094 
Q 5113 2597 4934 2840 
Q 4756 3084 4391 3084 
Q 3944 3084 3684 2787 
Q 3425 2491 3425 1978 
L 3425 0 
L 2847 0 
L 2847 2094 
Q 2847 2600 2669 2842 
Q 2491 3084 2119 3084 
Q 1678 3084 1418 2786 
Q 1159 2488 1159 1978 
L 1159 0 
L 581 0 
L 581 3500 
L 1159 3500 
L 1159 2956 
Q 1356 3278 1631 3431 
Q 1906 3584 2284 3584 
Q 2666 3584 2933 3390 
Q 3200 3197 3328 2828 
z
" transform="scale(0.015625)"/>
       <path id="DejaVuSans-70" d="M 1159 525 
L 1159 -1331 
L 581 -1331 
L 581 3500 
L 1159 3500 
L 1159 2969 
Q 1341 3281 1617 3432 
Q 1894 3584 2278 3584 
Q 2916 3584 3314 3078 
Q 3713 2572 3713 1747 
Q 3713 922 3314 415 
Q 2916 -91 2278 -91 
Q 1894 -91 1617 61 
Q 1341 213 1159 525 
z
M 3116 1747 
Q 3116 2381 2855 2742 
Q 2594 3103 2138 3103 
Q 1681 3103 1420 2742 
Q 1159 2381 1159 1747 
Q 1159 1113 1420 752 
Q 1681 391 2138 391 
Q 2594 391 2855 752 
Q 3116 1113 3116 1747 
z
" transform="scale(0.015625)"/>
      </defs>
      <use xlink:href="#DejaVuSans-50"/>
      <use xlink:href="#DejaVuSans-72" transform="translate(58.552734 0)"/>
      <use xlink:href="#DejaVuSans-65" transform="translate(97.416016 0)"/>
      <use xlink:href="#DejaVuSans-64" transform="translate(158.939453 0)"/>
      <use xlink:href="#DejaVuSans-3a" transform="translate(222.416016 0)"/>
      <use xlink:href="#DejaVuSans-20" transform="translate(256.107422 0)"/>
      <use xlink:href="#DejaVuSans-53" transform="translate(287.894531 0)"/>
      <use xlink:href="#DejaVuSans-61" transform="translate(351.371094 0)"/>
      <use xlink:href="#DejaVuSans-6d" transform="translate(412.650391 0)"/>
      <use xlink:href="#DejaVuSans-70" transform="translate(510.0625 0)"/>
      <use xlink:href="#DejaVuSans-6c" transform="translate(573.539062 0)"/>
      <use xlink:href="#DejaVuSans-65" transform="translate(601.322266 0)"/>
      <use xlink:href="#DejaVuSans-20" transform="translate(662.845703 0)"/>
      <use xlink:href="#DejaVuSans-31" transform="translate(694.632812 0)"/>
     </g>
    </g>
    <g id="line2d_32">
     <path d="M 66.6 69.248562 
L 76.6 69.248562 
L 86.6 69.248562 
" style="fill: none; stroke: #ff7f0e; stroke-opacity: 0.7; stroke-width: 1.5; stroke-linecap: square"/>
    </g>
    <g id="text_19">
     <!-- Target: Sample 1 -->
     <g transform="translate(94.6 72.748562) scale(0.1 -0.1)">
      <use xlink:href="#DejaVuSans-54"/>
      <use xlink:href="#DejaVuSans-61" transform="translate(44.583984 0)"/>
      <use xlink:href="#DejaVuSans-72" transform="translate(105.863281 0)"/>
      <use xlink:href="#DejaVuSans-67" transform="translate(145.226562 0)"/>
      <use xlink:href="#DejaVuSans-65" transform="translate(208.703125 0)"/>
      <use xlink:href="#DejaVuSans-74" transform="translate(270.226562 0)"/>
      <use xlink:href="#DejaVuSans-3a" transform="translate(309.435547 0)"/>
      <use xlink:href="#DejaVuSans-20" transform="translate(343.126953 0)"/>
      <use xlink:href="#DejaVuSans-53" transform="translate(374.914062 0)"/>
      <use xlink:href="#DejaVuSans-61" transform="translate(438.390625 0)"/>
      <use xlink:href="#DejaVuSans-6d" transform="translate(499.669922 0)"/>
      <use xlink:href="#DejaVuSans-70" transform="translate(597.082031 0)"/>
      <use xlink:href="#DejaVuSans-6c" transform="translate(660.558594 0)"/>
      <use xlink:href="#DejaVuSans-65" transform="translate(688.341797 0)"/>
      <use xlink:href="#DejaVuSans-20" transform="translate(749.865234 0)"/>
      <use xlink:href="#DejaVuSans-31" transform="translate(781.652344 0)"/>
     </g>
    </g>
   </g>
  </g>
 </g>
 <defs>
  <clipPath id="pe218c2305c">
   <rect x="57.6" y="41.472" width="357.12" height="266.112"/>
  </clipPath>
 </defs>
</svg>
