<?xml version="1.0" encoding="utf-8" standalone="no"?>
<!DOCTYPE svg PUBLIC "-//W3C//DTD SVG 1.1//EN"
  "http://www.w3.org/Graphics/SVG/1.1/DTD/svg11.dtd">
<svg xmlns:xlink="http://www.w3.org/1999/xlink" width="460.8pt" height="345.6pt" viewBox="0 0 460.8 345.6" xmlns="http://www.w3.org/2000/svg" version="1.1">
 <metadata>
  <rdf:RDF xmlns:dc="http://purl.org/dc/elements/1.1/" xmlns:cc="http://creativecommons.org/ns#" xmlns:rdf="http://www.w3.org/1999/02/22-rdf-syntax-ns#">
   <cc:Work>
    <dc:type rdf:resource="http://purl.org/dc/dcmitype/StillImage"/>
    <dc:date>2025-05-21T01:21:36.841036</dc:date>
    <dc:format>image/svg+xml</dc:format>
    <dc:creator>
     <cc:Agent>
      <dc:title>Matplotlib v3.10.0, https://matplotlib.org/</dc:title>
     </cc:Agent>
    </dc:creator>
   </cc:Work>
  </rdf:RDF>
 </metadata>
 <defs>
  <style type="text/css">*{stroke-linejoin: round; stroke-linecap: butt}</style>
 </defs>
 <g id="figure_1">
  <g id="patch_1">
   <path d="M 0 345.6 
L 460.8 345.6 
L 460.8 0 
L 0 0 
z
" style="fill: #ffffff"/>
  </g>
  <g id="axes_1">
   <g id="patch_2">
    <path d="M 57.6 307.584 
L 414.72 307.584 
L 414.72 41.472 
L 57.6 41.472 
z
" style="fill: #ffffff"/>
   </g>
   <g id="matplotlib.axis_1">
    <g id="xtick_1">
     <g id="line2d_1">
      <path d="M 80.773086 307.584 
L 80.773086 41.472 
" clip-path="url(#p242bc76b49)" style="fill: none; stroke: #b0b0b0; stroke-opacity: 0.5; stroke-width: 0.8; stroke-linecap: square"/>
     </g>
     <g id="line2d_2">
      <defs>
       <path id="m043d0f15dd" d="M 0 0 
L 0 3.5 
" style="stroke: #000000; stroke-width: 0.8"/>
      </defs>
      <g>
       <use xlink:href="#m043d0f15dd" x="80.773086" y="307.584" style="stroke: #000000; stroke-width: 0.8"/>
      </g>
     </g>
     <g id="text_1">
      <!-- −0.8 -->
      <g transform="translate(68.63168 322.182437) scale(0.1 -0.1)">
       <defs>
        <path id="DejaVuSans-2212" d="M 678 2272 
L 4684 2272 
L 4684 1741 
L 678 1741 
L 678 2272 
z
" transform="scale(0.015625)"/>
        <path id="DejaVuSans-30" d="M 2034 4250 
Q 1547 4250 1301 3770 
Q 1056 3291 1056 2328 
Q 1056 1369 1301 889 
Q 1547 409 2034 409 
Q 2525 409 2770 889 
Q 3016 1369 3016 2328 
Q 3016 3291 2770 3770 
Q 2525 4250 2034 4250 
z
M 2034 4750 
Q 2819 4750 3233 4129 
Q 3647 3509 3647 2328 
Q 3647 1150 3233 529 
Q 2819 -91 2034 -91 
Q 1250 -91 836 529 
Q 422 1150 422 2328 
Q 422 3509 836 4129 
Q 1250 4750 2034 4750 
z
" transform="scale(0.015625)"/>
        <path id="DejaVuSans-2e" d="M 684 794 
L 1344 794 
L 1344 0 
L 684 0 
L 684 794 
z
" transform="scale(0.015625)"/>
        <path id="DejaVuSans-38" d="M 2034 2216 
Q 1584 2216 1326 1975 
Q 1069 1734 1069 1313 
Q 1069 891 1326 650 
Q 1584 409 2034 409 
Q 2484 409 2743 651 
Q 3003 894 3003 1313 
Q 3003 1734 2745 1975 
Q 2488 2216 2034 2216 
z
M 1403 2484 
Q 997 2584 770 2862 
Q 544 3141 544 3541 
Q 544 4100 942 4425 
Q 1341 4750 2034 4750 
Q 2731 4750 3128 4425 
Q 3525 4100 3525 3541 
Q 3525 3141 3298 2862 
Q 3072 2584 2669 2484 
Q 3125 2378 3379 2068 
Q 3634 1759 3634 1313 
Q 3634 634 3220 271 
Q 2806 -91 2034 -91 
Q 1263 -91 848 271 
Q 434 634 434 1313 
Q 434 1759 690 2068 
Q 947 2378 1403 2484 
z
M 1172 3481 
Q 1172 3119 1398 2916 
Q 1625 2713 2034 2713 
Q 2441 2713 2670 2916 
Q 2900 3119 2900 3481 
Q 2900 3844 2670 4047 
Q 2441 4250 2034 4250 
Q 1625 4250 1398 4047 
Q 1172 3844 1172 3481 
z
" transform="scale(0.015625)"/>
       </defs>
       <use xlink:href="#DejaVuSans-2212"/>
       <use xlink:href="#DejaVuSans-30" transform="translate(83.789062 0)"/>
       <use xlink:href="#DejaVuSans-2e" transform="translate(147.412109 0)"/>
       <use xlink:href="#DejaVuSans-38" transform="translate(179.199219 0)"/>
      </g>
     </g>
    </g>
    <g id="xtick_2">
     <g id="line2d_3">
      <path d="M 122.607062 307.584 
L 122.607062 41.472 
" clip-path="url(#p242bc76b49)" style="fill: none; stroke: #b0b0b0; stroke-opacity: 0.5; stroke-width: 0.8; stroke-linecap: square"/>
     </g>
     <g id="line2d_4">
      <g>
       <use xlink:href="#m043d0f15dd" x="122.607062" y="307.584" style="stroke: #000000; stroke-width: 0.8"/>
      </g>
     </g>
     <g id="text_2">
      <!-- −0.6 -->
      <g transform="translate(110.465656 322.182437) scale(0.1 -0.1)">
       <defs>
        <path id="DejaVuSans-36" d="M 2113 2584 
Q 1688 2584 1439 2293 
Q 1191 2003 1191 1497 
Q 1191 994 1439 701 
Q 1688 409 2113 409 
Q 2538 409 2786 701 
Q 3034 994 3034 1497 
Q 3034 2003 2786 2293 
Q 2538 2584 2113 2584 
z
M 3366 4563 
L 3366 3988 
Q 3128 4100 2886 4159 
Q 2644 4219 2406 4219 
Q 1781 4219 1451 3797 
Q 1122 3375 1075 2522 
Q 1259 2794 1537 2939 
Q 1816 3084 2150 3084 
Q 2853 3084 3261 2657 
Q 3669 2231 3669 1497 
Q 3669 778 3244 343 
Q 2819 -91 2113 -91 
Q 1303 -91 875 529 
Q 447 1150 447 2328 
Q 447 3434 972 4092 
Q 1497 4750 2381 4750 
Q 2619 4750 2861 4703 
Q 3103 4656 3366 4563 
z
" transform="scale(0.015625)"/>
       </defs>
       <use xlink:href="#DejaVuSans-2212"/>
       <use xlink:href="#DejaVuSans-30" transform="translate(83.789062 0)"/>
       <use xlink:href="#DejaVuSans-2e" transform="translate(147.412109 0)"/>
       <use xlink:href="#DejaVuSans-36" transform="translate(179.199219 0)"/>
      </g>
     </g>
    </g>
    <g id="xtick_3">
     <g id="line2d_5">
      <path d="M 164.441039 307.584 
L 164.441039 41.472 
" clip-path="url(#p242bc76b49)" style="fill: none; stroke: #b0b0b0; stroke-opacity: 0.5; stroke-width: 0.8; stroke-linecap: square"/>
     </g>
     <g id="line2d_6">
      <g>
       <use xlink:href="#m043d0f15dd" x="164.441039" y="307.584" style="stroke: #000000; stroke-width: 0.8"/>
      </g>
     </g>
     <g id="text_3">
      <!-- −0.4 -->
      <g transform="translate(152.299633 322.182437) scale(0.1 -0.1)">
       <defs>
        <path id="DejaVuSans-34" d="M 2419 4116 
L 825 1625 
L 2419 1625 
L 2419 4116 
z
M 2253 4666 
L 3047 4666 
L 3047 1625 
L 3713 1625 
L 3713 1100 
L 3047 1100 
L 3047 0 
L 2419 0 
L 2419 1100 
L 313 1100 
L 313 1709 
L 2253 4666 
z
" transform="scale(0.015625)"/>
       </defs>
       <use xlink:href="#DejaVuSans-2212"/>
       <use xlink:href="#DejaVuSans-30" transform="translate(83.789062 0)"/>
       <use xlink:href="#DejaVuSans-2e" transform="translate(147.412109 0)"/>
       <use xlink:href="#DejaVuSans-34" transform="translate(179.199219 0)"/>
      </g>
     </g>
    </g>
    <g id="xtick_4">
     <g id="line2d_7">
      <path d="M 206.275016 307.584 
L 206.275016 41.472 
" clip-path="url(#p242bc76b49)" style="fill: none; stroke: #b0b0b0; stroke-opacity: 0.5; stroke-width: 0.8; stroke-linecap: square"/>
     </g>
     <g id="line2d_8">
      <g>
       <use xlink:href="#m043d0f15dd" x="206.275016" y="307.584" style="stroke: #000000; stroke-width: 0.8"/>
      </g>
     </g>
     <g id="text_4">
      <!-- −0.2 -->
      <g transform="translate(194.133609 322.182437) scale(0.1 -0.1)">
       <defs>
        <path id="DejaVuSans-32" d="M 1228 531 
L 3431 531 
L 3431 0 
L 469 0 
L 469 531 
Q 828 903 1448 1529 
Q 2069 2156 2228 2338 
Q 2531 2678 2651 2914 
Q 2772 3150 2772 3378 
Q 2772 3750 2511 3984 
Q 2250 4219 1831 4219 
Q 1534 4219 1204 4116 
Q 875 4013 500 3803 
L 500 4441 
Q 881 4594 1212 4672 
Q 1544 4750 1819 4750 
Q 2544 4750 2975 4387 
Q 3406 4025 3406 3419 
Q 3406 3131 3298 2873 
Q 3191 2616 2906 2266 
Q 2828 2175 2409 1742 
Q 1991 1309 1228 531 
z
" transform="scale(0.015625)"/>
       </defs>
       <use xlink:href="#DejaVuSans-2212"/>
       <use xlink:href="#DejaVuSans-30" transform="translate(83.789062 0)"/>
       <use xlink:href="#DejaVuSans-2e" transform="translate(147.412109 0)"/>
       <use xlink:href="#DejaVuSans-32" transform="translate(179.199219 0)"/>
      </g>
     </g>
    </g>
    <g id="xtick_5">
     <g id="line2d_9">
      <path d="M 248.108992 307.584 
L 248.108992 41.472 
" clip-path="url(#p242bc76b49)" style="fill: none; stroke: #b0b0b0; stroke-opacity: 0.5; stroke-width: 0.8; stroke-linecap: square"/>
     </g>
     <g id="line2d_10">
      <g>
       <use xlink:href="#m043d0f15dd" x="248.108992" y="307.584" style="stroke: #000000; stroke-width: 0.8"/>
      </g>
     </g>
     <g id="text_5">
      <!-- 0.0 -->
      <g transform="translate(240.15743 322.182437) scale(0.1 -0.1)">
       <use xlink:href="#DejaVuSans-30"/>
       <use xlink:href="#DejaVuSans-2e" transform="translate(63.623047 0)"/>
       <use xlink:href="#DejaVuSans-30" transform="translate(95.410156 0)"/>
      </g>
     </g>
    </g>
    <g id="xtick_6">
     <g id="line2d_11">
      <path d="M 289.942969 307.584 
L 289.942969 41.472 
" clip-path="url(#p242bc76b49)" style="fill: none; stroke: #b0b0b0; stroke-opacity: 0.5; stroke-width: 0.8; stroke-linecap: square"/>
     </g>
     <g id="line2d_12">
      <g>
       <use xlink:href="#m043d0f15dd" x="289.942969" y="307.584" style="stroke: #000000; stroke-width: 0.8"/>
      </g>
     </g>
     <g id="text_6">
      <!-- 0.2 -->
      <g transform="translate(281.991406 322.182437) scale(0.1 -0.1)">
       <use xlink:href="#DejaVuSans-30"/>
       <use xlink:href="#DejaVuSans-2e" transform="translate(63.623047 0)"/>
       <use xlink:href="#DejaVuSans-32" transform="translate(95.410156 0)"/>
      </g>
     </g>
    </g>
    <g id="xtick_7">
     <g id="line2d_13">
      <path d="M 331.776945 307.584 
L 331.776945 41.472 
" clip-path="url(#p242bc76b49)" style="fill: none; stroke: #b0b0b0; stroke-opacity: 0.5; stroke-width: 0.8; stroke-linecap: square"/>
     </g>
     <g id="line2d_14">
      <g>
       <use xlink:href="#m043d0f15dd" x="331.776945" y="307.584" style="stroke: #000000; stroke-width: 0.8"/>
      </g>
     </g>
     <g id="text_7">
      <!-- 0.4 -->
      <g transform="translate(323.825383 322.182437) scale(0.1 -0.1)">
       <use xlink:href="#DejaVuSans-30"/>
       <use xlink:href="#DejaVuSans-2e" transform="translate(63.623047 0)"/>
       <use xlink:href="#DejaVuSans-34" transform="translate(95.410156 0)"/>
      </g>
     </g>
    </g>
    <g id="xtick_8">
     <g id="line2d_15">
      <path d="M 373.610922 307.584 
L 373.610922 41.472 
" clip-path="url(#p242bc76b49)" style="fill: none; stroke: #b0b0b0; stroke-opacity: 0.5; stroke-width: 0.8; stroke-linecap: square"/>
     </g>
     <g id="line2d_16">
      <g>
       <use xlink:href="#m043d0f15dd" x="373.610922" y="307.584" style="stroke: #000000; stroke-width: 0.8"/>
      </g>
     </g>
     <g id="text_8">
      <!-- 0.6 -->
      <g transform="translate(365.659359 322.182437) scale(0.1 -0.1)">
       <use xlink:href="#DejaVuSans-30"/>
       <use xlink:href="#DejaVuSans-2e" transform="translate(63.623047 0)"/>
       <use xlink:href="#DejaVuSans-36" transform="translate(95.410156 0)"/>
      </g>
     </g>
    </g>
    <g id="text_9">
     <!-- Index -->
     <g transform="translate(222.393594 335.860562) scale(0.1 -0.1)">
      <defs>
       <path id="DejaVuSans-49" d="M 628 4666 
L 1259 4666 
L 1259 0 
L 628 0 
L 628 4666 
z
" transform="scale(0.015625)"/>
       <path id="DejaVuSans-6e" d="M 3513 2113 
L 3513 0 
L 2938 0 
L 2938 2094 
Q 2938 2591 2744 2837 
Q 2550 3084 2163 3084 
Q 1697 3084 1428 2787 
Q 1159 2491 1159 1978 
L 1159 0 
L 581 0 
L 581 3500 
L 1159 3500 
L 1159 2956 
Q 1366 3272 1645 3428 
Q 1925 3584 2291 3584 
Q 2894 3584 3203 3211 
Q 3513 2838 3513 2113 
z
" transform="scale(0.015625)"/>
       <path id="DejaVuSans-64" d="M 2906 2969 
L 2906 4863 
L 3481 4863 
L 3481 0 
L 2906 0 
L 2906 525 
Q 2725 213 2448 61 
Q 2172 -91 1784 -91 
Q 1150 -91 751 415 
Q 353 922 353 1747 
Q 353 2572 751 3078 
Q 1150 3584 1784 3584 
Q 2172 3584 2448 3432 
Q 2725 3281 2906 2969 
z
M 947 1747 
Q 947 1113 1208 752 
Q 1469 391 1925 391 
Q 2381 391 2643 752 
Q 2906 1113 2906 1747 
Q 2906 2381 2643 2742 
Q 2381 3103 1925 3103 
Q 1469 3103 1208 2742 
Q 947 2381 947 1747 
z
" transform="scale(0.015625)"/>
       <path id="DejaVuSans-65" d="M 3597 1894 
L 3597 1613 
L 953 1613 
Q 991 1019 1311 708 
Q 1631 397 2203 397 
Q 2534 397 2845 478 
Q 3156 559 3463 722 
L 3463 178 
Q 3153 47 2828 -22 
Q 2503 -91 2169 -91 
Q 1331 -91 842 396 
Q 353 884 353 1716 
Q 353 2575 817 3079 
Q 1281 3584 2069 3584 
Q 2775 3584 3186 3129 
Q 3597 2675 3597 1894 
z
M 3022 2063 
Q 3016 2534 2758 2815 
Q 2500 3097 2075 3097 
Q 1594 3097 1305 2825 
Q 1016 2553 972 2059 
L 3022 2063 
z
" transform="scale(0.015625)"/>
       <path id="DejaVuSans-78" d="M 3513 3500 
L 2247 1797 
L 3578 0 
L 2900 0 
L 1881 1375 
L 863 0 
L 184 0 
L 1544 1831 
L 300 3500 
L 978 3500 
L 1906 2253 
L 2834 3500 
L 3513 3500 
z
" transform="scale(0.015625)"/>
      </defs>
      <use xlink:href="#DejaVuSans-49"/>
      <use xlink:href="#DejaVuSans-6e" transform="translate(29.492188 0)"/>
      <use xlink:href="#DejaVuSans-64" transform="translate(92.871094 0)"/>
      <use xlink:href="#DejaVuSans-65" transform="translate(156.347656 0)"/>
      <use xlink:href="#DejaVuSans-78" transform="translate(216.121094 0)"/>
     </g>
    </g>
   </g>
   <g id="matplotlib.axis_2">
    <g id="ytick_1">
     <g id="line2d_17">
      <path d="M 57.6 298.560675 
L 414.72 298.560675 
" clip-path="url(#p242bc76b49)" style="fill: none; stroke: #b0b0b0; stroke-opacity: 0.5; stroke-width: 0.8; stroke-linecap: square"/>
     </g>
     <g id="line2d_18">
      <defs>
       <path id="m7981c6c3fa" d="M 0 0 
L -3.5 0 
" style="stroke: #000000; stroke-width: 0.8"/>
      </defs>
      <g>
       <use xlink:href="#m7981c6c3fa" x="57.6" y="298.560675" style="stroke: #000000; stroke-width: 0.8"/>
      </g>
     </g>
     <g id="text_10">
      <!-- −0.8 -->
      <g transform="translate(26.317187 302.359893) scale(0.1 -0.1)">
       <use xlink:href="#DejaVuSans-2212"/>
       <use xlink:href="#DejaVuSans-30" transform="translate(83.789062 0)"/>
       <use xlink:href="#DejaVuSans-2e" transform="translate(147.412109 0)"/>
       <use xlink:href="#DejaVuSans-38" transform="translate(179.199219 0)"/>
      </g>
     </g>
    </g>
    <g id="ytick_2">
     <g id="line2d_19">
      <path d="M 57.6 266.120224 
L 414.72 266.120224 
" clip-path="url(#p242bc76b49)" style="fill: none; stroke: #b0b0b0; stroke-opacity: 0.5; stroke-width: 0.8; stroke-linecap: square"/>
     </g>
     <g id="line2d_20">
      <g>
       <use xlink:href="#m7981c6c3fa" x="57.6" y="266.120224" style="stroke: #000000; stroke-width: 0.8"/>
      </g>
     </g>
     <g id="text_11">
      <!-- −0.6 -->
      <g transform="translate(26.317187 269.919443) scale(0.1 -0.1)">
       <use xlink:href="#DejaVuSans-2212"/>
       <use xlink:href="#DejaVuSans-30" transform="translate(83.789062 0)"/>
       <use xlink:href="#DejaVuSans-2e" transform="translate(147.412109 0)"/>
       <use xlink:href="#DejaVuSans-36" transform="translate(179.199219 0)"/>
      </g>
     </g>
    </g>
    <g id="ytick_3">
     <g id="line2d_21">
      <path d="M 57.6 233.679774 
L 414.72 233.679774 
" clip-path="url(#p242bc76b49)" style="fill: none; stroke: #b0b0b0; stroke-opacity: 0.5; stroke-width: 0.8; stroke-linecap: square"/>
     </g>
     <g id="line2d_22">
      <g>
       <use xlink:href="#m7981c6c3fa" x="57.6" y="233.679774" style="stroke: #000000; stroke-width: 0.8"/>
      </g>
     </g>
     <g id="text_12">
      <!-- −0.4 -->
      <g transform="translate(26.317187 237.478993) scale(0.1 -0.1)">
       <use xlink:href="#DejaVuSans-2212"/>
       <use xlink:href="#DejaVuSans-30" transform="translate(83.789062 0)"/>
       <use xlink:href="#DejaVuSans-2e" transform="translate(147.412109 0)"/>
       <use xlink:href="#DejaVuSans-34" transform="translate(179.199219 0)"/>
      </g>
     </g>
    </g>
    <g id="ytick_4">
     <g id="line2d_23">
      <path d="M 57.6 201.239324 
L 414.72 201.239324 
" clip-path="url(#p242bc76b49)" style="fill: none; stroke: #b0b0b0; stroke-opacity: 0.5; stroke-width: 0.8; stroke-linecap: square"/>
     </g>
     <g id="line2d_24">
      <g>
       <use xlink:href="#m7981c6c3fa" x="57.6" y="201.239324" style="stroke: #000000; stroke-width: 0.8"/>
      </g>
     </g>
     <g id="text_13">
      <!-- −0.2 -->
      <g transform="translate(26.317187 205.038543) scale(0.1 -0.1)">
       <use xlink:href="#DejaVuSans-2212"/>
       <use xlink:href="#DejaVuSans-30" transform="translate(83.789062 0)"/>
       <use xlink:href="#DejaVuSans-2e" transform="translate(147.412109 0)"/>
       <use xlink:href="#DejaVuSans-32" transform="translate(179.199219 0)"/>
      </g>
     </g>
    </g>
    <g id="ytick_5">
     <g id="line2d_25">
      <path d="M 57.6 168.798874 
L 414.72 168.798874 
" clip-path="url(#p242bc76b49)" style="fill: none; stroke: #b0b0b0; stroke-opacity: 0.5; stroke-width: 0.8; stroke-linecap: square"/>
     </g>
     <g id="line2d_26">
      <g>
       <use xlink:href="#m7981c6c3fa" x="57.6" y="168.798874" style="stroke: #000000; stroke-width: 0.8"/>
      </g>
     </g>
     <g id="text_14">
      <!-- 0.0 -->
      <g transform="translate(34.696875 172.598093) scale(0.1 -0.1)">
       <use xlink:href="#DejaVuSans-30"/>
       <use xlink:href="#DejaVuSans-2e" transform="translate(63.623047 0)"/>
       <use xlink:href="#DejaVuSans-30" transform="translate(95.410156 0)"/>
      </g>
     </g>
    </g>
    <g id="ytick_6">
     <g id="line2d_27">
      <path d="M 57.6 136.358424 
L 414.72 136.358424 
" clip-path="url(#p242bc76b49)" style="fill: none; stroke: #b0b0b0; stroke-opacity: 0.5; stroke-width: 0.8; stroke-linecap: square"/>
     </g>
     <g id="line2d_28">
      <g>
       <use xlink:href="#m7981c6c3fa" x="57.6" y="136.358424" style="stroke: #000000; stroke-width: 0.8"/>
      </g>
     </g>
     <g id="text_15">
      <!-- 0.2 -->
      <g transform="translate(34.696875 140.157643) scale(0.1 -0.1)">
       <use xlink:href="#DejaVuSans-30"/>
       <use xlink:href="#DejaVuSans-2e" transform="translate(63.623047 0)"/>
       <use xlink:href="#DejaVuSans-32" transform="translate(95.410156 0)"/>
      </g>
     </g>
    </g>
    <g id="ytick_7">
     <g id="line2d_29">
      <path d="M 57.6 103.917974 
L 414.72 103.917974 
" clip-path="url(#p242bc76b49)" style="fill: none; stroke: #b0b0b0; stroke-opacity: 0.5; stroke-width: 0.8; stroke-linecap: square"/>
     </g>
     <g id="line2d_30">
      <g>
       <use xlink:href="#m7981c6c3fa" x="57.6" y="103.917974" style="stroke: #000000; stroke-width: 0.8"/>
      </g>
     </g>
     <g id="text_16">
      <!-- 0.4 -->
      <g transform="translate(34.696875 107.717193) scale(0.1 -0.1)">
       <use xlink:href="#DejaVuSans-30"/>
       <use xlink:href="#DejaVuSans-2e" transform="translate(63.623047 0)"/>
       <use xlink:href="#DejaVuSans-34" transform="translate(95.410156 0)"/>
      </g>
     </g>
    </g>
    <g id="ytick_8">
     <g id="line2d_31">
      <path d="M 57.6 71.477524 
L 414.72 71.477524 
" clip-path="url(#p242bc76b49)" style="fill: none; stroke: #b0b0b0; stroke-opacity: 0.5; stroke-width: 0.8; stroke-linecap: square"/>
     </g>
     <g id="line2d_32">
      <g>
       <use xlink:href="#m7981c6c3fa" x="57.6" y="71.477524" style="stroke: #000000; stroke-width: 0.8"/>
      </g>
     </g>
     <g id="text_17">
      <!-- 0.6 -->
      <g transform="translate(34.696875 75.276742) scale(0.1 -0.1)">
       <use xlink:href="#DejaVuSans-30"/>
       <use xlink:href="#DejaVuSans-2e" transform="translate(63.623047 0)"/>
       <use xlink:href="#DejaVuSans-36" transform="translate(95.410156 0)"/>
      </g>
     </g>
    </g>
    <g id="text_18">
     <!-- Value -->
     <g transform="translate(20.2375 188.25925) rotate(-90) scale(0.1 -0.1)">
      <defs>
       <path id="DejaVuSans-56" d="M 1831 0 
L 50 4666 
L 709 4666 
L 2188 738 
L 3669 4666 
L 4325 4666 
L 2547 0 
L 1831 0 
z
" transform="scale(0.015625)"/>
       <path id="DejaVuSans-61" d="M 2194 1759 
Q 1497 1759 1228 1600 
Q 959 1441 959 1056 
Q 959 750 1161 570 
Q 1363 391 1709 391 
Q 2188 391 2477 730 
Q 2766 1069 2766 1631 
L 2766 1759 
L 2194 1759 
z
M 3341 1997 
L 3341 0 
L 2766 0 
L 2766 531 
Q 2569 213 2275 61 
Q 1981 -91 1556 -91 
Q 1019 -91 701 211 
Q 384 513 384 1019 
Q 384 1609 779 1909 
Q 1175 2209 1959 2209 
L 2766 2209 
L 2766 2266 
Q 2766 2663 2505 2880 
Q 2244 3097 1772 3097 
Q 1472 3097 1187 3025 
Q 903 2953 641 2809 
L 641 3341 
Q 956 3463 1253 3523 
Q 1550 3584 1831 3584 
Q 2591 3584 2966 3190 
Q 3341 2797 3341 1997 
z
" transform="scale(0.015625)"/>
       <path id="DejaVuSans-6c" d="M 603 4863 
L 1178 4863 
L 1178 0 
L 603 0 
L 603 4863 
z
" transform="scale(0.015625)"/>
       <path id="DejaVuSans-75" d="M 544 1381 
L 544 3500 
L 1119 3500 
L 1119 1403 
Q 1119 906 1312 657 
Q 1506 409 1894 409 
Q 2359 409 2629 706 
Q 2900 1003 2900 1516 
L 2900 3500 
L 3475 3500 
L 3475 0 
L 2900 0 
L 2900 538 
Q 2691 219 2414 64 
Q 2138 -91 1772 -91 
Q 1169 -91 856 284 
Q 544 659 544 1381 
z
M 1991 3584 
L 1991 3584 
z
" transform="scale(0.015625)"/>
      </defs>
      <use xlink:href="#DejaVuSans-56"/>
      <use xlink:href="#DejaVuSans-61" transform="translate(60.658203 0)"/>
      <use xlink:href="#DejaVuSans-6c" transform="translate(121.9375 0)"/>
      <use xlink:href="#DejaVuSans-75" transform="translate(149.720703 0)"/>
      <use xlink:href="#DejaVuSans-65" transform="translate(213.099609 0)"/>
     </g>
    </g>
   </g>
   <g id="line2d_33">
    <path d="M 239.988353 168.775739 
L 260.078253 168.234368 
L 252.493395 167.691683 
L 253.500294 167.152214 
L 253.913823 166.616738 
L 255.052043 166.081659 
L 255.817455 165.544196 
L 257.59096 165.006342 
L 257.56388 164.472288 
L 257.273517 163.942855 
L 259.246068 162.884093 
L 261.001142 162.353403 
L 260.938521 161.826639 
L 260.635524 161.304901 
L 262.414506 160.261957 
L 264.063764 159.738268 
L 264.385271 159.217768 
L 264.121894 158.702056 
L 264.941861 158.187678 
L 265.481033 157.670487 
L 267.935357 156.633387 
L 267.754997 156.120192 
L 268.872663 155.094755 
L 269.975505 154.578231 
L 271.457613 154.06314 
L 271.243965 153.552185 
L 271.613 153.043124 
L 272.241572 152.531799 
L 273.237766 152.017787 
L 274.788319 151.505101 
L 274.535272 150.997012 
L 274.618661 150.491751 
L 275.691137 149.984907 
L 276.462249 149.475251 
L 278.228139 148.966352 
L 277.950039 148.461834 
L 277.894957 147.960588 
L 279.135548 147.45829 
L 279.658447 146.953061 
L 281.519452 146.447809 
L 281.344988 145.447416 
L 282.377025 144.947501 
L 282.735123 144.444211 
L 284.488773 143.940053 
L 284.814592 143.438656 
L 284.925796 142.939685 
L 285.550237 142.439061 
L 285.822116 141.93428 
L 288.263654 140.922886 
L 288.500969 140.420345 
L 288.957834 139.916127 
L 289.098321 139.407445 
L 291.571985 138.387033 
L 291.725083 137.880207 
L 292.444625 137.372187 
L 292.388319 136.859845 
L 293.428928 136.344912 
L 294.781848 135.831894 
L 294.75945 135.322248 
L 295.863924 134.81263 
L 295.678738 134.299527 
L 297.980216 133.270904 
L 297.879369 132.761867 
L 298.767647 132.253948 
L 298.932926 131.743248 
L 301.166911 130.719981 
L 301.025187 130.214552 
L 301.469778 129.711434 
L 302.278395 129.20628 
L 304.473422 128.193673 
L 304.269323 127.693682 
L 304.487473 127.196858 
L 305.713109 126.698646 
L 306.409406 126.198075 
L 307.890058 125.698969 
L 307.58842 125.204774 
L 307.701905 124.713876 
L 308.888649 124.221673 
L 309.309477 123.726613 
L 311.21567 123.232187 
L 310.898316 122.742183 
L 310.941734 122.255495 
L 311.984016 121.767435 
L 312.173298 121.275827 
L 314.197845 120.78387 
L 314.093617 119.811858 
L 315.37477 119.327182 
L 315.241268 118.838967 
L 316.920173 118.349519 
L 317.360531 117.863083 
L 317.375766 117.380156 
L 318.578474 116.896944 
L 318.43089 116.410644 
L 320.165655 115.923434 
L 320.337813 115.439623 
L 320.309991 114.959848 
L 321.607989 114.479986 
L 321.254803 113.996465 
L 322.575273 113.510894 
L 323.528507 113.027933 
L 323.492987 112.549111 
L 324.650189 112.070825 
L 324.264176 111.589136 
L 325.34206 111.104884 
L 326.832487 110.62248 
L 326.728227 110.143822 
L 327.818148 109.665671 
L 327.258121 109.183914 
L 328.165318 108.699049 
L 330.051732 108.215509 
L 329.897091 107.735608 
L 330.957913 107.25622 
L 330.191586 106.772612 
L 330.973896 106.284754 
L 333.245125 105.797153 
L 333.125936 105.313178 
L 333.938106 104.830454 
L 333.348855 104.34438 
L 334.026681 103.854193 
L 336.314779 103.364296 
L 336.147053 102.878275 
L 336.602136 102.394367 
L 336.38474 101.907482 
L 337.013881 101.416448 
L 339.354697 100.925541 
L 339.149226 100.439163 
L 339.247551 99.95627 
L 340.016035 99.471661 
L 340.096445 98.983161 
L 342.38112 98.494806 
L 342.120374 98.011536 
L 342.173124 97.532839 
L 343.517925 97.053364 
L 343.107644 96.570012 
L 345.136704 96.085983 
L 345.183838 95.133022 
L 346.602159 94.659662 
L 346.021018 94.182724 
L 347.798303 93.704646 
L 348.05638 93.230764 
L 348.129203 92.762339 
L 349.520064 92.294379 
L 348.853683 91.82257 
L 350.230362 91.348741 
L 350.982034 90.878649 
L 351.078719 90.414246 
L 352.285399 89.95081 
L 351.576646 89.483101 
L 352.591419 89.012298 
L 353.991675 88.544415 
L 354.05688 88.082284 
L 354.96323 87.6217 
L 354.351886 87.156891 
L 355.239422 86.688235 
L 357.047085 86.221889 
L 356.983413 85.761856 
L 357.515488 85.30424 
L 357.111903 84.842283 
L 358.006122 84.375319 
L 360.237143 83.909794 
L 360.006145 83.45068 
L 360.249386 82.994872 
L 360.035706 82.535062 
L 360.963437 82.069383 
L 363.287403 81.604284 
L 362.968111 81.146233 
L 363.218109 80.236242 
L 364.189963 79.772177 
L 365.526516 79.306614 
L 365.975745 78.847394 
L 366.143869 78.393925 
L 366.55193 77.93776 
L 368.812811 76.54635 
L 369.037861 76.092911 
L 369.946954 75.637538 
L 370.456276 75.173067 
L 370.467883 74.703541 
L 371.660312 74.239476 
L 371.90859 73.78391 
L 373.412394 73.328209 
L 373.221504 72.863187 
L 373.504953 72.391553 
L 374.477904 71.924984 
L 374.763248 71.468838 
L 375.422354 71.014838 
L 375.668413 70.551402 
L 376.655589 70.079313 
L 377.271695 69.611256 
L 377.897364 68.704813 
L 378.604882 68.244799 
L 379.982678 67.773919 
L 380.36533 66.853573 
L 380.957374 66.409637 
L 381.955809 65.956846 
L 383.479424 65.48963 
L 383.930436 65.022704 
L 383.580909 64.572832 
L 384.881693 63.691255 
L 386.59373 63.227886 
L 385.458614 62.761434 
L 387.427681 61.886924 
L 387.630028 61.452018 
L 389.531222 60.991986 
L 389.223923 60.522836 
L 389.347426 60.076996 
L 390.352057 59.659734 
L 390.185478 59.237697 
L 392.381528 58.779859 
L 392.968635 58.301921 
L 391.858168 57.85202 
L 394.809573 56.58437 
L 395.168749 56.084118 
L 393.652565 55.624859 
L 394.393171 55.251964 
L 395.809554 54.887035 
L 398.487273 54.401189 
L 397.193196 53.835465 
L 386.193448 53.568 
L 377.82913 54.230694 
L 373.523866 56.38838 
L 369.339001 60.214098 
L 366.480653 65.394458 
L 359.400686 71.294388 
L 347.013281 77.223207 
L 351.5897 82.643904 
L 349.818966 87.301099 
L 346.256117 91.298564 
L 327.142298 95.083149 
L 315.241094 99.236641 
L 315.694699 104.107079 
L 311.063223 109.530744 
L 301.2358 114.928494 
L 306.20535 119.767274 
L 304.243428 124.011418 
L 280.196588 128.141403 
L 274.380513 132.703955 
L 272.193468 137.813666 
L 262.888355 143.08004 
L 265.538588 148.011432 
L 263.036157 152.478744 
L 244.093695 156.78917 
L 233.988955 161.339805 
L 231.597451 166.236677 
L 223.973926 171.250883 
L 220.951347 176.098032 
L 214.347049 180.710279 
L 203.168642 185.239975 
L 195.537355 189.856754 
L 184.648306 199.37067 
L 179.76217 204.124961 
L 168.229087 213.532576 
L 162.919773 218.174467 
L 156.916399 222.781581 
L 148.838832 227.420306 
L 141.390625 232.152718 
L 135.488014 236.943308 
L 133.033837 241.66918 
L 129.294448 246.256944 
L 120.854464 250.788306 
L 111.815367 255.422675 
L 104.893488 260.203089 
L 97.757217 264.983928 
L 95.098686 269.599203 
L 90.430182 274.089441 
L 79.921965 278.685438 
L 73.832727 283.496461 
L 75.036277 288.205873 
L 100.463948 292.126898 
L 102.742894 294.618614 
L 105.348875 295.488 
L 107.394243 295.031341 
L 104.887927 293.756295 
L 96.490233 292.127043 
L 85.459004 290.551409 
L 79.609554 289.456323 
L 80.279607 289.16841 
L 82.870403 289.607086 
L 92.159299 290.15707 
L 112.84426 290.022598 
L 116.605242 288.86993 
L 109.600741 287.168476 
L 82.265281 285.837617 
L 80.759132 285.461822 
L 86.963258 285.786706 
L 109.211131 285.968638 
L 121.711193 285.338574 
L 118.595428 283.969004 
L 89.140581 281.733171 
L 90.448858 281.60156 
L 101.93823 281.662807 
L 118.848631 281.340263 
L 121.347641 280.449453 
L 112.106009 279.281442 
L 96.997049 278.297732 
L 95.871833 277.748608 
L 101.952131 277.520008 
L 114.869455 277.275939 
L 121.365021 276.738756 
L 120.16253 275.886076 
L 112.179829 274.938582 
L 104.252509 274.170043 
L 104.442825 273.691748 
L 120.632056 272.9718 
L 124.027978 272.323628 
L 121.104088 271.490719 
L 113.550942 270.682252 
L 111.365677 270.064205 
L 114.277211 269.620985 
L 120.918834 269.190343 
L 125.55572 268.622782 
L 124.933816 267.907843 
L 121.927192 267.159655 
L 118.509976 266.497774 
L 120.64784 265.947181 
L 127.71347 264.889684 
L 128.120234 264.266465 
L 127.926602 263.601268 
L 125.925917 262.949518 
L 127.626459 261.791871 
L 129.334419 261.250211 
L 132.028645 260.683869 
L 132.942637 259.451024 
L 131.380684 258.84368 
L 133.502577 257.739961 
L 135.944873 257.190605 
L 136.978241 256.607972 
L 137.476504 256.006661 
L 136.061818 255.420132 
L 138.265223 254.319719 
L 140.583916 253.76146 
L 141.025764 253.182452 
L 140.564666 252.600564 
L 141.224159 252.033796 
L 143.374665 250.917635 
L 144.792375 250.339845 
L 144.708999 249.753123 
L 145.33377 248.595954 
L 148.564896 247.430955 
L 148.426052 246.835473 
L 149.489592 246.238449 
L 151.821326 245.641527 
L 152.308817 245.041869 
L 153.596896 243.840943 
L 153.272966 243.246549 
L 154.077076 242.650226 
L 155.516461 242.044656 
L 155.221143 241.43388 
L 156.007144 240.832017 
L 156.534563 240.248017 
L 157.576147 239.673558 
L 160.236811 238.493945 
L 160.304771 237.89464 
L 161.635645 236.74581 
L 162.703742 236.183905 
L 163.256127 235.609722 
L 164.066433 235.023749 
L 164.486712 234.439835 
L 164.535248 233.867847 
L 165.748523 233.303859 
L 167.43459 232.737048 
L 168.298911 232.162797 
L 168.598867 231.585724 
L 169.959881 231.011357 
L 170.208371 230.43932 
L 171.322373 229.866346 
L 173.077416 229.292815 
L 173.387657 228.722379 
L 173.00594 228.155481 
L 176.799275 225.868629 
L 176.274849 225.308388 
L 177.323858 224.750379 
L 177.509243 224.186343 
L 178.292944 223.616641 
L 179.622322 223.049854 
L 179.503101 222.492295 
L 180.656532 221.940615 
L 182.138923 221.386667 
L 182.925778 220.827837 
L 184.388646 220.269678 
L 184.551908 219.171572 
L 185.951471 218.62414 
L 186.845528 218.073373 
L 188.32388 217.523466 
L 188.277277 216.978713 
L 188.087309 216.437058 
L 188.722291 215.892585 
L 189.805492 215.343548 
L 191.667152 214.794749 
L 191.992909 214.250681 
L 191.913304 213.161319 
L 193.29876 212.606202 
L 195.567913 211.496687 
L 195.441275 210.948085 
L 195.454665 210.395172 
L 197.416026 209.832779 
L 197.556467 209.265088 
L 198.69679 208.700438 
L 199.004442 208.141175 
L 200.440351 207.581243 
L 201.222727 207.014168 
L 201.506933 206.441025 
L 203.0816 205.868572 
L 203.622097 205.300777 
L 203.825638 204.73487 
L 204.623879 204.166386 
L 206.156499 203.595669 
L 207.2361 203.027147 
L 207.044767 202.462939 
L 207.547014 201.900092 
L 208.736741 201.335243 
L 210.637747 200.770059 
L 210.727308 200.209583 
L 210.152294 199.655444 
L 211.740725 198.547771 
L 213.39298 197.990309 
L 214.210006 197.4369 
L 213.608565 196.890877 
L 215.132002 195.802738 
L 216.232359 195.252916 
L 218.071751 194.70395 
L 218.157786 194.160373 
L 218.088582 193.620391 
L 220.063571 192.532803 
L 221.93953 191.986899 
L 222.103816 191.444816 
L 221.937336 190.905368 
L 223.73381 189.819194 
L 225.575295 189.274655 
L 225.551273 188.734503 
L 225.296561 188.19778 
L 229.127707 186.579272 
L 228.696749 185.514163 
L 230.119768 184.983433 
L 230.832034 184.449602 
L 232.637803 183.915732 
L 232.567594 183.38659 
L 232.216043 182.86237 
L 233.479247 182.338469 
L 234.111545 181.811522 
L 235.828648 181.283582 
L 236.125898 180.758995 
L 235.833342 180.238178 
L 236.996945 179.716734 
L 237.36738 179.191023 
L 239.623658 178.136672 
L 239.576676 177.613896 
L 240.612215 177.090565 
L 240.797524 176.562717 
L 241.569952 176.031388 
L 243.344657 175.500977 
L 243.556679 174.973156 
L 244.401759 174.444597 
L 244.389624 173.91146 
L 245.049074 173.374672 
L 246.831354 172.838775 
L 246.958779 172.305896 
L 247.886803 171.772853 
L 247.781047 171.23532 
L 248.446496 170.693599 
L 250.357826 170.152363 
L 250.480936 169.614729 
L 256.348102 168.809416 
L 256.348102 168.809416 
" clip-path="url(#p242bc76b49)" style="fill: none; stroke: #1f77b4; stroke-width: 1.5; stroke-linecap: square"/>
   </g>
   <g id="line2d_34">
    <path d="M 249.948592 168.775739 
L 255.208036 164.472288 
L 257.209741 162.884093 
L 259.204138 161.304901 
L 264.565565 157.150949 
L 272.650935 150.997012 
L 274.56266 149.475251 
L 278.357663 146.447809 
L 283.587548 142.439061 
L 286.188127 140.420345 
L 290.159692 137.372187 
L 295.934218 132.761867 
L 297.819541 131.230411 
L 302.266208 127.693682 
L 304.163929 126.198075 
L 306.130807 124.713876 
L 320.008415 113.996465 
L 321.838494 112.549111 
L 326.12303 109.183914 
L 327.958383 107.735608 
L 329.792825 106.284754 
L 334.166018 102.878275 
L 336.011226 101.416448 
L 337.89557 99.95627 
L 350.023888 90.414246 
L 351.249175 89.483101 
L 352.391316 88.544415 
L 354.306716 87.156891 
L 355.419303 86.221889 
L 357.313914 84.842283 
L 358.375845 83.909794 
L 360.757636 82.069383 
L 361.911216 81.146233 
L 363.156096 80.236242 
L 364.776371 78.847394 
L 366.063802 77.93776 
L 367.66615 76.54635 
L 368.992368 75.637538 
L 370.577859 74.239476 
L 371.937103 73.328209 
L 374.197797 71.468838 
L 375.421893 70.551402 
L 376.392163 69.611256 
L 378.353176 68.244799 
L 379.238867 67.306152 
L 381.285469 65.956846 
L 382.082104 65.022704 
L 384.547041 63.227886 
L 384.887042 62.761434 
L 385.529205 62.314733 
L 387.139956 61.452018 
L 388.269848 60.076996 
L 390.142653 59.237697 
L 390.465187 58.779859 
L 390.479125 58.301921 
L 390.917582 57.85202 
L 393.237933 57.043475 
L 393.559046 56.58437 
L 393.122546 56.084118 
L 393.181854 55.624859 
L 394.732 55.251964 
L 396.906905 54.887035 
L 397.096598 54.401189 
L 393.017919 53.835465 
L 384.818396 53.568 
L 375.117636 54.230694 
L 366.983605 56.38838 
L 361.888799 60.214098 
L 359.416557 65.394458 
L 358.359712 71.294388 
L 357.501587 77.223207 
L 355.35729 82.643904 
L 350.029767 87.301099 
L 340.435224 91.298564 
L 328.087234 95.083149 
L 317.044187 99.236641 
L 311.007568 104.107079 
L 309.85382 109.530744 
L 309.259756 114.928494 
L 304.391218 119.767274 
L 294.349799 124.011418 
L 282.932692 128.141403 
L 274.854686 132.703955 
L 271.254784 137.813666 
L 269.002355 143.08004 
L 264.243949 148.011432 
L 256.241192 152.478744 
L 247.571804 156.78917 
L 240.942341 161.339805 
L 231.780712 171.250883 
L 225.498826 176.098032 
L 218.108552 180.710279 
L 211.262369 185.239975 
L 205.617479 189.856754 
L 200.324478 194.59242 
L 194.405537 199.37067 
L 187.997032 204.124961 
L 181.896936 208.844905 
L 176.257949 213.532576 
L 170.349347 218.174467 
L 157.054987 227.420306 
L 151.381304 232.152718 
L 146.540119 236.943308 
L 141.105282 241.66918 
L 134.135153 246.256944 
L 126.62199 250.788306 
L 120.544248 255.422675 
L 112.047499 264.983928 
L 105.266565 269.599203 
L 96.484822 274.089441 
L 89.30994 278.685438 
L 87.234164 283.496461 
L 90.135163 288.205873 
L 94.368128 292.126898 
L 96.325737 294.618614 
L 95.473908 295.488 
L 93.656608 295.031341 
L 91.986312 293.756295 
L 89.464761 292.127043 
L 85.149225 290.551409 
L 80.978398 289.456323 
L 81.100966 289.16841 
L 97.040286 290.15707 
L 102.711676 290.022598 
L 100.425723 288.86993 
L 87.340462 285.837617 
L 89.241605 285.461822 
L 97.187515 285.786706 
L 104.725526 285.968638 
L 106.429957 285.338574 
L 102.48261 283.969004 
L 97.742418 282.548194 
L 96.885864 281.733171 
L 100.526872 281.60156 
L 105.507774 281.662807 
L 108.268215 281.340263 
L 107.783665 280.449453 
L 105.775563 279.281442 
L 104.737719 278.297732 
L 105.896223 277.748608 
L 111.211429 277.275939 
L 112.355496 276.738756 
L 111.926627 275.886076 
L 111.015964 274.938582 
L 111.032196 274.170043 
L 112.572306 273.691748 
L 114.938138 273.37542 
L 116.757607 272.9718 
L 117.211836 272.323628 
L 116.748818 271.490719 
L 116.60619 270.682252 
L 117.621717 270.064205 
L 121.206072 269.190343 
L 121.988233 268.622782 
L 122.073349 267.159655 
L 122.785767 266.497774 
L 126.600434 264.889684 
L 127.10437 264.266465 
L 127.336203 263.601268 
L 127.718743 262.949518 
L 128.538806 262.34725 
L 130.944259 261.250211 
L 131.748513 260.683869 
L 132.367836 259.451024 
L 133.036555 258.84368 
L 136.197402 257.190605 
L 136.819679 256.006661 
L 137.535625 255.420132 
L 139.797279 254.319719 
L 140.560203 253.76146 
L 141.48554 252.600564 
L 142.236258 252.033796 
L 144.955163 250.339845 
L 148.729754 247.430955 
L 151.470185 245.641527 
L 153.328047 243.840943 
L 155.344378 242.650226 
L 156.072842 242.044656 
L 157.0189 240.832017 
L 157.767143 240.248017 
L 159.578683 239.091099 
L 162.149711 236.74581 
L 163.786488 235.609722 
L 165.947841 233.867847 
L 171.29404 229.866346 
L 172.771694 228.722379 
L 174.372053 227.587132 
L 176.445809 225.868629 
L 178.728751 224.186343 
L 180.05197 223.049854 
L 182.289213 221.386667 
L 183.591144 220.269678 
L 185.766915 218.62414 
L 187.060493 217.523466 
L 189.3064 215.892585 
L 190.579718 214.794749 
L 193.634921 212.606202 
L 195.027429 211.496687 
L 197.369068 209.832779 
L 198.769688 208.700438 
L 201.036996 207.014168 
L 205.958845 203.027147 
L 208.0918 201.335243 
L 209.382252 200.209583 
L 211.524433 198.547771 
L 212.824057 197.4369 
L 215.667329 195.252916 
L 217.87852 193.620391 
L 229.713201 184.449602 
L 231.023892 183.38659 
L 233.060107 181.811522 
L 234.366767 180.758995 
L 236.435001 179.191023 
L 237.748184 178.136672 
L 239.858968 176.562717 
L 241.929528 174.973156 
L 243.991481 173.374672 
L 249.90676 168.809416 
L 249.90676 168.809416 
" clip-path="url(#p242bc76b49)" style="fill: none; stroke: #ff7f0e; stroke-opacity: 0.5; stroke-width: 1.5; stroke-linecap: square"/>
   </g>
   <g id="patch_3">
    <path d="M 57.6 307.584 
L 57.6 41.472 
" style="fill: none; stroke: #000000; stroke-width: 0.8; stroke-linejoin: miter; stroke-linecap: square"/>
   </g>
   <g id="patch_4">
    <path d="M 414.72 307.584 
L 414.72 41.472 
" style="fill: none; stroke: #000000; stroke-width: 0.8; stroke-linejoin: miter; stroke-linecap: square"/>
   </g>
   <g id="patch_5">
    <path d="M 57.6 307.584 
L 414.72 307.584 
" style="fill: none; stroke: #000000; stroke-width: 0.8; stroke-linejoin: miter; stroke-linecap: square"/>
   </g>
   <g id="patch_6">
    <path d="M 57.6 41.472 
L 414.72 41.472 
" style="fill: none; stroke: #000000; stroke-width: 0.8; stroke-linejoin: miter; stroke-linecap: square"/>
   </g>
   <g id="text_19">
    <!-- Compare - Epoch 300 -->
    <g transform="translate(171.234375 35.472) scale(0.12 -0.12)">
     <defs>
      <path id="DejaVuSans-43" d="M 4122 4306 
L 4122 3641 
Q 3803 3938 3442 4084 
Q 3081 4231 2675 4231 
Q 1875 4231 1450 3742 
Q 1025 3253 1025 2328 
Q 1025 1406 1450 917 
Q 1875 428 2675 428 
Q 3081 428 3442 575 
Q 3803 722 4122 1019 
L 4122 359 
Q 3791 134 3420 21 
Q 3050 -91 2638 -91 
Q 1578 -91 968 557 
Q 359 1206 359 2328 
Q 359 3453 968 4101 
Q 1578 4750 2638 4750 
Q 3056 4750 3426 4639 
Q 3797 4528 4122 4306 
z
" transform="scale(0.015625)"/>
      <path id="DejaVuSans-6f" d="M 1959 3097 
Q 1497 3097 1228 2736 
Q 959 2375 959 1747 
Q 959 1119 1226 758 
Q 1494 397 1959 397 
Q 2419 397 2687 759 
Q 2956 1122 2956 1747 
Q 2956 2369 2687 2733 
Q 2419 3097 1959 3097 
z
M 1959 3584 
Q 2709 3584 3137 3096 
Q 3566 2609 3566 1747 
Q 3566 888 3137 398 
Q 2709 -91 1959 -91 
Q 1206 -91 779 398 
Q 353 888 353 1747 
Q 353 2609 779 3096 
Q 1206 3584 1959 3584 
z
" transform="scale(0.015625)"/>
      <path id="DejaVuSans-6d" d="M 3328 2828 
Q 3544 3216 3844 3400 
Q 4144 3584 4550 3584 
Q 5097 3584 5394 3201 
Q 5691 2819 5691 2113 
L 5691 0 
L 5113 0 
L 5113 2094 
Q 5113 2597 4934 2840 
Q 4756 3084 4391 3084 
Q 3944 3084 3684 2787 
Q 3425 2491 3425 1978 
L 3425 0 
L 2847 0 
L 2847 2094 
Q 2847 2600 2669 2842 
Q 2491 3084 2119 3084 
Q 1678 3084 1418 2786 
Q 1159 2488 1159 1978 
L 1159 0 
L 581 0 
L 581 3500 
L 1159 3500 
L 1159 2956 
Q 1356 3278 1631 3431 
Q 1906 3584 2284 3584 
Q 2666 3584 2933 3390 
Q 3200 3197 3328 2828 
z
" transform="scale(0.015625)"/>
      <path id="DejaVuSans-70" d="M 1159 525 
L 1159 -1331 
L 581 -1331 
L 581 3500 
L 1159 3500 
L 1159 2969 
Q 1341 3281 1617 3432 
Q 1894 3584 2278 3584 
Q 2916 3584 3314 3078 
Q 3713 2572 3713 1747 
Q 3713 922 3314 415 
Q 2916 -91 2278 -91 
Q 1894 -91 1617 61 
Q 1341 213 1159 525 
z
M 3116 1747 
Q 3116 2381 2855 2742 
Q 2594 3103 2138 3103 
Q 1681 3103 1420 2742 
Q 1159 2381 1159 1747 
Q 1159 1113 1420 752 
Q 1681 391 2138 391 
Q 2594 391 2855 752 
Q 3116 1113 3116 1747 
z
" transform="scale(0.015625)"/>
      <path id="DejaVuSans-72" d="M 2631 2963 
Q 2534 3019 2420 3045 
Q 2306 3072 2169 3072 
Q 1681 3072 1420 2755 
Q 1159 2438 1159 1844 
L 1159 0 
L 581 0 
L 581 3500 
L 1159 3500 
L 1159 2956 
Q 1341 3275 1631 3429 
Q 1922 3584 2338 3584 
Q 2397 3584 2469 3576 
Q 2541 3569 2628 3553 
L 2631 2963 
z
" transform="scale(0.015625)"/>
      <path id="DejaVuSans-20" transform="scale(0.015625)"/>
      <path id="DejaVuSans-2d" d="M 313 2009 
L 1997 2009 
L 1997 1497 
L 313 1497 
L 313 2009 
z
" transform="scale(0.015625)"/>
      <path id="DejaVuSans-45" d="M 628 4666 
L 3578 4666 
L 3578 4134 
L 1259 4134 
L 1259 2753 
L 3481 2753 
L 3481 2222 
L 1259 2222 
L 1259 531 
L 3634 531 
L 3634 0 
L 628 0 
L 628 4666 
z
" transform="scale(0.015625)"/>
      <path id="DejaVuSans-63" d="M 3122 3366 
L 3122 2828 
Q 2878 2963 2633 3030 
Q 2388 3097 2138 3097 
Q 1578 3097 1268 2742 
Q 959 2388 959 1747 
Q 959 1106 1268 751 
Q 1578 397 2138 397 
Q 2388 397 2633 464 
Q 2878 531 3122 666 
L 3122 134 
Q 2881 22 2623 -34 
Q 2366 -91 2075 -91 
Q 1284 -91 818 406 
Q 353 903 353 1747 
Q 353 2603 823 3093 
Q 1294 3584 2113 3584 
Q 2378 3584 2631 3529 
Q 2884 3475 3122 3366 
z
" transform="scale(0.015625)"/>
      <path id="DejaVuSans-68" d="M 3513 2113 
L 3513 0 
L 2938 0 
L 2938 2094 
Q 2938 2591 2744 2837 
Q 2550 3084 2163 3084 
Q 1697 3084 1428 2787 
Q 1159 2491 1159 1978 
L 1159 0 
L 581 0 
L 581 4863 
L 1159 4863 
L 1159 2956 
Q 1366 3272 1645 3428 
Q 1925 3584 2291 3584 
Q 2894 3584 3203 3211 
Q 3513 2838 3513 2113 
z
" transform="scale(0.015625)"/>
      <path id="DejaVuSans-33" d="M 2597 2516 
Q 3050 2419 3304 2112 
Q 3559 1806 3559 1356 
Q 3559 666 3084 287 
Q 2609 -91 1734 -91 
Q 1441 -91 1130 -33 
Q 819 25 488 141 
L 488 750 
Q 750 597 1062 519 
Q 1375 441 1716 441 
Q 2309 441 2620 675 
Q 2931 909 2931 1356 
Q 2931 1769 2642 2001 
Q 2353 2234 1838 2234 
L 1294 2234 
L 1294 2753 
L 1863 2753 
Q 2328 2753 2575 2939 
Q 2822 3125 2822 3475 
Q 2822 3834 2567 4026 
Q 2313 4219 1838 4219 
Q 1578 4219 1281 4162 
Q 984 4106 628 3988 
L 628 4550 
Q 988 4650 1302 4700 
Q 1616 4750 1894 4750 
Q 2613 4750 3031 4423 
Q 3450 4097 3450 3541 
Q 3450 3153 3228 2886 
Q 3006 2619 2597 2516 
z
" transform="scale(0.015625)"/>
     </defs>
     <use xlink:href="#DejaVuSans-43"/>
     <use xlink:href="#DejaVuSans-6f" transform="translate(69.824219 0)"/>
     <use xlink:href="#DejaVuSans-6d" transform="translate(131.005859 0)"/>
     <use xlink:href="#DejaVuSans-70" transform="translate(228.417969 0)"/>
     <use xlink:href="#DejaVuSans-61" transform="translate(291.894531 0)"/>
     <use xlink:href="#DejaVuSans-72" transform="translate(353.173828 0)"/>
     <use xlink:href="#DejaVuSans-65" transform="translate(392.037109 0)"/>
     <use xlink:href="#DejaVuSans-20" transform="translate(453.560547 0)"/>
     <use xlink:href="#DejaVuSans-2d" transform="translate(485.347656 0)"/>
     <use xlink:href="#DejaVuSans-20" transform="translate(521.431641 0)"/>
     <use xlink:href="#DejaVuSans-45" transform="translate(553.21875 0)"/>
     <use xlink:href="#DejaVuSans-70" transform="translate(616.402344 0)"/>
     <use xlink:href="#DejaVuSans-6f" transform="translate(679.878906 0)"/>
     <use xlink:href="#DejaVuSans-63" transform="translate(741.060547 0)"/>
     <use xlink:href="#DejaVuSans-68" transform="translate(796.041016 0)"/>
     <use xlink:href="#DejaVuSans-20" transform="translate(859.419922 0)"/>
     <use xlink:href="#DejaVuSans-33" transform="translate(891.207031 0)"/>
     <use xlink:href="#DejaVuSans-30" transform="translate(954.830078 0)"/>
     <use xlink:href="#DejaVuSans-30" transform="translate(1018.453125 0)"/>
    </g>
   </g>
   <g id="legend_1">
    <g id="patch_7">
     <path d="M 64.6 78.82825 
L 181.128125 78.82825 
Q 183.128125 78.82825 183.128125 76.82825 
L 183.128125 48.472 
Q 183.128125 46.472 181.128125 46.472 
L 64.6 46.472 
Q 62.6 46.472 62.6 48.472 
L 62.6 76.82825 
Q 62.6 78.82825 64.6 78.82825 
z
" style="fill: #ffffff; opacity: 0.8; stroke: #cccccc; stroke-linejoin: miter"/>
    </g>
    <g id="line2d_35">
     <path d="M 66.6 54.570437 
L 76.6 54.570437 
L 86.6 54.570437 
" style="fill: none; stroke: #1f77b4; stroke-width: 1.5; stroke-linecap: square"/>
    </g>
    <g id="text_20">
     <!-- Pred: Sample 1 -->
     <g transform="translate(94.6 58.070437) scale(0.1 -0.1)">
      <defs>
       <path id="DejaVuSans-50" d="M 1259 4147 
L 1259 2394 
L 2053 2394 
Q 2494 2394 2734 2622 
Q 2975 2850 2975 3272 
Q 2975 3691 2734 3919 
Q 2494 4147 2053 4147 
L 1259 4147 
z
M 628 4666 
L 2053 4666 
Q 2838 4666 3239 4311 
Q 3641 3956 3641 3272 
Q 3641 2581 3239 2228 
Q 2838 1875 2053 1875 
L 1259 1875 
L 1259 0 
L 628 0 
L 628 4666 
z
" transform="scale(0.015625)"/>
       <path id="DejaVuSans-3a" d="M 750 794 
L 1409 794 
L 1409 0 
L 750 0 
L 750 794 
z
M 750 3309 
L 1409 3309 
L 1409 2516 
L 750 2516 
L 750 3309 
z
" transform="scale(0.015625)"/>
       <path id="DejaVuSans-53" d="M 3425 4513 
L 3425 3897 
Q 3066 4069 2747 4153 
Q 2428 4238 2131 4238 
Q 1616 4238 1336 4038 
Q 1056 3838 1056 3469 
Q 1056 3159 1242 3001 
Q 1428 2844 1947 2747 
L 2328 2669 
Q 3034 2534 3370 2195 
Q 3706 1856 3706 1288 
Q 3706 609 3251 259 
Q 2797 -91 1919 -91 
Q 1588 -91 1214 -16 
Q 841 59 441 206 
L 441 856 
Q 825 641 1194 531 
Q 1563 422 1919 422 
Q 2459 422 2753 634 
Q 3047 847 3047 1241 
Q 3047 1584 2836 1778 
Q 2625 1972 2144 2069 
L 1759 2144 
Q 1053 2284 737 2584 
Q 422 2884 422 3419 
Q 422 4038 858 4394 
Q 1294 4750 2059 4750 
Q 2388 4750 2728 4690 
Q 3069 4631 3425 4513 
z
" transform="scale(0.015625)"/>
       <path id="DejaVuSans-31" d="M 794 531 
L 1825 531 
L 1825 4091 
L 703 3866 
L 703 4441 
L 1819 4666 
L 2450 4666 
L 2450 531 
L 3481 531 
L 3481 0 
L 794 0 
L 794 531 
z
" transform="scale(0.015625)"/>
      </defs>
      <use xlink:href="#DejaVuSans-50"/>
      <use xlink:href="#DejaVuSans-72" transform="translate(58.552734 0)"/>
      <use xlink:href="#DejaVuSans-65" transform="translate(97.416016 0)"/>
      <use xlink:href="#DejaVuSans-64" transform="translate(158.939453 0)"/>
      <use xlink:href="#DejaVuSans-3a" transform="translate(222.416016 0)"/>
      <use xlink:href="#DejaVuSans-20" transform="translate(256.107422 0)"/>
      <use xlink:href="#DejaVuSans-53" transform="translate(287.894531 0)"/>
      <use xlink:href="#DejaVuSans-61" transform="translate(351.371094 0)"/>
      <use xlink:href="#DejaVuSans-6d" transform="translate(412.650391 0)"/>
      <use xlink:href="#DejaVuSans-70" transform="translate(510.0625 0)"/>
      <use xlink:href="#DejaVuSans-6c" transform="translate(573.539062 0)"/>
      <use xlink:href="#DejaVuSans-65" transform="translate(601.322266 0)"/>
      <use xlink:href="#DejaVuSans-20" transform="translate(662.845703 0)"/>
      <use xlink:href="#DejaVuSans-31" transform="translate(694.632812 0)"/>
     </g>
    </g>
    <g id="line2d_36">
     <path d="M 66.6 69.248562 
L 76.6 69.248562 
L 86.6 69.248562 
" style="fill: none; stroke: #ff7f0e; stroke-opacity: 0.5; stroke-width: 1.5; stroke-linecap: square"/>
    </g>
    <g id="text_21">
     <!-- Target: Sample 1 -->
     <g transform="translate(94.6 72.748562) scale(0.1 -0.1)">
      <defs>
       <path id="DejaVuSans-54" d="M -19 4666 
L 3928 4666 
L 3928 4134 
L 2272 4134 
L 2272 0 
L 1638 0 
L 1638 4134 
L -19 4134 
L -19 4666 
z
" transform="scale(0.015625)"/>
       <path id="DejaVuSans-67" d="M 2906 1791 
Q 2906 2416 2648 2759 
Q 2391 3103 1925 3103 
Q 1463 3103 1205 2759 
Q 947 2416 947 1791 
Q 947 1169 1205 825 
Q 1463 481 1925 481 
Q 2391 481 2648 825 
Q 2906 1169 2906 1791 
z
M 3481 434 
Q 3481 -459 3084 -895 
Q 2688 -1331 1869 -1331 
Q 1566 -1331 1297 -1286 
Q 1028 -1241 775 -1147 
L 775 -588 
Q 1028 -725 1275 -790 
Q 1522 -856 1778 -856 
Q 2344 -856 2625 -561 
Q 2906 -266 2906 331 
L 2906 616 
Q 2728 306 2450 153 
Q 2172 0 1784 0 
Q 1141 0 747 490 
Q 353 981 353 1791 
Q 353 2603 747 3093 
Q 1141 3584 1784 3584 
Q 2172 3584 2450 3431 
Q 2728 3278 2906 2969 
L 2906 3500 
L 3481 3500 
L 3481 434 
z
" transform="scale(0.015625)"/>
       <path id="DejaVuSans-74" d="M 1172 4494 
L 1172 3500 
L 2356 3500 
L 2356 3053 
L 1172 3053 
L 1172 1153 
Q 1172 725 1289 603 
Q 1406 481 1766 481 
L 2356 481 
L 2356 0 
L 1766 0 
Q 1100 0 847 248 
Q 594 497 594 1153 
L 594 3053 
L 172 3053 
L 172 3500 
L 594 3500 
L 594 4494 
L 1172 4494 
z
" transform="scale(0.015625)"/>
      </defs>
      <use xlink:href="#DejaVuSans-54"/>
      <use xlink:href="#DejaVuSans-61" transform="translate(44.583984 0)"/>
      <use xlink:href="#DejaVuSans-72" transform="translate(105.863281 0)"/>
      <use xlink:href="#DejaVuSans-67" transform="translate(145.226562 0)"/>
      <use xlink:href="#DejaVuSans-65" transform="translate(208.703125 0)"/>
      <use xlink:href="#DejaVuSans-74" transform="translate(270.226562 0)"/>
      <use xlink:href="#DejaVuSans-3a" transform="translate(309.435547 0)"/>
      <use xlink:href="#DejaVuSans-20" transform="translate(343.126953 0)"/>
      <use xlink:href="#DejaVuSans-53" transform="translate(374.914062 0)"/>
      <use xlink:href="#DejaVuSans-61" transform="translate(438.390625 0)"/>
      <use xlink:href="#DejaVuSans-6d" transform="translate(499.669922 0)"/>
      <use xlink:href="#DejaVuSans-70" transform="translate(597.082031 0)"/>
      <use xlink:href="#DejaVuSans-6c" transform="translate(660.558594 0)"/>
      <use xlink:href="#DejaVuSans-65" transform="translate(688.341797 0)"/>
      <use xlink:href="#DejaVuSans-20" transform="translate(749.865234 0)"/>
      <use xlink:href="#DejaVuSans-31" transform="translate(781.652344 0)"/>
     </g>
    </g>
   </g>
  </g>
 </g>
 <defs>
  <clipPath id="p242bc76b49">
   <rect x="57.6" y="41.472" width="357.12" height="266.112"/>
  </clipPath>
 </defs>
</svg>
