<?xml version="1.0" encoding="utf-8" standalone="no"?>
<!DOCTYPE svg PUBLIC "-//W3C//DTD SVG 1.1//EN"
  "http://www.w3.org/Graphics/SVG/1.1/DTD/svg11.dtd">
<svg xmlns:xlink="http://www.w3.org/1999/xlink" width="460.8pt" height="345.6pt" viewBox="0 0 460.8 345.6" xmlns="http://www.w3.org/2000/svg" version="1.1">
 <metadata>
  <rdf:RDF xmlns:dc="http://purl.org/dc/elements/1.1/" xmlns:cc="http://creativecommons.org/ns#" xmlns:rdf="http://www.w3.org/1999/02/22-rdf-syntax-ns#">
   <cc:Work>
    <dc:type rdf:resource="http://purl.org/dc/dcmitype/StillImage"/>
    <dc:date>2025-05-21T02:32:48.846159</dc:date>
    <dc:format>image/svg+xml</dc:format>
    <dc:creator>
     <cc:Agent>
      <dc:title>Matplotlib v3.10.0, https://matplotlib.org/</dc:title>
     </cc:Agent>
    </dc:creator>
   </cc:Work>
  </rdf:RDF>
 </metadata>
 <defs>
  <style type="text/css">*{stroke-linejoin: round; stroke-linecap: butt}</style>
 </defs>
 <g id="figure_1">
  <g id="patch_1">
   <path d="M 0 345.6 
L 460.8 345.6 
L 460.8 0 
L 0 0 
z
" style="fill: #ffffff"/>
  </g>
  <g id="axes_1">
   <g id="patch_2">
    <path d="M 57.6 307.584 
L 414.72 307.584 
L 414.72 41.472 
L 57.6 41.472 
z
" style="fill: #ffffff"/>
   </g>
   <g id="matplotlib.axis_1">
    <g id="xtick_1">
     <g id="line2d_1">
      <path d="M 82.603683 307.584 
L 82.603683 41.472 
" clip-path="url(#p2210db9c00)" style="fill: none; stroke: #b0b0b0; stroke-opacity: 0.5; stroke-width: 0.8; stroke-linecap: square"/>
     </g>
     <g id="line2d_2">
      <defs>
       <path id="m0cca22851c" d="M 0 0 
L 0 3.5 
" style="stroke: #000000; stroke-width: 0.8"/>
      </defs>
      <g>
       <use xlink:href="#m0cca22851c" x="82.603683" y="307.584" style="stroke: #000000; stroke-width: 0.8"/>
      </g>
     </g>
     <g id="text_1">
      <!-- −0.8 -->
      <g transform="translate(70.462277 322.182437) scale(0.1 -0.1)">
       <defs>
        <path id="DejaVuSans-2212" d="M 678 2272 
L 4684 2272 
L 4684 1741 
L 678 1741 
L 678 2272 
z
" transform="scale(0.015625)"/>
        <path id="DejaVuSans-30" d="M 2034 4250 
Q 1547 4250 1301 3770 
Q 1056 3291 1056 2328 
Q 1056 1369 1301 889 
Q 1547 409 2034 409 
Q 2525 409 2770 889 
Q 3016 1369 3016 2328 
Q 3016 3291 2770 3770 
Q 2525 4250 2034 4250 
z
M 2034 4750 
Q 2819 4750 3233 4129 
Q 3647 3509 3647 2328 
Q 3647 1150 3233 529 
Q 2819 -91 2034 -91 
Q 1250 -91 836 529 
Q 422 1150 422 2328 
Q 422 3509 836 4129 
Q 1250 4750 2034 4750 
z
" transform="scale(0.015625)"/>
        <path id="DejaVuSans-2e" d="M 684 794 
L 1344 794 
L 1344 0 
L 684 0 
L 684 794 
z
" transform="scale(0.015625)"/>
        <path id="DejaVuSans-38" d="M 2034 2216 
Q 1584 2216 1326 1975 
Q 1069 1734 1069 1313 
Q 1069 891 1326 650 
Q 1584 409 2034 409 
Q 2484 409 2743 651 
Q 3003 894 3003 1313 
Q 3003 1734 2745 1975 
Q 2488 2216 2034 2216 
z
M 1403 2484 
Q 997 2584 770 2862 
Q 544 3141 544 3541 
Q 544 4100 942 4425 
Q 1341 4750 2034 4750 
Q 2731 4750 3128 4425 
Q 3525 4100 3525 3541 
Q 3525 3141 3298 2862 
Q 3072 2584 2669 2484 
Q 3125 2378 3379 2068 
Q 3634 1759 3634 1313 
Q 3634 634 3220 271 
Q 2806 -91 2034 -91 
Q 1263 -91 848 271 
Q 434 634 434 1313 
Q 434 1759 690 2068 
Q 947 2378 1403 2484 
z
M 1172 3481 
Q 1172 3119 1398 2916 
Q 1625 2713 2034 2713 
Q 2441 2713 2670 2916 
Q 2900 3119 2900 3481 
Q 2900 3844 2670 4047 
Q 2441 4250 2034 4250 
Q 1625 4250 1398 4047 
Q 1172 3844 1172 3481 
z
" transform="scale(0.015625)"/>
       </defs>
       <use xlink:href="#DejaVuSans-2212"/>
       <use xlink:href="#DejaVuSans-30" transform="translate(83.789062 0)"/>
       <use xlink:href="#DejaVuSans-2e" transform="translate(147.412109 0)"/>
       <use xlink:href="#DejaVuSans-38" transform="translate(179.199219 0)"/>
      </g>
     </g>
    </g>
    <g id="xtick_2">
     <g id="line2d_3">
      <path d="M 123.636696 307.584 
L 123.636696 41.472 
" clip-path="url(#p2210db9c00)" style="fill: none; stroke: #b0b0b0; stroke-opacity: 0.5; stroke-width: 0.8; stroke-linecap: square"/>
     </g>
     <g id="line2d_4">
      <g>
       <use xlink:href="#m0cca22851c" x="123.636696" y="307.584" style="stroke: #000000; stroke-width: 0.8"/>
      </g>
     </g>
     <g id="text_2">
      <!-- −0.6 -->
      <g transform="translate(111.495289 322.182437) scale(0.1 -0.1)">
       <defs>
        <path id="DejaVuSans-36" d="M 2113 2584 
Q 1688 2584 1439 2293 
Q 1191 2003 1191 1497 
Q 1191 994 1439 701 
Q 1688 409 2113 409 
Q 2538 409 2786 701 
Q 3034 994 3034 1497 
Q 3034 2003 2786 2293 
Q 2538 2584 2113 2584 
z
M 3366 4563 
L 3366 3988 
Q 3128 4100 2886 4159 
Q 2644 4219 2406 4219 
Q 1781 4219 1451 3797 
Q 1122 3375 1075 2522 
Q 1259 2794 1537 2939 
Q 1816 3084 2150 3084 
Q 2853 3084 3261 2657 
Q 3669 2231 3669 1497 
Q 3669 778 3244 343 
Q 2819 -91 2113 -91 
Q 1303 -91 875 529 
Q 447 1150 447 2328 
Q 447 3434 972 4092 
Q 1497 4750 2381 4750 
Q 2619 4750 2861 4703 
Q 3103 4656 3366 4563 
z
" transform="scale(0.015625)"/>
       </defs>
       <use xlink:href="#DejaVuSans-2212"/>
       <use xlink:href="#DejaVuSans-30" transform="translate(83.789062 0)"/>
       <use xlink:href="#DejaVuSans-2e" transform="translate(147.412109 0)"/>
       <use xlink:href="#DejaVuSans-36" transform="translate(179.199219 0)"/>
      </g>
     </g>
    </g>
    <g id="xtick_3">
     <g id="line2d_5">
      <path d="M 164.669708 307.584 
L 164.669708 41.472 
" clip-path="url(#p2210db9c00)" style="fill: none; stroke: #b0b0b0; stroke-opacity: 0.5; stroke-width: 0.8; stroke-linecap: square"/>
     </g>
     <g id="line2d_6">
      <g>
       <use xlink:href="#m0cca22851c" x="164.669708" y="307.584" style="stroke: #000000; stroke-width: 0.8"/>
      </g>
     </g>
     <g id="text_3">
      <!-- −0.4 -->
      <g transform="translate(152.528302 322.182437) scale(0.1 -0.1)">
       <defs>
        <path id="DejaVuSans-34" d="M 2419 4116 
L 825 1625 
L 2419 1625 
L 2419 4116 
z
M 2253 4666 
L 3047 4666 
L 3047 1625 
L 3713 1625 
L 3713 1100 
L 3047 1100 
L 3047 0 
L 2419 0 
L 2419 1100 
L 313 1100 
L 313 1709 
L 2253 4666 
z
" transform="scale(0.015625)"/>
       </defs>
       <use xlink:href="#DejaVuSans-2212"/>
       <use xlink:href="#DejaVuSans-30" transform="translate(83.789062 0)"/>
       <use xlink:href="#DejaVuSans-2e" transform="translate(147.412109 0)"/>
       <use xlink:href="#DejaVuSans-34" transform="translate(179.199219 0)"/>
      </g>
     </g>
    </g>
    <g id="xtick_4">
     <g id="line2d_7">
      <path d="M 205.702721 307.584 
L 205.702721 41.472 
" clip-path="url(#p2210db9c00)" style="fill: none; stroke: #b0b0b0; stroke-opacity: 0.5; stroke-width: 0.8; stroke-linecap: square"/>
     </g>
     <g id="line2d_8">
      <g>
       <use xlink:href="#m0cca22851c" x="205.702721" y="307.584" style="stroke: #000000; stroke-width: 0.8"/>
      </g>
     </g>
     <g id="text_4">
      <!-- −0.2 -->
      <g transform="translate(193.561315 322.182437) scale(0.1 -0.1)">
       <defs>
        <path id="DejaVuSans-32" d="M 1228 531 
L 3431 531 
L 3431 0 
L 469 0 
L 469 531 
Q 828 903 1448 1529 
Q 2069 2156 2228 2338 
Q 2531 2678 2651 2914 
Q 2772 3150 2772 3378 
Q 2772 3750 2511 3984 
Q 2250 4219 1831 4219 
Q 1534 4219 1204 4116 
Q 875 4013 500 3803 
L 500 4441 
Q 881 4594 1212 4672 
Q 1544 4750 1819 4750 
Q 2544 4750 2975 4387 
Q 3406 4025 3406 3419 
Q 3406 3131 3298 2873 
Q 3191 2616 2906 2266 
Q 2828 2175 2409 1742 
Q 1991 1309 1228 531 
z
" transform="scale(0.015625)"/>
       </defs>
       <use xlink:href="#DejaVuSans-2212"/>
       <use xlink:href="#DejaVuSans-30" transform="translate(83.789062 0)"/>
       <use xlink:href="#DejaVuSans-2e" transform="translate(147.412109 0)"/>
       <use xlink:href="#DejaVuSans-32" transform="translate(179.199219 0)"/>
      </g>
     </g>
    </g>
    <g id="xtick_5">
     <g id="line2d_9">
      <path d="M 246.735733 307.584 
L 246.735733 41.472 
" clip-path="url(#p2210db9c00)" style="fill: none; stroke: #b0b0b0; stroke-opacity: 0.5; stroke-width: 0.8; stroke-linecap: square"/>
     </g>
     <g id="line2d_10">
      <g>
       <use xlink:href="#m0cca22851c" x="246.735733" y="307.584" style="stroke: #000000; stroke-width: 0.8"/>
      </g>
     </g>
     <g id="text_5">
      <!-- 0.0 -->
      <g transform="translate(238.784171 322.182437) scale(0.1 -0.1)">
       <use xlink:href="#DejaVuSans-30"/>
       <use xlink:href="#DejaVuSans-2e" transform="translate(63.623047 0)"/>
       <use xlink:href="#DejaVuSans-30" transform="translate(95.410156 0)"/>
      </g>
     </g>
    </g>
    <g id="xtick_6">
     <g id="line2d_11">
      <path d="M 287.768746 307.584 
L 287.768746 41.472 
" clip-path="url(#p2210db9c00)" style="fill: none; stroke: #b0b0b0; stroke-opacity: 0.5; stroke-width: 0.8; stroke-linecap: square"/>
     </g>
     <g id="line2d_12">
      <g>
       <use xlink:href="#m0cca22851c" x="287.768746" y="307.584" style="stroke: #000000; stroke-width: 0.8"/>
      </g>
     </g>
     <g id="text_6">
      <!-- 0.2 -->
      <g transform="translate(279.817183 322.182437) scale(0.1 -0.1)">
       <use xlink:href="#DejaVuSans-30"/>
       <use xlink:href="#DejaVuSans-2e" transform="translate(63.623047 0)"/>
       <use xlink:href="#DejaVuSans-32" transform="translate(95.410156 0)"/>
      </g>
     </g>
    </g>
    <g id="xtick_7">
     <g id="line2d_13">
      <path d="M 328.801758 307.584 
L 328.801758 41.472 
" clip-path="url(#p2210db9c00)" style="fill: none; stroke: #b0b0b0; stroke-opacity: 0.5; stroke-width: 0.8; stroke-linecap: square"/>
     </g>
     <g id="line2d_14">
      <g>
       <use xlink:href="#m0cca22851c" x="328.801758" y="307.584" style="stroke: #000000; stroke-width: 0.8"/>
      </g>
     </g>
     <g id="text_7">
      <!-- 0.4 -->
      <g transform="translate(320.850196 322.182437) scale(0.1 -0.1)">
       <use xlink:href="#DejaVuSans-30"/>
       <use xlink:href="#DejaVuSans-2e" transform="translate(63.623047 0)"/>
       <use xlink:href="#DejaVuSans-34" transform="translate(95.410156 0)"/>
      </g>
     </g>
    </g>
    <g id="xtick_8">
     <g id="line2d_15">
      <path d="M 369.834771 307.584 
L 369.834771 41.472 
" clip-path="url(#p2210db9c00)" style="fill: none; stroke: #b0b0b0; stroke-opacity: 0.5; stroke-width: 0.8; stroke-linecap: square"/>
     </g>
     <g id="line2d_16">
      <g>
       <use xlink:href="#m0cca22851c" x="369.834771" y="307.584" style="stroke: #000000; stroke-width: 0.8"/>
      </g>
     </g>
     <g id="text_8">
      <!-- 0.6 -->
      <g transform="translate(361.883209 322.182437) scale(0.1 -0.1)">
       <use xlink:href="#DejaVuSans-30"/>
       <use xlink:href="#DejaVuSans-2e" transform="translate(63.623047 0)"/>
       <use xlink:href="#DejaVuSans-36" transform="translate(95.410156 0)"/>
      </g>
     </g>
    </g>
    <g id="xtick_9">
     <g id="line2d_17">
      <path d="M 410.867784 307.584 
L 410.867784 41.472 
" clip-path="url(#p2210db9c00)" style="fill: none; stroke: #b0b0b0; stroke-opacity: 0.5; stroke-width: 0.8; stroke-linecap: square"/>
     </g>
     <g id="line2d_18">
      <g>
       <use xlink:href="#m0cca22851c" x="410.867784" y="307.584" style="stroke: #000000; stroke-width: 0.8"/>
      </g>
     </g>
     <g id="text_9">
      <!-- 0.8 -->
      <g transform="translate(402.916221 322.182437) scale(0.1 -0.1)">
       <use xlink:href="#DejaVuSans-30"/>
       <use xlink:href="#DejaVuSans-2e" transform="translate(63.623047 0)"/>
       <use xlink:href="#DejaVuSans-38" transform="translate(95.410156 0)"/>
      </g>
     </g>
    </g>
    <g id="text_10">
     <!-- Index -->
     <g transform="translate(222.393594 335.860562) scale(0.1 -0.1)">
      <defs>
       <path id="DejaVuSans-49" d="M 628 4666 
L 1259 4666 
L 1259 0 
L 628 0 
L 628 4666 
z
" transform="scale(0.015625)"/>
       <path id="DejaVuSans-6e" d="M 3513 2113 
L 3513 0 
L 2938 0 
L 2938 2094 
Q 2938 2591 2744 2837 
Q 2550 3084 2163 3084 
Q 1697 3084 1428 2787 
Q 1159 2491 1159 1978 
L 1159 0 
L 581 0 
L 581 3500 
L 1159 3500 
L 1159 2956 
Q 1366 3272 1645 3428 
Q 1925 3584 2291 3584 
Q 2894 3584 3203 3211 
Q 3513 2838 3513 2113 
z
" transform="scale(0.015625)"/>
       <path id="DejaVuSans-64" d="M 2906 2969 
L 2906 4863 
L 3481 4863 
L 3481 0 
L 2906 0 
L 2906 525 
Q 2725 213 2448 61 
Q 2172 -91 1784 -91 
Q 1150 -91 751 415 
Q 353 922 353 1747 
Q 353 2572 751 3078 
Q 1150 3584 1784 3584 
Q 2172 3584 2448 3432 
Q 2725 3281 2906 2969 
z
M 947 1747 
Q 947 1113 1208 752 
Q 1469 391 1925 391 
Q 2381 391 2643 752 
Q 2906 1113 2906 1747 
Q 2906 2381 2643 2742 
Q 2381 3103 1925 3103 
Q 1469 3103 1208 2742 
Q 947 2381 947 1747 
z
" transform="scale(0.015625)"/>
       <path id="DejaVuSans-65" d="M 3597 1894 
L 3597 1613 
L 953 1613 
Q 991 1019 1311 708 
Q 1631 397 2203 397 
Q 2534 397 2845 478 
Q 3156 559 3463 722 
L 3463 178 
Q 3153 47 2828 -22 
Q 2503 -91 2169 -91 
Q 1331 -91 842 396 
Q 353 884 353 1716 
Q 353 2575 817 3079 
Q 1281 3584 2069 3584 
Q 2775 3584 3186 3129 
Q 3597 2675 3597 1894 
z
M 3022 2063 
Q 3016 2534 2758 2815 
Q 2500 3097 2075 3097 
Q 1594 3097 1305 2825 
Q 1016 2553 972 2059 
L 3022 2063 
z
" transform="scale(0.015625)"/>
       <path id="DejaVuSans-78" d="M 3513 3500 
L 2247 1797 
L 3578 0 
L 2900 0 
L 1881 1375 
L 863 0 
L 184 0 
L 1544 1831 
L 300 3500 
L 978 3500 
L 1906 2253 
L 2834 3500 
L 3513 3500 
z
" transform="scale(0.015625)"/>
      </defs>
      <use xlink:href="#DejaVuSans-49"/>
      <use xlink:href="#DejaVuSans-6e" transform="translate(29.492188 0)"/>
      <use xlink:href="#DejaVuSans-64" transform="translate(92.871094 0)"/>
      <use xlink:href="#DejaVuSans-65" transform="translate(156.347656 0)"/>
      <use xlink:href="#DejaVuSans-78" transform="translate(216.121094 0)"/>
     </g>
    </g>
   </g>
   <g id="matplotlib.axis_2">
    <g id="ytick_1">
     <g id="line2d_19">
      <path d="M 57.6 298.560675 
L 414.72 298.560675 
" clip-path="url(#p2210db9c00)" style="fill: none; stroke: #b0b0b0; stroke-opacity: 0.5; stroke-width: 0.8; stroke-linecap: square"/>
     </g>
     <g id="line2d_20">
      <defs>
       <path id="m2d00dedb06" d="M 0 0 
L -3.5 0 
" style="stroke: #000000; stroke-width: 0.8"/>
      </defs>
      <g>
       <use xlink:href="#m2d00dedb06" x="57.6" y="298.560675" style="stroke: #000000; stroke-width: 0.8"/>
      </g>
     </g>
     <g id="text_11">
      <!-- −0.8 -->
      <g transform="translate(26.317187 302.359893) scale(0.1 -0.1)">
       <use xlink:href="#DejaVuSans-2212"/>
       <use xlink:href="#DejaVuSans-30" transform="translate(83.789062 0)"/>
       <use xlink:href="#DejaVuSans-2e" transform="translate(147.412109 0)"/>
       <use xlink:href="#DejaVuSans-38" transform="translate(179.199219 0)"/>
      </g>
     </g>
    </g>
    <g id="ytick_2">
     <g id="line2d_21">
      <path d="M 57.6 266.120224 
L 414.72 266.120224 
" clip-path="url(#p2210db9c00)" style="fill: none; stroke: #b0b0b0; stroke-opacity: 0.5; stroke-width: 0.8; stroke-linecap: square"/>
     </g>
     <g id="line2d_22">
      <g>
       <use xlink:href="#m2d00dedb06" x="57.6" y="266.120224" style="stroke: #000000; stroke-width: 0.8"/>
      </g>
     </g>
     <g id="text_12">
      <!-- −0.6 -->
      <g transform="translate(26.317187 269.919443) scale(0.1 -0.1)">
       <use xlink:href="#DejaVuSans-2212"/>
       <use xlink:href="#DejaVuSans-30" transform="translate(83.789062 0)"/>
       <use xlink:href="#DejaVuSans-2e" transform="translate(147.412109 0)"/>
       <use xlink:href="#DejaVuSans-36" transform="translate(179.199219 0)"/>
      </g>
     </g>
    </g>
    <g id="ytick_3">
     <g id="line2d_23">
      <path d="M 57.6 233.679774 
L 414.72 233.679774 
" clip-path="url(#p2210db9c00)" style="fill: none; stroke: #b0b0b0; stroke-opacity: 0.5; stroke-width: 0.8; stroke-linecap: square"/>
     </g>
     <g id="line2d_24">
      <g>
       <use xlink:href="#m2d00dedb06" x="57.6" y="233.679774" style="stroke: #000000; stroke-width: 0.8"/>
      </g>
     </g>
     <g id="text_13">
      <!-- −0.4 -->
      <g transform="translate(26.317187 237.478993) scale(0.1 -0.1)">
       <use xlink:href="#DejaVuSans-2212"/>
       <use xlink:href="#DejaVuSans-30" transform="translate(83.789062 0)"/>
       <use xlink:href="#DejaVuSans-2e" transform="translate(147.412109 0)"/>
       <use xlink:href="#DejaVuSans-34" transform="translate(179.199219 0)"/>
      </g>
     </g>
    </g>
    <g id="ytick_4">
     <g id="line2d_25">
      <path d="M 57.6 201.239324 
L 414.72 201.239324 
" clip-path="url(#p2210db9c00)" style="fill: none; stroke: #b0b0b0; stroke-opacity: 0.5; stroke-width: 0.8; stroke-linecap: square"/>
     </g>
     <g id="line2d_26">
      <g>
       <use xlink:href="#m2d00dedb06" x="57.6" y="201.239324" style="stroke: #000000; stroke-width: 0.8"/>
      </g>
     </g>
     <g id="text_14">
      <!-- −0.2 -->
      <g transform="translate(26.317187 205.038543) scale(0.1 -0.1)">
       <use xlink:href="#DejaVuSans-2212"/>
       <use xlink:href="#DejaVuSans-30" transform="translate(83.789062 0)"/>
       <use xlink:href="#DejaVuSans-2e" transform="translate(147.412109 0)"/>
       <use xlink:href="#DejaVuSans-32" transform="translate(179.199219 0)"/>
      </g>
     </g>
    </g>
    <g id="ytick_5">
     <g id="line2d_27">
      <path d="M 57.6 168.798874 
L 414.72 168.798874 
" clip-path="url(#p2210db9c00)" style="fill: none; stroke: #b0b0b0; stroke-opacity: 0.5; stroke-width: 0.8; stroke-linecap: square"/>
     </g>
     <g id="line2d_28">
      <g>
       <use xlink:href="#m2d00dedb06" x="57.6" y="168.798874" style="stroke: #000000; stroke-width: 0.8"/>
      </g>
     </g>
     <g id="text_15">
      <!-- 0.0 -->
      <g transform="translate(34.696875 172.598093) scale(0.1 -0.1)">
       <use xlink:href="#DejaVuSans-30"/>
       <use xlink:href="#DejaVuSans-2e" transform="translate(63.623047 0)"/>
       <use xlink:href="#DejaVuSans-30" transform="translate(95.410156 0)"/>
      </g>
     </g>
    </g>
    <g id="ytick_6">
     <g id="line2d_29">
      <path d="M 57.6 136.358424 
L 414.72 136.358424 
" clip-path="url(#p2210db9c00)" style="fill: none; stroke: #b0b0b0; stroke-opacity: 0.5; stroke-width: 0.8; stroke-linecap: square"/>
     </g>
     <g id="line2d_30">
      <g>
       <use xlink:href="#m2d00dedb06" x="57.6" y="136.358424" style="stroke: #000000; stroke-width: 0.8"/>
      </g>
     </g>
     <g id="text_16">
      <!-- 0.2 -->
      <g transform="translate(34.696875 140.157643) scale(0.1 -0.1)">
       <use xlink:href="#DejaVuSans-30"/>
       <use xlink:href="#DejaVuSans-2e" transform="translate(63.623047 0)"/>
       <use xlink:href="#DejaVuSans-32" transform="translate(95.410156 0)"/>
      </g>
     </g>
    </g>
    <g id="ytick_7">
     <g id="line2d_31">
      <path d="M 57.6 103.917974 
L 414.72 103.917974 
" clip-path="url(#p2210db9c00)" style="fill: none; stroke: #b0b0b0; stroke-opacity: 0.5; stroke-width: 0.8; stroke-linecap: square"/>
     </g>
     <g id="line2d_32">
      <g>
       <use xlink:href="#m2d00dedb06" x="57.6" y="103.917974" style="stroke: #000000; stroke-width: 0.8"/>
      </g>
     </g>
     <g id="text_17">
      <!-- 0.4 -->
      <g transform="translate(34.696875 107.717193) scale(0.1 -0.1)">
       <use xlink:href="#DejaVuSans-30"/>
       <use xlink:href="#DejaVuSans-2e" transform="translate(63.623047 0)"/>
       <use xlink:href="#DejaVuSans-34" transform="translate(95.410156 0)"/>
      </g>
     </g>
    </g>
    <g id="ytick_8">
     <g id="line2d_33">
      <path d="M 57.6 71.477524 
L 414.72 71.477524 
" clip-path="url(#p2210db9c00)" style="fill: none; stroke: #b0b0b0; stroke-opacity: 0.5; stroke-width: 0.8; stroke-linecap: square"/>
     </g>
     <g id="line2d_34">
      <g>
       <use xlink:href="#m2d00dedb06" x="57.6" y="71.477524" style="stroke: #000000; stroke-width: 0.8"/>
      </g>
     </g>
     <g id="text_18">
      <!-- 0.6 -->
      <g transform="translate(34.696875 75.276742) scale(0.1 -0.1)">
       <use xlink:href="#DejaVuSans-30"/>
       <use xlink:href="#DejaVuSans-2e" transform="translate(63.623047 0)"/>
       <use xlink:href="#DejaVuSans-36" transform="translate(95.410156 0)"/>
      </g>
     </g>
    </g>
    <g id="text_19">
     <!-- Value -->
     <g transform="translate(20.2375 188.25925) rotate(-90) scale(0.1 -0.1)">
      <defs>
       <path id="DejaVuSans-56" d="M 1831 0 
L 50 4666 
L 709 4666 
L 2188 738 
L 3669 4666 
L 4325 4666 
L 2547 0 
L 1831 0 
z
" transform="scale(0.015625)"/>
       <path id="DejaVuSans-61" d="M 2194 1759 
Q 1497 1759 1228 1600 
Q 959 1441 959 1056 
Q 959 750 1161 570 
Q 1363 391 1709 391 
Q 2188 391 2477 730 
Q 2766 1069 2766 1631 
L 2766 1759 
L 2194 1759 
z
M 3341 1997 
L 3341 0 
L 2766 0 
L 2766 531 
Q 2569 213 2275 61 
Q 1981 -91 1556 -91 
Q 1019 -91 701 211 
Q 384 513 384 1019 
Q 384 1609 779 1909 
Q 1175 2209 1959 2209 
L 2766 2209 
L 2766 2266 
Q 2766 2663 2505 2880 
Q 2244 3097 1772 3097 
Q 1472 3097 1187 3025 
Q 903 2953 641 2809 
L 641 3341 
Q 956 3463 1253 3523 
Q 1550 3584 1831 3584 
Q 2591 3584 2966 3190 
Q 3341 2797 3341 1997 
z
" transform="scale(0.015625)"/>
       <path id="DejaVuSans-6c" d="M 603 4863 
L 1178 4863 
L 1178 0 
L 603 0 
L 603 4863 
z
" transform="scale(0.015625)"/>
       <path id="DejaVuSans-75" d="M 544 1381 
L 544 3500 
L 1119 3500 
L 1119 1403 
Q 1119 906 1312 657 
Q 1506 409 1894 409 
Q 2359 409 2629 706 
Q 2900 1003 2900 1516 
L 2900 3500 
L 3475 3500 
L 3475 0 
L 2900 0 
L 2900 538 
Q 2691 219 2414 64 
Q 2138 -91 1772 -91 
Q 1169 -91 856 284 
Q 544 659 544 1381 
z
M 1991 3584 
L 1991 3584 
z
" transform="scale(0.015625)"/>
      </defs>
      <use xlink:href="#DejaVuSans-56"/>
      <use xlink:href="#DejaVuSans-61" transform="translate(60.658203 0)"/>
      <use xlink:href="#DejaVuSans-6c" transform="translate(121.9375 0)"/>
      <use xlink:href="#DejaVuSans-75" transform="translate(149.720703 0)"/>
      <use xlink:href="#DejaVuSans-65" transform="translate(213.099609 0)"/>
     </g>
    </g>
   </g>
   <g id="line2d_35">
    <path d="M 263.459724 168.775739 
L 254.388695 168.234368 
L 247.370513 167.691683 
L 252.34012 166.616738 
L 253.073626 166.081659 
L 254.048706 165.006342 
L 256.511498 163.414474 
L 257.440651 162.353403 
L 259.876193 160.784543 
L 260.736222 159.738268 
L 261.471087 159.217768 
L 263.145318 158.187678 
L 263.972672 157.150949 
L 264.646509 156.633387 
L 266.380365 155.608703 
L 267.878626 154.06314 
L 269.609813 153.043124 
L 271.103438 151.505101 
L 272.876785 150.491751 
L 273.391856 149.984907 
L 273.748212 149.475251 
L 274.297816 148.966352 
L 276.062538 147.960588 
L 276.61003 147.45829 
L 276.963555 146.953061 
L 277.463236 146.447809 
L 279.173108 145.447416 
L 279.750387 144.947501 
L 280.592317 143.940053 
L 282.873815 142.439061 
L 283.70711 141.427592 
L 286.034472 139.916127 
L 286.878512 138.896358 
L 289.265499 137.372187 
L 290.102935 136.344912 
L 290.861004 135.831894 
L 292.560369 134.81263 
L 293.383308 133.784111 
L 294.111579 133.270904 
L 295.851314 132.253948 
L 296.646635 131.230411 
L 297.34078 130.719981 
L 299.126159 129.711434 
L 300.516628 128.193673 
L 302.321763 127.196858 
L 302.776729 126.698646 
L 303.079049 126.198075 
L 303.644221 125.698969 
L 305.427123 124.713876 
L 305.907164 124.221673 
L 306.198564 123.726613 
L 306.713464 123.232187 
L 308.491377 122.255495 
L 309.002424 121.767435 
L 309.285074 121.275827 
L 309.748815 120.78387 
L 312.120986 119.327182 
L 312.818602 118.349519 
L 315.164983 116.896944 
L 315.910187 115.923434 
L 318.25532 114.479986 
L 318.915388 113.510894 
L 319.657162 113.027933 
L 320.618871 112.549111 
L 321.310078 112.070825 
L 321.971411 111.104884 
L 322.655625 110.62248 
L 324.322653 109.665671 
L 324.999431 108.699049 
L 325.658123 108.215509 
L 327.363947 107.25622 
L 328.016231 106.284754 
L 328.636506 105.797153 
L 330.439519 104.830454 
L 331.720717 103.364296 
L 333.542929 102.394367 
L 334.003942 101.907482 
L 334.251746 101.416448 
L 334.804628 100.925541 
L 336.684542 99.95627 
L 337.180328 99.471661 
L 337.411152 98.983161 
L 337.890686 98.494806 
L 339.794678 97.532839 
L 340.312519 97.053364 
L 340.523698 96.570012 
L 340.933362 96.085983 
L 343.399689 94.659662 
L 343.956613 93.704646 
L 346.400463 92.294379 
L 346.921202 91.348741 
L 347.688534 90.878649 
L 348.712554 90.414246 
L 349.381072 89.95081 
L 349.843589 89.012298 
L 350.563718 88.544415 
L 351.607409 88.082284 
L 352.337199 87.6217 
L 352.784198 86.688235 
L 353.445836 86.221889 
L 355.31135 85.30424 
L 355.567311 84.842283 
L 355.696337 84.375319 
L 356.286315 83.909794 
L 358.242469 82.994872 
L 358.543261 82.535062 
L 358.630746 82.069383 
L 359.134242 81.604284 
L 361.198192 80.693016 
L 361.53781 80.236242 
L 361.553182 79.772177 
L 361.941752 79.306614 
L 364.074514 78.393925 
L 364.507695 77.93776 
L 364.508306 77.473676 
L 364.796355 77.006914 
L 366.973202 76.092911 
L 367.49421 75.637538 
L 367.451703 75.173067 
L 367.633508 74.703541 
L 368.543844 74.239476 
L 369.853987 73.78391 
L 370.488747 73.328209 
L 370.51543 72.391553 
L 371.356221 71.924984 
L 372.739627 71.468838 
L 373.499329 71.014838 
L 373.396411 70.079313 
L 374.134174 69.611256 
L 375.568611 69.155622 
L 376.494294 68.704813 
L 376.502842 68.244799 
L 376.275203 67.773919 
L 376.88328 67.306152 
L 379.440075 66.409637 
L 379.487572 65.956846 
L 379.103991 65.48963 
L 379.536927 65.022704 
L 382.308045 64.136031 
L 382.412662 63.691255 
L 381.894271 63.227886 
L 382.146808 62.761434 
L 385.07416 61.886924 
L 385.154736 61.452018 
L 384.527264 60.991986 
L 384.709926 60.522836 
L 385.851801 60.076996 
L 387.658434 59.659734 
L 387.466418 59.237697 
L 386.763666 58.779859 
L 387.268556 58.301921 
L 387.951631 57.85202 
L 389.975191 57.44751 
L 388.619776 56.58437 
L 389.37823 56.084118 
L 389.638043 55.624859 
L 393.097299 54.887035 
L 390.320067 54.401189 
L 389.273234 53.835465 
L 386.235125 53.568 
L 385.609463 54.230694 
L 394.077815 56.38838 
L 398.487273 60.214098 
L 387.475161 65.394458 
L 367.356049 71.294388 
L 346.299062 77.223207 
L 340.222949 82.643904 
L 330.883381 87.301099 
L 328.852026 91.298564 
L 317.489933 95.083149 
L 318.741476 99.236641 
L 310.573573 104.107079 
L 307.267122 109.530744 
L 296.351465 114.928494 
L 295.921452 119.767274 
L 284.120559 124.011418 
L 273.440765 128.141403 
L 281.471772 132.703955 
L 272.278343 137.813666 
L 267.780528 143.08004 
L 261.373929 148.011432 
L 246.107887 152.478744 
L 238.13543 156.78917 
L 246.263265 161.339805 
L 236.194273 166.236677 
L 231.860499 171.250883 
L 219.433579 176.098032 
L 210.838222 180.710279 
L 203.286167 185.239975 
L 203.348158 189.856754 
L 199.786749 194.59242 
L 179.430567 204.124961 
L 171.907983 208.844905 
L 161.302302 218.174467 
L 156.332197 222.781581 
L 150.382652 227.420306 
L 149.596738 232.152718 
L 142.843706 236.943308 
L 134.693107 241.66918 
L 121.001973 250.788306 
L 120.799831 255.422675 
L 119.023 260.203089 
L 104.246953 264.983928 
L 98.100151 269.599203 
L 89.697394 274.089441 
L 90.419945 278.685438 
L 89.484956 283.496461 
L 78.537608 288.205873 
L 83.788357 292.126898 
L 79.67299 294.618614 
L 76.188127 295.488 
L 73.832727 295.031341 
L 75.762467 293.756295 
L 81.726412 292.127043 
L 89.480272 290.551409 
L 92.32969 289.456323 
L 100.345015 289.16841 
L 99.495896 289.607086 
L 97.85357 290.15707 
L 98.12308 290.022598 
L 91.39859 288.86993 
L 87.932853 287.168476 
L 92.803385 285.837617 
L 103.762839 285.461822 
L 104.182213 285.786706 
L 106.829783 285.968638 
L 104.340809 285.338574 
L 97.829662 283.969004 
L 94.071535 282.548194 
L 104.407896 281.733171 
L 109.214715 281.662807 
L 110.128976 281.340263 
L 103.649295 280.449453 
L 102.168291 279.281442 
L 104.970286 278.297732 
L 109.112813 277.748608 
L 112.864545 277.520008 
L 112.574062 277.275939 
L 109.644998 276.738756 
L 109.458056 275.886076 
L 109.529643 274.938582 
L 111.722535 274.170043 
L 114.558122 273.691748 
L 117.379292 273.37542 
L 117.817914 272.9718 
L 115.06267 272.323628 
L 114.667215 271.490719 
L 114.464095 270.682252 
L 117.117474 270.064205 
L 121.25363 269.620985 
L 121.110051 269.190343 
L 118.549893 267.907843 
L 121.667538 266.497774 
L 125.58448 265.947181 
L 126.658841 265.439456 
L 127.027404 264.889684 
L 124.256385 264.266465 
L 125.363714 263.601268 
L 125.36073 262.949518 
L 129.342914 262.34725 
L 130.549712 261.791871 
L 130.426335 261.250211 
L 130.560155 260.683869 
L 130.009493 260.077443 
L 130.466103 259.451024 
L 131.625124 258.84368 
L 134.661838 258.278343 
L 135.447783 257.739961 
L 135.740711 257.190605 
L 135.016021 256.607972 
L 134.817816 256.006661 
L 135.889095 255.420132 
L 138.976107 254.863545 
L 139.566684 254.319719 
L 139.952784 253.76146 
L 139.27049 253.182452 
L 139.122705 252.600564 
L 141.407007 252.033796 
L 143.040627 251.478853 
L 143.526868 250.917635 
L 143.578816 250.339845 
L 143.331134 249.753123 
L 144.433235 249.171027 
L 146.201384 248.595954 
L 147.041031 248.018552 
L 147.426935 247.430955 
L 147.551424 246.835473 
L 148.342003 246.238449 
L 149.582051 245.641527 
L 150.509403 245.041869 
L 151.081301 244.439982 
L 151.843625 243.840943 
L 153.845454 242.650226 
L 154.423185 242.044656 
L 154.592266 241.43388 
L 155.637149 240.832017 
L 157.467371 240.248017 
L 158.350302 239.673558 
L 158.788484 239.091099 
L 158.717906 237.89464 
L 162.29232 236.74581 
L 162.801325 236.183905 
L 163.105816 235.609722 
L 162.875358 235.023749 
L 163.358377 234.439835 
L 165.227199 233.867847 
L 166.399359 233.303859 
L 166.900153 232.737048 
L 167.40522 231.585724 
L 170.30293 229.866346 
L 170.845405 229.292815 
L 171.59171 228.722379 
L 173.320298 227.587132 
L 174.28087 226.437843 
L 175.27929 225.868629 
L 176.542383 225.308388 
L 177.316374 224.750379 
L 177.77208 224.186343 
L 177.991666 223.616641 
L 178.652846 223.049854 
L 180.02107 222.492295 
L 181.029163 221.940615 
L 181.565078 221.386667 
L 181.85328 220.827837 
L 182.322174 220.269678 
L 184.473934 219.171572 
L 185.106236 218.62414 
L 186.007852 217.523466 
L 187.929729 216.437058 
L 188.552676 215.892585 
L 189.489744 214.794749 
L 191.449322 213.70863 
L 192.080303 213.161319 
L 192.89589 212.049034 
L 195.070646 210.948085 
L 195.768546 210.395172 
L 196.499666 209.265088 
L 197.408772 208.700438 
L 198.656384 208.141175 
L 199.494631 207.581243 
L 200.00857 207.014168 
L 200.345321 206.441025 
L 201.047051 205.868572 
L 203.164567 204.73487 
L 204.991081 203.027147 
L 206.830637 201.900092 
L 207.958146 200.770059 
L 210.585606 199.103183 
L 211.497678 197.990309 
L 212.275466 197.4369 
L 213.386977 196.890877 
L 214.224435 196.348323 
L 214.721707 195.802738 
L 215.06998 195.252916 
L 215.649878 194.70395 
L 217.626479 193.620391 
L 218.232556 193.078531 
L 219.186524 191.986899 
L 221.026034 190.905368 
L 221.6724 190.36401 
L 222.71593 189.274655 
L 224.570142 188.19778 
L 225.209538 187.659952 
L 226.23032 186.579272 
L 228.094409 185.514163 
L 228.720939 184.983433 
L 229.643025 183.915732 
L 232.145334 182.338469 
L 233.026045 181.283582 
L 235.425135 179.716734 
L 236.314838 178.662791 
L 237.071156 178.136672 
L 238.757731 177.090565 
L 239.676441 176.031388 
L 240.380388 175.500977 
L 242.091184 174.444597 
L 243.777596 172.838775 
L 245.535599 171.772853 
L 247.177396 170.152363 
L 248.156283 169.614729 
L 246.94367 168.809416 
L 246.94367 168.809416 
" clip-path="url(#p2210db9c00)" style="fill: none; stroke: #1f77b4; stroke-width: 1.5; stroke-linecap: square"/>
   </g>
   <g id="line2d_36">
    <path d="M 248.540111 168.775739 
L 253.698857 164.472288 
L 256.267392 162.353403 
L 263.530695 156.633387 
L 267.552545 153.552185 
L 269.494302 152.017787 
L 283.389384 140.922886 
L 285.361393 139.407445 
L 287.309721 137.880207 
L 290.509362 135.322248 
L 294.919703 131.743248 
L 296.765168 130.214552 
L 298.593161 128.698923 
L 302.313783 125.698969 
L 308.032406 121.275827 
L 309.961259 119.811858 
L 313.669126 116.896944 
L 318.413017 113.027933 
L 320.240316 111.589136 
L 322.036407 110.143822 
L 323.811086 108.699049 
L 328.094807 105.313178 
L 329.912342 103.854193 
L 334.155683 100.439163 
L 335.942964 98.983161 
L 337.122651 98.011536 
L 338.915605 96.570012 
L 340.07613 95.606803 
L 341.901454 94.182724 
L 343.04056 93.230764 
L 344.906356 91.82257 
L 346.043896 90.878649 
L 347.901168 89.483101 
L 349.021441 88.544415 
L 350.900169 87.156891 
L 351.991454 86.221889 
L 353.84979 84.842283 
L 354.891389 83.909794 
L 357.227578 82.069383 
L 358.359071 81.146233 
L 359.580116 80.236242 
L 361.169369 78.847394 
L 362.432151 77.93776 
L 364.003819 76.54635 
L 365.304645 75.637538 
L 366.85978 74.239476 
L 368.193 73.328209 
L 370.41041 71.468838 
L 371.611069 70.551402 
L 372.562762 69.611256 
L 374.486229 68.244799 
L 375.354962 67.306152 
L 377.362379 65.956846 
L 378.143762 65.022704 
L 380.561504 63.227886 
L 380.894996 62.761434 
L 381.524864 62.314733 
L 383.104775 61.452018 
L 384.213033 60.076996 
L 386.049981 59.237697 
L 386.36634 58.779859 
L 386.380012 58.301921 
L 386.810074 57.85202 
L 389.085999 57.043475 
L 389.400963 56.58437 
L 388.972821 56.084118 
L 389.030993 55.624859 
L 390.55146 55.251964 
L 392.684724 54.887035 
L 392.870785 54.401189 
L 388.870197 53.835465 
L 380.827664 53.568 
L 371.312637 54.230694 
L 363.334342 56.38838 
L 358.337083 60.214098 
L 355.912175 65.394458 
L 354.875565 71.294388 
L 354.03387 77.223207 
L 351.930628 82.643904 
L 346.705107 87.301099 
L 337.294263 91.298564 
L 325.182692 95.083149 
L 314.351077 99.236641 
L 308.430037 104.107079 
L 307.298379 109.530744 
L 306.715689 114.928494 
L 301.940365 119.767274 
L 292.091202 124.011418 
L 280.89269 128.141403 
L 272.969348 132.703955 
L 269.43837 137.813666 
L 267.229066 143.08004 
L 262.561766 148.011432 
L 254.712232 152.478744 
L 246.20883 156.78917 
L 239.706297 161.339805 
L 230.720079 171.250883 
L 224.558467 176.098032 
L 217.309689 180.710279 
L 210.594585 185.239975 
L 205.057774 189.856754 
L 199.866114 194.59242 
L 194.060499 199.37067 
L 187.774692 204.124961 
L 181.79139 208.844905 
L 176.260369 213.532576 
L 170.464894 218.174467 
L 157.425072 227.420306 
L 151.860018 232.152718 
L 147.111524 236.943308 
L 141.780743 241.66918 
L 134.944067 246.256944 
L 127.574753 250.788306 
L 121.613376 255.422675 
L 113.279309 264.983928 
L 106.628204 269.599203 
L 98.014598 274.089441 
L 90.977088 278.685438 
L 88.941056 283.496461 
L 91.786512 288.205873 
L 95.938431 292.126898 
L 97.858559 294.618614 
L 97.023039 295.488 
L 95.240534 295.031341 
L 93.602218 293.756295 
L 91.128945 292.127043 
L 86.896035 290.551409 
L 82.805064 289.456323 
L 82.925286 289.16841 
L 98.559428 290.15707 
L 104.122231 290.022598 
L 101.880046 288.86993 
L 89.045318 285.837617 
L 90.910062 285.461822 
L 98.703837 285.786706 
L 106.097523 285.968638 
L 107.769321 285.338574 
L 103.897552 283.969004 
L 99.248116 282.548194 
L 98.407962 281.733171 
L 101.979258 281.60156 
L 106.864794 281.662807 
L 109.572383 281.340263 
L 109.097111 280.449453 
L 107.127456 279.281442 
L 106.109483 278.297732 
L 107.245807 277.748608 
L 112.459246 277.275939 
L 113.581409 276.738756 
L 113.16075 275.886076 
L 112.267523 274.938582 
L 112.283445 274.170043 
L 113.794067 273.691748 
L 116.114603 273.37542 
L 117.899236 272.9718 
L 118.344767 272.323628 
L 117.890614 271.490719 
L 117.750717 270.682252 
L 118.746801 270.064205 
L 122.262529 269.190343 
L 123.029715 268.622782 
L 123.113201 267.159655 
L 123.811978 266.497774 
L 127.553609 264.889684 
L 128.047897 264.266465 
L 128.275291 263.601268 
L 128.650507 262.949518 
L 129.454868 262.34725 
L 131.814267 261.250211 
L 132.603121 260.683869 
L 133.210587 259.451024 
L 133.866502 258.84368 
L 136.966831 257.190605 
L 137.577194 256.006661 
L 138.279433 255.420132 
L 140.497784 254.319719 
L 141.2461 253.76146 
L 142.153721 252.600564 
L 142.890066 252.033796 
L 145.556914 250.339845 
L 149.259236 247.430955 
L 151.947197 245.641527 
L 153.769489 243.840943 
L 155.747214 242.650226 
L 156.46173 242.044656 
L 157.389676 240.832017 
L 158.123593 240.248017 
L 159.900448 239.091099 
L 162.422251 236.74581 
L 164.027689 235.609722 
L 166.14766 233.867847 
L 171.3915 229.866346 
L 172.840863 228.722379 
L 174.410581 227.587132 
L 176.444632 225.868629 
L 178.683864 224.186343 
L 179.981749 223.049854 
L 182.176156 221.386667 
L 183.45316 220.269678 
L 185.587274 218.62414 
L 186.856084 217.523466 
L 189.058991 215.892585 
L 190.307929 214.794749 
L 193.304637 212.606202 
L 194.670483 211.496687 
L 196.967288 209.832779 
L 198.341092 208.700438 
L 200.564989 207.014168 
L 205.392604 203.027147 
L 207.484721 201.335243 
L 208.750465 200.209583 
L 210.851631 198.547771 
L 212.126372 197.4369 
L 214.915206 195.252916 
L 217.084062 193.620391 
L 228.692153 184.449602 
L 229.977749 183.38659 
L 231.974978 181.811522 
L 233.256621 180.758995 
L 235.285255 179.191023 
L 236.573296 178.136672 
L 238.643666 176.562717 
L 240.674583 174.973156 
L 242.697057 173.374672 
L 248.49908 168.809416 
L 248.49908 168.809416 
" clip-path="url(#p2210db9c00)" style="fill: none; stroke: #ff7f0e; stroke-opacity: 0.5; stroke-width: 1.5; stroke-linecap: square"/>
   </g>
   <g id="patch_3">
    <path d="M 57.6 307.584 
L 57.6 41.472 
" style="fill: none; stroke: #000000; stroke-width: 0.8; stroke-linejoin: miter; stroke-linecap: square"/>
   </g>
   <g id="patch_4">
    <path d="M 414.72 307.584 
L 414.72 41.472 
" style="fill: none; stroke: #000000; stroke-width: 0.8; stroke-linejoin: miter; stroke-linecap: square"/>
   </g>
   <g id="patch_5">
    <path d="M 57.6 307.584 
L 414.72 307.584 
" style="fill: none; stroke: #000000; stroke-width: 0.8; stroke-linejoin: miter; stroke-linecap: square"/>
   </g>
   <g id="patch_6">
    <path d="M 57.6 41.472 
L 414.72 41.472 
" style="fill: none; stroke: #000000; stroke-width: 0.8; stroke-linejoin: miter; stroke-linecap: square"/>
   </g>
   <g id="text_20">
    <!-- Compare - Epoch 1200 -->
    <g transform="translate(167.416875 35.472) scale(0.12 -0.12)">
     <defs>
      <path id="DejaVuSans-43" d="M 4122 4306 
L 4122 3641 
Q 3803 3938 3442 4084 
Q 3081 4231 2675 4231 
Q 1875 4231 1450 3742 
Q 1025 3253 1025 2328 
Q 1025 1406 1450 917 
Q 1875 428 2675 428 
Q 3081 428 3442 575 
Q 3803 722 4122 1019 
L 4122 359 
Q 3791 134 3420 21 
Q 3050 -91 2638 -91 
Q 1578 -91 968 557 
Q 359 1206 359 2328 
Q 359 3453 968 4101 
Q 1578 4750 2638 4750 
Q 3056 4750 3426 4639 
Q 3797 4528 4122 4306 
z
" transform="scale(0.015625)"/>
      <path id="DejaVuSans-6f" d="M 1959 3097 
Q 1497 3097 1228 2736 
Q 959 2375 959 1747 
Q 959 1119 1226 758 
Q 1494 397 1959 397 
Q 2419 397 2687 759 
Q 2956 1122 2956 1747 
Q 2956 2369 2687 2733 
Q 2419 3097 1959 3097 
z
M 1959 3584 
Q 2709 3584 3137 3096 
Q 3566 2609 3566 1747 
Q 3566 888 3137 398 
Q 2709 -91 1959 -91 
Q 1206 -91 779 398 
Q 353 888 353 1747 
Q 353 2609 779 3096 
Q 1206 3584 1959 3584 
z
" transform="scale(0.015625)"/>
      <path id="DejaVuSans-6d" d="M 3328 2828 
Q 3544 3216 3844 3400 
Q 4144 3584 4550 3584 
Q 5097 3584 5394 3201 
Q 5691 2819 5691 2113 
L 5691 0 
L 5113 0 
L 5113 2094 
Q 5113 2597 4934 2840 
Q 4756 3084 4391 3084 
Q 3944 3084 3684 2787 
Q 3425 2491 3425 1978 
L 3425 0 
L 2847 0 
L 2847 2094 
Q 2847 2600 2669 2842 
Q 2491 3084 2119 3084 
Q 1678 3084 1418 2786 
Q 1159 2488 1159 1978 
L 1159 0 
L 581 0 
L 581 3500 
L 1159 3500 
L 1159 2956 
Q 1356 3278 1631 3431 
Q 1906 3584 2284 3584 
Q 2666 3584 2933 3390 
Q 3200 3197 3328 2828 
z
" transform="scale(0.015625)"/>
      <path id="DejaVuSans-70" d="M 1159 525 
L 1159 -1331 
L 581 -1331 
L 581 3500 
L 1159 3500 
L 1159 2969 
Q 1341 3281 1617 3432 
Q 1894 3584 2278 3584 
Q 2916 3584 3314 3078 
Q 3713 2572 3713 1747 
Q 3713 922 3314 415 
Q 2916 -91 2278 -91 
Q 1894 -91 1617 61 
Q 1341 213 1159 525 
z
M 3116 1747 
Q 3116 2381 2855 2742 
Q 2594 3103 2138 3103 
Q 1681 3103 1420 2742 
Q 1159 2381 1159 1747 
Q 1159 1113 1420 752 
Q 1681 391 2138 391 
Q 2594 391 2855 752 
Q 3116 1113 3116 1747 
z
" transform="scale(0.015625)"/>
      <path id="DejaVuSans-72" d="M 2631 2963 
Q 2534 3019 2420 3045 
Q 2306 3072 2169 3072 
Q 1681 3072 1420 2755 
Q 1159 2438 1159 1844 
L 1159 0 
L 581 0 
L 581 3500 
L 1159 3500 
L 1159 2956 
Q 1341 3275 1631 3429 
Q 1922 3584 2338 3584 
Q 2397 3584 2469 3576 
Q 2541 3569 2628 3553 
L 2631 2963 
z
" transform="scale(0.015625)"/>
      <path id="DejaVuSans-20" transform="scale(0.015625)"/>
      <path id="DejaVuSans-2d" d="M 313 2009 
L 1997 2009 
L 1997 1497 
L 313 1497 
L 313 2009 
z
" transform="scale(0.015625)"/>
      <path id="DejaVuSans-45" d="M 628 4666 
L 3578 4666 
L 3578 4134 
L 1259 4134 
L 1259 2753 
L 3481 2753 
L 3481 2222 
L 1259 2222 
L 1259 531 
L 3634 531 
L 3634 0 
L 628 0 
L 628 4666 
z
" transform="scale(0.015625)"/>
      <path id="DejaVuSans-63" d="M 3122 3366 
L 3122 2828 
Q 2878 2963 2633 3030 
Q 2388 3097 2138 3097 
Q 1578 3097 1268 2742 
Q 959 2388 959 1747 
Q 959 1106 1268 751 
Q 1578 397 2138 397 
Q 2388 397 2633 464 
Q 2878 531 3122 666 
L 3122 134 
Q 2881 22 2623 -34 
Q 2366 -91 2075 -91 
Q 1284 -91 818 406 
Q 353 903 353 1747 
Q 353 2603 823 3093 
Q 1294 3584 2113 3584 
Q 2378 3584 2631 3529 
Q 2884 3475 3122 3366 
z
" transform="scale(0.015625)"/>
      <path id="DejaVuSans-68" d="M 3513 2113 
L 3513 0 
L 2938 0 
L 2938 2094 
Q 2938 2591 2744 2837 
Q 2550 3084 2163 3084 
Q 1697 3084 1428 2787 
Q 1159 2491 1159 1978 
L 1159 0 
L 581 0 
L 581 4863 
L 1159 4863 
L 1159 2956 
Q 1366 3272 1645 3428 
Q 1925 3584 2291 3584 
Q 2894 3584 3203 3211 
Q 3513 2838 3513 2113 
z
" transform="scale(0.015625)"/>
      <path id="DejaVuSans-31" d="M 794 531 
L 1825 531 
L 1825 4091 
L 703 3866 
L 703 4441 
L 1819 4666 
L 2450 4666 
L 2450 531 
L 3481 531 
L 3481 0 
L 794 0 
L 794 531 
z
" transform="scale(0.015625)"/>
     </defs>
     <use xlink:href="#DejaVuSans-43"/>
     <use xlink:href="#DejaVuSans-6f" transform="translate(69.824219 0)"/>
     <use xlink:href="#DejaVuSans-6d" transform="translate(131.005859 0)"/>
     <use xlink:href="#DejaVuSans-70" transform="translate(228.417969 0)"/>
     <use xlink:href="#DejaVuSans-61" transform="translate(291.894531 0)"/>
     <use xlink:href="#DejaVuSans-72" transform="translate(353.173828 0)"/>
     <use xlink:href="#DejaVuSans-65" transform="translate(392.037109 0)"/>
     <use xlink:href="#DejaVuSans-20" transform="translate(453.560547 0)"/>
     <use xlink:href="#DejaVuSans-2d" transform="translate(485.347656 0)"/>
     <use xlink:href="#DejaVuSans-20" transform="translate(521.431641 0)"/>
     <use xlink:href="#DejaVuSans-45" transform="translate(553.21875 0)"/>
     <use xlink:href="#DejaVuSans-70" transform="translate(616.402344 0)"/>
     <use xlink:href="#DejaVuSans-6f" transform="translate(679.878906 0)"/>
     <use xlink:href="#DejaVuSans-63" transform="translate(741.060547 0)"/>
     <use xlink:href="#DejaVuSans-68" transform="translate(796.041016 0)"/>
     <use xlink:href="#DejaVuSans-20" transform="translate(859.419922 0)"/>
     <use xlink:href="#DejaVuSans-31" transform="translate(891.207031 0)"/>
     <use xlink:href="#DejaVuSans-32" transform="translate(954.830078 0)"/>
     <use xlink:href="#DejaVuSans-30" transform="translate(1018.453125 0)"/>
     <use xlink:href="#DejaVuSans-30" transform="translate(1082.076172 0)"/>
    </g>
   </g>
   <g id="legend_1">
    <g id="patch_7">
     <path d="M 64.6 78.82825 
L 181.128125 78.82825 
Q 183.128125 78.82825 183.128125 76.82825 
L 183.128125 48.472 
Q 183.128125 46.472 181.128125 46.472 
L 64.6 46.472 
Q 62.6 46.472 62.6 48.472 
L 62.6 76.82825 
Q 62.6 78.82825 64.6 78.82825 
z
" style="fill: #ffffff; opacity: 0.8; stroke: #cccccc; stroke-linejoin: miter"/>
    </g>
    <g id="line2d_37">
     <path d="M 66.6 54.570437 
L 76.6 54.570437 
L 86.6 54.570437 
" style="fill: none; stroke: #1f77b4; stroke-width: 1.5; stroke-linecap: square"/>
    </g>
    <g id="text_21">
     <!-- Pred: Sample 1 -->
     <g transform="translate(94.6 58.070437) scale(0.1 -0.1)">
      <defs>
       <path id="DejaVuSans-50" d="M 1259 4147 
L 1259 2394 
L 2053 2394 
Q 2494 2394 2734 2622 
Q 2975 2850 2975 3272 
Q 2975 3691 2734 3919 
Q 2494 4147 2053 4147 
L 1259 4147 
z
M 628 4666 
L 2053 4666 
Q 2838 4666 3239 4311 
Q 3641 3956 3641 3272 
Q 3641 2581 3239 2228 
Q 2838 1875 2053 1875 
L 1259 1875 
L 1259 0 
L 628 0 
L 628 4666 
z
" transform="scale(0.015625)"/>
       <path id="DejaVuSans-3a" d="M 750 794 
L 1409 794 
L 1409 0 
L 750 0 
L 750 794 
z
M 750 3309 
L 1409 3309 
L 1409 2516 
L 750 2516 
L 750 3309 
z
" transform="scale(0.015625)"/>
       <path id="DejaVuSans-53" d="M 3425 4513 
L 3425 3897 
Q 3066 4069 2747 4153 
Q 2428 4238 2131 4238 
Q 1616 4238 1336 4038 
Q 1056 3838 1056 3469 
Q 1056 3159 1242 3001 
Q 1428 2844 1947 2747 
L 2328 2669 
Q 3034 2534 3370 2195 
Q 3706 1856 3706 1288 
Q 3706 609 3251 259 
Q 2797 -91 1919 -91 
Q 1588 -91 1214 -16 
Q 841 59 441 206 
L 441 856 
Q 825 641 1194 531 
Q 1563 422 1919 422 
Q 2459 422 2753 634 
Q 3047 847 3047 1241 
Q 3047 1584 2836 1778 
Q 2625 1972 2144 2069 
L 1759 2144 
Q 1053 2284 737 2584 
Q 422 2884 422 3419 
Q 422 4038 858 4394 
Q 1294 4750 2059 4750 
Q 2388 4750 2728 4690 
Q 3069 4631 3425 4513 
z
" transform="scale(0.015625)"/>
      </defs>
      <use xlink:href="#DejaVuSans-50"/>
      <use xlink:href="#DejaVuSans-72" transform="translate(58.552734 0)"/>
      <use xlink:href="#DejaVuSans-65" transform="translate(97.416016 0)"/>
      <use xlink:href="#DejaVuSans-64" transform="translate(158.939453 0)"/>
      <use xlink:href="#DejaVuSans-3a" transform="translate(222.416016 0)"/>
      <use xlink:href="#DejaVuSans-20" transform="translate(256.107422 0)"/>
      <use xlink:href="#DejaVuSans-53" transform="translate(287.894531 0)"/>
      <use xlink:href="#DejaVuSans-61" transform="translate(351.371094 0)"/>
      <use xlink:href="#DejaVuSans-6d" transform="translate(412.650391 0)"/>
      <use xlink:href="#DejaVuSans-70" transform="translate(510.0625 0)"/>
      <use xlink:href="#DejaVuSans-6c" transform="translate(573.539062 0)"/>
      <use xlink:href="#DejaVuSans-65" transform="translate(601.322266 0)"/>
      <use xlink:href="#DejaVuSans-20" transform="translate(662.845703 0)"/>
      <use xlink:href="#DejaVuSans-31" transform="translate(694.632812 0)"/>
     </g>
    </g>
    <g id="line2d_38">
     <path d="M 66.6 69.248562 
L 76.6 69.248562 
L 86.6 69.248562 
" style="fill: none; stroke: #ff7f0e; stroke-opacity: 0.5; stroke-width: 1.5; stroke-linecap: square"/>
    </g>
    <g id="text_22">
     <!-- Target: Sample 1 -->
     <g transform="translate(94.6 72.748562) scale(0.1 -0.1)">
      <defs>
       <path id="DejaVuSans-54" d="M -19 4666 
L 3928 4666 
L 3928 4134 
L 2272 4134 
L 2272 0 
L 1638 0 
L 1638 4134 
L -19 4134 
L -19 4666 
z
" transform="scale(0.015625)"/>
       <path id="DejaVuSans-67" d="M 2906 1791 
Q 2906 2416 2648 2759 
Q 2391 3103 1925 3103 
Q 1463 3103 1205 2759 
Q 947 2416 947 1791 
Q 947 1169 1205 825 
Q 1463 481 1925 481 
Q 2391 481 2648 825 
Q 2906 1169 2906 1791 
z
M 3481 434 
Q 3481 -459 3084 -895 
Q 2688 -1331 1869 -1331 
Q 1566 -1331 1297 -1286 
Q 1028 -1241 775 -1147 
L 775 -588 
Q 1028 -725 1275 -790 
Q 1522 -856 1778 -856 
Q 2344 -856 2625 -561 
Q 2906 -266 2906 331 
L 2906 616 
Q 2728 306 2450 153 
Q 2172 0 1784 0 
Q 1141 0 747 490 
Q 353 981 353 1791 
Q 353 2603 747 3093 
Q 1141 3584 1784 3584 
Q 2172 3584 2450 3431 
Q 2728 3278 2906 2969 
L 2906 3500 
L 3481 3500 
L 3481 434 
z
" transform="scale(0.015625)"/>
       <path id="DejaVuSans-74" d="M 1172 4494 
L 1172 3500 
L 2356 3500 
L 2356 3053 
L 1172 3053 
L 1172 1153 
Q 1172 725 1289 603 
Q 1406 481 1766 481 
L 2356 481 
L 2356 0 
L 1766 0 
Q 1100 0 847 248 
Q 594 497 594 1153 
L 594 3053 
L 172 3053 
L 172 3500 
L 594 3500 
L 594 4494 
L 1172 4494 
z
" transform="scale(0.015625)"/>
      </defs>
      <use xlink:href="#DejaVuSans-54"/>
      <use xlink:href="#DejaVuSans-61" transform="translate(44.583984 0)"/>
      <use xlink:href="#DejaVuSans-72" transform="translate(105.863281 0)"/>
      <use xlink:href="#DejaVuSans-67" transform="translate(145.226562 0)"/>
      <use xlink:href="#DejaVuSans-65" transform="translate(208.703125 0)"/>
      <use xlink:href="#DejaVuSans-74" transform="translate(270.226562 0)"/>
      <use xlink:href="#DejaVuSans-3a" transform="translate(309.435547 0)"/>
      <use xlink:href="#DejaVuSans-20" transform="translate(343.126953 0)"/>
      <use xlink:href="#DejaVuSans-53" transform="translate(374.914062 0)"/>
      <use xlink:href="#DejaVuSans-61" transform="translate(438.390625 0)"/>
      <use xlink:href="#DejaVuSans-6d" transform="translate(499.669922 0)"/>
      <use xlink:href="#DejaVuSans-70" transform="translate(597.082031 0)"/>
      <use xlink:href="#DejaVuSans-6c" transform="translate(660.558594 0)"/>
      <use xlink:href="#DejaVuSans-65" transform="translate(688.341797 0)"/>
      <use xlink:href="#DejaVuSans-20" transform="translate(749.865234 0)"/>
      <use xlink:href="#DejaVuSans-31" transform="translate(781.652344 0)"/>
     </g>
    </g>
   </g>
  </g>
 </g>
 <defs>
  <clipPath id="p2210db9c00">
   <rect x="57.6" y="41.472" width="357.12" height="266.112"/>
  </clipPath>
 </defs>
</svg>
