<?xml version="1.0" encoding="utf-8" standalone="no"?>
<!DOCTYPE svg PUBLIC "-//W3C//DTD SVG 1.1//EN"
  "http://www.w3.org/Graphics/SVG/1.1/DTD/svg11.dtd">
<svg xmlns:xlink="http://www.w3.org/1999/xlink" width="460.8pt" height="345.6pt" viewBox="0 0 460.8 345.6" xmlns="http://www.w3.org/2000/svg" version="1.1">
 <metadata>
  <rdf:RDF xmlns:dc="http://purl.org/dc/elements/1.1/" xmlns:cc="http://creativecommons.org/ns#" xmlns:rdf="http://www.w3.org/1999/02/22-rdf-syntax-ns#">
   <cc:Work>
    <dc:type rdf:resource="http://purl.org/dc/dcmitype/StillImage"/>
    <dc:date>2025-05-21T04:08:14.066606</dc:date>
    <dc:format>image/svg+xml</dc:format>
    <dc:creator>
     <cc:Agent>
      <dc:title>Matplotlib v3.10.0, https://matplotlib.org/</dc:title>
     </cc:Agent>
    </dc:creator>
   </cc:Work>
  </rdf:RDF>
 </metadata>
 <defs>
  <style type="text/css">*{stroke-linejoin: round; stroke-linecap: butt}</style>
 </defs>
 <g id="figure_1">
  <g id="patch_1">
   <path d="M 0 345.6 
L 460.8 345.6 
L 460.8 0 
L 0 0 
z
" style="fill: #ffffff"/>
  </g>
  <g id="axes_1">
   <g id="patch_2">
    <path d="M 57.6 307.584 
L 414.72 307.584 
L 414.72 41.472 
L 57.6 41.472 
z
" style="fill: #ffffff"/>
   </g>
   <g id="matplotlib.axis_1">
    <g id="xtick_1">
     <g id="line2d_1">
      <path d="M 80.765708 307.584 
L 80.765708 41.472 
" clip-path="url(#pf9185ffec9)" style="fill: none; stroke: #b0b0b0; stroke-opacity: 0.5; stroke-width: 0.8; stroke-linecap: square"/>
     </g>
     <g id="line2d_2">
      <defs>
       <path id="mabfa192004" d="M 0 0 
L 0 3.5 
" style="stroke: #000000; stroke-width: 0.8"/>
      </defs>
      <g>
       <use xlink:href="#mabfa192004" x="80.765708" y="307.584" style="stroke: #000000; stroke-width: 0.8"/>
      </g>
     </g>
     <g id="text_1">
      <!-- −1.0 -->
      <g transform="translate(68.624302 322.182437) scale(0.1 -0.1)">
       <defs>
        <path id="DejaVuSans-2212" d="M 678 2272 
L 4684 2272 
L 4684 1741 
L 678 1741 
L 678 2272 
z
" transform="scale(0.015625)"/>
        <path id="DejaVuSans-31" d="M 794 531 
L 1825 531 
L 1825 4091 
L 703 3866 
L 703 4441 
L 1819 4666 
L 2450 4666 
L 2450 531 
L 3481 531 
L 3481 0 
L 794 0 
L 794 531 
z
" transform="scale(0.015625)"/>
        <path id="DejaVuSans-2e" d="M 684 794 
L 1344 794 
L 1344 0 
L 684 0 
L 684 794 
z
" transform="scale(0.015625)"/>
        <path id="DejaVuSans-30" d="M 2034 4250 
Q 1547 4250 1301 3770 
Q 1056 3291 1056 2328 
Q 1056 1369 1301 889 
Q 1547 409 2034 409 
Q 2525 409 2770 889 
Q 3016 1369 3016 2328 
Q 3016 3291 2770 3770 
Q 2525 4250 2034 4250 
z
M 2034 4750 
Q 2819 4750 3233 4129 
Q 3647 3509 3647 2328 
Q 3647 1150 3233 529 
Q 2819 -91 2034 -91 
Q 1250 -91 836 529 
Q 422 1150 422 2328 
Q 422 3509 836 4129 
Q 1250 4750 2034 4750 
z
" transform="scale(0.015625)"/>
       </defs>
       <use xlink:href="#DejaVuSans-2212"/>
       <use xlink:href="#DejaVuSans-31" transform="translate(83.789062 0)"/>
       <use xlink:href="#DejaVuSans-2e" transform="translate(147.412109 0)"/>
       <use xlink:href="#DejaVuSans-30" transform="translate(179.199219 0)"/>
      </g>
     </g>
    </g>
    <g id="xtick_2">
     <g id="line2d_3">
      <path d="M 157.618723 307.584 
L 157.618723 41.472 
" clip-path="url(#pf9185ffec9)" style="fill: none; stroke: #b0b0b0; stroke-opacity: 0.5; stroke-width: 0.8; stroke-linecap: square"/>
     </g>
     <g id="line2d_4">
      <g>
       <use xlink:href="#mabfa192004" x="157.618723" y="307.584" style="stroke: #000000; stroke-width: 0.8"/>
      </g>
     </g>
     <g id="text_2">
      <!-- −0.5 -->
      <g transform="translate(145.477317 322.182437) scale(0.1 -0.1)">
       <defs>
        <path id="DejaVuSans-35" d="M 691 4666 
L 3169 4666 
L 3169 4134 
L 1269 4134 
L 1269 2991 
Q 1406 3038 1543 3061 
Q 1681 3084 1819 3084 
Q 2600 3084 3056 2656 
Q 3513 2228 3513 1497 
Q 3513 744 3044 326 
Q 2575 -91 1722 -91 
Q 1428 -91 1123 -41 
Q 819 9 494 109 
L 494 744 
Q 775 591 1075 516 
Q 1375 441 1709 441 
Q 2250 441 2565 725 
Q 2881 1009 2881 1497 
Q 2881 1984 2565 2268 
Q 2250 2553 1709 2553 
Q 1456 2553 1204 2497 
Q 953 2441 691 2322 
L 691 4666 
z
" transform="scale(0.015625)"/>
       </defs>
       <use xlink:href="#DejaVuSans-2212"/>
       <use xlink:href="#DejaVuSans-30" transform="translate(83.789062 0)"/>
       <use xlink:href="#DejaVuSans-2e" transform="translate(147.412109 0)"/>
       <use xlink:href="#DejaVuSans-35" transform="translate(179.199219 0)"/>
      </g>
     </g>
    </g>
    <g id="xtick_3">
     <g id="line2d_5">
      <path d="M 234.471738 307.584 
L 234.471738 41.472 
" clip-path="url(#pf9185ffec9)" style="fill: none; stroke: #b0b0b0; stroke-opacity: 0.5; stroke-width: 0.8; stroke-linecap: square"/>
     </g>
     <g id="line2d_6">
      <g>
       <use xlink:href="#mabfa192004" x="234.471738" y="307.584" style="stroke: #000000; stroke-width: 0.8"/>
      </g>
     </g>
     <g id="text_3">
      <!-- 0.0 -->
      <g transform="translate(226.520176 322.182437) scale(0.1 -0.1)">
       <use xlink:href="#DejaVuSans-30"/>
       <use xlink:href="#DejaVuSans-2e" transform="translate(63.623047 0)"/>
       <use xlink:href="#DejaVuSans-30" transform="translate(95.410156 0)"/>
      </g>
     </g>
    </g>
    <g id="xtick_4">
     <g id="line2d_7">
      <path d="M 311.324753 307.584 
L 311.324753 41.472 
" clip-path="url(#pf9185ffec9)" style="fill: none; stroke: #b0b0b0; stroke-opacity: 0.5; stroke-width: 0.8; stroke-linecap: square"/>
     </g>
     <g id="line2d_8">
      <g>
       <use xlink:href="#mabfa192004" x="311.324753" y="307.584" style="stroke: #000000; stroke-width: 0.8"/>
      </g>
     </g>
     <g id="text_4">
      <!-- 0.5 -->
      <g transform="translate(303.373191 322.182437) scale(0.1 -0.1)">
       <use xlink:href="#DejaVuSans-30"/>
       <use xlink:href="#DejaVuSans-2e" transform="translate(63.623047 0)"/>
       <use xlink:href="#DejaVuSans-35" transform="translate(95.410156 0)"/>
      </g>
     </g>
    </g>
    <g id="xtick_5">
     <g id="line2d_9">
      <path d="M 388.177768 307.584 
L 388.177768 41.472 
" clip-path="url(#pf9185ffec9)" style="fill: none; stroke: #b0b0b0; stroke-opacity: 0.5; stroke-width: 0.8; stroke-linecap: square"/>
     </g>
     <g id="line2d_10">
      <g>
       <use xlink:href="#mabfa192004" x="388.177768" y="307.584" style="stroke: #000000; stroke-width: 0.8"/>
      </g>
     </g>
     <g id="text_5">
      <!-- 1.0 -->
      <g transform="translate(380.226206 322.182437) scale(0.1 -0.1)">
       <use xlink:href="#DejaVuSans-31"/>
       <use xlink:href="#DejaVuSans-2e" transform="translate(63.623047 0)"/>
       <use xlink:href="#DejaVuSans-30" transform="translate(95.410156 0)"/>
      </g>
     </g>
    </g>
    <g id="text_6">
     <!-- Index -->
     <g transform="translate(222.393594 335.860562) scale(0.1 -0.1)">
      <defs>
       <path id="DejaVuSans-49" d="M 628 4666 
L 1259 4666 
L 1259 0 
L 628 0 
L 628 4666 
z
" transform="scale(0.015625)"/>
       <path id="DejaVuSans-6e" d="M 3513 2113 
L 3513 0 
L 2938 0 
L 2938 2094 
Q 2938 2591 2744 2837 
Q 2550 3084 2163 3084 
Q 1697 3084 1428 2787 
Q 1159 2491 1159 1978 
L 1159 0 
L 581 0 
L 581 3500 
L 1159 3500 
L 1159 2956 
Q 1366 3272 1645 3428 
Q 1925 3584 2291 3584 
Q 2894 3584 3203 3211 
Q 3513 2838 3513 2113 
z
" transform="scale(0.015625)"/>
       <path id="DejaVuSans-64" d="M 2906 2969 
L 2906 4863 
L 3481 4863 
L 3481 0 
L 2906 0 
L 2906 525 
Q 2725 213 2448 61 
Q 2172 -91 1784 -91 
Q 1150 -91 751 415 
Q 353 922 353 1747 
Q 353 2572 751 3078 
Q 1150 3584 1784 3584 
Q 2172 3584 2448 3432 
Q 2725 3281 2906 2969 
z
M 947 1747 
Q 947 1113 1208 752 
Q 1469 391 1925 391 
Q 2381 391 2643 752 
Q 2906 1113 2906 1747 
Q 2906 2381 2643 2742 
Q 2381 3103 1925 3103 
Q 1469 3103 1208 2742 
Q 947 2381 947 1747 
z
" transform="scale(0.015625)"/>
       <path id="DejaVuSans-65" d="M 3597 1894 
L 3597 1613 
L 953 1613 
Q 991 1019 1311 708 
Q 1631 397 2203 397 
Q 2534 397 2845 478 
Q 3156 559 3463 722 
L 3463 178 
Q 3153 47 2828 -22 
Q 2503 -91 2169 -91 
Q 1331 -91 842 396 
Q 353 884 353 1716 
Q 353 2575 817 3079 
Q 1281 3584 2069 3584 
Q 2775 3584 3186 3129 
Q 3597 2675 3597 1894 
z
M 3022 2063 
Q 3016 2534 2758 2815 
Q 2500 3097 2075 3097 
Q 1594 3097 1305 2825 
Q 1016 2553 972 2059 
L 3022 2063 
z
" transform="scale(0.015625)"/>
       <path id="DejaVuSans-78" d="M 3513 3500 
L 2247 1797 
L 3578 0 
L 2900 0 
L 1881 1375 
L 863 0 
L 184 0 
L 1544 1831 
L 300 3500 
L 978 3500 
L 1906 2253 
L 2834 3500 
L 3513 3500 
z
" transform="scale(0.015625)"/>
      </defs>
      <use xlink:href="#DejaVuSans-49"/>
      <use xlink:href="#DejaVuSans-6e" transform="translate(29.492188 0)"/>
      <use xlink:href="#DejaVuSans-64" transform="translate(92.871094 0)"/>
      <use xlink:href="#DejaVuSans-65" transform="translate(156.347656 0)"/>
      <use xlink:href="#DejaVuSans-78" transform="translate(216.121094 0)"/>
     </g>
    </g>
   </g>
   <g id="matplotlib.axis_2">
    <g id="ytick_1">
     <g id="line2d_11">
      <path d="M 57.6 298.560675 
L 414.72 298.560675 
" clip-path="url(#pf9185ffec9)" style="fill: none; stroke: #b0b0b0; stroke-opacity: 0.5; stroke-width: 0.8; stroke-linecap: square"/>
     </g>
     <g id="line2d_12">
      <defs>
       <path id="mfc3afaf705" d="M 0 0 
L -3.5 0 
" style="stroke: #000000; stroke-width: 0.8"/>
      </defs>
      <g>
       <use xlink:href="#mfc3afaf705" x="57.6" y="298.560675" style="stroke: #000000; stroke-width: 0.8"/>
      </g>
     </g>
     <g id="text_7">
      <!-- −0.8 -->
      <g transform="translate(26.317187 302.359893) scale(0.1 -0.1)">
       <defs>
        <path id="DejaVuSans-38" d="M 2034 2216 
Q 1584 2216 1326 1975 
Q 1069 1734 1069 1313 
Q 1069 891 1326 650 
Q 1584 409 2034 409 
Q 2484 409 2743 651 
Q 3003 894 3003 1313 
Q 3003 1734 2745 1975 
Q 2488 2216 2034 2216 
z
M 1403 2484 
Q 997 2584 770 2862 
Q 544 3141 544 3541 
Q 544 4100 942 4425 
Q 1341 4750 2034 4750 
Q 2731 4750 3128 4425 
Q 3525 4100 3525 3541 
Q 3525 3141 3298 2862 
Q 3072 2584 2669 2484 
Q 3125 2378 3379 2068 
Q 3634 1759 3634 1313 
Q 3634 634 3220 271 
Q 2806 -91 2034 -91 
Q 1263 -91 848 271 
Q 434 634 434 1313 
Q 434 1759 690 2068 
Q 947 2378 1403 2484 
z
M 1172 3481 
Q 1172 3119 1398 2916 
Q 1625 2713 2034 2713 
Q 2441 2713 2670 2916 
Q 2900 3119 2900 3481 
Q 2900 3844 2670 4047 
Q 2441 4250 2034 4250 
Q 1625 4250 1398 4047 
Q 1172 3844 1172 3481 
z
" transform="scale(0.015625)"/>
       </defs>
       <use xlink:href="#DejaVuSans-2212"/>
       <use xlink:href="#DejaVuSans-30" transform="translate(83.789062 0)"/>
       <use xlink:href="#DejaVuSans-2e" transform="translate(147.412109 0)"/>
       <use xlink:href="#DejaVuSans-38" transform="translate(179.199219 0)"/>
      </g>
     </g>
    </g>
    <g id="ytick_2">
     <g id="line2d_13">
      <path d="M 57.6 266.120224 
L 414.72 266.120224 
" clip-path="url(#pf9185ffec9)" style="fill: none; stroke: #b0b0b0; stroke-opacity: 0.5; stroke-width: 0.8; stroke-linecap: square"/>
     </g>
     <g id="line2d_14">
      <g>
       <use xlink:href="#mfc3afaf705" x="57.6" y="266.120224" style="stroke: #000000; stroke-width: 0.8"/>
      </g>
     </g>
     <g id="text_8">
      <!-- −0.6 -->
      <g transform="translate(26.317187 269.919443) scale(0.1 -0.1)">
       <defs>
        <path id="DejaVuSans-36" d="M 2113 2584 
Q 1688 2584 1439 2293 
Q 1191 2003 1191 1497 
Q 1191 994 1439 701 
Q 1688 409 2113 409 
Q 2538 409 2786 701 
Q 3034 994 3034 1497 
Q 3034 2003 2786 2293 
Q 2538 2584 2113 2584 
z
M 3366 4563 
L 3366 3988 
Q 3128 4100 2886 4159 
Q 2644 4219 2406 4219 
Q 1781 4219 1451 3797 
Q 1122 3375 1075 2522 
Q 1259 2794 1537 2939 
Q 1816 3084 2150 3084 
Q 2853 3084 3261 2657 
Q 3669 2231 3669 1497 
Q 3669 778 3244 343 
Q 2819 -91 2113 -91 
Q 1303 -91 875 529 
Q 447 1150 447 2328 
Q 447 3434 972 4092 
Q 1497 4750 2381 4750 
Q 2619 4750 2861 4703 
Q 3103 4656 3366 4563 
z
" transform="scale(0.015625)"/>
       </defs>
       <use xlink:href="#DejaVuSans-2212"/>
       <use xlink:href="#DejaVuSans-30" transform="translate(83.789062 0)"/>
       <use xlink:href="#DejaVuSans-2e" transform="translate(147.412109 0)"/>
       <use xlink:href="#DejaVuSans-36" transform="translate(179.199219 0)"/>
      </g>
     </g>
    </g>
    <g id="ytick_3">
     <g id="line2d_15">
      <path d="M 57.6 233.679774 
L 414.72 233.679774 
" clip-path="url(#pf9185ffec9)" style="fill: none; stroke: #b0b0b0; stroke-opacity: 0.5; stroke-width: 0.8; stroke-linecap: square"/>
     </g>
     <g id="line2d_16">
      <g>
       <use xlink:href="#mfc3afaf705" x="57.6" y="233.679774" style="stroke: #000000; stroke-width: 0.8"/>
      </g>
     </g>
     <g id="text_9">
      <!-- −0.4 -->
      <g transform="translate(26.317187 237.478993) scale(0.1 -0.1)">
       <defs>
        <path id="DejaVuSans-34" d="M 2419 4116 
L 825 1625 
L 2419 1625 
L 2419 4116 
z
M 2253 4666 
L 3047 4666 
L 3047 1625 
L 3713 1625 
L 3713 1100 
L 3047 1100 
L 3047 0 
L 2419 0 
L 2419 1100 
L 313 1100 
L 313 1709 
L 2253 4666 
z
" transform="scale(0.015625)"/>
       </defs>
       <use xlink:href="#DejaVuSans-2212"/>
       <use xlink:href="#DejaVuSans-30" transform="translate(83.789062 0)"/>
       <use xlink:href="#DejaVuSans-2e" transform="translate(147.412109 0)"/>
       <use xlink:href="#DejaVuSans-34" transform="translate(179.199219 0)"/>
      </g>
     </g>
    </g>
    <g id="ytick_4">
     <g id="line2d_17">
      <path d="M 57.6 201.239324 
L 414.72 201.239324 
" clip-path="url(#pf9185ffec9)" style="fill: none; stroke: #b0b0b0; stroke-opacity: 0.5; stroke-width: 0.8; stroke-linecap: square"/>
     </g>
     <g id="line2d_18">
      <g>
       <use xlink:href="#mfc3afaf705" x="57.6" y="201.239324" style="stroke: #000000; stroke-width: 0.8"/>
      </g>
     </g>
     <g id="text_10">
      <!-- −0.2 -->
      <g transform="translate(26.317187 205.038543) scale(0.1 -0.1)">
       <defs>
        <path id="DejaVuSans-32" d="M 1228 531 
L 3431 531 
L 3431 0 
L 469 0 
L 469 531 
Q 828 903 1448 1529 
Q 2069 2156 2228 2338 
Q 2531 2678 2651 2914 
Q 2772 3150 2772 3378 
Q 2772 3750 2511 3984 
Q 2250 4219 1831 4219 
Q 1534 4219 1204 4116 
Q 875 4013 500 3803 
L 500 4441 
Q 881 4594 1212 4672 
Q 1544 4750 1819 4750 
Q 2544 4750 2975 4387 
Q 3406 4025 3406 3419 
Q 3406 3131 3298 2873 
Q 3191 2616 2906 2266 
Q 2828 2175 2409 1742 
Q 1991 1309 1228 531 
z
" transform="scale(0.015625)"/>
       </defs>
       <use xlink:href="#DejaVuSans-2212"/>
       <use xlink:href="#DejaVuSans-30" transform="translate(83.789062 0)"/>
       <use xlink:href="#DejaVuSans-2e" transform="translate(147.412109 0)"/>
       <use xlink:href="#DejaVuSans-32" transform="translate(179.199219 0)"/>
      </g>
     </g>
    </g>
    <g id="ytick_5">
     <g id="line2d_19">
      <path d="M 57.6 168.798874 
L 414.72 168.798874 
" clip-path="url(#pf9185ffec9)" style="fill: none; stroke: #b0b0b0; stroke-opacity: 0.5; stroke-width: 0.8; stroke-linecap: square"/>
     </g>
     <g id="line2d_20">
      <g>
       <use xlink:href="#mfc3afaf705" x="57.6" y="168.798874" style="stroke: #000000; stroke-width: 0.8"/>
      </g>
     </g>
     <g id="text_11">
      <!-- 0.0 -->
      <g transform="translate(34.696875 172.598093) scale(0.1 -0.1)">
       <use xlink:href="#DejaVuSans-30"/>
       <use xlink:href="#DejaVuSans-2e" transform="translate(63.623047 0)"/>
       <use xlink:href="#DejaVuSans-30" transform="translate(95.410156 0)"/>
      </g>
     </g>
    </g>
    <g id="ytick_6">
     <g id="line2d_21">
      <path d="M 57.6 136.358424 
L 414.72 136.358424 
" clip-path="url(#pf9185ffec9)" style="fill: none; stroke: #b0b0b0; stroke-opacity: 0.5; stroke-width: 0.8; stroke-linecap: square"/>
     </g>
     <g id="line2d_22">
      <g>
       <use xlink:href="#mfc3afaf705" x="57.6" y="136.358424" style="stroke: #000000; stroke-width: 0.8"/>
      </g>
     </g>
     <g id="text_12">
      <!-- 0.2 -->
      <g transform="translate(34.696875 140.157643) scale(0.1 -0.1)">
       <use xlink:href="#DejaVuSans-30"/>
       <use xlink:href="#DejaVuSans-2e" transform="translate(63.623047 0)"/>
       <use xlink:href="#DejaVuSans-32" transform="translate(95.410156 0)"/>
      </g>
     </g>
    </g>
    <g id="ytick_7">
     <g id="line2d_23">
      <path d="M 57.6 103.917974 
L 414.72 103.917974 
" clip-path="url(#pf9185ffec9)" style="fill: none; stroke: #b0b0b0; stroke-opacity: 0.5; stroke-width: 0.8; stroke-linecap: square"/>
     </g>
     <g id="line2d_24">
      <g>
       <use xlink:href="#mfc3afaf705" x="57.6" y="103.917974" style="stroke: #000000; stroke-width: 0.8"/>
      </g>
     </g>
     <g id="text_13">
      <!-- 0.4 -->
      <g transform="translate(34.696875 107.717193) scale(0.1 -0.1)">
       <use xlink:href="#DejaVuSans-30"/>
       <use xlink:href="#DejaVuSans-2e" transform="translate(63.623047 0)"/>
       <use xlink:href="#DejaVuSans-34" transform="translate(95.410156 0)"/>
      </g>
     </g>
    </g>
    <g id="ytick_8">
     <g id="line2d_25">
      <path d="M 57.6 71.477524 
L 414.72 71.477524 
" clip-path="url(#pf9185ffec9)" style="fill: none; stroke: #b0b0b0; stroke-opacity: 0.5; stroke-width: 0.8; stroke-linecap: square"/>
     </g>
     <g id="line2d_26">
      <g>
       <use xlink:href="#mfc3afaf705" x="57.6" y="71.477524" style="stroke: #000000; stroke-width: 0.8"/>
      </g>
     </g>
     <g id="text_14">
      <!-- 0.6 -->
      <g transform="translate(34.696875 75.276742) scale(0.1 -0.1)">
       <use xlink:href="#DejaVuSans-30"/>
       <use xlink:href="#DejaVuSans-2e" transform="translate(63.623047 0)"/>
       <use xlink:href="#DejaVuSans-36" transform="translate(95.410156 0)"/>
      </g>
     </g>
    </g>
    <g id="text_15">
     <!-- Value -->
     <g transform="translate(20.2375 188.25925) rotate(-90) scale(0.1 -0.1)">
      <defs>
       <path id="DejaVuSans-56" d="M 1831 0 
L 50 4666 
L 709 4666 
L 2188 738 
L 3669 4666 
L 4325 4666 
L 2547 0 
L 1831 0 
z
" transform="scale(0.015625)"/>
       <path id="DejaVuSans-61" d="M 2194 1759 
Q 1497 1759 1228 1600 
Q 959 1441 959 1056 
Q 959 750 1161 570 
Q 1363 391 1709 391 
Q 2188 391 2477 730 
Q 2766 1069 2766 1631 
L 2766 1759 
L 2194 1759 
z
M 3341 1997 
L 3341 0 
L 2766 0 
L 2766 531 
Q 2569 213 2275 61 
Q 1981 -91 1556 -91 
Q 1019 -91 701 211 
Q 384 513 384 1019 
Q 384 1609 779 1909 
Q 1175 2209 1959 2209 
L 2766 2209 
L 2766 2266 
Q 2766 2663 2505 2880 
Q 2244 3097 1772 3097 
Q 1472 3097 1187 3025 
Q 903 2953 641 2809 
L 641 3341 
Q 956 3463 1253 3523 
Q 1550 3584 1831 3584 
Q 2591 3584 2966 3190 
Q 3341 2797 3341 1997 
z
" transform="scale(0.015625)"/>
       <path id="DejaVuSans-6c" d="M 603 4863 
L 1178 4863 
L 1178 0 
L 603 0 
L 603 4863 
z
" transform="scale(0.015625)"/>
       <path id="DejaVuSans-75" d="M 544 1381 
L 544 3500 
L 1119 3500 
L 1119 1403 
Q 1119 906 1312 657 
Q 1506 409 1894 409 
Q 2359 409 2629 706 
Q 2900 1003 2900 1516 
L 2900 3500 
L 3475 3500 
L 3475 0 
L 2900 0 
L 2900 538 
Q 2691 219 2414 64 
Q 2138 -91 1772 -91 
Q 1169 -91 856 284 
Q 544 659 544 1381 
z
M 1991 3584 
L 1991 3584 
z
" transform="scale(0.015625)"/>
      </defs>
      <use xlink:href="#DejaVuSans-56"/>
      <use xlink:href="#DejaVuSans-61" transform="translate(60.658203 0)"/>
      <use xlink:href="#DejaVuSans-6c" transform="translate(121.9375 0)"/>
      <use xlink:href="#DejaVuSans-75" transform="translate(149.720703 0)"/>
      <use xlink:href="#DejaVuSans-65" transform="translate(213.099609 0)"/>
     </g>
    </g>
   </g>
   <g id="line2d_27">
    <path d="M 259.719051 168.775739 
L 216.696064 168.234368 
L 242.800756 167.691683 
L 234.607336 167.152214 
L 238.78282 166.616738 
L 238.195827 166.081659 
L 238.974728 165.544196 
L 239.519555 164.472288 
L 239.746917 163.942855 
L 240.223632 163.414474 
L 241.561848 162.353403 
L 242.671757 160.784543 
L 243.948322 159.738268 
L 245.601595 157.670487 
L 246.285882 157.150949 
L 246.737956 156.633387 
L 246.987739 156.120192 
L 247.37245 155.608703 
L 249.124535 154.06314 
L 249.746452 153.043124 
L 250.268105 152.531799 
L 251.499547 151.505101 
L 252.148902 150.491751 
L 252.626221 149.984907 
L 253.847384 148.966352 
L 254.499178 147.960588 
L 254.940838 147.45829 
L 256.151852 146.447809 
L 257.213419 144.947501 
L 258.439465 143.940053 
L 259.483751 142.439061 
L 261.153963 140.922886 
L 261.800331 139.916127 
L 263.538041 138.387033 
L 264.178695 137.372187 
L 265.958334 135.831894 
L 266.619607 134.81263 
L 267.142127 134.299527 
L 268.384189 133.270904 
L 269.061157 132.253948 
L 269.528845 131.743248 
L 270.786876 130.719981 
L 271.896737 129.20628 
L 273.148183 128.193673 
L 274.223521 126.698646 
L 275.457372 125.698969 
L 277.085437 123.726613 
L 277.732246 123.232187 
L 278.43062 122.255495 
L 278.744602 121.767435 
L 280.431329 120.29594 
L 281.033608 119.327182 
L 281.549712 118.838967 
L 282.23647 118.349519 
L 282.708778 117.863083 
L 283.306691 116.896944 
L 283.818123 116.410644 
L 284.515174 115.923434 
L 285.011704 115.439623 
L 286.031857 113.996465 
L 287.272346 113.027933 
L 288.265797 111.589136 
L 289.533812 110.62248 
L 290.493984 109.183914 
L 291.800189 108.215509 
L 292.708231 106.772612 
L 294.06979 105.797153 
L 294.434394 105.313178 
L 294.657112 104.830454 
L 295.018908 104.34438 
L 296.399519 103.364296 
L 297.020336 102.394367 
L 297.304172 101.907482 
L 298.712446 100.925541 
L 299.131227 100.439163 
L 299.634317 99.471661 
L 301.469893 98.011536 
L 301.930579 97.053364 
L 302.473078 96.570012 
L 303.252299 96.085983 
L 303.766219 95.606803 
L 304.211376 94.659662 
L 304.666629 94.182724 
L 305.461416 93.704646 
L 306.003498 93.230764 
L 306.842288 91.82257 
L 308.224896 90.878649 
L 308.966083 89.483101 
L 310.424347 88.544415 
L 311.108466 87.156891 
L 312.616272 86.221889 
L 312.906466 85.761856 
L 313.208304 84.842283 
L 314.789915 83.909794 
L 315.103828 83.45068 
L 315.335681 82.535062 
L 317.330306 81.146233 
L 317.423168 80.236242 
L 318.086275 79.772177 
L 319.03625 79.306614 
L 319.534448 78.847394 
L 319.567677 77.93776 
L 320.134743 77.473676 
L 321.150974 77.006914 
L 321.744637 76.54635 
L 321.802712 76.092911 
L 321.697977 75.637538 
L 322.130275 75.173067 
L 323.193762 74.703541 
L 323.952287 74.239476 
L 324.011416 73.78391 
L 323.905133 73.328209 
L 324.144085 72.863187 
L 326.163346 71.924984 
L 326.242273 71.468838 
L 326.109247 70.551402 
L 328.330228 69.611256 
L 328.459608 69.155622 
L 328.380195 68.704813 
L 328.044716 68.244799 
L 330.462928 67.306152 
L 330.626087 66.853573 
L 330.632445 66.409637 
L 329.879179 65.956846 
L 330.95256 65.48963 
L 332.472798 65.022704 
L 332.777485 64.572832 
L 332.788983 64.136031 
L 331.771057 63.691255 
L 332.546329 63.227886 
L 334.404538 62.761434 
L 334.867455 62.314733 
L 334.805981 61.886924 
L 333.731876 61.452018 
L 333.834074 60.991986 
L 336.182172 60.522836 
L 336.88241 60.076996 
L 336.432347 59.659734 
L 336.147 59.237697 
L 334.60963 58.779859 
L 337.716418 58.301921 
L 338.837733 57.85202 
L 337.237001 57.44751 
L 338.985592 57.043475 
L 335.085593 56.58437 
L 341.285197 55.624859 
L 338.158822 55.251964 
L 340.474964 54.887035 
L 335.152372 54.401189 
L 338.586256 53.835465 
L 351.104676 53.568 
L 365.169352 54.230694 
L 391.098503 56.38838 
L 398.487273 60.214098 
L 377.16775 65.394458 
L 298.903772 77.223207 
L 296.60003 82.643904 
L 291.479858 87.301099 
L 287.662831 91.298564 
L 288.473577 95.083149 
L 301.301897 99.236641 
L 306.797886 104.107079 
L 296.610337 109.530744 
L 262.608114 114.928494 
L 264.517401 119.767274 
L 255.544642 124.011418 
L 258.596344 128.141403 
L 275.463648 132.703955 
L 275.887692 137.813666 
L 250.068903 143.08004 
L 236.151299 148.011432 
L 229.620606 152.478744 
L 233.236234 156.78917 
L 243.728015 161.339805 
L 243.666137 166.236677 
L 226.109727 171.250883 
L 212.055607 176.098032 
L 209.317365 180.710279 
L 207.010009 185.239975 
L 211.985448 189.856754 
L 206.716247 194.59242 
L 195.616496 199.37067 
L 187.929369 204.124961 
L 183.072053 208.844905 
L 176.616963 213.532576 
L 172.76581 218.174467 
L 168.498225 222.781581 
L 169.046226 227.420306 
L 170.681094 232.152718 
L 162.27808 236.943308 
L 151.217481 241.66918 
L 147.919592 246.256944 
L 144.993544 250.788306 
L 150.964099 255.422675 
L 148.004446 260.203089 
L 128.212574 264.983928 
L 123.016686 269.599203 
L 123.169822 274.089441 
L 132.108578 278.685438 
L 128.849543 283.496461 
L 107.660133 288.205873 
L 88.382492 292.126898 
L 78.931099 294.618614 
L 73.832727 295.488 
L 81.95513 295.031341 
L 91.679291 293.756295 
L 104.977894 292.127043 
L 129.370251 290.551409 
L 137.302276 289.456323 
L 137.912026 289.16841 
L 134.003809 289.607086 
L 122.019932 290.15707 
L 99.902499 290.022598 
L 89.967512 288.86993 
L 102.758479 287.168476 
L 144.985399 285.837617 
L 142.925195 285.461822 
L 138.393825 285.786706 
L 113.752776 285.968638 
L 93.552049 285.338574 
L 101.700737 283.969004 
L 129.522902 282.548194 
L 149.809344 281.733171 
L 147.298912 281.60156 
L 136.827357 281.662807 
L 115.060502 281.340263 
L 106.746099 280.449453 
L 122.384206 279.281442 
L 148.212057 278.297732 
L 154.048294 277.748608 
L 148.547115 277.520008 
L 128.472543 277.275939 
L 119.471214 276.738756 
L 121.531665 275.886076 
L 150.368641 274.170043 
L 155.022831 273.691748 
L 147.451929 273.37542 
L 134.295899 272.9718 
L 125.020885 272.323628 
L 144.13841 270.682252 
L 146.568678 270.064205 
L 149.307967 269.620985 
L 138.656295 269.190343 
L 132.344489 268.622782 
L 138.397242 267.907843 
L 143.273803 267.159655 
L 150.632294 266.497774 
L 150.260626 265.947181 
L 141.019794 264.889684 
L 144.576206 264.266465 
L 145.336865 263.601268 
L 149.385456 262.949518 
L 147.449978 262.34725 
L 149.257267 261.791871 
L 146.884359 261.250211 
L 146.752588 260.683869 
L 149.792038 260.077443 
L 149.985778 259.451024 
L 153.14749 258.84368 
L 150.836139 258.278343 
L 151.680142 257.739961 
L 149.013632 257.190605 
L 154.079581 256.607972 
L 153.462521 256.006661 
L 156.076543 255.420132 
L 153.465974 254.863545 
L 153.074646 254.319719 
L 153.559166 253.76146 
L 157.175155 253.182452 
L 157.801428 252.600564 
L 157.01338 252.033796 
L 155.219329 251.478853 
L 155.686241 250.917635 
L 159.190669 250.339845 
L 160.093416 249.753123 
L 160.141794 249.171027 
L 158.43175 248.595954 
L 158.583265 248.018552 
L 160.987698 247.430955 
L 162.427873 246.835473 
L 162.513162 246.238449 
L 161.887824 245.641527 
L 162.274787 245.041869 
L 163.753015 244.439982 
L 164.562712 243.840943 
L 164.31867 243.246549 
L 164.311899 242.650226 
L 167.599743 241.43388 
L 168.125605 240.832017 
L 167.267017 240.248017 
L 167.248369 239.673558 
L 168.165206 239.091099 
L 170.93465 238.493945 
L 171.804415 237.89464 
L 171.193621 237.311021 
L 170.363155 236.74581 
L 170.493556 236.183905 
L 172.703529 235.609722 
L 174.443004 235.023749 
L 174.789959 234.439835 
L 173.454024 233.867847 
L 173.11008 233.303859 
L 174.279049 232.737048 
L 176.384094 232.162797 
L 177.013793 231.585724 
L 176.175906 230.43932 
L 177.059468 229.866346 
L 178.403735 229.292815 
L 178.925085 228.722379 
L 178.790941 228.155481 
L 179.108761 227.587132 
L 181.550106 226.437843 
L 181.693934 225.868629 
L 181.336792 225.308388 
L 181.667374 224.750379 
L 184.560386 223.616641 
L 184.871298 223.049854 
L 184.250774 222.492295 
L 184.297287 221.940615 
L 185.383743 221.386667 
L 186.986751 220.827837 
L 187.546272 220.269678 
L 187.1363 219.718046 
L 186.999829 219.171572 
L 187.874519 218.62414 
L 189.302463 218.073373 
L 189.957563 217.523466 
L 189.728326 216.978713 
L 189.671135 216.437058 
L 190.535705 215.892585 
L 191.890265 215.343548 
L 192.515452 214.794749 
L 192.281506 214.250681 
L 192.221507 213.70863 
L 193.144029 213.161319 
L 194.633961 212.606202 
L 195.369 212.049034 
L 194.847348 210.948085 
L 195.62219 210.395172 
L 197.239783 209.832779 
L 198.198281 209.265088 
L 198.169607 208.700438 
L 197.70238 208.141175 
L 198.181073 207.581243 
L 200.776177 206.441025 
L 201.016847 205.868572 
L 200.67528 205.300777 
L 200.976032 204.73487 
L 203.184214 203.595669 
L 203.516728 203.027147 
L 203.444871 202.462939 
L 203.833627 201.900092 
L 205.773929 200.770059 
L 206.04888 200.209583 
L 206.081939 199.655444 
L 206.551934 199.103183 
L 208.499084 197.990309 
L 208.751055 197.4369 
L 208.665662 196.890877 
L 209.081102 196.348323 
L 211.065141 195.252916 
L 211.4608 194.70395 
L 211.330639 194.160373 
L 211.551827 193.620391 
L 212.383508 193.078531 
L 213.446786 192.532803 
L 213.987987 191.986899 
L 213.982105 191.444816 
L 214.149293 190.905368 
L 214.888324 190.36401 
L 215.895334 189.819194 
L 216.481195 189.274655 
L 216.554209 188.734503 
L 216.768638 188.19778 
L 217.466887 187.659952 
L 218.421357 187.119232 
L 219.009812 186.579272 
L 219.107079 186.044475 
L 219.333191 185.514163 
L 219.97792 184.983433 
L 220.890691 184.449602 
L 221.509091 183.915732 
L 221.814931 182.86237 
L 222.40038 182.338469 
L 223.93632 181.283582 
L 224.245854 180.238178 
L 224.752957 179.716734 
L 226.342357 178.662791 
L 226.60515 178.136672 
L 226.706031 177.613896 
L 227.161631 177.090565 
L 228.768697 176.031388 
L 229.110093 175.500977 
L 229.207791 174.973156 
L 229.610256 174.444597 
L 231.2198 173.374672 
L 231.621986 172.838775 
L 231.75081 172.305896 
L 232.127434 171.772853 
L 234.173885 170.152363 
L 234.325388 169.614729 
L 223.429036 168.809416 
L 223.429036 168.809416 
" clip-path="url(#pf9185ffec9)" style="fill: none; stroke: #1f77b4; stroke-width: 1.5; stroke-linecap: square"/>
   </g>
   <g id="line2d_28">
    <path d="M 235.823546 168.775739 
L 240.203149 163.942855 
L 252.506096 150.997012 
L 253.910905 149.475251 
L 256.699619 146.447809 
L 260.988676 141.93428 
L 262.453743 140.420345 
L 265.833219 136.859845 
L 268.637319 133.784111 
L 276.601728 125.204774 
L 278.019686 123.726613 
L 279.468748 122.255495 
L 284.617051 116.896944 
L 288.650996 112.549111 
L 291.799437 109.183914 
L 293.148125 107.735608 
L 294.496143 106.284754 
L 297.709732 102.878275 
L 299.065662 101.416448 
L 301.721855 98.494806 
L 305.76821 94.182724 
L 306.621608 93.230764 
L 308.019429 91.82257 
L 309.362702 90.414246 
L 310.662283 89.012298 
L 328.349605 70.079313 
L 329.250501 69.155622 
L 330.180146 68.244799 
L 330.830986 67.306152 
L 332.334907 65.956846 
L 332.920305 65.022704 
L 334.731635 63.227886 
L 334.981481 62.761434 
L 335.453367 62.314733 
L 336.637008 61.452018 
L 337.467296 60.076996 
L 338.843504 59.237697 
L 339.080515 58.779859 
L 339.090758 58.301921 
L 339.412952 57.85202 
L 341.118035 57.043475 
L 341.354001 56.58437 
L 341.033244 56.084118 
L 341.076826 55.624859 
L 342.215933 55.251964 
L 343.814136 54.887035 
L 343.95353 54.401189 
L 340.95636 53.835465 
L 334.931037 53.568 
L 327.802548 54.230694 
L 321.82535 56.38838 
L 318.081493 60.214098 
L 316.264794 65.394458 
L 315.488184 71.294388 
L 314.857601 77.223207 
L 313.28189 82.643904 
L 309.367022 87.301099 
L 302.316585 91.298564 
L 293.24281 95.083149 
L 285.127956 99.236641 
L 280.692018 104.107079 
L 279.844199 109.530744 
L 279.407659 114.928494 
L 275.83007 119.767274 
L 268.451252 124.011418 
L 260.061525 128.141403 
L 254.125497 132.703955 
L 251.480151 137.813666 
L 249.82498 143.08004 
L 246.328322 148.011432 
L 240.44759 152.478744 
L 234.076992 156.78917 
L 229.205409 161.339805 
L 222.473094 171.250883 
L 217.856923 176.098032 
L 212.426267 180.710279 
L 207.39543 185.239975 
L 203.247349 189.856754 
L 199.35785 194.59242 
L 195.008386 199.37067 
L 190.299171 204.124961 
L 185.816587 208.844905 
L 181.672844 213.532576 
L 177.330977 218.174467 
L 167.561773 227.420306 
L 163.392533 232.152718 
L 159.835045 236.943308 
L 155.841319 241.66918 
L 150.719402 246.256944 
L 145.198443 250.788306 
L 140.732285 255.422675 
L 134.488549 264.983928 
L 129.505659 269.599203 
L 123.052499 274.089441 
L 117.780121 278.685438 
L 116.254761 283.496461 
L 118.386527 288.205873 
L 121.497071 292.126898 
L 122.935597 294.618614 
L 122.30964 295.488 
L 120.974219 295.031341 
L 119.746822 293.756295 
L 117.89389 292.127043 
L 114.722668 290.551409 
L 111.657785 289.456323 
L 111.747853 289.16841 
L 123.460675 290.15707 
L 127.628229 290.022598 
L 125.948423 288.86993 
L 116.332873 285.837617 
L 117.729906 285.461822 
L 123.568864 285.786706 
L 129.108083 285.968638 
L 130.360564 285.338574 
L 127.459903 283.969004 
L 123.976629 282.548194 
L 123.3472 281.733171 
L 126.022751 281.60156 
L 129.682909 281.662807 
L 131.711386 281.340263 
L 131.355321 280.449453 
L 129.879691 279.281442 
L 129.117043 278.297732 
L 129.968357 277.748608 
L 133.874173 277.275939 
L 134.714877 276.738756 
L 134.399728 275.886076 
L 133.730537 274.938582 
L 133.742466 274.170043 
L 134.874197 273.691748 
L 136.612701 273.37542 
L 137.949717 272.9718 
L 138.283501 272.323628 
L 137.943258 271.490719 
L 137.838449 270.682252 
L 138.584698 270.064205 
L 141.218619 269.190343 
L 141.793381 268.622782 
L 141.855927 267.159655 
L 142.379439 266.497774 
L 145.182602 264.889684 
L 145.552914 264.266465 
L 146.004379 262.949518 
L 146.606992 262.34725 
L 148.374611 261.250211 
L 148.965607 260.683869 
L 149.42071 259.451024 
L 149.91211 258.84368 
L 152.234821 257.190605 
L 152.692095 256.006661 
L 153.218199 255.420132 
L 154.880149 254.319719 
L 155.440774 253.76146 
L 156.120748 252.600564 
L 156.672404 252.033796 
L 158.67036 250.339845 
L 161.444073 247.430955 
L 163.457846 245.641527 
L 164.823075 243.840943 
L 166.304752 242.650226 
L 166.840055 242.044656 
L 167.535255 240.832017 
L 168.085092 240.248017 
L 169.416281 239.091099 
L 171.305571 236.74581 
L 172.508337 235.609722 
L 174.664335 233.303859 
L 188.660396 218.62414 
L 189.610966 217.523466 
L 191.261344 215.892585 
L 192.197027 214.794749 
L 194.442108 212.606202 
L 195.465375 211.496687 
L 197.186101 209.832779 
L 198.792355 208.141175 
L 200.385639 206.441025 
L 207.588005 198.547771 
L 209.090057 196.890877 
L 210.632363 195.252916 
L 213.783168 191.986899 
L 215.913893 189.819194 
L 220.007359 185.514163 
L 232.484975 172.305896 
L 233.99317 170.693599 
L 235.792807 168.809416 
L 235.792807 168.809416 
" clip-path="url(#pf9185ffec9)" style="fill: none; stroke: #ff7f0e; stroke-opacity: 0.5; stroke-width: 1.5; stroke-linecap: square"/>
   </g>
   <g id="patch_3">
    <path d="M 57.6 307.584 
L 57.6 41.472 
" style="fill: none; stroke: #000000; stroke-width: 0.8; stroke-linejoin: miter; stroke-linecap: square"/>
   </g>
   <g id="patch_4">
    <path d="M 414.72 307.584 
L 414.72 41.472 
" style="fill: none; stroke: #000000; stroke-width: 0.8; stroke-linejoin: miter; stroke-linecap: square"/>
   </g>
   <g id="patch_5">
    <path d="M 57.6 307.584 
L 414.72 307.584 
" style="fill: none; stroke: #000000; stroke-width: 0.8; stroke-linejoin: miter; stroke-linecap: square"/>
   </g>
   <g id="patch_6">
    <path d="M 57.6 41.472 
L 414.72 41.472 
" style="fill: none; stroke: #000000; stroke-width: 0.8; stroke-linejoin: miter; stroke-linecap: square"/>
   </g>
   <g id="text_16">
    <!-- Compare - Epoch 2400 -->
    <g transform="translate(167.416875 35.472) scale(0.12 -0.12)">
     <defs>
      <path id="DejaVuSans-43" d="M 4122 4306 
L 4122 3641 
Q 3803 3938 3442 4084 
Q 3081 4231 2675 4231 
Q 1875 4231 1450 3742 
Q 1025 3253 1025 2328 
Q 1025 1406 1450 917 
Q 1875 428 2675 428 
Q 3081 428 3442 575 
Q 3803 722 4122 1019 
L 4122 359 
Q 3791 134 3420 21 
Q 3050 -91 2638 -91 
Q 1578 -91 968 557 
Q 359 1206 359 2328 
Q 359 3453 968 4101 
Q 1578 4750 2638 4750 
Q 3056 4750 3426 4639 
Q 3797 4528 4122 4306 
z
" transform="scale(0.015625)"/>
      <path id="DejaVuSans-6f" d="M 1959 3097 
Q 1497 3097 1228 2736 
Q 959 2375 959 1747 
Q 959 1119 1226 758 
Q 1494 397 1959 397 
Q 2419 397 2687 759 
Q 2956 1122 2956 1747 
Q 2956 2369 2687 2733 
Q 2419 3097 1959 3097 
z
M 1959 3584 
Q 2709 3584 3137 3096 
Q 3566 2609 3566 1747 
Q 3566 888 3137 398 
Q 2709 -91 1959 -91 
Q 1206 -91 779 398 
Q 353 888 353 1747 
Q 353 2609 779 3096 
Q 1206 3584 1959 3584 
z
" transform="scale(0.015625)"/>
      <path id="DejaVuSans-6d" d="M 3328 2828 
Q 3544 3216 3844 3400 
Q 4144 3584 4550 3584 
Q 5097 3584 5394 3201 
Q 5691 2819 5691 2113 
L 5691 0 
L 5113 0 
L 5113 2094 
Q 5113 2597 4934 2840 
Q 4756 3084 4391 3084 
Q 3944 3084 3684 2787 
Q 3425 2491 3425 1978 
L 3425 0 
L 2847 0 
L 2847 2094 
Q 2847 2600 2669 2842 
Q 2491 3084 2119 3084 
Q 1678 3084 1418 2786 
Q 1159 2488 1159 1978 
L 1159 0 
L 581 0 
L 581 3500 
L 1159 3500 
L 1159 2956 
Q 1356 3278 1631 3431 
Q 1906 3584 2284 3584 
Q 2666 3584 2933 3390 
Q 3200 3197 3328 2828 
z
" transform="scale(0.015625)"/>
      <path id="DejaVuSans-70" d="M 1159 525 
L 1159 -1331 
L 581 -1331 
L 581 3500 
L 1159 3500 
L 1159 2969 
Q 1341 3281 1617 3432 
Q 1894 3584 2278 3584 
Q 2916 3584 3314 3078 
Q 3713 2572 3713 1747 
Q 3713 922 3314 415 
Q 2916 -91 2278 -91 
Q 1894 -91 1617 61 
Q 1341 213 1159 525 
z
M 3116 1747 
Q 3116 2381 2855 2742 
Q 2594 3103 2138 3103 
Q 1681 3103 1420 2742 
Q 1159 2381 1159 1747 
Q 1159 1113 1420 752 
Q 1681 391 2138 391 
Q 2594 391 2855 752 
Q 3116 1113 3116 1747 
z
" transform="scale(0.015625)"/>
      <path id="DejaVuSans-72" d="M 2631 2963 
Q 2534 3019 2420 3045 
Q 2306 3072 2169 3072 
Q 1681 3072 1420 2755 
Q 1159 2438 1159 1844 
L 1159 0 
L 581 0 
L 581 3500 
L 1159 3500 
L 1159 2956 
Q 1341 3275 1631 3429 
Q 1922 3584 2338 3584 
Q 2397 3584 2469 3576 
Q 2541 3569 2628 3553 
L 2631 2963 
z
" transform="scale(0.015625)"/>
      <path id="DejaVuSans-20" transform="scale(0.015625)"/>
      <path id="DejaVuSans-2d" d="M 313 2009 
L 1997 2009 
L 1997 1497 
L 313 1497 
L 313 2009 
z
" transform="scale(0.015625)"/>
      <path id="DejaVuSans-45" d="M 628 4666 
L 3578 4666 
L 3578 4134 
L 1259 4134 
L 1259 2753 
L 3481 2753 
L 3481 2222 
L 1259 2222 
L 1259 531 
L 3634 531 
L 3634 0 
L 628 0 
L 628 4666 
z
" transform="scale(0.015625)"/>
      <path id="DejaVuSans-63" d="M 3122 3366 
L 3122 2828 
Q 2878 2963 2633 3030 
Q 2388 3097 2138 3097 
Q 1578 3097 1268 2742 
Q 959 2388 959 1747 
Q 959 1106 1268 751 
Q 1578 397 2138 397 
Q 2388 397 2633 464 
Q 2878 531 3122 666 
L 3122 134 
Q 2881 22 2623 -34 
Q 2366 -91 2075 -91 
Q 1284 -91 818 406 
Q 353 903 353 1747 
Q 353 2603 823 3093 
Q 1294 3584 2113 3584 
Q 2378 3584 2631 3529 
Q 2884 3475 3122 3366 
z
" transform="scale(0.015625)"/>
      <path id="DejaVuSans-68" d="M 3513 2113 
L 3513 0 
L 2938 0 
L 2938 2094 
Q 2938 2591 2744 2837 
Q 2550 3084 2163 3084 
Q 1697 3084 1428 2787 
Q 1159 2491 1159 1978 
L 1159 0 
L 581 0 
L 581 4863 
L 1159 4863 
L 1159 2956 
Q 1366 3272 1645 3428 
Q 1925 3584 2291 3584 
Q 2894 3584 3203 3211 
Q 3513 2838 3513 2113 
z
" transform="scale(0.015625)"/>
     </defs>
     <use xlink:href="#DejaVuSans-43"/>
     <use xlink:href="#DejaVuSans-6f" transform="translate(69.824219 0)"/>
     <use xlink:href="#DejaVuSans-6d" transform="translate(131.005859 0)"/>
     <use xlink:href="#DejaVuSans-70" transform="translate(228.417969 0)"/>
     <use xlink:href="#DejaVuSans-61" transform="translate(291.894531 0)"/>
     <use xlink:href="#DejaVuSans-72" transform="translate(353.173828 0)"/>
     <use xlink:href="#DejaVuSans-65" transform="translate(392.037109 0)"/>
     <use xlink:href="#DejaVuSans-20" transform="translate(453.560547 0)"/>
     <use xlink:href="#DejaVuSans-2d" transform="translate(485.347656 0)"/>
     <use xlink:href="#DejaVuSans-20" transform="translate(521.431641 0)"/>
     <use xlink:href="#DejaVuSans-45" transform="translate(553.21875 0)"/>
     <use xlink:href="#DejaVuSans-70" transform="translate(616.402344 0)"/>
     <use xlink:href="#DejaVuSans-6f" transform="translate(679.878906 0)"/>
     <use xlink:href="#DejaVuSans-63" transform="translate(741.060547 0)"/>
     <use xlink:href="#DejaVuSans-68" transform="translate(796.041016 0)"/>
     <use xlink:href="#DejaVuSans-20" transform="translate(859.419922 0)"/>
     <use xlink:href="#DejaVuSans-32" transform="translate(891.207031 0)"/>
     <use xlink:href="#DejaVuSans-34" transform="translate(954.830078 0)"/>
     <use xlink:href="#DejaVuSans-30" transform="translate(1018.453125 0)"/>
     <use xlink:href="#DejaVuSans-30" transform="translate(1082.076172 0)"/>
    </g>
   </g>
   <g id="legend_1">
    <g id="patch_7">
     <path d="M 64.6 78.82825 
L 181.128125 78.82825 
Q 183.128125 78.82825 183.128125 76.82825 
L 183.128125 48.472 
Q 183.128125 46.472 181.128125 46.472 
L 64.6 46.472 
Q 62.6 46.472 62.6 48.472 
L 62.6 76.82825 
Q 62.6 78.82825 64.6 78.82825 
z
" style="fill: #ffffff; opacity: 0.8; stroke: #cccccc; stroke-linejoin: miter"/>
    </g>
    <g id="line2d_29">
     <path d="M 66.6 54.570437 
L 76.6 54.570437 
L 86.6 54.570437 
" style="fill: none; stroke: #1f77b4; stroke-width: 1.5; stroke-linecap: square"/>
    </g>
    <g id="text_17">
     <!-- Pred: Sample 1 -->
     <g transform="translate(94.6 58.070437) scale(0.1 -0.1)">
      <defs>
       <path id="DejaVuSans-50" d="M 1259 4147 
L 1259 2394 
L 2053 2394 
Q 2494 2394 2734 2622 
Q 2975 2850 2975 3272 
Q 2975 3691 2734 3919 
Q 2494 4147 2053 4147 
L 1259 4147 
z
M 628 4666 
L 2053 4666 
Q 2838 4666 3239 4311 
Q 3641 3956 3641 3272 
Q 3641 2581 3239 2228 
Q 2838 1875 2053 1875 
L 1259 1875 
L 1259 0 
L 628 0 
L 628 4666 
z
" transform="scale(0.015625)"/>
       <path id="DejaVuSans-3a" d="M 750 794 
L 1409 794 
L 1409 0 
L 750 0 
L 750 794 
z
M 750 3309 
L 1409 3309 
L 1409 2516 
L 750 2516 
L 750 3309 
z
" transform="scale(0.015625)"/>
       <path id="DejaVuSans-53" d="M 3425 4513 
L 3425 3897 
Q 3066 4069 2747 4153 
Q 2428 4238 2131 4238 
Q 1616 4238 1336 4038 
Q 1056 3838 1056 3469 
Q 1056 3159 1242 3001 
Q 1428 2844 1947 2747 
L 2328 2669 
Q 3034 2534 3370 2195 
Q 3706 1856 3706 1288 
Q 3706 609 3251 259 
Q 2797 -91 1919 -91 
Q 1588 -91 1214 -16 
Q 841 59 441 206 
L 441 856 
Q 825 641 1194 531 
Q 1563 422 1919 422 
Q 2459 422 2753 634 
Q 3047 847 3047 1241 
Q 3047 1584 2836 1778 
Q 2625 1972 2144 2069 
L 1759 2144 
Q 1053 2284 737 2584 
Q 422 2884 422 3419 
Q 422 4038 858 4394 
Q 1294 4750 2059 4750 
Q 2388 4750 2728 4690 
Q 3069 4631 3425 4513 
z
" transform="scale(0.015625)"/>
      </defs>
      <use xlink:href="#DejaVuSans-50"/>
      <use xlink:href="#DejaVuSans-72" transform="translate(58.552734 0)"/>
      <use xlink:href="#DejaVuSans-65" transform="translate(97.416016 0)"/>
      <use xlink:href="#DejaVuSans-64" transform="translate(158.939453 0)"/>
      <use xlink:href="#DejaVuSans-3a" transform="translate(222.416016 0)"/>
      <use xlink:href="#DejaVuSans-20" transform="translate(256.107422 0)"/>
      <use xlink:href="#DejaVuSans-53" transform="translate(287.894531 0)"/>
      <use xlink:href="#DejaVuSans-61" transform="translate(351.371094 0)"/>
      <use xlink:href="#DejaVuSans-6d" transform="translate(412.650391 0)"/>
      <use xlink:href="#DejaVuSans-70" transform="translate(510.0625 0)"/>
      <use xlink:href="#DejaVuSans-6c" transform="translate(573.539062 0)"/>
      <use xlink:href="#DejaVuSans-65" transform="translate(601.322266 0)"/>
      <use xlink:href="#DejaVuSans-20" transform="translate(662.845703 0)"/>
      <use xlink:href="#DejaVuSans-31" transform="translate(694.632812 0)"/>
     </g>
    </g>
    <g id="line2d_30">
     <path d="M 66.6 69.248562 
L 76.6 69.248562 
L 86.6 69.248562 
" style="fill: none; stroke: #ff7f0e; stroke-opacity: 0.5; stroke-width: 1.5; stroke-linecap: square"/>
    </g>
    <g id="text_18">
     <!-- Target: Sample 1 -->
     <g transform="translate(94.6 72.748562) scale(0.1 -0.1)">
      <defs>
       <path id="DejaVuSans-54" d="M -19 4666 
L 3928 4666 
L 3928 4134 
L 2272 4134 
L 2272 0 
L 1638 0 
L 1638 4134 
L -19 4134 
L -19 4666 
z
" transform="scale(0.015625)"/>
       <path id="DejaVuSans-67" d="M 2906 1791 
Q 2906 2416 2648 2759 
Q 2391 3103 1925 3103 
Q 1463 3103 1205 2759 
Q 947 2416 947 1791 
Q 947 1169 1205 825 
Q 1463 481 1925 481 
Q 2391 481 2648 825 
Q 2906 1169 2906 1791 
z
M 3481 434 
Q 3481 -459 3084 -895 
Q 2688 -1331 1869 -1331 
Q 1566 -1331 1297 -1286 
Q 1028 -1241 775 -1147 
L 775 -588 
Q 1028 -725 1275 -790 
Q 1522 -856 1778 -856 
Q 2344 -856 2625 -561 
Q 2906 -266 2906 331 
L 2906 616 
Q 2728 306 2450 153 
Q 2172 0 1784 0 
Q 1141 0 747 490 
Q 353 981 353 1791 
Q 353 2603 747 3093 
Q 1141 3584 1784 3584 
Q 2172 3584 2450 3431 
Q 2728 3278 2906 2969 
L 2906 3500 
L 3481 3500 
L 3481 434 
z
" transform="scale(0.015625)"/>
       <path id="DejaVuSans-74" d="M 1172 4494 
L 1172 3500 
L 2356 3500 
L 2356 3053 
L 1172 3053 
L 1172 1153 
Q 1172 725 1289 603 
Q 1406 481 1766 481 
L 2356 481 
L 2356 0 
L 1766 0 
Q 1100 0 847 248 
Q 594 497 594 1153 
L 594 3053 
L 172 3053 
L 172 3500 
L 594 3500 
L 594 4494 
L 1172 4494 
z
" transform="scale(0.015625)"/>
      </defs>
      <use xlink:href="#DejaVuSans-54"/>
      <use xlink:href="#DejaVuSans-61" transform="translate(44.583984 0)"/>
      <use xlink:href="#DejaVuSans-72" transform="translate(105.863281 0)"/>
      <use xlink:href="#DejaVuSans-67" transform="translate(145.226562 0)"/>
      <use xlink:href="#DejaVuSans-65" transform="translate(208.703125 0)"/>
      <use xlink:href="#DejaVuSans-74" transform="translate(270.226562 0)"/>
      <use xlink:href="#DejaVuSans-3a" transform="translate(309.435547 0)"/>
      <use xlink:href="#DejaVuSans-20" transform="translate(343.126953 0)"/>
      <use xlink:href="#DejaVuSans-53" transform="translate(374.914062 0)"/>
      <use xlink:href="#DejaVuSans-61" transform="translate(438.390625 0)"/>
      <use xlink:href="#DejaVuSans-6d" transform="translate(499.669922 0)"/>
      <use xlink:href="#DejaVuSans-70" transform="translate(597.082031 0)"/>
      <use xlink:href="#DejaVuSans-6c" transform="translate(660.558594 0)"/>
      <use xlink:href="#DejaVuSans-65" transform="translate(688.341797 0)"/>
      <use xlink:href="#DejaVuSans-20" transform="translate(749.865234 0)"/>
      <use xlink:href="#DejaVuSans-31" transform="translate(781.652344 0)"/>
     </g>
    </g>
   </g>
  </g>
 </g>
 <defs>
  <clipPath id="pf9185ffec9">
   <rect x="57.6" y="41.472" width="357.12" height="266.112"/>
  </clipPath>
 </defs>
</svg>
