<?xml version="1.0" encoding="utf-8" standalone="no"?>
<!DOCTYPE svg PUBLIC "-//W3C//DTD SVG 1.1//EN"
  "http://www.w3.org/Graphics/SVG/1.1/DTD/svg11.dtd">
<svg xmlns:xlink="http://www.w3.org/1999/xlink" width="460.8pt" height="345.6pt" viewBox="0 0 460.8 345.6" xmlns="http://www.w3.org/2000/svg" version="1.1">
 <metadata>
  <rdf:RDF xmlns:dc="http://purl.org/dc/elements/1.1/" xmlns:cc="http://creativecommons.org/ns#" xmlns:rdf="http://www.w3.org/1999/02/22-rdf-syntax-ns#">
   <cc:Work>
    <dc:type rdf:resource="http://purl.org/dc/dcmitype/StillImage"/>
    <dc:date>2025-05-21T03:44:18.160713</dc:date>
    <dc:format>image/svg+xml</dc:format>
    <dc:creator>
     <cc:Agent>
      <dc:title>Matplotlib v3.10.0, https://matplotlib.org/</dc:title>
     </cc:Agent>
    </dc:creator>
   </cc:Work>
  </rdf:RDF>
 </metadata>
 <defs>
  <style type="text/css">*{stroke-linejoin: round; stroke-linecap: butt}</style>
 </defs>
 <g id="figure_1">
  <g id="patch_1">
   <path d="M 0 345.6 
L 460.8 345.6 
L 460.8 0 
L 0 0 
z
" style="fill: #ffffff"/>
  </g>
  <g id="axes_1">
   <g id="patch_2">
    <path d="M 57.6 307.584 
L 414.72 307.584 
L 414.72 41.472 
L 57.6 41.472 
z
" style="fill: #ffffff"/>
   </g>
   <g id="matplotlib.axis_1">
    <g id="xtick_1">
     <g id="line2d_1">
      <path d="M 73.91824 307.584 
L 73.91824 41.472 
" clip-path="url(#ped69371dd2)" style="fill: none; stroke: #b0b0b0; stroke-opacity: 0.5; stroke-width: 0.8; stroke-linecap: square"/>
     </g>
     <g id="line2d_2">
      <defs>
       <path id="mb832bf8c3f" d="M 0 0 
L 0 3.5 
" style="stroke: #000000; stroke-width: 0.8"/>
      </defs>
      <g>
       <use xlink:href="#mb832bf8c3f" x="73.91824" y="307.584" style="stroke: #000000; stroke-width: 0.8"/>
      </g>
     </g>
     <g id="text_1">
      <!-- −0.8 -->
      <g transform="translate(61.776833 322.182437) scale(0.1 -0.1)">
       <defs>
        <path id="DejaVuSans-2212" d="M 678 2272 
L 4684 2272 
L 4684 1741 
L 678 1741 
L 678 2272 
z
" transform="scale(0.015625)"/>
        <path id="DejaVuSans-30" d="M 2034 4250 
Q 1547 4250 1301 3770 
Q 1056 3291 1056 2328 
Q 1056 1369 1301 889 
Q 1547 409 2034 409 
Q 2525 409 2770 889 
Q 3016 1369 3016 2328 
Q 3016 3291 2770 3770 
Q 2525 4250 2034 4250 
z
M 2034 4750 
Q 2819 4750 3233 4129 
Q 3647 3509 3647 2328 
Q 3647 1150 3233 529 
Q 2819 -91 2034 -91 
Q 1250 -91 836 529 
Q 422 1150 422 2328 
Q 422 3509 836 4129 
Q 1250 4750 2034 4750 
z
" transform="scale(0.015625)"/>
        <path id="DejaVuSans-2e" d="M 684 794 
L 1344 794 
L 1344 0 
L 684 0 
L 684 794 
z
" transform="scale(0.015625)"/>
        <path id="DejaVuSans-38" d="M 2034 2216 
Q 1584 2216 1326 1975 
Q 1069 1734 1069 1313 
Q 1069 891 1326 650 
Q 1584 409 2034 409 
Q 2484 409 2743 651 
Q 3003 894 3003 1313 
Q 3003 1734 2745 1975 
Q 2488 2216 2034 2216 
z
M 1403 2484 
Q 997 2584 770 2862 
Q 544 3141 544 3541 
Q 544 4100 942 4425 
Q 1341 4750 2034 4750 
Q 2731 4750 3128 4425 
Q 3525 4100 3525 3541 
Q 3525 3141 3298 2862 
Q 3072 2584 2669 2484 
Q 3125 2378 3379 2068 
Q 3634 1759 3634 1313 
Q 3634 634 3220 271 
Q 2806 -91 2034 -91 
Q 1263 -91 848 271 
Q 434 634 434 1313 
Q 434 1759 690 2068 
Q 947 2378 1403 2484 
z
M 1172 3481 
Q 1172 3119 1398 2916 
Q 1625 2713 2034 2713 
Q 2441 2713 2670 2916 
Q 2900 3119 2900 3481 
Q 2900 3844 2670 4047 
Q 2441 4250 2034 4250 
Q 1625 4250 1398 4047 
Q 1172 3844 1172 3481 
z
" transform="scale(0.015625)"/>
       </defs>
       <use xlink:href="#DejaVuSans-2212"/>
       <use xlink:href="#DejaVuSans-30" transform="translate(83.789062 0)"/>
       <use xlink:href="#DejaVuSans-2e" transform="translate(147.412109 0)"/>
       <use xlink:href="#DejaVuSans-38" transform="translate(179.199219 0)"/>
      </g>
     </g>
    </g>
    <g id="xtick_2">
     <g id="line2d_3">
      <path d="M 116.488423 307.584 
L 116.488423 41.472 
" clip-path="url(#ped69371dd2)" style="fill: none; stroke: #b0b0b0; stroke-opacity: 0.5; stroke-width: 0.8; stroke-linecap: square"/>
     </g>
     <g id="line2d_4">
      <g>
       <use xlink:href="#mb832bf8c3f" x="116.488423" y="307.584" style="stroke: #000000; stroke-width: 0.8"/>
      </g>
     </g>
     <g id="text_2">
      <!-- −0.6 -->
      <g transform="translate(104.347017 322.182437) scale(0.1 -0.1)">
       <defs>
        <path id="DejaVuSans-36" d="M 2113 2584 
Q 1688 2584 1439 2293 
Q 1191 2003 1191 1497 
Q 1191 994 1439 701 
Q 1688 409 2113 409 
Q 2538 409 2786 701 
Q 3034 994 3034 1497 
Q 3034 2003 2786 2293 
Q 2538 2584 2113 2584 
z
M 3366 4563 
L 3366 3988 
Q 3128 4100 2886 4159 
Q 2644 4219 2406 4219 
Q 1781 4219 1451 3797 
Q 1122 3375 1075 2522 
Q 1259 2794 1537 2939 
Q 1816 3084 2150 3084 
Q 2853 3084 3261 2657 
Q 3669 2231 3669 1497 
Q 3669 778 3244 343 
Q 2819 -91 2113 -91 
Q 1303 -91 875 529 
Q 447 1150 447 2328 
Q 447 3434 972 4092 
Q 1497 4750 2381 4750 
Q 2619 4750 2861 4703 
Q 3103 4656 3366 4563 
z
" transform="scale(0.015625)"/>
       </defs>
       <use xlink:href="#DejaVuSans-2212"/>
       <use xlink:href="#DejaVuSans-30" transform="translate(83.789062 0)"/>
       <use xlink:href="#DejaVuSans-2e" transform="translate(147.412109 0)"/>
       <use xlink:href="#DejaVuSans-36" transform="translate(179.199219 0)"/>
      </g>
     </g>
    </g>
    <g id="xtick_3">
     <g id="line2d_5">
      <path d="M 159.058607 307.584 
L 159.058607 41.472 
" clip-path="url(#ped69371dd2)" style="fill: none; stroke: #b0b0b0; stroke-opacity: 0.5; stroke-width: 0.8; stroke-linecap: square"/>
     </g>
     <g id="line2d_6">
      <g>
       <use xlink:href="#mb832bf8c3f" x="159.058607" y="307.584" style="stroke: #000000; stroke-width: 0.8"/>
      </g>
     </g>
     <g id="text_3">
      <!-- −0.4 -->
      <g transform="translate(146.9172 322.182437) scale(0.1 -0.1)">
       <defs>
        <path id="DejaVuSans-34" d="M 2419 4116 
L 825 1625 
L 2419 1625 
L 2419 4116 
z
M 2253 4666 
L 3047 4666 
L 3047 1625 
L 3713 1625 
L 3713 1100 
L 3047 1100 
L 3047 0 
L 2419 0 
L 2419 1100 
L 313 1100 
L 313 1709 
L 2253 4666 
z
" transform="scale(0.015625)"/>
       </defs>
       <use xlink:href="#DejaVuSans-2212"/>
       <use xlink:href="#DejaVuSans-30" transform="translate(83.789062 0)"/>
       <use xlink:href="#DejaVuSans-2e" transform="translate(147.412109 0)"/>
       <use xlink:href="#DejaVuSans-34" transform="translate(179.199219 0)"/>
      </g>
     </g>
    </g>
    <g id="xtick_4">
     <g id="line2d_7">
      <path d="M 201.62879 307.584 
L 201.62879 41.472 
" clip-path="url(#ped69371dd2)" style="fill: none; stroke: #b0b0b0; stroke-opacity: 0.5; stroke-width: 0.8; stroke-linecap: square"/>
     </g>
     <g id="line2d_8">
      <g>
       <use xlink:href="#mb832bf8c3f" x="201.62879" y="307.584" style="stroke: #000000; stroke-width: 0.8"/>
      </g>
     </g>
     <g id="text_4">
      <!-- −0.2 -->
      <g transform="translate(189.487384 322.182437) scale(0.1 -0.1)">
       <defs>
        <path id="DejaVuSans-32" d="M 1228 531 
L 3431 531 
L 3431 0 
L 469 0 
L 469 531 
Q 828 903 1448 1529 
Q 2069 2156 2228 2338 
Q 2531 2678 2651 2914 
Q 2772 3150 2772 3378 
Q 2772 3750 2511 3984 
Q 2250 4219 1831 4219 
Q 1534 4219 1204 4116 
Q 875 4013 500 3803 
L 500 4441 
Q 881 4594 1212 4672 
Q 1544 4750 1819 4750 
Q 2544 4750 2975 4387 
Q 3406 4025 3406 3419 
Q 3406 3131 3298 2873 
Q 3191 2616 2906 2266 
Q 2828 2175 2409 1742 
Q 1991 1309 1228 531 
z
" transform="scale(0.015625)"/>
       </defs>
       <use xlink:href="#DejaVuSans-2212"/>
       <use xlink:href="#DejaVuSans-30" transform="translate(83.789062 0)"/>
       <use xlink:href="#DejaVuSans-2e" transform="translate(147.412109 0)"/>
       <use xlink:href="#DejaVuSans-32" transform="translate(179.199219 0)"/>
      </g>
     </g>
    </g>
    <g id="xtick_5">
     <g id="line2d_9">
      <path d="M 244.198974 307.584 
L 244.198974 41.472 
" clip-path="url(#ped69371dd2)" style="fill: none; stroke: #b0b0b0; stroke-opacity: 0.5; stroke-width: 0.8; stroke-linecap: square"/>
     </g>
     <g id="line2d_10">
      <g>
       <use xlink:href="#mb832bf8c3f" x="244.198974" y="307.584" style="stroke: #000000; stroke-width: 0.8"/>
      </g>
     </g>
     <g id="text_5">
      <!-- 0.0 -->
      <g transform="translate(236.247411 322.182437) scale(0.1 -0.1)">
       <use xlink:href="#DejaVuSans-30"/>
       <use xlink:href="#DejaVuSans-2e" transform="translate(63.623047 0)"/>
       <use xlink:href="#DejaVuSans-30" transform="translate(95.410156 0)"/>
      </g>
     </g>
    </g>
    <g id="xtick_6">
     <g id="line2d_11">
      <path d="M 286.769157 307.584 
L 286.769157 41.472 
" clip-path="url(#ped69371dd2)" style="fill: none; stroke: #b0b0b0; stroke-opacity: 0.5; stroke-width: 0.8; stroke-linecap: square"/>
     </g>
     <g id="line2d_12">
      <g>
       <use xlink:href="#mb832bf8c3f" x="286.769157" y="307.584" style="stroke: #000000; stroke-width: 0.8"/>
      </g>
     </g>
     <g id="text_6">
      <!-- 0.2 -->
      <g transform="translate(278.817595 322.182437) scale(0.1 -0.1)">
       <use xlink:href="#DejaVuSans-30"/>
       <use xlink:href="#DejaVuSans-2e" transform="translate(63.623047 0)"/>
       <use xlink:href="#DejaVuSans-32" transform="translate(95.410156 0)"/>
      </g>
     </g>
    </g>
    <g id="xtick_7">
     <g id="line2d_13">
      <path d="M 329.339341 307.584 
L 329.339341 41.472 
" clip-path="url(#ped69371dd2)" style="fill: none; stroke: #b0b0b0; stroke-opacity: 0.5; stroke-width: 0.8; stroke-linecap: square"/>
     </g>
     <g id="line2d_14">
      <g>
       <use xlink:href="#mb832bf8c3f" x="329.339341" y="307.584" style="stroke: #000000; stroke-width: 0.8"/>
      </g>
     </g>
     <g id="text_7">
      <!-- 0.4 -->
      <g transform="translate(321.387778 322.182437) scale(0.1 -0.1)">
       <use xlink:href="#DejaVuSans-30"/>
       <use xlink:href="#DejaVuSans-2e" transform="translate(63.623047 0)"/>
       <use xlink:href="#DejaVuSans-34" transform="translate(95.410156 0)"/>
      </g>
     </g>
    </g>
    <g id="xtick_8">
     <g id="line2d_15">
      <path d="M 371.909525 307.584 
L 371.909525 41.472 
" clip-path="url(#ped69371dd2)" style="fill: none; stroke: #b0b0b0; stroke-opacity: 0.5; stroke-width: 0.8; stroke-linecap: square"/>
     </g>
     <g id="line2d_16">
      <g>
       <use xlink:href="#mb832bf8c3f" x="371.909525" y="307.584" style="stroke: #000000; stroke-width: 0.8"/>
      </g>
     </g>
     <g id="text_8">
      <!-- 0.6 -->
      <g transform="translate(363.957962 322.182437) scale(0.1 -0.1)">
       <use xlink:href="#DejaVuSans-30"/>
       <use xlink:href="#DejaVuSans-2e" transform="translate(63.623047 0)"/>
       <use xlink:href="#DejaVuSans-36" transform="translate(95.410156 0)"/>
      </g>
     </g>
    </g>
    <g id="xtick_9">
     <g id="line2d_17">
      <path d="M 414.479708 307.584 
L 414.479708 41.472 
" clip-path="url(#ped69371dd2)" style="fill: none; stroke: #b0b0b0; stroke-opacity: 0.5; stroke-width: 0.8; stroke-linecap: square"/>
     </g>
     <g id="line2d_18">
      <g>
       <use xlink:href="#mb832bf8c3f" x="414.479708" y="307.584" style="stroke: #000000; stroke-width: 0.8"/>
      </g>
     </g>
     <g id="text_9">
      <!-- 0.8 -->
      <g transform="translate(406.528146 322.182437) scale(0.1 -0.1)">
       <use xlink:href="#DejaVuSans-30"/>
       <use xlink:href="#DejaVuSans-2e" transform="translate(63.623047 0)"/>
       <use xlink:href="#DejaVuSans-38" transform="translate(95.410156 0)"/>
      </g>
     </g>
    </g>
    <g id="text_10">
     <!-- Index -->
     <g transform="translate(222.393594 335.860562) scale(0.1 -0.1)">
      <defs>
       <path id="DejaVuSans-49" d="M 628 4666 
L 1259 4666 
L 1259 0 
L 628 0 
L 628 4666 
z
" transform="scale(0.015625)"/>
       <path id="DejaVuSans-6e" d="M 3513 2113 
L 3513 0 
L 2938 0 
L 2938 2094 
Q 2938 2591 2744 2837 
Q 2550 3084 2163 3084 
Q 1697 3084 1428 2787 
Q 1159 2491 1159 1978 
L 1159 0 
L 581 0 
L 581 3500 
L 1159 3500 
L 1159 2956 
Q 1366 3272 1645 3428 
Q 1925 3584 2291 3584 
Q 2894 3584 3203 3211 
Q 3513 2838 3513 2113 
z
" transform="scale(0.015625)"/>
       <path id="DejaVuSans-64" d="M 2906 2969 
L 2906 4863 
L 3481 4863 
L 3481 0 
L 2906 0 
L 2906 525 
Q 2725 213 2448 61 
Q 2172 -91 1784 -91 
Q 1150 -91 751 415 
Q 353 922 353 1747 
Q 353 2572 751 3078 
Q 1150 3584 1784 3584 
Q 2172 3584 2448 3432 
Q 2725 3281 2906 2969 
z
M 947 1747 
Q 947 1113 1208 752 
Q 1469 391 1925 391 
Q 2381 391 2643 752 
Q 2906 1113 2906 1747 
Q 2906 2381 2643 2742 
Q 2381 3103 1925 3103 
Q 1469 3103 1208 2742 
Q 947 2381 947 1747 
z
" transform="scale(0.015625)"/>
       <path id="DejaVuSans-65" d="M 3597 1894 
L 3597 1613 
L 953 1613 
Q 991 1019 1311 708 
Q 1631 397 2203 397 
Q 2534 397 2845 478 
Q 3156 559 3463 722 
L 3463 178 
Q 3153 47 2828 -22 
Q 2503 -91 2169 -91 
Q 1331 -91 842 396 
Q 353 884 353 1716 
Q 353 2575 817 3079 
Q 1281 3584 2069 3584 
Q 2775 3584 3186 3129 
Q 3597 2675 3597 1894 
z
M 3022 2063 
Q 3016 2534 2758 2815 
Q 2500 3097 2075 3097 
Q 1594 3097 1305 2825 
Q 1016 2553 972 2059 
L 3022 2063 
z
" transform="scale(0.015625)"/>
       <path id="DejaVuSans-78" d="M 3513 3500 
L 2247 1797 
L 3578 0 
L 2900 0 
L 1881 1375 
L 863 0 
L 184 0 
L 1544 1831 
L 300 3500 
L 978 3500 
L 1906 2253 
L 2834 3500 
L 3513 3500 
z
" transform="scale(0.015625)"/>
      </defs>
      <use xlink:href="#DejaVuSans-49"/>
      <use xlink:href="#DejaVuSans-6e" transform="translate(29.492188 0)"/>
      <use xlink:href="#DejaVuSans-64" transform="translate(92.871094 0)"/>
      <use xlink:href="#DejaVuSans-65" transform="translate(156.347656 0)"/>
      <use xlink:href="#DejaVuSans-78" transform="translate(216.121094 0)"/>
     </g>
    </g>
   </g>
   <g id="matplotlib.axis_2">
    <g id="ytick_1">
     <g id="line2d_19">
      <path d="M 57.6 298.560675 
L 414.72 298.560675 
" clip-path="url(#ped69371dd2)" style="fill: none; stroke: #b0b0b0; stroke-opacity: 0.5; stroke-width: 0.8; stroke-linecap: square"/>
     </g>
     <g id="line2d_20">
      <defs>
       <path id="m1cdfaeff96" d="M 0 0 
L -3.5 0 
" style="stroke: #000000; stroke-width: 0.8"/>
      </defs>
      <g>
       <use xlink:href="#m1cdfaeff96" x="57.6" y="298.560675" style="stroke: #000000; stroke-width: 0.8"/>
      </g>
     </g>
     <g id="text_11">
      <!-- −0.8 -->
      <g transform="translate(26.317187 302.359893) scale(0.1 -0.1)">
       <use xlink:href="#DejaVuSans-2212"/>
       <use xlink:href="#DejaVuSans-30" transform="translate(83.789062 0)"/>
       <use xlink:href="#DejaVuSans-2e" transform="translate(147.412109 0)"/>
       <use xlink:href="#DejaVuSans-38" transform="translate(179.199219 0)"/>
      </g>
     </g>
    </g>
    <g id="ytick_2">
     <g id="line2d_21">
      <path d="M 57.6 266.120224 
L 414.72 266.120224 
" clip-path="url(#ped69371dd2)" style="fill: none; stroke: #b0b0b0; stroke-opacity: 0.5; stroke-width: 0.8; stroke-linecap: square"/>
     </g>
     <g id="line2d_22">
      <g>
       <use xlink:href="#m1cdfaeff96" x="57.6" y="266.120224" style="stroke: #000000; stroke-width: 0.8"/>
      </g>
     </g>
     <g id="text_12">
      <!-- −0.6 -->
      <g transform="translate(26.317187 269.919443) scale(0.1 -0.1)">
       <use xlink:href="#DejaVuSans-2212"/>
       <use xlink:href="#DejaVuSans-30" transform="translate(83.789062 0)"/>
       <use xlink:href="#DejaVuSans-2e" transform="translate(147.412109 0)"/>
       <use xlink:href="#DejaVuSans-36" transform="translate(179.199219 0)"/>
      </g>
     </g>
    </g>
    <g id="ytick_3">
     <g id="line2d_23">
      <path d="M 57.6 233.679774 
L 414.72 233.679774 
" clip-path="url(#ped69371dd2)" style="fill: none; stroke: #b0b0b0; stroke-opacity: 0.5; stroke-width: 0.8; stroke-linecap: square"/>
     </g>
     <g id="line2d_24">
      <g>
       <use xlink:href="#m1cdfaeff96" x="57.6" y="233.679774" style="stroke: #000000; stroke-width: 0.8"/>
      </g>
     </g>
     <g id="text_13">
      <!-- −0.4 -->
      <g transform="translate(26.317187 237.478993) scale(0.1 -0.1)">
       <use xlink:href="#DejaVuSans-2212"/>
       <use xlink:href="#DejaVuSans-30" transform="translate(83.789062 0)"/>
       <use xlink:href="#DejaVuSans-2e" transform="translate(147.412109 0)"/>
       <use xlink:href="#DejaVuSans-34" transform="translate(179.199219 0)"/>
      </g>
     </g>
    </g>
    <g id="ytick_4">
     <g id="line2d_25">
      <path d="M 57.6 201.239324 
L 414.72 201.239324 
" clip-path="url(#ped69371dd2)" style="fill: none; stroke: #b0b0b0; stroke-opacity: 0.5; stroke-width: 0.8; stroke-linecap: square"/>
     </g>
     <g id="line2d_26">
      <g>
       <use xlink:href="#m1cdfaeff96" x="57.6" y="201.239324" style="stroke: #000000; stroke-width: 0.8"/>
      </g>
     </g>
     <g id="text_14">
      <!-- −0.2 -->
      <g transform="translate(26.317187 205.038543) scale(0.1 -0.1)">
       <use xlink:href="#DejaVuSans-2212"/>
       <use xlink:href="#DejaVuSans-30" transform="translate(83.789062 0)"/>
       <use xlink:href="#DejaVuSans-2e" transform="translate(147.412109 0)"/>
       <use xlink:href="#DejaVuSans-32" transform="translate(179.199219 0)"/>
      </g>
     </g>
    </g>
    <g id="ytick_5">
     <g id="line2d_27">
      <path d="M 57.6 168.798874 
L 414.72 168.798874 
" clip-path="url(#ped69371dd2)" style="fill: none; stroke: #b0b0b0; stroke-opacity: 0.5; stroke-width: 0.8; stroke-linecap: square"/>
     </g>
     <g id="line2d_28">
      <g>
       <use xlink:href="#m1cdfaeff96" x="57.6" y="168.798874" style="stroke: #000000; stroke-width: 0.8"/>
      </g>
     </g>
     <g id="text_15">
      <!-- 0.0 -->
      <g transform="translate(34.696875 172.598093) scale(0.1 -0.1)">
       <use xlink:href="#DejaVuSans-30"/>
       <use xlink:href="#DejaVuSans-2e" transform="translate(63.623047 0)"/>
       <use xlink:href="#DejaVuSans-30" transform="translate(95.410156 0)"/>
      </g>
     </g>
    </g>
    <g id="ytick_6">
     <g id="line2d_29">
      <path d="M 57.6 136.358424 
L 414.72 136.358424 
" clip-path="url(#ped69371dd2)" style="fill: none; stroke: #b0b0b0; stroke-opacity: 0.5; stroke-width: 0.8; stroke-linecap: square"/>
     </g>
     <g id="line2d_30">
      <g>
       <use xlink:href="#m1cdfaeff96" x="57.6" y="136.358424" style="stroke: #000000; stroke-width: 0.8"/>
      </g>
     </g>
     <g id="text_16">
      <!-- 0.2 -->
      <g transform="translate(34.696875 140.157643) scale(0.1 -0.1)">
       <use xlink:href="#DejaVuSans-30"/>
       <use xlink:href="#DejaVuSans-2e" transform="translate(63.623047 0)"/>
       <use xlink:href="#DejaVuSans-32" transform="translate(95.410156 0)"/>
      </g>
     </g>
    </g>
    <g id="ytick_7">
     <g id="line2d_31">
      <path d="M 57.6 103.917974 
L 414.72 103.917974 
" clip-path="url(#ped69371dd2)" style="fill: none; stroke: #b0b0b0; stroke-opacity: 0.5; stroke-width: 0.8; stroke-linecap: square"/>
     </g>
     <g id="line2d_32">
      <g>
       <use xlink:href="#m1cdfaeff96" x="57.6" y="103.917974" style="stroke: #000000; stroke-width: 0.8"/>
      </g>
     </g>
     <g id="text_17">
      <!-- 0.4 -->
      <g transform="translate(34.696875 107.717193) scale(0.1 -0.1)">
       <use xlink:href="#DejaVuSans-30"/>
       <use xlink:href="#DejaVuSans-2e" transform="translate(63.623047 0)"/>
       <use xlink:href="#DejaVuSans-34" transform="translate(95.410156 0)"/>
      </g>
     </g>
    </g>
    <g id="ytick_8">
     <g id="line2d_33">
      <path d="M 57.6 71.477524 
L 414.72 71.477524 
" clip-path="url(#ped69371dd2)" style="fill: none; stroke: #b0b0b0; stroke-opacity: 0.5; stroke-width: 0.8; stroke-linecap: square"/>
     </g>
     <g id="line2d_34">
      <g>
       <use xlink:href="#m1cdfaeff96" x="57.6" y="71.477524" style="stroke: #000000; stroke-width: 0.8"/>
      </g>
     </g>
     <g id="text_18">
      <!-- 0.6 -->
      <g transform="translate(34.696875 75.276742) scale(0.1 -0.1)">
       <use xlink:href="#DejaVuSans-30"/>
       <use xlink:href="#DejaVuSans-2e" transform="translate(63.623047 0)"/>
       <use xlink:href="#DejaVuSans-36" transform="translate(95.410156 0)"/>
      </g>
     </g>
    </g>
    <g id="text_19">
     <!-- Value -->
     <g transform="translate(20.2375 188.25925) rotate(-90) scale(0.1 -0.1)">
      <defs>
       <path id="DejaVuSans-56" d="M 1831 0 
L 50 4666 
L 709 4666 
L 2188 738 
L 3669 4666 
L 4325 4666 
L 2547 0 
L 1831 0 
z
" transform="scale(0.015625)"/>
       <path id="DejaVuSans-61" d="M 2194 1759 
Q 1497 1759 1228 1600 
Q 959 1441 959 1056 
Q 959 750 1161 570 
Q 1363 391 1709 391 
Q 2188 391 2477 730 
Q 2766 1069 2766 1631 
L 2766 1759 
L 2194 1759 
z
M 3341 1997 
L 3341 0 
L 2766 0 
L 2766 531 
Q 2569 213 2275 61 
Q 1981 -91 1556 -91 
Q 1019 -91 701 211 
Q 384 513 384 1019 
Q 384 1609 779 1909 
Q 1175 2209 1959 2209 
L 2766 2209 
L 2766 2266 
Q 2766 2663 2505 2880 
Q 2244 3097 1772 3097 
Q 1472 3097 1187 3025 
Q 903 2953 641 2809 
L 641 3341 
Q 956 3463 1253 3523 
Q 1550 3584 1831 3584 
Q 2591 3584 2966 3190 
Q 3341 2797 3341 1997 
z
" transform="scale(0.015625)"/>
       <path id="DejaVuSans-6c" d="M 603 4863 
L 1178 4863 
L 1178 0 
L 603 0 
L 603 4863 
z
" transform="scale(0.015625)"/>
       <path id="DejaVuSans-75" d="M 544 1381 
L 544 3500 
L 1119 3500 
L 1119 1403 
Q 1119 906 1312 657 
Q 1506 409 1894 409 
Q 2359 409 2629 706 
Q 2900 1003 2900 1516 
L 2900 3500 
L 3475 3500 
L 3475 0 
L 2900 0 
L 2900 538 
Q 2691 219 2414 64 
Q 2138 -91 1772 -91 
Q 1169 -91 856 284 
Q 544 659 544 1381 
z
M 1991 3584 
L 1991 3584 
z
" transform="scale(0.015625)"/>
      </defs>
      <use xlink:href="#DejaVuSans-56"/>
      <use xlink:href="#DejaVuSans-61" transform="translate(60.658203 0)"/>
      <use xlink:href="#DejaVuSans-6c" transform="translate(121.9375 0)"/>
      <use xlink:href="#DejaVuSans-75" transform="translate(149.720703 0)"/>
      <use xlink:href="#DejaVuSans-65" transform="translate(213.099609 0)"/>
     </g>
    </g>
   </g>
   <g id="line2d_35">
    <path d="M 250.091926 168.775739 
L 245.093261 168.234368 
L 252.688062 167.691683 
L 246.344742 167.152214 
L 251.066648 166.616738 
L 251.389857 166.081659 
L 252.53629 165.006342 
L 254.051017 163.942855 
L 255.81545 162.353403 
L 257.503434 161.304901 
L 259.287021 159.738268 
L 260.999753 158.702056 
L 262.795467 157.150949 
L 264.527621 156.120192 
L 266.250158 154.578231 
L 268.545324 153.043124 
L 269.666695 152.017787 
L 271.928497 150.491751 
L 272.992244 149.475251 
L 275.289036 147.960588 
L 276.343429 146.953061 
L 278.65064 145.447416 
L 279.742241 144.444211 
L 282.582382 142.439061 
L 283.916486 141.427592 
L 285.491197 140.420345 
L 286.594926 139.407445 
L 289.411126 137.372187 
L 290.667158 136.344912 
L 292.24571 135.322248 
L 293.284432 134.299527 
L 294.777947 133.270904 
L 295.53858 132.761867 
L 297.231936 131.230411 
L 298.826927 130.214552 
L 300.48758 128.698923 
L 302.096304 127.693682 
L 303.749167 126.198075 
L 305.922915 124.713876 
L 307.036857 123.726613 
L 309.20994 122.255495 
L 310.316384 121.275827 
L 312.485089 119.811858 
L 313.530896 118.838967 
L 316.209672 116.896944 
L 317.418176 115.923434 
L 318.844133 114.959848 
L 319.909725 113.996465 
L 325.74232 109.665671 
L 326.922728 108.699049 
L 328.426069 107.735608 
L 330.120215 106.284754 
L 332.179001 104.830454 
L 333.297028 103.854193 
L 335.306481 102.394367 
L 336.429348 101.416448 
L 338.441187 99.95627 
L 339.526976 98.983161 
L 342.001443 97.053364 
L 343.273178 96.085983 
L 344.091096 95.606803 
L 346.311285 93.704646 
L 347.738334 92.762339 
L 348.772094 91.82257 
L 350.176293 90.878649 
L 350.829897 90.414246 
L 351.243148 89.95081 
L 353.18923 88.544415 
L 353.90316 88.082284 
L 354.301503 87.6217 
L 356.165742 86.221889 
L 356.920994 85.761856 
L 357.305686 85.30424 
L 359.103966 83.909794 
L 359.937178 83.45068 
L 360.321363 82.994872 
L 362.024681 81.604284 
L 362.90821 81.146233 
L 363.790609 80.236242 
L 364.925339 79.306614 
L 365.84845 78.847394 
L 367.848198 77.006914 
L 368.765017 76.54635 
L 369.350924 76.092911 
L 369.731645 75.637538 
L 370.364671 75.173067 
L 370.779824 74.703541 
L 372.407034 73.78391 
L 372.687364 73.328209 
L 373.363182 72.863187 
L 373.708545 72.391553 
L 375.403313 71.468838 
L 375.597156 71.014838 
L 376.306836 70.551402 
L 376.625404 70.079313 
L 377.271776 69.611256 
L 378.396508 69.155622 
L 378.536863 68.704813 
L 379.228198 68.244799 
L 379.543595 67.773919 
L 380.031241 67.306152 
L 381.355259 66.853573 
L 381.46141 66.409637 
L 382.105017 65.956846 
L 382.724151 65.022704 
L 384.22052 64.572832 
L 384.486006 64.136031 
L 385.002249 63.691255 
L 385.362671 63.227886 
L 385.425814 62.761434 
L 386.952911 62.314733 
L 387.541114 61.886924 
L 388.309331 60.991986 
L 388.192434 60.522836 
L 390.665594 59.659734 
L 390.929037 59.237697 
L 391.396017 58.779859 
L 390.965855 58.301921 
L 391.606556 57.85202 
L 393.767935 57.44751 
L 393.84025 57.043475 
L 394.686809 56.58437 
L 393.498072 56.084118 
L 394.241524 55.624859 
L 396.894216 55.251964 
L 396.131201 54.887035 
L 398.487273 54.401189 
L 395.52686 53.835465 
L 390.742248 53.568 
L 379.972133 54.230694 
L 372.849667 56.38838 
L 367.148439 60.214098 
L 370.492441 65.394458 
L 363.700862 71.294388 
L 345.085737 77.223207 
L 342.947245 82.643904 
L 339.218006 87.301099 
L 328.119516 91.298564 
L 321.325945 95.083149 
L 319.904479 99.236641 
L 309.971693 104.107079 
L 313.59912 109.530744 
L 297.0827 114.928494 
L 294.24679 119.767274 
L 286.026984 124.011418 
L 275.738736 128.141403 
L 276.048125 132.703955 
L 270.708265 137.813666 
L 264.021674 143.08004 
L 258.399788 148.011432 
L 251.749705 152.478744 
L 236.635966 156.78917 
L 236.232189 161.339805 
L 233.152336 166.236677 
L 225.630911 171.250883 
L 208.508666 180.710279 
L 199.692226 185.239975 
L 198.020206 189.856754 
L 193.6681 194.59242 
L 178.617459 204.124961 
L 170.307778 208.844905 
L 148.114959 227.420306 
L 143.138172 232.152718 
L 136.801229 236.943308 
L 123.531273 246.256944 
L 115.678486 250.788306 
L 113.169004 255.422675 
L 107.799259 260.203089 
L 91.997671 269.599203 
L 84.896481 274.089441 
L 80.697788 278.685438 
L 78.281974 283.496461 
L 73.832727 288.205873 
L 84.286571 292.126898 
L 83.268041 294.618614 
L 79.452594 295.488 
L 75.773278 295.031341 
L 77.503683 293.756295 
L 82.007369 292.127043 
L 82.921841 290.551409 
L 81.989099 289.456323 
L 87.875569 289.16841 
L 87.053673 289.607086 
L 90.382158 290.15707 
L 99.078092 290.022598 
L 94.618062 288.86993 
L 87.537881 287.168476 
L 84.513996 285.837617 
L 90.47627 285.461822 
L 93.95205 285.786706 
L 98.732107 285.968638 
L 102.901062 285.338574 
L 93.069473 283.969004 
L 90.264817 282.548194 
L 91.29743 281.733171 
L 101.85608 281.662807 
L 106.796753 281.340263 
L 102.327017 280.449453 
L 97.921845 279.281442 
L 98.217463 278.297732 
L 106.399285 277.520008 
L 106.648151 277.275939 
L 105.814165 276.738756 
L 104.947929 275.886076 
L 102.972311 274.938582 
L 106.046462 274.170043 
L 110.660131 273.691748 
L 112.62131 273.37542 
L 111.819282 272.9718 
L 111.545702 272.323628 
L 109.544381 271.490719 
L 109.352238 270.682252 
L 112.827498 270.064205 
L 117.542522 269.620985 
L 115.637241 269.190343 
L 115.356987 268.622782 
L 115.432525 267.907843 
L 115.273647 267.159655 
L 118.343332 266.497774 
L 121.726067 265.947181 
L 121.214772 265.439456 
L 120.856189 264.889684 
L 121.317041 264.266465 
L 121.224845 263.601268 
L 121.828539 262.949518 
L 125.208254 261.791871 
L 125.631945 261.250211 
L 126.308208 260.683869 
L 126.517123 260.077443 
L 127.663639 258.84368 
L 129.212849 258.278343 
L 131.203006 257.190605 
L 131.345378 256.607972 
L 132.163531 255.420132 
L 133.589222 254.863545 
L 135.294037 253.76146 
L 135.587029 253.182452 
L 136.157736 252.600564 
L 137.915291 251.478853 
L 138.758482 250.917635 
L 139.271534 250.339845 
L 141.904409 248.595954 
L 143.102864 247.430955 
L 146.014255 245.641527 
L 150.122065 242.044656 
L 152.001408 240.832017 
L 153.585799 239.673558 
L 155.762098 237.89464 
L 157.648913 236.74581 
L 158.366605 236.183905 
L 158.690806 235.609722 
L 160.342558 234.439835 
L 161.370978 233.867847 
L 162.443566 232.737048 
L 162.906023 232.162797 
L 165.634551 230.43932 
L 166.754563 229.292815 
L 169.742646 227.01338 
L 172.284023 225.308388 
L 174.240991 223.616641 
L 176.117841 222.492295 
L 176.762564 221.940615 
L 177.750544 220.827837 
L 180.306168 219.171572 
L 181.381104 218.073373 
L 184.436992 215.892585 
L 185.125269 215.343548 
L 187.612733 213.70863 
L 188.194923 213.161319 
L 189.975472 212.049034 
L 190.909945 211.496687 
L 191.578 210.948085 
L 192.060061 210.395172 
L 192.70323 209.832779 
L 194.713723 208.700438 
L 195.509937 208.141175 
L 196.424111 207.014168 
L 199.768027 204.73487 
L 200.198408 204.166386 
L 200.812032 203.595669 
L 203.214605 201.900092 
L 204.467158 200.770059 
L 206.852933 199.103183 
L 207.369769 198.547771 
L 208.093937 197.990309 
L 210.640532 196.348323 
L 211.101 195.802738 
L 211.732395 195.252916 
L 214.37307 193.620391 
L 215.428709 192.532803 
L 217.98061 190.905368 
L 219.127731 189.819194 
L 221.569849 188.19778 
L 222.645752 187.119232 
L 225.620085 184.983433 
L 226.136991 184.449602 
L 229.183675 182.338469 
L 229.669701 181.811522 
L 231.327881 180.758995 
L 232.150441 180.238178 
L 234.081623 178.662791 
L 235.823931 177.613896 
L 237.67246 176.031388 
L 239.431858 174.973156 
L 241.295838 173.374672 
L 243.015909 172.305896 
L 244.845782 170.693599 
L 246.615601 169.614729 
L 243.552652 168.809416 
L 243.552652 168.809416 
" clip-path="url(#ped69371dd2)" style="fill: none; stroke: #1f77b4; stroke-width: 1.5; stroke-linecap: square"/>
   </g>
   <g id="line2d_36">
    <path d="M 246.070947 168.775739 
L 251.422949 164.472288 
L 253.45988 162.884093 
L 255.489375 161.304901 
L 260.945155 157.150949 
L 265.795621 153.552185 
L 267.810119 152.017787 
L 282.225737 140.922886 
L 284.271621 139.407445 
L 286.292936 137.880207 
L 288.24879 136.344912 
L 309.087974 120.29594 
L 311.063966 118.838967 
L 312.98371 117.380156 
L 316.777849 114.479986 
L 319.86999 112.070825 
L 322.320548 110.143822 
L 324.161709 108.699049 
L 328.605906 105.313178 
L 330.491529 103.854193 
L 334.893833 100.439163 
L 336.748069 98.983161 
L 337.971949 98.011536 
L 339.832071 96.570012 
L 341.036071 95.606803 
L 342.929775 94.182724 
L 344.111554 93.230764 
L 346.047245 91.82257 
L 347.2274 90.878649 
L 349.154249 89.483101 
L 350.31649 88.544415 
L 352.265598 87.156891 
L 353.397764 86.221889 
L 355.325717 84.842283 
L 356.406337 83.909794 
L 358.830043 82.069383 
L 360.003924 81.146233 
L 361.270711 80.236242 
L 362.919501 78.847394 
L 364.229589 77.93776 
L 365.860135 76.54635 
L 367.209692 75.637538 
L 368.823085 74.239476 
L 370.206249 73.328209 
L 372.506728 71.468838 
L 373.752366 70.551402 
L 374.739711 69.611256 
L 376.735234 68.244799 
L 377.636512 67.306152 
L 379.719131 65.956846 
L 380.529786 65.022704 
L 383.038101 63.227886 
L 383.384085 62.761434 
L 384.03755 62.314733 
L 385.676647 61.452018 
L 386.235771 60.522836 
L 386.826423 60.076996 
L 388.732186 59.237697 
L 389.060396 58.779859 
L 389.07458 58.301921 
L 389.520753 57.85202 
L 391.881938 57.043475 
L 392.208702 56.58437 
L 391.764521 56.084118 
L 391.824872 55.624859 
L 393.402298 55.251964 
L 395.615478 54.887035 
L 395.808509 54.401189 
L 391.658052 53.835465 
L 383.314231 53.568 
L 373.442755 54.230694 
L 365.165578 56.38838 
L 359.981113 60.214098 
L 357.465363 65.394458 
L 356.38992 71.294388 
L 355.516693 77.223207 
L 353.33466 82.643904 
L 347.913381 87.301099 
L 338.149991 91.298564 
L 325.584698 95.083149 
L 314.347311 99.236641 
L 308.204458 104.107079 
L 307.030406 109.530744 
L 306.425888 114.928494 
L 301.471671 119.767274 
L 291.253541 124.011418 
L 279.635512 128.141403 
L 271.415347 132.703955 
L 267.752093 137.813666 
L 265.460024 143.08004 
L 260.617879 148.011432 
L 252.474286 152.478744 
L 243.652332 156.78917 
L 236.906202 161.339805 
L 227.583344 171.250883 
L 221.190907 176.098032 
L 213.670577 180.710279 
L 206.703913 185.239975 
L 200.959682 189.856754 
L 195.573534 194.59242 
L 189.550429 199.37067 
L 183.029145 204.124961 
L 176.821697 208.844905 
L 171.083474 213.532576 
L 165.070891 218.174467 
L 151.542573 227.420306 
L 145.769042 232.152718 
L 140.842661 236.943308 
L 135.31218 241.66918 
L 128.219389 246.256944 
L 120.574007 250.788306 
L 114.389306 255.422675 
L 105.74303 264.983928 
L 98.842762 269.599203 
L 89.906476 274.089441 
L 82.605328 278.685438 
L 80.493022 283.496461 
L 83.445074 288.205873 
L 87.752531 292.126898 
L 89.744591 294.618614 
L 88.877771 295.488 
L 87.02849 295.031341 
L 85.3288 293.756295 
L 82.762874 292.127043 
L 78.371391 290.551409 
L 74.127165 289.456323 
L 74.25189 289.16841 
L 90.471715 290.15707 
L 96.242911 290.022598 
L 93.91673 288.86993 
L 80.60119 285.837617 
L 82.535791 285.461822 
L 90.621535 285.786706 
L 98.292202 285.968638 
L 100.026628 285.338574 
L 96.009815 283.969004 
L 91.186204 282.548194 
L 90.314575 281.733171 
L 94.019658 281.60156 
L 99.088216 281.662807 
L 101.897236 281.340263 
L 101.404159 280.449453 
L 99.360718 279.281442 
L 98.304609 278.297732 
L 99.483502 277.748608 
L 104.892246 277.275939 
L 106.056447 276.738756 
L 105.62003 275.886076 
L 104.693341 274.938582 
L 104.709859 274.170043 
L 106.277072 273.691748 
L 108.684539 273.37542 
L 110.536027 272.9718 
L 110.998249 272.323628 
L 110.527083 271.490719 
L 110.381945 270.682252 
L 111.415344 270.064205 
L 115.062778 269.190343 
L 115.858704 268.622782 
L 115.945317 267.159655 
L 116.670272 266.497774 
L 120.552071 264.889684 
L 121.064876 264.266465 
L 121.300789 263.601268 
L 121.690061 262.949518 
L 122.524555 262.34725 
L 124.972341 261.250211 
L 125.790747 260.683869 
L 126.420969 259.451024 
L 127.101457 258.84368 
L 130.317929 257.190605 
L 130.951158 256.006661 
L 131.679703 255.420132 
L 133.981158 254.319719 
L 134.757508 253.76146 
L 135.69913 252.600564 
L 136.463059 252.033796 
L 139.229813 250.339845 
L 143.07083 247.430955 
L 145.859487 245.641527 
L 147.750045 243.840943 
L 149.80186 242.650226 
L 150.543143 242.044656 
L 151.505851 240.832017 
L 152.267262 240.248017 
L 154.110681 239.091099 
L 156.726956 236.74581 
L 158.392537 235.609722 
L 160.591926 233.867847 
L 166.032209 229.866346 
L 167.535867 228.722379 
L 169.16439 227.587132 
L 171.274641 225.868629 
L 173.597759 224.186343 
L 174.944264 223.049854 
L 177.220878 221.386667 
L 178.545721 220.269678 
L 180.759782 218.62414 
L 182.076124 217.523466 
L 184.361556 215.892585 
L 185.657282 214.794749 
L 188.766252 212.606202 
L 190.183265 211.496687 
L 192.566113 209.832779 
L 193.991382 208.700438 
L 196.29859 207.014168 
L 201.307056 203.027147 
L 203.477547 201.335243 
L 204.790708 200.209583 
L 206.970588 198.547771 
L 208.293084 197.4369 
L 211.186392 195.252916 
L 213.436497 193.620391 
L 225.479448 184.449602 
L 226.813205 183.38659 
L 228.885253 181.811522 
L 230.214909 180.758995 
L 232.31954 179.191023 
L 233.655833 178.136672 
L 235.803763 176.562717 
L 237.910762 174.973156 
L 240.009002 173.374672 
L 246.028379 168.809416 
L 246.028379 168.809416 
" clip-path="url(#ped69371dd2)" style="fill: none; stroke: #ff7f0e; stroke-opacity: 0.5; stroke-width: 1.5; stroke-linecap: square"/>
   </g>
   <g id="patch_3">
    <path d="M 57.6 307.584 
L 57.6 41.472 
" style="fill: none; stroke: #000000; stroke-width: 0.8; stroke-linejoin: miter; stroke-linecap: square"/>
   </g>
   <g id="patch_4">
    <path d="M 414.72 307.584 
L 414.72 41.472 
" style="fill: none; stroke: #000000; stroke-width: 0.8; stroke-linejoin: miter; stroke-linecap: square"/>
   </g>
   <g id="patch_5">
    <path d="M 57.6 307.584 
L 414.72 307.584 
" style="fill: none; stroke: #000000; stroke-width: 0.8; stroke-linejoin: miter; stroke-linecap: square"/>
   </g>
   <g id="patch_6">
    <path d="M 57.6 41.472 
L 414.72 41.472 
" style="fill: none; stroke: #000000; stroke-width: 0.8; stroke-linejoin: miter; stroke-linecap: square"/>
   </g>
   <g id="text_20">
    <!-- Compare - Epoch 2100 -->
    <g transform="translate(167.416875 35.472) scale(0.12 -0.12)">
     <defs>
      <path id="DejaVuSans-43" d="M 4122 4306 
L 4122 3641 
Q 3803 3938 3442 4084 
Q 3081 4231 2675 4231 
Q 1875 4231 1450 3742 
Q 1025 3253 1025 2328 
Q 1025 1406 1450 917 
Q 1875 428 2675 428 
Q 3081 428 3442 575 
Q 3803 722 4122 1019 
L 4122 359 
Q 3791 134 3420 21 
Q 3050 -91 2638 -91 
Q 1578 -91 968 557 
Q 359 1206 359 2328 
Q 359 3453 968 4101 
Q 1578 4750 2638 4750 
Q 3056 4750 3426 4639 
Q 3797 4528 4122 4306 
z
" transform="scale(0.015625)"/>
      <path id="DejaVuSans-6f" d="M 1959 3097 
Q 1497 3097 1228 2736 
Q 959 2375 959 1747 
Q 959 1119 1226 758 
Q 1494 397 1959 397 
Q 2419 397 2687 759 
Q 2956 1122 2956 1747 
Q 2956 2369 2687 2733 
Q 2419 3097 1959 3097 
z
M 1959 3584 
Q 2709 3584 3137 3096 
Q 3566 2609 3566 1747 
Q 3566 888 3137 398 
Q 2709 -91 1959 -91 
Q 1206 -91 779 398 
Q 353 888 353 1747 
Q 353 2609 779 3096 
Q 1206 3584 1959 3584 
z
" transform="scale(0.015625)"/>
      <path id="DejaVuSans-6d" d="M 3328 2828 
Q 3544 3216 3844 3400 
Q 4144 3584 4550 3584 
Q 5097 3584 5394 3201 
Q 5691 2819 5691 2113 
L 5691 0 
L 5113 0 
L 5113 2094 
Q 5113 2597 4934 2840 
Q 4756 3084 4391 3084 
Q 3944 3084 3684 2787 
Q 3425 2491 3425 1978 
L 3425 0 
L 2847 0 
L 2847 2094 
Q 2847 2600 2669 2842 
Q 2491 3084 2119 3084 
Q 1678 3084 1418 2786 
Q 1159 2488 1159 1978 
L 1159 0 
L 581 0 
L 581 3500 
L 1159 3500 
L 1159 2956 
Q 1356 3278 1631 3431 
Q 1906 3584 2284 3584 
Q 2666 3584 2933 3390 
Q 3200 3197 3328 2828 
z
" transform="scale(0.015625)"/>
      <path id="DejaVuSans-70" d="M 1159 525 
L 1159 -1331 
L 581 -1331 
L 581 3500 
L 1159 3500 
L 1159 2969 
Q 1341 3281 1617 3432 
Q 1894 3584 2278 3584 
Q 2916 3584 3314 3078 
Q 3713 2572 3713 1747 
Q 3713 922 3314 415 
Q 2916 -91 2278 -91 
Q 1894 -91 1617 61 
Q 1341 213 1159 525 
z
M 3116 1747 
Q 3116 2381 2855 2742 
Q 2594 3103 2138 3103 
Q 1681 3103 1420 2742 
Q 1159 2381 1159 1747 
Q 1159 1113 1420 752 
Q 1681 391 2138 391 
Q 2594 391 2855 752 
Q 3116 1113 3116 1747 
z
" transform="scale(0.015625)"/>
      <path id="DejaVuSans-72" d="M 2631 2963 
Q 2534 3019 2420 3045 
Q 2306 3072 2169 3072 
Q 1681 3072 1420 2755 
Q 1159 2438 1159 1844 
L 1159 0 
L 581 0 
L 581 3500 
L 1159 3500 
L 1159 2956 
Q 1341 3275 1631 3429 
Q 1922 3584 2338 3584 
Q 2397 3584 2469 3576 
Q 2541 3569 2628 3553 
L 2631 2963 
z
" transform="scale(0.015625)"/>
      <path id="DejaVuSans-20" transform="scale(0.015625)"/>
      <path id="DejaVuSans-2d" d="M 313 2009 
L 1997 2009 
L 1997 1497 
L 313 1497 
L 313 2009 
z
" transform="scale(0.015625)"/>
      <path id="DejaVuSans-45" d="M 628 4666 
L 3578 4666 
L 3578 4134 
L 1259 4134 
L 1259 2753 
L 3481 2753 
L 3481 2222 
L 1259 2222 
L 1259 531 
L 3634 531 
L 3634 0 
L 628 0 
L 628 4666 
z
" transform="scale(0.015625)"/>
      <path id="DejaVuSans-63" d="M 3122 3366 
L 3122 2828 
Q 2878 2963 2633 3030 
Q 2388 3097 2138 3097 
Q 1578 3097 1268 2742 
Q 959 2388 959 1747 
Q 959 1106 1268 751 
Q 1578 397 2138 397 
Q 2388 397 2633 464 
Q 2878 531 3122 666 
L 3122 134 
Q 2881 22 2623 -34 
Q 2366 -91 2075 -91 
Q 1284 -91 818 406 
Q 353 903 353 1747 
Q 353 2603 823 3093 
Q 1294 3584 2113 3584 
Q 2378 3584 2631 3529 
Q 2884 3475 3122 3366 
z
" transform="scale(0.015625)"/>
      <path id="DejaVuSans-68" d="M 3513 2113 
L 3513 0 
L 2938 0 
L 2938 2094 
Q 2938 2591 2744 2837 
Q 2550 3084 2163 3084 
Q 1697 3084 1428 2787 
Q 1159 2491 1159 1978 
L 1159 0 
L 581 0 
L 581 4863 
L 1159 4863 
L 1159 2956 
Q 1366 3272 1645 3428 
Q 1925 3584 2291 3584 
Q 2894 3584 3203 3211 
Q 3513 2838 3513 2113 
z
" transform="scale(0.015625)"/>
      <path id="DejaVuSans-31" d="M 794 531 
L 1825 531 
L 1825 4091 
L 703 3866 
L 703 4441 
L 1819 4666 
L 2450 4666 
L 2450 531 
L 3481 531 
L 3481 0 
L 794 0 
L 794 531 
z
" transform="scale(0.015625)"/>
     </defs>
     <use xlink:href="#DejaVuSans-43"/>
     <use xlink:href="#DejaVuSans-6f" transform="translate(69.824219 0)"/>
     <use xlink:href="#DejaVuSans-6d" transform="translate(131.005859 0)"/>
     <use xlink:href="#DejaVuSans-70" transform="translate(228.417969 0)"/>
     <use xlink:href="#DejaVuSans-61" transform="translate(291.894531 0)"/>
     <use xlink:href="#DejaVuSans-72" transform="translate(353.173828 0)"/>
     <use xlink:href="#DejaVuSans-65" transform="translate(392.037109 0)"/>
     <use xlink:href="#DejaVuSans-20" transform="translate(453.560547 0)"/>
     <use xlink:href="#DejaVuSans-2d" transform="translate(485.347656 0)"/>
     <use xlink:href="#DejaVuSans-20" transform="translate(521.431641 0)"/>
     <use xlink:href="#DejaVuSans-45" transform="translate(553.21875 0)"/>
     <use xlink:href="#DejaVuSans-70" transform="translate(616.402344 0)"/>
     <use xlink:href="#DejaVuSans-6f" transform="translate(679.878906 0)"/>
     <use xlink:href="#DejaVuSans-63" transform="translate(741.060547 0)"/>
     <use xlink:href="#DejaVuSans-68" transform="translate(796.041016 0)"/>
     <use xlink:href="#DejaVuSans-20" transform="translate(859.419922 0)"/>
     <use xlink:href="#DejaVuSans-32" transform="translate(891.207031 0)"/>
     <use xlink:href="#DejaVuSans-31" transform="translate(954.830078 0)"/>
     <use xlink:href="#DejaVuSans-30" transform="translate(1018.453125 0)"/>
     <use xlink:href="#DejaVuSans-30" transform="translate(1082.076172 0)"/>
    </g>
   </g>
   <g id="legend_1">
    <g id="patch_7">
     <path d="M 64.6 78.82825 
L 181.128125 78.82825 
Q 183.128125 78.82825 183.128125 76.82825 
L 183.128125 48.472 
Q 183.128125 46.472 181.128125 46.472 
L 64.6 46.472 
Q 62.6 46.472 62.6 48.472 
L 62.6 76.82825 
Q 62.6 78.82825 64.6 78.82825 
z
" style="fill: #ffffff; opacity: 0.8; stroke: #cccccc; stroke-linejoin: miter"/>
    </g>
    <g id="line2d_37">
     <path d="M 66.6 54.570437 
L 76.6 54.570437 
L 86.6 54.570437 
" style="fill: none; stroke: #1f77b4; stroke-width: 1.5; stroke-linecap: square"/>
    </g>
    <g id="text_21">
     <!-- Pred: Sample 1 -->
     <g transform="translate(94.6 58.070437) scale(0.1 -0.1)">
      <defs>
       <path id="DejaVuSans-50" d="M 1259 4147 
L 1259 2394 
L 2053 2394 
Q 2494 2394 2734 2622 
Q 2975 2850 2975 3272 
Q 2975 3691 2734 3919 
Q 2494 4147 2053 4147 
L 1259 4147 
z
M 628 4666 
L 2053 4666 
Q 2838 4666 3239 4311 
Q 3641 3956 3641 3272 
Q 3641 2581 3239 2228 
Q 2838 1875 2053 1875 
L 1259 1875 
L 1259 0 
L 628 0 
L 628 4666 
z
" transform="scale(0.015625)"/>
       <path id="DejaVuSans-3a" d="M 750 794 
L 1409 794 
L 1409 0 
L 750 0 
L 750 794 
z
M 750 3309 
L 1409 3309 
L 1409 2516 
L 750 2516 
L 750 3309 
z
" transform="scale(0.015625)"/>
       <path id="DejaVuSans-53" d="M 3425 4513 
L 3425 3897 
Q 3066 4069 2747 4153 
Q 2428 4238 2131 4238 
Q 1616 4238 1336 4038 
Q 1056 3838 1056 3469 
Q 1056 3159 1242 3001 
Q 1428 2844 1947 2747 
L 2328 2669 
Q 3034 2534 3370 2195 
Q 3706 1856 3706 1288 
Q 3706 609 3251 259 
Q 2797 -91 1919 -91 
Q 1588 -91 1214 -16 
Q 841 59 441 206 
L 441 856 
Q 825 641 1194 531 
Q 1563 422 1919 422 
Q 2459 422 2753 634 
Q 3047 847 3047 1241 
Q 3047 1584 2836 1778 
Q 2625 1972 2144 2069 
L 1759 2144 
Q 1053 2284 737 2584 
Q 422 2884 422 3419 
Q 422 4038 858 4394 
Q 1294 4750 2059 4750 
Q 2388 4750 2728 4690 
Q 3069 4631 3425 4513 
z
" transform="scale(0.015625)"/>
      </defs>
      <use xlink:href="#DejaVuSans-50"/>
      <use xlink:href="#DejaVuSans-72" transform="translate(58.552734 0)"/>
      <use xlink:href="#DejaVuSans-65" transform="translate(97.416016 0)"/>
      <use xlink:href="#DejaVuSans-64" transform="translate(158.939453 0)"/>
      <use xlink:href="#DejaVuSans-3a" transform="translate(222.416016 0)"/>
      <use xlink:href="#DejaVuSans-20" transform="translate(256.107422 0)"/>
      <use xlink:href="#DejaVuSans-53" transform="translate(287.894531 0)"/>
      <use xlink:href="#DejaVuSans-61" transform="translate(351.371094 0)"/>
      <use xlink:href="#DejaVuSans-6d" transform="translate(412.650391 0)"/>
      <use xlink:href="#DejaVuSans-70" transform="translate(510.0625 0)"/>
      <use xlink:href="#DejaVuSans-6c" transform="translate(573.539062 0)"/>
      <use xlink:href="#DejaVuSans-65" transform="translate(601.322266 0)"/>
      <use xlink:href="#DejaVuSans-20" transform="translate(662.845703 0)"/>
      <use xlink:href="#DejaVuSans-31" transform="translate(694.632812 0)"/>
     </g>
    </g>
    <g id="line2d_38">
     <path d="M 66.6 69.248562 
L 76.6 69.248562 
L 86.6 69.248562 
" style="fill: none; stroke: #ff7f0e; stroke-opacity: 0.5; stroke-width: 1.5; stroke-linecap: square"/>
    </g>
    <g id="text_22">
     <!-- Target: Sample 1 -->
     <g transform="translate(94.6 72.748562) scale(0.1 -0.1)">
      <defs>
       <path id="DejaVuSans-54" d="M -19 4666 
L 3928 4666 
L 3928 4134 
L 2272 4134 
L 2272 0 
L 1638 0 
L 1638 4134 
L -19 4134 
L -19 4666 
z
" transform="scale(0.015625)"/>
       <path id="DejaVuSans-67" d="M 2906 1791 
Q 2906 2416 2648 2759 
Q 2391 3103 1925 3103 
Q 1463 3103 1205 2759 
Q 947 2416 947 1791 
Q 947 1169 1205 825 
Q 1463 481 1925 481 
Q 2391 481 2648 825 
Q 2906 1169 2906 1791 
z
M 3481 434 
Q 3481 -459 3084 -895 
Q 2688 -1331 1869 -1331 
Q 1566 -1331 1297 -1286 
Q 1028 -1241 775 -1147 
L 775 -588 
Q 1028 -725 1275 -790 
Q 1522 -856 1778 -856 
Q 2344 -856 2625 -561 
Q 2906 -266 2906 331 
L 2906 616 
Q 2728 306 2450 153 
Q 2172 0 1784 0 
Q 1141 0 747 490 
Q 353 981 353 1791 
Q 353 2603 747 3093 
Q 1141 3584 1784 3584 
Q 2172 3584 2450 3431 
Q 2728 3278 2906 2969 
L 2906 3500 
L 3481 3500 
L 3481 434 
z
" transform="scale(0.015625)"/>
       <path id="DejaVuSans-74" d="M 1172 4494 
L 1172 3500 
L 2356 3500 
L 2356 3053 
L 1172 3053 
L 1172 1153 
Q 1172 725 1289 603 
Q 1406 481 1766 481 
L 2356 481 
L 2356 0 
L 1766 0 
Q 1100 0 847 248 
Q 594 497 594 1153 
L 594 3053 
L 172 3053 
L 172 3500 
L 594 3500 
L 594 4494 
L 1172 4494 
z
" transform="scale(0.015625)"/>
      </defs>
      <use xlink:href="#DejaVuSans-54"/>
      <use xlink:href="#DejaVuSans-61" transform="translate(44.583984 0)"/>
      <use xlink:href="#DejaVuSans-72" transform="translate(105.863281 0)"/>
      <use xlink:href="#DejaVuSans-67" transform="translate(145.226562 0)"/>
      <use xlink:href="#DejaVuSans-65" transform="translate(208.703125 0)"/>
      <use xlink:href="#DejaVuSans-74" transform="translate(270.226562 0)"/>
      <use xlink:href="#DejaVuSans-3a" transform="translate(309.435547 0)"/>
      <use xlink:href="#DejaVuSans-20" transform="translate(343.126953 0)"/>
      <use xlink:href="#DejaVuSans-53" transform="translate(374.914062 0)"/>
      <use xlink:href="#DejaVuSans-61" transform="translate(438.390625 0)"/>
      <use xlink:href="#DejaVuSans-6d" transform="translate(499.669922 0)"/>
      <use xlink:href="#DejaVuSans-70" transform="translate(597.082031 0)"/>
      <use xlink:href="#DejaVuSans-6c" transform="translate(660.558594 0)"/>
      <use xlink:href="#DejaVuSans-65" transform="translate(688.341797 0)"/>
      <use xlink:href="#DejaVuSans-20" transform="translate(749.865234 0)"/>
      <use xlink:href="#DejaVuSans-31" transform="translate(781.652344 0)"/>
     </g>
    </g>
   </g>
  </g>
 </g>
 <defs>
  <clipPath id="ped69371dd2">
   <rect x="57.6" y="41.472" width="357.12" height="266.112"/>
  </clipPath>
 </defs>
</svg>
