<?xml version="1.0" encoding="utf-8" standalone="no"?>
<!DOCTYPE svg PUBLIC "-//W3C//DTD SVG 1.1//EN"
  "http://www.w3.org/Graphics/SVG/1.1/DTD/svg11.dtd">
<svg xmlns:xlink="http://www.w3.org/1999/xlink" width="460.8pt" height="345.6pt" viewBox="0 0 460.8 345.6" xmlns="http://www.w3.org/2000/svg" version="1.1">
 <metadata>
  <rdf:RDF xmlns:dc="http://purl.org/dc/elements/1.1/" xmlns:cc="http://creativecommons.org/ns#" xmlns:rdf="http://www.w3.org/1999/02/22-rdf-syntax-ns#">
   <cc:Work>
    <dc:type rdf:resource="http://purl.org/dc/dcmitype/StillImage"/>
    <dc:date>2025-05-21T01:45:20.944479</dc:date>
    <dc:format>image/svg+xml</dc:format>
    <dc:creator>
     <cc:Agent>
      <dc:title>Matplotlib v3.10.0, https://matplotlib.org/</dc:title>
     </cc:Agent>
    </dc:creator>
   </cc:Work>
  </rdf:RDF>
 </metadata>
 <defs>
  <style type="text/css">*{stroke-linejoin: round; stroke-linecap: butt}</style>
 </defs>
 <g id="figure_1">
  <g id="patch_1">
   <path d="M 0 345.6 
L 460.8 345.6 
L 460.8 0 
L 0 0 
z
" style="fill: #ffffff"/>
  </g>
  <g id="axes_1">
   <g id="patch_2">
    <path d="M 57.6 307.584 
L 414.72 307.584 
L 414.72 41.472 
L 57.6 41.472 
z
" style="fill: #ffffff"/>
   </g>
   <g id="matplotlib.axis_1">
    <g id="xtick_1">
     <g id="line2d_1">
      <path d="M 77.120096 307.584 
L 77.120096 41.472 
" clip-path="url(#p1f6b693cd8)" style="fill: none; stroke: #b0b0b0; stroke-opacity: 0.5; stroke-width: 0.8; stroke-linecap: square"/>
     </g>
     <g id="line2d_2">
      <defs>
       <path id="m9ca221ce29" d="M 0 0 
L 0 3.5 
" style="stroke: #000000; stroke-width: 0.8"/>
      </defs>
      <g>
       <use xlink:href="#m9ca221ce29" x="77.120096" y="307.584" style="stroke: #000000; stroke-width: 0.8"/>
      </g>
     </g>
     <g id="text_1">
      <!-- −0.8 -->
      <g transform="translate(64.97869 322.182437) scale(0.1 -0.1)">
       <defs>
        <path id="DejaVuSans-2212" d="M 678 2272 
L 4684 2272 
L 4684 1741 
L 678 1741 
L 678 2272 
z
" transform="scale(0.015625)"/>
        <path id="DejaVuSans-30" d="M 2034 4250 
Q 1547 4250 1301 3770 
Q 1056 3291 1056 2328 
Q 1056 1369 1301 889 
Q 1547 409 2034 409 
Q 2525 409 2770 889 
Q 3016 1369 3016 2328 
Q 3016 3291 2770 3770 
Q 2525 4250 2034 4250 
z
M 2034 4750 
Q 2819 4750 3233 4129 
Q 3647 3509 3647 2328 
Q 3647 1150 3233 529 
Q 2819 -91 2034 -91 
Q 1250 -91 836 529 
Q 422 1150 422 2328 
Q 422 3509 836 4129 
Q 1250 4750 2034 4750 
z
" transform="scale(0.015625)"/>
        <path id="DejaVuSans-2e" d="M 684 794 
L 1344 794 
L 1344 0 
L 684 0 
L 684 794 
z
" transform="scale(0.015625)"/>
        <path id="DejaVuSans-38" d="M 2034 2216 
Q 1584 2216 1326 1975 
Q 1069 1734 1069 1313 
Q 1069 891 1326 650 
Q 1584 409 2034 409 
Q 2484 409 2743 651 
Q 3003 894 3003 1313 
Q 3003 1734 2745 1975 
Q 2488 2216 2034 2216 
z
M 1403 2484 
Q 997 2584 770 2862 
Q 544 3141 544 3541 
Q 544 4100 942 4425 
Q 1341 4750 2034 4750 
Q 2731 4750 3128 4425 
Q 3525 4100 3525 3541 
Q 3525 3141 3298 2862 
Q 3072 2584 2669 2484 
Q 3125 2378 3379 2068 
Q 3634 1759 3634 1313 
Q 3634 634 3220 271 
Q 2806 -91 2034 -91 
Q 1263 -91 848 271 
Q 434 634 434 1313 
Q 434 1759 690 2068 
Q 947 2378 1403 2484 
z
M 1172 3481 
Q 1172 3119 1398 2916 
Q 1625 2713 2034 2713 
Q 2441 2713 2670 2916 
Q 2900 3119 2900 3481 
Q 2900 3844 2670 4047 
Q 2441 4250 2034 4250 
Q 1625 4250 1398 4047 
Q 1172 3844 1172 3481 
z
" transform="scale(0.015625)"/>
       </defs>
       <use xlink:href="#DejaVuSans-2212"/>
       <use xlink:href="#DejaVuSans-30" transform="translate(83.789062 0)"/>
       <use xlink:href="#DejaVuSans-2e" transform="translate(147.412109 0)"/>
       <use xlink:href="#DejaVuSans-38" transform="translate(179.199219 0)"/>
      </g>
     </g>
    </g>
    <g id="xtick_2">
     <g id="line2d_3">
      <path d="M 119.596013 307.584 
L 119.596013 41.472 
" clip-path="url(#p1f6b693cd8)" style="fill: none; stroke: #b0b0b0; stroke-opacity: 0.5; stroke-width: 0.8; stroke-linecap: square"/>
     </g>
     <g id="line2d_4">
      <g>
       <use xlink:href="#m9ca221ce29" x="119.596013" y="307.584" style="stroke: #000000; stroke-width: 0.8"/>
      </g>
     </g>
     <g id="text_2">
      <!-- −0.6 -->
      <g transform="translate(107.454607 322.182437) scale(0.1 -0.1)">
       <defs>
        <path id="DejaVuSans-36" d="M 2113 2584 
Q 1688 2584 1439 2293 
Q 1191 2003 1191 1497 
Q 1191 994 1439 701 
Q 1688 409 2113 409 
Q 2538 409 2786 701 
Q 3034 994 3034 1497 
Q 3034 2003 2786 2293 
Q 2538 2584 2113 2584 
z
M 3366 4563 
L 3366 3988 
Q 3128 4100 2886 4159 
Q 2644 4219 2406 4219 
Q 1781 4219 1451 3797 
Q 1122 3375 1075 2522 
Q 1259 2794 1537 2939 
Q 1816 3084 2150 3084 
Q 2853 3084 3261 2657 
Q 3669 2231 3669 1497 
Q 3669 778 3244 343 
Q 2819 -91 2113 -91 
Q 1303 -91 875 529 
Q 447 1150 447 2328 
Q 447 3434 972 4092 
Q 1497 4750 2381 4750 
Q 2619 4750 2861 4703 
Q 3103 4656 3366 4563 
z
" transform="scale(0.015625)"/>
       </defs>
       <use xlink:href="#DejaVuSans-2212"/>
       <use xlink:href="#DejaVuSans-30" transform="translate(83.789062 0)"/>
       <use xlink:href="#DejaVuSans-2e" transform="translate(147.412109 0)"/>
       <use xlink:href="#DejaVuSans-36" transform="translate(179.199219 0)"/>
      </g>
     </g>
    </g>
    <g id="xtick_3">
     <g id="line2d_5">
      <path d="M 162.071931 307.584 
L 162.071931 41.472 
" clip-path="url(#p1f6b693cd8)" style="fill: none; stroke: #b0b0b0; stroke-opacity: 0.5; stroke-width: 0.8; stroke-linecap: square"/>
     </g>
     <g id="line2d_6">
      <g>
       <use xlink:href="#m9ca221ce29" x="162.071931" y="307.584" style="stroke: #000000; stroke-width: 0.8"/>
      </g>
     </g>
     <g id="text_3">
      <!-- −0.4 -->
      <g transform="translate(149.930524 322.182437) scale(0.1 -0.1)">
       <defs>
        <path id="DejaVuSans-34" d="M 2419 4116 
L 825 1625 
L 2419 1625 
L 2419 4116 
z
M 2253 4666 
L 3047 4666 
L 3047 1625 
L 3713 1625 
L 3713 1100 
L 3047 1100 
L 3047 0 
L 2419 0 
L 2419 1100 
L 313 1100 
L 313 1709 
L 2253 4666 
z
" transform="scale(0.015625)"/>
       </defs>
       <use xlink:href="#DejaVuSans-2212"/>
       <use xlink:href="#DejaVuSans-30" transform="translate(83.789062 0)"/>
       <use xlink:href="#DejaVuSans-2e" transform="translate(147.412109 0)"/>
       <use xlink:href="#DejaVuSans-34" transform="translate(179.199219 0)"/>
      </g>
     </g>
    </g>
    <g id="xtick_4">
     <g id="line2d_7">
      <path d="M 204.547848 307.584 
L 204.547848 41.472 
" clip-path="url(#p1f6b693cd8)" style="fill: none; stroke: #b0b0b0; stroke-opacity: 0.5; stroke-width: 0.8; stroke-linecap: square"/>
     </g>
     <g id="line2d_8">
      <g>
       <use xlink:href="#m9ca221ce29" x="204.547848" y="307.584" style="stroke: #000000; stroke-width: 0.8"/>
      </g>
     </g>
     <g id="text_4">
      <!-- −0.2 -->
      <g transform="translate(192.406442 322.182437) scale(0.1 -0.1)">
       <defs>
        <path id="DejaVuSans-32" d="M 1228 531 
L 3431 531 
L 3431 0 
L 469 0 
L 469 531 
Q 828 903 1448 1529 
Q 2069 2156 2228 2338 
Q 2531 2678 2651 2914 
Q 2772 3150 2772 3378 
Q 2772 3750 2511 3984 
Q 2250 4219 1831 4219 
Q 1534 4219 1204 4116 
Q 875 4013 500 3803 
L 500 4441 
Q 881 4594 1212 4672 
Q 1544 4750 1819 4750 
Q 2544 4750 2975 4387 
Q 3406 4025 3406 3419 
Q 3406 3131 3298 2873 
Q 3191 2616 2906 2266 
Q 2828 2175 2409 1742 
Q 1991 1309 1228 531 
z
" transform="scale(0.015625)"/>
       </defs>
       <use xlink:href="#DejaVuSans-2212"/>
       <use xlink:href="#DejaVuSans-30" transform="translate(83.789062 0)"/>
       <use xlink:href="#DejaVuSans-2e" transform="translate(147.412109 0)"/>
       <use xlink:href="#DejaVuSans-32" transform="translate(179.199219 0)"/>
      </g>
     </g>
    </g>
    <g id="xtick_5">
     <g id="line2d_9">
      <path d="M 247.023765 307.584 
L 247.023765 41.472 
" clip-path="url(#p1f6b693cd8)" style="fill: none; stroke: #b0b0b0; stroke-opacity: 0.5; stroke-width: 0.8; stroke-linecap: square"/>
     </g>
     <g id="line2d_10">
      <g>
       <use xlink:href="#m9ca221ce29" x="247.023765" y="307.584" style="stroke: #000000; stroke-width: 0.8"/>
      </g>
     </g>
     <g id="text_5">
      <!-- 0.0 -->
      <g transform="translate(239.072203 322.182437) scale(0.1 -0.1)">
       <use xlink:href="#DejaVuSans-30"/>
       <use xlink:href="#DejaVuSans-2e" transform="translate(63.623047 0)"/>
       <use xlink:href="#DejaVuSans-30" transform="translate(95.410156 0)"/>
      </g>
     </g>
    </g>
    <g id="xtick_6">
     <g id="line2d_11">
      <path d="M 289.499683 307.584 
L 289.499683 41.472 
" clip-path="url(#p1f6b693cd8)" style="fill: none; stroke: #b0b0b0; stroke-opacity: 0.5; stroke-width: 0.8; stroke-linecap: square"/>
     </g>
     <g id="line2d_12">
      <g>
       <use xlink:href="#m9ca221ce29" x="289.499683" y="307.584" style="stroke: #000000; stroke-width: 0.8"/>
      </g>
     </g>
     <g id="text_6">
      <!-- 0.2 -->
      <g transform="translate(281.54812 322.182437) scale(0.1 -0.1)">
       <use xlink:href="#DejaVuSans-30"/>
       <use xlink:href="#DejaVuSans-2e" transform="translate(63.623047 0)"/>
       <use xlink:href="#DejaVuSans-32" transform="translate(95.410156 0)"/>
      </g>
     </g>
    </g>
    <g id="xtick_7">
     <g id="line2d_13">
      <path d="M 331.9756 307.584 
L 331.9756 41.472 
" clip-path="url(#p1f6b693cd8)" style="fill: none; stroke: #b0b0b0; stroke-opacity: 0.5; stroke-width: 0.8; stroke-linecap: square"/>
     </g>
     <g id="line2d_14">
      <g>
       <use xlink:href="#m9ca221ce29" x="331.9756" y="307.584" style="stroke: #000000; stroke-width: 0.8"/>
      </g>
     </g>
     <g id="text_7">
      <!-- 0.4 -->
      <g transform="translate(324.024037 322.182437) scale(0.1 -0.1)">
       <use xlink:href="#DejaVuSans-30"/>
       <use xlink:href="#DejaVuSans-2e" transform="translate(63.623047 0)"/>
       <use xlink:href="#DejaVuSans-34" transform="translate(95.410156 0)"/>
      </g>
     </g>
    </g>
    <g id="xtick_8">
     <g id="line2d_15">
      <path d="M 374.451517 307.584 
L 374.451517 41.472 
" clip-path="url(#p1f6b693cd8)" style="fill: none; stroke: #b0b0b0; stroke-opacity: 0.5; stroke-width: 0.8; stroke-linecap: square"/>
     </g>
     <g id="line2d_16">
      <g>
       <use xlink:href="#m9ca221ce29" x="374.451517" y="307.584" style="stroke: #000000; stroke-width: 0.8"/>
      </g>
     </g>
     <g id="text_8">
      <!-- 0.6 -->
      <g transform="translate(366.499955 322.182437) scale(0.1 -0.1)">
       <use xlink:href="#DejaVuSans-30"/>
       <use xlink:href="#DejaVuSans-2e" transform="translate(63.623047 0)"/>
       <use xlink:href="#DejaVuSans-36" transform="translate(95.410156 0)"/>
      </g>
     </g>
    </g>
    <g id="text_9">
     <!-- Index -->
     <g transform="translate(222.393594 335.860562) scale(0.1 -0.1)">
      <defs>
       <path id="DejaVuSans-49" d="M 628 4666 
L 1259 4666 
L 1259 0 
L 628 0 
L 628 4666 
z
" transform="scale(0.015625)"/>
       <path id="DejaVuSans-6e" d="M 3513 2113 
L 3513 0 
L 2938 0 
L 2938 2094 
Q 2938 2591 2744 2837 
Q 2550 3084 2163 3084 
Q 1697 3084 1428 2787 
Q 1159 2491 1159 1978 
L 1159 0 
L 581 0 
L 581 3500 
L 1159 3500 
L 1159 2956 
Q 1366 3272 1645 3428 
Q 1925 3584 2291 3584 
Q 2894 3584 3203 3211 
Q 3513 2838 3513 2113 
z
" transform="scale(0.015625)"/>
       <path id="DejaVuSans-64" d="M 2906 2969 
L 2906 4863 
L 3481 4863 
L 3481 0 
L 2906 0 
L 2906 525 
Q 2725 213 2448 61 
Q 2172 -91 1784 -91 
Q 1150 -91 751 415 
Q 353 922 353 1747 
Q 353 2572 751 3078 
Q 1150 3584 1784 3584 
Q 2172 3584 2448 3432 
Q 2725 3281 2906 2969 
z
M 947 1747 
Q 947 1113 1208 752 
Q 1469 391 1925 391 
Q 2381 391 2643 752 
Q 2906 1113 2906 1747 
Q 2906 2381 2643 2742 
Q 2381 3103 1925 3103 
Q 1469 3103 1208 2742 
Q 947 2381 947 1747 
z
" transform="scale(0.015625)"/>
       <path id="DejaVuSans-65" d="M 3597 1894 
L 3597 1613 
L 953 1613 
Q 991 1019 1311 708 
Q 1631 397 2203 397 
Q 2534 397 2845 478 
Q 3156 559 3463 722 
L 3463 178 
Q 3153 47 2828 -22 
Q 2503 -91 2169 -91 
Q 1331 -91 842 396 
Q 353 884 353 1716 
Q 353 2575 817 3079 
Q 1281 3584 2069 3584 
Q 2775 3584 3186 3129 
Q 3597 2675 3597 1894 
z
M 3022 2063 
Q 3016 2534 2758 2815 
Q 2500 3097 2075 3097 
Q 1594 3097 1305 2825 
Q 1016 2553 972 2059 
L 3022 2063 
z
" transform="scale(0.015625)"/>
       <path id="DejaVuSans-78" d="M 3513 3500 
L 2247 1797 
L 3578 0 
L 2900 0 
L 1881 1375 
L 863 0 
L 184 0 
L 1544 1831 
L 300 3500 
L 978 3500 
L 1906 2253 
L 2834 3500 
L 3513 3500 
z
" transform="scale(0.015625)"/>
      </defs>
      <use xlink:href="#DejaVuSans-49"/>
      <use xlink:href="#DejaVuSans-6e" transform="translate(29.492188 0)"/>
      <use xlink:href="#DejaVuSans-64" transform="translate(92.871094 0)"/>
      <use xlink:href="#DejaVuSans-65" transform="translate(156.347656 0)"/>
      <use xlink:href="#DejaVuSans-78" transform="translate(216.121094 0)"/>
     </g>
    </g>
   </g>
   <g id="matplotlib.axis_2">
    <g id="ytick_1">
     <g id="line2d_17">
      <path d="M 57.6 298.560675 
L 414.72 298.560675 
" clip-path="url(#p1f6b693cd8)" style="fill: none; stroke: #b0b0b0; stroke-opacity: 0.5; stroke-width: 0.8; stroke-linecap: square"/>
     </g>
     <g id="line2d_18">
      <defs>
       <path id="m03ddf4cfba" d="M 0 0 
L -3.5 0 
" style="stroke: #000000; stroke-width: 0.8"/>
      </defs>
      <g>
       <use xlink:href="#m03ddf4cfba" x="57.6" y="298.560675" style="stroke: #000000; stroke-width: 0.8"/>
      </g>
     </g>
     <g id="text_10">
      <!-- −0.8 -->
      <g transform="translate(26.317187 302.359893) scale(0.1 -0.1)">
       <use xlink:href="#DejaVuSans-2212"/>
       <use xlink:href="#DejaVuSans-30" transform="translate(83.789062 0)"/>
       <use xlink:href="#DejaVuSans-2e" transform="translate(147.412109 0)"/>
       <use xlink:href="#DejaVuSans-38" transform="translate(179.199219 0)"/>
      </g>
     </g>
    </g>
    <g id="ytick_2">
     <g id="line2d_19">
      <path d="M 57.6 266.120224 
L 414.72 266.120224 
" clip-path="url(#p1f6b693cd8)" style="fill: none; stroke: #b0b0b0; stroke-opacity: 0.5; stroke-width: 0.8; stroke-linecap: square"/>
     </g>
     <g id="line2d_20">
      <g>
       <use xlink:href="#m03ddf4cfba" x="57.6" y="266.120224" style="stroke: #000000; stroke-width: 0.8"/>
      </g>
     </g>
     <g id="text_11">
      <!-- −0.6 -->
      <g transform="translate(26.317187 269.919443) scale(0.1 -0.1)">
       <use xlink:href="#DejaVuSans-2212"/>
       <use xlink:href="#DejaVuSans-30" transform="translate(83.789062 0)"/>
       <use xlink:href="#DejaVuSans-2e" transform="translate(147.412109 0)"/>
       <use xlink:href="#DejaVuSans-36" transform="translate(179.199219 0)"/>
      </g>
     </g>
    </g>
    <g id="ytick_3">
     <g id="line2d_21">
      <path d="M 57.6 233.679774 
L 414.72 233.679774 
" clip-path="url(#p1f6b693cd8)" style="fill: none; stroke: #b0b0b0; stroke-opacity: 0.5; stroke-width: 0.8; stroke-linecap: square"/>
     </g>
     <g id="line2d_22">
      <g>
       <use xlink:href="#m03ddf4cfba" x="57.6" y="233.679774" style="stroke: #000000; stroke-width: 0.8"/>
      </g>
     </g>
     <g id="text_12">
      <!-- −0.4 -->
      <g transform="translate(26.317187 237.478993) scale(0.1 -0.1)">
       <use xlink:href="#DejaVuSans-2212"/>
       <use xlink:href="#DejaVuSans-30" transform="translate(83.789062 0)"/>
       <use xlink:href="#DejaVuSans-2e" transform="translate(147.412109 0)"/>
       <use xlink:href="#DejaVuSans-34" transform="translate(179.199219 0)"/>
      </g>
     </g>
    </g>
    <g id="ytick_4">
     <g id="line2d_23">
      <path d="M 57.6 201.239324 
L 414.72 201.239324 
" clip-path="url(#p1f6b693cd8)" style="fill: none; stroke: #b0b0b0; stroke-opacity: 0.5; stroke-width: 0.8; stroke-linecap: square"/>
     </g>
     <g id="line2d_24">
      <g>
       <use xlink:href="#m03ddf4cfba" x="57.6" y="201.239324" style="stroke: #000000; stroke-width: 0.8"/>
      </g>
     </g>
     <g id="text_13">
      <!-- −0.2 -->
      <g transform="translate(26.317187 205.038543) scale(0.1 -0.1)">
       <use xlink:href="#DejaVuSans-2212"/>
       <use xlink:href="#DejaVuSans-30" transform="translate(83.789062 0)"/>
       <use xlink:href="#DejaVuSans-2e" transform="translate(147.412109 0)"/>
       <use xlink:href="#DejaVuSans-32" transform="translate(179.199219 0)"/>
      </g>
     </g>
    </g>
    <g id="ytick_5">
     <g id="line2d_25">
      <path d="M 57.6 168.798874 
L 414.72 168.798874 
" clip-path="url(#p1f6b693cd8)" style="fill: none; stroke: #b0b0b0; stroke-opacity: 0.5; stroke-width: 0.8; stroke-linecap: square"/>
     </g>
     <g id="line2d_26">
      <g>
       <use xlink:href="#m03ddf4cfba" x="57.6" y="168.798874" style="stroke: #000000; stroke-width: 0.8"/>
      </g>
     </g>
     <g id="text_14">
      <!-- 0.0 -->
      <g transform="translate(34.696875 172.598093) scale(0.1 -0.1)">
       <use xlink:href="#DejaVuSans-30"/>
       <use xlink:href="#DejaVuSans-2e" transform="translate(63.623047 0)"/>
       <use xlink:href="#DejaVuSans-30" transform="translate(95.410156 0)"/>
      </g>
     </g>
    </g>
    <g id="ytick_6">
     <g id="line2d_27">
      <path d="M 57.6 136.358424 
L 414.72 136.358424 
" clip-path="url(#p1f6b693cd8)" style="fill: none; stroke: #b0b0b0; stroke-opacity: 0.5; stroke-width: 0.8; stroke-linecap: square"/>
     </g>
     <g id="line2d_28">
      <g>
       <use xlink:href="#m03ddf4cfba" x="57.6" y="136.358424" style="stroke: #000000; stroke-width: 0.8"/>
      </g>
     </g>
     <g id="text_15">
      <!-- 0.2 -->
      <g transform="translate(34.696875 140.157643) scale(0.1 -0.1)">
       <use xlink:href="#DejaVuSans-30"/>
       <use xlink:href="#DejaVuSans-2e" transform="translate(63.623047 0)"/>
       <use xlink:href="#DejaVuSans-32" transform="translate(95.410156 0)"/>
      </g>
     </g>
    </g>
    <g id="ytick_7">
     <g id="line2d_29">
      <path d="M 57.6 103.917974 
L 414.72 103.917974 
" clip-path="url(#p1f6b693cd8)" style="fill: none; stroke: #b0b0b0; stroke-opacity: 0.5; stroke-width: 0.8; stroke-linecap: square"/>
     </g>
     <g id="line2d_30">
      <g>
       <use xlink:href="#m03ddf4cfba" x="57.6" y="103.917974" style="stroke: #000000; stroke-width: 0.8"/>
      </g>
     </g>
     <g id="text_16">
      <!-- 0.4 -->
      <g transform="translate(34.696875 107.717193) scale(0.1 -0.1)">
       <use xlink:href="#DejaVuSans-30"/>
       <use xlink:href="#DejaVuSans-2e" transform="translate(63.623047 0)"/>
       <use xlink:href="#DejaVuSans-34" transform="translate(95.410156 0)"/>
      </g>
     </g>
    </g>
    <g id="ytick_8">
     <g id="line2d_31">
      <path d="M 57.6 71.477524 
L 414.72 71.477524 
" clip-path="url(#p1f6b693cd8)" style="fill: none; stroke: #b0b0b0; stroke-opacity: 0.5; stroke-width: 0.8; stroke-linecap: square"/>
     </g>
     <g id="line2d_32">
      <g>
       <use xlink:href="#m03ddf4cfba" x="57.6" y="71.477524" style="stroke: #000000; stroke-width: 0.8"/>
      </g>
     </g>
     <g id="text_17">
      <!-- 0.6 -->
      <g transform="translate(34.696875 75.276742) scale(0.1 -0.1)">
       <use xlink:href="#DejaVuSans-30"/>
       <use xlink:href="#DejaVuSans-2e" transform="translate(63.623047 0)"/>
       <use xlink:href="#DejaVuSans-36" transform="translate(95.410156 0)"/>
      </g>
     </g>
    </g>
    <g id="text_18">
     <!-- Value -->
     <g transform="translate(20.2375 188.25925) rotate(-90) scale(0.1 -0.1)">
      <defs>
       <path id="DejaVuSans-56" d="M 1831 0 
L 50 4666 
L 709 4666 
L 2188 738 
L 3669 4666 
L 4325 4666 
L 2547 0 
L 1831 0 
z
" transform="scale(0.015625)"/>
       <path id="DejaVuSans-61" d="M 2194 1759 
Q 1497 1759 1228 1600 
Q 959 1441 959 1056 
Q 959 750 1161 570 
Q 1363 391 1709 391 
Q 2188 391 2477 730 
Q 2766 1069 2766 1631 
L 2766 1759 
L 2194 1759 
z
M 3341 1997 
L 3341 0 
L 2766 0 
L 2766 531 
Q 2569 213 2275 61 
Q 1981 -91 1556 -91 
Q 1019 -91 701 211 
Q 384 513 384 1019 
Q 384 1609 779 1909 
Q 1175 2209 1959 2209 
L 2766 2209 
L 2766 2266 
Q 2766 2663 2505 2880 
Q 2244 3097 1772 3097 
Q 1472 3097 1187 3025 
Q 903 2953 641 2809 
L 641 3341 
Q 956 3463 1253 3523 
Q 1550 3584 1831 3584 
Q 2591 3584 2966 3190 
Q 3341 2797 3341 1997 
z
" transform="scale(0.015625)"/>
       <path id="DejaVuSans-6c" d="M 603 4863 
L 1178 4863 
L 1178 0 
L 603 0 
L 603 4863 
z
" transform="scale(0.015625)"/>
       <path id="DejaVuSans-75" d="M 544 1381 
L 544 3500 
L 1119 3500 
L 1119 1403 
Q 1119 906 1312 657 
Q 1506 409 1894 409 
Q 2359 409 2629 706 
Q 2900 1003 2900 1516 
L 2900 3500 
L 3475 3500 
L 3475 0 
L 2900 0 
L 2900 538 
Q 2691 219 2414 64 
Q 2138 -91 1772 -91 
Q 1169 -91 856 284 
Q 544 659 544 1381 
z
M 1991 3584 
L 1991 3584 
z
" transform="scale(0.015625)"/>
      </defs>
      <use xlink:href="#DejaVuSans-56"/>
      <use xlink:href="#DejaVuSans-61" transform="translate(60.658203 0)"/>
      <use xlink:href="#DejaVuSans-6c" transform="translate(121.9375 0)"/>
      <use xlink:href="#DejaVuSans-75" transform="translate(149.720703 0)"/>
      <use xlink:href="#DejaVuSans-65" transform="translate(213.099609 0)"/>
     </g>
    </g>
   </g>
   <g id="line2d_33">
    <path d="M 252.607679 168.775739 
L 261.175188 168.234368 
L 247.261236 167.691683 
L 251.573613 167.152214 
L 251.573333 166.616738 
L 254.287504 165.006342 
L 255.134218 163.942855 
L 257.739195 162.353403 
L 258.601614 161.304901 
L 261.175758 159.738268 
L 262.015717 158.702056 
L 264.550182 157.150949 
L 265.095417 156.633387 
L 265.426083 156.120192 
L 268.468795 154.06314 
L 268.807896 153.552185 
L 270.399209 152.531799 
L 271.801251 151.505101 
L 272.142689 150.997012 
L 272.844661 150.491751 
L 274.477034 149.475251 
L 275.124187 148.966352 
L 275.472348 148.461834 
L 276.120552 147.960588 
L 277.730212 146.953061 
L 278.409942 146.447809 
L 278.788314 145.946141 
L 279.373306 145.447416 
L 280.943723 144.444211 
L 281.672029 143.940053 
L 282.634909 142.939685 
L 284.144 141.93428 
L 284.934546 141.427592 
L 285.918908 140.420345 
L 288.20451 138.896358 
L 289.216515 137.880207 
L 291.496095 136.344912 
L 293.347116 134.81263 
L 295.356513 133.270904 
L 295.831091 132.761867 
L 297.410911 131.743248 
L 298.636353 130.719981 
L 299.127306 130.214552 
L 300.753811 129.20628 
L 301.902845 128.193673 
L 302.382329 127.693682 
L 304.023873 126.698646 
L 306.374658 124.713876 
L 307.18924 124.221673 
L 308.765686 122.742183 
L 311.492609 120.78387 
L 311.937509 120.29594 
L 312.589121 119.811858 
L 313.446199 119.327182 
L 315.10073 117.863083 
L 315.675282 117.380156 
L 316.49782 116.896944 
L 318.799787 114.959848 
L 319.64592 114.479986 
L 320.797486 113.510894 
L 321.87263 112.549111 
L 322.696523 112.070825 
L 324.957576 110.143822 
L 325.736472 109.665671 
L 328.058782 107.735608 
L 328.812962 107.25622 
L 329.960363 106.284754 
L 330.739981 105.797153 
L 331.204534 105.313178 
L 332.520987 104.34438 
L 333.078873 103.854193 
L 333.845649 103.364296 
L 334.33314 102.878275 
L 335.695861 101.907482 
L 336.209384 101.416448 
L 336.976559 100.925541 
L 337.469626 100.439163 
L 338.932585 99.471661 
L 339.363194 98.983161 
L 342.118365 97.053364 
L 342.480907 96.570012 
L 345.204114 94.659662 
L 345.576707 94.182724 
L 347.342263 92.762339 
L 348.186144 92.294379 
L 348.55937 91.82257 
L 350.334508 90.414246 
L 351.160578 89.95081 
L 351.528475 89.483101 
L 353.31331 88.082284 
L 354.09646 87.6217 
L 355.036111 86.688235 
L 355.788031 86.221889 
L 356.300283 85.761856 
L 357.068875 85.30424 
L 357.925497 84.375319 
L 358.804271 83.909794 
L 359.298648 83.45068 
L 360.002111 82.994872 
L 360.507375 82.535062 
L 360.814098 82.069383 
L 361.784231 81.604284 
L 362.302293 81.146233 
L 363.583364 80.236242 
L 363.678989 79.772177 
L 364.743683 79.306614 
L 366.58768 77.93776 
L 366.587806 77.473676 
L 367.642272 77.006914 
L 369.650491 75.637538 
L 369.499586 75.173067 
L 371.442675 74.239476 
L 371.943913 73.78391 
L 372.70286 73.328209 
L 372.492445 72.863187 
L 373.280203 72.391553 
L 374.469612 71.924984 
L 374.984509 71.468838 
L 375.787216 71.014838 
L 375.554522 70.551402 
L 376.084736 70.079313 
L 377.491358 69.611256 
L 377.995419 69.155622 
L 378.868105 68.704813 
L 378.701983 68.244799 
L 378.948615 67.773919 
L 380.484989 67.306152 
L 380.958923 66.853573 
L 381.971311 66.409637 
L 381.910169 65.48963 
L 383.463531 65.022704 
L 383.934275 64.572832 
L 384.819353 64.136031 
L 385.300135 63.691255 
L 384.960917 63.227886 
L 386.26004 62.761434 
L 387.590152 61.886924 
L 388.508675 61.452018 
L 388.031691 60.991986 
L 388.679607 60.522836 
L 389.780138 60.076996 
L 390.373241 59.659734 
L 391.738051 59.237697 
L 391.034449 58.779859 
L 391.164227 58.301921 
L 392.442425 57.85202 
L 393.085113 57.44751 
L 395.029645 57.043475 
L 394.025131 56.58437 
L 393.529133 56.084118 
L 395.330292 55.251964 
L 398.487273 54.887035 
L 397.753961 54.401189 
L 394.694263 53.835465 
L 391.793674 53.568 
L 383.667009 54.230694 
L 381.39874 56.38838 
L 379.013998 60.214098 
L 373.195996 65.394458 
L 361.17738 71.294388 
L 345.840789 77.223207 
L 343.737439 82.643904 
L 340.303433 87.301099 
L 334.289018 91.298564 
L 317.556419 95.083149 
L 313.756972 99.236641 
L 312.296437 104.107079 
L 308.412429 109.530744 
L 300.249421 114.928494 
L 301.53867 119.767274 
L 291.367209 124.011418 
L 273.082721 128.141403 
L 272.924757 132.703955 
L 269.61103 137.813666 
L 261.093972 143.08004 
L 260.112835 148.011432 
L 251.269419 152.478744 
L 236.400178 156.78917 
L 232.637259 161.339805 
L 229.046012 166.236677 
L 222.113634 171.250883 
L 217.489854 176.098032 
L 207.647237 180.710279 
L 199.572793 185.239975 
L 194.63587 189.856754 
L 187.912529 194.59242 
L 182.492672 199.37067 
L 176.326439 204.124961 
L 169.787765 208.844905 
L 158.007559 218.174467 
L 152.683802 222.781581 
L 146.014368 227.420306 
L 138.439343 232.152718 
L 133.602323 236.943308 
L 129.806009 241.66918 
L 124.033845 246.256944 
L 117.180733 250.788306 
L 111.233953 255.422675 
L 103.655883 260.203089 
L 96.47311 264.983928 
L 91.951383 269.599203 
L 85.205769 274.089441 
L 80.295138 278.685438 
L 73.832727 283.496461 
L 74.787695 288.205873 
L 90.733606 292.126898 
L 88.421271 294.618614 
L 89.951494 295.488 
L 88.259112 295.031341 
L 85.118676 293.756295 
L 79.963883 292.127043 
L 80.617077 290.551409 
L 83.635418 289.456323 
L 88.415119 289.16841 
L 88.800263 289.607086 
L 93.331257 290.15707 
L 101.694844 290.022598 
L 96.458021 288.86993 
L 91.260389 287.168476 
L 85.055889 285.837617 
L 91.997297 285.461822 
L 93.238164 285.786706 
L 106.278789 285.968638 
L 105.905683 285.338574 
L 100.110897 283.969004 
L 87.816408 282.548194 
L 99.463817 281.733171 
L 98.891145 281.60156 
L 104.7881 281.662807 
L 110.84815 281.340263 
L 104.234796 280.449453 
L 97.528222 279.281442 
L 97.897441 278.297732 
L 100.933796 277.748608 
L 111.339236 277.275939 
L 108.678494 276.738756 
L 106.519192 275.886076 
L 103.289259 274.938582 
L 107.738387 273.691748 
L 113.260869 273.37542 
L 114.637426 272.9718 
L 112.005938 272.323628 
L 110.58505 271.490719 
L 110.417321 270.682252 
L 111.507307 270.064205 
L 118.004707 269.190343 
L 116.153837 268.622782 
L 114.780154 267.907843 
L 115.823291 267.159655 
L 119.181534 265.947181 
L 120.307092 265.439456 
L 120.621612 264.889684 
L 120.398045 264.266465 
L 123.368916 262.949518 
L 123.058623 262.34725 
L 123.765694 261.791871 
L 125.136516 261.250211 
L 124.938773 260.683869 
L 129.163841 258.84368 
L 128.582814 258.278343 
L 131.099778 256.607972 
L 132.248831 256.006661 
L 133.783306 255.420132 
L 133.270245 254.863545 
L 134.250492 254.319719 
L 134.251669 253.76146 
L 135.615492 253.182452 
L 137.628711 252.600564 
L 138.310793 252.033796 
L 137.824087 251.478853 
L 139.702363 250.339845 
L 142.134247 249.171027 
L 141.685796 248.595954 
L 143.780323 247.430955 
L 146.380461 246.238449 
L 146.766093 245.641527 
L 147.371266 245.041869 
L 148.455038 244.439982 
L 148.960206 243.840943 
L 148.980334 243.246549 
L 151.128964 242.044656 
L 152.608975 241.43388 
L 153.295982 240.832017 
L 152.921787 240.248017 
L 153.838734 239.673558 
L 154.521741 239.091099 
L 155.792615 238.493945 
L 157.563399 237.89464 
L 158.036535 237.311021 
L 157.701456 236.74581 
L 158.810406 236.183905 
L 158.886954 235.609722 
L 162.09607 234.439835 
L 161.987122 233.867847 
L 162.084221 233.303859 
L 165.910884 231.585724 
L 166.299662 231.011357 
L 166.282851 230.43932 
L 168.425557 229.292815 
L 168.951119 228.722379 
L 169.202264 228.155481 
L 171.455627 227.01338 
L 172.729926 226.437843 
L 172.943568 225.868629 
L 172.816721 225.308388 
L 174.829415 224.186343 
L 176.316882 223.616641 
L 177.158642 223.049854 
L 176.928897 222.492295 
L 177.304864 221.940615 
L 180.899953 220.269678 
L 180.8509 219.718046 
L 180.997837 219.171572 
L 184.414792 217.523466 
L 184.466661 216.978713 
L 184.783986 216.437058 
L 188.214865 214.794749 
L 188.238094 214.250681 
L 188.541963 213.70863 
L 190.822447 212.606202 
L 192.140609 212.049034 
L 192.295199 211.496687 
L 192.200625 210.948085 
L 194.380668 209.832779 
L 195.783726 209.265088 
L 196.435879 208.700438 
L 196.152965 208.141175 
L 196.964473 207.581243 
L 200.358772 205.868572 
L 200.266609 205.300777 
L 200.669153 204.73487 
L 203.104683 203.595669 
L 203.713559 203.027147 
L 203.841492 202.462939 
L 204.539401 201.900092 
L 206.791276 200.770059 
L 207.381883 199.655444 
L 208.27042 199.103183 
L 210.629703 197.990309 
L 211.072806 197.4369 
L 211.136742 196.890877 
L 211.885147 196.348323 
L 215.036991 194.70395 
L 215.075176 194.160373 
L 215.46252 193.620391 
L 218.634349 191.986899 
L 218.827861 191.444816 
L 219.184289 190.905368 
L 222.178465 189.274655 
L 222.365768 188.734503 
L 222.751733 188.19778 
L 225.686553 186.579272 
L 225.878129 186.044475 
L 226.298237 185.514163 
L 229.257259 183.915732 
L 229.827278 182.86237 
L 232.743843 181.283582 
L 233.380598 180.238178 
L 236.253578 178.662791 
L 236.747396 178.136672 
L 236.953511 177.613896 
L 238.684758 176.562717 
L 239.699086 176.031388 
L 240.351431 175.500977 
L 240.58232 174.973156 
L 242.185745 173.91146 
L 243.194873 173.374672 
L 243.877176 172.838775 
L 244.106167 172.305896 
L 244.807538 171.772853 
L 247.468544 170.152363 
L 247.689431 169.614729 
L 251.831156 168.809416 
L 251.831156 168.809416 
" clip-path="url(#p1f6b693cd8)" style="fill: none; stroke: #1f77b4; stroke-width: 1.5; stroke-linecap: square"/>
   </g>
   <g id="line2d_34">
    <path d="M 248.891593 168.775739 
L 254.231744 164.472288 
L 256.264165 162.884093 
L 258.289165 161.304901 
L 263.732864 157.150949 
L 268.57259 153.552185 
L 270.582627 152.017787 
L 284.966323 140.922886 
L 287.007676 139.407445 
L 289.024516 137.880207 
L 290.976039 136.344912 
L 311.769077 120.29594 
L 313.740693 118.838967 
L 315.656186 117.380156 
L 319.441924 114.479986 
L 322.527217 112.070825 
L 324.972349 110.143822 
L 326.809433 108.699049 
L 331.243789 105.313178 
L 333.125236 103.854193 
L 337.517793 100.439163 
L 339.367922 98.983161 
L 340.589092 98.011536 
L 342.445095 96.570012 
L 343.646429 95.606803 
L 345.53594 94.182724 
L 346.715101 93.230764 
L 348.646507 91.82257 
L 349.824048 90.878649 
L 351.74663 89.483101 
L 352.906298 88.544415 
L 354.851089 87.156891 
L 355.980749 86.221889 
L 357.904432 84.842283 
L 358.982659 83.909794 
L 361.400998 82.069383 
L 362.57228 81.146233 
L 363.836262 80.236242 
L 365.481401 78.847394 
L 366.788588 77.93776 
L 368.415523 76.54635 
L 369.762091 75.637538 
L 371.371912 74.239476 
L 372.752014 73.328209 
L 375.047398 71.468838 
L 376.290278 70.551402 
L 377.275437 69.611256 
L 379.266541 68.244799 
L 380.165823 67.306152 
L 382.24383 65.956846 
L 383.05269 65.022704 
L 385.55545 63.227886 
L 385.900669 62.761434 
L 386.552686 62.314733 
L 388.188154 61.452018 
L 388.74604 60.522836 
L 389.335384 60.076996 
L 391.236927 59.237697 
L 391.56441 58.779859 
L 391.578563 58.301921 
L 392.023748 57.85202 
L 394.379704 57.043475 
L 394.705744 56.58437 
L 394.262547 56.084118 
L 394.322765 55.624859 
L 395.896698 55.251964 
L 398.104977 54.887035 
L 398.29758 54.401189 
L 394.156314 53.835465 
L 385.830969 53.568 
L 375.981352 54.230694 
L 367.722504 56.38838 
L 362.549519 60.214098 
L 360.039341 65.394458 
L 358.966279 71.294388 
L 358.094985 77.223207 
L 355.917784 82.643904 
L 350.50851 87.301099 
L 340.766739 91.298564 
L 328.229271 95.083149 
L 317.016768 99.236641 
L 310.887518 104.107079 
L 309.716065 109.530744 
L 309.112885 114.928494 
L 304.169639 119.767274 
L 293.974136 124.011418 
L 282.381834 128.141403 
L 274.179871 132.703955 
L 270.524729 137.813666 
L 268.237736 143.08004 
L 263.406313 148.011432 
L 255.280753 152.478744 
L 246.478334 156.78917 
L 239.747142 161.339805 
L 230.444929 171.250883 
L 224.066647 176.098032 
L 216.562969 180.710279 
L 209.611732 185.239975 
L 203.880222 189.856754 
L 198.506 194.59242 
L 192.496233 199.37067 
L 185.98939 204.124961 
L 179.795687 208.844905 
L 174.070171 213.532576 
L 168.070901 218.174467 
L 154.57254 227.420306 
L 148.811795 232.152718 
L 143.896322 236.943308 
L 138.378087 241.66918 
L 131.301002 246.256944 
L 123.67255 250.788306 
L 117.501545 255.422675 
L 108.874414 264.983928 
L 101.989427 269.599203 
L 93.072928 274.089441 
L 85.787948 278.685438 
L 83.680319 283.496461 
L 86.625834 288.205873 
L 90.923753 292.126898 
L 92.911402 294.618614 
L 92.046501 295.488 
L 90.201315 295.031341 
L 88.505389 293.756295 
L 85.945145 292.127043 
L 81.563386 290.551409 
L 77.328559 289.456323 
L 77.453008 289.16841 
L 93.636916 290.15707 
L 99.395333 290.022598 
L 97.074302 288.86993 
L 83.788248 285.837617 
L 85.718565 285.461822 
L 93.786404 285.786706 
L 101.440085 285.968638 
L 103.170671 285.338574 
L 99.162753 283.969004 
L 94.349822 282.548194 
L 93.480124 281.733171 
L 97.177003 281.60156 
L 102.234337 281.662807 
L 105.037137 281.340263 
L 104.545152 280.449453 
L 102.506235 279.281442 
L 101.452465 278.297732 
L 102.628747 277.748608 
L 108.025514 277.275939 
L 109.187137 276.738756 
L 108.751687 275.886076 
L 107.82705 274.938582 
L 107.843531 274.170043 
L 109.407274 273.691748 
L 111.80941 273.37542 
L 113.656799 272.9718 
L 114.117997 272.323628 
L 113.647874 271.490719 
L 113.503057 270.682252 
L 114.534168 270.064205 
L 118.173525 269.190343 
L 118.967688 268.622782 
L 119.05411 267.159655 
L 119.77746 266.497774 
L 123.650663 264.889684 
L 124.162332 264.266465 
L 124.397723 263.601268 
L 124.786133 262.949518 
L 125.618779 262.34725 
L 128.061144 261.250211 
L 128.877739 260.683869 
L 129.506565 259.451024 
L 130.185546 258.84368 
L 133.394896 257.190605 
L 134.026722 256.006661 
L 134.753655 255.420132 
L 137.050013 254.319719 
L 137.824644 253.76146 
L 138.764181 252.600564 
L 139.526418 252.033796 
L 142.287045 250.339845 
L 146.119557 247.430955 
L 148.902039 245.641527 
L 150.788411 243.840943 
L 152.835682 242.650226 
L 153.575324 242.044656 
L 154.535899 240.832017 
L 155.295624 240.248017 
L 157.134962 239.091099 
L 159.745443 236.74581 
L 161.407336 235.609722 
L 163.601854 233.867847 
L 169.030091 229.866346 
L 170.53042 228.722379 
L 172.155336 227.587132 
L 174.260914 225.868629 
L 176.578887 224.186343 
L 177.922411 223.049854 
L 180.193984 221.386667 
L 181.515893 220.269678 
L 183.725051 218.62414 
L 185.038479 217.523466 
L 187.31885 215.892585 
L 188.611706 214.794749 
L 191.713792 212.606202 
L 193.127667 211.496687 
L 195.505239 209.832779 
L 196.927351 208.700438 
L 199.229451 207.014168 
L 204.226826 203.027147 
L 206.392511 201.335243 
L 207.702765 200.209583 
L 209.877817 198.547771 
L 211.197384 197.4369 
L 214.084286 195.252916 
L 216.329408 193.620391 
L 228.345691 184.449602 
L 229.676495 183.38659 
L 231.743955 181.811522 
L 233.070667 180.758995 
L 235.170637 179.191023 
L 236.503971 178.136672 
L 238.647144 176.562717 
L 240.749478 174.973156 
L 242.843071 173.374672 
L 248.84912 168.809416 
L 248.84912 168.809416 
" clip-path="url(#p1f6b693cd8)" style="fill: none; stroke: #ff7f0e; stroke-opacity: 0.5; stroke-width: 1.5; stroke-linecap: square"/>
   </g>
   <g id="patch_3">
    <path d="M 57.6 307.584 
L 57.6 41.472 
" style="fill: none; stroke: #000000; stroke-width: 0.8; stroke-linejoin: miter; stroke-linecap: square"/>
   </g>
   <g id="patch_4">
    <path d="M 414.72 307.584 
L 414.72 41.472 
" style="fill: none; stroke: #000000; stroke-width: 0.8; stroke-linejoin: miter; stroke-linecap: square"/>
   </g>
   <g id="patch_5">
    <path d="M 57.6 307.584 
L 414.72 307.584 
" style="fill: none; stroke: #000000; stroke-width: 0.8; stroke-linejoin: miter; stroke-linecap: square"/>
   </g>
   <g id="patch_6">
    <path d="M 57.6 41.472 
L 414.72 41.472 
" style="fill: none; stroke: #000000; stroke-width: 0.8; stroke-linejoin: miter; stroke-linecap: square"/>
   </g>
   <g id="text_19">
    <!-- Compare - Epoch 600 -->
    <g transform="translate(171.234375 35.472) scale(0.12 -0.12)">
     <defs>
      <path id="DejaVuSans-43" d="M 4122 4306 
L 4122 3641 
Q 3803 3938 3442 4084 
Q 3081 4231 2675 4231 
Q 1875 4231 1450 3742 
Q 1025 3253 1025 2328 
Q 1025 1406 1450 917 
Q 1875 428 2675 428 
Q 3081 428 3442 575 
Q 3803 722 4122 1019 
L 4122 359 
Q 3791 134 3420 21 
Q 3050 -91 2638 -91 
Q 1578 -91 968 557 
Q 359 1206 359 2328 
Q 359 3453 968 4101 
Q 1578 4750 2638 4750 
Q 3056 4750 3426 4639 
Q 3797 4528 4122 4306 
z
" transform="scale(0.015625)"/>
      <path id="DejaVuSans-6f" d="M 1959 3097 
Q 1497 3097 1228 2736 
Q 959 2375 959 1747 
Q 959 1119 1226 758 
Q 1494 397 1959 397 
Q 2419 397 2687 759 
Q 2956 1122 2956 1747 
Q 2956 2369 2687 2733 
Q 2419 3097 1959 3097 
z
M 1959 3584 
Q 2709 3584 3137 3096 
Q 3566 2609 3566 1747 
Q 3566 888 3137 398 
Q 2709 -91 1959 -91 
Q 1206 -91 779 398 
Q 353 888 353 1747 
Q 353 2609 779 3096 
Q 1206 3584 1959 3584 
z
" transform="scale(0.015625)"/>
      <path id="DejaVuSans-6d" d="M 3328 2828 
Q 3544 3216 3844 3400 
Q 4144 3584 4550 3584 
Q 5097 3584 5394 3201 
Q 5691 2819 5691 2113 
L 5691 0 
L 5113 0 
L 5113 2094 
Q 5113 2597 4934 2840 
Q 4756 3084 4391 3084 
Q 3944 3084 3684 2787 
Q 3425 2491 3425 1978 
L 3425 0 
L 2847 0 
L 2847 2094 
Q 2847 2600 2669 2842 
Q 2491 3084 2119 3084 
Q 1678 3084 1418 2786 
Q 1159 2488 1159 1978 
L 1159 0 
L 581 0 
L 581 3500 
L 1159 3500 
L 1159 2956 
Q 1356 3278 1631 3431 
Q 1906 3584 2284 3584 
Q 2666 3584 2933 3390 
Q 3200 3197 3328 2828 
z
" transform="scale(0.015625)"/>
      <path id="DejaVuSans-70" d="M 1159 525 
L 1159 -1331 
L 581 -1331 
L 581 3500 
L 1159 3500 
L 1159 2969 
Q 1341 3281 1617 3432 
Q 1894 3584 2278 3584 
Q 2916 3584 3314 3078 
Q 3713 2572 3713 1747 
Q 3713 922 3314 415 
Q 2916 -91 2278 -91 
Q 1894 -91 1617 61 
Q 1341 213 1159 525 
z
M 3116 1747 
Q 3116 2381 2855 2742 
Q 2594 3103 2138 3103 
Q 1681 3103 1420 2742 
Q 1159 2381 1159 1747 
Q 1159 1113 1420 752 
Q 1681 391 2138 391 
Q 2594 391 2855 752 
Q 3116 1113 3116 1747 
z
" transform="scale(0.015625)"/>
      <path id="DejaVuSans-72" d="M 2631 2963 
Q 2534 3019 2420 3045 
Q 2306 3072 2169 3072 
Q 1681 3072 1420 2755 
Q 1159 2438 1159 1844 
L 1159 0 
L 581 0 
L 581 3500 
L 1159 3500 
L 1159 2956 
Q 1341 3275 1631 3429 
Q 1922 3584 2338 3584 
Q 2397 3584 2469 3576 
Q 2541 3569 2628 3553 
L 2631 2963 
z
" transform="scale(0.015625)"/>
      <path id="DejaVuSans-20" transform="scale(0.015625)"/>
      <path id="DejaVuSans-2d" d="M 313 2009 
L 1997 2009 
L 1997 1497 
L 313 1497 
L 313 2009 
z
" transform="scale(0.015625)"/>
      <path id="DejaVuSans-45" d="M 628 4666 
L 3578 4666 
L 3578 4134 
L 1259 4134 
L 1259 2753 
L 3481 2753 
L 3481 2222 
L 1259 2222 
L 1259 531 
L 3634 531 
L 3634 0 
L 628 0 
L 628 4666 
z
" transform="scale(0.015625)"/>
      <path id="DejaVuSans-63" d="M 3122 3366 
L 3122 2828 
Q 2878 2963 2633 3030 
Q 2388 3097 2138 3097 
Q 1578 3097 1268 2742 
Q 959 2388 959 1747 
Q 959 1106 1268 751 
Q 1578 397 2138 397 
Q 2388 397 2633 464 
Q 2878 531 3122 666 
L 3122 134 
Q 2881 22 2623 -34 
Q 2366 -91 2075 -91 
Q 1284 -91 818 406 
Q 353 903 353 1747 
Q 353 2603 823 3093 
Q 1294 3584 2113 3584 
Q 2378 3584 2631 3529 
Q 2884 3475 3122 3366 
z
" transform="scale(0.015625)"/>
      <path id="DejaVuSans-68" d="M 3513 2113 
L 3513 0 
L 2938 0 
L 2938 2094 
Q 2938 2591 2744 2837 
Q 2550 3084 2163 3084 
Q 1697 3084 1428 2787 
Q 1159 2491 1159 1978 
L 1159 0 
L 581 0 
L 581 4863 
L 1159 4863 
L 1159 2956 
Q 1366 3272 1645 3428 
Q 1925 3584 2291 3584 
Q 2894 3584 3203 3211 
Q 3513 2838 3513 2113 
z
" transform="scale(0.015625)"/>
     </defs>
     <use xlink:href="#DejaVuSans-43"/>
     <use xlink:href="#DejaVuSans-6f" transform="translate(69.824219 0)"/>
     <use xlink:href="#DejaVuSans-6d" transform="translate(131.005859 0)"/>
     <use xlink:href="#DejaVuSans-70" transform="translate(228.417969 0)"/>
     <use xlink:href="#DejaVuSans-61" transform="translate(291.894531 0)"/>
     <use xlink:href="#DejaVuSans-72" transform="translate(353.173828 0)"/>
     <use xlink:href="#DejaVuSans-65" transform="translate(392.037109 0)"/>
     <use xlink:href="#DejaVuSans-20" transform="translate(453.560547 0)"/>
     <use xlink:href="#DejaVuSans-2d" transform="translate(485.347656 0)"/>
     <use xlink:href="#DejaVuSans-20" transform="translate(521.431641 0)"/>
     <use xlink:href="#DejaVuSans-45" transform="translate(553.21875 0)"/>
     <use xlink:href="#DejaVuSans-70" transform="translate(616.402344 0)"/>
     <use xlink:href="#DejaVuSans-6f" transform="translate(679.878906 0)"/>
     <use xlink:href="#DejaVuSans-63" transform="translate(741.060547 0)"/>
     <use xlink:href="#DejaVuSans-68" transform="translate(796.041016 0)"/>
     <use xlink:href="#DejaVuSans-20" transform="translate(859.419922 0)"/>
     <use xlink:href="#DejaVuSans-36" transform="translate(891.207031 0)"/>
     <use xlink:href="#DejaVuSans-30" transform="translate(954.830078 0)"/>
     <use xlink:href="#DejaVuSans-30" transform="translate(1018.453125 0)"/>
    </g>
   </g>
   <g id="legend_1">
    <g id="patch_7">
     <path d="M 64.6 78.82825 
L 181.128125 78.82825 
Q 183.128125 78.82825 183.128125 76.82825 
L 183.128125 48.472 
Q 183.128125 46.472 181.128125 46.472 
L 64.6 46.472 
Q 62.6 46.472 62.6 48.472 
L 62.6 76.82825 
Q 62.6 78.82825 64.6 78.82825 
z
" style="fill: #ffffff; opacity: 0.8; stroke: #cccccc; stroke-linejoin: miter"/>
    </g>
    <g id="line2d_35">
     <path d="M 66.6 54.570437 
L 76.6 54.570437 
L 86.6 54.570437 
" style="fill: none; stroke: #1f77b4; stroke-width: 1.5; stroke-linecap: square"/>
    </g>
    <g id="text_20">
     <!-- Pred: Sample 1 -->
     <g transform="translate(94.6 58.070437) scale(0.1 -0.1)">
      <defs>
       <path id="DejaVuSans-50" d="M 1259 4147 
L 1259 2394 
L 2053 2394 
Q 2494 2394 2734 2622 
Q 2975 2850 2975 3272 
Q 2975 3691 2734 3919 
Q 2494 4147 2053 4147 
L 1259 4147 
z
M 628 4666 
L 2053 4666 
Q 2838 4666 3239 4311 
Q 3641 3956 3641 3272 
Q 3641 2581 3239 2228 
Q 2838 1875 2053 1875 
L 1259 1875 
L 1259 0 
L 628 0 
L 628 4666 
z
" transform="scale(0.015625)"/>
       <path id="DejaVuSans-3a" d="M 750 794 
L 1409 794 
L 1409 0 
L 750 0 
L 750 794 
z
M 750 3309 
L 1409 3309 
L 1409 2516 
L 750 2516 
L 750 3309 
z
" transform="scale(0.015625)"/>
       <path id="DejaVuSans-53" d="M 3425 4513 
L 3425 3897 
Q 3066 4069 2747 4153 
Q 2428 4238 2131 4238 
Q 1616 4238 1336 4038 
Q 1056 3838 1056 3469 
Q 1056 3159 1242 3001 
Q 1428 2844 1947 2747 
L 2328 2669 
Q 3034 2534 3370 2195 
Q 3706 1856 3706 1288 
Q 3706 609 3251 259 
Q 2797 -91 1919 -91 
Q 1588 -91 1214 -16 
Q 841 59 441 206 
L 441 856 
Q 825 641 1194 531 
Q 1563 422 1919 422 
Q 2459 422 2753 634 
Q 3047 847 3047 1241 
Q 3047 1584 2836 1778 
Q 2625 1972 2144 2069 
L 1759 2144 
Q 1053 2284 737 2584 
Q 422 2884 422 3419 
Q 422 4038 858 4394 
Q 1294 4750 2059 4750 
Q 2388 4750 2728 4690 
Q 3069 4631 3425 4513 
z
" transform="scale(0.015625)"/>
       <path id="DejaVuSans-31" d="M 794 531 
L 1825 531 
L 1825 4091 
L 703 3866 
L 703 4441 
L 1819 4666 
L 2450 4666 
L 2450 531 
L 3481 531 
L 3481 0 
L 794 0 
L 794 531 
z
" transform="scale(0.015625)"/>
      </defs>
      <use xlink:href="#DejaVuSans-50"/>
      <use xlink:href="#DejaVuSans-72" transform="translate(58.552734 0)"/>
      <use xlink:href="#DejaVuSans-65" transform="translate(97.416016 0)"/>
      <use xlink:href="#DejaVuSans-64" transform="translate(158.939453 0)"/>
      <use xlink:href="#DejaVuSans-3a" transform="translate(222.416016 0)"/>
      <use xlink:href="#DejaVuSans-20" transform="translate(256.107422 0)"/>
      <use xlink:href="#DejaVuSans-53" transform="translate(287.894531 0)"/>
      <use xlink:href="#DejaVuSans-61" transform="translate(351.371094 0)"/>
      <use xlink:href="#DejaVuSans-6d" transform="translate(412.650391 0)"/>
      <use xlink:href="#DejaVuSans-70" transform="translate(510.0625 0)"/>
      <use xlink:href="#DejaVuSans-6c" transform="translate(573.539062 0)"/>
      <use xlink:href="#DejaVuSans-65" transform="translate(601.322266 0)"/>
      <use xlink:href="#DejaVuSans-20" transform="translate(662.845703 0)"/>
      <use xlink:href="#DejaVuSans-31" transform="translate(694.632812 0)"/>
     </g>
    </g>
    <g id="line2d_36">
     <path d="M 66.6 69.248562 
L 76.6 69.248562 
L 86.6 69.248562 
" style="fill: none; stroke: #ff7f0e; stroke-opacity: 0.5; stroke-width: 1.5; stroke-linecap: square"/>
    </g>
    <g id="text_21">
     <!-- Target: Sample 1 -->
     <g transform="translate(94.6 72.748562) scale(0.1 -0.1)">
      <defs>
       <path id="DejaVuSans-54" d="M -19 4666 
L 3928 4666 
L 3928 4134 
L 2272 4134 
L 2272 0 
L 1638 0 
L 1638 4134 
L -19 4134 
L -19 4666 
z
" transform="scale(0.015625)"/>
       <path id="DejaVuSans-67" d="M 2906 1791 
Q 2906 2416 2648 2759 
Q 2391 3103 1925 3103 
Q 1463 3103 1205 2759 
Q 947 2416 947 1791 
Q 947 1169 1205 825 
Q 1463 481 1925 481 
Q 2391 481 2648 825 
Q 2906 1169 2906 1791 
z
M 3481 434 
Q 3481 -459 3084 -895 
Q 2688 -1331 1869 -1331 
Q 1566 -1331 1297 -1286 
Q 1028 -1241 775 -1147 
L 775 -588 
Q 1028 -725 1275 -790 
Q 1522 -856 1778 -856 
Q 2344 -856 2625 -561 
Q 2906 -266 2906 331 
L 2906 616 
Q 2728 306 2450 153 
Q 2172 0 1784 0 
Q 1141 0 747 490 
Q 353 981 353 1791 
Q 353 2603 747 3093 
Q 1141 3584 1784 3584 
Q 2172 3584 2450 3431 
Q 2728 3278 2906 2969 
L 2906 3500 
L 3481 3500 
L 3481 434 
z
" transform="scale(0.015625)"/>
       <path id="DejaVuSans-74" d="M 1172 4494 
L 1172 3500 
L 2356 3500 
L 2356 3053 
L 1172 3053 
L 1172 1153 
Q 1172 725 1289 603 
Q 1406 481 1766 481 
L 2356 481 
L 2356 0 
L 1766 0 
Q 1100 0 847 248 
Q 594 497 594 1153 
L 594 3053 
L 172 3053 
L 172 3500 
L 594 3500 
L 594 4494 
L 1172 4494 
z
" transform="scale(0.015625)"/>
      </defs>
      <use xlink:href="#DejaVuSans-54"/>
      <use xlink:href="#DejaVuSans-61" transform="translate(44.583984 0)"/>
      <use xlink:href="#DejaVuSans-72" transform="translate(105.863281 0)"/>
      <use xlink:href="#DejaVuSans-67" transform="translate(145.226562 0)"/>
      <use xlink:href="#DejaVuSans-65" transform="translate(208.703125 0)"/>
      <use xlink:href="#DejaVuSans-74" transform="translate(270.226562 0)"/>
      <use xlink:href="#DejaVuSans-3a" transform="translate(309.435547 0)"/>
      <use xlink:href="#DejaVuSans-20" transform="translate(343.126953 0)"/>
      <use xlink:href="#DejaVuSans-53" transform="translate(374.914062 0)"/>
      <use xlink:href="#DejaVuSans-61" transform="translate(438.390625 0)"/>
      <use xlink:href="#DejaVuSans-6d" transform="translate(499.669922 0)"/>
      <use xlink:href="#DejaVuSans-70" transform="translate(597.082031 0)"/>
      <use xlink:href="#DejaVuSans-6c" transform="translate(660.558594 0)"/>
      <use xlink:href="#DejaVuSans-65" transform="translate(688.341797 0)"/>
      <use xlink:href="#DejaVuSans-20" transform="translate(749.865234 0)"/>
      <use xlink:href="#DejaVuSans-31" transform="translate(781.652344 0)"/>
     </g>
    </g>
   </g>
  </g>
 </g>
 <defs>
  <clipPath id="p1f6b693cd8">
   <rect x="57.6" y="41.472" width="357.12" height="266.112"/>
  </clipPath>
 </defs>
</svg>
