<?xml version="1.0" encoding="utf-8" standalone="no"?>
<!DOCTYPE svg PUBLIC "-//W3C//DTD SVG 1.1//EN"
  "http://www.w3.org/Graphics/SVG/1.1/DTD/svg11.dtd">
<svg xmlns:xlink="http://www.w3.org/1999/xlink" width="720pt" height="360pt" viewBox="0 0 720 360" xmlns="http://www.w3.org/2000/svg" version="1.1">
 <metadata>
  <rdf:RDF xmlns:dc="http://purl.org/dc/elements/1.1/" xmlns:cc="http://creativecommons.org/ns#" xmlns:rdf="http://www.w3.org/1999/02/22-rdf-syntax-ns#">
   <cc:Work>
    <dc:type rdf:resource="http://purl.org/dc/dcmitype/StillImage"/>
    <dc:date>2025-05-21T04:56:12.628734</dc:date>
    <dc:format>image/svg+xml</dc:format>
    <dc:creator>
     <cc:Agent>
      <dc:title>Matplotlib v3.10.0, https://matplotlib.org/</dc:title>
     </cc:Agent>
    </dc:creator>
   </cc:Work>
  </rdf:RDF>
 </metadata>
 <defs>
  <style type="text/css">*{stroke-linejoin: round; stroke-linecap: butt}</style>
 </defs>
 <g id="figure_1">
  <g id="patch_1">
   <path d="M 0 360 
L 720 360 
L 720 0 
L 0 0 
z
" style="fill: #ffffff"/>
  </g>
  <g id="axes_1">
   <g id="patch_2">
    <path d="M 90 320.4 
L 648 320.4 
L 648 43.2 
L 90 43.2 
z
" style="fill: #ffffff"/>
   </g>
   <g id="matplotlib.axis_1">
    <g id="xtick_1">
     <g id="line2d_1">
      <path d="M 115.194489 320.4 
L 115.194489 43.2 
" clip-path="url(#p9c8528a3d9)" style="fill: none; stroke: #b0b0b0; stroke-opacity: 0.5; stroke-width: 0.8; stroke-linecap: square"/>
     </g>
     <g id="line2d_2">
      <defs>
       <path id="m3fc80ea69f" d="M 0 0 
L 0 3.5 
" style="stroke: #000000; stroke-width: 0.8"/>
      </defs>
      <g>
       <use xlink:href="#m3fc80ea69f" x="115.194489" y="320.4" style="stroke: #000000; stroke-width: 0.8"/>
      </g>
     </g>
     <g id="text_1">
      <!-- 0 -->
      <g transform="translate(112.013239 334.998438) scale(0.1 -0.1)">
       <defs>
        <path id="DejaVuSans-30" d="M 2034 4250 
Q 1547 4250 1301 3770 
Q 1056 3291 1056 2328 
Q 1056 1369 1301 889 
Q 1547 409 2034 409 
Q 2525 409 2770 889 
Q 3016 1369 3016 2328 
Q 3016 3291 2770 3770 
Q 2525 4250 2034 4250 
z
M 2034 4750 
Q 2819 4750 3233 4129 
Q 3647 3509 3647 2328 
Q 3647 1150 3233 529 
Q 2819 -91 2034 -91 
Q 1250 -91 836 529 
Q 422 1150 422 2328 
Q 422 3509 836 4129 
Q 1250 4750 2034 4750 
z
" transform="scale(0.015625)"/>
       </defs>
       <use xlink:href="#DejaVuSans-30"/>
      </g>
     </g>
    </g>
    <g id="xtick_2">
     <g id="line2d_3">
      <path d="M 199.768135 320.4 
L 199.768135 43.2 
" clip-path="url(#p9c8528a3d9)" style="fill: none; stroke: #b0b0b0; stroke-opacity: 0.5; stroke-width: 0.8; stroke-linecap: square"/>
     </g>
     <g id="line2d_4">
      <g>
       <use xlink:href="#m3fc80ea69f" x="199.768135" y="320.4" style="stroke: #000000; stroke-width: 0.8"/>
      </g>
     </g>
     <g id="text_2">
      <!-- 500 -->
      <g transform="translate(190.224385 334.998438) scale(0.1 -0.1)">
       <defs>
        <path id="DejaVuSans-35" d="M 691 4666 
L 3169 4666 
L 3169 4134 
L 1269 4134 
L 1269 2991 
Q 1406 3038 1543 3061 
Q 1681 3084 1819 3084 
Q 2600 3084 3056 2656 
Q 3513 2228 3513 1497 
Q 3513 744 3044 326 
Q 2575 -91 1722 -91 
Q 1428 -91 1123 -41 
Q 819 9 494 109 
L 494 744 
Q 775 591 1075 516 
Q 1375 441 1709 441 
Q 2250 441 2565 725 
Q 2881 1009 2881 1497 
Q 2881 1984 2565 2268 
Q 2250 2553 1709 2553 
Q 1456 2553 1204 2497 
Q 953 2441 691 2322 
L 691 4666 
z
" transform="scale(0.015625)"/>
       </defs>
       <use xlink:href="#DejaVuSans-35"/>
       <use xlink:href="#DejaVuSans-30" transform="translate(63.623047 0)"/>
       <use xlink:href="#DejaVuSans-30" transform="translate(127.246094 0)"/>
      </g>
     </g>
    </g>
    <g id="xtick_3">
     <g id="line2d_5">
      <path d="M 284.341781 320.4 
L 284.341781 43.2 
" clip-path="url(#p9c8528a3d9)" style="fill: none; stroke: #b0b0b0; stroke-opacity: 0.5; stroke-width: 0.8; stroke-linecap: square"/>
     </g>
     <g id="line2d_6">
      <g>
       <use xlink:href="#m3fc80ea69f" x="284.341781" y="320.4" style="stroke: #000000; stroke-width: 0.8"/>
      </g>
     </g>
     <g id="text_3">
      <!-- 1000 -->
      <g transform="translate(271.616781 334.998438) scale(0.1 -0.1)">
       <defs>
        <path id="DejaVuSans-31" d="M 794 531 
L 1825 531 
L 1825 4091 
L 703 3866 
L 703 4441 
L 1819 4666 
L 2450 4666 
L 2450 531 
L 3481 531 
L 3481 0 
L 794 0 
L 794 531 
z
" transform="scale(0.015625)"/>
       </defs>
       <use xlink:href="#DejaVuSans-31"/>
       <use xlink:href="#DejaVuSans-30" transform="translate(63.623047 0)"/>
       <use xlink:href="#DejaVuSans-30" transform="translate(127.246094 0)"/>
       <use xlink:href="#DejaVuSans-30" transform="translate(190.869141 0)"/>
      </g>
     </g>
    </g>
    <g id="xtick_4">
     <g id="line2d_7">
      <path d="M 368.915426 320.4 
L 368.915426 43.2 
" clip-path="url(#p9c8528a3d9)" style="fill: none; stroke: #b0b0b0; stroke-opacity: 0.5; stroke-width: 0.8; stroke-linecap: square"/>
     </g>
     <g id="line2d_8">
      <g>
       <use xlink:href="#m3fc80ea69f" x="368.915426" y="320.4" style="stroke: #000000; stroke-width: 0.8"/>
      </g>
     </g>
     <g id="text_4">
      <!-- 1500 -->
      <g transform="translate(356.190426 334.998438) scale(0.1 -0.1)">
       <use xlink:href="#DejaVuSans-31"/>
       <use xlink:href="#DejaVuSans-35" transform="translate(63.623047 0)"/>
       <use xlink:href="#DejaVuSans-30" transform="translate(127.246094 0)"/>
       <use xlink:href="#DejaVuSans-30" transform="translate(190.869141 0)"/>
      </g>
     </g>
    </g>
    <g id="xtick_5">
     <g id="line2d_9">
      <path d="M 453.489072 320.4 
L 453.489072 43.2 
" clip-path="url(#p9c8528a3d9)" style="fill: none; stroke: #b0b0b0; stroke-opacity: 0.5; stroke-width: 0.8; stroke-linecap: square"/>
     </g>
     <g id="line2d_10">
      <g>
       <use xlink:href="#m3fc80ea69f" x="453.489072" y="320.4" style="stroke: #000000; stroke-width: 0.8"/>
      </g>
     </g>
     <g id="text_5">
      <!-- 2000 -->
      <g transform="translate(440.764072 334.998438) scale(0.1 -0.1)">
       <defs>
        <path id="DejaVuSans-32" d="M 1228 531 
L 3431 531 
L 3431 0 
L 469 0 
L 469 531 
Q 828 903 1448 1529 
Q 2069 2156 2228 2338 
Q 2531 2678 2651 2914 
Q 2772 3150 2772 3378 
Q 2772 3750 2511 3984 
Q 2250 4219 1831 4219 
Q 1534 4219 1204 4116 
Q 875 4013 500 3803 
L 500 4441 
Q 881 4594 1212 4672 
Q 1544 4750 1819 4750 
Q 2544 4750 2975 4387 
Q 3406 4025 3406 3419 
Q 3406 3131 3298 2873 
Q 3191 2616 2906 2266 
Q 2828 2175 2409 1742 
Q 1991 1309 1228 531 
z
" transform="scale(0.015625)"/>
       </defs>
       <use xlink:href="#DejaVuSans-32"/>
       <use xlink:href="#DejaVuSans-30" transform="translate(63.623047 0)"/>
       <use xlink:href="#DejaVuSans-30" transform="translate(127.246094 0)"/>
       <use xlink:href="#DejaVuSans-30" transform="translate(190.869141 0)"/>
      </g>
     </g>
    </g>
    <g id="xtick_6">
     <g id="line2d_11">
      <path d="M 538.062718 320.4 
L 538.062718 43.2 
" clip-path="url(#p9c8528a3d9)" style="fill: none; stroke: #b0b0b0; stroke-opacity: 0.5; stroke-width: 0.8; stroke-linecap: square"/>
     </g>
     <g id="line2d_12">
      <g>
       <use xlink:href="#m3fc80ea69f" x="538.062718" y="320.4" style="stroke: #000000; stroke-width: 0.8"/>
      </g>
     </g>
     <g id="text_6">
      <!-- 2500 -->
      <g transform="translate(525.337718 334.998438) scale(0.1 -0.1)">
       <use xlink:href="#DejaVuSans-32"/>
       <use xlink:href="#DejaVuSans-35" transform="translate(63.623047 0)"/>
       <use xlink:href="#DejaVuSans-30" transform="translate(127.246094 0)"/>
       <use xlink:href="#DejaVuSans-30" transform="translate(190.869141 0)"/>
      </g>
     </g>
    </g>
    <g id="xtick_7">
     <g id="line2d_13">
      <path d="M 622.636364 320.4 
L 622.636364 43.2 
" clip-path="url(#p9c8528a3d9)" style="fill: none; stroke: #b0b0b0; stroke-opacity: 0.5; stroke-width: 0.8; stroke-linecap: square"/>
     </g>
     <g id="line2d_14">
      <g>
       <use xlink:href="#m3fc80ea69f" x="622.636364" y="320.4" style="stroke: #000000; stroke-width: 0.8"/>
      </g>
     </g>
     <g id="text_7">
      <!-- 3000 -->
      <g transform="translate(609.911364 334.998438) scale(0.1 -0.1)">
       <defs>
        <path id="DejaVuSans-33" d="M 2597 2516 
Q 3050 2419 3304 2112 
Q 3559 1806 3559 1356 
Q 3559 666 3084 287 
Q 2609 -91 1734 -91 
Q 1441 -91 1130 -33 
Q 819 25 488 141 
L 488 750 
Q 750 597 1062 519 
Q 1375 441 1716 441 
Q 2309 441 2620 675 
Q 2931 909 2931 1356 
Q 2931 1769 2642 2001 
Q 2353 2234 1838 2234 
L 1294 2234 
L 1294 2753 
L 1863 2753 
Q 2328 2753 2575 2939 
Q 2822 3125 2822 3475 
Q 2822 3834 2567 4026 
Q 2313 4219 1838 4219 
Q 1578 4219 1281 4162 
Q 984 4106 628 3988 
L 628 4550 
Q 988 4650 1302 4700 
Q 1616 4750 1894 4750 
Q 2613 4750 3031 4423 
Q 3450 4097 3450 3541 
Q 3450 3153 3228 2886 
Q 3006 2619 2597 2516 
z
" transform="scale(0.015625)"/>
       </defs>
       <use xlink:href="#DejaVuSans-33"/>
       <use xlink:href="#DejaVuSans-30" transform="translate(63.623047 0)"/>
       <use xlink:href="#DejaVuSans-30" transform="translate(127.246094 0)"/>
       <use xlink:href="#DejaVuSans-30" transform="translate(190.869141 0)"/>
      </g>
     </g>
    </g>
    <g id="text_8">
     <!-- Epochs -->
     <g transform="translate(351.084375 348.676562) scale(0.1 -0.1)">
      <defs>
       <path id="DejaVuSans-45" d="M 628 4666 
L 3578 4666 
L 3578 4134 
L 1259 4134 
L 1259 2753 
L 3481 2753 
L 3481 2222 
L 1259 2222 
L 1259 531 
L 3634 531 
L 3634 0 
L 628 0 
L 628 4666 
z
" transform="scale(0.015625)"/>
       <path id="DejaVuSans-70" d="M 1159 525 
L 1159 -1331 
L 581 -1331 
L 581 3500 
L 1159 3500 
L 1159 2969 
Q 1341 3281 1617 3432 
Q 1894 3584 2278 3584 
Q 2916 3584 3314 3078 
Q 3713 2572 3713 1747 
Q 3713 922 3314 415 
Q 2916 -91 2278 -91 
Q 1894 -91 1617 61 
Q 1341 213 1159 525 
z
M 3116 1747 
Q 3116 2381 2855 2742 
Q 2594 3103 2138 3103 
Q 1681 3103 1420 2742 
Q 1159 2381 1159 1747 
Q 1159 1113 1420 752 
Q 1681 391 2138 391 
Q 2594 391 2855 752 
Q 3116 1113 3116 1747 
z
" transform="scale(0.015625)"/>
       <path id="DejaVuSans-6f" d="M 1959 3097 
Q 1497 3097 1228 2736 
Q 959 2375 959 1747 
Q 959 1119 1226 758 
Q 1494 397 1959 397 
Q 2419 397 2687 759 
Q 2956 1122 2956 1747 
Q 2956 2369 2687 2733 
Q 2419 3097 1959 3097 
z
M 1959 3584 
Q 2709 3584 3137 3096 
Q 3566 2609 3566 1747 
Q 3566 888 3137 398 
Q 2709 -91 1959 -91 
Q 1206 -91 779 398 
Q 353 888 353 1747 
Q 353 2609 779 3096 
Q 1206 3584 1959 3584 
z
" transform="scale(0.015625)"/>
       <path id="DejaVuSans-63" d="M 3122 3366 
L 3122 2828 
Q 2878 2963 2633 3030 
Q 2388 3097 2138 3097 
Q 1578 3097 1268 2742 
Q 959 2388 959 1747 
Q 959 1106 1268 751 
Q 1578 397 2138 397 
Q 2388 397 2633 464 
Q 2878 531 3122 666 
L 3122 134 
Q 2881 22 2623 -34 
Q 2366 -91 2075 -91 
Q 1284 -91 818 406 
Q 353 903 353 1747 
Q 353 2603 823 3093 
Q 1294 3584 2113 3584 
Q 2378 3584 2631 3529 
Q 2884 3475 3122 3366 
z
" transform="scale(0.015625)"/>
       <path id="DejaVuSans-68" d="M 3513 2113 
L 3513 0 
L 2938 0 
L 2938 2094 
Q 2938 2591 2744 2837 
Q 2550 3084 2163 3084 
Q 1697 3084 1428 2787 
Q 1159 2491 1159 1978 
L 1159 0 
L 581 0 
L 581 4863 
L 1159 4863 
L 1159 2956 
Q 1366 3272 1645 3428 
Q 1925 3584 2291 3584 
Q 2894 3584 3203 3211 
Q 3513 2838 3513 2113 
z
" transform="scale(0.015625)"/>
       <path id="DejaVuSans-73" d="M 2834 3397 
L 2834 2853 
Q 2591 2978 2328 3040 
Q 2066 3103 1784 3103 
Q 1356 3103 1142 2972 
Q 928 2841 928 2578 
Q 928 2378 1081 2264 
Q 1234 2150 1697 2047 
L 1894 2003 
Q 2506 1872 2764 1633 
Q 3022 1394 3022 966 
Q 3022 478 2636 193 
Q 2250 -91 1575 -91 
Q 1294 -91 989 -36 
Q 684 19 347 128 
L 347 722 
Q 666 556 975 473 
Q 1284 391 1588 391 
Q 1994 391 2212 530 
Q 2431 669 2431 922 
Q 2431 1156 2273 1281 
Q 2116 1406 1581 1522 
L 1381 1569 
Q 847 1681 609 1914 
Q 372 2147 372 2553 
Q 372 3047 722 3315 
Q 1072 3584 1716 3584 
Q 2034 3584 2315 3537 
Q 2597 3491 2834 3397 
z
" transform="scale(0.015625)"/>
      </defs>
      <use xlink:href="#DejaVuSans-45"/>
      <use xlink:href="#DejaVuSans-70" transform="translate(63.183594 0)"/>
      <use xlink:href="#DejaVuSans-6f" transform="translate(126.660156 0)"/>
      <use xlink:href="#DejaVuSans-63" transform="translate(187.841797 0)"/>
      <use xlink:href="#DejaVuSans-68" transform="translate(242.822266 0)"/>
      <use xlink:href="#DejaVuSans-73" transform="translate(306.201172 0)"/>
     </g>
    </g>
   </g>
   <g id="matplotlib.axis_2">
    <g id="ytick_1">
     <g id="line2d_15">
      <path d="M 90 307.827844 
L 648 307.827844 
" clip-path="url(#p9c8528a3d9)" style="fill: none; stroke: #b0b0b0; stroke-opacity: 0.5; stroke-width: 0.8; stroke-linecap: square"/>
     </g>
     <g id="line2d_16">
      <defs>
       <path id="m6664f8cf90" d="M 0 0 
L -3.5 0 
" style="stroke: #000000; stroke-width: 0.8"/>
      </defs>
      <g>
       <use xlink:href="#m6664f8cf90" x="90" y="307.827844" style="stroke: #000000; stroke-width: 0.8"/>
      </g>
     </g>
     <g id="text_9">
      <!-- 0.0 -->
      <g transform="translate(67.096875 311.627063) scale(0.1 -0.1)">
       <defs>
        <path id="DejaVuSans-2e" d="M 684 794 
L 1344 794 
L 1344 0 
L 684 0 
L 684 794 
z
" transform="scale(0.015625)"/>
       </defs>
       <use xlink:href="#DejaVuSans-30"/>
       <use xlink:href="#DejaVuSans-2e" transform="translate(63.623047 0)"/>
       <use xlink:href="#DejaVuSans-30" transform="translate(95.410156 0)"/>
      </g>
     </g>
    </g>
    <g id="ytick_2">
     <g id="line2d_17">
      <path d="M 90 270.953769 
L 648 270.953769 
" clip-path="url(#p9c8528a3d9)" style="fill: none; stroke: #b0b0b0; stroke-opacity: 0.5; stroke-width: 0.8; stroke-linecap: square"/>
     </g>
     <g id="line2d_18">
      <g>
       <use xlink:href="#m6664f8cf90" x="90" y="270.953769" style="stroke: #000000; stroke-width: 0.8"/>
      </g>
     </g>
     <g id="text_10">
      <!-- 0.2 -->
      <g transform="translate(67.096875 274.752988) scale(0.1 -0.1)">
       <use xlink:href="#DejaVuSans-30"/>
       <use xlink:href="#DejaVuSans-2e" transform="translate(63.623047 0)"/>
       <use xlink:href="#DejaVuSans-32" transform="translate(95.410156 0)"/>
      </g>
     </g>
    </g>
    <g id="ytick_3">
     <g id="line2d_19">
      <path d="M 90 234.079693 
L 648 234.079693 
" clip-path="url(#p9c8528a3d9)" style="fill: none; stroke: #b0b0b0; stroke-opacity: 0.5; stroke-width: 0.8; stroke-linecap: square"/>
     </g>
     <g id="line2d_20">
      <g>
       <use xlink:href="#m6664f8cf90" x="90" y="234.079693" style="stroke: #000000; stroke-width: 0.8"/>
      </g>
     </g>
     <g id="text_11">
      <!-- 0.4 -->
      <g transform="translate(67.096875 237.878912) scale(0.1 -0.1)">
       <defs>
        <path id="DejaVuSans-34" d="M 2419 4116 
L 825 1625 
L 2419 1625 
L 2419 4116 
z
M 2253 4666 
L 3047 4666 
L 3047 1625 
L 3713 1625 
L 3713 1100 
L 3047 1100 
L 3047 0 
L 2419 0 
L 2419 1100 
L 313 1100 
L 313 1709 
L 2253 4666 
z
" transform="scale(0.015625)"/>
       </defs>
       <use xlink:href="#DejaVuSans-30"/>
       <use xlink:href="#DejaVuSans-2e" transform="translate(63.623047 0)"/>
       <use xlink:href="#DejaVuSans-34" transform="translate(95.410156 0)"/>
      </g>
     </g>
    </g>
    <g id="ytick_4">
     <g id="line2d_21">
      <path d="M 90 197.205618 
L 648 197.205618 
" clip-path="url(#p9c8528a3d9)" style="fill: none; stroke: #b0b0b0; stroke-opacity: 0.5; stroke-width: 0.8; stroke-linecap: square"/>
     </g>
     <g id="line2d_22">
      <g>
       <use xlink:href="#m6664f8cf90" x="90" y="197.205618" style="stroke: #000000; stroke-width: 0.8"/>
      </g>
     </g>
     <g id="text_12">
      <!-- 0.6 -->
      <g transform="translate(67.096875 201.004836) scale(0.1 -0.1)">
       <defs>
        <path id="DejaVuSans-36" d="M 2113 2584 
Q 1688 2584 1439 2293 
Q 1191 2003 1191 1497 
Q 1191 994 1439 701 
Q 1688 409 2113 409 
Q 2538 409 2786 701 
Q 3034 994 3034 1497 
Q 3034 2003 2786 2293 
Q 2538 2584 2113 2584 
z
M 3366 4563 
L 3366 3988 
Q 3128 4100 2886 4159 
Q 2644 4219 2406 4219 
Q 1781 4219 1451 3797 
Q 1122 3375 1075 2522 
Q 1259 2794 1537 2939 
Q 1816 3084 2150 3084 
Q 2853 3084 3261 2657 
Q 3669 2231 3669 1497 
Q 3669 778 3244 343 
Q 2819 -91 2113 -91 
Q 1303 -91 875 529 
Q 447 1150 447 2328 
Q 447 3434 972 4092 
Q 1497 4750 2381 4750 
Q 2619 4750 2861 4703 
Q 3103 4656 3366 4563 
z
" transform="scale(0.015625)"/>
       </defs>
       <use xlink:href="#DejaVuSans-30"/>
       <use xlink:href="#DejaVuSans-2e" transform="translate(63.623047 0)"/>
       <use xlink:href="#DejaVuSans-36" transform="translate(95.410156 0)"/>
      </g>
     </g>
    </g>
    <g id="ytick_5">
     <g id="line2d_23">
      <path d="M 90 160.331542 
L 648 160.331542 
" clip-path="url(#p9c8528a3d9)" style="fill: none; stroke: #b0b0b0; stroke-opacity: 0.5; stroke-width: 0.8; stroke-linecap: square"/>
     </g>
     <g id="line2d_24">
      <g>
       <use xlink:href="#m6664f8cf90" x="90" y="160.331542" style="stroke: #000000; stroke-width: 0.8"/>
      </g>
     </g>
     <g id="text_13">
      <!-- 0.8 -->
      <g transform="translate(67.096875 164.130761) scale(0.1 -0.1)">
       <defs>
        <path id="DejaVuSans-38" d="M 2034 2216 
Q 1584 2216 1326 1975 
Q 1069 1734 1069 1313 
Q 1069 891 1326 650 
Q 1584 409 2034 409 
Q 2484 409 2743 651 
Q 3003 894 3003 1313 
Q 3003 1734 2745 1975 
Q 2488 2216 2034 2216 
z
M 1403 2484 
Q 997 2584 770 2862 
Q 544 3141 544 3541 
Q 544 4100 942 4425 
Q 1341 4750 2034 4750 
Q 2731 4750 3128 4425 
Q 3525 4100 3525 3541 
Q 3525 3141 3298 2862 
Q 3072 2584 2669 2484 
Q 3125 2378 3379 2068 
Q 3634 1759 3634 1313 
Q 3634 634 3220 271 
Q 2806 -91 2034 -91 
Q 1263 -91 848 271 
Q 434 634 434 1313 
Q 434 1759 690 2068 
Q 947 2378 1403 2484 
z
M 1172 3481 
Q 1172 3119 1398 2916 
Q 1625 2713 2034 2713 
Q 2441 2713 2670 2916 
Q 2900 3119 2900 3481 
Q 2900 3844 2670 4047 
Q 2441 4250 2034 4250 
Q 1625 4250 1398 4047 
Q 1172 3844 1172 3481 
z
" transform="scale(0.015625)"/>
       </defs>
       <use xlink:href="#DejaVuSans-30"/>
       <use xlink:href="#DejaVuSans-2e" transform="translate(63.623047 0)"/>
       <use xlink:href="#DejaVuSans-38" transform="translate(95.410156 0)"/>
      </g>
     </g>
    </g>
    <g id="ytick_6">
     <g id="line2d_25">
      <path d="M 90 123.457467 
L 648 123.457467 
" clip-path="url(#p9c8528a3d9)" style="fill: none; stroke: #b0b0b0; stroke-opacity: 0.5; stroke-width: 0.8; stroke-linecap: square"/>
     </g>
     <g id="line2d_26">
      <g>
       <use xlink:href="#m6664f8cf90" x="90" y="123.457467" style="stroke: #000000; stroke-width: 0.8"/>
      </g>
     </g>
     <g id="text_14">
      <!-- 1.0 -->
      <g transform="translate(67.096875 127.256685) scale(0.1 -0.1)">
       <use xlink:href="#DejaVuSans-31"/>
       <use xlink:href="#DejaVuSans-2e" transform="translate(63.623047 0)"/>
       <use xlink:href="#DejaVuSans-30" transform="translate(95.410156 0)"/>
      </g>
     </g>
    </g>
    <g id="ytick_7">
     <g id="line2d_27">
      <path d="M 90 86.583391 
L 648 86.583391 
" clip-path="url(#p9c8528a3d9)" style="fill: none; stroke: #b0b0b0; stroke-opacity: 0.5; stroke-width: 0.8; stroke-linecap: square"/>
     </g>
     <g id="line2d_28">
      <g>
       <use xlink:href="#m6664f8cf90" x="90" y="86.583391" style="stroke: #000000; stroke-width: 0.8"/>
      </g>
     </g>
     <g id="text_15">
      <!-- 1.2 -->
      <g transform="translate(67.096875 90.38261) scale(0.1 -0.1)">
       <use xlink:href="#DejaVuSans-31"/>
       <use xlink:href="#DejaVuSans-2e" transform="translate(63.623047 0)"/>
       <use xlink:href="#DejaVuSans-32" transform="translate(95.410156 0)"/>
      </g>
     </g>
    </g>
    <g id="ytick_8">
     <g id="line2d_29">
      <path d="M 90 49.709316 
L 648 49.709316 
" clip-path="url(#p9c8528a3d9)" style="fill: none; stroke: #b0b0b0; stroke-opacity: 0.5; stroke-width: 0.8; stroke-linecap: square"/>
     </g>
     <g id="line2d_30">
      <g>
       <use xlink:href="#m6664f8cf90" x="90" y="49.709316" style="stroke: #000000; stroke-width: 0.8"/>
      </g>
     </g>
     <g id="text_16">
      <!-- 1.4 -->
      <g transform="translate(67.096875 53.508534) scale(0.1 -0.1)">
       <use xlink:href="#DejaVuSans-31"/>
       <use xlink:href="#DejaVuSans-2e" transform="translate(63.623047 0)"/>
       <use xlink:href="#DejaVuSans-34" transform="translate(95.410156 0)"/>
      </g>
     </g>
    </g>
    <g id="text_17">
     <!-- Loss -->
     <g transform="translate(61.017187 192.767187) rotate(-90) scale(0.1 -0.1)">
      <defs>
       <path id="DejaVuSans-4c" d="M 628 4666 
L 1259 4666 
L 1259 531 
L 3531 531 
L 3531 0 
L 628 0 
L 628 4666 
z
" transform="scale(0.015625)"/>
      </defs>
      <use xlink:href="#DejaVuSans-4c"/>
      <use xlink:href="#DejaVuSans-6f" transform="translate(53.962891 0)"/>
      <use xlink:href="#DejaVuSans-73" transform="translate(115.144531 0)"/>
      <use xlink:href="#DejaVuSans-73" transform="translate(167.244141 0)"/>
     </g>
    </g>
   </g>
   <g id="line2d_31">
    <path d="M 115.363636 55.8 
L 115.532784 130.891756 
L 115.871078 152.637008 
L 116.209373 175.509637 
L 116.37852 182.25602 
L 116.716815 210.491451 
L 117.393404 283.096815 
L 117.731698 292.10377 
L 117.900846 294.580159 
L 118.069993 292.277047 
L 118.408288 297.351693 
L 118.746582 299.78521 
L 118.915729 299.343243 
L 119.423171 302.6761 
L 119.592319 302.741501 
L 119.761466 302.371009 
L 119.930613 302.479352 
L 120.268908 304.11304 
L 120.438055 303.34101 
L 120.77635 304.656874 
L 120.945497 304.617246 
L 121.114644 304.747244 
L 121.452939 305.788544 
L 122.129528 306.180205 
L 122.467823 306.387342 
L 122.806117 306.370765 
L 122.975264 306.564977 
L 123.144412 306.506388 
L 123.313559 305.757129 
L 123.482706 305.938109 
L 123.651854 306.660858 
L 123.821001 306.83042 
L 123.990148 306.625599 
L 124.159296 306.707569 
L 124.328443 306.936748 
L 124.666737 307.028316 
L 124.835885 306.896949 
L 125.343327 307.12934 
L 125.512474 307.109846 
L 125.681621 306.898668 
L 125.850768 305.766677 
L 126.527358 307.229567 
L 126.865652 307.337119 
L 127.203947 307.158377 
L 127.542241 307.294093 
L 127.711389 306.659801 
L 127.880536 307.019149 
L 128.049683 306.605967 
L 128.218831 305.880655 
L 128.387978 305.891476 
L 128.726272 307.267212 
L 129.064567 307.443815 
L 129.572009 307.415591 
L 129.910303 307.484893 
L 130.75604 307.421607 
L 130.925187 307.256098 
L 131.094334 307.292118 
L 131.263482 307.513955 
L 131.601776 307.539452 
L 131.770924 305.988546 
L 131.940071 307.07009 
L 132.278366 307.530431 
L 132.954955 307.532068 
L 133.124102 307.043489 
L 133.462397 307.463943 
L 133.631544 307.517147 
L 133.800691 307.428204 
L 134.138986 307.58337 
L 135.153869 307.59348 
L 135.323017 307.558124 
L 135.830459 306.776462 
L 135.999606 306.824805 
L 136.337901 307.610885 
L 136.845342 307.543673 
L 137.01449 307.19166 
L 137.183637 306.069173 
L 137.352784 307.383008 
L 137.521932 307.575885 
L 138.87511 307.581643 
L 139.213404 307.52936 
L 139.382552 306.984901 
L 139.551699 307.509657 
L 139.889994 307.637879 
L 140.228288 307.644337 
L 140.397436 307.531186 
L 140.566583 307.268346 
L 140.904877 307.506806 
L 141.074025 307.473949 
L 141.243172 307.560444 
L 141.581467 307.457182 
L 141.750614 307.639343 
L 142.088908 307.630811 
L 142.258056 307.380566 
L 142.59635 305.961754 
L 142.934645 307.256429 
L 143.103792 307.485738 
L 143.272939 307.463415 
L 143.442087 307.637338 
L 144.287823 307.670075 
L 144.964412 307.634507 
L 145.302707 307.591351 
L 145.471854 307.639705 
L 145.641002 307.520338 
L 145.979296 307.558165 
L 146.148443 307.458056 
L 146.655885 307.651914 
L 146.99418 307.657137 
L 147.163327 306.92119 
L 147.332474 307.438603 
L 147.501622 307.265314 
L 148.009064 307.653311 
L 148.347358 307.670145 
L 149.023947 307.617291 
L 149.193095 307.428202 
L 149.362242 307.501544 
L 149.700537 307.053792 
L 149.869684 306.927777 
L 150.038831 307.460171 
L 150.546273 307.607252 
L 151.899451 307.674836 
L 152.068599 307.557412 
L 152.406893 307.653506 
L 152.57604 307.661412 
L 152.914335 307.492515 
L 153.083482 307.542149 
L 153.25263 307.240843 
L 153.590924 307.594205 
L 154.098366 307.683883 
L 154.267513 307.593934 
L 154.774955 307.660709 
L 155.11325 307.56268 
L 155.282397 307.55995 
L 155.620692 307.007713 
L 155.789839 307.612611 
L 156.128134 307.676313 
L 156.297281 307.203852 
L 156.466428 307.157084 
L 156.635575 307.553607 
L 156.804723 307.411639 
L 157.481312 307.676764 
L 158.665343 307.696886 
L 158.83449 307.047966 
L 159.003638 307.177347 
L 159.341932 307.638684 
L 161.709994 307.681247 
L 161.879142 307.130317 
L 162.048289 307.146981 
L 162.217436 307.616745 
L 162.555731 307.406689 
L 162.894025 307.657628 
L 163.570614 307.692808 
L 163.739762 307.623606 
L 163.908909 306.9503 
L 164.078056 307.564962 
L 164.247204 307.362382 
L 164.416351 307.408878 
L 164.585498 307.312473 
L 164.754645 307.56813 
L 165.600382 307.584328 
L 165.938677 307.707636 
L 166.784413 307.699842 
L 167.799297 307.698599 
L 167.968444 307.543413 
L 168.306739 307.655668 
L 168.81418 307.619107 
L 168.983328 307.402468 
L 169.321622 307.640687 
L 169.659917 307.72887 
L 170.336506 307.702477 
L 170.505653 307.260211 
L 170.674801 307.531751 
L 170.843948 305.789706 
L 171.013095 307.488615 
L 172.197126 307.726453 
L 174.226894 307.672431 
L 174.396041 307.517333 
L 174.903483 307.586481 
L 175.241778 307.523647 
L 177.271545 307.51009 
L 177.440692 307.035533 
L 177.778987 307.313228 
L 178.117282 307.629854 
L 178.455576 307.678436 
L 178.624723 307.682157 
L 178.793871 307.279973 
L 178.963018 307.629052 
L 179.132165 307.243083 
L 179.301313 306.326641 
L 179.47046 307.429353 
L 179.808754 307.711206 
L 180.654491 307.698148 
L 181.33108 307.722528 
L 182.515111 307.71987 
L 182.684258 307.492802 
L 182.853406 307.513317 
L 183.022553 307.695984 
L 184.206584 307.635308 
L 184.544879 307.712212 
L 185.05232 307.699725 
L 185.221468 307.59718 
L 185.72891 307.680965 
L 186.743793 307.693076 
L 187.082088 307.717324 
L 187.251235 307.681343 
L 187.420383 307.433245 
L 187.758677 307.462569 
L 187.927824 306.886033 
L 188.096972 307.420649 
L 188.604414 307.68278 
L 188.773561 307.245277 
L 188.942708 307.300714 
L 189.111855 307.597617 
L 190.634181 307.727211 
L 191.649065 307.732604 
L 191.818212 307.587616 
L 192.156507 307.692419 
L 192.325654 307.308782 
L 192.663949 307.718449 
L 192.833096 307.561205 
L 193.002243 306.740174 
L 193.17139 307.314699 
L 193.340538 307.309027 
L 193.678832 307.710376 
L 194.693716 307.734049 
L 196.046894 307.658448 
L 196.385189 307.725919 
L 197.230925 307.74637 
L 197.400073 307.667058 
L 197.738367 307.737566 
L 198.414957 307.596309 
L 198.584104 307.124699 
L 198.753251 307.221398 
L 198.922398 305.488749 
L 199.091546 307.114483 
L 199.260693 307.500178 
L 199.598988 307.635318 
L 199.937282 307.670835 
L 200.444724 307.730013 
L 201.121313 307.641853 
L 201.29046 307.479607 
L 201.459608 307.619078 
L 201.628755 307.613401 
L 201.797902 307.465398 
L 201.96705 307.685869 
L 204.504259 307.719203 
L 204.842554 307.425625 
L 205.349995 307.286886 
L 205.519143 307.585861 
L 206.026585 307.713364 
L 206.872321 307.648496 
L 207.54891 307.750113 
L 208.394647 307.710329 
L 208.563794 307.603578 
L 209.240383 307.74072 
L 210.593561 307.714548 
L 210.762709 307.520533 
L 211.101003 307.682765 
L 211.270151 307.449323 
L 211.777593 307.591665 
L 211.94674 306.599984 
L 212.115887 307.317553 
L 212.285034 307.132945 
L 212.454182 306.782217 
L 212.792476 307.584062 
L 212.961624 307.572874 
L 213.299918 307.715684 
L 214.314802 307.7372 
L 214.991391 307.730807 
L 216.852011 307.745892 
L 217.021159 307.69947 
L 217.190306 307.471569 
L 217.359453 306.819028 
L 217.697748 307.359381 
L 218.036042 307.724264 
L 218.712631 307.73204 
L 219.220073 307.639811 
L 219.727515 307.753176 
L 220.06581 307.677979 
L 220.234957 307.544833 
L 220.404104 307.72047 
L 220.911546 307.712415 
L 221.249841 307.122291 
L 221.588135 307.702401 
L 221.92643 307.623639 
L 222.264725 307.644324 
L 222.433872 307.559 
L 223.110461 307.678657 
L 223.448756 307.665659 
L 223.956198 307.753583 
L 226.155112 307.744667 
L 226.32426 307.522854 
L 226.493407 306.419684 
L 226.662554 307.365071 
L 227.677438 307.721002 
L 229.030616 307.738436 
L 229.199764 307.611153 
L 229.368911 307.150306 
L 229.538058 307.637435 
L 229.876353 307.737031 
L 230.891236 307.693971 
L 231.736973 307.596558 
L 232.075268 307.72123 
L 232.582709 307.757635 
L 232.751857 307.622747 
L 233.090151 307.732816 
L 233.259299 307.727916 
L 233.76674 307.037803 
L 233.935888 306.853454 
L 234.274182 307.49059 
L 234.44333 307.250885 
L 234.781624 307.691585 
L 235.796508 307.741511 
L 239.179454 307.728695 
L 239.517748 307.699304 
L 240.363485 307.703027 
L 241.040074 307.695324 
L 241.209221 307.607196 
L 241.378369 307.671618 
L 241.547516 307.571632 
L 241.716663 306.933737 
L 241.88581 306.985801 
L 242.054958 307.383498 
L 242.224105 306.487936 
L 242.393252 307.355733 
L 242.731547 307.711311 
L 243.238989 307.730436 
L 243.746431 307.511399 
L 244.084725 307.643565 
L 244.592167 307.740606 
L 245.268756 307.736257 
L 246.791082 307.626514 
L 246.960229 307.065933 
L 247.298524 307.663173 
L 247.975113 307.751517 
L 249.835733 307.730935 
L 250.00488 307.636854 
L 250.343175 307.720197 
L 250.850617 307.723031 
L 251.019764 307.628369 
L 251.358059 307.289856 
L 251.527206 307.459451 
L 251.696353 307.176991 
L 252.203795 307.702817 
L 253.049532 307.7309 
L 255.079299 307.691546 
L 255.248446 307.614395 
L 255.586741 307.750865 
L 255.755888 307.728595 
L 256.094183 307.349878 
L 256.26333 307.650397 
L 257.109067 307.679693 
L 257.447361 307.728768 
L 258.631392 307.729034 
L 259.477129 307.580078 
L 259.815423 306.725592 
L 259.984571 307.507397 
L 260.153718 307.700601 
L 260.492012 307.738382 
L 261.506896 307.724096 
L 263.198369 307.717038 
L 263.367516 307.653526 
L 263.705811 307.671663 
L 263.874958 307.725376 
L 264.213253 307.645108 
L 264.720695 307.720212 
L 265.058989 307.689126 
L 266.073873 307.745388 
L 266.24302 307.694462 
L 266.412168 307.424354 
L 266.91961 307.678035 
L 267.596199 307.757051 
L 269.287672 307.638683 
L 269.456819 307.244454 
L 269.625966 307.494043 
L 269.795114 307.4705 
L 270.133408 307.638087 
L 270.302555 307.552479 
L 270.471703 307.698272 
L 274.531238 307.670018 
L 274.700385 307.410996 
L 275.207827 307.454138 
L 275.884416 307.746467 
L 277.575889 307.756438 
L 277.914184 307.596966 
L 278.083331 307.210587 
L 278.421625 307.645824 
L 278.75992 307.751568 
L 279.605656 307.764928 
L 279.943951 307.570796 
L 280.282246 307.696804 
L 281.804571 307.74792 
L 282.142866 307.726829 
L 283.326897 307.748594 
L 283.496044 307.586508 
L 283.665191 305.84944 
L 283.834339 307.073099 
L 284.172633 307.656285 
L 284.510928 307.718209 
L 284.849222 307.720963 
L 286.371548 307.762787 
L 287.048137 307.755647 
L 287.217285 307.511734 
L 288.063021 307.725287 
L 288.401316 307.021256 
L 288.570463 307.54843 
L 288.908757 307.685325 
L 289.754494 307.722521 
L 290.431083 307.746553 
L 291.107672 307.735262 
L 291.445967 307.472025 
L 291.784261 307.553034 
L 291.953409 307.399438 
L 292.291703 307.695271 
L 293.13744 307.738985 
L 294.99806 307.65065 
L 295.167207 307.49264 
L 295.336355 307.633101 
L 295.843796 307.592297 
L 296.012944 307.02714 
L 296.182091 307.452167 
L 297.196975 307.714226 
L 298.042711 307.739521 
L 301.933099 307.567169 
L 302.102246 306.076101 
L 302.271393 307.11485 
L 302.778835 307.698017 
L 303.455425 307.749923 
L 304.132014 307.722573 
L 304.470308 307.659228 
L 304.97775 307.707044 
L 305.654339 307.753539 
L 306.83837 307.684836 
L 307.176665 307.685206 
L 307.684107 307.751519 
L 307.853254 307.730942 
L 308.022401 307.491561 
L 308.360696 307.690213 
L 308.529843 307.455353 
L 308.868138 307.709383 
L 309.37558 307.747857 
L 310.221316 307.695617 
L 310.390463 307.588359 
L 310.728758 307.747409 
L 315.803177 307.644976 
L 316.141471 307.502544 
L 316.310619 306.277125 
L 316.479766 306.800748 
L 316.648913 306.816226 
L 316.987208 307.600264 
L 317.325502 307.745054 
L 320.201006 307.768616 
L 322.399921 307.662082 
L 322.738216 307.761291 
L 323.7531 307.596882 
L 323.922247 307.438849 
L 324.767983 307.740775 
L 325.444572 307.743788 
L 325.782867 307.572526 
L 326.459456 307.7498 
L 327.136045 307.733241 
L 327.47434 307.695377 
L 328.320076 307.613813 
L 328.658371 307.760916 
L 331.533875 307.712707 
L 331.703022 307.508537 
L 331.87217 307.504455 
L 332.041317 307.640859 
L 332.379611 306.894721 
L 332.717906 307.558079 
L 333.056201 307.74023 
L 334.916821 307.766343 
L 337.284883 307.532992 
L 337.45403 307.469783 
L 337.623177 306.808925 
L 337.792325 307.243972 
L 337.961472 307.206975 
L 338.130619 307.571222 
L 338.299767 307.666076 
L 338.468914 307.557195 
L 338.976356 307.74376 
L 339.483798 307.761355 
L 339.822092 307.65192 
L 340.160387 307.757935 
L 341.175271 307.770431 
L 342.359302 307.712257 
L 342.697596 307.652546 
L 343.543333 307.648805 
L 344.050775 307.70422 
L 344.727364 307.775871 
L 345.742247 307.591012 
L 345.911395 307.713964 
L 346.249689 307.706728 
L 350.478372 307.760297 
L 350.816666 307.517083 
L 351.154961 307.739262 
L 351.324108 307.620229 
L 352.000697 307.73946 
L 354.707054 307.672341 
L 354.876201 307.313798 
L 355.045348 307.545226 
L 355.383643 307.678694 
L 355.891085 307.748955 
L 356.229379 307.723548 
L 356.736821 307.659548 
L 357.075116 307.481574 
L 357.244263 307.480249 
L 357.413411 307.727811 
L 358.09 307.77981 
L 360.288914 307.70954 
L 360.458062 307.608014 
L 360.796356 307.762592 
L 361.472946 307.710947 
L 361.642093 307.665105 
L 361.81124 307.206733 
L 361.980387 307.25205 
L 362.149535 307.610234 
L 362.656977 307.42426 
L 362.826124 306.590498 
L 362.995271 307.454311 
L 363.333566 307.721996 
L 364.010155 307.776674 
L 368.238837 307.753593 
L 368.915426 307.76139 
L 369.253721 307.744483 
L 369.761163 307.754862 
L 370.099457 307.691623 
L 371.114341 307.712642 
L 371.79093 307.763874 
L 373.313256 307.726762 
L 373.482403 307.616323 
L 373.651551 307.711567 
L 373.989845 307.689217 
L 374.32814 307.769582 
L 375.004729 307.647734 
L 375.343023 307.771107 
L 376.527054 307.74587 
L 376.696202 307.179397 
L 377.034496 307.613689 
L 378.218527 307.76809 
L 379.233411 307.750579 
L 379.571706 307.776175 
L 379.740853 307.648213 
L 380.079148 307.773018 
L 381.432326 307.751283 
L 381.601473 307.627246 
L 381.939768 307.75574 
L 382.108915 307.650196 
L 382.616357 307.769533 
L 383.123799 307.698818 
L 383.462093 307.679624 
L 383.969535 307.754992 
L 384.815272 307.652685 
L 385.153566 307.587261 
L 385.491861 306.65482 
L 385.661008 307.408055 
L 385.999303 307.731758 
L 386.675892 307.77935 
L 389.043954 307.707203 
L 389.213101 307.436368 
L 389.551396 307.705461 
L 390.397132 307.772315 
L 392.257753 307.724473 
L 393.272636 307.783543 
L 394.625815 307.728582 
L 394.964109 307.226743 
L 395.133257 307.169573 
L 395.302404 307.562144 
L 395.640698 307.693142 
L 396.486435 307.772708 
L 401.730001 307.64562 
L 401.899148 307.326474 
L 402.068295 307.689459 
L 402.40659 307.723724 
L 402.744885 307.620629 
L 403.083179 307.752939 
L 404.26721 307.773825 
L 404.436358 307.110495 
L 404.774652 307.672724 
L 405.282094 307.776422 
L 406.635272 307.759907 
L 408.326745 307.773233 
L 408.495893 307.569089 
L 408.834187 307.768747 
L 409.679924 307.735231 
L 410.018218 307.616121 
L 410.187365 307.456915 
L 410.694807 307.780926 
L 412.555428 307.784638 
L 412.724575 307.609141 
L 412.893722 307.19014 
L 413.232017 307.48177 
L 413.570311 307.701882 
L 413.908606 307.700059 
L 414.416048 307.774685 
L 416.614963 307.687002 
L 416.78411 307.491473 
L 417.122404 307.716349 
L 417.968141 307.767316 
L 418.137288 307.761958 
L 418.475583 307.396426 
L 418.64473 307.451728 
L 418.983025 307.737382 
L 419.659614 307.759579 
L 422.873412 307.752782 
L 423.04256 307.605496 
L 423.211707 307.689652 
L 423.550002 306.359098 
L 424.057443 307.511282 
L 425.072327 307.76656 
L 429.131862 307.736055 
L 429.301009 307.574442 
L 429.977599 307.773438 
L 432.176513 307.769218 
L 432.514808 307.702934 
L 432.683955 307.504509 
L 432.853103 307.567967 
L 433.02225 307.163213 
L 433.529692 307.686167 
L 434.037134 307.782574 
L 436.405196 307.691742 
L 436.574343 307.353951 
L 436.74349 307.680195 
L 436.912638 307.67403 
L 437.081785 307.545768 
L 437.420079 307.760443 
L 439.111552 307.781663 
L 440.126436 307.714053 
L 440.295583 307.466972 
L 440.972173 307.770108 
L 443.847676 307.787261 
L 444.693413 307.676982 
L 445.031708 307.718146 
L 445.370002 307.724184 
L 445.539149 307.656028 
L 445.708297 307.420432 
L 445.877444 307.461403 
L 446.215739 307.737422 
L 446.892328 307.765715 
L 448.583801 307.772316 
L 448.752948 307.556472 
L 449.091243 307.695565 
L 449.26039 307.757562 
L 449.598684 307.611084 
L 449.936979 307.755804 
L 450.782715 307.788808 
L 452.474188 307.696321 
L 452.643336 307.691072 
L 452.812483 307.464203 
L 452.98163 306.890201 
L 453.319925 307.608109 
L 453.489072 307.376174 
L 453.658219 307.434424 
L 453.827367 307.629624 
L 455.51884 307.773083 
L 457.717754 307.77704 
L 459.409227 307.781893 
L 459.578375 307.755081 
L 459.747522 307.55016 
L 459.916669 304.187283 
L 460.254964 307.076575 
L 460.424111 307.31654 
L 460.593258 307.317316 
L 460.931553 307.673665 
L 461.438995 307.74775 
L 463.468762 307.773962 
L 467.866592 307.75809 
L 468.204886 307.510688 
L 468.543181 307.668506 
L 468.881476 307.756985 
L 471.418685 307.773118 
L 471.926127 307.698201 
L 472.095274 307.507827 
L 472.771863 307.742463 
L 475.985662 307.714456 
L 476.154809 307.102267 
L 476.323956 307.600107 
L 476.662251 307.618237 
L 477.000546 307.253209 
L 477.33884 307.711055 
L 477.846282 307.776286 
L 478.861166 307.753885 
L 479.19946 307.723358 
L 479.368608 307.736108 
L 479.537755 307.623245 
L 480.045197 307.777655 
L 481.567523 307.735279 
L 481.73667 307.67719 
L 482.074964 307.771795 
L 483.089848 307.767599 
L 484.612174 307.737401 
L 485.119616 307.592677 
L 485.288763 307.146463 
L 485.45791 307.126421 
L 485.627058 307.463733 
L 485.796205 307.437906 
L 486.303647 307.717018 
L 488.840856 307.782585 
L 490.701476 307.758554 
L 491.71636 307.771106 
L 492.223802 307.75393 
L 492.731244 307.223688 
L 493.069538 307.691295 
L 493.57698 307.784404 
L 496.621631 307.729224 
L 496.959926 307.643665 
L 497.467368 307.76405 
L 501.865197 307.691272 
L 502.203492 307.368252 
L 502.372639 307.488715 
L 502.541787 307.288935 
L 503.049229 307.742206 
L 503.894965 307.782474 
L 504.571554 307.779984 
L 505.078996 307.028757 
L 505.417291 307.70799 
L 505.924732 307.772586 
L 507.9545 307.781122 
L 510.830004 307.758412 
L 511.168299 307.764387 
L 512.521477 307.744009 
L 515.058686 307.748428 
L 515.227834 307.585187 
L 515.735275 307.757927 
L 517.257601 307.775038 
L 518.272485 307.753471 
L 519.118221 307.778844 
L 520.809694 307.781946 
L 520.978841 306.324379 
L 521.147989 307.061082 
L 521.317136 307.120305 
L 521.655431 307.602209 
L 521.824578 307.568749 
L 522.501167 307.771981 
L 527.068144 307.777705 
L 529.267059 307.78828 
L 529.774501 307.737251 
L 530.112795 307.699906 
L 530.281942 307.453726 
L 530.620237 307.395426 
L 530.789384 307.342096 
L 531.635121 307.776579 
L 534.341477 307.786794 
L 536.371245 307.73666 
L 536.70954 307.696986 
L 537.386129 307.763531 
L 537.893571 307.771062 
L 538.908454 307.785852 
L 539.754191 307.708568 
L 540.092485 307.125149 
L 540.261633 307.496406 
L 540.43078 307.569677 
L 540.599927 307.232128 
L 540.769075 307.258703 
L 541.276516 307.75408 
L 542.798842 307.792567 
L 547.873261 307.739801 
L 548.042408 307.635408 
L 548.54985 307.763337 
L 548.718997 307.757674 
L 548.888145 307.632403 
L 549.226439 307.77653 
L 550.748765 307.75291 
L 551.087059 307.737169 
L 551.425354 307.770715 
L 551.594501 307.674658 
L 552.101943 307.790706 
L 555.823183 307.751898 
L 555.992331 307.633152 
L 556.161478 307.359984 
L 556.330625 306.57808 
L 556.838067 307.694699 
L 557.683804 307.791518 
L 562.250781 307.747771 
L 562.419928 307.628794 
L 562.758222 307.738966 
L 562.92737 307.480427 
L 563.434812 307.701665 
L 564.618843 307.795889 
L 569.016672 307.794072 
L 570.200703 307.718398 
L 570.369851 307.46237 
L 570.538998 307.502117 
L 570.708145 307.334475 
L 570.877292 307.42268 
L 571.04644 307.718952 
L 571.553882 307.78099 
L 573.752796 307.796602 
L 577.474037 307.75554 
L 577.643184 307.384117 
L 577.812331 307.568906 
L 577.981479 307.20094 
L 578.319773 307.706204 
L 579.842099 307.787412 
L 583.225045 307.797346 
L 586.777138 307.676095 
L 586.946285 306.972458 
L 587.115432 307.280582 
L 587.28458 306.151387 
L 587.622874 307.328521 
L 587.961169 307.733726 
L 588.806905 307.774113 
L 593.543029 307.758548 
L 594.050471 307.62755 
L 594.219619 307.626068 
L 594.557913 307.785444 
L 598.448301 307.783564 
L 598.955743 307.744666 
L 599.12489 306.135872 
L 599.294037 306.407322 
L 599.632332 307.466758 
L 599.970627 307.705325 
L 600.98551 307.756498 
L 607.582255 307.702338 
L 607.751402 306.683173 
L 607.920549 307.024828 
L 608.089697 307.066621 
L 608.427991 307.553893 
L 608.597138 307.546268 
L 608.935433 307.739855 
L 610.626906 307.765328 
L 612.825821 307.765016 
L 613.164115 307.468348 
L 613.333263 307.5042 
L 613.671557 307.741588 
L 615.193883 307.765785 
L 619.76086 307.654028 
L 619.930007 307.016299 
L 620.268302 307.59958 
L 620.606596 307.760898 
L 621.959774 307.752921 
L 622.636364 307.775184 
L 622.636364 307.775184 
" clip-path="url(#p9c8528a3d9)" style="fill: none; stroke: #1f77b4; stroke-width: 1.5; stroke-linecap: square"/>
   </g>
   <g id="line2d_32">
    <path d="M 115.363636 123.255854 
L 115.701931 156.178144 
L 116.716815 222.328606 
L 117.224257 279.698666 
L 117.562551 290.86609 
L 117.731698 293.167016 
L 117.900846 292.372404 
L 118.408288 297.941947 
L 118.577435 299.096611 
L 118.746582 298.507409 
L 119.084877 301.150562 
L 119.254024 302.184264 
L 119.423171 302.118717 
L 119.592319 300.057808 
L 119.761466 302.477367 
L 119.930613 303.219154 
L 120.099761 303.284368 
L 120.268908 304.447264 
L 120.438055 304.313322 
L 120.607202 304.842063 
L 120.77635 304.769352 
L 120.945497 303.682162 
L 121.283792 305.603233 
L 121.452939 305.792132 
L 121.622086 305.346698 
L 121.791233 305.428973 
L 121.960381 306.130548 
L 122.129528 306.087374 
L 122.298675 306.160962 
L 122.467823 306.413527 
L 122.63697 306.438899 
L 122.806117 306.586536 
L 122.975264 306.428427 
L 123.144412 306.698074 
L 123.313559 305.185936 
L 123.482706 306.524385 
L 123.651854 306.736439 
L 123.821001 306.369764 
L 123.990148 306.844454 
L 124.49759 307.061642 
L 124.666737 306.92736 
L 124.835885 306.163544 
L 125.005032 307.131504 
L 125.343327 307.199781 
L 125.512474 306.85504 
L 125.681621 301.41192 
L 125.850768 306.259574 
L 126.019916 306.568916 
L 126.189063 307.158003 
L 126.35821 307.143229 
L 126.696505 307.312056 
L 126.865652 307.342098 
L 127.034799 306.625473 
L 127.203947 307.359169 
L 127.373094 307.131795 
L 127.542241 307.102118 
L 127.711389 307.269044 
L 127.880536 305.811126 
L 128.049683 301.612834 
L 128.218831 303.223669 
L 128.387978 306.276579 
L 128.557125 307.219896 
L 129.064567 307.495154 
L 129.233714 307.309194 
L 129.572009 307.469859 
L 130.586893 307.553765 
L 130.75604 307.39473 
L 131.094334 307.551879 
L 131.432629 307.565 
L 131.601776 306.554112 
L 131.770924 307.309377 
L 132.278366 307.532342 
L 132.954955 307.545592 
L 133.124102 307.389048 
L 133.293249 307.39957 
L 133.462397 307.578733 
L 133.631544 307.111008 
L 133.800691 307.559174 
L 135.153869 307.600084 
L 135.492164 306.357532 
L 135.661311 307.410886 
L 135.830459 304.932074 
L 135.999606 305.638566 
L 136.168753 307.606617 
L 136.507048 307.539181 
L 136.676195 307.446632 
L 136.845342 307.034278 
L 137.183637 307.225486 
L 137.352784 307.569398 
L 137.691079 307.593116 
L 138.367668 307.612549 
L 138.705963 307.562689 
L 138.87511 307.404189 
L 139.044257 307.575748 
L 139.213404 307.461483 
L 139.720846 307.647074 
L 140.397436 307.600017 
L 140.566583 307.154411 
L 140.73573 307.56215 
L 141.074025 307.655547 
L 142.258056 307.612692 
L 142.59635 304.384667 
L 142.765498 306.43824 
L 142.934645 307.027296 
L 143.103792 307.171789 
L 143.272939 307.632914 
L 143.780381 307.667552 
L 143.949529 307.596901 
L 144.287823 307.674354 
L 145.302707 307.623668 
L 145.641002 307.438628 
L 145.810149 307.63573 
L 146.317591 307.504585 
L 146.655885 307.683509 
L 146.825033 307.668625 
L 146.99418 307.189829 
L 147.332474 307.626206 
L 147.670769 307.2109 
L 147.839916 307.57926 
L 148.178211 307.655826 
L 148.8548 307.661846 
L 149.023947 307.205601 
L 149.193095 307.620636 
L 149.869684 307.095214 
L 150.038831 307.606357 
L 150.207978 307.444333 
L 150.377126 307.523915 
L 150.546273 307.348472 
L 150.71542 307.658201 
L 151.899451 307.497239 
L 152.068599 307.661394 
L 153.083482 307.599556 
L 153.25263 307.18032 
L 153.421777 307.609709 
L 154.098366 307.699054 
L 155.11325 307.649819 
L 155.451544 306.493216 
L 155.620692 307.509738 
L 155.958986 307.652449 
L 156.128134 307.286069 
L 156.804723 307.629508 
L 157.650459 307.570823 
L 157.988754 307.701662 
L 158.665343 307.67417 
L 158.83449 307.270519 
L 159.003638 307.28441 
L 159.172785 307.628341 
L 161.709994 307.708025 
L 161.879142 307.343465 
L 162.048289 307.62522 
L 162.217436 307.352197 
L 162.386583 307.615115 
L 162.555731 307.394533 
L 162.894025 307.711408 
L 163.570614 307.696377 
L 163.739762 306.88722 
L 163.908909 307.607551 
L 164.247204 307.294718 
L 164.416351 307.254388 
L 164.754645 307.667192 
L 164.923793 307.556834 
L 165.262087 307.644257 
L 165.431235 307.157942 
L 165.600382 307.674573 
L 166.107824 307.693334 
L 167.122708 307.714927 
L 168.137591 307.654022 
L 168.306739 307.695789 
L 168.645033 307.553849 
L 168.81418 307.696467 
L 168.983328 307.131997 
L 169.321622 307.71272 
L 170.167359 307.720736 
L 170.336506 307.452335 
L 170.505653 307.584593 
L 170.843948 306.987511 
L 171.013095 307.577873 
L 171.182243 307.53139 
L 171.35139 307.184069 
L 171.689684 307.687501 
L 172.535421 307.728852 
L 174.057747 307.707393 
L 174.226894 307.388214 
L 174.396041 307.430525 
L 174.565188 307.694472 
L 174.734336 307.714876 
L 174.903483 307.367622 
L 175.07263 307.705935 
L 175.241778 307.50883 
L 175.410925 307.691163 
L 176.087514 307.575591 
L 176.256661 307.711028 
L 176.425809 307.501195 
L 176.764103 307.684604 
L 176.93325 307.596529 
L 177.440692 306.994851 
L 177.778987 307.541481 
L 178.963018 307.526574 
L 179.132165 304.342462 
L 179.301313 307.391036 
L 179.808754 307.728259 
L 182.345964 307.69547 
L 182.515111 307.476586 
L 182.684258 306.799478 
L 182.853406 307.620495 
L 183.022553 307.569297 
L 183.1917 307.72046 
L 183.529995 307.718217 
L 183.699142 307.536781 
L 183.868289 307.628048 
L 184.037437 307.581551 
L 184.206584 307.733987 
L 185.390615 307.654626 
L 186.067204 307.605471 
L 186.236352 307.475315 
L 186.405499 307.677089 
L 186.574646 307.652195 
L 186.912941 307.714009 
L 187.082088 307.73614 
L 187.251235 307.489878 
L 187.420383 307.587254 
L 187.58953 307.327145 
L 187.758677 305.733129 
L 187.927824 307.297456 
L 188.096972 307.263891 
L 188.266119 307.617214 
L 188.435266 307.663281 
L 188.604414 307.513207 
L 188.773561 307.557679 
L 188.942708 307.434275 
L 189.111855 307.651229 
L 189.45015 307.701127 
L 190.634181 307.73963 
L 191.649065 307.729455 
L 191.818212 307.52119 
L 191.987359 307.717558 
L 192.156507 307.692258 
L 192.325654 307.520056 
L 192.494801 307.721153 
L 192.663949 307.6973 
L 192.833096 306.837407 
L 193.340538 307.523594 
L 193.678832 307.727582 
L 195.032011 307.681409 
L 195.370305 307.704555 
L 197.061778 307.75076 
L 198.414957 307.643035 
L 198.584104 307.097368 
L 198.753251 303.572631 
L 198.922398 306.725915 
L 199.260693 307.610169 
L 199.42984 307.572828 
L 199.598988 307.69846 
L 199.768135 307.57927 
L 200.106429 307.73937 
L 201.121313 307.675398 
L 201.29046 307.531193 
L 201.459608 307.664375 
L 201.628755 306.48946 
L 201.797902 307.706879 
L 201.96705 307.577475 
L 202.136197 307.714685 
L 202.812786 307.605435 
L 204.165964 307.735377 
L 205.011701 307.577857 
L 205.180848 307.27117 
L 205.349995 307.56284 
L 205.68829 307.633697 
L 206.026585 307.731651 
L 206.703174 307.598372 
L 207.379763 307.75282 
L 208.225499 307.719386 
L 208.394647 307.513324 
L 209.240383 307.752564 
L 210.593561 307.659195 
L 210.762709 307.555176 
L 211.101003 307.716836 
L 211.270151 307.389214 
L 211.608445 307.640461 
L 211.777593 307.629135 
L 212.115887 306.280381 
L 212.285034 305.950732 
L 212.623329 307.452569 
L 212.961624 307.648414 
L 213.976507 307.746734 
L 214.822244 307.743005 
L 217.021159 307.719906 
L 217.190306 307.555394 
L 217.359453 306.992081 
L 217.5286 306.943026 
L 217.866895 307.709046 
L 218.20519 307.736038 
L 218.374337 307.6021 
L 218.543484 307.732091 
L 219.220073 307.661451 
L 219.558368 307.75585 
L 219.896663 307.714362 
L 220.06581 307.346509 
L 220.234957 307.706989 
L 220.742399 307.742765 
L 220.911546 307.697672 
L 221.080694 307.399971 
L 221.588135 307.607184 
L 221.757283 307.532868 
L 222.095577 307.654892 
L 222.264725 307.500768 
L 222.941314 307.540794 
L 223.279608 307.590927 
L 223.78705 307.748892 
L 225.478523 307.698634 
L 225.64767 307.581663 
L 225.985965 307.738389 
L 226.155112 307.559255 
L 226.32426 306.121475 
L 226.662554 307.541088 
L 226.831701 307.256903 
L 227.169996 307.73098 
L 227.339143 307.653279 
L 227.677438 307.707176 
L 228.354027 307.746251 
L 229.030616 307.645035 
L 229.199764 306.372382 
L 229.368911 307.490613 
L 229.538058 307.712711 
L 230.722089 307.688269 
L 230.891236 307.532517 
L 231.229531 307.713707 
L 231.398678 307.313837 
L 231.736973 307.717575 
L 233.259299 307.724231 
L 233.428446 307.338899 
L 233.597593 305.887012 
L 233.76674 307.378725 
L 233.935888 306.946162 
L 234.105035 307.185668 
L 234.44333 307.177241 
L 234.612477 307.695507 
L 235.119919 307.73575 
L 238.16457 307.756482 
L 238.502865 307.636048 
L 238.672012 307.737844 
L 238.841159 307.590199 
L 239.010306 307.735974 
L 239.179454 307.446496 
L 239.348601 307.62061 
L 239.517748 307.599089 
L 239.686896 307.694607 
L 239.856043 307.634218 
L 240.02519 307.425791 
L 240.194338 307.663651 
L 241.378369 307.623677 
L 241.547516 306.796826 
L 241.716663 307.355181 
L 241.88581 307.232861 
L 242.054958 306.286047 
L 242.393252 307.586283 
L 242.900694 307.749613 
L 243.238989 307.674774 
L 243.577283 307.28426 
L 243.746431 307.567725 
L 243.915578 307.563923 
L 244.253873 307.706676 
L 244.592167 307.694256 
L 244.761314 307.627652 
L 245.437904 307.728339 
L 245.776198 307.740431 
L 246.114493 307.690412 
L 246.621935 307.689179 
L 246.960229 307.271604 
L 247.129376 307.649479 
L 248.14426 307.743504 
L 248.313407 307.744731 
L 248.482555 307.543699 
L 248.651702 307.701686 
L 248.820849 307.625682 
L 249.159144 307.758498 
L 249.666586 307.725877 
L 249.835733 307.467153 
L 250.00488 307.708625 
L 250.512322 307.739206 
L 250.850617 307.730238 
L 251.188911 307.186656 
L 251.358059 307.527291 
L 251.527206 306.947899 
L 251.696353 307.143703 
L 251.865501 307.571627 
L 252.372942 307.737893 
L 254.910152 307.703371 
L 255.079299 307.570379 
L 255.417594 307.748854 
L 255.755888 307.703947 
L 255.925036 306.905178 
L 256.094183 307.516043 
L 256.26333 307.69217 
L 256.432477 307.607226 
L 256.601625 307.657541 
L 256.770772 307.565824 
L 257.616509 307.719311 
L 258.631392 307.748952 
L 259.307981 307.643329 
L 259.477129 306.422629 
L 259.815423 307.498406 
L 260.153718 307.701398 
L 261.168602 307.756988 
L 262.014338 307.76023 
L 263.367516 307.694912 
L 263.536664 307.579557 
L 263.874958 307.703548 
L 264.044106 307.573503 
L 264.551547 307.755275 
L 265.058989 307.64245 
L 265.228137 307.52336 
L 265.566431 307.753214 
L 266.073873 307.680727 
L 266.24302 307.643146 
L 266.412168 307.440507 
L 267.427051 307.756027 
L 268.611082 307.73001 
L 268.949377 307.703029 
L 269.118524 307.555776 
L 269.287672 307.651239 
L 269.456819 307.284558 
L 269.625966 307.632465 
L 269.795114 307.24811 
L 269.964261 307.548902 
L 270.133408 307.553018 
L 270.471703 307.725381 
L 271.824881 307.743941 
L 271.994028 307.591068 
L 272.163176 307.755474 
L 272.50147 307.740889 
L 272.670617 307.736041 
L 272.839765 307.607729 
L 273.516354 307.761114 
L 274.023796 307.706533 
L 274.192943 307.616797 
L 274.36209 307.720837 
L 274.531238 306.855863 
L 274.700385 307.431794 
L 274.869532 307.608524 
L 275.207827 306.968001 
L 275.376974 307.664029 
L 276.053563 307.753266 
L 277.575889 307.751699 
L 277.745036 307.49627 
L 277.914184 306.915977 
L 278.083331 307.537636 
L 278.252478 307.391246 
L 278.590773 307.740221 
L 279.436509 307.767812 
L 279.774804 307.519536 
L 279.943951 307.684325 
L 280.789687 307.691713 
L 281.127982 307.739082 
L 281.635424 307.756212 
L 281.804571 307.618287 
L 282.48116 307.729247 
L 283.326897 307.705173 
L 283.496044 307.593716 
L 283.665191 306.443696 
L 283.834339 307.365735 
L 284.172633 307.693071 
L 284.341781 307.711867 
L 284.510928 307.56493 
L 284.849222 307.730865 
L 285.694959 307.720035 
L 286.033254 307.755937 
L 286.87899 307.743253 
L 287.386432 307.51859 
L 287.724726 307.719164 
L 287.893874 307.705583 
L 288.063021 307.380248 
L 288.232168 306.487755 
L 288.401316 307.460892 
L 288.73961 307.666293 
L 289.247052 307.706218 
L 289.585347 307.718917 
L 290.092789 307.70034 
L 290.60023 307.744493 
L 291.107672 307.710252 
L 291.27682 307.478317 
L 291.784261 307.603618 
L 291.953409 307.568659 
L 292.291703 307.71468 
L 292.968292 307.745496 
L 294.152324 307.731444 
L 294.828913 307.680388 
L 294.99806 307.308591 
L 295.336355 307.624916 
L 295.505502 307.657332 
L 295.674649 307.545122 
L 295.843796 305.6394 
L 296.012944 307.298522 
L 296.182091 307.596543 
L 296.351238 307.192467 
L 296.689533 307.697591 
L 296.85868 307.731106 
L 297.027827 307.63501 
L 297.366122 307.730364 
L 301.763952 307.696303 
L 301.933099 307.438178 
L 302.102246 306.906977 
L 302.609688 307.656241 
L 303.286277 307.749221 
L 304.808603 307.694947 
L 304.97775 307.59848 
L 305.316045 307.73947 
L 306.500076 307.724779 
L 306.669223 307.568802 
L 306.83837 307.687033 
L 307.007518 307.563032 
L 307.345812 307.760541 
L 307.853254 307.629427 
L 308.022401 307.51445 
L 308.360696 307.617376 
L 308.529843 307.404079 
L 308.698991 307.695906 
L 309.037285 307.759352 
L 310.052169 307.714723 
L 310.221316 307.525565 
L 310.559611 307.744801 
L 311.067053 307.72313 
L 311.2362 307.53952 
L 311.574495 307.760636 
L 312.927673 307.653258 
L 313.09682 307.753943 
L 313.265967 307.652761 
L 314.280851 307.75813 
L 315.295735 307.750573 
L 315.464882 307.767701 
L 315.63403 307.659371 
L 315.803177 307.689001 
L 315.972324 307.510783 
L 316.141471 306.689491 
L 316.310619 306.671335 
L 316.648913 306.957797 
L 316.987208 307.668129 
L 317.49465 307.74622 
L 318.171239 307.706803 
L 318.678681 307.763011 
L 323.245658 307.605308 
L 323.414805 307.57275 
L 323.583952 307.678658 
L 324.091394 307.318042 
L 324.260541 307.705451 
L 324.937131 307.767537 
L 325.444572 307.718802 
L 325.782867 307.546838 
L 325.952014 307.734638 
L 327.305193 307.695691 
L 327.643487 307.566954 
L 327.812635 307.634499 
L 327.981782 307.549977 
L 328.150929 307.226332 
L 328.320076 307.64798 
L 328.658371 307.769699 
L 330.011549 307.758713 
L 331.533875 307.685221 
L 331.703022 307.544529 
L 331.87217 307.608552 
L 332.041317 307.426038 
L 332.210464 306.384455 
L 332.717906 307.604487 
L 333.056201 307.725902 
L 333.73279 307.757876 
L 337.115736 307.711517 
L 337.284883 307.319821 
L 337.623177 307.281884 
L 337.792325 306.953318 
L 338.130619 307.625162 
L 339.31465 307.755162 
L 339.483798 307.586314 
L 339.652945 307.71586 
L 339.822092 307.672711 
L 340.160387 307.724223 
L 341.175271 307.772537 
L 342.190154 307.755962 
L 342.359302 307.575622 
L 343.205038 307.75507 
L 343.374185 307.522929 
L 343.543333 307.646199 
L 343.71248 307.623153 
L 344.050775 307.722822 
L 344.558216 307.774335 
L 346.080542 307.700331 
L 346.757131 307.772694 
L 348.448604 307.697522 
L 348.956046 307.752744 
L 350.309224 307.723219 
L 350.478372 307.395532 
L 350.647519 307.536469 
L 350.816666 307.512485 
L 351.154961 307.724749 
L 351.324108 307.71248 
L 351.493255 307.521596 
L 351.83155 307.697876 
L 352.169844 307.764526 
L 352.338992 307.650393 
L 352.846434 307.746988 
L 353.861317 307.763001 
L 354.368759 307.765242 
L 354.537907 307.637328 
L 355.045348 307.689652 
L 355.721938 307.763724 
L 355.891085 307.487657 
L 356.060232 307.72975 
L 356.398527 307.574377 
L 356.567674 307.726515 
L 356.736821 307.263077 
L 357.075116 307.237081 
L 357.244263 307.710112 
L 358.09 307.779609 
L 360.119767 307.708678 
L 360.288914 307.521881 
L 360.796356 307.77141 
L 360.965504 307.771422 
L 361.134651 307.653325 
L 361.472946 307.729943 
L 361.642093 307.682325 
L 361.81124 306.708623 
L 361.980387 307.476451 
L 362.149535 307.6761 
L 362.487829 307.566981 
L 362.656977 305.303796 
L 362.826124 307.296571 
L 363.164418 307.684415 
L 363.67186 307.769051 
L 366.716512 307.75864 
L 367.223953 307.775536 
L 369.93031 307.702255 
L 370.099457 307.553582 
L 370.437752 307.703985 
L 370.606899 307.6263 
L 371.452636 307.764774 
L 372.129225 307.771666 
L 372.298372 307.631258 
L 372.467519 307.725116 
L 372.636667 307.647027 
L 372.974961 307.692704 
L 373.482403 307.698624 
L 373.820698 307.549629 
L 373.989845 307.755314 
L 374.666434 307.773857 
L 374.835582 307.333132 
L 375.004729 307.716363 
L 375.512171 307.774133 
L 376.527054 307.706836 
L 376.696202 307.524547 
L 376.865349 307.505798 
L 377.034496 307.718372 
L 377.203644 307.655392 
L 377.541938 307.776785 
L 378.556822 307.756978 
L 378.725969 307.763038 
L 378.895117 307.389029 
L 379.064264 307.733178 
L 379.402558 307.780247 
L 379.571706 307.657335 
L 380.417442 307.7869 
L 381.263179 307.771034 
L 381.432326 307.647173 
L 381.770621 307.73682 
L 382.278062 307.747307 
L 382.954652 307.720652 
L 383.123799 307.520894 
L 383.631241 307.726346 
L 384.984419 307.680326 
L 385.153566 307.508649 
L 385.322714 306.268092 
L 385.491861 307.357361 
L 385.830156 307.670046 
L 386.16845 307.775545 
L 388.874807 307.715167 
L 389.043954 306.819638 
L 389.213101 307.536279 
L 389.551396 307.718046 
L 390.397132 307.78128 
L 390.56628 307.645349 
L 390.735427 307.768255 
L 390.904574 307.412104 
L 391.073722 307.704508 
L 391.412016 307.659763 
L 391.581163 307.734904 
L 391.750311 307.619907 
L 392.257753 307.732226 
L 392.596047 307.743046 
L 393.441784 307.768265 
L 394.456667 307.782381 
L 394.625815 307.634216 
L 394.794962 307.206299 
L 394.964109 306.371198 
L 395.133257 307.435511 
L 395.302404 307.679416 
L 395.640698 307.700217 
L 395.978993 307.73651 
L 397.163024 307.734908 
L 397.332171 307.605271 
L 397.839613 307.782364 
L 400.376823 307.771011 
L 400.715117 307.761022 
L 401.560854 307.704673 
L 401.730001 306.878396 
L 402.068295 307.74017 
L 402.237443 307.762996 
L 402.575737 307.620703 
L 403.083179 307.75609 
L 403.252327 307.654946 
L 403.590621 307.763362 
L 404.098063 307.781915 
L 404.436358 307.360872 
L 404.605505 307.614969 
L 405.282094 307.773568 
L 405.451241 307.634518 
L 405.789536 307.782359 
L 406.12783 307.547409 
L 406.296978 307.752404 
L 408.157598 307.785125 
L 408.326745 307.581534 
L 408.66504 307.741721 
L 409.172482 307.784144 
L 409.679924 307.698792 
L 410.187365 307.35131 
L 410.356513 307.730841 
L 410.863955 307.766244 
L 411.540544 307.780122 
L 412.555428 307.705387 
L 412.724575 307.303507 
L 412.893722 307.294825 
L 413.062869 307.476948 
L 413.232017 307.435843 
L 413.401164 307.674349 
L 413.570311 307.708302 
L 413.739459 307.60094 
L 414.077753 307.764951 
L 415.430932 307.783193 
L 416.107521 307.754461 
L 416.445815 307.695784 
L 416.614963 306.81453 
L 416.78411 307.720953 
L 416.953257 307.644652 
L 417.122404 307.762393 
L 417.798994 307.758391 
L 417.968141 307.758443 
L 418.475583 307.015643 
L 418.64473 307.626881 
L 419.152172 307.778497 
L 419.659614 307.728092 
L 420.336203 307.778395 
L 422.704265 307.747332 
L 422.873412 307.47203 
L 423.04256 307.739942 
L 423.211707 307.066257 
L 423.380854 305.818933 
L 423.719149 307.165945 
L 423.888296 307.438531 
L 424.057443 307.367389 
L 424.395738 307.699444 
L 425.072327 307.758032 
L 426.594653 307.779258 
L 428.455273 307.771703 
L 429.131862 307.654261 
L 429.301009 307.335124 
L 429.470157 307.749281 
L 430.823335 307.789468 
L 431.16163 307.767154 
L 431.669072 307.775208 
L 432.007366 307.734474 
L 432.176513 307.751015 
L 432.345661 307.641347 
L 432.514808 307.681586 
L 432.683955 307.22447 
L 432.853103 307.497283 
L 433.02225 307.205422 
L 433.191397 307.573088 
L 433.360544 307.559331 
L 433.698839 307.767863 
L 435.390312 307.773937 
L 435.897754 307.63391 
L 436.066901 307.750289 
L 436.236048 307.722666 
L 436.405196 306.742951 
L 436.574343 307.622184 
L 436.74349 307.671402 
L 436.912638 307.260463 
L 437.081785 307.706737 
L 437.927521 307.759225 
L 439.111552 307.775398 
L 439.2807 307.632593 
L 439.449847 307.718336 
L 439.788142 307.606322 
L 439.957289 307.71559 
L 440.126436 307.35362 
L 440.464731 307.644574 
L 440.803025 307.748116 
L 441.479614 307.790981 
L 443.509382 307.773267 
L 444.185971 307.736181 
L 444.355118 307.464312 
L 444.524266 307.696619 
L 444.86256 307.679387 
L 445.370002 307.767686 
L 445.539149 307.322214 
L 445.877444 307.529275 
L 446.046591 307.737414 
L 448.414653 307.782936 
L 448.583801 307.534794 
L 448.922095 307.68197 
L 449.091243 307.727767 
L 449.429537 307.494914 
L 449.767832 307.744851 
L 450.444421 307.782771 
L 452.135894 307.777152 
L 452.643336 307.431161 
L 452.812483 307.298379 
L 452.98163 306.946679 
L 453.319925 307.675797 
L 453.489072 307.289009 
L 453.658219 307.610509 
L 453.996514 307.508635 
L 454.334809 307.770608 
L 459.409227 307.767689 
L 459.578375 307.39522 
L 459.747522 304.249472 
L 460.254964 307.351689 
L 460.424111 307.013341 
L 460.593258 307.517897 
L 460.762406 307.554988 
L 460.931553 307.736061 
L 462.792173 307.771627 
L 464.483646 307.7251 
L 464.652793 307.552745 
L 464.991088 307.753514 
L 465.836824 307.774909 
L 467.190003 307.772492 
L 467.697445 307.775569 
L 468.035739 307.37395 
L 468.374034 307.524843 
L 468.543181 307.724882 
L 469.727212 307.779503 
L 471.75698 307.762711 
L 471.926127 307.504169 
L 472.095274 307.585847 
L 472.264421 307.433729 
L 472.602716 307.721577 
L 473.279305 307.779964 
L 474.632484 307.767177 
L 475.47822 307.720313 
L 475.647367 307.546499 
L 475.816515 307.706429 
L 476.154809 307.441872 
L 476.493104 307.730349 
L 477.000546 307.476066 
L 477.169693 307.709012 
L 477.846282 307.77609 
L 479.19946 307.740477 
L 479.368608 307.591648 
L 480.214344 307.783516 
L 483.935585 307.744096 
L 485.119616 307.701194 
L 485.288763 307.011025 
L 485.627058 307.65091 
L 485.965352 307.544894 
L 486.303647 307.739513 
L 488.671709 307.780984 
L 489.517445 307.776679 
L 490.194034 307.764222 
L 490.363182 307.678729 
L 491.039771 307.771606 
L 492.054655 307.702851 
L 492.223802 307.500152 
L 492.392949 307.55228 
L 492.731244 307.213131 
L 493.069538 307.749316 
L 493.915275 307.787154 
L 496.452484 307.720148 
L 496.790779 307.462468 
L 497.129073 307.747441 
L 499.158841 307.794008 
L 499.327988 307.413158 
L 499.497135 307.743005 
L 499.666283 307.786276 
L 499.83543 307.585101 
L 500.004577 307.76249 
L 501.019461 307.76228 
L 501.526903 307.528441 
L 501.69605 307.725582 
L 501.865197 307.539892 
L 502.034345 307.572437 
L 502.203492 307.246027 
L 502.372639 307.352661 
L 502.541787 307.312143 
L 502.880081 307.706163 
L 503.387523 307.779934 
L 504.402407 307.790378 
L 504.571554 307.096359 
L 504.909849 307.058256 
L 505.417291 307.749354 
L 510.660857 307.77806 
L 510.830004 307.634552 
L 511.67574 307.788333 
L 511.844888 307.705593 
L 512.014035 307.760588 
L 512.183182 307.648037 
L 512.690624 307.735448 
L 513.028919 307.707174 
L 513.874655 307.729831 
L 514.889539 307.725595 
L 515.058686 307.524298 
L 515.735275 307.766693 
L 517.765043 307.728665 
L 517.93419 307.569111 
L 518.272485 307.75593 
L 519.287369 307.778289 
L 520.640547 307.787485 
L 520.978841 306.606538 
L 521.147989 307.275345 
L 521.317136 307.10375 
L 521.486283 307.610554 
L 521.993725 307.718861 
L 525.545818 307.748689 
L 525.714966 307.59295 
L 527.068144 307.783522 
L 529.097911 307.790137 
L 529.605353 307.622238 
L 529.774501 307.754957 
L 529.943648 307.448758 
L 530.112795 307.623698 
L 530.45109 306.938257 
L 530.620237 307.523311 
L 530.789384 307.311735 
L 531.127679 307.650461 
L 532.142563 307.79015 
L 536.371245 307.732338 
L 536.540392 307.639595 
L 537.216981 307.762106 
L 537.724423 307.759268 
L 538.908454 307.759312 
L 539.077602 307.66368 
L 539.246749 307.760516 
L 539.754191 307.581745 
L 540.092485 307.141913 
L 540.261633 307.671757 
L 540.599927 307.050064 
L 540.769075 307.181768 
L 541.107369 307.769288 
L 544.659462 307.756742 
L 545.674346 307.791242 
L 547.534966 307.738439 
L 547.704113 307.647164 
L 547.873261 307.714533 
L 548.042408 307.504415 
L 548.211555 307.736195 
L 548.54985 307.715421 
L 548.718997 307.5948 
L 549.057292 307.763689 
L 550.579617 307.77854 
L 550.748765 307.690198 
L 551.256207 307.730492 
L 551.425354 307.580193 
L 551.763648 307.714308 
L 552.101943 307.789487 
L 553.455121 307.79115 
L 553.624269 307.645069 
L 553.962563 307.725126 
L 555.146594 307.791113 
L 555.654036 307.762187 
L 555.992331 307.571832 
L 556.161478 306.556416 
L 556.330625 306.469144 
L 556.499773 307.39395 
L 556.838067 307.696666 
L 557.514656 307.789801 
L 561.405044 307.789701 
L 561.743339 307.794834 
L 562.081633 307.788627 
L 562.250781 307.468238 
L 562.589075 307.700065 
L 562.758222 307.302606 
L 563.096517 307.61712 
L 563.942253 307.790764 
L 565.126285 307.784028 
L 566.64861 307.796715 
L 567.494347 307.677089 
L 567.832641 307.742485 
L 569.862409 307.787812 
L 570.031556 307.711427 
L 570.200703 307.215063 
L 570.369851 307.586076 
L 570.538998 306.861086 
L 570.708145 307.488368 
L 571.215587 307.773837 
L 574.936827 307.764334 
L 575.275122 307.674064 
L 575.782564 307.754305 
L 576.459153 307.789604 
L 576.966595 307.668436 
L 577.135742 307.60108 
L 577.30489 307.776531 
L 577.474037 307.461094 
L 577.643184 307.54335 
L 577.812331 306.661054 
L 577.981479 307.503144 
L 578.150626 307.680749 
L 578.319773 307.61881 
L 578.658068 307.78691 
L 580.687835 307.788506 
L 582.548456 307.791326 
L 586.607991 307.708678 
L 586.946285 307.234883 
L 587.115432 306.371497 
L 587.453727 307.279351 
L 587.792022 307.705863 
L 588.299463 307.769117 
L 593.373882 307.74669 
L 593.712177 307.674816 
L 593.881324 307.725551 
L 594.050471 307.407145 
L 594.219619 307.746222 
L 595.234502 307.790461 
L 598.617448 307.712121 
L 598.786596 307.769655 
L 598.955743 306.224811 
L 599.12489 305.79398 
L 599.463185 307.447242 
L 600.478068 307.75679 
L 607.413107 307.747096 
L 607.582255 306.906708 
L 607.920549 307.14061 
L 608.258844 307.487732 
L 608.597138 307.672033 
L 609.10458 307.760218 
L 610.626906 307.762586 
L 610.796053 307.639612 
L 611.134348 307.761546 
L 612.656673 307.775118 
L 612.825821 307.450752 
L 612.994968 307.694818 
L 613.164115 307.482767 
L 613.50241 307.715151 
L 614.178999 307.771588 
L 616.885356 307.769383 
L 617.392798 307.76487 
L 618.238534 307.750323 
L 618.407681 307.701127 
L 618.745976 307.76709 
L 619.591712 307.729776 
L 619.76086 307.193367 
L 619.930007 307.155798 
L 620.268302 307.71752 
L 620.944891 307.777855 
L 622.636364 307.777385 
L 622.636364 307.777385 
" clip-path="url(#p9c8528a3d9)" style="fill: none; stroke: #ff7f0e; stroke-width: 1.5; stroke-linecap: square"/>
   </g>
   <g id="patch_3">
    <path d="M 90 320.4 
L 90 43.2 
" style="fill: none; stroke: #000000; stroke-width: 0.8; stroke-linejoin: miter; stroke-linecap: square"/>
   </g>
   <g id="patch_4">
    <path d="M 648 320.4 
L 648 43.2 
" style="fill: none; stroke: #000000; stroke-width: 0.8; stroke-linejoin: miter; stroke-linecap: square"/>
   </g>
   <g id="patch_5">
    <path d="M 90 320.4 
L 648 320.4 
" style="fill: none; stroke: #000000; stroke-width: 0.8; stroke-linejoin: miter; stroke-linecap: square"/>
   </g>
   <g id="patch_6">
    <path d="M 90 43.2 
L 648 43.2 
" style="fill: none; stroke: #000000; stroke-width: 0.8; stroke-linejoin: miter; stroke-linecap: square"/>
   </g>
   <g id="text_18">
    <!-- Training &amp; Validation Loss Curve -->
    <g transform="translate(272.53125 37.2) scale(0.12 -0.12)">
     <defs>
      <path id="DejaVuSans-54" d="M -19 4666 
L 3928 4666 
L 3928 4134 
L 2272 4134 
L 2272 0 
L 1638 0 
L 1638 4134 
L -19 4134 
L -19 4666 
z
" transform="scale(0.015625)"/>
      <path id="DejaVuSans-72" d="M 2631 2963 
Q 2534 3019 2420 3045 
Q 2306 3072 2169 3072 
Q 1681 3072 1420 2755 
Q 1159 2438 1159 1844 
L 1159 0 
L 581 0 
L 581 3500 
L 1159 3500 
L 1159 2956 
Q 1341 3275 1631 3429 
Q 1922 3584 2338 3584 
Q 2397 3584 2469 3576 
Q 2541 3569 2628 3553 
L 2631 2963 
z
" transform="scale(0.015625)"/>
      <path id="DejaVuSans-61" d="M 2194 1759 
Q 1497 1759 1228 1600 
Q 959 1441 959 1056 
Q 959 750 1161 570 
Q 1363 391 1709 391 
Q 2188 391 2477 730 
Q 2766 1069 2766 1631 
L 2766 1759 
L 2194 1759 
z
M 3341 1997 
L 3341 0 
L 2766 0 
L 2766 531 
Q 2569 213 2275 61 
Q 1981 -91 1556 -91 
Q 1019 -91 701 211 
Q 384 513 384 1019 
Q 384 1609 779 1909 
Q 1175 2209 1959 2209 
L 2766 2209 
L 2766 2266 
Q 2766 2663 2505 2880 
Q 2244 3097 1772 3097 
Q 1472 3097 1187 3025 
Q 903 2953 641 2809 
L 641 3341 
Q 956 3463 1253 3523 
Q 1550 3584 1831 3584 
Q 2591 3584 2966 3190 
Q 3341 2797 3341 1997 
z
" transform="scale(0.015625)"/>
      <path id="DejaVuSans-69" d="M 603 3500 
L 1178 3500 
L 1178 0 
L 603 0 
L 603 3500 
z
M 603 4863 
L 1178 4863 
L 1178 4134 
L 603 4134 
L 603 4863 
z
" transform="scale(0.015625)"/>
      <path id="DejaVuSans-6e" d="M 3513 2113 
L 3513 0 
L 2938 0 
L 2938 2094 
Q 2938 2591 2744 2837 
Q 2550 3084 2163 3084 
Q 1697 3084 1428 2787 
Q 1159 2491 1159 1978 
L 1159 0 
L 581 0 
L 581 3500 
L 1159 3500 
L 1159 2956 
Q 1366 3272 1645 3428 
Q 1925 3584 2291 3584 
Q 2894 3584 3203 3211 
Q 3513 2838 3513 2113 
z
" transform="scale(0.015625)"/>
      <path id="DejaVuSans-67" d="M 2906 1791 
Q 2906 2416 2648 2759 
Q 2391 3103 1925 3103 
Q 1463 3103 1205 2759 
Q 947 2416 947 1791 
Q 947 1169 1205 825 
Q 1463 481 1925 481 
Q 2391 481 2648 825 
Q 2906 1169 2906 1791 
z
M 3481 434 
Q 3481 -459 3084 -895 
Q 2688 -1331 1869 -1331 
Q 1566 -1331 1297 -1286 
Q 1028 -1241 775 -1147 
L 775 -588 
Q 1028 -725 1275 -790 
Q 1522 -856 1778 -856 
Q 2344 -856 2625 -561 
Q 2906 -266 2906 331 
L 2906 616 
Q 2728 306 2450 153 
Q 2172 0 1784 0 
Q 1141 0 747 490 
Q 353 981 353 1791 
Q 353 2603 747 3093 
Q 1141 3584 1784 3584 
Q 2172 3584 2450 3431 
Q 2728 3278 2906 2969 
L 2906 3500 
L 3481 3500 
L 3481 434 
z
" transform="scale(0.015625)"/>
      <path id="DejaVuSans-20" transform="scale(0.015625)"/>
      <path id="DejaVuSans-26" d="M 1556 2509 
Q 1272 2256 1139 2004 
Q 1006 1753 1006 1478 
Q 1006 1022 1337 719 
Q 1669 416 2169 416 
Q 2466 416 2725 514 
Q 2984 613 3213 813 
L 1556 2509 
z
M 1997 2859 
L 3584 1234 
Q 3769 1513 3872 1830 
Q 3975 2147 3994 2503 
L 4575 2503 
Q 4538 2091 4375 1687 
Q 4213 1284 3922 891 
L 4794 0 
L 4006 0 
L 3559 459 
Q 3234 181 2878 45 
Q 2522 -91 2113 -91 
Q 1359 -91 881 339 
Q 403 769 403 1441 
Q 403 1841 612 2192 
Q 822 2544 1241 2853 
Q 1091 3050 1012 3245 
Q 934 3441 934 3628 
Q 934 4134 1281 4442 
Q 1628 4750 2203 4750 
Q 2463 4750 2720 4694 
Q 2978 4638 3244 4525 
L 3244 3956 
Q 2972 4103 2725 4179 
Q 2478 4256 2266 4256 
Q 1938 4256 1733 4082 
Q 1528 3909 1528 3634 
Q 1528 3475 1620 3314 
Q 1713 3153 1997 2859 
z
" transform="scale(0.015625)"/>
      <path id="DejaVuSans-56" d="M 1831 0 
L 50 4666 
L 709 4666 
L 2188 738 
L 3669 4666 
L 4325 4666 
L 2547 0 
L 1831 0 
z
" transform="scale(0.015625)"/>
      <path id="DejaVuSans-6c" d="M 603 4863 
L 1178 4863 
L 1178 0 
L 603 0 
L 603 4863 
z
" transform="scale(0.015625)"/>
      <path id="DejaVuSans-64" d="M 2906 2969 
L 2906 4863 
L 3481 4863 
L 3481 0 
L 2906 0 
L 2906 525 
Q 2725 213 2448 61 
Q 2172 -91 1784 -91 
Q 1150 -91 751 415 
Q 353 922 353 1747 
Q 353 2572 751 3078 
Q 1150 3584 1784 3584 
Q 2172 3584 2448 3432 
Q 2725 3281 2906 2969 
z
M 947 1747 
Q 947 1113 1208 752 
Q 1469 391 1925 391 
Q 2381 391 2643 752 
Q 2906 1113 2906 1747 
Q 2906 2381 2643 2742 
Q 2381 3103 1925 3103 
Q 1469 3103 1208 2742 
Q 947 2381 947 1747 
z
" transform="scale(0.015625)"/>
      <path id="DejaVuSans-74" d="M 1172 4494 
L 1172 3500 
L 2356 3500 
L 2356 3053 
L 1172 3053 
L 1172 1153 
Q 1172 725 1289 603 
Q 1406 481 1766 481 
L 2356 481 
L 2356 0 
L 1766 0 
Q 1100 0 847 248 
Q 594 497 594 1153 
L 594 3053 
L 172 3053 
L 172 3500 
L 594 3500 
L 594 4494 
L 1172 4494 
z
" transform="scale(0.015625)"/>
      <path id="DejaVuSans-43" d="M 4122 4306 
L 4122 3641 
Q 3803 3938 3442 4084 
Q 3081 4231 2675 4231 
Q 1875 4231 1450 3742 
Q 1025 3253 1025 2328 
Q 1025 1406 1450 917 
Q 1875 428 2675 428 
Q 3081 428 3442 575 
Q 3803 722 4122 1019 
L 4122 359 
Q 3791 134 3420 21 
Q 3050 -91 2638 -91 
Q 1578 -91 968 557 
Q 359 1206 359 2328 
Q 359 3453 968 4101 
Q 1578 4750 2638 4750 
Q 3056 4750 3426 4639 
Q 3797 4528 4122 4306 
z
" transform="scale(0.015625)"/>
      <path id="DejaVuSans-75" d="M 544 1381 
L 544 3500 
L 1119 3500 
L 1119 1403 
Q 1119 906 1312 657 
Q 1506 409 1894 409 
Q 2359 409 2629 706 
Q 2900 1003 2900 1516 
L 2900 3500 
L 3475 3500 
L 3475 0 
L 2900 0 
L 2900 538 
Q 2691 219 2414 64 
Q 2138 -91 1772 -91 
Q 1169 -91 856 284 
Q 544 659 544 1381 
z
M 1991 3584 
L 1991 3584 
z
" transform="scale(0.015625)"/>
      <path id="DejaVuSans-76" d="M 191 3500 
L 800 3500 
L 1894 563 
L 2988 3500 
L 3597 3500 
L 2284 0 
L 1503 0 
L 191 3500 
z
" transform="scale(0.015625)"/>
      <path id="DejaVuSans-65" d="M 3597 1894 
L 3597 1613 
L 953 1613 
Q 991 1019 1311 708 
Q 1631 397 2203 397 
Q 2534 397 2845 478 
Q 3156 559 3463 722 
L 3463 178 
Q 3153 47 2828 -22 
Q 2503 -91 2169 -91 
Q 1331 -91 842 396 
Q 353 884 353 1716 
Q 353 2575 817 3079 
Q 1281 3584 2069 3584 
Q 2775 3584 3186 3129 
Q 3597 2675 3597 1894 
z
M 3022 2063 
Q 3016 2534 2758 2815 
Q 2500 3097 2075 3097 
Q 1594 3097 1305 2825 
Q 1016 2553 972 2059 
L 3022 2063 
z
" transform="scale(0.015625)"/>
     </defs>
     <use xlink:href="#DejaVuSans-54"/>
     <use xlink:href="#DejaVuSans-72" transform="translate(46.333984 0)"/>
     <use xlink:href="#DejaVuSans-61" transform="translate(87.447266 0)"/>
     <use xlink:href="#DejaVuSans-69" transform="translate(148.726562 0)"/>
     <use xlink:href="#DejaVuSans-6e" transform="translate(176.509766 0)"/>
     <use xlink:href="#DejaVuSans-69" transform="translate(239.888672 0)"/>
     <use xlink:href="#DejaVuSans-6e" transform="translate(267.671875 0)"/>
     <use xlink:href="#DejaVuSans-67" transform="translate(331.050781 0)"/>
     <use xlink:href="#DejaVuSans-20" transform="translate(394.527344 0)"/>
     <use xlink:href="#DejaVuSans-26" transform="translate(426.314453 0)"/>
     <use xlink:href="#DejaVuSans-20" transform="translate(504.292969 0)"/>
     <use xlink:href="#DejaVuSans-56" transform="translate(536.080078 0)"/>
     <use xlink:href="#DejaVuSans-61" transform="translate(596.738281 0)"/>
     <use xlink:href="#DejaVuSans-6c" transform="translate(658.017578 0)"/>
     <use xlink:href="#DejaVuSans-69" transform="translate(685.800781 0)"/>
     <use xlink:href="#DejaVuSans-64" transform="translate(713.583984 0)"/>
     <use xlink:href="#DejaVuSans-61" transform="translate(777.060547 0)"/>
     <use xlink:href="#DejaVuSans-74" transform="translate(838.339844 0)"/>
     <use xlink:href="#DejaVuSans-69" transform="translate(877.548828 0)"/>
     <use xlink:href="#DejaVuSans-6f" transform="translate(905.332031 0)"/>
     <use xlink:href="#DejaVuSans-6e" transform="translate(966.513672 0)"/>
     <use xlink:href="#DejaVuSans-20" transform="translate(1029.892578 0)"/>
     <use xlink:href="#DejaVuSans-4c" transform="translate(1061.679688 0)"/>
     <use xlink:href="#DejaVuSans-6f" transform="translate(1115.642578 0)"/>
     <use xlink:href="#DejaVuSans-73" transform="translate(1176.824219 0)"/>
     <use xlink:href="#DejaVuSans-73" transform="translate(1228.923828 0)"/>
     <use xlink:href="#DejaVuSans-20" transform="translate(1281.023438 0)"/>
     <use xlink:href="#DejaVuSans-43" transform="translate(1312.810547 0)"/>
     <use xlink:href="#DejaVuSans-75" transform="translate(1382.634766 0)"/>
     <use xlink:href="#DejaVuSans-72" transform="translate(1446.013672 0)"/>
     <use xlink:href="#DejaVuSans-76" transform="translate(1487.126953 0)"/>
     <use xlink:href="#DejaVuSans-65" transform="translate(1546.306641 0)"/>
    </g>
   </g>
   <g id="legend_1">
    <g id="patch_7">
     <path d="M 534.50625 80.55625 
L 641 80.55625 
Q 643 80.55625 643 78.55625 
L 643 50.2 
Q 643 48.2 641 48.2 
L 534.50625 48.2 
Q 532.50625 48.2 532.50625 50.2 
L 532.50625 78.55625 
Q 532.50625 80.55625 534.50625 80.55625 
z
" style="fill: #ffffff; opacity: 0.8; stroke: #cccccc; stroke-linejoin: miter"/>
    </g>
    <g id="line2d_33">
     <path d="M 536.50625 56.298437 
L 546.50625 56.298437 
L 556.50625 56.298437 
" style="fill: none; stroke: #1f77b4; stroke-width: 1.5; stroke-linecap: square"/>
    </g>
    <g id="text_19">
     <!-- Train Loss -->
     <g transform="translate(564.50625 59.798437) scale(0.1 -0.1)">
      <use xlink:href="#DejaVuSans-54"/>
      <use xlink:href="#DejaVuSans-72" transform="translate(46.333984 0)"/>
      <use xlink:href="#DejaVuSans-61" transform="translate(87.447266 0)"/>
      <use xlink:href="#DejaVuSans-69" transform="translate(148.726562 0)"/>
      <use xlink:href="#DejaVuSans-6e" transform="translate(176.509766 0)"/>
      <use xlink:href="#DejaVuSans-20" transform="translate(239.888672 0)"/>
      <use xlink:href="#DejaVuSans-4c" transform="translate(271.675781 0)"/>
      <use xlink:href="#DejaVuSans-6f" transform="translate(325.638672 0)"/>
      <use xlink:href="#DejaVuSans-73" transform="translate(386.820312 0)"/>
      <use xlink:href="#DejaVuSans-73" transform="translate(438.919922 0)"/>
     </g>
    </g>
    <g id="line2d_34">
     <path d="M 536.50625 70.976562 
L 546.50625 70.976562 
L 556.50625 70.976562 
" style="fill: none; stroke: #ff7f0e; stroke-width: 1.5; stroke-linecap: square"/>
    </g>
    <g id="text_20">
     <!-- Validation Loss -->
     <g transform="translate(564.50625 74.476562) scale(0.1 -0.1)">
      <use xlink:href="#DejaVuSans-56"/>
      <use xlink:href="#DejaVuSans-61" transform="translate(60.658203 0)"/>
      <use xlink:href="#DejaVuSans-6c" transform="translate(121.9375 0)"/>
      <use xlink:href="#DejaVuSans-69" transform="translate(149.720703 0)"/>
      <use xlink:href="#DejaVuSans-64" transform="translate(177.503906 0)"/>
      <use xlink:href="#DejaVuSans-61" transform="translate(240.980469 0)"/>
      <use xlink:href="#DejaVuSans-74" transform="translate(302.259766 0)"/>
      <use xlink:href="#DejaVuSans-69" transform="translate(341.46875 0)"/>
      <use xlink:href="#DejaVuSans-6f" transform="translate(369.251953 0)"/>
      <use xlink:href="#DejaVuSans-6e" transform="translate(430.433594 0)"/>
      <use xlink:href="#DejaVuSans-20" transform="translate(493.8125 0)"/>
      <use xlink:href="#DejaVuSans-4c" transform="translate(525.599609 0)"/>
      <use xlink:href="#DejaVuSans-6f" transform="translate(579.5625 0)"/>
      <use xlink:href="#DejaVuSans-73" transform="translate(640.744141 0)"/>
      <use xlink:href="#DejaVuSans-73" transform="translate(692.84375 0)"/>
     </g>
    </g>
   </g>
  </g>
 </g>
 <defs>
  <clipPath id="p9c8528a3d9">
   <rect x="90" y="43.2" width="558" height="277.2"/>
  </clipPath>
 </defs>
</svg>
