<?xml version="1.0" encoding="utf-8" standalone="no"?>
<!DOCTYPE svg PUBLIC "-//W3C//DTD SVG 1.1//EN"
  "http://www.w3.org/Graphics/SVG/1.1/DTD/svg11.dtd">
<svg xmlns:xlink="http://www.w3.org/1999/xlink" width="460.8pt" height="345.6pt" viewBox="0 0 460.8 345.6" xmlns="http://www.w3.org/2000/svg" version="1.1">
 <metadata>
  <rdf:RDF xmlns:dc="http://purl.org/dc/elements/1.1/" xmlns:cc="http://creativecommons.org/ns#" xmlns:rdf="http://www.w3.org/1999/02/22-rdf-syntax-ns#">
   <cc:Work>
    <dc:type rdf:resource="http://purl.org/dc/dcmitype/StillImage"/>
    <dc:date>2025-06-03T22:17:25.512504</dc:date>
    <dc:format>image/svg+xml</dc:format>
    <dc:creator>
     <cc:Agent>
      <dc:title>Matplotlib v3.10.0, https://matplotlib.org/</dc:title>
     </cc:Agent>
    </dc:creator>
   </cc:Work>
  </rdf:RDF>
 </metadata>
 <defs>
  <style type="text/css">*{stroke-linejoin: round; stroke-linecap: butt}</style>
 </defs>
 <g id="figure_1">
  <g id="patch_1">
   <path d="M 0 345.6 
L 460.8 345.6 
L 460.8 0 
L 0 0 
z
" style="fill: #ffffff"/>
  </g>
  <g id="axes_1">
   <g id="patch_2">
    <path d="M 57.6 307.584 
L 414.72 307.584 
L 414.72 41.472 
L 57.6 41.472 
z
" style="fill: #ffffff"/>
   </g>
   <g id="matplotlib.axis_1">
    <g id="xtick_1">
     <g id="line2d_1">
      <path d="M 73.832727 307.584 
L 73.832727 41.472 
" clip-path="url(#pd644e29e16)" style="fill: none; stroke: #b0b0b0; stroke-opacity: 0.5; stroke-width: 0.8; stroke-linecap: square"/>
     </g>
     <g id="line2d_2">
      <defs>
       <path id="m152c04780b" d="M 0 0 
L 0 3.5 
" style="stroke: #000000; stroke-width: 0.8"/>
      </defs>
      <g>
       <use xlink:href="#m152c04780b" x="73.832727" y="307.584" style="stroke: #000000; stroke-width: 0.8"/>
      </g>
     </g>
     <g id="text_1">
      <!-- −1.00 -->
      <g transform="translate(58.510071 322.182437) scale(0.1 -0.1)">
       <defs>
        <path id="DejaVuSans-2212" d="M 678 2272 
L 4684 2272 
L 4684 1741 
L 678 1741 
L 678 2272 
z
" transform="scale(0.015625)"/>
        <path id="DejaVuSans-31" d="M 794 531 
L 1825 531 
L 1825 4091 
L 703 3866 
L 703 4441 
L 1819 4666 
L 2450 4666 
L 2450 531 
L 3481 531 
L 3481 0 
L 794 0 
L 794 531 
z
" transform="scale(0.015625)"/>
        <path id="DejaVuSans-2e" d="M 684 794 
L 1344 794 
L 1344 0 
L 684 0 
L 684 794 
z
" transform="scale(0.015625)"/>
        <path id="DejaVuSans-30" d="M 2034 4250 
Q 1547 4250 1301 3770 
Q 1056 3291 1056 2328 
Q 1056 1369 1301 889 
Q 1547 409 2034 409 
Q 2525 409 2770 889 
Q 3016 1369 3016 2328 
Q 3016 3291 2770 3770 
Q 2525 4250 2034 4250 
z
M 2034 4750 
Q 2819 4750 3233 4129 
Q 3647 3509 3647 2328 
Q 3647 1150 3233 529 
Q 2819 -91 2034 -91 
Q 1250 -91 836 529 
Q 422 1150 422 2328 
Q 422 3509 836 4129 
Q 1250 4750 2034 4750 
z
" transform="scale(0.015625)"/>
       </defs>
       <use xlink:href="#DejaVuSans-2212"/>
       <use xlink:href="#DejaVuSans-31" transform="translate(83.789062 0)"/>
       <use xlink:href="#DejaVuSans-2e" transform="translate(147.412109 0)"/>
       <use xlink:href="#DejaVuSans-30" transform="translate(179.199219 0)"/>
       <use xlink:href="#DejaVuSans-30" transform="translate(242.822266 0)"/>
      </g>
     </g>
    </g>
    <g id="xtick_2">
     <g id="line2d_3">
      <path d="M 115.308478 307.584 
L 115.308478 41.472 
" clip-path="url(#pd644e29e16)" style="fill: none; stroke: #b0b0b0; stroke-opacity: 0.5; stroke-width: 0.8; stroke-linecap: square"/>
     </g>
     <g id="line2d_4">
      <g>
       <use xlink:href="#m152c04780b" x="115.308478" y="307.584" style="stroke: #000000; stroke-width: 0.8"/>
      </g>
     </g>
     <g id="text_2">
      <!-- −0.75 -->
      <g transform="translate(99.985821 322.182437) scale(0.1 -0.1)">
       <defs>
        <path id="DejaVuSans-37" d="M 525 4666 
L 3525 4666 
L 3525 4397 
L 1831 0 
L 1172 0 
L 2766 4134 
L 525 4134 
L 525 4666 
z
" transform="scale(0.015625)"/>
        <path id="DejaVuSans-35" d="M 691 4666 
L 3169 4666 
L 3169 4134 
L 1269 4134 
L 1269 2991 
Q 1406 3038 1543 3061 
Q 1681 3084 1819 3084 
Q 2600 3084 3056 2656 
Q 3513 2228 3513 1497 
Q 3513 744 3044 326 
Q 2575 -91 1722 -91 
Q 1428 -91 1123 -41 
Q 819 9 494 109 
L 494 744 
Q 775 591 1075 516 
Q 1375 441 1709 441 
Q 2250 441 2565 725 
Q 2881 1009 2881 1497 
Q 2881 1984 2565 2268 
Q 2250 2553 1709 2553 
Q 1456 2553 1204 2497 
Q 953 2441 691 2322 
L 691 4666 
z
" transform="scale(0.015625)"/>
       </defs>
       <use xlink:href="#DejaVuSans-2212"/>
       <use xlink:href="#DejaVuSans-30" transform="translate(83.789062 0)"/>
       <use xlink:href="#DejaVuSans-2e" transform="translate(147.412109 0)"/>
       <use xlink:href="#DejaVuSans-37" transform="translate(179.199219 0)"/>
       <use xlink:href="#DejaVuSans-35" transform="translate(242.822266 0)"/>
      </g>
     </g>
    </g>
    <g id="xtick_3">
     <g id="line2d_5">
      <path d="M 156.784228 307.584 
L 156.784228 41.472 
" clip-path="url(#pd644e29e16)" style="fill: none; stroke: #b0b0b0; stroke-opacity: 0.5; stroke-width: 0.8; stroke-linecap: square"/>
     </g>
     <g id="line2d_6">
      <g>
       <use xlink:href="#m152c04780b" x="156.784228" y="307.584" style="stroke: #000000; stroke-width: 0.8"/>
      </g>
     </g>
     <g id="text_3">
      <!-- −0.50 -->
      <g transform="translate(141.461572 322.182437) scale(0.1 -0.1)">
       <use xlink:href="#DejaVuSans-2212"/>
       <use xlink:href="#DejaVuSans-30" transform="translate(83.789062 0)"/>
       <use xlink:href="#DejaVuSans-2e" transform="translate(147.412109 0)"/>
       <use xlink:href="#DejaVuSans-35" transform="translate(179.199219 0)"/>
       <use xlink:href="#DejaVuSans-30" transform="translate(242.822266 0)"/>
      </g>
     </g>
    </g>
    <g id="xtick_4">
     <g id="line2d_7">
      <path d="M 198.259978 307.584 
L 198.259978 41.472 
" clip-path="url(#pd644e29e16)" style="fill: none; stroke: #b0b0b0; stroke-opacity: 0.5; stroke-width: 0.8; stroke-linecap: square"/>
     </g>
     <g id="line2d_8">
      <g>
       <use xlink:href="#m152c04780b" x="198.259978" y="307.584" style="stroke: #000000; stroke-width: 0.8"/>
      </g>
     </g>
     <g id="text_4">
      <!-- −0.25 -->
      <g transform="translate(182.937322 322.182437) scale(0.1 -0.1)">
       <defs>
        <path id="DejaVuSans-32" d="M 1228 531 
L 3431 531 
L 3431 0 
L 469 0 
L 469 531 
Q 828 903 1448 1529 
Q 2069 2156 2228 2338 
Q 2531 2678 2651 2914 
Q 2772 3150 2772 3378 
Q 2772 3750 2511 3984 
Q 2250 4219 1831 4219 
Q 1534 4219 1204 4116 
Q 875 4013 500 3803 
L 500 4441 
Q 881 4594 1212 4672 
Q 1544 4750 1819 4750 
Q 2544 4750 2975 4387 
Q 3406 4025 3406 3419 
Q 3406 3131 3298 2873 
Q 3191 2616 2906 2266 
Q 2828 2175 2409 1742 
Q 1991 1309 1228 531 
z
" transform="scale(0.015625)"/>
       </defs>
       <use xlink:href="#DejaVuSans-2212"/>
       <use xlink:href="#DejaVuSans-30" transform="translate(83.789062 0)"/>
       <use xlink:href="#DejaVuSans-2e" transform="translate(147.412109 0)"/>
       <use xlink:href="#DejaVuSans-32" transform="translate(179.199219 0)"/>
       <use xlink:href="#DejaVuSans-35" transform="translate(242.822266 0)"/>
      </g>
     </g>
    </g>
    <g id="xtick_5">
     <g id="line2d_9">
      <path d="M 239.735729 307.584 
L 239.735729 41.472 
" clip-path="url(#pd644e29e16)" style="fill: none; stroke: #b0b0b0; stroke-opacity: 0.5; stroke-width: 0.8; stroke-linecap: square"/>
     </g>
     <g id="line2d_10">
      <g>
       <use xlink:href="#m152c04780b" x="239.735729" y="307.584" style="stroke: #000000; stroke-width: 0.8"/>
      </g>
     </g>
     <g id="text_5">
      <!-- 0.00 -->
      <g transform="translate(228.602916 322.182437) scale(0.1 -0.1)">
       <use xlink:href="#DejaVuSans-30"/>
       <use xlink:href="#DejaVuSans-2e" transform="translate(63.623047 0)"/>
       <use xlink:href="#DejaVuSans-30" transform="translate(95.410156 0)"/>
       <use xlink:href="#DejaVuSans-30" transform="translate(159.033203 0)"/>
      </g>
     </g>
    </g>
    <g id="xtick_6">
     <g id="line2d_11">
      <path d="M 281.211479 307.584 
L 281.211479 41.472 
" clip-path="url(#pd644e29e16)" style="fill: none; stroke: #b0b0b0; stroke-opacity: 0.5; stroke-width: 0.8; stroke-linecap: square"/>
     </g>
     <g id="line2d_12">
      <g>
       <use xlink:href="#m152c04780b" x="281.211479" y="307.584" style="stroke: #000000; stroke-width: 0.8"/>
      </g>
     </g>
     <g id="text_6">
      <!-- 0.25 -->
      <g transform="translate(270.078667 322.182437) scale(0.1 -0.1)">
       <use xlink:href="#DejaVuSans-30"/>
       <use xlink:href="#DejaVuSans-2e" transform="translate(63.623047 0)"/>
       <use xlink:href="#DejaVuSans-32" transform="translate(95.410156 0)"/>
       <use xlink:href="#DejaVuSans-35" transform="translate(159.033203 0)"/>
      </g>
     </g>
    </g>
    <g id="xtick_7">
     <g id="line2d_13">
      <path d="M 322.68723 307.584 
L 322.68723 41.472 
" clip-path="url(#pd644e29e16)" style="fill: none; stroke: #b0b0b0; stroke-opacity: 0.5; stroke-width: 0.8; stroke-linecap: square"/>
     </g>
     <g id="line2d_14">
      <g>
       <use xlink:href="#m152c04780b" x="322.68723" y="307.584" style="stroke: #000000; stroke-width: 0.8"/>
      </g>
     </g>
     <g id="text_7">
      <!-- 0.50 -->
      <g transform="translate(311.554417 322.182437) scale(0.1 -0.1)">
       <use xlink:href="#DejaVuSans-30"/>
       <use xlink:href="#DejaVuSans-2e" transform="translate(63.623047 0)"/>
       <use xlink:href="#DejaVuSans-35" transform="translate(95.410156 0)"/>
       <use xlink:href="#DejaVuSans-30" transform="translate(159.033203 0)"/>
      </g>
     </g>
    </g>
    <g id="xtick_8">
     <g id="line2d_15">
      <path d="M 364.16298 307.584 
L 364.16298 41.472 
" clip-path="url(#pd644e29e16)" style="fill: none; stroke: #b0b0b0; stroke-opacity: 0.5; stroke-width: 0.8; stroke-linecap: square"/>
     </g>
     <g id="line2d_16">
      <g>
       <use xlink:href="#m152c04780b" x="364.16298" y="307.584" style="stroke: #000000; stroke-width: 0.8"/>
      </g>
     </g>
     <g id="text_8">
      <!-- 0.75 -->
      <g transform="translate(353.030167 322.182437) scale(0.1 -0.1)">
       <use xlink:href="#DejaVuSans-30"/>
       <use xlink:href="#DejaVuSans-2e" transform="translate(63.623047 0)"/>
       <use xlink:href="#DejaVuSans-37" transform="translate(95.410156 0)"/>
       <use xlink:href="#DejaVuSans-35" transform="translate(159.033203 0)"/>
      </g>
     </g>
    </g>
    <g id="xtick_9">
     <g id="line2d_17">
      <path d="M 405.63873 307.584 
L 405.63873 41.472 
" clip-path="url(#pd644e29e16)" style="fill: none; stroke: #b0b0b0; stroke-opacity: 0.5; stroke-width: 0.8; stroke-linecap: square"/>
     </g>
     <g id="line2d_18">
      <g>
       <use xlink:href="#m152c04780b" x="405.63873" y="307.584" style="stroke: #000000; stroke-width: 0.8"/>
      </g>
     </g>
     <g id="text_9">
      <!-- 1.00 -->
      <g transform="translate(394.505918 322.182437) scale(0.1 -0.1)">
       <use xlink:href="#DejaVuSans-31"/>
       <use xlink:href="#DejaVuSans-2e" transform="translate(63.623047 0)"/>
       <use xlink:href="#DejaVuSans-30" transform="translate(95.410156 0)"/>
       <use xlink:href="#DejaVuSans-30" transform="translate(159.033203 0)"/>
      </g>
     </g>
    </g>
    <g id="text_10">
     <!-- Index -->
     <g transform="translate(222.393594 335.860562) scale(0.1 -0.1)">
      <defs>
       <path id="DejaVuSans-49" d="M 628 4666 
L 1259 4666 
L 1259 0 
L 628 0 
L 628 4666 
z
" transform="scale(0.015625)"/>
       <path id="DejaVuSans-6e" d="M 3513 2113 
L 3513 0 
L 2938 0 
L 2938 2094 
Q 2938 2591 2744 2837 
Q 2550 3084 2163 3084 
Q 1697 3084 1428 2787 
Q 1159 2491 1159 1978 
L 1159 0 
L 581 0 
L 581 3500 
L 1159 3500 
L 1159 2956 
Q 1366 3272 1645 3428 
Q 1925 3584 2291 3584 
Q 2894 3584 3203 3211 
Q 3513 2838 3513 2113 
z
" transform="scale(0.015625)"/>
       <path id="DejaVuSans-64" d="M 2906 2969 
L 2906 4863 
L 3481 4863 
L 3481 0 
L 2906 0 
L 2906 525 
Q 2725 213 2448 61 
Q 2172 -91 1784 -91 
Q 1150 -91 751 415 
Q 353 922 353 1747 
Q 353 2572 751 3078 
Q 1150 3584 1784 3584 
Q 2172 3584 2448 3432 
Q 2725 3281 2906 2969 
z
M 947 1747 
Q 947 1113 1208 752 
Q 1469 391 1925 391 
Q 2381 391 2643 752 
Q 2906 1113 2906 1747 
Q 2906 2381 2643 2742 
Q 2381 3103 1925 3103 
Q 1469 3103 1208 2742 
Q 947 2381 947 1747 
z
" transform="scale(0.015625)"/>
       <path id="DejaVuSans-65" d="M 3597 1894 
L 3597 1613 
L 953 1613 
Q 991 1019 1311 708 
Q 1631 397 2203 397 
Q 2534 397 2845 478 
Q 3156 559 3463 722 
L 3463 178 
Q 3153 47 2828 -22 
Q 2503 -91 2169 -91 
Q 1331 -91 842 396 
Q 353 884 353 1716 
Q 353 2575 817 3079 
Q 1281 3584 2069 3584 
Q 2775 3584 3186 3129 
Q 3597 2675 3597 1894 
z
M 3022 2063 
Q 3016 2534 2758 2815 
Q 2500 3097 2075 3097 
Q 1594 3097 1305 2825 
Q 1016 2553 972 2059 
L 3022 2063 
z
" transform="scale(0.015625)"/>
       <path id="DejaVuSans-78" d="M 3513 3500 
L 2247 1797 
L 3578 0 
L 2900 0 
L 1881 1375 
L 863 0 
L 184 0 
L 1544 1831 
L 300 3500 
L 978 3500 
L 1906 2253 
L 2834 3500 
L 3513 3500 
z
" transform="scale(0.015625)"/>
      </defs>
      <use xlink:href="#DejaVuSans-49"/>
      <use xlink:href="#DejaVuSans-6e" transform="translate(29.492188 0)"/>
      <use xlink:href="#DejaVuSans-64" transform="translate(92.871094 0)"/>
      <use xlink:href="#DejaVuSans-65" transform="translate(156.347656 0)"/>
      <use xlink:href="#DejaVuSans-78" transform="translate(216.121094 0)"/>
     </g>
    </g>
   </g>
   <g id="matplotlib.axis_2">
    <g id="ytick_1">
     <g id="line2d_19">
      <path d="M 57.6 295.488037 
L 414.72 295.488037 
" clip-path="url(#pd644e29e16)" style="fill: none; stroke: #b0b0b0; stroke-opacity: 0.5; stroke-width: 0.8; stroke-linecap: square"/>
     </g>
     <g id="line2d_20">
      <defs>
       <path id="m7ee5d3d5bc" d="M 0 0 
L -3.5 0 
" style="stroke: #000000; stroke-width: 0.8"/>
      </defs>
      <g>
       <use xlink:href="#m7ee5d3d5bc" x="57.6" y="295.488037" style="stroke: #000000; stroke-width: 0.8"/>
      </g>
     </g>
     <g id="text_11">
      <!-- −1.00 -->
      <g transform="translate(19.954687 299.287255) scale(0.1 -0.1)">
       <use xlink:href="#DejaVuSans-2212"/>
       <use xlink:href="#DejaVuSans-31" transform="translate(83.789062 0)"/>
       <use xlink:href="#DejaVuSans-2e" transform="translate(147.412109 0)"/>
       <use xlink:href="#DejaVuSans-30" transform="translate(179.199219 0)"/>
       <use xlink:href="#DejaVuSans-30" transform="translate(242.822266 0)"/>
      </g>
     </g>
    </g>
    <g id="ytick_2">
     <g id="line2d_21">
      <path d="M 57.6 264.813747 
L 414.72 264.813747 
" clip-path="url(#pd644e29e16)" style="fill: none; stroke: #b0b0b0; stroke-opacity: 0.5; stroke-width: 0.8; stroke-linecap: square"/>
     </g>
     <g id="line2d_22">
      <g>
       <use xlink:href="#m7ee5d3d5bc" x="57.6" y="264.813747" style="stroke: #000000; stroke-width: 0.8"/>
      </g>
     </g>
     <g id="text_12">
      <!-- −0.75 -->
      <g transform="translate(19.954687 268.612966) scale(0.1 -0.1)">
       <use xlink:href="#DejaVuSans-2212"/>
       <use xlink:href="#DejaVuSans-30" transform="translate(83.789062 0)"/>
       <use xlink:href="#DejaVuSans-2e" transform="translate(147.412109 0)"/>
       <use xlink:href="#DejaVuSans-37" transform="translate(179.199219 0)"/>
       <use xlink:href="#DejaVuSans-35" transform="translate(242.822266 0)"/>
      </g>
     </g>
    </g>
    <g id="ytick_3">
     <g id="line2d_23">
      <path d="M 57.6 234.139457 
L 414.72 234.139457 
" clip-path="url(#pd644e29e16)" style="fill: none; stroke: #b0b0b0; stroke-opacity: 0.5; stroke-width: 0.8; stroke-linecap: square"/>
     </g>
     <g id="line2d_24">
      <g>
       <use xlink:href="#m7ee5d3d5bc" x="57.6" y="234.139457" style="stroke: #000000; stroke-width: 0.8"/>
      </g>
     </g>
     <g id="text_13">
      <!-- −0.50 -->
      <g transform="translate(19.954687 237.938676) scale(0.1 -0.1)">
       <use xlink:href="#DejaVuSans-2212"/>
       <use xlink:href="#DejaVuSans-30" transform="translate(83.789062 0)"/>
       <use xlink:href="#DejaVuSans-2e" transform="translate(147.412109 0)"/>
       <use xlink:href="#DejaVuSans-35" transform="translate(179.199219 0)"/>
       <use xlink:href="#DejaVuSans-30" transform="translate(242.822266 0)"/>
      </g>
     </g>
    </g>
    <g id="ytick_4">
     <g id="line2d_25">
      <path d="M 57.6 203.465168 
L 414.72 203.465168 
" clip-path="url(#pd644e29e16)" style="fill: none; stroke: #b0b0b0; stroke-opacity: 0.5; stroke-width: 0.8; stroke-linecap: square"/>
     </g>
     <g id="line2d_26">
      <g>
       <use xlink:href="#m7ee5d3d5bc" x="57.6" y="203.465168" style="stroke: #000000; stroke-width: 0.8"/>
      </g>
     </g>
     <g id="text_14">
      <!-- −0.25 -->
      <g transform="translate(19.954687 207.264386) scale(0.1 -0.1)">
       <use xlink:href="#DejaVuSans-2212"/>
       <use xlink:href="#DejaVuSans-30" transform="translate(83.789062 0)"/>
       <use xlink:href="#DejaVuSans-2e" transform="translate(147.412109 0)"/>
       <use xlink:href="#DejaVuSans-32" transform="translate(179.199219 0)"/>
       <use xlink:href="#DejaVuSans-35" transform="translate(242.822266 0)"/>
      </g>
     </g>
    </g>
    <g id="ytick_5">
     <g id="line2d_27">
      <path d="M 57.6 172.790878 
L 414.72 172.790878 
" clip-path="url(#pd644e29e16)" style="fill: none; stroke: #b0b0b0; stroke-opacity: 0.5; stroke-width: 0.8; stroke-linecap: square"/>
     </g>
     <g id="line2d_28">
      <g>
       <use xlink:href="#m7ee5d3d5bc" x="57.6" y="172.790878" style="stroke: #000000; stroke-width: 0.8"/>
      </g>
     </g>
     <g id="text_15">
      <!-- 0.00 -->
      <g transform="translate(28.334375 176.590097) scale(0.1 -0.1)">
       <use xlink:href="#DejaVuSans-30"/>
       <use xlink:href="#DejaVuSans-2e" transform="translate(63.623047 0)"/>
       <use xlink:href="#DejaVuSans-30" transform="translate(95.410156 0)"/>
       <use xlink:href="#DejaVuSans-30" transform="translate(159.033203 0)"/>
      </g>
     </g>
    </g>
    <g id="ytick_6">
     <g id="line2d_29">
      <path d="M 57.6 142.116588 
L 414.72 142.116588 
" clip-path="url(#pd644e29e16)" style="fill: none; stroke: #b0b0b0; stroke-opacity: 0.5; stroke-width: 0.8; stroke-linecap: square"/>
     </g>
     <g id="line2d_30">
      <g>
       <use xlink:href="#m7ee5d3d5bc" x="57.6" y="142.116588" style="stroke: #000000; stroke-width: 0.8"/>
      </g>
     </g>
     <g id="text_16">
      <!-- 0.25 -->
      <g transform="translate(28.334375 145.915807) scale(0.1 -0.1)">
       <use xlink:href="#DejaVuSans-30"/>
       <use xlink:href="#DejaVuSans-2e" transform="translate(63.623047 0)"/>
       <use xlink:href="#DejaVuSans-32" transform="translate(95.410156 0)"/>
       <use xlink:href="#DejaVuSans-35" transform="translate(159.033203 0)"/>
      </g>
     </g>
    </g>
    <g id="ytick_7">
     <g id="line2d_31">
      <path d="M 57.6 111.442299 
L 414.72 111.442299 
" clip-path="url(#pd644e29e16)" style="fill: none; stroke: #b0b0b0; stroke-opacity: 0.5; stroke-width: 0.8; stroke-linecap: square"/>
     </g>
     <g id="line2d_32">
      <g>
       <use xlink:href="#m7ee5d3d5bc" x="57.6" y="111.442299" style="stroke: #000000; stroke-width: 0.8"/>
      </g>
     </g>
     <g id="text_17">
      <!-- 0.50 -->
      <g transform="translate(28.334375 115.241517) scale(0.1 -0.1)">
       <use xlink:href="#DejaVuSans-30"/>
       <use xlink:href="#DejaVuSans-2e" transform="translate(63.623047 0)"/>
       <use xlink:href="#DejaVuSans-35" transform="translate(95.410156 0)"/>
       <use xlink:href="#DejaVuSans-30" transform="translate(159.033203 0)"/>
      </g>
     </g>
    </g>
    <g id="ytick_8">
     <g id="line2d_33">
      <path d="M 57.6 80.768009 
L 414.72 80.768009 
" clip-path="url(#pd644e29e16)" style="fill: none; stroke: #b0b0b0; stroke-opacity: 0.5; stroke-width: 0.8; stroke-linecap: square"/>
     </g>
     <g id="line2d_34">
      <g>
       <use xlink:href="#m7ee5d3d5bc" x="57.6" y="80.768009" style="stroke: #000000; stroke-width: 0.8"/>
      </g>
     </g>
     <g id="text_18">
      <!-- 0.75 -->
      <g transform="translate(28.334375 84.567228) scale(0.1 -0.1)">
       <use xlink:href="#DejaVuSans-30"/>
       <use xlink:href="#DejaVuSans-2e" transform="translate(63.623047 0)"/>
       <use xlink:href="#DejaVuSans-37" transform="translate(95.410156 0)"/>
       <use xlink:href="#DejaVuSans-35" transform="translate(159.033203 0)"/>
      </g>
     </g>
    </g>
    <g id="ytick_9">
     <g id="line2d_35">
      <path d="M 57.6 50.093719 
L 414.72 50.093719 
" clip-path="url(#pd644e29e16)" style="fill: none; stroke: #b0b0b0; stroke-opacity: 0.5; stroke-width: 0.8; stroke-linecap: square"/>
     </g>
     <g id="line2d_36">
      <g>
       <use xlink:href="#m7ee5d3d5bc" x="57.6" y="50.093719" style="stroke: #000000; stroke-width: 0.8"/>
      </g>
     </g>
     <g id="text_19">
      <!-- 1.00 -->
      <g transform="translate(28.334375 53.892938) scale(0.1 -0.1)">
       <use xlink:href="#DejaVuSans-31"/>
       <use xlink:href="#DejaVuSans-2e" transform="translate(63.623047 0)"/>
       <use xlink:href="#DejaVuSans-30" transform="translate(95.410156 0)"/>
       <use xlink:href="#DejaVuSans-30" transform="translate(159.033203 0)"/>
      </g>
     </g>
    </g>
    <g id="text_20">
     <!-- Value -->
     <g transform="translate(13.875 188.25925) rotate(-90) scale(0.1 -0.1)">
      <defs>
       <path id="DejaVuSans-56" d="M 1831 0 
L 50 4666 
L 709 4666 
L 2188 738 
L 3669 4666 
L 4325 4666 
L 2547 0 
L 1831 0 
z
" transform="scale(0.015625)"/>
       <path id="DejaVuSans-61" d="M 2194 1759 
Q 1497 1759 1228 1600 
Q 959 1441 959 1056 
Q 959 750 1161 570 
Q 1363 391 1709 391 
Q 2188 391 2477 730 
Q 2766 1069 2766 1631 
L 2766 1759 
L 2194 1759 
z
M 3341 1997 
L 3341 0 
L 2766 0 
L 2766 531 
Q 2569 213 2275 61 
Q 1981 -91 1556 -91 
Q 1019 -91 701 211 
Q 384 513 384 1019 
Q 384 1609 779 1909 
Q 1175 2209 1959 2209 
L 2766 2209 
L 2766 2266 
Q 2766 2663 2505 2880 
Q 2244 3097 1772 3097 
Q 1472 3097 1187 3025 
Q 903 2953 641 2809 
L 641 3341 
Q 956 3463 1253 3523 
Q 1550 3584 1831 3584 
Q 2591 3584 2966 3190 
Q 3341 2797 3341 1997 
z
" transform="scale(0.015625)"/>
       <path id="DejaVuSans-6c" d="M 603 4863 
L 1178 4863 
L 1178 0 
L 603 0 
L 603 4863 
z
" transform="scale(0.015625)"/>
       <path id="DejaVuSans-75" d="M 544 1381 
L 544 3500 
L 1119 3500 
L 1119 1403 
Q 1119 906 1312 657 
Q 1506 409 1894 409 
Q 2359 409 2629 706 
Q 2900 1003 2900 1516 
L 2900 3500 
L 3475 3500 
L 3475 0 
L 2900 0 
L 2900 538 
Q 2691 219 2414 64 
Q 2138 -91 1772 -91 
Q 1169 -91 856 284 
Q 544 659 544 1381 
z
M 1991 3584 
L 1991 3584 
z
" transform="scale(0.015625)"/>
      </defs>
      <use xlink:href="#DejaVuSans-56"/>
      <use xlink:href="#DejaVuSans-61" transform="translate(60.658203 0)"/>
      <use xlink:href="#DejaVuSans-6c" transform="translate(121.9375 0)"/>
      <use xlink:href="#DejaVuSans-75" transform="translate(149.720703 0)"/>
      <use xlink:href="#DejaVuSans-65" transform="translate(213.099609 0)"/>
     </g>
    </g>
   </g>
   <g id="line2d_37">
    <path d="M 242.955763 173.711762 
L 256.881974 173.415636 
L 248.585744 173.119649 
L 248.401493 172.823811 
L 248.020513 172.528086 
L 249.890675 171.048484 
L 262.78677 161.22855 
L 280.822924 147.730675 
L 291.881069 139.466362 
L 296.89323 135.099348 
L 302.002199 130.460263 
L 312.041491 120.835586 
L 319.034009 114.668394 
L 327.53253 107.949822 
L 343.313828 95.896344 
L 349.338788 91.351035 
L 358.982921 84.22277 
L 363.520884 80.785005 
L 365.680621 79.060561 
L 367.60143 77.629834 
L 369.428881 76.194097 
L 371.382075 74.767963 
L 373.286667 73.051629 
L 374.611956 71.916946 
L 375.726963 70.774898 
L 378.057882 68.798012 
L 378.861162 67.944255 
L 380.983797 66.263149 
L 381.645037 65.129797 
L 382.681678 64.292904 
L 383.315111 63.740273 
L 383.617613 63.180899 
L 383.811419 62.614029 
L 384.293656 62.050391 
L 385.844207 60.95166 
L 386.081909 60.395438 
L 386.119772 59.827076 
L 386.260546 59.542888 
L 387.014521 58.986095 
L 388.44895 58.176343 
L 388.578392 57.902532 
L 388.312013 57.33583 
L 388.162844 57.045901 
L 388.191194 56.757178 
L 388.504326 56.474621 
L 389.980713 55.937852 
L 390.798707 55.679231 
L 391.219367 55.41816 
L 390.980775 55.146302 
L 388.570006 54.249331 
L 388.462369 53.96289 
L 390.020603 53.728622 
L 394.40467 53.584587 
L 398.487273 53.568 
L 382.057975 54.505553 
L 378.045294 55.142609 
L 375.911534 55.901125 
L 374.956306 56.743751 
L 374.167681 58.552013 
L 373.106695 59.484206 
L 371.033058 60.440144 
L 357.468257 64.991048 
L 354.740588 66.401005 
L 352.892252 67.902503 
L 352.114406 69.453322 
L 352.413803 70.998978 
L 353.81199 72.482653 
L 358.116988 75.09021 
L 359.217785 76.17999 
L 358.413794 77.147396 
L 355.416839 78.036864 
L 341.05655 80.825828 
L 337.025042 81.960131 
L 333.752136 83.230031 
L 331.402577 84.616973 
L 330.124418 86.080295 
L 330.119938 87.565601 
L 331.154601 89.016096 
L 334.344215 91.64054 
L 334.860459 92.780058 
L 333.712641 93.821774 
L 330.760412 94.804436 
L 322.165972 96.791202 
L 318.121519 97.884338 
L 314.686471 99.077741 
L 311.977333 100.369822 
L 310.119653 101.737676 
L 309.240063 103.142938 
L 309.324136 104.540835 
L 310.667461 107.162624 
L 310.733013 108.347872 
L 309.646316 109.45573 
L 307.314735 110.51249 
L 297.174866 113.735654 
L 294.293727 114.921216 
L 291.996746 116.175118 
L 290.340576 117.481672 
L 289.319331 118.814433 
L 288.944228 120.14304 
L 288.671787 122.688898 
L 288.022848 123.883017 
L 286.684398 125.03017 
L 284.67295 126.147558 
L 277.262473 129.535717 
L 275.127384 130.728648 
L 273.350983 131.958704 
L 271.941804 133.216533 
L 270.850702 134.487775 
L 268.186775 138.239026 
L 267.037103 139.441079 
L 265.59955 140.619541 
L 263.892344 141.782172 
L 256.34734 146.466281 
L 253.203792 148.901759 
L 250.665817 151.374234 
L 247.219463 155.03517 
L 245.900379 156.22809 
L 242.809893 158.585238 
L 237.822514 162.136028 
L 234.914812 164.555925 
L 232.48962 167.000377 
L 230.108581 169.428977 
L 227.327183 171.820642 
L 222.450885 175.378934 
L 219.221538 177.773494 
L 216.310006 180.188974 
L 212.176171 183.802036 
L 209.118283 186.187855 
L 202.711569 190.959082 
L 198.34989 194.551833 
L 193.934858 198.125173 
L 186.33965 204.077914 
L 179.239469 210.018568 
L 174.140196 214.759878 
L 170.627452 218.317417 
L 167.122565 221.860213 
L 161.138945 227.788515 
L 157.614721 231.33395 
L 155.008158 233.682433 
L 150.560241 237.224377 
L 147.846219 239.608739 
L 143.99933 243.174195 
L 141.171164 245.524279 
L 133.608113 251.427701 
L 126.562207 257.366907 
L 117.096552 264.452937 
L 109.901199 270.349726 
L 105.18983 273.889051 
L 103.897678 275.081649 
L 98.568322 280.975322 
L 95.83117 283.282353 
L 93.442077 285.640446 
L 92.523852 286.850018 
L 91.91876 288.069843 
L 91.729215 289.27894 
L 92.045512 290.447045 
L 92.976908 291.538405 
L 94.411782 292.517468 
L 96.061545 293.355092 
L 97.663674 294.033563 
L 99.244049 294.550111 
L 101.068869 294.916947 
L 103.74749 295.307003 
L 103.411021 295.394148 
L 101.423435 295.488 
L 101.716532 295.464978 
L 101.208368 295.384772 
L 92.134123 294.947202 
L 89.624874 294.553182 
L 93.189631 293.434178 
L 93.485359 292.771343 
L 91.23705 292.10537 
L 86.589354 291.49323 
L 81.017638 290.986446 
L 78.390635 290.621197 
L 83.228835 290.410698 
L 99.222284 290.3728 
L 108.397669 290.49211 
L 111.553938 290.445422 
L 99.132525 289.90417 
L 99.206086 289.396172 
L 100.796656 288.77266 
L 99.921654 288.096332 
L 95.536955 287.440481 
L 83.834986 286.44777 
L 86.102133 286.182516 
L 103.58335 286.055206 
L 114.381195 286.083136 
L 115.492415 285.984457 
L 108.791472 285.74545 
L 103.918286 285.352769 
L 105.137272 284.210209 
L 102.952646 283.571032 
L 97.950562 282.975106 
L 92.268974 282.478663 
L 90.005397 282.11552 
L 94.532561 281.890767 
L 118.597947 281.623612 
L 109.938618 281.145489 
L 107.786732 280.724614 
L 108.226764 280.207241 
L 107.893558 279.636414 
L 105.41972 279.064396 
L 97.91607 278.107133 
L 97.670992 277.780571 
L 102.119888 277.559621 
L 119.447643 277.225841 
L 120.117724 277.078537 
L 113.296466 276.522241 
L 112.292349 276.10057 
L 112.532375 275.607162 
L 111.904113 275.078614 
L 109.699521 274.557818 
L 104.435212 273.689866 
L 105.199383 273.385222 
L 109.442042 273.165245 
L 123.082244 272.729451 
L 122.679877 272.534975 
L 119.953257 272.266788 
L 117.783908 271.916312 
L 117.282388 271.492308 
L 117.114421 271.018624 
L 116.079422 270.528558 
L 111.965086 269.636743 
L 111.292761 269.284526 
L 113.155326 269.005311 
L 126.463756 268.24874 
L 125.540359 268.010158 
L 123.719217 267.710473 
L 122.568828 267.348529 
L 121.729594 266.494048 
L 120.714451 266.049479 
L 118.417866 265.250557 
L 118.804747 264.927337 
L 120.895432 264.657966 
L 129.59829 264.023389 
L 130.225682 263.79661 
L 127.8054 262.85464 
L 126.821654 262.046518 
L 125.133088 261.254515 
L 124.927386 260.908543 
L 125.86963 260.606313 
L 130.602299 260.110514 
L 134.241448 259.657366 
L 134.417801 259.402548 
L 132.624644 258.42649 
L 130.94479 256.945923 
L 131.505552 256.630412 
L 132.86643 256.346063 
L 137.925205 255.592359 
L 138.522742 255.332575 
L 138.498486 255.051122 
L 137.549369 254.066654 
L 137.215916 253.360948 
L 137.313249 253.022144 
L 137.777004 252.701755 
L 138.680446 252.401594 
L 143.280736 251.311873 
L 143.713461 251.030273 
L 143.845187 250.73344 
L 143.784253 249.420582 
L 143.93451 249.087248 
L 144.286692 248.763451 
L 144.887958 248.452072 
L 146.713204 247.86422 
L 148.509318 247.296406 
L 149.470479 246.707837 
L 149.76947 246.077802 
L 149.942738 245.419647 
L 150.128921 245.090219 
L 150.442033 244.765763 
L 151.530638 244.139107 
L 154.171959 242.937075 
L 154.915304 242.320284 
L 156.361273 240.716612 
L 157.826337 239.771584 
L 160.368594 238.231465 
L 161.940851 236.973289 
L 163.576364 235.703433 
L 167.850786 232.901919 
L 169.471476 231.634418 
L 173.980203 228.512252 
L 177.283536 226.010233 
L 180.289277 223.852595 
L 182.261585 222.305078 
L 184.907085 220.480438 
L 187.584025 218.337869 
L 190.482746 216.220279 
L 194.049437 213.496173 
L 196.503359 211.691999 
L 198.444766 210.179545 
L 201.334371 208.074713 
L 203.244527 206.555762 
L 205.674156 204.736841 
L 209.08926 201.983847 
L 231.534956 184.212645 
L 237.199501 179.69393 
L 245.083362 173.748753 
L 245.083362 173.748753 
" clip-path="url(#pd644e29e16)" style="fill: none; stroke: #1f77b4; stroke-width: 1.5; stroke-linecap: square"/>
   </g>
   <g id="line2d_38">
    <path d="M 240.422579 173.711762 
L 264.596206 154.915565 
L 280.707856 142.401022 
L 290.338835 135.099348 
L 312.502897 117.899419 
L 322.13553 110.278406 
L 336.521238 99.313486 
L 341.053386 95.896344 
L 348.856679 89.930766 
L 357.236241 83.363711 
L 359.368863 81.643092 
L 361.175904 80.210178 
L 362.585354 79.060561 
L 364.79934 77.342347 
L 366.18134 76.194097 
L 368.451246 74.481179 
L 369.805043 73.335701 
L 372.117648 71.631543 
L 373.44087 70.491236 
L 375.852776 68.798012 
L 377.103752 67.661844 
L 379.605466 65.980716 
L 380.759593 64.848607 
L 383.384598 63.180899 
L 384.350199 62.050391 
L 385.332848 61.498455 
L 386.899962 60.675377 
L 387.354926 60.112113 
L 387.58176 59.542888 
L 387.838359 59.262049 
L 388.893868 58.714771 
L 390.824812 57.902532 
L 391.105292 57.6223 
L 391.130113 57.33583 
L 390.859383 56.757178 
L 390.937107 56.474621 
L 391.384052 56.201549 
L 393.425106 55.679231 
L 395.534372 55.146302 
L 395.691541 54.858209 
L 394.806898 54.555357 
L 392.75818 54.249331 
L 389.672396 53.96289 
L 382.071255 53.584587 
L 378.727033 53.568 
L 376.419362 53.708328 
L 375.453356 54.021323 
L 375.825671 54.505553 
L 380.609593 56.743751 
L 381.281859 57.635545 
L 380.622567 58.552013 
L 378.522349 59.484206 
L 375.230685 60.440144 
L 367.47985 62.518093 
L 364.500764 63.695962 
L 362.939386 64.991048 
L 363.05618 66.401005 
L 364.729171 67.902503 
L 367.469714 69.453322 
L 370.520908 70.998978 
L 373.01659 72.482653 
L 374.165189 73.856197 
L 373.419164 75.09021 
L 370.593174 76.17999 
L 365.906605 77.147396 
L 347.590505 79.819201 
L 342.927778 80.825828 
L 340.095903 81.960131 
L 339.276604 83.230031 
L 340.249275 84.616973 
L 342.440607 86.080295 
L 345.044964 87.565601 
L 347.192529 89.016096 
L 348.129611 90.384141 
L 347.373203 91.64054 
L 344.808103 92.780058 
L 340.704052 93.821774 
L 325.80167 96.791202 
L 322.416505 97.884338 
L 320.592989 99.077741 
L 320.298453 100.369822 
L 321.159457 101.737676 
L 322.559345 103.142938 
L 323.789946 104.540835 
L 324.219536 105.890238 
L 323.436607 107.162624 
L 321.335979 108.347872 
L 318.127196 109.45573 
L 306.887736 112.6188 
L 304.323353 113.735654 
L 302.79823 114.921216 
L 302.205573 116.175118 
L 302.222072 117.481672 
L 302.404571 118.814433 
L 302.308973 120.14304 
L 301.599541 121.440471 
L 300.121627 122.688898 
L 297.922469 123.883017 
L 292.331188 126.147558 
L 289.585893 127.257329 
L 287.243988 128.381273 
L 285.441571 129.535717 
L 284.173156 130.728648 
L 283.310387 131.958704 
L 281.96009 134.487775 
L 281.055949 135.756789 
L 279.815366 137.010066 
L 278.205462 138.239026 
L 276.274707 139.441079 
L 267.777875 144.100524 
L 266.04242 145.274641 
L 264.570583 146.466281 
L 263.330895 147.676297 
L 258.885702 152.606556 
L 257.406093 153.827957 
L 255.675926 155.03517 
L 251.665389 157.409683 
L 247.653778 159.761129 
L 245.936094 160.943325 
L 244.48839 162.136028 
L 243.286369 163.340725 
L 240.083061 167.000377 
L 238.722573 168.218825 
L 237.090527 169.428977 
L 233.187719 171.820642 
L 229.221131 174.191147 
L 227.514044 175.378934 
L 226.057807 176.572763 
L 223.69194 178.979849 
L 221.32556 181.397439 
L 219.899667 182.60232 
L 216.502189 184.996693 
L 211.135639 188.569007 
L 208.116245 190.959082 
L 202.58322 195.745541 
L 196.348356 200.502295 
L 181.039099 212.386932 
L 176.96236 215.947068 
L 173.715941 218.317417 
L 166.683903 223.041797 
L 163.974231 225.412333 
L 160.337796 228.974242 
L 158.853648 230.156177 
L 155.301167 232.50859 
L 151.518188 234.858254 
L 149.81562 236.038536 
L 148.324164 237.224377 
L 145.847952 239.608739 
L 143.389234 241.990855 
L 141.928056 243.174195 
L 138.494797 245.524279 
L 134.918658 247.870312 
L 131.865942 250.236076 
L 126.53263 255.004975 
L 123.260278 257.366907 
L 119.898296 259.716735 
L 117.047544 262.077 
L 113.269708 265.641088 
L 111.759057 266.825312 
L 108.16144 269.17792 
L 104.4842 271.523397 
L 102.970218 272.702589 
L 101.77266 273.889051 
L 99.098835 277.467276 
L 97.852526 278.648816 
L 96.142641 279.817828 
L 93.963483 280.975322 
L 88.966017 283.282353 
L 86.828549 284.451175 
L 85.430826 285.640446 
L 85.038714 286.850018 
L 85.735088 288.069843 
L 87.383714 289.27894 
L 89.644898 290.447045 
L 94.053775 292.517468 
L 95.239486 293.355092 
L 95.32171 294.033563 
L 94.254306 294.550111 
L 92.232495 294.916947 
L 87.03613 295.307003 
L 83.713277 295.477242 
L 84.897535 295.488 
L 89.646204 295.384772 
L 92.154256 295.220098 
L 93.934687 294.947202 
L 94.470302 294.553182 
L 93.458818 294.041425 
L 90.893837 293.434178 
L 82.673898 292.10537 
L 75.24727 290.986446 
L 73.832727 290.621197 
L 74.643265 290.410698 
L 77.723353 290.341134 
L 99.729351 290.445422 
L 102.725831 290.256943 
L 103.202224 289.90417 
L 101.132206 289.396172 
L 97.017761 288.77266 
L 82.688384 286.874188 
L 80.864355 286.44777 
L 81.596991 286.182516 
L 84.776093 286.066081 
L 105.134138 285.984457 
L 107.108909 285.74545 
L 106.727466 285.352769 
L 104.24904 284.825413 
L 89.874393 282.478663 
L 89.404536 282.11552 
L 90.933411 281.890767 
L 98.363875 281.738753 
L 106.610089 281.623612 
L 109.159229 281.445232 
L 110.07864 281.145489 
L 109.347863 280.724614 
L 107.274879 280.207241 
L 99.098469 278.541683 
L 97.849649 278.107133 
L 98.016222 277.780571 
L 99.603667 277.559621 
L 105.71173 277.32509 
L 111.9479 277.078537 
L 113.720884 276.849483 
L 114.183571 276.522241 
L 113.355096 276.10057 
L 109.166517 275.078614 
L 105.223392 274.085048 
L 104.610764 273.689866 
L 105.229493 273.385222 
L 107.001113 273.165245 
L 117.349413 272.534975 
L 118.392917 272.266788 
L 118.330045 271.916312 
L 117.303827 271.492308 
L 112.32958 270.057785 
L 111.507957 269.636743 
L 111.596479 269.284526 
L 112.616299 269.005311 
L 116.613702 268.609989 
L 120.811389 268.24874 
L 122.114992 268.010158 
L 122.637989 267.710473 
L 122.392614 267.348529 
L 121.544568 266.935919 
L 118.373693 265.628195 
L 118.104635 265.250557 
L 118.521824 264.927337 
L 119.602172 264.657966 
L 127.161218 263.530069 
L 127.429495 263.215443 
L 127.109342 262.85464 
L 124.30742 261.254515 
L 124.452071 260.908543 
L 125.174343 260.606313 
L 127.88261 260.110514 
L 130.740254 259.657366 
L 131.655236 259.402548 
L 132.072722 259.112882 
L 132.01872 258.785699 
L 130.438079 257.292772 
L 130.62256 256.945923 
L 131.204771 256.630412 
L 133.213934 256.08622 
L 135.321628 255.592359 
L 136.058684 255.332575 
L 136.498232 255.051122 
L 136.660701 254.744292 
L 136.500951 254.066654 
L 136.411331 253.712148 
L 136.456749 253.360948 
L 136.701175 253.022144 
L 137.16225 252.701755 
L 138.586346 252.119219 
L 140.82712 251.311873 
L 141.647952 250.73344 
L 141.931448 250.093715 
L 142.162109 249.420582 
L 142.426283 249.087248 
L 143.400111 248.452072 
L 146.529266 247.006791 
L 147.070597 246.397914 
L 147.650405 245.419647 
L 148.49135 244.765763 
L 151.638592 242.937075 
L 153.0243 241.360571 
L 154.485972 240.398263 
L 155.87513 239.462472 
L 157.174931 238.231465 
L 158.26901 237.290906 
L 163.078286 233.531801 
L 164.740409 232.267317 
L 166.871692 230.695209 
L 169.045733 228.825577 
L 171.240446 227.256299 
L 173.792305 225.087625 
L 175.911737 223.541666 
L 178.174829 221.695996 
L 183.059258 218.034747 
L 185.493132 216.220279 
L 187.482093 214.702681 
L 188.961743 213.496173 
L 192.262628 211.085841 
L 193.766178 209.879246 
L 197.06778 207.466808 
L 200.661791 204.736841 
L 207.724338 199.218456 
L 210.002505 197.37153 
L 212.321656 195.5255 
L 214.631376 193.680559 
L 220.424302 189.083868 
L 230.252075 181.493584 
L 235.712004 177.308763 
L 240.375243 173.748753 
L 240.375243 173.748753 
" clip-path="url(#pd644e29e16)" style="fill: none; stroke: #ff7f0e; stroke-opacity: 0.5; stroke-width: 1.5; stroke-linecap: square"/>
   </g>
   <g id="patch_3">
    <path d="M 57.6 307.584 
L 57.6 41.472 
" style="fill: none; stroke: #000000; stroke-width: 0.8; stroke-linejoin: miter; stroke-linecap: square"/>
   </g>
   <g id="patch_4">
    <path d="M 414.72 307.584 
L 414.72 41.472 
" style="fill: none; stroke: #000000; stroke-width: 0.8; stroke-linejoin: miter; stroke-linecap: square"/>
   </g>
   <g id="patch_5">
    <path d="M 57.6 307.584 
L 414.72 307.584 
" style="fill: none; stroke: #000000; stroke-width: 0.8; stroke-linejoin: miter; stroke-linecap: square"/>
   </g>
   <g id="patch_6">
    <path d="M 57.6 41.472 
L 414.72 41.472 
" style="fill: none; stroke: #000000; stroke-width: 0.8; stroke-linejoin: miter; stroke-linecap: square"/>
   </g>
   <g id="text_21">
    <!-- Compare - Epoch 900 -->
    <g transform="translate(171.234375 35.472) scale(0.12 -0.12)">
     <defs>
      <path id="DejaVuSans-43" d="M 4122 4306 
L 4122 3641 
Q 3803 3938 3442 4084 
Q 3081 4231 2675 4231 
Q 1875 4231 1450 3742 
Q 1025 3253 1025 2328 
Q 1025 1406 1450 917 
Q 1875 428 2675 428 
Q 3081 428 3442 575 
Q 3803 722 4122 1019 
L 4122 359 
Q 3791 134 3420 21 
Q 3050 -91 2638 -91 
Q 1578 -91 968 557 
Q 359 1206 359 2328 
Q 359 3453 968 4101 
Q 1578 4750 2638 4750 
Q 3056 4750 3426 4639 
Q 3797 4528 4122 4306 
z
" transform="scale(0.015625)"/>
      <path id="DejaVuSans-6f" d="M 1959 3097 
Q 1497 3097 1228 2736 
Q 959 2375 959 1747 
Q 959 1119 1226 758 
Q 1494 397 1959 397 
Q 2419 397 2687 759 
Q 2956 1122 2956 1747 
Q 2956 2369 2687 2733 
Q 2419 3097 1959 3097 
z
M 1959 3584 
Q 2709 3584 3137 3096 
Q 3566 2609 3566 1747 
Q 3566 888 3137 398 
Q 2709 -91 1959 -91 
Q 1206 -91 779 398 
Q 353 888 353 1747 
Q 353 2609 779 3096 
Q 1206 3584 1959 3584 
z
" transform="scale(0.015625)"/>
      <path id="DejaVuSans-6d" d="M 3328 2828 
Q 3544 3216 3844 3400 
Q 4144 3584 4550 3584 
Q 5097 3584 5394 3201 
Q 5691 2819 5691 2113 
L 5691 0 
L 5113 0 
L 5113 2094 
Q 5113 2597 4934 2840 
Q 4756 3084 4391 3084 
Q 3944 3084 3684 2787 
Q 3425 2491 3425 1978 
L 3425 0 
L 2847 0 
L 2847 2094 
Q 2847 2600 2669 2842 
Q 2491 3084 2119 3084 
Q 1678 3084 1418 2786 
Q 1159 2488 1159 1978 
L 1159 0 
L 581 0 
L 581 3500 
L 1159 3500 
L 1159 2956 
Q 1356 3278 1631 3431 
Q 1906 3584 2284 3584 
Q 2666 3584 2933 3390 
Q 3200 3197 3328 2828 
z
" transform="scale(0.015625)"/>
      <path id="DejaVuSans-70" d="M 1159 525 
L 1159 -1331 
L 581 -1331 
L 581 3500 
L 1159 3500 
L 1159 2969 
Q 1341 3281 1617 3432 
Q 1894 3584 2278 3584 
Q 2916 3584 3314 3078 
Q 3713 2572 3713 1747 
Q 3713 922 3314 415 
Q 2916 -91 2278 -91 
Q 1894 -91 1617 61 
Q 1341 213 1159 525 
z
M 3116 1747 
Q 3116 2381 2855 2742 
Q 2594 3103 2138 3103 
Q 1681 3103 1420 2742 
Q 1159 2381 1159 1747 
Q 1159 1113 1420 752 
Q 1681 391 2138 391 
Q 2594 391 2855 752 
Q 3116 1113 3116 1747 
z
" transform="scale(0.015625)"/>
      <path id="DejaVuSans-72" d="M 2631 2963 
Q 2534 3019 2420 3045 
Q 2306 3072 2169 3072 
Q 1681 3072 1420 2755 
Q 1159 2438 1159 1844 
L 1159 0 
L 581 0 
L 581 3500 
L 1159 3500 
L 1159 2956 
Q 1341 3275 1631 3429 
Q 1922 3584 2338 3584 
Q 2397 3584 2469 3576 
Q 2541 3569 2628 3553 
L 2631 2963 
z
" transform="scale(0.015625)"/>
      <path id="DejaVuSans-20" transform="scale(0.015625)"/>
      <path id="DejaVuSans-2d" d="M 313 2009 
L 1997 2009 
L 1997 1497 
L 313 1497 
L 313 2009 
z
" transform="scale(0.015625)"/>
      <path id="DejaVuSans-45" d="M 628 4666 
L 3578 4666 
L 3578 4134 
L 1259 4134 
L 1259 2753 
L 3481 2753 
L 3481 2222 
L 1259 2222 
L 1259 531 
L 3634 531 
L 3634 0 
L 628 0 
L 628 4666 
z
" transform="scale(0.015625)"/>
      <path id="DejaVuSans-63" d="M 3122 3366 
L 3122 2828 
Q 2878 2963 2633 3030 
Q 2388 3097 2138 3097 
Q 1578 3097 1268 2742 
Q 959 2388 959 1747 
Q 959 1106 1268 751 
Q 1578 397 2138 397 
Q 2388 397 2633 464 
Q 2878 531 3122 666 
L 3122 134 
Q 2881 22 2623 -34 
Q 2366 -91 2075 -91 
Q 1284 -91 818 406 
Q 353 903 353 1747 
Q 353 2603 823 3093 
Q 1294 3584 2113 3584 
Q 2378 3584 2631 3529 
Q 2884 3475 3122 3366 
z
" transform="scale(0.015625)"/>
      <path id="DejaVuSans-68" d="M 3513 2113 
L 3513 0 
L 2938 0 
L 2938 2094 
Q 2938 2591 2744 2837 
Q 2550 3084 2163 3084 
Q 1697 3084 1428 2787 
Q 1159 2491 1159 1978 
L 1159 0 
L 581 0 
L 581 4863 
L 1159 4863 
L 1159 2956 
Q 1366 3272 1645 3428 
Q 1925 3584 2291 3584 
Q 2894 3584 3203 3211 
Q 3513 2838 3513 2113 
z
" transform="scale(0.015625)"/>
      <path id="DejaVuSans-39" d="M 703 97 
L 703 672 
Q 941 559 1184 500 
Q 1428 441 1663 441 
Q 2288 441 2617 861 
Q 2947 1281 2994 2138 
Q 2813 1869 2534 1725 
Q 2256 1581 1919 1581 
Q 1219 1581 811 2004 
Q 403 2428 403 3163 
Q 403 3881 828 4315 
Q 1253 4750 1959 4750 
Q 2769 4750 3195 4129 
Q 3622 3509 3622 2328 
Q 3622 1225 3098 567 
Q 2575 -91 1691 -91 
Q 1453 -91 1209 -44 
Q 966 3 703 97 
z
M 1959 2075 
Q 2384 2075 2632 2365 
Q 2881 2656 2881 3163 
Q 2881 3666 2632 3958 
Q 2384 4250 1959 4250 
Q 1534 4250 1286 3958 
Q 1038 3666 1038 3163 
Q 1038 2656 1286 2365 
Q 1534 2075 1959 2075 
z
" transform="scale(0.015625)"/>
     </defs>
     <use xlink:href="#DejaVuSans-43"/>
     <use xlink:href="#DejaVuSans-6f" transform="translate(69.824219 0)"/>
     <use xlink:href="#DejaVuSans-6d" transform="translate(131.005859 0)"/>
     <use xlink:href="#DejaVuSans-70" transform="translate(228.417969 0)"/>
     <use xlink:href="#DejaVuSans-61" transform="translate(291.894531 0)"/>
     <use xlink:href="#DejaVuSans-72" transform="translate(353.173828 0)"/>
     <use xlink:href="#DejaVuSans-65" transform="translate(392.037109 0)"/>
     <use xlink:href="#DejaVuSans-20" transform="translate(453.560547 0)"/>
     <use xlink:href="#DejaVuSans-2d" transform="translate(485.347656 0)"/>
     <use xlink:href="#DejaVuSans-20" transform="translate(521.431641 0)"/>
     <use xlink:href="#DejaVuSans-45" transform="translate(553.21875 0)"/>
     <use xlink:href="#DejaVuSans-70" transform="translate(616.402344 0)"/>
     <use xlink:href="#DejaVuSans-6f" transform="translate(679.878906 0)"/>
     <use xlink:href="#DejaVuSans-63" transform="translate(741.060547 0)"/>
     <use xlink:href="#DejaVuSans-68" transform="translate(796.041016 0)"/>
     <use xlink:href="#DejaVuSans-20" transform="translate(859.419922 0)"/>
     <use xlink:href="#DejaVuSans-39" transform="translate(891.207031 0)"/>
     <use xlink:href="#DejaVuSans-30" transform="translate(954.830078 0)"/>
     <use xlink:href="#DejaVuSans-30" transform="translate(1018.453125 0)"/>
    </g>
   </g>
   <g id="legend_1">
    <g id="patch_7">
     <path d="M 64.6 78.82825 
L 181.128125 78.82825 
Q 183.128125 78.82825 183.128125 76.82825 
L 183.128125 48.472 
Q 183.128125 46.472 181.128125 46.472 
L 64.6 46.472 
Q 62.6 46.472 62.6 48.472 
L 62.6 76.82825 
Q 62.6 78.82825 64.6 78.82825 
z
" style="fill: #ffffff; opacity: 0.8; stroke: #cccccc; stroke-linejoin: miter"/>
    </g>
    <g id="line2d_39">
     <path d="M 66.6 54.570437 
L 76.6 54.570437 
L 86.6 54.570437 
" style="fill: none; stroke: #1f77b4; stroke-width: 1.5; stroke-linecap: square"/>
    </g>
    <g id="text_22">
     <!-- Pred: Sample 1 -->
     <g transform="translate(94.6 58.070437) scale(0.1 -0.1)">
      <defs>
       <path id="DejaVuSans-50" d="M 1259 4147 
L 1259 2394 
L 2053 2394 
Q 2494 2394 2734 2622 
Q 2975 2850 2975 3272 
Q 2975 3691 2734 3919 
Q 2494 4147 2053 4147 
L 1259 4147 
z
M 628 4666 
L 2053 4666 
Q 2838 4666 3239 4311 
Q 3641 3956 3641 3272 
Q 3641 2581 3239 2228 
Q 2838 1875 2053 1875 
L 1259 1875 
L 1259 0 
L 628 0 
L 628 4666 
z
" transform="scale(0.015625)"/>
       <path id="DejaVuSans-3a" d="M 750 794 
L 1409 794 
L 1409 0 
L 750 0 
L 750 794 
z
M 750 3309 
L 1409 3309 
L 1409 2516 
L 750 2516 
L 750 3309 
z
" transform="scale(0.015625)"/>
       <path id="DejaVuSans-53" d="M 3425 4513 
L 3425 3897 
Q 3066 4069 2747 4153 
Q 2428 4238 2131 4238 
Q 1616 4238 1336 4038 
Q 1056 3838 1056 3469 
Q 1056 3159 1242 3001 
Q 1428 2844 1947 2747 
L 2328 2669 
Q 3034 2534 3370 2195 
Q 3706 1856 3706 1288 
Q 3706 609 3251 259 
Q 2797 -91 1919 -91 
Q 1588 -91 1214 -16 
Q 841 59 441 206 
L 441 856 
Q 825 641 1194 531 
Q 1563 422 1919 422 
Q 2459 422 2753 634 
Q 3047 847 3047 1241 
Q 3047 1584 2836 1778 
Q 2625 1972 2144 2069 
L 1759 2144 
Q 1053 2284 737 2584 
Q 422 2884 422 3419 
Q 422 4038 858 4394 
Q 1294 4750 2059 4750 
Q 2388 4750 2728 4690 
Q 3069 4631 3425 4513 
z
" transform="scale(0.015625)"/>
      </defs>
      <use xlink:href="#DejaVuSans-50"/>
      <use xlink:href="#DejaVuSans-72" transform="translate(58.552734 0)"/>
      <use xlink:href="#DejaVuSans-65" transform="translate(97.416016 0)"/>
      <use xlink:href="#DejaVuSans-64" transform="translate(158.939453 0)"/>
      <use xlink:href="#DejaVuSans-3a" transform="translate(222.416016 0)"/>
      <use xlink:href="#DejaVuSans-20" transform="translate(256.107422 0)"/>
      <use xlink:href="#DejaVuSans-53" transform="translate(287.894531 0)"/>
      <use xlink:href="#DejaVuSans-61" transform="translate(351.371094 0)"/>
      <use xlink:href="#DejaVuSans-6d" transform="translate(412.650391 0)"/>
      <use xlink:href="#DejaVuSans-70" transform="translate(510.0625 0)"/>
      <use xlink:href="#DejaVuSans-6c" transform="translate(573.539062 0)"/>
      <use xlink:href="#DejaVuSans-65" transform="translate(601.322266 0)"/>
      <use xlink:href="#DejaVuSans-20" transform="translate(662.845703 0)"/>
      <use xlink:href="#DejaVuSans-31" transform="translate(694.632812 0)"/>
     </g>
    </g>
    <g id="line2d_40">
     <path d="M 66.6 69.248562 
L 76.6 69.248562 
L 86.6 69.248562 
" style="fill: none; stroke: #ff7f0e; stroke-opacity: 0.5; stroke-width: 1.5; stroke-linecap: square"/>
    </g>
    <g id="text_23">
     <!-- Target: Sample 1 -->
     <g transform="translate(94.6 72.748562) scale(0.1 -0.1)">
      <defs>
       <path id="DejaVuSans-54" d="M -19 4666 
L 3928 4666 
L 3928 4134 
L 2272 4134 
L 2272 0 
L 1638 0 
L 1638 4134 
L -19 4134 
L -19 4666 
z
" transform="scale(0.015625)"/>
       <path id="DejaVuSans-67" d="M 2906 1791 
Q 2906 2416 2648 2759 
Q 2391 3103 1925 3103 
Q 1463 3103 1205 2759 
Q 947 2416 947 1791 
Q 947 1169 1205 825 
Q 1463 481 1925 481 
Q 2391 481 2648 825 
Q 2906 1169 2906 1791 
z
M 3481 434 
Q 3481 -459 3084 -895 
Q 2688 -1331 1869 -1331 
Q 1566 -1331 1297 -1286 
Q 1028 -1241 775 -1147 
L 775 -588 
Q 1028 -725 1275 -790 
Q 1522 -856 1778 -856 
Q 2344 -856 2625 -561 
Q 2906 -266 2906 331 
L 2906 616 
Q 2728 306 2450 153 
Q 2172 0 1784 0 
Q 1141 0 747 490 
Q 353 981 353 1791 
Q 353 2603 747 3093 
Q 1141 3584 1784 3584 
Q 2172 3584 2450 3431 
Q 2728 3278 2906 2969 
L 2906 3500 
L 3481 3500 
L 3481 434 
z
" transform="scale(0.015625)"/>
       <path id="DejaVuSans-74" d="M 1172 4494 
L 1172 3500 
L 2356 3500 
L 2356 3053 
L 1172 3053 
L 1172 1153 
Q 1172 725 1289 603 
Q 1406 481 1766 481 
L 2356 481 
L 2356 0 
L 1766 0 
Q 1100 0 847 248 
Q 594 497 594 1153 
L 594 3053 
L 172 3053 
L 172 3500 
L 594 3500 
L 594 4494 
L 1172 4494 
z
" transform="scale(0.015625)"/>
      </defs>
      <use xlink:href="#DejaVuSans-54"/>
      <use xlink:href="#DejaVuSans-61" transform="translate(44.583984 0)"/>
      <use xlink:href="#DejaVuSans-72" transform="translate(105.863281 0)"/>
      <use xlink:href="#DejaVuSans-67" transform="translate(145.226562 0)"/>
      <use xlink:href="#DejaVuSans-65" transform="translate(208.703125 0)"/>
      <use xlink:href="#DejaVuSans-74" transform="translate(270.226562 0)"/>
      <use xlink:href="#DejaVuSans-3a" transform="translate(309.435547 0)"/>
      <use xlink:href="#DejaVuSans-20" transform="translate(343.126953 0)"/>
      <use xlink:href="#DejaVuSans-53" transform="translate(374.914062 0)"/>
      <use xlink:href="#DejaVuSans-61" transform="translate(438.390625 0)"/>
      <use xlink:href="#DejaVuSans-6d" transform="translate(499.669922 0)"/>
      <use xlink:href="#DejaVuSans-70" transform="translate(597.082031 0)"/>
      <use xlink:href="#DejaVuSans-6c" transform="translate(660.558594 0)"/>
      <use xlink:href="#DejaVuSans-65" transform="translate(688.341797 0)"/>
      <use xlink:href="#DejaVuSans-20" transform="translate(749.865234 0)"/>
      <use xlink:href="#DejaVuSans-31" transform="translate(781.652344 0)"/>
     </g>
    </g>
   </g>
  </g>
 </g>
 <defs>
  <clipPath id="pd644e29e16">
   <rect x="57.6" y="41.472" width="357.12" height="266.112"/>
  </clipPath>
 </defs>
</svg>
