<?xml version="1.0" encoding="utf-8" standalone="no"?>
<!DOCTYPE svg PUBLIC "-//W3C//DTD SVG 1.1//EN"
  "http://www.w3.org/Graphics/SVG/1.1/DTD/svg11.dtd">
<svg xmlns:xlink="http://www.w3.org/1999/xlink" width="460.8pt" height="345.6pt" viewBox="0 0 460.8 345.6" xmlns="http://www.w3.org/2000/svg" version="1.1">
 <metadata>
  <rdf:RDF xmlns:dc="http://purl.org/dc/elements/1.1/" xmlns:cc="http://creativecommons.org/ns#" xmlns:rdf="http://www.w3.org/1999/02/22-rdf-syntax-ns#">
   <cc:Work>
    <dc:type rdf:resource="http://purl.org/dc/dcmitype/StillImage"/>
    <dc:date>2025-06-03T22:07:52.441063</dc:date>
    <dc:format>image/svg+xml</dc:format>
    <dc:creator>
     <cc:Agent>
      <dc:title>Matplotlib v3.10.0, https://matplotlib.org/</dc:title>
     </cc:Agent>
    </dc:creator>
   </cc:Work>
  </rdf:RDF>
 </metadata>
 <defs>
  <style type="text/css">*{stroke-linejoin: round; stroke-linecap: butt}</style>
 </defs>
 <g id="figure_1">
  <g id="patch_1">
   <path d="M 0 345.6 
L 460.8 345.6 
L 460.8 0 
L 0 0 
z
" style="fill: #ffffff"/>
  </g>
  <g id="axes_1">
   <g id="patch_2">
    <path d="M 57.6 307.584 
L 414.72 307.584 
L 414.72 41.472 
L 57.6 41.472 
z
" style="fill: #ffffff"/>
   </g>
   <g id="matplotlib.axis_1">
    <g id="xtick_1">
     <g id="line2d_1">
      <path d="M 73.832727 307.584 
L 73.832727 41.472 
" clip-path="url(#p7ef2792b55)" style="fill: none; stroke: #b0b0b0; stroke-opacity: 0.5; stroke-width: 0.8; stroke-linecap: square"/>
     </g>
     <g id="line2d_2">
      <defs>
       <path id="ma26bc59252" d="M 0 0 
L 0 3.5 
" style="stroke: #000000; stroke-width: 0.8"/>
      </defs>
      <g>
       <use xlink:href="#ma26bc59252" x="73.832727" y="307.584" style="stroke: #000000; stroke-width: 0.8"/>
      </g>
     </g>
     <g id="text_1">
      <!-- −1.00 -->
      <g transform="translate(58.510071 322.182437) scale(0.1 -0.1)">
       <defs>
        <path id="DejaVuSans-2212" d="M 678 2272 
L 4684 2272 
L 4684 1741 
L 678 1741 
L 678 2272 
z
" transform="scale(0.015625)"/>
        <path id="DejaVuSans-31" d="M 794 531 
L 1825 531 
L 1825 4091 
L 703 3866 
L 703 4441 
L 1819 4666 
L 2450 4666 
L 2450 531 
L 3481 531 
L 3481 0 
L 794 0 
L 794 531 
z
" transform="scale(0.015625)"/>
        <path id="DejaVuSans-2e" d="M 684 794 
L 1344 794 
L 1344 0 
L 684 0 
L 684 794 
z
" transform="scale(0.015625)"/>
        <path id="DejaVuSans-30" d="M 2034 4250 
Q 1547 4250 1301 3770 
Q 1056 3291 1056 2328 
Q 1056 1369 1301 889 
Q 1547 409 2034 409 
Q 2525 409 2770 889 
Q 3016 1369 3016 2328 
Q 3016 3291 2770 3770 
Q 2525 4250 2034 4250 
z
M 2034 4750 
Q 2819 4750 3233 4129 
Q 3647 3509 3647 2328 
Q 3647 1150 3233 529 
Q 2819 -91 2034 -91 
Q 1250 -91 836 529 
Q 422 1150 422 2328 
Q 422 3509 836 4129 
Q 1250 4750 2034 4750 
z
" transform="scale(0.015625)"/>
       </defs>
       <use xlink:href="#DejaVuSans-2212"/>
       <use xlink:href="#DejaVuSans-31" transform="translate(83.789062 0)"/>
       <use xlink:href="#DejaVuSans-2e" transform="translate(147.412109 0)"/>
       <use xlink:href="#DejaVuSans-30" transform="translate(179.199219 0)"/>
       <use xlink:href="#DejaVuSans-30" transform="translate(242.822266 0)"/>
      </g>
     </g>
    </g>
    <g id="xtick_2">
     <g id="line2d_3">
      <path d="M 115.610847 307.584 
L 115.610847 41.472 
" clip-path="url(#p7ef2792b55)" style="fill: none; stroke: #b0b0b0; stroke-opacity: 0.5; stroke-width: 0.8; stroke-linecap: square"/>
     </g>
     <g id="line2d_4">
      <g>
       <use xlink:href="#ma26bc59252" x="115.610847" y="307.584" style="stroke: #000000; stroke-width: 0.8"/>
      </g>
     </g>
     <g id="text_2">
      <!-- −0.75 -->
      <g transform="translate(100.288191 322.182437) scale(0.1 -0.1)">
       <defs>
        <path id="DejaVuSans-37" d="M 525 4666 
L 3525 4666 
L 3525 4397 
L 1831 0 
L 1172 0 
L 2766 4134 
L 525 4134 
L 525 4666 
z
" transform="scale(0.015625)"/>
        <path id="DejaVuSans-35" d="M 691 4666 
L 3169 4666 
L 3169 4134 
L 1269 4134 
L 1269 2991 
Q 1406 3038 1543 3061 
Q 1681 3084 1819 3084 
Q 2600 3084 3056 2656 
Q 3513 2228 3513 1497 
Q 3513 744 3044 326 
Q 2575 -91 1722 -91 
Q 1428 -91 1123 -41 
Q 819 9 494 109 
L 494 744 
Q 775 591 1075 516 
Q 1375 441 1709 441 
Q 2250 441 2565 725 
Q 2881 1009 2881 1497 
Q 2881 1984 2565 2268 
Q 2250 2553 1709 2553 
Q 1456 2553 1204 2497 
Q 953 2441 691 2322 
L 691 4666 
z
" transform="scale(0.015625)"/>
       </defs>
       <use xlink:href="#DejaVuSans-2212"/>
       <use xlink:href="#DejaVuSans-30" transform="translate(83.789062 0)"/>
       <use xlink:href="#DejaVuSans-2e" transform="translate(147.412109 0)"/>
       <use xlink:href="#DejaVuSans-37" transform="translate(179.199219 0)"/>
       <use xlink:href="#DejaVuSans-35" transform="translate(242.822266 0)"/>
      </g>
     </g>
    </g>
    <g id="xtick_3">
     <g id="line2d_5">
      <path d="M 157.388966 307.584 
L 157.388966 41.472 
" clip-path="url(#p7ef2792b55)" style="fill: none; stroke: #b0b0b0; stroke-opacity: 0.5; stroke-width: 0.8; stroke-linecap: square"/>
     </g>
     <g id="line2d_6">
      <g>
       <use xlink:href="#ma26bc59252" x="157.388966" y="307.584" style="stroke: #000000; stroke-width: 0.8"/>
      </g>
     </g>
     <g id="text_3">
      <!-- −0.50 -->
      <g transform="translate(142.06631 322.182437) scale(0.1 -0.1)">
       <use xlink:href="#DejaVuSans-2212"/>
       <use xlink:href="#DejaVuSans-30" transform="translate(83.789062 0)"/>
       <use xlink:href="#DejaVuSans-2e" transform="translate(147.412109 0)"/>
       <use xlink:href="#DejaVuSans-35" transform="translate(179.199219 0)"/>
       <use xlink:href="#DejaVuSans-30" transform="translate(242.822266 0)"/>
      </g>
     </g>
    </g>
    <g id="xtick_4">
     <g id="line2d_7">
      <path d="M 199.167086 307.584 
L 199.167086 41.472 
" clip-path="url(#p7ef2792b55)" style="fill: none; stroke: #b0b0b0; stroke-opacity: 0.5; stroke-width: 0.8; stroke-linecap: square"/>
     </g>
     <g id="line2d_8">
      <g>
       <use xlink:href="#ma26bc59252" x="199.167086" y="307.584" style="stroke: #000000; stroke-width: 0.8"/>
      </g>
     </g>
     <g id="text_4">
      <!-- −0.25 -->
      <g transform="translate(183.84443 322.182437) scale(0.1 -0.1)">
       <defs>
        <path id="DejaVuSans-32" d="M 1228 531 
L 3431 531 
L 3431 0 
L 469 0 
L 469 531 
Q 828 903 1448 1529 
Q 2069 2156 2228 2338 
Q 2531 2678 2651 2914 
Q 2772 3150 2772 3378 
Q 2772 3750 2511 3984 
Q 2250 4219 1831 4219 
Q 1534 4219 1204 4116 
Q 875 4013 500 3803 
L 500 4441 
Q 881 4594 1212 4672 
Q 1544 4750 1819 4750 
Q 2544 4750 2975 4387 
Q 3406 4025 3406 3419 
Q 3406 3131 3298 2873 
Q 3191 2616 2906 2266 
Q 2828 2175 2409 1742 
Q 1991 1309 1228 531 
z
" transform="scale(0.015625)"/>
       </defs>
       <use xlink:href="#DejaVuSans-2212"/>
       <use xlink:href="#DejaVuSans-30" transform="translate(83.789062 0)"/>
       <use xlink:href="#DejaVuSans-2e" transform="translate(147.412109 0)"/>
       <use xlink:href="#DejaVuSans-32" transform="translate(179.199219 0)"/>
       <use xlink:href="#DejaVuSans-35" transform="translate(242.822266 0)"/>
      </g>
     </g>
    </g>
    <g id="xtick_5">
     <g id="line2d_9">
      <path d="M 240.945205 307.584 
L 240.945205 41.472 
" clip-path="url(#p7ef2792b55)" style="fill: none; stroke: #b0b0b0; stroke-opacity: 0.5; stroke-width: 0.8; stroke-linecap: square"/>
     </g>
     <g id="line2d_10">
      <g>
       <use xlink:href="#ma26bc59252" x="240.945205" y="307.584" style="stroke: #000000; stroke-width: 0.8"/>
      </g>
     </g>
     <g id="text_5">
      <!-- 0.00 -->
      <g transform="translate(229.812393 322.182437) scale(0.1 -0.1)">
       <use xlink:href="#DejaVuSans-30"/>
       <use xlink:href="#DejaVuSans-2e" transform="translate(63.623047 0)"/>
       <use xlink:href="#DejaVuSans-30" transform="translate(95.410156 0)"/>
       <use xlink:href="#DejaVuSans-30" transform="translate(159.033203 0)"/>
      </g>
     </g>
    </g>
    <g id="xtick_6">
     <g id="line2d_11">
      <path d="M 282.723325 307.584 
L 282.723325 41.472 
" clip-path="url(#p7ef2792b55)" style="fill: none; stroke: #b0b0b0; stroke-opacity: 0.5; stroke-width: 0.8; stroke-linecap: square"/>
     </g>
     <g id="line2d_12">
      <g>
       <use xlink:href="#ma26bc59252" x="282.723325" y="307.584" style="stroke: #000000; stroke-width: 0.8"/>
      </g>
     </g>
     <g id="text_6">
      <!-- 0.25 -->
      <g transform="translate(271.590512 322.182437) scale(0.1 -0.1)">
       <use xlink:href="#DejaVuSans-30"/>
       <use xlink:href="#DejaVuSans-2e" transform="translate(63.623047 0)"/>
       <use xlink:href="#DejaVuSans-32" transform="translate(95.410156 0)"/>
       <use xlink:href="#DejaVuSans-35" transform="translate(159.033203 0)"/>
      </g>
     </g>
    </g>
    <g id="xtick_7">
     <g id="line2d_13">
      <path d="M 324.501444 307.584 
L 324.501444 41.472 
" clip-path="url(#p7ef2792b55)" style="fill: none; stroke: #b0b0b0; stroke-opacity: 0.5; stroke-width: 0.8; stroke-linecap: square"/>
     </g>
     <g id="line2d_14">
      <g>
       <use xlink:href="#ma26bc59252" x="324.501444" y="307.584" style="stroke: #000000; stroke-width: 0.8"/>
      </g>
     </g>
     <g id="text_7">
      <!-- 0.50 -->
      <g transform="translate(313.368632 322.182437) scale(0.1 -0.1)">
       <use xlink:href="#DejaVuSans-30"/>
       <use xlink:href="#DejaVuSans-2e" transform="translate(63.623047 0)"/>
       <use xlink:href="#DejaVuSans-35" transform="translate(95.410156 0)"/>
       <use xlink:href="#DejaVuSans-30" transform="translate(159.033203 0)"/>
      </g>
     </g>
    </g>
    <g id="xtick_8">
     <g id="line2d_15">
      <path d="M 366.279564 307.584 
L 366.279564 41.472 
" clip-path="url(#p7ef2792b55)" style="fill: none; stroke: #b0b0b0; stroke-opacity: 0.5; stroke-width: 0.8; stroke-linecap: square"/>
     </g>
     <g id="line2d_16">
      <g>
       <use xlink:href="#ma26bc59252" x="366.279564" y="307.584" style="stroke: #000000; stroke-width: 0.8"/>
      </g>
     </g>
     <g id="text_8">
      <!-- 0.75 -->
      <g transform="translate(355.146751 322.182437) scale(0.1 -0.1)">
       <use xlink:href="#DejaVuSans-30"/>
       <use xlink:href="#DejaVuSans-2e" transform="translate(63.623047 0)"/>
       <use xlink:href="#DejaVuSans-37" transform="translate(95.410156 0)"/>
       <use xlink:href="#DejaVuSans-35" transform="translate(159.033203 0)"/>
      </g>
     </g>
    </g>
    <g id="xtick_9">
     <g id="line2d_17">
      <path d="M 408.057683 307.584 
L 408.057683 41.472 
" clip-path="url(#p7ef2792b55)" style="fill: none; stroke: #b0b0b0; stroke-opacity: 0.5; stroke-width: 0.8; stroke-linecap: square"/>
     </g>
     <g id="line2d_18">
      <g>
       <use xlink:href="#ma26bc59252" x="408.057683" y="307.584" style="stroke: #000000; stroke-width: 0.8"/>
      </g>
     </g>
     <g id="text_9">
      <!-- 1.00 -->
      <g transform="translate(396.924871 322.182437) scale(0.1 -0.1)">
       <use xlink:href="#DejaVuSans-31"/>
       <use xlink:href="#DejaVuSans-2e" transform="translate(63.623047 0)"/>
       <use xlink:href="#DejaVuSans-30" transform="translate(95.410156 0)"/>
       <use xlink:href="#DejaVuSans-30" transform="translate(159.033203 0)"/>
      </g>
     </g>
    </g>
    <g id="text_10">
     <!-- Index -->
     <g transform="translate(222.393594 335.860562) scale(0.1 -0.1)">
      <defs>
       <path id="DejaVuSans-49" d="M 628 4666 
L 1259 4666 
L 1259 0 
L 628 0 
L 628 4666 
z
" transform="scale(0.015625)"/>
       <path id="DejaVuSans-6e" d="M 3513 2113 
L 3513 0 
L 2938 0 
L 2938 2094 
Q 2938 2591 2744 2837 
Q 2550 3084 2163 3084 
Q 1697 3084 1428 2787 
Q 1159 2491 1159 1978 
L 1159 0 
L 581 0 
L 581 3500 
L 1159 3500 
L 1159 2956 
Q 1366 3272 1645 3428 
Q 1925 3584 2291 3584 
Q 2894 3584 3203 3211 
Q 3513 2838 3513 2113 
z
" transform="scale(0.015625)"/>
       <path id="DejaVuSans-64" d="M 2906 2969 
L 2906 4863 
L 3481 4863 
L 3481 0 
L 2906 0 
L 2906 525 
Q 2725 213 2448 61 
Q 2172 -91 1784 -91 
Q 1150 -91 751 415 
Q 353 922 353 1747 
Q 353 2572 751 3078 
Q 1150 3584 1784 3584 
Q 2172 3584 2448 3432 
Q 2725 3281 2906 2969 
z
M 947 1747 
Q 947 1113 1208 752 
Q 1469 391 1925 391 
Q 2381 391 2643 752 
Q 2906 1113 2906 1747 
Q 2906 2381 2643 2742 
Q 2381 3103 1925 3103 
Q 1469 3103 1208 2742 
Q 947 2381 947 1747 
z
" transform="scale(0.015625)"/>
       <path id="DejaVuSans-65" d="M 3597 1894 
L 3597 1613 
L 953 1613 
Q 991 1019 1311 708 
Q 1631 397 2203 397 
Q 2534 397 2845 478 
Q 3156 559 3463 722 
L 3463 178 
Q 3153 47 2828 -22 
Q 2503 -91 2169 -91 
Q 1331 -91 842 396 
Q 353 884 353 1716 
Q 353 2575 817 3079 
Q 1281 3584 2069 3584 
Q 2775 3584 3186 3129 
Q 3597 2675 3597 1894 
z
M 3022 2063 
Q 3016 2534 2758 2815 
Q 2500 3097 2075 3097 
Q 1594 3097 1305 2825 
Q 1016 2553 972 2059 
L 3022 2063 
z
" transform="scale(0.015625)"/>
       <path id="DejaVuSans-78" d="M 3513 3500 
L 2247 1797 
L 3578 0 
L 2900 0 
L 1881 1375 
L 863 0 
L 184 0 
L 1544 1831 
L 300 3500 
L 978 3500 
L 1906 2253 
L 2834 3500 
L 3513 3500 
z
" transform="scale(0.015625)"/>
      </defs>
      <use xlink:href="#DejaVuSans-49"/>
      <use xlink:href="#DejaVuSans-6e" transform="translate(29.492188 0)"/>
      <use xlink:href="#DejaVuSans-64" transform="translate(92.871094 0)"/>
      <use xlink:href="#DejaVuSans-65" transform="translate(156.347656 0)"/>
      <use xlink:href="#DejaVuSans-78" transform="translate(216.121094 0)"/>
     </g>
    </g>
   </g>
   <g id="matplotlib.axis_2">
    <g id="ytick_1">
     <g id="line2d_19">
      <path d="M 57.6 295.488037 
L 414.72 295.488037 
" clip-path="url(#p7ef2792b55)" style="fill: none; stroke: #b0b0b0; stroke-opacity: 0.5; stroke-width: 0.8; stroke-linecap: square"/>
     </g>
     <g id="line2d_20">
      <defs>
       <path id="m43c9618c17" d="M 0 0 
L -3.5 0 
" style="stroke: #000000; stroke-width: 0.8"/>
      </defs>
      <g>
       <use xlink:href="#m43c9618c17" x="57.6" y="295.488037" style="stroke: #000000; stroke-width: 0.8"/>
      </g>
     </g>
     <g id="text_11">
      <!-- −1.00 -->
      <g transform="translate(19.954687 299.287255) scale(0.1 -0.1)">
       <use xlink:href="#DejaVuSans-2212"/>
       <use xlink:href="#DejaVuSans-31" transform="translate(83.789062 0)"/>
       <use xlink:href="#DejaVuSans-2e" transform="translate(147.412109 0)"/>
       <use xlink:href="#DejaVuSans-30" transform="translate(179.199219 0)"/>
       <use xlink:href="#DejaVuSans-30" transform="translate(242.822266 0)"/>
      </g>
     </g>
    </g>
    <g id="ytick_2">
     <g id="line2d_21">
      <path d="M 57.6 264.813747 
L 414.72 264.813747 
" clip-path="url(#p7ef2792b55)" style="fill: none; stroke: #b0b0b0; stroke-opacity: 0.5; stroke-width: 0.8; stroke-linecap: square"/>
     </g>
     <g id="line2d_22">
      <g>
       <use xlink:href="#m43c9618c17" x="57.6" y="264.813747" style="stroke: #000000; stroke-width: 0.8"/>
      </g>
     </g>
     <g id="text_12">
      <!-- −0.75 -->
      <g transform="translate(19.954687 268.612966) scale(0.1 -0.1)">
       <use xlink:href="#DejaVuSans-2212"/>
       <use xlink:href="#DejaVuSans-30" transform="translate(83.789062 0)"/>
       <use xlink:href="#DejaVuSans-2e" transform="translate(147.412109 0)"/>
       <use xlink:href="#DejaVuSans-37" transform="translate(179.199219 0)"/>
       <use xlink:href="#DejaVuSans-35" transform="translate(242.822266 0)"/>
      </g>
     </g>
    </g>
    <g id="ytick_3">
     <g id="line2d_23">
      <path d="M 57.6 234.139457 
L 414.72 234.139457 
" clip-path="url(#p7ef2792b55)" style="fill: none; stroke: #b0b0b0; stroke-opacity: 0.5; stroke-width: 0.8; stroke-linecap: square"/>
     </g>
     <g id="line2d_24">
      <g>
       <use xlink:href="#m43c9618c17" x="57.6" y="234.139457" style="stroke: #000000; stroke-width: 0.8"/>
      </g>
     </g>
     <g id="text_13">
      <!-- −0.50 -->
      <g transform="translate(19.954687 237.938676) scale(0.1 -0.1)">
       <use xlink:href="#DejaVuSans-2212"/>
       <use xlink:href="#DejaVuSans-30" transform="translate(83.789062 0)"/>
       <use xlink:href="#DejaVuSans-2e" transform="translate(147.412109 0)"/>
       <use xlink:href="#DejaVuSans-35" transform="translate(179.199219 0)"/>
       <use xlink:href="#DejaVuSans-30" transform="translate(242.822266 0)"/>
      </g>
     </g>
    </g>
    <g id="ytick_4">
     <g id="line2d_25">
      <path d="M 57.6 203.465168 
L 414.72 203.465168 
" clip-path="url(#p7ef2792b55)" style="fill: none; stroke: #b0b0b0; stroke-opacity: 0.5; stroke-width: 0.8; stroke-linecap: square"/>
     </g>
     <g id="line2d_26">
      <g>
       <use xlink:href="#m43c9618c17" x="57.6" y="203.465168" style="stroke: #000000; stroke-width: 0.8"/>
      </g>
     </g>
     <g id="text_14">
      <!-- −0.25 -->
      <g transform="translate(19.954687 207.264386) scale(0.1 -0.1)">
       <use xlink:href="#DejaVuSans-2212"/>
       <use xlink:href="#DejaVuSans-30" transform="translate(83.789062 0)"/>
       <use xlink:href="#DejaVuSans-2e" transform="translate(147.412109 0)"/>
       <use xlink:href="#DejaVuSans-32" transform="translate(179.199219 0)"/>
       <use xlink:href="#DejaVuSans-35" transform="translate(242.822266 0)"/>
      </g>
     </g>
    </g>
    <g id="ytick_5">
     <g id="line2d_27">
      <path d="M 57.6 172.790878 
L 414.72 172.790878 
" clip-path="url(#p7ef2792b55)" style="fill: none; stroke: #b0b0b0; stroke-opacity: 0.5; stroke-width: 0.8; stroke-linecap: square"/>
     </g>
     <g id="line2d_28">
      <g>
       <use xlink:href="#m43c9618c17" x="57.6" y="172.790878" style="stroke: #000000; stroke-width: 0.8"/>
      </g>
     </g>
     <g id="text_15">
      <!-- 0.00 -->
      <g transform="translate(28.334375 176.590097) scale(0.1 -0.1)">
       <use xlink:href="#DejaVuSans-30"/>
       <use xlink:href="#DejaVuSans-2e" transform="translate(63.623047 0)"/>
       <use xlink:href="#DejaVuSans-30" transform="translate(95.410156 0)"/>
       <use xlink:href="#DejaVuSans-30" transform="translate(159.033203 0)"/>
      </g>
     </g>
    </g>
    <g id="ytick_6">
     <g id="line2d_29">
      <path d="M 57.6 142.116588 
L 414.72 142.116588 
" clip-path="url(#p7ef2792b55)" style="fill: none; stroke: #b0b0b0; stroke-opacity: 0.5; stroke-width: 0.8; stroke-linecap: square"/>
     </g>
     <g id="line2d_30">
      <g>
       <use xlink:href="#m43c9618c17" x="57.6" y="142.116588" style="stroke: #000000; stroke-width: 0.8"/>
      </g>
     </g>
     <g id="text_16">
      <!-- 0.25 -->
      <g transform="translate(28.334375 145.915807) scale(0.1 -0.1)">
       <use xlink:href="#DejaVuSans-30"/>
       <use xlink:href="#DejaVuSans-2e" transform="translate(63.623047 0)"/>
       <use xlink:href="#DejaVuSans-32" transform="translate(95.410156 0)"/>
       <use xlink:href="#DejaVuSans-35" transform="translate(159.033203 0)"/>
      </g>
     </g>
    </g>
    <g id="ytick_7">
     <g id="line2d_31">
      <path d="M 57.6 111.442299 
L 414.72 111.442299 
" clip-path="url(#p7ef2792b55)" style="fill: none; stroke: #b0b0b0; stroke-opacity: 0.5; stroke-width: 0.8; stroke-linecap: square"/>
     </g>
     <g id="line2d_32">
      <g>
       <use xlink:href="#m43c9618c17" x="57.6" y="111.442299" style="stroke: #000000; stroke-width: 0.8"/>
      </g>
     </g>
     <g id="text_17">
      <!-- 0.50 -->
      <g transform="translate(28.334375 115.241517) scale(0.1 -0.1)">
       <use xlink:href="#DejaVuSans-30"/>
       <use xlink:href="#DejaVuSans-2e" transform="translate(63.623047 0)"/>
       <use xlink:href="#DejaVuSans-35" transform="translate(95.410156 0)"/>
       <use xlink:href="#DejaVuSans-30" transform="translate(159.033203 0)"/>
      </g>
     </g>
    </g>
    <g id="ytick_8">
     <g id="line2d_33">
      <path d="M 57.6 80.768009 
L 414.72 80.768009 
" clip-path="url(#p7ef2792b55)" style="fill: none; stroke: #b0b0b0; stroke-opacity: 0.5; stroke-width: 0.8; stroke-linecap: square"/>
     </g>
     <g id="line2d_34">
      <g>
       <use xlink:href="#m43c9618c17" x="57.6" y="80.768009" style="stroke: #000000; stroke-width: 0.8"/>
      </g>
     </g>
     <g id="text_18">
      <!-- 0.75 -->
      <g transform="translate(28.334375 84.567228) scale(0.1 -0.1)">
       <use xlink:href="#DejaVuSans-30"/>
       <use xlink:href="#DejaVuSans-2e" transform="translate(63.623047 0)"/>
       <use xlink:href="#DejaVuSans-37" transform="translate(95.410156 0)"/>
       <use xlink:href="#DejaVuSans-35" transform="translate(159.033203 0)"/>
      </g>
     </g>
    </g>
    <g id="ytick_9">
     <g id="line2d_35">
      <path d="M 57.6 50.093719 
L 414.72 50.093719 
" clip-path="url(#p7ef2792b55)" style="fill: none; stroke: #b0b0b0; stroke-opacity: 0.5; stroke-width: 0.8; stroke-linecap: square"/>
     </g>
     <g id="line2d_36">
      <g>
       <use xlink:href="#m43c9618c17" x="57.6" y="50.093719" style="stroke: #000000; stroke-width: 0.8"/>
      </g>
     </g>
     <g id="text_19">
      <!-- 1.00 -->
      <g transform="translate(28.334375 53.892938) scale(0.1 -0.1)">
       <use xlink:href="#DejaVuSans-31"/>
       <use xlink:href="#DejaVuSans-2e" transform="translate(63.623047 0)"/>
       <use xlink:href="#DejaVuSans-30" transform="translate(95.410156 0)"/>
       <use xlink:href="#DejaVuSans-30" transform="translate(159.033203 0)"/>
      </g>
     </g>
    </g>
    <g id="text_20">
     <!-- Value -->
     <g transform="translate(13.875 188.25925) rotate(-90) scale(0.1 -0.1)">
      <defs>
       <path id="DejaVuSans-56" d="M 1831 0 
L 50 4666 
L 709 4666 
L 2188 738 
L 3669 4666 
L 4325 4666 
L 2547 0 
L 1831 0 
z
" transform="scale(0.015625)"/>
       <path id="DejaVuSans-61" d="M 2194 1759 
Q 1497 1759 1228 1600 
Q 959 1441 959 1056 
Q 959 750 1161 570 
Q 1363 391 1709 391 
Q 2188 391 2477 730 
Q 2766 1069 2766 1631 
L 2766 1759 
L 2194 1759 
z
M 3341 1997 
L 3341 0 
L 2766 0 
L 2766 531 
Q 2569 213 2275 61 
Q 1981 -91 1556 -91 
Q 1019 -91 701 211 
Q 384 513 384 1019 
Q 384 1609 779 1909 
Q 1175 2209 1959 2209 
L 2766 2209 
L 2766 2266 
Q 2766 2663 2505 2880 
Q 2244 3097 1772 3097 
Q 1472 3097 1187 3025 
Q 903 2953 641 2809 
L 641 3341 
Q 956 3463 1253 3523 
Q 1550 3584 1831 3584 
Q 2591 3584 2966 3190 
Q 3341 2797 3341 1997 
z
" transform="scale(0.015625)"/>
       <path id="DejaVuSans-6c" d="M 603 4863 
L 1178 4863 
L 1178 0 
L 603 0 
L 603 4863 
z
" transform="scale(0.015625)"/>
       <path id="DejaVuSans-75" d="M 544 1381 
L 544 3500 
L 1119 3500 
L 1119 1403 
Q 1119 906 1312 657 
Q 1506 409 1894 409 
Q 2359 409 2629 706 
Q 2900 1003 2900 1516 
L 2900 3500 
L 3475 3500 
L 3475 0 
L 2900 0 
L 2900 538 
Q 2691 219 2414 64 
Q 2138 -91 1772 -91 
Q 1169 -91 856 284 
Q 544 659 544 1381 
z
M 1991 3584 
L 1991 3584 
z
" transform="scale(0.015625)"/>
      </defs>
      <use xlink:href="#DejaVuSans-56"/>
      <use xlink:href="#DejaVuSans-61" transform="translate(60.658203 0)"/>
      <use xlink:href="#DejaVuSans-6c" transform="translate(121.9375 0)"/>
      <use xlink:href="#DejaVuSans-75" transform="translate(149.720703 0)"/>
      <use xlink:href="#DejaVuSans-65" transform="translate(213.099609 0)"/>
     </g>
    </g>
   </g>
   <g id="line2d_37">
    <path d="M 242.986843 173.711762 
L 260.597627 173.415636 
L 250.832353 173.119649 
L 251.824292 172.823811 
L 251.543819 172.528086 
L 261.794086 164.815867 
L 267.808738 160.328237 
L 277.503667 153.112897 
L 286.342189 146.54169 
L 296.461473 138.882528 
L 304.944088 131.329583 
L 316.485916 120.248407 
L 323.504779 114.081563 
L 333.76151 105.920844 
L 346.410507 96.180349 
L 351.697427 92.204397 
L 355.111181 89.646556 
L 362.371292 84.22277 
L 366.885243 80.785005 
L 369.038194 79.060561 
L 370.944568 77.629834 
L 372.763488 76.194097 
L 374.699107 74.767963 
L 376.594027 73.051629 
L 377.905938 71.916946 
L 379.023357 70.774898 
L 381.329165 68.798012 
L 382.137484 67.944255 
L 384.22596 66.263149 
L 384.908087 65.129797 
L 385.922483 64.292904 
L 386.540872 63.740273 
L 386.852063 63.180899 
L 387.066088 62.614029 
L 387.55196 62.050391 
L 389.054001 60.95166 
L 389.302859 60.395438 
L 389.372006 59.827076 
L 389.523398 59.542888 
L 390.263775 58.986095 
L 391.637034 58.176343 
L 391.773555 57.902532 
L 391.559959 57.33583 
L 391.444096 57.045901 
L 391.499706 56.757178 
L 391.821954 56.474621 
L 393.232148 55.937852 
L 394.002895 55.679231 
L 394.403434 55.41816 
L 394.183562 55.146302 
L 391.929898 54.249331 
L 391.855352 53.96289 
L 393.038502 53.728622 
L 398.487273 53.568 
L 388.082675 54.021323 
L 381.406609 54.505553 
L 377.635595 55.142609 
L 376.250583 55.901125 
L 376.264309 56.743751 
L 376.819806 57.635545 
L 377.005463 58.552013 
L 376.087875 59.484206 
L 373.678078 60.440144 
L 360.993829 63.695962 
L 357.119045 64.991048 
L 354.06018 66.401005 
L 352.161296 67.902503 
L 351.913225 69.453322 
L 353.592646 70.998978 
L 356.86713 72.482653 
L 360.488783 73.856197 
L 363.203277 75.09021 
L 364.292458 76.17999 
L 363.151482 77.147396 
L 359.537927 78.036864 
L 341.137802 80.825828 
L 336.450913 81.960131 
L 332.870796 83.230031 
L 330.374918 84.616973 
L 329.354228 86.080295 
L 330.386124 87.565601 
L 333.106505 89.016096 
L 336.283564 90.384141 
L 338.603446 91.64054 
L 339.241428 92.780058 
L 337.762964 93.821774 
L 334.060788 94.804436 
L 322.942608 96.791202 
L 317.914447 97.884338 
L 313.959967 99.077741 
L 311.039326 100.369822 
L 309.282193 101.737676 
L 309.000614 103.142938 
L 310.218058 104.540835 
L 312.146556 105.890238 
L 313.729069 107.162624 
L 314.109288 108.347872 
L 312.832846 109.45573 
L 309.897414 110.51249 
L 297.02458 113.735654 
L 293.68066 114.921216 
L 291.222763 116.175118 
L 289.701458 117.481672 
L 289.151041 118.814433 
L 289.526927 120.14304 
L 290.229773 121.440471 
L 290.608677 122.688898 
L 290.156741 123.883017 
L 288.656802 125.03017 
L 286.201206 126.147558 
L 277.132502 129.535717 
L 274.727327 130.728648 
L 272.882036 131.958704 
L 271.593547 133.216533 
L 270.782026 134.487775 
L 269.787472 137.010066 
L 269.104951 138.239026 
L 268.046485 139.441079 
L 266.532546 140.619541 
L 264.619229 141.782172 
L 258.067512 145.274641 
L 256.105268 146.466281 
L 254.37837 147.676297 
L 252.908338 148.901759 
L 251.675131 150.136855 
L 249.67171 152.606556 
L 247.602692 155.03517 
L 246.292957 156.22809 
L 244.742906 157.409683 
L 235.949431 163.340725 
L 234.566565 164.555925 
L 232.334439 167.000377 
L 231.336543 168.218825 
L 228.905423 170.629231 
L 227.435411 171.820642 
L 224.033311 174.191147 
L 220.531855 176.572763 
L 217.441479 178.979849 
L 210.676123 184.996693 
L 201.063497 192.157205 
L 195.459741 196.936373 
L 184.956617 205.270256 
L 176.800384 212.386932 
L 173.157056 215.947068 
L 165.071355 224.22578 
L 160.573495 228.974242 
L 158.310648 231.33395 
L 155.690192 233.682433 
L 151.190266 237.224377 
L 148.591684 239.608739 
L 145.0283 243.174195 
L 142.234718 245.524279 
L 136.047243 250.236076 
L 133.28696 252.622047 
L 129.404795 256.188687 
L 126.354476 258.541865 
L 121.389864 262.077 
L 118.49029 264.452937 
L 113.095865 269.17792 
L 106.699335 273.889051 
L 105.450037 275.081649 
L 103.616853 277.467276 
L 102.776421 278.648816 
L 101.808333 279.817828 
L 100.601786 280.975322 
L 96.186326 284.451175 
L 94.944568 285.640446 
L 94.036781 286.850018 
L 93.607376 288.069843 
L 93.847349 289.27894 
L 94.923491 290.447045 
L 96.85396 291.538405 
L 101.06934 293.355092 
L 102.118927 294.033563 
L 102.23454 294.550111 
L 101.760482 294.916947 
L 101.067168 295.158667 
L 100.009514 295.307003 
L 95.116628 295.488 
L 95.183684 295.464978 
L 94.765753 295.384772 
L 89.910121 294.947202 
L 89.071004 294.553182 
L 93.090596 293.434178 
L 93.552035 292.771343 
L 91.162298 292.10537 
L 85.918907 291.49323 
L 75.894678 290.621197 
L 78.99984 290.410698 
L 94.347763 290.3728 
L 105.574725 290.445422 
L 102.151737 290.256943 
L 98.048475 289.90417 
L 98.728291 289.396172 
L 100.720796 288.77266 
L 100.132169 288.096332 
L 95.381174 287.440481 
L 81.954735 286.44777 
L 82.629591 286.182516 
L 90.412279 286.066081 
L 110.012546 285.984457 
L 106.027119 285.74545 
L 103.362009 285.352769 
L 104.395759 284.825413 
L 105.310717 284.210209 
L 103.154001 283.571032 
L 97.590941 282.975106 
L 91.160396 282.478663 
L 87.926302 282.11552 
L 90.966162 281.890767 
L 113.379625 281.623612 
L 111.991036 281.445232 
L 108.77543 281.145489 
L 107.7797 280.724614 
L 108.481062 280.207241 
L 108.213169 279.636414 
L 105.536854 279.064396 
L 96.899301 278.107133 
L 95.767121 277.780571 
L 99.039961 277.559621 
L 116.132288 277.078537 
L 112.961694 276.522241 
L 112.652126 276.10057 
L 113.0085 275.607162 
L 112.324131 275.078614 
L 109.864391 274.557818 
L 103.577399 273.689866 
L 103.540365 273.385222 
L 106.820686 273.165245 
L 119.532556 272.729451 
L 120.114837 272.534975 
L 118.013044 271.916312 
L 117.737372 271.018624 
L 116.564313 270.528558 
L 110.529884 269.284526 
L 111.704597 269.005311 
L 119.110721 268.609989 
L 124.223558 268.24874 
L 124.32941 268.010158 
L 123.636117 267.710473 
L 123.144019 267.348529 
L 122.939786 266.935919 
L 122.448236 266.494048 
L 121.262686 266.049479 
L 118.332224 265.250557 
L 118.263356 264.927337 
L 119.829713 264.657966 
L 129.058651 263.79661 
L 129.176984 263.530069 
L 128.568835 262.85464 
L 128.253729 262.458945 
L 127.624064 262.046518 
L 124.969633 260.908543 
L 125.5176 260.606313 
L 127.215497 260.34424 
L 133.376476 259.657366 
L 134.061811 259.402548 
L 134.083555 259.112882 
L 133.529423 258.42649 
L 133.088732 258.047353 
L 131.359618 256.945923 
L 131.640111 256.630412 
L 132.71703 256.346063 
L 138.441542 255.332575 
L 138.795335 255.051122 
L 138.796511 254.744292 
L 138.508029 254.066654 
L 138.063853 253.360948 
L 138.018641 253.022144 
L 138.308646 252.701755 
L 139.033256 252.401594 
L 144.181872 251.030273 
L 144.538972 250.73344 
L 144.780827 250.093715 
L 144.888074 249.087248 
L 145.14241 248.763451 
L 145.63381 248.452072 
L 147.297513 247.86422 
L 149.855077 247.006791 
L 150.715659 246.397914 
L 151.02451 245.750319 
L 151.28805 245.090219 
L 151.550564 244.765763 
L 152.530645 244.139107 
L 155.734428 242.631466 
L 156.447323 242.003807 
L 157.677318 240.716612 
L 159.103777 239.771584 
L 162.197614 237.920305 
L 166.633752 234.770392 
L 168.694059 233.531801 
L 173.187471 230.384074 
L 175.008916 229.138349 
L 180.1466 225.394642 
L 182.33153 223.852595 
L 184.325329 222.305078 
L 187.435427 220.174332 
L 189.79676 218.337869 
L 193.572152 215.613387 
L 196.88221 213.196228 
L 199.366548 211.389026 
L 201.406498 209.879246 
L 203.964249 208.074713 
L 206.364989 206.25302 
L 208.820434 204.431776 
L 212.369484 201.677534 
L 233.004736 185.728546 
L 241.477915 179.095485 
L 248.668574 173.748753 
L 248.668574 173.748753 
" clip-path="url(#p7ef2792b55)" style="fill: none; stroke: #1f77b4; stroke-width: 1.5; stroke-linecap: square"/>
   </g>
   <g id="line2d_38">
    <path d="M 241.637062 173.711762 
L 265.986922 154.915565 
L 282.21603 142.401022 
L 291.917222 135.099348 
L 314.242865 117.899419 
L 323.945723 110.278406 
L 338.436306 99.313486 
L 343.001495 95.896344 
L 349.327383 91.066642 
L 355.97781 85.9389 
L 357.827528 84.508356 
L 359.633669 83.076444 
L 361.450497 81.643092 
L 363.270711 80.210178 
L 364.690437 79.060561 
L 366.920563 77.342347 
L 368.312638 76.194097 
L 370.599092 74.481179 
L 371.962759 73.335701 
L 374.292223 71.631543 
L 375.625092 70.491236 
L 378.054581 68.798012 
L 379.314677 67.661844 
L 381.83463 65.980716 
L 382.99717 64.848607 
L 385.641313 63.180899 
L 386.613953 62.050391 
L 387.603766 61.498455 
L 389.182304 60.675377 
L 389.640585 60.112113 
L 389.869073 59.542888 
L 390.127543 59.262049 
L 391.190746 58.714771 
L 393.135768 57.902532 
L 393.418293 57.6223 
L 393.443294 57.33583 
L 393.170591 56.757178 
L 393.248881 56.474621 
L 393.699084 56.201549 
L 395.755018 55.679231 
L 397.879661 55.146302 
L 398.037976 54.858209 
L 397.146884 54.555357 
L 395.08323 54.249331 
L 391.97495 53.96289 
L 384.318395 53.584587 
L 380.949793 53.568 
L 378.625299 53.708328 
L 377.65225 54.021323 
L 378.027279 54.505553 
L 382.846077 56.743751 
L 383.523244 57.635545 
L 382.859145 58.552013 
L 380.743616 59.484206 
L 377.427955 60.440144 
L 369.620615 62.518093 
L 366.619811 63.695962 
L 365.047049 64.991048 
L 365.164695 66.401005 
L 366.849882 67.902503 
L 369.610405 69.453322 
L 372.683843 70.998978 
L 375.197719 72.482653 
L 376.354692 73.856197 
L 375.603228 75.09021 
L 372.756635 76.17999 
L 368.035901 77.147396 
L 349.586271 79.819201 
L 344.889552 80.825828 
L 342.037032 81.960131 
L 341.21176 83.230031 
L 342.191522 84.616973 
L 344.398829 86.080295 
L 347.022173 87.565601 
L 349.185394 89.016096 
L 350.129307 90.384141 
L 349.367385 91.64054 
L 346.783585 92.780058 
L 342.649614 93.821774 
L 327.63859 96.791202 
L 324.228746 97.884338 
L 322.391937 99.077741 
L 322.095253 100.369822 
L 322.962534 101.737676 
L 324.372628 103.142938 
L 325.612199 104.540835 
L 326.044921 105.890238 
L 325.256284 107.162624 
L 323.140342 108.347872 
L 319.908166 109.45573 
L 308.586768 112.6188 
L 306.00369 113.735654 
L 304.467449 114.921216 
L 303.870471 116.175118 
L 303.88709 117.481672 
L 304.070919 118.814433 
L 303.974625 120.14304 
L 303.26002 121.440471 
L 301.771332 122.688898 
L 299.556142 123.883017 
L 293.924099 126.147558 
L 291.15879 127.257329 
L 288.799813 128.381273 
L 286.984255 129.535717 
L 285.706593 130.728648 
L 284.837534 131.958704 
L 283.477393 134.487775 
L 282.566661 135.756789 
L 281.317034 137.010066 
L 279.695393 138.239026 
L 277.750562 139.441079 
L 269.191786 144.100524 
L 267.443679 145.274641 
L 265.961112 146.466281 
L 264.712386 147.676297 
L 260.234786 152.606556 
L 258.744391 153.827957 
L 257.001611 155.03517 
L 252.961835 157.409683 
L 248.920979 159.761129 
L 247.190773 160.943325 
L 245.732515 162.136028 
L 244.521731 163.340725 
L 241.29507 167.000377 
L 239.924664 168.218825 
L 238.28072 169.428977 
L 234.349459 171.820642 
L 230.353953 174.191147 
L 228.634421 175.378934 
L 227.167568 176.572763 
L 224.784453 178.979849 
L 222.400821 181.397439 
L 220.964533 182.60232 
L 217.542287 184.996693 
L 212.136613 188.569007 
L 209.095207 190.959082 
L 203.521845 195.745541 
L 197.241527 200.502295 
L 181.820661 212.386932 
L 177.714202 215.947068 
L 174.444115 218.317417 
L 167.360812 223.041797 
L 164.631387 225.412333 
L 160.968441 228.974242 
L 159.473473 230.156177 
L 155.895093 232.50859 
L 152.084536 234.858254 
L 150.369556 236.038536 
L 148.867226 237.224377 
L 146.372962 239.608739 
L 143.896319 241.990855 
L 142.424489 243.174195 
L 138.966201 245.524279 
L 135.363991 247.870312 
L 132.289019 250.236076 
L 126.916826 255.004975 
L 123.620618 257.366907 
L 120.234126 259.716735 
L 117.362592 262.077 
L 113.557214 265.641088 
L 112.03555 266.825312 
L 108.411706 269.17792 
L 104.707657 271.523397 
L 103.182638 272.702589 
L 101.976349 273.889051 
L 99.283031 277.467276 
L 98.027637 278.648816 
L 96.305286 279.817828 
L 94.110241 280.975322 
L 89.076343 283.282353 
L 86.923292 284.451175 
L 85.51538 285.640446 
L 85.120409 286.850018 
L 85.82186 288.069843 
L 87.482504 289.27894 
L 89.760173 290.447045 
L 94.201192 292.517468 
L 95.395547 293.355092 
L 95.47837 294.033563 
L 94.403185 294.550111 
L 92.366634 294.916947 
L 87.132386 295.307003 
L 83.785309 295.477242 
L 84.9782 295.488 
L 89.761488 295.384772 
L 92.287825 295.220098 
L 94.081236 294.947202 
L 94.620756 294.553182 
L 93.601898 294.041425 
L 91.018217 293.434178 
L 82.738352 292.10537 
L 75.257583 290.986446 
L 73.832727 290.621197 
L 74.649174 290.410698 
L 77.751717 290.341134 
L 99.918144 290.445422 
L 102.936469 290.256943 
L 103.416335 289.90417 
L 101.331226 289.396172 
L 97.186786 288.77266 
L 82.752944 286.874188 
L 80.915617 286.44777 
L 81.653594 286.182516 
L 84.855873 286.066081 
L 105.362333 285.984457 
L 107.351501 285.74545 
L 106.967278 285.352769 
L 104.470783 284.825413 
L 89.991341 282.478663 
L 89.518059 282.11552 
L 91.05808 281.890767 
L 98.542714 281.738753 
L 106.849044 281.623612 
L 109.416768 281.445232 
L 110.342882 281.145489 
L 109.606778 280.724614 
L 107.518681 280.207241 
L 99.282663 278.541683 
L 98.024739 278.107133 
L 98.192526 277.780571 
L 99.791544 277.559621 
L 105.944136 277.32509 
L 112.225769 277.078537 
L 114.01168 276.849483 
L 114.47774 276.522241 
L 113.643224 276.10057 
L 109.424109 275.078614 
L 105.452238 274.085048 
L 104.835144 273.689866 
L 105.458384 273.385222 
L 107.242919 273.165245 
L 117.666661 272.534975 
L 118.717772 272.266788 
L 118.654442 271.916312 
L 117.620743 271.492308 
L 112.610232 270.057785 
L 111.782619 269.636743 
L 111.871787 269.284526 
L 112.899042 269.005311 
L 116.925587 268.609989 
L 121.153875 268.24874 
L 122.466982 268.010158 
L 122.993792 267.710473 
L 122.746628 267.348529 
L 121.8924 266.935919 
L 118.698409 265.628195 
L 118.427388 265.250557 
L 118.847619 264.927337 
L 119.935844 264.657966 
L 127.549997 263.530069 
L 127.82023 263.215443 
L 127.497743 262.85464 
L 124.675394 261.254515 
L 124.821099 260.908543 
L 125.548637 260.606313 
L 128.276648 260.110514 
L 131.155125 259.657366 
L 132.076777 259.402548 
L 132.497307 259.112882 
L 132.442912 258.785699 
L 130.850747 257.292772 
L 131.036573 256.945923 
L 131.623028 256.630412 
L 133.646839 256.08622 
L 135.769898 255.592359 
L 136.512327 255.332575 
L 136.95508 255.051122 
L 137.118734 254.744292 
L 136.957819 254.066654 
L 136.867545 253.712148 
L 136.913295 253.360948 
L 137.159503 253.022144 
L 137.623939 252.701755 
L 139.058417 252.119219 
L 141.315527 251.311873 
L 142.142343 250.73344 
L 142.427906 250.093715 
L 142.660248 249.420582 
L 142.926348 249.087248 
L 143.907276 248.452072 
L 147.059243 247.006791 
L 147.604521 246.397914 
L 148.188555 245.419647 
L 149.035631 244.765763 
L 152.205817 242.937075 
L 153.601627 241.360571 
L 155.073955 240.398263 
L 156.473241 239.462472 
L 157.782518 238.231465 
L 158.884572 237.290906 
L 163.728909 233.531801 
L 165.40315 232.267317 
L 167.54997 230.695209 
L 169.739861 228.825577 
L 171.950574 227.256299 
L 174.521037 225.087625 
L 176.655919 223.541666 
L 178.935511 221.695996 
L 183.855549 218.034747 
L 186.307166 216.220279 
L 188.310627 214.702681 
L 189.801063 213.496173 
L 193.126013 211.085841 
L 194.640525 209.879246 
L 197.966196 207.466808 
L 201.586408 204.736841 
L 208.700443 199.218456 
L 210.995219 197.37153 
L 213.331277 195.5255 
L 215.657835 193.680559 
L 221.492993 189.083868 
L 231.392413 181.493584 
L 236.892146 177.308763 
L 241.589381 173.748753 
L 241.589381 173.748753 
" clip-path="url(#p7ef2792b55)" style="fill: none; stroke: #ff7f0e; stroke-opacity: 0.5; stroke-width: 1.5; stroke-linecap: square"/>
   </g>
   <g id="patch_3">
    <path d="M 57.6 307.584 
L 57.6 41.472 
" style="fill: none; stroke: #000000; stroke-width: 0.8; stroke-linejoin: miter; stroke-linecap: square"/>
   </g>
   <g id="patch_4">
    <path d="M 414.72 307.584 
L 414.72 41.472 
" style="fill: none; stroke: #000000; stroke-width: 0.8; stroke-linejoin: miter; stroke-linecap: square"/>
   </g>
   <g id="patch_5">
    <path d="M 57.6 307.584 
L 414.72 307.584 
" style="fill: none; stroke: #000000; stroke-width: 0.8; stroke-linejoin: miter; stroke-linecap: square"/>
   </g>
   <g id="patch_6">
    <path d="M 57.6 41.472 
L 414.72 41.472 
" style="fill: none; stroke: #000000; stroke-width: 0.8; stroke-linejoin: miter; stroke-linecap: square"/>
   </g>
   <g id="text_21">
    <!-- Compare - Epoch 700 -->
    <g transform="translate(171.234375 35.472) scale(0.12 -0.12)">
     <defs>
      <path id="DejaVuSans-43" d="M 4122 4306 
L 4122 3641 
Q 3803 3938 3442 4084 
Q 3081 4231 2675 4231 
Q 1875 4231 1450 3742 
Q 1025 3253 1025 2328 
Q 1025 1406 1450 917 
Q 1875 428 2675 428 
Q 3081 428 3442 575 
Q 3803 722 4122 1019 
L 4122 359 
Q 3791 134 3420 21 
Q 3050 -91 2638 -91 
Q 1578 -91 968 557 
Q 359 1206 359 2328 
Q 359 3453 968 4101 
Q 1578 4750 2638 4750 
Q 3056 4750 3426 4639 
Q 3797 4528 4122 4306 
z
" transform="scale(0.015625)"/>
      <path id="DejaVuSans-6f" d="M 1959 3097 
Q 1497 3097 1228 2736 
Q 959 2375 959 1747 
Q 959 1119 1226 758 
Q 1494 397 1959 397 
Q 2419 397 2687 759 
Q 2956 1122 2956 1747 
Q 2956 2369 2687 2733 
Q 2419 3097 1959 3097 
z
M 1959 3584 
Q 2709 3584 3137 3096 
Q 3566 2609 3566 1747 
Q 3566 888 3137 398 
Q 2709 -91 1959 -91 
Q 1206 -91 779 398 
Q 353 888 353 1747 
Q 353 2609 779 3096 
Q 1206 3584 1959 3584 
z
" transform="scale(0.015625)"/>
      <path id="DejaVuSans-6d" d="M 3328 2828 
Q 3544 3216 3844 3400 
Q 4144 3584 4550 3584 
Q 5097 3584 5394 3201 
Q 5691 2819 5691 2113 
L 5691 0 
L 5113 0 
L 5113 2094 
Q 5113 2597 4934 2840 
Q 4756 3084 4391 3084 
Q 3944 3084 3684 2787 
Q 3425 2491 3425 1978 
L 3425 0 
L 2847 0 
L 2847 2094 
Q 2847 2600 2669 2842 
Q 2491 3084 2119 3084 
Q 1678 3084 1418 2786 
Q 1159 2488 1159 1978 
L 1159 0 
L 581 0 
L 581 3500 
L 1159 3500 
L 1159 2956 
Q 1356 3278 1631 3431 
Q 1906 3584 2284 3584 
Q 2666 3584 2933 3390 
Q 3200 3197 3328 2828 
z
" transform="scale(0.015625)"/>
      <path id="DejaVuSans-70" d="M 1159 525 
L 1159 -1331 
L 581 -1331 
L 581 3500 
L 1159 3500 
L 1159 2969 
Q 1341 3281 1617 3432 
Q 1894 3584 2278 3584 
Q 2916 3584 3314 3078 
Q 3713 2572 3713 1747 
Q 3713 922 3314 415 
Q 2916 -91 2278 -91 
Q 1894 -91 1617 61 
Q 1341 213 1159 525 
z
M 3116 1747 
Q 3116 2381 2855 2742 
Q 2594 3103 2138 3103 
Q 1681 3103 1420 2742 
Q 1159 2381 1159 1747 
Q 1159 1113 1420 752 
Q 1681 391 2138 391 
Q 2594 391 2855 752 
Q 3116 1113 3116 1747 
z
" transform="scale(0.015625)"/>
      <path id="DejaVuSans-72" d="M 2631 2963 
Q 2534 3019 2420 3045 
Q 2306 3072 2169 3072 
Q 1681 3072 1420 2755 
Q 1159 2438 1159 1844 
L 1159 0 
L 581 0 
L 581 3500 
L 1159 3500 
L 1159 2956 
Q 1341 3275 1631 3429 
Q 1922 3584 2338 3584 
Q 2397 3584 2469 3576 
Q 2541 3569 2628 3553 
L 2631 2963 
z
" transform="scale(0.015625)"/>
      <path id="DejaVuSans-20" transform="scale(0.015625)"/>
      <path id="DejaVuSans-2d" d="M 313 2009 
L 1997 2009 
L 1997 1497 
L 313 1497 
L 313 2009 
z
" transform="scale(0.015625)"/>
      <path id="DejaVuSans-45" d="M 628 4666 
L 3578 4666 
L 3578 4134 
L 1259 4134 
L 1259 2753 
L 3481 2753 
L 3481 2222 
L 1259 2222 
L 1259 531 
L 3634 531 
L 3634 0 
L 628 0 
L 628 4666 
z
" transform="scale(0.015625)"/>
      <path id="DejaVuSans-63" d="M 3122 3366 
L 3122 2828 
Q 2878 2963 2633 3030 
Q 2388 3097 2138 3097 
Q 1578 3097 1268 2742 
Q 959 2388 959 1747 
Q 959 1106 1268 751 
Q 1578 397 2138 397 
Q 2388 397 2633 464 
Q 2878 531 3122 666 
L 3122 134 
Q 2881 22 2623 -34 
Q 2366 -91 2075 -91 
Q 1284 -91 818 406 
Q 353 903 353 1747 
Q 353 2603 823 3093 
Q 1294 3584 2113 3584 
Q 2378 3584 2631 3529 
Q 2884 3475 3122 3366 
z
" transform="scale(0.015625)"/>
      <path id="DejaVuSans-68" d="M 3513 2113 
L 3513 0 
L 2938 0 
L 2938 2094 
Q 2938 2591 2744 2837 
Q 2550 3084 2163 3084 
Q 1697 3084 1428 2787 
Q 1159 2491 1159 1978 
L 1159 0 
L 581 0 
L 581 4863 
L 1159 4863 
L 1159 2956 
Q 1366 3272 1645 3428 
Q 1925 3584 2291 3584 
Q 2894 3584 3203 3211 
Q 3513 2838 3513 2113 
z
" transform="scale(0.015625)"/>
     </defs>
     <use xlink:href="#DejaVuSans-43"/>
     <use xlink:href="#DejaVuSans-6f" transform="translate(69.824219 0)"/>
     <use xlink:href="#DejaVuSans-6d" transform="translate(131.005859 0)"/>
     <use xlink:href="#DejaVuSans-70" transform="translate(228.417969 0)"/>
     <use xlink:href="#DejaVuSans-61" transform="translate(291.894531 0)"/>
     <use xlink:href="#DejaVuSans-72" transform="translate(353.173828 0)"/>
     <use xlink:href="#DejaVuSans-65" transform="translate(392.037109 0)"/>
     <use xlink:href="#DejaVuSans-20" transform="translate(453.560547 0)"/>
     <use xlink:href="#DejaVuSans-2d" transform="translate(485.347656 0)"/>
     <use xlink:href="#DejaVuSans-20" transform="translate(521.431641 0)"/>
     <use xlink:href="#DejaVuSans-45" transform="translate(553.21875 0)"/>
     <use xlink:href="#DejaVuSans-70" transform="translate(616.402344 0)"/>
     <use xlink:href="#DejaVuSans-6f" transform="translate(679.878906 0)"/>
     <use xlink:href="#DejaVuSans-63" transform="translate(741.060547 0)"/>
     <use xlink:href="#DejaVuSans-68" transform="translate(796.041016 0)"/>
     <use xlink:href="#DejaVuSans-20" transform="translate(859.419922 0)"/>
     <use xlink:href="#DejaVuSans-37" transform="translate(891.207031 0)"/>
     <use xlink:href="#DejaVuSans-30" transform="translate(954.830078 0)"/>
     <use xlink:href="#DejaVuSans-30" transform="translate(1018.453125 0)"/>
    </g>
   </g>
   <g id="legend_1">
    <g id="patch_7">
     <path d="M 64.6 78.82825 
L 181.128125 78.82825 
Q 183.128125 78.82825 183.128125 76.82825 
L 183.128125 48.472 
Q 183.128125 46.472 181.128125 46.472 
L 64.6 46.472 
Q 62.6 46.472 62.6 48.472 
L 62.6 76.82825 
Q 62.6 78.82825 64.6 78.82825 
z
" style="fill: #ffffff; opacity: 0.8; stroke: #cccccc; stroke-linejoin: miter"/>
    </g>
    <g id="line2d_39">
     <path d="M 66.6 54.570437 
L 76.6 54.570437 
L 86.6 54.570437 
" style="fill: none; stroke: #1f77b4; stroke-width: 1.5; stroke-linecap: square"/>
    </g>
    <g id="text_22">
     <!-- Pred: Sample 1 -->
     <g transform="translate(94.6 58.070437) scale(0.1 -0.1)">
      <defs>
       <path id="DejaVuSans-50" d="M 1259 4147 
L 1259 2394 
L 2053 2394 
Q 2494 2394 2734 2622 
Q 2975 2850 2975 3272 
Q 2975 3691 2734 3919 
Q 2494 4147 2053 4147 
L 1259 4147 
z
M 628 4666 
L 2053 4666 
Q 2838 4666 3239 4311 
Q 3641 3956 3641 3272 
Q 3641 2581 3239 2228 
Q 2838 1875 2053 1875 
L 1259 1875 
L 1259 0 
L 628 0 
L 628 4666 
z
" transform="scale(0.015625)"/>
       <path id="DejaVuSans-3a" d="M 750 794 
L 1409 794 
L 1409 0 
L 750 0 
L 750 794 
z
M 750 3309 
L 1409 3309 
L 1409 2516 
L 750 2516 
L 750 3309 
z
" transform="scale(0.015625)"/>
       <path id="DejaVuSans-53" d="M 3425 4513 
L 3425 3897 
Q 3066 4069 2747 4153 
Q 2428 4238 2131 4238 
Q 1616 4238 1336 4038 
Q 1056 3838 1056 3469 
Q 1056 3159 1242 3001 
Q 1428 2844 1947 2747 
L 2328 2669 
Q 3034 2534 3370 2195 
Q 3706 1856 3706 1288 
Q 3706 609 3251 259 
Q 2797 -91 1919 -91 
Q 1588 -91 1214 -16 
Q 841 59 441 206 
L 441 856 
Q 825 641 1194 531 
Q 1563 422 1919 422 
Q 2459 422 2753 634 
Q 3047 847 3047 1241 
Q 3047 1584 2836 1778 
Q 2625 1972 2144 2069 
L 1759 2144 
Q 1053 2284 737 2584 
Q 422 2884 422 3419 
Q 422 4038 858 4394 
Q 1294 4750 2059 4750 
Q 2388 4750 2728 4690 
Q 3069 4631 3425 4513 
z
" transform="scale(0.015625)"/>
      </defs>
      <use xlink:href="#DejaVuSans-50"/>
      <use xlink:href="#DejaVuSans-72" transform="translate(58.552734 0)"/>
      <use xlink:href="#DejaVuSans-65" transform="translate(97.416016 0)"/>
      <use xlink:href="#DejaVuSans-64" transform="translate(158.939453 0)"/>
      <use xlink:href="#DejaVuSans-3a" transform="translate(222.416016 0)"/>
      <use xlink:href="#DejaVuSans-20" transform="translate(256.107422 0)"/>
      <use xlink:href="#DejaVuSans-53" transform="translate(287.894531 0)"/>
      <use xlink:href="#DejaVuSans-61" transform="translate(351.371094 0)"/>
      <use xlink:href="#DejaVuSans-6d" transform="translate(412.650391 0)"/>
      <use xlink:href="#DejaVuSans-70" transform="translate(510.0625 0)"/>
      <use xlink:href="#DejaVuSans-6c" transform="translate(573.539062 0)"/>
      <use xlink:href="#DejaVuSans-65" transform="translate(601.322266 0)"/>
      <use xlink:href="#DejaVuSans-20" transform="translate(662.845703 0)"/>
      <use xlink:href="#DejaVuSans-31" transform="translate(694.632812 0)"/>
     </g>
    </g>
    <g id="line2d_40">
     <path d="M 66.6 69.248562 
L 76.6 69.248562 
L 86.6 69.248562 
" style="fill: none; stroke: #ff7f0e; stroke-opacity: 0.5; stroke-width: 1.5; stroke-linecap: square"/>
    </g>
    <g id="text_23">
     <!-- Target: Sample 1 -->
     <g transform="translate(94.6 72.748562) scale(0.1 -0.1)">
      <defs>
       <path id="DejaVuSans-54" d="M -19 4666 
L 3928 4666 
L 3928 4134 
L 2272 4134 
L 2272 0 
L 1638 0 
L 1638 4134 
L -19 4134 
L -19 4666 
z
" transform="scale(0.015625)"/>
       <path id="DejaVuSans-67" d="M 2906 1791 
Q 2906 2416 2648 2759 
Q 2391 3103 1925 3103 
Q 1463 3103 1205 2759 
Q 947 2416 947 1791 
Q 947 1169 1205 825 
Q 1463 481 1925 481 
Q 2391 481 2648 825 
Q 2906 1169 2906 1791 
z
M 3481 434 
Q 3481 -459 3084 -895 
Q 2688 -1331 1869 -1331 
Q 1566 -1331 1297 -1286 
Q 1028 -1241 775 -1147 
L 775 -588 
Q 1028 -725 1275 -790 
Q 1522 -856 1778 -856 
Q 2344 -856 2625 -561 
Q 2906 -266 2906 331 
L 2906 616 
Q 2728 306 2450 153 
Q 2172 0 1784 0 
Q 1141 0 747 490 
Q 353 981 353 1791 
Q 353 2603 747 3093 
Q 1141 3584 1784 3584 
Q 2172 3584 2450 3431 
Q 2728 3278 2906 2969 
L 2906 3500 
L 3481 3500 
L 3481 434 
z
" transform="scale(0.015625)"/>
       <path id="DejaVuSans-74" d="M 1172 4494 
L 1172 3500 
L 2356 3500 
L 2356 3053 
L 1172 3053 
L 1172 1153 
Q 1172 725 1289 603 
Q 1406 481 1766 481 
L 2356 481 
L 2356 0 
L 1766 0 
Q 1100 0 847 248 
Q 594 497 594 1153 
L 594 3053 
L 172 3053 
L 172 3500 
L 594 3500 
L 594 4494 
L 1172 4494 
z
" transform="scale(0.015625)"/>
      </defs>
      <use xlink:href="#DejaVuSans-54"/>
      <use xlink:href="#DejaVuSans-61" transform="translate(44.583984 0)"/>
      <use xlink:href="#DejaVuSans-72" transform="translate(105.863281 0)"/>
      <use xlink:href="#DejaVuSans-67" transform="translate(145.226562 0)"/>
      <use xlink:href="#DejaVuSans-65" transform="translate(208.703125 0)"/>
      <use xlink:href="#DejaVuSans-74" transform="translate(270.226562 0)"/>
      <use xlink:href="#DejaVuSans-3a" transform="translate(309.435547 0)"/>
      <use xlink:href="#DejaVuSans-20" transform="translate(343.126953 0)"/>
      <use xlink:href="#DejaVuSans-53" transform="translate(374.914062 0)"/>
      <use xlink:href="#DejaVuSans-61" transform="translate(438.390625 0)"/>
      <use xlink:href="#DejaVuSans-6d" transform="translate(499.669922 0)"/>
      <use xlink:href="#DejaVuSans-70" transform="translate(597.082031 0)"/>
      <use xlink:href="#DejaVuSans-6c" transform="translate(660.558594 0)"/>
      <use xlink:href="#DejaVuSans-65" transform="translate(688.341797 0)"/>
      <use xlink:href="#DejaVuSans-20" transform="translate(749.865234 0)"/>
      <use xlink:href="#DejaVuSans-31" transform="translate(781.652344 0)"/>
     </g>
    </g>
   </g>
  </g>
 </g>
 <defs>
  <clipPath id="p7ef2792b55">
   <rect x="57.6" y="41.472" width="357.12" height="266.112"/>
  </clipPath>
 </defs>
</svg>
