<?xml version="1.0" encoding="utf-8" standalone="no"?>
<!DOCTYPE svg PUBLIC "-//W3C//DTD SVG 1.1//EN"
  "http://www.w3.org/Graphics/SVG/1.1/DTD/svg11.dtd">
<svg xmlns:xlink="http://www.w3.org/1999/xlink" width="460.8pt" height="345.6pt" viewBox="0 0 460.8 345.6" xmlns="http://www.w3.org/2000/svg" version="1.1">
 <metadata>
  <rdf:RDF xmlns:dc="http://purl.org/dc/elements/1.1/" xmlns:cc="http://creativecommons.org/ns#" xmlns:rdf="http://www.w3.org/1999/02/22-rdf-syntax-ns#">
   <cc:Work>
    <dc:type rdf:resource="http://purl.org/dc/dcmitype/StillImage"/>
    <dc:date>2025-06-03T22:22:12.225314</dc:date>
    <dc:format>image/svg+xml</dc:format>
    <dc:creator>
     <cc:Agent>
      <dc:title>Matplotlib v3.10.0, https://matplotlib.org/</dc:title>
     </cc:Agent>
    </dc:creator>
   </cc:Work>
  </rdf:RDF>
 </metadata>
 <defs>
  <style type="text/css">*{stroke-linejoin: round; stroke-linecap: butt}</style>
 </defs>
 <g id="figure_1">
  <g id="patch_1">
   <path d="M 0 345.6 
L 460.8 345.6 
L 460.8 0 
L 0 0 
z
" style="fill: #ffffff"/>
  </g>
  <g id="axes_1">
   <g id="patch_2">
    <path d="M 57.6 307.584 
L 414.72 307.584 
L 414.72 41.472 
L 57.6 41.472 
z
" style="fill: #ffffff"/>
   </g>
   <g id="matplotlib.axis_1">
    <g id="xtick_1">
     <g id="line2d_1">
      <path d="M 73.832727 307.584 
L 73.832727 41.472 
" clip-path="url(#pee3ec6169e)" style="fill: none; stroke: #b0b0b0; stroke-opacity: 0.5; stroke-width: 0.8; stroke-linecap: square"/>
     </g>
     <g id="line2d_2">
      <defs>
       <path id="m565e00272d" d="M 0 0 
L 0 3.5 
" style="stroke: #000000; stroke-width: 0.8"/>
      </defs>
      <g>
       <use xlink:href="#m565e00272d" x="73.832727" y="307.584" style="stroke: #000000; stroke-width: 0.8"/>
      </g>
     </g>
     <g id="text_1">
      <!-- −1.00 -->
      <g transform="translate(58.510071 322.182437) scale(0.1 -0.1)">
       <defs>
        <path id="DejaVuSans-2212" d="M 678 2272 
L 4684 2272 
L 4684 1741 
L 678 1741 
L 678 2272 
z
" transform="scale(0.015625)"/>
        <path id="DejaVuSans-31" d="M 794 531 
L 1825 531 
L 1825 4091 
L 703 3866 
L 703 4441 
L 1819 4666 
L 2450 4666 
L 2450 531 
L 3481 531 
L 3481 0 
L 794 0 
L 794 531 
z
" transform="scale(0.015625)"/>
        <path id="DejaVuSans-2e" d="M 684 794 
L 1344 794 
L 1344 0 
L 684 0 
L 684 794 
z
" transform="scale(0.015625)"/>
        <path id="DejaVuSans-30" d="M 2034 4250 
Q 1547 4250 1301 3770 
Q 1056 3291 1056 2328 
Q 1056 1369 1301 889 
Q 1547 409 2034 409 
Q 2525 409 2770 889 
Q 3016 1369 3016 2328 
Q 3016 3291 2770 3770 
Q 2525 4250 2034 4250 
z
M 2034 4750 
Q 2819 4750 3233 4129 
Q 3647 3509 3647 2328 
Q 3647 1150 3233 529 
Q 2819 -91 2034 -91 
Q 1250 -91 836 529 
Q 422 1150 422 2328 
Q 422 3509 836 4129 
Q 1250 4750 2034 4750 
z
" transform="scale(0.015625)"/>
       </defs>
       <use xlink:href="#DejaVuSans-2212"/>
       <use xlink:href="#DejaVuSans-31" transform="translate(83.789062 0)"/>
       <use xlink:href="#DejaVuSans-2e" transform="translate(147.412109 0)"/>
       <use xlink:href="#DejaVuSans-30" transform="translate(179.199219 0)"/>
       <use xlink:href="#DejaVuSans-30" transform="translate(242.822266 0)"/>
      </g>
     </g>
    </g>
    <g id="xtick_2">
     <g id="line2d_3">
      <path d="M 115.330924 307.584 
L 115.330924 41.472 
" clip-path="url(#pee3ec6169e)" style="fill: none; stroke: #b0b0b0; stroke-opacity: 0.5; stroke-width: 0.8; stroke-linecap: square"/>
     </g>
     <g id="line2d_4">
      <g>
       <use xlink:href="#m565e00272d" x="115.330924" y="307.584" style="stroke: #000000; stroke-width: 0.8"/>
      </g>
     </g>
     <g id="text_2">
      <!-- −0.75 -->
      <g transform="translate(100.008267 322.182437) scale(0.1 -0.1)">
       <defs>
        <path id="DejaVuSans-37" d="M 525 4666 
L 3525 4666 
L 3525 4397 
L 1831 0 
L 1172 0 
L 2766 4134 
L 525 4134 
L 525 4666 
z
" transform="scale(0.015625)"/>
        <path id="DejaVuSans-35" d="M 691 4666 
L 3169 4666 
L 3169 4134 
L 1269 4134 
L 1269 2991 
Q 1406 3038 1543 3061 
Q 1681 3084 1819 3084 
Q 2600 3084 3056 2656 
Q 3513 2228 3513 1497 
Q 3513 744 3044 326 
Q 2575 -91 1722 -91 
Q 1428 -91 1123 -41 
Q 819 9 494 109 
L 494 744 
Q 775 591 1075 516 
Q 1375 441 1709 441 
Q 2250 441 2565 725 
Q 2881 1009 2881 1497 
Q 2881 1984 2565 2268 
Q 2250 2553 1709 2553 
Q 1456 2553 1204 2497 
Q 953 2441 691 2322 
L 691 4666 
z
" transform="scale(0.015625)"/>
       </defs>
       <use xlink:href="#DejaVuSans-2212"/>
       <use xlink:href="#DejaVuSans-30" transform="translate(83.789062 0)"/>
       <use xlink:href="#DejaVuSans-2e" transform="translate(147.412109 0)"/>
       <use xlink:href="#DejaVuSans-37" transform="translate(179.199219 0)"/>
       <use xlink:href="#DejaVuSans-35" transform="translate(242.822266 0)"/>
      </g>
     </g>
    </g>
    <g id="xtick_3">
     <g id="line2d_5">
      <path d="M 156.82912 307.584 
L 156.82912 41.472 
" clip-path="url(#pee3ec6169e)" style="fill: none; stroke: #b0b0b0; stroke-opacity: 0.5; stroke-width: 0.8; stroke-linecap: square"/>
     </g>
     <g id="line2d_6">
      <g>
       <use xlink:href="#m565e00272d" x="156.82912" y="307.584" style="stroke: #000000; stroke-width: 0.8"/>
      </g>
     </g>
     <g id="text_3">
      <!-- −0.50 -->
      <g transform="translate(141.506463 322.182437) scale(0.1 -0.1)">
       <use xlink:href="#DejaVuSans-2212"/>
       <use xlink:href="#DejaVuSans-30" transform="translate(83.789062 0)"/>
       <use xlink:href="#DejaVuSans-2e" transform="translate(147.412109 0)"/>
       <use xlink:href="#DejaVuSans-35" transform="translate(179.199219 0)"/>
       <use xlink:href="#DejaVuSans-30" transform="translate(242.822266 0)"/>
      </g>
     </g>
    </g>
    <g id="xtick_4">
     <g id="line2d_7">
      <path d="M 198.327316 307.584 
L 198.327316 41.472 
" clip-path="url(#pee3ec6169e)" style="fill: none; stroke: #b0b0b0; stroke-opacity: 0.5; stroke-width: 0.8; stroke-linecap: square"/>
     </g>
     <g id="line2d_8">
      <g>
       <use xlink:href="#m565e00272d" x="198.327316" y="307.584" style="stroke: #000000; stroke-width: 0.8"/>
      </g>
     </g>
     <g id="text_4">
      <!-- −0.25 -->
      <g transform="translate(183.00466 322.182437) scale(0.1 -0.1)">
       <defs>
        <path id="DejaVuSans-32" d="M 1228 531 
L 3431 531 
L 3431 0 
L 469 0 
L 469 531 
Q 828 903 1448 1529 
Q 2069 2156 2228 2338 
Q 2531 2678 2651 2914 
Q 2772 3150 2772 3378 
Q 2772 3750 2511 3984 
Q 2250 4219 1831 4219 
Q 1534 4219 1204 4116 
Q 875 4013 500 3803 
L 500 4441 
Q 881 4594 1212 4672 
Q 1544 4750 1819 4750 
Q 2544 4750 2975 4387 
Q 3406 4025 3406 3419 
Q 3406 3131 3298 2873 
Q 3191 2616 2906 2266 
Q 2828 2175 2409 1742 
Q 1991 1309 1228 531 
z
" transform="scale(0.015625)"/>
       </defs>
       <use xlink:href="#DejaVuSans-2212"/>
       <use xlink:href="#DejaVuSans-30" transform="translate(83.789062 0)"/>
       <use xlink:href="#DejaVuSans-2e" transform="translate(147.412109 0)"/>
       <use xlink:href="#DejaVuSans-32" transform="translate(179.199219 0)"/>
       <use xlink:href="#DejaVuSans-35" transform="translate(242.822266 0)"/>
      </g>
     </g>
    </g>
    <g id="xtick_5">
     <g id="line2d_9">
      <path d="M 239.825512 307.584 
L 239.825512 41.472 
" clip-path="url(#pee3ec6169e)" style="fill: none; stroke: #b0b0b0; stroke-opacity: 0.5; stroke-width: 0.8; stroke-linecap: square"/>
     </g>
     <g id="line2d_10">
      <g>
       <use xlink:href="#m565e00272d" x="239.825512" y="307.584" style="stroke: #000000; stroke-width: 0.8"/>
      </g>
     </g>
     <g id="text_5">
      <!-- 0.00 -->
      <g transform="translate(228.6927 322.182437) scale(0.1 -0.1)">
       <use xlink:href="#DejaVuSans-30"/>
       <use xlink:href="#DejaVuSans-2e" transform="translate(63.623047 0)"/>
       <use xlink:href="#DejaVuSans-30" transform="translate(95.410156 0)"/>
       <use xlink:href="#DejaVuSans-30" transform="translate(159.033203 0)"/>
      </g>
     </g>
    </g>
    <g id="xtick_6">
     <g id="line2d_11">
      <path d="M 281.323708 307.584 
L 281.323708 41.472 
" clip-path="url(#pee3ec6169e)" style="fill: none; stroke: #b0b0b0; stroke-opacity: 0.5; stroke-width: 0.8; stroke-linecap: square"/>
     </g>
     <g id="line2d_12">
      <g>
       <use xlink:href="#m565e00272d" x="281.323708" y="307.584" style="stroke: #000000; stroke-width: 0.8"/>
      </g>
     </g>
     <g id="text_6">
      <!-- 0.25 -->
      <g transform="translate(270.190896 322.182437) scale(0.1 -0.1)">
       <use xlink:href="#DejaVuSans-30"/>
       <use xlink:href="#DejaVuSans-2e" transform="translate(63.623047 0)"/>
       <use xlink:href="#DejaVuSans-32" transform="translate(95.410156 0)"/>
       <use xlink:href="#DejaVuSans-35" transform="translate(159.033203 0)"/>
      </g>
     </g>
    </g>
    <g id="xtick_7">
     <g id="line2d_13">
      <path d="M 322.821905 307.584 
L 322.821905 41.472 
" clip-path="url(#pee3ec6169e)" style="fill: none; stroke: #b0b0b0; stroke-opacity: 0.5; stroke-width: 0.8; stroke-linecap: square"/>
     </g>
     <g id="line2d_14">
      <g>
       <use xlink:href="#m565e00272d" x="322.821905" y="307.584" style="stroke: #000000; stroke-width: 0.8"/>
      </g>
     </g>
     <g id="text_7">
      <!-- 0.50 -->
      <g transform="translate(311.689092 322.182437) scale(0.1 -0.1)">
       <use xlink:href="#DejaVuSans-30"/>
       <use xlink:href="#DejaVuSans-2e" transform="translate(63.623047 0)"/>
       <use xlink:href="#DejaVuSans-35" transform="translate(95.410156 0)"/>
       <use xlink:href="#DejaVuSans-30" transform="translate(159.033203 0)"/>
      </g>
     </g>
    </g>
    <g id="xtick_8">
     <g id="line2d_15">
      <path d="M 364.320101 307.584 
L 364.320101 41.472 
" clip-path="url(#pee3ec6169e)" style="fill: none; stroke: #b0b0b0; stroke-opacity: 0.5; stroke-width: 0.8; stroke-linecap: square"/>
     </g>
     <g id="line2d_16">
      <g>
       <use xlink:href="#m565e00272d" x="364.320101" y="307.584" style="stroke: #000000; stroke-width: 0.8"/>
      </g>
     </g>
     <g id="text_8">
      <!-- 0.75 -->
      <g transform="translate(353.187288 322.182437) scale(0.1 -0.1)">
       <use xlink:href="#DejaVuSans-30"/>
       <use xlink:href="#DejaVuSans-2e" transform="translate(63.623047 0)"/>
       <use xlink:href="#DejaVuSans-37" transform="translate(95.410156 0)"/>
       <use xlink:href="#DejaVuSans-35" transform="translate(159.033203 0)"/>
      </g>
     </g>
    </g>
    <g id="xtick_9">
     <g id="line2d_17">
      <path d="M 405.818297 307.584 
L 405.818297 41.472 
" clip-path="url(#pee3ec6169e)" style="fill: none; stroke: #b0b0b0; stroke-opacity: 0.5; stroke-width: 0.8; stroke-linecap: square"/>
     </g>
     <g id="line2d_18">
      <g>
       <use xlink:href="#m565e00272d" x="405.818297" y="307.584" style="stroke: #000000; stroke-width: 0.8"/>
      </g>
     </g>
     <g id="text_9">
      <!-- 1.00 -->
      <g transform="translate(394.685485 322.182437) scale(0.1 -0.1)">
       <use xlink:href="#DejaVuSans-31"/>
       <use xlink:href="#DejaVuSans-2e" transform="translate(63.623047 0)"/>
       <use xlink:href="#DejaVuSans-30" transform="translate(95.410156 0)"/>
       <use xlink:href="#DejaVuSans-30" transform="translate(159.033203 0)"/>
      </g>
     </g>
    </g>
    <g id="text_10">
     <!-- Index -->
     <g transform="translate(222.393594 335.860562) scale(0.1 -0.1)">
      <defs>
       <path id="DejaVuSans-49" d="M 628 4666 
L 1259 4666 
L 1259 0 
L 628 0 
L 628 4666 
z
" transform="scale(0.015625)"/>
       <path id="DejaVuSans-6e" d="M 3513 2113 
L 3513 0 
L 2938 0 
L 2938 2094 
Q 2938 2591 2744 2837 
Q 2550 3084 2163 3084 
Q 1697 3084 1428 2787 
Q 1159 2491 1159 1978 
L 1159 0 
L 581 0 
L 581 3500 
L 1159 3500 
L 1159 2956 
Q 1366 3272 1645 3428 
Q 1925 3584 2291 3584 
Q 2894 3584 3203 3211 
Q 3513 2838 3513 2113 
z
" transform="scale(0.015625)"/>
       <path id="DejaVuSans-64" d="M 2906 2969 
L 2906 4863 
L 3481 4863 
L 3481 0 
L 2906 0 
L 2906 525 
Q 2725 213 2448 61 
Q 2172 -91 1784 -91 
Q 1150 -91 751 415 
Q 353 922 353 1747 
Q 353 2572 751 3078 
Q 1150 3584 1784 3584 
Q 2172 3584 2448 3432 
Q 2725 3281 2906 2969 
z
M 947 1747 
Q 947 1113 1208 752 
Q 1469 391 1925 391 
Q 2381 391 2643 752 
Q 2906 1113 2906 1747 
Q 2906 2381 2643 2742 
Q 2381 3103 1925 3103 
Q 1469 3103 1208 2742 
Q 947 2381 947 1747 
z
" transform="scale(0.015625)"/>
       <path id="DejaVuSans-65" d="M 3597 1894 
L 3597 1613 
L 953 1613 
Q 991 1019 1311 708 
Q 1631 397 2203 397 
Q 2534 397 2845 478 
Q 3156 559 3463 722 
L 3463 178 
Q 3153 47 2828 -22 
Q 2503 -91 2169 -91 
Q 1331 -91 842 396 
Q 353 884 353 1716 
Q 353 2575 817 3079 
Q 1281 3584 2069 3584 
Q 2775 3584 3186 3129 
Q 3597 2675 3597 1894 
z
M 3022 2063 
Q 3016 2534 2758 2815 
Q 2500 3097 2075 3097 
Q 1594 3097 1305 2825 
Q 1016 2553 972 2059 
L 3022 2063 
z
" transform="scale(0.015625)"/>
       <path id="DejaVuSans-78" d="M 3513 3500 
L 2247 1797 
L 3578 0 
L 2900 0 
L 1881 1375 
L 863 0 
L 184 0 
L 1544 1831 
L 300 3500 
L 978 3500 
L 1906 2253 
L 2834 3500 
L 3513 3500 
z
" transform="scale(0.015625)"/>
      </defs>
      <use xlink:href="#DejaVuSans-49"/>
      <use xlink:href="#DejaVuSans-6e" transform="translate(29.492188 0)"/>
      <use xlink:href="#DejaVuSans-64" transform="translate(92.871094 0)"/>
      <use xlink:href="#DejaVuSans-65" transform="translate(156.347656 0)"/>
      <use xlink:href="#DejaVuSans-78" transform="translate(216.121094 0)"/>
     </g>
    </g>
   </g>
   <g id="matplotlib.axis_2">
    <g id="ytick_1">
     <g id="line2d_19">
      <path d="M 57.6 295.488037 
L 414.72 295.488037 
" clip-path="url(#pee3ec6169e)" style="fill: none; stroke: #b0b0b0; stroke-opacity: 0.5; stroke-width: 0.8; stroke-linecap: square"/>
     </g>
     <g id="line2d_20">
      <defs>
       <path id="m3be7a83f16" d="M 0 0 
L -3.5 0 
" style="stroke: #000000; stroke-width: 0.8"/>
      </defs>
      <g>
       <use xlink:href="#m3be7a83f16" x="57.6" y="295.488037" style="stroke: #000000; stroke-width: 0.8"/>
      </g>
     </g>
     <g id="text_11">
      <!-- −1.00 -->
      <g transform="translate(19.954687 299.287255) scale(0.1 -0.1)">
       <use xlink:href="#DejaVuSans-2212"/>
       <use xlink:href="#DejaVuSans-31" transform="translate(83.789062 0)"/>
       <use xlink:href="#DejaVuSans-2e" transform="translate(147.412109 0)"/>
       <use xlink:href="#DejaVuSans-30" transform="translate(179.199219 0)"/>
       <use xlink:href="#DejaVuSans-30" transform="translate(242.822266 0)"/>
      </g>
     </g>
    </g>
    <g id="ytick_2">
     <g id="line2d_21">
      <path d="M 57.6 264.813747 
L 414.72 264.813747 
" clip-path="url(#pee3ec6169e)" style="fill: none; stroke: #b0b0b0; stroke-opacity: 0.5; stroke-width: 0.8; stroke-linecap: square"/>
     </g>
     <g id="line2d_22">
      <g>
       <use xlink:href="#m3be7a83f16" x="57.6" y="264.813747" style="stroke: #000000; stroke-width: 0.8"/>
      </g>
     </g>
     <g id="text_12">
      <!-- −0.75 -->
      <g transform="translate(19.954687 268.612966) scale(0.1 -0.1)">
       <use xlink:href="#DejaVuSans-2212"/>
       <use xlink:href="#DejaVuSans-30" transform="translate(83.789062 0)"/>
       <use xlink:href="#DejaVuSans-2e" transform="translate(147.412109 0)"/>
       <use xlink:href="#DejaVuSans-37" transform="translate(179.199219 0)"/>
       <use xlink:href="#DejaVuSans-35" transform="translate(242.822266 0)"/>
      </g>
     </g>
    </g>
    <g id="ytick_3">
     <g id="line2d_23">
      <path d="M 57.6 234.139457 
L 414.72 234.139457 
" clip-path="url(#pee3ec6169e)" style="fill: none; stroke: #b0b0b0; stroke-opacity: 0.5; stroke-width: 0.8; stroke-linecap: square"/>
     </g>
     <g id="line2d_24">
      <g>
       <use xlink:href="#m3be7a83f16" x="57.6" y="234.139457" style="stroke: #000000; stroke-width: 0.8"/>
      </g>
     </g>
     <g id="text_13">
      <!-- −0.50 -->
      <g transform="translate(19.954687 237.938676) scale(0.1 -0.1)">
       <use xlink:href="#DejaVuSans-2212"/>
       <use xlink:href="#DejaVuSans-30" transform="translate(83.789062 0)"/>
       <use xlink:href="#DejaVuSans-2e" transform="translate(147.412109 0)"/>
       <use xlink:href="#DejaVuSans-35" transform="translate(179.199219 0)"/>
       <use xlink:href="#DejaVuSans-30" transform="translate(242.822266 0)"/>
      </g>
     </g>
    </g>
    <g id="ytick_4">
     <g id="line2d_25">
      <path d="M 57.6 203.465168 
L 414.72 203.465168 
" clip-path="url(#pee3ec6169e)" style="fill: none; stroke: #b0b0b0; stroke-opacity: 0.5; stroke-width: 0.8; stroke-linecap: square"/>
     </g>
     <g id="line2d_26">
      <g>
       <use xlink:href="#m3be7a83f16" x="57.6" y="203.465168" style="stroke: #000000; stroke-width: 0.8"/>
      </g>
     </g>
     <g id="text_14">
      <!-- −0.25 -->
      <g transform="translate(19.954687 207.264386) scale(0.1 -0.1)">
       <use xlink:href="#DejaVuSans-2212"/>
       <use xlink:href="#DejaVuSans-30" transform="translate(83.789062 0)"/>
       <use xlink:href="#DejaVuSans-2e" transform="translate(147.412109 0)"/>
       <use xlink:href="#DejaVuSans-32" transform="translate(179.199219 0)"/>
       <use xlink:href="#DejaVuSans-35" transform="translate(242.822266 0)"/>
      </g>
     </g>
    </g>
    <g id="ytick_5">
     <g id="line2d_27">
      <path d="M 57.6 172.790878 
L 414.72 172.790878 
" clip-path="url(#pee3ec6169e)" style="fill: none; stroke: #b0b0b0; stroke-opacity: 0.5; stroke-width: 0.8; stroke-linecap: square"/>
     </g>
     <g id="line2d_28">
      <g>
       <use xlink:href="#m3be7a83f16" x="57.6" y="172.790878" style="stroke: #000000; stroke-width: 0.8"/>
      </g>
     </g>
     <g id="text_15">
      <!-- 0.00 -->
      <g transform="translate(28.334375 176.590097) scale(0.1 -0.1)">
       <use xlink:href="#DejaVuSans-30"/>
       <use xlink:href="#DejaVuSans-2e" transform="translate(63.623047 0)"/>
       <use xlink:href="#DejaVuSans-30" transform="translate(95.410156 0)"/>
       <use xlink:href="#DejaVuSans-30" transform="translate(159.033203 0)"/>
      </g>
     </g>
    </g>
    <g id="ytick_6">
     <g id="line2d_29">
      <path d="M 57.6 142.116588 
L 414.72 142.116588 
" clip-path="url(#pee3ec6169e)" style="fill: none; stroke: #b0b0b0; stroke-opacity: 0.5; stroke-width: 0.8; stroke-linecap: square"/>
     </g>
     <g id="line2d_30">
      <g>
       <use xlink:href="#m3be7a83f16" x="57.6" y="142.116588" style="stroke: #000000; stroke-width: 0.8"/>
      </g>
     </g>
     <g id="text_16">
      <!-- 0.25 -->
      <g transform="translate(28.334375 145.915807) scale(0.1 -0.1)">
       <use xlink:href="#DejaVuSans-30"/>
       <use xlink:href="#DejaVuSans-2e" transform="translate(63.623047 0)"/>
       <use xlink:href="#DejaVuSans-32" transform="translate(95.410156 0)"/>
       <use xlink:href="#DejaVuSans-35" transform="translate(159.033203 0)"/>
      </g>
     </g>
    </g>
    <g id="ytick_7">
     <g id="line2d_31">
      <path d="M 57.6 111.442299 
L 414.72 111.442299 
" clip-path="url(#pee3ec6169e)" style="fill: none; stroke: #b0b0b0; stroke-opacity: 0.5; stroke-width: 0.8; stroke-linecap: square"/>
     </g>
     <g id="line2d_32">
      <g>
       <use xlink:href="#m3be7a83f16" x="57.6" y="111.442299" style="stroke: #000000; stroke-width: 0.8"/>
      </g>
     </g>
     <g id="text_17">
      <!-- 0.50 -->
      <g transform="translate(28.334375 115.241517) scale(0.1 -0.1)">
       <use xlink:href="#DejaVuSans-30"/>
       <use xlink:href="#DejaVuSans-2e" transform="translate(63.623047 0)"/>
       <use xlink:href="#DejaVuSans-35" transform="translate(95.410156 0)"/>
       <use xlink:href="#DejaVuSans-30" transform="translate(159.033203 0)"/>
      </g>
     </g>
    </g>
    <g id="ytick_8">
     <g id="line2d_33">
      <path d="M 57.6 80.768009 
L 414.72 80.768009 
" clip-path="url(#pee3ec6169e)" style="fill: none; stroke: #b0b0b0; stroke-opacity: 0.5; stroke-width: 0.8; stroke-linecap: square"/>
     </g>
     <g id="line2d_34">
      <g>
       <use xlink:href="#m3be7a83f16" x="57.6" y="80.768009" style="stroke: #000000; stroke-width: 0.8"/>
      </g>
     </g>
     <g id="text_18">
      <!-- 0.75 -->
      <g transform="translate(28.334375 84.567228) scale(0.1 -0.1)">
       <use xlink:href="#DejaVuSans-30"/>
       <use xlink:href="#DejaVuSans-2e" transform="translate(63.623047 0)"/>
       <use xlink:href="#DejaVuSans-37" transform="translate(95.410156 0)"/>
       <use xlink:href="#DejaVuSans-35" transform="translate(159.033203 0)"/>
      </g>
     </g>
    </g>
    <g id="ytick_9">
     <g id="line2d_35">
      <path d="M 57.6 50.093719 
L 414.72 50.093719 
" clip-path="url(#pee3ec6169e)" style="fill: none; stroke: #b0b0b0; stroke-opacity: 0.5; stroke-width: 0.8; stroke-linecap: square"/>
     </g>
     <g id="line2d_36">
      <g>
       <use xlink:href="#m3be7a83f16" x="57.6" y="50.093719" style="stroke: #000000; stroke-width: 0.8"/>
      </g>
     </g>
     <g id="text_19">
      <!-- 1.00 -->
      <g transform="translate(28.334375 53.892938) scale(0.1 -0.1)">
       <use xlink:href="#DejaVuSans-31"/>
       <use xlink:href="#DejaVuSans-2e" transform="translate(63.623047 0)"/>
       <use xlink:href="#DejaVuSans-30" transform="translate(95.410156 0)"/>
       <use xlink:href="#DejaVuSans-30" transform="translate(159.033203 0)"/>
      </g>
     </g>
    </g>
    <g id="text_20">
     <!-- Value -->
     <g transform="translate(13.875 188.25925) rotate(-90) scale(0.1 -0.1)">
      <defs>
       <path id="DejaVuSans-56" d="M 1831 0 
L 50 4666 
L 709 4666 
L 2188 738 
L 3669 4666 
L 4325 4666 
L 2547 0 
L 1831 0 
z
" transform="scale(0.015625)"/>
       <path id="DejaVuSans-61" d="M 2194 1759 
Q 1497 1759 1228 1600 
Q 959 1441 959 1056 
Q 959 750 1161 570 
Q 1363 391 1709 391 
Q 2188 391 2477 730 
Q 2766 1069 2766 1631 
L 2766 1759 
L 2194 1759 
z
M 3341 1997 
L 3341 0 
L 2766 0 
L 2766 531 
Q 2569 213 2275 61 
Q 1981 -91 1556 -91 
Q 1019 -91 701 211 
Q 384 513 384 1019 
Q 384 1609 779 1909 
Q 1175 2209 1959 2209 
L 2766 2209 
L 2766 2266 
Q 2766 2663 2505 2880 
Q 2244 3097 1772 3097 
Q 1472 3097 1187 3025 
Q 903 2953 641 2809 
L 641 3341 
Q 956 3463 1253 3523 
Q 1550 3584 1831 3584 
Q 2591 3584 2966 3190 
Q 3341 2797 3341 1997 
z
" transform="scale(0.015625)"/>
       <path id="DejaVuSans-6c" d="M 603 4863 
L 1178 4863 
L 1178 0 
L 603 0 
L 603 4863 
z
" transform="scale(0.015625)"/>
       <path id="DejaVuSans-75" d="M 544 1381 
L 544 3500 
L 1119 3500 
L 1119 1403 
Q 1119 906 1312 657 
Q 1506 409 1894 409 
Q 2359 409 2629 706 
Q 2900 1003 2900 1516 
L 2900 3500 
L 3475 3500 
L 3475 0 
L 2900 0 
L 2900 538 
Q 2691 219 2414 64 
Q 2138 -91 1772 -91 
Q 1169 -91 856 284 
Q 544 659 544 1381 
z
M 1991 3584 
L 1991 3584 
z
" transform="scale(0.015625)"/>
      </defs>
      <use xlink:href="#DejaVuSans-56"/>
      <use xlink:href="#DejaVuSans-61" transform="translate(60.658203 0)"/>
      <use xlink:href="#DejaVuSans-6c" transform="translate(121.9375 0)"/>
      <use xlink:href="#DejaVuSans-75" transform="translate(149.720703 0)"/>
      <use xlink:href="#DejaVuSans-65" transform="translate(213.099609 0)"/>
     </g>
    </g>
   </g>
   <g id="line2d_37">
    <path d="M 242.17566 173.711762 
L 257.229583 173.415636 
L 248.163302 173.119649 
L 247.986888 172.823811 
L 247.474617 172.528086 
L 248.529432 171.640742 
L 262.123462 161.22855 
L 276.152492 150.714909 
L 291.254519 139.466362 
L 295.969873 135.389569 
L 302.034626 129.880525 
L 311.515554 120.835586 
L 318.554826 114.668394 
L 326.745317 108.240205 
L 341.459715 97.033646 
L 352.946857 88.50608 
L 367.808606 77.342347 
L 369.300612 76.194097 
L 371.280033 74.767963 
L 373.183054 73.051629 
L 374.531479 71.916946 
L 375.635307 70.774898 
L 377.999652 68.798012 
L 378.787378 67.944255 
L 380.951796 66.263149 
L 381.5839 65.129797 
L 382.239839 64.569779 
L 383.293712 63.740273 
L 383.600087 63.180899 
L 383.768927 62.614029 
L 384.230232 62.050391 
L 386.025458 60.675377 
L 386.074602 60.112113 
L 386.20444 59.542888 
L 386.490018 59.262049 
L 387.515496 58.714771 
L 388.462009 58.176343 
L 388.60652 57.902532 
L 388.523401 57.6223 
L 388.119452 57.045901 
L 388.102098 56.757178 
L 388.381987 56.474621 
L 389.005879 56.201549 
L 391.252071 55.41816 
L 391.048533 55.146302 
L 388.16995 53.96289 
L 389.632156 53.728622 
L 394.244058 53.584587 
L 398.487273 53.568 
L 387.794762 54.021323 
L 381.581001 54.505553 
L 377.895478 55.142609 
L 375.996485 55.901125 
L 375.151621 56.743751 
L 374.373819 58.552013 
L 373.334352 59.484206 
L 371.346758 60.440144 
L 361.807554 63.695962 
L 358.69967 64.991048 
L 356.130876 66.401005 
L 354.353153 67.902503 
L 353.52688 69.453322 
L 353.629529 70.998978 
L 354.718734 72.482653 
L 356.609911 73.856197 
L 358.583653 75.09021 
L 359.623566 76.17999 
L 358.761368 77.147396 
L 355.696997 78.036864 
L 346.23364 79.819201 
L 341.826206 80.825828 
L 338.064668 81.960131 
L 335.001801 83.230031 
L 332.788111 84.616973 
L 331.540485 86.080295 
L 331.427318 87.565601 
L 332.23219 89.016096 
L 335.008766 91.64054 
L 335.447424 92.780058 
L 334.260913 93.821774 
L 331.307859 94.804436 
L 322.958956 96.791202 
L 319.110633 97.884338 
L 315.847784 99.077741 
L 313.263952 100.369822 
L 311.465817 101.737676 
L 310.556436 103.142938 
L 310.518354 104.540835 
L 311.546453 107.162624 
L 311.526576 108.347872 
L 310.406117 109.45573 
L 308.083752 110.51249 
L 298.228085 113.735654 
L 295.456323 114.921216 
L 293.238917 116.175118 
L 291.618908 117.481672 
L 290.580188 118.814433 
L 290.137251 120.14304 
L 289.691286 122.688898 
L 288.990236 123.883017 
L 287.632694 125.03017 
L 285.632549 126.147558 
L 278.368744 129.535717 
L 276.284042 130.728648 
L 274.542268 131.958704 
L 273.146238 133.216533 
L 272.045477 134.487775 
L 269.279577 138.239026 
L 268.103865 139.441079 
L 266.653032 140.619541 
L 263.055897 142.939101 
L 259.240976 145.274641 
L 255.81657 147.676297 
L 252.997158 150.136855 
L 246.939795 156.22809 
L 243.833711 158.585238 
L 238.847518 162.136028 
L 235.935831 164.555925 
L 233.489667 167.000377 
L 231.072093 169.428977 
L 228.254825 171.820642 
L 223.344572 175.378934 
L 220.094472 177.773494 
L 217.154637 180.188974 
L 212.966074 183.802036 
L 209.86797 186.187855 
L 203.3873 190.959082 
L 198.963477 194.551833 
L 194.478514 198.125173 
L 186.764307 204.077914 
L 179.532494 210.018568 
L 174.320692 214.759878 
L 170.722795 218.317417 
L 167.124601 221.860213 
L 160.988211 227.788515 
L 157.368978 231.33395 
L 154.693522 233.682433 
L 150.141706 237.224377 
L 147.366198 239.608739 
L 143.426283 243.174195 
L 140.52624 245.524279 
L 132.784627 251.427701 
L 125.582095 257.366907 
L 115.907641 264.452937 
L 108.556008 270.349726 
L 103.736135 273.889051 
L 102.417391 275.081649 
L 100.305193 277.467276 
L 98.213555 279.817828 
L 96.971331 280.975322 
L 94.149985 283.282353 
L 91.68672 285.640446 
L 90.750337 286.850018 
L 90.14371 288.069843 
L 89.968241 289.27894 
L 90.314371 290.447045 
L 91.314569 291.538405 
L 92.886241 292.517468 
L 94.781149 293.355092 
L 96.750399 294.033563 
L 98.786928 294.550111 
L 101.138609 294.916947 
L 105.215081 295.394148 
L 103.937209 295.477242 
L 104.988579 295.384772 
L 94.976247 294.947202 
L 91.304903 294.553182 
L 92.315994 294.041425 
L 94.105976 293.434178 
L 94.134065 292.771343 
L 91.60368 292.10537 
L 86.697374 291.49323 
L 81.075537 290.986446 
L 78.964902 290.621197 
L 84.638573 290.410698 
L 100.43889 290.3728 
L 110.466864 290.49211 
L 115.172284 290.445422 
L 101.202366 289.90417 
L 100.552868 289.396172 
L 101.732365 288.77266 
L 100.474716 288.096332 
L 95.702403 287.440481 
L 83.999325 286.44777 
L 87.176557 286.182516 
L 105.006012 286.055206 
L 116.968321 286.083136 
L 119.374498 285.984457 
L 112.068337 285.74545 
L 105.591467 285.352769 
L 105.911634 284.210209 
L 103.362391 283.571032 
L 98.023898 282.975106 
L 92.247756 282.478663 
L 90.455765 282.11552 
L 95.755999 281.890767 
L 121.910533 281.623612 
L 119.370976 281.445232 
L 112.216637 281.145489 
L 109.123267 280.724614 
L 109.156135 280.207241 
L 108.516373 279.636414 
L 105.7572 279.064396 
L 98.098854 278.107133 
L 98.294161 277.780571 
L 103.346333 277.559621 
L 122.135847 277.225841 
L 123.244187 277.078537 
L 115.005522 276.522241 
L 113.388792 276.10057 
L 113.311214 275.607162 
L 112.436768 275.078614 
L 110.010922 274.557818 
L 104.730822 273.689866 
L 105.891936 273.385222 
L 110.650911 273.165245 
L 125.636076 272.729451 
L 125.291174 272.534975 
L 121.970866 272.266788 
L 119.083468 271.916312 
L 118.167912 271.492308 
L 117.74834 271.018624 
L 116.509391 270.528558 
L 112.210691 269.636743 
L 111.719605 269.284526 
L 113.952539 269.005311 
L 128.642707 268.24874 
L 127.505932 268.010158 
L 125.169082 267.710473 
L 123.563612 267.348529 
L 122.247847 266.494048 
L 121.087258 266.049479 
L 118.753693 265.250557 
L 119.330945 264.927337 
L 121.726446 264.657966 
L 131.304117 264.023389 
L 131.943771 263.79661 
L 128.610136 262.85464 
L 127.267013 262.046518 
L 125.451772 261.254515 
L 125.324101 260.908543 
L 126.454563 260.606313 
L 131.717922 260.110514 
L 135.670709 259.657366 
L 135.764741 259.402548 
L 133.263207 258.42649 
L 131.440426 257.292772 
L 131.313378 256.945923 
L 131.985978 256.630412 
L 133.521063 256.346063 
L 139.042663 255.592359 
L 139.627742 255.332575 
L 139.48701 255.051122 
L 138.45713 254.413942 
L 137.762229 253.712148 
L 137.594171 253.360948 
L 137.693051 253.022144 
L 138.209158 252.701755 
L 139.208031 252.401594 
L 144.138884 251.311873 
L 144.53107 251.030273 
L 144.574781 250.73344 
L 144.17095 249.420582 
L 144.299908 249.087248 
L 144.664796 248.763451 
L 145.309396 248.452072 
L 149.731206 247.006791 
L 150.058538 246.707837 
L 150.204513 246.397914 
L 150.287088 245.419647 
L 150.448557 245.090219 
L 150.759306 244.765763 
L 151.898454 244.139107 
L 154.622148 242.937075 
L 155.312379 242.320284 
L 156.269301 241.037761 
L 157.070146 240.398263 
L 159.230463 239.155013 
L 160.669379 238.231465 
L 162.171655 236.973289 
L 163.320663 236.0189 
L 164.795162 235.079504 
L 166.846819 233.843611 
L 168.373113 232.584803 
L 169.588875 231.634418 
L 174.060111 228.512252 
L 177.324226 226.010233 
L 179.938967 224.1629 
L 182.244106 222.305078 
L 184.884631 220.480438 
L 187.082258 218.641972 
L 190.392677 216.220279 
L 193.487299 213.79663 
L 196.3427 211.691999 
L 198.254081 210.179545 
L 200.761921 208.377627 
L 202.986786 206.555762 
L 205.390046 204.736841 
L 208.365006 202.290034 
L 228.741906 186.032755 
L 235.476818 180.593601 
L 244.491322 173.748753 
L 244.491322 173.748753 
" clip-path="url(#pee3ec6169e)" style="fill: none; stroke: #1f77b4; stroke-width: 1.5; stroke-linecap: square"/>
   </g>
   <g id="line2d_38">
    <path d="M 240.512734 173.711762 
L 264.699444 154.915565 
L 280.819812 142.401022 
L 290.456004 135.099348 
L 312.632061 117.899419 
L 322.269907 110.278406 
L 336.663399 99.313486 
L 341.198 95.896344 
L 349.005517 89.930766 
L 357.389613 83.363711 
L 359.52339 81.643092 
L 361.331408 80.210178 
L 362.741622 79.060561 
L 364.956806 77.342347 
L 366.339553 76.194097 
L 368.610688 74.481179 
L 369.965218 73.335701 
L 372.279074 71.631543 
L 373.603012 70.491236 
L 376.016223 68.798012 
L 377.267876 67.661844 
L 379.770944 65.980716 
L 380.925696 64.848607 
L 383.552121 63.180899 
L 384.518245 62.050391 
L 385.501426 61.498455 
L 387.069388 60.675377 
L 387.524598 60.112113 
L 387.751555 59.542888 
L 388.008293 59.262049 
L 389.064372 58.714771 
L 390.996362 57.902532 
L 391.276994 57.6223 
L 391.301828 57.33583 
L 391.030951 56.757178 
L 391.108718 56.474621 
L 391.555904 56.201549 
L 393.598063 55.679231 
L 395.70847 55.146302 
L 395.865725 54.858209 
L 394.980603 54.555357 
L 392.930776 54.249331 
L 389.843322 53.96289 
L 382.238068 53.584587 
L 378.892036 53.568 
L 376.583116 53.708328 
L 375.616587 54.021323 
L 375.989104 54.505553 
L 380.775614 56.743751 
L 381.448244 57.635545 
L 380.788595 58.552013 
L 378.687241 59.484206 
L 375.393795 60.440144 
L 367.638766 62.518093 
L 364.658068 63.695962 
L 363.095844 64.991048 
L 363.212702 66.401005 
L 364.886598 67.902503 
L 367.628625 69.453322 
L 370.68147 70.998978 
L 373.178502 72.482653 
L 374.327723 73.856197 
L 373.581295 75.09021 
L 370.753775 76.17999 
L 366.06467 77.147396 
L 347.738657 79.819201 
L 343.073407 80.825828 
L 340.24 81.960131 
L 339.420257 83.230031 
L 340.393455 84.616973 
L 342.585972 86.080295 
L 345.191739 87.565601 
L 347.340466 89.016096 
L 348.278055 90.384141 
L 347.521238 91.64054 
L 344.95475 92.780058 
L 340.848477 93.821774 
L 325.938031 96.791202 
L 322.551033 97.884338 
L 320.726531 99.077741 
L 320.431835 100.369822 
L 321.293306 101.737676 
L 322.693951 103.142938 
L 323.925218 104.540835 
L 324.35504 105.890238 
L 323.571687 107.162624 
L 321.469922 108.347872 
L 318.259403 109.45573 
L 307.01386 112.6188 
L 304.448089 113.735654 
L 302.922142 114.921216 
L 302.329164 116.175118 
L 302.345672 117.481672 
L 302.528269 118.814433 
L 302.43262 120.14304 
L 301.722803 121.440471 
L 300.24409 122.688898 
L 298.043741 123.883017 
L 292.449435 126.147558 
L 289.702655 127.257329 
L 287.359482 128.381273 
L 285.556089 129.535717 
L 284.286988 130.728648 
L 283.423752 131.958704 
L 282.072724 134.487775 
L 281.168094 135.756789 
L 279.92684 137.010066 
L 278.316064 138.239026 
L 276.384265 139.441079 
L 267.882834 144.100524 
L 266.14644 145.274641 
L 264.673806 146.466281 
L 263.433447 147.676297 
L 258.985849 152.606556 
L 257.505439 153.827957 
L 255.774336 155.03517 
L 251.761628 157.409683 
L 247.747846 159.761129 
L 246.029233 160.943325 
L 244.580746 162.136028 
L 243.378074 163.340725 
L 240.173033 167.000377 
L 238.811809 168.218825 
L 237.178879 169.428977 
L 233.273959 171.820642 
L 229.305224 174.191147 
L 227.597213 175.378934 
L 226.140188 176.572763 
L 223.773041 178.979849 
L 221.40538 181.397439 
L 219.978716 182.60232 
L 216.579399 184.996693 
L 211.209944 188.569007 
L 208.188916 190.959082 
L 202.652897 195.745541 
L 196.414659 200.502295 
L 181.097117 212.386932 
L 177.018171 215.947068 
L 173.769995 218.317417 
L 166.734152 223.041797 
L 164.023014 225.412333 
L 160.384611 228.974242 
L 158.899659 230.156177 
L 155.345256 232.50859 
L 151.56023 234.858254 
L 149.856741 236.038536 
L 148.364477 237.224377 
L 145.886926 239.608739 
L 143.426876 241.990855 
L 141.964908 243.174195 
L 138.529791 245.524279 
L 134.951717 247.870312 
L 131.897348 250.236076 
L 126.56115 255.004975 
L 123.287027 257.366907 
L 119.923226 259.716735 
L 117.070931 262.077 
L 113.29105 265.641088 
L 111.779582 266.825312 
L 108.180018 269.17792 
L 104.500788 271.523397 
L 102.985986 272.702589 
L 101.78778 273.889051 
L 99.112508 277.467276 
L 97.865525 278.648816 
L 96.154715 279.817828 
L 93.974377 280.975322 
L 88.974207 283.282353 
L 86.835582 284.451175 
L 85.437103 285.640446 
L 85.044779 286.850018 
L 85.74153 288.069843 
L 87.391048 289.27894 
L 89.653456 290.447045 
L 94.064719 292.517468 
L 95.251071 293.355092 
L 95.333339 294.033563 
L 94.265358 294.550111 
L 92.242453 294.916947 
L 87.043276 295.307003 
L 83.718624 295.477242 
L 84.903523 295.488 
L 89.654762 295.384772 
L 92.164172 295.220098 
L 93.945566 294.947202 
L 94.481471 294.553182 
L 93.46944 294.041425 
L 90.90307 293.434178 
L 82.678682 292.10537 
L 75.248036 290.986446 
L 73.832727 290.621197 
L 74.643704 290.410698 
L 77.725459 290.341134 
L 99.743366 290.445422 
L 102.741467 290.256943 
L 103.218118 289.90417 
L 101.14698 289.396172 
L 97.030309 288.77266 
L 82.693177 286.874188 
L 80.86816 286.44777 
L 81.601192 286.182516 
L 84.782015 286.066081 
L 105.151077 285.984457 
L 107.126917 285.74545 
L 106.745268 285.352769 
L 104.2655 284.825413 
L 89.883074 282.478663 
L 89.412963 282.11552 
L 90.942666 281.890767 
L 98.377151 281.738753 
L 106.627827 281.623612 
L 109.178347 281.445232 
L 110.098256 281.145489 
L 109.367083 280.724614 
L 107.292977 280.207241 
L 99.112142 278.541683 
L 97.862646 278.107133 
L 98.02931 277.780571 
L 99.617614 277.559621 
L 105.728982 277.32509 
L 111.968527 277.078537 
L 113.742471 276.849483 
L 114.205409 276.522241 
L 113.376484 276.10057 
L 109.185638 275.078614 
L 105.24038 274.085048 
L 104.627421 273.689866 
L 105.246485 273.385222 
L 107.019063 273.165245 
L 117.372964 272.534975 
L 118.417032 272.266788 
L 118.354126 271.916312 
L 117.327353 271.492308 
L 112.350413 270.057785 
L 111.528346 269.636743 
L 111.616916 269.284526 
L 112.637288 269.005311 
L 116.636854 268.609989 
L 120.836813 268.24874 
L 122.141121 268.010158 
L 122.664402 267.710473 
L 122.418893 267.348529 
L 121.570389 266.935919 
L 118.397798 265.628195 
L 118.128594 265.250557 
L 118.546009 264.927337 
L 119.626942 264.657966 
L 127.190078 263.530069 
L 127.458501 263.215443 
L 127.138175 262.85464 
L 124.334736 261.254515 
L 124.479465 260.908543 
L 125.202128 260.606313 
L 127.911861 260.110514 
L 130.771052 259.657366 
L 131.686528 259.402548 
L 132.10424 259.112882 
L 132.05021 258.785699 
L 130.468713 257.292772 
L 130.653294 256.945923 
L 131.235819 256.630412 
L 133.24607 256.08622 
L 135.354905 255.592359 
L 136.092359 255.332575 
L 136.532145 255.051122 
L 136.694702 254.744292 
L 136.534866 254.066654 
L 136.445197 253.712148 
L 136.49064 253.360948 
L 136.735198 253.022144 
L 137.196523 252.701755 
L 138.621389 252.119219 
L 140.863376 251.311873 
L 141.684652 250.73344 
L 141.968302 250.093715 
L 142.199088 249.420582 
L 142.463404 249.087248 
L 143.43776 248.452072 
L 146.568608 247.006791 
L 147.110232 246.397914 
L 147.690354 245.419647 
L 148.531754 244.765763 
L 151.680699 242.937075 
L 153.067156 241.360571 
L 154.529619 240.398263 
L 155.91953 239.462472 
L 157.220034 238.231465 
L 158.314705 237.290906 
L 163.126583 233.531801 
L 164.789607 232.267317 
L 166.922043 230.695209 
L 169.09726 228.825577 
L 171.293161 227.256299 
L 173.846401 225.087625 
L 175.96698 223.541666 
L 178.231297 221.695996 
L 183.11837 218.034747 
L 185.55356 216.220279 
L 187.543598 214.702681 
L 189.024048 213.496173 
L 192.32672 211.085841 
L 193.831084 209.879246 
L 197.134473 207.466808 
L 200.730428 204.736841 
L 207.796797 199.218456 
L 210.076198 197.37153 
L 212.396604 195.5255 
L 214.707574 193.680559 
L 220.503635 189.083868 
L 230.336726 181.493584 
L 235.79961 177.308763 
L 240.465372 173.748753 
L 240.465372 173.748753 
" clip-path="url(#pee3ec6169e)" style="fill: none; stroke: #ff7f0e; stroke-opacity: 0.5; stroke-width: 1.5; stroke-linecap: square"/>
   </g>
   <g id="patch_3">
    <path d="M 57.6 307.584 
L 57.6 41.472 
" style="fill: none; stroke: #000000; stroke-width: 0.8; stroke-linejoin: miter; stroke-linecap: square"/>
   </g>
   <g id="patch_4">
    <path d="M 414.72 307.584 
L 414.72 41.472 
" style="fill: none; stroke: #000000; stroke-width: 0.8; stroke-linejoin: miter; stroke-linecap: square"/>
   </g>
   <g id="patch_5">
    <path d="M 57.6 307.584 
L 414.72 307.584 
" style="fill: none; stroke: #000000; stroke-width: 0.8; stroke-linejoin: miter; stroke-linecap: square"/>
   </g>
   <g id="patch_6">
    <path d="M 57.6 41.472 
L 414.72 41.472 
" style="fill: none; stroke: #000000; stroke-width: 0.8; stroke-linejoin: miter; stroke-linecap: square"/>
   </g>
   <g id="text_21">
    <!-- Compare - Epoch 1000 -->
    <g transform="translate(167.416875 35.472) scale(0.12 -0.12)">
     <defs>
      <path id="DejaVuSans-43" d="M 4122 4306 
L 4122 3641 
Q 3803 3938 3442 4084 
Q 3081 4231 2675 4231 
Q 1875 4231 1450 3742 
Q 1025 3253 1025 2328 
Q 1025 1406 1450 917 
Q 1875 428 2675 428 
Q 3081 428 3442 575 
Q 3803 722 4122 1019 
L 4122 359 
Q 3791 134 3420 21 
Q 3050 -91 2638 -91 
Q 1578 -91 968 557 
Q 359 1206 359 2328 
Q 359 3453 968 4101 
Q 1578 4750 2638 4750 
Q 3056 4750 3426 4639 
Q 3797 4528 4122 4306 
z
" transform="scale(0.015625)"/>
      <path id="DejaVuSans-6f" d="M 1959 3097 
Q 1497 3097 1228 2736 
Q 959 2375 959 1747 
Q 959 1119 1226 758 
Q 1494 397 1959 397 
Q 2419 397 2687 759 
Q 2956 1122 2956 1747 
Q 2956 2369 2687 2733 
Q 2419 3097 1959 3097 
z
M 1959 3584 
Q 2709 3584 3137 3096 
Q 3566 2609 3566 1747 
Q 3566 888 3137 398 
Q 2709 -91 1959 -91 
Q 1206 -91 779 398 
Q 353 888 353 1747 
Q 353 2609 779 3096 
Q 1206 3584 1959 3584 
z
" transform="scale(0.015625)"/>
      <path id="DejaVuSans-6d" d="M 3328 2828 
Q 3544 3216 3844 3400 
Q 4144 3584 4550 3584 
Q 5097 3584 5394 3201 
Q 5691 2819 5691 2113 
L 5691 0 
L 5113 0 
L 5113 2094 
Q 5113 2597 4934 2840 
Q 4756 3084 4391 3084 
Q 3944 3084 3684 2787 
Q 3425 2491 3425 1978 
L 3425 0 
L 2847 0 
L 2847 2094 
Q 2847 2600 2669 2842 
Q 2491 3084 2119 3084 
Q 1678 3084 1418 2786 
Q 1159 2488 1159 1978 
L 1159 0 
L 581 0 
L 581 3500 
L 1159 3500 
L 1159 2956 
Q 1356 3278 1631 3431 
Q 1906 3584 2284 3584 
Q 2666 3584 2933 3390 
Q 3200 3197 3328 2828 
z
" transform="scale(0.015625)"/>
      <path id="DejaVuSans-70" d="M 1159 525 
L 1159 -1331 
L 581 -1331 
L 581 3500 
L 1159 3500 
L 1159 2969 
Q 1341 3281 1617 3432 
Q 1894 3584 2278 3584 
Q 2916 3584 3314 3078 
Q 3713 2572 3713 1747 
Q 3713 922 3314 415 
Q 2916 -91 2278 -91 
Q 1894 -91 1617 61 
Q 1341 213 1159 525 
z
M 3116 1747 
Q 3116 2381 2855 2742 
Q 2594 3103 2138 3103 
Q 1681 3103 1420 2742 
Q 1159 2381 1159 1747 
Q 1159 1113 1420 752 
Q 1681 391 2138 391 
Q 2594 391 2855 752 
Q 3116 1113 3116 1747 
z
" transform="scale(0.015625)"/>
      <path id="DejaVuSans-72" d="M 2631 2963 
Q 2534 3019 2420 3045 
Q 2306 3072 2169 3072 
Q 1681 3072 1420 2755 
Q 1159 2438 1159 1844 
L 1159 0 
L 581 0 
L 581 3500 
L 1159 3500 
L 1159 2956 
Q 1341 3275 1631 3429 
Q 1922 3584 2338 3584 
Q 2397 3584 2469 3576 
Q 2541 3569 2628 3553 
L 2631 2963 
z
" transform="scale(0.015625)"/>
      <path id="DejaVuSans-20" transform="scale(0.015625)"/>
      <path id="DejaVuSans-2d" d="M 313 2009 
L 1997 2009 
L 1997 1497 
L 313 1497 
L 313 2009 
z
" transform="scale(0.015625)"/>
      <path id="DejaVuSans-45" d="M 628 4666 
L 3578 4666 
L 3578 4134 
L 1259 4134 
L 1259 2753 
L 3481 2753 
L 3481 2222 
L 1259 2222 
L 1259 531 
L 3634 531 
L 3634 0 
L 628 0 
L 628 4666 
z
" transform="scale(0.015625)"/>
      <path id="DejaVuSans-63" d="M 3122 3366 
L 3122 2828 
Q 2878 2963 2633 3030 
Q 2388 3097 2138 3097 
Q 1578 3097 1268 2742 
Q 959 2388 959 1747 
Q 959 1106 1268 751 
Q 1578 397 2138 397 
Q 2388 397 2633 464 
Q 2878 531 3122 666 
L 3122 134 
Q 2881 22 2623 -34 
Q 2366 -91 2075 -91 
Q 1284 -91 818 406 
Q 353 903 353 1747 
Q 353 2603 823 3093 
Q 1294 3584 2113 3584 
Q 2378 3584 2631 3529 
Q 2884 3475 3122 3366 
z
" transform="scale(0.015625)"/>
      <path id="DejaVuSans-68" d="M 3513 2113 
L 3513 0 
L 2938 0 
L 2938 2094 
Q 2938 2591 2744 2837 
Q 2550 3084 2163 3084 
Q 1697 3084 1428 2787 
Q 1159 2491 1159 1978 
L 1159 0 
L 581 0 
L 581 4863 
L 1159 4863 
L 1159 2956 
Q 1366 3272 1645 3428 
Q 1925 3584 2291 3584 
Q 2894 3584 3203 3211 
Q 3513 2838 3513 2113 
z
" transform="scale(0.015625)"/>
     </defs>
     <use xlink:href="#DejaVuSans-43"/>
     <use xlink:href="#DejaVuSans-6f" transform="translate(69.824219 0)"/>
     <use xlink:href="#DejaVuSans-6d" transform="translate(131.005859 0)"/>
     <use xlink:href="#DejaVuSans-70" transform="translate(228.417969 0)"/>
     <use xlink:href="#DejaVuSans-61" transform="translate(291.894531 0)"/>
     <use xlink:href="#DejaVuSans-72" transform="translate(353.173828 0)"/>
     <use xlink:href="#DejaVuSans-65" transform="translate(392.037109 0)"/>
     <use xlink:href="#DejaVuSans-20" transform="translate(453.560547 0)"/>
     <use xlink:href="#DejaVuSans-2d" transform="translate(485.347656 0)"/>
     <use xlink:href="#DejaVuSans-20" transform="translate(521.431641 0)"/>
     <use xlink:href="#DejaVuSans-45" transform="translate(553.21875 0)"/>
     <use xlink:href="#DejaVuSans-70" transform="translate(616.402344 0)"/>
     <use xlink:href="#DejaVuSans-6f" transform="translate(679.878906 0)"/>
     <use xlink:href="#DejaVuSans-63" transform="translate(741.060547 0)"/>
     <use xlink:href="#DejaVuSans-68" transform="translate(796.041016 0)"/>
     <use xlink:href="#DejaVuSans-20" transform="translate(859.419922 0)"/>
     <use xlink:href="#DejaVuSans-31" transform="translate(891.207031 0)"/>
     <use xlink:href="#DejaVuSans-30" transform="translate(954.830078 0)"/>
     <use xlink:href="#DejaVuSans-30" transform="translate(1018.453125 0)"/>
     <use xlink:href="#DejaVuSans-30" transform="translate(1082.076172 0)"/>
    </g>
   </g>
   <g id="legend_1">
    <g id="patch_7">
     <path d="M 64.6 78.82825 
L 181.128125 78.82825 
Q 183.128125 78.82825 183.128125 76.82825 
L 183.128125 48.472 
Q 183.128125 46.472 181.128125 46.472 
L 64.6 46.472 
Q 62.6 46.472 62.6 48.472 
L 62.6 76.82825 
Q 62.6 78.82825 64.6 78.82825 
z
" style="fill: #ffffff; opacity: 0.8; stroke: #cccccc; stroke-linejoin: miter"/>
    </g>
    <g id="line2d_39">
     <path d="M 66.6 54.570437 
L 76.6 54.570437 
L 86.6 54.570437 
" style="fill: none; stroke: #1f77b4; stroke-width: 1.5; stroke-linecap: square"/>
    </g>
    <g id="text_22">
     <!-- Pred: Sample 1 -->
     <g transform="translate(94.6 58.070437) scale(0.1 -0.1)">
      <defs>
       <path id="DejaVuSans-50" d="M 1259 4147 
L 1259 2394 
L 2053 2394 
Q 2494 2394 2734 2622 
Q 2975 2850 2975 3272 
Q 2975 3691 2734 3919 
Q 2494 4147 2053 4147 
L 1259 4147 
z
M 628 4666 
L 2053 4666 
Q 2838 4666 3239 4311 
Q 3641 3956 3641 3272 
Q 3641 2581 3239 2228 
Q 2838 1875 2053 1875 
L 1259 1875 
L 1259 0 
L 628 0 
L 628 4666 
z
" transform="scale(0.015625)"/>
       <path id="DejaVuSans-3a" d="M 750 794 
L 1409 794 
L 1409 0 
L 750 0 
L 750 794 
z
M 750 3309 
L 1409 3309 
L 1409 2516 
L 750 2516 
L 750 3309 
z
" transform="scale(0.015625)"/>
       <path id="DejaVuSans-53" d="M 3425 4513 
L 3425 3897 
Q 3066 4069 2747 4153 
Q 2428 4238 2131 4238 
Q 1616 4238 1336 4038 
Q 1056 3838 1056 3469 
Q 1056 3159 1242 3001 
Q 1428 2844 1947 2747 
L 2328 2669 
Q 3034 2534 3370 2195 
Q 3706 1856 3706 1288 
Q 3706 609 3251 259 
Q 2797 -91 1919 -91 
Q 1588 -91 1214 -16 
Q 841 59 441 206 
L 441 856 
Q 825 641 1194 531 
Q 1563 422 1919 422 
Q 2459 422 2753 634 
Q 3047 847 3047 1241 
Q 3047 1584 2836 1778 
Q 2625 1972 2144 2069 
L 1759 2144 
Q 1053 2284 737 2584 
Q 422 2884 422 3419 
Q 422 4038 858 4394 
Q 1294 4750 2059 4750 
Q 2388 4750 2728 4690 
Q 3069 4631 3425 4513 
z
" transform="scale(0.015625)"/>
      </defs>
      <use xlink:href="#DejaVuSans-50"/>
      <use xlink:href="#DejaVuSans-72" transform="translate(58.552734 0)"/>
      <use xlink:href="#DejaVuSans-65" transform="translate(97.416016 0)"/>
      <use xlink:href="#DejaVuSans-64" transform="translate(158.939453 0)"/>
      <use xlink:href="#DejaVuSans-3a" transform="translate(222.416016 0)"/>
      <use xlink:href="#DejaVuSans-20" transform="translate(256.107422 0)"/>
      <use xlink:href="#DejaVuSans-53" transform="translate(287.894531 0)"/>
      <use xlink:href="#DejaVuSans-61" transform="translate(351.371094 0)"/>
      <use xlink:href="#DejaVuSans-6d" transform="translate(412.650391 0)"/>
      <use xlink:href="#DejaVuSans-70" transform="translate(510.0625 0)"/>
      <use xlink:href="#DejaVuSans-6c" transform="translate(573.539062 0)"/>
      <use xlink:href="#DejaVuSans-65" transform="translate(601.322266 0)"/>
      <use xlink:href="#DejaVuSans-20" transform="translate(662.845703 0)"/>
      <use xlink:href="#DejaVuSans-31" transform="translate(694.632812 0)"/>
     </g>
    </g>
    <g id="line2d_40">
     <path d="M 66.6 69.248562 
L 76.6 69.248562 
L 86.6 69.248562 
" style="fill: none; stroke: #ff7f0e; stroke-opacity: 0.5; stroke-width: 1.5; stroke-linecap: square"/>
    </g>
    <g id="text_23">
     <!-- Target: Sample 1 -->
     <g transform="translate(94.6 72.748562) scale(0.1 -0.1)">
      <defs>
       <path id="DejaVuSans-54" d="M -19 4666 
L 3928 4666 
L 3928 4134 
L 2272 4134 
L 2272 0 
L 1638 0 
L 1638 4134 
L -19 4134 
L -19 4666 
z
" transform="scale(0.015625)"/>
       <path id="DejaVuSans-67" d="M 2906 1791 
Q 2906 2416 2648 2759 
Q 2391 3103 1925 3103 
Q 1463 3103 1205 2759 
Q 947 2416 947 1791 
Q 947 1169 1205 825 
Q 1463 481 1925 481 
Q 2391 481 2648 825 
Q 2906 1169 2906 1791 
z
M 3481 434 
Q 3481 -459 3084 -895 
Q 2688 -1331 1869 -1331 
Q 1566 -1331 1297 -1286 
Q 1028 -1241 775 -1147 
L 775 -588 
Q 1028 -725 1275 -790 
Q 1522 -856 1778 -856 
Q 2344 -856 2625 -561 
Q 2906 -266 2906 331 
L 2906 616 
Q 2728 306 2450 153 
Q 2172 0 1784 0 
Q 1141 0 747 490 
Q 353 981 353 1791 
Q 353 2603 747 3093 
Q 1141 3584 1784 3584 
Q 2172 3584 2450 3431 
Q 2728 3278 2906 2969 
L 2906 3500 
L 3481 3500 
L 3481 434 
z
" transform="scale(0.015625)"/>
       <path id="DejaVuSans-74" d="M 1172 4494 
L 1172 3500 
L 2356 3500 
L 2356 3053 
L 1172 3053 
L 1172 1153 
Q 1172 725 1289 603 
Q 1406 481 1766 481 
L 2356 481 
L 2356 0 
L 1766 0 
Q 1100 0 847 248 
Q 594 497 594 1153 
L 594 3053 
L 172 3053 
L 172 3500 
L 594 3500 
L 594 4494 
L 1172 4494 
z
" transform="scale(0.015625)"/>
      </defs>
      <use xlink:href="#DejaVuSans-54"/>
      <use xlink:href="#DejaVuSans-61" transform="translate(44.583984 0)"/>
      <use xlink:href="#DejaVuSans-72" transform="translate(105.863281 0)"/>
      <use xlink:href="#DejaVuSans-67" transform="translate(145.226562 0)"/>
      <use xlink:href="#DejaVuSans-65" transform="translate(208.703125 0)"/>
      <use xlink:href="#DejaVuSans-74" transform="translate(270.226562 0)"/>
      <use xlink:href="#DejaVuSans-3a" transform="translate(309.435547 0)"/>
      <use xlink:href="#DejaVuSans-20" transform="translate(343.126953 0)"/>
      <use xlink:href="#DejaVuSans-53" transform="translate(374.914062 0)"/>
      <use xlink:href="#DejaVuSans-61" transform="translate(438.390625 0)"/>
      <use xlink:href="#DejaVuSans-6d" transform="translate(499.669922 0)"/>
      <use xlink:href="#DejaVuSans-70" transform="translate(597.082031 0)"/>
      <use xlink:href="#DejaVuSans-6c" transform="translate(660.558594 0)"/>
      <use xlink:href="#DejaVuSans-65" transform="translate(688.341797 0)"/>
      <use xlink:href="#DejaVuSans-20" transform="translate(749.865234 0)"/>
      <use xlink:href="#DejaVuSans-31" transform="translate(781.652344 0)"/>
     </g>
    </g>
   </g>
  </g>
 </g>
 <defs>
  <clipPath id="pee3ec6169e">
   <rect x="57.6" y="41.472" width="357.12" height="266.112"/>
  </clipPath>
 </defs>
</svg>
