<?xml version="1.0" encoding="utf-8" standalone="no"?>
<!DOCTYPE svg PUBLIC "-//W3C//DTD SVG 1.1//EN"
  "http://www.w3.org/Graphics/SVG/1.1/DTD/svg11.dtd">
<svg xmlns:xlink="http://www.w3.org/1999/xlink" width="460.8pt" height="345.6pt" viewBox="0 0 460.8 345.6" xmlns="http://www.w3.org/2000/svg" version="1.1">
 <metadata>
  <rdf:RDF xmlns:dc="http://purl.org/dc/elements/1.1/" xmlns:cc="http://creativecommons.org/ns#" xmlns:rdf="http://www.w3.org/1999/02/22-rdf-syntax-ns#">
   <cc:Work>
    <dc:type rdf:resource="http://purl.org/dc/dcmitype/StillImage"/>
    <dc:date>2025-06-03T22:12:38.663669</dc:date>
    <dc:format>image/svg+xml</dc:format>
    <dc:creator>
     <cc:Agent>
      <dc:title>Matplotlib v3.10.0, https://matplotlib.org/</dc:title>
     </cc:Agent>
    </dc:creator>
   </cc:Work>
  </rdf:RDF>
 </metadata>
 <defs>
  <style type="text/css">*{stroke-linejoin: round; stroke-linecap: butt}</style>
 </defs>
 <g id="figure_1">
  <g id="patch_1">
   <path d="M 0 345.6 
L 460.8 345.6 
L 460.8 0 
L 0 0 
z
" style="fill: #ffffff"/>
  </g>
  <g id="axes_1">
   <g id="patch_2">
    <path d="M 57.6 307.584 
L 414.72 307.584 
L 414.72 41.472 
L 57.6 41.472 
z
" style="fill: #ffffff"/>
   </g>
   <g id="matplotlib.axis_1">
    <g id="xtick_1">
     <g id="line2d_1">
      <path d="M 73.832727 307.584 
L 73.832727 41.472 
" clip-path="url(#p23421305a1)" style="fill: none; stroke: #b0b0b0; stroke-opacity: 0.5; stroke-width: 0.8; stroke-linecap: square"/>
     </g>
     <g id="line2d_2">
      <defs>
       <path id="m22c0039f96" d="M 0 0 
L 0 3.5 
" style="stroke: #000000; stroke-width: 0.8"/>
      </defs>
      <g>
       <use xlink:href="#m22c0039f96" x="73.832727" y="307.584" style="stroke: #000000; stroke-width: 0.8"/>
      </g>
     </g>
     <g id="text_1">
      <!-- −1.00 -->
      <g transform="translate(58.510071 322.182437) scale(0.1 -0.1)">
       <defs>
        <path id="DejaVuSans-2212" d="M 678 2272 
L 4684 2272 
L 4684 1741 
L 678 1741 
L 678 2272 
z
" transform="scale(0.015625)"/>
        <path id="DejaVuSans-31" d="M 794 531 
L 1825 531 
L 1825 4091 
L 703 3866 
L 703 4441 
L 1819 4666 
L 2450 4666 
L 2450 531 
L 3481 531 
L 3481 0 
L 794 0 
L 794 531 
z
" transform="scale(0.015625)"/>
        <path id="DejaVuSans-2e" d="M 684 794 
L 1344 794 
L 1344 0 
L 684 0 
L 684 794 
z
" transform="scale(0.015625)"/>
        <path id="DejaVuSans-30" d="M 2034 4250 
Q 1547 4250 1301 3770 
Q 1056 3291 1056 2328 
Q 1056 1369 1301 889 
Q 1547 409 2034 409 
Q 2525 409 2770 889 
Q 3016 1369 3016 2328 
Q 3016 3291 2770 3770 
Q 2525 4250 2034 4250 
z
M 2034 4750 
Q 2819 4750 3233 4129 
Q 3647 3509 3647 2328 
Q 3647 1150 3233 529 
Q 2819 -91 2034 -91 
Q 1250 -91 836 529 
Q 422 1150 422 2328 
Q 422 3509 836 4129 
Q 1250 4750 2034 4750 
z
" transform="scale(0.015625)"/>
       </defs>
       <use xlink:href="#DejaVuSans-2212"/>
       <use xlink:href="#DejaVuSans-31" transform="translate(83.789062 0)"/>
       <use xlink:href="#DejaVuSans-2e" transform="translate(147.412109 0)"/>
       <use xlink:href="#DejaVuSans-30" transform="translate(179.199219 0)"/>
       <use xlink:href="#DejaVuSans-30" transform="translate(242.822266 0)"/>
      </g>
     </g>
    </g>
    <g id="xtick_2">
     <g id="line2d_3">
      <path d="M 115.384446 307.584 
L 115.384446 41.472 
" clip-path="url(#p23421305a1)" style="fill: none; stroke: #b0b0b0; stroke-opacity: 0.5; stroke-width: 0.8; stroke-linecap: square"/>
     </g>
     <g id="line2d_4">
      <g>
       <use xlink:href="#m22c0039f96" x="115.384446" y="307.584" style="stroke: #000000; stroke-width: 0.8"/>
      </g>
     </g>
     <g id="text_2">
      <!-- −0.75 -->
      <g transform="translate(100.06179 322.182437) scale(0.1 -0.1)">
       <defs>
        <path id="DejaVuSans-37" d="M 525 4666 
L 3525 4666 
L 3525 4397 
L 1831 0 
L 1172 0 
L 2766 4134 
L 525 4134 
L 525 4666 
z
" transform="scale(0.015625)"/>
        <path id="DejaVuSans-35" d="M 691 4666 
L 3169 4666 
L 3169 4134 
L 1269 4134 
L 1269 2991 
Q 1406 3038 1543 3061 
Q 1681 3084 1819 3084 
Q 2600 3084 3056 2656 
Q 3513 2228 3513 1497 
Q 3513 744 3044 326 
Q 2575 -91 1722 -91 
Q 1428 -91 1123 -41 
Q 819 9 494 109 
L 494 744 
Q 775 591 1075 516 
Q 1375 441 1709 441 
Q 2250 441 2565 725 
Q 2881 1009 2881 1497 
Q 2881 1984 2565 2268 
Q 2250 2553 1709 2553 
Q 1456 2553 1204 2497 
Q 953 2441 691 2322 
L 691 4666 
z
" transform="scale(0.015625)"/>
       </defs>
       <use xlink:href="#DejaVuSans-2212"/>
       <use xlink:href="#DejaVuSans-30" transform="translate(83.789062 0)"/>
       <use xlink:href="#DejaVuSans-2e" transform="translate(147.412109 0)"/>
       <use xlink:href="#DejaVuSans-37" transform="translate(179.199219 0)"/>
       <use xlink:href="#DejaVuSans-35" transform="translate(242.822266 0)"/>
      </g>
     </g>
    </g>
    <g id="xtick_3">
     <g id="line2d_5">
      <path d="M 156.936165 307.584 
L 156.936165 41.472 
" clip-path="url(#p23421305a1)" style="fill: none; stroke: #b0b0b0; stroke-opacity: 0.5; stroke-width: 0.8; stroke-linecap: square"/>
     </g>
     <g id="line2d_6">
      <g>
       <use xlink:href="#m22c0039f96" x="156.936165" y="307.584" style="stroke: #000000; stroke-width: 0.8"/>
      </g>
     </g>
     <g id="text_3">
      <!-- −0.50 -->
      <g transform="translate(141.613509 322.182437) scale(0.1 -0.1)">
       <use xlink:href="#DejaVuSans-2212"/>
       <use xlink:href="#DejaVuSans-30" transform="translate(83.789062 0)"/>
       <use xlink:href="#DejaVuSans-2e" transform="translate(147.412109 0)"/>
       <use xlink:href="#DejaVuSans-35" transform="translate(179.199219 0)"/>
       <use xlink:href="#DejaVuSans-30" transform="translate(242.822266 0)"/>
      </g>
     </g>
    </g>
    <g id="xtick_4">
     <g id="line2d_7">
      <path d="M 198.487884 307.584 
L 198.487884 41.472 
" clip-path="url(#p23421305a1)" style="fill: none; stroke: #b0b0b0; stroke-opacity: 0.5; stroke-width: 0.8; stroke-linecap: square"/>
     </g>
     <g id="line2d_8">
      <g>
       <use xlink:href="#m22c0039f96" x="198.487884" y="307.584" style="stroke: #000000; stroke-width: 0.8"/>
      </g>
     </g>
     <g id="text_4">
      <!-- −0.25 -->
      <g transform="translate(183.165228 322.182437) scale(0.1 -0.1)">
       <defs>
        <path id="DejaVuSans-32" d="M 1228 531 
L 3431 531 
L 3431 0 
L 469 0 
L 469 531 
Q 828 903 1448 1529 
Q 2069 2156 2228 2338 
Q 2531 2678 2651 2914 
Q 2772 3150 2772 3378 
Q 2772 3750 2511 3984 
Q 2250 4219 1831 4219 
Q 1534 4219 1204 4116 
Q 875 4013 500 3803 
L 500 4441 
Q 881 4594 1212 4672 
Q 1544 4750 1819 4750 
Q 2544 4750 2975 4387 
Q 3406 4025 3406 3419 
Q 3406 3131 3298 2873 
Q 3191 2616 2906 2266 
Q 2828 2175 2409 1742 
Q 1991 1309 1228 531 
z
" transform="scale(0.015625)"/>
       </defs>
       <use xlink:href="#DejaVuSans-2212"/>
       <use xlink:href="#DejaVuSans-30" transform="translate(83.789062 0)"/>
       <use xlink:href="#DejaVuSans-2e" transform="translate(147.412109 0)"/>
       <use xlink:href="#DejaVuSans-32" transform="translate(179.199219 0)"/>
       <use xlink:href="#DejaVuSans-35" transform="translate(242.822266 0)"/>
      </g>
     </g>
    </g>
    <g id="xtick_5">
     <g id="line2d_9">
      <path d="M 240.039603 307.584 
L 240.039603 41.472 
" clip-path="url(#p23421305a1)" style="fill: none; stroke: #b0b0b0; stroke-opacity: 0.5; stroke-width: 0.8; stroke-linecap: square"/>
     </g>
     <g id="line2d_10">
      <g>
       <use xlink:href="#m22c0039f96" x="240.039603" y="307.584" style="stroke: #000000; stroke-width: 0.8"/>
      </g>
     </g>
     <g id="text_5">
      <!-- 0.00 -->
      <g transform="translate(228.906791 322.182437) scale(0.1 -0.1)">
       <use xlink:href="#DejaVuSans-30"/>
       <use xlink:href="#DejaVuSans-2e" transform="translate(63.623047 0)"/>
       <use xlink:href="#DejaVuSans-30" transform="translate(95.410156 0)"/>
       <use xlink:href="#DejaVuSans-30" transform="translate(159.033203 0)"/>
      </g>
     </g>
    </g>
    <g id="xtick_6">
     <g id="line2d_11">
      <path d="M 281.591322 307.584 
L 281.591322 41.472 
" clip-path="url(#p23421305a1)" style="fill: none; stroke: #b0b0b0; stroke-opacity: 0.5; stroke-width: 0.8; stroke-linecap: square"/>
     </g>
     <g id="line2d_12">
      <g>
       <use xlink:href="#m22c0039f96" x="281.591322" y="307.584" style="stroke: #000000; stroke-width: 0.8"/>
      </g>
     </g>
     <g id="text_6">
      <!-- 0.25 -->
      <g transform="translate(270.45851 322.182437) scale(0.1 -0.1)">
       <use xlink:href="#DejaVuSans-30"/>
       <use xlink:href="#DejaVuSans-2e" transform="translate(63.623047 0)"/>
       <use xlink:href="#DejaVuSans-32" transform="translate(95.410156 0)"/>
       <use xlink:href="#DejaVuSans-35" transform="translate(159.033203 0)"/>
      </g>
     </g>
    </g>
    <g id="xtick_7">
     <g id="line2d_13">
      <path d="M 323.143041 307.584 
L 323.143041 41.472 
" clip-path="url(#p23421305a1)" style="fill: none; stroke: #b0b0b0; stroke-opacity: 0.5; stroke-width: 0.8; stroke-linecap: square"/>
     </g>
     <g id="line2d_14">
      <g>
       <use xlink:href="#m22c0039f96" x="323.143041" y="307.584" style="stroke: #000000; stroke-width: 0.8"/>
      </g>
     </g>
     <g id="text_7">
      <!-- 0.50 -->
      <g transform="translate(312.010229 322.182437) scale(0.1 -0.1)">
       <use xlink:href="#DejaVuSans-30"/>
       <use xlink:href="#DejaVuSans-2e" transform="translate(63.623047 0)"/>
       <use xlink:href="#DejaVuSans-35" transform="translate(95.410156 0)"/>
       <use xlink:href="#DejaVuSans-30" transform="translate(159.033203 0)"/>
      </g>
     </g>
    </g>
    <g id="xtick_8">
     <g id="line2d_15">
      <path d="M 364.69476 307.584 
L 364.69476 41.472 
" clip-path="url(#p23421305a1)" style="fill: none; stroke: #b0b0b0; stroke-opacity: 0.5; stroke-width: 0.8; stroke-linecap: square"/>
     </g>
     <g id="line2d_16">
      <g>
       <use xlink:href="#m22c0039f96" x="364.69476" y="307.584" style="stroke: #000000; stroke-width: 0.8"/>
      </g>
     </g>
     <g id="text_8">
      <!-- 0.75 -->
      <g transform="translate(353.561947 322.182437) scale(0.1 -0.1)">
       <use xlink:href="#DejaVuSans-30"/>
       <use xlink:href="#DejaVuSans-2e" transform="translate(63.623047 0)"/>
       <use xlink:href="#DejaVuSans-37" transform="translate(95.410156 0)"/>
       <use xlink:href="#DejaVuSans-35" transform="translate(159.033203 0)"/>
      </g>
     </g>
    </g>
    <g id="xtick_9">
     <g id="line2d_17">
      <path d="M 406.246479 307.584 
L 406.246479 41.472 
" clip-path="url(#p23421305a1)" style="fill: none; stroke: #b0b0b0; stroke-opacity: 0.5; stroke-width: 0.8; stroke-linecap: square"/>
     </g>
     <g id="line2d_18">
      <g>
       <use xlink:href="#m22c0039f96" x="406.246479" y="307.584" style="stroke: #000000; stroke-width: 0.8"/>
      </g>
     </g>
     <g id="text_9">
      <!-- 1.00 -->
      <g transform="translate(395.113666 322.182437) scale(0.1 -0.1)">
       <use xlink:href="#DejaVuSans-31"/>
       <use xlink:href="#DejaVuSans-2e" transform="translate(63.623047 0)"/>
       <use xlink:href="#DejaVuSans-30" transform="translate(95.410156 0)"/>
       <use xlink:href="#DejaVuSans-30" transform="translate(159.033203 0)"/>
      </g>
     </g>
    </g>
    <g id="text_10">
     <!-- Index -->
     <g transform="translate(222.393594 335.860562) scale(0.1 -0.1)">
      <defs>
       <path id="DejaVuSans-49" d="M 628 4666 
L 1259 4666 
L 1259 0 
L 628 0 
L 628 4666 
z
" transform="scale(0.015625)"/>
       <path id="DejaVuSans-6e" d="M 3513 2113 
L 3513 0 
L 2938 0 
L 2938 2094 
Q 2938 2591 2744 2837 
Q 2550 3084 2163 3084 
Q 1697 3084 1428 2787 
Q 1159 2491 1159 1978 
L 1159 0 
L 581 0 
L 581 3500 
L 1159 3500 
L 1159 2956 
Q 1366 3272 1645 3428 
Q 1925 3584 2291 3584 
Q 2894 3584 3203 3211 
Q 3513 2838 3513 2113 
z
" transform="scale(0.015625)"/>
       <path id="DejaVuSans-64" d="M 2906 2969 
L 2906 4863 
L 3481 4863 
L 3481 0 
L 2906 0 
L 2906 525 
Q 2725 213 2448 61 
Q 2172 -91 1784 -91 
Q 1150 -91 751 415 
Q 353 922 353 1747 
Q 353 2572 751 3078 
Q 1150 3584 1784 3584 
Q 2172 3584 2448 3432 
Q 2725 3281 2906 2969 
z
M 947 1747 
Q 947 1113 1208 752 
Q 1469 391 1925 391 
Q 2381 391 2643 752 
Q 2906 1113 2906 1747 
Q 2906 2381 2643 2742 
Q 2381 3103 1925 3103 
Q 1469 3103 1208 2742 
Q 947 2381 947 1747 
z
" transform="scale(0.015625)"/>
       <path id="DejaVuSans-65" d="M 3597 1894 
L 3597 1613 
L 953 1613 
Q 991 1019 1311 708 
Q 1631 397 2203 397 
Q 2534 397 2845 478 
Q 3156 559 3463 722 
L 3463 178 
Q 3153 47 2828 -22 
Q 2503 -91 2169 -91 
Q 1331 -91 842 396 
Q 353 884 353 1716 
Q 353 2575 817 3079 
Q 1281 3584 2069 3584 
Q 2775 3584 3186 3129 
Q 3597 2675 3597 1894 
z
M 3022 2063 
Q 3016 2534 2758 2815 
Q 2500 3097 2075 3097 
Q 1594 3097 1305 2825 
Q 1016 2553 972 2059 
L 3022 2063 
z
" transform="scale(0.015625)"/>
       <path id="DejaVuSans-78" d="M 3513 3500 
L 2247 1797 
L 3578 0 
L 2900 0 
L 1881 1375 
L 863 0 
L 184 0 
L 1544 1831 
L 300 3500 
L 978 3500 
L 1906 2253 
L 2834 3500 
L 3513 3500 
z
" transform="scale(0.015625)"/>
      </defs>
      <use xlink:href="#DejaVuSans-49"/>
      <use xlink:href="#DejaVuSans-6e" transform="translate(29.492188 0)"/>
      <use xlink:href="#DejaVuSans-64" transform="translate(92.871094 0)"/>
      <use xlink:href="#DejaVuSans-65" transform="translate(156.347656 0)"/>
      <use xlink:href="#DejaVuSans-78" transform="translate(216.121094 0)"/>
     </g>
    </g>
   </g>
   <g id="matplotlib.axis_2">
    <g id="ytick_1">
     <g id="line2d_19">
      <path d="M 57.6 295.488037 
L 414.72 295.488037 
" clip-path="url(#p23421305a1)" style="fill: none; stroke: #b0b0b0; stroke-opacity: 0.5; stroke-width: 0.8; stroke-linecap: square"/>
     </g>
     <g id="line2d_20">
      <defs>
       <path id="m2bfdd79355" d="M 0 0 
L -3.5 0 
" style="stroke: #000000; stroke-width: 0.8"/>
      </defs>
      <g>
       <use xlink:href="#m2bfdd79355" x="57.6" y="295.488037" style="stroke: #000000; stroke-width: 0.8"/>
      </g>
     </g>
     <g id="text_11">
      <!-- −1.00 -->
      <g transform="translate(19.954687 299.287255) scale(0.1 -0.1)">
       <use xlink:href="#DejaVuSans-2212"/>
       <use xlink:href="#DejaVuSans-31" transform="translate(83.789062 0)"/>
       <use xlink:href="#DejaVuSans-2e" transform="translate(147.412109 0)"/>
       <use xlink:href="#DejaVuSans-30" transform="translate(179.199219 0)"/>
       <use xlink:href="#DejaVuSans-30" transform="translate(242.822266 0)"/>
      </g>
     </g>
    </g>
    <g id="ytick_2">
     <g id="line2d_21">
      <path d="M 57.6 264.813747 
L 414.72 264.813747 
" clip-path="url(#p23421305a1)" style="fill: none; stroke: #b0b0b0; stroke-opacity: 0.5; stroke-width: 0.8; stroke-linecap: square"/>
     </g>
     <g id="line2d_22">
      <g>
       <use xlink:href="#m2bfdd79355" x="57.6" y="264.813747" style="stroke: #000000; stroke-width: 0.8"/>
      </g>
     </g>
     <g id="text_12">
      <!-- −0.75 -->
      <g transform="translate(19.954687 268.612966) scale(0.1 -0.1)">
       <use xlink:href="#DejaVuSans-2212"/>
       <use xlink:href="#DejaVuSans-30" transform="translate(83.789062 0)"/>
       <use xlink:href="#DejaVuSans-2e" transform="translate(147.412109 0)"/>
       <use xlink:href="#DejaVuSans-37" transform="translate(179.199219 0)"/>
       <use xlink:href="#DejaVuSans-35" transform="translate(242.822266 0)"/>
      </g>
     </g>
    </g>
    <g id="ytick_3">
     <g id="line2d_23">
      <path d="M 57.6 234.139457 
L 414.72 234.139457 
" clip-path="url(#p23421305a1)" style="fill: none; stroke: #b0b0b0; stroke-opacity: 0.5; stroke-width: 0.8; stroke-linecap: square"/>
     </g>
     <g id="line2d_24">
      <g>
       <use xlink:href="#m2bfdd79355" x="57.6" y="234.139457" style="stroke: #000000; stroke-width: 0.8"/>
      </g>
     </g>
     <g id="text_13">
      <!-- −0.50 -->
      <g transform="translate(19.954687 237.938676) scale(0.1 -0.1)">
       <use xlink:href="#DejaVuSans-2212"/>
       <use xlink:href="#DejaVuSans-30" transform="translate(83.789062 0)"/>
       <use xlink:href="#DejaVuSans-2e" transform="translate(147.412109 0)"/>
       <use xlink:href="#DejaVuSans-35" transform="translate(179.199219 0)"/>
       <use xlink:href="#DejaVuSans-30" transform="translate(242.822266 0)"/>
      </g>
     </g>
    </g>
    <g id="ytick_4">
     <g id="line2d_25">
      <path d="M 57.6 203.465168 
L 414.72 203.465168 
" clip-path="url(#p23421305a1)" style="fill: none; stroke: #b0b0b0; stroke-opacity: 0.5; stroke-width: 0.8; stroke-linecap: square"/>
     </g>
     <g id="line2d_26">
      <g>
       <use xlink:href="#m2bfdd79355" x="57.6" y="203.465168" style="stroke: #000000; stroke-width: 0.8"/>
      </g>
     </g>
     <g id="text_14">
      <!-- −0.25 -->
      <g transform="translate(19.954687 207.264386) scale(0.1 -0.1)">
       <use xlink:href="#DejaVuSans-2212"/>
       <use xlink:href="#DejaVuSans-30" transform="translate(83.789062 0)"/>
       <use xlink:href="#DejaVuSans-2e" transform="translate(147.412109 0)"/>
       <use xlink:href="#DejaVuSans-32" transform="translate(179.199219 0)"/>
       <use xlink:href="#DejaVuSans-35" transform="translate(242.822266 0)"/>
      </g>
     </g>
    </g>
    <g id="ytick_5">
     <g id="line2d_27">
      <path d="M 57.6 172.790878 
L 414.72 172.790878 
" clip-path="url(#p23421305a1)" style="fill: none; stroke: #b0b0b0; stroke-opacity: 0.5; stroke-width: 0.8; stroke-linecap: square"/>
     </g>
     <g id="line2d_28">
      <g>
       <use xlink:href="#m2bfdd79355" x="57.6" y="172.790878" style="stroke: #000000; stroke-width: 0.8"/>
      </g>
     </g>
     <g id="text_15">
      <!-- 0.00 -->
      <g transform="translate(28.334375 176.590097) scale(0.1 -0.1)">
       <use xlink:href="#DejaVuSans-30"/>
       <use xlink:href="#DejaVuSans-2e" transform="translate(63.623047 0)"/>
       <use xlink:href="#DejaVuSans-30" transform="translate(95.410156 0)"/>
       <use xlink:href="#DejaVuSans-30" transform="translate(159.033203 0)"/>
      </g>
     </g>
    </g>
    <g id="ytick_6">
     <g id="line2d_29">
      <path d="M 57.6 142.116588 
L 414.72 142.116588 
" clip-path="url(#p23421305a1)" style="fill: none; stroke: #b0b0b0; stroke-opacity: 0.5; stroke-width: 0.8; stroke-linecap: square"/>
     </g>
     <g id="line2d_30">
      <g>
       <use xlink:href="#m2bfdd79355" x="57.6" y="142.116588" style="stroke: #000000; stroke-width: 0.8"/>
      </g>
     </g>
     <g id="text_16">
      <!-- 0.25 -->
      <g transform="translate(28.334375 145.915807) scale(0.1 -0.1)">
       <use xlink:href="#DejaVuSans-30"/>
       <use xlink:href="#DejaVuSans-2e" transform="translate(63.623047 0)"/>
       <use xlink:href="#DejaVuSans-32" transform="translate(95.410156 0)"/>
       <use xlink:href="#DejaVuSans-35" transform="translate(159.033203 0)"/>
      </g>
     </g>
    </g>
    <g id="ytick_7">
     <g id="line2d_31">
      <path d="M 57.6 111.442299 
L 414.72 111.442299 
" clip-path="url(#p23421305a1)" style="fill: none; stroke: #b0b0b0; stroke-opacity: 0.5; stroke-width: 0.8; stroke-linecap: square"/>
     </g>
     <g id="line2d_32">
      <g>
       <use xlink:href="#m2bfdd79355" x="57.6" y="111.442299" style="stroke: #000000; stroke-width: 0.8"/>
      </g>
     </g>
     <g id="text_17">
      <!-- 0.50 -->
      <g transform="translate(28.334375 115.241517) scale(0.1 -0.1)">
       <use xlink:href="#DejaVuSans-30"/>
       <use xlink:href="#DejaVuSans-2e" transform="translate(63.623047 0)"/>
       <use xlink:href="#DejaVuSans-35" transform="translate(95.410156 0)"/>
       <use xlink:href="#DejaVuSans-30" transform="translate(159.033203 0)"/>
      </g>
     </g>
    </g>
    <g id="ytick_8">
     <g id="line2d_33">
      <path d="M 57.6 80.768009 
L 414.72 80.768009 
" clip-path="url(#p23421305a1)" style="fill: none; stroke: #b0b0b0; stroke-opacity: 0.5; stroke-width: 0.8; stroke-linecap: square"/>
     </g>
     <g id="line2d_34">
      <g>
       <use xlink:href="#m2bfdd79355" x="57.6" y="80.768009" style="stroke: #000000; stroke-width: 0.8"/>
      </g>
     </g>
     <g id="text_18">
      <!-- 0.75 -->
      <g transform="translate(28.334375 84.567228) scale(0.1 -0.1)">
       <use xlink:href="#DejaVuSans-30"/>
       <use xlink:href="#DejaVuSans-2e" transform="translate(63.623047 0)"/>
       <use xlink:href="#DejaVuSans-37" transform="translate(95.410156 0)"/>
       <use xlink:href="#DejaVuSans-35" transform="translate(159.033203 0)"/>
      </g>
     </g>
    </g>
    <g id="ytick_9">
     <g id="line2d_35">
      <path d="M 57.6 50.093719 
L 414.72 50.093719 
" clip-path="url(#p23421305a1)" style="fill: none; stroke: #b0b0b0; stroke-opacity: 0.5; stroke-width: 0.8; stroke-linecap: square"/>
     </g>
     <g id="line2d_36">
      <g>
       <use xlink:href="#m2bfdd79355" x="57.6" y="50.093719" style="stroke: #000000; stroke-width: 0.8"/>
      </g>
     </g>
     <g id="text_19">
      <!-- 1.00 -->
      <g transform="translate(28.334375 53.892938) scale(0.1 -0.1)">
       <use xlink:href="#DejaVuSans-31"/>
       <use xlink:href="#DejaVuSans-2e" transform="translate(63.623047 0)"/>
       <use xlink:href="#DejaVuSans-30" transform="translate(95.410156 0)"/>
       <use xlink:href="#DejaVuSans-30" transform="translate(159.033203 0)"/>
      </g>
     </g>
    </g>
    <g id="text_20">
     <!-- Value -->
     <g transform="translate(13.875 188.25925) rotate(-90) scale(0.1 -0.1)">
      <defs>
       <path id="DejaVuSans-56" d="M 1831 0 
L 50 4666 
L 709 4666 
L 2188 738 
L 3669 4666 
L 4325 4666 
L 2547 0 
L 1831 0 
z
" transform="scale(0.015625)"/>
       <path id="DejaVuSans-61" d="M 2194 1759 
Q 1497 1759 1228 1600 
Q 959 1441 959 1056 
Q 959 750 1161 570 
Q 1363 391 1709 391 
Q 2188 391 2477 730 
Q 2766 1069 2766 1631 
L 2766 1759 
L 2194 1759 
z
M 3341 1997 
L 3341 0 
L 2766 0 
L 2766 531 
Q 2569 213 2275 61 
Q 1981 -91 1556 -91 
Q 1019 -91 701 211 
Q 384 513 384 1019 
Q 384 1609 779 1909 
Q 1175 2209 1959 2209 
L 2766 2209 
L 2766 2266 
Q 2766 2663 2505 2880 
Q 2244 3097 1772 3097 
Q 1472 3097 1187 3025 
Q 903 2953 641 2809 
L 641 3341 
Q 956 3463 1253 3523 
Q 1550 3584 1831 3584 
Q 2591 3584 2966 3190 
Q 3341 2797 3341 1997 
z
" transform="scale(0.015625)"/>
       <path id="DejaVuSans-6c" d="M 603 4863 
L 1178 4863 
L 1178 0 
L 603 0 
L 603 4863 
z
" transform="scale(0.015625)"/>
       <path id="DejaVuSans-75" d="M 544 1381 
L 544 3500 
L 1119 3500 
L 1119 1403 
Q 1119 906 1312 657 
Q 1506 409 1894 409 
Q 2359 409 2629 706 
Q 2900 1003 2900 1516 
L 2900 3500 
L 3475 3500 
L 3475 0 
L 2900 0 
L 2900 538 
Q 2691 219 2414 64 
Q 2138 -91 1772 -91 
Q 1169 -91 856 284 
Q 544 659 544 1381 
z
M 1991 3584 
L 1991 3584 
z
" transform="scale(0.015625)"/>
      </defs>
      <use xlink:href="#DejaVuSans-56"/>
      <use xlink:href="#DejaVuSans-61" transform="translate(60.658203 0)"/>
      <use xlink:href="#DejaVuSans-6c" transform="translate(121.9375 0)"/>
      <use xlink:href="#DejaVuSans-75" transform="translate(149.720703 0)"/>
      <use xlink:href="#DejaVuSans-65" transform="translate(213.099609 0)"/>
     </g>
    </g>
   </g>
   <g id="line2d_37">
    <path d="M 242.91725 173.711762 
L 257.524058 173.415636 
L 249.414699 173.119649 
L 249.606864 172.823811 
L 249.283306 172.528086 
L 256.289772 167.194649 
L 289.48844 142.401022 
L 293.327901 139.466362 
L 298.326178 135.099348 
L 303.42495 130.460263 
L 313.441725 120.835586 
L 320.405968 114.668394 
L 328.861199 107.949822 
L 344.165072 96.180349 
L 349.471805 92.204397 
L 352.896215 89.646556 
L 359.774369 84.508356 
L 362.024805 82.78906 
L 367.671456 78.488827 
L 369.444508 77.054597 
L 371.017277 75.908841 
L 372.5364 74.767963 
L 374.44343 73.051629 
L 375.757356 71.916946 
L 376.878844 70.774898 
L 378.954268 69.082017 
L 380.005924 67.944255 
L 382.108245 66.263149 
L 382.787052 65.129797 
L 383.820123 64.292904 
L 384.439788 63.740273 
L 384.740089 63.180899 
L 384.947972 62.614029 
L 385.44401 62.050391 
L 386.966997 60.95166 
L 387.19927 60.395438 
L 387.25657 59.827076 
L 387.410797 59.542888 
L 388.17502 58.986095 
L 389.567328 58.176343 
L 389.689052 57.902532 
L 389.438769 57.33583 
L 389.313201 57.045901 
L 389.369957 56.757178 
L 389.70618 56.474621 
L 391.172154 55.937852 
L 391.957369 55.679231 
L 392.344711 55.41816 
L 392.086226 55.146302 
L 389.762946 54.249331 
L 389.750582 53.96289 
L 391.263573 53.728622 
L 398.487273 53.568 
L 387.978907 54.021323 
L 381.136705 54.505553 
L 376.955918 55.142609 
L 375.032998 55.901125 
L 374.511737 56.743751 
L 374.609357 57.635545 
L 374.509577 58.552013 
L 373.525881 59.484206 
L 371.260843 60.440144 
L 359.527672 63.695962 
L 355.90917 64.991048 
L 353.111329 66.401005 
L 351.396766 67.902503 
L 351.045574 69.453322 
L 352.149705 70.998978 
L 354.5415 72.482653 
L 359.855505 75.09021 
L 360.907577 76.17999 
L 359.919125 77.147396 
L 356.624632 78.036864 
L 339.959281 80.825828 
L 335.473318 81.960131 
L 332.064878 83.230031 
L 329.774597 84.616973 
L 328.794616 86.080295 
L 329.446348 87.565601 
L 331.39675 89.016096 
L 333.839426 90.384141 
L 335.759949 91.64054 
L 336.30774 92.780058 
L 334.968829 93.821774 
L 331.622564 94.804436 
L 321.647496 96.791202 
L 317.017044 97.884338 
L 313.289944 99.077741 
L 310.530423 100.369822 
L 308.832305 101.737676 
L 308.362896 103.142938 
L 309.088413 104.540835 
L 311.55748 107.162624 
L 311.767988 108.347872 
L 310.565413 109.45573 
L 307.909664 110.51249 
L 296.288657 113.735654 
L 293.167135 114.921216 
L 290.826835 116.175118 
L 289.304868 117.481672 
L 288.587445 118.814433 
L 288.636582 120.14304 
L 288.968387 121.440471 
L 289.072814 122.688898 
L 288.516879 123.883017 
L 287.085886 125.03017 
L 284.838125 126.147558 
L 276.562722 129.535717 
L 274.302647 130.728648 
L 272.518534 131.958704 
L 271.205624 133.216533 
L 270.289209 134.487775 
L 268.169715 138.239026 
L 267.067599 139.441079 
L 265.590807 140.619541 
L 263.778832 141.782172 
L 257.63741 145.274641 
L 255.768768 146.466281 
L 254.095239 147.676297 
L 252.635927 148.901759 
L 250.263723 151.374234 
L 248.200529 153.827957 
L 247.061671 155.03517 
L 245.752176 156.22809 
L 244.244381 157.409683 
L 235.833309 163.340725 
L 234.462784 164.555925 
L 232.165132 167.000377 
L 229.923414 169.428977 
L 227.169464 171.820642 
L 223.879415 174.191147 
L 220.49663 176.572763 
L 217.437109 178.979849 
L 210.591308 184.996693 
L 199.704868 193.355358 
L 195.471328 196.936373 
L 185.025984 205.270256 
L 178.169799 211.20235 
L 174.416328 214.759878 
L 171.005713 218.317417 
L 167.553078 221.860213 
L 162.820171 226.600532 
L 158.28945 231.33395 
L 155.696936 233.682433 
L 151.262676 237.224377 
L 148.630059 239.608739 
L 144.949403 243.174195 
L 142.156654 245.524279 
L 134.628036 251.427701 
L 127.816872 257.366907 
L 118.426289 264.452937 
L 112.934222 269.17792 
L 106.660506 273.889051 
L 105.400294 275.081649 
L 103.457778 277.467276 
L 101.533867 279.817828 
L 100.331787 280.975322 
L 96.179948 284.451175 
L 95.007084 285.640446 
L 94.106466 286.850018 
L 93.592843 288.069843 
L 93.606455 289.27894 
L 94.26845 290.447045 
L 95.642658 291.538405 
L 102.408737 295.158667 
L 102.214675 295.307003 
L 99.671248 295.446043 
L 98.280961 295.488 
L 98.314129 295.464978 
L 97.599083 295.384772 
L 90.41398 294.947202 
L 88.914324 294.553182 
L 92.945113 293.434178 
L 93.329097 292.771343 
L 90.964367 292.10537 
L 85.982296 291.49323 
L 76.949098 290.621197 
L 81.107337 290.410698 
L 97.050371 290.3728 
L 108.200958 290.445422 
L 103.541717 290.256943 
L 98.10701 289.90417 
L 98.67715 289.396172 
L 100.579108 288.77266 
L 99.828705 288.096332 
L 95.193449 287.440481 
L 82.659153 286.44777 
L 84.284654 286.182516 
L 101.284139 286.055206 
L 111.668423 286.083136 
L 112.20383 285.984457 
L 106.71948 285.74545 
L 103.204721 285.352769 
L 104.177272 284.825413 
L 105.002233 284.210209 
L 102.795614 283.571032 
L 97.475002 282.975106 
L 91.428377 282.478663 
L 88.749694 282.11552 
L 92.675284 281.890767 
L 115.58577 281.623612 
L 108.770811 281.145489 
L 107.357006 280.724614 
L 108.028898 280.207241 
L 107.759496 279.636414 
L 105.166961 279.064396 
L 97.112288 278.107133 
L 96.484015 277.780571 
L 100.433757 277.559621 
L 116.841336 277.225841 
L 117.595662 277.078537 
L 112.585922 276.522241 
L 112.035555 276.10057 
L 112.406333 275.607162 
L 111.773533 275.078614 
L 109.438949 274.557818 
L 103.697342 273.689866 
L 104.11165 273.385222 
L 107.928464 273.165245 
L 120.886827 272.729451 
L 120.831002 272.534975 
L 118.893588 272.266788 
L 117.383955 271.916312 
L 117.146373 271.492308 
L 117.035091 271.018624 
L 115.948811 270.528558 
L 110.591376 269.284526 
L 112.145599 269.005311 
L 124.850547 268.24874 
L 124.375224 268.010158 
L 123.130051 267.710473 
L 122.358645 267.348529 
L 122.109541 266.935919 
L 121.672656 266.494048 
L 120.589972 266.049479 
L 118.008613 265.250557 
L 118.189509 264.927337 
L 120.034721 264.657966 
L 128.315357 264.023389 
L 129.134037 263.79661 
L 128.820985 263.530069 
L 128.149826 263.215443 
L 126.790537 262.046518 
L 124.921896 261.254515 
L 124.567919 260.908543 
L 125.328377 260.606313 
L 129.702454 260.110514 
L 133.335618 259.657366 
L 133.72719 259.402548 
L 132.990488 258.785699 
L 132.165844 258.047353 
L 131.007612 257.292772 
L 130.745699 256.945923 
L 131.177928 256.630412 
L 132.400356 256.346063 
L 137.285975 255.592359 
L 137.993273 255.332575 
L 138.143033 255.051122 
L 137.197052 253.360948 
L 137.234757 253.022144 
L 137.620038 252.701755 
L 138.437203 252.401594 
L 142.939947 251.311873 
L 143.461347 251.030273 
L 143.700703 250.73344 
L 143.799879 250.093715 
L 143.836722 249.420582 
L 143.961873 249.087248 
L 144.27229 248.763451 
L 144.822508 248.452072 
L 146.560579 247.86422 
L 148.362638 247.296406 
L 149.437079 246.707837 
L 149.855637 246.077802 
L 150.249904 245.090219 
L 150.543153 244.765763 
L 151.580374 244.139107 
L 154.234172 242.937075 
L 155.045679 242.320284 
L 156.557472 240.716612 
L 158.004227 239.771584 
L 160.580519 238.231465 
L 162.219474 236.973289 
L 163.867974 235.703433 
L 166.471064 234.15347 
L 167.828138 233.217792 
L 170.33328 231.320015 
L 173.624376 229.138349 
L 178.23126 225.701995 
L 180.448776 224.1629 
L 183.286367 221.999894 
L 185.499059 220.480438 
L 188.650955 218.034747 
L 191.152056 216.220279 
L 194.762335 213.496173 
L 197.260711 211.691999 
L 199.663215 209.879246 
L 201.791556 208.377627 
L 204.535517 206.25302 
L 206.573578 204.736841 
L 210.439401 201.677534 
L 233.482144 183.606831 
L 236.87645 180.893543 
L 246.385254 173.748753 
L 246.385254 173.748753 
" clip-path="url(#p23421305a1)" style="fill: none; stroke: #1f77b4; stroke-width: 1.5; stroke-linecap: square"/>
   </g>
   <g id="line2d_38">
    <path d="M 240.727711 173.711762 
L 264.945616 154.915565 
L 281.086776 142.401022 
L 290.735396 135.099348 
L 312.940055 117.899419 
L 322.590331 110.278406 
L 337.002388 99.313486 
L 341.542838 95.896344 
L 349.360424 89.930766 
L 357.755333 83.363711 
L 359.891862 81.643092 
L 361.702213 80.210178 
L 363.114245 79.060561 
L 365.332286 77.342347 
L 366.716817 76.194097 
L 368.99088 74.481179 
L 370.347157 73.335701 
L 372.663998 71.631543 
L 373.989644 70.491236 
L 376.405968 68.798012 
L 377.659235 67.661844 
L 380.165531 65.980716 
L 381.321772 64.848607 
L 383.951585 63.180899 
L 384.918955 62.050391 
L 385.903404 61.498455 
L 387.473388 60.675377 
L 387.929185 60.112113 
L 388.156435 59.542888 
L 388.413504 59.262049 
L 389.470946 58.714771 
L 391.405427 57.902532 
L 391.686421 57.6223 
L 391.711287 57.33583 
L 391.440061 56.757178 
L 391.517928 56.474621 
L 391.965691 56.201549 
L 394.010484 55.679231 
L 396.123613 55.146302 
L 396.28107 54.858209 
L 395.394807 54.555357 
L 393.342336 54.249331 
L 390.2509 53.96289 
L 382.635837 53.584587 
L 379.285489 53.568 
L 376.973592 53.708328 
L 376.005816 54.021323 
L 376.378813 54.505553 
L 381.171497 56.743751 
L 381.844994 57.635545 
L 381.184495 58.552013 
L 379.08043 59.484206 
L 375.782737 60.440144 
L 368.017706 62.518093 
L 365.033163 63.695962 
L 363.468925 64.991048 
L 363.585933 66.401005 
L 365.261988 67.902503 
L 368.007551 69.453322 
L 371.064333 70.998978 
L 373.564587 72.482653 
L 374.71529 73.856197 
L 373.967898 75.09021 
L 371.136732 76.17999 
L 366.441579 77.147396 
L 348.09193 79.819201 
L 343.420663 80.825828 
L 340.583601 81.960131 
L 339.762801 83.230031 
L 340.737254 84.616973 
L 342.932599 86.080295 
L 345.541727 87.565601 
L 347.693225 89.016096 
L 348.632024 90.384141 
L 347.87423 91.64054 
L 345.304432 92.780058 
L 341.192863 93.821774 
L 326.263186 96.791202 
L 322.87182 97.884338 
L 321.044965 99.077741 
L 320.749889 100.369822 
L 321.61247 101.737676 
L 323.014923 103.142938 
L 324.247777 104.540835 
L 324.678154 105.890238 
L 323.893791 107.162624 
L 321.789315 108.347872 
L 318.574655 109.45573 
L 307.314608 112.6188 
L 304.745528 113.735654 
L 303.217612 114.921216 
L 302.623869 116.175118 
L 302.640398 117.481672 
L 302.823232 118.814433 
L 302.727459 120.14304 
L 302.016727 121.440471 
L 300.536106 122.688898 
L 298.33292 123.883017 
L 292.731398 126.147558 
L 289.981075 127.257329 
L 287.634881 128.381273 
L 285.829161 129.535717 
L 284.558424 130.728648 
L 283.694074 131.958704 
L 282.341304 134.487775 
L 281.435507 135.756789 
L 280.192652 137.010066 
L 278.579799 138.239026 
L 276.645508 139.441079 
L 268.133112 144.100524 
L 266.394479 145.274641 
L 264.919945 146.466281 
L 263.677987 147.676297 
L 259.224652 152.606556 
L 257.742333 153.827957 
L 256.008997 155.03517 
L 251.991114 157.409683 
L 247.972155 159.761129 
L 246.251326 160.943325 
L 244.80097 162.136028 
L 243.596747 163.340725 
L 240.387572 167.000377 
L 239.024592 168.218825 
L 237.389557 169.428977 
L 233.4796 171.820642 
L 229.505746 174.191147 
L 227.795533 175.378934 
L 226.336628 176.572763 
L 223.966428 178.979849 
L 221.595713 181.397439 
L 220.167209 182.60232 
L 216.763508 184.996693 
L 211.387128 188.569007 
L 208.362203 190.959082 
L 202.819045 195.745541 
L 196.57276 200.502295 
L 181.235462 212.386932 
L 177.151256 215.947068 
L 173.898891 218.317417 
L 166.853972 223.041797 
L 164.139338 225.412333 
L 160.496243 228.974242 
L 159.009375 230.156177 
L 155.450388 232.50859 
L 151.66048 234.858254 
L 149.954794 236.038536 
L 148.460605 237.224377 
L 145.979858 239.608739 
L 143.516636 241.990855 
L 142.052782 243.174195 
L 138.613235 245.524279 
L 135.030545 247.870312 
L 131.972238 250.236076 
L 126.629157 255.004975 
L 123.350812 257.366907 
L 119.982672 259.716735 
L 117.126698 262.077 
L 113.341942 265.641088 
L 111.828525 266.825312 
L 108.224318 269.17792 
L 104.540343 271.523397 
L 103.023587 272.702589 
L 101.823836 273.889051 
L 99.145113 277.467276 
L 97.896522 278.648816 
L 96.183505 279.817828 
L 94.000355 280.975322 
L 88.993736 283.282353 
L 86.852353 284.451175 
L 85.45207 285.640446 
L 85.05924 286.850018 
L 85.756889 288.069843 
L 87.408535 289.27894 
L 89.67386 290.447045 
L 94.090813 292.517468 
L 95.278696 293.355092 
L 95.36107 294.033563 
L 94.291711 294.550111 
L 92.266197 294.916947 
L 87.060314 295.307003 
L 83.731375 295.477242 
L 84.917802 295.488 
L 89.675168 295.384772 
L 92.187815 295.220098 
L 93.971507 294.947202 
L 94.508103 294.553182 
L 93.494766 294.041425 
L 90.925087 293.434178 
L 82.690091 292.10537 
L 75.249861 290.986446 
L 73.832727 290.621197 
L 74.64475 290.410698 
L 77.730479 290.341134 
L 99.776784 290.445422 
L 102.778753 290.256943 
L 103.256018 289.90417 
L 101.182208 289.396172 
L 97.060228 288.77266 
L 82.704605 286.874188 
L 80.877234 286.44777 
L 81.611212 286.182516 
L 84.796137 286.066081 
L 105.19147 285.984457 
L 107.169859 285.74545 
L 106.787718 285.352769 
L 104.304751 284.825413 
L 89.903775 282.478663 
L 89.433058 282.11552 
L 90.964733 281.890767 
L 98.408807 281.738753 
L 106.670125 281.623612 
L 109.223934 281.445232 
L 110.145029 281.145489 
L 109.412914 280.724614 
L 107.336133 280.207241 
L 99.144747 278.541683 
L 97.893639 278.107133 
L 98.060518 277.780571 
L 99.65087 277.559621 
L 105.770121 277.32509 
L 112.017713 277.078537 
L 113.793945 276.849483 
L 114.25748 276.522241 
L 113.427486 276.10057 
L 109.231235 275.078614 
L 105.280888 274.085048 
L 104.667138 273.689866 
L 105.287001 273.385222 
L 107.061866 273.165245 
L 117.42912 272.534975 
L 118.474535 272.266788 
L 118.411548 271.916312 
L 117.38345 271.492308 
L 112.400092 270.057785 
L 111.576964 269.636743 
L 111.665649 269.284526 
L 112.687337 269.005311 
L 116.692062 268.609989 
L 120.897437 268.24874 
L 122.203427 268.010158 
L 122.727383 267.710473 
L 122.481558 267.348529 
L 121.631959 266.935919 
L 118.455276 265.628195 
L 118.185725 265.250557 
L 118.603679 264.927337 
L 119.686005 264.657966 
L 127.258896 263.530069 
L 127.527665 263.215443 
L 127.206926 262.85464 
L 124.399872 261.254515 
L 124.544787 260.908543 
L 125.268382 260.606313 
L 127.98161 260.110514 
L 130.844488 259.657366 
L 131.761146 259.402548 
L 132.179397 259.112882 
L 132.125296 258.785699 
L 130.541759 257.292772 
L 130.726579 256.945923 
L 131.309856 256.630412 
L 133.322699 256.08622 
L 135.434253 255.592359 
L 136.172659 255.332575 
L 136.613012 255.051122 
L 136.775779 254.744292 
L 136.615737 254.066654 
L 136.525952 253.712148 
L 136.571454 253.360948 
L 136.816328 253.022144 
L 137.278247 252.701755 
L 138.704951 252.119219 
L 140.949829 251.311873 
L 141.772165 250.73344 
L 142.05618 250.093715 
L 142.287264 249.420582 
L 142.551921 249.087248 
L 143.527533 248.452072 
L 146.66242 247.006791 
L 147.204743 246.397914 
L 147.785612 245.419647 
L 148.628098 244.765763 
L 151.781104 242.937075 
L 153.16935 241.360571 
L 154.633699 240.398263 
L 156.025402 239.462472 
L 157.327584 238.231465 
L 158.423666 237.290906 
L 163.241751 233.531801 
L 164.906919 232.267317 
L 167.042106 230.695209 
L 169.220129 228.825577 
L 171.418862 227.256299 
L 173.975395 225.087625 
L 176.098708 223.541666 
L 178.365946 221.695996 
L 183.259322 218.034747 
L 185.697654 216.220279 
L 187.690258 214.702681 
L 189.172617 213.496173 
L 192.479549 211.085841 
L 193.985853 209.879246 
L 197.293502 207.466808 
L 200.894096 204.736841 
L 207.969579 199.218456 
L 210.251919 197.37153 
L 212.575318 195.5255 
L 214.889269 193.680559 
L 220.692805 189.083868 
L 230.538579 181.493584 
L 236.008508 177.308763 
L 240.680288 173.748753 
L 240.680288 173.748753 
" clip-path="url(#p23421305a1)" style="fill: none; stroke: #ff7f0e; stroke-opacity: 0.5; stroke-width: 1.5; stroke-linecap: square"/>
   </g>
   <g id="patch_3">
    <path d="M 57.6 307.584 
L 57.6 41.472 
" style="fill: none; stroke: #000000; stroke-width: 0.8; stroke-linejoin: miter; stroke-linecap: square"/>
   </g>
   <g id="patch_4">
    <path d="M 414.72 307.584 
L 414.72 41.472 
" style="fill: none; stroke: #000000; stroke-width: 0.8; stroke-linejoin: miter; stroke-linecap: square"/>
   </g>
   <g id="patch_5">
    <path d="M 57.6 307.584 
L 414.72 307.584 
" style="fill: none; stroke: #000000; stroke-width: 0.8; stroke-linejoin: miter; stroke-linecap: square"/>
   </g>
   <g id="patch_6">
    <path d="M 57.6 41.472 
L 414.72 41.472 
" style="fill: none; stroke: #000000; stroke-width: 0.8; stroke-linejoin: miter; stroke-linecap: square"/>
   </g>
   <g id="text_21">
    <!-- Compare - Epoch 800 -->
    <g transform="translate(171.234375 35.472) scale(0.12 -0.12)">
     <defs>
      <path id="DejaVuSans-43" d="M 4122 4306 
L 4122 3641 
Q 3803 3938 3442 4084 
Q 3081 4231 2675 4231 
Q 1875 4231 1450 3742 
Q 1025 3253 1025 2328 
Q 1025 1406 1450 917 
Q 1875 428 2675 428 
Q 3081 428 3442 575 
Q 3803 722 4122 1019 
L 4122 359 
Q 3791 134 3420 21 
Q 3050 -91 2638 -91 
Q 1578 -91 968 557 
Q 359 1206 359 2328 
Q 359 3453 968 4101 
Q 1578 4750 2638 4750 
Q 3056 4750 3426 4639 
Q 3797 4528 4122 4306 
z
" transform="scale(0.015625)"/>
      <path id="DejaVuSans-6f" d="M 1959 3097 
Q 1497 3097 1228 2736 
Q 959 2375 959 1747 
Q 959 1119 1226 758 
Q 1494 397 1959 397 
Q 2419 397 2687 759 
Q 2956 1122 2956 1747 
Q 2956 2369 2687 2733 
Q 2419 3097 1959 3097 
z
M 1959 3584 
Q 2709 3584 3137 3096 
Q 3566 2609 3566 1747 
Q 3566 888 3137 398 
Q 2709 -91 1959 -91 
Q 1206 -91 779 398 
Q 353 888 353 1747 
Q 353 2609 779 3096 
Q 1206 3584 1959 3584 
z
" transform="scale(0.015625)"/>
      <path id="DejaVuSans-6d" d="M 3328 2828 
Q 3544 3216 3844 3400 
Q 4144 3584 4550 3584 
Q 5097 3584 5394 3201 
Q 5691 2819 5691 2113 
L 5691 0 
L 5113 0 
L 5113 2094 
Q 5113 2597 4934 2840 
Q 4756 3084 4391 3084 
Q 3944 3084 3684 2787 
Q 3425 2491 3425 1978 
L 3425 0 
L 2847 0 
L 2847 2094 
Q 2847 2600 2669 2842 
Q 2491 3084 2119 3084 
Q 1678 3084 1418 2786 
Q 1159 2488 1159 1978 
L 1159 0 
L 581 0 
L 581 3500 
L 1159 3500 
L 1159 2956 
Q 1356 3278 1631 3431 
Q 1906 3584 2284 3584 
Q 2666 3584 2933 3390 
Q 3200 3197 3328 2828 
z
" transform="scale(0.015625)"/>
      <path id="DejaVuSans-70" d="M 1159 525 
L 1159 -1331 
L 581 -1331 
L 581 3500 
L 1159 3500 
L 1159 2969 
Q 1341 3281 1617 3432 
Q 1894 3584 2278 3584 
Q 2916 3584 3314 3078 
Q 3713 2572 3713 1747 
Q 3713 922 3314 415 
Q 2916 -91 2278 -91 
Q 1894 -91 1617 61 
Q 1341 213 1159 525 
z
M 3116 1747 
Q 3116 2381 2855 2742 
Q 2594 3103 2138 3103 
Q 1681 3103 1420 2742 
Q 1159 2381 1159 1747 
Q 1159 1113 1420 752 
Q 1681 391 2138 391 
Q 2594 391 2855 752 
Q 3116 1113 3116 1747 
z
" transform="scale(0.015625)"/>
      <path id="DejaVuSans-72" d="M 2631 2963 
Q 2534 3019 2420 3045 
Q 2306 3072 2169 3072 
Q 1681 3072 1420 2755 
Q 1159 2438 1159 1844 
L 1159 0 
L 581 0 
L 581 3500 
L 1159 3500 
L 1159 2956 
Q 1341 3275 1631 3429 
Q 1922 3584 2338 3584 
Q 2397 3584 2469 3576 
Q 2541 3569 2628 3553 
L 2631 2963 
z
" transform="scale(0.015625)"/>
      <path id="DejaVuSans-20" transform="scale(0.015625)"/>
      <path id="DejaVuSans-2d" d="M 313 2009 
L 1997 2009 
L 1997 1497 
L 313 1497 
L 313 2009 
z
" transform="scale(0.015625)"/>
      <path id="DejaVuSans-45" d="M 628 4666 
L 3578 4666 
L 3578 4134 
L 1259 4134 
L 1259 2753 
L 3481 2753 
L 3481 2222 
L 1259 2222 
L 1259 531 
L 3634 531 
L 3634 0 
L 628 0 
L 628 4666 
z
" transform="scale(0.015625)"/>
      <path id="DejaVuSans-63" d="M 3122 3366 
L 3122 2828 
Q 2878 2963 2633 3030 
Q 2388 3097 2138 3097 
Q 1578 3097 1268 2742 
Q 959 2388 959 1747 
Q 959 1106 1268 751 
Q 1578 397 2138 397 
Q 2388 397 2633 464 
Q 2878 531 3122 666 
L 3122 134 
Q 2881 22 2623 -34 
Q 2366 -91 2075 -91 
Q 1284 -91 818 406 
Q 353 903 353 1747 
Q 353 2603 823 3093 
Q 1294 3584 2113 3584 
Q 2378 3584 2631 3529 
Q 2884 3475 3122 3366 
z
" transform="scale(0.015625)"/>
      <path id="DejaVuSans-68" d="M 3513 2113 
L 3513 0 
L 2938 0 
L 2938 2094 
Q 2938 2591 2744 2837 
Q 2550 3084 2163 3084 
Q 1697 3084 1428 2787 
Q 1159 2491 1159 1978 
L 1159 0 
L 581 0 
L 581 4863 
L 1159 4863 
L 1159 2956 
Q 1366 3272 1645 3428 
Q 1925 3584 2291 3584 
Q 2894 3584 3203 3211 
Q 3513 2838 3513 2113 
z
" transform="scale(0.015625)"/>
      <path id="DejaVuSans-38" d="M 2034 2216 
Q 1584 2216 1326 1975 
Q 1069 1734 1069 1313 
Q 1069 891 1326 650 
Q 1584 409 2034 409 
Q 2484 409 2743 651 
Q 3003 894 3003 1313 
Q 3003 1734 2745 1975 
Q 2488 2216 2034 2216 
z
M 1403 2484 
Q 997 2584 770 2862 
Q 544 3141 544 3541 
Q 544 4100 942 4425 
Q 1341 4750 2034 4750 
Q 2731 4750 3128 4425 
Q 3525 4100 3525 3541 
Q 3525 3141 3298 2862 
Q 3072 2584 2669 2484 
Q 3125 2378 3379 2068 
Q 3634 1759 3634 1313 
Q 3634 634 3220 271 
Q 2806 -91 2034 -91 
Q 1263 -91 848 271 
Q 434 634 434 1313 
Q 434 1759 690 2068 
Q 947 2378 1403 2484 
z
M 1172 3481 
Q 1172 3119 1398 2916 
Q 1625 2713 2034 2713 
Q 2441 2713 2670 2916 
Q 2900 3119 2900 3481 
Q 2900 3844 2670 4047 
Q 2441 4250 2034 4250 
Q 1625 4250 1398 4047 
Q 1172 3844 1172 3481 
z
" transform="scale(0.015625)"/>
     </defs>
     <use xlink:href="#DejaVuSans-43"/>
     <use xlink:href="#DejaVuSans-6f" transform="translate(69.824219 0)"/>
     <use xlink:href="#DejaVuSans-6d" transform="translate(131.005859 0)"/>
     <use xlink:href="#DejaVuSans-70" transform="translate(228.417969 0)"/>
     <use xlink:href="#DejaVuSans-61" transform="translate(291.894531 0)"/>
     <use xlink:href="#DejaVuSans-72" transform="translate(353.173828 0)"/>
     <use xlink:href="#DejaVuSans-65" transform="translate(392.037109 0)"/>
     <use xlink:href="#DejaVuSans-20" transform="translate(453.560547 0)"/>
     <use xlink:href="#DejaVuSans-2d" transform="translate(485.347656 0)"/>
     <use xlink:href="#DejaVuSans-20" transform="translate(521.431641 0)"/>
     <use xlink:href="#DejaVuSans-45" transform="translate(553.21875 0)"/>
     <use xlink:href="#DejaVuSans-70" transform="translate(616.402344 0)"/>
     <use xlink:href="#DejaVuSans-6f" transform="translate(679.878906 0)"/>
     <use xlink:href="#DejaVuSans-63" transform="translate(741.060547 0)"/>
     <use xlink:href="#DejaVuSans-68" transform="translate(796.041016 0)"/>
     <use xlink:href="#DejaVuSans-20" transform="translate(859.419922 0)"/>
     <use xlink:href="#DejaVuSans-38" transform="translate(891.207031 0)"/>
     <use xlink:href="#DejaVuSans-30" transform="translate(954.830078 0)"/>
     <use xlink:href="#DejaVuSans-30" transform="translate(1018.453125 0)"/>
    </g>
   </g>
   <g id="legend_1">
    <g id="patch_7">
     <path d="M 64.6 78.82825 
L 181.128125 78.82825 
Q 183.128125 78.82825 183.128125 76.82825 
L 183.128125 48.472 
Q 183.128125 46.472 181.128125 46.472 
L 64.6 46.472 
Q 62.6 46.472 62.6 48.472 
L 62.6 76.82825 
Q 62.6 78.82825 64.6 78.82825 
z
" style="fill: #ffffff; opacity: 0.8; stroke: #cccccc; stroke-linejoin: miter"/>
    </g>
    <g id="line2d_39">
     <path d="M 66.6 54.570437 
L 76.6 54.570437 
L 86.6 54.570437 
" style="fill: none; stroke: #1f77b4; stroke-width: 1.5; stroke-linecap: square"/>
    </g>
    <g id="text_22">
     <!-- Pred: Sample 1 -->
     <g transform="translate(94.6 58.070437) scale(0.1 -0.1)">
      <defs>
       <path id="DejaVuSans-50" d="M 1259 4147 
L 1259 2394 
L 2053 2394 
Q 2494 2394 2734 2622 
Q 2975 2850 2975 3272 
Q 2975 3691 2734 3919 
Q 2494 4147 2053 4147 
L 1259 4147 
z
M 628 4666 
L 2053 4666 
Q 2838 4666 3239 4311 
Q 3641 3956 3641 3272 
Q 3641 2581 3239 2228 
Q 2838 1875 2053 1875 
L 1259 1875 
L 1259 0 
L 628 0 
L 628 4666 
z
" transform="scale(0.015625)"/>
       <path id="DejaVuSans-3a" d="M 750 794 
L 1409 794 
L 1409 0 
L 750 0 
L 750 794 
z
M 750 3309 
L 1409 3309 
L 1409 2516 
L 750 2516 
L 750 3309 
z
" transform="scale(0.015625)"/>
       <path id="DejaVuSans-53" d="M 3425 4513 
L 3425 3897 
Q 3066 4069 2747 4153 
Q 2428 4238 2131 4238 
Q 1616 4238 1336 4038 
Q 1056 3838 1056 3469 
Q 1056 3159 1242 3001 
Q 1428 2844 1947 2747 
L 2328 2669 
Q 3034 2534 3370 2195 
Q 3706 1856 3706 1288 
Q 3706 609 3251 259 
Q 2797 -91 1919 -91 
Q 1588 -91 1214 -16 
Q 841 59 441 206 
L 441 856 
Q 825 641 1194 531 
Q 1563 422 1919 422 
Q 2459 422 2753 634 
Q 3047 847 3047 1241 
Q 3047 1584 2836 1778 
Q 2625 1972 2144 2069 
L 1759 2144 
Q 1053 2284 737 2584 
Q 422 2884 422 3419 
Q 422 4038 858 4394 
Q 1294 4750 2059 4750 
Q 2388 4750 2728 4690 
Q 3069 4631 3425 4513 
z
" transform="scale(0.015625)"/>
      </defs>
      <use xlink:href="#DejaVuSans-50"/>
      <use xlink:href="#DejaVuSans-72" transform="translate(58.552734 0)"/>
      <use xlink:href="#DejaVuSans-65" transform="translate(97.416016 0)"/>
      <use xlink:href="#DejaVuSans-64" transform="translate(158.939453 0)"/>
      <use xlink:href="#DejaVuSans-3a" transform="translate(222.416016 0)"/>
      <use xlink:href="#DejaVuSans-20" transform="translate(256.107422 0)"/>
      <use xlink:href="#DejaVuSans-53" transform="translate(287.894531 0)"/>
      <use xlink:href="#DejaVuSans-61" transform="translate(351.371094 0)"/>
      <use xlink:href="#DejaVuSans-6d" transform="translate(412.650391 0)"/>
      <use xlink:href="#DejaVuSans-70" transform="translate(510.0625 0)"/>
      <use xlink:href="#DejaVuSans-6c" transform="translate(573.539062 0)"/>
      <use xlink:href="#DejaVuSans-65" transform="translate(601.322266 0)"/>
      <use xlink:href="#DejaVuSans-20" transform="translate(662.845703 0)"/>
      <use xlink:href="#DejaVuSans-31" transform="translate(694.632812 0)"/>
     </g>
    </g>
    <g id="line2d_40">
     <path d="M 66.6 69.248562 
L 76.6 69.248562 
L 86.6 69.248562 
" style="fill: none; stroke: #ff7f0e; stroke-opacity: 0.5; stroke-width: 1.5; stroke-linecap: square"/>
    </g>
    <g id="text_23">
     <!-- Target: Sample 1 -->
     <g transform="translate(94.6 72.748562) scale(0.1 -0.1)">
      <defs>
       <path id="DejaVuSans-54" d="M -19 4666 
L 3928 4666 
L 3928 4134 
L 2272 4134 
L 2272 0 
L 1638 0 
L 1638 4134 
L -19 4134 
L -19 4666 
z
" transform="scale(0.015625)"/>
       <path id="DejaVuSans-67" d="M 2906 1791 
Q 2906 2416 2648 2759 
Q 2391 3103 1925 3103 
Q 1463 3103 1205 2759 
Q 947 2416 947 1791 
Q 947 1169 1205 825 
Q 1463 481 1925 481 
Q 2391 481 2648 825 
Q 2906 1169 2906 1791 
z
M 3481 434 
Q 3481 -459 3084 -895 
Q 2688 -1331 1869 -1331 
Q 1566 -1331 1297 -1286 
Q 1028 -1241 775 -1147 
L 775 -588 
Q 1028 -725 1275 -790 
Q 1522 -856 1778 -856 
Q 2344 -856 2625 -561 
Q 2906 -266 2906 331 
L 2906 616 
Q 2728 306 2450 153 
Q 2172 0 1784 0 
Q 1141 0 747 490 
Q 353 981 353 1791 
Q 353 2603 747 3093 
Q 1141 3584 1784 3584 
Q 2172 3584 2450 3431 
Q 2728 3278 2906 2969 
L 2906 3500 
L 3481 3500 
L 3481 434 
z
" transform="scale(0.015625)"/>
       <path id="DejaVuSans-74" d="M 1172 4494 
L 1172 3500 
L 2356 3500 
L 2356 3053 
L 1172 3053 
L 1172 1153 
Q 1172 725 1289 603 
Q 1406 481 1766 481 
L 2356 481 
L 2356 0 
L 1766 0 
Q 1100 0 847 248 
Q 594 497 594 1153 
L 594 3053 
L 172 3053 
L 172 3500 
L 594 3500 
L 594 4494 
L 1172 4494 
z
" transform="scale(0.015625)"/>
      </defs>
      <use xlink:href="#DejaVuSans-54"/>
      <use xlink:href="#DejaVuSans-61" transform="translate(44.583984 0)"/>
      <use xlink:href="#DejaVuSans-72" transform="translate(105.863281 0)"/>
      <use xlink:href="#DejaVuSans-67" transform="translate(145.226562 0)"/>
      <use xlink:href="#DejaVuSans-65" transform="translate(208.703125 0)"/>
      <use xlink:href="#DejaVuSans-74" transform="translate(270.226562 0)"/>
      <use xlink:href="#DejaVuSans-3a" transform="translate(309.435547 0)"/>
      <use xlink:href="#DejaVuSans-20" transform="translate(343.126953 0)"/>
      <use xlink:href="#DejaVuSans-53" transform="translate(374.914062 0)"/>
      <use xlink:href="#DejaVuSans-61" transform="translate(438.390625 0)"/>
      <use xlink:href="#DejaVuSans-6d" transform="translate(499.669922 0)"/>
      <use xlink:href="#DejaVuSans-70" transform="translate(597.082031 0)"/>
      <use xlink:href="#DejaVuSans-6c" transform="translate(660.558594 0)"/>
      <use xlink:href="#DejaVuSans-65" transform="translate(688.341797 0)"/>
      <use xlink:href="#DejaVuSans-20" transform="translate(749.865234 0)"/>
      <use xlink:href="#DejaVuSans-31" transform="translate(781.652344 0)"/>
     </g>
    </g>
   </g>
  </g>
 </g>
 <defs>
  <clipPath id="p23421305a1">
   <rect x="57.6" y="41.472" width="357.12" height="266.112"/>
  </clipPath>
 </defs>
</svg>
