<?xml version="1.0" encoding="utf-8" standalone="no"?>
<!DOCTYPE svg PUBLIC "-//W3C//DTD SVG 1.1//EN"
  "http://www.w3.org/Graphics/SVG/1.1/DTD/svg11.dtd">
<svg xmlns:xlink="http://www.w3.org/1999/xlink" width="460.8pt" height="345.6pt" viewBox="0 0 460.8 345.6" xmlns="http://www.w3.org/2000/svg" version="1.1">
 <metadata>
  <rdf:RDF xmlns:dc="http://purl.org/dc/elements/1.1/" xmlns:cc="http://creativecommons.org/ns#" xmlns:rdf="http://www.w3.org/1999/02/22-rdf-syntax-ns#">
   <cc:Work>
    <dc:type rdf:resource="http://purl.org/dc/dcmitype/StillImage"/>
    <dc:date>2025-06-03T22:26:59.453259</dc:date>
    <dc:format>image/svg+xml</dc:format>
    <dc:creator>
     <cc:Agent>
      <dc:title>Matplotlib v3.10.0, https://matplotlib.org/</dc:title>
     </cc:Agent>
    </dc:creator>
   </cc:Work>
  </rdf:RDF>
 </metadata>
 <defs>
  <style type="text/css">*{stroke-linejoin: round; stroke-linecap: butt}</style>
 </defs>
 <g id="figure_1">
  <g id="patch_1">
   <path d="M 0 345.6 
L 460.8 345.6 
L 460.8 0 
L 0 0 
z
" style="fill: #ffffff"/>
  </g>
  <g id="axes_1">
   <g id="patch_2">
    <path d="M 57.6 307.584 
L 414.72 307.584 
L 414.72 41.472 
L 57.6 41.472 
z
" style="fill: #ffffff"/>
   </g>
   <g id="matplotlib.axis_1">
    <g id="xtick_1">
     <g id="line2d_1">
      <path d="M 73.832727 307.584 
L 73.832727 41.472 
" clip-path="url(#p54394a0a49)" style="fill: none; stroke: #b0b0b0; stroke-opacity: 0.5; stroke-width: 0.8; stroke-linecap: square"/>
     </g>
     <g id="line2d_2">
      <defs>
       <path id="m5e5af663a7" d="M 0 0 
L 0 3.5 
" style="stroke: #000000; stroke-width: 0.8"/>
      </defs>
      <g>
       <use xlink:href="#m5e5af663a7" x="73.832727" y="307.584" style="stroke: #000000; stroke-width: 0.8"/>
      </g>
     </g>
     <g id="text_1">
      <!-- −1.00 -->
      <g transform="translate(58.510071 322.182437) scale(0.1 -0.1)">
       <defs>
        <path id="DejaVuSans-2212" d="M 678 2272 
L 4684 2272 
L 4684 1741 
L 678 1741 
L 678 2272 
z
" transform="scale(0.015625)"/>
        <path id="DejaVuSans-31" d="M 794 531 
L 1825 531 
L 1825 4091 
L 703 3866 
L 703 4441 
L 1819 4666 
L 2450 4666 
L 2450 531 
L 3481 531 
L 3481 0 
L 794 0 
L 794 531 
z
" transform="scale(0.015625)"/>
        <path id="DejaVuSans-2e" d="M 684 794 
L 1344 794 
L 1344 0 
L 684 0 
L 684 794 
z
" transform="scale(0.015625)"/>
        <path id="DejaVuSans-30" d="M 2034 4250 
Q 1547 4250 1301 3770 
Q 1056 3291 1056 2328 
Q 1056 1369 1301 889 
Q 1547 409 2034 409 
Q 2525 409 2770 889 
Q 3016 1369 3016 2328 
Q 3016 3291 2770 3770 
Q 2525 4250 2034 4250 
z
M 2034 4750 
Q 2819 4750 3233 4129 
Q 3647 3509 3647 2328 
Q 3647 1150 3233 529 
Q 2819 -91 2034 -91 
Q 1250 -91 836 529 
Q 422 1150 422 2328 
Q 422 3509 836 4129 
Q 1250 4750 2034 4750 
z
" transform="scale(0.015625)"/>
       </defs>
       <use xlink:href="#DejaVuSans-2212"/>
       <use xlink:href="#DejaVuSans-31" transform="translate(83.789062 0)"/>
       <use xlink:href="#DejaVuSans-2e" transform="translate(147.412109 0)"/>
       <use xlink:href="#DejaVuSans-30" transform="translate(179.199219 0)"/>
       <use xlink:href="#DejaVuSans-30" transform="translate(242.822266 0)"/>
      </g>
     </g>
    </g>
    <g id="xtick_2">
     <g id="line2d_3">
      <path d="M 115.339099 307.584 
L 115.339099 41.472 
" clip-path="url(#p54394a0a49)" style="fill: none; stroke: #b0b0b0; stroke-opacity: 0.5; stroke-width: 0.8; stroke-linecap: square"/>
     </g>
     <g id="line2d_4">
      <g>
       <use xlink:href="#m5e5af663a7" x="115.339099" y="307.584" style="stroke: #000000; stroke-width: 0.8"/>
      </g>
     </g>
     <g id="text_2">
      <!-- −0.75 -->
      <g transform="translate(100.016442 322.182437) scale(0.1 -0.1)">
       <defs>
        <path id="DejaVuSans-37" d="M 525 4666 
L 3525 4666 
L 3525 4397 
L 1831 0 
L 1172 0 
L 2766 4134 
L 525 4134 
L 525 4666 
z
" transform="scale(0.015625)"/>
        <path id="DejaVuSans-35" d="M 691 4666 
L 3169 4666 
L 3169 4134 
L 1269 4134 
L 1269 2991 
Q 1406 3038 1543 3061 
Q 1681 3084 1819 3084 
Q 2600 3084 3056 2656 
Q 3513 2228 3513 1497 
Q 3513 744 3044 326 
Q 2575 -91 1722 -91 
Q 1428 -91 1123 -41 
Q 819 9 494 109 
L 494 744 
Q 775 591 1075 516 
Q 1375 441 1709 441 
Q 2250 441 2565 725 
Q 2881 1009 2881 1497 
Q 2881 1984 2565 2268 
Q 2250 2553 1709 2553 
Q 1456 2553 1204 2497 
Q 953 2441 691 2322 
L 691 4666 
z
" transform="scale(0.015625)"/>
       </defs>
       <use xlink:href="#DejaVuSans-2212"/>
       <use xlink:href="#DejaVuSans-30" transform="translate(83.789062 0)"/>
       <use xlink:href="#DejaVuSans-2e" transform="translate(147.412109 0)"/>
       <use xlink:href="#DejaVuSans-37" transform="translate(179.199219 0)"/>
       <use xlink:href="#DejaVuSans-35" transform="translate(242.822266 0)"/>
      </g>
     </g>
    </g>
    <g id="xtick_3">
     <g id="line2d_5">
      <path d="M 156.84547 307.584 
L 156.84547 41.472 
" clip-path="url(#p54394a0a49)" style="fill: none; stroke: #b0b0b0; stroke-opacity: 0.5; stroke-width: 0.8; stroke-linecap: square"/>
     </g>
     <g id="line2d_6">
      <g>
       <use xlink:href="#m5e5af663a7" x="156.84547" y="307.584" style="stroke: #000000; stroke-width: 0.8"/>
      </g>
     </g>
     <g id="text_3">
      <!-- −0.50 -->
      <g transform="translate(141.522814 322.182437) scale(0.1 -0.1)">
       <use xlink:href="#DejaVuSans-2212"/>
       <use xlink:href="#DejaVuSans-30" transform="translate(83.789062 0)"/>
       <use xlink:href="#DejaVuSans-2e" transform="translate(147.412109 0)"/>
       <use xlink:href="#DejaVuSans-35" transform="translate(179.199219 0)"/>
       <use xlink:href="#DejaVuSans-30" transform="translate(242.822266 0)"/>
      </g>
     </g>
    </g>
    <g id="xtick_4">
     <g id="line2d_7">
      <path d="M 198.351841 307.584 
L 198.351841 41.472 
" clip-path="url(#p54394a0a49)" style="fill: none; stroke: #b0b0b0; stroke-opacity: 0.5; stroke-width: 0.8; stroke-linecap: square"/>
     </g>
     <g id="line2d_8">
      <g>
       <use xlink:href="#m5e5af663a7" x="198.351841" y="307.584" style="stroke: #000000; stroke-width: 0.8"/>
      </g>
     </g>
     <g id="text_4">
      <!-- −0.25 -->
      <g transform="translate(183.029185 322.182437) scale(0.1 -0.1)">
       <defs>
        <path id="DejaVuSans-32" d="M 1228 531 
L 3431 531 
L 3431 0 
L 469 0 
L 469 531 
Q 828 903 1448 1529 
Q 2069 2156 2228 2338 
Q 2531 2678 2651 2914 
Q 2772 3150 2772 3378 
Q 2772 3750 2511 3984 
Q 2250 4219 1831 4219 
Q 1534 4219 1204 4116 
Q 875 4013 500 3803 
L 500 4441 
Q 881 4594 1212 4672 
Q 1544 4750 1819 4750 
Q 2544 4750 2975 4387 
Q 3406 4025 3406 3419 
Q 3406 3131 3298 2873 
Q 3191 2616 2906 2266 
Q 2828 2175 2409 1742 
Q 1991 1309 1228 531 
z
" transform="scale(0.015625)"/>
       </defs>
       <use xlink:href="#DejaVuSans-2212"/>
       <use xlink:href="#DejaVuSans-30" transform="translate(83.789062 0)"/>
       <use xlink:href="#DejaVuSans-2e" transform="translate(147.412109 0)"/>
       <use xlink:href="#DejaVuSans-32" transform="translate(179.199219 0)"/>
       <use xlink:href="#DejaVuSans-35" transform="translate(242.822266 0)"/>
      </g>
     </g>
    </g>
    <g id="xtick_5">
     <g id="line2d_9">
      <path d="M 239.858213 307.584 
L 239.858213 41.472 
" clip-path="url(#p54394a0a49)" style="fill: none; stroke: #b0b0b0; stroke-opacity: 0.5; stroke-width: 0.8; stroke-linecap: square"/>
     </g>
     <g id="line2d_10">
      <g>
       <use xlink:href="#m5e5af663a7" x="239.858213" y="307.584" style="stroke: #000000; stroke-width: 0.8"/>
      </g>
     </g>
     <g id="text_5">
      <!-- 0.00 -->
      <g transform="translate(228.7254 322.182437) scale(0.1 -0.1)">
       <use xlink:href="#DejaVuSans-30"/>
       <use xlink:href="#DejaVuSans-2e" transform="translate(63.623047 0)"/>
       <use xlink:href="#DejaVuSans-30" transform="translate(95.410156 0)"/>
       <use xlink:href="#DejaVuSans-30" transform="translate(159.033203 0)"/>
      </g>
     </g>
    </g>
    <g id="xtick_6">
     <g id="line2d_11">
      <path d="M 281.364584 307.584 
L 281.364584 41.472 
" clip-path="url(#p54394a0a49)" style="fill: none; stroke: #b0b0b0; stroke-opacity: 0.5; stroke-width: 0.8; stroke-linecap: square"/>
     </g>
     <g id="line2d_12">
      <g>
       <use xlink:href="#m5e5af663a7" x="281.364584" y="307.584" style="stroke: #000000; stroke-width: 0.8"/>
      </g>
     </g>
     <g id="text_6">
      <!-- 0.25 -->
      <g transform="translate(270.231772 322.182437) scale(0.1 -0.1)">
       <use xlink:href="#DejaVuSans-30"/>
       <use xlink:href="#DejaVuSans-2e" transform="translate(63.623047 0)"/>
       <use xlink:href="#DejaVuSans-32" transform="translate(95.410156 0)"/>
       <use xlink:href="#DejaVuSans-35" transform="translate(159.033203 0)"/>
      </g>
     </g>
    </g>
    <g id="xtick_7">
     <g id="line2d_13">
      <path d="M 322.870956 307.584 
L 322.870956 41.472 
" clip-path="url(#p54394a0a49)" style="fill: none; stroke: #b0b0b0; stroke-opacity: 0.5; stroke-width: 0.8; stroke-linecap: square"/>
     </g>
     <g id="line2d_14">
      <g>
       <use xlink:href="#m5e5af663a7" x="322.870956" y="307.584" style="stroke: #000000; stroke-width: 0.8"/>
      </g>
     </g>
     <g id="text_7">
      <!-- 0.50 -->
      <g transform="translate(311.738143 322.182437) scale(0.1 -0.1)">
       <use xlink:href="#DejaVuSans-30"/>
       <use xlink:href="#DejaVuSans-2e" transform="translate(63.623047 0)"/>
       <use xlink:href="#DejaVuSans-35" transform="translate(95.410156 0)"/>
       <use xlink:href="#DejaVuSans-30" transform="translate(159.033203 0)"/>
      </g>
     </g>
    </g>
    <g id="xtick_8">
     <g id="line2d_15">
      <path d="M 364.377327 307.584 
L 364.377327 41.472 
" clip-path="url(#p54394a0a49)" style="fill: none; stroke: #b0b0b0; stroke-opacity: 0.5; stroke-width: 0.8; stroke-linecap: square"/>
     </g>
     <g id="line2d_16">
      <g>
       <use xlink:href="#m5e5af663a7" x="364.377327" y="307.584" style="stroke: #000000; stroke-width: 0.8"/>
      </g>
     </g>
     <g id="text_8">
      <!-- 0.75 -->
      <g transform="translate(353.244515 322.182437) scale(0.1 -0.1)">
       <use xlink:href="#DejaVuSans-30"/>
       <use xlink:href="#DejaVuSans-2e" transform="translate(63.623047 0)"/>
       <use xlink:href="#DejaVuSans-37" transform="translate(95.410156 0)"/>
       <use xlink:href="#DejaVuSans-35" transform="translate(159.033203 0)"/>
      </g>
     </g>
    </g>
    <g id="xtick_9">
     <g id="line2d_17">
      <path d="M 405.883698 307.584 
L 405.883698 41.472 
" clip-path="url(#p54394a0a49)" style="fill: none; stroke: #b0b0b0; stroke-opacity: 0.5; stroke-width: 0.8; stroke-linecap: square"/>
     </g>
     <g id="line2d_18">
      <g>
       <use xlink:href="#m5e5af663a7" x="405.883698" y="307.584" style="stroke: #000000; stroke-width: 0.8"/>
      </g>
     </g>
     <g id="text_9">
      <!-- 1.00 -->
      <g transform="translate(394.750886 322.182437) scale(0.1 -0.1)">
       <use xlink:href="#DejaVuSans-31"/>
       <use xlink:href="#DejaVuSans-2e" transform="translate(63.623047 0)"/>
       <use xlink:href="#DejaVuSans-30" transform="translate(95.410156 0)"/>
       <use xlink:href="#DejaVuSans-30" transform="translate(159.033203 0)"/>
      </g>
     </g>
    </g>
    <g id="text_10">
     <!-- Index -->
     <g transform="translate(222.393594 335.860562) scale(0.1 -0.1)">
      <defs>
       <path id="DejaVuSans-49" d="M 628 4666 
L 1259 4666 
L 1259 0 
L 628 0 
L 628 4666 
z
" transform="scale(0.015625)"/>
       <path id="DejaVuSans-6e" d="M 3513 2113 
L 3513 0 
L 2938 0 
L 2938 2094 
Q 2938 2591 2744 2837 
Q 2550 3084 2163 3084 
Q 1697 3084 1428 2787 
Q 1159 2491 1159 1978 
L 1159 0 
L 581 0 
L 581 3500 
L 1159 3500 
L 1159 2956 
Q 1366 3272 1645 3428 
Q 1925 3584 2291 3584 
Q 2894 3584 3203 3211 
Q 3513 2838 3513 2113 
z
" transform="scale(0.015625)"/>
       <path id="DejaVuSans-64" d="M 2906 2969 
L 2906 4863 
L 3481 4863 
L 3481 0 
L 2906 0 
L 2906 525 
Q 2725 213 2448 61 
Q 2172 -91 1784 -91 
Q 1150 -91 751 415 
Q 353 922 353 1747 
Q 353 2572 751 3078 
Q 1150 3584 1784 3584 
Q 2172 3584 2448 3432 
Q 2725 3281 2906 2969 
z
M 947 1747 
Q 947 1113 1208 752 
Q 1469 391 1925 391 
Q 2381 391 2643 752 
Q 2906 1113 2906 1747 
Q 2906 2381 2643 2742 
Q 2381 3103 1925 3103 
Q 1469 3103 1208 2742 
Q 947 2381 947 1747 
z
" transform="scale(0.015625)"/>
       <path id="DejaVuSans-65" d="M 3597 1894 
L 3597 1613 
L 953 1613 
Q 991 1019 1311 708 
Q 1631 397 2203 397 
Q 2534 397 2845 478 
Q 3156 559 3463 722 
L 3463 178 
Q 3153 47 2828 -22 
Q 2503 -91 2169 -91 
Q 1331 -91 842 396 
Q 353 884 353 1716 
Q 353 2575 817 3079 
Q 1281 3584 2069 3584 
Q 2775 3584 3186 3129 
Q 3597 2675 3597 1894 
z
M 3022 2063 
Q 3016 2534 2758 2815 
Q 2500 3097 2075 3097 
Q 1594 3097 1305 2825 
Q 1016 2553 972 2059 
L 3022 2063 
z
" transform="scale(0.015625)"/>
       <path id="DejaVuSans-78" d="M 3513 3500 
L 2247 1797 
L 3578 0 
L 2900 0 
L 1881 1375 
L 863 0 
L 184 0 
L 1544 1831 
L 300 3500 
L 978 3500 
L 1906 2253 
L 2834 3500 
L 3513 3500 
z
" transform="scale(0.015625)"/>
      </defs>
      <use xlink:href="#DejaVuSans-49"/>
      <use xlink:href="#DejaVuSans-6e" transform="translate(29.492188 0)"/>
      <use xlink:href="#DejaVuSans-64" transform="translate(92.871094 0)"/>
      <use xlink:href="#DejaVuSans-65" transform="translate(156.347656 0)"/>
      <use xlink:href="#DejaVuSans-78" transform="translate(216.121094 0)"/>
     </g>
    </g>
   </g>
   <g id="matplotlib.axis_2">
    <g id="ytick_1">
     <g id="line2d_19">
      <path d="M 57.6 295.488037 
L 414.72 295.488037 
" clip-path="url(#p54394a0a49)" style="fill: none; stroke: #b0b0b0; stroke-opacity: 0.5; stroke-width: 0.8; stroke-linecap: square"/>
     </g>
     <g id="line2d_20">
      <defs>
       <path id="m3061f45081" d="M 0 0 
L -3.5 0 
" style="stroke: #000000; stroke-width: 0.8"/>
      </defs>
      <g>
       <use xlink:href="#m3061f45081" x="57.6" y="295.488037" style="stroke: #000000; stroke-width: 0.8"/>
      </g>
     </g>
     <g id="text_11">
      <!-- −1.00 -->
      <g transform="translate(19.954687 299.287255) scale(0.1 -0.1)">
       <use xlink:href="#DejaVuSans-2212"/>
       <use xlink:href="#DejaVuSans-31" transform="translate(83.789062 0)"/>
       <use xlink:href="#DejaVuSans-2e" transform="translate(147.412109 0)"/>
       <use xlink:href="#DejaVuSans-30" transform="translate(179.199219 0)"/>
       <use xlink:href="#DejaVuSans-30" transform="translate(242.822266 0)"/>
      </g>
     </g>
    </g>
    <g id="ytick_2">
     <g id="line2d_21">
      <path d="M 57.6 264.813747 
L 414.72 264.813747 
" clip-path="url(#p54394a0a49)" style="fill: none; stroke: #b0b0b0; stroke-opacity: 0.5; stroke-width: 0.8; stroke-linecap: square"/>
     </g>
     <g id="line2d_22">
      <g>
       <use xlink:href="#m3061f45081" x="57.6" y="264.813747" style="stroke: #000000; stroke-width: 0.8"/>
      </g>
     </g>
     <g id="text_12">
      <!-- −0.75 -->
      <g transform="translate(19.954687 268.612966) scale(0.1 -0.1)">
       <use xlink:href="#DejaVuSans-2212"/>
       <use xlink:href="#DejaVuSans-30" transform="translate(83.789062 0)"/>
       <use xlink:href="#DejaVuSans-2e" transform="translate(147.412109 0)"/>
       <use xlink:href="#DejaVuSans-37" transform="translate(179.199219 0)"/>
       <use xlink:href="#DejaVuSans-35" transform="translate(242.822266 0)"/>
      </g>
     </g>
    </g>
    <g id="ytick_3">
     <g id="line2d_23">
      <path d="M 57.6 234.139457 
L 414.72 234.139457 
" clip-path="url(#p54394a0a49)" style="fill: none; stroke: #b0b0b0; stroke-opacity: 0.5; stroke-width: 0.8; stroke-linecap: square"/>
     </g>
     <g id="line2d_24">
      <g>
       <use xlink:href="#m3061f45081" x="57.6" y="234.139457" style="stroke: #000000; stroke-width: 0.8"/>
      </g>
     </g>
     <g id="text_13">
      <!-- −0.50 -->
      <g transform="translate(19.954687 237.938676) scale(0.1 -0.1)">
       <use xlink:href="#DejaVuSans-2212"/>
       <use xlink:href="#DejaVuSans-30" transform="translate(83.789062 0)"/>
       <use xlink:href="#DejaVuSans-2e" transform="translate(147.412109 0)"/>
       <use xlink:href="#DejaVuSans-35" transform="translate(179.199219 0)"/>
       <use xlink:href="#DejaVuSans-30" transform="translate(242.822266 0)"/>
      </g>
     </g>
    </g>
    <g id="ytick_4">
     <g id="line2d_25">
      <path d="M 57.6 203.465168 
L 414.72 203.465168 
" clip-path="url(#p54394a0a49)" style="fill: none; stroke: #b0b0b0; stroke-opacity: 0.5; stroke-width: 0.8; stroke-linecap: square"/>
     </g>
     <g id="line2d_26">
      <g>
       <use xlink:href="#m3061f45081" x="57.6" y="203.465168" style="stroke: #000000; stroke-width: 0.8"/>
      </g>
     </g>
     <g id="text_14">
      <!-- −0.25 -->
      <g transform="translate(19.954687 207.264386) scale(0.1 -0.1)">
       <use xlink:href="#DejaVuSans-2212"/>
       <use xlink:href="#DejaVuSans-30" transform="translate(83.789062 0)"/>
       <use xlink:href="#DejaVuSans-2e" transform="translate(147.412109 0)"/>
       <use xlink:href="#DejaVuSans-32" transform="translate(179.199219 0)"/>
       <use xlink:href="#DejaVuSans-35" transform="translate(242.822266 0)"/>
      </g>
     </g>
    </g>
    <g id="ytick_5">
     <g id="line2d_27">
      <path d="M 57.6 172.790878 
L 414.72 172.790878 
" clip-path="url(#p54394a0a49)" style="fill: none; stroke: #b0b0b0; stroke-opacity: 0.5; stroke-width: 0.8; stroke-linecap: square"/>
     </g>
     <g id="line2d_28">
      <g>
       <use xlink:href="#m3061f45081" x="57.6" y="172.790878" style="stroke: #000000; stroke-width: 0.8"/>
      </g>
     </g>
     <g id="text_15">
      <!-- 0.00 -->
      <g transform="translate(28.334375 176.590097) scale(0.1 -0.1)">
       <use xlink:href="#DejaVuSans-30"/>
       <use xlink:href="#DejaVuSans-2e" transform="translate(63.623047 0)"/>
       <use xlink:href="#DejaVuSans-30" transform="translate(95.410156 0)"/>
       <use xlink:href="#DejaVuSans-30" transform="translate(159.033203 0)"/>
      </g>
     </g>
    </g>
    <g id="ytick_6">
     <g id="line2d_29">
      <path d="M 57.6 142.116588 
L 414.72 142.116588 
" clip-path="url(#p54394a0a49)" style="fill: none; stroke: #b0b0b0; stroke-opacity: 0.5; stroke-width: 0.8; stroke-linecap: square"/>
     </g>
     <g id="line2d_30">
      <g>
       <use xlink:href="#m3061f45081" x="57.6" y="142.116588" style="stroke: #000000; stroke-width: 0.8"/>
      </g>
     </g>
     <g id="text_16">
      <!-- 0.25 -->
      <g transform="translate(28.334375 145.915807) scale(0.1 -0.1)">
       <use xlink:href="#DejaVuSans-30"/>
       <use xlink:href="#DejaVuSans-2e" transform="translate(63.623047 0)"/>
       <use xlink:href="#DejaVuSans-32" transform="translate(95.410156 0)"/>
       <use xlink:href="#DejaVuSans-35" transform="translate(159.033203 0)"/>
      </g>
     </g>
    </g>
    <g id="ytick_7">
     <g id="line2d_31">
      <path d="M 57.6 111.442299 
L 414.72 111.442299 
" clip-path="url(#p54394a0a49)" style="fill: none; stroke: #b0b0b0; stroke-opacity: 0.5; stroke-width: 0.8; stroke-linecap: square"/>
     </g>
     <g id="line2d_32">
      <g>
       <use xlink:href="#m3061f45081" x="57.6" y="111.442299" style="stroke: #000000; stroke-width: 0.8"/>
      </g>
     </g>
     <g id="text_17">
      <!-- 0.50 -->
      <g transform="translate(28.334375 115.241517) scale(0.1 -0.1)">
       <use xlink:href="#DejaVuSans-30"/>
       <use xlink:href="#DejaVuSans-2e" transform="translate(63.623047 0)"/>
       <use xlink:href="#DejaVuSans-35" transform="translate(95.410156 0)"/>
       <use xlink:href="#DejaVuSans-30" transform="translate(159.033203 0)"/>
      </g>
     </g>
    </g>
    <g id="ytick_8">
     <g id="line2d_33">
      <path d="M 57.6 80.768009 
L 414.72 80.768009 
" clip-path="url(#p54394a0a49)" style="fill: none; stroke: #b0b0b0; stroke-opacity: 0.5; stroke-width: 0.8; stroke-linecap: square"/>
     </g>
     <g id="line2d_34">
      <g>
       <use xlink:href="#m3061f45081" x="57.6" y="80.768009" style="stroke: #000000; stroke-width: 0.8"/>
      </g>
     </g>
     <g id="text_18">
      <!-- 0.75 -->
      <g transform="translate(28.334375 84.567228) scale(0.1 -0.1)">
       <use xlink:href="#DejaVuSans-30"/>
       <use xlink:href="#DejaVuSans-2e" transform="translate(63.623047 0)"/>
       <use xlink:href="#DejaVuSans-37" transform="translate(95.410156 0)"/>
       <use xlink:href="#DejaVuSans-35" transform="translate(159.033203 0)"/>
      </g>
     </g>
    </g>
    <g id="ytick_9">
     <g id="line2d_35">
      <path d="M 57.6 50.093719 
L 414.72 50.093719 
" clip-path="url(#p54394a0a49)" style="fill: none; stroke: #b0b0b0; stroke-opacity: 0.5; stroke-width: 0.8; stroke-linecap: square"/>
     </g>
     <g id="line2d_36">
      <g>
       <use xlink:href="#m3061f45081" x="57.6" y="50.093719" style="stroke: #000000; stroke-width: 0.8"/>
      </g>
     </g>
     <g id="text_19">
      <!-- 1.00 -->
      <g transform="translate(28.334375 53.892938) scale(0.1 -0.1)">
       <use xlink:href="#DejaVuSans-31"/>
       <use xlink:href="#DejaVuSans-2e" transform="translate(63.623047 0)"/>
       <use xlink:href="#DejaVuSans-30" transform="translate(95.410156 0)"/>
       <use xlink:href="#DejaVuSans-30" transform="translate(159.033203 0)"/>
      </g>
     </g>
    </g>
    <g id="text_20">
     <!-- Value -->
     <g transform="translate(13.875 188.25925) rotate(-90) scale(0.1 -0.1)">
      <defs>
       <path id="DejaVuSans-56" d="M 1831 0 
L 50 4666 
L 709 4666 
L 2188 738 
L 3669 4666 
L 4325 4666 
L 2547 0 
L 1831 0 
z
" transform="scale(0.015625)"/>
       <path id="DejaVuSans-61" d="M 2194 1759 
Q 1497 1759 1228 1600 
Q 959 1441 959 1056 
Q 959 750 1161 570 
Q 1363 391 1709 391 
Q 2188 391 2477 730 
Q 2766 1069 2766 1631 
L 2766 1759 
L 2194 1759 
z
M 3341 1997 
L 3341 0 
L 2766 0 
L 2766 531 
Q 2569 213 2275 61 
Q 1981 -91 1556 -91 
Q 1019 -91 701 211 
Q 384 513 384 1019 
Q 384 1609 779 1909 
Q 1175 2209 1959 2209 
L 2766 2209 
L 2766 2266 
Q 2766 2663 2505 2880 
Q 2244 3097 1772 3097 
Q 1472 3097 1187 3025 
Q 903 2953 641 2809 
L 641 3341 
Q 956 3463 1253 3523 
Q 1550 3584 1831 3584 
Q 2591 3584 2966 3190 
Q 3341 2797 3341 1997 
z
" transform="scale(0.015625)"/>
       <path id="DejaVuSans-6c" d="M 603 4863 
L 1178 4863 
L 1178 0 
L 603 0 
L 603 4863 
z
" transform="scale(0.015625)"/>
       <path id="DejaVuSans-75" d="M 544 1381 
L 544 3500 
L 1119 3500 
L 1119 1403 
Q 1119 906 1312 657 
Q 1506 409 1894 409 
Q 2359 409 2629 706 
Q 2900 1003 2900 1516 
L 2900 3500 
L 3475 3500 
L 3475 0 
L 2900 0 
L 2900 538 
Q 2691 219 2414 64 
Q 2138 -91 1772 -91 
Q 1169 -91 856 284 
Q 544 659 544 1381 
z
M 1991 3584 
L 1991 3584 
z
" transform="scale(0.015625)"/>
      </defs>
      <use xlink:href="#DejaVuSans-56"/>
      <use xlink:href="#DejaVuSans-61" transform="translate(60.658203 0)"/>
      <use xlink:href="#DejaVuSans-6c" transform="translate(121.9375 0)"/>
      <use xlink:href="#DejaVuSans-75" transform="translate(149.720703 0)"/>
      <use xlink:href="#DejaVuSans-65" transform="translate(213.099609 0)"/>
     </g>
    </g>
   </g>
   <g id="line2d_37">
    <path d="M 240.674376 173.711762 
L 258.064869 173.415636 
L 247.529898 173.119649 
L 247.932445 172.823811 
L 247.238988 172.528086 
L 249.051072 171.048484 
L 259.1033 163.32407 
L 269.036972 155.81803 
L 278.262693 148.92264 
L 292.757015 138.007467 
L 302.793852 129.009831 
L 309.163871 122.887506 
L 318.896108 114.374951 
L 330.590799 105.342514 
L 368.540409 77.054597 
L 370.140654 75.908841 
L 371.707272 74.767963 
L 373.234901 73.335701 
L 374.989838 71.916946 
L 376.09032 70.774898 
L 378.487521 68.798012 
L 379.269197 67.944255 
L 381.477257 66.263149 
L 382.088021 65.129797 
L 382.759378 64.569779 
L 383.847491 63.740273 
L 384.145852 63.180899 
L 384.292212 62.614029 
L 384.751817 62.050391 
L 386.60789 60.675377 
L 386.628355 60.112113 
L 386.621932 59.827076 
L 386.729956 59.542888 
L 387.017699 59.262049 
L 388.086059 58.714771 
L 389.078973 58.176343 
L 389.221355 57.902532 
L 389.116558 57.6223 
L 388.641456 57.045901 
L 388.598973 56.757178 
L 388.875276 56.474621 
L 389.522566 56.201549 
L 391.907575 55.41816 
L 391.696475 55.146302 
L 389.832684 54.555357 
L 388.877117 54.249331 
L 388.537252 53.96289 
L 390.039132 53.728622 
L 398.487273 53.568 
L 386.537926 54.021323 
L 380.495397 54.505553 
L 377.197413 55.142609 
L 375.596575 55.901125 
L 374.889494 56.743751 
L 374.14271 58.552013 
L 373.122761 59.484206 
L 371.201879 60.440144 
L 362.154067 63.695962 
L 359.21953 64.991048 
L 356.796719 66.401005 
L 355.122453 67.902503 
L 354.316136 69.453322 
L 354.305468 70.998978 
L 355.162146 72.482653 
L 356.824121 73.856197 
L 358.682282 75.09021 
L 359.684538 76.17999 
L 358.77659 77.147396 
L 355.655129 78.036864 
L 346.343789 79.819201 
L 342.118412 80.825828 
L 338.526531 81.960131 
L 335.6199 83.230031 
L 333.548205 84.616973 
L 332.388922 86.080295 
L 332.252893 87.565601 
L 332.911623 89.016096 
L 335.373166 91.64054 
L 335.750021 92.780058 
L 334.52588 93.821774 
L 331.564475 94.804436 
L 323.388847 96.791202 
L 319.665345 97.884338 
L 316.516137 99.077741 
L 314.038404 100.369822 
L 312.326647 101.737676 
L 311.448545 103.142938 
L 311.360487 104.540835 
L 312.174651 107.162624 
L 312.087434 108.347872 
L 310.933816 109.45573 
L 308.609558 110.51249 
L 298.93637 113.735654 
L 296.23828 114.921216 
L 294.090362 116.175118 
L 292.527257 117.481672 
L 291.515031 118.814433 
L 291.056451 120.14304 
L 290.512607 122.688898 
L 289.773191 123.883017 
L 288.396485 125.03017 
L 286.397401 126.147558 
L 279.219685 129.535717 
L 277.172492 130.728648 
L 275.466832 131.958704 
L 274.100476 133.216533 
L 273.017159 134.487775 
L 270.227002 138.239026 
L 269.036319 139.441079 
L 267.575285 140.619541 
L 263.976644 142.939101 
L 260.178661 145.274641 
L 256.781595 147.676297 
L 253.987906 150.136855 
L 247.916664 156.22809 
L 244.79484 158.585238 
L 239.797818 162.136028 
L 236.89091 164.555925 
L 234.451339 167.000377 
L 232.026541 169.428977 
L 229.187037 171.820642 
L 224.238216 175.378934 
L 220.970503 177.773494 
L 218.021264 180.188974 
L 213.811065 183.802036 
L 210.680794 186.187855 
L 204.134737 190.959082 
L 199.674145 194.551833 
L 195.135563 198.125173 
L 187.320908 204.077914 
L 178.637482 211.20235 
L 174.673836 214.759878 
L 171.011179 218.317417 
L 167.32689 221.860213 
L 161.055751 227.788515 
L 157.363718 231.33395 
L 154.616559 233.682433 
L 149.949371 237.224377 
L 147.124935 239.608739 
L 143.126461 243.174195 
L 140.155933 245.524279 
L 132.212561 251.427701 
L 124.898073 257.366907 
L 114.993811 264.452937 
L 109.131268 269.17792 
L 102.539655 273.889051 
L 101.19611 275.081649 
L 99.077786 277.467276 
L 96.975671 279.817828 
L 95.698805 280.975322 
L 91.362386 284.451175 
L 90.123747 285.640446 
L 89.160452 286.850018 
L 88.584085 288.069843 
L 88.506432 289.27894 
L 89.013339 290.447045 
L 90.23471 291.538405 
L 92.070734 292.517468 
L 94.261783 293.355092 
L 96.533206 294.033563 
L 98.833051 294.550111 
L 101.420173 294.916947 
L 106.281786 295.394148 
L 105.329327 295.477242 
L 105.719878 295.488 
L 108.02945 295.384772 
L 105.316878 295.220098 
L 97.720852 294.947202 
L 92.72127 294.553182 
L 93.049992 294.041425 
L 94.57381 293.434178 
L 94.434743 292.771343 
L 91.674869 292.10537 
L 86.507126 291.49323 
L 80.933721 290.986446 
L 79.56892 290.621197 
L 85.817976 290.410698 
L 100.676081 290.3728 
L 111.887185 290.49211 
L 118.196755 290.445422 
L 114.171601 290.256943 
L 103.120445 289.90417 
L 101.331051 289.396172 
L 102.157278 288.77266 
L 100.685482 288.096332 
L 95.564458 287.440481 
L 84.116457 286.44777 
L 88.208645 286.182516 
L 105.534073 286.055206 
L 118.918511 286.083136 
L 122.821737 285.984457 
L 115.309728 285.74545 
L 106.987522 285.352769 
L 106.311632 284.825413 
L 106.245092 284.210209 
L 103.448514 283.571032 
L 92.037207 282.478663 
L 90.957407 282.11552 
L 96.878039 281.890767 
L 124.732396 281.623612 
L 122.755613 281.445232 
L 114.42073 281.145489 
L 110.117889 280.724614 
L 109.647863 280.207241 
L 108.775946 279.636414 
L 105.802172 279.064396 
L 98.214162 278.107133 
L 99.001578 277.780571 
L 104.525642 277.559621 
L 126.129637 277.078537 
L 116.610582 276.522241 
L 114.197509 276.10057 
L 113.74586 275.607162 
L 112.66891 275.078614 
L 110.083886 274.557818 
L 106.852393 274.085048 
L 105.03343 273.689866 
L 106.686132 273.385222 
L 111.853845 273.165245 
L 127.98189 272.729451 
L 127.836114 272.534975 
L 120.263274 271.916312 
L 118.811745 271.492308 
L 118.116816 271.018624 
L 116.714152 270.528558 
L 112.410826 269.636743 
L 112.226802 269.284526 
L 114.864789 269.005311 
L 130.782189 268.24874 
L 129.49034 268.010158 
L 126.610161 267.710473 
L 124.458498 267.348529 
L 119.128938 265.250557 
L 119.975976 264.927337 
L 122.684877 264.657966 
L 133.029546 264.023389 
L 133.706405 263.79661 
L 129.358072 262.85464 
L 125.790722 261.254515 
L 125.815472 260.908543 
L 127.180531 260.606313 
L 132.938791 260.110514 
L 137.181446 259.657366 
L 137.19528 259.402548 
L 133.883937 258.42649 
L 132.369629 257.66415 
L 131.81727 257.292772 
L 131.775004 256.945923 
L 132.604953 256.630412 
L 136.584328 256.08622 
L 140.281175 255.592359 
L 140.845043 255.332575 
L 140.573223 255.051122 
L 139.157952 254.413942 
L 138.234566 253.712148 
L 138.042705 253.360948 
L 138.175884 253.022144 
L 138.775891 252.701755 
L 139.891119 252.401594 
L 145.136079 251.311873 
L 145.4763 251.030273 
L 145.41734 250.73344 
L 144.718987 249.75826 
L 144.652437 249.420582 
L 144.777709 249.087248 
L 145.176533 248.763451 
L 145.8831 248.452072 
L 150.513565 247.006791 
L 150.785435 246.707837 
L 150.854043 246.397914 
L 150.749265 245.419647 
L 150.896566 245.090219 
L 151.218895 244.765763 
L 152.43317 244.139107 
L 154.707522 243.238113 
L 155.610117 242.631466 
L 156.041607 242.003807 
L 156.423697 241.360571 
L 157.056634 240.716612 
L 158.016847 240.0833 
L 161.143557 238.231465 
L 162.570371 236.973289 
L 163.693099 236.0189 
L 165.189106 235.079504 
L 167.241325 233.843611 
L 168.352188 232.901919 
L 169.897813 231.634418 
L 173.962876 228.825577 
L 177.124974 226.319795 
L 180.177213 224.1629 
L 182.006087 222.612004 
L 185.431391 220.174332 
L 186.842872 218.947138 
L 196.78363 211.389026 
L 198.326637 210.179545 
L 200.815883 208.377627 
L 203.000132 206.555762 
L 205.378384 204.736841 
L 207.926204 202.596128 
L 227.44841 186.946921 
L 233.702056 181.79399 
L 244.253294 173.748753 
L 244.253294 173.748753 
" clip-path="url(#p54394a0a49)" style="fill: none; stroke: #1f77b4; stroke-width: 1.5; stroke-linecap: square"/>
   </g>
   <g id="line2d_38">
    <path d="M 240.54557 173.711762 
L 264.737045 154.915565 
L 280.860589 142.401022 
L 290.498679 135.099348 
L 312.679104 117.899419 
L 322.318849 110.278406 
L 336.715177 99.313486 
L 341.250672 95.896344 
L 349.059726 89.930766 
L 357.445474 83.363711 
L 359.579671 81.643092 
L 361.388046 80.210178 
L 362.798537 79.060561 
L 365.014157 77.342347 
L 366.397177 76.194097 
L 368.668759 74.481179 
L 370.023556 73.335701 
L 372.337868 71.631543 
L 373.662067 70.491236 
L 376.075754 68.798012 
L 377.327653 67.661844 
L 379.831214 65.980716 
L 380.986193 64.848607 
L 383.613136 63.180899 
L 384.57945 62.050391 
L 385.562825 61.498455 
L 387.131096 60.675377 
L 387.586396 60.112113 
L 387.813397 59.542888 
L 388.070186 59.262049 
L 389.126473 58.714771 
L 391.058844 57.902532 
L 391.339531 57.6223 
L 391.364369 57.33583 
L 391.09344 56.757178 
L 391.171221 56.474621 
L 391.618496 56.201549 
L 393.661057 55.679231 
L 395.77188 55.146302 
L 395.929165 54.858209 
L 395.043869 54.555357 
L 392.993639 54.249331 
L 389.905577 53.96289 
L 382.298824 53.584587 
L 378.952133 53.568 
L 376.642758 53.708328 
L 375.676039 54.021323 
L 376.048629 54.505553 
L 380.836082 56.743751 
L 381.508845 57.635545 
L 380.849066 58.552013 
L 378.747298 59.484206 
L 375.453203 60.440144 
L 367.696646 62.518093 
L 364.715361 63.695962 
L 363.152829 64.991048 
L 363.26971 66.401005 
L 364.943936 67.902503 
L 367.686503 69.453322 
L 370.739949 70.998978 
L 373.237474 72.482653 
L 374.386921 73.856197 
L 373.640345 75.09021 
L 370.812268 76.17999 
L 366.12224 77.147396 
L 347.792617 79.819201 
L 343.126447 80.825828 
L 340.292482 81.960131 
L 339.472578 83.230031 
L 340.445967 84.616973 
L 342.638916 86.080295 
L 345.245197 87.565601 
L 347.394347 89.016096 
L 348.332121 90.384141 
L 347.575155 91.64054 
L 345.008161 92.780058 
L 340.901079 93.821774 
L 325.987696 96.791202 
L 322.600031 97.884338 
L 320.775169 99.077741 
L 320.480415 100.369822 
L 321.342056 101.737676 
L 322.742977 103.142938 
L 323.974486 104.540835 
L 324.404393 105.890238 
L 323.620886 107.162624 
L 321.518707 108.347872 
L 318.307555 109.45573 
L 307.059797 112.6188 
L 304.493521 113.735654 
L 302.967273 114.921216 
L 302.374177 116.175118 
L 302.390689 117.481672 
L 302.573322 118.814433 
L 302.477654 120.14304 
L 301.767698 121.440471 
L 300.288693 122.688898 
L 298.087911 123.883017 
L 292.492503 126.147558 
L 289.745181 127.257329 
L 287.401547 128.381273 
L 285.597799 129.535717 
L 284.328448 130.728648 
L 283.465041 131.958704 
L 282.113748 134.487775 
L 281.208939 135.756789 
L 279.96744 137.010066 
L 278.356347 138.239026 
L 276.424168 139.441079 
L 267.921062 144.100524 
L 266.184326 145.274641 
L 264.711402 146.466281 
L 263.470799 147.676297 
L 259.022324 152.606556 
L 257.541623 153.827957 
L 255.810179 155.03517 
L 251.79668 157.409683 
L 247.782108 159.761129 
L 246.063156 160.943325 
L 244.614383 162.136028 
L 243.411474 163.340725 
L 240.205802 167.000377 
L 238.84431 168.218825 
L 237.211059 169.428977 
L 233.305369 171.820642 
L 229.335852 174.191147 
L 227.627505 175.378934 
L 226.170193 176.572763 
L 223.802579 178.979849 
L 221.434452 181.397439 
L 220.007506 182.60232 
L 216.60752 184.996693 
L 211.237008 188.569007 
L 208.215384 190.959082 
L 202.678275 195.745541 
L 196.438808 200.502295 
L 181.118248 212.386932 
L 177.038499 215.947068 
L 173.789683 218.317417 
L 166.752453 223.041797 
L 164.040782 225.412333 
L 160.401662 228.974242 
L 158.916418 230.156177 
L 155.361314 232.50859 
L 151.575542 234.858254 
L 149.871718 236.038536 
L 148.37916 237.224377 
L 145.90112 239.608739 
L 143.440586 241.990855 
L 141.97833 243.174195 
L 138.542536 245.524279 
L 134.963757 247.870312 
L 131.908787 250.236076 
L 126.571538 255.004975 
L 123.29677 257.366907 
L 119.932306 259.716735 
L 117.079449 262.077 
L 113.298823 265.641088 
L 111.787058 266.825312 
L 108.186785 269.17792 
L 104.50683 271.523397 
L 102.991729 272.702589 
L 101.793288 273.889051 
L 99.117488 277.467276 
L 97.87026 278.648816 
L 96.159112 279.817828 
L 93.978345 280.975322 
L 88.97719 283.282353 
L 86.838144 284.451175 
L 85.439389 285.640446 
L 85.046987 286.850018 
L 85.743876 288.069843 
L 87.393719 289.27894 
L 89.656572 290.447045 
L 94.068704 292.517468 
L 95.255291 293.355092 
L 95.337575 294.033563 
L 94.269383 294.550111 
L 92.246079 294.916947 
L 87.045878 295.307003 
L 83.720572 295.477242 
L 84.905704 295.488 
L 89.657878 295.384772 
L 92.167783 295.220098 
L 93.949528 294.947202 
L 94.485539 294.553182 
L 93.473308 294.041425 
L 90.906433 293.434178 
L 82.680425 292.10537 
L 75.248315 290.986446 
L 73.832727 290.621197 
L 74.643864 290.410698 
L 77.726226 290.341134 
L 99.74847 290.445422 
L 102.747162 290.256943 
L 103.223907 289.90417 
L 101.152361 289.396172 
L 97.034879 288.77266 
L 82.694922 286.874188 
L 80.869546 286.44777 
L 81.602723 286.182516 
L 84.784172 286.066081 
L 105.157247 285.984457 
L 107.133476 285.74545 
L 106.751752 285.352769 
L 104.271496 284.825413 
L 89.886236 282.478663 
L 89.416033 282.11552 
L 90.946036 281.890767 
L 98.381986 281.738753 
L 106.634288 281.623612 
L 109.18531 281.445232 
L 110.1054 281.145489 
L 109.374084 280.724614 
L 107.299569 280.207241 
L 99.117122 278.541683 
L 97.86738 278.107133 
L 98.034077 277.780571 
L 99.622693 277.559621 
L 105.735266 277.32509 
L 111.97604 277.078537 
L 113.750333 276.849483 
L 114.213362 276.522241 
L 113.384274 276.10057 
L 109.192603 275.078614 
L 105.246567 274.085048 
L 104.633487 273.689866 
L 105.252673 273.385222 
L 107.025601 273.165245 
L 117.381541 272.534975 
L 118.425815 272.266788 
L 118.362897 271.916312 
L 117.335921 271.492308 
L 112.358001 270.057785 
L 111.535772 269.636743 
L 111.62436 269.284526 
L 112.644933 269.005311 
L 116.645287 268.609989 
L 120.846072 268.24874 
L 122.150638 268.010158 
L 122.674021 267.710473 
L 122.428465 267.348529 
L 121.579793 266.935919 
L 118.406577 265.628195 
L 118.13732 265.250557 
L 118.554818 264.927337 
L 119.635963 264.657966 
L 127.20059 263.530069 
L 127.469065 263.215443 
L 127.148676 262.85464 
L 124.344685 261.254515 
L 124.489442 260.908543 
L 125.212248 260.606313 
L 127.922515 260.110514 
L 130.782269 259.657366 
L 131.697925 259.402548 
L 132.11572 259.112882 
L 132.061678 258.785699 
L 130.47987 257.292772 
L 130.664488 256.945923 
L 131.247128 256.630412 
L 133.257775 256.08622 
L 135.367024 255.592359 
L 136.104625 255.332575 
L 136.544497 255.051122 
L 136.707086 254.744292 
L 136.547218 254.066654 
L 136.457532 253.712148 
L 136.502984 253.360948 
L 136.74759 253.022144 
L 137.209006 252.701755 
L 138.634153 252.119219 
L 140.876581 251.311873 
L 141.698019 250.73344 
L 141.981724 250.093715 
L 142.212556 249.420582 
L 142.476925 249.087248 
L 143.451472 248.452072 
L 146.582937 247.006791 
L 147.124668 246.397914 
L 147.704904 245.419647 
L 148.54647 244.765763 
L 151.696035 242.937075 
L 153.082766 241.360571 
L 154.545517 240.398263 
L 155.935701 239.462472 
L 157.236462 238.231465 
L 158.331348 237.290906 
L 163.144174 233.531801 
L 164.807525 232.267317 
L 166.940381 230.695209 
L 169.116027 228.825577 
L 171.312361 227.256299 
L 173.866104 225.087625 
L 175.9871 223.541666 
L 178.251864 221.695996 
L 183.139899 218.034747 
L 185.575569 216.220279 
L 187.565999 214.702681 
L 189.046741 213.496173 
L 192.350063 211.085841 
L 193.854723 209.879246 
L 197.158763 207.466808 
L 200.755427 204.736841 
L 207.823188 199.218456 
L 210.103038 197.37153 
L 212.423901 195.5255 
L 214.735326 193.680559 
L 220.532529 189.083868 
L 230.367558 181.493584 
L 235.831517 177.308763 
L 240.498199 173.748753 
L 240.498199 173.748753 
" clip-path="url(#p54394a0a49)" style="fill: none; stroke: #ff7f0e; stroke-opacity: 0.5; stroke-width: 1.5; stroke-linecap: square"/>
   </g>
   <g id="patch_3">
    <path d="M 57.6 307.584 
L 57.6 41.472 
" style="fill: none; stroke: #000000; stroke-width: 0.8; stroke-linejoin: miter; stroke-linecap: square"/>
   </g>
   <g id="patch_4">
    <path d="M 414.72 307.584 
L 414.72 41.472 
" style="fill: none; stroke: #000000; stroke-width: 0.8; stroke-linejoin: miter; stroke-linecap: square"/>
   </g>
   <g id="patch_5">
    <path d="M 57.6 307.584 
L 414.72 307.584 
" style="fill: none; stroke: #000000; stroke-width: 0.8; stroke-linejoin: miter; stroke-linecap: square"/>
   </g>
   <g id="patch_6">
    <path d="M 57.6 41.472 
L 414.72 41.472 
" style="fill: none; stroke: #000000; stroke-width: 0.8; stroke-linejoin: miter; stroke-linecap: square"/>
   </g>
   <g id="text_21">
    <!-- Compare - Epoch 1100 -->
    <g transform="translate(167.416875 35.472) scale(0.12 -0.12)">
     <defs>
      <path id="DejaVuSans-43" d="M 4122 4306 
L 4122 3641 
Q 3803 3938 3442 4084 
Q 3081 4231 2675 4231 
Q 1875 4231 1450 3742 
Q 1025 3253 1025 2328 
Q 1025 1406 1450 917 
Q 1875 428 2675 428 
Q 3081 428 3442 575 
Q 3803 722 4122 1019 
L 4122 359 
Q 3791 134 3420 21 
Q 3050 -91 2638 -91 
Q 1578 -91 968 557 
Q 359 1206 359 2328 
Q 359 3453 968 4101 
Q 1578 4750 2638 4750 
Q 3056 4750 3426 4639 
Q 3797 4528 4122 4306 
z
" transform="scale(0.015625)"/>
      <path id="DejaVuSans-6f" d="M 1959 3097 
Q 1497 3097 1228 2736 
Q 959 2375 959 1747 
Q 959 1119 1226 758 
Q 1494 397 1959 397 
Q 2419 397 2687 759 
Q 2956 1122 2956 1747 
Q 2956 2369 2687 2733 
Q 2419 3097 1959 3097 
z
M 1959 3584 
Q 2709 3584 3137 3096 
Q 3566 2609 3566 1747 
Q 3566 888 3137 398 
Q 2709 -91 1959 -91 
Q 1206 -91 779 398 
Q 353 888 353 1747 
Q 353 2609 779 3096 
Q 1206 3584 1959 3584 
z
" transform="scale(0.015625)"/>
      <path id="DejaVuSans-6d" d="M 3328 2828 
Q 3544 3216 3844 3400 
Q 4144 3584 4550 3584 
Q 5097 3584 5394 3201 
Q 5691 2819 5691 2113 
L 5691 0 
L 5113 0 
L 5113 2094 
Q 5113 2597 4934 2840 
Q 4756 3084 4391 3084 
Q 3944 3084 3684 2787 
Q 3425 2491 3425 1978 
L 3425 0 
L 2847 0 
L 2847 2094 
Q 2847 2600 2669 2842 
Q 2491 3084 2119 3084 
Q 1678 3084 1418 2786 
Q 1159 2488 1159 1978 
L 1159 0 
L 581 0 
L 581 3500 
L 1159 3500 
L 1159 2956 
Q 1356 3278 1631 3431 
Q 1906 3584 2284 3584 
Q 2666 3584 2933 3390 
Q 3200 3197 3328 2828 
z
" transform="scale(0.015625)"/>
      <path id="DejaVuSans-70" d="M 1159 525 
L 1159 -1331 
L 581 -1331 
L 581 3500 
L 1159 3500 
L 1159 2969 
Q 1341 3281 1617 3432 
Q 1894 3584 2278 3584 
Q 2916 3584 3314 3078 
Q 3713 2572 3713 1747 
Q 3713 922 3314 415 
Q 2916 -91 2278 -91 
Q 1894 -91 1617 61 
Q 1341 213 1159 525 
z
M 3116 1747 
Q 3116 2381 2855 2742 
Q 2594 3103 2138 3103 
Q 1681 3103 1420 2742 
Q 1159 2381 1159 1747 
Q 1159 1113 1420 752 
Q 1681 391 2138 391 
Q 2594 391 2855 752 
Q 3116 1113 3116 1747 
z
" transform="scale(0.015625)"/>
      <path id="DejaVuSans-72" d="M 2631 2963 
Q 2534 3019 2420 3045 
Q 2306 3072 2169 3072 
Q 1681 3072 1420 2755 
Q 1159 2438 1159 1844 
L 1159 0 
L 581 0 
L 581 3500 
L 1159 3500 
L 1159 2956 
Q 1341 3275 1631 3429 
Q 1922 3584 2338 3584 
Q 2397 3584 2469 3576 
Q 2541 3569 2628 3553 
L 2631 2963 
z
" transform="scale(0.015625)"/>
      <path id="DejaVuSans-20" transform="scale(0.015625)"/>
      <path id="DejaVuSans-2d" d="M 313 2009 
L 1997 2009 
L 1997 1497 
L 313 1497 
L 313 2009 
z
" transform="scale(0.015625)"/>
      <path id="DejaVuSans-45" d="M 628 4666 
L 3578 4666 
L 3578 4134 
L 1259 4134 
L 1259 2753 
L 3481 2753 
L 3481 2222 
L 1259 2222 
L 1259 531 
L 3634 531 
L 3634 0 
L 628 0 
L 628 4666 
z
" transform="scale(0.015625)"/>
      <path id="DejaVuSans-63" d="M 3122 3366 
L 3122 2828 
Q 2878 2963 2633 3030 
Q 2388 3097 2138 3097 
Q 1578 3097 1268 2742 
Q 959 2388 959 1747 
Q 959 1106 1268 751 
Q 1578 397 2138 397 
Q 2388 397 2633 464 
Q 2878 531 3122 666 
L 3122 134 
Q 2881 22 2623 -34 
Q 2366 -91 2075 -91 
Q 1284 -91 818 406 
Q 353 903 353 1747 
Q 353 2603 823 3093 
Q 1294 3584 2113 3584 
Q 2378 3584 2631 3529 
Q 2884 3475 3122 3366 
z
" transform="scale(0.015625)"/>
      <path id="DejaVuSans-68" d="M 3513 2113 
L 3513 0 
L 2938 0 
L 2938 2094 
Q 2938 2591 2744 2837 
Q 2550 3084 2163 3084 
Q 1697 3084 1428 2787 
Q 1159 2491 1159 1978 
L 1159 0 
L 581 0 
L 581 4863 
L 1159 4863 
L 1159 2956 
Q 1366 3272 1645 3428 
Q 1925 3584 2291 3584 
Q 2894 3584 3203 3211 
Q 3513 2838 3513 2113 
z
" transform="scale(0.015625)"/>
     </defs>
     <use xlink:href="#DejaVuSans-43"/>
     <use xlink:href="#DejaVuSans-6f" transform="translate(69.824219 0)"/>
     <use xlink:href="#DejaVuSans-6d" transform="translate(131.005859 0)"/>
     <use xlink:href="#DejaVuSans-70" transform="translate(228.417969 0)"/>
     <use xlink:href="#DejaVuSans-61" transform="translate(291.894531 0)"/>
     <use xlink:href="#DejaVuSans-72" transform="translate(353.173828 0)"/>
     <use xlink:href="#DejaVuSans-65" transform="translate(392.037109 0)"/>
     <use xlink:href="#DejaVuSans-20" transform="translate(453.560547 0)"/>
     <use xlink:href="#DejaVuSans-2d" transform="translate(485.347656 0)"/>
     <use xlink:href="#DejaVuSans-20" transform="translate(521.431641 0)"/>
     <use xlink:href="#DejaVuSans-45" transform="translate(553.21875 0)"/>
     <use xlink:href="#DejaVuSans-70" transform="translate(616.402344 0)"/>
     <use xlink:href="#DejaVuSans-6f" transform="translate(679.878906 0)"/>
     <use xlink:href="#DejaVuSans-63" transform="translate(741.060547 0)"/>
     <use xlink:href="#DejaVuSans-68" transform="translate(796.041016 0)"/>
     <use xlink:href="#DejaVuSans-20" transform="translate(859.419922 0)"/>
     <use xlink:href="#DejaVuSans-31" transform="translate(891.207031 0)"/>
     <use xlink:href="#DejaVuSans-31" transform="translate(954.830078 0)"/>
     <use xlink:href="#DejaVuSans-30" transform="translate(1018.453125 0)"/>
     <use xlink:href="#DejaVuSans-30" transform="translate(1082.076172 0)"/>
    </g>
   </g>
   <g id="legend_1">
    <g id="patch_7">
     <path d="M 64.6 78.82825 
L 181.128125 78.82825 
Q 183.128125 78.82825 183.128125 76.82825 
L 183.128125 48.472 
Q 183.128125 46.472 181.128125 46.472 
L 64.6 46.472 
Q 62.6 46.472 62.6 48.472 
L 62.6 76.82825 
Q 62.6 78.82825 64.6 78.82825 
z
" style="fill: #ffffff; opacity: 0.8; stroke: #cccccc; stroke-linejoin: miter"/>
    </g>
    <g id="line2d_39">
     <path d="M 66.6 54.570437 
L 76.6 54.570437 
L 86.6 54.570437 
" style="fill: none; stroke: #1f77b4; stroke-width: 1.5; stroke-linecap: square"/>
    </g>
    <g id="text_22">
     <!-- Pred: Sample 1 -->
     <g transform="translate(94.6 58.070437) scale(0.1 -0.1)">
      <defs>
       <path id="DejaVuSans-50" d="M 1259 4147 
L 1259 2394 
L 2053 2394 
Q 2494 2394 2734 2622 
Q 2975 2850 2975 3272 
Q 2975 3691 2734 3919 
Q 2494 4147 2053 4147 
L 1259 4147 
z
M 628 4666 
L 2053 4666 
Q 2838 4666 3239 4311 
Q 3641 3956 3641 3272 
Q 3641 2581 3239 2228 
Q 2838 1875 2053 1875 
L 1259 1875 
L 1259 0 
L 628 0 
L 628 4666 
z
" transform="scale(0.015625)"/>
       <path id="DejaVuSans-3a" d="M 750 794 
L 1409 794 
L 1409 0 
L 750 0 
L 750 794 
z
M 750 3309 
L 1409 3309 
L 1409 2516 
L 750 2516 
L 750 3309 
z
" transform="scale(0.015625)"/>
       <path id="DejaVuSans-53" d="M 3425 4513 
L 3425 3897 
Q 3066 4069 2747 4153 
Q 2428 4238 2131 4238 
Q 1616 4238 1336 4038 
Q 1056 3838 1056 3469 
Q 1056 3159 1242 3001 
Q 1428 2844 1947 2747 
L 2328 2669 
Q 3034 2534 3370 2195 
Q 3706 1856 3706 1288 
Q 3706 609 3251 259 
Q 2797 -91 1919 -91 
Q 1588 -91 1214 -16 
Q 841 59 441 206 
L 441 856 
Q 825 641 1194 531 
Q 1563 422 1919 422 
Q 2459 422 2753 634 
Q 3047 847 3047 1241 
Q 3047 1584 2836 1778 
Q 2625 1972 2144 2069 
L 1759 2144 
Q 1053 2284 737 2584 
Q 422 2884 422 3419 
Q 422 4038 858 4394 
Q 1294 4750 2059 4750 
Q 2388 4750 2728 4690 
Q 3069 4631 3425 4513 
z
" transform="scale(0.015625)"/>
      </defs>
      <use xlink:href="#DejaVuSans-50"/>
      <use xlink:href="#DejaVuSans-72" transform="translate(58.552734 0)"/>
      <use xlink:href="#DejaVuSans-65" transform="translate(97.416016 0)"/>
      <use xlink:href="#DejaVuSans-64" transform="translate(158.939453 0)"/>
      <use xlink:href="#DejaVuSans-3a" transform="translate(222.416016 0)"/>
      <use xlink:href="#DejaVuSans-20" transform="translate(256.107422 0)"/>
      <use xlink:href="#DejaVuSans-53" transform="translate(287.894531 0)"/>
      <use xlink:href="#DejaVuSans-61" transform="translate(351.371094 0)"/>
      <use xlink:href="#DejaVuSans-6d" transform="translate(412.650391 0)"/>
      <use xlink:href="#DejaVuSans-70" transform="translate(510.0625 0)"/>
      <use xlink:href="#DejaVuSans-6c" transform="translate(573.539062 0)"/>
      <use xlink:href="#DejaVuSans-65" transform="translate(601.322266 0)"/>
      <use xlink:href="#DejaVuSans-20" transform="translate(662.845703 0)"/>
      <use xlink:href="#DejaVuSans-31" transform="translate(694.632812 0)"/>
     </g>
    </g>
    <g id="line2d_40">
     <path d="M 66.6 69.248562 
L 76.6 69.248562 
L 86.6 69.248562 
" style="fill: none; stroke: #ff7f0e; stroke-opacity: 0.5; stroke-width: 1.5; stroke-linecap: square"/>
    </g>
    <g id="text_23">
     <!-- Target: Sample 1 -->
     <g transform="translate(94.6 72.748562) scale(0.1 -0.1)">
      <defs>
       <path id="DejaVuSans-54" d="M -19 4666 
L 3928 4666 
L 3928 4134 
L 2272 4134 
L 2272 0 
L 1638 0 
L 1638 4134 
L -19 4134 
L -19 4666 
z
" transform="scale(0.015625)"/>
       <path id="DejaVuSans-67" d="M 2906 1791 
Q 2906 2416 2648 2759 
Q 2391 3103 1925 3103 
Q 1463 3103 1205 2759 
Q 947 2416 947 1791 
Q 947 1169 1205 825 
Q 1463 481 1925 481 
Q 2391 481 2648 825 
Q 2906 1169 2906 1791 
z
M 3481 434 
Q 3481 -459 3084 -895 
Q 2688 -1331 1869 -1331 
Q 1566 -1331 1297 -1286 
Q 1028 -1241 775 -1147 
L 775 -588 
Q 1028 -725 1275 -790 
Q 1522 -856 1778 -856 
Q 2344 -856 2625 -561 
Q 2906 -266 2906 331 
L 2906 616 
Q 2728 306 2450 153 
Q 2172 0 1784 0 
Q 1141 0 747 490 
Q 353 981 353 1791 
Q 353 2603 747 3093 
Q 1141 3584 1784 3584 
Q 2172 3584 2450 3431 
Q 2728 3278 2906 2969 
L 2906 3500 
L 3481 3500 
L 3481 434 
z
" transform="scale(0.015625)"/>
       <path id="DejaVuSans-74" d="M 1172 4494 
L 1172 3500 
L 2356 3500 
L 2356 3053 
L 1172 3053 
L 1172 1153 
Q 1172 725 1289 603 
Q 1406 481 1766 481 
L 2356 481 
L 2356 0 
L 1766 0 
Q 1100 0 847 248 
Q 594 497 594 1153 
L 594 3053 
L 172 3053 
L 172 3500 
L 594 3500 
L 594 4494 
L 1172 4494 
z
" transform="scale(0.015625)"/>
      </defs>
      <use xlink:href="#DejaVuSans-54"/>
      <use xlink:href="#DejaVuSans-61" transform="translate(44.583984 0)"/>
      <use xlink:href="#DejaVuSans-72" transform="translate(105.863281 0)"/>
      <use xlink:href="#DejaVuSans-67" transform="translate(145.226562 0)"/>
      <use xlink:href="#DejaVuSans-65" transform="translate(208.703125 0)"/>
      <use xlink:href="#DejaVuSans-74" transform="translate(270.226562 0)"/>
      <use xlink:href="#DejaVuSans-3a" transform="translate(309.435547 0)"/>
      <use xlink:href="#DejaVuSans-20" transform="translate(343.126953 0)"/>
      <use xlink:href="#DejaVuSans-53" transform="translate(374.914062 0)"/>
      <use xlink:href="#DejaVuSans-61" transform="translate(438.390625 0)"/>
      <use xlink:href="#DejaVuSans-6d" transform="translate(499.669922 0)"/>
      <use xlink:href="#DejaVuSans-70" transform="translate(597.082031 0)"/>
      <use xlink:href="#DejaVuSans-6c" transform="translate(660.558594 0)"/>
      <use xlink:href="#DejaVuSans-65" transform="translate(688.341797 0)"/>
      <use xlink:href="#DejaVuSans-20" transform="translate(749.865234 0)"/>
      <use xlink:href="#DejaVuSans-31" transform="translate(781.652344 0)"/>
     </g>
    </g>
   </g>
  </g>
 </g>
 <defs>
  <clipPath id="p54394a0a49">
   <rect x="57.6" y="41.472" width="357.12" height="266.112"/>
  </clipPath>
 </defs>
</svg>
