<?xml version="1.0" encoding="utf-8" standalone="no"?>
<!DOCTYPE svg PUBLIC "-//W3C//DTD SVG 1.1//EN"
  "http://www.w3.org/Graphics/SVG/1.1/DTD/svg11.dtd">
<svg xmlns:xlink="http://www.w3.org/1999/xlink" width="460.8pt" height="345.6pt" viewBox="0 0 460.8 345.6" xmlns="http://www.w3.org/2000/svg" version="1.1">
 <metadata>
  <rdf:RDF xmlns:dc="http://purl.org/dc/elements/1.1/" xmlns:cc="http://creativecommons.org/ns#" xmlns:rdf="http://www.w3.org/1999/02/22-rdf-syntax-ns#">
   <cc:Work>
    <dc:type rdf:resource="http://purl.org/dc/dcmitype/StillImage"/>
    <dc:date>2025-06-03T22:31:47.584651</dc:date>
    <dc:format>image/svg+xml</dc:format>
    <dc:creator>
     <cc:Agent>
      <dc:title>Matplotlib v3.10.0, https://matplotlib.org/</dc:title>
     </cc:Agent>
    </dc:creator>
   </cc:Work>
  </rdf:RDF>
 </metadata>
 <defs>
  <style type="text/css">*{stroke-linejoin: round; stroke-linecap: butt}</style>
 </defs>
 <g id="figure_1">
  <g id="patch_1">
   <path d="M 0 345.6 
L 460.8 345.6 
L 460.8 0 
L 0 0 
z
" style="fill: #ffffff"/>
  </g>
  <g id="axes_1">
   <g id="patch_2">
    <path d="M 57.6 307.584 
L 414.72 307.584 
L 414.72 41.472 
L 57.6 41.472 
z
" style="fill: #ffffff"/>
   </g>
   <g id="matplotlib.axis_1">
    <g id="xtick_1">
     <g id="line2d_1">
      <path d="M 73.832727 307.584 
L 73.832727 41.472 
" clip-path="url(#pb9b1c4406e)" style="fill: none; stroke: #b0b0b0; stroke-opacity: 0.5; stroke-width: 0.8; stroke-linecap: square"/>
     </g>
     <g id="line2d_2">
      <defs>
       <path id="mf6a779417a" d="M 0 0 
L 0 3.5 
" style="stroke: #000000; stroke-width: 0.8"/>
      </defs>
      <g>
       <use xlink:href="#mf6a779417a" x="73.832727" y="307.584" style="stroke: #000000; stroke-width: 0.8"/>
      </g>
     </g>
     <g id="text_1">
      <!-- −1.00 -->
      <g transform="translate(58.510071 322.182437) scale(0.1 -0.1)">
       <defs>
        <path id="DejaVuSans-2212" d="M 678 2272 
L 4684 2272 
L 4684 1741 
L 678 1741 
L 678 2272 
z
" transform="scale(0.015625)"/>
        <path id="DejaVuSans-31" d="M 794 531 
L 1825 531 
L 1825 4091 
L 703 3866 
L 703 4441 
L 1819 4666 
L 2450 4666 
L 2450 531 
L 3481 531 
L 3481 0 
L 794 0 
L 794 531 
z
" transform="scale(0.015625)"/>
        <path id="DejaVuSans-2e" d="M 684 794 
L 1344 794 
L 1344 0 
L 684 0 
L 684 794 
z
" transform="scale(0.015625)"/>
        <path id="DejaVuSans-30" d="M 2034 4250 
Q 1547 4250 1301 3770 
Q 1056 3291 1056 2328 
Q 1056 1369 1301 889 
Q 1547 409 2034 409 
Q 2525 409 2770 889 
Q 3016 1369 3016 2328 
Q 3016 3291 2770 3770 
Q 2525 4250 2034 4250 
z
M 2034 4750 
Q 2819 4750 3233 4129 
Q 3647 3509 3647 2328 
Q 3647 1150 3233 529 
Q 2819 -91 2034 -91 
Q 1250 -91 836 529 
Q 422 1150 422 2328 
Q 422 3509 836 4129 
Q 1250 4750 2034 4750 
z
" transform="scale(0.015625)"/>
       </defs>
       <use xlink:href="#DejaVuSans-2212"/>
       <use xlink:href="#DejaVuSans-31" transform="translate(83.789062 0)"/>
       <use xlink:href="#DejaVuSans-2e" transform="translate(147.412109 0)"/>
       <use xlink:href="#DejaVuSans-30" transform="translate(179.199219 0)"/>
       <use xlink:href="#DejaVuSans-30" transform="translate(242.822266 0)"/>
      </g>
     </g>
    </g>
    <g id="xtick_2">
     <g id="line2d_3">
      <path d="M 115.292699 307.584 
L 115.292699 41.472 
" clip-path="url(#pb9b1c4406e)" style="fill: none; stroke: #b0b0b0; stroke-opacity: 0.5; stroke-width: 0.8; stroke-linecap: square"/>
     </g>
     <g id="line2d_4">
      <g>
       <use xlink:href="#mf6a779417a" x="115.292699" y="307.584" style="stroke: #000000; stroke-width: 0.8"/>
      </g>
     </g>
     <g id="text_2">
      <!-- −0.75 -->
      <g transform="translate(99.970042 322.182437) scale(0.1 -0.1)">
       <defs>
        <path id="DejaVuSans-37" d="M 525 4666 
L 3525 4666 
L 3525 4397 
L 1831 0 
L 1172 0 
L 2766 4134 
L 525 4134 
L 525 4666 
z
" transform="scale(0.015625)"/>
        <path id="DejaVuSans-35" d="M 691 4666 
L 3169 4666 
L 3169 4134 
L 1269 4134 
L 1269 2991 
Q 1406 3038 1543 3061 
Q 1681 3084 1819 3084 
Q 2600 3084 3056 2656 
Q 3513 2228 3513 1497 
Q 3513 744 3044 326 
Q 2575 -91 1722 -91 
Q 1428 -91 1123 -41 
Q 819 9 494 109 
L 494 744 
Q 775 591 1075 516 
Q 1375 441 1709 441 
Q 2250 441 2565 725 
Q 2881 1009 2881 1497 
Q 2881 1984 2565 2268 
Q 2250 2553 1709 2553 
Q 1456 2553 1204 2497 
Q 953 2441 691 2322 
L 691 4666 
z
" transform="scale(0.015625)"/>
       </defs>
       <use xlink:href="#DejaVuSans-2212"/>
       <use xlink:href="#DejaVuSans-30" transform="translate(83.789062 0)"/>
       <use xlink:href="#DejaVuSans-2e" transform="translate(147.412109 0)"/>
       <use xlink:href="#DejaVuSans-37" transform="translate(179.199219 0)"/>
       <use xlink:href="#DejaVuSans-35" transform="translate(242.822266 0)"/>
      </g>
     </g>
    </g>
    <g id="xtick_3">
     <g id="line2d_5">
      <path d="M 156.75267 307.584 
L 156.75267 41.472 
" clip-path="url(#pb9b1c4406e)" style="fill: none; stroke: #b0b0b0; stroke-opacity: 0.5; stroke-width: 0.8; stroke-linecap: square"/>
     </g>
     <g id="line2d_6">
      <g>
       <use xlink:href="#mf6a779417a" x="156.75267" y="307.584" style="stroke: #000000; stroke-width: 0.8"/>
      </g>
     </g>
     <g id="text_3">
      <!-- −0.50 -->
      <g transform="translate(141.430014 322.182437) scale(0.1 -0.1)">
       <use xlink:href="#DejaVuSans-2212"/>
       <use xlink:href="#DejaVuSans-30" transform="translate(83.789062 0)"/>
       <use xlink:href="#DejaVuSans-2e" transform="translate(147.412109 0)"/>
       <use xlink:href="#DejaVuSans-35" transform="translate(179.199219 0)"/>
       <use xlink:href="#DejaVuSans-30" transform="translate(242.822266 0)"/>
      </g>
     </g>
    </g>
    <g id="xtick_4">
     <g id="line2d_7">
      <path d="M 198.212642 307.584 
L 198.212642 41.472 
" clip-path="url(#pb9b1c4406e)" style="fill: none; stroke: #b0b0b0; stroke-opacity: 0.5; stroke-width: 0.8; stroke-linecap: square"/>
     </g>
     <g id="line2d_8">
      <g>
       <use xlink:href="#mf6a779417a" x="198.212642" y="307.584" style="stroke: #000000; stroke-width: 0.8"/>
      </g>
     </g>
     <g id="text_4">
      <!-- −0.25 -->
      <g transform="translate(182.889985 322.182437) scale(0.1 -0.1)">
       <defs>
        <path id="DejaVuSans-32" d="M 1228 531 
L 3431 531 
L 3431 0 
L 469 0 
L 469 531 
Q 828 903 1448 1529 
Q 2069 2156 2228 2338 
Q 2531 2678 2651 2914 
Q 2772 3150 2772 3378 
Q 2772 3750 2511 3984 
Q 2250 4219 1831 4219 
Q 1534 4219 1204 4116 
Q 875 4013 500 3803 
L 500 4441 
Q 881 4594 1212 4672 
Q 1544 4750 1819 4750 
Q 2544 4750 2975 4387 
Q 3406 4025 3406 3419 
Q 3406 3131 3298 2873 
Q 3191 2616 2906 2266 
Q 2828 2175 2409 1742 
Q 1991 1309 1228 531 
z
" transform="scale(0.015625)"/>
       </defs>
       <use xlink:href="#DejaVuSans-2212"/>
       <use xlink:href="#DejaVuSans-30" transform="translate(83.789062 0)"/>
       <use xlink:href="#DejaVuSans-2e" transform="translate(147.412109 0)"/>
       <use xlink:href="#DejaVuSans-32" transform="translate(179.199219 0)"/>
       <use xlink:href="#DejaVuSans-35" transform="translate(242.822266 0)"/>
      </g>
     </g>
    </g>
    <g id="xtick_5">
     <g id="line2d_9">
      <path d="M 239.672613 307.584 
L 239.672613 41.472 
" clip-path="url(#pb9b1c4406e)" style="fill: none; stroke: #b0b0b0; stroke-opacity: 0.5; stroke-width: 0.8; stroke-linecap: square"/>
     </g>
     <g id="line2d_10">
      <g>
       <use xlink:href="#mf6a779417a" x="239.672613" y="307.584" style="stroke: #000000; stroke-width: 0.8"/>
      </g>
     </g>
     <g id="text_5">
      <!-- 0.00 -->
      <g transform="translate(228.5398 322.182437) scale(0.1 -0.1)">
       <use xlink:href="#DejaVuSans-30"/>
       <use xlink:href="#DejaVuSans-2e" transform="translate(63.623047 0)"/>
       <use xlink:href="#DejaVuSans-30" transform="translate(95.410156 0)"/>
       <use xlink:href="#DejaVuSans-30" transform="translate(159.033203 0)"/>
      </g>
     </g>
    </g>
    <g id="xtick_6">
     <g id="line2d_11">
      <path d="M 281.132584 307.584 
L 281.132584 41.472 
" clip-path="url(#pb9b1c4406e)" style="fill: none; stroke: #b0b0b0; stroke-opacity: 0.5; stroke-width: 0.8; stroke-linecap: square"/>
     </g>
     <g id="line2d_12">
      <g>
       <use xlink:href="#mf6a779417a" x="281.132584" y="307.584" style="stroke: #000000; stroke-width: 0.8"/>
      </g>
     </g>
     <g id="text_6">
      <!-- 0.25 -->
      <g transform="translate(269.999772 322.182437) scale(0.1 -0.1)">
       <use xlink:href="#DejaVuSans-30"/>
       <use xlink:href="#DejaVuSans-2e" transform="translate(63.623047 0)"/>
       <use xlink:href="#DejaVuSans-32" transform="translate(95.410156 0)"/>
       <use xlink:href="#DejaVuSans-35" transform="translate(159.033203 0)"/>
      </g>
     </g>
    </g>
    <g id="xtick_7">
     <g id="line2d_13">
      <path d="M 322.592556 307.584 
L 322.592556 41.472 
" clip-path="url(#pb9b1c4406e)" style="fill: none; stroke: #b0b0b0; stroke-opacity: 0.5; stroke-width: 0.8; stroke-linecap: square"/>
     </g>
     <g id="line2d_14">
      <g>
       <use xlink:href="#mf6a779417a" x="322.592556" y="307.584" style="stroke: #000000; stroke-width: 0.8"/>
      </g>
     </g>
     <g id="text_7">
      <!-- 0.50 -->
      <g transform="translate(311.459743 322.182437) scale(0.1 -0.1)">
       <use xlink:href="#DejaVuSans-30"/>
       <use xlink:href="#DejaVuSans-2e" transform="translate(63.623047 0)"/>
       <use xlink:href="#DejaVuSans-35" transform="translate(95.410156 0)"/>
       <use xlink:href="#DejaVuSans-30" transform="translate(159.033203 0)"/>
      </g>
     </g>
    </g>
    <g id="xtick_8">
     <g id="line2d_15">
      <path d="M 364.052527 307.584 
L 364.052527 41.472 
" clip-path="url(#pb9b1c4406e)" style="fill: none; stroke: #b0b0b0; stroke-opacity: 0.5; stroke-width: 0.8; stroke-linecap: square"/>
     </g>
     <g id="line2d_16">
      <g>
       <use xlink:href="#mf6a779417a" x="364.052527" y="307.584" style="stroke: #000000; stroke-width: 0.8"/>
      </g>
     </g>
     <g id="text_8">
      <!-- 0.75 -->
      <g transform="translate(352.919715 322.182437) scale(0.1 -0.1)">
       <use xlink:href="#DejaVuSans-30"/>
       <use xlink:href="#DejaVuSans-2e" transform="translate(63.623047 0)"/>
       <use xlink:href="#DejaVuSans-37" transform="translate(95.410156 0)"/>
       <use xlink:href="#DejaVuSans-35" transform="translate(159.033203 0)"/>
      </g>
     </g>
    </g>
    <g id="xtick_9">
     <g id="line2d_17">
      <path d="M 405.512499 307.584 
L 405.512499 41.472 
" clip-path="url(#pb9b1c4406e)" style="fill: none; stroke: #b0b0b0; stroke-opacity: 0.5; stroke-width: 0.8; stroke-linecap: square"/>
     </g>
     <g id="line2d_18">
      <g>
       <use xlink:href="#mf6a779417a" x="405.512499" y="307.584" style="stroke: #000000; stroke-width: 0.8"/>
      </g>
     </g>
     <g id="text_9">
      <!-- 1.00 -->
      <g transform="translate(394.379686 322.182437) scale(0.1 -0.1)">
       <use xlink:href="#DejaVuSans-31"/>
       <use xlink:href="#DejaVuSans-2e" transform="translate(63.623047 0)"/>
       <use xlink:href="#DejaVuSans-30" transform="translate(95.410156 0)"/>
       <use xlink:href="#DejaVuSans-30" transform="translate(159.033203 0)"/>
      </g>
     </g>
    </g>
    <g id="text_10">
     <!-- Index -->
     <g transform="translate(222.393594 335.860562) scale(0.1 -0.1)">
      <defs>
       <path id="DejaVuSans-49" d="M 628 4666 
L 1259 4666 
L 1259 0 
L 628 0 
L 628 4666 
z
" transform="scale(0.015625)"/>
       <path id="DejaVuSans-6e" d="M 3513 2113 
L 3513 0 
L 2938 0 
L 2938 2094 
Q 2938 2591 2744 2837 
Q 2550 3084 2163 3084 
Q 1697 3084 1428 2787 
Q 1159 2491 1159 1978 
L 1159 0 
L 581 0 
L 581 3500 
L 1159 3500 
L 1159 2956 
Q 1366 3272 1645 3428 
Q 1925 3584 2291 3584 
Q 2894 3584 3203 3211 
Q 3513 2838 3513 2113 
z
" transform="scale(0.015625)"/>
       <path id="DejaVuSans-64" d="M 2906 2969 
L 2906 4863 
L 3481 4863 
L 3481 0 
L 2906 0 
L 2906 525 
Q 2725 213 2448 61 
Q 2172 -91 1784 -91 
Q 1150 -91 751 415 
Q 353 922 353 1747 
Q 353 2572 751 3078 
Q 1150 3584 1784 3584 
Q 2172 3584 2448 3432 
Q 2725 3281 2906 2969 
z
M 947 1747 
Q 947 1113 1208 752 
Q 1469 391 1925 391 
Q 2381 391 2643 752 
Q 2906 1113 2906 1747 
Q 2906 2381 2643 2742 
Q 2381 3103 1925 3103 
Q 1469 3103 1208 2742 
Q 947 2381 947 1747 
z
" transform="scale(0.015625)"/>
       <path id="DejaVuSans-65" d="M 3597 1894 
L 3597 1613 
L 953 1613 
Q 991 1019 1311 708 
Q 1631 397 2203 397 
Q 2534 397 2845 478 
Q 3156 559 3463 722 
L 3463 178 
Q 3153 47 2828 -22 
Q 2503 -91 2169 -91 
Q 1331 -91 842 396 
Q 353 884 353 1716 
Q 353 2575 817 3079 
Q 1281 3584 2069 3584 
Q 2775 3584 3186 3129 
Q 3597 2675 3597 1894 
z
M 3022 2063 
Q 3016 2534 2758 2815 
Q 2500 3097 2075 3097 
Q 1594 3097 1305 2825 
Q 1016 2553 972 2059 
L 3022 2063 
z
" transform="scale(0.015625)"/>
       <path id="DejaVuSans-78" d="M 3513 3500 
L 2247 1797 
L 3578 0 
L 2900 0 
L 1881 1375 
L 863 0 
L 184 0 
L 1544 1831 
L 300 3500 
L 978 3500 
L 1906 2253 
L 2834 3500 
L 3513 3500 
z
" transform="scale(0.015625)"/>
      </defs>
      <use xlink:href="#DejaVuSans-49"/>
      <use xlink:href="#DejaVuSans-6e" transform="translate(29.492188 0)"/>
      <use xlink:href="#DejaVuSans-64" transform="translate(92.871094 0)"/>
      <use xlink:href="#DejaVuSans-65" transform="translate(156.347656 0)"/>
      <use xlink:href="#DejaVuSans-78" transform="translate(216.121094 0)"/>
     </g>
    </g>
   </g>
   <g id="matplotlib.axis_2">
    <g id="ytick_1">
     <g id="line2d_19">
      <path d="M 57.6 295.488037 
L 414.72 295.488037 
" clip-path="url(#pb9b1c4406e)" style="fill: none; stroke: #b0b0b0; stroke-opacity: 0.5; stroke-width: 0.8; stroke-linecap: square"/>
     </g>
     <g id="line2d_20">
      <defs>
       <path id="mef9ce91fa9" d="M 0 0 
L -3.5 0 
" style="stroke: #000000; stroke-width: 0.8"/>
      </defs>
      <g>
       <use xlink:href="#mef9ce91fa9" x="57.6" y="295.488037" style="stroke: #000000; stroke-width: 0.8"/>
      </g>
     </g>
     <g id="text_11">
      <!-- −1.00 -->
      <g transform="translate(19.954687 299.287255) scale(0.1 -0.1)">
       <use xlink:href="#DejaVuSans-2212"/>
       <use xlink:href="#DejaVuSans-31" transform="translate(83.789062 0)"/>
       <use xlink:href="#DejaVuSans-2e" transform="translate(147.412109 0)"/>
       <use xlink:href="#DejaVuSans-30" transform="translate(179.199219 0)"/>
       <use xlink:href="#DejaVuSans-30" transform="translate(242.822266 0)"/>
      </g>
     </g>
    </g>
    <g id="ytick_2">
     <g id="line2d_21">
      <path d="M 57.6 264.813747 
L 414.72 264.813747 
" clip-path="url(#pb9b1c4406e)" style="fill: none; stroke: #b0b0b0; stroke-opacity: 0.5; stroke-width: 0.8; stroke-linecap: square"/>
     </g>
     <g id="line2d_22">
      <g>
       <use xlink:href="#mef9ce91fa9" x="57.6" y="264.813747" style="stroke: #000000; stroke-width: 0.8"/>
      </g>
     </g>
     <g id="text_12">
      <!-- −0.75 -->
      <g transform="translate(19.954687 268.612966) scale(0.1 -0.1)">
       <use xlink:href="#DejaVuSans-2212"/>
       <use xlink:href="#DejaVuSans-30" transform="translate(83.789062 0)"/>
       <use xlink:href="#DejaVuSans-2e" transform="translate(147.412109 0)"/>
       <use xlink:href="#DejaVuSans-37" transform="translate(179.199219 0)"/>
       <use xlink:href="#DejaVuSans-35" transform="translate(242.822266 0)"/>
      </g>
     </g>
    </g>
    <g id="ytick_3">
     <g id="line2d_23">
      <path d="M 57.6 234.139457 
L 414.72 234.139457 
" clip-path="url(#pb9b1c4406e)" style="fill: none; stroke: #b0b0b0; stroke-opacity: 0.5; stroke-width: 0.8; stroke-linecap: square"/>
     </g>
     <g id="line2d_24">
      <g>
       <use xlink:href="#mef9ce91fa9" x="57.6" y="234.139457" style="stroke: #000000; stroke-width: 0.8"/>
      </g>
     </g>
     <g id="text_13">
      <!-- −0.50 -->
      <g transform="translate(19.954687 237.938676) scale(0.1 -0.1)">
       <use xlink:href="#DejaVuSans-2212"/>
       <use xlink:href="#DejaVuSans-30" transform="translate(83.789062 0)"/>
       <use xlink:href="#DejaVuSans-2e" transform="translate(147.412109 0)"/>
       <use xlink:href="#DejaVuSans-35" transform="translate(179.199219 0)"/>
       <use xlink:href="#DejaVuSans-30" transform="translate(242.822266 0)"/>
      </g>
     </g>
    </g>
    <g id="ytick_4">
     <g id="line2d_25">
      <path d="M 57.6 203.465168 
L 414.72 203.465168 
" clip-path="url(#pb9b1c4406e)" style="fill: none; stroke: #b0b0b0; stroke-opacity: 0.5; stroke-width: 0.8; stroke-linecap: square"/>
     </g>
     <g id="line2d_26">
      <g>
       <use xlink:href="#mef9ce91fa9" x="57.6" y="203.465168" style="stroke: #000000; stroke-width: 0.8"/>
      </g>
     </g>
     <g id="text_14">
      <!-- −0.25 -->
      <g transform="translate(19.954687 207.264386) scale(0.1 -0.1)">
       <use xlink:href="#DejaVuSans-2212"/>
       <use xlink:href="#DejaVuSans-30" transform="translate(83.789062 0)"/>
       <use xlink:href="#DejaVuSans-2e" transform="translate(147.412109 0)"/>
       <use xlink:href="#DejaVuSans-32" transform="translate(179.199219 0)"/>
       <use xlink:href="#DejaVuSans-35" transform="translate(242.822266 0)"/>
      </g>
     </g>
    </g>
    <g id="ytick_5">
     <g id="line2d_27">
      <path d="M 57.6 172.790878 
L 414.72 172.790878 
" clip-path="url(#pb9b1c4406e)" style="fill: none; stroke: #b0b0b0; stroke-opacity: 0.5; stroke-width: 0.8; stroke-linecap: square"/>
     </g>
     <g id="line2d_28">
      <g>
       <use xlink:href="#mef9ce91fa9" x="57.6" y="172.790878" style="stroke: #000000; stroke-width: 0.8"/>
      </g>
     </g>
     <g id="text_15">
      <!-- 0.00 -->
      <g transform="translate(28.334375 176.590097) scale(0.1 -0.1)">
       <use xlink:href="#DejaVuSans-30"/>
       <use xlink:href="#DejaVuSans-2e" transform="translate(63.623047 0)"/>
       <use xlink:href="#DejaVuSans-30" transform="translate(95.410156 0)"/>
       <use xlink:href="#DejaVuSans-30" transform="translate(159.033203 0)"/>
      </g>
     </g>
    </g>
    <g id="ytick_6">
     <g id="line2d_29">
      <path d="M 57.6 142.116588 
L 414.72 142.116588 
" clip-path="url(#pb9b1c4406e)" style="fill: none; stroke: #b0b0b0; stroke-opacity: 0.5; stroke-width: 0.8; stroke-linecap: square"/>
     </g>
     <g id="line2d_30">
      <g>
       <use xlink:href="#mef9ce91fa9" x="57.6" y="142.116588" style="stroke: #000000; stroke-width: 0.8"/>
      </g>
     </g>
     <g id="text_16">
      <!-- 0.25 -->
      <g transform="translate(28.334375 145.915807) scale(0.1 -0.1)">
       <use xlink:href="#DejaVuSans-30"/>
       <use xlink:href="#DejaVuSans-2e" transform="translate(63.623047 0)"/>
       <use xlink:href="#DejaVuSans-32" transform="translate(95.410156 0)"/>
       <use xlink:href="#DejaVuSans-35" transform="translate(159.033203 0)"/>
      </g>
     </g>
    </g>
    <g id="ytick_7">
     <g id="line2d_31">
      <path d="M 57.6 111.442299 
L 414.72 111.442299 
" clip-path="url(#pb9b1c4406e)" style="fill: none; stroke: #b0b0b0; stroke-opacity: 0.5; stroke-width: 0.8; stroke-linecap: square"/>
     </g>
     <g id="line2d_32">
      <g>
       <use xlink:href="#mef9ce91fa9" x="57.6" y="111.442299" style="stroke: #000000; stroke-width: 0.8"/>
      </g>
     </g>
     <g id="text_17">
      <!-- 0.50 -->
      <g transform="translate(28.334375 115.241517) scale(0.1 -0.1)">
       <use xlink:href="#DejaVuSans-30"/>
       <use xlink:href="#DejaVuSans-2e" transform="translate(63.623047 0)"/>
       <use xlink:href="#DejaVuSans-35" transform="translate(95.410156 0)"/>
       <use xlink:href="#DejaVuSans-30" transform="translate(159.033203 0)"/>
      </g>
     </g>
    </g>
    <g id="ytick_8">
     <g id="line2d_33">
      <path d="M 57.6 80.768009 
L 414.72 80.768009 
" clip-path="url(#pb9b1c4406e)" style="fill: none; stroke: #b0b0b0; stroke-opacity: 0.5; stroke-width: 0.8; stroke-linecap: square"/>
     </g>
     <g id="line2d_34">
      <g>
       <use xlink:href="#mef9ce91fa9" x="57.6" y="80.768009" style="stroke: #000000; stroke-width: 0.8"/>
      </g>
     </g>
     <g id="text_18">
      <!-- 0.75 -->
      <g transform="translate(28.334375 84.567228) scale(0.1 -0.1)">
       <use xlink:href="#DejaVuSans-30"/>
       <use xlink:href="#DejaVuSans-2e" transform="translate(63.623047 0)"/>
       <use xlink:href="#DejaVuSans-37" transform="translate(95.410156 0)"/>
       <use xlink:href="#DejaVuSans-35" transform="translate(159.033203 0)"/>
      </g>
     </g>
    </g>
    <g id="ytick_9">
     <g id="line2d_35">
      <path d="M 57.6 50.093719 
L 414.72 50.093719 
" clip-path="url(#pb9b1c4406e)" style="fill: none; stroke: #b0b0b0; stroke-opacity: 0.5; stroke-width: 0.8; stroke-linecap: square"/>
     </g>
     <g id="line2d_36">
      <g>
       <use xlink:href="#mef9ce91fa9" x="57.6" y="50.093719" style="stroke: #000000; stroke-width: 0.8"/>
      </g>
     </g>
     <g id="text_19">
      <!-- 1.00 -->
      <g transform="translate(28.334375 53.892938) scale(0.1 -0.1)">
       <use xlink:href="#DejaVuSans-31"/>
       <use xlink:href="#DejaVuSans-2e" transform="translate(63.623047 0)"/>
       <use xlink:href="#DejaVuSans-30" transform="translate(95.410156 0)"/>
       <use xlink:href="#DejaVuSans-30" transform="translate(159.033203 0)"/>
      </g>
     </g>
    </g>
    <g id="text_20">
     <!-- Value -->
     <g transform="translate(13.875 188.25925) rotate(-90) scale(0.1 -0.1)">
      <defs>
       <path id="DejaVuSans-56" d="M 1831 0 
L 50 4666 
L 709 4666 
L 2188 738 
L 3669 4666 
L 4325 4666 
L 2547 0 
L 1831 0 
z
" transform="scale(0.015625)"/>
       <path id="DejaVuSans-61" d="M 2194 1759 
Q 1497 1759 1228 1600 
Q 959 1441 959 1056 
Q 959 750 1161 570 
Q 1363 391 1709 391 
Q 2188 391 2477 730 
Q 2766 1069 2766 1631 
L 2766 1759 
L 2194 1759 
z
M 3341 1997 
L 3341 0 
L 2766 0 
L 2766 531 
Q 2569 213 2275 61 
Q 1981 -91 1556 -91 
Q 1019 -91 701 211 
Q 384 513 384 1019 
Q 384 1609 779 1909 
Q 1175 2209 1959 2209 
L 2766 2209 
L 2766 2266 
Q 2766 2663 2505 2880 
Q 2244 3097 1772 3097 
Q 1472 3097 1187 3025 
Q 903 2953 641 2809 
L 641 3341 
Q 956 3463 1253 3523 
Q 1550 3584 1831 3584 
Q 2591 3584 2966 3190 
Q 3341 2797 3341 1997 
z
" transform="scale(0.015625)"/>
       <path id="DejaVuSans-6c" d="M 603 4863 
L 1178 4863 
L 1178 0 
L 603 0 
L 603 4863 
z
" transform="scale(0.015625)"/>
       <path id="DejaVuSans-75" d="M 544 1381 
L 544 3500 
L 1119 3500 
L 1119 1403 
Q 1119 906 1312 657 
Q 1506 409 1894 409 
Q 2359 409 2629 706 
Q 2900 1003 2900 1516 
L 2900 3500 
L 3475 3500 
L 3475 0 
L 2900 0 
L 2900 538 
Q 2691 219 2414 64 
Q 2138 -91 1772 -91 
Q 1169 -91 856 284 
Q 544 659 544 1381 
z
M 1991 3584 
L 1991 3584 
z
" transform="scale(0.015625)"/>
      </defs>
      <use xlink:href="#DejaVuSans-56"/>
      <use xlink:href="#DejaVuSans-61" transform="translate(60.658203 0)"/>
      <use xlink:href="#DejaVuSans-6c" transform="translate(121.9375 0)"/>
      <use xlink:href="#DejaVuSans-75" transform="translate(149.720703 0)"/>
      <use xlink:href="#DejaVuSans-65" transform="translate(213.099609 0)"/>
     </g>
    </g>
   </g>
   <g id="line2d_37">
    <path d="M 238.973627 173.711762 
L 257.749195 173.415636 
L 246.614698 173.119649 
L 247.932207 172.823811 
L 247.037739 172.528086 
L 250.388547 169.863776 
L 256.15112 165.411952 
L 259.653625 162.726826 
L 270.768644 154.314556 
L 292.553914 138.007467 
L 302.649936 129.009831 
L 309.056881 122.887506 
L 318.490318 114.668394 
L 326.072312 108.821753 
L 334.5066 102.462645 
L 364.435979 80.497855 
L 365.865583 79.34717 
L 368.593192 77.342347 
L 370.114833 76.194097 
L 372.132346 74.767963 
L 373.679895 73.335701 
L 375.167067 72.201449 
L 376.935621 70.491236 
L 378.476982 69.364794 
L 380.153211 67.661844 
L 381.795644 66.543871 
L 382.146803 65.980716 
L 382.404204 65.412925 
L 382.931678 64.848607 
L 384.420718 63.740273 
L 384.70381 63.180899 
L 384.843127 62.614029 
L 385.323035 62.050391 
L 387.028366 60.95166 
L 387.206609 60.675377 
L 387.200678 60.112113 
L 387.190378 59.827076 
L 387.305813 59.542888 
L 387.611313 59.262049 
L 388.72567 58.714771 
L 389.727774 58.176343 
L 389.849238 57.902532 
L 389.714073 57.6223 
L 389.198085 57.045901 
L 389.162539 56.757178 
L 389.465598 56.474621 
L 390.152979 56.201549 
L 392.080896 55.679231 
L 392.587751 55.41816 
L 392.323658 55.146302 
L 389.362154 54.249331 
L 389.100127 53.96289 
L 390.803599 53.728622 
L 398.487273 53.568 
L 393.31049 53.708328 
L 385.139335 54.021323 
L 379.13626 54.505553 
L 375.946288 55.142609 
L 374.380235 55.901125 
L 373.615208 56.743751 
L 372.699715 58.552013 
L 371.670942 59.484206 
L 369.814393 60.440144 
L 361.211213 63.695962 
L 358.413886 64.991048 
L 356.102319 66.401005 
L 354.493583 67.902503 
L 353.658789 69.453322 
L 353.479004 70.998978 
L 354.054914 72.482653 
L 355.454279 73.856197 
L 357.182651 75.09021 
L 358.176541 76.17999 
L 357.330835 77.147396 
L 354.335554 78.036864 
L 345.483671 79.819201 
L 341.452718 80.825828 
L 337.981532 81.960131 
L 335.170208 83.230031 
L 333.183516 84.616973 
L 332.052356 86.080295 
L 331.822691 87.565601 
L 332.26484 89.016096 
L 333.243556 90.384141 
L 334.332548 91.64054 
L 334.670293 92.780058 
L 333.496786 93.821774 
L 330.669903 94.804436 
L 322.911391 96.791202 
L 319.342963 97.884338 
L 316.292693 99.077741 
L 313.887221 100.369822 
L 312.217342 101.737676 
L 311.31379 103.142938 
L 311.110637 104.540835 
L 311.61677 107.162624 
L 311.467301 108.347872 
L 310.336922 109.45573 
L 308.11114 110.51249 
L 298.875084 113.735654 
L 296.260932 114.921216 
L 294.167983 116.175118 
L 292.631817 117.481672 
L 291.604719 118.814433 
L 291.083556 120.14304 
L 290.380794 122.688898 
L 289.613252 123.883017 
L 288.260889 125.03017 
L 286.330798 126.147558 
L 279.415279 129.535717 
L 277.423155 130.728648 
L 275.753494 131.958704 
L 274.404729 133.216533 
L 273.319894 134.487775 
L 270.467622 138.239026 
L 269.274548 139.441079 
L 267.831289 140.619541 
L 264.312606 142.939101 
L 260.601887 145.274641 
L 257.265481 147.676297 
L 254.500907 150.136855 
L 248.432525 156.22809 
L 245.348716 158.585238 
L 240.424955 162.136028 
L 237.548925 164.555925 
L 235.121218 167.000377 
L 232.696539 169.428977 
L 229.866543 171.820642 
L 224.958333 175.378934 
L 221.711538 177.773494 
L 218.771756 180.188974 
L 214.566488 183.802036 
L 211.440701 186.187855 
L 204.906741 190.959082 
L 200.443889 194.551833 
L 195.898035 198.125173 
L 188.065728 204.077914 
L 179.340321 211.20235 
L 175.348586 214.759878 
L 171.656543 218.317417 
L 167.93324 221.860213 
L 161.596675 227.788515 
L 157.864728 231.33395 
L 155.082085 233.682433 
L 150.354666 237.224377 
L 147.502429 239.608739 
L 143.467818 243.174195 
L 140.457196 245.524279 
L 132.397029 251.427701 
L 125.013636 257.366907 
L 114.966381 264.452937 
L 109.04527 269.17792 
L 102.325189 273.889051 
L 100.965165 275.081649 
L 98.845769 277.467276 
L 96.737632 279.817828 
L 95.437085 280.975322 
L 90.935871 284.451175 
L 89.642688 285.640446 
L 88.658071 286.850018 
L 88.111815 288.069843 
L 88.117746 289.27894 
L 88.735627 290.447045 
L 90.064899 291.538405 
L 91.976071 292.517468 
L 94.204724 293.355092 
L 96.449133 294.033563 
L 98.615156 294.550111 
L 101.029525 294.916947 
L 106.130452 295.394148 
L 105.788457 295.446043 
L 105.49294 295.477242 
L 106.141859 295.488 
L 109.824867 295.384772 
L 107.983758 295.220098 
L 100.073999 294.947202 
L 94.111846 294.553182 
L 94.028517 294.041425 
L 95.406848 293.434178 
L 95.161852 292.771343 
L 92.249268 292.10537 
L 86.922433 291.49323 
L 81.516579 290.986446 
L 80.864181 290.621197 
L 87.125982 290.410698 
L 100.213246 290.3728 
L 112.115537 290.49211 
L 119.765208 290.445422 
L 116.954417 290.256943 
L 104.636202 289.90417 
L 102.198307 289.396172 
L 102.904371 288.77266 
L 101.307111 288.096332 
L 95.95505 287.440481 
L 88.635316 286.874188 
L 84.99592 286.44777 
L 89.608635 286.182516 
L 105.422441 286.055206 
L 119.623924 286.083136 
L 124.948653 285.984457 
L 108.137052 285.352769 
L 107.080938 284.825413 
L 106.900045 284.210209 
L 103.956858 283.571032 
L 92.50317 282.478663 
L 92.121398 282.11552 
L 98.206715 281.890767 
L 114.006386 281.738753 
L 126.380826 281.623612 
L 125.253165 281.445232 
L 116.218096 281.145489 
L 111.074052 280.724614 
L 110.356236 280.207241 
L 109.369295 279.636414 
L 106.280049 279.064396 
L 98.96498 278.107133 
L 100.265942 277.780571 
L 105.893325 277.559621 
L 128.192992 277.078537 
L 118.020792 276.522241 
L 115.073078 276.10057 
L 114.419038 275.607162 
L 113.239412 275.078614 
L 110.588193 274.557818 
L 107.421173 274.085048 
L 105.923385 273.689866 
L 107.960272 273.385222 
L 113.221926 273.165245 
L 129.706319 272.729451 
L 129.853267 272.534975 
L 121.390234 271.916312 
L 119.594655 271.492308 
L 118.750668 271.018624 
L 117.275536 270.528558 
L 113.129898 269.636743 
L 113.257334 269.284526 
L 116.155911 269.005311 
L 132.538214 268.24874 
L 131.202981 268.010158 
L 127.950972 267.710473 
L 125.418123 267.348529 
L 124.176213 266.935919 
L 123.238568 266.494048 
L 120.567598 265.628195 
L 119.981072 265.250557 
L 121.062374 264.927337 
L 123.947962 264.657966 
L 134.563882 264.023389 
L 135.275382 263.79661 
L 129.207037 262.458945 
L 126.544578 261.254515 
L 126.729998 260.908543 
L 128.270943 260.606313 
L 134.245165 260.110514 
L 138.596357 259.657366 
L 138.549108 259.402548 
L 134.679534 258.42649 
L 133.058304 257.66415 
L 132.551232 257.292772 
L 132.610699 256.945923 
L 133.572018 256.630412 
L 137.756325 256.08622 
L 141.532467 255.592359 
L 142.061583 255.332575 
L 141.688351 255.051122 
L 140.007713 254.413942 
L 138.966564 253.712148 
L 138.786996 253.360948 
L 138.971467 253.022144 
L 139.64747 252.701755 
L 142.399565 252.119219 
L 145.363609 251.582422 
L 146.20896 251.311873 
L 146.498288 251.030273 
L 146.35994 250.73344 
L 145.459294 249.75826 
L 145.378891 249.420582 
L 145.51971 249.087248 
L 145.956808 248.763451 
L 146.712947 248.452072 
L 151.417631 247.006791 
L 151.63997 246.707837 
L 151.649233 246.397914 
L 151.437608 245.750319 
L 151.431549 245.419647 
L 151.580928 245.090219 
L 151.921609 244.765763 
L 153.193579 244.139107 
L 155.499561 243.238113 
L 156.356239 242.631466 
L 156.723955 242.003807 
L 157.067462 241.360571 
L 157.698381 240.716612 
L 158.675427 240.0833 
L 161.375502 238.540497 
L 162.510508 237.606746 
L 164.261872 236.0189 
L 165.770272 235.079504 
L 167.802607 233.843611 
L 168.867465 232.901919 
L 169.953447 231.95031 
L 171.877667 230.695209 
L 173.667157 229.450514 
L 177.998491 226.010233 
L 180.206064 224.472165 
L 182.817008 222.305078 
L 185.07535 220.785473 
L 188.430616 218.034747 
L 190.453635 216.523248 
L 194.281357 213.496173 
L 196.295914 211.994342 
L 198.511766 210.179545 
L 200.969992 208.377627 
L 202.710297 206.858958 
L 205.467601 204.736841 
L 207.981451 202.596128 
L 228.048776 186.337296 
L 233.943036 181.493584 
L 241.356498 175.822509 
L 244.063933 173.748753 
L 244.063933 173.748753 
" clip-path="url(#pb9b1c4406e)" style="fill: none; stroke: #1f77b4; stroke-width: 1.5; stroke-linecap: square"/>
   </g>
   <g id="line2d_38">
    <path d="M 240.359202 173.711762 
L 264.523633 154.915565 
L 280.629153 142.401022 
L 290.256468 135.099348 
L 312.412098 117.899419 
L 322.041066 110.278406 
L 336.421301 99.313486 
L 340.951725 95.896344 
L 348.75205 89.930766 
L 357.128423 83.363711 
L 359.260234 81.643092 
L 361.066588 80.210178 
L 362.475502 79.060561 
L 364.688646 77.342347 
L 366.070119 76.194097 
L 368.339162 74.481179 
L 369.692444 73.335701 
L 372.004169 71.631543 
L 373.326888 70.491236 
L 375.737876 68.798012 
L 376.988376 67.661844 
L 379.489138 65.980716 
L 380.642826 64.848607 
L 383.266833 63.180899 
L 384.232066 62.050391 
L 385.214342 61.498455 
L 386.780859 60.675377 
L 387.23565 60.112113 
L 387.462398 59.542888 
L 387.7189 59.262049 
L 388.774006 58.714771 
L 390.704217 57.902532 
L 390.98459 57.6223 
L 391.009401 57.33583 
L 390.738774 56.757178 
L 390.816469 56.474621 
L 391.263243 56.201549 
L 393.303521 55.679231 
L 395.411984 55.146302 
L 395.569094 54.858209 
L 394.684787 54.555357 
L 392.636849 54.249331 
L 389.552239 53.96289 
L 381.953989 53.584587 
L 378.61104 53.568 
L 376.304247 53.708328 
L 375.338608 54.021323 
L 375.710782 54.505553 
L 380.492883 56.743751 
L 381.164893 57.635545 
L 380.505852 58.552013 
L 378.406434 59.484206 
L 375.116022 60.440144 
L 367.368136 62.518093 
L 364.390183 63.695962 
L 362.829398 64.991048 
L 362.946148 66.401005 
L 364.618503 67.902503 
L 367.358004 69.453322 
L 370.408036 70.998978 
L 372.902769 72.482653 
L 374.050931 73.856197 
L 373.30519 75.09021 
L 370.480275 76.17999 
L 365.795489 77.147396 
L 347.486357 79.819201 
L 342.825404 80.825828 
L 339.994607 81.960131 
L 339.175619 83.230031 
L 340.14792 84.616973 
L 342.338418 86.080295 
L 344.941785 87.565601 
L 347.088532 89.016096 
L 348.025258 90.384141 
L 347.269138 91.64054 
L 344.705014 92.780058 
L 340.602524 93.821774 
L 325.705812 96.791202 
L 322.321934 97.884338 
L 320.499112 99.077741 
L 320.204688 100.369822 
L 321.065365 101.737676 
L 322.46472 103.142938 
L 323.694852 104.540835 
L 324.124279 105.890238 
L 323.341648 107.162624 
L 321.241819 108.347872 
L 318.034257 109.45573 
L 306.799073 112.6188 
L 304.235665 113.735654 
L 302.711123 114.921216 
L 302.118691 116.175118 
L 302.135184 117.481672 
L 302.317613 118.814433 
L 302.222052 120.14304 
L 301.512889 121.440471 
L 300.035538 122.688898 
L 297.837216 123.883017 
L 292.248063 126.147558 
L 289.503813 127.257329 
L 287.162799 128.381273 
L 285.361066 129.535717 
L 284.093135 130.728648 
L 283.230693 131.958704 
L 281.88091 134.487775 
L 280.977113 135.756789 
L 279.737002 137.010066 
L 278.127711 138.239026 
L 276.197691 139.441079 
L 267.704091 144.100524 
L 265.969296 145.274641 
L 264.498019 146.466281 
L 263.258802 147.676297 
L 258.815301 152.606556 
L 257.336255 153.827957 
L 255.606746 155.03517 
L 251.597734 157.409683 
L 247.587649 159.761129 
L 245.87062 160.943325 
L 244.423466 162.136028 
L 243.221902 163.340725 
L 240.019813 167.000377 
L 238.659843 168.218825 
L 237.028418 169.428977 
L 233.127095 171.820642 
L 229.162015 174.191147 
L 227.455578 175.378934 
L 225.999895 176.572763 
L 223.634928 178.979849 
L 221.269448 181.397439 
L 219.844098 182.60232 
L 216.447912 184.996693 
L 211.083404 188.569007 
L 208.065158 190.959082 
L 202.534239 195.745541 
L 196.301746 200.502295 
L 180.998313 212.386932 
L 176.923125 215.947068 
L 173.677941 218.317417 
L 166.648578 223.041797 
L 163.939938 225.412333 
L 160.304887 228.974242 
L 158.821303 230.156177 
L 155.270173 232.50859 
L 151.488634 234.858254 
L 149.786714 236.038536 
L 148.295825 237.224377 
L 145.820555 239.608739 
L 143.362772 241.990855 
L 141.90215 243.174195 
L 138.470197 245.524279 
L 134.895419 247.870312 
L 131.843864 250.236076 
L 126.512581 255.004975 
L 123.241474 257.366907 
L 119.880771 259.716735 
L 117.031104 262.077 
L 113.254704 265.641088 
L 111.744629 266.825312 
L 108.14838 269.17792 
L 104.472539 271.523397 
L 102.959133 272.702589 
L 101.762031 273.889051 
L 99.089223 277.467276 
L 97.843388 278.648816 
L 96.134153 279.817828 
L 93.955824 280.975322 
L 88.96026 283.282353 
L 86.823605 284.451175 
L 85.426414 285.640446 
L 85.034451 286.850018 
L 85.73056 288.069843 
L 87.378559 289.27894 
L 89.638883 290.447045 
L 94.046082 292.517468 
L 95.231342 293.355092 
L 95.313535 294.033563 
L 94.246537 294.550111 
L 92.225495 294.916947 
L 87.031107 295.307003 
L 83.709518 295.477242 
L 84.893325 295.488 
L 89.640188 295.384772 
L 92.147286 295.220098 
L 93.92704 294.947202 
L 94.462451 294.553182 
L 93.451352 294.041425 
L 90.887346 293.434178 
L 82.670534 292.10537 
L 75.246732 290.986446 
L 73.832727 290.621197 
L 74.642957 290.410698 
L 77.721873 290.341134 
L 99.719499 290.445422 
L 102.714839 290.256943 
L 103.19105 289.90417 
L 101.12182 289.396172 
L 97.008941 288.77266 
L 82.685015 286.874188 
L 80.86168 286.44777 
L 81.594037 286.182516 
L 84.77193 286.066081 
L 105.122229 285.984457 
L 107.096249 285.74545 
L 106.714952 285.352769 
L 104.237468 284.825413 
L 89.86829 282.478663 
L 89.398612 282.11552 
L 90.926905 281.890767 
L 98.354543 281.738753 
L 106.597619 281.623612 
L 109.145789 281.445232 
L 110.064851 281.145489 
L 109.334352 280.724614 
L 107.262156 280.207241 
L 99.088857 278.541683 
L 97.840512 278.107133 
L 98.007022 277.780571 
L 99.593863 277.559621 
L 105.699602 277.32509 
L 111.933399 277.078537 
L 113.705709 276.849483 
L 114.16822 276.522241 
L 113.34006 276.10057 
L 109.153074 275.078614 
L 105.21145 274.085048 
L 104.599055 273.689866 
L 105.217549 273.385222 
L 106.988495 273.165245 
L 117.332858 272.534975 
L 118.375964 272.266788 
L 118.313116 271.916312 
L 117.287289 271.492308 
L 112.314934 270.057785 
L 111.493623 269.636743 
L 111.582112 269.284526 
L 112.601545 269.005311 
L 116.597427 268.609989 
L 120.793516 268.24874 
L 122.096623 268.010158 
L 122.619422 267.710473 
L 122.37414 267.348529 
L 121.526417 266.935919 
L 118.356748 265.628195 
L 118.087792 265.250557 
L 118.504823 264.927337 
L 119.58476 264.657966 
L 127.14093 263.530069 
L 127.409105 263.215443 
L 127.089074 262.85464 
L 124.288218 261.254515 
L 124.432813 260.908543 
L 125.154811 260.606313 
L 127.862048 260.110514 
L 130.718605 259.657366 
L 131.633238 259.402548 
L 132.050565 259.112882 
L 131.996584 258.785699 
L 130.416544 257.292772 
L 130.600955 256.945923 
L 131.182944 256.630412 
L 133.191344 256.08622 
L 135.298235 255.592359 
L 136.035011 255.332575 
L 136.474391 255.051122 
L 136.636799 254.744292 
L 136.47711 254.066654 
L 136.387524 253.712148 
L 136.432925 253.360948 
L 136.677258 253.022144 
L 137.138158 252.701755 
L 138.561711 252.119219 
L 140.801633 251.311873 
L 141.622153 250.73344 
L 141.905541 250.093715 
L 142.136114 249.420582 
L 142.400187 249.087248 
L 143.373645 248.452072 
L 146.50161 247.006791 
L 147.042735 246.397914 
L 147.622322 245.419647 
L 148.462947 244.765763 
L 151.608991 242.937075 
L 152.994172 241.360571 
L 154.455288 240.398263 
L 155.843918 239.462472 
L 157.143225 238.231465 
L 158.236887 237.290906 
L 163.044333 233.531801 
L 164.705824 232.267317 
L 166.836296 230.695209 
L 169.00951 228.825577 
L 171.203388 227.256299 
L 173.754277 225.087625 
L 175.872902 223.541666 
L 178.135134 221.695996 
L 183.017705 218.034747 
L 185.450652 216.220279 
L 187.438857 214.702681 
L 188.917943 213.496173 
L 192.217573 211.085841 
L 193.720551 209.879246 
L 197.020897 207.466808 
L 200.61354 204.736841 
L 207.6734 199.218456 
L 209.950701 197.37153 
L 212.26897 195.5255 
L 214.577811 193.680559 
L 220.368533 189.083868 
L 230.192567 181.493584 
L 235.650419 177.308763 
L 240.311883 173.748753 
L 240.311883 173.748753 
" clip-path="url(#pb9b1c4406e)" style="fill: none; stroke: #ff7f0e; stroke-opacity: 0.5; stroke-width: 1.5; stroke-linecap: square"/>
   </g>
   <g id="patch_3">
    <path d="M 57.6 307.584 
L 57.6 41.472 
" style="fill: none; stroke: #000000; stroke-width: 0.8; stroke-linejoin: miter; stroke-linecap: square"/>
   </g>
   <g id="patch_4">
    <path d="M 414.72 307.584 
L 414.72 41.472 
" style="fill: none; stroke: #000000; stroke-width: 0.8; stroke-linejoin: miter; stroke-linecap: square"/>
   </g>
   <g id="patch_5">
    <path d="M 57.6 307.584 
L 414.72 307.584 
" style="fill: none; stroke: #000000; stroke-width: 0.8; stroke-linejoin: miter; stroke-linecap: square"/>
   </g>
   <g id="patch_6">
    <path d="M 57.6 41.472 
L 414.72 41.472 
" style="fill: none; stroke: #000000; stroke-width: 0.8; stroke-linejoin: miter; stroke-linecap: square"/>
   </g>
   <g id="text_21">
    <!-- Compare - Epoch 1200 -->
    <g transform="translate(167.416875 35.472) scale(0.12 -0.12)">
     <defs>
      <path id="DejaVuSans-43" d="M 4122 4306 
L 4122 3641 
Q 3803 3938 3442 4084 
Q 3081 4231 2675 4231 
Q 1875 4231 1450 3742 
Q 1025 3253 1025 2328 
Q 1025 1406 1450 917 
Q 1875 428 2675 428 
Q 3081 428 3442 575 
Q 3803 722 4122 1019 
L 4122 359 
Q 3791 134 3420 21 
Q 3050 -91 2638 -91 
Q 1578 -91 968 557 
Q 359 1206 359 2328 
Q 359 3453 968 4101 
Q 1578 4750 2638 4750 
Q 3056 4750 3426 4639 
Q 3797 4528 4122 4306 
z
" transform="scale(0.015625)"/>
      <path id="DejaVuSans-6f" d="M 1959 3097 
Q 1497 3097 1228 2736 
Q 959 2375 959 1747 
Q 959 1119 1226 758 
Q 1494 397 1959 397 
Q 2419 397 2687 759 
Q 2956 1122 2956 1747 
Q 2956 2369 2687 2733 
Q 2419 3097 1959 3097 
z
M 1959 3584 
Q 2709 3584 3137 3096 
Q 3566 2609 3566 1747 
Q 3566 888 3137 398 
Q 2709 -91 1959 -91 
Q 1206 -91 779 398 
Q 353 888 353 1747 
Q 353 2609 779 3096 
Q 1206 3584 1959 3584 
z
" transform="scale(0.015625)"/>
      <path id="DejaVuSans-6d" d="M 3328 2828 
Q 3544 3216 3844 3400 
Q 4144 3584 4550 3584 
Q 5097 3584 5394 3201 
Q 5691 2819 5691 2113 
L 5691 0 
L 5113 0 
L 5113 2094 
Q 5113 2597 4934 2840 
Q 4756 3084 4391 3084 
Q 3944 3084 3684 2787 
Q 3425 2491 3425 1978 
L 3425 0 
L 2847 0 
L 2847 2094 
Q 2847 2600 2669 2842 
Q 2491 3084 2119 3084 
Q 1678 3084 1418 2786 
Q 1159 2488 1159 1978 
L 1159 0 
L 581 0 
L 581 3500 
L 1159 3500 
L 1159 2956 
Q 1356 3278 1631 3431 
Q 1906 3584 2284 3584 
Q 2666 3584 2933 3390 
Q 3200 3197 3328 2828 
z
" transform="scale(0.015625)"/>
      <path id="DejaVuSans-70" d="M 1159 525 
L 1159 -1331 
L 581 -1331 
L 581 3500 
L 1159 3500 
L 1159 2969 
Q 1341 3281 1617 3432 
Q 1894 3584 2278 3584 
Q 2916 3584 3314 3078 
Q 3713 2572 3713 1747 
Q 3713 922 3314 415 
Q 2916 -91 2278 -91 
Q 1894 -91 1617 61 
Q 1341 213 1159 525 
z
M 3116 1747 
Q 3116 2381 2855 2742 
Q 2594 3103 2138 3103 
Q 1681 3103 1420 2742 
Q 1159 2381 1159 1747 
Q 1159 1113 1420 752 
Q 1681 391 2138 391 
Q 2594 391 2855 752 
Q 3116 1113 3116 1747 
z
" transform="scale(0.015625)"/>
      <path id="DejaVuSans-72" d="M 2631 2963 
Q 2534 3019 2420 3045 
Q 2306 3072 2169 3072 
Q 1681 3072 1420 2755 
Q 1159 2438 1159 1844 
L 1159 0 
L 581 0 
L 581 3500 
L 1159 3500 
L 1159 2956 
Q 1341 3275 1631 3429 
Q 1922 3584 2338 3584 
Q 2397 3584 2469 3576 
Q 2541 3569 2628 3553 
L 2631 2963 
z
" transform="scale(0.015625)"/>
      <path id="DejaVuSans-20" transform="scale(0.015625)"/>
      <path id="DejaVuSans-2d" d="M 313 2009 
L 1997 2009 
L 1997 1497 
L 313 1497 
L 313 2009 
z
" transform="scale(0.015625)"/>
      <path id="DejaVuSans-45" d="M 628 4666 
L 3578 4666 
L 3578 4134 
L 1259 4134 
L 1259 2753 
L 3481 2753 
L 3481 2222 
L 1259 2222 
L 1259 531 
L 3634 531 
L 3634 0 
L 628 0 
L 628 4666 
z
" transform="scale(0.015625)"/>
      <path id="DejaVuSans-63" d="M 3122 3366 
L 3122 2828 
Q 2878 2963 2633 3030 
Q 2388 3097 2138 3097 
Q 1578 3097 1268 2742 
Q 959 2388 959 1747 
Q 959 1106 1268 751 
Q 1578 397 2138 397 
Q 2388 397 2633 464 
Q 2878 531 3122 666 
L 3122 134 
Q 2881 22 2623 -34 
Q 2366 -91 2075 -91 
Q 1284 -91 818 406 
Q 353 903 353 1747 
Q 353 2603 823 3093 
Q 1294 3584 2113 3584 
Q 2378 3584 2631 3529 
Q 2884 3475 3122 3366 
z
" transform="scale(0.015625)"/>
      <path id="DejaVuSans-68" d="M 3513 2113 
L 3513 0 
L 2938 0 
L 2938 2094 
Q 2938 2591 2744 2837 
Q 2550 3084 2163 3084 
Q 1697 3084 1428 2787 
Q 1159 2491 1159 1978 
L 1159 0 
L 581 0 
L 581 4863 
L 1159 4863 
L 1159 2956 
Q 1366 3272 1645 3428 
Q 1925 3584 2291 3584 
Q 2894 3584 3203 3211 
Q 3513 2838 3513 2113 
z
" transform="scale(0.015625)"/>
     </defs>
     <use xlink:href="#DejaVuSans-43"/>
     <use xlink:href="#DejaVuSans-6f" transform="translate(69.824219 0)"/>
     <use xlink:href="#DejaVuSans-6d" transform="translate(131.005859 0)"/>
     <use xlink:href="#DejaVuSans-70" transform="translate(228.417969 0)"/>
     <use xlink:href="#DejaVuSans-61" transform="translate(291.894531 0)"/>
     <use xlink:href="#DejaVuSans-72" transform="translate(353.173828 0)"/>
     <use xlink:href="#DejaVuSans-65" transform="translate(392.037109 0)"/>
     <use xlink:href="#DejaVuSans-20" transform="translate(453.560547 0)"/>
     <use xlink:href="#DejaVuSans-2d" transform="translate(485.347656 0)"/>
     <use xlink:href="#DejaVuSans-20" transform="translate(521.431641 0)"/>
     <use xlink:href="#DejaVuSans-45" transform="translate(553.21875 0)"/>
     <use xlink:href="#DejaVuSans-70" transform="translate(616.402344 0)"/>
     <use xlink:href="#DejaVuSans-6f" transform="translate(679.878906 0)"/>
     <use xlink:href="#DejaVuSans-63" transform="translate(741.060547 0)"/>
     <use xlink:href="#DejaVuSans-68" transform="translate(796.041016 0)"/>
     <use xlink:href="#DejaVuSans-20" transform="translate(859.419922 0)"/>
     <use xlink:href="#DejaVuSans-31" transform="translate(891.207031 0)"/>
     <use xlink:href="#DejaVuSans-32" transform="translate(954.830078 0)"/>
     <use xlink:href="#DejaVuSans-30" transform="translate(1018.453125 0)"/>
     <use xlink:href="#DejaVuSans-30" transform="translate(1082.076172 0)"/>
    </g>
   </g>
   <g id="legend_1">
    <g id="patch_7">
     <path d="M 64.6 78.82825 
L 181.128125 78.82825 
Q 183.128125 78.82825 183.128125 76.82825 
L 183.128125 48.472 
Q 183.128125 46.472 181.128125 46.472 
L 64.6 46.472 
Q 62.6 46.472 62.6 48.472 
L 62.6 76.82825 
Q 62.6 78.82825 64.6 78.82825 
z
" style="fill: #ffffff; opacity: 0.8; stroke: #cccccc; stroke-linejoin: miter"/>
    </g>
    <g id="line2d_39">
     <path d="M 66.6 54.570437 
L 76.6 54.570437 
L 86.6 54.570437 
" style="fill: none; stroke: #1f77b4; stroke-width: 1.5; stroke-linecap: square"/>
    </g>
    <g id="text_22">
     <!-- Pred: Sample 1 -->
     <g transform="translate(94.6 58.070437) scale(0.1 -0.1)">
      <defs>
       <path id="DejaVuSans-50" d="M 1259 4147 
L 1259 2394 
L 2053 2394 
Q 2494 2394 2734 2622 
Q 2975 2850 2975 3272 
Q 2975 3691 2734 3919 
Q 2494 4147 2053 4147 
L 1259 4147 
z
M 628 4666 
L 2053 4666 
Q 2838 4666 3239 4311 
Q 3641 3956 3641 3272 
Q 3641 2581 3239 2228 
Q 2838 1875 2053 1875 
L 1259 1875 
L 1259 0 
L 628 0 
L 628 4666 
z
" transform="scale(0.015625)"/>
       <path id="DejaVuSans-3a" d="M 750 794 
L 1409 794 
L 1409 0 
L 750 0 
L 750 794 
z
M 750 3309 
L 1409 3309 
L 1409 2516 
L 750 2516 
L 750 3309 
z
" transform="scale(0.015625)"/>
       <path id="DejaVuSans-53" d="M 3425 4513 
L 3425 3897 
Q 3066 4069 2747 4153 
Q 2428 4238 2131 4238 
Q 1616 4238 1336 4038 
Q 1056 3838 1056 3469 
Q 1056 3159 1242 3001 
Q 1428 2844 1947 2747 
L 2328 2669 
Q 3034 2534 3370 2195 
Q 3706 1856 3706 1288 
Q 3706 609 3251 259 
Q 2797 -91 1919 -91 
Q 1588 -91 1214 -16 
Q 841 59 441 206 
L 441 856 
Q 825 641 1194 531 
Q 1563 422 1919 422 
Q 2459 422 2753 634 
Q 3047 847 3047 1241 
Q 3047 1584 2836 1778 
Q 2625 1972 2144 2069 
L 1759 2144 
Q 1053 2284 737 2584 
Q 422 2884 422 3419 
Q 422 4038 858 4394 
Q 1294 4750 2059 4750 
Q 2388 4750 2728 4690 
Q 3069 4631 3425 4513 
z
" transform="scale(0.015625)"/>
      </defs>
      <use xlink:href="#DejaVuSans-50"/>
      <use xlink:href="#DejaVuSans-72" transform="translate(58.552734 0)"/>
      <use xlink:href="#DejaVuSans-65" transform="translate(97.416016 0)"/>
      <use xlink:href="#DejaVuSans-64" transform="translate(158.939453 0)"/>
      <use xlink:href="#DejaVuSans-3a" transform="translate(222.416016 0)"/>
      <use xlink:href="#DejaVuSans-20" transform="translate(256.107422 0)"/>
      <use xlink:href="#DejaVuSans-53" transform="translate(287.894531 0)"/>
      <use xlink:href="#DejaVuSans-61" transform="translate(351.371094 0)"/>
      <use xlink:href="#DejaVuSans-6d" transform="translate(412.650391 0)"/>
      <use xlink:href="#DejaVuSans-70" transform="translate(510.0625 0)"/>
      <use xlink:href="#DejaVuSans-6c" transform="translate(573.539062 0)"/>
      <use xlink:href="#DejaVuSans-65" transform="translate(601.322266 0)"/>
      <use xlink:href="#DejaVuSans-20" transform="translate(662.845703 0)"/>
      <use xlink:href="#DejaVuSans-31" transform="translate(694.632812 0)"/>
     </g>
    </g>
    <g id="line2d_40">
     <path d="M 66.6 69.248562 
L 76.6 69.248562 
L 86.6 69.248562 
" style="fill: none; stroke: #ff7f0e; stroke-opacity: 0.5; stroke-width: 1.5; stroke-linecap: square"/>
    </g>
    <g id="text_23">
     <!-- Target: Sample 1 -->
     <g transform="translate(94.6 72.748562) scale(0.1 -0.1)">
      <defs>
       <path id="DejaVuSans-54" d="M -19 4666 
L 3928 4666 
L 3928 4134 
L 2272 4134 
L 2272 0 
L 1638 0 
L 1638 4134 
L -19 4134 
L -19 4666 
z
" transform="scale(0.015625)"/>
       <path id="DejaVuSans-67" d="M 2906 1791 
Q 2906 2416 2648 2759 
Q 2391 3103 1925 3103 
Q 1463 3103 1205 2759 
Q 947 2416 947 1791 
Q 947 1169 1205 825 
Q 1463 481 1925 481 
Q 2391 481 2648 825 
Q 2906 1169 2906 1791 
z
M 3481 434 
Q 3481 -459 3084 -895 
Q 2688 -1331 1869 -1331 
Q 1566 -1331 1297 -1286 
Q 1028 -1241 775 -1147 
L 775 -588 
Q 1028 -725 1275 -790 
Q 1522 -856 1778 -856 
Q 2344 -856 2625 -561 
Q 2906 -266 2906 331 
L 2906 616 
Q 2728 306 2450 153 
Q 2172 0 1784 0 
Q 1141 0 747 490 
Q 353 981 353 1791 
Q 353 2603 747 3093 
Q 1141 3584 1784 3584 
Q 2172 3584 2450 3431 
Q 2728 3278 2906 2969 
L 2906 3500 
L 3481 3500 
L 3481 434 
z
" transform="scale(0.015625)"/>
       <path id="DejaVuSans-74" d="M 1172 4494 
L 1172 3500 
L 2356 3500 
L 2356 3053 
L 1172 3053 
L 1172 1153 
Q 1172 725 1289 603 
Q 1406 481 1766 481 
L 2356 481 
L 2356 0 
L 1766 0 
Q 1100 0 847 248 
Q 594 497 594 1153 
L 594 3053 
L 172 3053 
L 172 3500 
L 594 3500 
L 594 4494 
L 1172 4494 
z
" transform="scale(0.015625)"/>
      </defs>
      <use xlink:href="#DejaVuSans-54"/>
      <use xlink:href="#DejaVuSans-61" transform="translate(44.583984 0)"/>
      <use xlink:href="#DejaVuSans-72" transform="translate(105.863281 0)"/>
      <use xlink:href="#DejaVuSans-67" transform="translate(145.226562 0)"/>
      <use xlink:href="#DejaVuSans-65" transform="translate(208.703125 0)"/>
      <use xlink:href="#DejaVuSans-74" transform="translate(270.226562 0)"/>
      <use xlink:href="#DejaVuSans-3a" transform="translate(309.435547 0)"/>
      <use xlink:href="#DejaVuSans-20" transform="translate(343.126953 0)"/>
      <use xlink:href="#DejaVuSans-53" transform="translate(374.914062 0)"/>
      <use xlink:href="#DejaVuSans-61" transform="translate(438.390625 0)"/>
      <use xlink:href="#DejaVuSans-6d" transform="translate(499.669922 0)"/>
      <use xlink:href="#DejaVuSans-70" transform="translate(597.082031 0)"/>
      <use xlink:href="#DejaVuSans-6c" transform="translate(660.558594 0)"/>
      <use xlink:href="#DejaVuSans-65" transform="translate(688.341797 0)"/>
      <use xlink:href="#DejaVuSans-20" transform="translate(749.865234 0)"/>
      <use xlink:href="#DejaVuSans-31" transform="translate(781.652344 0)"/>
     </g>
    </g>
   </g>
  </g>
 </g>
 <defs>
  <clipPath id="pb9b1c4406e">
   <rect x="57.6" y="41.472" width="357.12" height="266.112"/>
  </clipPath>
 </defs>
</svg>
