<?xml version="1.0" encoding="utf-8" standalone="no"?>
<!DOCTYPE svg PUBLIC "-//W3C//DTD SVG 1.1//EN"
  "http://www.w3.org/Graphics/SVG/1.1/DTD/svg11.dtd">
<svg xmlns:xlink="http://www.w3.org/1999/xlink" width="460.8pt" height="345.6pt" viewBox="0 0 460.8 345.6" xmlns="http://www.w3.org/2000/svg" version="1.1">
 <metadata>
  <rdf:RDF xmlns:dc="http://purl.org/dc/elements/1.1/" xmlns:cc="http://creativecommons.org/ns#" xmlns:rdf="http://www.w3.org/1999/02/22-rdf-syntax-ns#">
   <cc:Work>
    <dc:type rdf:resource="http://purl.org/dc/dcmitype/StillImage"/>
    <dc:date>2025-04-16T06:22:35.348799</dc:date>
    <dc:format>image/svg+xml</dc:format>
    <dc:creator>
     <cc:Agent>
      <dc:title>Matplotlib v3.10.0, https://matplotlib.org/</dc:title>
     </cc:Agent>
    </dc:creator>
   </cc:Work>
  </rdf:RDF>
 </metadata>
 <defs>
  <style type="text/css">*{stroke-linejoin: round; stroke-linecap: butt}</style>
 </defs>
 <g id="figure_1">
  <g id="patch_1">
   <path d="M 0 345.6 
L 460.8 345.6 
L 460.8 0 
L 0 0 
z
" style="fill: #ffffff"/>
  </g>
  <g id="axes_1">
   <g id="patch_2">
    <path d="M 57.6 307.584 
L 414.72 307.584 
L 414.72 41.472 
L 57.6 41.472 
z
" style="fill: #ffffff"/>
   </g>
   <g id="matplotlib.axis_1">
    <g id="xtick_1">
     <g id="line2d_1">
      <path d="M 72.205955 307.584 
L 72.205955 41.472 
" clip-path="url(#p2af533afca)" style="fill: none; stroke: #b0b0b0; stroke-opacity: 0.5; stroke-width: 0.8; stroke-linecap: square"/>
     </g>
     <g id="line2d_2">
      <defs>
       <path id="mdc716383f2" d="M 0 0 
L 0 3.5 
" style="stroke: #000000; stroke-width: 0.8"/>
      </defs>
      <g>
       <use xlink:href="#mdc716383f2" x="72.205955" y="307.584" style="stroke: #000000; stroke-width: 0.8"/>
      </g>
     </g>
     <g id="text_1">
      <!-- −0.8 -->
      <g transform="translate(60.064549 322.182437) scale(0.1 -0.1)">
       <defs>
        <path id="DejaVuSans-2212" d="M 678 2272 
L 4684 2272 
L 4684 1741 
L 678 1741 
L 678 2272 
z
" transform="scale(0.015625)"/>
        <path id="DejaVuSans-30" d="M 2034 4250 
Q 1547 4250 1301 3770 
Q 1056 3291 1056 2328 
Q 1056 1369 1301 889 
Q 1547 409 2034 409 
Q 2525 409 2770 889 
Q 3016 1369 3016 2328 
Q 3016 3291 2770 3770 
Q 2525 4250 2034 4250 
z
M 2034 4750 
Q 2819 4750 3233 4129 
Q 3647 3509 3647 2328 
Q 3647 1150 3233 529 
Q 2819 -91 2034 -91 
Q 1250 -91 836 529 
Q 422 1150 422 2328 
Q 422 3509 836 4129 
Q 1250 4750 2034 4750 
z
" transform="scale(0.015625)"/>
        <path id="DejaVuSans-2e" d="M 684 794 
L 1344 794 
L 1344 0 
L 684 0 
L 684 794 
z
" transform="scale(0.015625)"/>
        <path id="DejaVuSans-38" d="M 2034 2216 
Q 1584 2216 1326 1975 
Q 1069 1734 1069 1313 
Q 1069 891 1326 650 
Q 1584 409 2034 409 
Q 2484 409 2743 651 
Q 3003 894 3003 1313 
Q 3003 1734 2745 1975 
Q 2488 2216 2034 2216 
z
M 1403 2484 
Q 997 2584 770 2862 
Q 544 3141 544 3541 
Q 544 4100 942 4425 
Q 1341 4750 2034 4750 
Q 2731 4750 3128 4425 
Q 3525 4100 3525 3541 
Q 3525 3141 3298 2862 
Q 3072 2584 2669 2484 
Q 3125 2378 3379 2068 
Q 3634 1759 3634 1313 
Q 3634 634 3220 271 
Q 2806 -91 2034 -91 
Q 1263 -91 848 271 
Q 434 634 434 1313 
Q 434 1759 690 2068 
Q 947 2378 1403 2484 
z
M 1172 3481 
Q 1172 3119 1398 2916 
Q 1625 2713 2034 2713 
Q 2441 2713 2670 2916 
Q 2900 3119 2900 3481 
Q 2900 3844 2670 4047 
Q 2441 4250 2034 4250 
Q 1625 4250 1398 4047 
Q 1172 3844 1172 3481 
z
" transform="scale(0.015625)"/>
       </defs>
       <use xlink:href="#DejaVuSans-2212"/>
       <use xlink:href="#DejaVuSans-30" transform="translate(83.789062 0)"/>
       <use xlink:href="#DejaVuSans-2e" transform="translate(147.412109 0)"/>
       <use xlink:href="#DejaVuSans-38" transform="translate(179.199219 0)"/>
      </g>
     </g>
    </g>
    <g id="xtick_2">
     <g id="line2d_3">
      <path d="M 114.961767 307.584 
L 114.961767 41.472 
" clip-path="url(#p2af533afca)" style="fill: none; stroke: #b0b0b0; stroke-opacity: 0.5; stroke-width: 0.8; stroke-linecap: square"/>
     </g>
     <g id="line2d_4">
      <g>
       <use xlink:href="#mdc716383f2" x="114.961767" y="307.584" style="stroke: #000000; stroke-width: 0.8"/>
      </g>
     </g>
     <g id="text_2">
      <!-- −0.6 -->
      <g transform="translate(102.820361 322.182437) scale(0.1 -0.1)">
       <defs>
        <path id="DejaVuSans-36" d="M 2113 2584 
Q 1688 2584 1439 2293 
Q 1191 2003 1191 1497 
Q 1191 994 1439 701 
Q 1688 409 2113 409 
Q 2538 409 2786 701 
Q 3034 994 3034 1497 
Q 3034 2003 2786 2293 
Q 2538 2584 2113 2584 
z
M 3366 4563 
L 3366 3988 
Q 3128 4100 2886 4159 
Q 2644 4219 2406 4219 
Q 1781 4219 1451 3797 
Q 1122 3375 1075 2522 
Q 1259 2794 1537 2939 
Q 1816 3084 2150 3084 
Q 2853 3084 3261 2657 
Q 3669 2231 3669 1497 
Q 3669 778 3244 343 
Q 2819 -91 2113 -91 
Q 1303 -91 875 529 
Q 447 1150 447 2328 
Q 447 3434 972 4092 
Q 1497 4750 2381 4750 
Q 2619 4750 2861 4703 
Q 3103 4656 3366 4563 
z
" transform="scale(0.015625)"/>
       </defs>
       <use xlink:href="#DejaVuSans-2212"/>
       <use xlink:href="#DejaVuSans-30" transform="translate(83.789062 0)"/>
       <use xlink:href="#DejaVuSans-2e" transform="translate(147.412109 0)"/>
       <use xlink:href="#DejaVuSans-36" transform="translate(179.199219 0)"/>
      </g>
     </g>
    </g>
    <g id="xtick_3">
     <g id="line2d_5">
      <path d="M 157.717579 307.584 
L 157.717579 41.472 
" clip-path="url(#p2af533afca)" style="fill: none; stroke: #b0b0b0; stroke-opacity: 0.5; stroke-width: 0.8; stroke-linecap: square"/>
     </g>
     <g id="line2d_6">
      <g>
       <use xlink:href="#mdc716383f2" x="157.717579" y="307.584" style="stroke: #000000; stroke-width: 0.8"/>
      </g>
     </g>
     <g id="text_3">
      <!-- −0.4 -->
      <g transform="translate(145.576172 322.182437) scale(0.1 -0.1)">
       <defs>
        <path id="DejaVuSans-34" d="M 2419 4116 
L 825 1625 
L 2419 1625 
L 2419 4116 
z
M 2253 4666 
L 3047 4666 
L 3047 1625 
L 3713 1625 
L 3713 1100 
L 3047 1100 
L 3047 0 
L 2419 0 
L 2419 1100 
L 313 1100 
L 313 1709 
L 2253 4666 
z
" transform="scale(0.015625)"/>
       </defs>
       <use xlink:href="#DejaVuSans-2212"/>
       <use xlink:href="#DejaVuSans-30" transform="translate(83.789062 0)"/>
       <use xlink:href="#DejaVuSans-2e" transform="translate(147.412109 0)"/>
       <use xlink:href="#DejaVuSans-34" transform="translate(179.199219 0)"/>
      </g>
     </g>
    </g>
    <g id="xtick_4">
     <g id="line2d_7">
      <path d="M 200.47339 307.584 
L 200.47339 41.472 
" clip-path="url(#p2af533afca)" style="fill: none; stroke: #b0b0b0; stroke-opacity: 0.5; stroke-width: 0.8; stroke-linecap: square"/>
     </g>
     <g id="line2d_8">
      <g>
       <use xlink:href="#mdc716383f2" x="200.47339" y="307.584" style="stroke: #000000; stroke-width: 0.8"/>
      </g>
     </g>
     <g id="text_4">
      <!-- −0.2 -->
      <g transform="translate(188.331984 322.182437) scale(0.1 -0.1)">
       <defs>
        <path id="DejaVuSans-32" d="M 1228 531 
L 3431 531 
L 3431 0 
L 469 0 
L 469 531 
Q 828 903 1448 1529 
Q 2069 2156 2228 2338 
Q 2531 2678 2651 2914 
Q 2772 3150 2772 3378 
Q 2772 3750 2511 3984 
Q 2250 4219 1831 4219 
Q 1534 4219 1204 4116 
Q 875 4013 500 3803 
L 500 4441 
Q 881 4594 1212 4672 
Q 1544 4750 1819 4750 
Q 2544 4750 2975 4387 
Q 3406 4025 3406 3419 
Q 3406 3131 3298 2873 
Q 3191 2616 2906 2266 
Q 2828 2175 2409 1742 
Q 1991 1309 1228 531 
z
" transform="scale(0.015625)"/>
       </defs>
       <use xlink:href="#DejaVuSans-2212"/>
       <use xlink:href="#DejaVuSans-30" transform="translate(83.789062 0)"/>
       <use xlink:href="#DejaVuSans-2e" transform="translate(147.412109 0)"/>
       <use xlink:href="#DejaVuSans-32" transform="translate(179.199219 0)"/>
      </g>
     </g>
    </g>
    <g id="xtick_5">
     <g id="line2d_9">
      <path d="M 243.229202 307.584 
L 243.229202 41.472 
" clip-path="url(#p2af533afca)" style="fill: none; stroke: #b0b0b0; stroke-opacity: 0.5; stroke-width: 0.8; stroke-linecap: square"/>
     </g>
     <g id="line2d_10">
      <g>
       <use xlink:href="#mdc716383f2" x="243.229202" y="307.584" style="stroke: #000000; stroke-width: 0.8"/>
      </g>
     </g>
     <g id="text_5">
      <!-- 0.0 -->
      <g transform="translate(235.277639 322.182437) scale(0.1 -0.1)">
       <use xlink:href="#DejaVuSans-30"/>
       <use xlink:href="#DejaVuSans-2e" transform="translate(63.623047 0)"/>
       <use xlink:href="#DejaVuSans-30" transform="translate(95.410156 0)"/>
      </g>
     </g>
    </g>
    <g id="xtick_6">
     <g id="line2d_11">
      <path d="M 285.985013 307.584 
L 285.985013 41.472 
" clip-path="url(#p2af533afca)" style="fill: none; stroke: #b0b0b0; stroke-opacity: 0.5; stroke-width: 0.8; stroke-linecap: square"/>
     </g>
     <g id="line2d_12">
      <g>
       <use xlink:href="#mdc716383f2" x="285.985013" y="307.584" style="stroke: #000000; stroke-width: 0.8"/>
      </g>
     </g>
     <g id="text_6">
      <!-- 0.2 -->
      <g transform="translate(278.033451 322.182437) scale(0.1 -0.1)">
       <use xlink:href="#DejaVuSans-30"/>
       <use xlink:href="#DejaVuSans-2e" transform="translate(63.623047 0)"/>
       <use xlink:href="#DejaVuSans-32" transform="translate(95.410156 0)"/>
      </g>
     </g>
    </g>
    <g id="xtick_7">
     <g id="line2d_13">
      <path d="M 328.740825 307.584 
L 328.740825 41.472 
" clip-path="url(#p2af533afca)" style="fill: none; stroke: #b0b0b0; stroke-opacity: 0.5; stroke-width: 0.8; stroke-linecap: square"/>
     </g>
     <g id="line2d_14">
      <g>
       <use xlink:href="#mdc716383f2" x="328.740825" y="307.584" style="stroke: #000000; stroke-width: 0.8"/>
      </g>
     </g>
     <g id="text_7">
      <!-- 0.4 -->
      <g transform="translate(320.789262 322.182437) scale(0.1 -0.1)">
       <use xlink:href="#DejaVuSans-30"/>
       <use xlink:href="#DejaVuSans-2e" transform="translate(63.623047 0)"/>
       <use xlink:href="#DejaVuSans-34" transform="translate(95.410156 0)"/>
      </g>
     </g>
    </g>
    <g id="xtick_8">
     <g id="line2d_15">
      <path d="M 371.496636 307.584 
L 371.496636 41.472 
" clip-path="url(#p2af533afca)" style="fill: none; stroke: #b0b0b0; stroke-opacity: 0.5; stroke-width: 0.8; stroke-linecap: square"/>
     </g>
     <g id="line2d_16">
      <g>
       <use xlink:href="#mdc716383f2" x="371.496636" y="307.584" style="stroke: #000000; stroke-width: 0.8"/>
      </g>
     </g>
     <g id="text_8">
      <!-- 0.6 -->
      <g transform="translate(363.545074 322.182437) scale(0.1 -0.1)">
       <use xlink:href="#DejaVuSans-30"/>
       <use xlink:href="#DejaVuSans-2e" transform="translate(63.623047 0)"/>
       <use xlink:href="#DejaVuSans-36" transform="translate(95.410156 0)"/>
      </g>
     </g>
    </g>
    <g id="xtick_9">
     <g id="line2d_17">
      <path d="M 414.252448 307.584 
L 414.252448 41.472 
" clip-path="url(#p2af533afca)" style="fill: none; stroke: #b0b0b0; stroke-opacity: 0.5; stroke-width: 0.8; stroke-linecap: square"/>
     </g>
     <g id="line2d_18">
      <g>
       <use xlink:href="#mdc716383f2" x="414.252448" y="307.584" style="stroke: #000000; stroke-width: 0.8"/>
      </g>
     </g>
     <g id="text_9">
      <!-- 0.8 -->
      <g transform="translate(406.300885 322.182437) scale(0.1 -0.1)">
       <use xlink:href="#DejaVuSans-30"/>
       <use xlink:href="#DejaVuSans-2e" transform="translate(63.623047 0)"/>
       <use xlink:href="#DejaVuSans-38" transform="translate(95.410156 0)"/>
      </g>
     </g>
    </g>
    <g id="text_10">
     <!-- Index -->
     <g transform="translate(222.393594 335.860562) scale(0.1 -0.1)">
      <defs>
       <path id="DejaVuSans-49" d="M 628 4666 
L 1259 4666 
L 1259 0 
L 628 0 
L 628 4666 
z
" transform="scale(0.015625)"/>
       <path id="DejaVuSans-6e" d="M 3513 2113 
L 3513 0 
L 2938 0 
L 2938 2094 
Q 2938 2591 2744 2837 
Q 2550 3084 2163 3084 
Q 1697 3084 1428 2787 
Q 1159 2491 1159 1978 
L 1159 0 
L 581 0 
L 581 3500 
L 1159 3500 
L 1159 2956 
Q 1366 3272 1645 3428 
Q 1925 3584 2291 3584 
Q 2894 3584 3203 3211 
Q 3513 2838 3513 2113 
z
" transform="scale(0.015625)"/>
       <path id="DejaVuSans-64" d="M 2906 2969 
L 2906 4863 
L 3481 4863 
L 3481 0 
L 2906 0 
L 2906 525 
Q 2725 213 2448 61 
Q 2172 -91 1784 -91 
Q 1150 -91 751 415 
Q 353 922 353 1747 
Q 353 2572 751 3078 
Q 1150 3584 1784 3584 
Q 2172 3584 2448 3432 
Q 2725 3281 2906 2969 
z
M 947 1747 
Q 947 1113 1208 752 
Q 1469 391 1925 391 
Q 2381 391 2643 752 
Q 2906 1113 2906 1747 
Q 2906 2381 2643 2742 
Q 2381 3103 1925 3103 
Q 1469 3103 1208 2742 
Q 947 2381 947 1747 
z
" transform="scale(0.015625)"/>
       <path id="DejaVuSans-65" d="M 3597 1894 
L 3597 1613 
L 953 1613 
Q 991 1019 1311 708 
Q 1631 397 2203 397 
Q 2534 397 2845 478 
Q 3156 559 3463 722 
L 3463 178 
Q 3153 47 2828 -22 
Q 2503 -91 2169 -91 
Q 1331 -91 842 396 
Q 353 884 353 1716 
Q 353 2575 817 3079 
Q 1281 3584 2069 3584 
Q 2775 3584 3186 3129 
Q 3597 2675 3597 1894 
z
M 3022 2063 
Q 3016 2534 2758 2815 
Q 2500 3097 2075 3097 
Q 1594 3097 1305 2825 
Q 1016 2553 972 2059 
L 3022 2063 
z
" transform="scale(0.015625)"/>
       <path id="DejaVuSans-78" d="M 3513 3500 
L 2247 1797 
L 3578 0 
L 2900 0 
L 1881 1375 
L 863 0 
L 184 0 
L 1544 1831 
L 300 3500 
L 978 3500 
L 1906 2253 
L 2834 3500 
L 3513 3500 
z
" transform="scale(0.015625)"/>
      </defs>
      <use xlink:href="#DejaVuSans-49"/>
      <use xlink:href="#DejaVuSans-6e" transform="translate(29.492188 0)"/>
      <use xlink:href="#DejaVuSans-64" transform="translate(92.871094 0)"/>
      <use xlink:href="#DejaVuSans-65" transform="translate(156.347656 0)"/>
      <use xlink:href="#DejaVuSans-78" transform="translate(216.121094 0)"/>
     </g>
    </g>
   </g>
   <g id="matplotlib.axis_2">
    <g id="ytick_1">
     <g id="line2d_19">
      <path d="M 57.6 279.682554 
L 414.72 279.682554 
" clip-path="url(#p2af533afca)" style="fill: none; stroke: #b0b0b0; stroke-opacity: 0.5; stroke-width: 0.8; stroke-linecap: square"/>
     </g>
     <g id="line2d_20">
      <defs>
       <path id="m0eef6512ec" d="M 0 0 
L -3.5 0 
" style="stroke: #000000; stroke-width: 0.8"/>
      </defs>
      <g>
       <use xlink:href="#m0eef6512ec" x="57.6" y="279.682554" style="stroke: #000000; stroke-width: 0.8"/>
      </g>
     </g>
     <g id="text_11">
      <!-- −0.6 -->
      <g transform="translate(26.317187 283.481772) scale(0.1 -0.1)">
       <use xlink:href="#DejaVuSans-2212"/>
       <use xlink:href="#DejaVuSans-30" transform="translate(83.789062 0)"/>
       <use xlink:href="#DejaVuSans-2e" transform="translate(147.412109 0)"/>
       <use xlink:href="#DejaVuSans-36" transform="translate(179.199219 0)"/>
      </g>
     </g>
    </g>
    <g id="ytick_2">
     <g id="line2d_21">
      <path d="M 57.6 244.257985 
L 414.72 244.257985 
" clip-path="url(#p2af533afca)" style="fill: none; stroke: #b0b0b0; stroke-opacity: 0.5; stroke-width: 0.8; stroke-linecap: square"/>
     </g>
     <g id="line2d_22">
      <g>
       <use xlink:href="#m0eef6512ec" x="57.6" y="244.257985" style="stroke: #000000; stroke-width: 0.8"/>
      </g>
     </g>
     <g id="text_12">
      <!-- −0.4 -->
      <g transform="translate(26.317187 248.057204) scale(0.1 -0.1)">
       <use xlink:href="#DejaVuSans-2212"/>
       <use xlink:href="#DejaVuSans-30" transform="translate(83.789062 0)"/>
       <use xlink:href="#DejaVuSans-2e" transform="translate(147.412109 0)"/>
       <use xlink:href="#DejaVuSans-34" transform="translate(179.199219 0)"/>
      </g>
     </g>
    </g>
    <g id="ytick_3">
     <g id="line2d_23">
      <path d="M 57.6 208.833416 
L 414.72 208.833416 
" clip-path="url(#p2af533afca)" style="fill: none; stroke: #b0b0b0; stroke-opacity: 0.5; stroke-width: 0.8; stroke-linecap: square"/>
     </g>
     <g id="line2d_24">
      <g>
       <use xlink:href="#m0eef6512ec" x="57.6" y="208.833416" style="stroke: #000000; stroke-width: 0.8"/>
      </g>
     </g>
     <g id="text_13">
      <!-- −0.2 -->
      <g transform="translate(26.317187 212.632635) scale(0.1 -0.1)">
       <use xlink:href="#DejaVuSans-2212"/>
       <use xlink:href="#DejaVuSans-30" transform="translate(83.789062 0)"/>
       <use xlink:href="#DejaVuSans-2e" transform="translate(147.412109 0)"/>
       <use xlink:href="#DejaVuSans-32" transform="translate(179.199219 0)"/>
      </g>
     </g>
    </g>
    <g id="ytick_4">
     <g id="line2d_25">
      <path d="M 57.6 173.408848 
L 414.72 173.408848 
" clip-path="url(#p2af533afca)" style="fill: none; stroke: #b0b0b0; stroke-opacity: 0.5; stroke-width: 0.8; stroke-linecap: square"/>
     </g>
     <g id="line2d_26">
      <g>
       <use xlink:href="#m0eef6512ec" x="57.6" y="173.408848" style="stroke: #000000; stroke-width: 0.8"/>
      </g>
     </g>
     <g id="text_14">
      <!-- 0.0 -->
      <g transform="translate(34.696875 177.208066) scale(0.1 -0.1)">
       <use xlink:href="#DejaVuSans-30"/>
       <use xlink:href="#DejaVuSans-2e" transform="translate(63.623047 0)"/>
       <use xlink:href="#DejaVuSans-30" transform="translate(95.410156 0)"/>
      </g>
     </g>
    </g>
    <g id="ytick_5">
     <g id="line2d_27">
      <path d="M 57.6 137.984279 
L 414.72 137.984279 
" clip-path="url(#p2af533afca)" style="fill: none; stroke: #b0b0b0; stroke-opacity: 0.5; stroke-width: 0.8; stroke-linecap: square"/>
     </g>
     <g id="line2d_28">
      <g>
       <use xlink:href="#m0eef6512ec" x="57.6" y="137.984279" style="stroke: #000000; stroke-width: 0.8"/>
      </g>
     </g>
     <g id="text_15">
      <!-- 0.2 -->
      <g transform="translate(34.696875 141.783498) scale(0.1 -0.1)">
       <use xlink:href="#DejaVuSans-30"/>
       <use xlink:href="#DejaVuSans-2e" transform="translate(63.623047 0)"/>
       <use xlink:href="#DejaVuSans-32" transform="translate(95.410156 0)"/>
      </g>
     </g>
    </g>
    <g id="ytick_6">
     <g id="line2d_29">
      <path d="M 57.6 102.55971 
L 414.72 102.55971 
" clip-path="url(#p2af533afca)" style="fill: none; stroke: #b0b0b0; stroke-opacity: 0.5; stroke-width: 0.8; stroke-linecap: square"/>
     </g>
     <g id="line2d_30">
      <g>
       <use xlink:href="#m0eef6512ec" x="57.6" y="102.55971" style="stroke: #000000; stroke-width: 0.8"/>
      </g>
     </g>
     <g id="text_16">
      <!-- 0.4 -->
      <g transform="translate(34.696875 106.358929) scale(0.1 -0.1)">
       <use xlink:href="#DejaVuSans-30"/>
       <use xlink:href="#DejaVuSans-2e" transform="translate(63.623047 0)"/>
       <use xlink:href="#DejaVuSans-34" transform="translate(95.410156 0)"/>
      </g>
     </g>
    </g>
    <g id="ytick_7">
     <g id="line2d_31">
      <path d="M 57.6 67.135142 
L 414.72 67.135142 
" clip-path="url(#p2af533afca)" style="fill: none; stroke: #b0b0b0; stroke-opacity: 0.5; stroke-width: 0.8; stroke-linecap: square"/>
     </g>
     <g id="line2d_32">
      <g>
       <use xlink:href="#m0eef6512ec" x="57.6" y="67.135142" style="stroke: #000000; stroke-width: 0.8"/>
      </g>
     </g>
     <g id="text_17">
      <!-- 0.6 -->
      <g transform="translate(34.696875 70.93436) scale(0.1 -0.1)">
       <use xlink:href="#DejaVuSans-30"/>
       <use xlink:href="#DejaVuSans-2e" transform="translate(63.623047 0)"/>
       <use xlink:href="#DejaVuSans-36" transform="translate(95.410156 0)"/>
      </g>
     </g>
    </g>
    <g id="text_18">
     <!-- Value -->
     <g transform="translate(20.2375 188.25925) rotate(-90) scale(0.1 -0.1)">
      <defs>
       <path id="DejaVuSans-56" d="M 1831 0 
L 50 4666 
L 709 4666 
L 2188 738 
L 3669 4666 
L 4325 4666 
L 2547 0 
L 1831 0 
z
" transform="scale(0.015625)"/>
       <path id="DejaVuSans-61" d="M 2194 1759 
Q 1497 1759 1228 1600 
Q 959 1441 959 1056 
Q 959 750 1161 570 
Q 1363 391 1709 391 
Q 2188 391 2477 730 
Q 2766 1069 2766 1631 
L 2766 1759 
L 2194 1759 
z
M 3341 1997 
L 3341 0 
L 2766 0 
L 2766 531 
Q 2569 213 2275 61 
Q 1981 -91 1556 -91 
Q 1019 -91 701 211 
Q 384 513 384 1019 
Q 384 1609 779 1909 
Q 1175 2209 1959 2209 
L 2766 2209 
L 2766 2266 
Q 2766 2663 2505 2880 
Q 2244 3097 1772 3097 
Q 1472 3097 1187 3025 
Q 903 2953 641 2809 
L 641 3341 
Q 956 3463 1253 3523 
Q 1550 3584 1831 3584 
Q 2591 3584 2966 3190 
Q 3341 2797 3341 1997 
z
" transform="scale(0.015625)"/>
       <path id="DejaVuSans-6c" d="M 603 4863 
L 1178 4863 
L 1178 0 
L 603 0 
L 603 4863 
z
" transform="scale(0.015625)"/>
       <path id="DejaVuSans-75" d="M 544 1381 
L 544 3500 
L 1119 3500 
L 1119 1403 
Q 1119 906 1312 657 
Q 1506 409 1894 409 
Q 2359 409 2629 706 
Q 2900 1003 2900 1516 
L 2900 3500 
L 3475 3500 
L 3475 0 
L 2900 0 
L 2900 538 
Q 2691 219 2414 64 
Q 2138 -91 1772 -91 
Q 1169 -91 856 284 
Q 544 659 544 1381 
z
M 1991 3584 
L 1991 3584 
z
" transform="scale(0.015625)"/>
      </defs>
      <use xlink:href="#DejaVuSans-56"/>
      <use xlink:href="#DejaVuSans-61" transform="translate(60.658203 0)"/>
      <use xlink:href="#DejaVuSans-6c" transform="translate(121.9375 0)"/>
      <use xlink:href="#DejaVuSans-75" transform="translate(149.720703 0)"/>
      <use xlink:href="#DejaVuSans-65" transform="translate(213.099609 0)"/>
     </g>
    </g>
   </g>
   <g id="line2d_33">
    <path d="M 252.928249 173.589781 
L 239.64037 173.001232 
L 237.412124 172.707523 
L 240.148517 172.414378 
L 251.165257 171.829192 
L 253.236343 171.536523 
L 251.614538 171.243375 
L 244.975383 170.655243 
L 244.393449 170.360552 
L 246.422973 170.065862 
L 252.382789 169.477614 
L 253.208093 169.184209 
L 252.20745 168.891063 
L 249.307217 168.304226 
L 249.554674 168.010002 
L 254.359627 167.124404 
L 254.662239 166.829112 
L 253.022449 165.94536 
L 253.559973 165.650973 
L 256.796645 164.764604 
L 256.993668 164.467903 
L 256.448569 163.873986 
L 256.491943 163.577365 
L 257.008025 163.281143 
L 259.338241 162.393204 
L 259.622867 162.09651 
L 259.723422 161.501187 
L 259.934825 161.202851 
L 260.944583 160.60621 
L 261.981861 160.010692 
L 264.092502 158.220687 
L 264.848543 157.622584 
L 265.809434 156.728012 
L 267.90273 155.233997 
L 268.767143 154.33731 
L 270.111199 153.444737 
L 271.292786 152.550713 
L 272.569958 151.357285 
L 276.005819 148.684421 
L 277.089597 147.795543 
L 279.120742 146.317314 
L 280.803936 144.839415 
L 282.832151 143.367508 
L 284.48907 141.896941 
L 286.860003 140.141703 
L 288.162402 138.972095 
L 290.850524 136.934841 
L 291.829506 136.062266 
L 294.826573 133.741981 
L 295.878055 132.872631 
L 298.205199 131.13342 
L 298.81466 130.551618 
L 301.290009 130.224995 
L 298.617206 129.355872 
L 299.477701 129.06587 
L 302.523182 128.48417 
L 303.266678 128.192592 
L 303.154381 127.900856 
L 302.132264 127.318048 
L 302.274429 127.027241 
L 303.052673 126.736682 
L 305.113779 126.155168 
L 305.631502 125.863663 
L 305.687357 125.571515 
L 305.466776 124.985947 
L 305.729177 124.693144 
L 308.117414 123.525407 
L 309.094794 122.35388 
L 310.775633 121.178166 
L 311.729873 120.299816 
L 313.478947 119.123332 
L 314.612585 117.945888 
L 316.804196 116.476976 
L 317.991045 115.296987 
L 321.405439 112.652536 
L 322.481335 111.772676 
L 324.500373 110.308198 
L 326.129313 108.844565 
L 328.193904 107.387171 
L 329.76676 105.929355 
L 331.867112 104.479905 
L 333.80723 102.740013 
L 335.529316 101.586628 
L 337.847331 99.566417 
L 339.153447 98.705165 
L 340.011432 97.83931 
L 340.600378 97.264188 
L 341.901779 96.407 
L 343.110086 95.547199 
L 344.579379 94.111918 
L 347.032748 92.395045 
L 347.798601 91.531919 
L 348.585057 90.960677 
L 350.389273 89.816562 
L 351.152685 88.950406 
L 351.736318 88.375532 
L 352.155205 88.089512 
L 354.711538 87.768305 
L 353.913951 87.482349 
L 352.665149 87.195485 
L 352.327697 86.907232 
L 353.04883 86.617824 
L 355.71746 86.03774 
L 356.364994 85.748516 
L 356.274066 85.460438 
L 355.553773 84.887206 
L 355.8629 84.600711 
L 358.976947 83.443806 
L 358.864509 83.152761 
L 358.59798 82.862455 
L 358.536129 82.573406 
L 358.89769 82.28557 
L 361.73416 81.134672 
L 361.878479 80.843933 
L 361.901198 80.259975 
L 362.112197 79.968508 
L 363.06241 79.39006 
L 364.588928 78.528623 
L 365.592901 77.656946 
L 366.978401 76.206103 
L 369.456331 74.763737 
L 369.689972 74.178976 
L 369.797937 73.888364 
L 370.042065 73.59998 
L 371.071191 73.028754 
L 372.8425 72.1687 
L 373.12785 71.878024 
L 373.301667 71.294182 
L 373.383586 71.003992 
L 373.609557 70.716284 
L 374.611529 70.148003 
L 376.496779 69.293966 
L 376.8365 69.004442 
L 376.97748 68.713028 
L 376.992923 68.131318 
L 377.123926 67.844148 
L 377.464335 67.560377 
L 378.769521 66.998768 
L 380.188393 66.432557 
L 380.601037 66.144542 
L 380.74361 65.853803 
L 380.573527 64.985345 
L 380.83199 64.702905 
L 382.215643 64.146501 
L 383.900585 63.585864 
L 384.406656 63.29919 
L 384.55969 63.008514 
L 384.420392 62.715949 
L 383.982289 62.137386 
L 384.114782 61.855663 
L 384.646987 61.579103 
L 388.299953 60.466675 
L 388.503255 60.175641 
L 388.25626 59.881323 
L 387.302097 59.299477 
L 387.211117 59.018736 
L 387.680923 58.745564 
L 390.111694 58.207657 
L 392.495025 57.647611 
L 392.793856 57.353125 
L 392.339723 57.05281 
L 389.717347 56.183434 
L 390.025722 55.918561 
L 391.401602 55.661817 
L 398.024118 54.839695 
L 398.487273 54.528423 
L 396.901885 54.212051 
L 393.127511 53.918535 
L 387.508113 53.688069 
L 380.778078 53.568 
L 373.938867 53.605194 
L 368.069531 53.838743 
L 364.164867 54.293173 
L 362.870792 54.974924 
L 364.185153 55.872161 
L 371.084379 58.195231 
L 374.090385 59.543879 
L 375.616317 60.964602 
L 375.651881 62.42292 
L 374.029897 65.338721 
L 373.905266 66.748929 
L 374.646175 68.099625 
L 375.888771 69.373263 
L 376.843916 70.557786 
L 376.573169 71.650176 
L 374.287826 72.660038 
L 369.657581 73.610949 
L 362.990569 74.538971 
L 347.867039 76.498414 
L 342.370158 77.604296 
L 339.899619 78.819425 
L 340.846761 80.135715 
L 333.426002 81.700039 
L 361.759454 84.498379 
L 368.811561 85.809765 
L 367.292599 87.023548 
L 358.837419 88.138588 
L 337.121744 90.178969 
L 330.175492 91.19144 
L 326.821981 92.257098 
L 325.964352 93.403821 
L 326.411401 94.638323 
L 327.619816 95.945412 
L 329.58805 97.293204 
L 332.307215 98.641673 
L 335.21559 99.953418 
L 337.176797 101.202468 
L 336.882324 102.380329 
L 333.559993 103.496452 
L 327.500275 104.574589 
L 320.115964 105.645642 
L 313.409693 106.739478 
L 309.122801 107.877475 
L 307.974484 109.068301 
L 309.458202 110.306863 
L 312.190345 111.577413 
L 314.640694 112.85833 
L 315.72995 114.128167 
L 315.094292 115.370635 
L 312.976305 116.577877 
L 309.940138 117.751004 
L 303.30725 120.033835 
L 300.410018 121.170412 
L 298.009077 122.319938 
L 296.156265 123.489618 
L 294.843539 124.681542 
L 293.990348 125.893145 
L 292.401291 129.57851 
L 291.552582 130.798441 
L 290.361417 132.004596 
L 288.827919 133.195029 
L 286.997173 134.370727 
L 282.690578 136.695047 
L 278.094945 139.026336 
L 276.033588 140.20946 
L 274.350967 141.407761 
L 273.151265 142.619615 
L 272.4201 143.840097 
L 271.605059 146.278136 
L 270.930735 147.482146 
L 269.718761 148.671238 
L 267.856514 149.846487 
L 265.427779 151.012577 
L 260.021135 153.345809 
L 257.764092 154.525996 
L 256.146849 155.7195 
L 255.188894 156.924852 
L 254.702998 158.137306 
L 254.360287 159.350383 
L 253.80205 160.55785 
L 252.753403 161.75554 
L 251.103349 162.942452 
L 248.930863 164.120839 
L 244.049396 166.471072 
L 241.94878 167.652582 
L 240.342928 168.841933 
L 239.22985 170.038569 
L 236.798261 173.640171 
L 235.496407 174.833729 
L 233.783139 176.021929 
L 227.711752 179.574257 
L 226.053164 180.761671 
L 224.73348 181.951915 
L 221.506117 185.52453 
L 220.090994 186.711206 
L 218.381659 187.895699 
L 212.766951 191.452114 
L 211.281669 192.642151 
L 210.090275 193.833497 
L 208.07643 196.211362 
L 206.873678 197.394207 
L 205.352792 198.57257 
L 201.459593 200.923604 
L 199.415336 202.101867 
L 197.58948 203.284822 
L 196.124242 204.472627 
L 195.033068 205.663487 
L 193.362785 208.041447 
L 192.319254 209.22255 
L 190.886863 210.396959 
L 189.03155 211.566299 
L 182.61231 215.079548 
L 180.989766 216.26196 
L 179.840137 217.449991 
L 177.590332 221.011026 
L 176.375023 222.185667 
L 174.657174 223.353225 
L 170.164788 225.681014 
L 167.923876 226.85015 
L 166.063881 228.026914 
L 164.72668 229.211337 
L 163.868689 230.400775 
L 162.629017 232.776932 
L 161.640354 233.955913 
L 160.133357 235.127171 
L 158.119066 236.29285 
L 153.429576 238.625004 
L 151.392152 239.799535 
L 149.868966 240.981942 
L 148.885349 242.17034 
L 147.675347 244.548841 
L 146.819688 245.730577 
L 145.453613 246.904923 
L 143.525306 248.073637 
L 136.661726 251.587164 
L 135.05648 252.77175 
L 134.049615 253.962397 
L 124.503994 255.303708 
L 131.399589 256.491931 
L 136.847132 257.672274 
L 137.188713 258.843775 
L 132.968972 260.008852 
L 126.395513 261.172778 
L 120.525858 262.34137 
L 117.427803 263.519169 
L 117.358421 264.707324 
L 120.669692 267.100125 
L 120.917478 268.291437 
L 119.426918 269.471178 
L 116.664467 270.637574 
L 110.473836 272.946645 
L 108.0633 274.10543 
L 106.260848 275.277411 
L 104.997419 276.465513 
L 104.225864 277.666633 
L 103.905869 278.872176 
L 103.792132 281.252498 
L 103.092685 282.413035 
L 101.297191 283.555931 
L 98.221052 284.692651 
L 90.214654 287.008457 
L 87.353056 288.207402 
L 86.667766 289.427187 
L 88.611529 290.642665 
L 92.901607 291.813559 
L 98.681238 292.8897 
L 112.823273 295.08888 
L 112.938832 295.393301 
L 110.094398 295.488 
L 105.103103 295.400385 
L 99.570836 295.165262 
L 95.292367 294.817946 
L 93.543114 294.388168 
L 94.451393 293.898782 
L 99.196533 292.809179 
L 99.487719 292.244604 
L 96.956947 291.69936 
L 92.027592 291.205065 
L 80.193837 290.315271 
L 82.84055 290.247123 
L 115.010501 290.185331 
L 118.957494 289.950018 
L 118.439765 289.56761 
L 113.524362 289.058588 
L 95.87647 287.874012 
L 82.278694 286.901649 
L 81.749918 286.607574 
L 86.197591 286.443998 
L 120.452476 286.123213 
L 122.343345 285.856155 
L 119.639331 285.468669 
L 105.354086 284.455892 
L 92.748445 283.466637 
L 91.232554 283.091503 
L 93.507678 282.816938 
L 105.65284 282.492205 
L 117.320934 282.205467 
L 119.777354 281.981747 
L 119.47674 281.680335 
L 116.864278 281.306298 
L 105.158174 279.99836 
L 103.275473 279.601541 
L 103.305799 279.259071 
L 105.11443 278.973537 
L 111.812241 278.523467 
L 117.817422 278.090236 
L 119.247061 277.829533 
L 119.442425 277.526083 
L 118.569595 277.181671 
L 112.18806 275.662173 
L 111.855819 275.324792 
L 112.476136 275.021512 
L 113.982178 274.748636 
L 122.387688 273.718239 
L 123.134001 273.41423 
L 122.925716 273.08199 
L 121.908148 272.727812 
L 117.971297 271.650773 
L 117.773945 271.323918 
L 118.497347 271.021492 
L 122.022942 270.470737 
L 125.735912 269.926696 
L 126.710832 269.633898 
L 126.888675 269.321834 
L 126.376374 268.992624 
L 123.878121 267.972162 
L 123.798291 267.64671 
L 124.332126 267.335913 
L 126.725065 266.75074 
L 129.174363 266.179324 
L 129.885583 265.885133 
L 130.169442 265.581546 
L 130.126462 265.26869 
L 129.710734 264.626201 
L 129.651457 264.304202 
L 129.814112 263.986268 
L 130.198545 263.674436 
L 132.07745 262.774169 
L 133.781314 261.888687 
L 136.516369 261.549665 
L 133.265764 260.621896 
L 133.819872 260.309224 
L 137.192586 259.38769 
L 137.227793 259.089619 
L 136.893424 258.795306 
L 136.731248 258.502995 
L 137.145536 258.21025 
L 140.353505 257.311076 
L 140.698941 257.003435 
L 140.424626 256.694279 
L 139.433861 256.081541 
L 139.530428 255.781712 
L 140.228077 255.486735 
L 143.372795 254.614149 
L 143.858006 254.319536 
L 143.97266 254.020616 
L 143.830871 253.412175 
L 143.899495 253.106534 
L 144.140877 252.803016 
L 145.005539 252.207661 
L 148.244262 250.44402 
L 148.488123 249.837036 
L 148.70734 249.231873 
L 149.067805 248.932525 
L 152.146606 247.148106 
L 152.883974 246.238327 
L 157.839259 242.596001 
L 158.686248 241.981865 
L 159.178218 241.363009 
L 159.586447 240.747178 
L 160.34396 240.140258 
L 163.103187 238.62549 
L 163.507829 238.005119 
L 163.764534 237.385472 
L 164.044742 237.079045 
L 165.061476 236.473877 
L 166.90432 235.56925 
L 167.587928 234.956026 
L 168.11766 234.027397 
L 168.855384 233.413947 
L 171.361563 231.893415 
L 173.32463 230.047964 
L 175.036471 228.822283 
L 176.806481 227.295813 
L 178.555708 226.076339 
L 180.539163 224.253782 
L 182.437474 223.050272 
L 183.275454 222.141274 
L 183.857952 221.538323 
L 185.244198 220.642801 
L 186.57425 219.746567 
L 188.480334 217.949137 
L 188.959486 217.652096 
L 191.68121 217.318035 
L 188.812677 216.424263 
L 189.529038 216.125586 
L 192.436314 215.529296 
L 193.256563 215.232236 
L 193.289364 214.935852 
L 192.517794 214.343693 
L 192.67733 214.047119 
L 194.389079 213.452342 
L 195.244726 213.154617 
L 195.681727 212.857256 
L 195.70343 212.56064 
L 195.562434 212.264915 
L 195.584124 211.96993 
L 195.968694 211.675261 
L 198.579742 210.490595 
L 198.64848 209.894467 
L 198.730266 209.596942 
L 199.04892 209.300297 
L 201.710013 207.821271 
L 202.418127 206.924256 
L 203.625172 206.026697 
L 206.429691 203.93312 
L 207.727086 202.728664 
L 210.214922 200.919325 
L 211.154177 200.010956 
L 213.990504 197.891548 
L 214.991132 196.981333 
L 218.136426 194.558359 
L 219.193906 193.650475 
L 221.686409 191.837843 
L 222.985282 190.627085 
L 225.807802 188.518127 
L 226.802502 187.613659 
L 229.595183 185.510832 
L 230.578224 184.61034 
L 233.670176 182.220795 
L 234.715178 181.328028 
L 237.124437 179.550417 
L 238.435239 178.367332 
L 240.865258 176.601911 
L 242.154525 175.423728 
L 244.241348 173.95755 
L 246.776742 173.626576 
L 246.776742 173.626576 
" clip-path="url(#p2af533afca)" style="fill: none; stroke: #1f77b4; stroke-width: 1.5; stroke-linecap: square"/>
   </g>
   <g id="line2d_34">
    <path d="M 244.38374 173.589781 
L 245.878096 172.414378 
L 247.928654 170.949597 
L 249.715135 169.477614 
L 252.089546 167.715152 
L 253.921827 166.239661 
L 255.826883 164.764604 
L 257.231293 163.577365 
L 259.561545 161.799147 
L 261.336832 160.308303 
L 263.213022 158.818911 
L 264.932479 157.324085 
L 266.829141 155.83273 
L 268.483969 154.33731 
L 270.775474 152.550713 
L 272.138398 151.357285 
L 274.80224 149.279507 
L 276.257985 148.09123 
L 278.578707 146.317314 
L 280.041247 145.133968 
L 282.349326 143.367508 
L 283.786875 142.18982 
L 286.127692 140.434865 
L 287.540788 139.263596 
L 290.243774 137.226435 
L 291.735051 136.062266 
L 293.70921 134.613799 
L 295.482396 133.161945 
L 297.52458 131.714924 
L 299.700385 129.935127 
L 301.618586 128.48417 
L 303.017026 127.318048 
L 305.30358 125.571515 
L 306.630103 124.400701 
L 309.257639 122.35388 
L 310.606754 121.178166 
L 312.856254 119.418236 
L 314.196844 118.239508 
L 316.43271 116.476976 
L 317.728001 115.296987 
L 320.324484 113.241588 
L 321.718223 112.065357 
L 323.641872 110.601845 
L 325.370049 109.135969 
L 327.363289 107.679551 
L 329.069722 106.219428 
L 331.131216 104.770697 
L 332.799862 103.317003 
L 335.227102 101.586628 
L 336.529269 100.428092 
L 339.273504 98.416728 
L 340.233421 97.551295 
L 343.272301 95.259306 
L 344.299879 94.397568 
L 346.390126 92.970347 
L 347.910904 91.531919 
L 350.394039 89.816562 
L 351.539973 88.662391 
L 354.304054 86.617824 
L 355.1534 85.748516 
L 357.874477 83.734661 
L 358.652211 82.862455 
L 359.995649 81.99859 
L 360.87285 81.423901 
L 361.427111 80.843933 
L 362.102882 79.968508 
L 362.924042 79.39006 
L 364.377879 78.528623 
L 364.969398 77.949078 
L 365.571698 77.072248 
L 366.362914 76.493072 
L 368.294342 75.345331 
L 368.730037 74.763737 
L 369.082346 74.178976 
L 369.839706 73.59998 
L 371.943626 72.457264 
L 372.389935 71.878024 
L 372.645735 71.294182 
L 372.909282 71.003992 
L 373.890931 70.431299 
L 375.61935 69.580767 
L 376.099082 69.004442 
L 376.256002 68.421381 
L 376.464554 68.131318 
L 376.859729 67.844148 
L 379.765619 66.432557 
L 379.916092 66.144542 
L 380.015914 65.272083 
L 380.349557 64.985345 
L 381.697557 64.423916 
L 383.196425 63.867946 
L 383.639472 63.585864 
L 383.792608 63.29919 
L 383.53087 62.424662 
L 383.76734 62.137386 
L 384.344907 61.855663 
L 387.648367 60.751724 
L 387.818641 60.466675 
L 387.62538 60.175641 
L 386.962338 59.58785 
L 387.014454 59.299477 
L 387.557578 59.018736 
L 389.843228 58.47688 
L 391.864909 57.932353 
L 392.047148 57.647611 
L 391.588811 57.353125 
L 389.868891 56.753225 
L 389.513179 56.461757 
L 390.025735 56.183434 
L 391.506802 55.918561 
L 397.540691 55.131712 
L 397.531249 54.839695 
L 395.344365 54.528423 
L 390.792052 54.212051 
L 384.199085 53.918535 
L 376.359405 53.688069 
L 368.36473 53.568 
L 361.352467 53.605194 
L 356.24351 53.838743 
L 353.544923 54.293173 
L 353.271768 54.974924 
L 355.006023 55.872161 
L 365.460394 59.543879 
L 368.957625 60.964602 
L 381.750462 66.748929 
L 384.456032 68.099625 
L 386.077862 69.373263 
L 385.874878 70.557786 
L 383.253586 71.650176 
L 378.021106 72.660038 
L 370.55443 73.610949 
L 353.201482 75.487337 
L 346.217915 76.498414 
L 342.119213 77.604296 
L 341.556764 78.819425 
L 344.375669 80.135715 
L 350.36556 81.700039 
L 356.451629 83.11429 
L 361.418331 84.498379 
L 363.781734 85.809765 
L 362.711744 87.023548 
L 358.233132 88.138588 
L 351.201297 89.177104 
L 335.462381 91.19144 
L 329.825591 92.257098 
L 326.998467 93.403821 
L 327.069766 94.638323 
L 329.396579 95.945412 
L 336.010227 98.641673 
L 337.812468 99.953418 
L 337.543397 101.202468 
L 335.119131 102.380329 
L 331.019435 103.496452 
L 321.343098 105.645642 
L 317.553548 106.739478 
L 315.197058 107.877475 
L 314.303465 109.068301 
L 314.517247 110.306863 
L 315.241815 111.577413 
L 315.829289 112.85833 
L 315.757327 114.128167 
L 314.746174 115.370635 
L 312.793301 116.577877 
L 310.129067 117.751004 
L 304.151333 120.033835 
L 301.536386 121.170412 
L 299.453077 122.319938 
L 297.935574 123.489618 
L 296.899127 124.681542 
L 296.185171 125.893145 
L 294.991887 128.349548 
L 294.190532 129.57851 
L 293.099132 130.798441 
L 291.658486 132.004596 
L 289.860377 133.195029 
L 285.444084 135.535442 
L 280.869558 137.856476 
L 278.953755 139.026336 
L 277.45167 140.20946 
L 276.378087 141.407761 
L 275.636906 142.619615 
L 274.335072 145.062115 
L 273.307985 146.278136 
L 271.813076 147.482146 
L 269.837433 148.671238 
L 260.813145 153.345809 
L 259.377643 154.525996 
L 258.411433 155.7195 
L 256.350109 159.350383 
L 255.166435 160.55785 
L 253.535646 161.75554 
L 249.329765 164.120839 
L 245.195014 166.471072 
L 243.557367 167.652582 
L 242.233397 168.841933 
L 238.889326 172.441438 
L 237.537304 173.640171 
L 234.321603 176.021929 
L 231.045917 178.38965 
L 228.254713 180.761671 
L 225.598234 183.143709 
L 222.439392 185.52453 
L 217.292129 189.079564 
L 215.874958 190.264615 
L 213.613162 192.642151 
L 212.542248 193.833497 
L 211.304395 195.023983 
L 209.787739 196.211362 
L 207.97389 197.394207 
L 202.014625 200.923604 
L 200.455066 202.101867 
L 199.274381 203.284822 
L 196.758059 206.854253 
L 195.553132 208.041447 
L 193.917002 209.22255 
L 191.886777 210.396959 
L 187.407732 212.73397 
L 185.454483 213.903972 
L 183.930296 215.079548 
L 182.847646 216.26196 
L 180.437238 219.828598 
L 179.126751 221.011026 
L 177.363922 222.185667 
L 169.08375 226.85015 
L 167.729787 228.026914 
L 166.740786 229.211337 
L 165.015005 231.590836 
L 163.802729 232.776932 
L 162.177891 233.955913 
L 158.016376 236.29285 
L 155.915043 237.457267 
L 154.110317 238.625004 
L 152.71756 239.799535 
L 151.695831 240.981942 
L 149.949624 243.360865 
L 148.723038 244.548841 
L 147.054004 245.730577 
L 142.708581 248.073637 
L 140.520734 249.24053 
L 138.693219 250.410516 
L 137.379744 251.587164 
L 136.5489 252.77175 
L 135.260903 255.303708 
L 134.182032 256.491931 
L 132.502568 257.672274 
L 130.256789 258.843775 
L 125.192379 261.172778 
L 123.141786 262.34137 
L 121.786268 263.519169 
L 121.132452 264.707324 
L 120.746515 267.100125 
L 120.113698 268.291437 
L 118.696559 269.471178 
L 116.425627 270.637574 
L 107.964548 274.10543 
L 106.298999 275.277411 
L 105.695246 276.465513 
L 105.934507 277.666633 
L 106.460774 278.872176 
L 106.549562 280.070762 
L 105.555273 281.252498 
L 103.156498 282.413035 
L 99.519664 283.555931 
L 95.315226 284.692651 
L 91.570987 285.838777 
L 89.397253 287.008457 
L 89.660711 288.207402 
L 92.708422 289.427187 
L 98.227882 290.642665 
L 105.294338 291.813559 
L 118.769406 293.820193 
L 122.75957 294.562216 
L 124.071612 295.08888 
L 122.861979 295.393301 
L 119.829037 295.488 
L 115.945678 295.400385 
L 112.122501 295.165262 
L 108.912837 294.817946 
L 104.027289 293.898782 
L 101.234002 293.367103 
L 97.366266 292.809179 
L 92.208086 292.244604 
L 73.832727 290.494355 
L 75.800292 290.315271 
L 81.626955 290.247123 
L 116.971606 290.185331 
L 119.311511 289.950018 
L 116.788551 289.56761 
L 110.045633 289.058588 
L 83.661124 287.332705 
L 79.998218 286.901649 
L 81.014691 286.607574 
L 86.384621 286.443998 
L 117.389219 286.123213 
L 118.692418 285.856155 
L 116.172949 285.468669 
L 94.003376 283.466637 
L 92.811048 283.091503 
L 94.619883 282.816938 
L 104.222029 282.492205 
L 113.632047 282.205467 
L 115.703589 281.981747 
L 115.574637 281.680335 
L 113.592368 281.306298 
L 104.676506 279.99836 
L 103.432724 279.601541 
L 103.76796 279.259071 
L 105.557274 278.973537 
L 116.646169 278.090236 
L 117.677882 277.829533 
L 117.540024 277.526083 
L 116.430902 277.181671 
L 111.559906 276.029791 
L 110.91278 275.662173 
L 111.202194 275.324792 
L 112.400167 275.021512 
L 116.473219 274.496009 
L 120.145019 273.994377 
L 120.987305 273.718239 
L 121.011783 273.41423 
L 120.34237 273.08199 
L 117.343398 271.999672 
L 117.136121 271.650773 
L 117.631334 271.323918 
L 118.76264 271.021492 
L 124.394423 269.926696 
L 124.802684 269.633898 
L 124.663513 269.321834 
L 122.631549 267.972162 
L 122.799568 267.64671 
L 123.400364 267.335913 
L 125.474097 266.75074 
L 127.6146 266.179324 
L 128.360708 265.885133 
L 128.81033 265.581546 
L 128.98049 265.26869 
L 128.937128 264.949056 
L 128.533709 263.986268 
L 128.634411 263.674436 
L 128.960077 263.36917 
L 130.27905 262.774169 
L 132.865085 261.888687 
L 133.527375 261.549665 
L 133.840018 261.243723 
L 133.899651 260.934018 
L 133.521093 259.998189 
L 133.657345 259.690669 
L 134.089077 259.38769 
L 135.749007 258.795306 
L 137.652638 258.21025 
L 138.314361 257.91485 
L 138.659503 257.615206 
L 138.6998 257.311076 
L 138.203147 256.38621 
L 138.342553 256.081541 
L 138.789818 255.781712 
L 140.424906 255.195389 
L 142.178562 254.614149 
L 142.770909 254.319536 
L 143.101468 254.020616 
L 143.208968 253.717578 
L 143.259026 252.803016 
L 143.526243 252.503245 
L 144.588951 251.915587 
L 146.516665 251.041011 
L 147.369795 250.44402 
L 149.320489 248.635367 
L 151.457144 247.148106 
L 153.966738 245.629464 
L 154.459454 245.020971 
L 154.806355 244.413438 
L 155.490759 243.807847 
L 157.33482 242.90037 
L 158.416157 242.28987 
L 158.914085 241.672651 
L 159.289942 240.747178 
L 160.089026 240.140258 
L 162.420484 238.932524 
L 162.998936 238.315975 
L 163.454114 237.385472 
L 164.160613 236.7754 
L 166.654407 235.263841 
L 169.021874 233.109768 
L 170.655994 231.893415 
L 175.419165 227.904971 
L 177.487101 226.38189 
L 178.992416 224.85685 
L 181.842049 222.747503 
L 182.796442 221.839138 
L 184.611043 220.642801 
L 185.749153 219.746567 
L 187.144204 218.545411 
L 189.670777 216.722743 
L 190.632655 215.827137 
L 191.97193 214.935852 
L 193.282337 214.047119 
L 195.325269 212.264915 
L 197.536778 210.78812 
L 199.225438 209.300297 
L 202.179627 207.223981 
L 203.629552 206.026697 
L 206.034692 204.234324 
L 207.933188 202.728664 
L 209.439609 201.524684 
L 211.26514 200.010956 
L 212.810281 198.802224 
L 214.854675 196.981333 
L 216.814622 195.469483 
L 218.458766 193.952406 
L 220.813327 192.141141 
L 222.164702 190.928808 
L 224.894488 188.820273 
L 226.351005 187.613659 
L 228.341326 186.112708 
L 230.153509 184.61034 
L 232.118244 183.117925 
L 233.859056 181.62482 
L 236.241245 179.847196 
L 237.653749 178.662053 
L 240.077658 176.896901 
L 241.502143 175.717506 
L 244.342627 173.626576 
L 244.342627 173.626576 
" clip-path="url(#p2af533afca)" style="fill: none; stroke: #ff7f0e; stroke-opacity: 0.7; stroke-width: 1.5; stroke-linecap: square"/>
   </g>
   <g id="patch_3">
    <path d="M 57.6 307.584 
L 57.6 41.472 
" style="fill: none; stroke: #000000; stroke-width: 0.8; stroke-linejoin: miter; stroke-linecap: square"/>
   </g>
   <g id="patch_4">
    <path d="M 414.72 307.584 
L 414.72 41.472 
" style="fill: none; stroke: #000000; stroke-width: 0.8; stroke-linejoin: miter; stroke-linecap: square"/>
   </g>
   <g id="patch_5">
    <path d="M 57.6 307.584 
L 414.72 307.584 
" style="fill: none; stroke: #000000; stroke-width: 0.8; stroke-linejoin: miter; stroke-linecap: square"/>
   </g>
   <g id="patch_6">
    <path d="M 57.6 41.472 
L 414.72 41.472 
" style="fill: none; stroke: #000000; stroke-width: 0.8; stroke-linejoin: miter; stroke-linecap: square"/>
   </g>
   <g id="text_19">
    <!-- Best Model - Predicted vs Target -->
    <g transform="translate(139.75125 35.472) scale(0.12 -0.12)">
     <defs>
      <path id="DejaVuSans-42" d="M 1259 2228 
L 1259 519 
L 2272 519 
Q 2781 519 3026 730 
Q 3272 941 3272 1375 
Q 3272 1813 3026 2020 
Q 2781 2228 2272 2228 
L 1259 2228 
z
M 1259 4147 
L 1259 2741 
L 2194 2741 
Q 2656 2741 2882 2914 
Q 3109 3088 3109 3444 
Q 3109 3797 2882 3972 
Q 2656 4147 2194 4147 
L 1259 4147 
z
M 628 4666 
L 2241 4666 
Q 2963 4666 3353 4366 
Q 3744 4066 3744 3513 
Q 3744 3084 3544 2831 
Q 3344 2578 2956 2516 
Q 3422 2416 3680 2098 
Q 3938 1781 3938 1306 
Q 3938 681 3513 340 
Q 3088 0 2303 0 
L 628 0 
L 628 4666 
z
" transform="scale(0.015625)"/>
      <path id="DejaVuSans-73" d="M 2834 3397 
L 2834 2853 
Q 2591 2978 2328 3040 
Q 2066 3103 1784 3103 
Q 1356 3103 1142 2972 
Q 928 2841 928 2578 
Q 928 2378 1081 2264 
Q 1234 2150 1697 2047 
L 1894 2003 
Q 2506 1872 2764 1633 
Q 3022 1394 3022 966 
Q 3022 478 2636 193 
Q 2250 -91 1575 -91 
Q 1294 -91 989 -36 
Q 684 19 347 128 
L 347 722 
Q 666 556 975 473 
Q 1284 391 1588 391 
Q 1994 391 2212 530 
Q 2431 669 2431 922 
Q 2431 1156 2273 1281 
Q 2116 1406 1581 1522 
L 1381 1569 
Q 847 1681 609 1914 
Q 372 2147 372 2553 
Q 372 3047 722 3315 
Q 1072 3584 1716 3584 
Q 2034 3584 2315 3537 
Q 2597 3491 2834 3397 
z
" transform="scale(0.015625)"/>
      <path id="DejaVuSans-74" d="M 1172 4494 
L 1172 3500 
L 2356 3500 
L 2356 3053 
L 1172 3053 
L 1172 1153 
Q 1172 725 1289 603 
Q 1406 481 1766 481 
L 2356 481 
L 2356 0 
L 1766 0 
Q 1100 0 847 248 
Q 594 497 594 1153 
L 594 3053 
L 172 3053 
L 172 3500 
L 594 3500 
L 594 4494 
L 1172 4494 
z
" transform="scale(0.015625)"/>
      <path id="DejaVuSans-20" transform="scale(0.015625)"/>
      <path id="DejaVuSans-4d" d="M 628 4666 
L 1569 4666 
L 2759 1491 
L 3956 4666 
L 4897 4666 
L 4897 0 
L 4281 0 
L 4281 4097 
L 3078 897 
L 2444 897 
L 1241 4097 
L 1241 0 
L 628 0 
L 628 4666 
z
" transform="scale(0.015625)"/>
      <path id="DejaVuSans-6f" d="M 1959 3097 
Q 1497 3097 1228 2736 
Q 959 2375 959 1747 
Q 959 1119 1226 758 
Q 1494 397 1959 397 
Q 2419 397 2687 759 
Q 2956 1122 2956 1747 
Q 2956 2369 2687 2733 
Q 2419 3097 1959 3097 
z
M 1959 3584 
Q 2709 3584 3137 3096 
Q 3566 2609 3566 1747 
Q 3566 888 3137 398 
Q 2709 -91 1959 -91 
Q 1206 -91 779 398 
Q 353 888 353 1747 
Q 353 2609 779 3096 
Q 1206 3584 1959 3584 
z
" transform="scale(0.015625)"/>
      <path id="DejaVuSans-2d" d="M 313 2009 
L 1997 2009 
L 1997 1497 
L 313 1497 
L 313 2009 
z
" transform="scale(0.015625)"/>
      <path id="DejaVuSans-50" d="M 1259 4147 
L 1259 2394 
L 2053 2394 
Q 2494 2394 2734 2622 
Q 2975 2850 2975 3272 
Q 2975 3691 2734 3919 
Q 2494 4147 2053 4147 
L 1259 4147 
z
M 628 4666 
L 2053 4666 
Q 2838 4666 3239 4311 
Q 3641 3956 3641 3272 
Q 3641 2581 3239 2228 
Q 2838 1875 2053 1875 
L 1259 1875 
L 1259 0 
L 628 0 
L 628 4666 
z
" transform="scale(0.015625)"/>
      <path id="DejaVuSans-72" d="M 2631 2963 
Q 2534 3019 2420 3045 
Q 2306 3072 2169 3072 
Q 1681 3072 1420 2755 
Q 1159 2438 1159 1844 
L 1159 0 
L 581 0 
L 581 3500 
L 1159 3500 
L 1159 2956 
Q 1341 3275 1631 3429 
Q 1922 3584 2338 3584 
Q 2397 3584 2469 3576 
Q 2541 3569 2628 3553 
L 2631 2963 
z
" transform="scale(0.015625)"/>
      <path id="DejaVuSans-69" d="M 603 3500 
L 1178 3500 
L 1178 0 
L 603 0 
L 603 3500 
z
M 603 4863 
L 1178 4863 
L 1178 4134 
L 603 4134 
L 603 4863 
z
" transform="scale(0.015625)"/>
      <path id="DejaVuSans-63" d="M 3122 3366 
L 3122 2828 
Q 2878 2963 2633 3030 
Q 2388 3097 2138 3097 
Q 1578 3097 1268 2742 
Q 959 2388 959 1747 
Q 959 1106 1268 751 
Q 1578 397 2138 397 
Q 2388 397 2633 464 
Q 2878 531 3122 666 
L 3122 134 
Q 2881 22 2623 -34 
Q 2366 -91 2075 -91 
Q 1284 -91 818 406 
Q 353 903 353 1747 
Q 353 2603 823 3093 
Q 1294 3584 2113 3584 
Q 2378 3584 2631 3529 
Q 2884 3475 3122 3366 
z
" transform="scale(0.015625)"/>
      <path id="DejaVuSans-76" d="M 191 3500 
L 800 3500 
L 1894 563 
L 2988 3500 
L 3597 3500 
L 2284 0 
L 1503 0 
L 191 3500 
z
" transform="scale(0.015625)"/>
      <path id="DejaVuSans-54" d="M -19 4666 
L 3928 4666 
L 3928 4134 
L 2272 4134 
L 2272 0 
L 1638 0 
L 1638 4134 
L -19 4134 
L -19 4666 
z
" transform="scale(0.015625)"/>
      <path id="DejaVuSans-67" d="M 2906 1791 
Q 2906 2416 2648 2759 
Q 2391 3103 1925 3103 
Q 1463 3103 1205 2759 
Q 947 2416 947 1791 
Q 947 1169 1205 825 
Q 1463 481 1925 481 
Q 2391 481 2648 825 
Q 2906 1169 2906 1791 
z
M 3481 434 
Q 3481 -459 3084 -895 
Q 2688 -1331 1869 -1331 
Q 1566 -1331 1297 -1286 
Q 1028 -1241 775 -1147 
L 775 -588 
Q 1028 -725 1275 -790 
Q 1522 -856 1778 -856 
Q 2344 -856 2625 -561 
Q 2906 -266 2906 331 
L 2906 616 
Q 2728 306 2450 153 
Q 2172 0 1784 0 
Q 1141 0 747 490 
Q 353 981 353 1791 
Q 353 2603 747 3093 
Q 1141 3584 1784 3584 
Q 2172 3584 2450 3431 
Q 2728 3278 2906 2969 
L 2906 3500 
L 3481 3500 
L 3481 434 
z
" transform="scale(0.015625)"/>
     </defs>
     <use xlink:href="#DejaVuSans-42"/>
     <use xlink:href="#DejaVuSans-65" transform="translate(68.603516 0)"/>
     <use xlink:href="#DejaVuSans-73" transform="translate(130.126953 0)"/>
     <use xlink:href="#DejaVuSans-74" transform="translate(182.226562 0)"/>
     <use xlink:href="#DejaVuSans-20" transform="translate(221.435547 0)"/>
     <use xlink:href="#DejaVuSans-4d" transform="translate(253.222656 0)"/>
     <use xlink:href="#DejaVuSans-6f" transform="translate(339.501953 0)"/>
     <use xlink:href="#DejaVuSans-64" transform="translate(400.683594 0)"/>
     <use xlink:href="#DejaVuSans-65" transform="translate(464.160156 0)"/>
     <use xlink:href="#DejaVuSans-6c" transform="translate(525.683594 0)"/>
     <use xlink:href="#DejaVuSans-20" transform="translate(553.466797 0)"/>
     <use xlink:href="#DejaVuSans-2d" transform="translate(585.253906 0)"/>
     <use xlink:href="#DejaVuSans-20" transform="translate(621.337891 0)"/>
     <use xlink:href="#DejaVuSans-50" transform="translate(653.125 0)"/>
     <use xlink:href="#DejaVuSans-72" transform="translate(711.677734 0)"/>
     <use xlink:href="#DejaVuSans-65" transform="translate(750.541016 0)"/>
     <use xlink:href="#DejaVuSans-64" transform="translate(812.064453 0)"/>
     <use xlink:href="#DejaVuSans-69" transform="translate(875.541016 0)"/>
     <use xlink:href="#DejaVuSans-63" transform="translate(903.324219 0)"/>
     <use xlink:href="#DejaVuSans-74" transform="translate(958.304688 0)"/>
     <use xlink:href="#DejaVuSans-65" transform="translate(997.513672 0)"/>
     <use xlink:href="#DejaVuSans-64" transform="translate(1059.037109 0)"/>
     <use xlink:href="#DejaVuSans-20" transform="translate(1122.513672 0)"/>
     <use xlink:href="#DejaVuSans-76" transform="translate(1154.300781 0)"/>
     <use xlink:href="#DejaVuSans-73" transform="translate(1213.480469 0)"/>
     <use xlink:href="#DejaVuSans-20" transform="translate(1265.580078 0)"/>
     <use xlink:href="#DejaVuSans-54" transform="translate(1297.367188 0)"/>
     <use xlink:href="#DejaVuSans-61" transform="translate(1341.951172 0)"/>
     <use xlink:href="#DejaVuSans-72" transform="translate(1403.230469 0)"/>
     <use xlink:href="#DejaVuSans-67" transform="translate(1442.59375 0)"/>
     <use xlink:href="#DejaVuSans-65" transform="translate(1506.070312 0)"/>
     <use xlink:href="#DejaVuSans-74" transform="translate(1567.59375 0)"/>
    </g>
   </g>
   <g id="legend_1">
    <g id="patch_7">
     <path d="M 64.6 78.82825 
L 181.128125 78.82825 
Q 183.128125 78.82825 183.128125 76.82825 
L 183.128125 48.472 
Q 183.128125 46.472 181.128125 46.472 
L 64.6 46.472 
Q 62.6 46.472 62.6 48.472 
L 62.6 76.82825 
Q 62.6 78.82825 64.6 78.82825 
z
" style="fill: #ffffff; opacity: 0.8; stroke: #cccccc; stroke-linejoin: miter"/>
    </g>
    <g id="line2d_35">
     <path d="M 66.6 54.570437 
L 76.6 54.570437 
L 86.6 54.570437 
" style="fill: none; stroke: #1f77b4; stroke-width: 1.5; stroke-linecap: square"/>
    </g>
    <g id="text_20">
     <!-- Pred: Sample 1 -->
     <g transform="translate(94.6 58.070437) scale(0.1 -0.1)">
      <defs>
       <path id="DejaVuSans-3a" d="M 750 794 
L 1409 794 
L 1409 0 
L 750 0 
L 750 794 
z
M 750 3309 
L 1409 3309 
L 1409 2516 
L 750 2516 
L 750 3309 
z
" transform="scale(0.015625)"/>
       <path id="DejaVuSans-53" d="M 3425 4513 
L 3425 3897 
Q 3066 4069 2747 4153 
Q 2428 4238 2131 4238 
Q 1616 4238 1336 4038 
Q 1056 3838 1056 3469 
Q 1056 3159 1242 3001 
Q 1428 2844 1947 2747 
L 2328 2669 
Q 3034 2534 3370 2195 
Q 3706 1856 3706 1288 
Q 3706 609 3251 259 
Q 2797 -91 1919 -91 
Q 1588 -91 1214 -16 
Q 841 59 441 206 
L 441 856 
Q 825 641 1194 531 
Q 1563 422 1919 422 
Q 2459 422 2753 634 
Q 3047 847 3047 1241 
Q 3047 1584 2836 1778 
Q 2625 1972 2144 2069 
L 1759 2144 
Q 1053 2284 737 2584 
Q 422 2884 422 3419 
Q 422 4038 858 4394 
Q 1294 4750 2059 4750 
Q 2388 4750 2728 4690 
Q 3069 4631 3425 4513 
z
" transform="scale(0.015625)"/>
       <path id="DejaVuSans-6d" d="M 3328 2828 
Q 3544 3216 3844 3400 
Q 4144 3584 4550 3584 
Q 5097 3584 5394 3201 
Q 5691 2819 5691 2113 
L 5691 0 
L 5113 0 
L 5113 2094 
Q 5113 2597 4934 2840 
Q 4756 3084 4391 3084 
Q 3944 3084 3684 2787 
Q 3425 2491 3425 1978 
L 3425 0 
L 2847 0 
L 2847 2094 
Q 2847 2600 2669 2842 
Q 2491 3084 2119 3084 
Q 1678 3084 1418 2786 
Q 1159 2488 1159 1978 
L 1159 0 
L 581 0 
L 581 3500 
L 1159 3500 
L 1159 2956 
Q 1356 3278 1631 3431 
Q 1906 3584 2284 3584 
Q 2666 3584 2933 3390 
Q 3200 3197 3328 2828 
z
" transform="scale(0.015625)"/>
       <path id="DejaVuSans-70" d="M 1159 525 
L 1159 -1331 
L 581 -1331 
L 581 3500 
L 1159 3500 
L 1159 2969 
Q 1341 3281 1617 3432 
Q 1894 3584 2278 3584 
Q 2916 3584 3314 3078 
Q 3713 2572 3713 1747 
Q 3713 922 3314 415 
Q 2916 -91 2278 -91 
Q 1894 -91 1617 61 
Q 1341 213 1159 525 
z
M 3116 1747 
Q 3116 2381 2855 2742 
Q 2594 3103 2138 3103 
Q 1681 3103 1420 2742 
Q 1159 2381 1159 1747 
Q 1159 1113 1420 752 
Q 1681 391 2138 391 
Q 2594 391 2855 752 
Q 3116 1113 3116 1747 
z
" transform="scale(0.015625)"/>
       <path id="DejaVuSans-31" d="M 794 531 
L 1825 531 
L 1825 4091 
L 703 3866 
L 703 4441 
L 1819 4666 
L 2450 4666 
L 2450 531 
L 3481 531 
L 3481 0 
L 794 0 
L 794 531 
z
" transform="scale(0.015625)"/>
      </defs>
      <use xlink:href="#DejaVuSans-50"/>
      <use xlink:href="#DejaVuSans-72" transform="translate(58.552734 0)"/>
      <use xlink:href="#DejaVuSans-65" transform="translate(97.416016 0)"/>
      <use xlink:href="#DejaVuSans-64" transform="translate(158.939453 0)"/>
      <use xlink:href="#DejaVuSans-3a" transform="translate(222.416016 0)"/>
      <use xlink:href="#DejaVuSans-20" transform="translate(256.107422 0)"/>
      <use xlink:href="#DejaVuSans-53" transform="translate(287.894531 0)"/>
      <use xlink:href="#DejaVuSans-61" transform="translate(351.371094 0)"/>
      <use xlink:href="#DejaVuSans-6d" transform="translate(412.650391 0)"/>
      <use xlink:href="#DejaVuSans-70" transform="translate(510.0625 0)"/>
      <use xlink:href="#DejaVuSans-6c" transform="translate(573.539062 0)"/>
      <use xlink:href="#DejaVuSans-65" transform="translate(601.322266 0)"/>
      <use xlink:href="#DejaVuSans-20" transform="translate(662.845703 0)"/>
      <use xlink:href="#DejaVuSans-31" transform="translate(694.632812 0)"/>
     </g>
    </g>
    <g id="line2d_36">
     <path d="M 66.6 69.248562 
L 76.6 69.248562 
L 86.6 69.248562 
" style="fill: none; stroke: #ff7f0e; stroke-opacity: 0.7; stroke-width: 1.5; stroke-linecap: square"/>
    </g>
    <g id="text_21">
     <!-- Target: Sample 1 -->
     <g transform="translate(94.6 72.748562) scale(0.1 -0.1)">
      <use xlink:href="#DejaVuSans-54"/>
      <use xlink:href="#DejaVuSans-61" transform="translate(44.583984 0)"/>
      <use xlink:href="#DejaVuSans-72" transform="translate(105.863281 0)"/>
      <use xlink:href="#DejaVuSans-67" transform="translate(145.226562 0)"/>
      <use xlink:href="#DejaVuSans-65" transform="translate(208.703125 0)"/>
      <use xlink:href="#DejaVuSans-74" transform="translate(270.226562 0)"/>
      <use xlink:href="#DejaVuSans-3a" transform="translate(309.435547 0)"/>
      <use xlink:href="#DejaVuSans-20" transform="translate(343.126953 0)"/>
      <use xlink:href="#DejaVuSans-53" transform="translate(374.914062 0)"/>
      <use xlink:href="#DejaVuSans-61" transform="translate(438.390625 0)"/>
      <use xlink:href="#DejaVuSans-6d" transform="translate(499.669922 0)"/>
      <use xlink:href="#DejaVuSans-70" transform="translate(597.082031 0)"/>
      <use xlink:href="#DejaVuSans-6c" transform="translate(660.558594 0)"/>
      <use xlink:href="#DejaVuSans-65" transform="translate(688.341797 0)"/>
      <use xlink:href="#DejaVuSans-20" transform="translate(749.865234 0)"/>
      <use xlink:href="#DejaVuSans-31" transform="translate(781.652344 0)"/>
     </g>
    </g>
   </g>
  </g>
 </g>
 <defs>
  <clipPath id="p2af533afca">
   <rect x="57.6" y="41.472" width="357.12" height="266.112"/>
  </clipPath>
 </defs>
</svg>
