<?xml version="1.0" encoding="utf-8" standalone="no"?>
<!DOCTYPE svg PUBLIC "-//W3C//DTD SVG 1.1//EN"
  "http://www.w3.org/Graphics/SVG/1.1/DTD/svg11.dtd">
<svg xmlns:xlink="http://www.w3.org/1999/xlink" width="460.8pt" height="345.6pt" viewBox="0 0 460.8 345.6" xmlns="http://www.w3.org/2000/svg" version="1.1">
 <metadata>
  <rdf:RDF xmlns:dc="http://purl.org/dc/elements/1.1/" xmlns:cc="http://creativecommons.org/ns#" xmlns:rdf="http://www.w3.org/1999/02/22-rdf-syntax-ns#">
   <cc:Work>
    <dc:type rdf:resource="http://purl.org/dc/dcmitype/StillImage"/>
    <dc:date>2025-04-15T23:43:10.621544</dc:date>
    <dc:format>image/svg+xml</dc:format>
    <dc:creator>
     <cc:Agent>
      <dc:title>Matplotlib v3.10.0, https://matplotlib.org/</dc:title>
     </cc:Agent>
    </dc:creator>
   </cc:Work>
  </rdf:RDF>
 </metadata>
 <defs>
  <style type="text/css">*{stroke-linejoin: round; stroke-linecap: butt}</style>
 </defs>
 <g id="figure_1">
  <g id="patch_1">
   <path d="M 0 345.6 
L 460.8 345.6 
L 460.8 0 
L 0 0 
z
" style="fill: #ffffff"/>
  </g>
  <g id="axes_1">
   <g id="patch_2">
    <path d="M 57.6 307.584 
L 414.72 307.584 
L 414.72 41.472 
L 57.6 41.472 
z
" style="fill: #ffffff"/>
   </g>
   <g id="matplotlib.axis_1">
    <g id="xtick_1">
     <g id="line2d_1">
      <path d="M 97.59058 307.584 
L 97.59058 41.472 
" clip-path="url(#p64ae3c3f1e)" style="fill: none; stroke: #b0b0b0; stroke-opacity: 0.5; stroke-width: 0.8; stroke-linecap: square"/>
     </g>
     <g id="line2d_2">
      <defs>
       <path id="mb1d09d9055" d="M 0 0 
L 0 3.5 
" style="stroke: #000000; stroke-width: 0.8"/>
      </defs>
      <g>
       <use xlink:href="#mb1d09d9055" x="97.59058" y="307.584" style="stroke: #000000; stroke-width: 0.8"/>
      </g>
     </g>
     <g id="text_1">
      <!-- −1.0 -->
      <g transform="translate(85.449173 322.182437) scale(0.1 -0.1)">
       <defs>
        <path id="DejaVuSans-2212" d="M 678 2272 
L 4684 2272 
L 4684 1741 
L 678 1741 
L 678 2272 
z
" transform="scale(0.015625)"/>
        <path id="DejaVuSans-31" d="M 794 531 
L 1825 531 
L 1825 4091 
L 703 3866 
L 703 4441 
L 1819 4666 
L 2450 4666 
L 2450 531 
L 3481 531 
L 3481 0 
L 794 0 
L 794 531 
z
" transform="scale(0.015625)"/>
        <path id="DejaVuSans-2e" d="M 684 794 
L 1344 794 
L 1344 0 
L 684 0 
L 684 794 
z
" transform="scale(0.015625)"/>
        <path id="DejaVuSans-30" d="M 2034 4250 
Q 1547 4250 1301 3770 
Q 1056 3291 1056 2328 
Q 1056 1369 1301 889 
Q 1547 409 2034 409 
Q 2525 409 2770 889 
Q 3016 1369 3016 2328 
Q 3016 3291 2770 3770 
Q 2525 4250 2034 4250 
z
M 2034 4750 
Q 2819 4750 3233 4129 
Q 3647 3509 3647 2328 
Q 3647 1150 3233 529 
Q 2819 -91 2034 -91 
Q 1250 -91 836 529 
Q 422 1150 422 2328 
Q 422 3509 836 4129 
Q 1250 4750 2034 4750 
z
" transform="scale(0.015625)"/>
       </defs>
       <use xlink:href="#DejaVuSans-2212"/>
       <use xlink:href="#DejaVuSans-31" transform="translate(83.789062 0)"/>
       <use xlink:href="#DejaVuSans-2e" transform="translate(147.412109 0)"/>
       <use xlink:href="#DejaVuSans-30" transform="translate(179.199219 0)"/>
      </g>
     </g>
    </g>
    <g id="xtick_2">
     <g id="line2d_3">
      <path d="M 166.779482 307.584 
L 166.779482 41.472 
" clip-path="url(#p64ae3c3f1e)" style="fill: none; stroke: #b0b0b0; stroke-opacity: 0.5; stroke-width: 0.8; stroke-linecap: square"/>
     </g>
     <g id="line2d_4">
      <g>
       <use xlink:href="#mb1d09d9055" x="166.779482" y="307.584" style="stroke: #000000; stroke-width: 0.8"/>
      </g>
     </g>
     <g id="text_2">
      <!-- −0.5 -->
      <g transform="translate(154.638075 322.182437) scale(0.1 -0.1)">
       <defs>
        <path id="DejaVuSans-35" d="M 691 4666 
L 3169 4666 
L 3169 4134 
L 1269 4134 
L 1269 2991 
Q 1406 3038 1543 3061 
Q 1681 3084 1819 3084 
Q 2600 3084 3056 2656 
Q 3513 2228 3513 1497 
Q 3513 744 3044 326 
Q 2575 -91 1722 -91 
Q 1428 -91 1123 -41 
Q 819 9 494 109 
L 494 744 
Q 775 591 1075 516 
Q 1375 441 1709 441 
Q 2250 441 2565 725 
Q 2881 1009 2881 1497 
Q 2881 1984 2565 2268 
Q 2250 2553 1709 2553 
Q 1456 2553 1204 2497 
Q 953 2441 691 2322 
L 691 4666 
z
" transform="scale(0.015625)"/>
       </defs>
       <use xlink:href="#DejaVuSans-2212"/>
       <use xlink:href="#DejaVuSans-30" transform="translate(83.789062 0)"/>
       <use xlink:href="#DejaVuSans-2e" transform="translate(147.412109 0)"/>
       <use xlink:href="#DejaVuSans-35" transform="translate(179.199219 0)"/>
      </g>
     </g>
    </g>
    <g id="xtick_3">
     <g id="line2d_5">
      <path d="M 235.968383 307.584 
L 235.968383 41.472 
" clip-path="url(#p64ae3c3f1e)" style="fill: none; stroke: #b0b0b0; stroke-opacity: 0.5; stroke-width: 0.8; stroke-linecap: square"/>
     </g>
     <g id="line2d_6">
      <g>
       <use xlink:href="#mb1d09d9055" x="235.968383" y="307.584" style="stroke: #000000; stroke-width: 0.8"/>
      </g>
     </g>
     <g id="text_3">
      <!-- 0.0 -->
      <g transform="translate(228.016821 322.182437) scale(0.1 -0.1)">
       <use xlink:href="#DejaVuSans-30"/>
       <use xlink:href="#DejaVuSans-2e" transform="translate(63.623047 0)"/>
       <use xlink:href="#DejaVuSans-30" transform="translate(95.410156 0)"/>
      </g>
     </g>
    </g>
    <g id="xtick_4">
     <g id="line2d_7">
      <path d="M 305.157285 307.584 
L 305.157285 41.472 
" clip-path="url(#p64ae3c3f1e)" style="fill: none; stroke: #b0b0b0; stroke-opacity: 0.5; stroke-width: 0.8; stroke-linecap: square"/>
     </g>
     <g id="line2d_8">
      <g>
       <use xlink:href="#mb1d09d9055" x="305.157285" y="307.584" style="stroke: #000000; stroke-width: 0.8"/>
      </g>
     </g>
     <g id="text_4">
      <!-- 0.5 -->
      <g transform="translate(297.205723 322.182437) scale(0.1 -0.1)">
       <use xlink:href="#DejaVuSans-30"/>
       <use xlink:href="#DejaVuSans-2e" transform="translate(63.623047 0)"/>
       <use xlink:href="#DejaVuSans-35" transform="translate(95.410156 0)"/>
      </g>
     </g>
    </g>
    <g id="xtick_5">
     <g id="line2d_9">
      <path d="M 374.346187 307.584 
L 374.346187 41.472 
" clip-path="url(#p64ae3c3f1e)" style="fill: none; stroke: #b0b0b0; stroke-opacity: 0.5; stroke-width: 0.8; stroke-linecap: square"/>
     </g>
     <g id="line2d_10">
      <g>
       <use xlink:href="#mb1d09d9055" x="374.346187" y="307.584" style="stroke: #000000; stroke-width: 0.8"/>
      </g>
     </g>
     <g id="text_5">
      <!-- 1.0 -->
      <g transform="translate(366.394625 322.182437) scale(0.1 -0.1)">
       <use xlink:href="#DejaVuSans-31"/>
       <use xlink:href="#DejaVuSans-2e" transform="translate(63.623047 0)"/>
       <use xlink:href="#DejaVuSans-30" transform="translate(95.410156 0)"/>
      </g>
     </g>
    </g>
    <g id="text_6">
     <!-- Index -->
     <g transform="translate(222.393594 335.860562) scale(0.1 -0.1)">
      <defs>
       <path id="DejaVuSans-49" d="M 628 4666 
L 1259 4666 
L 1259 0 
L 628 0 
L 628 4666 
z
" transform="scale(0.015625)"/>
       <path id="DejaVuSans-6e" d="M 3513 2113 
L 3513 0 
L 2938 0 
L 2938 2094 
Q 2938 2591 2744 2837 
Q 2550 3084 2163 3084 
Q 1697 3084 1428 2787 
Q 1159 2491 1159 1978 
L 1159 0 
L 581 0 
L 581 3500 
L 1159 3500 
L 1159 2956 
Q 1366 3272 1645 3428 
Q 1925 3584 2291 3584 
Q 2894 3584 3203 3211 
Q 3513 2838 3513 2113 
z
" transform="scale(0.015625)"/>
       <path id="DejaVuSans-64" d="M 2906 2969 
L 2906 4863 
L 3481 4863 
L 3481 0 
L 2906 0 
L 2906 525 
Q 2725 213 2448 61 
Q 2172 -91 1784 -91 
Q 1150 -91 751 415 
Q 353 922 353 1747 
Q 353 2572 751 3078 
Q 1150 3584 1784 3584 
Q 2172 3584 2448 3432 
Q 2725 3281 2906 2969 
z
M 947 1747 
Q 947 1113 1208 752 
Q 1469 391 1925 391 
Q 2381 391 2643 752 
Q 2906 1113 2906 1747 
Q 2906 2381 2643 2742 
Q 2381 3103 1925 3103 
Q 1469 3103 1208 2742 
Q 947 2381 947 1747 
z
" transform="scale(0.015625)"/>
       <path id="DejaVuSans-65" d="M 3597 1894 
L 3597 1613 
L 953 1613 
Q 991 1019 1311 708 
Q 1631 397 2203 397 
Q 2534 397 2845 478 
Q 3156 559 3463 722 
L 3463 178 
Q 3153 47 2828 -22 
Q 2503 -91 2169 -91 
Q 1331 -91 842 396 
Q 353 884 353 1716 
Q 353 2575 817 3079 
Q 1281 3584 2069 3584 
Q 2775 3584 3186 3129 
Q 3597 2675 3597 1894 
z
M 3022 2063 
Q 3016 2534 2758 2815 
Q 2500 3097 2075 3097 
Q 1594 3097 1305 2825 
Q 1016 2553 972 2059 
L 3022 2063 
z
" transform="scale(0.015625)"/>
       <path id="DejaVuSans-78" d="M 3513 3500 
L 2247 1797 
L 3578 0 
L 2900 0 
L 1881 1375 
L 863 0 
L 184 0 
L 1544 1831 
L 300 3500 
L 978 3500 
L 1906 2253 
L 2834 3500 
L 3513 3500 
z
" transform="scale(0.015625)"/>
      </defs>
      <use xlink:href="#DejaVuSans-49"/>
      <use xlink:href="#DejaVuSans-6e" transform="translate(29.492188 0)"/>
      <use xlink:href="#DejaVuSans-64" transform="translate(92.871094 0)"/>
      <use xlink:href="#DejaVuSans-65" transform="translate(156.347656 0)"/>
      <use xlink:href="#DejaVuSans-78" transform="translate(216.121094 0)"/>
     </g>
    </g>
   </g>
   <g id="matplotlib.axis_2">
    <g id="ytick_1">
     <g id="line2d_11">
      <path d="M 57.6 275.686072 
L 414.72 275.686072 
" clip-path="url(#p64ae3c3f1e)" style="fill: none; stroke: #b0b0b0; stroke-opacity: 0.5; stroke-width: 0.8; stroke-linecap: square"/>
     </g>
     <g id="line2d_12">
      <defs>
       <path id="mb2d85f6153" d="M 0 0 
L -3.5 0 
" style="stroke: #000000; stroke-width: 0.8"/>
      </defs>
      <g>
       <use xlink:href="#mb2d85f6153" x="57.6" y="275.686072" style="stroke: #000000; stroke-width: 0.8"/>
      </g>
     </g>
     <g id="text_7">
      <!-- −1.0 -->
      <g transform="translate(26.317187 279.485291) scale(0.1 -0.1)">
       <use xlink:href="#DejaVuSans-2212"/>
       <use xlink:href="#DejaVuSans-31" transform="translate(83.789062 0)"/>
       <use xlink:href="#DejaVuSans-2e" transform="translate(147.412109 0)"/>
       <use xlink:href="#DejaVuSans-30" transform="translate(179.199219 0)"/>
      </g>
     </g>
    </g>
    <g id="ytick_2">
     <g id="line2d_13">
      <path d="M 57.6 225.196158 
L 414.72 225.196158 
" clip-path="url(#p64ae3c3f1e)" style="fill: none; stroke: #b0b0b0; stroke-opacity: 0.5; stroke-width: 0.8; stroke-linecap: square"/>
     </g>
     <g id="line2d_14">
      <g>
       <use xlink:href="#mb2d85f6153" x="57.6" y="225.196158" style="stroke: #000000; stroke-width: 0.8"/>
      </g>
     </g>
     <g id="text_8">
      <!-- −0.5 -->
      <g transform="translate(26.317187 228.995376) scale(0.1 -0.1)">
       <use xlink:href="#DejaVuSans-2212"/>
       <use xlink:href="#DejaVuSans-30" transform="translate(83.789062 0)"/>
       <use xlink:href="#DejaVuSans-2e" transform="translate(147.412109 0)"/>
       <use xlink:href="#DejaVuSans-35" transform="translate(179.199219 0)"/>
      </g>
     </g>
    </g>
    <g id="ytick_3">
     <g id="line2d_15">
      <path d="M 57.6 174.706243 
L 414.72 174.706243 
" clip-path="url(#p64ae3c3f1e)" style="fill: none; stroke: #b0b0b0; stroke-opacity: 0.5; stroke-width: 0.8; stroke-linecap: square"/>
     </g>
     <g id="line2d_16">
      <g>
       <use xlink:href="#mb2d85f6153" x="57.6" y="174.706243" style="stroke: #000000; stroke-width: 0.8"/>
      </g>
     </g>
     <g id="text_9">
      <!-- 0.0 -->
      <g transform="translate(34.696875 178.505461) scale(0.1 -0.1)">
       <use xlink:href="#DejaVuSans-30"/>
       <use xlink:href="#DejaVuSans-2e" transform="translate(63.623047 0)"/>
       <use xlink:href="#DejaVuSans-30" transform="translate(95.410156 0)"/>
      </g>
     </g>
    </g>
    <g id="ytick_4">
     <g id="line2d_17">
      <path d="M 57.6 124.216328 
L 414.72 124.216328 
" clip-path="url(#p64ae3c3f1e)" style="fill: none; stroke: #b0b0b0; stroke-opacity: 0.5; stroke-width: 0.8; stroke-linecap: square"/>
     </g>
     <g id="line2d_18">
      <g>
       <use xlink:href="#mb2d85f6153" x="57.6" y="124.216328" style="stroke: #000000; stroke-width: 0.8"/>
      </g>
     </g>
     <g id="text_10">
      <!-- 0.5 -->
      <g transform="translate(34.696875 128.015547) scale(0.1 -0.1)">
       <use xlink:href="#DejaVuSans-30"/>
       <use xlink:href="#DejaVuSans-2e" transform="translate(63.623047 0)"/>
       <use xlink:href="#DejaVuSans-35" transform="translate(95.410156 0)"/>
      </g>
     </g>
    </g>
    <g id="ytick_5">
     <g id="line2d_19">
      <path d="M 57.6 73.726413 
L 414.72 73.726413 
" clip-path="url(#p64ae3c3f1e)" style="fill: none; stroke: #b0b0b0; stroke-opacity: 0.5; stroke-width: 0.8; stroke-linecap: square"/>
     </g>
     <g id="line2d_20">
      <g>
       <use xlink:href="#mb2d85f6153" x="57.6" y="73.726413" style="stroke: #000000; stroke-width: 0.8"/>
      </g>
     </g>
     <g id="text_11">
      <!-- 1.0 -->
      <g transform="translate(34.696875 77.525632) scale(0.1 -0.1)">
       <use xlink:href="#DejaVuSans-31"/>
       <use xlink:href="#DejaVuSans-2e" transform="translate(63.623047 0)"/>
       <use xlink:href="#DejaVuSans-30" transform="translate(95.410156 0)"/>
      </g>
     </g>
    </g>
    <g id="text_12">
     <!-- Value -->
     <g transform="translate(20.2375 188.25925) rotate(-90) scale(0.1 -0.1)">
      <defs>
       <path id="DejaVuSans-56" d="M 1831 0 
L 50 4666 
L 709 4666 
L 2188 738 
L 3669 4666 
L 4325 4666 
L 2547 0 
L 1831 0 
z
" transform="scale(0.015625)"/>
       <path id="DejaVuSans-61" d="M 2194 1759 
Q 1497 1759 1228 1600 
Q 959 1441 959 1056 
Q 959 750 1161 570 
Q 1363 391 1709 391 
Q 2188 391 2477 730 
Q 2766 1069 2766 1631 
L 2766 1759 
L 2194 1759 
z
M 3341 1997 
L 3341 0 
L 2766 0 
L 2766 531 
Q 2569 213 2275 61 
Q 1981 -91 1556 -91 
Q 1019 -91 701 211 
Q 384 513 384 1019 
Q 384 1609 779 1909 
Q 1175 2209 1959 2209 
L 2766 2209 
L 2766 2266 
Q 2766 2663 2505 2880 
Q 2244 3097 1772 3097 
Q 1472 3097 1187 3025 
Q 903 2953 641 2809 
L 641 3341 
Q 956 3463 1253 3523 
Q 1550 3584 1831 3584 
Q 2591 3584 2966 3190 
Q 3341 2797 3341 1997 
z
" transform="scale(0.015625)"/>
       <path id="DejaVuSans-6c" d="M 603 4863 
L 1178 4863 
L 1178 0 
L 603 0 
L 603 4863 
z
" transform="scale(0.015625)"/>
       <path id="DejaVuSans-75" d="M 544 1381 
L 544 3500 
L 1119 3500 
L 1119 1403 
Q 1119 906 1312 657 
Q 1506 409 1894 409 
Q 2359 409 2629 706 
Q 2900 1003 2900 1516 
L 2900 3500 
L 3475 3500 
L 3475 0 
L 2900 0 
L 2900 538 
Q 2691 219 2414 64 
Q 2138 -91 1772 -91 
Q 1169 -91 856 284 
Q 544 659 544 1381 
z
M 1991 3584 
L 1991 3584 
z
" transform="scale(0.015625)"/>
      </defs>
      <use xlink:href="#DejaVuSans-56"/>
      <use xlink:href="#DejaVuSans-61" transform="translate(60.658203 0)"/>
      <use xlink:href="#DejaVuSans-6c" transform="translate(121.9375 0)"/>
      <use xlink:href="#DejaVuSans-75" transform="translate(149.720703 0)"/>
      <use xlink:href="#DejaVuSans-65" transform="translate(213.099609 0)"/>
     </g>
    </g>
   </g>
   <g id="line2d_21">
    <path d="M 232.076099 177.476813 
L 234.984134 176.999578 
L 234.491607 176.522282 
L 235.019419 176.045235 
L 237.566937 175.568762 
L 240.761863 175.093137 
L 242.954059 174.618521 
L 243.359236 174.144905 
L 241.285501 173.19971 
L 241.086729 172.727303 
L 242.167323 172.254426 
L 245.841171 171.306266 
L 246.850069 170.83111 
L 246.964489 170.355736 
L 246.629795 169.880725 
L 246.489522 169.406618 
L 246.964246 168.933804 
L 251.080089 167.053052 
L 251.896278 165.640479 
L 252.576034 165.168071 
L 255.078449 163.752062 
L 255.988813 162.813141 
L 257.035689 161.877828 
L 259.924983 160.005658 
L 262.094192 158.129651 
L 264.749841 156.260066 
L 267.114474 154.393682 
L 270.260126 152.057657 
L 274.55669 148.788999 
L 284.444225 141.32645 
L 288.719023 138.070628 
L 296.042498 132.516408 
L 306.925087 124.247572 
L 310.487529 121.49949 
L 318.294636 115.571965 
L 322.481036 112.391518 
L 326.105668 109.675979 
L 328.716395 109.166867 
L 327.458614 108.714128 
L 326.938679 108.261449 
L 327.354855 107.809162 
L 331.00447 106.456776 
L 331.578288 106.007113 
L 332.19098 104.656937 
L 332.880509 104.206063 
L 335.321468 102.854785 
L 337.177078 101.062578 
L 339.891671 99.267469 
L 341.346578 97.921746 
L 350.924901 90.778754 
L 361.429981 82.764957 
L 363.753629 80.983355 
L 365.967538 79.206272 
L 369.581572 76.549484 
L 371.740657 74.777476 
L 375.369627 72.132605 
L 377.469591 70.36927 
L 381.146119 67.737303 
L 383.134669 65.980818 
L 387.376792 62.921716 
L 388.724196 61.611084 
L 390.0828 60.75472 
L 392.285599 59.451069 
L 393.123723 58.561059 
L 393.662084 57.684387 
L 394.099754 57.25842 
L 394.783163 56.838724 
L 398.487273 55.104063 
L 398.472756 54.655429 
L 397.558354 54.234156 
L 395.616257 53.879717 
L 392.660815 53.64078 
L 388.8703 53.568 
L 384.669598 53.704183 
L 380.816563 54.074211 
L 378.352667 54.676615 
L 378.171673 55.479676 
L 380.415399 56.422917 
L 391.638728 59.247222 
L 393.105479 59.921877 
L 392.556396 60.388809 
L 390.305346 60.657972 
L 383.745265 60.81982 
L 377.148877 61.031479 
L 373.763947 61.348529 
L 370.860368 61.858423 
L 369.506383 62.553217 
L 365.781341 63.499383 
L 381.157385 65.290104 
L 385.595992 66.073628 
L 385.731968 66.704165 
L 382.355121 67.161539 
L 369.691806 67.986063 
L 365.751557 68.69836 
L 363.326946 69.282106 
L 362.074576 70.001734 
L 363.00092 70.809815 
L 365.990459 71.64238 
L 372.709503 73.123912 
L 373.412625 73.683101 
L 371.641755 74.104584 
L 364.412649 74.650478 
L 361.236269 74.879574 
L 358.95523 75.157375 
L 357.330267 75.530123 
L 356.122452 76.022514 
L 355.421491 76.633375 
L 355.547965 77.337011 
L 356.698044 78.089171 
L 361.775472 80.136205 
L 361.545172 80.63423 
L 359.829052 81.032673 
L 349.57193 82.328 
L 348.268382 82.775075 
L 347.604784 83.312993 
L 347.582712 83.930692 
L 348.167839 84.600959 
L 351.067987 86.55768 
L 351.061289 87.092378 
L 350.124222 87.551269 
L 348.385404 87.948057 
L 342.160264 89.048203 
L 340.766664 89.48229 
L 339.904959 89.978931 
L 339.571296 90.536013 
L 339.704211 91.138826 
L 341.117895 92.975038 
L 341.075328 93.519824 
L 340.455163 94.012113 
L 339.275285 94.457016 
L 333.071788 96.12039 
L 332.1295 96.600069 
L 331.586569 97.121821 
L 331.402458 97.678524 
L 331.735297 99.402375 
L 331.561595 99.940841 
L 331.018945 100.445325 
L 330.097087 100.917096 
L 324.193857 103.172546 
L 323.593471 103.67813 
L 323.234999 104.206996 
L 322.702081 105.83918 
L 322.340153 106.364212 
L 321.759323 106.869003 
L 319.986606 107.822704 
L 316.962326 109.213219 
L 315.548477 110.191646 
L 314.650291 111.220535 
L 313.850618 112.261829 
L 312.752502 113.273895 
L 311.248016 114.244239 
L 308.034627 116.152394 
L 306.791272 117.1387 
L 304.046153 119.64176 
L 301.927949 121.095967 
L 299.110982 123.026265 
L 294.120381 126.944605 
L 291.442248 128.884952 
L 287.636821 131.808247 
L 284.315812 134.247447 
L 281.854267 136.203299 
L 278.577146 136.750299 
L 280.415723 137.23554 
L 281.179039 137.720468 
L 280.606342 138.205815 
L 275.92833 139.66907 
L 275.477596 140.159181 
L 275.783512 141.13963 
L 275.478086 141.628537 
L 274.581649 142.115884 
L 272.205535 143.085734 
L 271.429777 143.568917 
L 271.032712 144.051723 
L 270.78583 144.534783 
L 270.408334 145.018579 
L 269.7514 145.503378 
L 267.186441 146.962429 
L 266.217232 147.934389 
L 265.219794 148.90126 
L 261.090494 151.780281 
L 259.188287 153.227865 
L 257.294288 154.676045 
L 255.486896 156.112196 
L 252.109451 158.501035 
L 248.44082 161.383467 
L 236.386881 170.428479 
L 193.67094 202.748962 
L 189.990296 205.536715 
L 186.971539 206.058418 
L 188.670759 206.522397 
L 189.348568 206.986681 
L 188.848593 207.451193 
L 184.63629 208.844181 
L 184.156374 209.307667 
L 184.270534 210.233008 
L 183.954179 210.695073 
L 183.126303 211.157036 
L 180.957139 212.08089 
L 180.234506 212.542853 
L 179.857525 213.00475 
L 179.303856 213.927707 
L 178.719608 214.388596 
L 175.688111 216.228919 
L 174.314863 217.607242 
L 169.977698 220.814868 
L 164.528523 224.924797 
L 161.536856 227.204942 
L 158.501862 229.477793 
L 149.627321 236.278228 
L 141.401524 242.58399 
L 133.174934 248.850617 
L 116.97058 261.309997 
L 113.524219 263.973526 
L 110.601868 266.18694 
L 107.770657 268.403984 
L 105.480364 270.171111 
L 103.66625 271.493619 
L 101.033979 271.991259 
L 102.523322 272.434157 
L 103.058004 272.876953 
L 102.611509 273.319021 
L 98.88353 274.637556 
L 98.332863 275.07538 
L 97.920317 276.392459 
L 97.265907 276.833317 
L 94.800361 278.154 
L 94.056626 279.027603 
L 93.672535 279.463008 
L 92.370297 280.335226 
L 90.912372 281.212488 
L 90.025188 282.090893 
L 89.211675 282.962798 
L 87.86607 283.827758 
L 86.40209 284.694775 
L 85.382807 285.570653 
L 84.141984 286.885209 
L 82.920808 287.746245 
L 80.162311 289.470517 
L 79.312606 290.354821 
L 78.711709 291.230867 
L 78.27978 291.65799 
L 77.628752 292.078396 
L 73.938648 293.799732 
L 73.832727 294.24957 
L 74.566185 294.682591 
L 76.263401 295.064428 
L 78.89968 295.349747 
L 82.292693 295.488 
L 86.02859 295.432578 
L 89.421602 295.150594 
L 91.586477 294.632575 
L 91.867254 293.898273 
L 90.337703 292.997766 
L 85.333369 291.01355 
L 83.468522 290.109035 
L 82.374331 289.366102 
L 82.097958 288.828052 
L 82.829602 288.49965 
L 84.745042 288.345639 
L 95.21266 288.158501 
L 98.667145 287.901158 
L 101.010811 287.448587 
L 101.504435 286.795974 
L 99.940473 285.978973 
L 91.57719 283.296556 
L 90.664157 282.594949 
L 91.222429 282.074751 
L 93.107929 281.733613 
L 99.243619 281.401552 
L 105.466062 281.034052 
L 107.758928 280.662484 
L 108.969317 280.121183 
L 108.739545 279.4209 
L 107.158931 278.605295 
L 102.636698 276.90281 
L 101.197643 276.158108 
L 100.905748 275.552634 
L 101.875733 275.101695 
L 103.974418 274.787835 
L 112.779577 274.137912 
L 115.065194 273.808752 
L 116.478837 273.34876 
L 116.802404 272.751646 
L 116.050042 272.040168 
L 111.655727 269.731258 
L 111.112772 269.087474 
L 111.480647 268.564519 
L 112.786852 268.160894 
L 114.884762 267.850043 
L 122.396335 266.992704 
L 124.017802 266.575193 
L 124.739127 266.049788 
L 124.532285 265.424591 
L 123.632688 264.728521 
L 121.479096 263.299317 
L 121.000533 262.654407 
L 121.198558 262.096356 
L 122.11249 261.632247 
L 123.660467 261.249032 
L 129.851204 260.249123 
L 131.445832 259.841219 
L 132.394001 259.35549 
L 132.625397 258.791637 
L 132.260301 258.16606 
L 130.942525 256.850534 
L 130.615287 256.227551 
L 130.773689 255.662241 
L 131.470856 255.16477 
L 132.663462 254.730268 
L 139.076919 253.169028 
L 140.065494 252.698503 
L 140.546202 252.17181 
L 140.573346 251.597424 
L 139.916899 249.792329 
L 140.129218 249.236872 
L 143.234641 248.666729 
L 141.542028 248.206809 
L 141.593214 247.779139 
L 143.113693 247.365775 
L 147.807508 246.504571 
L 149.24973 246.02807 
L 149.507825 245.514263 
L 148.142441 244.403138 
L 147.855494 243.833615 
L 148.312638 243.275497 
L 150.549757 242.235455 
L 152.34829 241.303446 
L 153.714334 240.411474 
L 156.636998 238.967313 
L 157.2632 238.444737 
L 157.526887 237.90993 
L 157.663605 236.840594 
L 158.015744 236.322436 
L 158.722347 235.821239 
L 163.255491 233.462 
L 166.111521 230.951061 
L 167.643365 229.439796 
L 169.070641 228.474117 
L 171.542221 227.044263 
L 172.783262 226.069321 
L 174.958802 224.075857 
L 176.944923 222.606558 
L 181.031742 219.696659 
L 184.044375 217.23964 
L 188.104499 214.312785 
L 191.186972 211.85877 
L 195.841349 208.44049 
L 198.934714 205.989836 
L 204.787602 201.615206 
L 208.562757 198.708048 
L 213.09711 195.329112 
L 216.165446 192.916043 
L 220.740899 189.556724 
L 223.791584 187.147599 
L 228.326692 183.801975 
L 232.696904 180.450907 
L 235.877586 178.072897 
L 238.843701 177.53645 
L 238.843701 177.53645 
" clip-path="url(#p64ae3c3f1e)" style="fill: none; stroke: #1f77b4; stroke-width: 1.5; stroke-linecap: square"/>
   </g>
   <g id="line2d_22">
    <path d="M 236.42699 177.476813 
L 266.844545 154.393682 
L 271.199948 151.121796 
L 274.94738 148.323241 
L 279.22956 145.051635 
L 381.560711 67.294965 
L 383.286448 65.980818 
L 385.833286 64.24612 
L 389.002383 61.611084 
L 391.742372 59.891024 
L 392.623963 59.006588 
L 393.36298 58.119034 
L 393.890932 57.684387 
L 395.501643 56.838724 
L 397.313506 55.992965 
L 397.805661 55.554046 
L 397.705086 55.104063 
L 396.842514 54.655429 
L 395.176393 54.234156 
L 392.83003 53.879717 
L 390.092615 53.64078 
L 387.37963 53.568 
L 385.155963 53.704183 
L 383.839358 54.074211 
L 383.702293 54.676615 
L 384.799321 55.479676 
L 386.935395 56.422917 
L 394.714342 59.247222 
L 395.839529 59.921877 
L 395.529175 60.388809 
L 393.720397 60.657972 
L 386.760389 60.81982 
L 379.138367 61.031479 
L 376.594812 61.348529 
L 375.409992 61.858423 
L 375.636729 62.553217 
L 377.28124 63.499383 
L 383.357776 66.073628 
L 384.031832 66.704165 
L 383.458187 67.161539 
L 381.65604 67.461615 
L 375.623483 67.801898 
L 372.384773 67.986063 
L 369.688053 68.270455 
L 367.912061 68.69836 
L 367.231472 69.282106 
L 367.588551 70.001734 
L 368.714488 70.809815 
L 371.557577 72.432405 
L 372.380731 73.123912 
L 372.371362 73.683101 
L 371.424982 74.104584 
L 369.638582 74.411709 
L 362.391446 75.157375 
L 360.597993 75.530123 
L 359.558692 76.022514 
L 359.310198 76.633375 
L 359.718546 77.337011 
L 361.926467 79.531845 
L 361.949446 80.136205 
L 361.303185 80.63423 
L 360.008948 81.032673 
L 356.21252 81.653724 
L 352.640064 82.328 
L 351.530722 82.775075 
L 350.997706 83.312993 
L 350.978603 83.930692 
L 352.042598 85.949582 
L 352.006448 86.55768 
L 351.51171 87.092378 
L 350.542534 87.551269 
L 347.606013 88.308545 
L 344.588694 89.048203 
L 343.496821 89.48229 
L 342.802384 89.978931 
L 342.486009 90.536013 
L 342.447541 91.138826 
L 342.564645 92.38407 
L 342.39256 92.975038 
L 341.914599 93.519824 
L 341.102364 94.012113 
L 338.723826 94.869374 
L 336.201163 95.680778 
L 335.213832 96.12039 
L 334.504425 96.600069 
L 334.06509 97.121821 
L 333.680487 98.25595 
L 333.499106 98.836349 
L 333.172149 99.402375 
L 332.628023 99.940841 
L 331.848566 100.445325 
L 329.77573 101.364448 
L 327.641298 102.239086 
L 326.776829 102.693691 
L 326.105363 103.172546 
L 325.246148 104.206996 
L 324.567531 105.29847 
L 324.103171 105.83918 
L 323.493646 106.364212 
L 321.86526 107.353696 
L 318.407855 109.213219 
L 317.241643 110.191646 
L 315.25377 112.261829 
L 313.859081 113.273895 
L 309.364438 116.152394 
L 305.971012 119.147124 
L 300.399751 123.026265 
L 298.123673 124.993204 
L 295.919826 126.459535 
L 293.717546 127.913429 
L 291.940445 129.372161 
L 290.21098 130.834999 
L 288.103935 132.294664 
L 285.230911 134.247447 
L 278.76341 139.179962 
L 276.099343 141.13963 
L 271.759659 144.534783 
L 267.158561 147.934389 
L 263.42174 150.820416 
L 259.47563 153.711352 
L 255.078772 157.065404 
L 250.570859 160.425873 
L 244.823428 164.718122 
L 232.910378 173.751677 
L 228.458304 177.053513 
L 208.099309 192.513718 
L 96.612091 277.274427 
L 94.339811 279.027603 
L 91.438575 281.212488 
L 89.234159 282.962798 
L 86.203694 285.131625 
L 83.595507 287.317412 
L 80.388717 289.470517 
L 78.729673 291.230867 
L 77.270741 292.078396 
L 75.45294 292.919822 
L 74.819249 293.35377 
L 74.680106 293.799732 
L 75.236711 294.24957 
L 76.588866 294.682591 
L 78.68647 295.064428 
L 81.310064 295.349747 
L 84.091111 295.488 
L 86.572905 295.432578 
L 88.300705 295.150594 
L 88.923986 294.632575 
L 88.285462 293.898273 
L 86.475662 292.997766 
L 80.903769 291.01355 
L 78.315724 290.109035 
L 76.674727 289.366102 
L 76.424005 288.828052 
L 77.746896 288.49965 
L 80.520536 288.345639 
L 92.510298 288.158501 
L 95.532532 287.901158 
L 97.185374 287.448587 
L 97.31005 286.795974 
L 96.063569 285.978973 
L 93.881819 285.065863 
L 89.236848 283.296556 
L 88.019944 282.594949 
L 88.101516 282.074751 
L 89.569472 281.733613 
L 92.221372 281.531861 
L 102.292395 281.034052 
L 104.500052 280.662484 
L 105.520341 280.121183 
L 105.338622 279.4209 
L 104.191942 278.605295 
L 99.615808 276.158108 
L 99.289107 275.552634 
L 100.015901 275.101695 
L 101.74577 274.787835 
L 111.828158 273.808752 
L 113.125752 273.34876 
L 113.496333 272.751646 
L 113.04625 272.040168 
L 109.999594 269.731258 
L 109.676942 269.087474 
L 110.133904 268.564519 
L 111.392699 268.160894 
L 115.575446 267.58682 
L 119.809478 266.992704 
L 121.168857 266.575193 
L 121.816578 266.049788 
L 121.790333 265.424591 
L 121.271767 264.728521 
L 119.913337 263.299317 
L 119.666912 262.654407 
L 119.986471 262.096356 
L 120.92579 261.632247 
L 122.402183 261.249032 
L 127.828829 260.249123 
L 129.139166 259.841219 
L 129.931441 259.35549 
L 130.206601 258.791637 
L 130.078568 258.16606 
L 129.436786 256.850534 
L 129.372336 256.227551 
L 129.703937 255.662241 
L 130.490108 255.16477 
L 131.686004 254.730268 
L 137.330776 253.169028 
L 138.123133 252.698503 
L 138.532438 252.17181 
L 138.637063 251.597424 
L 138.535448 250.384056 
L 138.664504 249.792329 
L 139.083022 249.236872 
L 139.951524 248.666729 
L 142.301153 247.779139 
L 144.807725 246.946741 
L 145.789117 246.504571 
L 146.494235 246.02807 
L 146.932358 245.514263 
L 147.328837 244.403138 
L 147.522434 243.833615 
L 147.861606 243.275497 
L 148.413139 242.740763 
L 149.189924 242.235455 
L 151.217041 241.303446 
L 153.265851 240.411474 
L 154.727059 239.470484 
L 155.566834 238.444737 
L 156.278905 237.372115 
L 156.767151 236.840594 
L 158.166879 235.821239 
L 162.432873 233.462 
L 163.545168 232.48385 
L 165.458563 230.439644 
L 166.870024 229.439796 
L 170.834311 227.044263 
L 171.950721 226.069321 
L 174.025054 224.075857 
L 175.461828 223.091938 
L 179.276172 220.675329 
L 180.894355 219.20406 
L 181.990876 218.218657 
L 183.34122 217.23964 
L 187.757796 214.312785 
L 191.955245 210.885594 
L 196.155704 207.948228 
L 200.429454 204.53637 
L 205.10008 201.126926 
L 208.767072 198.228008 
L 213.392699 194.843412 
L 216.472479 192.438369 
L 221.686563 188.588869 
L 225.475631 185.717636 
L 230.586623 181.881147 
L 236.348191 177.53645 
L 236.348191 177.53645 
" clip-path="url(#p64ae3c3f1e)" style="fill: none; stroke: #ff7f0e; stroke-opacity: 0.5; stroke-width: 1.5; stroke-linecap: square"/>
   </g>
   <g id="patch_3">
    <path d="M 57.6 307.584 
L 57.6 41.472 
" style="fill: none; stroke: #000000; stroke-width: 0.8; stroke-linejoin: miter; stroke-linecap: square"/>
   </g>
   <g id="patch_4">
    <path d="M 414.72 307.584 
L 414.72 41.472 
" style="fill: none; stroke: #000000; stroke-width: 0.8; stroke-linejoin: miter; stroke-linecap: square"/>
   </g>
   <g id="patch_5">
    <path d="M 57.6 307.584 
L 414.72 307.584 
" style="fill: none; stroke: #000000; stroke-width: 0.8; stroke-linejoin: miter; stroke-linecap: square"/>
   </g>
   <g id="patch_6">
    <path d="M 57.6 41.472 
L 414.72 41.472 
" style="fill: none; stroke: #000000; stroke-width: 0.8; stroke-linejoin: miter; stroke-linecap: square"/>
   </g>
   <g id="text_13">
    <!-- Compare - Epoch 900 -->
    <g transform="translate(171.234375 35.472) scale(0.12 -0.12)">
     <defs>
      <path id="DejaVuSans-43" d="M 4122 4306 
L 4122 3641 
Q 3803 3938 3442 4084 
Q 3081 4231 2675 4231 
Q 1875 4231 1450 3742 
Q 1025 3253 1025 2328 
Q 1025 1406 1450 917 
Q 1875 428 2675 428 
Q 3081 428 3442 575 
Q 3803 722 4122 1019 
L 4122 359 
Q 3791 134 3420 21 
Q 3050 -91 2638 -91 
Q 1578 -91 968 557 
Q 359 1206 359 2328 
Q 359 3453 968 4101 
Q 1578 4750 2638 4750 
Q 3056 4750 3426 4639 
Q 3797 4528 4122 4306 
z
" transform="scale(0.015625)"/>
      <path id="DejaVuSans-6f" d="M 1959 3097 
Q 1497 3097 1228 2736 
Q 959 2375 959 1747 
Q 959 1119 1226 758 
Q 1494 397 1959 397 
Q 2419 397 2687 759 
Q 2956 1122 2956 1747 
Q 2956 2369 2687 2733 
Q 2419 3097 1959 3097 
z
M 1959 3584 
Q 2709 3584 3137 3096 
Q 3566 2609 3566 1747 
Q 3566 888 3137 398 
Q 2709 -91 1959 -91 
Q 1206 -91 779 398 
Q 353 888 353 1747 
Q 353 2609 779 3096 
Q 1206 3584 1959 3584 
z
" transform="scale(0.015625)"/>
      <path id="DejaVuSans-6d" d="M 3328 2828 
Q 3544 3216 3844 3400 
Q 4144 3584 4550 3584 
Q 5097 3584 5394 3201 
Q 5691 2819 5691 2113 
L 5691 0 
L 5113 0 
L 5113 2094 
Q 5113 2597 4934 2840 
Q 4756 3084 4391 3084 
Q 3944 3084 3684 2787 
Q 3425 2491 3425 1978 
L 3425 0 
L 2847 0 
L 2847 2094 
Q 2847 2600 2669 2842 
Q 2491 3084 2119 3084 
Q 1678 3084 1418 2786 
Q 1159 2488 1159 1978 
L 1159 0 
L 581 0 
L 581 3500 
L 1159 3500 
L 1159 2956 
Q 1356 3278 1631 3431 
Q 1906 3584 2284 3584 
Q 2666 3584 2933 3390 
Q 3200 3197 3328 2828 
z
" transform="scale(0.015625)"/>
      <path id="DejaVuSans-70" d="M 1159 525 
L 1159 -1331 
L 581 -1331 
L 581 3500 
L 1159 3500 
L 1159 2969 
Q 1341 3281 1617 3432 
Q 1894 3584 2278 3584 
Q 2916 3584 3314 3078 
Q 3713 2572 3713 1747 
Q 3713 922 3314 415 
Q 2916 -91 2278 -91 
Q 1894 -91 1617 61 
Q 1341 213 1159 525 
z
M 3116 1747 
Q 3116 2381 2855 2742 
Q 2594 3103 2138 3103 
Q 1681 3103 1420 2742 
Q 1159 2381 1159 1747 
Q 1159 1113 1420 752 
Q 1681 391 2138 391 
Q 2594 391 2855 752 
Q 3116 1113 3116 1747 
z
" transform="scale(0.015625)"/>
      <path id="DejaVuSans-72" d="M 2631 2963 
Q 2534 3019 2420 3045 
Q 2306 3072 2169 3072 
Q 1681 3072 1420 2755 
Q 1159 2438 1159 1844 
L 1159 0 
L 581 0 
L 581 3500 
L 1159 3500 
L 1159 2956 
Q 1341 3275 1631 3429 
Q 1922 3584 2338 3584 
Q 2397 3584 2469 3576 
Q 2541 3569 2628 3553 
L 2631 2963 
z
" transform="scale(0.015625)"/>
      <path id="DejaVuSans-20" transform="scale(0.015625)"/>
      <path id="DejaVuSans-2d" d="M 313 2009 
L 1997 2009 
L 1997 1497 
L 313 1497 
L 313 2009 
z
" transform="scale(0.015625)"/>
      <path id="DejaVuSans-45" d="M 628 4666 
L 3578 4666 
L 3578 4134 
L 1259 4134 
L 1259 2753 
L 3481 2753 
L 3481 2222 
L 1259 2222 
L 1259 531 
L 3634 531 
L 3634 0 
L 628 0 
L 628 4666 
z
" transform="scale(0.015625)"/>
      <path id="DejaVuSans-63" d="M 3122 3366 
L 3122 2828 
Q 2878 2963 2633 3030 
Q 2388 3097 2138 3097 
Q 1578 3097 1268 2742 
Q 959 2388 959 1747 
Q 959 1106 1268 751 
Q 1578 397 2138 397 
Q 2388 397 2633 464 
Q 2878 531 3122 666 
L 3122 134 
Q 2881 22 2623 -34 
Q 2366 -91 2075 -91 
Q 1284 -91 818 406 
Q 353 903 353 1747 
Q 353 2603 823 3093 
Q 1294 3584 2113 3584 
Q 2378 3584 2631 3529 
Q 2884 3475 3122 3366 
z
" transform="scale(0.015625)"/>
      <path id="DejaVuSans-68" d="M 3513 2113 
L 3513 0 
L 2938 0 
L 2938 2094 
Q 2938 2591 2744 2837 
Q 2550 3084 2163 3084 
Q 1697 3084 1428 2787 
Q 1159 2491 1159 1978 
L 1159 0 
L 581 0 
L 581 4863 
L 1159 4863 
L 1159 2956 
Q 1366 3272 1645 3428 
Q 1925 3584 2291 3584 
Q 2894 3584 3203 3211 
Q 3513 2838 3513 2113 
z
" transform="scale(0.015625)"/>
      <path id="DejaVuSans-39" d="M 703 97 
L 703 672 
Q 941 559 1184 500 
Q 1428 441 1663 441 
Q 2288 441 2617 861 
Q 2947 1281 2994 2138 
Q 2813 1869 2534 1725 
Q 2256 1581 1919 1581 
Q 1219 1581 811 2004 
Q 403 2428 403 3163 
Q 403 3881 828 4315 
Q 1253 4750 1959 4750 
Q 2769 4750 3195 4129 
Q 3622 3509 3622 2328 
Q 3622 1225 3098 567 
Q 2575 -91 1691 -91 
Q 1453 -91 1209 -44 
Q 966 3 703 97 
z
M 1959 2075 
Q 2384 2075 2632 2365 
Q 2881 2656 2881 3163 
Q 2881 3666 2632 3958 
Q 2384 4250 1959 4250 
Q 1534 4250 1286 3958 
Q 1038 3666 1038 3163 
Q 1038 2656 1286 2365 
Q 1534 2075 1959 2075 
z
" transform="scale(0.015625)"/>
     </defs>
     <use xlink:href="#DejaVuSans-43"/>
     <use xlink:href="#DejaVuSans-6f" transform="translate(69.824219 0)"/>
     <use xlink:href="#DejaVuSans-6d" transform="translate(131.005859 0)"/>
     <use xlink:href="#DejaVuSans-70" transform="translate(228.417969 0)"/>
     <use xlink:href="#DejaVuSans-61" transform="translate(291.894531 0)"/>
     <use xlink:href="#DejaVuSans-72" transform="translate(353.173828 0)"/>
     <use xlink:href="#DejaVuSans-65" transform="translate(392.037109 0)"/>
     <use xlink:href="#DejaVuSans-20" transform="translate(453.560547 0)"/>
     <use xlink:href="#DejaVuSans-2d" transform="translate(485.347656 0)"/>
     <use xlink:href="#DejaVuSans-20" transform="translate(521.431641 0)"/>
     <use xlink:href="#DejaVuSans-45" transform="translate(553.21875 0)"/>
     <use xlink:href="#DejaVuSans-70" transform="translate(616.402344 0)"/>
     <use xlink:href="#DejaVuSans-6f" transform="translate(679.878906 0)"/>
     <use xlink:href="#DejaVuSans-63" transform="translate(741.060547 0)"/>
     <use xlink:href="#DejaVuSans-68" transform="translate(796.041016 0)"/>
     <use xlink:href="#DejaVuSans-20" transform="translate(859.419922 0)"/>
     <use xlink:href="#DejaVuSans-39" transform="translate(891.207031 0)"/>
     <use xlink:href="#DejaVuSans-30" transform="translate(954.830078 0)"/>
     <use xlink:href="#DejaVuSans-30" transform="translate(1018.453125 0)"/>
    </g>
   </g>
   <g id="legend_1">
    <g id="patch_7">
     <path d="M 64.6 78.82825 
L 181.128125 78.82825 
Q 183.128125 78.82825 183.128125 76.82825 
L 183.128125 48.472 
Q 183.128125 46.472 181.128125 46.472 
L 64.6 46.472 
Q 62.6 46.472 62.6 48.472 
L 62.6 76.82825 
Q 62.6 78.82825 64.6 78.82825 
z
" style="fill: #ffffff; opacity: 0.8; stroke: #cccccc; stroke-linejoin: miter"/>
    </g>
    <g id="line2d_23">
     <path d="M 66.6 54.570437 
L 76.6 54.570437 
L 86.6 54.570437 
" style="fill: none; stroke: #1f77b4; stroke-width: 1.5; stroke-linecap: square"/>
    </g>
    <g id="text_14">
     <!-- Pred: Sample 1 -->
     <g transform="translate(94.6 58.070437) scale(0.1 -0.1)">
      <defs>
       <path id="DejaVuSans-50" d="M 1259 4147 
L 1259 2394 
L 2053 2394 
Q 2494 2394 2734 2622 
Q 2975 2850 2975 3272 
Q 2975 3691 2734 3919 
Q 2494 4147 2053 4147 
L 1259 4147 
z
M 628 4666 
L 2053 4666 
Q 2838 4666 3239 4311 
Q 3641 3956 3641 3272 
Q 3641 2581 3239 2228 
Q 2838 1875 2053 1875 
L 1259 1875 
L 1259 0 
L 628 0 
L 628 4666 
z
" transform="scale(0.015625)"/>
       <path id="DejaVuSans-3a" d="M 750 794 
L 1409 794 
L 1409 0 
L 750 0 
L 750 794 
z
M 750 3309 
L 1409 3309 
L 1409 2516 
L 750 2516 
L 750 3309 
z
" transform="scale(0.015625)"/>
       <path id="DejaVuSans-53" d="M 3425 4513 
L 3425 3897 
Q 3066 4069 2747 4153 
Q 2428 4238 2131 4238 
Q 1616 4238 1336 4038 
Q 1056 3838 1056 3469 
Q 1056 3159 1242 3001 
Q 1428 2844 1947 2747 
L 2328 2669 
Q 3034 2534 3370 2195 
Q 3706 1856 3706 1288 
Q 3706 609 3251 259 
Q 2797 -91 1919 -91 
Q 1588 -91 1214 -16 
Q 841 59 441 206 
L 441 856 
Q 825 641 1194 531 
Q 1563 422 1919 422 
Q 2459 422 2753 634 
Q 3047 847 3047 1241 
Q 3047 1584 2836 1778 
Q 2625 1972 2144 2069 
L 1759 2144 
Q 1053 2284 737 2584 
Q 422 2884 422 3419 
Q 422 4038 858 4394 
Q 1294 4750 2059 4750 
Q 2388 4750 2728 4690 
Q 3069 4631 3425 4513 
z
" transform="scale(0.015625)"/>
      </defs>
      <use xlink:href="#DejaVuSans-50"/>
      <use xlink:href="#DejaVuSans-72" transform="translate(58.552734 0)"/>
      <use xlink:href="#DejaVuSans-65" transform="translate(97.416016 0)"/>
      <use xlink:href="#DejaVuSans-64" transform="translate(158.939453 0)"/>
      <use xlink:href="#DejaVuSans-3a" transform="translate(222.416016 0)"/>
      <use xlink:href="#DejaVuSans-20" transform="translate(256.107422 0)"/>
      <use xlink:href="#DejaVuSans-53" transform="translate(287.894531 0)"/>
      <use xlink:href="#DejaVuSans-61" transform="translate(351.371094 0)"/>
      <use xlink:href="#DejaVuSans-6d" transform="translate(412.650391 0)"/>
      <use xlink:href="#DejaVuSans-70" transform="translate(510.0625 0)"/>
      <use xlink:href="#DejaVuSans-6c" transform="translate(573.539062 0)"/>
      <use xlink:href="#DejaVuSans-65" transform="translate(601.322266 0)"/>
      <use xlink:href="#DejaVuSans-20" transform="translate(662.845703 0)"/>
      <use xlink:href="#DejaVuSans-31" transform="translate(694.632812 0)"/>
     </g>
    </g>
    <g id="line2d_24">
     <path d="M 66.6 69.248562 
L 76.6 69.248562 
L 86.6 69.248562 
" style="fill: none; stroke: #ff7f0e; stroke-opacity: 0.5; stroke-width: 1.5; stroke-linecap: square"/>
    </g>
    <g id="text_15">
     <!-- Target: Sample 1 -->
     <g transform="translate(94.6 72.748562) scale(0.1 -0.1)">
      <defs>
       <path id="DejaVuSans-54" d="M -19 4666 
L 3928 4666 
L 3928 4134 
L 2272 4134 
L 2272 0 
L 1638 0 
L 1638 4134 
L -19 4134 
L -19 4666 
z
" transform="scale(0.015625)"/>
       <path id="DejaVuSans-67" d="M 2906 1791 
Q 2906 2416 2648 2759 
Q 2391 3103 1925 3103 
Q 1463 3103 1205 2759 
Q 947 2416 947 1791 
Q 947 1169 1205 825 
Q 1463 481 1925 481 
Q 2391 481 2648 825 
Q 2906 1169 2906 1791 
z
M 3481 434 
Q 3481 -459 3084 -895 
Q 2688 -1331 1869 -1331 
Q 1566 -1331 1297 -1286 
Q 1028 -1241 775 -1147 
L 775 -588 
Q 1028 -725 1275 -790 
Q 1522 -856 1778 -856 
Q 2344 -856 2625 -561 
Q 2906 -266 2906 331 
L 2906 616 
Q 2728 306 2450 153 
Q 2172 0 1784 0 
Q 1141 0 747 490 
Q 353 981 353 1791 
Q 353 2603 747 3093 
Q 1141 3584 1784 3584 
Q 2172 3584 2450 3431 
Q 2728 3278 2906 2969 
L 2906 3500 
L 3481 3500 
L 3481 434 
z
" transform="scale(0.015625)"/>
       <path id="DejaVuSans-74" d="M 1172 4494 
L 1172 3500 
L 2356 3500 
L 2356 3053 
L 1172 3053 
L 1172 1153 
Q 1172 725 1289 603 
Q 1406 481 1766 481 
L 2356 481 
L 2356 0 
L 1766 0 
Q 1100 0 847 248 
Q 594 497 594 1153 
L 594 3053 
L 172 3053 
L 172 3500 
L 594 3500 
L 594 4494 
L 1172 4494 
z
" transform="scale(0.015625)"/>
      </defs>
      <use xlink:href="#DejaVuSans-54"/>
      <use xlink:href="#DejaVuSans-61" transform="translate(44.583984 0)"/>
      <use xlink:href="#DejaVuSans-72" transform="translate(105.863281 0)"/>
      <use xlink:href="#DejaVuSans-67" transform="translate(145.226562 0)"/>
      <use xlink:href="#DejaVuSans-65" transform="translate(208.703125 0)"/>
      <use xlink:href="#DejaVuSans-74" transform="translate(270.226562 0)"/>
      <use xlink:href="#DejaVuSans-3a" transform="translate(309.435547 0)"/>
      <use xlink:href="#DejaVuSans-20" transform="translate(343.126953 0)"/>
      <use xlink:href="#DejaVuSans-53" transform="translate(374.914062 0)"/>
      <use xlink:href="#DejaVuSans-61" transform="translate(438.390625 0)"/>
      <use xlink:href="#DejaVuSans-6d" transform="translate(499.669922 0)"/>
      <use xlink:href="#DejaVuSans-70" transform="translate(597.082031 0)"/>
      <use xlink:href="#DejaVuSans-6c" transform="translate(660.558594 0)"/>
      <use xlink:href="#DejaVuSans-65" transform="translate(688.341797 0)"/>
      <use xlink:href="#DejaVuSans-20" transform="translate(749.865234 0)"/>
      <use xlink:href="#DejaVuSans-31" transform="translate(781.652344 0)"/>
     </g>
    </g>
   </g>
  </g>
 </g>
 <defs>
  <clipPath id="p64ae3c3f1e">
   <rect x="57.6" y="41.472" width="357.12" height="266.112"/>
  </clipPath>
 </defs>
</svg>
