<?xml version="1.0" encoding="utf-8" standalone="no"?>
<!DOCTYPE svg PUBLIC "-//W3C//DTD SVG 1.1//EN"
  "http://www.w3.org/Graphics/SVG/1.1/DTD/svg11.dtd">
<svg xmlns:xlink="http://www.w3.org/1999/xlink" width="460.8pt" height="345.6pt" viewBox="0 0 460.8 345.6" xmlns="http://www.w3.org/2000/svg" version="1.1">
 <metadata>
  <rdf:RDF xmlns:dc="http://purl.org/dc/elements/1.1/" xmlns:cc="http://creativecommons.org/ns#" xmlns:rdf="http://www.w3.org/1999/02/22-rdf-syntax-ns#">
   <cc:Work>
    <dc:type rdf:resource="http://purl.org/dc/dcmitype/StillImage"/>
    <dc:date>2025-04-16T03:29:37.400843</dc:date>
    <dc:format>image/svg+xml</dc:format>
    <dc:creator>
     <cc:Agent>
      <dc:title>Matplotlib v3.10.0, https://matplotlib.org/</dc:title>
     </cc:Agent>
    </dc:creator>
   </cc:Work>
  </rdf:RDF>
 </metadata>
 <defs>
  <style type="text/css">*{stroke-linejoin: round; stroke-linecap: butt}</style>
 </defs>
 <g id="figure_1">
  <g id="patch_1">
   <path d="M 0 345.6 
L 460.8 345.6 
L 460.8 0 
L 0 0 
z
" style="fill: #ffffff"/>
  </g>
  <g id="axes_1">
   <g id="patch_2">
    <path d="M 57.6 307.584 
L 414.72 307.584 
L 414.72 41.472 
L 57.6 41.472 
z
" style="fill: #ffffff"/>
   </g>
   <g id="matplotlib.axis_1">
    <g id="xtick_1">
     <g id="line2d_1">
      <path d="M 96.936392 307.584 
L 96.936392 41.472 
" clip-path="url(#pe2ce6e7494)" style="fill: none; stroke: #b0b0b0; stroke-opacity: 0.5; stroke-width: 0.8; stroke-linecap: square"/>
     </g>
     <g id="line2d_2">
      <defs>
       <path id="mc4936a6d37" d="M 0 0 
L 0 3.5 
" style="stroke: #000000; stroke-width: 0.8"/>
      </defs>
      <g>
       <use xlink:href="#mc4936a6d37" x="96.936392" y="307.584" style="stroke: #000000; stroke-width: 0.8"/>
      </g>
     </g>
     <g id="text_1">
      <!-- −1.0 -->
      <g transform="translate(84.794985 322.182437) scale(0.1 -0.1)">
       <defs>
        <path id="DejaVuSans-2212" d="M 678 2272 
L 4684 2272 
L 4684 1741 
L 678 1741 
L 678 2272 
z
" transform="scale(0.015625)"/>
        <path id="DejaVuSans-31" d="M 794 531 
L 1825 531 
L 1825 4091 
L 703 3866 
L 703 4441 
L 1819 4666 
L 2450 4666 
L 2450 531 
L 3481 531 
L 3481 0 
L 794 0 
L 794 531 
z
" transform="scale(0.015625)"/>
        <path id="DejaVuSans-2e" d="M 684 794 
L 1344 794 
L 1344 0 
L 684 0 
L 684 794 
z
" transform="scale(0.015625)"/>
        <path id="DejaVuSans-30" d="M 2034 4250 
Q 1547 4250 1301 3770 
Q 1056 3291 1056 2328 
Q 1056 1369 1301 889 
Q 1547 409 2034 409 
Q 2525 409 2770 889 
Q 3016 1369 3016 2328 
Q 3016 3291 2770 3770 
Q 2525 4250 2034 4250 
z
M 2034 4750 
Q 2819 4750 3233 4129 
Q 3647 3509 3647 2328 
Q 3647 1150 3233 529 
Q 2819 -91 2034 -91 
Q 1250 -91 836 529 
Q 422 1150 422 2328 
Q 422 3509 836 4129 
Q 1250 4750 2034 4750 
z
" transform="scale(0.015625)"/>
       </defs>
       <use xlink:href="#DejaVuSans-2212"/>
       <use xlink:href="#DejaVuSans-31" transform="translate(83.789062 0)"/>
       <use xlink:href="#DejaVuSans-2e" transform="translate(147.412109 0)"/>
       <use xlink:href="#DejaVuSans-30" transform="translate(179.199219 0)"/>
      </g>
     </g>
    </g>
    <g id="xtick_2">
     <g id="line2d_3">
      <path d="M 166.010698 307.584 
L 166.010698 41.472 
" clip-path="url(#pe2ce6e7494)" style="fill: none; stroke: #b0b0b0; stroke-opacity: 0.5; stroke-width: 0.8; stroke-linecap: square"/>
     </g>
     <g id="line2d_4">
      <g>
       <use xlink:href="#mc4936a6d37" x="166.010698" y="307.584" style="stroke: #000000; stroke-width: 0.8"/>
      </g>
     </g>
     <g id="text_2">
      <!-- −0.5 -->
      <g transform="translate(153.869292 322.182437) scale(0.1 -0.1)">
       <defs>
        <path id="DejaVuSans-35" d="M 691 4666 
L 3169 4666 
L 3169 4134 
L 1269 4134 
L 1269 2991 
Q 1406 3038 1543 3061 
Q 1681 3084 1819 3084 
Q 2600 3084 3056 2656 
Q 3513 2228 3513 1497 
Q 3513 744 3044 326 
Q 2575 -91 1722 -91 
Q 1428 -91 1123 -41 
Q 819 9 494 109 
L 494 744 
Q 775 591 1075 516 
Q 1375 441 1709 441 
Q 2250 441 2565 725 
Q 2881 1009 2881 1497 
Q 2881 1984 2565 2268 
Q 2250 2553 1709 2553 
Q 1456 2553 1204 2497 
Q 953 2441 691 2322 
L 691 4666 
z
" transform="scale(0.015625)"/>
       </defs>
       <use xlink:href="#DejaVuSans-2212"/>
       <use xlink:href="#DejaVuSans-30" transform="translate(83.789062 0)"/>
       <use xlink:href="#DejaVuSans-2e" transform="translate(147.412109 0)"/>
       <use xlink:href="#DejaVuSans-35" transform="translate(179.199219 0)"/>
      </g>
     </g>
    </g>
    <g id="xtick_3">
     <g id="line2d_5">
      <path d="M 235.085004 307.584 
L 235.085004 41.472 
" clip-path="url(#pe2ce6e7494)" style="fill: none; stroke: #b0b0b0; stroke-opacity: 0.5; stroke-width: 0.8; stroke-linecap: square"/>
     </g>
     <g id="line2d_6">
      <g>
       <use xlink:href="#mc4936a6d37" x="235.085004" y="307.584" style="stroke: #000000; stroke-width: 0.8"/>
      </g>
     </g>
     <g id="text_3">
      <!-- 0.0 -->
      <g transform="translate(227.133442 322.182437) scale(0.1 -0.1)">
       <use xlink:href="#DejaVuSans-30"/>
       <use xlink:href="#DejaVuSans-2e" transform="translate(63.623047 0)"/>
       <use xlink:href="#DejaVuSans-30" transform="translate(95.410156 0)"/>
      </g>
     </g>
    </g>
    <g id="xtick_4">
     <g id="line2d_7">
      <path d="M 304.15931 307.584 
L 304.15931 41.472 
" clip-path="url(#pe2ce6e7494)" style="fill: none; stroke: #b0b0b0; stroke-opacity: 0.5; stroke-width: 0.8; stroke-linecap: square"/>
     </g>
     <g id="line2d_8">
      <g>
       <use xlink:href="#mc4936a6d37" x="304.15931" y="307.584" style="stroke: #000000; stroke-width: 0.8"/>
      </g>
     </g>
     <g id="text_4">
      <!-- 0.5 -->
      <g transform="translate(296.207748 322.182437) scale(0.1 -0.1)">
       <use xlink:href="#DejaVuSans-30"/>
       <use xlink:href="#DejaVuSans-2e" transform="translate(63.623047 0)"/>
       <use xlink:href="#DejaVuSans-35" transform="translate(95.410156 0)"/>
      </g>
     </g>
    </g>
    <g id="xtick_5">
     <g id="line2d_9">
      <path d="M 373.233616 307.584 
L 373.233616 41.472 
" clip-path="url(#pe2ce6e7494)" style="fill: none; stroke: #b0b0b0; stroke-opacity: 0.5; stroke-width: 0.8; stroke-linecap: square"/>
     </g>
     <g id="line2d_10">
      <g>
       <use xlink:href="#mc4936a6d37" x="373.233616" y="307.584" style="stroke: #000000; stroke-width: 0.8"/>
      </g>
     </g>
     <g id="text_5">
      <!-- 1.0 -->
      <g transform="translate(365.282054 322.182437) scale(0.1 -0.1)">
       <use xlink:href="#DejaVuSans-31"/>
       <use xlink:href="#DejaVuSans-2e" transform="translate(63.623047 0)"/>
       <use xlink:href="#DejaVuSans-30" transform="translate(95.410156 0)"/>
      </g>
     </g>
    </g>
    <g id="text_6">
     <!-- Index -->
     <g transform="translate(222.393594 335.860562) scale(0.1 -0.1)">
      <defs>
       <path id="DejaVuSans-49" d="M 628 4666 
L 1259 4666 
L 1259 0 
L 628 0 
L 628 4666 
z
" transform="scale(0.015625)"/>
       <path id="DejaVuSans-6e" d="M 3513 2113 
L 3513 0 
L 2938 0 
L 2938 2094 
Q 2938 2591 2744 2837 
Q 2550 3084 2163 3084 
Q 1697 3084 1428 2787 
Q 1159 2491 1159 1978 
L 1159 0 
L 581 0 
L 581 3500 
L 1159 3500 
L 1159 2956 
Q 1366 3272 1645 3428 
Q 1925 3584 2291 3584 
Q 2894 3584 3203 3211 
Q 3513 2838 3513 2113 
z
" transform="scale(0.015625)"/>
       <path id="DejaVuSans-64" d="M 2906 2969 
L 2906 4863 
L 3481 4863 
L 3481 0 
L 2906 0 
L 2906 525 
Q 2725 213 2448 61 
Q 2172 -91 1784 -91 
Q 1150 -91 751 415 
Q 353 922 353 1747 
Q 353 2572 751 3078 
Q 1150 3584 1784 3584 
Q 2172 3584 2448 3432 
Q 2725 3281 2906 2969 
z
M 947 1747 
Q 947 1113 1208 752 
Q 1469 391 1925 391 
Q 2381 391 2643 752 
Q 2906 1113 2906 1747 
Q 2906 2381 2643 2742 
Q 2381 3103 1925 3103 
Q 1469 3103 1208 2742 
Q 947 2381 947 1747 
z
" transform="scale(0.015625)"/>
       <path id="DejaVuSans-65" d="M 3597 1894 
L 3597 1613 
L 953 1613 
Q 991 1019 1311 708 
Q 1631 397 2203 397 
Q 2534 397 2845 478 
Q 3156 559 3463 722 
L 3463 178 
Q 3153 47 2828 -22 
Q 2503 -91 2169 -91 
Q 1331 -91 842 396 
Q 353 884 353 1716 
Q 353 2575 817 3079 
Q 1281 3584 2069 3584 
Q 2775 3584 3186 3129 
Q 3597 2675 3597 1894 
z
M 3022 2063 
Q 3016 2534 2758 2815 
Q 2500 3097 2075 3097 
Q 1594 3097 1305 2825 
Q 1016 2553 972 2059 
L 3022 2063 
z
" transform="scale(0.015625)"/>
       <path id="DejaVuSans-78" d="M 3513 3500 
L 2247 1797 
L 3578 0 
L 2900 0 
L 1881 1375 
L 863 0 
L 184 0 
L 1544 1831 
L 300 3500 
L 978 3500 
L 1906 2253 
L 2834 3500 
L 3513 3500 
z
" transform="scale(0.015625)"/>
      </defs>
      <use xlink:href="#DejaVuSans-49"/>
      <use xlink:href="#DejaVuSans-6e" transform="translate(29.492188 0)"/>
      <use xlink:href="#DejaVuSans-64" transform="translate(92.871094 0)"/>
      <use xlink:href="#DejaVuSans-65" transform="translate(156.347656 0)"/>
      <use xlink:href="#DejaVuSans-78" transform="translate(216.121094 0)"/>
     </g>
    </g>
   </g>
   <g id="matplotlib.axis_2">
    <g id="ytick_1">
     <g id="line2d_11">
      <path d="M 57.6 275.686072 
L 414.72 275.686072 
" clip-path="url(#pe2ce6e7494)" style="fill: none; stroke: #b0b0b0; stroke-opacity: 0.5; stroke-width: 0.8; stroke-linecap: square"/>
     </g>
     <g id="line2d_12">
      <defs>
       <path id="m98f93a326c" d="M 0 0 
L -3.5 0 
" style="stroke: #000000; stroke-width: 0.8"/>
      </defs>
      <g>
       <use xlink:href="#m98f93a326c" x="57.6" y="275.686072" style="stroke: #000000; stroke-width: 0.8"/>
      </g>
     </g>
     <g id="text_7">
      <!-- −1.0 -->
      <g transform="translate(26.317187 279.485291) scale(0.1 -0.1)">
       <use xlink:href="#DejaVuSans-2212"/>
       <use xlink:href="#DejaVuSans-31" transform="translate(83.789062 0)"/>
       <use xlink:href="#DejaVuSans-2e" transform="translate(147.412109 0)"/>
       <use xlink:href="#DejaVuSans-30" transform="translate(179.199219 0)"/>
      </g>
     </g>
    </g>
    <g id="ytick_2">
     <g id="line2d_13">
      <path d="M 57.6 225.196158 
L 414.72 225.196158 
" clip-path="url(#pe2ce6e7494)" style="fill: none; stroke: #b0b0b0; stroke-opacity: 0.5; stroke-width: 0.8; stroke-linecap: square"/>
     </g>
     <g id="line2d_14">
      <g>
       <use xlink:href="#m98f93a326c" x="57.6" y="225.196158" style="stroke: #000000; stroke-width: 0.8"/>
      </g>
     </g>
     <g id="text_8">
      <!-- −0.5 -->
      <g transform="translate(26.317187 228.995376) scale(0.1 -0.1)">
       <use xlink:href="#DejaVuSans-2212"/>
       <use xlink:href="#DejaVuSans-30" transform="translate(83.789062 0)"/>
       <use xlink:href="#DejaVuSans-2e" transform="translate(147.412109 0)"/>
       <use xlink:href="#DejaVuSans-35" transform="translate(179.199219 0)"/>
      </g>
     </g>
    </g>
    <g id="ytick_3">
     <g id="line2d_15">
      <path d="M 57.6 174.706243 
L 414.72 174.706243 
" clip-path="url(#pe2ce6e7494)" style="fill: none; stroke: #b0b0b0; stroke-opacity: 0.5; stroke-width: 0.8; stroke-linecap: square"/>
     </g>
     <g id="line2d_16">
      <g>
       <use xlink:href="#m98f93a326c" x="57.6" y="174.706243" style="stroke: #000000; stroke-width: 0.8"/>
      </g>
     </g>
     <g id="text_9">
      <!-- 0.0 -->
      <g transform="translate(34.696875 178.505461) scale(0.1 -0.1)">
       <use xlink:href="#DejaVuSans-30"/>
       <use xlink:href="#DejaVuSans-2e" transform="translate(63.623047 0)"/>
       <use xlink:href="#DejaVuSans-30" transform="translate(95.410156 0)"/>
      </g>
     </g>
    </g>
    <g id="ytick_4">
     <g id="line2d_17">
      <path d="M 57.6 124.216328 
L 414.72 124.216328 
" clip-path="url(#pe2ce6e7494)" style="fill: none; stroke: #b0b0b0; stroke-opacity: 0.5; stroke-width: 0.8; stroke-linecap: square"/>
     </g>
     <g id="line2d_18">
      <g>
       <use xlink:href="#m98f93a326c" x="57.6" y="124.216328" style="stroke: #000000; stroke-width: 0.8"/>
      </g>
     </g>
     <g id="text_10">
      <!-- 0.5 -->
      <g transform="translate(34.696875 128.015547) scale(0.1 -0.1)">
       <use xlink:href="#DejaVuSans-30"/>
       <use xlink:href="#DejaVuSans-2e" transform="translate(63.623047 0)"/>
       <use xlink:href="#DejaVuSans-35" transform="translate(95.410156 0)"/>
      </g>
     </g>
    </g>
    <g id="ytick_5">
     <g id="line2d_19">
      <path d="M 57.6 73.726413 
L 414.72 73.726413 
" clip-path="url(#pe2ce6e7494)" style="fill: none; stroke: #b0b0b0; stroke-opacity: 0.5; stroke-width: 0.8; stroke-linecap: square"/>
     </g>
     <g id="line2d_20">
      <g>
       <use xlink:href="#m98f93a326c" x="57.6" y="73.726413" style="stroke: #000000; stroke-width: 0.8"/>
      </g>
     </g>
     <g id="text_11">
      <!-- 1.0 -->
      <g transform="translate(34.696875 77.525632) scale(0.1 -0.1)">
       <use xlink:href="#DejaVuSans-31"/>
       <use xlink:href="#DejaVuSans-2e" transform="translate(63.623047 0)"/>
       <use xlink:href="#DejaVuSans-30" transform="translate(95.410156 0)"/>
      </g>
     </g>
    </g>
    <g id="text_12">
     <!-- Value -->
     <g transform="translate(20.2375 188.25925) rotate(-90) scale(0.1 -0.1)">
      <defs>
       <path id="DejaVuSans-56" d="M 1831 0 
L 50 4666 
L 709 4666 
L 2188 738 
L 3669 4666 
L 4325 4666 
L 2547 0 
L 1831 0 
z
" transform="scale(0.015625)"/>
       <path id="DejaVuSans-61" d="M 2194 1759 
Q 1497 1759 1228 1600 
Q 959 1441 959 1056 
Q 959 750 1161 570 
Q 1363 391 1709 391 
Q 2188 391 2477 730 
Q 2766 1069 2766 1631 
L 2766 1759 
L 2194 1759 
z
M 3341 1997 
L 3341 0 
L 2766 0 
L 2766 531 
Q 2569 213 2275 61 
Q 1981 -91 1556 -91 
Q 1019 -91 701 211 
Q 384 513 384 1019 
Q 384 1609 779 1909 
Q 1175 2209 1959 2209 
L 2766 2209 
L 2766 2266 
Q 2766 2663 2505 2880 
Q 2244 3097 1772 3097 
Q 1472 3097 1187 3025 
Q 903 2953 641 2809 
L 641 3341 
Q 956 3463 1253 3523 
Q 1550 3584 1831 3584 
Q 2591 3584 2966 3190 
Q 3341 2797 3341 1997 
z
" transform="scale(0.015625)"/>
       <path id="DejaVuSans-6c" d="M 603 4863 
L 1178 4863 
L 1178 0 
L 603 0 
L 603 4863 
z
" transform="scale(0.015625)"/>
       <path id="DejaVuSans-75" d="M 544 1381 
L 544 3500 
L 1119 3500 
L 1119 1403 
Q 1119 906 1312 657 
Q 1506 409 1894 409 
Q 2359 409 2629 706 
Q 2900 1003 2900 1516 
L 2900 3500 
L 3475 3500 
L 3475 0 
L 2900 0 
L 2900 538 
Q 2691 219 2414 64 
Q 2138 -91 1772 -91 
Q 1169 -91 856 284 
Q 544 659 544 1381 
z
M 1991 3584 
L 1991 3584 
z
" transform="scale(0.015625)"/>
      </defs>
      <use xlink:href="#DejaVuSans-56"/>
      <use xlink:href="#DejaVuSans-61" transform="translate(60.658203 0)"/>
      <use xlink:href="#DejaVuSans-6c" transform="translate(121.9375 0)"/>
      <use xlink:href="#DejaVuSans-75" transform="translate(149.720703 0)"/>
      <use xlink:href="#DejaVuSans-65" transform="translate(213.099609 0)"/>
     </g>
    </g>
   </g>
   <g id="line2d_21">
    <path d="M 231.964777 177.476813 
L 236.884956 176.999578 
L 238.579286 176.522282 
L 237.641799 175.568762 
L 238.106045 175.093137 
L 242.434062 173.67209 
L 243.062932 173.19971 
L 243.136777 172.727303 
L 243.089644 172.254426 
L 243.34655 171.780772 
L 244.07289 171.306266 
L 246.981709 169.880725 
L 247.45759 169.406618 
L 248.080218 168.462377 
L 248.622467 167.992118 
L 252.29156 165.640479 
L 253.221854 164.695495 
L 254.492156 163.752062 
L 256.53597 162.345227 
L 259.57714 160.005658 
L 262.024139 158.129651 
L 265.160328 155.793392 
L 326.053834 109.675979 
L 328.532473 109.166867 
L 327.45513 108.714128 
L 326.925657 108.261449 
L 327.348858 107.809162 
L 330.936888 106.456776 
L 331.520955 106.007113 
L 332.169019 104.656937 
L 332.833906 104.206063 
L 335.270732 102.854785 
L 337.846173 100.614635 
L 339.279559 99.716927 
L 340.346106 98.818184 
L 341.325823 97.921746 
L 343.267002 96.582934 
L 345.059897 95.242502 
L 347.28599 93.452057 
L 352.594099 89.438045 
L 355.573548 87.214236 
L 357.890153 85.429696 
L 360.159493 83.650682 
L 363.199786 81.429876 
L 365.96138 79.206272 
L 369.565632 76.549484 
L 371.736036 74.777476 
L 375.35576 72.132605 
L 377.465733 70.36927 
L 381.131248 67.737303 
L 383.130849 65.980818 
L 386.921047 63.36444 
L 388.716503 61.611084 
L 390.098844 60.75472 
L 392.281164 59.451069 
L 393.086231 58.561059 
L 393.627011 57.684387 
L 394.085085 57.25842 
L 394.794733 56.838724 
L 398.487273 55.104063 
L 398.435924 54.655429 
L 397.495369 54.234156 
L 395.58381 53.879717 
L 392.796977 53.64078 
L 389.409189 53.568 
L 385.87926 53.704183 
L 382.822985 54.074211 
L 380.916415 54.676615 
L 380.642246 55.479676 
L 382.013224 56.422917 
L 384.498829 57.424553 
L 389.401103 59.247222 
L 390.400335 59.921877 
L 390.026053 60.388809 
L 388.414535 60.657972 
L 383.178871 60.81982 
L 377.409641 61.031479 
L 374.64514 61.348529 
L 372.455558 61.858423 
L 371.521541 62.553217 
L 368.218616 63.499383 
L 380.159205 65.290104 
L 383.263157 66.073628 
L 382.971498 66.704165 
L 380.065763 67.161539 
L 369.681126 67.986063 
L 366.562649 68.69836 
L 364.690416 69.282106 
L 363.639291 70.001734 
L 364.131719 70.809815 
L 366.117939 71.64238 
L 370.763516 73.123912 
L 371.217984 73.683101 
L 369.842073 74.104584 
L 367.135262 74.411709 
L 361.256664 74.879574 
L 359.202437 75.157375 
L 357.781353 75.530123 
L 356.831947 76.022514 
L 356.340211 76.633375 
L 356.426803 77.337011 
L 357.162785 78.089171 
L 359.555639 79.531845 
L 360.195633 80.136205 
L 359.864507 80.63423 
L 358.483583 81.032673 
L 349.95592 82.328 
L 348.770157 82.775075 
L 348.154494 83.312993 
L 348.079645 83.930692 
L 348.458702 84.600959 
L 349.772781 85.949582 
L 350.112635 86.55768 
L 349.878888 87.092378 
L 348.979868 87.551269 
L 347.512417 87.948057 
L 342.323614 89.048203 
L 341.086913 89.48229 
L 340.270104 89.978931 
L 339.878283 90.536013 
L 339.856116 91.138826 
L 340.487868 92.975038 
L 340.268144 93.519824 
L 339.60819 94.012113 
L 338.533293 94.457016 
L 333.172929 96.12039 
L 332.302357 96.600069 
L 331.741791 97.121821 
L 331.459289 97.678524 
L 331.268311 99.402375 
L 330.969661 99.940841 
L 330.383197 100.445325 
L 329.506113 100.917096 
L 324.199371 103.172546 
L 323.597262 103.67813 
L 322.89127 104.750747 
L 322.325648 105.83918 
L 321.885804 106.364212 
L 321.27398 106.869003 
L 319.583601 107.822704 
L 316.803373 109.213219 
L 315.429925 110.191646 
L 314.44922 111.220535 
L 312.991386 112.773174 
L 311.663268 113.763633 
L 307.180071 116.642132 
L 302.353932 120.615011 
L 298.869926 123.026265 
L 293.832841 126.944605 
L 290.555713 129.372161 
L 287.356285 131.808247 
L 283.426239 134.737313 
L 281.561664 136.203299 
L 278.693893 136.750299 
L 280.038195 137.23554 
L 280.664509 137.720468 
L 280.079795 138.205815 
L 275.881575 139.66907 
L 275.366643 140.159181 
L 275.327102 141.13963 
L 274.989298 141.628537 
L 274.20193 142.115884 
L 272.088955 143.085734 
L 271.289734 143.568917 
L 270.404836 144.534783 
L 269.984631 145.018579 
L 268.618157 145.989173 
L 267.02725 146.962429 
L 265.88635 147.934389 
L 264.842233 148.90126 
L 262.715256 150.34142 
L 260.773789 151.780281 
L 257.64098 154.19428 
L 253.826186 157.065404 
L 251.241695 158.981997 
L 247.523464 161.860186 
L 242.436681 165.675187 
L 237.390608 169.480004 
L 218.083138 184.110438 
L 213.750864 187.383657 
L 202.687095 195.769728 
L 189.815842 205.536715 
L 187.141128 206.058418 
L 188.393676 206.522397 
L 188.979822 206.986681 
L 188.502702 207.451193 
L 184.648935 208.844181 
L 184.091506 209.307667 
L 183.95018 210.233008 
L 183.642913 210.695073 
L 182.929234 211.157036 
L 180.190317 212.542853 
L 179.699858 213.00475 
L 179.022603 213.927707 
L 178.503142 214.388596 
L 175.063675 216.688531 
L 174.104693 217.607242 
L 172.853894 218.524915 
L 170.888112 219.899302 
L 168.005778 222.18732 
L 165.005767 224.468913 
L 103.680958 271.493619 
L 101.243078 271.991259 
L 102.411871 272.434157 
L 102.964862 272.876953 
L 102.604414 273.319021 
L 101.519174 273.759812 
L 98.970889 274.637556 
L 98.312096 275.07538 
L 98.120064 275.513469 
L 98.099338 275.952395 
L 97.906886 276.392459 
L 97.366798 276.833317 
L 94.837222 278.154 
L 94.307065 278.591512 
L 93.143015 279.898605 
L 89.972052 282.090893 
L 89.213196 282.962798 
L 87.974609 283.827758 
L 85.821504 285.131625 
L 84.984883 286.010476 
L 84.224627 286.885209 
L 82.999643 287.746245 
L 80.746014 289.033704 
L 79.708575 289.911749 
L 78.337465 291.65799 
L 77.662516 292.078396 
L 73.947991 293.799732 
L 73.832727 294.24957 
L 74.55397 294.682591 
L 76.213774 295.064428 
L 78.712999 295.349747 
L 81.761962 295.488 
L 84.921874 295.432578 
L 87.707126 295.150594 
L 89.65098 294.632575 
L 90.414234 293.898273 
L 89.915861 292.997766 
L 88.407371 292.006278 
L 84.313442 290.109035 
L 82.710323 289.366102 
L 81.995273 288.828052 
L 82.524227 288.49965 
L 84.413769 288.345639 
L 94.711945 288.158501 
L 97.739022 287.901158 
L 99.643253 287.448587 
L 100.091956 286.795974 
L 99.064563 285.978973 
L 96.962988 285.065863 
L 92.422431 283.296556 
L 91.288585 282.594949 
L 91.40953 282.074751 
L 92.846053 281.733613 
L 95.376107 281.531861 
L 101.842156 281.261397 
L 104.756752 281.034052 
L 106.895974 280.662484 
L 107.969973 280.121183 
L 107.849374 279.4209 
L 106.670519 278.605295 
L 101.671319 276.158108 
L 101.254853 275.552634 
L 101.956712 275.101695 
L 103.73369 274.787835 
L 114.187709 273.808752 
L 115.578877 273.34876 
L 116.006287 272.751646 
L 115.520949 272.040168 
L 114.387457 271.260345 
L 111.872381 269.731258 
L 111.303514 269.087474 
L 111.547842 268.564519 
L 112.675497 268.160894 
L 114.569863 267.850043 
L 121.581994 266.992704 
L 123.148463 266.575193 
L 123.936271 266.049788 
L 123.935703 265.424591 
L 123.321449 264.728521 
L 121.554714 263.299317 
L 121.079776 262.654407 
L 121.193179 262.096356 
L 121.982296 261.632247 
L 123.393441 261.249032 
L 130.702995 259.841219 
L 131.660002 259.35549 
L 132.009136 258.791637 
L 131.843462 258.16606 
L 130.595661 256.227551 
L 130.715199 255.662241 
L 131.324067 255.16477 
L 132.409521 254.730268 
L 135.492352 253.969507 
L 138.457976 253.169028 
L 139.439356 252.698503 
L 139.982342 252.17181 
L 140.131268 251.597424 
L 139.791595 249.792329 
L 140.001314 249.236872 
L 142.671442 248.666729 
L 141.508528 248.206809 
L 141.523136 247.779139 
L 142.849929 247.365775 
L 147.081131 246.504571 
L 148.503376 246.02807 
L 148.933569 245.514263 
L 148.593912 244.968575 
L 148.032325 244.403138 
L 147.793349 243.833615 
L 148.150289 243.275497 
L 149.026872 242.740763 
L 152.013493 241.303446 
L 154.299655 239.951163 
L 156.090986 238.967313 
L 156.747713 238.444737 
L 157.135013 237.90993 
L 157.519316 236.840594 
L 157.873135 236.322436 
L 158.496884 235.821239 
L 160.359218 234.864986 
L 162.200992 233.934222 
L 163.529687 232.978968 
L 168.785706 228.474117 
L 171.845967 226.559918 
L 173.531165 225.074005 
L 175.279789 223.581563 
L 178.068433 221.642601 
L 180.706538 219.696659 
L 183.756625 217.23964 
L 187.815249 214.312785 
L 190.902728 211.85877 
L 196.166389 207.948228 
L 199.333349 205.504514 
L 203.907202 202.103974 
L 208.975242 198.228008 
L 212.850102 195.329112 
L 215.930886 192.916043 
L 220.505035 189.556724 
L 223.571665 187.147599 
L 228.712941 183.321009 
L 233.130758 179.975596 
L 235.670072 178.072897 
L 238.366319 177.53645 
L 238.366319 177.53645 
" clip-path="url(#pe2ce6e7494)" style="fill: none; stroke: #1f77b4; stroke-width: 1.5; stroke-linecap: square"/>
   </g>
   <g id="line2d_22">
    <path d="M 235.542851 177.476813 
L 265.910026 154.393682 
L 270.258216 151.121796 
L 273.99944 148.323241 
L 278.274528 145.051635 
L 380.436191 67.294965 
L 382.15907 65.980818 
L 384.701689 64.24612 
L 387.865538 61.611084 
L 390.600988 59.891024 
L 391.481119 59.006588 
L 392.218913 58.119034 
L 392.74599 57.684387 
L 394.354033 56.838724 
L 396.162895 55.992965 
L 396.654235 55.554046 
L 396.553826 55.104063 
L 395.692683 54.655429 
L 394.029322 54.234156 
L 391.686845 53.879717 
L 388.953964 53.64078 
L 386.245472 53.568 
L 384.025489 53.704183 
L 382.711064 54.074211 
L 382.574226 54.676615 
L 383.669438 55.479676 
L 385.801973 56.422917 
L 393.568037 59.247222 
L 394.69136 59.921877 
L 394.38152 60.388809 
L 392.575738 60.657972 
L 385.627257 60.81982 
L 378.017859 61.031479 
L 375.478517 61.348529 
L 374.29566 61.858423 
L 374.522021 62.553217 
L 376.163808 63.499383 
L 382.23028 66.073628 
L 382.90322 66.704165 
L 382.330524 67.161539 
L 380.531363 67.461615 
L 374.508796 67.801898 
L 371.275451 67.986063 
L 368.583197 68.270455 
L 366.810147 68.69836 
L 366.130685 69.282106 
L 366.487173 70.001734 
L 367.611245 70.809815 
L 370.449625 72.432405 
L 371.271416 73.123912 
L 371.262062 73.683101 
L 370.31725 74.104584 
L 368.533808 74.411709 
L 361.298675 75.157375 
L 359.508193 75.530123 
L 358.470614 76.022514 
L 358.222531 76.633375 
L 358.630203 77.337011 
L 360.834467 79.531845 
L 360.857407 80.136205 
L 360.212217 80.63423 
L 358.920124 81.032673 
L 355.129983 81.653724 
L 351.563445 82.328 
L 350.45594 82.775075 
L 349.923807 83.312993 
L 349.904736 83.930692 
L 350.966969 85.949582 
L 350.930878 86.55768 
L 350.43696 87.092378 
L 349.469388 87.551269 
L 346.537731 88.308545 
L 343.52541 89.048203 
L 342.435346 89.48229 
L 341.742059 89.978931 
L 341.426208 90.536013 
L 341.387803 91.138826 
L 341.504713 92.38407 
L 341.332913 92.975038 
L 340.855744 93.519824 
L 340.044855 94.012113 
L 337.670256 94.869374 
L 335.151771 95.680778 
L 334.166076 96.12039 
L 333.457844 96.600069 
L 333.019235 97.121821 
L 332.63527 98.25595 
L 332.45419 98.836349 
L 332.127774 99.402375 
L 331.584549 99.940841 
L 330.806383 100.445325 
L 328.73698 101.364448 
L 326.606083 102.239086 
L 325.743046 102.693691 
L 325.072692 103.172546 
L 324.214901 104.206996 
L 323.537407 105.29847 
L 323.073816 105.83918 
L 322.465301 106.364212 
L 320.839612 107.353696 
L 317.387934 109.213219 
L 316.223653 110.191646 
L 314.239072 112.261829 
L 312.846693 113.273895 
L 308.359494 116.152394 
L 304.97169 119.147124 
L 299.409655 123.026265 
L 297.137347 124.993204 
L 294.937151 126.459535 
L 292.738519 127.913429 
L 290.964361 129.372161 
L 289.23776 130.834999 
L 287.134205 132.294664 
L 284.26594 134.247447 
L 277.80915 139.179962 
L 275.149496 141.13963 
L 270.816999 144.534783 
L 266.223522 147.934389 
L 262.492891 150.820416 
L 258.553316 153.711352 
L 254.163741 157.065404 
L 249.663294 160.425873 
L 243.925382 164.718122 
L 232.032063 173.751677 
L 227.587363 177.053513 
L 207.262088 192.513718 
L 95.959524 277.274427 
L 93.691007 279.027603 
L 90.794576 281.212488 
L 88.593812 282.962798 
L 85.568365 285.131625 
L 82.964499 287.317412 
L 79.76302 289.470517 
L 78.106724 291.230867 
L 76.650208 292.078396 
L 74.835418 292.919822 
L 74.202777 293.35377 
L 74.063864 293.799732 
L 74.619547 294.24957 
L 75.969462 294.682591 
L 78.063592 295.064428 
L 80.682841 295.349747 
L 83.459282 295.488 
L 85.936966 295.432578 
L 87.661903 295.150594 
L 88.284153 294.632575 
L 87.646686 293.898273 
L 85.839883 292.997766 
L 80.277219 291.01355 
L 77.693461 290.109035 
L 76.055181 289.366102 
L 75.804875 288.828052 
L 77.125574 288.49965 
L 79.894621 288.345639 
L 91.864525 288.158501 
L 94.881753 287.901158 
L 96.531857 287.448587 
L 96.656327 286.795974 
L 95.41191 285.978973 
L 93.233773 285.065863 
L 88.596496 283.296556 
L 87.381607 282.594949 
L 87.463045 282.074751 
L 88.928569 281.733613 
L 91.576077 281.531861 
L 101.63042 281.034052 
L 103.83442 280.662484 
L 104.85302 280.121183 
L 104.671601 279.4209 
L 103.52682 278.605295 
L 98.958266 276.158108 
L 98.632105 275.552634 
L 99.357695 275.101695 
L 101.0847 274.787835 
L 111.150389 273.808752 
L 112.445834 273.34876 
L 112.815801 272.751646 
L 112.366463 272.040168 
L 109.324853 269.731258 
L 109.002736 269.087474 
L 109.458941 268.564519 
L 110.715651 268.160894 
L 114.89147 267.58682 
L 119.11849 266.992704 
L 120.475617 266.575193 
L 121.122265 266.049788 
L 121.096064 265.424591 
L 120.578357 264.728521 
L 119.222176 263.299317 
L 118.97616 262.654407 
L 119.295189 262.096356 
L 120.232953 261.632247 
L 121.7069 261.249032 
L 127.124559 260.249123 
L 128.432725 259.841219 
L 129.223687 259.35549 
L 129.498392 258.791637 
L 129.370571 258.16606 
L 128.729852 256.850534 
L 128.665509 256.227551 
L 128.996561 255.662241 
L 129.781429 255.16477 
L 130.975345 254.730268 
L 136.610767 253.169028 
L 137.401812 252.698503 
L 137.810439 252.17181 
L 137.914891 251.597424 
L 137.813444 250.384056 
L 137.942286 249.792329 
L 138.360111 249.236872 
L 139.227175 248.666729 
L 141.572912 247.779139 
L 144.075332 246.946741 
L 145.055099 246.504571 
L 145.759049 246.02807 
L 146.196447 245.514263 
L 146.592269 244.403138 
L 146.785545 243.833615 
L 147.124156 243.275497 
L 147.674775 242.740763 
L 148.450273 242.235455 
L 150.474033 241.303446 
L 152.519449 240.411474 
L 153.978238 239.470484 
L 154.816621 238.444737 
L 155.527513 237.372115 
L 156.014951 236.840594 
L 157.41236 235.821239 
L 161.671288 233.462 
L 162.781741 232.48385 
L 164.691967 230.439644 
L 166.10109 229.439796 
L 170.058811 227.044263 
L 171.173373 226.069321 
L 173.24427 224.075857 
L 174.678664 223.091938 
L 178.48669 220.675329 
L 180.102194 219.20406 
L 181.196898 218.218657 
L 182.545005 217.23964 
L 186.954267 214.312785 
L 191.144763 210.885594 
L 195.338265 207.948228 
L 199.604937 204.53637 
L 204.267827 201.126926 
L 207.928745 198.228008 
L 212.546711 194.843412 
L 215.62139 192.438369 
L 220.826838 188.588869 
L 224.60963 185.717636 
L 229.712157 181.881147 
L 235.464183 177.53645 
L 235.464183 177.53645 
" clip-path="url(#pe2ce6e7494)" style="fill: none; stroke: #ff7f0e; stroke-opacity: 0.5; stroke-width: 1.5; stroke-linecap: square"/>
   </g>
   <g id="patch_3">
    <path d="M 57.6 307.584 
L 57.6 41.472 
" style="fill: none; stroke: #000000; stroke-width: 0.8; stroke-linejoin: miter; stroke-linecap: square"/>
   </g>
   <g id="patch_4">
    <path d="M 414.72 307.584 
L 414.72 41.472 
" style="fill: none; stroke: #000000; stroke-width: 0.8; stroke-linejoin: miter; stroke-linecap: square"/>
   </g>
   <g id="patch_5">
    <path d="M 57.6 307.584 
L 414.72 307.584 
" style="fill: none; stroke: #000000; stroke-width: 0.8; stroke-linejoin: miter; stroke-linecap: square"/>
   </g>
   <g id="patch_6">
    <path d="M 57.6 41.472 
L 414.72 41.472 
" style="fill: none; stroke: #000000; stroke-width: 0.8; stroke-linejoin: miter; stroke-linecap: square"/>
   </g>
   <g id="text_13">
    <!-- Compare - Epoch 2100 -->
    <g transform="translate(167.416875 35.472) scale(0.12 -0.12)">
     <defs>
      <path id="DejaVuSans-43" d="M 4122 4306 
L 4122 3641 
Q 3803 3938 3442 4084 
Q 3081 4231 2675 4231 
Q 1875 4231 1450 3742 
Q 1025 3253 1025 2328 
Q 1025 1406 1450 917 
Q 1875 428 2675 428 
Q 3081 428 3442 575 
Q 3803 722 4122 1019 
L 4122 359 
Q 3791 134 3420 21 
Q 3050 -91 2638 -91 
Q 1578 -91 968 557 
Q 359 1206 359 2328 
Q 359 3453 968 4101 
Q 1578 4750 2638 4750 
Q 3056 4750 3426 4639 
Q 3797 4528 4122 4306 
z
" transform="scale(0.015625)"/>
      <path id="DejaVuSans-6f" d="M 1959 3097 
Q 1497 3097 1228 2736 
Q 959 2375 959 1747 
Q 959 1119 1226 758 
Q 1494 397 1959 397 
Q 2419 397 2687 759 
Q 2956 1122 2956 1747 
Q 2956 2369 2687 2733 
Q 2419 3097 1959 3097 
z
M 1959 3584 
Q 2709 3584 3137 3096 
Q 3566 2609 3566 1747 
Q 3566 888 3137 398 
Q 2709 -91 1959 -91 
Q 1206 -91 779 398 
Q 353 888 353 1747 
Q 353 2609 779 3096 
Q 1206 3584 1959 3584 
z
" transform="scale(0.015625)"/>
      <path id="DejaVuSans-6d" d="M 3328 2828 
Q 3544 3216 3844 3400 
Q 4144 3584 4550 3584 
Q 5097 3584 5394 3201 
Q 5691 2819 5691 2113 
L 5691 0 
L 5113 0 
L 5113 2094 
Q 5113 2597 4934 2840 
Q 4756 3084 4391 3084 
Q 3944 3084 3684 2787 
Q 3425 2491 3425 1978 
L 3425 0 
L 2847 0 
L 2847 2094 
Q 2847 2600 2669 2842 
Q 2491 3084 2119 3084 
Q 1678 3084 1418 2786 
Q 1159 2488 1159 1978 
L 1159 0 
L 581 0 
L 581 3500 
L 1159 3500 
L 1159 2956 
Q 1356 3278 1631 3431 
Q 1906 3584 2284 3584 
Q 2666 3584 2933 3390 
Q 3200 3197 3328 2828 
z
" transform="scale(0.015625)"/>
      <path id="DejaVuSans-70" d="M 1159 525 
L 1159 -1331 
L 581 -1331 
L 581 3500 
L 1159 3500 
L 1159 2969 
Q 1341 3281 1617 3432 
Q 1894 3584 2278 3584 
Q 2916 3584 3314 3078 
Q 3713 2572 3713 1747 
Q 3713 922 3314 415 
Q 2916 -91 2278 -91 
Q 1894 -91 1617 61 
Q 1341 213 1159 525 
z
M 3116 1747 
Q 3116 2381 2855 2742 
Q 2594 3103 2138 3103 
Q 1681 3103 1420 2742 
Q 1159 2381 1159 1747 
Q 1159 1113 1420 752 
Q 1681 391 2138 391 
Q 2594 391 2855 752 
Q 3116 1113 3116 1747 
z
" transform="scale(0.015625)"/>
      <path id="DejaVuSans-72" d="M 2631 2963 
Q 2534 3019 2420 3045 
Q 2306 3072 2169 3072 
Q 1681 3072 1420 2755 
Q 1159 2438 1159 1844 
L 1159 0 
L 581 0 
L 581 3500 
L 1159 3500 
L 1159 2956 
Q 1341 3275 1631 3429 
Q 1922 3584 2338 3584 
Q 2397 3584 2469 3576 
Q 2541 3569 2628 3553 
L 2631 2963 
z
" transform="scale(0.015625)"/>
      <path id="DejaVuSans-20" transform="scale(0.015625)"/>
      <path id="DejaVuSans-2d" d="M 313 2009 
L 1997 2009 
L 1997 1497 
L 313 1497 
L 313 2009 
z
" transform="scale(0.015625)"/>
      <path id="DejaVuSans-45" d="M 628 4666 
L 3578 4666 
L 3578 4134 
L 1259 4134 
L 1259 2753 
L 3481 2753 
L 3481 2222 
L 1259 2222 
L 1259 531 
L 3634 531 
L 3634 0 
L 628 0 
L 628 4666 
z
" transform="scale(0.015625)"/>
      <path id="DejaVuSans-63" d="M 3122 3366 
L 3122 2828 
Q 2878 2963 2633 3030 
Q 2388 3097 2138 3097 
Q 1578 3097 1268 2742 
Q 959 2388 959 1747 
Q 959 1106 1268 751 
Q 1578 397 2138 397 
Q 2388 397 2633 464 
Q 2878 531 3122 666 
L 3122 134 
Q 2881 22 2623 -34 
Q 2366 -91 2075 -91 
Q 1284 -91 818 406 
Q 353 903 353 1747 
Q 353 2603 823 3093 
Q 1294 3584 2113 3584 
Q 2378 3584 2631 3529 
Q 2884 3475 3122 3366 
z
" transform="scale(0.015625)"/>
      <path id="DejaVuSans-68" d="M 3513 2113 
L 3513 0 
L 2938 0 
L 2938 2094 
Q 2938 2591 2744 2837 
Q 2550 3084 2163 3084 
Q 1697 3084 1428 2787 
Q 1159 2491 1159 1978 
L 1159 0 
L 581 0 
L 581 4863 
L 1159 4863 
L 1159 2956 
Q 1366 3272 1645 3428 
Q 1925 3584 2291 3584 
Q 2894 3584 3203 3211 
Q 3513 2838 3513 2113 
z
" transform="scale(0.015625)"/>
      <path id="DejaVuSans-32" d="M 1228 531 
L 3431 531 
L 3431 0 
L 469 0 
L 469 531 
Q 828 903 1448 1529 
Q 2069 2156 2228 2338 
Q 2531 2678 2651 2914 
Q 2772 3150 2772 3378 
Q 2772 3750 2511 3984 
Q 2250 4219 1831 4219 
Q 1534 4219 1204 4116 
Q 875 4013 500 3803 
L 500 4441 
Q 881 4594 1212 4672 
Q 1544 4750 1819 4750 
Q 2544 4750 2975 4387 
Q 3406 4025 3406 3419 
Q 3406 3131 3298 2873 
Q 3191 2616 2906 2266 
Q 2828 2175 2409 1742 
Q 1991 1309 1228 531 
z
" transform="scale(0.015625)"/>
     </defs>
     <use xlink:href="#DejaVuSans-43"/>
     <use xlink:href="#DejaVuSans-6f" transform="translate(69.824219 0)"/>
     <use xlink:href="#DejaVuSans-6d" transform="translate(131.005859 0)"/>
     <use xlink:href="#DejaVuSans-70" transform="translate(228.417969 0)"/>
     <use xlink:href="#DejaVuSans-61" transform="translate(291.894531 0)"/>
     <use xlink:href="#DejaVuSans-72" transform="translate(353.173828 0)"/>
     <use xlink:href="#DejaVuSans-65" transform="translate(392.037109 0)"/>
     <use xlink:href="#DejaVuSans-20" transform="translate(453.560547 0)"/>
     <use xlink:href="#DejaVuSans-2d" transform="translate(485.347656 0)"/>
     <use xlink:href="#DejaVuSans-20" transform="translate(521.431641 0)"/>
     <use xlink:href="#DejaVuSans-45" transform="translate(553.21875 0)"/>
     <use xlink:href="#DejaVuSans-70" transform="translate(616.402344 0)"/>
     <use xlink:href="#DejaVuSans-6f" transform="translate(679.878906 0)"/>
     <use xlink:href="#DejaVuSans-63" transform="translate(741.060547 0)"/>
     <use xlink:href="#DejaVuSans-68" transform="translate(796.041016 0)"/>
     <use xlink:href="#DejaVuSans-20" transform="translate(859.419922 0)"/>
     <use xlink:href="#DejaVuSans-32" transform="translate(891.207031 0)"/>
     <use xlink:href="#DejaVuSans-31" transform="translate(954.830078 0)"/>
     <use xlink:href="#DejaVuSans-30" transform="translate(1018.453125 0)"/>
     <use xlink:href="#DejaVuSans-30" transform="translate(1082.076172 0)"/>
    </g>
   </g>
   <g id="legend_1">
    <g id="patch_7">
     <path d="M 64.6 78.82825 
L 181.128125 78.82825 
Q 183.128125 78.82825 183.128125 76.82825 
L 183.128125 48.472 
Q 183.128125 46.472 181.128125 46.472 
L 64.6 46.472 
Q 62.6 46.472 62.6 48.472 
L 62.6 76.82825 
Q 62.6 78.82825 64.6 78.82825 
z
" style="fill: #ffffff; opacity: 0.8; stroke: #cccccc; stroke-linejoin: miter"/>
    </g>
    <g id="line2d_23">
     <path d="M 66.6 54.570437 
L 76.6 54.570437 
L 86.6 54.570437 
" style="fill: none; stroke: #1f77b4; stroke-width: 1.5; stroke-linecap: square"/>
    </g>
    <g id="text_14">
     <!-- Pred: Sample 1 -->
     <g transform="translate(94.6 58.070437) scale(0.1 -0.1)">
      <defs>
       <path id="DejaVuSans-50" d="M 1259 4147 
L 1259 2394 
L 2053 2394 
Q 2494 2394 2734 2622 
Q 2975 2850 2975 3272 
Q 2975 3691 2734 3919 
Q 2494 4147 2053 4147 
L 1259 4147 
z
M 628 4666 
L 2053 4666 
Q 2838 4666 3239 4311 
Q 3641 3956 3641 3272 
Q 3641 2581 3239 2228 
Q 2838 1875 2053 1875 
L 1259 1875 
L 1259 0 
L 628 0 
L 628 4666 
z
" transform="scale(0.015625)"/>
       <path id="DejaVuSans-3a" d="M 750 794 
L 1409 794 
L 1409 0 
L 750 0 
L 750 794 
z
M 750 3309 
L 1409 3309 
L 1409 2516 
L 750 2516 
L 750 3309 
z
" transform="scale(0.015625)"/>
       <path id="DejaVuSans-53" d="M 3425 4513 
L 3425 3897 
Q 3066 4069 2747 4153 
Q 2428 4238 2131 4238 
Q 1616 4238 1336 4038 
Q 1056 3838 1056 3469 
Q 1056 3159 1242 3001 
Q 1428 2844 1947 2747 
L 2328 2669 
Q 3034 2534 3370 2195 
Q 3706 1856 3706 1288 
Q 3706 609 3251 259 
Q 2797 -91 1919 -91 
Q 1588 -91 1214 -16 
Q 841 59 441 206 
L 441 856 
Q 825 641 1194 531 
Q 1563 422 1919 422 
Q 2459 422 2753 634 
Q 3047 847 3047 1241 
Q 3047 1584 2836 1778 
Q 2625 1972 2144 2069 
L 1759 2144 
Q 1053 2284 737 2584 
Q 422 2884 422 3419 
Q 422 4038 858 4394 
Q 1294 4750 2059 4750 
Q 2388 4750 2728 4690 
Q 3069 4631 3425 4513 
z
" transform="scale(0.015625)"/>
      </defs>
      <use xlink:href="#DejaVuSans-50"/>
      <use xlink:href="#DejaVuSans-72" transform="translate(58.552734 0)"/>
      <use xlink:href="#DejaVuSans-65" transform="translate(97.416016 0)"/>
      <use xlink:href="#DejaVuSans-64" transform="translate(158.939453 0)"/>
      <use xlink:href="#DejaVuSans-3a" transform="translate(222.416016 0)"/>
      <use xlink:href="#DejaVuSans-20" transform="translate(256.107422 0)"/>
      <use xlink:href="#DejaVuSans-53" transform="translate(287.894531 0)"/>
      <use xlink:href="#DejaVuSans-61" transform="translate(351.371094 0)"/>
      <use xlink:href="#DejaVuSans-6d" transform="translate(412.650391 0)"/>
      <use xlink:href="#DejaVuSans-70" transform="translate(510.0625 0)"/>
      <use xlink:href="#DejaVuSans-6c" transform="translate(573.539062 0)"/>
      <use xlink:href="#DejaVuSans-65" transform="translate(601.322266 0)"/>
      <use xlink:href="#DejaVuSans-20" transform="translate(662.845703 0)"/>
      <use xlink:href="#DejaVuSans-31" transform="translate(694.632812 0)"/>
     </g>
    </g>
    <g id="line2d_24">
     <path d="M 66.6 69.248562 
L 76.6 69.248562 
L 86.6 69.248562 
" style="fill: none; stroke: #ff7f0e; stroke-opacity: 0.5; stroke-width: 1.5; stroke-linecap: square"/>
    </g>
    <g id="text_15">
     <!-- Target: Sample 1 -->
     <g transform="translate(94.6 72.748562) scale(0.1 -0.1)">
      <defs>
       <path id="DejaVuSans-54" d="M -19 4666 
L 3928 4666 
L 3928 4134 
L 2272 4134 
L 2272 0 
L 1638 0 
L 1638 4134 
L -19 4134 
L -19 4666 
z
" transform="scale(0.015625)"/>
       <path id="DejaVuSans-67" d="M 2906 1791 
Q 2906 2416 2648 2759 
Q 2391 3103 1925 3103 
Q 1463 3103 1205 2759 
Q 947 2416 947 1791 
Q 947 1169 1205 825 
Q 1463 481 1925 481 
Q 2391 481 2648 825 
Q 2906 1169 2906 1791 
z
M 3481 434 
Q 3481 -459 3084 -895 
Q 2688 -1331 1869 -1331 
Q 1566 -1331 1297 -1286 
Q 1028 -1241 775 -1147 
L 775 -588 
Q 1028 -725 1275 -790 
Q 1522 -856 1778 -856 
Q 2344 -856 2625 -561 
Q 2906 -266 2906 331 
L 2906 616 
Q 2728 306 2450 153 
Q 2172 0 1784 0 
Q 1141 0 747 490 
Q 353 981 353 1791 
Q 353 2603 747 3093 
Q 1141 3584 1784 3584 
Q 2172 3584 2450 3431 
Q 2728 3278 2906 2969 
L 2906 3500 
L 3481 3500 
L 3481 434 
z
" transform="scale(0.015625)"/>
       <path id="DejaVuSans-74" d="M 1172 4494 
L 1172 3500 
L 2356 3500 
L 2356 3053 
L 1172 3053 
L 1172 1153 
Q 1172 725 1289 603 
Q 1406 481 1766 481 
L 2356 481 
L 2356 0 
L 1766 0 
Q 1100 0 847 248 
Q 594 497 594 1153 
L 594 3053 
L 172 3053 
L 172 3500 
L 594 3500 
L 594 4494 
L 1172 4494 
z
" transform="scale(0.015625)"/>
      </defs>
      <use xlink:href="#DejaVuSans-54"/>
      <use xlink:href="#DejaVuSans-61" transform="translate(44.583984 0)"/>
      <use xlink:href="#DejaVuSans-72" transform="translate(105.863281 0)"/>
      <use xlink:href="#DejaVuSans-67" transform="translate(145.226562 0)"/>
      <use xlink:href="#DejaVuSans-65" transform="translate(208.703125 0)"/>
      <use xlink:href="#DejaVuSans-74" transform="translate(270.226562 0)"/>
      <use xlink:href="#DejaVuSans-3a" transform="translate(309.435547 0)"/>
      <use xlink:href="#DejaVuSans-20" transform="translate(343.126953 0)"/>
      <use xlink:href="#DejaVuSans-53" transform="translate(374.914062 0)"/>
      <use xlink:href="#DejaVuSans-61" transform="translate(438.390625 0)"/>
      <use xlink:href="#DejaVuSans-6d" transform="translate(499.669922 0)"/>
      <use xlink:href="#DejaVuSans-70" transform="translate(597.082031 0)"/>
      <use xlink:href="#DejaVuSans-6c" transform="translate(660.558594 0)"/>
      <use xlink:href="#DejaVuSans-65" transform="translate(688.341797 0)"/>
      <use xlink:href="#DejaVuSans-20" transform="translate(749.865234 0)"/>
      <use xlink:href="#DejaVuSans-31" transform="translate(781.652344 0)"/>
     </g>
    </g>
   </g>
  </g>
 </g>
 <defs>
  <clipPath id="pe2ce6e7494">
   <rect x="57.6" y="41.472" width="357.12" height="266.112"/>
  </clipPath>
 </defs>
</svg>
