<?xml version="1.0" encoding="utf-8" standalone="no"?>
<!DOCTYPE svg PUBLIC "-//W3C//DTD SVG 1.1//EN"
  "http://www.w3.org/Graphics/SVG/1.1/DTD/svg11.dtd">
<svg xmlns:xlink="http://www.w3.org/1999/xlink" width="460.8pt" height="345.6pt" viewBox="0 0 460.8 345.6" xmlns="http://www.w3.org/2000/svg" version="1.1">
 <metadata>
  <rdf:RDF xmlns:dc="http://purl.org/dc/elements/1.1/" xmlns:cc="http://creativecommons.org/ns#" xmlns:rdf="http://www.w3.org/1999/02/22-rdf-syntax-ns#">
   <cc:Work>
    <dc:type rdf:resource="http://purl.org/dc/dcmitype/StillImage"/>
    <dc:date>2025-04-16T02:32:08.250515</dc:date>
    <dc:format>image/svg+xml</dc:format>
    <dc:creator>
     <cc:Agent>
      <dc:title>Matplotlib v3.10.0, https://matplotlib.org/</dc:title>
     </cc:Agent>
    </dc:creator>
   </cc:Work>
  </rdf:RDF>
 </metadata>
 <defs>
  <style type="text/css">*{stroke-linejoin: round; stroke-linecap: butt}</style>
 </defs>
 <g id="figure_1">
  <g id="patch_1">
   <path d="M 0 345.6 
L 460.8 345.6 
L 460.8 0 
L 0 0 
z
" style="fill: #ffffff"/>
  </g>
  <g id="axes_1">
   <g id="patch_2">
    <path d="M 57.6 307.584 
L 414.72 307.584 
L 414.72 41.472 
L 57.6 41.472 
z
" style="fill: #ffffff"/>
   </g>
   <g id="matplotlib.axis_1">
    <g id="xtick_1">
     <g id="line2d_1">
      <path d="M 97.597517 307.584 
L 97.597517 41.472 
" clip-path="url(#pfd87308ed5)" style="fill: none; stroke: #b0b0b0; stroke-opacity: 0.5; stroke-width: 0.8; stroke-linecap: square"/>
     </g>
     <g id="line2d_2">
      <defs>
       <path id="m0f5e2145f1" d="M 0 0 
L 0 3.5 
" style="stroke: #000000; stroke-width: 0.8"/>
      </defs>
      <g>
       <use xlink:href="#m0f5e2145f1" x="97.597517" y="307.584" style="stroke: #000000; stroke-width: 0.8"/>
      </g>
     </g>
     <g id="text_1">
      <!-- −1.0 -->
      <g transform="translate(85.456111 322.182437) scale(0.1 -0.1)">
       <defs>
        <path id="DejaVuSans-2212" d="M 678 2272 
L 4684 2272 
L 4684 1741 
L 678 1741 
L 678 2272 
z
" transform="scale(0.015625)"/>
        <path id="DejaVuSans-31" d="M 794 531 
L 1825 531 
L 1825 4091 
L 703 3866 
L 703 4441 
L 1819 4666 
L 2450 4666 
L 2450 531 
L 3481 531 
L 3481 0 
L 794 0 
L 794 531 
z
" transform="scale(0.015625)"/>
        <path id="DejaVuSans-2e" d="M 684 794 
L 1344 794 
L 1344 0 
L 684 0 
L 684 794 
z
" transform="scale(0.015625)"/>
        <path id="DejaVuSans-30" d="M 2034 4250 
Q 1547 4250 1301 3770 
Q 1056 3291 1056 2328 
Q 1056 1369 1301 889 
Q 1547 409 2034 409 
Q 2525 409 2770 889 
Q 3016 1369 3016 2328 
Q 3016 3291 2770 3770 
Q 2525 4250 2034 4250 
z
M 2034 4750 
Q 2819 4750 3233 4129 
Q 3647 3509 3647 2328 
Q 3647 1150 3233 529 
Q 2819 -91 2034 -91 
Q 1250 -91 836 529 
Q 422 1150 422 2328 
Q 422 3509 836 4129 
Q 1250 4750 2034 4750 
z
" transform="scale(0.015625)"/>
       </defs>
       <use xlink:href="#DejaVuSans-2212"/>
       <use xlink:href="#DejaVuSans-31" transform="translate(83.789062 0)"/>
       <use xlink:href="#DejaVuSans-2e" transform="translate(147.412109 0)"/>
       <use xlink:href="#DejaVuSans-30" transform="translate(179.199219 0)"/>
      </g>
     </g>
    </g>
    <g id="xtick_2">
     <g id="line2d_3">
      <path d="M 166.69637 307.584 
L 166.69637 41.472 
" clip-path="url(#pfd87308ed5)" style="fill: none; stroke: #b0b0b0; stroke-opacity: 0.5; stroke-width: 0.8; stroke-linecap: square"/>
     </g>
     <g id="line2d_4">
      <g>
       <use xlink:href="#m0f5e2145f1" x="166.69637" y="307.584" style="stroke: #000000; stroke-width: 0.8"/>
      </g>
     </g>
     <g id="text_2">
      <!-- −0.5 -->
      <g transform="translate(154.554964 322.182437) scale(0.1 -0.1)">
       <defs>
        <path id="DejaVuSans-35" d="M 691 4666 
L 3169 4666 
L 3169 4134 
L 1269 4134 
L 1269 2991 
Q 1406 3038 1543 3061 
Q 1681 3084 1819 3084 
Q 2600 3084 3056 2656 
Q 3513 2228 3513 1497 
Q 3513 744 3044 326 
Q 2575 -91 1722 -91 
Q 1428 -91 1123 -41 
Q 819 9 494 109 
L 494 744 
Q 775 591 1075 516 
Q 1375 441 1709 441 
Q 2250 441 2565 725 
Q 2881 1009 2881 1497 
Q 2881 1984 2565 2268 
Q 2250 2553 1709 2553 
Q 1456 2553 1204 2497 
Q 953 2441 691 2322 
L 691 4666 
z
" transform="scale(0.015625)"/>
       </defs>
       <use xlink:href="#DejaVuSans-2212"/>
       <use xlink:href="#DejaVuSans-30" transform="translate(83.789062 0)"/>
       <use xlink:href="#DejaVuSans-2e" transform="translate(147.412109 0)"/>
       <use xlink:href="#DejaVuSans-35" transform="translate(179.199219 0)"/>
      </g>
     </g>
    </g>
    <g id="xtick_3">
     <g id="line2d_5">
      <path d="M 235.795223 307.584 
L 235.795223 41.472 
" clip-path="url(#pfd87308ed5)" style="fill: none; stroke: #b0b0b0; stroke-opacity: 0.5; stroke-width: 0.8; stroke-linecap: square"/>
     </g>
     <g id="line2d_6">
      <g>
       <use xlink:href="#m0f5e2145f1" x="235.795223" y="307.584" style="stroke: #000000; stroke-width: 0.8"/>
      </g>
     </g>
     <g id="text_3">
      <!-- 0.0 -->
      <g transform="translate(227.84366 322.182437) scale(0.1 -0.1)">
       <use xlink:href="#DejaVuSans-30"/>
       <use xlink:href="#DejaVuSans-2e" transform="translate(63.623047 0)"/>
       <use xlink:href="#DejaVuSans-30" transform="translate(95.410156 0)"/>
      </g>
     </g>
    </g>
    <g id="xtick_4">
     <g id="line2d_7">
      <path d="M 304.894075 307.584 
L 304.894075 41.472 
" clip-path="url(#pfd87308ed5)" style="fill: none; stroke: #b0b0b0; stroke-opacity: 0.5; stroke-width: 0.8; stroke-linecap: square"/>
     </g>
     <g id="line2d_8">
      <g>
       <use xlink:href="#m0f5e2145f1" x="304.894075" y="307.584" style="stroke: #000000; stroke-width: 0.8"/>
      </g>
     </g>
     <g id="text_4">
      <!-- 0.5 -->
      <g transform="translate(296.942513 322.182437) scale(0.1 -0.1)">
       <use xlink:href="#DejaVuSans-30"/>
       <use xlink:href="#DejaVuSans-2e" transform="translate(63.623047 0)"/>
       <use xlink:href="#DejaVuSans-35" transform="translate(95.410156 0)"/>
      </g>
     </g>
    </g>
    <g id="xtick_5">
     <g id="line2d_9">
      <path d="M 373.992928 307.584 
L 373.992928 41.472 
" clip-path="url(#pfd87308ed5)" style="fill: none; stroke: #b0b0b0; stroke-opacity: 0.5; stroke-width: 0.8; stroke-linecap: square"/>
     </g>
     <g id="line2d_10">
      <g>
       <use xlink:href="#m0f5e2145f1" x="373.992928" y="307.584" style="stroke: #000000; stroke-width: 0.8"/>
      </g>
     </g>
     <g id="text_5">
      <!-- 1.0 -->
      <g transform="translate(366.041366 322.182437) scale(0.1 -0.1)">
       <use xlink:href="#DejaVuSans-31"/>
       <use xlink:href="#DejaVuSans-2e" transform="translate(63.623047 0)"/>
       <use xlink:href="#DejaVuSans-30" transform="translate(95.410156 0)"/>
      </g>
     </g>
    </g>
    <g id="text_6">
     <!-- Index -->
     <g transform="translate(222.393594 335.860562) scale(0.1 -0.1)">
      <defs>
       <path id="DejaVuSans-49" d="M 628 4666 
L 1259 4666 
L 1259 0 
L 628 0 
L 628 4666 
z
" transform="scale(0.015625)"/>
       <path id="DejaVuSans-6e" d="M 3513 2113 
L 3513 0 
L 2938 0 
L 2938 2094 
Q 2938 2591 2744 2837 
Q 2550 3084 2163 3084 
Q 1697 3084 1428 2787 
Q 1159 2491 1159 1978 
L 1159 0 
L 581 0 
L 581 3500 
L 1159 3500 
L 1159 2956 
Q 1366 3272 1645 3428 
Q 1925 3584 2291 3584 
Q 2894 3584 3203 3211 
Q 3513 2838 3513 2113 
z
" transform="scale(0.015625)"/>
       <path id="DejaVuSans-64" d="M 2906 2969 
L 2906 4863 
L 3481 4863 
L 3481 0 
L 2906 0 
L 2906 525 
Q 2725 213 2448 61 
Q 2172 -91 1784 -91 
Q 1150 -91 751 415 
Q 353 922 353 1747 
Q 353 2572 751 3078 
Q 1150 3584 1784 3584 
Q 2172 3584 2448 3432 
Q 2725 3281 2906 2969 
z
M 947 1747 
Q 947 1113 1208 752 
Q 1469 391 1925 391 
Q 2381 391 2643 752 
Q 2906 1113 2906 1747 
Q 2906 2381 2643 2742 
Q 2381 3103 1925 3103 
Q 1469 3103 1208 2742 
Q 947 2381 947 1747 
z
" transform="scale(0.015625)"/>
       <path id="DejaVuSans-65" d="M 3597 1894 
L 3597 1613 
L 953 1613 
Q 991 1019 1311 708 
Q 1631 397 2203 397 
Q 2534 397 2845 478 
Q 3156 559 3463 722 
L 3463 178 
Q 3153 47 2828 -22 
Q 2503 -91 2169 -91 
Q 1331 -91 842 396 
Q 353 884 353 1716 
Q 353 2575 817 3079 
Q 1281 3584 2069 3584 
Q 2775 3584 3186 3129 
Q 3597 2675 3597 1894 
z
M 3022 2063 
Q 3016 2534 2758 2815 
Q 2500 3097 2075 3097 
Q 1594 3097 1305 2825 
Q 1016 2553 972 2059 
L 3022 2063 
z
" transform="scale(0.015625)"/>
       <path id="DejaVuSans-78" d="M 3513 3500 
L 2247 1797 
L 3578 0 
L 2900 0 
L 1881 1375 
L 863 0 
L 184 0 
L 1544 1831 
L 300 3500 
L 978 3500 
L 1906 2253 
L 2834 3500 
L 3513 3500 
z
" transform="scale(0.015625)"/>
      </defs>
      <use xlink:href="#DejaVuSans-49"/>
      <use xlink:href="#DejaVuSans-6e" transform="translate(29.492188 0)"/>
      <use xlink:href="#DejaVuSans-64" transform="translate(92.871094 0)"/>
      <use xlink:href="#DejaVuSans-65" transform="translate(156.347656 0)"/>
      <use xlink:href="#DejaVuSans-78" transform="translate(216.121094 0)"/>
     </g>
    </g>
   </g>
   <g id="matplotlib.axis_2">
    <g id="ytick_1">
     <g id="line2d_11">
      <path d="M 57.6 275.686072 
L 414.72 275.686072 
" clip-path="url(#pfd87308ed5)" style="fill: none; stroke: #b0b0b0; stroke-opacity: 0.5; stroke-width: 0.8; stroke-linecap: square"/>
     </g>
     <g id="line2d_12">
      <defs>
       <path id="m6c1bd9e8b4" d="M 0 0 
L -3.5 0 
" style="stroke: #000000; stroke-width: 0.8"/>
      </defs>
      <g>
       <use xlink:href="#m6c1bd9e8b4" x="57.6" y="275.686072" style="stroke: #000000; stroke-width: 0.8"/>
      </g>
     </g>
     <g id="text_7">
      <!-- −1.0 -->
      <g transform="translate(26.317187 279.485291) scale(0.1 -0.1)">
       <use xlink:href="#DejaVuSans-2212"/>
       <use xlink:href="#DejaVuSans-31" transform="translate(83.789062 0)"/>
       <use xlink:href="#DejaVuSans-2e" transform="translate(147.412109 0)"/>
       <use xlink:href="#DejaVuSans-30" transform="translate(179.199219 0)"/>
      </g>
     </g>
    </g>
    <g id="ytick_2">
     <g id="line2d_13">
      <path d="M 57.6 225.196158 
L 414.72 225.196158 
" clip-path="url(#pfd87308ed5)" style="fill: none; stroke: #b0b0b0; stroke-opacity: 0.5; stroke-width: 0.8; stroke-linecap: square"/>
     </g>
     <g id="line2d_14">
      <g>
       <use xlink:href="#m6c1bd9e8b4" x="57.6" y="225.196158" style="stroke: #000000; stroke-width: 0.8"/>
      </g>
     </g>
     <g id="text_8">
      <!-- −0.5 -->
      <g transform="translate(26.317187 228.995376) scale(0.1 -0.1)">
       <use xlink:href="#DejaVuSans-2212"/>
       <use xlink:href="#DejaVuSans-30" transform="translate(83.789062 0)"/>
       <use xlink:href="#DejaVuSans-2e" transform="translate(147.412109 0)"/>
       <use xlink:href="#DejaVuSans-35" transform="translate(179.199219 0)"/>
      </g>
     </g>
    </g>
    <g id="ytick_3">
     <g id="line2d_15">
      <path d="M 57.6 174.706243 
L 414.72 174.706243 
" clip-path="url(#pfd87308ed5)" style="fill: none; stroke: #b0b0b0; stroke-opacity: 0.5; stroke-width: 0.8; stroke-linecap: square"/>
     </g>
     <g id="line2d_16">
      <g>
       <use xlink:href="#m6c1bd9e8b4" x="57.6" y="174.706243" style="stroke: #000000; stroke-width: 0.8"/>
      </g>
     </g>
     <g id="text_9">
      <!-- 0.0 -->
      <g transform="translate(34.696875 178.505461) scale(0.1 -0.1)">
       <use xlink:href="#DejaVuSans-30"/>
       <use xlink:href="#DejaVuSans-2e" transform="translate(63.623047 0)"/>
       <use xlink:href="#DejaVuSans-30" transform="translate(95.410156 0)"/>
      </g>
     </g>
    </g>
    <g id="ytick_4">
     <g id="line2d_17">
      <path d="M 57.6 124.216328 
L 414.72 124.216328 
" clip-path="url(#pfd87308ed5)" style="fill: none; stroke: #b0b0b0; stroke-opacity: 0.5; stroke-width: 0.8; stroke-linecap: square"/>
     </g>
     <g id="line2d_18">
      <g>
       <use xlink:href="#m6c1bd9e8b4" x="57.6" y="124.216328" style="stroke: #000000; stroke-width: 0.8"/>
      </g>
     </g>
     <g id="text_10">
      <!-- 0.5 -->
      <g transform="translate(34.696875 128.015547) scale(0.1 -0.1)">
       <use xlink:href="#DejaVuSans-30"/>
       <use xlink:href="#DejaVuSans-2e" transform="translate(63.623047 0)"/>
       <use xlink:href="#DejaVuSans-35" transform="translate(95.410156 0)"/>
      </g>
     </g>
    </g>
    <g id="ytick_5">
     <g id="line2d_19">
      <path d="M 57.6 73.726413 
L 414.72 73.726413 
" clip-path="url(#pfd87308ed5)" style="fill: none; stroke: #b0b0b0; stroke-opacity: 0.5; stroke-width: 0.8; stroke-linecap: square"/>
     </g>
     <g id="line2d_20">
      <g>
       <use xlink:href="#m6c1bd9e8b4" x="57.6" y="73.726413" style="stroke: #000000; stroke-width: 0.8"/>
      </g>
     </g>
     <g id="text_11">
      <!-- 1.0 -->
      <g transform="translate(34.696875 77.525632) scale(0.1 -0.1)">
       <use xlink:href="#DejaVuSans-31"/>
       <use xlink:href="#DejaVuSans-2e" transform="translate(63.623047 0)"/>
       <use xlink:href="#DejaVuSans-30" transform="translate(95.410156 0)"/>
      </g>
     </g>
    </g>
    <g id="text_12">
     <!-- Value -->
     <g transform="translate(20.2375 188.25925) rotate(-90) scale(0.1 -0.1)">
      <defs>
       <path id="DejaVuSans-56" d="M 1831 0 
L 50 4666 
L 709 4666 
L 2188 738 
L 3669 4666 
L 4325 4666 
L 2547 0 
L 1831 0 
z
" transform="scale(0.015625)"/>
       <path id="DejaVuSans-61" d="M 2194 1759 
Q 1497 1759 1228 1600 
Q 959 1441 959 1056 
Q 959 750 1161 570 
Q 1363 391 1709 391 
Q 2188 391 2477 730 
Q 2766 1069 2766 1631 
L 2766 1759 
L 2194 1759 
z
M 3341 1997 
L 3341 0 
L 2766 0 
L 2766 531 
Q 2569 213 2275 61 
Q 1981 -91 1556 -91 
Q 1019 -91 701 211 
Q 384 513 384 1019 
Q 384 1609 779 1909 
Q 1175 2209 1959 2209 
L 2766 2209 
L 2766 2266 
Q 2766 2663 2505 2880 
Q 2244 3097 1772 3097 
Q 1472 3097 1187 3025 
Q 903 2953 641 2809 
L 641 3341 
Q 956 3463 1253 3523 
Q 1550 3584 1831 3584 
Q 2591 3584 2966 3190 
Q 3341 2797 3341 1997 
z
" transform="scale(0.015625)"/>
       <path id="DejaVuSans-6c" d="M 603 4863 
L 1178 4863 
L 1178 0 
L 603 0 
L 603 4863 
z
" transform="scale(0.015625)"/>
       <path id="DejaVuSans-75" d="M 544 1381 
L 544 3500 
L 1119 3500 
L 1119 1403 
Q 1119 906 1312 657 
Q 1506 409 1894 409 
Q 2359 409 2629 706 
Q 2900 1003 2900 1516 
L 2900 3500 
L 3475 3500 
L 3475 0 
L 2900 0 
L 2900 538 
Q 2691 219 2414 64 
Q 2138 -91 1772 -91 
Q 1169 -91 856 284 
Q 544 659 544 1381 
z
M 1991 3584 
L 1991 3584 
z
" transform="scale(0.015625)"/>
      </defs>
      <use xlink:href="#DejaVuSans-56"/>
      <use xlink:href="#DejaVuSans-61" transform="translate(60.658203 0)"/>
      <use xlink:href="#DejaVuSans-6c" transform="translate(121.9375 0)"/>
      <use xlink:href="#DejaVuSans-75" transform="translate(149.720703 0)"/>
      <use xlink:href="#DejaVuSans-65" transform="translate(213.099609 0)"/>
     </g>
    </g>
   </g>
   <g id="line2d_21">
    <path d="M 232.019859 177.476813 
L 237.118698 176.999578 
L 238.569504 176.522282 
L 238.003306 176.045235 
L 237.681391 175.568762 
L 238.338083 175.093137 
L 242.685699 173.67209 
L 243.169018 173.19971 
L 243.111341 172.254426 
L 243.453766 171.780772 
L 244.283098 171.306266 
L 246.435914 170.355736 
L 247.168644 169.880725 
L 247.569751 169.406618 
L 248.168964 168.462377 
L 248.761595 167.992118 
L 251.929027 166.11223 
L 253.956027 164.223322 
L 256.674809 162.345227 
L 259.063979 160.474472 
L 261.57048 158.598232 
L 264.016743 156.726915 
L 267.716464 153.926999 
L 277.648168 146.454843 
L 282.581566 142.724756 
L 289.942128 137.143319 
L 301.49204 128.374459 
L 326.111281 109.675979 
L 328.614269 109.166867 
L 327.488562 108.714128 
L 326.97418 108.261449 
L 327.410333 107.809162 
L 331.005363 106.456776 
L 331.57752 106.007113 
L 332.202717 104.656937 
L 332.880229 104.206063 
L 335.337533 102.854785 
L 337.181337 101.062578 
L 339.912974 99.267469 
L 341.961786 97.474954 
L 344.556924 95.689993 
L 347.942555 93.006126 
L 352.074908 89.884741 
L 354.984427 87.658621 
L 357.923585 85.429696 
L 360.193863 83.650682 
L 363.228358 81.429876 
L 365.993693 79.206272 
L 369.59107 76.549484 
L 371.765212 74.777476 
L 375.377342 72.132605 
L 377.492217 70.36927 
L 381.148968 67.737303 
L 383.15549 65.980818 
L 386.934169 63.36444 
L 388.740395 61.611084 
L 390.120954 60.75472 
L 392.290095 59.451069 
L 393.095498 58.561059 
L 393.646816 57.684387 
L 394.110028 57.25842 
L 394.82179 56.838724 
L 397.871062 55.554046 
L 398.487273 55.104063 
L 398.429068 54.655429 
L 397.48444 54.234156 
L 395.570405 53.879717 
L 392.782517 53.64078 
L 389.397445 53.568 
L 385.876526 53.704183 
L 382.829774 54.074211 
L 380.912955 54.676615 
L 380.585575 55.479676 
L 381.863828 56.422917 
L 384.258933 57.424553 
L 389.133525 59.247222 
L 390.148812 59.921877 
L 389.746094 60.388809 
L 388.079934 60.657972 
L 382.905507 60.81982 
L 377.413947 61.031479 
L 374.732499 61.348529 
L 372.539668 61.858423 
L 371.520509 62.553217 
L 368.060874 63.499383 
L 379.889332 65.290104 
L 383.029741 66.073628 
L 382.763827 66.704165 
L 379.803879 67.161539 
L 369.587323 67.986063 
L 364.76035 69.282106 
L 363.547929 70.001734 
L 363.880268 70.809815 
L 365.792911 71.64238 
L 370.56822 73.123912 
L 371.078697 73.683101 
L 369.672306 74.104584 
L 363.710532 74.650478 
L 360.994916 74.879574 
L 359.064482 75.157375 
L 357.783502 75.530123 
L 356.911469 76.022514 
L 356.391082 76.633375 
L 356.360719 77.337011 
L 356.958676 78.089171 
L 359.95869 80.136205 
L 359.684778 80.63423 
L 358.323914 81.032673 
L 349.846648 82.328 
L 348.722176 82.775075 
L 348.138157 83.312993 
L 348.043379 83.930692 
L 348.358988 84.600959 
L 349.878748 86.55768 
L 349.665272 87.092378 
L 348.796113 87.551269 
L 347.353182 87.948057 
L 342.221671 89.048203 
L 341.007669 89.48229 
L 340.20421 89.978931 
L 339.807266 90.536013 
L 339.760586 91.138826 
L 340.309621 92.975038 
L 340.088724 93.519824 
L 339.438494 94.012113 
L 338.37833 94.457016 
L 333.090147 96.12039 
L 332.228319 96.600069 
L 331.664456 97.121821 
L 331.367183 97.678524 
L 331.123542 99.402375 
L 330.822043 99.940841 
L 330.240025 100.445325 
L 329.371641 100.917096 
L 324.122065 103.172546 
L 323.519661 103.67813 
L 322.79275 104.750747 
L 322.204942 105.83918 
L 321.762364 106.364212 
L 321.153682 106.869003 
L 319.479351 107.822704 
L 316.722953 109.213219 
L 315.352567 110.191646 
L 313.911045 111.74263 
L 312.891919 112.773174 
L 311.570116 113.763633 
L 307.108365 116.642132 
L 302.280968 120.615011 
L 298.808224 123.026265 
L 293.774073 126.944605 
L 290.504698 129.372161 
L 287.306768 131.808247 
L 283.384506 134.737313 
L 281.520904 136.203299 
L 278.628711 136.750299 
L 280.014694 137.23554 
L 280.638166 137.720468 
L 280.054015 138.205815 
L 275.823755 139.66907 
L 275.31518 140.159181 
L 275.323117 141.13963 
L 274.993574 141.628537 
L 274.191549 142.115884 
L 272.029046 143.085734 
L 271.229669 143.568917 
L 270.395967 144.534783 
L 269.994452 145.018579 
L 269.394115 145.503378 
L 266.360361 147.448853 
L 264.848665 148.90126 
L 262.686027 150.34142 
L 260.767264 151.780281 
L 258.266447 153.711352 
L 241.833302 166.15347 
L 235.520713 170.903308 
L 189.858417 205.536715 
L 187.150842 206.058418 
L 188.437002 206.522397 
L 189.030679 206.986681 
L 188.562084 207.451193 
L 184.667565 208.844181 
L 184.109287 209.307667 
L 184.013534 210.233008 
L 183.720672 210.695073 
L 182.998675 211.157036 
L 180.200551 212.542853 
L 179.723945 213.00475 
L 179.093925 213.927707 
L 178.57743 214.388596 
L 175.100193 216.688531 
L 174.171866 217.607242 
L 172.902798 218.524915 
L 170.919422 219.899302 
L 168.04975 222.18732 
L 165.633924 224.013029 
L 160.302512 228.115049 
L 148.434154 237.182322 
L 107.261487 268.847153 
L 104.29247 271.052141 
L 103.701243 271.493619 
L 101.235381 271.991259 
L 102.419968 272.434157 
L 102.982488 272.876953 
L 102.635882 273.319021 
L 101.55351 273.759812 
L 98.973974 274.637556 
L 98.307204 275.07538 
L 98.124733 275.513469 
L 98.124733 275.952395 
L 97.949049 276.392459 
L 97.40928 276.833317 
L 94.824505 278.154 
L 94.298179 278.591512 
L 93.185495 279.898605 
L 91.742514 280.773279 
L 90.39492 281.652058 
L 88.705037 283.395711 
L 85.3485 285.570653 
L 84.24911 286.885209 
L 83.006195 287.746245 
L 80.750316 289.033704 
L 79.724683 289.911749 
L 78.339313 291.65799 
L 77.666661 292.078396 
L 73.951294 293.799732 
L 73.832727 294.24957 
L 74.560799 294.682591 
L 76.249084 295.064428 
L 78.811504 295.349747 
L 81.965455 295.488 
L 85.25794 295.432578 
L 88.161463 295.150594 
L 90.159632 294.632575 
L 90.898627 293.898273 
L 90.334937 292.997766 
L 88.776635 292.006278 
L 82.45183 288.828052 
L 82.932802 288.49965 
L 84.717775 288.345639 
L 94.875674 288.158501 
L 98.026413 287.901158 
L 100.070752 287.448587 
L 100.596048 286.795974 
L 99.554295 285.978973 
L 97.383283 285.065863 
L 92.757488 283.296556 
L 91.655644 282.594949 
L 91.826649 282.074751 
L 93.278822 281.733613 
L 95.759265 281.531861 
L 104.953384 281.034052 
L 107.159964 280.662484 
L 108.336305 280.121183 
L 108.295482 279.4209 
L 107.14255 278.605295 
L 102.037645 276.158108 
L 101.610891 275.552634 
L 102.320223 275.101695 
L 104.09705 274.787835 
L 114.460361 273.808752 
L 115.888243 273.34876 
L 116.364659 272.751646 
L 115.919429 272.040168 
L 114.80611 271.260345 
L 112.2765 269.731258 
L 111.689334 269.087474 
L 111.916541 268.564519 
L 113.026318 268.160894 
L 114.89826 267.850043 
L 121.87285 266.992704 
L 123.459472 266.575193 
L 124.275245 266.049788 
L 124.299389 265.424591 
L 123.701218 264.728521 
L 121.942636 263.299317 
L 121.4636 262.654407 
L 121.568468 262.096356 
L 122.343105 261.632247 
L 123.732865 261.249032 
L 131.003584 259.841219 
L 131.981548 259.35549 
L 132.352866 258.791637 
L 132.203739 258.16606 
L 130.963337 256.227551 
L 131.076648 255.662241 
L 131.676038 255.16477 
L 132.748039 254.730268 
L 135.798802 253.969507 
L 138.755991 253.169028 
L 139.747242 252.698503 
L 140.305042 252.17181 
L 140.468641 251.597424 
L 140.144828 249.792329 
L 140.349622 249.236872 
L 143.045863 248.666729 
L 141.812965 248.206809 
L 141.824966 247.779139 
L 143.151053 247.365775 
L 147.394385 246.504571 
L 148.824293 246.02807 
L 149.253486 245.514263 
L 148.905265 244.968575 
L 148.336699 244.403138 
L 148.101806 243.833615 
L 148.475282 243.275497 
L 149.37169 242.740763 
L 152.330172 241.303446 
L 154.569066 239.951163 
L 156.407993 238.967313 
L 157.081172 238.444737 
L 157.467548 237.90993 
L 157.819755 236.840594 
L 158.164491 236.322436 
L 158.791385 235.821239 
L 160.672504 234.864986 
L 162.501069 233.934222 
L 163.804017 232.978968 
L 169.062875 228.474117 
L 172.131802 226.559918 
L 173.806323 225.074005 
L 175.565291 223.581563 
L 179.036837 221.160158 
L 180.977729 219.696659 
L 184.021511 217.23964 
L 188.071809 214.312785 
L 191.159191 211.85877 
L 196.412913 207.948228 
L 199.573986 205.504514 
L 204.140485 202.103974 
L 209.199358 198.228008 
L 213.068758 195.329112 
L 216.144991 192.916043 
L 220.711033 189.556724 
L 223.773942 187.147599 
L 228.906382 183.321009 
L 233.315904 179.975596 
L 235.851738 178.072897 
L 238.575488 177.53645 
L 238.575488 177.53645 
" clip-path="url(#pfd87308ed5)" style="fill: none; stroke: #1f77b4; stroke-width: 1.5; stroke-linecap: square"/>
   </g>
   <g id="line2d_22">
    <path d="M 236.253233 177.476813 
L 266.631199 154.393682 
L 270.980934 151.121796 
L 274.723488 148.323241 
L 279.000095 145.051635 
L 381.198062 67.294965 
L 382.921553 65.980818 
L 385.465076 64.24612 
L 388.630049 61.611084 
L 391.366472 59.891024 
L 392.246916 59.006588 
L 392.984971 58.119034 
L 393.512236 57.684387 
L 395.120851 56.838724 
L 396.930355 55.992965 
L 397.42187 55.554046 
L 397.321425 55.104063 
L 396.459976 54.655429 
L 394.796024 54.234156 
L 392.452715 53.879717 
L 389.718862 53.64078 
L 387.009408 53.568 
L 384.788636 53.704183 
L 383.473744 54.074211 
L 383.336858 54.676615 
L 384.432458 55.479676 
L 386.565751 56.422917 
L 394.334575 59.247222 
L 395.458297 59.921877 
L 395.148346 60.388809 
L 393.341923 60.657972 
L 386.390973 60.81982 
L 378.778871 61.031479 
L 376.238626 61.348529 
L 375.055349 61.858423 
L 375.28179 62.553217 
L 376.924161 63.499383 
L 382.992789 66.073628 
L 383.665968 66.704165 
L 383.093069 67.161539 
L 381.293268 67.461615 
L 375.268561 67.801898 
L 372.034067 67.986063 
L 369.340856 68.270455 
L 367.567176 68.69836 
L 366.887473 69.282106 
L 367.244087 70.001734 
L 368.368559 70.809815 
L 371.207947 72.432405 
L 372.03003 73.123912 
L 372.020673 73.683101 
L 371.075525 74.104584 
L 369.29145 74.411709 
L 362.053746 75.157375 
L 360.262627 75.530123 
L 359.224679 76.022514 
L 358.976508 76.633375 
L 359.384325 77.337011 
L 361.589372 79.531845 
L 361.612321 80.136205 
L 360.966902 80.63423 
L 359.674349 81.032673 
L 355.882862 81.653724 
L 352.315056 82.328 
L 351.207157 82.775075 
L 350.674835 83.312993 
L 350.655757 83.930692 
L 351.718368 85.949582 
L 351.682264 86.55768 
L 351.18817 87.092378 
L 350.220255 87.551269 
L 347.287556 88.308545 
L 344.274165 89.048203 
L 343.183713 89.48229 
L 342.49018 89.978931 
L 342.174216 90.536013 
L 342.135798 91.138826 
L 342.25275 92.38407 
L 342.080888 92.975038 
L 341.603549 93.519824 
L 340.792372 94.012113 
L 338.416929 94.869374 
L 335.897549 95.680778 
L 334.911504 96.12039 
L 334.20302 96.600069 
L 333.764256 97.121821 
L 333.380155 98.25595 
L 333.19901 98.836349 
L 332.872478 99.402375 
L 332.32906 99.940841 
L 331.550617 100.445325 
L 329.480479 101.364448 
L 327.348825 102.239086 
L 326.485482 102.693691 
L 325.814889 103.172546 
L 324.956793 104.206996 
L 324.279059 105.29847 
L 323.815303 105.83918 
L 323.206572 106.364212 
L 321.580305 107.353696 
L 318.1274 109.213219 
L 316.962706 110.191646 
L 314.977419 112.261829 
L 313.584546 113.273895 
L 309.095752 116.152394 
L 305.706744 119.147124 
L 300.142733 123.026265 
L 297.869617 124.993204 
L 295.668639 126.459535 
L 293.469225 127.913429 
L 291.694437 129.372161 
L 289.967223 130.834999 
L 287.862921 132.294664 
L 284.993636 134.247447 
L 278.534551 139.179962 
L 275.873952 141.13963 
L 271.539916 144.534783 
L 266.944806 147.934389 
L 263.212849 150.820416 
L 259.271875 153.711352 
L 254.88074 157.065404 
L 250.378693 160.425873 
L 244.638743 164.718122 
L 232.741197 173.751677 
L 228.294918 177.053513 
L 207.962419 192.513718 
L 96.620302 277.274427 
L 94.35098 279.027603 
L 91.453519 281.212488 
L 89.251973 282.962798 
L 86.225451 285.131625 
L 83.620659 287.317412 
L 80.418043 289.470517 
L 78.761158 291.230867 
L 77.304125 292.078396 
L 75.48869 292.919822 
L 74.855824 293.35377 
L 74.716862 293.799732 
L 75.272742 294.24957 
L 76.623137 294.682591 
L 78.718011 295.064428 
L 81.33819 295.349747 
L 84.115618 295.488 
L 86.594182 295.432578 
L 88.319733 295.150594 
L 88.942203 294.632575 
L 88.30451 293.898273 
L 86.497066 292.997766 
L 80.932425 291.01355 
L 78.347748 290.109035 
L 76.708886 289.366102 
L 76.458491 288.828052 
L 77.77966 288.49965 
L 80.54969 288.345639 
L 92.523848 288.158501 
L 95.542148 287.901158 
L 97.192839 287.448587 
L 97.317353 286.795974 
L 96.072494 285.978973 
L 93.893583 285.065863 
L 89.254658 283.296556 
L 88.039338 282.594949 
L 88.120804 282.074751 
L 89.586849 281.733613 
L 92.235298 281.531861 
L 102.293213 281.034052 
L 104.497997 280.662484 
L 105.516958 280.121183 
L 105.335476 279.4209 
L 104.190287 278.605295 
L 99.62011 276.158108 
L 99.293834 275.552634 
L 100.019681 275.101695 
L 101.747299 274.787835 
L 111.816566 273.808752 
L 113.112471 273.34876 
L 113.482569 272.751646 
L 113.033072 272.040168 
L 109.990381 269.731258 
L 109.668149 269.087474 
L 110.124516 268.564519 
L 111.381673 268.160894 
L 115.558976 267.58682 
L 119.787498 266.992704 
L 121.145108 266.575193 
L 121.791986 266.049788 
L 121.765775 265.424591 
L 121.247884 264.728521 
L 119.891221 263.299317 
L 119.645118 262.654407 
L 119.964261 262.096356 
L 120.902357 261.632247 
L 122.376828 261.249032 
L 127.796412 260.249123 
L 129.105043 259.841219 
L 129.896287 259.35549 
L 130.171089 258.791637 
L 130.043222 258.16606 
L 129.402275 256.850534 
L 129.33791 256.227551 
L 129.669079 255.662241 
L 130.454227 255.16477 
L 131.648567 254.730268 
L 137.285992 253.169028 
L 138.077317 252.698503 
L 138.48609 252.17181 
L 138.590579 251.597424 
L 138.489096 250.384056 
L 138.617984 249.792329 
L 139.035957 249.236872 
L 139.903329 248.666729 
L 142.2499 247.779139 
L 144.753209 246.946741 
L 145.733324 246.504571 
L 146.437524 246.02807 
L 146.875077 245.514263 
L 147.271041 244.403138 
L 147.464385 243.833615 
L 147.803116 243.275497 
L 148.353931 242.740763 
L 149.129705 242.235455 
L 151.154184 241.303446 
L 153.200327 240.411474 
L 154.659634 239.470484 
L 155.498315 238.444737 
L 156.20946 237.372115 
L 156.697071 236.840594 
L 158.094977 235.821239 
L 162.355418 233.462 
L 163.466266 232.48385 
L 165.37717 230.439644 
L 166.786794 229.439796 
L 170.745922 227.044263 
L 171.860879 226.069321 
L 173.932513 224.075857 
L 175.367417 223.091938 
L 179.176796 220.675329 
L 180.792873 219.20406 
L 181.887967 218.218657 
L 183.236553 217.23964 
L 187.647381 214.312785 
L 191.839367 210.885594 
L 196.034359 207.948228 
L 200.302548 204.53637 
L 204.967095 201.126926 
L 208.629313 198.228008 
L 213.24892 194.843412 
L 216.324692 192.438369 
L 221.53199 188.588869 
L 225.316127 185.717636 
L 230.420466 181.881147 
L 236.174536 177.53645 
L 236.174536 177.53645 
" clip-path="url(#pfd87308ed5)" style="fill: none; stroke: #ff7f0e; stroke-opacity: 0.5; stroke-width: 1.5; stroke-linecap: square"/>
   </g>
   <g id="patch_3">
    <path d="M 57.6 307.584 
L 57.6 41.472 
" style="fill: none; stroke: #000000; stroke-width: 0.8; stroke-linejoin: miter; stroke-linecap: square"/>
   </g>
   <g id="patch_4">
    <path d="M 414.72 307.584 
L 414.72 41.472 
" style="fill: none; stroke: #000000; stroke-width: 0.8; stroke-linejoin: miter; stroke-linecap: square"/>
   </g>
   <g id="patch_5">
    <path d="M 57.6 307.584 
L 414.72 307.584 
" style="fill: none; stroke: #000000; stroke-width: 0.8; stroke-linejoin: miter; stroke-linecap: square"/>
   </g>
   <g id="patch_6">
    <path d="M 57.6 41.472 
L 414.72 41.472 
" style="fill: none; stroke: #000000; stroke-width: 0.8; stroke-linejoin: miter; stroke-linecap: square"/>
   </g>
   <g id="text_13">
    <!-- Compare - Epoch 1800 -->
    <g transform="translate(167.416875 35.472) scale(0.12 -0.12)">
     <defs>
      <path id="DejaVuSans-43" d="M 4122 4306 
L 4122 3641 
Q 3803 3938 3442 4084 
Q 3081 4231 2675 4231 
Q 1875 4231 1450 3742 
Q 1025 3253 1025 2328 
Q 1025 1406 1450 917 
Q 1875 428 2675 428 
Q 3081 428 3442 575 
Q 3803 722 4122 1019 
L 4122 359 
Q 3791 134 3420 21 
Q 3050 -91 2638 -91 
Q 1578 -91 968 557 
Q 359 1206 359 2328 
Q 359 3453 968 4101 
Q 1578 4750 2638 4750 
Q 3056 4750 3426 4639 
Q 3797 4528 4122 4306 
z
" transform="scale(0.015625)"/>
      <path id="DejaVuSans-6f" d="M 1959 3097 
Q 1497 3097 1228 2736 
Q 959 2375 959 1747 
Q 959 1119 1226 758 
Q 1494 397 1959 397 
Q 2419 397 2687 759 
Q 2956 1122 2956 1747 
Q 2956 2369 2687 2733 
Q 2419 3097 1959 3097 
z
M 1959 3584 
Q 2709 3584 3137 3096 
Q 3566 2609 3566 1747 
Q 3566 888 3137 398 
Q 2709 -91 1959 -91 
Q 1206 -91 779 398 
Q 353 888 353 1747 
Q 353 2609 779 3096 
Q 1206 3584 1959 3584 
z
" transform="scale(0.015625)"/>
      <path id="DejaVuSans-6d" d="M 3328 2828 
Q 3544 3216 3844 3400 
Q 4144 3584 4550 3584 
Q 5097 3584 5394 3201 
Q 5691 2819 5691 2113 
L 5691 0 
L 5113 0 
L 5113 2094 
Q 5113 2597 4934 2840 
Q 4756 3084 4391 3084 
Q 3944 3084 3684 2787 
Q 3425 2491 3425 1978 
L 3425 0 
L 2847 0 
L 2847 2094 
Q 2847 2600 2669 2842 
Q 2491 3084 2119 3084 
Q 1678 3084 1418 2786 
Q 1159 2488 1159 1978 
L 1159 0 
L 581 0 
L 581 3500 
L 1159 3500 
L 1159 2956 
Q 1356 3278 1631 3431 
Q 1906 3584 2284 3584 
Q 2666 3584 2933 3390 
Q 3200 3197 3328 2828 
z
" transform="scale(0.015625)"/>
      <path id="DejaVuSans-70" d="M 1159 525 
L 1159 -1331 
L 581 -1331 
L 581 3500 
L 1159 3500 
L 1159 2969 
Q 1341 3281 1617 3432 
Q 1894 3584 2278 3584 
Q 2916 3584 3314 3078 
Q 3713 2572 3713 1747 
Q 3713 922 3314 415 
Q 2916 -91 2278 -91 
Q 1894 -91 1617 61 
Q 1341 213 1159 525 
z
M 3116 1747 
Q 3116 2381 2855 2742 
Q 2594 3103 2138 3103 
Q 1681 3103 1420 2742 
Q 1159 2381 1159 1747 
Q 1159 1113 1420 752 
Q 1681 391 2138 391 
Q 2594 391 2855 752 
Q 3116 1113 3116 1747 
z
" transform="scale(0.015625)"/>
      <path id="DejaVuSans-72" d="M 2631 2963 
Q 2534 3019 2420 3045 
Q 2306 3072 2169 3072 
Q 1681 3072 1420 2755 
Q 1159 2438 1159 1844 
L 1159 0 
L 581 0 
L 581 3500 
L 1159 3500 
L 1159 2956 
Q 1341 3275 1631 3429 
Q 1922 3584 2338 3584 
Q 2397 3584 2469 3576 
Q 2541 3569 2628 3553 
L 2631 2963 
z
" transform="scale(0.015625)"/>
      <path id="DejaVuSans-20" transform="scale(0.015625)"/>
      <path id="DejaVuSans-2d" d="M 313 2009 
L 1997 2009 
L 1997 1497 
L 313 1497 
L 313 2009 
z
" transform="scale(0.015625)"/>
      <path id="DejaVuSans-45" d="M 628 4666 
L 3578 4666 
L 3578 4134 
L 1259 4134 
L 1259 2753 
L 3481 2753 
L 3481 2222 
L 1259 2222 
L 1259 531 
L 3634 531 
L 3634 0 
L 628 0 
L 628 4666 
z
" transform="scale(0.015625)"/>
      <path id="DejaVuSans-63" d="M 3122 3366 
L 3122 2828 
Q 2878 2963 2633 3030 
Q 2388 3097 2138 3097 
Q 1578 3097 1268 2742 
Q 959 2388 959 1747 
Q 959 1106 1268 751 
Q 1578 397 2138 397 
Q 2388 397 2633 464 
Q 2878 531 3122 666 
L 3122 134 
Q 2881 22 2623 -34 
Q 2366 -91 2075 -91 
Q 1284 -91 818 406 
Q 353 903 353 1747 
Q 353 2603 823 3093 
Q 1294 3584 2113 3584 
Q 2378 3584 2631 3529 
Q 2884 3475 3122 3366 
z
" transform="scale(0.015625)"/>
      <path id="DejaVuSans-68" d="M 3513 2113 
L 3513 0 
L 2938 0 
L 2938 2094 
Q 2938 2591 2744 2837 
Q 2550 3084 2163 3084 
Q 1697 3084 1428 2787 
Q 1159 2491 1159 1978 
L 1159 0 
L 581 0 
L 581 4863 
L 1159 4863 
L 1159 2956 
Q 1366 3272 1645 3428 
Q 1925 3584 2291 3584 
Q 2894 3584 3203 3211 
Q 3513 2838 3513 2113 
z
" transform="scale(0.015625)"/>
      <path id="DejaVuSans-38" d="M 2034 2216 
Q 1584 2216 1326 1975 
Q 1069 1734 1069 1313 
Q 1069 891 1326 650 
Q 1584 409 2034 409 
Q 2484 409 2743 651 
Q 3003 894 3003 1313 
Q 3003 1734 2745 1975 
Q 2488 2216 2034 2216 
z
M 1403 2484 
Q 997 2584 770 2862 
Q 544 3141 544 3541 
Q 544 4100 942 4425 
Q 1341 4750 2034 4750 
Q 2731 4750 3128 4425 
Q 3525 4100 3525 3541 
Q 3525 3141 3298 2862 
Q 3072 2584 2669 2484 
Q 3125 2378 3379 2068 
Q 3634 1759 3634 1313 
Q 3634 634 3220 271 
Q 2806 -91 2034 -91 
Q 1263 -91 848 271 
Q 434 634 434 1313 
Q 434 1759 690 2068 
Q 947 2378 1403 2484 
z
M 1172 3481 
Q 1172 3119 1398 2916 
Q 1625 2713 2034 2713 
Q 2441 2713 2670 2916 
Q 2900 3119 2900 3481 
Q 2900 3844 2670 4047 
Q 2441 4250 2034 4250 
Q 1625 4250 1398 4047 
Q 1172 3844 1172 3481 
z
" transform="scale(0.015625)"/>
     </defs>
     <use xlink:href="#DejaVuSans-43"/>
     <use xlink:href="#DejaVuSans-6f" transform="translate(69.824219 0)"/>
     <use xlink:href="#DejaVuSans-6d" transform="translate(131.005859 0)"/>
     <use xlink:href="#DejaVuSans-70" transform="translate(228.417969 0)"/>
     <use xlink:href="#DejaVuSans-61" transform="translate(291.894531 0)"/>
     <use xlink:href="#DejaVuSans-72" transform="translate(353.173828 0)"/>
     <use xlink:href="#DejaVuSans-65" transform="translate(392.037109 0)"/>
     <use xlink:href="#DejaVuSans-20" transform="translate(453.560547 0)"/>
     <use xlink:href="#DejaVuSans-2d" transform="translate(485.347656 0)"/>
     <use xlink:href="#DejaVuSans-20" transform="translate(521.431641 0)"/>
     <use xlink:href="#DejaVuSans-45" transform="translate(553.21875 0)"/>
     <use xlink:href="#DejaVuSans-70" transform="translate(616.402344 0)"/>
     <use xlink:href="#DejaVuSans-6f" transform="translate(679.878906 0)"/>
     <use xlink:href="#DejaVuSans-63" transform="translate(741.060547 0)"/>
     <use xlink:href="#DejaVuSans-68" transform="translate(796.041016 0)"/>
     <use xlink:href="#DejaVuSans-20" transform="translate(859.419922 0)"/>
     <use xlink:href="#DejaVuSans-31" transform="translate(891.207031 0)"/>
     <use xlink:href="#DejaVuSans-38" transform="translate(954.830078 0)"/>
     <use xlink:href="#DejaVuSans-30" transform="translate(1018.453125 0)"/>
     <use xlink:href="#DejaVuSans-30" transform="translate(1082.076172 0)"/>
    </g>
   </g>
   <g id="legend_1">
    <g id="patch_7">
     <path d="M 64.6 78.82825 
L 181.128125 78.82825 
Q 183.128125 78.82825 183.128125 76.82825 
L 183.128125 48.472 
Q 183.128125 46.472 181.128125 46.472 
L 64.6 46.472 
Q 62.6 46.472 62.6 48.472 
L 62.6 76.82825 
Q 62.6 78.82825 64.6 78.82825 
z
" style="fill: #ffffff; opacity: 0.8; stroke: #cccccc; stroke-linejoin: miter"/>
    </g>
    <g id="line2d_23">
     <path d="M 66.6 54.570437 
L 76.6 54.570437 
L 86.6 54.570437 
" style="fill: none; stroke: #1f77b4; stroke-width: 1.5; stroke-linecap: square"/>
    </g>
    <g id="text_14">
     <!-- Pred: Sample 1 -->
     <g transform="translate(94.6 58.070437) scale(0.1 -0.1)">
      <defs>
       <path id="DejaVuSans-50" d="M 1259 4147 
L 1259 2394 
L 2053 2394 
Q 2494 2394 2734 2622 
Q 2975 2850 2975 3272 
Q 2975 3691 2734 3919 
Q 2494 4147 2053 4147 
L 1259 4147 
z
M 628 4666 
L 2053 4666 
Q 2838 4666 3239 4311 
Q 3641 3956 3641 3272 
Q 3641 2581 3239 2228 
Q 2838 1875 2053 1875 
L 1259 1875 
L 1259 0 
L 628 0 
L 628 4666 
z
" transform="scale(0.015625)"/>
       <path id="DejaVuSans-3a" d="M 750 794 
L 1409 794 
L 1409 0 
L 750 0 
L 750 794 
z
M 750 3309 
L 1409 3309 
L 1409 2516 
L 750 2516 
L 750 3309 
z
" transform="scale(0.015625)"/>
       <path id="DejaVuSans-53" d="M 3425 4513 
L 3425 3897 
Q 3066 4069 2747 4153 
Q 2428 4238 2131 4238 
Q 1616 4238 1336 4038 
Q 1056 3838 1056 3469 
Q 1056 3159 1242 3001 
Q 1428 2844 1947 2747 
L 2328 2669 
Q 3034 2534 3370 2195 
Q 3706 1856 3706 1288 
Q 3706 609 3251 259 
Q 2797 -91 1919 -91 
Q 1588 -91 1214 -16 
Q 841 59 441 206 
L 441 856 
Q 825 641 1194 531 
Q 1563 422 1919 422 
Q 2459 422 2753 634 
Q 3047 847 3047 1241 
Q 3047 1584 2836 1778 
Q 2625 1972 2144 2069 
L 1759 2144 
Q 1053 2284 737 2584 
Q 422 2884 422 3419 
Q 422 4038 858 4394 
Q 1294 4750 2059 4750 
Q 2388 4750 2728 4690 
Q 3069 4631 3425 4513 
z
" transform="scale(0.015625)"/>
      </defs>
      <use xlink:href="#DejaVuSans-50"/>
      <use xlink:href="#DejaVuSans-72" transform="translate(58.552734 0)"/>
      <use xlink:href="#DejaVuSans-65" transform="translate(97.416016 0)"/>
      <use xlink:href="#DejaVuSans-64" transform="translate(158.939453 0)"/>
      <use xlink:href="#DejaVuSans-3a" transform="translate(222.416016 0)"/>
      <use xlink:href="#DejaVuSans-20" transform="translate(256.107422 0)"/>
      <use xlink:href="#DejaVuSans-53" transform="translate(287.894531 0)"/>
      <use xlink:href="#DejaVuSans-61" transform="translate(351.371094 0)"/>
      <use xlink:href="#DejaVuSans-6d" transform="translate(412.650391 0)"/>
      <use xlink:href="#DejaVuSans-70" transform="translate(510.0625 0)"/>
      <use xlink:href="#DejaVuSans-6c" transform="translate(573.539062 0)"/>
      <use xlink:href="#DejaVuSans-65" transform="translate(601.322266 0)"/>
      <use xlink:href="#DejaVuSans-20" transform="translate(662.845703 0)"/>
      <use xlink:href="#DejaVuSans-31" transform="translate(694.632812 0)"/>
     </g>
    </g>
    <g id="line2d_24">
     <path d="M 66.6 69.248562 
L 76.6 69.248562 
L 86.6 69.248562 
" style="fill: none; stroke: #ff7f0e; stroke-opacity: 0.5; stroke-width: 1.5; stroke-linecap: square"/>
    </g>
    <g id="text_15">
     <!-- Target: Sample 1 -->
     <g transform="translate(94.6 72.748562) scale(0.1 -0.1)">
      <defs>
       <path id="DejaVuSans-54" d="M -19 4666 
L 3928 4666 
L 3928 4134 
L 2272 4134 
L 2272 0 
L 1638 0 
L 1638 4134 
L -19 4134 
L -19 4666 
z
" transform="scale(0.015625)"/>
       <path id="DejaVuSans-67" d="M 2906 1791 
Q 2906 2416 2648 2759 
Q 2391 3103 1925 3103 
Q 1463 3103 1205 2759 
Q 947 2416 947 1791 
Q 947 1169 1205 825 
Q 1463 481 1925 481 
Q 2391 481 2648 825 
Q 2906 1169 2906 1791 
z
M 3481 434 
Q 3481 -459 3084 -895 
Q 2688 -1331 1869 -1331 
Q 1566 -1331 1297 -1286 
Q 1028 -1241 775 -1147 
L 775 -588 
Q 1028 -725 1275 -790 
Q 1522 -856 1778 -856 
Q 2344 -856 2625 -561 
Q 2906 -266 2906 331 
L 2906 616 
Q 2728 306 2450 153 
Q 2172 0 1784 0 
Q 1141 0 747 490 
Q 353 981 353 1791 
Q 353 2603 747 3093 
Q 1141 3584 1784 3584 
Q 2172 3584 2450 3431 
Q 2728 3278 2906 2969 
L 2906 3500 
L 3481 3500 
L 3481 434 
z
" transform="scale(0.015625)"/>
       <path id="DejaVuSans-74" d="M 1172 4494 
L 1172 3500 
L 2356 3500 
L 2356 3053 
L 1172 3053 
L 1172 1153 
Q 1172 725 1289 603 
Q 1406 481 1766 481 
L 2356 481 
L 2356 0 
L 1766 0 
Q 1100 0 847 248 
Q 594 497 594 1153 
L 594 3053 
L 172 3053 
L 172 3500 
L 594 3500 
L 594 4494 
L 1172 4494 
z
" transform="scale(0.015625)"/>
      </defs>
      <use xlink:href="#DejaVuSans-54"/>
      <use xlink:href="#DejaVuSans-61" transform="translate(44.583984 0)"/>
      <use xlink:href="#DejaVuSans-72" transform="translate(105.863281 0)"/>
      <use xlink:href="#DejaVuSans-67" transform="translate(145.226562 0)"/>
      <use xlink:href="#DejaVuSans-65" transform="translate(208.703125 0)"/>
      <use xlink:href="#DejaVuSans-74" transform="translate(270.226562 0)"/>
      <use xlink:href="#DejaVuSans-3a" transform="translate(309.435547 0)"/>
      <use xlink:href="#DejaVuSans-20" transform="translate(343.126953 0)"/>
      <use xlink:href="#DejaVuSans-53" transform="translate(374.914062 0)"/>
      <use xlink:href="#DejaVuSans-61" transform="translate(438.390625 0)"/>
      <use xlink:href="#DejaVuSans-6d" transform="translate(499.669922 0)"/>
      <use xlink:href="#DejaVuSans-70" transform="translate(597.082031 0)"/>
      <use xlink:href="#DejaVuSans-6c" transform="translate(660.558594 0)"/>
      <use xlink:href="#DejaVuSans-65" transform="translate(688.341797 0)"/>
      <use xlink:href="#DejaVuSans-20" transform="translate(749.865234 0)"/>
      <use xlink:href="#DejaVuSans-31" transform="translate(781.652344 0)"/>
     </g>
    </g>
   </g>
  </g>
 </g>
 <defs>
  <clipPath id="pfd87308ed5">
   <rect x="57.6" y="41.472" width="357.12" height="266.112"/>
  </clipPath>
 </defs>
</svg>
