<?xml version="1.0" encoding="utf-8" standalone="no"?>
<!DOCTYPE svg PUBLIC "-//W3C//DTD SVG 1.1//EN"
  "http://www.w3.org/Graphics/SVG/1.1/DTD/svg11.dtd">
<svg xmlns:xlink="http://www.w3.org/1999/xlink" width="460.8pt" height="345.6pt" viewBox="0 0 460.8 345.6" xmlns="http://www.w3.org/2000/svg" version="1.1">
 <metadata>
  <rdf:RDF xmlns:dc="http://purl.org/dc/elements/1.1/" xmlns:cc="http://creativecommons.org/ns#" xmlns:rdf="http://www.w3.org/1999/02/22-rdf-syntax-ns#">
   <cc:Work>
    <dc:type rdf:resource="http://purl.org/dc/dcmitype/StillImage"/>
    <dc:date>2025-04-16T05:25:12.666149</dc:date>
    <dc:format>image/svg+xml</dc:format>
    <dc:creator>
     <cc:Agent>
      <dc:title>Matplotlib v3.10.0, https://matplotlib.org/</dc:title>
     </cc:Agent>
    </dc:creator>
   </cc:Work>
  </rdf:RDF>
 </metadata>
 <defs>
  <style type="text/css">*{stroke-linejoin: round; stroke-linecap: butt}</style>
 </defs>
 <g id="figure_1">
  <g id="patch_1">
   <path d="M 0 345.6 
L 460.8 345.6 
L 460.8 0 
L 0 0 
z
" style="fill: #ffffff"/>
  </g>
  <g id="axes_1">
   <g id="patch_2">
    <path d="M 57.6 307.584 
L 414.72 307.584 
L 414.72 41.472 
L 57.6 41.472 
z
" style="fill: #ffffff"/>
   </g>
   <g id="matplotlib.axis_1">
    <g id="xtick_1">
     <g id="line2d_1">
      <path d="M 96.731039 307.584 
L 96.731039 41.472 
" clip-path="url(#p4686deff9e)" style="fill: none; stroke: #b0b0b0; stroke-opacity: 0.5; stroke-width: 0.8; stroke-linecap: square"/>
     </g>
     <g id="line2d_2">
      <defs>
       <path id="m0b52f30dad" d="M 0 0 
L 0 3.5 
" style="stroke: #000000; stroke-width: 0.8"/>
      </defs>
      <g>
       <use xlink:href="#m0b52f30dad" x="96.731039" y="307.584" style="stroke: #000000; stroke-width: 0.8"/>
      </g>
     </g>
     <g id="text_1">
      <!-- −1.0 -->
      <g transform="translate(84.589633 322.182437) scale(0.1 -0.1)">
       <defs>
        <path id="DejaVuSans-2212" d="M 678 2272 
L 4684 2272 
L 4684 1741 
L 678 1741 
L 678 2272 
z
" transform="scale(0.015625)"/>
        <path id="DejaVuSans-31" d="M 794 531 
L 1825 531 
L 1825 4091 
L 703 3866 
L 703 4441 
L 1819 4666 
L 2450 4666 
L 2450 531 
L 3481 531 
L 3481 0 
L 794 0 
L 794 531 
z
" transform="scale(0.015625)"/>
        <path id="DejaVuSans-2e" d="M 684 794 
L 1344 794 
L 1344 0 
L 684 0 
L 684 794 
z
" transform="scale(0.015625)"/>
        <path id="DejaVuSans-30" d="M 2034 4250 
Q 1547 4250 1301 3770 
Q 1056 3291 1056 2328 
Q 1056 1369 1301 889 
Q 1547 409 2034 409 
Q 2525 409 2770 889 
Q 3016 1369 3016 2328 
Q 3016 3291 2770 3770 
Q 2525 4250 2034 4250 
z
M 2034 4750 
Q 2819 4750 3233 4129 
Q 3647 3509 3647 2328 
Q 3647 1150 3233 529 
Q 2819 -91 2034 -91 
Q 1250 -91 836 529 
Q 422 1150 422 2328 
Q 422 3509 836 4129 
Q 1250 4750 2034 4750 
z
" transform="scale(0.015625)"/>
       </defs>
       <use xlink:href="#DejaVuSans-2212"/>
       <use xlink:href="#DejaVuSans-31" transform="translate(83.789062 0)"/>
       <use xlink:href="#DejaVuSans-2e" transform="translate(147.412109 0)"/>
       <use xlink:href="#DejaVuSans-30" transform="translate(179.199219 0)"/>
      </g>
     </g>
    </g>
    <g id="xtick_2">
     <g id="line2d_3">
      <path d="M 165.874452 307.584 
L 165.874452 41.472 
" clip-path="url(#p4686deff9e)" style="fill: none; stroke: #b0b0b0; stroke-opacity: 0.5; stroke-width: 0.8; stroke-linecap: square"/>
     </g>
     <g id="line2d_4">
      <g>
       <use xlink:href="#m0b52f30dad" x="165.874452" y="307.584" style="stroke: #000000; stroke-width: 0.8"/>
      </g>
     </g>
     <g id="text_2">
      <!-- −0.5 -->
      <g transform="translate(153.733046 322.182437) scale(0.1 -0.1)">
       <defs>
        <path id="DejaVuSans-35" d="M 691 4666 
L 3169 4666 
L 3169 4134 
L 1269 4134 
L 1269 2991 
Q 1406 3038 1543 3061 
Q 1681 3084 1819 3084 
Q 2600 3084 3056 2656 
Q 3513 2228 3513 1497 
Q 3513 744 3044 326 
Q 2575 -91 1722 -91 
Q 1428 -91 1123 -41 
Q 819 9 494 109 
L 494 744 
Q 775 591 1075 516 
Q 1375 441 1709 441 
Q 2250 441 2565 725 
Q 2881 1009 2881 1497 
Q 2881 1984 2565 2268 
Q 2250 2553 1709 2553 
Q 1456 2553 1204 2497 
Q 953 2441 691 2322 
L 691 4666 
z
" transform="scale(0.015625)"/>
       </defs>
       <use xlink:href="#DejaVuSans-2212"/>
       <use xlink:href="#DejaVuSans-30" transform="translate(83.789062 0)"/>
       <use xlink:href="#DejaVuSans-2e" transform="translate(147.412109 0)"/>
       <use xlink:href="#DejaVuSans-35" transform="translate(179.199219 0)"/>
      </g>
     </g>
    </g>
    <g id="xtick_3">
     <g id="line2d_5">
      <path d="M 235.017865 307.584 
L 235.017865 41.472 
" clip-path="url(#p4686deff9e)" style="fill: none; stroke: #b0b0b0; stroke-opacity: 0.5; stroke-width: 0.8; stroke-linecap: square"/>
     </g>
     <g id="line2d_6">
      <g>
       <use xlink:href="#m0b52f30dad" x="235.017865" y="307.584" style="stroke: #000000; stroke-width: 0.8"/>
      </g>
     </g>
     <g id="text_3">
      <!-- 0.0 -->
      <g transform="translate(227.066302 322.182437) scale(0.1 -0.1)">
       <use xlink:href="#DejaVuSans-30"/>
       <use xlink:href="#DejaVuSans-2e" transform="translate(63.623047 0)"/>
       <use xlink:href="#DejaVuSans-30" transform="translate(95.410156 0)"/>
      </g>
     </g>
    </g>
    <g id="xtick_4">
     <g id="line2d_7">
      <path d="M 304.161277 307.584 
L 304.161277 41.472 
" clip-path="url(#p4686deff9e)" style="fill: none; stroke: #b0b0b0; stroke-opacity: 0.5; stroke-width: 0.8; stroke-linecap: square"/>
     </g>
     <g id="line2d_8">
      <g>
       <use xlink:href="#m0b52f30dad" x="304.161277" y="307.584" style="stroke: #000000; stroke-width: 0.8"/>
      </g>
     </g>
     <g id="text_4">
      <!-- 0.5 -->
      <g transform="translate(296.209715 322.182437) scale(0.1 -0.1)">
       <use xlink:href="#DejaVuSans-30"/>
       <use xlink:href="#DejaVuSans-2e" transform="translate(63.623047 0)"/>
       <use xlink:href="#DejaVuSans-35" transform="translate(95.410156 0)"/>
      </g>
     </g>
    </g>
    <g id="xtick_5">
     <g id="line2d_9">
      <path d="M 373.30469 307.584 
L 373.30469 41.472 
" clip-path="url(#p4686deff9e)" style="fill: none; stroke: #b0b0b0; stroke-opacity: 0.5; stroke-width: 0.8; stroke-linecap: square"/>
     </g>
     <g id="line2d_10">
      <g>
       <use xlink:href="#m0b52f30dad" x="373.30469" y="307.584" style="stroke: #000000; stroke-width: 0.8"/>
      </g>
     </g>
     <g id="text_5">
      <!-- 1.0 -->
      <g transform="translate(365.353127 322.182437) scale(0.1 -0.1)">
       <use xlink:href="#DejaVuSans-31"/>
       <use xlink:href="#DejaVuSans-2e" transform="translate(63.623047 0)"/>
       <use xlink:href="#DejaVuSans-30" transform="translate(95.410156 0)"/>
      </g>
     </g>
    </g>
    <g id="text_6">
     <!-- Index -->
     <g transform="translate(222.393594 335.860562) scale(0.1 -0.1)">
      <defs>
       <path id="DejaVuSans-49" d="M 628 4666 
L 1259 4666 
L 1259 0 
L 628 0 
L 628 4666 
z
" transform="scale(0.015625)"/>
       <path id="DejaVuSans-6e" d="M 3513 2113 
L 3513 0 
L 2938 0 
L 2938 2094 
Q 2938 2591 2744 2837 
Q 2550 3084 2163 3084 
Q 1697 3084 1428 2787 
Q 1159 2491 1159 1978 
L 1159 0 
L 581 0 
L 581 3500 
L 1159 3500 
L 1159 2956 
Q 1366 3272 1645 3428 
Q 1925 3584 2291 3584 
Q 2894 3584 3203 3211 
Q 3513 2838 3513 2113 
z
" transform="scale(0.015625)"/>
       <path id="DejaVuSans-64" d="M 2906 2969 
L 2906 4863 
L 3481 4863 
L 3481 0 
L 2906 0 
L 2906 525 
Q 2725 213 2448 61 
Q 2172 -91 1784 -91 
Q 1150 -91 751 415 
Q 353 922 353 1747 
Q 353 2572 751 3078 
Q 1150 3584 1784 3584 
Q 2172 3584 2448 3432 
Q 2725 3281 2906 2969 
z
M 947 1747 
Q 947 1113 1208 752 
Q 1469 391 1925 391 
Q 2381 391 2643 752 
Q 2906 1113 2906 1747 
Q 2906 2381 2643 2742 
Q 2381 3103 1925 3103 
Q 1469 3103 1208 2742 
Q 947 2381 947 1747 
z
" transform="scale(0.015625)"/>
       <path id="DejaVuSans-65" d="M 3597 1894 
L 3597 1613 
L 953 1613 
Q 991 1019 1311 708 
Q 1631 397 2203 397 
Q 2534 397 2845 478 
Q 3156 559 3463 722 
L 3463 178 
Q 3153 47 2828 -22 
Q 2503 -91 2169 -91 
Q 1331 -91 842 396 
Q 353 884 353 1716 
Q 353 2575 817 3079 
Q 1281 3584 2069 3584 
Q 2775 3584 3186 3129 
Q 3597 2675 3597 1894 
z
M 3022 2063 
Q 3016 2534 2758 2815 
Q 2500 3097 2075 3097 
Q 1594 3097 1305 2825 
Q 1016 2553 972 2059 
L 3022 2063 
z
" transform="scale(0.015625)"/>
       <path id="DejaVuSans-78" d="M 3513 3500 
L 2247 1797 
L 3578 0 
L 2900 0 
L 1881 1375 
L 863 0 
L 184 0 
L 1544 1831 
L 300 3500 
L 978 3500 
L 1906 2253 
L 2834 3500 
L 3513 3500 
z
" transform="scale(0.015625)"/>
      </defs>
      <use xlink:href="#DejaVuSans-49"/>
      <use xlink:href="#DejaVuSans-6e" transform="translate(29.492188 0)"/>
      <use xlink:href="#DejaVuSans-64" transform="translate(92.871094 0)"/>
      <use xlink:href="#DejaVuSans-65" transform="translate(156.347656 0)"/>
      <use xlink:href="#DejaVuSans-78" transform="translate(216.121094 0)"/>
     </g>
    </g>
   </g>
   <g id="matplotlib.axis_2">
    <g id="ytick_1">
     <g id="line2d_11">
      <path d="M 57.6 275.686072 
L 414.72 275.686072 
" clip-path="url(#p4686deff9e)" style="fill: none; stroke: #b0b0b0; stroke-opacity: 0.5; stroke-width: 0.8; stroke-linecap: square"/>
     </g>
     <g id="line2d_12">
      <defs>
       <path id="m0696ca1f8c" d="M 0 0 
L -3.5 0 
" style="stroke: #000000; stroke-width: 0.8"/>
      </defs>
      <g>
       <use xlink:href="#m0696ca1f8c" x="57.6" y="275.686072" style="stroke: #000000; stroke-width: 0.8"/>
      </g>
     </g>
     <g id="text_7">
      <!-- −1.0 -->
      <g transform="translate(26.317187 279.485291) scale(0.1 -0.1)">
       <use xlink:href="#DejaVuSans-2212"/>
       <use xlink:href="#DejaVuSans-31" transform="translate(83.789062 0)"/>
       <use xlink:href="#DejaVuSans-2e" transform="translate(147.412109 0)"/>
       <use xlink:href="#DejaVuSans-30" transform="translate(179.199219 0)"/>
      </g>
     </g>
    </g>
    <g id="ytick_2">
     <g id="line2d_13">
      <path d="M 57.6 225.196158 
L 414.72 225.196158 
" clip-path="url(#p4686deff9e)" style="fill: none; stroke: #b0b0b0; stroke-opacity: 0.5; stroke-width: 0.8; stroke-linecap: square"/>
     </g>
     <g id="line2d_14">
      <g>
       <use xlink:href="#m0696ca1f8c" x="57.6" y="225.196158" style="stroke: #000000; stroke-width: 0.8"/>
      </g>
     </g>
     <g id="text_8">
      <!-- −0.5 -->
      <g transform="translate(26.317187 228.995376) scale(0.1 -0.1)">
       <use xlink:href="#DejaVuSans-2212"/>
       <use xlink:href="#DejaVuSans-30" transform="translate(83.789062 0)"/>
       <use xlink:href="#DejaVuSans-2e" transform="translate(147.412109 0)"/>
       <use xlink:href="#DejaVuSans-35" transform="translate(179.199219 0)"/>
      </g>
     </g>
    </g>
    <g id="ytick_3">
     <g id="line2d_15">
      <path d="M 57.6 174.706243 
L 414.72 174.706243 
" clip-path="url(#p4686deff9e)" style="fill: none; stroke: #b0b0b0; stroke-opacity: 0.5; stroke-width: 0.8; stroke-linecap: square"/>
     </g>
     <g id="line2d_16">
      <g>
       <use xlink:href="#m0696ca1f8c" x="57.6" y="174.706243" style="stroke: #000000; stroke-width: 0.8"/>
      </g>
     </g>
     <g id="text_9">
      <!-- 0.0 -->
      <g transform="translate(34.696875 178.505461) scale(0.1 -0.1)">
       <use xlink:href="#DejaVuSans-30"/>
       <use xlink:href="#DejaVuSans-2e" transform="translate(63.623047 0)"/>
       <use xlink:href="#DejaVuSans-30" transform="translate(95.410156 0)"/>
      </g>
     </g>
    </g>
    <g id="ytick_4">
     <g id="line2d_17">
      <path d="M 57.6 124.216328 
L 414.72 124.216328 
" clip-path="url(#p4686deff9e)" style="fill: none; stroke: #b0b0b0; stroke-opacity: 0.5; stroke-width: 0.8; stroke-linecap: square"/>
     </g>
     <g id="line2d_18">
      <g>
       <use xlink:href="#m0696ca1f8c" x="57.6" y="124.216328" style="stroke: #000000; stroke-width: 0.8"/>
      </g>
     </g>
     <g id="text_10">
      <!-- 0.5 -->
      <g transform="translate(34.696875 128.015547) scale(0.1 -0.1)">
       <use xlink:href="#DejaVuSans-30"/>
       <use xlink:href="#DejaVuSans-2e" transform="translate(63.623047 0)"/>
       <use xlink:href="#DejaVuSans-35" transform="translate(95.410156 0)"/>
      </g>
     </g>
    </g>
    <g id="ytick_5">
     <g id="line2d_19">
      <path d="M 57.6 73.726413 
L 414.72 73.726413 
" clip-path="url(#p4686deff9e)" style="fill: none; stroke: #b0b0b0; stroke-opacity: 0.5; stroke-width: 0.8; stroke-linecap: square"/>
     </g>
     <g id="line2d_20">
      <g>
       <use xlink:href="#m0696ca1f8c" x="57.6" y="73.726413" style="stroke: #000000; stroke-width: 0.8"/>
      </g>
     </g>
     <g id="text_11">
      <!-- 1.0 -->
      <g transform="translate(34.696875 77.525632) scale(0.1 -0.1)">
       <use xlink:href="#DejaVuSans-31"/>
       <use xlink:href="#DejaVuSans-2e" transform="translate(63.623047 0)"/>
       <use xlink:href="#DejaVuSans-30" transform="translate(95.410156 0)"/>
      </g>
     </g>
    </g>
    <g id="text_12">
     <!-- Value -->
     <g transform="translate(20.2375 188.25925) rotate(-90) scale(0.1 -0.1)">
      <defs>
       <path id="DejaVuSans-56" d="M 1831 0 
L 50 4666 
L 709 4666 
L 2188 738 
L 3669 4666 
L 4325 4666 
L 2547 0 
L 1831 0 
z
" transform="scale(0.015625)"/>
       <path id="DejaVuSans-61" d="M 2194 1759 
Q 1497 1759 1228 1600 
Q 959 1441 959 1056 
Q 959 750 1161 570 
Q 1363 391 1709 391 
Q 2188 391 2477 730 
Q 2766 1069 2766 1631 
L 2766 1759 
L 2194 1759 
z
M 3341 1997 
L 3341 0 
L 2766 0 
L 2766 531 
Q 2569 213 2275 61 
Q 1981 -91 1556 -91 
Q 1019 -91 701 211 
Q 384 513 384 1019 
Q 384 1609 779 1909 
Q 1175 2209 1959 2209 
L 2766 2209 
L 2766 2266 
Q 2766 2663 2505 2880 
Q 2244 3097 1772 3097 
Q 1472 3097 1187 3025 
Q 903 2953 641 2809 
L 641 3341 
Q 956 3463 1253 3523 
Q 1550 3584 1831 3584 
Q 2591 3584 2966 3190 
Q 3341 2797 3341 1997 
z
" transform="scale(0.015625)"/>
       <path id="DejaVuSans-6c" d="M 603 4863 
L 1178 4863 
L 1178 0 
L 603 0 
L 603 4863 
z
" transform="scale(0.015625)"/>
       <path id="DejaVuSans-75" d="M 544 1381 
L 544 3500 
L 1119 3500 
L 1119 1403 
Q 1119 906 1312 657 
Q 1506 409 1894 409 
Q 2359 409 2629 706 
Q 2900 1003 2900 1516 
L 2900 3500 
L 3475 3500 
L 3475 0 
L 2900 0 
L 2900 538 
Q 2691 219 2414 64 
Q 2138 -91 1772 -91 
Q 1169 -91 856 284 
Q 544 659 544 1381 
z
M 1991 3584 
L 1991 3584 
z
" transform="scale(0.015625)"/>
      </defs>
      <use xlink:href="#DejaVuSans-56"/>
      <use xlink:href="#DejaVuSans-61" transform="translate(60.658203 0)"/>
      <use xlink:href="#DejaVuSans-6c" transform="translate(121.9375 0)"/>
      <use xlink:href="#DejaVuSans-75" transform="translate(149.720703 0)"/>
      <use xlink:href="#DejaVuSans-65" transform="translate(213.099609 0)"/>
     </g>
    </g>
   </g>
   <g id="line2d_21">
    <path d="M 232.070696 177.476813 
L 236.514128 176.999578 
L 238.548473 176.522282 
L 238.357176 176.045235 
L 237.972056 175.568762 
L 238.284947 175.093137 
L 239.410045 174.618521 
L 242.249867 173.67209 
L 243.02476 173.19971 
L 243.274719 172.727303 
L 243.324512 172.254426 
L 243.55178 171.780772 
L 244.156773 171.306266 
L 246.919985 169.880725 
L 247.493789 169.406618 
L 248.73955 167.992118 
L 250.254817 167.053052 
L 251.782901 166.11223 
L 252.842174 165.168071 
L 253.884406 164.223322 
L 265.826428 155.326808 
L 281.254282 143.654656 
L 285.560739 140.393294 
L 292.898786 134.825562 
L 309.300977 122.415573 
L 312.904252 119.675364 
L 316.479963 116.937405 
L 320.730508 113.755369 
L 326.092229 109.675979 
L 328.518889 109.166867 
L 327.541151 108.714128 
L 327.001158 108.261449 
L 327.393181 107.809162 
L 331.551393 106.007113 
L 332.23179 104.656937 
L 332.866556 104.206063 
L 335.280053 102.854785 
L 336.201362 101.957734 
L 337.188085 101.062578 
L 339.879446 99.267469 
L 341.948645 97.474954 
L 345.091029 95.242502 
L 347.906762 93.006126 
L 352.050072 89.884741 
L 354.962902 87.658621 
L 357.902083 85.429696 
L 360.16466 83.650682 
L 363.208316 81.429876 
L 365.960045 79.206272 
L 369.567936 76.549484 
L 371.72931 74.777476 
L 375.353867 72.132605 
L 377.453241 70.36927 
L 381.125836 67.737303 
L 383.112089 65.980818 
L 386.913547 63.36444 
L 388.69082 61.611084 
L 390.070966 60.75472 
L 392.271411 59.451069 
L 393.07847 58.561059 
L 393.602135 57.684387 
L 394.049573 57.25842 
L 394.752134 56.838724 
L 398.487273 55.104063 
L 398.451286 54.655429 
L 397.517868 54.234156 
L 395.602368 53.879717 
L 392.797796 53.64078 
L 389.373434 53.568 
L 385.781187 53.704183 
L 382.638605 54.074211 
L 380.645345 54.676615 
L 380.322567 55.479676 
L 381.6995 56.422917 
L 384.217743 57.424553 
L 389.18008 59.247222 
L 390.298543 59.921877 
L 390.15415 60.388809 
L 388.783021 60.657972 
L 383.486581 60.81982 
L 377.1544 61.031479 
L 374.251757 61.348529 
L 372.075299 61.858423 
L 371.245787 62.553217 
L 368.127025 63.499383 
L 379.901951 65.290104 
L 382.962421 66.073628 
L 382.789212 66.704165 
L 380.181125 67.161539 
L 373.495191 67.652136 
L 369.614341 67.986063 
L 366.085159 68.69836 
L 364.316591 69.282106 
L 363.468005 70.001734 
L 364.117352 70.809815 
L 366.12225 71.64238 
L 370.560222 73.123912 
L 371.040811 73.683101 
L 369.848001 74.104584 
L 367.365456 74.411709 
L 359.1965 75.157375 
L 357.529298 75.530123 
L 356.45138 76.022514 
L 355.989732 76.633375 
L 356.21374 77.337011 
L 357.093664 78.089171 
L 359.541235 79.531845 
L 360.142298 80.136205 
L 359.818976 80.63423 
L 358.50927 81.032673 
L 354.062215 81.653724 
L 349.89867 82.328 
L 348.589278 82.775075 
L 347.910282 83.312993 
L 347.851158 83.930692 
L 348.299997 84.600959 
L 349.7394 85.949582 
L 350.097192 86.55768 
L 349.872608 87.092378 
L 348.992849 87.551269 
L 347.550611 87.948057 
L 342.288567 89.048203 
L 340.986163 89.48229 
L 340.122791 89.978931 
L 339.719912 90.536013 
L 339.719574 91.138826 
L 340.447349 92.975038 
L 340.24431 93.519824 
L 339.600428 94.012113 
L 338.540702 94.457016 
L 333.101402 96.12039 
L 332.19783 96.600069 
L 331.622922 97.121821 
L 331.346755 97.678524 
L 331.217463 99.402375 
L 330.932675 99.940841 
L 330.357132 100.445325 
L 329.488533 100.917096 
L 324.116732 103.172546 
L 323.502407 103.67813 
L 323.087033 104.206996 
L 322.271054 105.83918 
L 321.841643 106.364212 
L 321.236138 106.869003 
L 319.547407 107.822704 
L 316.741647 109.213219 
L 315.351972 110.191646 
L 314.37538 111.220535 
L 312.937766 112.773174 
L 311.613462 113.763633 
L 307.110012 116.642132 
L 304.855686 118.647371 
L 302.993854 120.130835 
L 298.184201 123.515924 
L 295.13145 125.972874 
L 289.868256 129.859891 
L 287.284398 131.808247 
L 283.346699 134.737313 
L 281.483939 136.203299 
L 278.670386 136.750299 
L 279.922733 137.23554 
L 280.53864 137.720468 
L 279.969188 138.205815 
L 275.852209 139.66907 
L 275.31053 140.159181 
L 275.187333 141.13963 
L 274.849262 141.628537 
L 274.097567 142.115884 
L 271.252284 143.568917 
L 270.287945 144.534783 
L 269.263101 145.503378 
L 266.33599 147.448853 
L 264.082122 149.382393 
L 260.672217 151.780281 
L 255.705866 155.634878 
L 226.008302 177.999113 
L 221.042655 181.762449 
L 216.760682 185.049532 
L 197.671428 199.492967 
L 189.692211 205.536715 
L 187.063847 206.058418 
L 188.255199 206.522397 
L 188.823509 206.986681 
L 188.347012 207.451193 
L 184.572169 208.844181 
L 184.000113 209.307667 
L 183.468646 210.695073 
L 182.780967 211.157036 
L 180.113896 212.542853 
L 179.230997 213.4664 
L 178.344677 214.388596 
L 174.460484 217.147973 
L 173.380193 218.066232 
L 169.661131 220.814868 
L 167.267857 222.644272 
L 161.302449 227.204942 
L 154.202302 232.658234 
L 139.461967 243.929122 
L 107.73359 268.403984 
L 105.45063 270.171111 
L 103.638401 271.493619 
L 101.219315 271.991259 
L 102.379172 272.434157 
L 102.919882 272.876953 
L 102.548325 273.319021 
L 100.114766 274.19922 
L 98.96691 274.637556 
L 98.307894 275.07538 
L 98.092162 275.513469 
L 98.040564 275.952395 
L 97.832588 276.392459 
L 97.304736 276.833317 
L 94.31014 278.591512 
L 93.079859 279.898605 
L 89.970214 282.090893 
L 89.170737 282.962798 
L 87.950759 283.827758 
L 85.831108 285.131625 
L 84.963136 286.010476 
L 84.200767 286.885209 
L 83.00832 287.746245 
L 80.144186 289.470517 
L 79.363651 290.354821 
L 78.802367 291.230867 
L 78.357864 291.65799 
L 77.683261 292.078396 
L 73.946293 293.799732 
L 73.832727 294.24957 
L 74.555581 294.682591 
L 76.206908 295.064428 
L 78.671014 295.349747 
L 81.644724 295.488 
L 84.698847 295.432578 
L 87.39419 295.150594 
L 89.326125 294.632575 
L 90.177959 293.898273 
L 89.818881 292.997766 
L 88.417204 292.006278 
L 86.401624 291.01355 
L 82.597742 289.366102 
L 81.793732 288.828052 
L 82.283817 288.49965 
L 84.210098 288.345639 
L 94.72802 288.158501 
L 97.689762 287.901158 
L 99.489396 287.448587 
L 99.881288 286.795974 
L 98.884707 285.978973 
L 96.867519 285.065863 
L 92.41556 283.296556 
L 91.22453 282.594949 
L 91.244493 282.074751 
L 92.598198 281.733613 
L 95.121635 281.531861 
L 101.77281 281.261397 
L 104.750946 281.034052 
L 106.875839 280.662484 
L 107.88742 280.121183 
L 107.712637 279.4209 
L 106.520437 278.605295 
L 101.599601 276.158108 
L 101.164749 275.552634 
L 101.819017 275.101695 
L 103.553124 274.787835 
L 114.119842 273.808752 
L 115.510753 273.34876 
L 115.922114 272.751646 
L 115.422237 272.040168 
L 114.282088 271.260345 
L 111.766449 269.731258 
L 111.191359 269.087474 
L 111.420666 268.564519 
L 112.53195 268.160894 
L 114.421766 267.850043 
L 121.487021 266.992704 
L 123.059401 266.575193 
L 123.846283 266.049788 
L 123.84536 265.424591 
L 123.232272 264.728521 
L 121.45842 263.299317 
L 120.971756 262.654407 
L 121.070435 262.096356 
L 121.847698 261.632247 
L 123.256983 261.249032 
L 130.617033 259.841219 
L 131.573513 259.35549 
L 131.92054 258.791637 
L 131.754239 258.16606 
L 130.498282 256.227551 
L 130.60907 255.662241 
L 131.209407 255.16477 
L 132.291026 254.730268 
L 135.388233 253.969507 
L 138.374678 253.169028 
L 139.359982 252.698503 
L 139.903372 252.17181 
L 140.050946 251.597424 
L 139.701265 249.792329 
L 139.906223 249.236872 
L 142.515662 248.666729 
L 141.458442 248.206809 
L 141.474762 247.779139 
L 142.781558 247.365775 
L 146.957376 246.504571 
L 148.382288 246.02807 
L 148.847975 245.514263 
L 148.556634 244.968575 
L 148.023556 244.403138 
L 147.771648 243.833615 
L 148.079573 243.275497 
L 148.900777 242.740763 
L 152.695954 240.858543 
L 156.629334 238.444737 
L 157.037051 237.90993 
L 157.847952 236.322436 
L 158.450003 235.821239 
L 160.259191 234.864986 
L 162.127494 233.934222 
L 163.504854 232.978968 
L 168.020899 228.953417 
L 172.970514 225.573342 
L 175.228157 223.581563 
L 178.036843 221.642601 
L 180.059281 220.187428 
L 184.421166 216.752843 
L 187.796135 214.312785 
L 190.880471 211.85877 
L 195.547614 208.44049 
L 199.326121 205.504514 
L 203.906831 202.103974 
L 208.980102 198.228008 
L 212.861175 195.329112 
L 215.943059 192.916043 
L 220.52497 189.556724 
L 223.592121 187.147599 
L 228.740113 183.321009 
L 233.162404 179.975596 
L 235.703186 178.072897 
L 238.342269 177.53645 
L 238.342269 177.53645 
" clip-path="url(#p4686deff9e)" style="fill: none; stroke: #1f77b4; stroke-width: 1.5; stroke-linecap: square"/>
   </g>
   <g id="line2d_22">
    <path d="M 235.47617 177.476813 
L 265.873726 154.393682 
L 270.226266 151.121796 
L 273.971234 148.323241 
L 278.250598 145.051635 
L 380.51447 67.294965 
L 382.239073 65.980818 
L 384.784236 64.24612 
L 387.95125 61.611084 
L 390.689437 59.891024 
L 391.570449 59.006588 
L 392.30898 58.119034 
L 392.836585 57.684387 
L 394.446237 56.838724 
L 396.256908 55.992965 
L 396.74874 55.554046 
L 396.648231 55.104063 
L 395.786226 54.655429 
L 394.121201 54.234156 
L 391.77638 53.879717 
L 389.040765 53.64078 
L 386.329563 53.568 
L 384.107359 53.704183 
L 382.791619 54.074211 
L 382.654645 54.676615 
L 383.750952 55.479676 
L 385.88562 56.422917 
L 393.659454 59.247222 
L 394.783901 59.921877 
L 394.473751 60.388809 
L 392.666162 60.657972 
L 385.71073 60.81982 
L 378.093719 61.031479 
L 375.551836 61.348529 
L 374.367796 61.858423 
L 374.594383 62.553217 
L 376.237813 63.499383 
L 382.310354 66.073628 
L 382.983967 66.704165 
L 382.410699 67.161539 
L 380.609737 67.461615 
L 374.581146 67.801898 
L 371.344565 67.986063 
L 368.649618 68.270455 
L 366.874794 68.69836 
L 366.194653 69.282106 
L 366.551497 70.001734 
L 367.676694 70.809815 
L 370.517913 72.432405 
L 371.340526 73.123912 
L 371.331163 73.683101 
L 370.385406 74.104584 
L 368.600179 74.411709 
L 361.357808 75.157375 
L 359.565534 75.530123 
L 358.526917 76.022514 
L 358.278586 76.633375 
L 358.686666 77.337011 
L 360.893135 79.531845 
L 360.916099 80.136205 
L 360.270263 80.63423 
L 358.976877 81.032673 
L 355.182945 81.653724 
L 351.612838 82.328 
L 350.504225 82.775075 
L 349.971559 83.312993 
L 349.95247 83.930692 
L 351.015765 85.949582 
L 350.979638 86.55768 
L 350.485226 87.092378 
L 349.516687 87.551269 
L 346.582096 88.308545 
L 343.566762 89.048203 
L 342.475606 89.48229 
L 341.781626 89.978931 
L 341.465459 90.536013 
L 341.427016 91.138826 
L 341.544043 92.38407 
L 341.372071 92.975038 
L 340.894424 93.519824 
L 340.082724 94.012113 
L 337.705749 94.869374 
L 335.184744 95.680778 
L 334.198063 96.12039 
L 333.489123 96.600069 
L 333.050076 97.121821 
L 332.665726 98.25595 
L 332.484465 98.836349 
L 332.157722 99.402375 
L 331.613954 99.940841 
L 330.835009 100.445325 
L 328.763536 101.364448 
L 326.630508 102.239086 
L 325.766607 102.693691 
L 325.095582 103.172546 
L 324.236932 104.206996 
L 323.558761 105.29847 
L 323.094706 105.83918 
L 322.485583 106.364212 
L 320.858267 107.353696 
L 317.403136 109.213219 
L 316.23769 110.191646 
L 314.251124 112.261829 
L 312.857352 113.273895 
L 308.365664 116.152394 
L 304.974469 119.147124 
L 299.406871 123.026265 
L 297.132289 124.993204 
L 294.929891 126.459535 
L 292.72906 127.913429 
L 290.953127 129.372161 
L 289.224799 130.834999 
L 287.119139 132.294664 
L 284.248004 134.247447 
L 277.784755 139.179962 
L 275.12244 141.13963 
L 270.785608 144.534783 
L 266.187536 147.934389 
L 262.453172 150.820416 
L 258.509656 153.711352 
L 254.115689 157.065404 
L 249.61074 160.425873 
L 243.867087 164.718122 
L 231.961869 173.751677 
L 227.512723 177.053513 
L 207.167113 192.513718 
L 95.753194 277.274427 
L 93.482408 279.027603 
L 90.583079 281.212488 
L 88.380113 282.962798 
L 85.35164 285.131625 
L 82.745168 287.317412 
L 79.540486 289.470517 
L 77.882533 291.230867 
L 76.42456 292.078396 
L 74.607954 292.919822 
L 73.97468 293.35377 
L 73.835629 293.799732 
L 74.391868 294.24957 
L 75.743133 294.682591 
L 77.839359 295.064428 
L 80.461227 295.349747 
L 83.240446 295.488 
L 85.720609 295.432578 
L 87.447272 295.150594 
L 88.070144 294.632575 
L 87.43204 293.898273 
L 85.623429 292.997766 
L 80.0552 291.01355 
L 77.468857 290.109035 
L 75.828938 289.366102 
L 75.578381 288.828052 
L 76.900402 288.49965 
L 79.672219 288.345639 
L 91.654098 288.158501 
L 94.674345 287.901158 
L 96.3261 287.448587 
L 96.450694 286.795974 
L 95.205033 285.978973 
L 93.024717 285.065863 
L 88.3828 283.296556 
L 87.166696 282.594949 
L 87.248215 282.074751 
L 88.715205 281.733613 
L 91.365362 281.531861 
L 101.429764 281.034052 
L 103.635969 280.662484 
L 104.655588 280.121183 
L 104.473988 279.4209 
L 103.328061 278.605295 
L 98.754937 276.158108 
L 98.42845 275.552634 
L 99.154766 275.101695 
L 100.883498 274.787835 
L 110.959257 273.808752 
L 112.255998 273.34876 
L 112.626335 272.751646 
L 112.176548 272.040168 
L 109.131895 269.731258 
L 108.809455 269.087474 
L 109.266117 268.564519 
L 110.524084 268.160894 
L 114.704081 267.58682 
L 118.93533 266.992704 
L 120.293815 266.575193 
L 120.94111 266.049788 
L 120.914882 265.424591 
L 120.396657 264.728521 
L 119.03912 263.299317 
L 118.792858 262.654407 
L 119.112206 262.096356 
L 120.050908 261.632247 
L 121.52633 261.249032 
L 126.949408 260.249123 
L 128.258884 259.841219 
L 129.050637 259.35549 
L 129.325617 258.791637 
L 129.197668 258.16606 
L 128.556308 256.850534 
L 128.4919 256.227551 
L 128.823283 255.662241 
L 129.608937 255.16477 
L 130.804047 254.730268 
L 136.445108 253.169028 
L 137.236944 252.698503 
L 137.64598 252.17181 
L 137.750536 251.597424 
L 137.648988 250.384056 
L 137.777959 249.792329 
L 138.196202 249.236872 
L 139.064133 248.666729 
L 141.412217 247.779139 
L 143.917141 246.946741 
L 144.897887 246.504571 
L 145.602542 246.02807 
L 146.040377 245.514263 
L 146.436596 244.403138 
L 146.630065 243.833615 
L 146.969014 243.275497 
L 147.520185 242.740763 
L 148.296459 242.235455 
L 150.322243 241.303446 
L 152.369706 240.411474 
L 153.829954 239.470484 
L 154.669176 238.444737 
L 155.380779 237.372115 
L 155.868704 236.840594 
L 157.267512 235.821239 
L 161.530701 233.462 
L 162.642265 232.48385 
L 164.554401 230.439644 
L 165.964934 229.439796 
L 169.926615 227.044263 
L 171.042292 226.069321 
L 173.115261 224.075857 
L 174.551091 223.091938 
L 178.362926 220.675329 
L 179.980046 219.20406 
L 181.075846 218.218657 
L 182.425302 217.23964 
L 186.838974 214.312785 
L 191.033663 210.885594 
L 195.231361 207.948228 
L 199.502301 204.53637 
L 204.169856 201.126926 
L 207.834437 198.228008 
L 212.457023 194.843412 
L 215.534778 192.438369 
L 220.745434 188.588869 
L 224.532011 185.717636 
L 229.639642 181.881147 
L 235.397423 177.53645 
L 235.397423 177.53645 
" clip-path="url(#p4686deff9e)" style="fill: none; stroke: #ff7f0e; stroke-opacity: 0.5; stroke-width: 1.5; stroke-linecap: square"/>
   </g>
   <g id="patch_3">
    <path d="M 57.6 307.584 
L 57.6 41.472 
" style="fill: none; stroke: #000000; stroke-width: 0.8; stroke-linejoin: miter; stroke-linecap: square"/>
   </g>
   <g id="patch_4">
    <path d="M 414.72 307.584 
L 414.72 41.472 
" style="fill: none; stroke: #000000; stroke-width: 0.8; stroke-linejoin: miter; stroke-linecap: square"/>
   </g>
   <g id="patch_5">
    <path d="M 57.6 307.584 
L 414.72 307.584 
" style="fill: none; stroke: #000000; stroke-width: 0.8; stroke-linejoin: miter; stroke-linecap: square"/>
   </g>
   <g id="patch_6">
    <path d="M 57.6 41.472 
L 414.72 41.472 
" style="fill: none; stroke: #000000; stroke-width: 0.8; stroke-linejoin: miter; stroke-linecap: square"/>
   </g>
   <g id="text_13">
    <!-- Compare - Epoch 2700 -->
    <g transform="translate(167.416875 35.472) scale(0.12 -0.12)">
     <defs>
      <path id="DejaVuSans-43" d="M 4122 4306 
L 4122 3641 
Q 3803 3938 3442 4084 
Q 3081 4231 2675 4231 
Q 1875 4231 1450 3742 
Q 1025 3253 1025 2328 
Q 1025 1406 1450 917 
Q 1875 428 2675 428 
Q 3081 428 3442 575 
Q 3803 722 4122 1019 
L 4122 359 
Q 3791 134 3420 21 
Q 3050 -91 2638 -91 
Q 1578 -91 968 557 
Q 359 1206 359 2328 
Q 359 3453 968 4101 
Q 1578 4750 2638 4750 
Q 3056 4750 3426 4639 
Q 3797 4528 4122 4306 
z
" transform="scale(0.015625)"/>
      <path id="DejaVuSans-6f" d="M 1959 3097 
Q 1497 3097 1228 2736 
Q 959 2375 959 1747 
Q 959 1119 1226 758 
Q 1494 397 1959 397 
Q 2419 397 2687 759 
Q 2956 1122 2956 1747 
Q 2956 2369 2687 2733 
Q 2419 3097 1959 3097 
z
M 1959 3584 
Q 2709 3584 3137 3096 
Q 3566 2609 3566 1747 
Q 3566 888 3137 398 
Q 2709 -91 1959 -91 
Q 1206 -91 779 398 
Q 353 888 353 1747 
Q 353 2609 779 3096 
Q 1206 3584 1959 3584 
z
" transform="scale(0.015625)"/>
      <path id="DejaVuSans-6d" d="M 3328 2828 
Q 3544 3216 3844 3400 
Q 4144 3584 4550 3584 
Q 5097 3584 5394 3201 
Q 5691 2819 5691 2113 
L 5691 0 
L 5113 0 
L 5113 2094 
Q 5113 2597 4934 2840 
Q 4756 3084 4391 3084 
Q 3944 3084 3684 2787 
Q 3425 2491 3425 1978 
L 3425 0 
L 2847 0 
L 2847 2094 
Q 2847 2600 2669 2842 
Q 2491 3084 2119 3084 
Q 1678 3084 1418 2786 
Q 1159 2488 1159 1978 
L 1159 0 
L 581 0 
L 581 3500 
L 1159 3500 
L 1159 2956 
Q 1356 3278 1631 3431 
Q 1906 3584 2284 3584 
Q 2666 3584 2933 3390 
Q 3200 3197 3328 2828 
z
" transform="scale(0.015625)"/>
      <path id="DejaVuSans-70" d="M 1159 525 
L 1159 -1331 
L 581 -1331 
L 581 3500 
L 1159 3500 
L 1159 2969 
Q 1341 3281 1617 3432 
Q 1894 3584 2278 3584 
Q 2916 3584 3314 3078 
Q 3713 2572 3713 1747 
Q 3713 922 3314 415 
Q 2916 -91 2278 -91 
Q 1894 -91 1617 61 
Q 1341 213 1159 525 
z
M 3116 1747 
Q 3116 2381 2855 2742 
Q 2594 3103 2138 3103 
Q 1681 3103 1420 2742 
Q 1159 2381 1159 1747 
Q 1159 1113 1420 752 
Q 1681 391 2138 391 
Q 2594 391 2855 752 
Q 3116 1113 3116 1747 
z
" transform="scale(0.015625)"/>
      <path id="DejaVuSans-72" d="M 2631 2963 
Q 2534 3019 2420 3045 
Q 2306 3072 2169 3072 
Q 1681 3072 1420 2755 
Q 1159 2438 1159 1844 
L 1159 0 
L 581 0 
L 581 3500 
L 1159 3500 
L 1159 2956 
Q 1341 3275 1631 3429 
Q 1922 3584 2338 3584 
Q 2397 3584 2469 3576 
Q 2541 3569 2628 3553 
L 2631 2963 
z
" transform="scale(0.015625)"/>
      <path id="DejaVuSans-20" transform="scale(0.015625)"/>
      <path id="DejaVuSans-2d" d="M 313 2009 
L 1997 2009 
L 1997 1497 
L 313 1497 
L 313 2009 
z
" transform="scale(0.015625)"/>
      <path id="DejaVuSans-45" d="M 628 4666 
L 3578 4666 
L 3578 4134 
L 1259 4134 
L 1259 2753 
L 3481 2753 
L 3481 2222 
L 1259 2222 
L 1259 531 
L 3634 531 
L 3634 0 
L 628 0 
L 628 4666 
z
" transform="scale(0.015625)"/>
      <path id="DejaVuSans-63" d="M 3122 3366 
L 3122 2828 
Q 2878 2963 2633 3030 
Q 2388 3097 2138 3097 
Q 1578 3097 1268 2742 
Q 959 2388 959 1747 
Q 959 1106 1268 751 
Q 1578 397 2138 397 
Q 2388 397 2633 464 
Q 2878 531 3122 666 
L 3122 134 
Q 2881 22 2623 -34 
Q 2366 -91 2075 -91 
Q 1284 -91 818 406 
Q 353 903 353 1747 
Q 353 2603 823 3093 
Q 1294 3584 2113 3584 
Q 2378 3584 2631 3529 
Q 2884 3475 3122 3366 
z
" transform="scale(0.015625)"/>
      <path id="DejaVuSans-68" d="M 3513 2113 
L 3513 0 
L 2938 0 
L 2938 2094 
Q 2938 2591 2744 2837 
Q 2550 3084 2163 3084 
Q 1697 3084 1428 2787 
Q 1159 2491 1159 1978 
L 1159 0 
L 581 0 
L 581 4863 
L 1159 4863 
L 1159 2956 
Q 1366 3272 1645 3428 
Q 1925 3584 2291 3584 
Q 2894 3584 3203 3211 
Q 3513 2838 3513 2113 
z
" transform="scale(0.015625)"/>
      <path id="DejaVuSans-32" d="M 1228 531 
L 3431 531 
L 3431 0 
L 469 0 
L 469 531 
Q 828 903 1448 1529 
Q 2069 2156 2228 2338 
Q 2531 2678 2651 2914 
Q 2772 3150 2772 3378 
Q 2772 3750 2511 3984 
Q 2250 4219 1831 4219 
Q 1534 4219 1204 4116 
Q 875 4013 500 3803 
L 500 4441 
Q 881 4594 1212 4672 
Q 1544 4750 1819 4750 
Q 2544 4750 2975 4387 
Q 3406 4025 3406 3419 
Q 3406 3131 3298 2873 
Q 3191 2616 2906 2266 
Q 2828 2175 2409 1742 
Q 1991 1309 1228 531 
z
" transform="scale(0.015625)"/>
      <path id="DejaVuSans-37" d="M 525 4666 
L 3525 4666 
L 3525 4397 
L 1831 0 
L 1172 0 
L 2766 4134 
L 525 4134 
L 525 4666 
z
" transform="scale(0.015625)"/>
     </defs>
     <use xlink:href="#DejaVuSans-43"/>
     <use xlink:href="#DejaVuSans-6f" transform="translate(69.824219 0)"/>
     <use xlink:href="#DejaVuSans-6d" transform="translate(131.005859 0)"/>
     <use xlink:href="#DejaVuSans-70" transform="translate(228.417969 0)"/>
     <use xlink:href="#DejaVuSans-61" transform="translate(291.894531 0)"/>
     <use xlink:href="#DejaVuSans-72" transform="translate(353.173828 0)"/>
     <use xlink:href="#DejaVuSans-65" transform="translate(392.037109 0)"/>
     <use xlink:href="#DejaVuSans-20" transform="translate(453.560547 0)"/>
     <use xlink:href="#DejaVuSans-2d" transform="translate(485.347656 0)"/>
     <use xlink:href="#DejaVuSans-20" transform="translate(521.431641 0)"/>
     <use xlink:href="#DejaVuSans-45" transform="translate(553.21875 0)"/>
     <use xlink:href="#DejaVuSans-70" transform="translate(616.402344 0)"/>
     <use xlink:href="#DejaVuSans-6f" transform="translate(679.878906 0)"/>
     <use xlink:href="#DejaVuSans-63" transform="translate(741.060547 0)"/>
     <use xlink:href="#DejaVuSans-68" transform="translate(796.041016 0)"/>
     <use xlink:href="#DejaVuSans-20" transform="translate(859.419922 0)"/>
     <use xlink:href="#DejaVuSans-32" transform="translate(891.207031 0)"/>
     <use xlink:href="#DejaVuSans-37" transform="translate(954.830078 0)"/>
     <use xlink:href="#DejaVuSans-30" transform="translate(1018.453125 0)"/>
     <use xlink:href="#DejaVuSans-30" transform="translate(1082.076172 0)"/>
    </g>
   </g>
   <g id="legend_1">
    <g id="patch_7">
     <path d="M 64.6 78.82825 
L 181.128125 78.82825 
Q 183.128125 78.82825 183.128125 76.82825 
L 183.128125 48.472 
Q 183.128125 46.472 181.128125 46.472 
L 64.6 46.472 
Q 62.6 46.472 62.6 48.472 
L 62.6 76.82825 
Q 62.6 78.82825 64.6 78.82825 
z
" style="fill: #ffffff; opacity: 0.8; stroke: #cccccc; stroke-linejoin: miter"/>
    </g>
    <g id="line2d_23">
     <path d="M 66.6 54.570437 
L 76.6 54.570437 
L 86.6 54.570437 
" style="fill: none; stroke: #1f77b4; stroke-width: 1.5; stroke-linecap: square"/>
    </g>
    <g id="text_14">
     <!-- Pred: Sample 1 -->
     <g transform="translate(94.6 58.070437) scale(0.1 -0.1)">
      <defs>
       <path id="DejaVuSans-50" d="M 1259 4147 
L 1259 2394 
L 2053 2394 
Q 2494 2394 2734 2622 
Q 2975 2850 2975 3272 
Q 2975 3691 2734 3919 
Q 2494 4147 2053 4147 
L 1259 4147 
z
M 628 4666 
L 2053 4666 
Q 2838 4666 3239 4311 
Q 3641 3956 3641 3272 
Q 3641 2581 3239 2228 
Q 2838 1875 2053 1875 
L 1259 1875 
L 1259 0 
L 628 0 
L 628 4666 
z
" transform="scale(0.015625)"/>
       <path id="DejaVuSans-3a" d="M 750 794 
L 1409 794 
L 1409 0 
L 750 0 
L 750 794 
z
M 750 3309 
L 1409 3309 
L 1409 2516 
L 750 2516 
L 750 3309 
z
" transform="scale(0.015625)"/>
       <path id="DejaVuSans-53" d="M 3425 4513 
L 3425 3897 
Q 3066 4069 2747 4153 
Q 2428 4238 2131 4238 
Q 1616 4238 1336 4038 
Q 1056 3838 1056 3469 
Q 1056 3159 1242 3001 
Q 1428 2844 1947 2747 
L 2328 2669 
Q 3034 2534 3370 2195 
Q 3706 1856 3706 1288 
Q 3706 609 3251 259 
Q 2797 -91 1919 -91 
Q 1588 -91 1214 -16 
Q 841 59 441 206 
L 441 856 
Q 825 641 1194 531 
Q 1563 422 1919 422 
Q 2459 422 2753 634 
Q 3047 847 3047 1241 
Q 3047 1584 2836 1778 
Q 2625 1972 2144 2069 
L 1759 2144 
Q 1053 2284 737 2584 
Q 422 2884 422 3419 
Q 422 4038 858 4394 
Q 1294 4750 2059 4750 
Q 2388 4750 2728 4690 
Q 3069 4631 3425 4513 
z
" transform="scale(0.015625)"/>
      </defs>
      <use xlink:href="#DejaVuSans-50"/>
      <use xlink:href="#DejaVuSans-72" transform="translate(58.552734 0)"/>
      <use xlink:href="#DejaVuSans-65" transform="translate(97.416016 0)"/>
      <use xlink:href="#DejaVuSans-64" transform="translate(158.939453 0)"/>
      <use xlink:href="#DejaVuSans-3a" transform="translate(222.416016 0)"/>
      <use xlink:href="#DejaVuSans-20" transform="translate(256.107422 0)"/>
      <use xlink:href="#DejaVuSans-53" transform="translate(287.894531 0)"/>
      <use xlink:href="#DejaVuSans-61" transform="translate(351.371094 0)"/>
      <use xlink:href="#DejaVuSans-6d" transform="translate(412.650391 0)"/>
      <use xlink:href="#DejaVuSans-70" transform="translate(510.0625 0)"/>
      <use xlink:href="#DejaVuSans-6c" transform="translate(573.539062 0)"/>
      <use xlink:href="#DejaVuSans-65" transform="translate(601.322266 0)"/>
      <use xlink:href="#DejaVuSans-20" transform="translate(662.845703 0)"/>
      <use xlink:href="#DejaVuSans-31" transform="translate(694.632812 0)"/>
     </g>
    </g>
    <g id="line2d_24">
     <path d="M 66.6 69.248562 
L 76.6 69.248562 
L 86.6 69.248562 
" style="fill: none; stroke: #ff7f0e; stroke-opacity: 0.5; stroke-width: 1.5; stroke-linecap: square"/>
    </g>
    <g id="text_15">
     <!-- Target: Sample 1 -->
     <g transform="translate(94.6 72.748562) scale(0.1 -0.1)">
      <defs>
       <path id="DejaVuSans-54" d="M -19 4666 
L 3928 4666 
L 3928 4134 
L 2272 4134 
L 2272 0 
L 1638 0 
L 1638 4134 
L -19 4134 
L -19 4666 
z
" transform="scale(0.015625)"/>
       <path id="DejaVuSans-67" d="M 2906 1791 
Q 2906 2416 2648 2759 
Q 2391 3103 1925 3103 
Q 1463 3103 1205 2759 
Q 947 2416 947 1791 
Q 947 1169 1205 825 
Q 1463 481 1925 481 
Q 2391 481 2648 825 
Q 2906 1169 2906 1791 
z
M 3481 434 
Q 3481 -459 3084 -895 
Q 2688 -1331 1869 -1331 
Q 1566 -1331 1297 -1286 
Q 1028 -1241 775 -1147 
L 775 -588 
Q 1028 -725 1275 -790 
Q 1522 -856 1778 -856 
Q 2344 -856 2625 -561 
Q 2906 -266 2906 331 
L 2906 616 
Q 2728 306 2450 153 
Q 2172 0 1784 0 
Q 1141 0 747 490 
Q 353 981 353 1791 
Q 353 2603 747 3093 
Q 1141 3584 1784 3584 
Q 2172 3584 2450 3431 
Q 2728 3278 2906 2969 
L 2906 3500 
L 3481 3500 
L 3481 434 
z
" transform="scale(0.015625)"/>
       <path id="DejaVuSans-74" d="M 1172 4494 
L 1172 3500 
L 2356 3500 
L 2356 3053 
L 1172 3053 
L 1172 1153 
Q 1172 725 1289 603 
Q 1406 481 1766 481 
L 2356 481 
L 2356 0 
L 1766 0 
Q 1100 0 847 248 
Q 594 497 594 1153 
L 594 3053 
L 172 3053 
L 172 3500 
L 594 3500 
L 594 4494 
L 1172 4494 
z
" transform="scale(0.015625)"/>
      </defs>
      <use xlink:href="#DejaVuSans-54"/>
      <use xlink:href="#DejaVuSans-61" transform="translate(44.583984 0)"/>
      <use xlink:href="#DejaVuSans-72" transform="translate(105.863281 0)"/>
      <use xlink:href="#DejaVuSans-67" transform="translate(145.226562 0)"/>
      <use xlink:href="#DejaVuSans-65" transform="translate(208.703125 0)"/>
      <use xlink:href="#DejaVuSans-74" transform="translate(270.226562 0)"/>
      <use xlink:href="#DejaVuSans-3a" transform="translate(309.435547 0)"/>
      <use xlink:href="#DejaVuSans-20" transform="translate(343.126953 0)"/>
      <use xlink:href="#DejaVuSans-53" transform="translate(374.914062 0)"/>
      <use xlink:href="#DejaVuSans-61" transform="translate(438.390625 0)"/>
      <use xlink:href="#DejaVuSans-6d" transform="translate(499.669922 0)"/>
      <use xlink:href="#DejaVuSans-70" transform="translate(597.082031 0)"/>
      <use xlink:href="#DejaVuSans-6c" transform="translate(660.558594 0)"/>
      <use xlink:href="#DejaVuSans-65" transform="translate(688.341797 0)"/>
      <use xlink:href="#DejaVuSans-20" transform="translate(749.865234 0)"/>
      <use xlink:href="#DejaVuSans-31" transform="translate(781.652344 0)"/>
     </g>
    </g>
   </g>
  </g>
 </g>
 <defs>
  <clipPath id="p4686deff9e">
   <rect x="57.6" y="41.472" width="357.12" height="266.112"/>
  </clipPath>
 </defs>
</svg>
