<?xml version="1.0" encoding="utf-8" standalone="no"?>
<!DOCTYPE svg PUBLIC "-//W3C//DTD SVG 1.1//EN"
  "http://www.w3.org/Graphics/SVG/1.1/DTD/svg11.dtd">
<svg xmlns:xlink="http://www.w3.org/1999/xlink" width="460.8pt" height="345.6pt" viewBox="0 0 460.8 345.6" xmlns="http://www.w3.org/2000/svg" version="1.1">
 <metadata>
  <rdf:RDF xmlns:dc="http://purl.org/dc/elements/1.1/" xmlns:cc="http://creativecommons.org/ns#" xmlns:rdf="http://www.w3.org/1999/02/22-rdf-syntax-ns#">
   <cc:Work>
    <dc:type rdf:resource="http://purl.org/dc/dcmitype/StillImage"/>
    <dc:date>2025-06-03T10:15:55.366808</dc:date>
    <dc:format>image/svg+xml</dc:format>
    <dc:creator>
     <cc:Agent>
      <dc:title>Matplotlib v3.10.3, https://matplotlib.org/</dc:title>
     </cc:Agent>
    </dc:creator>
   </cc:Work>
  </rdf:RDF>
 </metadata>
 <defs>
  <style type="text/css">*{stroke-linejoin: round; stroke-linecap: butt}</style>
 </defs>
 <g id="figure_1">
  <g id="patch_1">
   <path d="M 0 345.6 
L 460.8 345.6 
L 460.8 0 
L 0 0 
z
" style="fill: #ffffff"/>
  </g>
  <g id="axes_1">
   <g id="patch_2">
    <path d="M 57.6 307.584 
L 414.72 307.584 
L 414.72 41.472 
L 57.6 41.472 
z
" style="fill: #ffffff"/>
   </g>
   <g id="matplotlib.axis_1">
    <g id="xtick_1">
     <g id="line2d_1">
      <path d="M 76.050365 307.584 
L 76.050365 41.472 
" clip-path="url(#p372ca91ec2)" style="fill: none; stroke: #b0b0b0; stroke-opacity: 0.5; stroke-width: 0.8; stroke-linecap: square"/>
     </g>
     <g id="line2d_2">
      <defs>
       <path id="m14d3449de6" d="M 0 0 
L 0 3.5 
" style="stroke: #000000; stroke-width: 0.8"/>
      </defs>
      <g>
       <use xlink:href="#m14d3449de6" x="76.050365" y="307.584" style="stroke: #000000; stroke-width: 0.8"/>
      </g>
     </g>
     <g id="text_1">
      <!-- −1.00 -->
      <g transform="translate(60.727708 322.182437) scale(0.1 -0.1)">
       <defs>
        <path id="DejaVuSans-2212" d="M 678 2272 
L 4684 2272 
L 4684 1741 
L 678 1741 
L 678 2272 
z
" transform="scale(0.015625)"/>
        <path id="DejaVuSans-31" d="M 794 531 
L 1825 531 
L 1825 4091 
L 703 3866 
L 703 4441 
L 1819 4666 
L 2450 4666 
L 2450 531 
L 3481 531 
L 3481 0 
L 794 0 
L 794 531 
z
" transform="scale(0.015625)"/>
        <path id="DejaVuSans-2e" d="M 684 794 
L 1344 794 
L 1344 0 
L 684 0 
L 684 794 
z
" transform="scale(0.015625)"/>
        <path id="DejaVuSans-30" d="M 2034 4250 
Q 1547 4250 1301 3770 
Q 1056 3291 1056 2328 
Q 1056 1369 1301 889 
Q 1547 409 2034 409 
Q 2525 409 2770 889 
Q 3016 1369 3016 2328 
Q 3016 3291 2770 3770 
Q 2525 4250 2034 4250 
z
M 2034 4750 
Q 2819 4750 3233 4129 
Q 3647 3509 3647 2328 
Q 3647 1150 3233 529 
Q 2819 -91 2034 -91 
Q 1250 -91 836 529 
Q 422 1150 422 2328 
Q 422 3509 836 4129 
Q 1250 4750 2034 4750 
z
" transform="scale(0.015625)"/>
       </defs>
       <use xlink:href="#DejaVuSans-2212"/>
       <use xlink:href="#DejaVuSans-31" transform="translate(83.789062 0)"/>
       <use xlink:href="#DejaVuSans-2e" transform="translate(147.412109 0)"/>
       <use xlink:href="#DejaVuSans-30" transform="translate(179.199219 0)"/>
       <use xlink:href="#DejaVuSans-30" transform="translate(242.822266 0)"/>
      </g>
     </g>
    </g>
    <g id="xtick_2">
     <g id="line2d_3">
      <path d="M 117.665336 307.584 
L 117.665336 41.472 
" clip-path="url(#p372ca91ec2)" style="fill: none; stroke: #b0b0b0; stroke-opacity: 0.5; stroke-width: 0.8; stroke-linecap: square"/>
     </g>
     <g id="line2d_4">
      <g>
       <use xlink:href="#m14d3449de6" x="117.665336" y="307.584" style="stroke: #000000; stroke-width: 0.8"/>
      </g>
     </g>
     <g id="text_2">
      <!-- −0.75 -->
      <g transform="translate(102.342679 322.182437) scale(0.1 -0.1)">
       <defs>
        <path id="DejaVuSans-37" d="M 525 4666 
L 3525 4666 
L 3525 4397 
L 1831 0 
L 1172 0 
L 2766 4134 
L 525 4134 
L 525 4666 
z
" transform="scale(0.015625)"/>
        <path id="DejaVuSans-35" d="M 691 4666 
L 3169 4666 
L 3169 4134 
L 1269 4134 
L 1269 2991 
Q 1406 3038 1543 3061 
Q 1681 3084 1819 3084 
Q 2600 3084 3056 2656 
Q 3513 2228 3513 1497 
Q 3513 744 3044 326 
Q 2575 -91 1722 -91 
Q 1428 -91 1123 -41 
Q 819 9 494 109 
L 494 744 
Q 775 591 1075 516 
Q 1375 441 1709 441 
Q 2250 441 2565 725 
Q 2881 1009 2881 1497 
Q 2881 1984 2565 2268 
Q 2250 2553 1709 2553 
Q 1456 2553 1204 2497 
Q 953 2441 691 2322 
L 691 4666 
z
" transform="scale(0.015625)"/>
       </defs>
       <use xlink:href="#DejaVuSans-2212"/>
       <use xlink:href="#DejaVuSans-30" transform="translate(83.789062 0)"/>
       <use xlink:href="#DejaVuSans-2e" transform="translate(147.412109 0)"/>
       <use xlink:href="#DejaVuSans-37" transform="translate(179.199219 0)"/>
       <use xlink:href="#DejaVuSans-35" transform="translate(242.822266 0)"/>
      </g>
     </g>
    </g>
    <g id="xtick_3">
     <g id="line2d_5">
      <path d="M 159.280306 307.584 
L 159.280306 41.472 
" clip-path="url(#p372ca91ec2)" style="fill: none; stroke: #b0b0b0; stroke-opacity: 0.5; stroke-width: 0.8; stroke-linecap: square"/>
     </g>
     <g id="line2d_6">
      <g>
       <use xlink:href="#m14d3449de6" x="159.280306" y="307.584" style="stroke: #000000; stroke-width: 0.8"/>
      </g>
     </g>
     <g id="text_3">
      <!-- −0.50 -->
      <g transform="translate(143.95765 322.182437) scale(0.1 -0.1)">
       <use xlink:href="#DejaVuSans-2212"/>
       <use xlink:href="#DejaVuSans-30" transform="translate(83.789062 0)"/>
       <use xlink:href="#DejaVuSans-2e" transform="translate(147.412109 0)"/>
       <use xlink:href="#DejaVuSans-35" transform="translate(179.199219 0)"/>
       <use xlink:href="#DejaVuSans-30" transform="translate(242.822266 0)"/>
      </g>
     </g>
    </g>
    <g id="xtick_4">
     <g id="line2d_7">
      <path d="M 200.895277 307.584 
L 200.895277 41.472 
" clip-path="url(#p372ca91ec2)" style="fill: none; stroke: #b0b0b0; stroke-opacity: 0.5; stroke-width: 0.8; stroke-linecap: square"/>
     </g>
     <g id="line2d_8">
      <g>
       <use xlink:href="#m14d3449de6" x="200.895277" y="307.584" style="stroke: #000000; stroke-width: 0.8"/>
      </g>
     </g>
     <g id="text_4">
      <!-- −0.25 -->
      <g transform="translate(185.572621 322.182437) scale(0.1 -0.1)">
       <defs>
        <path id="DejaVuSans-32" d="M 1228 531 
L 3431 531 
L 3431 0 
L 469 0 
L 469 531 
Q 828 903 1448 1529 
Q 2069 2156 2228 2338 
Q 2531 2678 2651 2914 
Q 2772 3150 2772 3378 
Q 2772 3750 2511 3984 
Q 2250 4219 1831 4219 
Q 1534 4219 1204 4116 
Q 875 4013 500 3803 
L 500 4441 
Q 881 4594 1212 4672 
Q 1544 4750 1819 4750 
Q 2544 4750 2975 4387 
Q 3406 4025 3406 3419 
Q 3406 3131 3298 2873 
Q 3191 2616 2906 2266 
Q 2828 2175 2409 1742 
Q 1991 1309 1228 531 
z
" transform="scale(0.015625)"/>
       </defs>
       <use xlink:href="#DejaVuSans-2212"/>
       <use xlink:href="#DejaVuSans-30" transform="translate(83.789062 0)"/>
       <use xlink:href="#DejaVuSans-2e" transform="translate(147.412109 0)"/>
       <use xlink:href="#DejaVuSans-32" transform="translate(179.199219 0)"/>
       <use xlink:href="#DejaVuSans-35" transform="translate(242.822266 0)"/>
      </g>
     </g>
    </g>
    <g id="xtick_5">
     <g id="line2d_9">
      <path d="M 242.510248 307.584 
L 242.510248 41.472 
" clip-path="url(#p372ca91ec2)" style="fill: none; stroke: #b0b0b0; stroke-opacity: 0.5; stroke-width: 0.8; stroke-linecap: square"/>
     </g>
     <g id="line2d_10">
      <g>
       <use xlink:href="#m14d3449de6" x="242.510248" y="307.584" style="stroke: #000000; stroke-width: 0.8"/>
      </g>
     </g>
     <g id="text_5">
      <!-- 0.00 -->
      <g transform="translate(231.377436 322.182437) scale(0.1 -0.1)">
       <use xlink:href="#DejaVuSans-30"/>
       <use xlink:href="#DejaVuSans-2e" transform="translate(63.623047 0)"/>
       <use xlink:href="#DejaVuSans-30" transform="translate(95.410156 0)"/>
       <use xlink:href="#DejaVuSans-30" transform="translate(159.033203 0)"/>
      </g>
     </g>
    </g>
    <g id="xtick_6">
     <g id="line2d_11">
      <path d="M 284.125219 307.584 
L 284.125219 41.472 
" clip-path="url(#p372ca91ec2)" style="fill: none; stroke: #b0b0b0; stroke-opacity: 0.5; stroke-width: 0.8; stroke-linecap: square"/>
     </g>
     <g id="line2d_12">
      <g>
       <use xlink:href="#m14d3449de6" x="284.125219" y="307.584" style="stroke: #000000; stroke-width: 0.8"/>
      </g>
     </g>
     <g id="text_6">
      <!-- 0.25 -->
      <g transform="translate(272.992407 322.182437) scale(0.1 -0.1)">
       <use xlink:href="#DejaVuSans-30"/>
       <use xlink:href="#DejaVuSans-2e" transform="translate(63.623047 0)"/>
       <use xlink:href="#DejaVuSans-32" transform="translate(95.410156 0)"/>
       <use xlink:href="#DejaVuSans-35" transform="translate(159.033203 0)"/>
      </g>
     </g>
    </g>
    <g id="xtick_7">
     <g id="line2d_13">
      <path d="M 325.74019 307.584 
L 325.74019 41.472 
" clip-path="url(#p372ca91ec2)" style="fill: none; stroke: #b0b0b0; stroke-opacity: 0.5; stroke-width: 0.8; stroke-linecap: square"/>
     </g>
     <g id="line2d_14">
      <g>
       <use xlink:href="#m14d3449de6" x="325.74019" y="307.584" style="stroke: #000000; stroke-width: 0.8"/>
      </g>
     </g>
     <g id="text_7">
      <!-- 0.50 -->
      <g transform="translate(314.607377 322.182437) scale(0.1 -0.1)">
       <use xlink:href="#DejaVuSans-30"/>
       <use xlink:href="#DejaVuSans-2e" transform="translate(63.623047 0)"/>
       <use xlink:href="#DejaVuSans-35" transform="translate(95.410156 0)"/>
       <use xlink:href="#DejaVuSans-30" transform="translate(159.033203 0)"/>
      </g>
     </g>
    </g>
    <g id="xtick_8">
     <g id="line2d_15">
      <path d="M 367.355161 307.584 
L 367.355161 41.472 
" clip-path="url(#p372ca91ec2)" style="fill: none; stroke: #b0b0b0; stroke-opacity: 0.5; stroke-width: 0.8; stroke-linecap: square"/>
     </g>
     <g id="line2d_16">
      <g>
       <use xlink:href="#m14d3449de6" x="367.355161" y="307.584" style="stroke: #000000; stroke-width: 0.8"/>
      </g>
     </g>
     <g id="text_8">
      <!-- 0.75 -->
      <g transform="translate(356.222348 322.182437) scale(0.1 -0.1)">
       <use xlink:href="#DejaVuSans-30"/>
       <use xlink:href="#DejaVuSans-2e" transform="translate(63.623047 0)"/>
       <use xlink:href="#DejaVuSans-37" transform="translate(95.410156 0)"/>
       <use xlink:href="#DejaVuSans-35" transform="translate(159.033203 0)"/>
      </g>
     </g>
    </g>
    <g id="xtick_9">
     <g id="line2d_17">
      <path d="M 408.970132 307.584 
L 408.970132 41.472 
" clip-path="url(#p372ca91ec2)" style="fill: none; stroke: #b0b0b0; stroke-opacity: 0.5; stroke-width: 0.8; stroke-linecap: square"/>
     </g>
     <g id="line2d_18">
      <g>
       <use xlink:href="#m14d3449de6" x="408.970132" y="307.584" style="stroke: #000000; stroke-width: 0.8"/>
      </g>
     </g>
     <g id="text_9">
      <!-- 1.00 -->
      <g transform="translate(397.837319 322.182437) scale(0.1 -0.1)">
       <use xlink:href="#DejaVuSans-31"/>
       <use xlink:href="#DejaVuSans-2e" transform="translate(63.623047 0)"/>
       <use xlink:href="#DejaVuSans-30" transform="translate(95.410156 0)"/>
       <use xlink:href="#DejaVuSans-30" transform="translate(159.033203 0)"/>
      </g>
     </g>
    </g>
    <g id="text_10">
     <!-- Index -->
     <g transform="translate(222.393594 335.860562) scale(0.1 -0.1)">
      <defs>
       <path id="DejaVuSans-49" d="M 628 4666 
L 1259 4666 
L 1259 0 
L 628 0 
L 628 4666 
z
" transform="scale(0.015625)"/>
       <path id="DejaVuSans-6e" d="M 3513 2113 
L 3513 0 
L 2938 0 
L 2938 2094 
Q 2938 2591 2744 2837 
Q 2550 3084 2163 3084 
Q 1697 3084 1428 2787 
Q 1159 2491 1159 1978 
L 1159 0 
L 581 0 
L 581 3500 
L 1159 3500 
L 1159 2956 
Q 1366 3272 1645 3428 
Q 1925 3584 2291 3584 
Q 2894 3584 3203 3211 
Q 3513 2838 3513 2113 
z
" transform="scale(0.015625)"/>
       <path id="DejaVuSans-64" d="M 2906 2969 
L 2906 4863 
L 3481 4863 
L 3481 0 
L 2906 0 
L 2906 525 
Q 2725 213 2448 61 
Q 2172 -91 1784 -91 
Q 1150 -91 751 415 
Q 353 922 353 1747 
Q 353 2572 751 3078 
Q 1150 3584 1784 3584 
Q 2172 3584 2448 3432 
Q 2725 3281 2906 2969 
z
M 947 1747 
Q 947 1113 1208 752 
Q 1469 391 1925 391 
Q 2381 391 2643 752 
Q 2906 1113 2906 1747 
Q 2906 2381 2643 2742 
Q 2381 3103 1925 3103 
Q 1469 3103 1208 2742 
Q 947 2381 947 1747 
z
" transform="scale(0.015625)"/>
       <path id="DejaVuSans-65" d="M 3597 1894 
L 3597 1613 
L 953 1613 
Q 991 1019 1311 708 
Q 1631 397 2203 397 
Q 2534 397 2845 478 
Q 3156 559 3463 722 
L 3463 178 
Q 3153 47 2828 -22 
Q 2503 -91 2169 -91 
Q 1331 -91 842 396 
Q 353 884 353 1716 
Q 353 2575 817 3079 
Q 1281 3584 2069 3584 
Q 2775 3584 3186 3129 
Q 3597 2675 3597 1894 
z
M 3022 2063 
Q 3016 2534 2758 2815 
Q 2500 3097 2075 3097 
Q 1594 3097 1305 2825 
Q 1016 2553 972 2059 
L 3022 2063 
z
" transform="scale(0.015625)"/>
       <path id="DejaVuSans-78" d="M 3513 3500 
L 2247 1797 
L 3578 0 
L 2900 0 
L 1881 1375 
L 863 0 
L 184 0 
L 1544 1831 
L 300 3500 
L 978 3500 
L 1906 2253 
L 2834 3500 
L 3513 3500 
z
" transform="scale(0.015625)"/>
      </defs>
      <use xlink:href="#DejaVuSans-49"/>
      <use xlink:href="#DejaVuSans-6e" transform="translate(29.492188 0)"/>
      <use xlink:href="#DejaVuSans-64" transform="translate(92.871094 0)"/>
      <use xlink:href="#DejaVuSans-65" transform="translate(156.347656 0)"/>
      <use xlink:href="#DejaVuSans-78" transform="translate(216.121094 0)"/>
     </g>
    </g>
   </g>
   <g id="matplotlib.axis_2">
    <g id="ytick_1">
     <g id="line2d_19">
      <path d="M 57.6 295.488066 
L 414.72 295.488066 
" clip-path="url(#p372ca91ec2)" style="fill: none; stroke: #b0b0b0; stroke-opacity: 0.5; stroke-width: 0.8; stroke-linecap: square"/>
     </g>
     <g id="line2d_20">
      <defs>
       <path id="m4beee097c0" d="M 0 0 
L -3.5 0 
" style="stroke: #000000; stroke-width: 0.8"/>
      </defs>
      <g>
       <use xlink:href="#m4beee097c0" x="57.6" y="295.488066" style="stroke: #000000; stroke-width: 0.8"/>
      </g>
     </g>
     <g id="text_11">
      <!-- −1.00 -->
      <g transform="translate(19.954687 299.287284) scale(0.1 -0.1)">
       <use xlink:href="#DejaVuSans-2212"/>
       <use xlink:href="#DejaVuSans-31" transform="translate(83.789062 0)"/>
       <use xlink:href="#DejaVuSans-2e" transform="translate(147.412109 0)"/>
       <use xlink:href="#DejaVuSans-30" transform="translate(179.199219 0)"/>
       <use xlink:href="#DejaVuSans-30" transform="translate(242.822266 0)"/>
      </g>
     </g>
    </g>
    <g id="ytick_2">
     <g id="line2d_21">
      <path d="M 57.6 264.865381 
L 414.72 264.865381 
" clip-path="url(#p372ca91ec2)" style="fill: none; stroke: #b0b0b0; stroke-opacity: 0.5; stroke-width: 0.8; stroke-linecap: square"/>
     </g>
     <g id="line2d_22">
      <g>
       <use xlink:href="#m4beee097c0" x="57.6" y="264.865381" style="stroke: #000000; stroke-width: 0.8"/>
      </g>
     </g>
     <g id="text_12">
      <!-- −0.75 -->
      <g transform="translate(19.954687 268.6646) scale(0.1 -0.1)">
       <use xlink:href="#DejaVuSans-2212"/>
       <use xlink:href="#DejaVuSans-30" transform="translate(83.789062 0)"/>
       <use xlink:href="#DejaVuSans-2e" transform="translate(147.412109 0)"/>
       <use xlink:href="#DejaVuSans-37" transform="translate(179.199219 0)"/>
       <use xlink:href="#DejaVuSans-35" transform="translate(242.822266 0)"/>
      </g>
     </g>
    </g>
    <g id="ytick_3">
     <g id="line2d_23">
      <path d="M 57.6 234.242696 
L 414.72 234.242696 
" clip-path="url(#p372ca91ec2)" style="fill: none; stroke: #b0b0b0; stroke-opacity: 0.5; stroke-width: 0.8; stroke-linecap: square"/>
     </g>
     <g id="line2d_24">
      <g>
       <use xlink:href="#m4beee097c0" x="57.6" y="234.242696" style="stroke: #000000; stroke-width: 0.8"/>
      </g>
     </g>
     <g id="text_13">
      <!-- −0.50 -->
      <g transform="translate(19.954687 238.041915) scale(0.1 -0.1)">
       <use xlink:href="#DejaVuSans-2212"/>
       <use xlink:href="#DejaVuSans-30" transform="translate(83.789062 0)"/>
       <use xlink:href="#DejaVuSans-2e" transform="translate(147.412109 0)"/>
       <use xlink:href="#DejaVuSans-35" transform="translate(179.199219 0)"/>
       <use xlink:href="#DejaVuSans-30" transform="translate(242.822266 0)"/>
      </g>
     </g>
    </g>
    <g id="ytick_4">
     <g id="line2d_25">
      <path d="M 57.6 203.620012 
L 414.72 203.620012 
" clip-path="url(#p372ca91ec2)" style="fill: none; stroke: #b0b0b0; stroke-opacity: 0.5; stroke-width: 0.8; stroke-linecap: square"/>
     </g>
     <g id="line2d_26">
      <g>
       <use xlink:href="#m4beee097c0" x="57.6" y="203.620012" style="stroke: #000000; stroke-width: 0.8"/>
      </g>
     </g>
     <g id="text_14">
      <!-- −0.25 -->
      <g transform="translate(19.954687 207.419231) scale(0.1 -0.1)">
       <use xlink:href="#DejaVuSans-2212"/>
       <use xlink:href="#DejaVuSans-30" transform="translate(83.789062 0)"/>
       <use xlink:href="#DejaVuSans-2e" transform="translate(147.412109 0)"/>
       <use xlink:href="#DejaVuSans-32" transform="translate(179.199219 0)"/>
       <use xlink:href="#DejaVuSans-35" transform="translate(242.822266 0)"/>
      </g>
     </g>
    </g>
    <g id="ytick_5">
     <g id="line2d_27">
      <path d="M 57.6 172.997327 
L 414.72 172.997327 
" clip-path="url(#p372ca91ec2)" style="fill: none; stroke: #b0b0b0; stroke-opacity: 0.5; stroke-width: 0.8; stroke-linecap: square"/>
     </g>
     <g id="line2d_28">
      <g>
       <use xlink:href="#m4beee097c0" x="57.6" y="172.997327" style="stroke: #000000; stroke-width: 0.8"/>
      </g>
     </g>
     <g id="text_15">
      <!-- 0.00 -->
      <g transform="translate(28.334375 176.796546) scale(0.1 -0.1)">
       <use xlink:href="#DejaVuSans-30"/>
       <use xlink:href="#DejaVuSans-2e" transform="translate(63.623047 0)"/>
       <use xlink:href="#DejaVuSans-30" transform="translate(95.410156 0)"/>
       <use xlink:href="#DejaVuSans-30" transform="translate(159.033203 0)"/>
      </g>
     </g>
    </g>
    <g id="ytick_6">
     <g id="line2d_29">
      <path d="M 57.6 142.374643 
L 414.72 142.374643 
" clip-path="url(#p372ca91ec2)" style="fill: none; stroke: #b0b0b0; stroke-opacity: 0.5; stroke-width: 0.8; stroke-linecap: square"/>
     </g>
     <g id="line2d_30">
      <g>
       <use xlink:href="#m4beee097c0" x="57.6" y="142.374643" style="stroke: #000000; stroke-width: 0.8"/>
      </g>
     </g>
     <g id="text_16">
      <!-- 0.25 -->
      <g transform="translate(28.334375 146.173861) scale(0.1 -0.1)">
       <use xlink:href="#DejaVuSans-30"/>
       <use xlink:href="#DejaVuSans-2e" transform="translate(63.623047 0)"/>
       <use xlink:href="#DejaVuSans-32" transform="translate(95.410156 0)"/>
       <use xlink:href="#DejaVuSans-35" transform="translate(159.033203 0)"/>
      </g>
     </g>
    </g>
    <g id="ytick_7">
     <g id="line2d_31">
      <path d="M 57.6 111.751958 
L 414.72 111.751958 
" clip-path="url(#p372ca91ec2)" style="fill: none; stroke: #b0b0b0; stroke-opacity: 0.5; stroke-width: 0.8; stroke-linecap: square"/>
     </g>
     <g id="line2d_32">
      <g>
       <use xlink:href="#m4beee097c0" x="57.6" y="111.751958" style="stroke: #000000; stroke-width: 0.8"/>
      </g>
     </g>
     <g id="text_17">
      <!-- 0.50 -->
      <g transform="translate(28.334375 115.551177) scale(0.1 -0.1)">
       <use xlink:href="#DejaVuSans-30"/>
       <use xlink:href="#DejaVuSans-2e" transform="translate(63.623047 0)"/>
       <use xlink:href="#DejaVuSans-35" transform="translate(95.410156 0)"/>
       <use xlink:href="#DejaVuSans-30" transform="translate(159.033203 0)"/>
      </g>
     </g>
    </g>
    <g id="ytick_8">
     <g id="line2d_33">
      <path d="M 57.6 81.129273 
L 414.72 81.129273 
" clip-path="url(#p372ca91ec2)" style="fill: none; stroke: #b0b0b0; stroke-opacity: 0.5; stroke-width: 0.8; stroke-linecap: square"/>
     </g>
     <g id="line2d_34">
      <g>
       <use xlink:href="#m4beee097c0" x="57.6" y="81.129273" style="stroke: #000000; stroke-width: 0.8"/>
      </g>
     </g>
     <g id="text_18">
      <!-- 0.75 -->
      <g transform="translate(28.334375 84.928492) scale(0.1 -0.1)">
       <use xlink:href="#DejaVuSans-30"/>
       <use xlink:href="#DejaVuSans-2e" transform="translate(63.623047 0)"/>
       <use xlink:href="#DejaVuSans-37" transform="translate(95.410156 0)"/>
       <use xlink:href="#DejaVuSans-35" transform="translate(159.033203 0)"/>
      </g>
     </g>
    </g>
    <g id="ytick_9">
     <g id="line2d_35">
      <path d="M 57.6 50.506589 
L 414.72 50.506589 
" clip-path="url(#p372ca91ec2)" style="fill: none; stroke: #b0b0b0; stroke-opacity: 0.5; stroke-width: 0.8; stroke-linecap: square"/>
     </g>
     <g id="line2d_36">
      <g>
       <use xlink:href="#m4beee097c0" x="57.6" y="50.506589" style="stroke: #000000; stroke-width: 0.8"/>
      </g>
     </g>
     <g id="text_19">
      <!-- 1.00 -->
      <g transform="translate(28.334375 54.305807) scale(0.1 -0.1)">
       <use xlink:href="#DejaVuSans-31"/>
       <use xlink:href="#DejaVuSans-2e" transform="translate(63.623047 0)"/>
       <use xlink:href="#DejaVuSans-30" transform="translate(95.410156 0)"/>
       <use xlink:href="#DejaVuSans-30" transform="translate(159.033203 0)"/>
      </g>
     </g>
    </g>
    <g id="text_20">
     <!-- Value -->
     <g transform="translate(13.875 188.25925) rotate(-90) scale(0.1 -0.1)">
      <defs>
       <path id="DejaVuSans-56" d="M 1831 0 
L 50 4666 
L 709 4666 
L 2188 738 
L 3669 4666 
L 4325 4666 
L 2547 0 
L 1831 0 
z
" transform="scale(0.015625)"/>
       <path id="DejaVuSans-61" d="M 2194 1759 
Q 1497 1759 1228 1600 
Q 959 1441 959 1056 
Q 959 750 1161 570 
Q 1363 391 1709 391 
Q 2188 391 2477 730 
Q 2766 1069 2766 1631 
L 2766 1759 
L 2194 1759 
z
M 3341 1997 
L 3341 0 
L 2766 0 
L 2766 531 
Q 2569 213 2275 61 
Q 1981 -91 1556 -91 
Q 1019 -91 701 211 
Q 384 513 384 1019 
Q 384 1609 779 1909 
Q 1175 2209 1959 2209 
L 2766 2209 
L 2766 2266 
Q 2766 2663 2505 2880 
Q 2244 3097 1772 3097 
Q 1472 3097 1187 3025 
Q 903 2953 641 2809 
L 641 3341 
Q 956 3463 1253 3523 
Q 1550 3584 1831 3584 
Q 2591 3584 2966 3190 
Q 3341 2797 3341 1997 
z
" transform="scale(0.015625)"/>
       <path id="DejaVuSans-6c" d="M 603 4863 
L 1178 4863 
L 1178 0 
L 603 0 
L 603 4863 
z
" transform="scale(0.015625)"/>
       <path id="DejaVuSans-75" d="M 544 1381 
L 544 3500 
L 1119 3500 
L 1119 1403 
Q 1119 906 1312 657 
Q 1506 409 1894 409 
Q 2359 409 2629 706 
Q 2900 1003 2900 1516 
L 2900 3500 
L 3475 3500 
L 3475 0 
L 2900 0 
L 2900 538 
Q 2691 219 2414 64 
Q 2138 -91 1772 -91 
Q 1169 -91 856 284 
Q 544 659 544 1381 
z
M 1991 3584 
L 1991 3584 
z
" transform="scale(0.015625)"/>
      </defs>
      <use xlink:href="#DejaVuSans-56"/>
      <use xlink:href="#DejaVuSans-61" transform="translate(60.658203 0)"/>
      <use xlink:href="#DejaVuSans-6c" transform="translate(121.9375 0)"/>
      <use xlink:href="#DejaVuSans-75" transform="translate(149.720703 0)"/>
      <use xlink:href="#DejaVuSans-65" transform="translate(213.099609 0)"/>
     </g>
    </g>
   </g>
   <g id="line2d_37">
    <path d="M 213.92599 173.293459 
L 268.940398 172.999597 
L 236.180657 172.706119 
L 242.0534 172.413127 
L 241.784996 172.12055 
L 244.891277 169.774909 
L 249.981489 165.955442 
L 252.731638 163.887941 
L 255.559535 161.817 
L 258.824347 159.142658 
L 263.470261 155.266006 
L 265.591022 153.478754 
L 267.715841 151.690875 
L 269.910609 149.910134 
L 280.500058 141.349299 
L 282.761073 139.59286 
L 287.279969 136.098816 
L 294.477736 130.593499 
L 298.688014 127.403188 
L 316.902035 113.94679 
L 319.520413 111.892214 
L 322.417484 109.550117 
L 327.091249 105.763043 
L 329.612096 103.732017 
L 331.438002 102.288489 
L 333.188343 100.84291 
L 334.98104 99.405573 
L 336.748378 97.967207 
L 338.137288 96.821232 
L 342.603519 93.67407 
L 344.712096 92.242713 
L 346.768782 90.814131 
L 348.924865 89.381226 
L 350.489887 88.234959 
L 353.128585 86.514138 
L 355.133063 85.078123 
L 357.352625 83.639363 
L 359.321881 82.198047 
L 361.938781 80.466713 
L 364.338651 78.738709 
L 365.569706 77.870888 
L 367.680407 76.136728 
L 369.416967 74.983912 
L 371.946982 72.967014 
L 373.263195 72.104318 
L 374.195833 71.234804 
L 374.841979 70.660973 
L 378.006541 68.366256 
L 378.611135 67.794039 
L 379.482347 67.228728 
L 380.952199 66.375648 
L 381.593037 65.798189 
L 382.334165 64.938786 
L 383.198213 64.377703 
L 385.202006 63.24479 
L 385.705805 62.66671 
L 386.117182 62.096121 
L 386.951246 61.53898 
L 389.25689 60.415062 
L 389.701088 59.835193 
L 389.917433 59.263538 
L 390.194826 58.985406 
L 390.659026 58.711778 
L 393.468518 57.598526 
L 393.764733 57.305756 
L 393.78538 57.0107 
L 393.512759 56.433751 
L 393.590427 56.15924 
L 394.060957 55.893688 
L 396.245367 55.365788 
L 398.439936 54.792235 
L 398.487273 54.483548 
L 397.412664 54.175313 
L 394.968404 53.893611 
L 390.967286 53.676019 
L 385.444564 53.568 
L 378.858088 53.617727 
L 374.653376 53.869634 
L 375.595995 54.357824 
L 376.785686 55.100644 
L 374.876695 56.097043 
L 371.344789 57.325337 
L 368.14558 58.744669 
L 366.028599 60.299304 
L 365.023125 61.92378 
L 364.912527 63.550323 
L 365.481353 65.116413 
L 367.445677 67.883484 
L 367.884141 69.041746 
L 367.522422 70.058938 
L 366.324814 70.968908 
L 364.312785 71.821163 
L 361.42009 72.673265 
L 354.136539 74.590081 
L 350.624675 75.724922 
L 347.623236 76.987144 
L 345.379018 78.353967 
L 344.094386 79.782798 
L 343.745139 81.220222 
L 344.100875 82.613066 
L 344.724796 83.919605 
L 345.039902 85.118396 
L 344.576336 86.212453 
L 343.147758 87.228302 
L 340.832143 88.208967 
L 331.309911 91.400176 
L 328.573861 92.637443 
L 326.504465 93.954875 
L 325.356425 95.319026 
L 324.991244 96.687456 
L 325.322781 99.282369 
L 325.159369 100.466353 
L 324.325096 101.57794 
L 322.761988 102.641216 
L 320.583998 103.690219 
L 315.45782 105.877742 
L 313.094035 107.057346 
L 311.143165 108.296576 
L 309.701708 109.579241 
L 308.753414 110.880238 
L 307.130875 114.64987 
L 306.245009 115.821037 
L 304.963611 116.956232 
L 303.319899 118.072204 
L 295.693144 122.676623 
L 294.131257 123.898021 
L 292.804506 125.137723 
L 290.664834 127.622569 
L 288.643212 130.048522 
L 287.483752 131.229699 
L 284.715793 133.547049 
L 281.425859 135.856904 
L 277.892772 138.215184 
L 274.681101 140.635427 
L 271.952333 143.081658 
L 268.20694 146.683988 
L 265.287217 149.018062 
L 256.797059 154.917908 
L 253.974332 157.349671 
L 250.163812 160.951383 
L 247.213669 163.29546 
L 238.972766 169.212154 
L 236.186352 171.627876 
L 232.119076 175.209239 
L 228.998443 177.56297 
L 222.480298 182.29776 
L 202.694106 197.722373 
L 190.41982 207.195083 
L 185.941137 210.715673 
L 177.926813 216.602275 
L 175.260909 218.977796 
L 171.325459 222.501332 
L 166.853533 225.997943 
L 163.872574 228.354766 
L 161.16544 230.729389 
L 157.292735 234.265227 
L 154.427374 236.596252 
L 148.464691 241.298976 
L 140.400891 248.371858 
L 134.44934 253.079941 
L 127.565974 258.98282 
L 117.189586 266.052811 
L 111.058252 270.757521 
L 107.49914 273.074323 
L 103.778105 275.421498 
L 100.43751 277.811362 
L 94.715469 282.518306 
L 93.003099 283.66044 
L 85.068134 288.340655 
L 83.555201 289.558406 
L 82.592173 290.765512 
L 82.328868 291.924819 
L 82.927459 292.990388 
L 84.409466 293.913937 
L 86.514759 294.65153 
L 89.116389 295.169603 
L 93.734513 295.449137 
L 99.42021 295.488 
L 100.644478 295.30043 
L 95.851523 294.373872 
L 95.163706 293.023936 
L 93.684586 292.326039 
L 90.796673 291.684696 
L 86.807551 291.14518 
L 82.159424 290.739827 
L 73.832727 290.36714 
L 74.391224 290.362891 
L 92.28623 290.482065 
L 97.560501 290.369498 
L 100.673777 290.113283 
L 101.208165 289.710654 
L 99.298311 288.598468 
L 97.032662 288.005801 
L 93.150556 287.475338 
L 88.396822 287.056713 
L 80.813455 286.617221 
L 82.226793 286.551073 
L 94.741871 286.453831 
L 100.339959 286.305051 
L 103.679304 286.038681 
L 104.52327 285.650683 
L 103.901115 285.165662 
L 102.63708 284.629942 
L 100.35384 284.099479 
L 97.002311 283.626191 
L 89.145927 282.785158 
L 91.187095 282.657492 
L 100.358662 282.39275 
L 104.021694 282.176691 
L 105.995563 281.877503 
L 106.493131 281.49958 
L 106.058011 281.065177 
L 104.983601 280.607513 
L 103.255435 280.162545 
L 97.994013 279.137957 
L 98.137581 278.909092 
L 99.767234 278.70892 
L 107.156194 278.029757 
L 108.511767 277.721537 
L 109.101865 277.3693 
L 109.089443 276.98569 
L 108.590774 276.589099 
L 106.700119 275.832728 
L 105.784616 275.500181 
L 105.308103 275.203986 
L 105.510954 274.938674 
L 106.483854 274.692309 
L 111.368417 273.916758 
L 112.569717 273.608539 
L 113.279461 273.271093 
L 113.489247 272.911854 
L 113.297102 272.542692 
L 112.133396 271.828281 
L 111.573361 271.503371 
L 111.364488 271.204642 
L 111.683959 270.927868 
L 112.580502 270.663644 
L 116.550226 269.832927 
L 117.461403 269.517801 
L 117.935426 269.183224 
L 118.037442 268.836353 
L 117.827299 268.487109 
L 117.13206 267.818526 
L 117.002858 267.50989 
L 117.242549 267.217856 
L 117.853998 266.937096 
L 121.648127 265.779541 
L 122.170866 265.460859 
L 122.432077 265.133255 
L 122.470613 264.474105 
L 122.511313 263.842034 
L 122.758474 263.54086 
L 123.800579 262.958231 
L 126.418709 261.774028 
L 127.191397 261.148565 
L 127.849976 260.203937 
L 128.327124 259.59477 
L 129.108673 259.005658 
L 132.35763 257.213872 
L 132.840334 256.590627 
L 133.424063 255.682264 
L 134.30472 255.101863 
L 136.61457 253.926085 
L 137.211673 253.312354 
L 137.651486 252.39953 
L 138.282104 251.813192 
L 141.133525 250.040936 
L 142.441038 248.533181 
L 145.664645 246.137667 
L 147.047761 244.922661 
L 152.136802 240.653245 
L 153.185167 239.744546 
L 155.383179 238.220612 
L 157.617039 236.080319 
L 159.414464 234.864393 
L 160.616845 233.629955 
L 161.698984 232.716747 
L 163.736511 231.191915 
L 168.02924 227.515963 
L 170.607256 225.375703 
L 171.943715 224.164508 
L 174.312546 222.352107 
L 175.900815 220.84537 
L 178.559416 218.749413 
L 179.895855 217.554145 
L 182.460923 215.469252 
L 184.266569 213.983718 
L 196.341512 204.777705 
L 197.882201 203.575675 
L 199.823338 202.074388 
L 201.820136 200.566889 
L 204.201781 198.755149 
L 209.327731 194.821127 
L 211.649011 193.009051 
L 213.639241 191.49664 
L 215.553862 189.989906 
L 217.94141 188.18059 
L 219.883296 186.677416 
L 221.839802 185.174306 
L 224.187038 183.379306 
L 228.837149 179.807448 
L 234.876875 175.09 
L 237.241772 173.330177 
L 237.241772 173.330177 
" clip-path="url(#p372ca91ec2)" style="fill: none; stroke: #1f77b4; stroke-width: 1.5; stroke-linecap: square"/>
   </g>
   <g id="line2d_38">
    <path d="M 243.663759 173.293459 
L 245.28314 172.12055 
L 246.784962 170.949776 
L 248.107761 169.774909 
L 250.761127 167.721253 
L 252.140128 166.543386 
L 254.014314 165.071569 
L 255.688607 163.592311 
L 257.610318 162.114028 
L 259.595469 160.330303 
L 261.409028 158.84465 
L 262.680874 157.650482 
L 264.859073 155.863609 
L 266.44245 154.370807 
L 268.296829 152.883449 
L 269.876691 151.393494 
L 272.09261 149.612907 
L 273.403037 148.424508 
L 275.982539 146.353803 
L 277.372863 145.17139 
L 279.268737 143.699659 
L 280.966992 142.227374 
L 283.187616 140.471034 
L 284.558305 139.301024 
L 286.787804 137.55408 
L 288.144325 136.388904 
L 290.721989 134.359743 
L 292.120906 133.199597 
L 293.984097 131.75382 
L 295.67653 130.303966 
L 297.868331 128.566076 
L 299.231986 127.403188 
L 301.417581 125.661052 
L 302.71092 124.493437 
L 304.884886 122.744384 
L 306.504861 121.280468 
L 308.304597 119.817939 
L 309.877582 118.349102 
L 311.983808 116.588947 
L 313.278759 115.412469 
L 315.393046 113.652858 
L 316.66858 112.477256 
L 319.148054 110.429328 
L 320.501434 109.258033 
L 322.352149 107.801327 
L 324.007663 106.343036 
L 326.233422 104.603277 
L 327.56547 103.442459 
L 329.823757 101.71076 
L 331.107666 100.554374 
L 333.685047 98.543075 
L 335.00516 97.393165 
L 336.914379 95.963027 
L 338.526311 94.529275 
L 340.459452 93.103058 
L 342.399071 91.384253 
L 343.944259 90.242841 
L 345.814763 88.520575 
L 347.431329 87.377557 
L 349.61049 85.364221 
L 351.123006 84.217384 
L 352.525678 82.77244 
L 354.488822 81.335907 
L 356.184474 79.599915 
L 357.826767 78.450574 
L 359.480937 76.710902 
L 361.194062 75.562489 
L 361.698971 74.983912 
L 362.393536 74.113273 
L 363.230329 73.538289 
L 364.619368 72.680792 
L 365.150313 72.104318 
L 365.73663 71.234804 
L 366.543053 70.660973 
L 368.411354 69.521605 
L 368.801439 68.944759 
L 369.145288 68.366256 
L 369.920874 67.794039 
L 371.979178 66.661958 
L 372.355253 66.087368 
L 372.57383 65.5095 
L 372.843653 65.222759 
L 373.874347 64.657471 
L 375.616791 63.816416 
L 375.891942 63.532048 
L 375.98348 62.955772 
L 376.008205 62.66671 
L 376.183394 62.379714 
L 376.584532 62.096121 
L 377.970575 61.53898 
L 379.326783 60.983745 
L 379.663916 60.701488 
L 379.721214 60.415062 
L 379.399371 59.547095 
L 379.69125 59.263538 
L 380.337436 58.985406 
L 383.133791 58.165195 
L 383.628521 57.885361 
L 383.653315 57.598526 
L 383.264262 57.305756 
L 382.220243 56.718425 
L 382.218834 56.433751 
L 382.894289 56.15924 
L 386.059119 55.631866 
L 387.812784 55.365788 
L 388.880021 55.087429 
L 388.610793 54.792235 
L 386.49792 54.483548 
L 382.309856 54.175313 
L 376.168372 53.893611 
L 368.553712 53.676019 
L 360.237344 53.568 
L 352.160457 53.617727 
L 345.28616 53.869634 
L 340.456118 54.357824 
L 338.275588 55.100644 
L 339.039764 56.097043 
L 342.703382 57.325337 
L 348.886974 58.744669 
L 365.857279 61.92378 
L 374.642422 63.550323 
L 382.131274 65.116413 
L 387.265926 66.571615 
L 389.218582 67.883484 
L 387.543567 69.041746 
L 382.298883 70.058938 
L 374.100931 70.968908 
L 344.66969 73.581394 
L 338.293348 74.590081 
L 335.525607 75.724922 
L 336.576423 76.987144 
L 340.873349 78.353967 
L 353.761 81.220222 
L 358.943891 82.613066 
L 361.319026 83.919605 
L 360.154874 85.118396 
L 355.542426 86.212453 
L 348.360802 87.228302 
L 332.255814 89.204132 
L 326.415387 90.258158 
L 323.426306 91.400176 
L 323.446066 92.637443 
L 325.891656 93.954875 
L 333.272797 96.687456 
L 335.583352 98.018584 
L 335.738697 99.282369 
L 333.529503 100.466353 
L 329.362801 101.57794 
L 318.838122 103.690219 
L 314.529529 104.759935 
L 311.82434 105.877742 
L 310.892516 107.057346 
L 311.433813 108.296576 
L 314.20593 110.880238 
L 314.927466 112.172391 
L 314.494723 113.433243 
L 312.771979 114.64987 
L 309.952085 115.821037 
L 299.600337 119.188277 
L 297.062196 120.321519 
L 295.381476 121.483129 
L 294.501652 122.676623 
L 294.211495 123.898021 
L 294.20378 126.383313 
L 293.912546 127.622569 
L 293.157027 128.846026 
L 291.848791 130.048522 
L 289.996354 131.229699 
L 287.696579 132.393524 
L 280.027275 135.856904 
L 277.96317 137.027874 
L 276.435726 138.215184 
L 275.481 139.418837 
L 275.005985 140.635427 
L 274.561916 143.081658 
L 273.997468 144.296539 
L 272.869746 145.498074 
L 271.081523 146.683988 
L 268.707328 147.855697 
L 263.241441 150.178218 
L 260.833765 151.343763 
L 259.019905 152.520848 
L 257.899259 153.712503 
L 257.379824 154.917908 
L 257.024358 157.349671 
L 256.502521 158.561829 
L 255.408136 159.763277 
L 253.680915 160.951383 
L 251.441641 162.127286 
L 246.514262 164.462343 
L 244.410554 165.63437 
L 242.790673 166.816184 
L 241.652942 168.009364 
L 239.361707 171.627876 
L 238.269025 172.830231 
L 236.837797 174.024156 
L 233.293738 176.387594 
L 229.846403 178.739439 
L 228.410535 179.920138 
L 223.364045 184.686818 
L 216.039955 190.624313 
L 212.445894 194.17649 
L 211.010891 195.359911 
L 207.548266 197.722373 
L 203.987034 200.082372 
L 202.528695 201.264567 
L 201.380294 202.449456 
L 198.794206 206.011843 
L 197.612715 207.195083 
L 196.04874 208.373197 
L 192.004845 210.715673 
L 189.900276 211.88457 
L 188.043563 213.056076 
L 186.586033 214.232672 
L 185.548408 215.415148 
L 183.305773 218.977796 
L 182.090469 220.159163 
L 180.429319 221.333487 
L 176.207348 223.665396 
L 174.106569 224.829623 
L 172.322296 225.997943 
L 170.967635 227.172895 
L 170.006195 228.354766 
L 168.498991 230.729389 
L 167.471531 231.914329 
L 166.043777 233.093254 
L 164.219727 234.265227 
L 158.169275 237.762831 
L 156.657126 238.934907 
L 155.526926 240.113941 
L 153.804227 242.487005 
L 152.753788 243.674048 
L 151.341204 244.856608 
L 149.546482 246.033014 
L 143.583541 249.540948 
L 142.139703 250.714587 
L 141.12286 251.89446 
L 139.711377 254.268276 
L 138.78119 255.455429 
L 137.402181 256.637668 
L 135.52749 257.813248 
L 128.936877 261.317846 
L 127.401233 262.491689 
L 126.469419 263.673213 
L 126.014872 264.861504 
L 125.728718 266.052811 
L 125.220257 267.241789 
L 124.153377 268.423459 
L 122.371654 269.595082 
L 119.966752 270.757521 
L 114.715123 273.074323 
L 112.758816 274.241829 
L 111.64958 275.421498 
L 111.359368 276.613024 
L 111.723686 279.008291 
L 111.267512 280.194852 
L 109.774582 281.365073 
L 107.145369 282.518306 
L 97.012491 285.958326 
L 95.511871 287.137082 
L 96.116296 288.340655 
L 99.033856 289.558406 
L 104.018311 290.765512 
L 110.427395 291.924819 
L 123.919263 293.913937 
L 134.279419 295.449137 
L 133.609173 295.488 
L 126.23458 294.915418 
L 103.462413 293.023936 
L 79.703069 291.14518 
L 76.050365 290.739827 
L 76.081231 290.482912 
L 80.086823 290.36714 
L 97.583281 290.42143 
L 117.319383 290.482065 
L 123.271549 290.369498 
L 124.794186 290.113283 
L 121.618789 289.710654 
L 105.177701 288.598468 
L 88.509742 287.475338 
L 85.049451 287.056713 
L 86.144578 286.773346 
L 91.457176 286.617221 
L 121.951545 286.305051 
L 123.285489 286.038681 
L 120.850476 285.650683 
L 98.858716 283.626191 
L 97.639002 283.245742 
L 99.4341 282.969888 
L 103.636997 282.785158 
L 118.656869 282.39275 
L 120.741366 282.176691 
L 120.551493 281.877503 
L 118.426019 281.49958 
L 108.801572 280.162545 
L 107.364631 279.760025 
L 107.598537 279.417688 
L 109.4032 279.137957 
L 115.785326 278.70892 
L 121.499023 278.290425 
L 122.794947 278.029757 
L 122.804551 277.721537 
L 121.680492 277.3693 
L 115.826661 276.199195 
L 114.738201 275.832728 
L 114.689664 275.500181 
L 115.741542 275.203986 
L 120.231813 274.692309 
L 124.905439 274.195037 
L 126.168541 273.916758 
L 126.394351 273.608539 
L 125.639879 273.271093 
L 121.110278 272.177408 
L 120.399312 271.828281 
L 120.630371 271.503371 
L 121.806013 271.204642 
L 129.353255 270.12599 
L 129.988388 269.832927 
L 129.782669 269.517801 
L 127.75424 268.836353 
L 126.667101 268.487109 
L 126.007501 268.145356 
L 125.985177 267.818526 
L 126.633823 267.50989 
L 129.291819 266.937096 
L 131.97194 266.377882 
L 132.767528 266.085454 
L 133.108163 265.779541 
L 133.065271 265.460859 
L 132.189217 264.474105 
L 132.137307 264.153123 
L 132.33351 263.842034 
L 132.771219 263.54086 
L 134.163741 262.958231 
L 136.45231 262.078729 
L 137.357047 261.463377 
L 137.524467 261.148565 
L 137.437334 260.516319 
L 137.38083 259.89655 
L 137.622683 259.59477 
L 138.127265 259.298239 
L 139.797756 258.71472 
L 141.567266 258.128003 
L 142.137788 257.828289 
L 142.39255 257.523259 
L 142.354242 257.213872 
L 141.778134 256.282379 
L 141.955267 255.979343 
L 142.463739 255.682264 
L 144.223188 255.101863 
L 145.971644 254.522658 
L 146.486099 254.227091 
L 146.699358 253.926085 
L 146.542018 253.312354 
L 146.454141 253.004565 
L 146.542097 252.69974 
L 146.876521 252.39953 
L 148.189183 251.813192 
L 150.239926 250.941546 
L 150.813772 250.344491 
L 151.266126 249.431842 
L 152.014754 248.830209 
L 154.415399 247.347701 
L 157.437474 244.922661 
L 158.214092 244.013187 
L 159.088489 243.407714 
L 161.259072 242.191569 
L 161.76479 241.576247 
L 162.14667 240.653245 
L 162.882796 240.045997 
L 165.480235 238.529562 
L 165.864396 237.910516 
L 166.165076 237.292156 
L 166.805214 236.682514 
L 169.484244 234.864393 
L 171.043056 233.324218 
L 175.656724 229.65473 
L 177.523473 227.820412 
L 179.677174 226.295247 
L 180.947142 224.767167 
L 182.319642 223.864319 
L 183.52431 222.959986 
L 184.953295 221.44363 
L 187.772128 219.351352 
L 188.744849 218.449111 
L 191.755976 216.065935 
L 192.913213 215.171513 
L 194.519639 213.983718 
L 196.090481 212.499027 
L 198.635983 210.724317 
L 200.226619 209.23867 
L 202.737055 207.461383 
L 204.005912 206.265988 
L 207.105961 203.876847 
L 208.552559 202.674161 
L 210.006522 201.47298 
L 211.746897 199.962697 
L 213.254184 198.755149 
L 215.202113 196.938033 
L 216.766254 195.730617 
L 219.049524 193.611343 
L 220.586009 192.405444 
L 222.119564 190.892032 
L 224.784234 188.784964 
L 226.160615 187.577898 
L 228.056933 186.076737 
L 229.806416 184.57438 
L 231.67894 183.08036 
L 232.951959 181.884931 
L 235.897086 179.510384 
L 236.929427 178.621637 
L 239.24052 176.855216 
L 240.599883 175.676443 
L 243.619494 173.330177 
L 243.619494 173.330177 
" clip-path="url(#p372ca91ec2)" style="fill: none; stroke: #ff7f0e; stroke-opacity: 0.5; stroke-width: 1.5; stroke-linecap: square"/>
   </g>
   <g id="patch_3">
    <path d="M 57.6 307.584 
L 57.6 41.472 
" style="fill: none; stroke: #000000; stroke-width: 0.8; stroke-linejoin: miter; stroke-linecap: square"/>
   </g>
   <g id="patch_4">
    <path d="M 414.72 307.584 
L 414.72 41.472 
" style="fill: none; stroke: #000000; stroke-width: 0.8; stroke-linejoin: miter; stroke-linecap: square"/>
   </g>
   <g id="patch_5">
    <path d="M 57.6 307.584 
L 414.72 307.584 
" style="fill: none; stroke: #000000; stroke-width: 0.8; stroke-linejoin: miter; stroke-linecap: square"/>
   </g>
   <g id="patch_6">
    <path d="M 57.6 41.472 
L 414.72 41.472 
" style="fill: none; stroke: #000000; stroke-width: 0.8; stroke-linejoin: miter; stroke-linecap: square"/>
   </g>
   <g id="text_21">
    <!-- Compare - Epoch 150 -->
    <g transform="translate(171.234375 35.472) scale(0.12 -0.12)">
     <defs>
      <path id="DejaVuSans-43" d="M 4122 4306 
L 4122 3641 
Q 3803 3938 3442 4084 
Q 3081 4231 2675 4231 
Q 1875 4231 1450 3742 
Q 1025 3253 1025 2328 
Q 1025 1406 1450 917 
Q 1875 428 2675 428 
Q 3081 428 3442 575 
Q 3803 722 4122 1019 
L 4122 359 
Q 3791 134 3420 21 
Q 3050 -91 2638 -91 
Q 1578 -91 968 557 
Q 359 1206 359 2328 
Q 359 3453 968 4101 
Q 1578 4750 2638 4750 
Q 3056 4750 3426 4639 
Q 3797 4528 4122 4306 
z
" transform="scale(0.015625)"/>
      <path id="DejaVuSans-6f" d="M 1959 3097 
Q 1497 3097 1228 2736 
Q 959 2375 959 1747 
Q 959 1119 1226 758 
Q 1494 397 1959 397 
Q 2419 397 2687 759 
Q 2956 1122 2956 1747 
Q 2956 2369 2687 2733 
Q 2419 3097 1959 3097 
z
M 1959 3584 
Q 2709 3584 3137 3096 
Q 3566 2609 3566 1747 
Q 3566 888 3137 398 
Q 2709 -91 1959 -91 
Q 1206 -91 779 398 
Q 353 888 353 1747 
Q 353 2609 779 3096 
Q 1206 3584 1959 3584 
z
" transform="scale(0.015625)"/>
      <path id="DejaVuSans-6d" d="M 3328 2828 
Q 3544 3216 3844 3400 
Q 4144 3584 4550 3584 
Q 5097 3584 5394 3201 
Q 5691 2819 5691 2113 
L 5691 0 
L 5113 0 
L 5113 2094 
Q 5113 2597 4934 2840 
Q 4756 3084 4391 3084 
Q 3944 3084 3684 2787 
Q 3425 2491 3425 1978 
L 3425 0 
L 2847 0 
L 2847 2094 
Q 2847 2600 2669 2842 
Q 2491 3084 2119 3084 
Q 1678 3084 1418 2786 
Q 1159 2488 1159 1978 
L 1159 0 
L 581 0 
L 581 3500 
L 1159 3500 
L 1159 2956 
Q 1356 3278 1631 3431 
Q 1906 3584 2284 3584 
Q 2666 3584 2933 3390 
Q 3200 3197 3328 2828 
z
" transform="scale(0.015625)"/>
      <path id="DejaVuSans-70" d="M 1159 525 
L 1159 -1331 
L 581 -1331 
L 581 3500 
L 1159 3500 
L 1159 2969 
Q 1341 3281 1617 3432 
Q 1894 3584 2278 3584 
Q 2916 3584 3314 3078 
Q 3713 2572 3713 1747 
Q 3713 922 3314 415 
Q 2916 -91 2278 -91 
Q 1894 -91 1617 61 
Q 1341 213 1159 525 
z
M 3116 1747 
Q 3116 2381 2855 2742 
Q 2594 3103 2138 3103 
Q 1681 3103 1420 2742 
Q 1159 2381 1159 1747 
Q 1159 1113 1420 752 
Q 1681 391 2138 391 
Q 2594 391 2855 752 
Q 3116 1113 3116 1747 
z
" transform="scale(0.015625)"/>
      <path id="DejaVuSans-72" d="M 2631 2963 
Q 2534 3019 2420 3045 
Q 2306 3072 2169 3072 
Q 1681 3072 1420 2755 
Q 1159 2438 1159 1844 
L 1159 0 
L 581 0 
L 581 3500 
L 1159 3500 
L 1159 2956 
Q 1341 3275 1631 3429 
Q 1922 3584 2338 3584 
Q 2397 3584 2469 3576 
Q 2541 3569 2628 3553 
L 2631 2963 
z
" transform="scale(0.015625)"/>
      <path id="DejaVuSans-20" transform="scale(0.015625)"/>
      <path id="DejaVuSans-2d" d="M 313 2009 
L 1997 2009 
L 1997 1497 
L 313 1497 
L 313 2009 
z
" transform="scale(0.015625)"/>
      <path id="DejaVuSans-45" d="M 628 4666 
L 3578 4666 
L 3578 4134 
L 1259 4134 
L 1259 2753 
L 3481 2753 
L 3481 2222 
L 1259 2222 
L 1259 531 
L 3634 531 
L 3634 0 
L 628 0 
L 628 4666 
z
" transform="scale(0.015625)"/>
      <path id="DejaVuSans-63" d="M 3122 3366 
L 3122 2828 
Q 2878 2963 2633 3030 
Q 2388 3097 2138 3097 
Q 1578 3097 1268 2742 
Q 959 2388 959 1747 
Q 959 1106 1268 751 
Q 1578 397 2138 397 
Q 2388 397 2633 464 
Q 2878 531 3122 666 
L 3122 134 
Q 2881 22 2623 -34 
Q 2366 -91 2075 -91 
Q 1284 -91 818 406 
Q 353 903 353 1747 
Q 353 2603 823 3093 
Q 1294 3584 2113 3584 
Q 2378 3584 2631 3529 
Q 2884 3475 3122 3366 
z
" transform="scale(0.015625)"/>
      <path id="DejaVuSans-68" d="M 3513 2113 
L 3513 0 
L 2938 0 
L 2938 2094 
Q 2938 2591 2744 2837 
Q 2550 3084 2163 3084 
Q 1697 3084 1428 2787 
Q 1159 2491 1159 1978 
L 1159 0 
L 581 0 
L 581 4863 
L 1159 4863 
L 1159 2956 
Q 1366 3272 1645 3428 
Q 1925 3584 2291 3584 
Q 2894 3584 3203 3211 
Q 3513 2838 3513 2113 
z
" transform="scale(0.015625)"/>
     </defs>
     <use xlink:href="#DejaVuSans-43"/>
     <use xlink:href="#DejaVuSans-6f" transform="translate(69.824219 0)"/>
     <use xlink:href="#DejaVuSans-6d" transform="translate(131.005859 0)"/>
     <use xlink:href="#DejaVuSans-70" transform="translate(228.417969 0)"/>
     <use xlink:href="#DejaVuSans-61" transform="translate(291.894531 0)"/>
     <use xlink:href="#DejaVuSans-72" transform="translate(353.173828 0)"/>
     <use xlink:href="#DejaVuSans-65" transform="translate(392.037109 0)"/>
     <use xlink:href="#DejaVuSans-20" transform="translate(453.560547 0)"/>
     <use xlink:href="#DejaVuSans-2d" transform="translate(485.347656 0)"/>
     <use xlink:href="#DejaVuSans-20" transform="translate(521.431641 0)"/>
     <use xlink:href="#DejaVuSans-45" transform="translate(553.21875 0)"/>
     <use xlink:href="#DejaVuSans-70" transform="translate(616.402344 0)"/>
     <use xlink:href="#DejaVuSans-6f" transform="translate(679.878906 0)"/>
     <use xlink:href="#DejaVuSans-63" transform="translate(741.060547 0)"/>
     <use xlink:href="#DejaVuSans-68" transform="translate(796.041016 0)"/>
     <use xlink:href="#DejaVuSans-20" transform="translate(859.419922 0)"/>
     <use xlink:href="#DejaVuSans-31" transform="translate(891.207031 0)"/>
     <use xlink:href="#DejaVuSans-35" transform="translate(954.830078 0)"/>
     <use xlink:href="#DejaVuSans-30" transform="translate(1018.453125 0)"/>
    </g>
   </g>
   <g id="legend_1">
    <g id="patch_7">
     <path d="M 64.6 78.82825 
L 181.128125 78.82825 
Q 183.128125 78.82825 183.128125 76.82825 
L 183.128125 48.472 
Q 183.128125 46.472 181.128125 46.472 
L 64.6 46.472 
Q 62.6 46.472 62.6 48.472 
L 62.6 76.82825 
Q 62.6 78.82825 64.6 78.82825 
z
" style="fill: #ffffff; opacity: 0.8; stroke: #cccccc; stroke-linejoin: miter"/>
    </g>
    <g id="line2d_39">
     <path d="M 66.6 54.570437 
L 76.6 54.570437 
L 86.6 54.570437 
" style="fill: none; stroke: #1f77b4; stroke-width: 1.5; stroke-linecap: square"/>
    </g>
    <g id="text_22">
     <!-- Pred: Sample 1 -->
     <g transform="translate(94.6 58.070437) scale(0.1 -0.1)">
      <defs>
       <path id="DejaVuSans-50" d="M 1259 4147 
L 1259 2394 
L 2053 2394 
Q 2494 2394 2734 2622 
Q 2975 2850 2975 3272 
Q 2975 3691 2734 3919 
Q 2494 4147 2053 4147 
L 1259 4147 
z
M 628 4666 
L 2053 4666 
Q 2838 4666 3239 4311 
Q 3641 3956 3641 3272 
Q 3641 2581 3239 2228 
Q 2838 1875 2053 1875 
L 1259 1875 
L 1259 0 
L 628 0 
L 628 4666 
z
" transform="scale(0.015625)"/>
       <path id="DejaVuSans-3a" d="M 750 794 
L 1409 794 
L 1409 0 
L 750 0 
L 750 794 
z
M 750 3309 
L 1409 3309 
L 1409 2516 
L 750 2516 
L 750 3309 
z
" transform="scale(0.015625)"/>
       <path id="DejaVuSans-53" d="M 3425 4513 
L 3425 3897 
Q 3066 4069 2747 4153 
Q 2428 4238 2131 4238 
Q 1616 4238 1336 4038 
Q 1056 3838 1056 3469 
Q 1056 3159 1242 3001 
Q 1428 2844 1947 2747 
L 2328 2669 
Q 3034 2534 3370 2195 
Q 3706 1856 3706 1288 
Q 3706 609 3251 259 
Q 2797 -91 1919 -91 
Q 1588 -91 1214 -16 
Q 841 59 441 206 
L 441 856 
Q 825 641 1194 531 
Q 1563 422 1919 422 
Q 2459 422 2753 634 
Q 3047 847 3047 1241 
Q 3047 1584 2836 1778 
Q 2625 1972 2144 2069 
L 1759 2144 
Q 1053 2284 737 2584 
Q 422 2884 422 3419 
Q 422 4038 858 4394 
Q 1294 4750 2059 4750 
Q 2388 4750 2728 4690 
Q 3069 4631 3425 4513 
z
" transform="scale(0.015625)"/>
      </defs>
      <use xlink:href="#DejaVuSans-50"/>
      <use xlink:href="#DejaVuSans-72" transform="translate(58.552734 0)"/>
      <use xlink:href="#DejaVuSans-65" transform="translate(97.416016 0)"/>
      <use xlink:href="#DejaVuSans-64" transform="translate(158.939453 0)"/>
      <use xlink:href="#DejaVuSans-3a" transform="translate(222.416016 0)"/>
      <use xlink:href="#DejaVuSans-20" transform="translate(256.107422 0)"/>
      <use xlink:href="#DejaVuSans-53" transform="translate(287.894531 0)"/>
      <use xlink:href="#DejaVuSans-61" transform="translate(351.371094 0)"/>
      <use xlink:href="#DejaVuSans-6d" transform="translate(412.650391 0)"/>
      <use xlink:href="#DejaVuSans-70" transform="translate(510.0625 0)"/>
      <use xlink:href="#DejaVuSans-6c" transform="translate(573.539062 0)"/>
      <use xlink:href="#DejaVuSans-65" transform="translate(601.322266 0)"/>
      <use xlink:href="#DejaVuSans-20" transform="translate(662.845703 0)"/>
      <use xlink:href="#DejaVuSans-31" transform="translate(694.632812 0)"/>
     </g>
    </g>
    <g id="line2d_40">
     <path d="M 66.6 69.248562 
L 76.6 69.248562 
L 86.6 69.248562 
" style="fill: none; stroke: #ff7f0e; stroke-opacity: 0.5; stroke-width: 1.5; stroke-linecap: square"/>
    </g>
    <g id="text_23">
     <!-- Target: Sample 1 -->
     <g transform="translate(94.6 72.748562) scale(0.1 -0.1)">
      <defs>
       <path id="DejaVuSans-54" d="M -19 4666 
L 3928 4666 
L 3928 4134 
L 2272 4134 
L 2272 0 
L 1638 0 
L 1638 4134 
L -19 4134 
L -19 4666 
z
" transform="scale(0.015625)"/>
       <path id="DejaVuSans-67" d="M 2906 1791 
Q 2906 2416 2648 2759 
Q 2391 3103 1925 3103 
Q 1463 3103 1205 2759 
Q 947 2416 947 1791 
Q 947 1169 1205 825 
Q 1463 481 1925 481 
Q 2391 481 2648 825 
Q 2906 1169 2906 1791 
z
M 3481 434 
Q 3481 -459 3084 -895 
Q 2688 -1331 1869 -1331 
Q 1566 -1331 1297 -1286 
Q 1028 -1241 775 -1147 
L 775 -588 
Q 1028 -725 1275 -790 
Q 1522 -856 1778 -856 
Q 2344 -856 2625 -561 
Q 2906 -266 2906 331 
L 2906 616 
Q 2728 306 2450 153 
Q 2172 0 1784 0 
Q 1141 0 747 490 
Q 353 981 353 1791 
Q 353 2603 747 3093 
Q 1141 3584 1784 3584 
Q 2172 3584 2450 3431 
Q 2728 3278 2906 2969 
L 2906 3500 
L 3481 3500 
L 3481 434 
z
" transform="scale(0.015625)"/>
       <path id="DejaVuSans-74" d="M 1172 4494 
L 1172 3500 
L 2356 3500 
L 2356 3053 
L 1172 3053 
L 1172 1153 
Q 1172 725 1289 603 
Q 1406 481 1766 481 
L 2356 481 
L 2356 0 
L 1766 0 
Q 1100 0 847 248 
Q 594 497 594 1153 
L 594 3053 
L 172 3053 
L 172 3500 
L 594 3500 
L 594 4494 
L 1172 4494 
z
" transform="scale(0.015625)"/>
      </defs>
      <use xlink:href="#DejaVuSans-54"/>
      <use xlink:href="#DejaVuSans-61" transform="translate(44.583984 0)"/>
      <use xlink:href="#DejaVuSans-72" transform="translate(105.863281 0)"/>
      <use xlink:href="#DejaVuSans-67" transform="translate(145.226562 0)"/>
      <use xlink:href="#DejaVuSans-65" transform="translate(208.703125 0)"/>
      <use xlink:href="#DejaVuSans-74" transform="translate(270.226562 0)"/>
      <use xlink:href="#DejaVuSans-3a" transform="translate(309.435547 0)"/>
      <use xlink:href="#DejaVuSans-20" transform="translate(343.126953 0)"/>
      <use xlink:href="#DejaVuSans-53" transform="translate(374.914062 0)"/>
      <use xlink:href="#DejaVuSans-61" transform="translate(438.390625 0)"/>
      <use xlink:href="#DejaVuSans-6d" transform="translate(499.669922 0)"/>
      <use xlink:href="#DejaVuSans-70" transform="translate(597.082031 0)"/>
      <use xlink:href="#DejaVuSans-6c" transform="translate(660.558594 0)"/>
      <use xlink:href="#DejaVuSans-65" transform="translate(688.341797 0)"/>
      <use xlink:href="#DejaVuSans-20" transform="translate(749.865234 0)"/>
      <use xlink:href="#DejaVuSans-31" transform="translate(781.652344 0)"/>
     </g>
    </g>
   </g>
  </g>
 </g>
 <defs>
  <clipPath id="p372ca91ec2">
   <rect x="57.6" y="41.472" width="357.12" height="266.112"/>
  </clipPath>
 </defs>
</svg>
