<?xml version="1.0" encoding="utf-8" standalone="no"?>
<!DOCTYPE svg PUBLIC "-//W3C//DTD SVG 1.1//EN"
  "http://www.w3.org/Graphics/SVG/1.1/DTD/svg11.dtd">
<svg xmlns:xlink="http://www.w3.org/1999/xlink" width="460.8pt" height="345.6pt" viewBox="0 0 460.8 345.6" xmlns="http://www.w3.org/2000/svg" version="1.1">
 <metadata>
  <rdf:RDF xmlns:dc="http://purl.org/dc/elements/1.1/" xmlns:cc="http://creativecommons.org/ns#" xmlns:rdf="http://www.w3.org/1999/02/22-rdf-syntax-ns#">
   <cc:Work>
    <dc:type rdf:resource="http://purl.org/dc/dcmitype/StillImage"/>
    <dc:date>2025-06-03T11:08:38.760693</dc:date>
    <dc:format>image/svg+xml</dc:format>
    <dc:creator>
     <cc:Agent>
      <dc:title>Matplotlib v3.10.3, https://matplotlib.org/</dc:title>
     </cc:Agent>
    </dc:creator>
   </cc:Work>
  </rdf:RDF>
 </metadata>
 <defs>
  <style type="text/css">*{stroke-linejoin: round; stroke-linecap: butt}</style>
 </defs>
 <g id="figure_1">
  <g id="patch_1">
   <path d="M 0 345.6 
L 460.8 345.6 
L 460.8 0 
L 0 0 
z
" style="fill: #ffffff"/>
  </g>
  <g id="axes_1">
   <g id="patch_2">
    <path d="M 57.6 307.584 
L 414.72 307.584 
L 414.72 41.472 
L 57.6 41.472 
z
" style="fill: #ffffff"/>
   </g>
   <g id="matplotlib.axis_1">
    <g id="xtick_1">
     <g id="line2d_1">
      <path d="M 76.843526 307.584 
L 76.843526 41.472 
" clip-path="url(#p2b1818f7e9)" style="fill: none; stroke: #b0b0b0; stroke-opacity: 0.5; stroke-width: 0.8; stroke-linecap: square"/>
     </g>
     <g id="line2d_2">
      <defs>
       <path id="m652a87cf13" d="M 0 0 
L 0 3.5 
" style="stroke: #000000; stroke-width: 0.8"/>
      </defs>
      <g>
       <use xlink:href="#m652a87cf13" x="76.843526" y="307.584" style="stroke: #000000; stroke-width: 0.8"/>
      </g>
     </g>
     <g id="text_1">
      <!-- −1.00 -->
      <g transform="translate(61.52087 322.182437) scale(0.1 -0.1)">
       <defs>
        <path id="DejaVuSans-2212" d="M 678 2272 
L 4684 2272 
L 4684 1741 
L 678 1741 
L 678 2272 
z
" transform="scale(0.015625)"/>
        <path id="DejaVuSans-31" d="M 794 531 
L 1825 531 
L 1825 4091 
L 703 3866 
L 703 4441 
L 1819 4666 
L 2450 4666 
L 2450 531 
L 3481 531 
L 3481 0 
L 794 0 
L 794 531 
z
" transform="scale(0.015625)"/>
        <path id="DejaVuSans-2e" d="M 684 794 
L 1344 794 
L 1344 0 
L 684 0 
L 684 794 
z
" transform="scale(0.015625)"/>
        <path id="DejaVuSans-30" d="M 2034 4250 
Q 1547 4250 1301 3770 
Q 1056 3291 1056 2328 
Q 1056 1369 1301 889 
Q 1547 409 2034 409 
Q 2525 409 2770 889 
Q 3016 1369 3016 2328 
Q 3016 3291 2770 3770 
Q 2525 4250 2034 4250 
z
M 2034 4750 
Q 2819 4750 3233 4129 
Q 3647 3509 3647 2328 
Q 3647 1150 3233 529 
Q 2819 -91 2034 -91 
Q 1250 -91 836 529 
Q 422 1150 422 2328 
Q 422 3509 836 4129 
Q 1250 4750 2034 4750 
z
" transform="scale(0.015625)"/>
       </defs>
       <use xlink:href="#DejaVuSans-2212"/>
       <use xlink:href="#DejaVuSans-31" transform="translate(83.789062 0)"/>
       <use xlink:href="#DejaVuSans-2e" transform="translate(147.412109 0)"/>
       <use xlink:href="#DejaVuSans-30" transform="translate(179.199219 0)"/>
       <use xlink:href="#DejaVuSans-30" transform="translate(242.822266 0)"/>
      </g>
     </g>
    </g>
    <g id="xtick_2">
     <g id="line2d_3">
      <path d="M 118.664875 307.584 
L 118.664875 41.472 
" clip-path="url(#p2b1818f7e9)" style="fill: none; stroke: #b0b0b0; stroke-opacity: 0.5; stroke-width: 0.8; stroke-linecap: square"/>
     </g>
     <g id="line2d_4">
      <g>
       <use xlink:href="#m652a87cf13" x="118.664875" y="307.584" style="stroke: #000000; stroke-width: 0.8"/>
      </g>
     </g>
     <g id="text_2">
      <!-- −0.75 -->
      <g transform="translate(103.342219 322.182437) scale(0.1 -0.1)">
       <defs>
        <path id="DejaVuSans-37" d="M 525 4666 
L 3525 4666 
L 3525 4397 
L 1831 0 
L 1172 0 
L 2766 4134 
L 525 4134 
L 525 4666 
z
" transform="scale(0.015625)"/>
        <path id="DejaVuSans-35" d="M 691 4666 
L 3169 4666 
L 3169 4134 
L 1269 4134 
L 1269 2991 
Q 1406 3038 1543 3061 
Q 1681 3084 1819 3084 
Q 2600 3084 3056 2656 
Q 3513 2228 3513 1497 
Q 3513 744 3044 326 
Q 2575 -91 1722 -91 
Q 1428 -91 1123 -41 
Q 819 9 494 109 
L 494 744 
Q 775 591 1075 516 
Q 1375 441 1709 441 
Q 2250 441 2565 725 
Q 2881 1009 2881 1497 
Q 2881 1984 2565 2268 
Q 2250 2553 1709 2553 
Q 1456 2553 1204 2497 
Q 953 2441 691 2322 
L 691 4666 
z
" transform="scale(0.015625)"/>
       </defs>
       <use xlink:href="#DejaVuSans-2212"/>
       <use xlink:href="#DejaVuSans-30" transform="translate(83.789062 0)"/>
       <use xlink:href="#DejaVuSans-2e" transform="translate(147.412109 0)"/>
       <use xlink:href="#DejaVuSans-37" transform="translate(179.199219 0)"/>
       <use xlink:href="#DejaVuSans-35" transform="translate(242.822266 0)"/>
      </g>
     </g>
    </g>
    <g id="xtick_3">
     <g id="line2d_5">
      <path d="M 160.486224 307.584 
L 160.486224 41.472 
" clip-path="url(#p2b1818f7e9)" style="fill: none; stroke: #b0b0b0; stroke-opacity: 0.5; stroke-width: 0.8; stroke-linecap: square"/>
     </g>
     <g id="line2d_6">
      <g>
       <use xlink:href="#m652a87cf13" x="160.486224" y="307.584" style="stroke: #000000; stroke-width: 0.8"/>
      </g>
     </g>
     <g id="text_3">
      <!-- −0.50 -->
      <g transform="translate(145.163568 322.182437) scale(0.1 -0.1)">
       <use xlink:href="#DejaVuSans-2212"/>
       <use xlink:href="#DejaVuSans-30" transform="translate(83.789062 0)"/>
       <use xlink:href="#DejaVuSans-2e" transform="translate(147.412109 0)"/>
       <use xlink:href="#DejaVuSans-35" transform="translate(179.199219 0)"/>
       <use xlink:href="#DejaVuSans-30" transform="translate(242.822266 0)"/>
      </g>
     </g>
    </g>
    <g id="xtick_4">
     <g id="line2d_7">
      <path d="M 202.307573 307.584 
L 202.307573 41.472 
" clip-path="url(#p2b1818f7e9)" style="fill: none; stroke: #b0b0b0; stroke-opacity: 0.5; stroke-width: 0.8; stroke-linecap: square"/>
     </g>
     <g id="line2d_8">
      <g>
       <use xlink:href="#m652a87cf13" x="202.307573" y="307.584" style="stroke: #000000; stroke-width: 0.8"/>
      </g>
     </g>
     <g id="text_4">
      <!-- −0.25 -->
      <g transform="translate(186.984917 322.182437) scale(0.1 -0.1)">
       <defs>
        <path id="DejaVuSans-32" d="M 1228 531 
L 3431 531 
L 3431 0 
L 469 0 
L 469 531 
Q 828 903 1448 1529 
Q 2069 2156 2228 2338 
Q 2531 2678 2651 2914 
Q 2772 3150 2772 3378 
Q 2772 3750 2511 3984 
Q 2250 4219 1831 4219 
Q 1534 4219 1204 4116 
Q 875 4013 500 3803 
L 500 4441 
Q 881 4594 1212 4672 
Q 1544 4750 1819 4750 
Q 2544 4750 2975 4387 
Q 3406 4025 3406 3419 
Q 3406 3131 3298 2873 
Q 3191 2616 2906 2266 
Q 2828 2175 2409 1742 
Q 1991 1309 1228 531 
z
" transform="scale(0.015625)"/>
       </defs>
       <use xlink:href="#DejaVuSans-2212"/>
       <use xlink:href="#DejaVuSans-30" transform="translate(83.789062 0)"/>
       <use xlink:href="#DejaVuSans-2e" transform="translate(147.412109 0)"/>
       <use xlink:href="#DejaVuSans-32" transform="translate(179.199219 0)"/>
       <use xlink:href="#DejaVuSans-35" transform="translate(242.822266 0)"/>
      </g>
     </g>
    </g>
    <g id="xtick_5">
     <g id="line2d_9">
      <path d="M 244.128922 307.584 
L 244.128922 41.472 
" clip-path="url(#p2b1818f7e9)" style="fill: none; stroke: #b0b0b0; stroke-opacity: 0.5; stroke-width: 0.8; stroke-linecap: square"/>
     </g>
     <g id="line2d_10">
      <g>
       <use xlink:href="#m652a87cf13" x="244.128922" y="307.584" style="stroke: #000000; stroke-width: 0.8"/>
      </g>
     </g>
     <g id="text_5">
      <!-- 0.00 -->
      <g transform="translate(232.99611 322.182437) scale(0.1 -0.1)">
       <use xlink:href="#DejaVuSans-30"/>
       <use xlink:href="#DejaVuSans-2e" transform="translate(63.623047 0)"/>
       <use xlink:href="#DejaVuSans-30" transform="translate(95.410156 0)"/>
       <use xlink:href="#DejaVuSans-30" transform="translate(159.033203 0)"/>
      </g>
     </g>
    </g>
    <g id="xtick_6">
     <g id="line2d_11">
      <path d="M 285.950271 307.584 
L 285.950271 41.472 
" clip-path="url(#p2b1818f7e9)" style="fill: none; stroke: #b0b0b0; stroke-opacity: 0.5; stroke-width: 0.8; stroke-linecap: square"/>
     </g>
     <g id="line2d_12">
      <g>
       <use xlink:href="#m652a87cf13" x="285.950271" y="307.584" style="stroke: #000000; stroke-width: 0.8"/>
      </g>
     </g>
     <g id="text_6">
      <!-- 0.25 -->
      <g transform="translate(274.817459 322.182437) scale(0.1 -0.1)">
       <use xlink:href="#DejaVuSans-30"/>
       <use xlink:href="#DejaVuSans-2e" transform="translate(63.623047 0)"/>
       <use xlink:href="#DejaVuSans-32" transform="translate(95.410156 0)"/>
       <use xlink:href="#DejaVuSans-35" transform="translate(159.033203 0)"/>
      </g>
     </g>
    </g>
    <g id="xtick_7">
     <g id="line2d_13">
      <path d="M 327.77162 307.584 
L 327.77162 41.472 
" clip-path="url(#p2b1818f7e9)" style="fill: none; stroke: #b0b0b0; stroke-opacity: 0.5; stroke-width: 0.8; stroke-linecap: square"/>
     </g>
     <g id="line2d_14">
      <g>
       <use xlink:href="#m652a87cf13" x="327.77162" y="307.584" style="stroke: #000000; stroke-width: 0.8"/>
      </g>
     </g>
     <g id="text_7">
      <!-- 0.50 -->
      <g transform="translate(316.638807 322.182437) scale(0.1 -0.1)">
       <use xlink:href="#DejaVuSans-30"/>
       <use xlink:href="#DejaVuSans-2e" transform="translate(63.623047 0)"/>
       <use xlink:href="#DejaVuSans-35" transform="translate(95.410156 0)"/>
       <use xlink:href="#DejaVuSans-30" transform="translate(159.033203 0)"/>
      </g>
     </g>
    </g>
    <g id="xtick_8">
     <g id="line2d_15">
      <path d="M 369.592969 307.584 
L 369.592969 41.472 
" clip-path="url(#p2b1818f7e9)" style="fill: none; stroke: #b0b0b0; stroke-opacity: 0.5; stroke-width: 0.8; stroke-linecap: square"/>
     </g>
     <g id="line2d_16">
      <g>
       <use xlink:href="#m652a87cf13" x="369.592969" y="307.584" style="stroke: #000000; stroke-width: 0.8"/>
      </g>
     </g>
     <g id="text_8">
      <!-- 0.75 -->
      <g transform="translate(358.460156 322.182437) scale(0.1 -0.1)">
       <use xlink:href="#DejaVuSans-30"/>
       <use xlink:href="#DejaVuSans-2e" transform="translate(63.623047 0)"/>
       <use xlink:href="#DejaVuSans-37" transform="translate(95.410156 0)"/>
       <use xlink:href="#DejaVuSans-35" transform="translate(159.033203 0)"/>
      </g>
     </g>
    </g>
    <g id="xtick_9">
     <g id="line2d_17">
      <path d="M 411.414318 307.584 
L 411.414318 41.472 
" clip-path="url(#p2b1818f7e9)" style="fill: none; stroke: #b0b0b0; stroke-opacity: 0.5; stroke-width: 0.8; stroke-linecap: square"/>
     </g>
     <g id="line2d_18">
      <g>
       <use xlink:href="#m652a87cf13" x="411.414318" y="307.584" style="stroke: #000000; stroke-width: 0.8"/>
      </g>
     </g>
     <g id="text_9">
      <!-- 1.00 -->
      <g transform="translate(400.281505 322.182437) scale(0.1 -0.1)">
       <use xlink:href="#DejaVuSans-31"/>
       <use xlink:href="#DejaVuSans-2e" transform="translate(63.623047 0)"/>
       <use xlink:href="#DejaVuSans-30" transform="translate(95.410156 0)"/>
       <use xlink:href="#DejaVuSans-30" transform="translate(159.033203 0)"/>
      </g>
     </g>
    </g>
    <g id="text_10">
     <!-- Index -->
     <g transform="translate(222.393594 335.860562) scale(0.1 -0.1)">
      <defs>
       <path id="DejaVuSans-49" d="M 628 4666 
L 1259 4666 
L 1259 0 
L 628 0 
L 628 4666 
z
" transform="scale(0.015625)"/>
       <path id="DejaVuSans-6e" d="M 3513 2113 
L 3513 0 
L 2938 0 
L 2938 2094 
Q 2938 2591 2744 2837 
Q 2550 3084 2163 3084 
Q 1697 3084 1428 2787 
Q 1159 2491 1159 1978 
L 1159 0 
L 581 0 
L 581 3500 
L 1159 3500 
L 1159 2956 
Q 1366 3272 1645 3428 
Q 1925 3584 2291 3584 
Q 2894 3584 3203 3211 
Q 3513 2838 3513 2113 
z
" transform="scale(0.015625)"/>
       <path id="DejaVuSans-64" d="M 2906 2969 
L 2906 4863 
L 3481 4863 
L 3481 0 
L 2906 0 
L 2906 525 
Q 2725 213 2448 61 
Q 2172 -91 1784 -91 
Q 1150 -91 751 415 
Q 353 922 353 1747 
Q 353 2572 751 3078 
Q 1150 3584 1784 3584 
Q 2172 3584 2448 3432 
Q 2725 3281 2906 2969 
z
M 947 1747 
Q 947 1113 1208 752 
Q 1469 391 1925 391 
Q 2381 391 2643 752 
Q 2906 1113 2906 1747 
Q 2906 2381 2643 2742 
Q 2381 3103 1925 3103 
Q 1469 3103 1208 2742 
Q 947 2381 947 1747 
z
" transform="scale(0.015625)"/>
       <path id="DejaVuSans-65" d="M 3597 1894 
L 3597 1613 
L 953 1613 
Q 991 1019 1311 708 
Q 1631 397 2203 397 
Q 2534 397 2845 478 
Q 3156 559 3463 722 
L 3463 178 
Q 3153 47 2828 -22 
Q 2503 -91 2169 -91 
Q 1331 -91 842 396 
Q 353 884 353 1716 
Q 353 2575 817 3079 
Q 1281 3584 2069 3584 
Q 2775 3584 3186 3129 
Q 3597 2675 3597 1894 
z
M 3022 2063 
Q 3016 2534 2758 2815 
Q 2500 3097 2075 3097 
Q 1594 3097 1305 2825 
Q 1016 2553 972 2059 
L 3022 2063 
z
" transform="scale(0.015625)"/>
       <path id="DejaVuSans-78" d="M 3513 3500 
L 2247 1797 
L 3578 0 
L 2900 0 
L 1881 1375 
L 863 0 
L 184 0 
L 1544 1831 
L 300 3500 
L 978 3500 
L 1906 2253 
L 2834 3500 
L 3513 3500 
z
" transform="scale(0.015625)"/>
      </defs>
      <use xlink:href="#DejaVuSans-49"/>
      <use xlink:href="#DejaVuSans-6e" transform="translate(29.492188 0)"/>
      <use xlink:href="#DejaVuSans-64" transform="translate(92.871094 0)"/>
      <use xlink:href="#DejaVuSans-65" transform="translate(156.347656 0)"/>
      <use xlink:href="#DejaVuSans-78" transform="translate(216.121094 0)"/>
     </g>
    </g>
   </g>
   <g id="matplotlib.axis_2">
    <g id="ytick_1">
     <g id="line2d_19">
      <path d="M 57.6 295.488066 
L 414.72 295.488066 
" clip-path="url(#p2b1818f7e9)" style="fill: none; stroke: #b0b0b0; stroke-opacity: 0.5; stroke-width: 0.8; stroke-linecap: square"/>
     </g>
     <g id="line2d_20">
      <defs>
       <path id="mbb1f2dfcc9" d="M 0 0 
L -3.5 0 
" style="stroke: #000000; stroke-width: 0.8"/>
      </defs>
      <g>
       <use xlink:href="#mbb1f2dfcc9" x="57.6" y="295.488066" style="stroke: #000000; stroke-width: 0.8"/>
      </g>
     </g>
     <g id="text_11">
      <!-- −1.00 -->
      <g transform="translate(19.954687 299.287284) scale(0.1 -0.1)">
       <use xlink:href="#DejaVuSans-2212"/>
       <use xlink:href="#DejaVuSans-31" transform="translate(83.789062 0)"/>
       <use xlink:href="#DejaVuSans-2e" transform="translate(147.412109 0)"/>
       <use xlink:href="#DejaVuSans-30" transform="translate(179.199219 0)"/>
       <use xlink:href="#DejaVuSans-30" transform="translate(242.822266 0)"/>
      </g>
     </g>
    </g>
    <g id="ytick_2">
     <g id="line2d_21">
      <path d="M 57.6 264.865381 
L 414.72 264.865381 
" clip-path="url(#p2b1818f7e9)" style="fill: none; stroke: #b0b0b0; stroke-opacity: 0.5; stroke-width: 0.8; stroke-linecap: square"/>
     </g>
     <g id="line2d_22">
      <g>
       <use xlink:href="#mbb1f2dfcc9" x="57.6" y="264.865381" style="stroke: #000000; stroke-width: 0.8"/>
      </g>
     </g>
     <g id="text_12">
      <!-- −0.75 -->
      <g transform="translate(19.954687 268.6646) scale(0.1 -0.1)">
       <use xlink:href="#DejaVuSans-2212"/>
       <use xlink:href="#DejaVuSans-30" transform="translate(83.789062 0)"/>
       <use xlink:href="#DejaVuSans-2e" transform="translate(147.412109 0)"/>
       <use xlink:href="#DejaVuSans-37" transform="translate(179.199219 0)"/>
       <use xlink:href="#DejaVuSans-35" transform="translate(242.822266 0)"/>
      </g>
     </g>
    </g>
    <g id="ytick_3">
     <g id="line2d_23">
      <path d="M 57.6 234.242696 
L 414.72 234.242696 
" clip-path="url(#p2b1818f7e9)" style="fill: none; stroke: #b0b0b0; stroke-opacity: 0.5; stroke-width: 0.8; stroke-linecap: square"/>
     </g>
     <g id="line2d_24">
      <g>
       <use xlink:href="#mbb1f2dfcc9" x="57.6" y="234.242696" style="stroke: #000000; stroke-width: 0.8"/>
      </g>
     </g>
     <g id="text_13">
      <!-- −0.50 -->
      <g transform="translate(19.954687 238.041915) scale(0.1 -0.1)">
       <use xlink:href="#DejaVuSans-2212"/>
       <use xlink:href="#DejaVuSans-30" transform="translate(83.789062 0)"/>
       <use xlink:href="#DejaVuSans-2e" transform="translate(147.412109 0)"/>
       <use xlink:href="#DejaVuSans-35" transform="translate(179.199219 0)"/>
       <use xlink:href="#DejaVuSans-30" transform="translate(242.822266 0)"/>
      </g>
     </g>
    </g>
    <g id="ytick_4">
     <g id="line2d_25">
      <path d="M 57.6 203.620012 
L 414.72 203.620012 
" clip-path="url(#p2b1818f7e9)" style="fill: none; stroke: #b0b0b0; stroke-opacity: 0.5; stroke-width: 0.8; stroke-linecap: square"/>
     </g>
     <g id="line2d_26">
      <g>
       <use xlink:href="#mbb1f2dfcc9" x="57.6" y="203.620012" style="stroke: #000000; stroke-width: 0.8"/>
      </g>
     </g>
     <g id="text_14">
      <!-- −0.25 -->
      <g transform="translate(19.954687 207.419231) scale(0.1 -0.1)">
       <use xlink:href="#DejaVuSans-2212"/>
       <use xlink:href="#DejaVuSans-30" transform="translate(83.789062 0)"/>
       <use xlink:href="#DejaVuSans-2e" transform="translate(147.412109 0)"/>
       <use xlink:href="#DejaVuSans-32" transform="translate(179.199219 0)"/>
       <use xlink:href="#DejaVuSans-35" transform="translate(242.822266 0)"/>
      </g>
     </g>
    </g>
    <g id="ytick_5">
     <g id="line2d_27">
      <path d="M 57.6 172.997327 
L 414.72 172.997327 
" clip-path="url(#p2b1818f7e9)" style="fill: none; stroke: #b0b0b0; stroke-opacity: 0.5; stroke-width: 0.8; stroke-linecap: square"/>
     </g>
     <g id="line2d_28">
      <g>
       <use xlink:href="#mbb1f2dfcc9" x="57.6" y="172.997327" style="stroke: #000000; stroke-width: 0.8"/>
      </g>
     </g>
     <g id="text_15">
      <!-- 0.00 -->
      <g transform="translate(28.334375 176.796546) scale(0.1 -0.1)">
       <use xlink:href="#DejaVuSans-30"/>
       <use xlink:href="#DejaVuSans-2e" transform="translate(63.623047 0)"/>
       <use xlink:href="#DejaVuSans-30" transform="translate(95.410156 0)"/>
       <use xlink:href="#DejaVuSans-30" transform="translate(159.033203 0)"/>
      </g>
     </g>
    </g>
    <g id="ytick_6">
     <g id="line2d_29">
      <path d="M 57.6 142.374643 
L 414.72 142.374643 
" clip-path="url(#p2b1818f7e9)" style="fill: none; stroke: #b0b0b0; stroke-opacity: 0.5; stroke-width: 0.8; stroke-linecap: square"/>
     </g>
     <g id="line2d_30">
      <g>
       <use xlink:href="#mbb1f2dfcc9" x="57.6" y="142.374643" style="stroke: #000000; stroke-width: 0.8"/>
      </g>
     </g>
     <g id="text_16">
      <!-- 0.25 -->
      <g transform="translate(28.334375 146.173861) scale(0.1 -0.1)">
       <use xlink:href="#DejaVuSans-30"/>
       <use xlink:href="#DejaVuSans-2e" transform="translate(63.623047 0)"/>
       <use xlink:href="#DejaVuSans-32" transform="translate(95.410156 0)"/>
       <use xlink:href="#DejaVuSans-35" transform="translate(159.033203 0)"/>
      </g>
     </g>
    </g>
    <g id="ytick_7">
     <g id="line2d_31">
      <path d="M 57.6 111.751958 
L 414.72 111.751958 
" clip-path="url(#p2b1818f7e9)" style="fill: none; stroke: #b0b0b0; stroke-opacity: 0.5; stroke-width: 0.8; stroke-linecap: square"/>
     </g>
     <g id="line2d_32">
      <g>
       <use xlink:href="#mbb1f2dfcc9" x="57.6" y="111.751958" style="stroke: #000000; stroke-width: 0.8"/>
      </g>
     </g>
     <g id="text_17">
      <!-- 0.50 -->
      <g transform="translate(28.334375 115.551177) scale(0.1 -0.1)">
       <use xlink:href="#DejaVuSans-30"/>
       <use xlink:href="#DejaVuSans-2e" transform="translate(63.623047 0)"/>
       <use xlink:href="#DejaVuSans-35" transform="translate(95.410156 0)"/>
       <use xlink:href="#DejaVuSans-30" transform="translate(159.033203 0)"/>
      </g>
     </g>
    </g>
    <g id="ytick_8">
     <g id="line2d_33">
      <path d="M 57.6 81.129273 
L 414.72 81.129273 
" clip-path="url(#p2b1818f7e9)" style="fill: none; stroke: #b0b0b0; stroke-opacity: 0.5; stroke-width: 0.8; stroke-linecap: square"/>
     </g>
     <g id="line2d_34">
      <g>
       <use xlink:href="#mbb1f2dfcc9" x="57.6" y="81.129273" style="stroke: #000000; stroke-width: 0.8"/>
      </g>
     </g>
     <g id="text_18">
      <!-- 0.75 -->
      <g transform="translate(28.334375 84.928492) scale(0.1 -0.1)">
       <use xlink:href="#DejaVuSans-30"/>
       <use xlink:href="#DejaVuSans-2e" transform="translate(63.623047 0)"/>
       <use xlink:href="#DejaVuSans-37" transform="translate(95.410156 0)"/>
       <use xlink:href="#DejaVuSans-35" transform="translate(159.033203 0)"/>
      </g>
     </g>
    </g>
    <g id="ytick_9">
     <g id="line2d_35">
      <path d="M 57.6 50.506589 
L 414.72 50.506589 
" clip-path="url(#p2b1818f7e9)" style="fill: none; stroke: #b0b0b0; stroke-opacity: 0.5; stroke-width: 0.8; stroke-linecap: square"/>
     </g>
     <g id="line2d_36">
      <g>
       <use xlink:href="#mbb1f2dfcc9" x="57.6" y="50.506589" style="stroke: #000000; stroke-width: 0.8"/>
      </g>
     </g>
     <g id="text_19">
      <!-- 1.00 -->
      <g transform="translate(28.334375 54.305807) scale(0.1 -0.1)">
       <use xlink:href="#DejaVuSans-31"/>
       <use xlink:href="#DejaVuSans-2e" transform="translate(63.623047 0)"/>
       <use xlink:href="#DejaVuSans-30" transform="translate(95.410156 0)"/>
       <use xlink:href="#DejaVuSans-30" transform="translate(159.033203 0)"/>
      </g>
     </g>
    </g>
    <g id="text_20">
     <!-- Value -->
     <g transform="translate(13.875 188.25925) rotate(-90) scale(0.1 -0.1)">
      <defs>
       <path id="DejaVuSans-56" d="M 1831 0 
L 50 4666 
L 709 4666 
L 2188 738 
L 3669 4666 
L 4325 4666 
L 2547 0 
L 1831 0 
z
" transform="scale(0.015625)"/>
       <path id="DejaVuSans-61" d="M 2194 1759 
Q 1497 1759 1228 1600 
Q 959 1441 959 1056 
Q 959 750 1161 570 
Q 1363 391 1709 391 
Q 2188 391 2477 730 
Q 2766 1069 2766 1631 
L 2766 1759 
L 2194 1759 
z
M 3341 1997 
L 3341 0 
L 2766 0 
L 2766 531 
Q 2569 213 2275 61 
Q 1981 -91 1556 -91 
Q 1019 -91 701 211 
Q 384 513 384 1019 
Q 384 1609 779 1909 
Q 1175 2209 1959 2209 
L 2766 2209 
L 2766 2266 
Q 2766 2663 2505 2880 
Q 2244 3097 1772 3097 
Q 1472 3097 1187 3025 
Q 903 2953 641 2809 
L 641 3341 
Q 956 3463 1253 3523 
Q 1550 3584 1831 3584 
Q 2591 3584 2966 3190 
Q 3341 2797 3341 1997 
z
" transform="scale(0.015625)"/>
       <path id="DejaVuSans-6c" d="M 603 4863 
L 1178 4863 
L 1178 0 
L 603 0 
L 603 4863 
z
" transform="scale(0.015625)"/>
       <path id="DejaVuSans-75" d="M 544 1381 
L 544 3500 
L 1119 3500 
L 1119 1403 
Q 1119 906 1312 657 
Q 1506 409 1894 409 
Q 2359 409 2629 706 
Q 2900 1003 2900 1516 
L 2900 3500 
L 3475 3500 
L 3475 0 
L 2900 0 
L 2900 538 
Q 2691 219 2414 64 
Q 2138 -91 1772 -91 
Q 1169 -91 856 284 
Q 544 659 544 1381 
z
M 1991 3584 
L 1991 3584 
z
" transform="scale(0.015625)"/>
      </defs>
      <use xlink:href="#DejaVuSans-56"/>
      <use xlink:href="#DejaVuSans-61" transform="translate(60.658203 0)"/>
      <use xlink:href="#DejaVuSans-6c" transform="translate(121.9375 0)"/>
      <use xlink:href="#DejaVuSans-75" transform="translate(149.720703 0)"/>
      <use xlink:href="#DejaVuSans-65" transform="translate(213.099609 0)"/>
     </g>
    </g>
   </g>
   <g id="line2d_37">
    <path d="M 231.007453 173.293459 
L 268.979737 172.999597 
L 234.208693 172.706119 
L 245.954425 172.413127 
L 244.008188 172.12055 
L 245.063538 171.535734 
L 247.071211 170.068511 
L 249.086731 168.602755 
L 251.480037 166.837595 
L 256.740715 163.001713 
L 259.198209 161.221903 
L 261.006188 159.737037 
L 262.883396 158.24747 
L 265.067934 156.459878 
L 266.892739 154.967221 
L 268.723268 153.478754 
L 270.555093 151.988755 
L 272.369433 150.50362 
L 274.542371 148.721077 
L 276.390493 147.241864 
L 278.173076 145.761679 
L 279.646917 144.582852 
L 281.951402 142.815149 
L 283.851319 141.349299 
L 285.753618 139.885244 
L 287.642687 138.42791 
L 289.543321 136.970777 
L 291.402681 135.519725 
L 293.326288 134.069239 
L 295.578899 132.332754 
L 297.80906 130.593499 
L 302.359962 127.113195 
L 308.236613 122.744384 
L 324.498529 110.135958 
L 326.156554 108.67536 
L 328.255213 106.925358 
L 329.580616 105.763043 
L 331.685472 104.02216 
L 333.368335 102.576843 
L 335.107375 101.132008 
L 336.747163 99.692437 
L 338.806381 97.967207 
L 340.121604 96.821232 
L 345.245894 93.103058 
L 346.410804 92.242713 
L 348.361548 90.814131 
L 350.056526 89.668849 
L 356.806814 84.791887 
L 358.505391 83.639363 
L 360.35496 82.198047 
L 362.880451 80.466713 
L 364.715302 79.025931 
L 366.370526 77.870888 
L 368.342827 76.136728 
L 370.053589 74.983912 
L 372.430413 72.967014 
L 373.731716 72.104318 
L 374.34205 71.524165 
L 375.180131 70.660973 
L 376.514329 69.807586 
L 377.751091 68.944759 
L 379.141943 67.51092 
L 381.446717 66.087368 
L 382.663816 64.657471 
L 385.439539 62.955772 
L 386.268048 61.816229 
L 387.35345 61.26225 
L 389.132553 60.415062 
L 389.434215 60.125496 
L 389.8793 58.985406 
L 390.305759 58.711778 
L 393.291571 57.598526 
L 393.607731 57.305756 
L 393.589225 57.0107 
L 393.143642 56.433751 
L 393.132015 56.15924 
L 393.534863 55.893688 
L 394.451835 55.631866 
L 398.42645 54.792235 
L 398.487273 54.483548 
L 397.139754 54.175313 
L 394.468108 53.893611 
L 391.220577 53.676019 
L 387.617312 53.568 
L 381.117116 53.617727 
L 370.359778 53.869634 
L 359.413609 54.357824 
L 352.897798 55.100644 
L 353.274811 56.097043 
L 356.842929 57.325337 
L 360.11409 58.744669 
L 363.052859 60.299304 
L 365.579487 61.92378 
L 374.555489 69.041746 
L 374.891412 70.058938 
L 373.852953 70.968908 
L 370.897074 71.821163 
L 365.353983 72.673265 
L 357.683024 73.581394 
L 350.118097 74.590081 
L 344.63526 75.724922 
L 342.0578 76.987144 
L 341.833772 78.353967 
L 343.075828 79.782798 
L 348.40877 83.919605 
L 349.485029 85.118396 
L 349.49132 86.212453 
L 347.91068 87.228302 
L 344.332013 88.208967 
L 326.777617 91.400176 
L 323.639324 92.637443 
L 322.705531 93.954875 
L 323.415107 95.319026 
L 327.336157 99.282369 
L 327.716321 100.466353 
L 326.99648 101.57794 
L 324.887208 102.641216 
L 321.314623 103.690219 
L 312.293992 105.877742 
L 308.934871 107.057346 
L 307.078273 108.296576 
L 306.499308 109.579241 
L 306.681049 110.880238 
L 307.118077 112.172391 
L 307.416629 113.433243 
L 307.293273 114.64987 
L 306.518901 115.821037 
L 304.954662 116.956232 
L 302.614826 118.072204 
L 293.953374 121.483129 
L 291.828417 122.676623 
L 290.350951 123.898021 
L 289.383367 125.137723 
L 287.456533 128.846026 
L 286.564698 130.048522 
L 285.370877 131.229699 
L 283.838591 132.393524 
L 281.989506 133.547049 
L 277.674901 135.856904 
L 273.406949 138.215184 
L 271.634128 139.418837 
L 270.158771 140.635427 
L 268.943492 141.858862 
L 265.886901 145.498074 
L 264.660031 146.683988 
L 263.161526 147.855697 
L 261.352146 149.018062 
L 252.885617 153.712503 
L 251.221933 154.917908 
L 249.884809 156.132588 
L 245.515702 160.951383 
L 243.996572 162.127286 
L 242.17925 163.29546 
L 235.958132 166.816184 
L 234.14103 168.009364 
L 232.603917 169.212154 
L 230.148567 171.627876 
L 227.728638 174.024156 
L 226.272994 175.209239 
L 222.757882 177.56297 
L 218.965836 179.920138 
L 215.62056 182.29776 
L 208.307021 188.256133 
L 200.151337 194.17649 
L 195.550066 197.722373 
L 185.759146 204.824961 
L 180.058842 209.546182 
L 176.582986 211.88457 
L 172.897381 214.232672 
L 169.681747 216.602275 
L 167.330993 218.977796 
L 164.983708 221.333487 
L 163.575939 222.501332 
L 160.234317 224.829623 
L 156.773169 227.172895 
L 155.27086 228.354766 
L 152.842965 230.729389 
L 150.637462 233.093254 
L 149.346299 234.265227 
L 147.85098 235.431762 
L 141.056919 240.113941 
L 139.670115 241.298976 
L 137.371882 243.674048 
L 135.016386 246.033014 
L 133.588431 247.203863 
L 130.212524 249.540948 
L 126.865324 251.89446 
L 125.4542 253.079941 
L 123.152677 255.455429 
L 122.066866 256.637668 
L 120.811689 257.813248 
L 119.136643 258.98282 
L 115.186886 261.317846 
L 111.23676 263.673213 
L 109.59726 264.861504 
L 106.996149 267.241789 
L 105.781693 268.423459 
L 104.409854 269.595082 
L 102.747811 270.757521 
L 100.776008 271.915046 
L 94.191757 275.421498 
L 92.471054 276.613024 
L 91.183969 277.811362 
L 88.255879 281.365073 
L 86.785817 282.518306 
L 84.745394 283.66044 
L 76.569843 287.137082 
L 74.630586 288.340655 
L 73.832727 289.558406 
L 74.338177 290.765512 
L 75.973897 291.924819 
L 78.508552 292.990388 
L 81.531645 293.913937 
L 84.990291 294.65153 
L 90.084538 295.449137 
L 94.06003 295.488 
L 100.69983 295.30043 
L 106.726852 294.915418 
L 107.002909 294.373872 
L 100.736224 293.725162 
L 95.09464 293.023936 
L 91.471702 292.326039 
L 88.799437 291.684696 
L 87.144124 291.14518 
L 86.368511 290.739827 
L 84.464132 290.482912 
L 77.782415 290.362891 
L 81.263336 290.42143 
L 96.941167 290.482065 
L 102.133259 290.369498 
L 106.350428 290.113283 
L 109.89292 289.710654 
L 108.267011 289.188515 
L 95.954298 288.005801 
L 92.84024 287.475338 
L 91.556674 287.056713 
L 90.050716 286.773346 
L 85.694811 286.551073 
L 99.386132 286.453831 
L 105.548541 286.305051 
L 109.72455 286.038681 
L 112.075489 285.650683 
L 109.92044 285.165662 
L 100.066333 284.099479 
L 97.648299 283.626191 
L 96.37631 283.245742 
L 93.272272 282.785158 
L 94.350325 282.657492 
L 104.787974 282.39275 
L 108.994654 282.176691 
L 111.414243 281.877503 
L 111.648003 281.49958 
L 109.474597 281.065177 
L 104.13645 280.162545 
L 101.674574 279.417688 
L 101.014743 279.137957 
L 101.141844 278.909092 
L 102.779937 278.70892 
L 111.212879 278.029757 
L 112.570249 277.721537 
L 112.725637 277.3693 
L 111.919064 276.98569 
L 108.626146 275.832728 
L 108.077682 275.500181 
L 107.916232 275.203986 
L 108.303305 274.938674 
L 109.434274 274.692309 
L 114.964563 273.916758 
L 116.165009 273.608539 
L 116.638193 273.271093 
L 116.409478 272.911854 
L 114.084124 271.503371 
L 114.097067 271.204642 
L 114.590531 270.927868 
L 117.136882 270.400165 
L 120.084365 269.832927 
L 120.932537 269.517801 
L 121.170505 269.183224 
L 120.975193 268.836353 
L 119.83852 267.818526 
L 119.854813 267.50989 
L 120.245935 267.217856 
L 120.995982 266.937096 
L 124.338307 266.085454 
L 125.106761 265.779541 
L 125.520288 265.460859 
L 125.625631 265.133255 
L 125.451109 264.153123 
L 125.586415 263.842034 
L 125.924472 263.54086 
L 127.152568 262.958231 
L 129.352955 262.078729 
L 130.2931 261.463377 
L 130.807692 260.831956 
L 131.401325 259.89655 
L 132.120612 259.298239 
L 133.228718 258.71472 
L 135.633022 257.523259 
L 136.241372 256.90203 
L 136.724845 255.979343 
L 137.454342 255.390494 
L 140.467215 253.926085 
L 140.97071 253.312354 
L 141.384885 252.39953 
L 142.110932 251.813192 
L 144.765608 250.344491 
L 145.278525 249.736082 
L 145.70301 249.129653 
L 146.384796 248.533181 
L 149.373779 246.441761 
L 151.51784 244.619406 
L 156.342452 240.653245 
L 157.031517 240.045997 
L 160.027828 237.910516 
L 161.152456 236.682514 
L 162.55133 235.779232 
L 163.900066 234.864393 
L 166.688547 232.413609 
L 168.33699 231.191915 
L 171.989398 228.125145 
L 192.558267 211.612833 
L 194.551158 210.129164 
L 196.425409 208.648047 
L 198.507456 207.16252 
L 200.764284 205.373782 
L 202.824644 203.876847 
L 204.707652 202.374332 
L 207.137636 200.566889 
L 209.118732 199.057402 
L 211.077158 197.542952 
L 213.079681 196.032835 
L 215.041084 194.517825 
L 216.585685 193.310196 
L 219.009906 191.49664 
L 220.510155 190.29024 
L 223.32928 188.18059 
L 224.863525 186.977391 
L 227.242289 185.174306 
L 229.190664 183.678005 
L 231.123271 182.183229 
L 233.059985 180.69759 
L 234.991575 179.213543 
L 236.893082 177.73846 
L 238.847036 176.265224 
L 240.721936 174.797307 
L 242.691769 173.330177 
L 242.691769 173.330177 
" clip-path="url(#p2b1818f7e9)" style="fill: none; stroke: #1f77b4; stroke-width: 1.5; stroke-linecap: square"/>
   </g>
   <g id="line2d_38">
    <path d="M 245.288154 173.293459 
L 246.915566 172.12055 
L 248.424835 170.949776 
L 249.754194 169.774909 
L 252.420719 167.721253 
L 253.806559 166.543386 
L 255.690039 165.071569 
L 257.372636 163.592311 
L 259.303876 162.114028 
L 261.298873 160.330303 
L 263.121426 158.84465 
L 264.399579 157.650482 
L 266.588579 155.863609 
L 268.179809 154.370807 
L 270.043384 152.883449 
L 271.631082 151.393494 
L 273.857989 149.612907 
L 275.174915 148.424508 
L 277.76721 146.353803 
L 279.164429 145.17139 
L 281.069705 143.699659 
L 282.776381 142.227374 
L 285.008018 140.471034 
L 286.385505 139.301024 
L 288.62606 137.55408 
L 289.989308 136.388904 
L 292.579756 134.359743 
L 293.98561 133.199597 
L 295.858042 131.75382 
L 297.558868 130.303966 
L 299.761538 128.566076 
L 301.131956 127.403188 
L 303.32839 125.661052 
L 304.628143 124.493437 
L 306.81289 122.744384 
L 308.440898 121.280468 
L 310.24956 119.817939 
L 311.830346 118.349102 
L 313.947017 116.588947 
L 315.24839 115.412469 
L 317.373162 113.652858 
L 318.655022 112.477256 
L 321.146792 110.429328 
L 322.506884 109.258033 
L 324.366777 107.801327 
L 326.030501 106.343036 
L 328.267298 104.603277 
L 329.605952 103.442459 
L 331.875439 101.71076 
L 333.165714 100.554374 
L 335.755878 98.543075 
L 337.082537 97.393165 
L 339.001224 95.963027 
L 340.621151 94.529275 
L 342.563878 93.103058 
L 344.513116 91.384253 
L 346.065967 90.242841 
L 347.945748 88.520575 
L 349.57033 87.377557 
L 351.760298 85.364221 
L 353.280315 84.217384 
L 354.689943 82.77244 
L 356.662823 81.335907 
L 358.366884 79.599915 
L 360.017322 78.450574 
L 361.679695 76.710902 
L 363.401315 75.562489 
L 363.908729 74.983912 
L 364.606738 74.113273 
L 365.447681 73.538289 
L 366.843609 72.680792 
L 367.377186 72.104318 
L 367.966412 71.234804 
L 368.776834 70.660973 
L 370.6544 69.521605 
L 371.04642 68.944759 
L 371.391974 68.366256 
L 372.171406 67.794039 
L 374.239917 66.661958 
L 374.617858 66.087368 
L 374.837518 65.5095 
L 375.108679 65.222759 
L 376.144485 64.657471 
L 377.89557 63.816416 
L 378.172086 63.532048 
L 378.264078 62.955772 
L 378.288926 62.66671 
L 378.464983 62.379714 
L 378.86811 62.096121 
L 380.261027 61.53898 
L 381.623961 60.983745 
L 381.962765 60.701488 
L 382.020348 60.415062 
L 381.696909 59.547095 
L 381.990236 59.263538 
L 382.639626 58.985406 
L 385.449849 58.165195 
L 385.947032 57.885361 
L 385.97195 57.598526 
L 385.580967 57.305756 
L 384.53177 56.718425 
L 384.530354 56.433751 
L 385.209159 56.15924 
L 388.389685 55.631866 
L 390.152046 55.365788 
L 391.224576 55.087429 
L 390.954013 54.792235 
L 388.830661 54.483548 
L 384.621828 54.175313 
L 378.449887 53.893611 
L 370.797464 53.676019 
L 362.439853 53.568 
L 354.322911 53.617727 
L 347.414523 53.869634 
L 342.560527 54.357824 
L 340.369184 55.100644 
L 341.137149 56.097043 
L 344.818936 57.325337 
L 351.033194 58.744669 
L 368.087659 61.92378 
L 376.916369 63.550323 
L 384.44236 65.116413 
L 389.602476 66.571615 
L 391.564816 67.883484 
L 389.881494 69.041746 
L 384.6108 70.058938 
L 376.372193 70.968908 
L 346.794996 73.581394 
L 340.387032 74.590081 
L 337.605565 75.724922 
L 338.661593 76.987144 
L 342.979827 78.353967 
L 355.931391 81.220222 
L 361.139985 82.613066 
L 363.5269 83.919605 
L 362.356974 85.118396 
L 357.721652 86.212453 
L 350.504412 87.228302 
L 334.319557 89.204132 
L 328.450166 90.258158 
L 325.446261 91.400176 
L 325.466119 92.637443 
L 327.923837 93.954875 
L 335.341583 96.687456 
L 337.663596 98.018584 
L 337.819712 99.282369 
L 335.599562 100.466353 
L 331.412197 101.57794 
L 320.835323 103.690219 
L 316.505362 104.759935 
L 313.786758 105.877742 
L 312.850313 107.057346 
L 313.394295 108.296576 
L 316.180159 110.880238 
L 316.905274 112.172391 
L 316.470384 113.433243 
L 314.739097 114.64987 
L 311.905218 115.821037 
L 301.502134 119.188277 
L 298.951406 120.321519 
L 297.26235 121.483129 
L 296.378163 122.676623 
L 296.086567 123.898021 
L 296.078814 126.383313 
L 295.786136 127.622569 
L 295.02687 128.846026 
L 293.712146 130.048522 
L 291.850523 131.229699 
L 289.539343 132.393524 
L 281.832004 135.856904 
L 279.757663 137.027874 
L 278.222644 138.215184 
L 277.263184 139.418837 
L 276.785813 140.635427 
L 276.339541 143.081658 
L 275.772294 144.296539 
L 274.638979 145.498074 
L 272.841889 146.683988 
L 270.455919 147.855697 
L 264.962926 150.178218 
L 262.543309 151.343763 
L 260.720454 152.520848 
L 259.59425 153.712503 
L 259.072239 154.917908 
L 258.715011 157.349671 
L 258.190586 158.561829 
L 257.090773 159.763277 
L 255.354987 160.951383 
L 253.104607 162.127286 
L 248.152793 164.462343 
L 246.038652 165.63437 
L 244.410737 166.816184 
L 243.267365 168.009364 
L 240.964767 171.627876 
L 239.866666 172.830231 
L 238.42834 174.024156 
L 234.866706 176.387594 
L 231.402274 178.739439 
L 229.959285 179.920138 
L 224.887769 184.686818 
L 217.527357 190.624313 
L 213.915472 194.17649 
L 212.473353 195.359911 
L 208.993556 197.722373 
L 205.414662 200.082372 
L 203.949092 201.264567 
L 202.794995 202.449456 
L 200.196082 206.011843 
L 199.008732 207.195083 
L 197.437001 208.373197 
L 193.373051 210.715673 
L 191.258045 211.88457 
L 189.392124 213.056076 
L 187.927367 214.232672 
L 186.884596 215.415148 
L 184.630839 218.977796 
L 183.409508 220.159163 
L 181.74012 221.333487 
L 177.497211 223.665396 
L 175.386014 224.829623 
L 173.592892 225.997943 
L 172.231513 227.172895 
L 171.265305 228.354766 
L 169.750627 230.729389 
L 168.718071 231.914329 
L 167.283236 233.093254 
L 165.45014 234.265227 
L 159.369683 237.762831 
L 157.850035 238.934907 
L 156.71423 240.113941 
L 154.982988 242.487005 
L 153.927339 243.674048 
L 152.50775 244.856608 
L 150.704128 246.033014 
L 144.711615 249.540948 
L 143.260617 250.714587 
L 142.238731 251.89446 
L 140.820248 254.268276 
L 139.885448 255.455429 
L 138.499601 256.637668 
L 136.615613 257.813248 
L 129.992315 261.317846 
L 128.449056 262.491689 
L 127.51262 263.673213 
L 127.05582 264.861504 
L 126.768246 266.052811 
L 126.257263 267.241789 
L 125.185093 268.423459 
L 123.394533 269.595082 
L 120.977706 270.757521 
L 115.700032 273.074323 
L 113.734023 274.241829 
L 112.619287 275.421498 
L 112.327635 276.613024 
L 112.69376 279.008291 
L 112.235324 280.194852 
L 110.73499 281.365073 
L 108.092738 282.518306 
L 97.909609 285.958326 
L 96.401547 287.137082 
L 97.008969 288.340655 
L 99.940998 289.558406 
L 104.950172 290.765512 
L 111.391041 291.924819 
L 124.949818 293.913937 
L 135.361352 295.449137 
L 134.687782 295.488 
L 127.276617 294.915418 
L 104.391518 293.023936 
L 80.514345 291.14518 
L 76.843526 290.739827 
L 76.874546 290.482912 
L 80.900003 290.36714 
L 98.48323 290.42143 
L 118.317207 290.482065 
L 124.298892 290.369498 
L 125.829079 290.113283 
L 122.637935 289.710654 
L 106.115312 288.598468 
L 89.364693 287.475338 
L 85.887241 287.056713 
L 86.987799 286.773346 
L 92.326744 286.617221 
L 122.972342 286.305051 
L 124.312901 286.038681 
L 121.865811 285.650683 
L 99.76499 283.626191 
L 98.539227 283.245742 
L 100.343227 282.969888 
L 104.566967 282.785158 
L 119.661326 282.39275 
L 121.75616 282.176691 
L 121.565346 281.877503 
L 119.429331 281.49958 
L 109.757155 280.162545 
L 108.313087 279.760025 
L 108.548153 279.417688 
L 110.361766 279.137957 
L 116.775543 278.70892 
L 122.517575 278.290425 
L 123.819925 278.029757 
L 123.829577 277.721537 
L 122.699944 277.3693 
L 116.817082 276.199195 
L 115.723225 275.832728 
L 115.674447 275.500181 
L 116.731541 275.203986 
L 121.24408 274.692309 
L 125.940884 274.195037 
L 127.21025 273.916758 
L 127.43718 273.608539 
L 126.678966 273.271093 
L 122.126902 272.177408 
L 121.412411 271.828281 
L 121.644615 271.503371 
L 122.826087 271.204642 
L 130.410757 270.12599 
L 131.04904 269.832927 
L 130.842302 269.517801 
L 128.803813 268.836353 
L 127.711282 268.487109 
L 127.048411 268.145356 
L 127.025976 267.818526 
L 127.67784 267.50989 
L 130.349017 266.937096 
L 133.04243 266.377882 
L 133.841963 266.085454 
L 134.184287 265.779541 
L 134.141183 265.460859 
L 133.260784 264.474105 
L 133.208616 264.153123 
L 133.405793 263.842034 
L 133.845673 263.54086 
L 135.245101 262.958231 
L 137.545018 262.078729 
L 138.454243 261.463377 
L 138.622493 261.148565 
L 138.534928 260.516319 
L 138.448091 260.203937 
L 138.478143 259.89655 
L 138.721196 259.59477 
L 139.22828 259.298239 
L 140.907055 258.71472 
L 142.685341 258.128003 
L 143.258693 257.828289 
L 143.514718 257.523259 
L 143.47622 257.213872 
L 142.897254 256.282379 
L 143.075266 255.979343 
L 143.58626 255.682264 
L 145.354435 255.101863 
L 147.111562 254.522658 
L 147.628567 254.227091 
L 147.842884 253.926085 
L 147.684764 253.312354 
L 147.596451 253.004565 
L 147.684844 252.69974 
L 148.020926 252.39953 
L 149.340097 251.813192 
L 151.40101 250.941546 
L 151.977702 250.344491 
L 152.4323 249.431842 
L 153.18464 248.830209 
L 155.59719 247.347701 
L 158.634253 244.922661 
L 159.414722 244.013187 
L 160.293455 243.407714 
L 162.474803 242.191569 
L 162.983029 241.576247 
L 163.366802 240.653245 
L 164.10658 240.045997 
L 166.716899 238.529562 
L 167.102966 237.910516 
L 167.405137 237.292156 
L 168.04845 236.682514 
L 170.740766 234.864393 
L 172.307308 233.324218 
L 176.943856 229.65473 
L 178.819862 227.820412 
L 180.984245 226.295247 
L 182.260511 224.767167 
L 183.639817 223.864319 
L 184.85046 222.959986 
L 186.286531 221.44363 
L 189.119343 219.351352 
L 190.096889 218.449111 
L 193.122949 216.065935 
L 194.285925 215.171513 
L 195.900317 213.983718 
L 197.478948 212.499027 
L 200.037075 210.724317 
L 201.635599 209.23867 
L 204.158485 207.461383 
L 205.433635 206.265988 
L 208.549057 203.876847 
L 210.002829 202.674161 
L 211.464003 201.47298 
L 213.213008 199.962697 
L 214.727771 198.755149 
L 216.685359 196.938033 
L 218.257258 195.730617 
L 220.551851 193.611343 
L 222.095956 192.405444 
L 223.637116 190.892032 
L 226.315001 188.784964 
L 227.698207 187.577898 
L 229.603929 186.076737 
L 231.362088 184.57438 
L 233.243899 183.08036 
L 234.523231 181.884931 
L 237.482964 179.510384 
L 238.520424 178.621637 
L 240.842978 176.855216 
L 242.209083 175.676443 
L 245.243669 173.330177 
L 245.243669 173.330177 
" clip-path="url(#p2b1818f7e9)" style="fill: none; stroke: #ff7f0e; stroke-opacity: 0.5; stroke-width: 1.5; stroke-linecap: square"/>
   </g>
   <g id="patch_3">
    <path d="M 57.6 307.584 
L 57.6 41.472 
" style="fill: none; stroke: #000000; stroke-width: 0.8; stroke-linejoin: miter; stroke-linecap: square"/>
   </g>
   <g id="patch_4">
    <path d="M 414.72 307.584 
L 414.72 41.472 
" style="fill: none; stroke: #000000; stroke-width: 0.8; stroke-linejoin: miter; stroke-linecap: square"/>
   </g>
   <g id="patch_5">
    <path d="M 57.6 307.584 
L 414.72 307.584 
" style="fill: none; stroke: #000000; stroke-width: 0.8; stroke-linejoin: miter; stroke-linecap: square"/>
   </g>
   <g id="patch_6">
    <path d="M 57.6 41.472 
L 414.72 41.472 
" style="fill: none; stroke: #000000; stroke-width: 0.8; stroke-linejoin: miter; stroke-linecap: square"/>
   </g>
   <g id="text_21">
    <!-- Compare - Epoch 450 -->
    <g transform="translate(171.234375 35.472) scale(0.12 -0.12)">
     <defs>
      <path id="DejaVuSans-43" d="M 4122 4306 
L 4122 3641 
Q 3803 3938 3442 4084 
Q 3081 4231 2675 4231 
Q 1875 4231 1450 3742 
Q 1025 3253 1025 2328 
Q 1025 1406 1450 917 
Q 1875 428 2675 428 
Q 3081 428 3442 575 
Q 3803 722 4122 1019 
L 4122 359 
Q 3791 134 3420 21 
Q 3050 -91 2638 -91 
Q 1578 -91 968 557 
Q 359 1206 359 2328 
Q 359 3453 968 4101 
Q 1578 4750 2638 4750 
Q 3056 4750 3426 4639 
Q 3797 4528 4122 4306 
z
" transform="scale(0.015625)"/>
      <path id="DejaVuSans-6f" d="M 1959 3097 
Q 1497 3097 1228 2736 
Q 959 2375 959 1747 
Q 959 1119 1226 758 
Q 1494 397 1959 397 
Q 2419 397 2687 759 
Q 2956 1122 2956 1747 
Q 2956 2369 2687 2733 
Q 2419 3097 1959 3097 
z
M 1959 3584 
Q 2709 3584 3137 3096 
Q 3566 2609 3566 1747 
Q 3566 888 3137 398 
Q 2709 -91 1959 -91 
Q 1206 -91 779 398 
Q 353 888 353 1747 
Q 353 2609 779 3096 
Q 1206 3584 1959 3584 
z
" transform="scale(0.015625)"/>
      <path id="DejaVuSans-6d" d="M 3328 2828 
Q 3544 3216 3844 3400 
Q 4144 3584 4550 3584 
Q 5097 3584 5394 3201 
Q 5691 2819 5691 2113 
L 5691 0 
L 5113 0 
L 5113 2094 
Q 5113 2597 4934 2840 
Q 4756 3084 4391 3084 
Q 3944 3084 3684 2787 
Q 3425 2491 3425 1978 
L 3425 0 
L 2847 0 
L 2847 2094 
Q 2847 2600 2669 2842 
Q 2491 3084 2119 3084 
Q 1678 3084 1418 2786 
Q 1159 2488 1159 1978 
L 1159 0 
L 581 0 
L 581 3500 
L 1159 3500 
L 1159 2956 
Q 1356 3278 1631 3431 
Q 1906 3584 2284 3584 
Q 2666 3584 2933 3390 
Q 3200 3197 3328 2828 
z
" transform="scale(0.015625)"/>
      <path id="DejaVuSans-70" d="M 1159 525 
L 1159 -1331 
L 581 -1331 
L 581 3500 
L 1159 3500 
L 1159 2969 
Q 1341 3281 1617 3432 
Q 1894 3584 2278 3584 
Q 2916 3584 3314 3078 
Q 3713 2572 3713 1747 
Q 3713 922 3314 415 
Q 2916 -91 2278 -91 
Q 1894 -91 1617 61 
Q 1341 213 1159 525 
z
M 3116 1747 
Q 3116 2381 2855 2742 
Q 2594 3103 2138 3103 
Q 1681 3103 1420 2742 
Q 1159 2381 1159 1747 
Q 1159 1113 1420 752 
Q 1681 391 2138 391 
Q 2594 391 2855 752 
Q 3116 1113 3116 1747 
z
" transform="scale(0.015625)"/>
      <path id="DejaVuSans-72" d="M 2631 2963 
Q 2534 3019 2420 3045 
Q 2306 3072 2169 3072 
Q 1681 3072 1420 2755 
Q 1159 2438 1159 1844 
L 1159 0 
L 581 0 
L 581 3500 
L 1159 3500 
L 1159 2956 
Q 1341 3275 1631 3429 
Q 1922 3584 2338 3584 
Q 2397 3584 2469 3576 
Q 2541 3569 2628 3553 
L 2631 2963 
z
" transform="scale(0.015625)"/>
      <path id="DejaVuSans-20" transform="scale(0.015625)"/>
      <path id="DejaVuSans-2d" d="M 313 2009 
L 1997 2009 
L 1997 1497 
L 313 1497 
L 313 2009 
z
" transform="scale(0.015625)"/>
      <path id="DejaVuSans-45" d="M 628 4666 
L 3578 4666 
L 3578 4134 
L 1259 4134 
L 1259 2753 
L 3481 2753 
L 3481 2222 
L 1259 2222 
L 1259 531 
L 3634 531 
L 3634 0 
L 628 0 
L 628 4666 
z
" transform="scale(0.015625)"/>
      <path id="DejaVuSans-63" d="M 3122 3366 
L 3122 2828 
Q 2878 2963 2633 3030 
Q 2388 3097 2138 3097 
Q 1578 3097 1268 2742 
Q 959 2388 959 1747 
Q 959 1106 1268 751 
Q 1578 397 2138 397 
Q 2388 397 2633 464 
Q 2878 531 3122 666 
L 3122 134 
Q 2881 22 2623 -34 
Q 2366 -91 2075 -91 
Q 1284 -91 818 406 
Q 353 903 353 1747 
Q 353 2603 823 3093 
Q 1294 3584 2113 3584 
Q 2378 3584 2631 3529 
Q 2884 3475 3122 3366 
z
" transform="scale(0.015625)"/>
      <path id="DejaVuSans-68" d="M 3513 2113 
L 3513 0 
L 2938 0 
L 2938 2094 
Q 2938 2591 2744 2837 
Q 2550 3084 2163 3084 
Q 1697 3084 1428 2787 
Q 1159 2491 1159 1978 
L 1159 0 
L 581 0 
L 581 4863 
L 1159 4863 
L 1159 2956 
Q 1366 3272 1645 3428 
Q 1925 3584 2291 3584 
Q 2894 3584 3203 3211 
Q 3513 2838 3513 2113 
z
" transform="scale(0.015625)"/>
      <path id="DejaVuSans-34" d="M 2419 4116 
L 825 1625 
L 2419 1625 
L 2419 4116 
z
M 2253 4666 
L 3047 4666 
L 3047 1625 
L 3713 1625 
L 3713 1100 
L 3047 1100 
L 3047 0 
L 2419 0 
L 2419 1100 
L 313 1100 
L 313 1709 
L 2253 4666 
z
" transform="scale(0.015625)"/>
     </defs>
     <use xlink:href="#DejaVuSans-43"/>
     <use xlink:href="#DejaVuSans-6f" transform="translate(69.824219 0)"/>
     <use xlink:href="#DejaVuSans-6d" transform="translate(131.005859 0)"/>
     <use xlink:href="#DejaVuSans-70" transform="translate(228.417969 0)"/>
     <use xlink:href="#DejaVuSans-61" transform="translate(291.894531 0)"/>
     <use xlink:href="#DejaVuSans-72" transform="translate(353.173828 0)"/>
     <use xlink:href="#DejaVuSans-65" transform="translate(392.037109 0)"/>
     <use xlink:href="#DejaVuSans-20" transform="translate(453.560547 0)"/>
     <use xlink:href="#DejaVuSans-2d" transform="translate(485.347656 0)"/>
     <use xlink:href="#DejaVuSans-20" transform="translate(521.431641 0)"/>
     <use xlink:href="#DejaVuSans-45" transform="translate(553.21875 0)"/>
     <use xlink:href="#DejaVuSans-70" transform="translate(616.402344 0)"/>
     <use xlink:href="#DejaVuSans-6f" transform="translate(679.878906 0)"/>
     <use xlink:href="#DejaVuSans-63" transform="translate(741.060547 0)"/>
     <use xlink:href="#DejaVuSans-68" transform="translate(796.041016 0)"/>
     <use xlink:href="#DejaVuSans-20" transform="translate(859.419922 0)"/>
     <use xlink:href="#DejaVuSans-34" transform="translate(891.207031 0)"/>
     <use xlink:href="#DejaVuSans-35" transform="translate(954.830078 0)"/>
     <use xlink:href="#DejaVuSans-30" transform="translate(1018.453125 0)"/>
    </g>
   </g>
   <g id="legend_1">
    <g id="patch_7">
     <path d="M 64.6 78.82825 
L 181.128125 78.82825 
Q 183.128125 78.82825 183.128125 76.82825 
L 183.128125 48.472 
Q 183.128125 46.472 181.128125 46.472 
L 64.6 46.472 
Q 62.6 46.472 62.6 48.472 
L 62.6 76.82825 
Q 62.6 78.82825 64.6 78.82825 
z
" style="fill: #ffffff; opacity: 0.8; stroke: #cccccc; stroke-linejoin: miter"/>
    </g>
    <g id="line2d_39">
     <path d="M 66.6 54.570437 
L 76.6 54.570437 
L 86.6 54.570437 
" style="fill: none; stroke: #1f77b4; stroke-width: 1.5; stroke-linecap: square"/>
    </g>
    <g id="text_22">
     <!-- Pred: Sample 1 -->
     <g transform="translate(94.6 58.070437) scale(0.1 -0.1)">
      <defs>
       <path id="DejaVuSans-50" d="M 1259 4147 
L 1259 2394 
L 2053 2394 
Q 2494 2394 2734 2622 
Q 2975 2850 2975 3272 
Q 2975 3691 2734 3919 
Q 2494 4147 2053 4147 
L 1259 4147 
z
M 628 4666 
L 2053 4666 
Q 2838 4666 3239 4311 
Q 3641 3956 3641 3272 
Q 3641 2581 3239 2228 
Q 2838 1875 2053 1875 
L 1259 1875 
L 1259 0 
L 628 0 
L 628 4666 
z
" transform="scale(0.015625)"/>
       <path id="DejaVuSans-3a" d="M 750 794 
L 1409 794 
L 1409 0 
L 750 0 
L 750 794 
z
M 750 3309 
L 1409 3309 
L 1409 2516 
L 750 2516 
L 750 3309 
z
" transform="scale(0.015625)"/>
       <path id="DejaVuSans-53" d="M 3425 4513 
L 3425 3897 
Q 3066 4069 2747 4153 
Q 2428 4238 2131 4238 
Q 1616 4238 1336 4038 
Q 1056 3838 1056 3469 
Q 1056 3159 1242 3001 
Q 1428 2844 1947 2747 
L 2328 2669 
Q 3034 2534 3370 2195 
Q 3706 1856 3706 1288 
Q 3706 609 3251 259 
Q 2797 -91 1919 -91 
Q 1588 -91 1214 -16 
Q 841 59 441 206 
L 441 856 
Q 825 641 1194 531 
Q 1563 422 1919 422 
Q 2459 422 2753 634 
Q 3047 847 3047 1241 
Q 3047 1584 2836 1778 
Q 2625 1972 2144 2069 
L 1759 2144 
Q 1053 2284 737 2584 
Q 422 2884 422 3419 
Q 422 4038 858 4394 
Q 1294 4750 2059 4750 
Q 2388 4750 2728 4690 
Q 3069 4631 3425 4513 
z
" transform="scale(0.015625)"/>
      </defs>
      <use xlink:href="#DejaVuSans-50"/>
      <use xlink:href="#DejaVuSans-72" transform="translate(58.552734 0)"/>
      <use xlink:href="#DejaVuSans-65" transform="translate(97.416016 0)"/>
      <use xlink:href="#DejaVuSans-64" transform="translate(158.939453 0)"/>
      <use xlink:href="#DejaVuSans-3a" transform="translate(222.416016 0)"/>
      <use xlink:href="#DejaVuSans-20" transform="translate(256.107422 0)"/>
      <use xlink:href="#DejaVuSans-53" transform="translate(287.894531 0)"/>
      <use xlink:href="#DejaVuSans-61" transform="translate(351.371094 0)"/>
      <use xlink:href="#DejaVuSans-6d" transform="translate(412.650391 0)"/>
      <use xlink:href="#DejaVuSans-70" transform="translate(510.0625 0)"/>
      <use xlink:href="#DejaVuSans-6c" transform="translate(573.539062 0)"/>
      <use xlink:href="#DejaVuSans-65" transform="translate(601.322266 0)"/>
      <use xlink:href="#DejaVuSans-20" transform="translate(662.845703 0)"/>
      <use xlink:href="#DejaVuSans-31" transform="translate(694.632812 0)"/>
     </g>
    </g>
    <g id="line2d_40">
     <path d="M 66.6 69.248562 
L 76.6 69.248562 
L 86.6 69.248562 
" style="fill: none; stroke: #ff7f0e; stroke-opacity: 0.5; stroke-width: 1.5; stroke-linecap: square"/>
    </g>
    <g id="text_23">
     <!-- Target: Sample 1 -->
     <g transform="translate(94.6 72.748562) scale(0.1 -0.1)">
      <defs>
       <path id="DejaVuSans-54" d="M -19 4666 
L 3928 4666 
L 3928 4134 
L 2272 4134 
L 2272 0 
L 1638 0 
L 1638 4134 
L -19 4134 
L -19 4666 
z
" transform="scale(0.015625)"/>
       <path id="DejaVuSans-67" d="M 2906 1791 
Q 2906 2416 2648 2759 
Q 2391 3103 1925 3103 
Q 1463 3103 1205 2759 
Q 947 2416 947 1791 
Q 947 1169 1205 825 
Q 1463 481 1925 481 
Q 2391 481 2648 825 
Q 2906 1169 2906 1791 
z
M 3481 434 
Q 3481 -459 3084 -895 
Q 2688 -1331 1869 -1331 
Q 1566 -1331 1297 -1286 
Q 1028 -1241 775 -1147 
L 775 -588 
Q 1028 -725 1275 -790 
Q 1522 -856 1778 -856 
Q 2344 -856 2625 -561 
Q 2906 -266 2906 331 
L 2906 616 
Q 2728 306 2450 153 
Q 2172 0 1784 0 
Q 1141 0 747 490 
Q 353 981 353 1791 
Q 353 2603 747 3093 
Q 1141 3584 1784 3584 
Q 2172 3584 2450 3431 
Q 2728 3278 2906 2969 
L 2906 3500 
L 3481 3500 
L 3481 434 
z
" transform="scale(0.015625)"/>
       <path id="DejaVuSans-74" d="M 1172 4494 
L 1172 3500 
L 2356 3500 
L 2356 3053 
L 1172 3053 
L 1172 1153 
Q 1172 725 1289 603 
Q 1406 481 1766 481 
L 2356 481 
L 2356 0 
L 1766 0 
Q 1100 0 847 248 
Q 594 497 594 1153 
L 594 3053 
L 172 3053 
L 172 3500 
L 594 3500 
L 594 4494 
L 1172 4494 
z
" transform="scale(0.015625)"/>
      </defs>
      <use xlink:href="#DejaVuSans-54"/>
      <use xlink:href="#DejaVuSans-61" transform="translate(44.583984 0)"/>
      <use xlink:href="#DejaVuSans-72" transform="translate(105.863281 0)"/>
      <use xlink:href="#DejaVuSans-67" transform="translate(145.226562 0)"/>
      <use xlink:href="#DejaVuSans-65" transform="translate(208.703125 0)"/>
      <use xlink:href="#DejaVuSans-74" transform="translate(270.226562 0)"/>
      <use xlink:href="#DejaVuSans-3a" transform="translate(309.435547 0)"/>
      <use xlink:href="#DejaVuSans-20" transform="translate(343.126953 0)"/>
      <use xlink:href="#DejaVuSans-53" transform="translate(374.914062 0)"/>
      <use xlink:href="#DejaVuSans-61" transform="translate(438.390625 0)"/>
      <use xlink:href="#DejaVuSans-6d" transform="translate(499.669922 0)"/>
      <use xlink:href="#DejaVuSans-70" transform="translate(597.082031 0)"/>
      <use xlink:href="#DejaVuSans-6c" transform="translate(660.558594 0)"/>
      <use xlink:href="#DejaVuSans-65" transform="translate(688.341797 0)"/>
      <use xlink:href="#DejaVuSans-20" transform="translate(749.865234 0)"/>
      <use xlink:href="#DejaVuSans-31" transform="translate(781.652344 0)"/>
     </g>
    </g>
   </g>
  </g>
 </g>
 <defs>
  <clipPath id="p2b1818f7e9">
   <rect x="57.6" y="41.472" width="357.12" height="266.112"/>
  </clipPath>
 </defs>
</svg>
