<?xml version="1.0" encoding="utf-8" standalone="no"?>
<!DOCTYPE svg PUBLIC "-//W3C//DTD SVG 1.1//EN"
  "http://www.w3.org/Graphics/SVG/1.1/DTD/svg11.dtd">
<svg xmlns:xlink="http://www.w3.org/1999/xlink" width="460.8pt" height="345.6pt" viewBox="0 0 460.8 345.6" xmlns="http://www.w3.org/2000/svg" version="1.1">
 <metadata>
  <rdf:RDF xmlns:dc="http://purl.org/dc/elements/1.1/" xmlns:cc="http://creativecommons.org/ns#" xmlns:rdf="http://www.w3.org/1999/02/22-rdf-syntax-ns#">
   <cc:Work>
    <dc:type rdf:resource="http://purl.org/dc/dcmitype/StillImage"/>
    <dc:date>2025-06-03T11:35:00.757276</dc:date>
    <dc:format>image/svg+xml</dc:format>
    <dc:creator>
     <cc:Agent>
      <dc:title>Matplotlib v3.10.3, https://matplotlib.org/</dc:title>
     </cc:Agent>
    </dc:creator>
   </cc:Work>
  </rdf:RDF>
 </metadata>
 <defs>
  <style type="text/css">*{stroke-linejoin: round; stroke-linecap: butt}</style>
 </defs>
 <g id="figure_1">
  <g id="patch_1">
   <path d="M 0 345.6 
L 460.8 345.6 
L 460.8 0 
L 0 0 
z
" style="fill: #ffffff"/>
  </g>
  <g id="axes_1">
   <g id="patch_2">
    <path d="M 57.6 307.584 
L 414.72 307.584 
L 414.72 41.472 
L 57.6 41.472 
z
" style="fill: #ffffff"/>
   </g>
   <g id="matplotlib.axis_1">
    <g id="xtick_1">
     <g id="line2d_1">
      <path d="M 73.832727 307.584 
L 73.832727 41.472 
" clip-path="url(#p02285558d3)" style="fill: none; stroke: #b0b0b0; stroke-opacity: 0.5; stroke-width: 0.8; stroke-linecap: square"/>
     </g>
     <g id="line2d_2">
      <defs>
       <path id="m7f42143ffa" d="M 0 0 
L 0 3.5 
" style="stroke: #000000; stroke-width: 0.8"/>
      </defs>
      <g>
       <use xlink:href="#m7f42143ffa" x="73.832727" y="307.584" style="stroke: #000000; stroke-width: 0.8"/>
      </g>
     </g>
     <g id="text_1">
      <!-- −1.00 -->
      <g transform="translate(58.510071 322.182437) scale(0.1 -0.1)">
       <defs>
        <path id="DejaVuSans-2212" d="M 678 2272 
L 4684 2272 
L 4684 1741 
L 678 1741 
L 678 2272 
z
" transform="scale(0.015625)"/>
        <path id="DejaVuSans-31" d="M 794 531 
L 1825 531 
L 1825 4091 
L 703 3866 
L 703 4441 
L 1819 4666 
L 2450 4666 
L 2450 531 
L 3481 531 
L 3481 0 
L 794 0 
L 794 531 
z
" transform="scale(0.015625)"/>
        <path id="DejaVuSans-2e" d="M 684 794 
L 1344 794 
L 1344 0 
L 684 0 
L 684 794 
z
" transform="scale(0.015625)"/>
        <path id="DejaVuSans-30" d="M 2034 4250 
Q 1547 4250 1301 3770 
Q 1056 3291 1056 2328 
Q 1056 1369 1301 889 
Q 1547 409 2034 409 
Q 2525 409 2770 889 
Q 3016 1369 3016 2328 
Q 3016 3291 2770 3770 
Q 2525 4250 2034 4250 
z
M 2034 4750 
Q 2819 4750 3233 4129 
Q 3647 3509 3647 2328 
Q 3647 1150 3233 529 
Q 2819 -91 2034 -91 
Q 1250 -91 836 529 
Q 422 1150 422 2328 
Q 422 3509 836 4129 
Q 1250 4750 2034 4750 
z
" transform="scale(0.015625)"/>
       </defs>
       <use xlink:href="#DejaVuSans-2212"/>
       <use xlink:href="#DejaVuSans-31" transform="translate(83.789062 0)"/>
       <use xlink:href="#DejaVuSans-2e" transform="translate(147.412109 0)"/>
       <use xlink:href="#DejaVuSans-30" transform="translate(179.199219 0)"/>
       <use xlink:href="#DejaVuSans-30" transform="translate(242.822266 0)"/>
      </g>
     </g>
    </g>
    <g id="xtick_2">
     <g id="line2d_3">
      <path d="M 115.715389 307.584 
L 115.715389 41.472 
" clip-path="url(#p02285558d3)" style="fill: none; stroke: #b0b0b0; stroke-opacity: 0.5; stroke-width: 0.8; stroke-linecap: square"/>
     </g>
     <g id="line2d_4">
      <g>
       <use xlink:href="#m7f42143ffa" x="115.715389" y="307.584" style="stroke: #000000; stroke-width: 0.8"/>
      </g>
     </g>
     <g id="text_2">
      <!-- −0.75 -->
      <g transform="translate(100.392733 322.182437) scale(0.1 -0.1)">
       <defs>
        <path id="DejaVuSans-37" d="M 525 4666 
L 3525 4666 
L 3525 4397 
L 1831 0 
L 1172 0 
L 2766 4134 
L 525 4134 
L 525 4666 
z
" transform="scale(0.015625)"/>
        <path id="DejaVuSans-35" d="M 691 4666 
L 3169 4666 
L 3169 4134 
L 1269 4134 
L 1269 2991 
Q 1406 3038 1543 3061 
Q 1681 3084 1819 3084 
Q 2600 3084 3056 2656 
Q 3513 2228 3513 1497 
Q 3513 744 3044 326 
Q 2575 -91 1722 -91 
Q 1428 -91 1123 -41 
Q 819 9 494 109 
L 494 744 
Q 775 591 1075 516 
Q 1375 441 1709 441 
Q 2250 441 2565 725 
Q 2881 1009 2881 1497 
Q 2881 1984 2565 2268 
Q 2250 2553 1709 2553 
Q 1456 2553 1204 2497 
Q 953 2441 691 2322 
L 691 4666 
z
" transform="scale(0.015625)"/>
       </defs>
       <use xlink:href="#DejaVuSans-2212"/>
       <use xlink:href="#DejaVuSans-30" transform="translate(83.789062 0)"/>
       <use xlink:href="#DejaVuSans-2e" transform="translate(147.412109 0)"/>
       <use xlink:href="#DejaVuSans-37" transform="translate(179.199219 0)"/>
       <use xlink:href="#DejaVuSans-35" transform="translate(242.822266 0)"/>
      </g>
     </g>
    </g>
    <g id="xtick_3">
     <g id="line2d_5">
      <path d="M 157.598051 307.584 
L 157.598051 41.472 
" clip-path="url(#p02285558d3)" style="fill: none; stroke: #b0b0b0; stroke-opacity: 0.5; stroke-width: 0.8; stroke-linecap: square"/>
     </g>
     <g id="line2d_6">
      <g>
       <use xlink:href="#m7f42143ffa" x="157.598051" y="307.584" style="stroke: #000000; stroke-width: 0.8"/>
      </g>
     </g>
     <g id="text_3">
      <!-- −0.50 -->
      <g transform="translate(142.275394 322.182437) scale(0.1 -0.1)">
       <use xlink:href="#DejaVuSans-2212"/>
       <use xlink:href="#DejaVuSans-30" transform="translate(83.789062 0)"/>
       <use xlink:href="#DejaVuSans-2e" transform="translate(147.412109 0)"/>
       <use xlink:href="#DejaVuSans-35" transform="translate(179.199219 0)"/>
       <use xlink:href="#DejaVuSans-30" transform="translate(242.822266 0)"/>
      </g>
     </g>
    </g>
    <g id="xtick_4">
     <g id="line2d_7">
      <path d="M 199.480712 307.584 
L 199.480712 41.472 
" clip-path="url(#p02285558d3)" style="fill: none; stroke: #b0b0b0; stroke-opacity: 0.5; stroke-width: 0.8; stroke-linecap: square"/>
     </g>
     <g id="line2d_8">
      <g>
       <use xlink:href="#m7f42143ffa" x="199.480712" y="307.584" style="stroke: #000000; stroke-width: 0.8"/>
      </g>
     </g>
     <g id="text_4">
      <!-- −0.25 -->
      <g transform="translate(184.158056 322.182437) scale(0.1 -0.1)">
       <defs>
        <path id="DejaVuSans-32" d="M 1228 531 
L 3431 531 
L 3431 0 
L 469 0 
L 469 531 
Q 828 903 1448 1529 
Q 2069 2156 2228 2338 
Q 2531 2678 2651 2914 
Q 2772 3150 2772 3378 
Q 2772 3750 2511 3984 
Q 2250 4219 1831 4219 
Q 1534 4219 1204 4116 
Q 875 4013 500 3803 
L 500 4441 
Q 881 4594 1212 4672 
Q 1544 4750 1819 4750 
Q 2544 4750 2975 4387 
Q 3406 4025 3406 3419 
Q 3406 3131 3298 2873 
Q 3191 2616 2906 2266 
Q 2828 2175 2409 1742 
Q 1991 1309 1228 531 
z
" transform="scale(0.015625)"/>
       </defs>
       <use xlink:href="#DejaVuSans-2212"/>
       <use xlink:href="#DejaVuSans-30" transform="translate(83.789062 0)"/>
       <use xlink:href="#DejaVuSans-2e" transform="translate(147.412109 0)"/>
       <use xlink:href="#DejaVuSans-32" transform="translate(179.199219 0)"/>
       <use xlink:href="#DejaVuSans-35" transform="translate(242.822266 0)"/>
      </g>
     </g>
    </g>
    <g id="xtick_5">
     <g id="line2d_9">
      <path d="M 241.363374 307.584 
L 241.363374 41.472 
" clip-path="url(#p02285558d3)" style="fill: none; stroke: #b0b0b0; stroke-opacity: 0.5; stroke-width: 0.8; stroke-linecap: square"/>
     </g>
     <g id="line2d_10">
      <g>
       <use xlink:href="#m7f42143ffa" x="241.363374" y="307.584" style="stroke: #000000; stroke-width: 0.8"/>
      </g>
     </g>
     <g id="text_5">
      <!-- 0.00 -->
      <g transform="translate(230.230561 322.182437) scale(0.1 -0.1)">
       <use xlink:href="#DejaVuSans-30"/>
       <use xlink:href="#DejaVuSans-2e" transform="translate(63.623047 0)"/>
       <use xlink:href="#DejaVuSans-30" transform="translate(95.410156 0)"/>
       <use xlink:href="#DejaVuSans-30" transform="translate(159.033203 0)"/>
      </g>
     </g>
    </g>
    <g id="xtick_6">
     <g id="line2d_11">
      <path d="M 283.246035 307.584 
L 283.246035 41.472 
" clip-path="url(#p02285558d3)" style="fill: none; stroke: #b0b0b0; stroke-opacity: 0.5; stroke-width: 0.8; stroke-linecap: square"/>
     </g>
     <g id="line2d_12">
      <g>
       <use xlink:href="#m7f42143ffa" x="283.246035" y="307.584" style="stroke: #000000; stroke-width: 0.8"/>
      </g>
     </g>
     <g id="text_6">
      <!-- 0.25 -->
      <g transform="translate(272.113223 322.182437) scale(0.1 -0.1)">
       <use xlink:href="#DejaVuSans-30"/>
       <use xlink:href="#DejaVuSans-2e" transform="translate(63.623047 0)"/>
       <use xlink:href="#DejaVuSans-32" transform="translate(95.410156 0)"/>
       <use xlink:href="#DejaVuSans-35" transform="translate(159.033203 0)"/>
      </g>
     </g>
    </g>
    <g id="xtick_7">
     <g id="line2d_13">
      <path d="M 325.128697 307.584 
L 325.128697 41.472 
" clip-path="url(#p02285558d3)" style="fill: none; stroke: #b0b0b0; stroke-opacity: 0.5; stroke-width: 0.8; stroke-linecap: square"/>
     </g>
     <g id="line2d_14">
      <g>
       <use xlink:href="#m7f42143ffa" x="325.128697" y="307.584" style="stroke: #000000; stroke-width: 0.8"/>
      </g>
     </g>
     <g id="text_7">
      <!-- 0.50 -->
      <g transform="translate(313.995885 322.182437) scale(0.1 -0.1)">
       <use xlink:href="#DejaVuSans-30"/>
       <use xlink:href="#DejaVuSans-2e" transform="translate(63.623047 0)"/>
       <use xlink:href="#DejaVuSans-35" transform="translate(95.410156 0)"/>
       <use xlink:href="#DejaVuSans-30" transform="translate(159.033203 0)"/>
      </g>
     </g>
    </g>
    <g id="xtick_8">
     <g id="line2d_15">
      <path d="M 367.011359 307.584 
L 367.011359 41.472 
" clip-path="url(#p02285558d3)" style="fill: none; stroke: #b0b0b0; stroke-opacity: 0.5; stroke-width: 0.8; stroke-linecap: square"/>
     </g>
     <g id="line2d_16">
      <g>
       <use xlink:href="#m7f42143ffa" x="367.011359" y="307.584" style="stroke: #000000; stroke-width: 0.8"/>
      </g>
     </g>
     <g id="text_8">
      <!-- 0.75 -->
      <g transform="translate(355.878546 322.182437) scale(0.1 -0.1)">
       <use xlink:href="#DejaVuSans-30"/>
       <use xlink:href="#DejaVuSans-2e" transform="translate(63.623047 0)"/>
       <use xlink:href="#DejaVuSans-37" transform="translate(95.410156 0)"/>
       <use xlink:href="#DejaVuSans-35" transform="translate(159.033203 0)"/>
      </g>
     </g>
    </g>
    <g id="xtick_9">
     <g id="line2d_17">
      <path d="M 408.89402 307.584 
L 408.89402 41.472 
" clip-path="url(#p02285558d3)" style="fill: none; stroke: #b0b0b0; stroke-opacity: 0.5; stroke-width: 0.8; stroke-linecap: square"/>
     </g>
     <g id="line2d_18">
      <g>
       <use xlink:href="#m7f42143ffa" x="408.89402" y="307.584" style="stroke: #000000; stroke-width: 0.8"/>
      </g>
     </g>
     <g id="text_9">
      <!-- 1.00 -->
      <g transform="translate(397.761208 322.182437) scale(0.1 -0.1)">
       <use xlink:href="#DejaVuSans-31"/>
       <use xlink:href="#DejaVuSans-2e" transform="translate(63.623047 0)"/>
       <use xlink:href="#DejaVuSans-30" transform="translate(95.410156 0)"/>
       <use xlink:href="#DejaVuSans-30" transform="translate(159.033203 0)"/>
      </g>
     </g>
    </g>
    <g id="text_10">
     <!-- Index -->
     <g transform="translate(222.393594 335.860562) scale(0.1 -0.1)">
      <defs>
       <path id="DejaVuSans-49" d="M 628 4666 
L 1259 4666 
L 1259 0 
L 628 0 
L 628 4666 
z
" transform="scale(0.015625)"/>
       <path id="DejaVuSans-6e" d="M 3513 2113 
L 3513 0 
L 2938 0 
L 2938 2094 
Q 2938 2591 2744 2837 
Q 2550 3084 2163 3084 
Q 1697 3084 1428 2787 
Q 1159 2491 1159 1978 
L 1159 0 
L 581 0 
L 581 3500 
L 1159 3500 
L 1159 2956 
Q 1366 3272 1645 3428 
Q 1925 3584 2291 3584 
Q 2894 3584 3203 3211 
Q 3513 2838 3513 2113 
z
" transform="scale(0.015625)"/>
       <path id="DejaVuSans-64" d="M 2906 2969 
L 2906 4863 
L 3481 4863 
L 3481 0 
L 2906 0 
L 2906 525 
Q 2725 213 2448 61 
Q 2172 -91 1784 -91 
Q 1150 -91 751 415 
Q 353 922 353 1747 
Q 353 2572 751 3078 
Q 1150 3584 1784 3584 
Q 2172 3584 2448 3432 
Q 2725 3281 2906 2969 
z
M 947 1747 
Q 947 1113 1208 752 
Q 1469 391 1925 391 
Q 2381 391 2643 752 
Q 2906 1113 2906 1747 
Q 2906 2381 2643 2742 
Q 2381 3103 1925 3103 
Q 1469 3103 1208 2742 
Q 947 2381 947 1747 
z
" transform="scale(0.015625)"/>
       <path id="DejaVuSans-65" d="M 3597 1894 
L 3597 1613 
L 953 1613 
Q 991 1019 1311 708 
Q 1631 397 2203 397 
Q 2534 397 2845 478 
Q 3156 559 3463 722 
L 3463 178 
Q 3153 47 2828 -22 
Q 2503 -91 2169 -91 
Q 1331 -91 842 396 
Q 353 884 353 1716 
Q 353 2575 817 3079 
Q 1281 3584 2069 3584 
Q 2775 3584 3186 3129 
Q 3597 2675 3597 1894 
z
M 3022 2063 
Q 3016 2534 2758 2815 
Q 2500 3097 2075 3097 
Q 1594 3097 1305 2825 
Q 1016 2553 972 2059 
L 3022 2063 
z
" transform="scale(0.015625)"/>
       <path id="DejaVuSans-78" d="M 3513 3500 
L 2247 1797 
L 3578 0 
L 2900 0 
L 1881 1375 
L 863 0 
L 184 0 
L 1544 1831 
L 300 3500 
L 978 3500 
L 1906 2253 
L 2834 3500 
L 3513 3500 
z
" transform="scale(0.015625)"/>
      </defs>
      <use xlink:href="#DejaVuSans-49"/>
      <use xlink:href="#DejaVuSans-6e" transform="translate(29.492188 0)"/>
      <use xlink:href="#DejaVuSans-64" transform="translate(92.871094 0)"/>
      <use xlink:href="#DejaVuSans-65" transform="translate(156.347656 0)"/>
      <use xlink:href="#DejaVuSans-78" transform="translate(216.121094 0)"/>
     </g>
    </g>
   </g>
   <g id="matplotlib.axis_2">
    <g id="ytick_1">
     <g id="line2d_19">
      <path d="M 57.6 295.488066 
L 414.72 295.488066 
" clip-path="url(#p02285558d3)" style="fill: none; stroke: #b0b0b0; stroke-opacity: 0.5; stroke-width: 0.8; stroke-linecap: square"/>
     </g>
     <g id="line2d_20">
      <defs>
       <path id="ma8712c1021" d="M 0 0 
L -3.5 0 
" style="stroke: #000000; stroke-width: 0.8"/>
      </defs>
      <g>
       <use xlink:href="#ma8712c1021" x="57.6" y="295.488066" style="stroke: #000000; stroke-width: 0.8"/>
      </g>
     </g>
     <g id="text_11">
      <!-- −1.00 -->
      <g transform="translate(19.954687 299.287284) scale(0.1 -0.1)">
       <use xlink:href="#DejaVuSans-2212"/>
       <use xlink:href="#DejaVuSans-31" transform="translate(83.789062 0)"/>
       <use xlink:href="#DejaVuSans-2e" transform="translate(147.412109 0)"/>
       <use xlink:href="#DejaVuSans-30" transform="translate(179.199219 0)"/>
       <use xlink:href="#DejaVuSans-30" transform="translate(242.822266 0)"/>
      </g>
     </g>
    </g>
    <g id="ytick_2">
     <g id="line2d_21">
      <path d="M 57.6 264.865381 
L 414.72 264.865381 
" clip-path="url(#p02285558d3)" style="fill: none; stroke: #b0b0b0; stroke-opacity: 0.5; stroke-width: 0.8; stroke-linecap: square"/>
     </g>
     <g id="line2d_22">
      <g>
       <use xlink:href="#ma8712c1021" x="57.6" y="264.865381" style="stroke: #000000; stroke-width: 0.8"/>
      </g>
     </g>
     <g id="text_12">
      <!-- −0.75 -->
      <g transform="translate(19.954687 268.6646) scale(0.1 -0.1)">
       <use xlink:href="#DejaVuSans-2212"/>
       <use xlink:href="#DejaVuSans-30" transform="translate(83.789062 0)"/>
       <use xlink:href="#DejaVuSans-2e" transform="translate(147.412109 0)"/>
       <use xlink:href="#DejaVuSans-37" transform="translate(179.199219 0)"/>
       <use xlink:href="#DejaVuSans-35" transform="translate(242.822266 0)"/>
      </g>
     </g>
    </g>
    <g id="ytick_3">
     <g id="line2d_23">
      <path d="M 57.6 234.242696 
L 414.72 234.242696 
" clip-path="url(#p02285558d3)" style="fill: none; stroke: #b0b0b0; stroke-opacity: 0.5; stroke-width: 0.8; stroke-linecap: square"/>
     </g>
     <g id="line2d_24">
      <g>
       <use xlink:href="#ma8712c1021" x="57.6" y="234.242696" style="stroke: #000000; stroke-width: 0.8"/>
      </g>
     </g>
     <g id="text_13">
      <!-- −0.50 -->
      <g transform="translate(19.954687 238.041915) scale(0.1 -0.1)">
       <use xlink:href="#DejaVuSans-2212"/>
       <use xlink:href="#DejaVuSans-30" transform="translate(83.789062 0)"/>
       <use xlink:href="#DejaVuSans-2e" transform="translate(147.412109 0)"/>
       <use xlink:href="#DejaVuSans-35" transform="translate(179.199219 0)"/>
       <use xlink:href="#DejaVuSans-30" transform="translate(242.822266 0)"/>
      </g>
     </g>
    </g>
    <g id="ytick_4">
     <g id="line2d_25">
      <path d="M 57.6 203.620012 
L 414.72 203.620012 
" clip-path="url(#p02285558d3)" style="fill: none; stroke: #b0b0b0; stroke-opacity: 0.5; stroke-width: 0.8; stroke-linecap: square"/>
     </g>
     <g id="line2d_26">
      <g>
       <use xlink:href="#ma8712c1021" x="57.6" y="203.620012" style="stroke: #000000; stroke-width: 0.8"/>
      </g>
     </g>
     <g id="text_14">
      <!-- −0.25 -->
      <g transform="translate(19.954687 207.419231) scale(0.1 -0.1)">
       <use xlink:href="#DejaVuSans-2212"/>
       <use xlink:href="#DejaVuSans-30" transform="translate(83.789062 0)"/>
       <use xlink:href="#DejaVuSans-2e" transform="translate(147.412109 0)"/>
       <use xlink:href="#DejaVuSans-32" transform="translate(179.199219 0)"/>
       <use xlink:href="#DejaVuSans-35" transform="translate(242.822266 0)"/>
      </g>
     </g>
    </g>
    <g id="ytick_5">
     <g id="line2d_27">
      <path d="M 57.6 172.997327 
L 414.72 172.997327 
" clip-path="url(#p02285558d3)" style="fill: none; stroke: #b0b0b0; stroke-opacity: 0.5; stroke-width: 0.8; stroke-linecap: square"/>
     </g>
     <g id="line2d_28">
      <g>
       <use xlink:href="#ma8712c1021" x="57.6" y="172.997327" style="stroke: #000000; stroke-width: 0.8"/>
      </g>
     </g>
     <g id="text_15">
      <!-- 0.00 -->
      <g transform="translate(28.334375 176.796546) scale(0.1 -0.1)">
       <use xlink:href="#DejaVuSans-30"/>
       <use xlink:href="#DejaVuSans-2e" transform="translate(63.623047 0)"/>
       <use xlink:href="#DejaVuSans-30" transform="translate(95.410156 0)"/>
       <use xlink:href="#DejaVuSans-30" transform="translate(159.033203 0)"/>
      </g>
     </g>
    </g>
    <g id="ytick_6">
     <g id="line2d_29">
      <path d="M 57.6 142.374643 
L 414.72 142.374643 
" clip-path="url(#p02285558d3)" style="fill: none; stroke: #b0b0b0; stroke-opacity: 0.5; stroke-width: 0.8; stroke-linecap: square"/>
     </g>
     <g id="line2d_30">
      <g>
       <use xlink:href="#ma8712c1021" x="57.6" y="142.374643" style="stroke: #000000; stroke-width: 0.8"/>
      </g>
     </g>
     <g id="text_16">
      <!-- 0.25 -->
      <g transform="translate(28.334375 146.173861) scale(0.1 -0.1)">
       <use xlink:href="#DejaVuSans-30"/>
       <use xlink:href="#DejaVuSans-2e" transform="translate(63.623047 0)"/>
       <use xlink:href="#DejaVuSans-32" transform="translate(95.410156 0)"/>
       <use xlink:href="#DejaVuSans-35" transform="translate(159.033203 0)"/>
      </g>
     </g>
    </g>
    <g id="ytick_7">
     <g id="line2d_31">
      <path d="M 57.6 111.751958 
L 414.72 111.751958 
" clip-path="url(#p02285558d3)" style="fill: none; stroke: #b0b0b0; stroke-opacity: 0.5; stroke-width: 0.8; stroke-linecap: square"/>
     </g>
     <g id="line2d_32">
      <g>
       <use xlink:href="#ma8712c1021" x="57.6" y="111.751958" style="stroke: #000000; stroke-width: 0.8"/>
      </g>
     </g>
     <g id="text_17">
      <!-- 0.50 -->
      <g transform="translate(28.334375 115.551177) scale(0.1 -0.1)">
       <use xlink:href="#DejaVuSans-30"/>
       <use xlink:href="#DejaVuSans-2e" transform="translate(63.623047 0)"/>
       <use xlink:href="#DejaVuSans-35" transform="translate(95.410156 0)"/>
       <use xlink:href="#DejaVuSans-30" transform="translate(159.033203 0)"/>
      </g>
     </g>
    </g>
    <g id="ytick_8">
     <g id="line2d_33">
      <path d="M 57.6 81.129273 
L 414.72 81.129273 
" clip-path="url(#p02285558d3)" style="fill: none; stroke: #b0b0b0; stroke-opacity: 0.5; stroke-width: 0.8; stroke-linecap: square"/>
     </g>
     <g id="line2d_34">
      <g>
       <use xlink:href="#ma8712c1021" x="57.6" y="81.129273" style="stroke: #000000; stroke-width: 0.8"/>
      </g>
     </g>
     <g id="text_18">
      <!-- 0.75 -->
      <g transform="translate(28.334375 84.928492) scale(0.1 -0.1)">
       <use xlink:href="#DejaVuSans-30"/>
       <use xlink:href="#DejaVuSans-2e" transform="translate(63.623047 0)"/>
       <use xlink:href="#DejaVuSans-37" transform="translate(95.410156 0)"/>
       <use xlink:href="#DejaVuSans-35" transform="translate(159.033203 0)"/>
      </g>
     </g>
    </g>
    <g id="ytick_9">
     <g id="line2d_35">
      <path d="M 57.6 50.506589 
L 414.72 50.506589 
" clip-path="url(#p02285558d3)" style="fill: none; stroke: #b0b0b0; stroke-opacity: 0.5; stroke-width: 0.8; stroke-linecap: square"/>
     </g>
     <g id="line2d_36">
      <g>
       <use xlink:href="#ma8712c1021" x="57.6" y="50.506589" style="stroke: #000000; stroke-width: 0.8"/>
      </g>
     </g>
     <g id="text_19">
      <!-- 1.00 -->
      <g transform="translate(28.334375 54.305807) scale(0.1 -0.1)">
       <use xlink:href="#DejaVuSans-31"/>
       <use xlink:href="#DejaVuSans-2e" transform="translate(63.623047 0)"/>
       <use xlink:href="#DejaVuSans-30" transform="translate(95.410156 0)"/>
       <use xlink:href="#DejaVuSans-30" transform="translate(159.033203 0)"/>
      </g>
     </g>
    </g>
    <g id="text_20">
     <!-- Value -->
     <g transform="translate(13.875 188.25925) rotate(-90) scale(0.1 -0.1)">
      <defs>
       <path id="DejaVuSans-56" d="M 1831 0 
L 50 4666 
L 709 4666 
L 2188 738 
L 3669 4666 
L 4325 4666 
L 2547 0 
L 1831 0 
z
" transform="scale(0.015625)"/>
       <path id="DejaVuSans-61" d="M 2194 1759 
Q 1497 1759 1228 1600 
Q 959 1441 959 1056 
Q 959 750 1161 570 
Q 1363 391 1709 391 
Q 2188 391 2477 730 
Q 2766 1069 2766 1631 
L 2766 1759 
L 2194 1759 
z
M 3341 1997 
L 3341 0 
L 2766 0 
L 2766 531 
Q 2569 213 2275 61 
Q 1981 -91 1556 -91 
Q 1019 -91 701 211 
Q 384 513 384 1019 
Q 384 1609 779 1909 
Q 1175 2209 1959 2209 
L 2766 2209 
L 2766 2266 
Q 2766 2663 2505 2880 
Q 2244 3097 1772 3097 
Q 1472 3097 1187 3025 
Q 903 2953 641 2809 
L 641 3341 
Q 956 3463 1253 3523 
Q 1550 3584 1831 3584 
Q 2591 3584 2966 3190 
Q 3341 2797 3341 1997 
z
" transform="scale(0.015625)"/>
       <path id="DejaVuSans-6c" d="M 603 4863 
L 1178 4863 
L 1178 0 
L 603 0 
L 603 4863 
z
" transform="scale(0.015625)"/>
       <path id="DejaVuSans-75" d="M 544 1381 
L 544 3500 
L 1119 3500 
L 1119 1403 
Q 1119 906 1312 657 
Q 1506 409 1894 409 
Q 2359 409 2629 706 
Q 2900 1003 2900 1516 
L 2900 3500 
L 3475 3500 
L 3475 0 
L 2900 0 
L 2900 538 
Q 2691 219 2414 64 
Q 2138 -91 1772 -91 
Q 1169 -91 856 284 
Q 544 659 544 1381 
z
M 1991 3584 
L 1991 3584 
z
" transform="scale(0.015625)"/>
      </defs>
      <use xlink:href="#DejaVuSans-56"/>
      <use xlink:href="#DejaVuSans-61" transform="translate(60.658203 0)"/>
      <use xlink:href="#DejaVuSans-6c" transform="translate(121.9375 0)"/>
      <use xlink:href="#DejaVuSans-75" transform="translate(149.720703 0)"/>
      <use xlink:href="#DejaVuSans-65" transform="translate(213.099609 0)"/>
     </g>
    </g>
   </g>
   <g id="line2d_37">
    <path d="M 238.369739 173.293459 
L 262.121599 172.999597 
L 236.4408 172.706119 
L 250.68869 172.413127 
L 248.172987 172.12055 
L 248.956797 171.828178 
L 252.601708 169.188648 
L 263.381357 161.519538 
L 275.6555 151.690875 
L 280.824297 147.537378 
L 290.603479 139.885244 
L 295.474267 136.098816 
L 321.712697 116.000208 
L 329.611934 109.550117 
L 334.617338 105.183722 
L 336.89114 103.153499 
L 341.874416 98.830969 
L 347.769518 93.958978 
L 350.820779 91.66981 
L 356.190917 87.663866 
L 357.780676 86.514138 
L 360.032499 84.791887 
L 362.337097 83.060808 
L 364.285219 81.624027 
L 365.841725 80.466713 
L 370.017665 76.999453 
L 371.007208 76.136728 
L 372.859268 74.693361 
L 374.40487 73.252557 
L 376.303992 71.814315 
L 377.791608 70.37635 
L 380.013994 68.655128 
L 381.138852 67.51092 
L 383.417088 65.798189 
L 384.453294 64.657471 
L 387.130744 62.66671 
L 387.560505 62.096121 
L 388.220054 61.53898 
L 390.509294 60.125496 
L 391.582956 58.711778 
L 394.263162 57.305756 
L 394.414744 57.0107 
L 394.427116 56.15924 
L 394.711406 55.893688 
L 395.335586 55.631866 
L 398.257134 54.792235 
L 398.487273 54.483548 
L 397.796099 54.175313 
L 396.139348 53.893611 
L 393.693274 53.676019 
L 389.865582 53.568 
L 384.334446 53.617727 
L 376.72209 53.869634 
L 368.118802 54.357824 
L 361.604304 55.100644 
L 359.570965 56.097043 
L 361.826613 57.325337 
L 364.195538 58.744669 
L 364.919055 60.299304 
L 365.22798 61.92378 
L 366.181155 63.550323 
L 366.887158 65.116413 
L 367.221266 66.571615 
L 368.68221 69.041746 
L 368.819642 70.058938 
L 367.860465 70.968908 
L 365.744485 71.821163 
L 362.7932 72.673265 
L 358.073514 73.581394 
L 352.173749 74.590081 
L 347.228038 75.724922 
L 344.310105 76.987144 
L 342.934218 78.353967 
L 342.598922 79.782798 
L 343.129946 81.220222 
L 343.798233 82.613066 
L 344.222771 83.919605 
L 344.407974 85.118396 
L 343.971603 86.212453 
L 342.543721 87.228302 
L 340.087732 88.208967 
L 336.724391 89.204132 
L 327.704124 91.400176 
L 324.475444 92.637443 
L 322.70193 93.954875 
L 322.223575 95.319026 
L 323.079421 99.282369 
L 322.84479 100.466353 
L 321.953804 101.57794 
L 320.296293 102.641216 
L 317.918077 103.690219 
L 308.478984 107.057346 
L 306.350698 108.296576 
L 305.11111 109.579241 
L 304.512862 110.880238 
L 303.797728 113.433243 
L 303.190803 114.64987 
L 302.223647 115.821037 
L 300.82394 116.956232 
L 298.999595 118.072204 
L 294.413112 120.321519 
L 292.055051 121.483129 
L 289.981426 122.676623 
L 288.300134 123.898021 
L 286.977306 125.137723 
L 284.916697 127.622569 
L 282.827579 130.048522 
L 281.578215 131.229699 
L 280.137936 132.393524 
L 276.690875 134.698769 
L 270.772622 138.215184 
L 268.976766 139.418837 
L 267.373947 140.635427 
L 264.689636 143.081658 
L 262.285223 145.498074 
L 260.98323 146.683988 
L 259.522765 147.855697 
L 256.019445 150.178218 
L 250.151974 153.712503 
L 248.441854 154.917908 
L 246.952526 156.132588 
L 240.408415 162.127286 
L 236.889199 164.462343 
L 231.27646 168.009364 
L 228.230406 170.420175 
L 224.239168 174.024156 
L 221.175904 176.387594 
L 212.635191 182.29776 
L 201.932999 190.624313 
L 197.187159 194.17649 
L 190.994206 198.902095 
L 184.466137 203.636746 
L 180.110546 207.195083 
L 177.172796 209.546182 
L 173.873742 211.88457 
L 168.710061 215.415148 
L 167.158159 216.602275 
L 164.681883 218.977796 
L 162.291734 221.333487 
L 159.480242 223.665396 
L 153.219323 228.354766 
L 150.681482 230.729389 
L 147.099515 234.265227 
L 144.171546 236.596252 
L 139.409421 240.113941 
L 136.75366 242.487005 
L 133.175818 246.033014 
L 130.3304 248.371858 
L 125.586658 251.89446 
L 122.90772 254.268276 
L 119.352466 257.813248 
L 116.052483 260.149567 
L 110.545622 263.673213 
L 108.92344 264.861504 
L 106.18331 267.241789 
L 103.563327 269.595082 
L 102.027551 270.757521 
L 100.27339 271.915046 
L 94.34238 275.421498 
L 92.634692 276.613024 
L 91.234641 277.811362 
L 86.561178 282.518306 
L 84.807925 283.66044 
L 82.624493 284.802772 
L 77.752197 287.137082 
L 75.819094 288.340655 
L 74.69782 289.558406 
L 74.548146 290.765512 
L 75.482659 291.924819 
L 77.689837 292.990388 
L 81.073129 293.913937 
L 84.947254 294.65153 
L 86.811477 295.169603 
L 87.030941 295.449137 
L 89.329527 295.488 
L 93.666804 295.30043 
L 99.063954 294.915418 
L 100.868083 294.373872 
L 93.328622 293.023936 
L 91.520359 292.326039 
L 91.091257 291.684696 
L 92.120224 290.739827 
L 90.410309 290.482912 
L 84.14547 290.362891 
L 93.799004 290.481977 
L 98.883714 290.482065 
L 100.233538 290.369498 
L 104.76183 289.710654 
L 104.490691 289.188515 
L 100.068336 288.598468 
L 96.809144 288.005801 
L 96.439557 287.475338 
L 97.372892 287.056713 
L 96.27775 286.773346 
L 91.697663 286.551073 
L 102.071059 286.453831 
L 104.994834 286.305051 
L 106.764702 286.038681 
L 108.505842 285.650683 
L 107.597452 285.165662 
L 104.166178 284.629942 
L 102.008309 284.099479 
L 101.921454 283.626191 
L 102.367132 283.245742 
L 101.377139 282.969888 
L 99.679516 282.785158 
L 100.128609 282.657492 
L 107.06464 282.39275 
L 109.158122 282.176691 
L 110.421461 281.877503 
L 110.766823 281.49958 
L 109.695787 281.065177 
L 108.219225 280.607513 
L 107.456046 280.162545 
L 107.47349 279.417688 
L 107.184208 279.137957 
L 107.124134 278.909092 
L 108.071249 278.70892 
L 111.652246 278.290425 
L 112.998106 278.029757 
L 113.844826 277.721537 
L 114.108056 277.3693 
L 113.886446 276.98569 
L 113.263244 276.199195 
L 113.317326 275.500181 
L 113.435566 275.203986 
L 113.736751 274.938674 
L 114.439468 274.692309 
L 117.804577 273.916758 
L 118.602027 273.608539 
L 119.039697 273.271093 
L 119.124165 272.911854 
L 119.006544 271.828281 
L 119.351777 271.204642 
L 119.763034 270.927868 
L 121.404857 270.400165 
L 123.277008 269.832927 
L 123.895496 269.517801 
L 124.206728 269.183224 
L 124.360067 268.487109 
L 124.595148 267.818526 
L 124.849731 267.50989 
L 125.811614 266.937096 
L 128.6447 265.779541 
L 129.332548 265.133255 
L 130.00403 264.153123 
L 130.699158 263.54086 
L 132.292551 262.669162 
L 133.896998 261.774028 
L 135.032821 260.831956 
L 136.386369 259.59477 
L 137.7526 258.71472 
L 139.802205 257.523259 
L 140.827887 256.590627 
L 141.813705 255.682264 
L 142.732691 255.101863 
L 144.718208 253.926085 
L 145.59811 253.004565 
L 146.494298 252.104335 
L 147.838041 251.234112 
L 149.144377 250.344491 
L 151.981078 247.942259 
L 153.961203 246.441761 
L 158.550278 242.80162 
L 160.49134 241.267706 
L 162.313063 239.744546 
L 164.421963 238.220612 
L 166.945415 236.080319 
L 169.007837 234.555603 
L 171.192912 232.716747 
L 173.585078 230.884276 
L 177.7668 227.515963 
L 180.792963 225.070662 
L 182.316626 223.864319 
L 184.277329 222.352107 
L 186.450896 220.54762 
L 188.742393 218.749413 
L 190.588811 217.257085 
L 193.567277 214.87427 
L 202.081795 208.352662 
L 204.421864 206.564388 
L 206.827171 204.777705 
L 211.961729 200.869195 
L 217.878442 196.334615 
L 221.022979 193.912866 
L 247.856381 173.330177 
L 247.856381 173.330177 
" clip-path="url(#p02285558d3)" style="fill: none; stroke: #1f77b4; stroke-width: 1.5; stroke-linecap: square"/>
   </g>
   <g id="line2d_38">
    <path d="M 242.524305 173.293459 
L 244.154103 172.12055 
L 245.665584 170.949776 
L 246.996892 169.774909 
L 249.667327 167.721253 
L 251.055198 166.543386 
L 252.94144 165.071569 
L 254.626504 163.592311 
L 256.560575 162.114028 
L 258.558496 160.330303 
L 260.383721 158.84465 
L 261.663749 157.650482 
L 263.855958 155.863609 
L 265.449521 154.370807 
L 267.315828 152.883449 
L 268.905853 151.393494 
L 271.136026 149.612907 
L 272.454882 148.424508 
L 275.050977 146.353803 
L 276.450245 145.17139 
L 278.358314 143.699659 
L 280.067493 142.227374 
L 282.302401 140.471034 
L 283.681907 139.301024 
L 285.925747 137.55408 
L 287.290994 136.388904 
L 289.885239 134.359743 
L 291.293155 133.199597 
L 293.168331 131.75382 
L 294.871651 130.303966 
L 297.077551 128.566076 
L 298.449977 127.403188 
L 300.649631 125.661052 
L 301.95129 124.493437 
L 304.139241 122.744384 
L 305.769635 121.280468 
L 307.580949 119.817939 
L 309.164052 118.349102 
L 311.283826 116.588947 
L 312.587107 115.412469 
L 314.714995 113.652858 
L 315.998734 112.477256 
L 318.494156 110.429328 
L 319.856243 109.258033 
L 321.718863 107.801327 
L 323.385026 106.343036 
L 325.625101 104.603277 
L 326.965719 103.442459 
L 329.238532 101.71076 
L 330.530699 100.554374 
L 333.12466 98.543075 
L 334.453265 97.393165 
L 336.374765 95.963027 
L 337.997066 94.529275 
L 339.942641 93.103058 
L 341.894737 91.384253 
L 343.449865 90.242841 
L 345.332401 88.520575 
L 346.959366 87.377557 
L 349.152544 85.364221 
L 350.67479 84.217384 
L 352.086484 82.77244 
L 354.062256 81.335907 
L 355.768816 79.599915 
L 357.421673 78.450574 
L 359.086483 76.710902 
L 360.810628 75.562489 
L 361.318785 74.983912 
L 362.017817 74.113273 
L 362.859993 73.538289 
L 364.257968 72.680792 
L 364.792328 72.104318 
L 365.382417 71.234804 
L 366.194027 70.660973 
L 368.074346 69.521605 
L 368.46694 68.944759 
L 368.813001 68.366256 
L 369.593576 67.794039 
L 371.66512 66.661958 
L 372.043614 66.087368 
L 372.263597 65.5095 
L 372.535156 65.222759 
L 373.57248 64.657471 
L 375.326132 63.816416 
L 375.603053 63.532048 
L 375.69518 62.955772 
L 375.720064 62.66671 
L 375.89638 62.379714 
L 376.300098 62.096121 
L 377.695057 61.53898 
L 379.059989 60.983745 
L 379.39929 60.701488 
L 379.456957 60.415062 
L 379.133044 59.547095 
L 379.4268 59.263538 
L 380.077143 58.985406 
L 382.891486 58.165195 
L 383.389398 57.885361 
L 383.414352 57.598526 
L 383.022796 57.305756 
L 381.972061 56.718425 
L 381.970643 56.433751 
L 382.650443 56.15924 
L 385.835631 55.631866 
L 387.600577 55.365788 
L 388.674679 55.087429 
L 388.403719 54.792235 
L 386.277255 54.483548 
L 382.062251 54.175313 
L 375.881262 53.893611 
L 368.21762 53.676019 
L 359.847756 53.568 
L 351.718914 53.617727 
L 344.800398 53.869634 
L 339.939286 54.357824 
L 337.74473 55.100644 
L 338.513821 56.097043 
L 342.201005 57.325337 
L 348.424374 58.744669 
L 365.503842 61.92378 
L 374.345496 63.550323 
L 381.88252 65.116413 
L 387.050201 66.571615 
L 389.015417 67.883484 
L 387.329628 69.041746 
L 382.051207 70.058938 
L 373.800521 70.968908 
L 344.179963 73.581394 
L 337.762604 74.590081 
L 334.97706 75.724922 
L 336.034635 76.987144 
L 340.359201 78.353967 
L 353.329752 81.220222 
L 358.545982 82.613066 
L 360.936396 83.919605 
L 359.764755 85.118396 
L 355.122638 86.212453 
L 347.894817 87.228302 
L 331.686234 89.204132 
L 325.808237 90.258158 
L 322.799929 91.400176 
L 322.819816 92.637443 
L 325.281137 93.954875 
L 332.709758 96.687456 
L 335.035176 98.018584 
L 335.19152 99.282369 
L 332.968116 100.466353 
L 328.774611 101.57794 
L 318.182231 103.690219 
L 313.845922 104.759935 
L 311.123332 105.877742 
L 310.185514 107.057346 
L 310.730294 108.296576 
L 313.520242 110.880238 
L 314.24642 112.172391 
L 313.810893 113.433243 
L 312.077067 114.64987 
L 309.239034 115.821037 
L 298.820698 119.188277 
L 296.26623 120.321519 
L 294.574699 121.483129 
L 293.689215 122.676623 
L 293.397191 123.898021 
L 293.389428 126.383313 
L 293.09632 127.622569 
L 292.335941 128.846026 
L 291.019289 130.048522 
L 289.154937 131.229699 
L 286.840369 132.393524 
L 279.121731 135.856904 
L 277.044348 137.027874 
L 275.507079 138.215184 
L 274.546212 139.418837 
L 274.068141 140.635427 
L 273.621216 143.081658 
L 273.053137 144.296539 
L 271.918161 145.498074 
L 270.118435 146.683988 
L 267.728967 147.855697 
L 262.227922 150.178218 
L 259.804757 151.343763 
L 257.97923 152.520848 
L 256.851375 153.712503 
L 256.328599 154.917908 
L 255.970847 157.349671 
L 255.445653 158.561829 
L 254.344228 159.763277 
L 252.605896 160.951383 
L 250.352218 162.127286 
L 245.393144 164.462343 
L 243.275903 165.63437 
L 241.645602 166.816184 
L 240.500553 168.009364 
L 238.194579 171.627876 
L 237.094869 172.830231 
L 235.654434 174.024156 
L 232.087578 176.387594 
L 228.618068 178.739439 
L 227.172963 179.920138 
L 222.094011 184.686818 
L 214.722809 190.624313 
L 211.105629 194.17649 
L 209.661396 195.359911 
L 206.176497 197.722373 
L 202.592356 200.082372 
L 201.124637 201.264567 
L 199.968848 202.449456 
L 197.366126 206.011843 
L 196.177035 207.195083 
L 194.602999 208.373197 
L 190.533091 210.715673 
L 188.414985 211.88457 
L 186.546328 213.056076 
L 185.079423 214.232672 
L 184.035124 215.415148 
L 181.778062 218.977796 
L 180.554941 220.159163 
L 178.883106 221.333487 
L 174.633976 223.665396 
L 172.519684 224.829623 
L 170.723933 225.997943 
L 169.360559 227.172895 
L 168.392934 228.354766 
L 166.876035 230.729389 
L 165.841966 231.914329 
L 164.405028 233.093254 
L 162.569244 234.265227 
L 156.479872 237.762831 
L 154.957996 238.934907 
L 153.820526 240.113941 
L 152.086746 242.487005 
L 151.02955 243.674048 
L 149.607879 244.856608 
L 147.801613 246.033014 
L 141.800315 249.540948 
L 140.34719 250.714587 
L 139.323805 251.89446 
L 137.903243 254.268276 
L 136.967072 255.455429 
L 135.579193 256.637668 
L 133.692443 257.813248 
L 127.059435 261.317846 
L 125.513913 262.491689 
L 124.576105 263.673213 
L 124.118635 264.861504 
L 123.83064 266.052811 
L 123.318908 267.241789 
L 122.245166 268.423459 
L 120.451981 269.595082 
L 118.03161 270.757521 
L 112.746199 273.074323 
L 110.777308 274.241829 
L 109.660937 275.421498 
L 109.368858 276.613024 
L 109.73552 279.008291 
L 109.276411 280.194852 
L 107.773877 281.365073 
L 105.127752 282.518306 
L 94.929694 285.958326 
L 93.419421 287.137082 
L 94.027734 288.340655 
L 96.964061 289.558406 
L 101.980579 290.765512 
L 108.43089 291.924819 
L 122.009545 293.913937 
L 132.436344 295.449137 
L 131.761786 295.488 
L 124.339756 294.915418 
L 101.421106 293.023936 
L 77.508928 291.14518 
L 73.832727 290.739827 
L 73.863792 290.482912 
L 77.895151 290.36714 
L 95.504156 290.42143 
L 115.367211 290.482065 
L 121.357665 290.369498 
L 122.890096 290.113283 
L 119.694273 289.710654 
L 103.147427 288.598468 
L 86.37225 287.475338 
L 82.889701 287.056713 
L 83.991872 286.773346 
L 89.338644 286.617221 
L 120.02917 286.305051 
L 121.371695 286.038681 
L 118.921018 285.650683 
L 96.787795 283.626191 
L 95.560235 283.245742 
L 97.36688 282.969888 
L 101.596812 282.785158 
L 116.7133 282.39275 
L 118.811206 282.176691 
L 118.620111 281.877503 
L 116.480965 281.49958 
L 106.794609 280.162545 
L 105.348424 279.760025 
L 105.583835 279.417688 
L 107.400106 279.137957 
L 113.823287 278.70892 
L 119.573737 278.290425 
L 120.877996 278.029757 
L 120.887663 277.721537 
L 119.756373 277.3693 
L 113.864887 276.199195 
L 112.769426 275.832728 
L 112.720576 275.500181 
L 113.77922 275.203986 
L 118.298375 274.692309 
L 123.002064 274.195037 
L 124.273292 273.916758 
L 124.500554 273.608539 
L 123.741229 273.271093 
L 119.182491 272.177408 
L 118.466952 271.828281 
L 118.699497 271.503371 
L 119.882701 271.204642 
L 127.478491 270.12599 
L 128.11771 269.832927 
L 127.910668 269.517801 
L 125.869191 268.836353 
L 124.775058 268.487109 
L 124.111215 268.145356 
L 124.088748 267.818526 
L 124.741567 267.50989 
L 127.41666 266.937096 
L 130.114022 266.377882 
L 130.914727 266.085454 
L 131.257553 265.779541 
L 131.214385 265.460859 
L 130.332696 264.474105 
L 130.280452 264.153123 
L 130.477917 263.842034 
L 130.918442 263.54086 
L 132.319922 262.958231 
L 134.623211 262.078729 
L 135.533769 261.463377 
L 135.702266 261.148565 
L 135.614572 260.516319 
L 135.527607 260.203937 
L 135.557704 259.89655 
L 135.801113 259.59477 
L 136.308941 259.298239 
L 137.990177 258.71472 
L 139.77107 258.128003 
L 140.345262 257.828289 
L 140.601663 257.523259 
L 140.563108 257.213872 
L 139.983294 256.282379 
L 140.161567 255.979343 
L 140.673309 255.682264 
L 142.444077 255.101863 
L 144.20378 254.522658 
L 144.721543 254.227091 
L 144.936174 253.926085 
L 144.777822 253.312354 
L 144.68938 253.004565 
L 144.777902 252.69974 
L 145.114477 252.39953 
L 146.435582 251.813192 
L 148.499517 250.941546 
L 149.077054 250.344491 
L 149.532318 249.431842 
L 150.285762 248.830209 
L 152.701849 247.347701 
L 155.743364 244.922661 
L 156.524977 244.013187 
L 157.404999 243.407714 
L 159.589545 242.191569 
L 160.098516 241.576247 
L 160.482852 240.653245 
L 161.223714 240.045997 
L 163.83786 238.529562 
L 164.224493 237.910516 
L 164.527107 237.292156 
L 165.171363 236.682514 
L 167.867626 234.864393 
L 169.436464 233.324218 
L 174.07981 229.65473 
L 175.958567 227.820412 
L 178.126122 226.295247 
L 179.40426 224.767167 
L 180.785588 223.864319 
L 181.998005 222.959986 
L 183.436182 221.44363 
L 186.273147 219.351352 
L 187.252126 218.449111 
L 190.282622 216.065935 
L 191.447303 215.171513 
L 193.064062 213.983718 
L 194.645008 212.499027 
L 197.206885 210.724317 
L 198.807752 209.23867 
L 201.334337 207.461383 
L 202.611356 206.265988 
L 205.731346 203.876847 
L 207.18725 202.674161 
L 208.650565 201.47298 
L 210.402135 199.962697 
L 211.919118 198.755149 
L 213.879577 196.938033 
L 215.45378 195.730617 
L 217.751737 193.611343 
L 219.298106 192.405444 
L 220.841526 190.892032 
L 223.523336 188.784964 
L 224.90857 187.577898 
L 226.817086 186.076737 
L 228.577823 184.57438 
L 230.462392 183.08036 
L 231.7436 181.884931 
L 234.707672 179.510384 
L 235.746653 178.621637 
L 238.072612 176.855216 
L 239.44072 175.676443 
L 242.479755 173.330177 
L 242.479755 173.330177 
" clip-path="url(#p02285558d3)" style="fill: none; stroke: #ff7f0e; stroke-opacity: 0.5; stroke-width: 1.5; stroke-linecap: square"/>
   </g>
   <g id="patch_3">
    <path d="M 57.6 307.584 
L 57.6 41.472 
" style="fill: none; stroke: #000000; stroke-width: 0.8; stroke-linejoin: miter; stroke-linecap: square"/>
   </g>
   <g id="patch_4">
    <path d="M 414.72 307.584 
L 414.72 41.472 
" style="fill: none; stroke: #000000; stroke-width: 0.8; stroke-linejoin: miter; stroke-linecap: square"/>
   </g>
   <g id="patch_5">
    <path d="M 57.6 307.584 
L 414.72 307.584 
" style="fill: none; stroke: #000000; stroke-width: 0.8; stroke-linejoin: miter; stroke-linecap: square"/>
   </g>
   <g id="patch_6">
    <path d="M 57.6 41.472 
L 414.72 41.472 
" style="fill: none; stroke: #000000; stroke-width: 0.8; stroke-linejoin: miter; stroke-linecap: square"/>
   </g>
   <g id="text_21">
    <!-- Compare - Epoch 600 -->
    <g transform="translate(171.234375 35.472) scale(0.12 -0.12)">
     <defs>
      <path id="DejaVuSans-43" d="M 4122 4306 
L 4122 3641 
Q 3803 3938 3442 4084 
Q 3081 4231 2675 4231 
Q 1875 4231 1450 3742 
Q 1025 3253 1025 2328 
Q 1025 1406 1450 917 
Q 1875 428 2675 428 
Q 3081 428 3442 575 
Q 3803 722 4122 1019 
L 4122 359 
Q 3791 134 3420 21 
Q 3050 -91 2638 -91 
Q 1578 -91 968 557 
Q 359 1206 359 2328 
Q 359 3453 968 4101 
Q 1578 4750 2638 4750 
Q 3056 4750 3426 4639 
Q 3797 4528 4122 4306 
z
" transform="scale(0.015625)"/>
      <path id="DejaVuSans-6f" d="M 1959 3097 
Q 1497 3097 1228 2736 
Q 959 2375 959 1747 
Q 959 1119 1226 758 
Q 1494 397 1959 397 
Q 2419 397 2687 759 
Q 2956 1122 2956 1747 
Q 2956 2369 2687 2733 
Q 2419 3097 1959 3097 
z
M 1959 3584 
Q 2709 3584 3137 3096 
Q 3566 2609 3566 1747 
Q 3566 888 3137 398 
Q 2709 -91 1959 -91 
Q 1206 -91 779 398 
Q 353 888 353 1747 
Q 353 2609 779 3096 
Q 1206 3584 1959 3584 
z
" transform="scale(0.015625)"/>
      <path id="DejaVuSans-6d" d="M 3328 2828 
Q 3544 3216 3844 3400 
Q 4144 3584 4550 3584 
Q 5097 3584 5394 3201 
Q 5691 2819 5691 2113 
L 5691 0 
L 5113 0 
L 5113 2094 
Q 5113 2597 4934 2840 
Q 4756 3084 4391 3084 
Q 3944 3084 3684 2787 
Q 3425 2491 3425 1978 
L 3425 0 
L 2847 0 
L 2847 2094 
Q 2847 2600 2669 2842 
Q 2491 3084 2119 3084 
Q 1678 3084 1418 2786 
Q 1159 2488 1159 1978 
L 1159 0 
L 581 0 
L 581 3500 
L 1159 3500 
L 1159 2956 
Q 1356 3278 1631 3431 
Q 1906 3584 2284 3584 
Q 2666 3584 2933 3390 
Q 3200 3197 3328 2828 
z
" transform="scale(0.015625)"/>
      <path id="DejaVuSans-70" d="M 1159 525 
L 1159 -1331 
L 581 -1331 
L 581 3500 
L 1159 3500 
L 1159 2969 
Q 1341 3281 1617 3432 
Q 1894 3584 2278 3584 
Q 2916 3584 3314 3078 
Q 3713 2572 3713 1747 
Q 3713 922 3314 415 
Q 2916 -91 2278 -91 
Q 1894 -91 1617 61 
Q 1341 213 1159 525 
z
M 3116 1747 
Q 3116 2381 2855 2742 
Q 2594 3103 2138 3103 
Q 1681 3103 1420 2742 
Q 1159 2381 1159 1747 
Q 1159 1113 1420 752 
Q 1681 391 2138 391 
Q 2594 391 2855 752 
Q 3116 1113 3116 1747 
z
" transform="scale(0.015625)"/>
      <path id="DejaVuSans-72" d="M 2631 2963 
Q 2534 3019 2420 3045 
Q 2306 3072 2169 3072 
Q 1681 3072 1420 2755 
Q 1159 2438 1159 1844 
L 1159 0 
L 581 0 
L 581 3500 
L 1159 3500 
L 1159 2956 
Q 1341 3275 1631 3429 
Q 1922 3584 2338 3584 
Q 2397 3584 2469 3576 
Q 2541 3569 2628 3553 
L 2631 2963 
z
" transform="scale(0.015625)"/>
      <path id="DejaVuSans-20" transform="scale(0.015625)"/>
      <path id="DejaVuSans-2d" d="M 313 2009 
L 1997 2009 
L 1997 1497 
L 313 1497 
L 313 2009 
z
" transform="scale(0.015625)"/>
      <path id="DejaVuSans-45" d="M 628 4666 
L 3578 4666 
L 3578 4134 
L 1259 4134 
L 1259 2753 
L 3481 2753 
L 3481 2222 
L 1259 2222 
L 1259 531 
L 3634 531 
L 3634 0 
L 628 0 
L 628 4666 
z
" transform="scale(0.015625)"/>
      <path id="DejaVuSans-63" d="M 3122 3366 
L 3122 2828 
Q 2878 2963 2633 3030 
Q 2388 3097 2138 3097 
Q 1578 3097 1268 2742 
Q 959 2388 959 1747 
Q 959 1106 1268 751 
Q 1578 397 2138 397 
Q 2388 397 2633 464 
Q 2878 531 3122 666 
L 3122 134 
Q 2881 22 2623 -34 
Q 2366 -91 2075 -91 
Q 1284 -91 818 406 
Q 353 903 353 1747 
Q 353 2603 823 3093 
Q 1294 3584 2113 3584 
Q 2378 3584 2631 3529 
Q 2884 3475 3122 3366 
z
" transform="scale(0.015625)"/>
      <path id="DejaVuSans-68" d="M 3513 2113 
L 3513 0 
L 2938 0 
L 2938 2094 
Q 2938 2591 2744 2837 
Q 2550 3084 2163 3084 
Q 1697 3084 1428 2787 
Q 1159 2491 1159 1978 
L 1159 0 
L 581 0 
L 581 4863 
L 1159 4863 
L 1159 2956 
Q 1366 3272 1645 3428 
Q 1925 3584 2291 3584 
Q 2894 3584 3203 3211 
Q 3513 2838 3513 2113 
z
" transform="scale(0.015625)"/>
      <path id="DejaVuSans-36" d="M 2113 2584 
Q 1688 2584 1439 2293 
Q 1191 2003 1191 1497 
Q 1191 994 1439 701 
Q 1688 409 2113 409 
Q 2538 409 2786 701 
Q 3034 994 3034 1497 
Q 3034 2003 2786 2293 
Q 2538 2584 2113 2584 
z
M 3366 4563 
L 3366 3988 
Q 3128 4100 2886 4159 
Q 2644 4219 2406 4219 
Q 1781 4219 1451 3797 
Q 1122 3375 1075 2522 
Q 1259 2794 1537 2939 
Q 1816 3084 2150 3084 
Q 2853 3084 3261 2657 
Q 3669 2231 3669 1497 
Q 3669 778 3244 343 
Q 2819 -91 2113 -91 
Q 1303 -91 875 529 
Q 447 1150 447 2328 
Q 447 3434 972 4092 
Q 1497 4750 2381 4750 
Q 2619 4750 2861 4703 
Q 3103 4656 3366 4563 
z
" transform="scale(0.015625)"/>
     </defs>
     <use xlink:href="#DejaVuSans-43"/>
     <use xlink:href="#DejaVuSans-6f" transform="translate(69.824219 0)"/>
     <use xlink:href="#DejaVuSans-6d" transform="translate(131.005859 0)"/>
     <use xlink:href="#DejaVuSans-70" transform="translate(228.417969 0)"/>
     <use xlink:href="#DejaVuSans-61" transform="translate(291.894531 0)"/>
     <use xlink:href="#DejaVuSans-72" transform="translate(353.173828 0)"/>
     <use xlink:href="#DejaVuSans-65" transform="translate(392.037109 0)"/>
     <use xlink:href="#DejaVuSans-20" transform="translate(453.560547 0)"/>
     <use xlink:href="#DejaVuSans-2d" transform="translate(485.347656 0)"/>
     <use xlink:href="#DejaVuSans-20" transform="translate(521.431641 0)"/>
     <use xlink:href="#DejaVuSans-45" transform="translate(553.21875 0)"/>
     <use xlink:href="#DejaVuSans-70" transform="translate(616.402344 0)"/>
     <use xlink:href="#DejaVuSans-6f" transform="translate(679.878906 0)"/>
     <use xlink:href="#DejaVuSans-63" transform="translate(741.060547 0)"/>
     <use xlink:href="#DejaVuSans-68" transform="translate(796.041016 0)"/>
     <use xlink:href="#DejaVuSans-20" transform="translate(859.419922 0)"/>
     <use xlink:href="#DejaVuSans-36" transform="translate(891.207031 0)"/>
     <use xlink:href="#DejaVuSans-30" transform="translate(954.830078 0)"/>
     <use xlink:href="#DejaVuSans-30" transform="translate(1018.453125 0)"/>
    </g>
   </g>
   <g id="legend_1">
    <g id="patch_7">
     <path d="M 64.6 78.82825 
L 181.128125 78.82825 
Q 183.128125 78.82825 183.128125 76.82825 
L 183.128125 48.472 
Q 183.128125 46.472 181.128125 46.472 
L 64.6 46.472 
Q 62.6 46.472 62.6 48.472 
L 62.6 76.82825 
Q 62.6 78.82825 64.6 78.82825 
z
" style="fill: #ffffff; opacity: 0.8; stroke: #cccccc; stroke-linejoin: miter"/>
    </g>
    <g id="line2d_39">
     <path d="M 66.6 54.570437 
L 76.6 54.570437 
L 86.6 54.570437 
" style="fill: none; stroke: #1f77b4; stroke-width: 1.5; stroke-linecap: square"/>
    </g>
    <g id="text_22">
     <!-- Pred: Sample 1 -->
     <g transform="translate(94.6 58.070437) scale(0.1 -0.1)">
      <defs>
       <path id="DejaVuSans-50" d="M 1259 4147 
L 1259 2394 
L 2053 2394 
Q 2494 2394 2734 2622 
Q 2975 2850 2975 3272 
Q 2975 3691 2734 3919 
Q 2494 4147 2053 4147 
L 1259 4147 
z
M 628 4666 
L 2053 4666 
Q 2838 4666 3239 4311 
Q 3641 3956 3641 3272 
Q 3641 2581 3239 2228 
Q 2838 1875 2053 1875 
L 1259 1875 
L 1259 0 
L 628 0 
L 628 4666 
z
" transform="scale(0.015625)"/>
       <path id="DejaVuSans-3a" d="M 750 794 
L 1409 794 
L 1409 0 
L 750 0 
L 750 794 
z
M 750 3309 
L 1409 3309 
L 1409 2516 
L 750 2516 
L 750 3309 
z
" transform="scale(0.015625)"/>
       <path id="DejaVuSans-53" d="M 3425 4513 
L 3425 3897 
Q 3066 4069 2747 4153 
Q 2428 4238 2131 4238 
Q 1616 4238 1336 4038 
Q 1056 3838 1056 3469 
Q 1056 3159 1242 3001 
Q 1428 2844 1947 2747 
L 2328 2669 
Q 3034 2534 3370 2195 
Q 3706 1856 3706 1288 
Q 3706 609 3251 259 
Q 2797 -91 1919 -91 
Q 1588 -91 1214 -16 
Q 841 59 441 206 
L 441 856 
Q 825 641 1194 531 
Q 1563 422 1919 422 
Q 2459 422 2753 634 
Q 3047 847 3047 1241 
Q 3047 1584 2836 1778 
Q 2625 1972 2144 2069 
L 1759 2144 
Q 1053 2284 737 2584 
Q 422 2884 422 3419 
Q 422 4038 858 4394 
Q 1294 4750 2059 4750 
Q 2388 4750 2728 4690 
Q 3069 4631 3425 4513 
z
" transform="scale(0.015625)"/>
      </defs>
      <use xlink:href="#DejaVuSans-50"/>
      <use xlink:href="#DejaVuSans-72" transform="translate(58.552734 0)"/>
      <use xlink:href="#DejaVuSans-65" transform="translate(97.416016 0)"/>
      <use xlink:href="#DejaVuSans-64" transform="translate(158.939453 0)"/>
      <use xlink:href="#DejaVuSans-3a" transform="translate(222.416016 0)"/>
      <use xlink:href="#DejaVuSans-20" transform="translate(256.107422 0)"/>
      <use xlink:href="#DejaVuSans-53" transform="translate(287.894531 0)"/>
      <use xlink:href="#DejaVuSans-61" transform="translate(351.371094 0)"/>
      <use xlink:href="#DejaVuSans-6d" transform="translate(412.650391 0)"/>
      <use xlink:href="#DejaVuSans-70" transform="translate(510.0625 0)"/>
      <use xlink:href="#DejaVuSans-6c" transform="translate(573.539062 0)"/>
      <use xlink:href="#DejaVuSans-65" transform="translate(601.322266 0)"/>
      <use xlink:href="#DejaVuSans-20" transform="translate(662.845703 0)"/>
      <use xlink:href="#DejaVuSans-31" transform="translate(694.632812 0)"/>
     </g>
    </g>
    <g id="line2d_40">
     <path d="M 66.6 69.248562 
L 76.6 69.248562 
L 86.6 69.248562 
" style="fill: none; stroke: #ff7f0e; stroke-opacity: 0.5; stroke-width: 1.5; stroke-linecap: square"/>
    </g>
    <g id="text_23">
     <!-- Target: Sample 1 -->
     <g transform="translate(94.6 72.748562) scale(0.1 -0.1)">
      <defs>
       <path id="DejaVuSans-54" d="M -19 4666 
L 3928 4666 
L 3928 4134 
L 2272 4134 
L 2272 0 
L 1638 0 
L 1638 4134 
L -19 4134 
L -19 4666 
z
" transform="scale(0.015625)"/>
       <path id="DejaVuSans-67" d="M 2906 1791 
Q 2906 2416 2648 2759 
Q 2391 3103 1925 3103 
Q 1463 3103 1205 2759 
Q 947 2416 947 1791 
Q 947 1169 1205 825 
Q 1463 481 1925 481 
Q 2391 481 2648 825 
Q 2906 1169 2906 1791 
z
M 3481 434 
Q 3481 -459 3084 -895 
Q 2688 -1331 1869 -1331 
Q 1566 -1331 1297 -1286 
Q 1028 -1241 775 -1147 
L 775 -588 
Q 1028 -725 1275 -790 
Q 1522 -856 1778 -856 
Q 2344 -856 2625 -561 
Q 2906 -266 2906 331 
L 2906 616 
Q 2728 306 2450 153 
Q 2172 0 1784 0 
Q 1141 0 747 490 
Q 353 981 353 1791 
Q 353 2603 747 3093 
Q 1141 3584 1784 3584 
Q 2172 3584 2450 3431 
Q 2728 3278 2906 2969 
L 2906 3500 
L 3481 3500 
L 3481 434 
z
" transform="scale(0.015625)"/>
       <path id="DejaVuSans-74" d="M 1172 4494 
L 1172 3500 
L 2356 3500 
L 2356 3053 
L 1172 3053 
L 1172 1153 
Q 1172 725 1289 603 
Q 1406 481 1766 481 
L 2356 481 
L 2356 0 
L 1766 0 
Q 1100 0 847 248 
Q 594 497 594 1153 
L 594 3053 
L 172 3053 
L 172 3500 
L 594 3500 
L 594 4494 
L 1172 4494 
z
" transform="scale(0.015625)"/>
      </defs>
      <use xlink:href="#DejaVuSans-54"/>
      <use xlink:href="#DejaVuSans-61" transform="translate(44.583984 0)"/>
      <use xlink:href="#DejaVuSans-72" transform="translate(105.863281 0)"/>
      <use xlink:href="#DejaVuSans-67" transform="translate(145.226562 0)"/>
      <use xlink:href="#DejaVuSans-65" transform="translate(208.703125 0)"/>
      <use xlink:href="#DejaVuSans-74" transform="translate(270.226562 0)"/>
      <use xlink:href="#DejaVuSans-3a" transform="translate(309.435547 0)"/>
      <use xlink:href="#DejaVuSans-20" transform="translate(343.126953 0)"/>
      <use xlink:href="#DejaVuSans-53" transform="translate(374.914062 0)"/>
      <use xlink:href="#DejaVuSans-61" transform="translate(438.390625 0)"/>
      <use xlink:href="#DejaVuSans-6d" transform="translate(499.669922 0)"/>
      <use xlink:href="#DejaVuSans-70" transform="translate(597.082031 0)"/>
      <use xlink:href="#DejaVuSans-6c" transform="translate(660.558594 0)"/>
      <use xlink:href="#DejaVuSans-65" transform="translate(688.341797 0)"/>
      <use xlink:href="#DejaVuSans-20" transform="translate(749.865234 0)"/>
      <use xlink:href="#DejaVuSans-31" transform="translate(781.652344 0)"/>
     </g>
    </g>
   </g>
  </g>
 </g>
 <defs>
  <clipPath id="p02285558d3">
   <rect x="57.6" y="41.472" width="357.12" height="266.112"/>
  </clipPath>
 </defs>
</svg>
