<?xml version="1.0" encoding="utf-8" standalone="no"?>
<!DOCTYPE svg PUBLIC "-//W3C//DTD SVG 1.1//EN"
  "http://www.w3.org/Graphics/SVG/1.1/DTD/svg11.dtd">
<svg xmlns:xlink="http://www.w3.org/1999/xlink" width="460.8pt" height="345.6pt" viewBox="0 0 460.8 345.6" xmlns="http://www.w3.org/2000/svg" version="1.1">
 <metadata>
  <rdf:RDF xmlns:dc="http://purl.org/dc/elements/1.1/" xmlns:cc="http://creativecommons.org/ns#" xmlns:rdf="http://www.w3.org/1999/02/22-rdf-syntax-ns#">
   <cc:Work>
    <dc:type rdf:resource="http://purl.org/dc/dcmitype/StillImage"/>
    <dc:date>2025-06-03T10:42:19.682473</dc:date>
    <dc:format>image/svg+xml</dc:format>
    <dc:creator>
     <cc:Agent>
      <dc:title>Matplotlib v3.10.3, https://matplotlib.org/</dc:title>
     </cc:Agent>
    </dc:creator>
   </cc:Work>
  </rdf:RDF>
 </metadata>
 <defs>
  <style type="text/css">*{stroke-linejoin: round; stroke-linecap: butt}</style>
 </defs>
 <g id="figure_1">
  <g id="patch_1">
   <path d="M 0 345.6 
L 460.8 345.6 
L 460.8 0 
L 0 0 
z
" style="fill: #ffffff"/>
  </g>
  <g id="axes_1">
   <g id="patch_2">
    <path d="M 57.6 307.584 
L 414.72 307.584 
L 414.72 41.472 
L 57.6 41.472 
z
" style="fill: #ffffff"/>
   </g>
   <g id="matplotlib.axis_1">
    <g id="xtick_1">
     <g id="line2d_1">
      <path d="M 74.951539 307.584 
L 74.951539 41.472 
" clip-path="url(#pd8aa51719d)" style="fill: none; stroke: #b0b0b0; stroke-opacity: 0.5; stroke-width: 0.8; stroke-linecap: square"/>
     </g>
     <g id="line2d_2">
      <defs>
       <path id="m406da409a2" d="M 0 0 
L 0 3.5 
" style="stroke: #000000; stroke-width: 0.8"/>
      </defs>
      <g>
       <use xlink:href="#m406da409a2" x="74.951539" y="307.584" style="stroke: #000000; stroke-width: 0.8"/>
      </g>
     </g>
     <g id="text_1">
      <!-- −1.00 -->
      <g transform="translate(59.628882 322.182437) scale(0.1 -0.1)">
       <defs>
        <path id="DejaVuSans-2212" d="M 678 2272 
L 4684 2272 
L 4684 1741 
L 678 1741 
L 678 2272 
z
" transform="scale(0.015625)"/>
        <path id="DejaVuSans-31" d="M 794 531 
L 1825 531 
L 1825 4091 
L 703 3866 
L 703 4441 
L 1819 4666 
L 2450 4666 
L 2450 531 
L 3481 531 
L 3481 0 
L 794 0 
L 794 531 
z
" transform="scale(0.015625)"/>
        <path id="DejaVuSans-2e" d="M 684 794 
L 1344 794 
L 1344 0 
L 684 0 
L 684 794 
z
" transform="scale(0.015625)"/>
        <path id="DejaVuSans-30" d="M 2034 4250 
Q 1547 4250 1301 3770 
Q 1056 3291 1056 2328 
Q 1056 1369 1301 889 
Q 1547 409 2034 409 
Q 2525 409 2770 889 
Q 3016 1369 3016 2328 
Q 3016 3291 2770 3770 
Q 2525 4250 2034 4250 
z
M 2034 4750 
Q 2819 4750 3233 4129 
Q 3647 3509 3647 2328 
Q 3647 1150 3233 529 
Q 2819 -91 2034 -91 
Q 1250 -91 836 529 
Q 422 1150 422 2328 
Q 422 3509 836 4129 
Q 1250 4750 2034 4750 
z
" transform="scale(0.015625)"/>
       </defs>
       <use xlink:href="#DejaVuSans-2212"/>
       <use xlink:href="#DejaVuSans-31" transform="translate(83.789062 0)"/>
       <use xlink:href="#DejaVuSans-2e" transform="translate(147.412109 0)"/>
       <use xlink:href="#DejaVuSans-30" transform="translate(179.199219 0)"/>
       <use xlink:href="#DejaVuSans-30" transform="translate(242.822266 0)"/>
      </g>
     </g>
    </g>
    <g id="xtick_2">
     <g id="line2d_3">
      <path d="M 116.761969 307.584 
L 116.761969 41.472 
" clip-path="url(#pd8aa51719d)" style="fill: none; stroke: #b0b0b0; stroke-opacity: 0.5; stroke-width: 0.8; stroke-linecap: square"/>
     </g>
     <g id="line2d_4">
      <g>
       <use xlink:href="#m406da409a2" x="116.761969" y="307.584" style="stroke: #000000; stroke-width: 0.8"/>
      </g>
     </g>
     <g id="text_2">
      <!-- −0.75 -->
      <g transform="translate(101.439313 322.182437) scale(0.1 -0.1)">
       <defs>
        <path id="DejaVuSans-37" d="M 525 4666 
L 3525 4666 
L 3525 4397 
L 1831 0 
L 1172 0 
L 2766 4134 
L 525 4134 
L 525 4666 
z
" transform="scale(0.015625)"/>
        <path id="DejaVuSans-35" d="M 691 4666 
L 3169 4666 
L 3169 4134 
L 1269 4134 
L 1269 2991 
Q 1406 3038 1543 3061 
Q 1681 3084 1819 3084 
Q 2600 3084 3056 2656 
Q 3513 2228 3513 1497 
Q 3513 744 3044 326 
Q 2575 -91 1722 -91 
Q 1428 -91 1123 -41 
Q 819 9 494 109 
L 494 744 
Q 775 591 1075 516 
Q 1375 441 1709 441 
Q 2250 441 2565 725 
Q 2881 1009 2881 1497 
Q 2881 1984 2565 2268 
Q 2250 2553 1709 2553 
Q 1456 2553 1204 2497 
Q 953 2441 691 2322 
L 691 4666 
z
" transform="scale(0.015625)"/>
       </defs>
       <use xlink:href="#DejaVuSans-2212"/>
       <use xlink:href="#DejaVuSans-30" transform="translate(83.789062 0)"/>
       <use xlink:href="#DejaVuSans-2e" transform="translate(147.412109 0)"/>
       <use xlink:href="#DejaVuSans-37" transform="translate(179.199219 0)"/>
       <use xlink:href="#DejaVuSans-35" transform="translate(242.822266 0)"/>
      </g>
     </g>
    </g>
    <g id="xtick_3">
     <g id="line2d_5">
      <path d="M 158.572399 307.584 
L 158.572399 41.472 
" clip-path="url(#pd8aa51719d)" style="fill: none; stroke: #b0b0b0; stroke-opacity: 0.5; stroke-width: 0.8; stroke-linecap: square"/>
     </g>
     <g id="line2d_6">
      <g>
       <use xlink:href="#m406da409a2" x="158.572399" y="307.584" style="stroke: #000000; stroke-width: 0.8"/>
      </g>
     </g>
     <g id="text_3">
      <!-- −0.50 -->
      <g transform="translate(143.249743 322.182437) scale(0.1 -0.1)">
       <use xlink:href="#DejaVuSans-2212"/>
       <use xlink:href="#DejaVuSans-30" transform="translate(83.789062 0)"/>
       <use xlink:href="#DejaVuSans-2e" transform="translate(147.412109 0)"/>
       <use xlink:href="#DejaVuSans-35" transform="translate(179.199219 0)"/>
       <use xlink:href="#DejaVuSans-30" transform="translate(242.822266 0)"/>
      </g>
     </g>
    </g>
    <g id="xtick_4">
     <g id="line2d_7">
      <path d="M 200.382829 307.584 
L 200.382829 41.472 
" clip-path="url(#pd8aa51719d)" style="fill: none; stroke: #b0b0b0; stroke-opacity: 0.5; stroke-width: 0.8; stroke-linecap: square"/>
     </g>
     <g id="line2d_8">
      <g>
       <use xlink:href="#m406da409a2" x="200.382829" y="307.584" style="stroke: #000000; stroke-width: 0.8"/>
      </g>
     </g>
     <g id="text_4">
      <!-- −0.25 -->
      <g transform="translate(185.060173 322.182437) scale(0.1 -0.1)">
       <defs>
        <path id="DejaVuSans-32" d="M 1228 531 
L 3431 531 
L 3431 0 
L 469 0 
L 469 531 
Q 828 903 1448 1529 
Q 2069 2156 2228 2338 
Q 2531 2678 2651 2914 
Q 2772 3150 2772 3378 
Q 2772 3750 2511 3984 
Q 2250 4219 1831 4219 
Q 1534 4219 1204 4116 
Q 875 4013 500 3803 
L 500 4441 
Q 881 4594 1212 4672 
Q 1544 4750 1819 4750 
Q 2544 4750 2975 4387 
Q 3406 4025 3406 3419 
Q 3406 3131 3298 2873 
Q 3191 2616 2906 2266 
Q 2828 2175 2409 1742 
Q 1991 1309 1228 531 
z
" transform="scale(0.015625)"/>
       </defs>
       <use xlink:href="#DejaVuSans-2212"/>
       <use xlink:href="#DejaVuSans-30" transform="translate(83.789062 0)"/>
       <use xlink:href="#DejaVuSans-2e" transform="translate(147.412109 0)"/>
       <use xlink:href="#DejaVuSans-32" transform="translate(179.199219 0)"/>
       <use xlink:href="#DejaVuSans-35" transform="translate(242.822266 0)"/>
      </g>
     </g>
    </g>
    <g id="xtick_5">
     <g id="line2d_9">
      <path d="M 242.193259 307.584 
L 242.193259 41.472 
" clip-path="url(#pd8aa51719d)" style="fill: none; stroke: #b0b0b0; stroke-opacity: 0.5; stroke-width: 0.8; stroke-linecap: square"/>
     </g>
     <g id="line2d_10">
      <g>
       <use xlink:href="#m406da409a2" x="242.193259" y="307.584" style="stroke: #000000; stroke-width: 0.8"/>
      </g>
     </g>
     <g id="text_5">
      <!-- 0.00 -->
      <g transform="translate(231.060447 322.182437) scale(0.1 -0.1)">
       <use xlink:href="#DejaVuSans-30"/>
       <use xlink:href="#DejaVuSans-2e" transform="translate(63.623047 0)"/>
       <use xlink:href="#DejaVuSans-30" transform="translate(95.410156 0)"/>
       <use xlink:href="#DejaVuSans-30" transform="translate(159.033203 0)"/>
      </g>
     </g>
    </g>
    <g id="xtick_6">
     <g id="line2d_11">
      <path d="M 284.00369 307.584 
L 284.00369 41.472 
" clip-path="url(#pd8aa51719d)" style="fill: none; stroke: #b0b0b0; stroke-opacity: 0.5; stroke-width: 0.8; stroke-linecap: square"/>
     </g>
     <g id="line2d_12">
      <g>
       <use xlink:href="#m406da409a2" x="284.00369" y="307.584" style="stroke: #000000; stroke-width: 0.8"/>
      </g>
     </g>
     <g id="text_6">
      <!-- 0.25 -->
      <g transform="translate(272.870877 322.182437) scale(0.1 -0.1)">
       <use xlink:href="#DejaVuSans-30"/>
       <use xlink:href="#DejaVuSans-2e" transform="translate(63.623047 0)"/>
       <use xlink:href="#DejaVuSans-32" transform="translate(95.410156 0)"/>
       <use xlink:href="#DejaVuSans-35" transform="translate(159.033203 0)"/>
      </g>
     </g>
    </g>
    <g id="xtick_7">
     <g id="line2d_13">
      <path d="M 325.81412 307.584 
L 325.81412 41.472 
" clip-path="url(#pd8aa51719d)" style="fill: none; stroke: #b0b0b0; stroke-opacity: 0.5; stroke-width: 0.8; stroke-linecap: square"/>
     </g>
     <g id="line2d_14">
      <g>
       <use xlink:href="#m406da409a2" x="325.81412" y="307.584" style="stroke: #000000; stroke-width: 0.8"/>
      </g>
     </g>
     <g id="text_7">
      <!-- 0.50 -->
      <g transform="translate(314.681307 322.182437) scale(0.1 -0.1)">
       <use xlink:href="#DejaVuSans-30"/>
       <use xlink:href="#DejaVuSans-2e" transform="translate(63.623047 0)"/>
       <use xlink:href="#DejaVuSans-35" transform="translate(95.410156 0)"/>
       <use xlink:href="#DejaVuSans-30" transform="translate(159.033203 0)"/>
      </g>
     </g>
    </g>
    <g id="xtick_8">
     <g id="line2d_15">
      <path d="M 367.62455 307.584 
L 367.62455 41.472 
" clip-path="url(#pd8aa51719d)" style="fill: none; stroke: #b0b0b0; stroke-opacity: 0.5; stroke-width: 0.8; stroke-linecap: square"/>
     </g>
     <g id="line2d_16">
      <g>
       <use xlink:href="#m406da409a2" x="367.62455" y="307.584" style="stroke: #000000; stroke-width: 0.8"/>
      </g>
     </g>
     <g id="text_8">
      <!-- 0.75 -->
      <g transform="translate(356.491737 322.182437) scale(0.1 -0.1)">
       <use xlink:href="#DejaVuSans-30"/>
       <use xlink:href="#DejaVuSans-2e" transform="translate(63.623047 0)"/>
       <use xlink:href="#DejaVuSans-37" transform="translate(95.410156 0)"/>
       <use xlink:href="#DejaVuSans-35" transform="translate(159.033203 0)"/>
      </g>
     </g>
    </g>
    <g id="xtick_9">
     <g id="line2d_17">
      <path d="M 409.43498 307.584 
L 409.43498 41.472 
" clip-path="url(#pd8aa51719d)" style="fill: none; stroke: #b0b0b0; stroke-opacity: 0.5; stroke-width: 0.8; stroke-linecap: square"/>
     </g>
     <g id="line2d_18">
      <g>
       <use xlink:href="#m406da409a2" x="409.43498" y="307.584" style="stroke: #000000; stroke-width: 0.8"/>
      </g>
     </g>
     <g id="text_9">
      <!-- 1.00 -->
      <g transform="translate(398.302167 322.182437) scale(0.1 -0.1)">
       <use xlink:href="#DejaVuSans-31"/>
       <use xlink:href="#DejaVuSans-2e" transform="translate(63.623047 0)"/>
       <use xlink:href="#DejaVuSans-30" transform="translate(95.410156 0)"/>
       <use xlink:href="#DejaVuSans-30" transform="translate(159.033203 0)"/>
      </g>
     </g>
    </g>
    <g id="text_10">
     <!-- Index -->
     <g transform="translate(222.393594 335.860562) scale(0.1 -0.1)">
      <defs>
       <path id="DejaVuSans-49" d="M 628 4666 
L 1259 4666 
L 1259 0 
L 628 0 
L 628 4666 
z
" transform="scale(0.015625)"/>
       <path id="DejaVuSans-6e" d="M 3513 2113 
L 3513 0 
L 2938 0 
L 2938 2094 
Q 2938 2591 2744 2837 
Q 2550 3084 2163 3084 
Q 1697 3084 1428 2787 
Q 1159 2491 1159 1978 
L 1159 0 
L 581 0 
L 581 3500 
L 1159 3500 
L 1159 2956 
Q 1366 3272 1645 3428 
Q 1925 3584 2291 3584 
Q 2894 3584 3203 3211 
Q 3513 2838 3513 2113 
z
" transform="scale(0.015625)"/>
       <path id="DejaVuSans-64" d="M 2906 2969 
L 2906 4863 
L 3481 4863 
L 3481 0 
L 2906 0 
L 2906 525 
Q 2725 213 2448 61 
Q 2172 -91 1784 -91 
Q 1150 -91 751 415 
Q 353 922 353 1747 
Q 353 2572 751 3078 
Q 1150 3584 1784 3584 
Q 2172 3584 2448 3432 
Q 2725 3281 2906 2969 
z
M 947 1747 
Q 947 1113 1208 752 
Q 1469 391 1925 391 
Q 2381 391 2643 752 
Q 2906 1113 2906 1747 
Q 2906 2381 2643 2742 
Q 2381 3103 1925 3103 
Q 1469 3103 1208 2742 
Q 947 2381 947 1747 
z
" transform="scale(0.015625)"/>
       <path id="DejaVuSans-65" d="M 3597 1894 
L 3597 1613 
L 953 1613 
Q 991 1019 1311 708 
Q 1631 397 2203 397 
Q 2534 397 2845 478 
Q 3156 559 3463 722 
L 3463 178 
Q 3153 47 2828 -22 
Q 2503 -91 2169 -91 
Q 1331 -91 842 396 
Q 353 884 353 1716 
Q 353 2575 817 3079 
Q 1281 3584 2069 3584 
Q 2775 3584 3186 3129 
Q 3597 2675 3597 1894 
z
M 3022 2063 
Q 3016 2534 2758 2815 
Q 2500 3097 2075 3097 
Q 1594 3097 1305 2825 
Q 1016 2553 972 2059 
L 3022 2063 
z
" transform="scale(0.015625)"/>
       <path id="DejaVuSans-78" d="M 3513 3500 
L 2247 1797 
L 3578 0 
L 2900 0 
L 1881 1375 
L 863 0 
L 184 0 
L 1544 1831 
L 300 3500 
L 978 3500 
L 1906 2253 
L 2834 3500 
L 3513 3500 
z
" transform="scale(0.015625)"/>
      </defs>
      <use xlink:href="#DejaVuSans-49"/>
      <use xlink:href="#DejaVuSans-6e" transform="translate(29.492188 0)"/>
      <use xlink:href="#DejaVuSans-64" transform="translate(92.871094 0)"/>
      <use xlink:href="#DejaVuSans-65" transform="translate(156.347656 0)"/>
      <use xlink:href="#DejaVuSans-78" transform="translate(216.121094 0)"/>
     </g>
    </g>
   </g>
   <g id="matplotlib.axis_2">
    <g id="ytick_1">
     <g id="line2d_19">
      <path d="M 57.6 295.488066 
L 414.72 295.488066 
" clip-path="url(#pd8aa51719d)" style="fill: none; stroke: #b0b0b0; stroke-opacity: 0.5; stroke-width: 0.8; stroke-linecap: square"/>
     </g>
     <g id="line2d_20">
      <defs>
       <path id="mcf0a849b17" d="M 0 0 
L -3.5 0 
" style="stroke: #000000; stroke-width: 0.8"/>
      </defs>
      <g>
       <use xlink:href="#mcf0a849b17" x="57.6" y="295.488066" style="stroke: #000000; stroke-width: 0.8"/>
      </g>
     </g>
     <g id="text_11">
      <!-- −1.00 -->
      <g transform="translate(19.954687 299.287284) scale(0.1 -0.1)">
       <use xlink:href="#DejaVuSans-2212"/>
       <use xlink:href="#DejaVuSans-31" transform="translate(83.789062 0)"/>
       <use xlink:href="#DejaVuSans-2e" transform="translate(147.412109 0)"/>
       <use xlink:href="#DejaVuSans-30" transform="translate(179.199219 0)"/>
       <use xlink:href="#DejaVuSans-30" transform="translate(242.822266 0)"/>
      </g>
     </g>
    </g>
    <g id="ytick_2">
     <g id="line2d_21">
      <path d="M 57.6 264.865381 
L 414.72 264.865381 
" clip-path="url(#pd8aa51719d)" style="fill: none; stroke: #b0b0b0; stroke-opacity: 0.5; stroke-width: 0.8; stroke-linecap: square"/>
     </g>
     <g id="line2d_22">
      <g>
       <use xlink:href="#mcf0a849b17" x="57.6" y="264.865381" style="stroke: #000000; stroke-width: 0.8"/>
      </g>
     </g>
     <g id="text_12">
      <!-- −0.75 -->
      <g transform="translate(19.954687 268.6646) scale(0.1 -0.1)">
       <use xlink:href="#DejaVuSans-2212"/>
       <use xlink:href="#DejaVuSans-30" transform="translate(83.789062 0)"/>
       <use xlink:href="#DejaVuSans-2e" transform="translate(147.412109 0)"/>
       <use xlink:href="#DejaVuSans-37" transform="translate(179.199219 0)"/>
       <use xlink:href="#DejaVuSans-35" transform="translate(242.822266 0)"/>
      </g>
     </g>
    </g>
    <g id="ytick_3">
     <g id="line2d_23">
      <path d="M 57.6 234.242696 
L 414.72 234.242696 
" clip-path="url(#pd8aa51719d)" style="fill: none; stroke: #b0b0b0; stroke-opacity: 0.5; stroke-width: 0.8; stroke-linecap: square"/>
     </g>
     <g id="line2d_24">
      <g>
       <use xlink:href="#mcf0a849b17" x="57.6" y="234.242696" style="stroke: #000000; stroke-width: 0.8"/>
      </g>
     </g>
     <g id="text_13">
      <!-- −0.50 -->
      <g transform="translate(19.954687 238.041915) scale(0.1 -0.1)">
       <use xlink:href="#DejaVuSans-2212"/>
       <use xlink:href="#DejaVuSans-30" transform="translate(83.789062 0)"/>
       <use xlink:href="#DejaVuSans-2e" transform="translate(147.412109 0)"/>
       <use xlink:href="#DejaVuSans-35" transform="translate(179.199219 0)"/>
       <use xlink:href="#DejaVuSans-30" transform="translate(242.822266 0)"/>
      </g>
     </g>
    </g>
    <g id="ytick_4">
     <g id="line2d_25">
      <path d="M 57.6 203.620012 
L 414.72 203.620012 
" clip-path="url(#pd8aa51719d)" style="fill: none; stroke: #b0b0b0; stroke-opacity: 0.5; stroke-width: 0.8; stroke-linecap: square"/>
     </g>
     <g id="line2d_26">
      <g>
       <use xlink:href="#mcf0a849b17" x="57.6" y="203.620012" style="stroke: #000000; stroke-width: 0.8"/>
      </g>
     </g>
     <g id="text_14">
      <!-- −0.25 -->
      <g transform="translate(19.954687 207.419231) scale(0.1 -0.1)">
       <use xlink:href="#DejaVuSans-2212"/>
       <use xlink:href="#DejaVuSans-30" transform="translate(83.789062 0)"/>
       <use xlink:href="#DejaVuSans-2e" transform="translate(147.412109 0)"/>
       <use xlink:href="#DejaVuSans-32" transform="translate(179.199219 0)"/>
       <use xlink:href="#DejaVuSans-35" transform="translate(242.822266 0)"/>
      </g>
     </g>
    </g>
    <g id="ytick_5">
     <g id="line2d_27">
      <path d="M 57.6 172.997327 
L 414.72 172.997327 
" clip-path="url(#pd8aa51719d)" style="fill: none; stroke: #b0b0b0; stroke-opacity: 0.5; stroke-width: 0.8; stroke-linecap: square"/>
     </g>
     <g id="line2d_28">
      <g>
       <use xlink:href="#mcf0a849b17" x="57.6" y="172.997327" style="stroke: #000000; stroke-width: 0.8"/>
      </g>
     </g>
     <g id="text_15">
      <!-- 0.00 -->
      <g transform="translate(28.334375 176.796546) scale(0.1 -0.1)">
       <use xlink:href="#DejaVuSans-30"/>
       <use xlink:href="#DejaVuSans-2e" transform="translate(63.623047 0)"/>
       <use xlink:href="#DejaVuSans-30" transform="translate(95.410156 0)"/>
       <use xlink:href="#DejaVuSans-30" transform="translate(159.033203 0)"/>
      </g>
     </g>
    </g>
    <g id="ytick_6">
     <g id="line2d_29">
      <path d="M 57.6 142.374643 
L 414.72 142.374643 
" clip-path="url(#pd8aa51719d)" style="fill: none; stroke: #b0b0b0; stroke-opacity: 0.5; stroke-width: 0.8; stroke-linecap: square"/>
     </g>
     <g id="line2d_30">
      <g>
       <use xlink:href="#mcf0a849b17" x="57.6" y="142.374643" style="stroke: #000000; stroke-width: 0.8"/>
      </g>
     </g>
     <g id="text_16">
      <!-- 0.25 -->
      <g transform="translate(28.334375 146.173861) scale(0.1 -0.1)">
       <use xlink:href="#DejaVuSans-30"/>
       <use xlink:href="#DejaVuSans-2e" transform="translate(63.623047 0)"/>
       <use xlink:href="#DejaVuSans-32" transform="translate(95.410156 0)"/>
       <use xlink:href="#DejaVuSans-35" transform="translate(159.033203 0)"/>
      </g>
     </g>
    </g>
    <g id="ytick_7">
     <g id="line2d_31">
      <path d="M 57.6 111.751958 
L 414.72 111.751958 
" clip-path="url(#pd8aa51719d)" style="fill: none; stroke: #b0b0b0; stroke-opacity: 0.5; stroke-width: 0.8; stroke-linecap: square"/>
     </g>
     <g id="line2d_32">
      <g>
       <use xlink:href="#mcf0a849b17" x="57.6" y="111.751958" style="stroke: #000000; stroke-width: 0.8"/>
      </g>
     </g>
     <g id="text_17">
      <!-- 0.50 -->
      <g transform="translate(28.334375 115.551177) scale(0.1 -0.1)">
       <use xlink:href="#DejaVuSans-30"/>
       <use xlink:href="#DejaVuSans-2e" transform="translate(63.623047 0)"/>
       <use xlink:href="#DejaVuSans-35" transform="translate(95.410156 0)"/>
       <use xlink:href="#DejaVuSans-30" transform="translate(159.033203 0)"/>
      </g>
     </g>
    </g>
    <g id="ytick_8">
     <g id="line2d_33">
      <path d="M 57.6 81.129273 
L 414.72 81.129273 
" clip-path="url(#pd8aa51719d)" style="fill: none; stroke: #b0b0b0; stroke-opacity: 0.5; stroke-width: 0.8; stroke-linecap: square"/>
     </g>
     <g id="line2d_34">
      <g>
       <use xlink:href="#mcf0a849b17" x="57.6" y="81.129273" style="stroke: #000000; stroke-width: 0.8"/>
      </g>
     </g>
     <g id="text_18">
      <!-- 0.75 -->
      <g transform="translate(28.334375 84.928492) scale(0.1 -0.1)">
       <use xlink:href="#DejaVuSans-30"/>
       <use xlink:href="#DejaVuSans-2e" transform="translate(63.623047 0)"/>
       <use xlink:href="#DejaVuSans-37" transform="translate(95.410156 0)"/>
       <use xlink:href="#DejaVuSans-35" transform="translate(159.033203 0)"/>
      </g>
     </g>
    </g>
    <g id="ytick_9">
     <g id="line2d_35">
      <path d="M 57.6 50.506589 
L 414.72 50.506589 
" clip-path="url(#pd8aa51719d)" style="fill: none; stroke: #b0b0b0; stroke-opacity: 0.5; stroke-width: 0.8; stroke-linecap: square"/>
     </g>
     <g id="line2d_36">
      <g>
       <use xlink:href="#mcf0a849b17" x="57.6" y="50.506589" style="stroke: #000000; stroke-width: 0.8"/>
      </g>
     </g>
     <g id="text_19">
      <!-- 1.00 -->
      <g transform="translate(28.334375 54.305807) scale(0.1 -0.1)">
       <use xlink:href="#DejaVuSans-31"/>
       <use xlink:href="#DejaVuSans-2e" transform="translate(63.623047 0)"/>
       <use xlink:href="#DejaVuSans-30" transform="translate(95.410156 0)"/>
       <use xlink:href="#DejaVuSans-30" transform="translate(159.033203 0)"/>
      </g>
     </g>
    </g>
    <g id="text_20">
     <!-- Value -->
     <g transform="translate(13.875 188.25925) rotate(-90) scale(0.1 -0.1)">
      <defs>
       <path id="DejaVuSans-56" d="M 1831 0 
L 50 4666 
L 709 4666 
L 2188 738 
L 3669 4666 
L 4325 4666 
L 2547 0 
L 1831 0 
z
" transform="scale(0.015625)"/>
       <path id="DejaVuSans-61" d="M 2194 1759 
Q 1497 1759 1228 1600 
Q 959 1441 959 1056 
Q 959 750 1161 570 
Q 1363 391 1709 391 
Q 2188 391 2477 730 
Q 2766 1069 2766 1631 
L 2766 1759 
L 2194 1759 
z
M 3341 1997 
L 3341 0 
L 2766 0 
L 2766 531 
Q 2569 213 2275 61 
Q 1981 -91 1556 -91 
Q 1019 -91 701 211 
Q 384 513 384 1019 
Q 384 1609 779 1909 
Q 1175 2209 1959 2209 
L 2766 2209 
L 2766 2266 
Q 2766 2663 2505 2880 
Q 2244 3097 1772 3097 
Q 1472 3097 1187 3025 
Q 903 2953 641 2809 
L 641 3341 
Q 956 3463 1253 3523 
Q 1550 3584 1831 3584 
Q 2591 3584 2966 3190 
Q 3341 2797 3341 1997 
z
" transform="scale(0.015625)"/>
       <path id="DejaVuSans-6c" d="M 603 4863 
L 1178 4863 
L 1178 0 
L 603 0 
L 603 4863 
z
" transform="scale(0.015625)"/>
       <path id="DejaVuSans-75" d="M 544 1381 
L 544 3500 
L 1119 3500 
L 1119 1403 
Q 1119 906 1312 657 
Q 1506 409 1894 409 
Q 2359 409 2629 706 
Q 2900 1003 2900 1516 
L 2900 3500 
L 3475 3500 
L 3475 0 
L 2900 0 
L 2900 538 
Q 2691 219 2414 64 
Q 2138 -91 1772 -91 
Q 1169 -91 856 284 
Q 544 659 544 1381 
z
M 1991 3584 
L 1991 3584 
z
" transform="scale(0.015625)"/>
      </defs>
      <use xlink:href="#DejaVuSans-56"/>
      <use xlink:href="#DejaVuSans-61" transform="translate(60.658203 0)"/>
      <use xlink:href="#DejaVuSans-6c" transform="translate(121.9375 0)"/>
      <use xlink:href="#DejaVuSans-75" transform="translate(149.720703 0)"/>
      <use xlink:href="#DejaVuSans-65" transform="translate(213.099609 0)"/>
     </g>
    </g>
   </g>
   <g id="line2d_37">
    <path d="M 225.50636 173.293459 
L 271.654129 172.999597 
L 235.011612 172.706119 
L 241.605823 172.413127 
L 241.430558 172.12055 
L 243.061864 170.949776 
L 259.086155 158.84465 
L 265.96121 153.181277 
L 268.059036 151.393494 
L 277.253753 143.994335 
L 282.58007 139.885244 
L 284.494428 138.42791 
L 286.401868 136.970777 
L 288.287049 135.519725 
L 290.217137 134.069239 
L 292.082491 132.6217 
L 294.376067 130.883389 
L 296.295369 129.436419 
L 298.574291 127.693535 
L 300.59246 126.243246 
L 302.50631 124.785149 
L 304.500625 123.328483 
L 306.438668 121.865652 
L 308.428576 120.403878 
L 310.382798 118.936279 
L 312.359279 117.470111 
L 314.322682 116.000208 
L 316.289843 114.533441 
L 318.265307 113.064476 
L 335.814302 98.830969 
L 341.309653 94.529275 
L 343.069092 93.388805 
L 345.066657 91.955981 
L 346.732712 90.814131 
L 348.475226 89.668849 
L 351.812979 87.377557 
L 353.390974 86.225755 
L 354.54304 85.364221 
L 357.219751 83.639363 
L 358.692141 82.48497 
L 361.747988 80.466713 
L 363.67695 79.025931 
L 365.366352 77.870888 
L 367.431442 76.136728 
L 369.185379 74.983912 
L 371.188147 73.252557 
L 373.005114 72.104318 
L 373.616665 71.524165 
L 374.508735 70.660973 
L 377.44249 68.655128 
L 377.921152 68.079078 
L 378.638457 67.51092 
L 381.00538 66.087368 
L 382.297462 64.657471 
L 384.875894 63.24479 
L 385.30911 62.66671 
L 385.660944 62.096121 
L 386.519401 61.53898 
L 388.949135 60.415062 
L 389.213436 60.125496 
L 389.424547 59.263538 
L 389.695787 58.985406 
L 390.182134 58.711778 
L 393.223279 57.598526 
L 393.474661 57.305756 
L 393.39633 57.0107 
L 392.950264 56.433751 
L 393.006446 56.15924 
L 393.5065 55.893688 
L 395.965162 55.365788 
L 398.487273 54.792235 
L 398.370254 54.483548 
L 396.884895 54.175313 
L 394.18451 53.893611 
L 390.767448 53.676019 
L 386.61121 53.568 
L 379.201571 53.617727 
L 366.66926 53.869634 
L 354.909159 54.357824 
L 349.5932 55.100644 
L 352.750725 56.097043 
L 358.401642 57.325337 
L 361.74747 58.744669 
L 363.527604 60.299304 
L 364.699707 61.92378 
L 367.232792 66.571615 
L 368.008492 67.883484 
L 368.407207 69.041746 
L 368.348334 70.058938 
L 367.7284 70.968908 
L 365.957497 71.821163 
L 362.096842 72.673265 
L 349.920242 74.590081 
L 345.32404 75.724922 
L 343.057987 76.987144 
L 342.462895 78.353967 
L 342.8018 79.782798 
L 343.528994 81.220222 
L 345.08775 83.919605 
L 345.405821 85.118396 
L 345.070126 86.212453 
L 343.835043 87.228302 
L 341.296933 88.208967 
L 337.148909 89.204132 
L 332.095836 90.258158 
L 327.634008 91.400176 
L 324.850596 92.637443 
L 323.674765 93.954875 
L 323.669243 95.319026 
L 325.125464 99.282369 
L 325.033914 100.466353 
L 324.255324 101.57794 
L 322.602406 102.641216 
L 319.929604 103.690219 
L 312.885535 105.877742 
L 310.034199 107.057346 
L 308.247446 108.296576 
L 307.371285 109.579241 
L 307.040454 110.880238 
L 306.715106 113.433243 
L 306.25662 114.64987 
L 305.381555 115.821037 
L 303.993837 116.956232 
L 302.07911 118.072204 
L 294.950539 121.483129 
L 293.033181 122.676623 
L 291.563961 123.898021 
L 290.455297 125.137723 
L 286.883904 130.048522 
L 285.693081 131.229699 
L 284.278857 132.393524 
L 280.84438 134.698769 
L 275.040289 138.215184 
L 273.346142 139.418837 
L 271.854334 140.635427 
L 269.361879 143.081658 
L 267.072849 145.498074 
L 265.79871 146.683988 
L 264.348669 147.855697 
L 260.840905 150.178218 
L 255.099096 153.712503 
L 253.482065 154.917908 
L 252.088226 156.132588 
L 247.27224 160.951383 
L 245.804177 162.127286 
L 242.30342 164.462343 
L 238.546755 166.816184 
L 236.835223 168.009364 
L 233.953164 170.420175 
L 230.135438 174.024156 
L 227.116194 176.387594 
L 218.585032 182.29776 
L 209.579067 189.440661 
L 203.217344 194.17649 
L 197.04999 198.902095 
L 190.574369 203.636746 
L 181.679102 210.715673 
L 174.875959 215.415148 
L 173.350353 216.602275 
L 170.830819 218.977796 
L 168.346643 221.333487 
L 165.433742 223.665396 
L 159.089479 228.354766 
L 156.520976 230.729389 
L 154.123609 233.093254 
L 151.359147 235.431762 
L 143.566912 241.298976 
L 137.193038 247.203863 
L 129.436978 253.079941 
L 126.957452 255.455429 
L 124.469503 257.813248 
L 120.98645 260.149567 
L 115.306984 263.673213 
L 112.146199 266.052811 
L 107.938405 269.595082 
L 106.291438 270.757521 
L 102.404885 273.074323 
L 98.368049 275.421498 
L 96.641116 276.613024 
L 95.203346 277.811362 
L 91.573958 281.365073 
L 90.066578 282.518306 
L 88.187419 283.66044 
L 81.063354 287.137082 
L 79.170577 288.340655 
L 78.038508 289.558406 
L 77.774585 290.765512 
L 78.291525 291.924819 
L 79.485399 292.990388 
L 82.4739 294.65153 
L 83.90847 295.169603 
L 86.658687 295.449137 
L 93.353154 295.488 
L 102.401017 295.30043 
L 107.538463 294.915418 
L 103.255966 294.373872 
L 95.673106 293.725162 
L 91.349828 293.023936 
L 86.259473 291.684696 
L 83.049096 290.739827 
L 80.556462 290.482912 
L 73.832727 290.362891 
L 77.451769 290.42143 
L 94.485742 290.482065 
L 100.687632 290.369498 
L 105.868918 290.113283 
L 108.056021 289.710654 
L 103.8883 289.188515 
L 97.265316 288.598468 
L 92.733839 288.005801 
L 86.137879 286.773346 
L 81.980405 286.551073 
L 96.308461 286.453831 
L 103.453081 286.305051 
L 108.252159 286.038681 
L 109.491329 285.650683 
L 105.689338 285.165662 
L 100.360649 284.629942 
L 96.634587 284.099479 
L 89.67819 282.785158 
L 90.733045 282.657492 
L 106.319828 282.176691 
L 108.653955 281.877503 
L 108.128153 281.49958 
L 100.461868 280.162545 
L 97.999837 279.417688 
L 97.350028 279.137957 
L 97.504986 278.909092 
L 99.115079 278.70892 
L 107.799734 278.029757 
L 109.032325 277.721537 
L 108.942291 277.3693 
L 106.753493 276.589099 
L 104.815818 275.832728 
L 104.287853 275.500181 
L 104.141736 275.203986 
L 104.538159 274.938674 
L 105.664776 274.692309 
L 111.232736 273.916758 
L 112.369152 273.608539 
L 112.73229 273.271093 
L 112.42642 272.911854 
L 110.176217 271.503371 
L 110.203032 271.204642 
L 110.704192 270.927868 
L 113.253228 270.400165 
L 116.185557 269.832927 
L 116.978562 269.517801 
L 117.154295 269.183224 
L 116.918552 268.836353 
L 116.057264 268.145356 
L 115.814275 267.818526 
L 115.843961 267.50989 
L 116.242337 267.217856 
L 116.998469 266.937096 
L 120.324609 266.085454 
L 121.065101 265.779541 
L 121.439992 265.460859 
L 121.514296 265.133255 
L 121.326193 264.153123 
L 121.46878 263.842034 
L 121.812929 263.54086 
L 123.048012 262.958231 
L 125.223661 262.078729 
L 126.121444 261.463377 
L 126.600046 260.831956 
L 127.190094 259.89655 
L 127.915184 259.298239 
L 129.019153 258.71472 
L 131.369448 257.523259 
L 131.946359 256.90203 
L 132.42529 255.979343 
L 133.15988 255.390494 
L 136.13303 253.926085 
L 136.608522 253.312354 
L 136.818785 252.69974 
L 137.31537 252.104335 
L 138.30833 251.523919 
L 139.986757 250.64503 
L 140.650263 250.040936 
L 141.562918 248.830209 
L 142.887716 247.942259 
L 144.227028 247.047351 
L 148.875824 243.104934 
L 150.877256 241.576247 
L 152.435473 240.045997 
L 155.37817 237.910516 
L 156.495666 236.682514 
L 157.889734 235.779232 
L 159.209259 234.864393 
L 161.513047 232.716747 
L 163.582828 231.191915 
L 166.461981 228.735926 
L 169.165137 226.601357 
L 170.548111 225.375703 
L 171.541022 224.465233 
L 174.636723 222.048111 
L 175.582433 221.143825 
L 178.98074 218.449111 
L 180.050004 217.554145 
L 182.325845 215.767466 
L 184.125333 214.280603 
L 192.347719 208.056588 
L 193.884714 206.863354 
L 195.370023 205.670977 
L 197.853935 203.876847 
L 199.742934 202.374332 
L 202.170006 200.566889 
L 204.157148 199.057402 
L 206.115268 197.542952 
L 208.129953 196.032835 
L 210.090111 194.517825 
L 211.648413 193.310196 
L 213.715736 191.799695 
L 216.018523 189.989906 
L 218.053199 188.482713 
L 219.960455 186.977391 
L 222.346517 185.174306 
L 224.31314 183.678005 
L 226.252788 182.183229 
L 228.210658 180.69759 
L 230.148542 179.213543 
L 232.072619 177.73846 
L 234.031925 176.265224 
L 235.925843 174.797307 
L 237.899807 173.330177 
L 237.899807 173.330177 
" clip-path="url(#pd8aa51719d)" style="fill: none; stroke: #1f77b4; stroke-width: 1.5; stroke-linecap: square"/>
   </g>
   <g id="line2d_38">
    <path d="M 243.352189 173.293459 
L 244.979175 172.12055 
L 246.48805 170.949776 
L 247.817062 169.774909 
L 250.482892 167.721253 
L 251.868369 166.543386 
L 253.751358 165.071569 
L 255.433515 163.592311 
L 257.364252 162.114028 
L 259.358727 160.330303 
L 261.180804 158.84465 
L 262.458624 157.650482 
L 264.647053 155.863609 
L 266.237867 154.370807 
L 268.100956 152.883449 
L 269.688239 151.393494 
L 271.914565 149.612907 
L 273.231147 148.424508 
L 275.822764 146.353803 
L 277.219619 145.17139 
L 279.124398 143.699659 
L 280.830628 142.227374 
L 283.061682 140.471034 
L 284.438809 139.301024 
L 286.67878 137.55408 
L 288.041672 136.388904 
L 290.631443 134.359743 
L 292.036931 133.199597 
L 293.908873 131.75382 
L 295.609255 130.303966 
L 297.811351 128.566076 
L 299.18141 127.403188 
L 301.377271 125.661052 
L 302.676684 124.493437 
L 304.860862 122.744384 
L 306.488445 121.280468 
L 308.296635 119.817939 
L 309.877007 118.349102 
L 311.993126 116.588947 
L 313.294159 115.412469 
L 315.418377 113.652858 
L 316.699902 112.477256 
L 319.191021 110.429328 
L 320.550758 109.258033 
L 322.410166 107.801327 
L 324.073456 106.343036 
L 326.309668 104.603277 
L 327.647973 103.442459 
L 329.916867 101.71076 
L 331.206806 100.554374 
L 333.796293 98.543075 
L 335.122606 97.393165 
L 337.040792 95.963027 
L 338.660296 94.529275 
L 340.602515 93.103058 
L 342.551245 91.384253 
L 344.103691 90.242841 
L 345.98298 88.520575 
L 347.607139 87.377557 
L 349.796535 85.364221 
L 351.316155 84.217384 
L 352.725415 82.77244 
L 354.69778 81.335907 
L 356.401396 79.599915 
L 358.051403 78.450574 
L 359.713342 76.710902 
L 361.434513 75.562489 
L 361.941794 74.983912 
L 362.63962 74.113273 
L 363.480344 73.538289 
L 364.875908 72.680792 
L 365.409346 72.104318 
L 365.998417 71.234804 
L 366.808628 70.660973 
L 368.685704 69.521605 
L 369.077621 68.944759 
L 369.423085 68.366256 
L 370.202314 67.794039 
L 372.270285 66.661958 
L 372.648127 66.087368 
L 372.86773 65.5095 
L 373.13882 65.222759 
L 374.174356 64.657471 
L 375.924983 63.816416 
L 376.201427 63.532048 
L 376.293395 62.955772 
L 376.318236 62.66671 
L 376.494248 62.379714 
L 376.89727 62.096121 
L 378.289823 61.53898 
L 379.652401 60.983745 
L 379.991117 60.701488 
L 380.048684 60.415062 
L 379.72533 59.547095 
L 380.01858 59.263538 
L 380.667801 58.985406 
L 383.47729 58.165195 
L 383.974343 57.885361 
L 383.999254 57.598526 
L 383.608374 57.305756 
L 382.559451 56.718425 
L 382.558035 56.433751 
L 383.236663 56.15924 
L 386.416358 55.631866 
L 388.17826 55.365788 
L 389.250509 55.087429 
L 388.980017 54.792235 
L 386.85722 54.483548 
L 382.649485 54.175313 
L 376.479156 53.893611 
L 368.828731 53.676019 
L 360.473301 53.568 
L 352.358479 53.617727 
L 345.451895 53.869634 
L 340.599166 54.357824 
L 338.408394 55.100644 
L 339.176159 56.097043 
L 342.856985 57.325337 
L 349.06962 58.744669 
L 366.119633 61.92378 
L 374.946038 63.550323 
L 382.470064 65.116413 
L 387.628832 66.571615 
L 389.59066 67.883484 
L 387.907778 69.041746 
L 382.63846 70.058938 
L 374.402004 70.968908 
L 344.832529 73.581394 
L 338.426238 74.590081 
L 335.645498 75.724922 
L 336.701249 76.987144 
L 341.018356 78.353967 
L 353.966539 81.220222 
L 359.173773 82.613066 
L 361.560064 83.919605 
L 360.390444 85.118396 
L 355.756332 86.212453 
L 348.540977 87.228302 
L 332.360347 89.204132 
L 326.492488 90.258158 
L 323.489368 91.400176 
L 323.50922 92.637443 
L 325.966297 93.954875 
L 333.382106 96.687456 
L 335.703514 98.018584 
L 335.859589 99.282369 
L 333.640018 100.466353 
L 329.453746 101.57794 
L 318.879634 103.690219 
L 314.550803 104.759935 
L 311.832909 105.877742 
L 310.896708 107.057346 
L 311.440548 108.296576 
L 314.225685 110.880238 
L 314.95061 112.172391 
L 314.515834 113.433243 
L 312.784999 114.64987 
L 309.95186 115.821037 
L 299.551492 119.188277 
L 297.00143 120.321519 
L 295.312815 121.483129 
L 294.428859 122.676623 
L 294.137339 123.898021 
L 294.129588 126.383313 
L 293.836986 127.622569 
L 293.077919 128.846026 
L 291.763538 130.048522 
L 289.902401 131.229699 
L 287.591824 132.393524 
L 279.886498 135.856904 
L 277.812698 137.027874 
L 276.27808 138.215184 
L 275.31887 139.418837 
L 274.841624 140.635427 
L 274.395469 143.081658 
L 273.82837 144.296539 
L 272.695351 145.498074 
L 270.898729 146.683988 
L 268.513383 147.855697 
L 263.021824 150.178218 
L 260.602839 151.343763 
L 258.78046 152.520848 
L 257.65455 153.712503 
L 257.132675 154.917908 
L 256.77554 157.349671 
L 256.251252 158.561829 
L 255.151727 159.763277 
L 253.416393 160.951383 
L 251.166601 162.127286 
L 246.21608 164.462343 
L 244.102491 165.63437 
L 242.475001 166.816184 
L 241.331927 168.009364 
L 239.02993 171.627876 
L 237.932116 172.830231 
L 236.494165 174.024156 
L 232.933461 176.387594 
L 229.469934 178.739439 
L 228.027322 179.920138 
L 222.957129 184.686818 
L 215.598639 190.624313 
L 211.987697 194.17649 
L 210.545955 195.359911 
L 207.067066 197.722373 
L 203.489107 200.082372 
L 202.023919 201.264567 
L 200.870124 202.449456 
L 198.271889 206.011843 
L 197.084849 207.195083 
L 195.513528 208.373197 
L 191.450639 210.715673 
L 189.336186 211.88457 
L 187.470752 213.056076 
L 186.006377 214.232672 
L 184.963878 215.415148 
L 182.71071 218.977796 
L 181.489697 220.159163 
L 179.820746 221.333487 
L 175.578945 223.665396 
L 173.468299 224.829623 
L 171.675645 225.997943 
L 170.314621 227.172895 
L 169.348665 228.354766 
L 167.834383 230.729389 
L 166.802097 231.914329 
L 165.367637 233.093254 
L 163.535019 234.265227 
L 157.456149 237.762831 
L 155.936898 238.934907 
L 154.80139 240.113941 
L 153.070599 242.487005 
L 152.015226 243.674048 
L 150.596008 244.856608 
L 148.792857 246.033014 
L 142.801908 249.540948 
L 141.351289 250.714587 
L 140.329669 251.89446 
L 138.911557 254.268276 
L 137.977001 255.455429 
L 136.591516 256.637668 
L 134.70802 257.813248 
L 128.086451 261.317846 
L 126.543595 262.491689 
L 125.607404 263.673213 
L 125.150722 264.861504 
L 124.863224 266.052811 
L 124.352374 267.241789 
L 123.280484 268.423459 
L 121.490392 269.595082 
L 119.074195 270.757521 
L 113.7979 273.074323 
L 111.832404 274.241829 
L 110.717959 275.421498 
L 110.426383 276.613024 
L 110.792412 279.008291 
L 110.334096 280.194852 
L 108.834153 281.365073 
L 106.192592 282.518306 
L 96.012121 285.958326 
L 94.504453 287.137082 
L 95.111717 288.340655 
L 98.04298 289.558406 
L 103.050846 290.765512 
L 109.490033 291.924819 
L 123.04527 293.913937 
L 133.454087 295.449137 
L 132.780692 295.488 
L 125.371462 294.915418 
L 102.492338 293.023936 
L 78.621399 291.14518 
L 74.951539 290.739827 
L 74.98255 290.482912 
L 79.006956 290.36714 
L 96.585592 290.42143 
L 116.414391 290.482065 
L 122.394514 290.369498 
L 123.924302 290.113283 
L 120.733991 289.710654 
L 104.215682 288.598468 
L 87.469436 287.475338 
L 83.992892 287.056713 
L 85.093163 286.773346 
L 90.430714 286.617221 
L 121.068311 286.305051 
L 122.40852 286.038681 
L 119.962069 285.650683 
L 97.867018 283.626191 
L 96.641575 283.245742 
L 98.445104 282.969888 
L 102.667741 282.785158 
L 117.758159 282.39275 
L 119.852447 282.176691 
L 119.661682 281.877503 
L 117.526225 281.49958 
L 107.856574 280.162545 
L 106.412883 279.760025 
L 106.647888 279.417688 
L 108.461027 279.137957 
L 114.87313 278.70892 
L 120.613663 278.290425 
L 121.915673 278.029757 
L 121.925322 277.721537 
L 120.795984 277.3693 
L 114.914658 276.199195 
L 113.821086 275.832728 
L 113.772321 275.500181 
L 114.829139 275.203986 
L 119.340501 274.692309 
L 124.036078 274.195037 
L 125.305113 273.916758 
L 125.531983 273.608539 
L 124.773967 273.271093 
L 120.223091 272.177408 
L 119.508787 271.828281 
L 119.740931 271.503371 
L 120.922094 271.204642 
L 128.504784 270.12599 
L 129.1429 269.832927 
L 128.936216 269.517801 
L 126.89826 268.836353 
L 125.806014 268.487109 
L 125.143316 268.145356 
L 125.120887 267.818526 
L 125.77258 267.50989 
L 128.44306 266.937096 
L 131.13577 266.377882 
L 131.935094 266.085454 
L 132.277329 265.779541 
L 132.234236 265.460859 
L 131.354067 264.474105 
L 131.301913 264.153123 
L 131.499037 263.842034 
L 131.938803 263.54086 
L 133.337865 262.958231 
L 135.637183 262.078729 
L 136.546169 261.463377 
L 136.714376 261.148565 
L 136.626834 260.516319 
L 136.540019 260.203937 
L 136.570064 259.89655 
L 136.813053 259.59477 
L 137.320005 259.298239 
L 138.998342 258.71472 
L 140.776163 258.128003 
L 141.349365 257.828289 
L 141.605323 257.523259 
L 141.566835 257.213872 
L 140.988021 256.282379 
L 141.165987 255.979343 
L 141.676847 255.682264 
L 143.44456 255.101863 
L 145.201228 254.522658 
L 145.718099 254.227091 
L 145.932359 253.926085 
L 145.774281 253.312354 
L 145.685991 253.004565 
L 145.77436 252.69974 
L 146.110355 252.39953 
L 147.429182 251.813192 
L 149.489557 250.941546 
L 150.066098 250.344491 
L 150.520577 249.431842 
L 151.272721 248.830209 
L 153.684642 247.347701 
L 156.720911 244.922661 
L 157.501177 244.013187 
L 158.37968 243.407714 
L 160.560459 242.191569 
L 161.068552 241.576247 
L 161.452225 240.653245 
L 162.191809 240.045997 
L 164.801447 238.529562 
L 165.187413 237.910516 
L 165.489505 237.292156 
L 166.13265 236.682514 
L 168.824263 234.864393 
L 170.390396 233.324218 
L 175.025734 229.65473 
L 176.901251 227.820412 
L 179.065068 226.295247 
L 180.341001 224.767167 
L 181.719947 223.864319 
L 182.930273 222.959986 
L 184.36597 221.44363 
L 187.198042 219.351352 
L 188.175333 218.449111 
L 191.200602 216.065935 
L 192.363275 215.171513 
L 193.977246 213.983718 
L 195.555465 212.499027 
L 198.112924 210.724317 
L 199.71103 209.23867 
L 202.233258 207.461383 
L 203.508074 206.265988 
L 206.622683 203.876847 
L 208.076076 202.674161 
L 209.536868 201.47298 
L 211.285417 199.962697 
L 212.799784 198.755149 
L 214.756862 196.938033 
L 216.32835 195.730617 
L 218.622344 193.611343 
L 220.166045 192.405444 
L 221.706804 190.892032 
L 224.383989 188.784964 
L 225.766834 187.577898 
L 227.672059 186.076737 
L 229.429759 184.57438 
L 231.311078 183.08036 
L 232.590076 181.884931 
L 235.549037 179.510384 
L 236.586226 178.621637 
L 238.908173 176.855216 
L 240.273921 175.676443 
L 243.307715 173.330177 
L 243.307715 173.330177 
" clip-path="url(#pd8aa51719d)" style="fill: none; stroke: #ff7f0e; stroke-opacity: 0.5; stroke-width: 1.5; stroke-linecap: square"/>
   </g>
   <g id="patch_3">
    <path d="M 57.6 307.584 
L 57.6 41.472 
" style="fill: none; stroke: #000000; stroke-width: 0.8; stroke-linejoin: miter; stroke-linecap: square"/>
   </g>
   <g id="patch_4">
    <path d="M 414.72 307.584 
L 414.72 41.472 
" style="fill: none; stroke: #000000; stroke-width: 0.8; stroke-linejoin: miter; stroke-linecap: square"/>
   </g>
   <g id="patch_5">
    <path d="M 57.6 307.584 
L 414.72 307.584 
" style="fill: none; stroke: #000000; stroke-width: 0.8; stroke-linejoin: miter; stroke-linecap: square"/>
   </g>
   <g id="patch_6">
    <path d="M 57.6 41.472 
L 414.72 41.472 
" style="fill: none; stroke: #000000; stroke-width: 0.8; stroke-linejoin: miter; stroke-linecap: square"/>
   </g>
   <g id="text_21">
    <!-- Compare - Epoch 300 -->
    <g transform="translate(171.234375 35.472) scale(0.12 -0.12)">
     <defs>
      <path id="DejaVuSans-43" d="M 4122 4306 
L 4122 3641 
Q 3803 3938 3442 4084 
Q 3081 4231 2675 4231 
Q 1875 4231 1450 3742 
Q 1025 3253 1025 2328 
Q 1025 1406 1450 917 
Q 1875 428 2675 428 
Q 3081 428 3442 575 
Q 3803 722 4122 1019 
L 4122 359 
Q 3791 134 3420 21 
Q 3050 -91 2638 -91 
Q 1578 -91 968 557 
Q 359 1206 359 2328 
Q 359 3453 968 4101 
Q 1578 4750 2638 4750 
Q 3056 4750 3426 4639 
Q 3797 4528 4122 4306 
z
" transform="scale(0.015625)"/>
      <path id="DejaVuSans-6f" d="M 1959 3097 
Q 1497 3097 1228 2736 
Q 959 2375 959 1747 
Q 959 1119 1226 758 
Q 1494 397 1959 397 
Q 2419 397 2687 759 
Q 2956 1122 2956 1747 
Q 2956 2369 2687 2733 
Q 2419 3097 1959 3097 
z
M 1959 3584 
Q 2709 3584 3137 3096 
Q 3566 2609 3566 1747 
Q 3566 888 3137 398 
Q 2709 -91 1959 -91 
Q 1206 -91 779 398 
Q 353 888 353 1747 
Q 353 2609 779 3096 
Q 1206 3584 1959 3584 
z
" transform="scale(0.015625)"/>
      <path id="DejaVuSans-6d" d="M 3328 2828 
Q 3544 3216 3844 3400 
Q 4144 3584 4550 3584 
Q 5097 3584 5394 3201 
Q 5691 2819 5691 2113 
L 5691 0 
L 5113 0 
L 5113 2094 
Q 5113 2597 4934 2840 
Q 4756 3084 4391 3084 
Q 3944 3084 3684 2787 
Q 3425 2491 3425 1978 
L 3425 0 
L 2847 0 
L 2847 2094 
Q 2847 2600 2669 2842 
Q 2491 3084 2119 3084 
Q 1678 3084 1418 2786 
Q 1159 2488 1159 1978 
L 1159 0 
L 581 0 
L 581 3500 
L 1159 3500 
L 1159 2956 
Q 1356 3278 1631 3431 
Q 1906 3584 2284 3584 
Q 2666 3584 2933 3390 
Q 3200 3197 3328 2828 
z
" transform="scale(0.015625)"/>
      <path id="DejaVuSans-70" d="M 1159 525 
L 1159 -1331 
L 581 -1331 
L 581 3500 
L 1159 3500 
L 1159 2969 
Q 1341 3281 1617 3432 
Q 1894 3584 2278 3584 
Q 2916 3584 3314 3078 
Q 3713 2572 3713 1747 
Q 3713 922 3314 415 
Q 2916 -91 2278 -91 
Q 1894 -91 1617 61 
Q 1341 213 1159 525 
z
M 3116 1747 
Q 3116 2381 2855 2742 
Q 2594 3103 2138 3103 
Q 1681 3103 1420 2742 
Q 1159 2381 1159 1747 
Q 1159 1113 1420 752 
Q 1681 391 2138 391 
Q 2594 391 2855 752 
Q 3116 1113 3116 1747 
z
" transform="scale(0.015625)"/>
      <path id="DejaVuSans-72" d="M 2631 2963 
Q 2534 3019 2420 3045 
Q 2306 3072 2169 3072 
Q 1681 3072 1420 2755 
Q 1159 2438 1159 1844 
L 1159 0 
L 581 0 
L 581 3500 
L 1159 3500 
L 1159 2956 
Q 1341 3275 1631 3429 
Q 1922 3584 2338 3584 
Q 2397 3584 2469 3576 
Q 2541 3569 2628 3553 
L 2631 2963 
z
" transform="scale(0.015625)"/>
      <path id="DejaVuSans-20" transform="scale(0.015625)"/>
      <path id="DejaVuSans-2d" d="M 313 2009 
L 1997 2009 
L 1997 1497 
L 313 1497 
L 313 2009 
z
" transform="scale(0.015625)"/>
      <path id="DejaVuSans-45" d="M 628 4666 
L 3578 4666 
L 3578 4134 
L 1259 4134 
L 1259 2753 
L 3481 2753 
L 3481 2222 
L 1259 2222 
L 1259 531 
L 3634 531 
L 3634 0 
L 628 0 
L 628 4666 
z
" transform="scale(0.015625)"/>
      <path id="DejaVuSans-63" d="M 3122 3366 
L 3122 2828 
Q 2878 2963 2633 3030 
Q 2388 3097 2138 3097 
Q 1578 3097 1268 2742 
Q 959 2388 959 1747 
Q 959 1106 1268 751 
Q 1578 397 2138 397 
Q 2388 397 2633 464 
Q 2878 531 3122 666 
L 3122 134 
Q 2881 22 2623 -34 
Q 2366 -91 2075 -91 
Q 1284 -91 818 406 
Q 353 903 353 1747 
Q 353 2603 823 3093 
Q 1294 3584 2113 3584 
Q 2378 3584 2631 3529 
Q 2884 3475 3122 3366 
z
" transform="scale(0.015625)"/>
      <path id="DejaVuSans-68" d="M 3513 2113 
L 3513 0 
L 2938 0 
L 2938 2094 
Q 2938 2591 2744 2837 
Q 2550 3084 2163 3084 
Q 1697 3084 1428 2787 
Q 1159 2491 1159 1978 
L 1159 0 
L 581 0 
L 581 4863 
L 1159 4863 
L 1159 2956 
Q 1366 3272 1645 3428 
Q 1925 3584 2291 3584 
Q 2894 3584 3203 3211 
Q 3513 2838 3513 2113 
z
" transform="scale(0.015625)"/>
      <path id="DejaVuSans-33" d="M 2597 2516 
Q 3050 2419 3304 2112 
Q 3559 1806 3559 1356 
Q 3559 666 3084 287 
Q 2609 -91 1734 -91 
Q 1441 -91 1130 -33 
Q 819 25 488 141 
L 488 750 
Q 750 597 1062 519 
Q 1375 441 1716 441 
Q 2309 441 2620 675 
Q 2931 909 2931 1356 
Q 2931 1769 2642 2001 
Q 2353 2234 1838 2234 
L 1294 2234 
L 1294 2753 
L 1863 2753 
Q 2328 2753 2575 2939 
Q 2822 3125 2822 3475 
Q 2822 3834 2567 4026 
Q 2313 4219 1838 4219 
Q 1578 4219 1281 4162 
Q 984 4106 628 3988 
L 628 4550 
Q 988 4650 1302 4700 
Q 1616 4750 1894 4750 
Q 2613 4750 3031 4423 
Q 3450 4097 3450 3541 
Q 3450 3153 3228 2886 
Q 3006 2619 2597 2516 
z
" transform="scale(0.015625)"/>
     </defs>
     <use xlink:href="#DejaVuSans-43"/>
     <use xlink:href="#DejaVuSans-6f" transform="translate(69.824219 0)"/>
     <use xlink:href="#DejaVuSans-6d" transform="translate(131.005859 0)"/>
     <use xlink:href="#DejaVuSans-70" transform="translate(228.417969 0)"/>
     <use xlink:href="#DejaVuSans-61" transform="translate(291.894531 0)"/>
     <use xlink:href="#DejaVuSans-72" transform="translate(353.173828 0)"/>
     <use xlink:href="#DejaVuSans-65" transform="translate(392.037109 0)"/>
     <use xlink:href="#DejaVuSans-20" transform="translate(453.560547 0)"/>
     <use xlink:href="#DejaVuSans-2d" transform="translate(485.347656 0)"/>
     <use xlink:href="#DejaVuSans-20" transform="translate(521.431641 0)"/>
     <use xlink:href="#DejaVuSans-45" transform="translate(553.21875 0)"/>
     <use xlink:href="#DejaVuSans-70" transform="translate(616.402344 0)"/>
     <use xlink:href="#DejaVuSans-6f" transform="translate(679.878906 0)"/>
     <use xlink:href="#DejaVuSans-63" transform="translate(741.060547 0)"/>
     <use xlink:href="#DejaVuSans-68" transform="translate(796.041016 0)"/>
     <use xlink:href="#DejaVuSans-20" transform="translate(859.419922 0)"/>
     <use xlink:href="#DejaVuSans-33" transform="translate(891.207031 0)"/>
     <use xlink:href="#DejaVuSans-30" transform="translate(954.830078 0)"/>
     <use xlink:href="#DejaVuSans-30" transform="translate(1018.453125 0)"/>
    </g>
   </g>
   <g id="legend_1">
    <g id="patch_7">
     <path d="M 64.6 78.82825 
L 181.128125 78.82825 
Q 183.128125 78.82825 183.128125 76.82825 
L 183.128125 48.472 
Q 183.128125 46.472 181.128125 46.472 
L 64.6 46.472 
Q 62.6 46.472 62.6 48.472 
L 62.6 76.82825 
Q 62.6 78.82825 64.6 78.82825 
z
" style="fill: #ffffff; opacity: 0.8; stroke: #cccccc; stroke-linejoin: miter"/>
    </g>
    <g id="line2d_39">
     <path d="M 66.6 54.570437 
L 76.6 54.570437 
L 86.6 54.570437 
" style="fill: none; stroke: #1f77b4; stroke-width: 1.5; stroke-linecap: square"/>
    </g>
    <g id="text_22">
     <!-- Pred: Sample 1 -->
     <g transform="translate(94.6 58.070437) scale(0.1 -0.1)">
      <defs>
       <path id="DejaVuSans-50" d="M 1259 4147 
L 1259 2394 
L 2053 2394 
Q 2494 2394 2734 2622 
Q 2975 2850 2975 3272 
Q 2975 3691 2734 3919 
Q 2494 4147 2053 4147 
L 1259 4147 
z
M 628 4666 
L 2053 4666 
Q 2838 4666 3239 4311 
Q 3641 3956 3641 3272 
Q 3641 2581 3239 2228 
Q 2838 1875 2053 1875 
L 1259 1875 
L 1259 0 
L 628 0 
L 628 4666 
z
" transform="scale(0.015625)"/>
       <path id="DejaVuSans-3a" d="M 750 794 
L 1409 794 
L 1409 0 
L 750 0 
L 750 794 
z
M 750 3309 
L 1409 3309 
L 1409 2516 
L 750 2516 
L 750 3309 
z
" transform="scale(0.015625)"/>
       <path id="DejaVuSans-53" d="M 3425 4513 
L 3425 3897 
Q 3066 4069 2747 4153 
Q 2428 4238 2131 4238 
Q 1616 4238 1336 4038 
Q 1056 3838 1056 3469 
Q 1056 3159 1242 3001 
Q 1428 2844 1947 2747 
L 2328 2669 
Q 3034 2534 3370 2195 
Q 3706 1856 3706 1288 
Q 3706 609 3251 259 
Q 2797 -91 1919 -91 
Q 1588 -91 1214 -16 
Q 841 59 441 206 
L 441 856 
Q 825 641 1194 531 
Q 1563 422 1919 422 
Q 2459 422 2753 634 
Q 3047 847 3047 1241 
Q 3047 1584 2836 1778 
Q 2625 1972 2144 2069 
L 1759 2144 
Q 1053 2284 737 2584 
Q 422 2884 422 3419 
Q 422 4038 858 4394 
Q 1294 4750 2059 4750 
Q 2388 4750 2728 4690 
Q 3069 4631 3425 4513 
z
" transform="scale(0.015625)"/>
      </defs>
      <use xlink:href="#DejaVuSans-50"/>
      <use xlink:href="#DejaVuSans-72" transform="translate(58.552734 0)"/>
      <use xlink:href="#DejaVuSans-65" transform="translate(97.416016 0)"/>
      <use xlink:href="#DejaVuSans-64" transform="translate(158.939453 0)"/>
      <use xlink:href="#DejaVuSans-3a" transform="translate(222.416016 0)"/>
      <use xlink:href="#DejaVuSans-20" transform="translate(256.107422 0)"/>
      <use xlink:href="#DejaVuSans-53" transform="translate(287.894531 0)"/>
      <use xlink:href="#DejaVuSans-61" transform="translate(351.371094 0)"/>
      <use xlink:href="#DejaVuSans-6d" transform="translate(412.650391 0)"/>
      <use xlink:href="#DejaVuSans-70" transform="translate(510.0625 0)"/>
      <use xlink:href="#DejaVuSans-6c" transform="translate(573.539062 0)"/>
      <use xlink:href="#DejaVuSans-65" transform="translate(601.322266 0)"/>
      <use xlink:href="#DejaVuSans-20" transform="translate(662.845703 0)"/>
      <use xlink:href="#DejaVuSans-31" transform="translate(694.632812 0)"/>
     </g>
    </g>
    <g id="line2d_40">
     <path d="M 66.6 69.248562 
L 76.6 69.248562 
L 86.6 69.248562 
" style="fill: none; stroke: #ff7f0e; stroke-opacity: 0.5; stroke-width: 1.5; stroke-linecap: square"/>
    </g>
    <g id="text_23">
     <!-- Target: Sample 1 -->
     <g transform="translate(94.6 72.748562) scale(0.1 -0.1)">
      <defs>
       <path id="DejaVuSans-54" d="M -19 4666 
L 3928 4666 
L 3928 4134 
L 2272 4134 
L 2272 0 
L 1638 0 
L 1638 4134 
L -19 4134 
L -19 4666 
z
" transform="scale(0.015625)"/>
       <path id="DejaVuSans-67" d="M 2906 1791 
Q 2906 2416 2648 2759 
Q 2391 3103 1925 3103 
Q 1463 3103 1205 2759 
Q 947 2416 947 1791 
Q 947 1169 1205 825 
Q 1463 481 1925 481 
Q 2391 481 2648 825 
Q 2906 1169 2906 1791 
z
M 3481 434 
Q 3481 -459 3084 -895 
Q 2688 -1331 1869 -1331 
Q 1566 -1331 1297 -1286 
Q 1028 -1241 775 -1147 
L 775 -588 
Q 1028 -725 1275 -790 
Q 1522 -856 1778 -856 
Q 2344 -856 2625 -561 
Q 2906 -266 2906 331 
L 2906 616 
Q 2728 306 2450 153 
Q 2172 0 1784 0 
Q 1141 0 747 490 
Q 353 981 353 1791 
Q 353 2603 747 3093 
Q 1141 3584 1784 3584 
Q 2172 3584 2450 3431 
Q 2728 3278 2906 2969 
L 2906 3500 
L 3481 3500 
L 3481 434 
z
" transform="scale(0.015625)"/>
       <path id="DejaVuSans-74" d="M 1172 4494 
L 1172 3500 
L 2356 3500 
L 2356 3053 
L 1172 3053 
L 1172 1153 
Q 1172 725 1289 603 
Q 1406 481 1766 481 
L 2356 481 
L 2356 0 
L 1766 0 
Q 1100 0 847 248 
Q 594 497 594 1153 
L 594 3053 
L 172 3053 
L 172 3500 
L 594 3500 
L 594 4494 
L 1172 4494 
z
" transform="scale(0.015625)"/>
      </defs>
      <use xlink:href="#DejaVuSans-54"/>
      <use xlink:href="#DejaVuSans-61" transform="translate(44.583984 0)"/>
      <use xlink:href="#DejaVuSans-72" transform="translate(105.863281 0)"/>
      <use xlink:href="#DejaVuSans-67" transform="translate(145.226562 0)"/>
      <use xlink:href="#DejaVuSans-65" transform="translate(208.703125 0)"/>
      <use xlink:href="#DejaVuSans-74" transform="translate(270.226562 0)"/>
      <use xlink:href="#DejaVuSans-3a" transform="translate(309.435547 0)"/>
      <use xlink:href="#DejaVuSans-20" transform="translate(343.126953 0)"/>
      <use xlink:href="#DejaVuSans-53" transform="translate(374.914062 0)"/>
      <use xlink:href="#DejaVuSans-61" transform="translate(438.390625 0)"/>
      <use xlink:href="#DejaVuSans-6d" transform="translate(499.669922 0)"/>
      <use xlink:href="#DejaVuSans-70" transform="translate(597.082031 0)"/>
      <use xlink:href="#DejaVuSans-6c" transform="translate(660.558594 0)"/>
      <use xlink:href="#DejaVuSans-65" transform="translate(688.341797 0)"/>
      <use xlink:href="#DejaVuSans-20" transform="translate(749.865234 0)"/>
      <use xlink:href="#DejaVuSans-31" transform="translate(781.652344 0)"/>
     </g>
    </g>
   </g>
  </g>
 </g>
 <defs>
  <clipPath id="pd8aa51719d">
   <rect x="57.6" y="41.472" width="357.12" height="266.112"/>
  </clipPath>
 </defs>
</svg>
