<?xml version="1.0" encoding="utf-8" standalone="no"?>
<!DOCTYPE svg PUBLIC "-//W3C//DTD SVG 1.1//EN"
  "http://www.w3.org/Graphics/SVG/1.1/DTD/svg11.dtd">
<svg xmlns:xlink="http://www.w3.org/1999/xlink" width="460.8pt" height="345.6pt" viewBox="0 0 460.8 345.6" xmlns="http://www.w3.org/2000/svg" version="1.1">
 <metadata>
  <rdf:RDF xmlns:dc="http://purl.org/dc/elements/1.1/" xmlns:cc="http://creativecommons.org/ns#" xmlns:rdf="http://www.w3.org/1999/02/22-rdf-syntax-ns#">
   <cc:Work>
    <dc:type rdf:resource="http://purl.org/dc/dcmitype/StillImage"/>
    <dc:date>2025-07-23T13:57:58.916107</dc:date>
    <dc:format>image/svg+xml</dc:format>
    <dc:creator>
     <cc:Agent>
      <dc:title>Matplotlib v3.10.3, https://matplotlib.org/</dc:title>
     </cc:Agent>
    </dc:creator>
   </cc:Work>
  </rdf:RDF>
 </metadata>
 <defs>
  <style type="text/css">*{stroke-linejoin: round; stroke-linecap: butt}</style>
 </defs>
 <g id="figure_1">
  <g id="patch_1">
   <path d="M 0 345.6 
L 460.8 345.6 
L 460.8 0 
L 0 0 
z
" style="fill: #ffffff"/>
  </g>
  <g id="axes_1">
   <g id="patch_2">
    <path d="M 57.6 307.584 
L 414.72 307.584 
L 414.72 41.472 
L 57.6 41.472 
z
" style="fill: #ffffff"/>
   </g>
   <g id="matplotlib.axis_1">
    <g id="xtick_1">
     <g id="line2d_1">
      <path d="M 61.275984 307.584 
L 61.275984 41.472 
" clip-path="url(#pd5ed9a2331)" style="fill: none; stroke: #b0b0b0; stroke-opacity: 0.5; stroke-width: 0.8; stroke-linecap: square"/>
     </g>
     <g id="line2d_2">
      <defs>
       <path id="me5de49edcc" d="M 0 0 
L 0 3.5 
" style="stroke: #000000; stroke-width: 0.8"/>
      </defs>
      <g>
       <use xlink:href="#me5de49edcc" x="61.275984" y="307.584" style="stroke: #000000; stroke-width: 0.8"/>
      </g>
     </g>
     <g id="text_1">
      <!-- −1.00 -->
      <g transform="translate(45.953328 322.182437) scale(0.1 -0.1)">
       <defs>
        <path id="DejaVuSans-2212" d="M 678 2272 
L 4684 2272 
L 4684 1741 
L 678 1741 
L 678 2272 
z
" transform="scale(0.015625)"/>
        <path id="DejaVuSans-31" d="M 794 531 
L 1825 531 
L 1825 4091 
L 703 3866 
L 703 4441 
L 1819 4666 
L 2450 4666 
L 2450 531 
L 3481 531 
L 3481 0 
L 794 0 
L 794 531 
z
" transform="scale(0.015625)"/>
        <path id="DejaVuSans-2e" d="M 684 794 
L 1344 794 
L 1344 0 
L 684 0 
L 684 794 
z
" transform="scale(0.015625)"/>
        <path id="DejaVuSans-30" d="M 2034 4250 
Q 1547 4250 1301 3770 
Q 1056 3291 1056 2328 
Q 1056 1369 1301 889 
Q 1547 409 2034 409 
Q 2525 409 2770 889 
Q 3016 1369 3016 2328 
Q 3016 3291 2770 3770 
Q 2525 4250 2034 4250 
z
M 2034 4750 
Q 2819 4750 3233 4129 
Q 3647 3509 3647 2328 
Q 3647 1150 3233 529 
Q 2819 -91 2034 -91 
Q 1250 -91 836 529 
Q 422 1150 422 2328 
Q 422 3509 836 4129 
Q 1250 4750 2034 4750 
z
" transform="scale(0.015625)"/>
       </defs>
       <use xlink:href="#DejaVuSans-2212"/>
       <use xlink:href="#DejaVuSans-31" transform="translate(83.789062 0)"/>
       <use xlink:href="#DejaVuSans-2e" transform="translate(147.412109 0)"/>
       <use xlink:href="#DejaVuSans-30" transform="translate(179.199219 0)"/>
       <use xlink:href="#DejaVuSans-30" transform="translate(242.822266 0)"/>
      </g>
     </g>
    </g>
    <g id="xtick_2">
     <g id="line2d_3">
      <path d="M 102.345461 307.584 
L 102.345461 41.472 
" clip-path="url(#pd5ed9a2331)" style="fill: none; stroke: #b0b0b0; stroke-opacity: 0.5; stroke-width: 0.8; stroke-linecap: square"/>
     </g>
     <g id="line2d_4">
      <g>
       <use xlink:href="#me5de49edcc" x="102.345461" y="307.584" style="stroke: #000000; stroke-width: 0.8"/>
      </g>
     </g>
     <g id="text_2">
      <!-- −0.75 -->
      <g transform="translate(87.022804 322.182437) scale(0.1 -0.1)">
       <defs>
        <path id="DejaVuSans-37" d="M 525 4666 
L 3525 4666 
L 3525 4397 
L 1831 0 
L 1172 0 
L 2766 4134 
L 525 4134 
L 525 4666 
z
" transform="scale(0.015625)"/>
        <path id="DejaVuSans-35" d="M 691 4666 
L 3169 4666 
L 3169 4134 
L 1269 4134 
L 1269 2991 
Q 1406 3038 1543 3061 
Q 1681 3084 1819 3084 
Q 2600 3084 3056 2656 
Q 3513 2228 3513 1497 
Q 3513 744 3044 326 
Q 2575 -91 1722 -91 
Q 1428 -91 1123 -41 
Q 819 9 494 109 
L 494 744 
Q 775 591 1075 516 
Q 1375 441 1709 441 
Q 2250 441 2565 725 
Q 2881 1009 2881 1497 
Q 2881 1984 2565 2268 
Q 2250 2553 1709 2553 
Q 1456 2553 1204 2497 
Q 953 2441 691 2322 
L 691 4666 
z
" transform="scale(0.015625)"/>
       </defs>
       <use xlink:href="#DejaVuSans-2212"/>
       <use xlink:href="#DejaVuSans-30" transform="translate(83.789062 0)"/>
       <use xlink:href="#DejaVuSans-2e" transform="translate(147.412109 0)"/>
       <use xlink:href="#DejaVuSans-37" transform="translate(179.199219 0)"/>
       <use xlink:href="#DejaVuSans-35" transform="translate(242.822266 0)"/>
      </g>
     </g>
    </g>
    <g id="xtick_3">
     <g id="line2d_5">
      <path d="M 143.414937 307.584 
L 143.414937 41.472 
" clip-path="url(#pd5ed9a2331)" style="fill: none; stroke: #b0b0b0; stroke-opacity: 0.5; stroke-width: 0.8; stroke-linecap: square"/>
     </g>
     <g id="line2d_6">
      <g>
       <use xlink:href="#me5de49edcc" x="143.414937" y="307.584" style="stroke: #000000; stroke-width: 0.8"/>
      </g>
     </g>
     <g id="text_3">
      <!-- −0.50 -->
      <g transform="translate(128.092281 322.182437) scale(0.1 -0.1)">
       <use xlink:href="#DejaVuSans-2212"/>
       <use xlink:href="#DejaVuSans-30" transform="translate(83.789062 0)"/>
       <use xlink:href="#DejaVuSans-2e" transform="translate(147.412109 0)"/>
       <use xlink:href="#DejaVuSans-35" transform="translate(179.199219 0)"/>
       <use xlink:href="#DejaVuSans-30" transform="translate(242.822266 0)"/>
      </g>
     </g>
    </g>
    <g id="xtick_4">
     <g id="line2d_7">
      <path d="M 184.484414 307.584 
L 184.484414 41.472 
" clip-path="url(#pd5ed9a2331)" style="fill: none; stroke: #b0b0b0; stroke-opacity: 0.5; stroke-width: 0.8; stroke-linecap: square"/>
     </g>
     <g id="line2d_8">
      <g>
       <use xlink:href="#me5de49edcc" x="184.484414" y="307.584" style="stroke: #000000; stroke-width: 0.8"/>
      </g>
     </g>
     <g id="text_4">
      <!-- −0.25 -->
      <g transform="translate(169.161758 322.182437) scale(0.1 -0.1)">
       <defs>
        <path id="DejaVuSans-32" d="M 1228 531 
L 3431 531 
L 3431 0 
L 469 0 
L 469 531 
Q 828 903 1448 1529 
Q 2069 2156 2228 2338 
Q 2531 2678 2651 2914 
Q 2772 3150 2772 3378 
Q 2772 3750 2511 3984 
Q 2250 4219 1831 4219 
Q 1534 4219 1204 4116 
Q 875 4013 500 3803 
L 500 4441 
Q 881 4594 1212 4672 
Q 1544 4750 1819 4750 
Q 2544 4750 2975 4387 
Q 3406 4025 3406 3419 
Q 3406 3131 3298 2873 
Q 3191 2616 2906 2266 
Q 2828 2175 2409 1742 
Q 1991 1309 1228 531 
z
" transform="scale(0.015625)"/>
       </defs>
       <use xlink:href="#DejaVuSans-2212"/>
       <use xlink:href="#DejaVuSans-30" transform="translate(83.789062 0)"/>
       <use xlink:href="#DejaVuSans-2e" transform="translate(147.412109 0)"/>
       <use xlink:href="#DejaVuSans-32" transform="translate(179.199219 0)"/>
       <use xlink:href="#DejaVuSans-35" transform="translate(242.822266 0)"/>
      </g>
     </g>
    </g>
    <g id="xtick_5">
     <g id="line2d_9">
      <path d="M 225.553891 307.584 
L 225.553891 41.472 
" clip-path="url(#pd5ed9a2331)" style="fill: none; stroke: #b0b0b0; stroke-opacity: 0.5; stroke-width: 0.8; stroke-linecap: square"/>
     </g>
     <g id="line2d_10">
      <g>
       <use xlink:href="#me5de49edcc" x="225.553891" y="307.584" style="stroke: #000000; stroke-width: 0.8"/>
      </g>
     </g>
     <g id="text_5">
      <!-- 0.00 -->
      <g transform="translate(214.421078 322.182437) scale(0.1 -0.1)">
       <use xlink:href="#DejaVuSans-30"/>
       <use xlink:href="#DejaVuSans-2e" transform="translate(63.623047 0)"/>
       <use xlink:href="#DejaVuSans-30" transform="translate(95.410156 0)"/>
       <use xlink:href="#DejaVuSans-30" transform="translate(159.033203 0)"/>
      </g>
     </g>
    </g>
    <g id="xtick_6">
     <g id="line2d_11">
      <path d="M 266.623368 307.584 
L 266.623368 41.472 
" clip-path="url(#pd5ed9a2331)" style="fill: none; stroke: #b0b0b0; stroke-opacity: 0.5; stroke-width: 0.8; stroke-linecap: square"/>
     </g>
     <g id="line2d_12">
      <g>
       <use xlink:href="#me5de49edcc" x="266.623368" y="307.584" style="stroke: #000000; stroke-width: 0.8"/>
      </g>
     </g>
     <g id="text_6">
      <!-- 0.25 -->
      <g transform="translate(255.490555 322.182437) scale(0.1 -0.1)">
       <use xlink:href="#DejaVuSans-30"/>
       <use xlink:href="#DejaVuSans-2e" transform="translate(63.623047 0)"/>
       <use xlink:href="#DejaVuSans-32" transform="translate(95.410156 0)"/>
       <use xlink:href="#DejaVuSans-35" transform="translate(159.033203 0)"/>
      </g>
     </g>
    </g>
    <g id="xtick_7">
     <g id="line2d_13">
      <path d="M 307.692844 307.584 
L 307.692844 41.472 
" clip-path="url(#pd5ed9a2331)" style="fill: none; stroke: #b0b0b0; stroke-opacity: 0.5; stroke-width: 0.8; stroke-linecap: square"/>
     </g>
     <g id="line2d_14">
      <g>
       <use xlink:href="#me5de49edcc" x="307.692844" y="307.584" style="stroke: #000000; stroke-width: 0.8"/>
      </g>
     </g>
     <g id="text_7">
      <!-- 0.50 -->
      <g transform="translate(296.560032 322.182437) scale(0.1 -0.1)">
       <use xlink:href="#DejaVuSans-30"/>
       <use xlink:href="#DejaVuSans-2e" transform="translate(63.623047 0)"/>
       <use xlink:href="#DejaVuSans-35" transform="translate(95.410156 0)"/>
       <use xlink:href="#DejaVuSans-30" transform="translate(159.033203 0)"/>
      </g>
     </g>
    </g>
    <g id="xtick_8">
     <g id="line2d_15">
      <path d="M 348.762321 307.584 
L 348.762321 41.472 
" clip-path="url(#pd5ed9a2331)" style="fill: none; stroke: #b0b0b0; stroke-opacity: 0.5; stroke-width: 0.8; stroke-linecap: square"/>
     </g>
     <g id="line2d_16">
      <g>
       <use xlink:href="#me5de49edcc" x="348.762321" y="307.584" style="stroke: #000000; stroke-width: 0.8"/>
      </g>
     </g>
     <g id="text_8">
      <!-- 0.75 -->
      <g transform="translate(337.629509 322.182437) scale(0.1 -0.1)">
       <use xlink:href="#DejaVuSans-30"/>
       <use xlink:href="#DejaVuSans-2e" transform="translate(63.623047 0)"/>
       <use xlink:href="#DejaVuSans-37" transform="translate(95.410156 0)"/>
       <use xlink:href="#DejaVuSans-35" transform="translate(159.033203 0)"/>
      </g>
     </g>
    </g>
    <g id="xtick_9">
     <g id="line2d_17">
      <path d="M 389.831798 307.584 
L 389.831798 41.472 
" clip-path="url(#pd5ed9a2331)" style="fill: none; stroke: #b0b0b0; stroke-opacity: 0.5; stroke-width: 0.8; stroke-linecap: square"/>
     </g>
     <g id="line2d_18">
      <g>
       <use xlink:href="#me5de49edcc" x="389.831798" y="307.584" style="stroke: #000000; stroke-width: 0.8"/>
      </g>
     </g>
     <g id="text_9">
      <!-- 1.00 -->
      <g transform="translate(378.698985 322.182437) scale(0.1 -0.1)">
       <use xlink:href="#DejaVuSans-31"/>
       <use xlink:href="#DejaVuSans-2e" transform="translate(63.623047 0)"/>
       <use xlink:href="#DejaVuSans-30" transform="translate(95.410156 0)"/>
       <use xlink:href="#DejaVuSans-30" transform="translate(159.033203 0)"/>
      </g>
     </g>
    </g>
    <g id="text_10">
     <!-- Index -->
     <g transform="translate(222.393594 335.860562) scale(0.1 -0.1)">
      <defs>
       <path id="DejaVuSans-49" d="M 628 4666 
L 1259 4666 
L 1259 0 
L 628 0 
L 628 4666 
z
" transform="scale(0.015625)"/>
       <path id="DejaVuSans-6e" d="M 3513 2113 
L 3513 0 
L 2938 0 
L 2938 2094 
Q 2938 2591 2744 2837 
Q 2550 3084 2163 3084 
Q 1697 3084 1428 2787 
Q 1159 2491 1159 1978 
L 1159 0 
L 581 0 
L 581 3500 
L 1159 3500 
L 1159 2956 
Q 1366 3272 1645 3428 
Q 1925 3584 2291 3584 
Q 2894 3584 3203 3211 
Q 3513 2838 3513 2113 
z
" transform="scale(0.015625)"/>
       <path id="DejaVuSans-64" d="M 2906 2969 
L 2906 4863 
L 3481 4863 
L 3481 0 
L 2906 0 
L 2906 525 
Q 2725 213 2448 61 
Q 2172 -91 1784 -91 
Q 1150 -91 751 415 
Q 353 922 353 1747 
Q 353 2572 751 3078 
Q 1150 3584 1784 3584 
Q 2172 3584 2448 3432 
Q 2725 3281 2906 2969 
z
M 947 1747 
Q 947 1113 1208 752 
Q 1469 391 1925 391 
Q 2381 391 2643 752 
Q 2906 1113 2906 1747 
Q 2906 2381 2643 2742 
Q 2381 3103 1925 3103 
Q 1469 3103 1208 2742 
Q 947 2381 947 1747 
z
" transform="scale(0.015625)"/>
       <path id="DejaVuSans-65" d="M 3597 1894 
L 3597 1613 
L 953 1613 
Q 991 1019 1311 708 
Q 1631 397 2203 397 
Q 2534 397 2845 478 
Q 3156 559 3463 722 
L 3463 178 
Q 3153 47 2828 -22 
Q 2503 -91 2169 -91 
Q 1331 -91 842 396 
Q 353 884 353 1716 
Q 353 2575 817 3079 
Q 1281 3584 2069 3584 
Q 2775 3584 3186 3129 
Q 3597 2675 3597 1894 
z
M 3022 2063 
Q 3016 2534 2758 2815 
Q 2500 3097 2075 3097 
Q 1594 3097 1305 2825 
Q 1016 2553 972 2059 
L 3022 2063 
z
" transform="scale(0.015625)"/>
       <path id="DejaVuSans-78" d="M 3513 3500 
L 2247 1797 
L 3578 0 
L 2900 0 
L 1881 1375 
L 863 0 
L 184 0 
L 1544 1831 
L 300 3500 
L 978 3500 
L 1906 2253 
L 2834 3500 
L 3513 3500 
z
" transform="scale(0.015625)"/>
      </defs>
      <use xlink:href="#DejaVuSans-49"/>
      <use xlink:href="#DejaVuSans-6e" transform="translate(29.492188 0)"/>
      <use xlink:href="#DejaVuSans-64" transform="translate(92.871094 0)"/>
      <use xlink:href="#DejaVuSans-65" transform="translate(156.347656 0)"/>
      <use xlink:href="#DejaVuSans-78" transform="translate(216.121094 0)"/>
     </g>
    </g>
   </g>
   <g id="matplotlib.axis_2">
    <g id="ytick_1">
     <g id="line2d_19">
      <path d="M 57.6 303.668317 
L 414.72 303.668317 
" clip-path="url(#pd5ed9a2331)" style="fill: none; stroke: #b0b0b0; stroke-opacity: 0.5; stroke-width: 0.8; stroke-linecap: square"/>
     </g>
     <g id="line2d_20">
      <defs>
       <path id="mc928782a72" d="M 0 0 
L -3.5 0 
" style="stroke: #000000; stroke-width: 0.8"/>
      </defs>
      <g>
       <use xlink:href="#mc928782a72" x="57.6" y="303.668317" style="stroke: #000000; stroke-width: 0.8"/>
      </g>
     </g>
     <g id="text_11">
      <!-- −1.00 -->
      <g transform="translate(19.954687 307.467535) scale(0.1 -0.1)">
       <use xlink:href="#DejaVuSans-2212"/>
       <use xlink:href="#DejaVuSans-31" transform="translate(83.789062 0)"/>
       <use xlink:href="#DejaVuSans-2e" transform="translate(147.412109 0)"/>
       <use xlink:href="#DejaVuSans-30" transform="translate(179.199219 0)"/>
       <use xlink:href="#DejaVuSans-30" transform="translate(242.822266 0)"/>
      </g>
     </g>
    </g>
    <g id="ytick_2">
     <g id="line2d_21">
      <path d="M 57.6 272.405773 
L 414.72 272.405773 
" clip-path="url(#pd5ed9a2331)" style="fill: none; stroke: #b0b0b0; stroke-opacity: 0.5; stroke-width: 0.8; stroke-linecap: square"/>
     </g>
     <g id="line2d_22">
      <g>
       <use xlink:href="#mc928782a72" x="57.6" y="272.405773" style="stroke: #000000; stroke-width: 0.8"/>
      </g>
     </g>
     <g id="text_12">
      <!-- −0.75 -->
      <g transform="translate(19.954687 276.204992) scale(0.1 -0.1)">
       <use xlink:href="#DejaVuSans-2212"/>
       <use xlink:href="#DejaVuSans-30" transform="translate(83.789062 0)"/>
       <use xlink:href="#DejaVuSans-2e" transform="translate(147.412109 0)"/>
       <use xlink:href="#DejaVuSans-37" transform="translate(179.199219 0)"/>
       <use xlink:href="#DejaVuSans-35" transform="translate(242.822266 0)"/>
      </g>
     </g>
    </g>
    <g id="ytick_3">
     <g id="line2d_23">
      <path d="M 57.6 241.14323 
L 414.72 241.14323 
" clip-path="url(#pd5ed9a2331)" style="fill: none; stroke: #b0b0b0; stroke-opacity: 0.5; stroke-width: 0.8; stroke-linecap: square"/>
     </g>
     <g id="line2d_24">
      <g>
       <use xlink:href="#mc928782a72" x="57.6" y="241.14323" style="stroke: #000000; stroke-width: 0.8"/>
      </g>
     </g>
     <g id="text_13">
      <!-- −0.50 -->
      <g transform="translate(19.954687 244.942449) scale(0.1 -0.1)">
       <use xlink:href="#DejaVuSans-2212"/>
       <use xlink:href="#DejaVuSans-30" transform="translate(83.789062 0)"/>
       <use xlink:href="#DejaVuSans-2e" transform="translate(147.412109 0)"/>
       <use xlink:href="#DejaVuSans-35" transform="translate(179.199219 0)"/>
       <use xlink:href="#DejaVuSans-30" transform="translate(242.822266 0)"/>
      </g>
     </g>
    </g>
    <g id="ytick_4">
     <g id="line2d_25">
      <path d="M 57.6 209.880687 
L 414.72 209.880687 
" clip-path="url(#pd5ed9a2331)" style="fill: none; stroke: #b0b0b0; stroke-opacity: 0.5; stroke-width: 0.8; stroke-linecap: square"/>
     </g>
     <g id="line2d_26">
      <g>
       <use xlink:href="#mc928782a72" x="57.6" y="209.880687" style="stroke: #000000; stroke-width: 0.8"/>
      </g>
     </g>
     <g id="text_14">
      <!-- −0.25 -->
      <g transform="translate(19.954687 213.679906) scale(0.1 -0.1)">
       <use xlink:href="#DejaVuSans-2212"/>
       <use xlink:href="#DejaVuSans-30" transform="translate(83.789062 0)"/>
       <use xlink:href="#DejaVuSans-2e" transform="translate(147.412109 0)"/>
       <use xlink:href="#DejaVuSans-32" transform="translate(179.199219 0)"/>
       <use xlink:href="#DejaVuSans-35" transform="translate(242.822266 0)"/>
      </g>
     </g>
    </g>
    <g id="ytick_5">
     <g id="line2d_27">
      <path d="M 57.6 178.618143 
L 414.72 178.618143 
" clip-path="url(#pd5ed9a2331)" style="fill: none; stroke: #b0b0b0; stroke-opacity: 0.5; stroke-width: 0.8; stroke-linecap: square"/>
     </g>
     <g id="line2d_28">
      <g>
       <use xlink:href="#mc928782a72" x="57.6" y="178.618143" style="stroke: #000000; stroke-width: 0.8"/>
      </g>
     </g>
     <g id="text_15">
      <!-- 0.00 -->
      <g transform="translate(28.334375 182.417362) scale(0.1 -0.1)">
       <use xlink:href="#DejaVuSans-30"/>
       <use xlink:href="#DejaVuSans-2e" transform="translate(63.623047 0)"/>
       <use xlink:href="#DejaVuSans-30" transform="translate(95.410156 0)"/>
       <use xlink:href="#DejaVuSans-30" transform="translate(159.033203 0)"/>
      </g>
     </g>
    </g>
    <g id="ytick_6">
     <g id="line2d_29">
      <path d="M 57.6 147.3556 
L 414.72 147.3556 
" clip-path="url(#pd5ed9a2331)" style="fill: none; stroke: #b0b0b0; stroke-opacity: 0.5; stroke-width: 0.8; stroke-linecap: square"/>
     </g>
     <g id="line2d_30">
      <g>
       <use xlink:href="#mc928782a72" x="57.6" y="147.3556" style="stroke: #000000; stroke-width: 0.8"/>
      </g>
     </g>
     <g id="text_16">
      <!-- 0.25 -->
      <g transform="translate(28.334375 151.154819) scale(0.1 -0.1)">
       <use xlink:href="#DejaVuSans-30"/>
       <use xlink:href="#DejaVuSans-2e" transform="translate(63.623047 0)"/>
       <use xlink:href="#DejaVuSans-32" transform="translate(95.410156 0)"/>
       <use xlink:href="#DejaVuSans-35" transform="translate(159.033203 0)"/>
      </g>
     </g>
    </g>
    <g id="ytick_7">
     <g id="line2d_31">
      <path d="M 57.6 116.093057 
L 414.72 116.093057 
" clip-path="url(#pd5ed9a2331)" style="fill: none; stroke: #b0b0b0; stroke-opacity: 0.5; stroke-width: 0.8; stroke-linecap: square"/>
     </g>
     <g id="line2d_32">
      <g>
       <use xlink:href="#mc928782a72" x="57.6" y="116.093057" style="stroke: #000000; stroke-width: 0.8"/>
      </g>
     </g>
     <g id="text_17">
      <!-- 0.50 -->
      <g transform="translate(28.334375 119.892276) scale(0.1 -0.1)">
       <use xlink:href="#DejaVuSans-30"/>
       <use xlink:href="#DejaVuSans-2e" transform="translate(63.623047 0)"/>
       <use xlink:href="#DejaVuSans-35" transform="translate(95.410156 0)"/>
       <use xlink:href="#DejaVuSans-30" transform="translate(159.033203 0)"/>
      </g>
     </g>
    </g>
    <g id="ytick_8">
     <g id="line2d_33">
      <path d="M 57.6 84.830514 
L 414.72 84.830514 
" clip-path="url(#pd5ed9a2331)" style="fill: none; stroke: #b0b0b0; stroke-opacity: 0.5; stroke-width: 0.8; stroke-linecap: square"/>
     </g>
     <g id="line2d_34">
      <g>
       <use xlink:href="#mc928782a72" x="57.6" y="84.830514" style="stroke: #000000; stroke-width: 0.8"/>
      </g>
     </g>
     <g id="text_18">
      <!-- 0.75 -->
      <g transform="translate(28.334375 88.629732) scale(0.1 -0.1)">
       <use xlink:href="#DejaVuSans-30"/>
       <use xlink:href="#DejaVuSans-2e" transform="translate(63.623047 0)"/>
       <use xlink:href="#DejaVuSans-37" transform="translate(95.410156 0)"/>
       <use xlink:href="#DejaVuSans-35" transform="translate(159.033203 0)"/>
      </g>
     </g>
    </g>
    <g id="ytick_9">
     <g id="line2d_35">
      <path d="M 57.6 53.56797 
L 414.72 53.56797 
" clip-path="url(#pd5ed9a2331)" style="fill: none; stroke: #b0b0b0; stroke-opacity: 0.5; stroke-width: 0.8; stroke-linecap: square"/>
     </g>
     <g id="line2d_36">
      <g>
       <use xlink:href="#mc928782a72" x="57.6" y="53.56797" style="stroke: #000000; stroke-width: 0.8"/>
      </g>
     </g>
     <g id="text_19">
      <!-- 1.00 -->
      <g transform="translate(28.334375 57.367189) scale(0.1 -0.1)">
       <use xlink:href="#DejaVuSans-31"/>
       <use xlink:href="#DejaVuSans-2e" transform="translate(63.623047 0)"/>
       <use xlink:href="#DejaVuSans-30" transform="translate(95.410156 0)"/>
       <use xlink:href="#DejaVuSans-30" transform="translate(159.033203 0)"/>
      </g>
     </g>
    </g>
    <g id="text_20">
     <!-- Value -->
     <g transform="translate(13.875 188.25925) rotate(-90) scale(0.1 -0.1)">
      <defs>
       <path id="DejaVuSans-56" d="M 1831 0 
L 50 4666 
L 709 4666 
L 2188 738 
L 3669 4666 
L 4325 4666 
L 2547 0 
L 1831 0 
z
" transform="scale(0.015625)"/>
       <path id="DejaVuSans-61" d="M 2194 1759 
Q 1497 1759 1228 1600 
Q 959 1441 959 1056 
Q 959 750 1161 570 
Q 1363 391 1709 391 
Q 2188 391 2477 730 
Q 2766 1069 2766 1631 
L 2766 1759 
L 2194 1759 
z
M 3341 1997 
L 3341 0 
L 2766 0 
L 2766 531 
Q 2569 213 2275 61 
Q 1981 -91 1556 -91 
Q 1019 -91 701 211 
Q 384 513 384 1019 
Q 384 1609 779 1909 
Q 1175 2209 1959 2209 
L 2766 2209 
L 2766 2266 
Q 2766 2663 2505 2880 
Q 2244 3097 1772 3097 
Q 1472 3097 1187 3025 
Q 903 2953 641 2809 
L 641 3341 
Q 956 3463 1253 3523 
Q 1550 3584 1831 3584 
Q 2591 3584 2966 3190 
Q 3341 2797 3341 1997 
z
" transform="scale(0.015625)"/>
       <path id="DejaVuSans-6c" d="M 603 4863 
L 1178 4863 
L 1178 0 
L 603 0 
L 603 4863 
z
" transform="scale(0.015625)"/>
       <path id="DejaVuSans-75" d="M 544 1381 
L 544 3500 
L 1119 3500 
L 1119 1403 
Q 1119 906 1312 657 
Q 1506 409 1894 409 
Q 2359 409 2629 706 
Q 2900 1003 2900 1516 
L 2900 3500 
L 3475 3500 
L 3475 0 
L 2900 0 
L 2900 538 
Q 2691 219 2414 64 
Q 2138 -91 1772 -91 
Q 1169 -91 856 284 
Q 544 659 544 1381 
z
M 1991 3584 
L 1991 3584 
z
" transform="scale(0.015625)"/>
      </defs>
      <use xlink:href="#DejaVuSans-56"/>
      <use xlink:href="#DejaVuSans-61" transform="translate(60.658203 0)"/>
      <use xlink:href="#DejaVuSans-6c" transform="translate(121.9375 0)"/>
      <use xlink:href="#DejaVuSans-75" transform="translate(149.720703 0)"/>
      <use xlink:href="#DejaVuSans-65" transform="translate(213.099609 0)"/>
     </g>
    </g>
   </g>
   <g id="line2d_37">
    <path d="M 93.39833 295.488 
L 105.049877 295.40048 
L 111.25411 295.117945 
L 116.640803 294.629364 
L 118.581925 293.947339 
L 115.369827 293.105347 
L 109.276299 292.149404 
L 104.063184 291.126573 
L 102.734212 290.072757 
L 104.534264 289.004086 
L 107.688238 287.91383 
L 112.765816 286.776385 
L 129.25334 284.227428 
L 135.345458 282.775413 
L 138.062858 281.217646 
L 137.866289 279.599468 
L 136.840508 277.988752 
L 139.501537 276.46194 
L 145.644342 275.086279 
L 145.582693 273.902667 
L 140.002815 272.080567 
L 137.150886 271.32912 
L 128.802 270.565755 
L 137.643018 269.697541 
L 155.014099 268.653109 
L 164.237043 267.398725 
L 166.690718 265.945786 
L 165.626259 264.348053 
L 158.970118 261.063875 
L 161.381541 259.556599 
L 165.223325 258.22358 
L 164.712427 257.08144 
L 163.581355 256.105089 
L 163.150553 255.234937 
L 156.831277 254.391267 
L 153.934669 253.492411 
L 164.52538 252.47239 
L 174.202867 251.294204 
L 178.702738 249.956251 
L 179.837662 248.490715 
L 178.883072 246.955033 
L 177.008705 245.418472 
L 176.205524 243.946988 
L 182.303709 241.369289 
L 183.441292 240.279354 
L 183.454937 239.286452 
L 180.300067 238.338746 
L 176.049204 237.377541 
L 178.522188 236.349686 
L 185.127035 235.218461 
L 190.383724 233.970446 
L 193.296811 232.617444 
L 194.405832 231.193 
L 194.208994 229.744428 
L 193.250242 228.322342 
L 193.653166 226.96956 
L 198.429615 224.554801 
L 199.601591 223.479627 
L 198.874325 222.451925 
L 196.821328 221.42805 
L 196.985066 220.365607 
L 200.177947 219.232955 
L 203.943556 218.015947 
L 206.77713 216.720289 
L 208.475519 215.369273 
L 209.053618 213.997555 
L 208.744322 212.642533 
L 208.91438 211.335411 
L 210.477408 210.094444 
L 212.528893 208.921382 
L 213.99375 207.802258 
L 214.425408 206.711708 
L 214.424894 205.619817 
L 215.247854 204.499585 
L 217.153123 203.3329 
L 219.422963 202.114161 
L 221.501771 200.850424 
L 223.073647 199.558517 
L 224.016233 198.260171 
L 224.602664 196.976423 
L 225.425409 195.7228 
L 226.71589 194.50634 
L 229.533479 192.16899 
L 232.769791 188.712703 
L 235.687373 186.316086 
L 213.752051 186.163392 
L 251.920684 184.931087 
L 245.984274 183.687672 
L 238.715587 182.442584 
L 240.818649 181.204533 
L 241.833537 179.979883 
L 242.995511 178.771698 
L 273.521898 151.313979 
L 283.975345 141.858658 
L 290.461335 135.934176 
L 293.647896 132.417082 
L 299.772572 125.353724 
L 302.691054 121.841952 
L 304.557543 119.499771 
L 307.701961 115.976967 
L 317.513887 105.432967 
L 323.501136 99.601047 
L 327.306593 94.923715 
L 329.911975 92.56018 
L 333.99067 89.05481 
L 335.147425 87.900408 
L 337.033635 85.59197 
L 338.865853 83.259278 
L 340.008048 82.082971 
L 342.710682 79.729543 
L 345.464742 77.401532 
L 346.638417 76.248501 
L 347.581517 75.097998 
L 349.856782 71.617598 
L 352.103924 69.272861 
L 355.894145 65.809119 
L 356.685629 64.671115 
L 356.985335 63.529437 
L 356.966965 62.374439 
L 357.127001 61.200934 
L 357.984972 60.013401 
L 359.745338 58.829439 
L 364.537203 56.607529 
L 362.51247 55.65655 
L 355.847536 54.867716 
L 344.188528 53.863989 
L 348.218156 53.641656 
L 361.136419 53.568 
L 389.960931 53.693384 
L 397.773848 53.816338 
L 398.487273 53.95405 
L 395.912734 54.112901 
L 377.837207 54.597867 
L 363.919845 54.98596 
L 354.153352 55.495337 
L 352.207188 56.116883 
L 357.838821 56.815163 
L 377.791167 58.20038 
L 372.440478 58.752138 
L 356.755014 59.385184 
L 375.478733 59.130854 
L 356.855516 59.184668 
L 335.908644 59.411935 
L 326.513091 59.830185 
L 328.777643 60.418846 
L 340.059053 61.123864 
L 369.615878 62.572339 
L 366.168818 63.161551 
L 352.456818 63.842643 
L 352.856849 63.942387 
L 370.861072 63.907147 
L 354.15813 64.034573 
L 337.485699 64.300099 
L 329.776634 64.724207 
L 332.387343 65.28561 
L 342.704748 65.936516 
L 356.732121 66.612674 
L 366.360903 67.246578 
L 362.821008 67.78082 
L 350.799314 68.433522 
L 351.686816 68.564265 
L 366.770638 68.648259 
L 364.526286 68.722705 
L 351.187418 68.891447 
L 337.78983 69.186437 
L 331.673174 69.61366 
L 334.296789 70.152501 
L 343.490701 70.760437 
L 355.174296 71.382184 
L 361.836567 71.961066 
L 358.345699 72.450452 
L 348.568151 73.075464 
L 350.040416 73.229067 
L 361.480951 73.411926 
L 357.590346 73.543325 
L 346.6336 73.759255 
L 336.677578 74.082352 
L 332.848896 74.513124 
L 335.973866 75.030439 
L 352.789286 76.165014 
L 356.58876 76.690446 
L 353.484939 77.137422 
L 346.521592 77.741116 
L 348.234488 77.919383 
L 355.198482 78.194771 
L 335.683933 78.963047 
L 333.412184 79.386291 
L 336.311093 79.875208 
L 348.809253 80.916718 
L 350.985572 81.39561 
L 348.599563 81.807628 
L 345.161982 82.139908 
L 343.750191 82.395745 
L 345.153345 82.593667 
L 347.967909 82.763191 
L 348.530766 82.938521 
L 333.459988 83.771972 
L 332.33015 84.184922 
L 335.013288 84.647089 
L 344.006519 85.6064 
L 345.034993 86.044588 
L 343.16541 86.425906 
L 340.822945 86.742496 
L 339.997042 86.999734 
L 342.341044 87.411767 
L 341.709752 87.618753 
L 333.952766 88.151862 
L 330.97002 88.500443 
L 330.702559 88.899925 
L 332.987968 89.334557 
L 339.03524 90.218417 
L 339.526687 90.622453 
L 338.291167 90.980135 
L 336.8115 91.287058 
L 336.241102 91.548976 
L 336.876478 92.000931 
L 335.749479 92.232208 
L 330.000434 92.793916 
L 328.073128 93.139658 
L 328.069153 93.524083 
L 329.754818 93.933903 
L 333.687538 94.756867 
L 333.892772 95.134912 
L 331.277745 96.041281 
L 331.15338 96.285147 
L 330.75566 96.523296 
L 329.434276 96.772498 
L 325.089667 97.354317 
L 323.854206 97.696592 
L 323.973293 98.067855 
L 327.462888 99.229367 
L 327.383663 99.586706 
L 323.962385 100.996952 
L 319.428747 101.865673 
L 318.635833 102.206115 
L 318.693399 102.567769 
L 320.634559 103.680983 
L 320.544847 104.027492 
L 319.393546 104.652734 
L 318.137189 105.211089 
L 316.097847 105.770688 
L 313.745913 106.394604 
L 313.231632 106.736686 
L 313.288111 107.094137 
L 314.22701 107.824177 
L 314.453424 108.179966 
L 314.258706 108.520914 
L 313.168711 109.150927 
L 311.76584 109.733856 
L 308.087079 110.963725 
L 307.72455 111.305762 
L 307.733108 111.657861 
L 308.116239 112.367986 
L 308.093179 112.713772 
L 307.80824 113.047602 
L 306.727537 113.676803 
L 304.475929 114.574511 
L 302.83303 115.198926 
L 302.279866 115.527383 
L 301.959005 115.865529 
L 301.877803 116.55636 
L 301.840809 116.899895 
L 301.641734 117.236759 
L 301.295043 117.564515 
L 300.166493 118.192981 
L 296.151102 120.071918 
L 295.759717 120.745732 
L 295.533342 121.42075 
L 294.894304 122.075159 
L 293.856234 122.704572 
L 290.980502 124.273601 
L 290.349817 124.930577 
L 289.679397 125.921317 
L 288.933542 126.563468 
L 287.345755 127.496588 
L 285.709978 128.431028 
L 284.979241 129.069899 
L 283.568283 130.673558 
L 282.151048 131.601505 
L 280.223557 132.835913 
L 279.249525 133.782282 
L 278.265339 134.72498 
L 276.408602 135.953638 
L 274.688034 137.183294 
L 272.05619 139.348005 
L 269.382627 141.178397 
L 266.61762 143.326386 
L 263.578058 145.464309 
L 261.610395 147.000531 
L 246.698497 158.134504 
L 227.928659 172.47856 
L 207.620109 186.910432 
L 204.650284 188.968646 
L 191.803225 197.835388 
L 177.504529 207.784551 
L 175.041195 209.514469 
L 168.166395 214.648237 
L 162.701916 219.156716 
L 160.983135 220.55912 
L 159.422491 221.963112 
L 157.799081 223.366034 
L 155.917552 225.051604 
L 154.639247 226.176761 
L 153.16381 227.587256 
L 150.909818 229.561864 
L 149.561131 230.691918 
L 147.905213 232.105488 
L 146.283972 233.520045 
L 144.641092 234.933634 
L 143.07912 236.346939 
L 141.002941 238.038177 
L 139.602705 239.163424 
L 138.075088 240.283822 
L 136.10463 241.964084 
L 134.600827 243.075919 
L 132.67733 244.742873 
L 130.564726 246.397998 
L 129.259107 247.499062 
L 127.149656 249.140062 
L 125.914586 250.233896 
L 123.832621 251.862509 
L 122.632987 252.948636 
L 120.23189 254.83998 
L 119.270783 255.650242 
L 117.376045 256.992206 
L 115.533829 258.611315 
L 114.034079 259.683653 
L 111.861863 261.571657 
L 110.447155 262.648408 
L 108.889252 264.000851 
L 107.042219 265.347279 
L 105.945781 266.4343 
L 103.440509 268.321917 
L 102.664514 269.138582 
L 99.956701 271.298434 
L 99.440138 271.841218 
L 98.270046 272.645093 
L 97.21583 273.450622 
L 95.971155 274.803803 
L 94.065371 276.135004 
L 92.915441 277.480783 
L 90.989584 278.800095 
L 90.091076 280.137661 
L 88.067381 281.710044 
L 87.727295 282.510639 
L 87.10223 283.032934 
L 85.54513 284.0657 
L 85.32981 284.596171 
L 85.184834 285.127737 
L 84.963668 285.38897 
L 84.09803 285.900225 
L 83.185618 286.40835 
L 82.893922 286.666959 
L 82.758601 287.195992 
L 82.734337 287.727603 
L 82.535232 287.987732 
L 81.588861 288.493107 
L 80.511213 288.994017 
L 80.216659 289.250658 
L 80.1207 289.513389 
L 80.383324 290.315043 
L 80.223151 290.574129 
L 79.770136 290.825508 
L 77.753765 291.562867 
L 77.46299 291.819106 
L 77.473869 292.085132 
L 78.409821 292.900962 
L 78.278896 293.157142 
L 77.590645 293.399904 
L 74.516444 294.114747 
L 74.410273 294.381413 
L 75.054529 294.666862 
L 76.562935 294.956106 
L 79.217952 295.218904 
L 83.321292 295.412413 
L 83.321292 295.412413 
" clip-path="url(#pd5ed9a2331)" style="fill: none; stroke: #1f77b4; stroke-width: 1.5; stroke-linecap: square"/>
   </g>
   <g id="line2d_38">
    <path d="M 82.636331 295.488 
L 84.857369 295.40048 
L 86.424642 295.117945 
L 87.198884 294.629364 
L 87.2729 293.947339 
L 86.694835 292.149404 
L 86.947854 291.126573 
L 88.051391 290.072757 
L 90.112226 289.004086 
L 99.240259 285.557376 
L 101.575361 284.227428 
L 102.81658 282.775413 
L 102.86827 281.217646 
L 101.960274 279.599468 
L 100.605089 277.988752 
L 99.476622 276.46194 
L 99.241278 275.086279 
L 100.38594 273.902667 
L 103.087918 272.913757 
L 107.161844 272.080567 
L 117.17974 270.565755 
L 121.657046 269.697541 
L 124.920364 268.653109 
L 126.642582 267.398725 
L 126.848874 265.945786 
L 125.901074 264.348053 
L 123.058526 261.063875 
L 122.500858 259.556599 
L 123.163141 258.22358 
L 125.189783 257.08144 
L 128.42262 256.105089 
L 140.690811 253.492411 
L 143.862126 252.47239 
L 145.977613 251.294204 
L 147.003595 249.956251 
L 147.131857 248.490715 
L 146.226852 245.418472 
L 146.074454 243.946988 
L 146.604029 242.589625 
L 147.993715 241.369289 
L 150.236907 240.279354 
L 153.153534 239.286452 
L 159.713609 237.377541 
L 162.637756 236.349686 
L 164.945891 235.218461 
L 166.516969 233.970446 
L 167.392001 232.617444 
L 167.760826 231.193 
L 167.917039 229.744428 
L 168.190732 228.322342 
L 168.873891 226.96956 
L 170.155158 225.712258 
L 172.079026 224.554801 
L 174.539149 223.479627 
L 180.090886 221.42805 
L 182.605034 220.365607 
L 184.64092 219.232955 
L 186.113865 218.015947 
L 187.079207 216.720289 
L 188.982058 212.642533 
L 190.069358 211.335411 
L 191.618742 210.094444 
L 193.604342 208.921382 
L 202.606838 204.499585 
L 204.272717 203.3329 
L 205.589473 202.114161 
L 207.600113 199.558517 
L 208.598765 198.260171 
L 209.776261 196.976423 
L 211.206292 195.7228 
L 212.894301 194.50634 
L 216.778389 192.16899 
L 220.651331 189.876318 
L 222.369162 188.712703 
L 223.899537 187.526397 
L 226.668798 184.931087 
L 229.137391 182.442584 
L 231.989616 179.979883 
L 235.39043 177.579536 
L 242.564097 172.876827 
L 245.514021 170.48861 
L 252.150141 164.407394 
L 255.570421 162.020173 
L 260.968653 158.491213 
L 264.003721 156.121372 
L 270.698092 150.118311 
L 274.04085 147.750613 
L 279.184224 144.224877 
L 282.166 141.858658 
L 287.72822 137.111636 
L 292.435788 133.589111 
L 298.728206 128.886806 
L 310.737944 119.499771 
L 315.207759 115.976967 
L 320.194167 112.468281 
L 323.444892 110.133718 
L 326.311636 107.788116 
L 330.348432 104.25739 
L 333.487238 101.920934 
L 340.376912 97.274735 
L 343.240512 94.923715 
L 347.167944 91.383745 
L 350.271726 89.05481 
L 357.008619 84.429534 
L 359.814252 82.082971 
L 362.498733 79.729543 
L 365.568517 77.401532 
L 370.611305 73.944841 
L 373.463116 71.617598 
L 377.307759 68.107338 
L 378.891453 66.952773 
L 382.72555 64.671115 
L 384.723366 63.529437 
L 386.472668 62.374439 
L 387.72547 61.200934 
L 388.301145 60.013401 
L 388.148071 58.829439 
L 387.374515 57.680269 
L 384.259356 54.867716 
L 384.037289 54.267831 
L 384.512717 53.863989 
L 385.585019 53.641656 
L 388.286712 53.599685 
L 389.128018 53.693384 
L 389.204364 53.816338 
L 386.883911 54.112901 
L 383.070513 54.597867 
L 381.722496 54.98596 
L 381.265359 55.495337 
L 381.848016 56.116883 
L 383.359291 56.815163 
L 389.831798 59.13979 
L 389.186053 59.345024 
L 387.258239 59.385184 
L 377.434856 59.130854 
L 374.677417 59.184668 
L 373.010317 59.411935 
L 372.644968 59.830185 
L 373.523668 60.418846 
L 375.338888 61.123864 
L 381.276874 63.161551 
L 381.788228 63.589565 
L 381.126865 63.842643 
L 379.365637 63.942387 
L 368.720523 64.034573 
L 367.33847 64.300099 
L 366.992479 64.724207 
L 367.620344 65.28561 
L 368.973796 65.936516 
L 373.399166 67.78082 
L 373.728423 68.179221 
L 373.138138 68.433522 
L 371.680317 68.564265 
L 364.841599 68.722705 
L 362.966004 68.891447 
L 361.801062 69.186437 
L 361.459409 69.61366 
L 361.885584 70.152501 
L 362.872453 70.760437 
L 365.237449 71.961066 
L 365.943942 72.450452 
L 366.003573 72.822959 
L 365.331489 73.075464 
L 363.993714 73.229067 
L 358.345826 73.543325 
L 356.897209 73.759255 
L 356.039806 74.082352 
L 355.832398 74.513124 
L 356.200949 75.030439 
L 358.941575 77.137422 
L 358.762435 77.48721 
L 358.008834 77.741116 
L 355.189336 78.056686 
L 352.037879 78.373857 
L 350.905152 78.624767 
L 350.260299 78.963047 
L 350.124977 79.386291 
L 350.417172 79.875208 
L 352.012861 81.39561 
L 352.112423 81.807628 
L 351.775911 82.139908 
L 350.998125 82.395745 
L 348.526047 82.763191 
L 345.988364 83.151708 
L 345.111917 83.426089 
L 344.615956 83.771972 
L 344.492453 84.184922 
L 344.659079 84.647089 
L 345.293083 85.6064 
L 345.44933 86.044588 
L 345.336177 86.425906 
L 344.900719 86.742496 
L 344.156313 86.999734 
L 339.334044 88.151862 
L 338.895727 88.500443 
L 338.720622 88.899925 
L 338.87492 89.782092 
L 338.986203 90.622453 
L 338.779793 90.980135 
L 338.332674 91.287058 
L 336.799329 91.78029 
L 334.109874 92.492554 
L 333.47725 92.793916 
L 333.062522 93.139658 
L 332.854526 93.524083 
L 332.820441 94.351146 
L 332.712037 95.134912 
L 332.437604 95.475204 
L 331.971635 95.775404 
L 330.562381 96.285147 
L 328.261296 97.04673 
L 327.332276 97.696592 
L 326.949665 98.456745 
L 326.708964 99.229367 
L 326.489532 99.586706 
L 326.149612 99.914119 
L 325.091959 100.483304 
L 322.443581 101.551579 
L 321.52545 102.206115 
L 320.977426 102.941506 
L 320.262111 104.027492 
L 319.443151 104.652734 
L 317.657796 105.485992 
L 316.461316 106.072379 
L 315.547718 106.736686 
L 314.671721 107.824177 
L 314.082396 108.520914 
L 313.24066 109.150927 
L 309.638637 111.305762 
L 307.617708 113.36815 
L 306.151333 114.274661 
L 304.653346 115.198926 
L 303.483567 116.210011 
L 302.065011 117.564515 
L 300.698135 118.498205 
L 298.786041 119.74319 
L 297.229009 121.084728 
L 295.634892 122.392431 
L 291.720228 125.262347 
L 289.765741 126.877364 
L 285.970688 129.716281 
L 283.993959 131.294574 
L 280.638143 133.782282 
L 278.208062 135.648276 
L 275.342861 137.804877 
L 272.506957 139.9572 
L 269.730233 142.101231 
L 266.456157 144.544948 
L 252.009544 155.655806 
L 153.490408 232.389063 
L 144.941526 239.163424 
L 140.655247 242.519733 
L 124.911551 254.83998 
L 122.442607 256.722759 
L 115.939853 261.839658 
L 111.51694 265.347279 
L 109.878911 266.703695 
L 107.799227 268.321917 
L 106.482357 269.408528 
L 104.409674 271.025991 
L 103.108657 272.110373 
L 101.017438 273.721962 
L 99.729278 274.803803 
L 97.620571 276.404719 
L 96.371901 277.480783 
L 94.229774 279.067857 
L 93.025715 280.137661 
L 90.849788 281.710044 
L 89.682976 282.773385 
L 87.49054 284.329795 
L 86.7703 285.127737 
L 86.037771 285.646103 
L 84.406626 286.666959 
L 82.782992 288.242503 
L 81.031702 289.250658 
L 80.660381 289.780823 
L 80.352803 290.315043 
L 79.600495 290.825508 
L 77.592721 291.819106 
L 77.432655 292.085132 
L 77.39908 292.900962 
L 77.102694 293.157142 
L 75.680827 293.633701 
L 74.065242 294.114747 
L 73.832727 294.381413 
L 74.311435 294.666862 
L 75.598381 294.956106 
L 77.609847 295.218904 
L 80.083912 295.412413 
L 80.083912 295.412413 
" clip-path="url(#pd5ed9a2331)" style="fill: none; stroke: #ff7f0e; stroke-opacity: 0.7; stroke-width: 1.5; stroke-linecap: square"/>
   </g>
   <g id="patch_3">
    <path d="M 57.6 307.584 
L 57.6 41.472 
" style="fill: none; stroke: #000000; stroke-width: 0.8; stroke-linejoin: miter; stroke-linecap: square"/>
   </g>
   <g id="patch_4">
    <path d="M 414.72 307.584 
L 414.72 41.472 
" style="fill: none; stroke: #000000; stroke-width: 0.8; stroke-linejoin: miter; stroke-linecap: square"/>
   </g>
   <g id="patch_5">
    <path d="M 57.6 307.584 
L 414.72 307.584 
" style="fill: none; stroke: #000000; stroke-width: 0.8; stroke-linejoin: miter; stroke-linecap: square"/>
   </g>
   <g id="patch_6">
    <path d="M 57.6 41.472 
L 414.72 41.472 
" style="fill: none; stroke: #000000; stroke-width: 0.8; stroke-linejoin: miter; stroke-linecap: square"/>
   </g>
   <g id="text_21">
    <!-- Best Model - Predicted vs Target -->
    <g transform="translate(139.75125 35.472) scale(0.12 -0.12)">
     <defs>
      <path id="DejaVuSans-42" d="M 1259 2228 
L 1259 519 
L 2272 519 
Q 2781 519 3026 730 
Q 3272 941 3272 1375 
Q 3272 1813 3026 2020 
Q 2781 2228 2272 2228 
L 1259 2228 
z
M 1259 4147 
L 1259 2741 
L 2194 2741 
Q 2656 2741 2882 2914 
Q 3109 3088 3109 3444 
Q 3109 3797 2882 3972 
Q 2656 4147 2194 4147 
L 1259 4147 
z
M 628 4666 
L 2241 4666 
Q 2963 4666 3353 4366 
Q 3744 4066 3744 3513 
Q 3744 3084 3544 2831 
Q 3344 2578 2956 2516 
Q 3422 2416 3680 2098 
Q 3938 1781 3938 1306 
Q 3938 681 3513 340 
Q 3088 0 2303 0 
L 628 0 
L 628 4666 
z
" transform="scale(0.015625)"/>
      <path id="DejaVuSans-73" d="M 2834 3397 
L 2834 2853 
Q 2591 2978 2328 3040 
Q 2066 3103 1784 3103 
Q 1356 3103 1142 2972 
Q 928 2841 928 2578 
Q 928 2378 1081 2264 
Q 1234 2150 1697 2047 
L 1894 2003 
Q 2506 1872 2764 1633 
Q 3022 1394 3022 966 
Q 3022 478 2636 193 
Q 2250 -91 1575 -91 
Q 1294 -91 989 -36 
Q 684 19 347 128 
L 347 722 
Q 666 556 975 473 
Q 1284 391 1588 391 
Q 1994 391 2212 530 
Q 2431 669 2431 922 
Q 2431 1156 2273 1281 
Q 2116 1406 1581 1522 
L 1381 1569 
Q 847 1681 609 1914 
Q 372 2147 372 2553 
Q 372 3047 722 3315 
Q 1072 3584 1716 3584 
Q 2034 3584 2315 3537 
Q 2597 3491 2834 3397 
z
" transform="scale(0.015625)"/>
      <path id="DejaVuSans-74" d="M 1172 4494 
L 1172 3500 
L 2356 3500 
L 2356 3053 
L 1172 3053 
L 1172 1153 
Q 1172 725 1289 603 
Q 1406 481 1766 481 
L 2356 481 
L 2356 0 
L 1766 0 
Q 1100 0 847 248 
Q 594 497 594 1153 
L 594 3053 
L 172 3053 
L 172 3500 
L 594 3500 
L 594 4494 
L 1172 4494 
z
" transform="scale(0.015625)"/>
      <path id="DejaVuSans-20" transform="scale(0.015625)"/>
      <path id="DejaVuSans-4d" d="M 628 4666 
L 1569 4666 
L 2759 1491 
L 3956 4666 
L 4897 4666 
L 4897 0 
L 4281 0 
L 4281 4097 
L 3078 897 
L 2444 897 
L 1241 4097 
L 1241 0 
L 628 0 
L 628 4666 
z
" transform="scale(0.015625)"/>
      <path id="DejaVuSans-6f" d="M 1959 3097 
Q 1497 3097 1228 2736 
Q 959 2375 959 1747 
Q 959 1119 1226 758 
Q 1494 397 1959 397 
Q 2419 397 2687 759 
Q 2956 1122 2956 1747 
Q 2956 2369 2687 2733 
Q 2419 3097 1959 3097 
z
M 1959 3584 
Q 2709 3584 3137 3096 
Q 3566 2609 3566 1747 
Q 3566 888 3137 398 
Q 2709 -91 1959 -91 
Q 1206 -91 779 398 
Q 353 888 353 1747 
Q 353 2609 779 3096 
Q 1206 3584 1959 3584 
z
" transform="scale(0.015625)"/>
      <path id="DejaVuSans-2d" d="M 313 2009 
L 1997 2009 
L 1997 1497 
L 313 1497 
L 313 2009 
z
" transform="scale(0.015625)"/>
      <path id="DejaVuSans-50" d="M 1259 4147 
L 1259 2394 
L 2053 2394 
Q 2494 2394 2734 2622 
Q 2975 2850 2975 3272 
Q 2975 3691 2734 3919 
Q 2494 4147 2053 4147 
L 1259 4147 
z
M 628 4666 
L 2053 4666 
Q 2838 4666 3239 4311 
Q 3641 3956 3641 3272 
Q 3641 2581 3239 2228 
Q 2838 1875 2053 1875 
L 1259 1875 
L 1259 0 
L 628 0 
L 628 4666 
z
" transform="scale(0.015625)"/>
      <path id="DejaVuSans-72" d="M 2631 2963 
Q 2534 3019 2420 3045 
Q 2306 3072 2169 3072 
Q 1681 3072 1420 2755 
Q 1159 2438 1159 1844 
L 1159 0 
L 581 0 
L 581 3500 
L 1159 3500 
L 1159 2956 
Q 1341 3275 1631 3429 
Q 1922 3584 2338 3584 
Q 2397 3584 2469 3576 
Q 2541 3569 2628 3553 
L 2631 2963 
z
" transform="scale(0.015625)"/>
      <path id="DejaVuSans-69" d="M 603 3500 
L 1178 3500 
L 1178 0 
L 603 0 
L 603 3500 
z
M 603 4863 
L 1178 4863 
L 1178 4134 
L 603 4134 
L 603 4863 
z
" transform="scale(0.015625)"/>
      <path id="DejaVuSans-63" d="M 3122 3366 
L 3122 2828 
Q 2878 2963 2633 3030 
Q 2388 3097 2138 3097 
Q 1578 3097 1268 2742 
Q 959 2388 959 1747 
Q 959 1106 1268 751 
Q 1578 397 2138 397 
Q 2388 397 2633 464 
Q 2878 531 3122 666 
L 3122 134 
Q 2881 22 2623 -34 
Q 2366 -91 2075 -91 
Q 1284 -91 818 406 
Q 353 903 353 1747 
Q 353 2603 823 3093 
Q 1294 3584 2113 3584 
Q 2378 3584 2631 3529 
Q 2884 3475 3122 3366 
z
" transform="scale(0.015625)"/>
      <path id="DejaVuSans-76" d="M 191 3500 
L 800 3500 
L 1894 563 
L 2988 3500 
L 3597 3500 
L 2284 0 
L 1503 0 
L 191 3500 
z
" transform="scale(0.015625)"/>
      <path id="DejaVuSans-54" d="M -19 4666 
L 3928 4666 
L 3928 4134 
L 2272 4134 
L 2272 0 
L 1638 0 
L 1638 4134 
L -19 4134 
L -19 4666 
z
" transform="scale(0.015625)"/>
      <path id="DejaVuSans-67" d="M 2906 1791 
Q 2906 2416 2648 2759 
Q 2391 3103 1925 3103 
Q 1463 3103 1205 2759 
Q 947 2416 947 1791 
Q 947 1169 1205 825 
Q 1463 481 1925 481 
Q 2391 481 2648 825 
Q 2906 1169 2906 1791 
z
M 3481 434 
Q 3481 -459 3084 -895 
Q 2688 -1331 1869 -1331 
Q 1566 -1331 1297 -1286 
Q 1028 -1241 775 -1147 
L 775 -588 
Q 1028 -725 1275 -790 
Q 1522 -856 1778 -856 
Q 2344 -856 2625 -561 
Q 2906 -266 2906 331 
L 2906 616 
Q 2728 306 2450 153 
Q 2172 0 1784 0 
Q 1141 0 747 490 
Q 353 981 353 1791 
Q 353 2603 747 3093 
Q 1141 3584 1784 3584 
Q 2172 3584 2450 3431 
Q 2728 3278 2906 2969 
L 2906 3500 
L 3481 3500 
L 3481 434 
z
" transform="scale(0.015625)"/>
     </defs>
     <use xlink:href="#DejaVuSans-42"/>
     <use xlink:href="#DejaVuSans-65" transform="translate(68.603516 0)"/>
     <use xlink:href="#DejaVuSans-73" transform="translate(130.126953 0)"/>
     <use xlink:href="#DejaVuSans-74" transform="translate(182.226562 0)"/>
     <use xlink:href="#DejaVuSans-20" transform="translate(221.435547 0)"/>
     <use xlink:href="#DejaVuSans-4d" transform="translate(253.222656 0)"/>
     <use xlink:href="#DejaVuSans-6f" transform="translate(339.501953 0)"/>
     <use xlink:href="#DejaVuSans-64" transform="translate(400.683594 0)"/>
     <use xlink:href="#DejaVuSans-65" transform="translate(464.160156 0)"/>
     <use xlink:href="#DejaVuSans-6c" transform="translate(525.683594 0)"/>
     <use xlink:href="#DejaVuSans-20" transform="translate(553.466797 0)"/>
     <use xlink:href="#DejaVuSans-2d" transform="translate(585.253906 0)"/>
     <use xlink:href="#DejaVuSans-20" transform="translate(621.337891 0)"/>
     <use xlink:href="#DejaVuSans-50" transform="translate(653.125 0)"/>
     <use xlink:href="#DejaVuSans-72" transform="translate(711.677734 0)"/>
     <use xlink:href="#DejaVuSans-65" transform="translate(750.541016 0)"/>
     <use xlink:href="#DejaVuSans-64" transform="translate(812.064453 0)"/>
     <use xlink:href="#DejaVuSans-69" transform="translate(875.541016 0)"/>
     <use xlink:href="#DejaVuSans-63" transform="translate(903.324219 0)"/>
     <use xlink:href="#DejaVuSans-74" transform="translate(958.304688 0)"/>
     <use xlink:href="#DejaVuSans-65" transform="translate(997.513672 0)"/>
     <use xlink:href="#DejaVuSans-64" transform="translate(1059.037109 0)"/>
     <use xlink:href="#DejaVuSans-20" transform="translate(1122.513672 0)"/>
     <use xlink:href="#DejaVuSans-76" transform="translate(1154.300781 0)"/>
     <use xlink:href="#DejaVuSans-73" transform="translate(1213.480469 0)"/>
     <use xlink:href="#DejaVuSans-20" transform="translate(1265.580078 0)"/>
     <use xlink:href="#DejaVuSans-54" transform="translate(1297.367188 0)"/>
     <use xlink:href="#DejaVuSans-61" transform="translate(1341.951172 0)"/>
     <use xlink:href="#DejaVuSans-72" transform="translate(1403.230469 0)"/>
     <use xlink:href="#DejaVuSans-67" transform="translate(1442.59375 0)"/>
     <use xlink:href="#DejaVuSans-65" transform="translate(1506.070312 0)"/>
     <use xlink:href="#DejaVuSans-74" transform="translate(1567.59375 0)"/>
    </g>
   </g>
   <g id="legend_1">
    <g id="patch_7">
     <path d="M 64.6 78.82825 
L 181.128125 78.82825 
Q 183.128125 78.82825 183.128125 76.82825 
L 183.128125 48.472 
Q 183.128125 46.472 181.128125 46.472 
L 64.6 46.472 
Q 62.6 46.472 62.6 48.472 
L 62.6 76.82825 
Q 62.6 78.82825 64.6 78.82825 
z
" style="fill: #ffffff; opacity: 0.8; stroke: #cccccc; stroke-linejoin: miter"/>
    </g>
    <g id="line2d_39">
     <path d="M 66.6 54.570437 
L 76.6 54.570437 
L 86.6 54.570437 
" style="fill: none; stroke: #1f77b4; stroke-width: 1.5; stroke-linecap: square"/>
    </g>
    <g id="text_22">
     <!-- Pred: Sample 1 -->
     <g transform="translate(94.6 58.070437) scale(0.1 -0.1)">
      <defs>
       <path id="DejaVuSans-3a" d="M 750 794 
L 1409 794 
L 1409 0 
L 750 0 
L 750 794 
z
M 750 3309 
L 1409 3309 
L 1409 2516 
L 750 2516 
L 750 3309 
z
" transform="scale(0.015625)"/>
       <path id="DejaVuSans-53" d="M 3425 4513 
L 3425 3897 
Q 3066 4069 2747 4153 
Q 2428 4238 2131 4238 
Q 1616 4238 1336 4038 
Q 1056 3838 1056 3469 
Q 1056 3159 1242 3001 
Q 1428 2844 1947 2747 
L 2328 2669 
Q 3034 2534 3370 2195 
Q 3706 1856 3706 1288 
Q 3706 609 3251 259 
Q 2797 -91 1919 -91 
Q 1588 -91 1214 -16 
Q 841 59 441 206 
L 441 856 
Q 825 641 1194 531 
Q 1563 422 1919 422 
Q 2459 422 2753 634 
Q 3047 847 3047 1241 
Q 3047 1584 2836 1778 
Q 2625 1972 2144 2069 
L 1759 2144 
Q 1053 2284 737 2584 
Q 422 2884 422 3419 
Q 422 4038 858 4394 
Q 1294 4750 2059 4750 
Q 2388 4750 2728 4690 
Q 3069 4631 3425 4513 
z
" transform="scale(0.015625)"/>
       <path id="DejaVuSans-6d" d="M 3328 2828 
Q 3544 3216 3844 3400 
Q 4144 3584 4550 3584 
Q 5097 3584 5394 3201 
Q 5691 2819 5691 2113 
L 5691 0 
L 5113 0 
L 5113 2094 
Q 5113 2597 4934 2840 
Q 4756 3084 4391 3084 
Q 3944 3084 3684 2787 
Q 3425 2491 3425 1978 
L 3425 0 
L 2847 0 
L 2847 2094 
Q 2847 2600 2669 2842 
Q 2491 3084 2119 3084 
Q 1678 3084 1418 2786 
Q 1159 2488 1159 1978 
L 1159 0 
L 581 0 
L 581 3500 
L 1159 3500 
L 1159 2956 
Q 1356 3278 1631 3431 
Q 1906 3584 2284 3584 
Q 2666 3584 2933 3390 
Q 3200 3197 3328 2828 
z
" transform="scale(0.015625)"/>
       <path id="DejaVuSans-70" d="M 1159 525 
L 1159 -1331 
L 581 -1331 
L 581 3500 
L 1159 3500 
L 1159 2969 
Q 1341 3281 1617 3432 
Q 1894 3584 2278 3584 
Q 2916 3584 3314 3078 
Q 3713 2572 3713 1747 
Q 3713 922 3314 415 
Q 2916 -91 2278 -91 
Q 1894 -91 1617 61 
Q 1341 213 1159 525 
z
M 3116 1747 
Q 3116 2381 2855 2742 
Q 2594 3103 2138 3103 
Q 1681 3103 1420 2742 
Q 1159 2381 1159 1747 
Q 1159 1113 1420 752 
Q 1681 391 2138 391 
Q 2594 391 2855 752 
Q 3116 1113 3116 1747 
z
" transform="scale(0.015625)"/>
      </defs>
      <use xlink:href="#DejaVuSans-50"/>
      <use xlink:href="#DejaVuSans-72" transform="translate(58.552734 0)"/>
      <use xlink:href="#DejaVuSans-65" transform="translate(97.416016 0)"/>
      <use xlink:href="#DejaVuSans-64" transform="translate(158.939453 0)"/>
      <use xlink:href="#DejaVuSans-3a" transform="translate(222.416016 0)"/>
      <use xlink:href="#DejaVuSans-20" transform="translate(256.107422 0)"/>
      <use xlink:href="#DejaVuSans-53" transform="translate(287.894531 0)"/>
      <use xlink:href="#DejaVuSans-61" transform="translate(351.371094 0)"/>
      <use xlink:href="#DejaVuSans-6d" transform="translate(412.650391 0)"/>
      <use xlink:href="#DejaVuSans-70" transform="translate(510.0625 0)"/>
      <use xlink:href="#DejaVuSans-6c" transform="translate(573.539062 0)"/>
      <use xlink:href="#DejaVuSans-65" transform="translate(601.322266 0)"/>
      <use xlink:href="#DejaVuSans-20" transform="translate(662.845703 0)"/>
      <use xlink:href="#DejaVuSans-31" transform="translate(694.632812 0)"/>
     </g>
    </g>
    <g id="line2d_40">
     <path d="M 66.6 69.248562 
L 76.6 69.248562 
L 86.6 69.248562 
" style="fill: none; stroke: #ff7f0e; stroke-opacity: 0.7; stroke-width: 1.5; stroke-linecap: square"/>
    </g>
    <g id="text_23">
     <!-- Target: Sample 1 -->
     <g transform="translate(94.6 72.748562) scale(0.1 -0.1)">
      <use xlink:href="#DejaVuSans-54"/>
      <use xlink:href="#DejaVuSans-61" transform="translate(44.583984 0)"/>
      <use xlink:href="#DejaVuSans-72" transform="translate(105.863281 0)"/>
      <use xlink:href="#DejaVuSans-67" transform="translate(145.226562 0)"/>
      <use xlink:href="#DejaVuSans-65" transform="translate(208.703125 0)"/>
      <use xlink:href="#DejaVuSans-74" transform="translate(270.226562 0)"/>
      <use xlink:href="#DejaVuSans-3a" transform="translate(309.435547 0)"/>
      <use xlink:href="#DejaVuSans-20" transform="translate(343.126953 0)"/>
      <use xlink:href="#DejaVuSans-53" transform="translate(374.914062 0)"/>
      <use xlink:href="#DejaVuSans-61" transform="translate(438.390625 0)"/>
      <use xlink:href="#DejaVuSans-6d" transform="translate(499.669922 0)"/>
      <use xlink:href="#DejaVuSans-70" transform="translate(597.082031 0)"/>
      <use xlink:href="#DejaVuSans-6c" transform="translate(660.558594 0)"/>
      <use xlink:href="#DejaVuSans-65" transform="translate(688.341797 0)"/>
      <use xlink:href="#DejaVuSans-20" transform="translate(749.865234 0)"/>
      <use xlink:href="#DejaVuSans-31" transform="translate(781.652344 0)"/>
     </g>
    </g>
   </g>
  </g>
 </g>
 <defs>
  <clipPath id="pd5ed9a2331">
   <rect x="57.6" y="41.472" width="357.12" height="266.112"/>
  </clipPath>
 </defs>
</svg>
