<?xml version="1.0" encoding="utf-8" standalone="no"?>
<!DOCTYPE svg PUBLIC "-//W3C//DTD SVG 1.1//EN"
  "http://www.w3.org/Graphics/SVG/1.1/DTD/svg11.dtd">
<svg xmlns:xlink="http://www.w3.org/1999/xlink" width="460.8pt" height="345.6pt" viewBox="0 0 460.8 345.6" xmlns="http://www.w3.org/2000/svg" version="1.1">
 <metadata>
  <rdf:RDF xmlns:dc="http://purl.org/dc/elements/1.1/" xmlns:cc="http://creativecommons.org/ns#" xmlns:rdf="http://www.w3.org/1999/02/22-rdf-syntax-ns#">
   <cc:Work>
    <dc:type rdf:resource="http://purl.org/dc/dcmitype/StillImage"/>
    <dc:date>2025-07-23T13:22:39.362925</dc:date>
    <dc:format>image/svg+xml</dc:format>
    <dc:creator>
     <cc:Agent>
      <dc:title>Matplotlib v3.10.3, https://matplotlib.org/</dc:title>
     </cc:Agent>
    </dc:creator>
   </cc:Work>
  </rdf:RDF>
 </metadata>
 <defs>
  <style type="text/css">*{stroke-linejoin: round; stroke-linecap: butt}</style>
 </defs>
 <g id="figure_1">
  <g id="patch_1">
   <path d="M 0 345.6 
L 460.8 345.6 
L 460.8 0 
L 0 0 
z
" style="fill: #ffffff"/>
  </g>
  <g id="axes_1">
   <g id="patch_2">
    <path d="M 57.6 307.584 
L 414.72 307.584 
L 414.72 41.472 
L 57.6 41.472 
z
" style="fill: #ffffff"/>
   </g>
   <g id="matplotlib.axis_1">
    <g id="xtick_1">
     <g id="line2d_1">
      <path d="M 63.13935 307.584 
L 63.13935 41.472 
" clip-path="url(#p0aad80249a)" style="fill: none; stroke: #b0b0b0; stroke-opacity: 0.5; stroke-width: 0.8; stroke-linecap: square"/>
     </g>
     <g id="line2d_2">
      <defs>
       <path id="mb28341b3fa" d="M 0 0 
L 0 3.5 
" style="stroke: #000000; stroke-width: 0.8"/>
      </defs>
      <g>
       <use xlink:href="#mb28341b3fa" x="63.13935" y="307.584" style="stroke: #000000; stroke-width: 0.8"/>
      </g>
     </g>
     <g id="text_1">
      <!-- −1.00 -->
      <g transform="translate(47.816694 322.182437) scale(0.1 -0.1)">
       <defs>
        <path id="DejaVuSans-2212" d="M 678 2272 
L 4684 2272 
L 4684 1741 
L 678 1741 
L 678 2272 
z
" transform="scale(0.015625)"/>
        <path id="DejaVuSans-31" d="M 794 531 
L 1825 531 
L 1825 4091 
L 703 3866 
L 703 4441 
L 1819 4666 
L 2450 4666 
L 2450 531 
L 3481 531 
L 3481 0 
L 794 0 
L 794 531 
z
" transform="scale(0.015625)"/>
        <path id="DejaVuSans-2e" d="M 684 794 
L 1344 794 
L 1344 0 
L 684 0 
L 684 794 
z
" transform="scale(0.015625)"/>
        <path id="DejaVuSans-30" d="M 2034 4250 
Q 1547 4250 1301 3770 
Q 1056 3291 1056 2328 
Q 1056 1369 1301 889 
Q 1547 409 2034 409 
Q 2525 409 2770 889 
Q 3016 1369 3016 2328 
Q 3016 3291 2770 3770 
Q 2525 4250 2034 4250 
z
M 2034 4750 
Q 2819 4750 3233 4129 
Q 3647 3509 3647 2328 
Q 3647 1150 3233 529 
Q 2819 -91 2034 -91 
Q 1250 -91 836 529 
Q 422 1150 422 2328 
Q 422 3509 836 4129 
Q 1250 4750 2034 4750 
z
" transform="scale(0.015625)"/>
       </defs>
       <use xlink:href="#DejaVuSans-2212"/>
       <use xlink:href="#DejaVuSans-31" transform="translate(83.789062 0)"/>
       <use xlink:href="#DejaVuSans-2e" transform="translate(147.412109 0)"/>
       <use xlink:href="#DejaVuSans-30" transform="translate(179.199219 0)"/>
       <use xlink:href="#DejaVuSans-30" transform="translate(242.822266 0)"/>
      </g>
     </g>
    </g>
    <g id="xtick_2">
     <g id="line2d_3">
      <path d="M 105.05784 307.584 
L 105.05784 41.472 
" clip-path="url(#p0aad80249a)" style="fill: none; stroke: #b0b0b0; stroke-opacity: 0.5; stroke-width: 0.8; stroke-linecap: square"/>
     </g>
     <g id="line2d_4">
      <g>
       <use xlink:href="#mb28341b3fa" x="105.05784" y="307.584" style="stroke: #000000; stroke-width: 0.8"/>
      </g>
     </g>
     <g id="text_2">
      <!-- −0.75 -->
      <g transform="translate(89.735184 322.182437) scale(0.1 -0.1)">
       <defs>
        <path id="DejaVuSans-37" d="M 525 4666 
L 3525 4666 
L 3525 4397 
L 1831 0 
L 1172 0 
L 2766 4134 
L 525 4134 
L 525 4666 
z
" transform="scale(0.015625)"/>
        <path id="DejaVuSans-35" d="M 691 4666 
L 3169 4666 
L 3169 4134 
L 1269 4134 
L 1269 2991 
Q 1406 3038 1543 3061 
Q 1681 3084 1819 3084 
Q 2600 3084 3056 2656 
Q 3513 2228 3513 1497 
Q 3513 744 3044 326 
Q 2575 -91 1722 -91 
Q 1428 -91 1123 -41 
Q 819 9 494 109 
L 494 744 
Q 775 591 1075 516 
Q 1375 441 1709 441 
Q 2250 441 2565 725 
Q 2881 1009 2881 1497 
Q 2881 1984 2565 2268 
Q 2250 2553 1709 2553 
Q 1456 2553 1204 2497 
Q 953 2441 691 2322 
L 691 4666 
z
" transform="scale(0.015625)"/>
       </defs>
       <use xlink:href="#DejaVuSans-2212"/>
       <use xlink:href="#DejaVuSans-30" transform="translate(83.789062 0)"/>
       <use xlink:href="#DejaVuSans-2e" transform="translate(147.412109 0)"/>
       <use xlink:href="#DejaVuSans-37" transform="translate(179.199219 0)"/>
       <use xlink:href="#DejaVuSans-35" transform="translate(242.822266 0)"/>
      </g>
     </g>
    </g>
    <g id="xtick_3">
     <g id="line2d_5">
      <path d="M 146.976331 307.584 
L 146.976331 41.472 
" clip-path="url(#p0aad80249a)" style="fill: none; stroke: #b0b0b0; stroke-opacity: 0.5; stroke-width: 0.8; stroke-linecap: square"/>
     </g>
     <g id="line2d_6">
      <g>
       <use xlink:href="#mb28341b3fa" x="146.976331" y="307.584" style="stroke: #000000; stroke-width: 0.8"/>
      </g>
     </g>
     <g id="text_3">
      <!-- −0.50 -->
      <g transform="translate(131.653674 322.182437) scale(0.1 -0.1)">
       <use xlink:href="#DejaVuSans-2212"/>
       <use xlink:href="#DejaVuSans-30" transform="translate(83.789062 0)"/>
       <use xlink:href="#DejaVuSans-2e" transform="translate(147.412109 0)"/>
       <use xlink:href="#DejaVuSans-35" transform="translate(179.199219 0)"/>
       <use xlink:href="#DejaVuSans-30" transform="translate(242.822266 0)"/>
      </g>
     </g>
    </g>
    <g id="xtick_4">
     <g id="line2d_7">
      <path d="M 188.894821 307.584 
L 188.894821 41.472 
" clip-path="url(#p0aad80249a)" style="fill: none; stroke: #b0b0b0; stroke-opacity: 0.5; stroke-width: 0.8; stroke-linecap: square"/>
     </g>
     <g id="line2d_8">
      <g>
       <use xlink:href="#mb28341b3fa" x="188.894821" y="307.584" style="stroke: #000000; stroke-width: 0.8"/>
      </g>
     </g>
     <g id="text_4">
      <!-- −0.25 -->
      <g transform="translate(173.572165 322.182437) scale(0.1 -0.1)">
       <defs>
        <path id="DejaVuSans-32" d="M 1228 531 
L 3431 531 
L 3431 0 
L 469 0 
L 469 531 
Q 828 903 1448 1529 
Q 2069 2156 2228 2338 
Q 2531 2678 2651 2914 
Q 2772 3150 2772 3378 
Q 2772 3750 2511 3984 
Q 2250 4219 1831 4219 
Q 1534 4219 1204 4116 
Q 875 4013 500 3803 
L 500 4441 
Q 881 4594 1212 4672 
Q 1544 4750 1819 4750 
Q 2544 4750 2975 4387 
Q 3406 4025 3406 3419 
Q 3406 3131 3298 2873 
Q 3191 2616 2906 2266 
Q 2828 2175 2409 1742 
Q 1991 1309 1228 531 
z
" transform="scale(0.015625)"/>
       </defs>
       <use xlink:href="#DejaVuSans-2212"/>
       <use xlink:href="#DejaVuSans-30" transform="translate(83.789062 0)"/>
       <use xlink:href="#DejaVuSans-2e" transform="translate(147.412109 0)"/>
       <use xlink:href="#DejaVuSans-32" transform="translate(179.199219 0)"/>
       <use xlink:href="#DejaVuSans-35" transform="translate(242.822266 0)"/>
      </g>
     </g>
    </g>
    <g id="xtick_5">
     <g id="line2d_9">
      <path d="M 230.813311 307.584 
L 230.813311 41.472 
" clip-path="url(#p0aad80249a)" style="fill: none; stroke: #b0b0b0; stroke-opacity: 0.5; stroke-width: 0.8; stroke-linecap: square"/>
     </g>
     <g id="line2d_10">
      <g>
       <use xlink:href="#mb28341b3fa" x="230.813311" y="307.584" style="stroke: #000000; stroke-width: 0.8"/>
      </g>
     </g>
     <g id="text_5">
      <!-- 0.00 -->
      <g transform="translate(219.680499 322.182437) scale(0.1 -0.1)">
       <use xlink:href="#DejaVuSans-30"/>
       <use xlink:href="#DejaVuSans-2e" transform="translate(63.623047 0)"/>
       <use xlink:href="#DejaVuSans-30" transform="translate(95.410156 0)"/>
       <use xlink:href="#DejaVuSans-30" transform="translate(159.033203 0)"/>
      </g>
     </g>
    </g>
    <g id="xtick_6">
     <g id="line2d_11">
      <path d="M 272.731802 307.584 
L 272.731802 41.472 
" clip-path="url(#p0aad80249a)" style="fill: none; stroke: #b0b0b0; stroke-opacity: 0.5; stroke-width: 0.8; stroke-linecap: square"/>
     </g>
     <g id="line2d_12">
      <g>
       <use xlink:href="#mb28341b3fa" x="272.731802" y="307.584" style="stroke: #000000; stroke-width: 0.8"/>
      </g>
     </g>
     <g id="text_6">
      <!-- 0.25 -->
      <g transform="translate(261.598989 322.182437) scale(0.1 -0.1)">
       <use xlink:href="#DejaVuSans-30"/>
       <use xlink:href="#DejaVuSans-2e" transform="translate(63.623047 0)"/>
       <use xlink:href="#DejaVuSans-32" transform="translate(95.410156 0)"/>
       <use xlink:href="#DejaVuSans-35" transform="translate(159.033203 0)"/>
      </g>
     </g>
    </g>
    <g id="xtick_7">
     <g id="line2d_13">
      <path d="M 314.650292 307.584 
L 314.650292 41.472 
" clip-path="url(#p0aad80249a)" style="fill: none; stroke: #b0b0b0; stroke-opacity: 0.5; stroke-width: 0.8; stroke-linecap: square"/>
     </g>
     <g id="line2d_14">
      <g>
       <use xlink:href="#mb28341b3fa" x="314.650292" y="307.584" style="stroke: #000000; stroke-width: 0.8"/>
      </g>
     </g>
     <g id="text_7">
      <!-- 0.50 -->
      <g transform="translate(303.51748 322.182437) scale(0.1 -0.1)">
       <use xlink:href="#DejaVuSans-30"/>
       <use xlink:href="#DejaVuSans-2e" transform="translate(63.623047 0)"/>
       <use xlink:href="#DejaVuSans-35" transform="translate(95.410156 0)"/>
       <use xlink:href="#DejaVuSans-30" transform="translate(159.033203 0)"/>
      </g>
     </g>
    </g>
    <g id="xtick_8">
     <g id="line2d_15">
      <path d="M 356.568782 307.584 
L 356.568782 41.472 
" clip-path="url(#p0aad80249a)" style="fill: none; stroke: #b0b0b0; stroke-opacity: 0.5; stroke-width: 0.8; stroke-linecap: square"/>
     </g>
     <g id="line2d_16">
      <g>
       <use xlink:href="#mb28341b3fa" x="356.568782" y="307.584" style="stroke: #000000; stroke-width: 0.8"/>
      </g>
     </g>
     <g id="text_8">
      <!-- 0.75 -->
      <g transform="translate(345.43597 322.182437) scale(0.1 -0.1)">
       <use xlink:href="#DejaVuSans-30"/>
       <use xlink:href="#DejaVuSans-2e" transform="translate(63.623047 0)"/>
       <use xlink:href="#DejaVuSans-37" transform="translate(95.410156 0)"/>
       <use xlink:href="#DejaVuSans-35" transform="translate(159.033203 0)"/>
      </g>
     </g>
    </g>
    <g id="xtick_9">
     <g id="line2d_17">
      <path d="M 398.487273 307.584 
L 398.487273 41.472 
" clip-path="url(#p0aad80249a)" style="fill: none; stroke: #b0b0b0; stroke-opacity: 0.5; stroke-width: 0.8; stroke-linecap: square"/>
     </g>
     <g id="line2d_18">
      <g>
       <use xlink:href="#mb28341b3fa" x="398.487273" y="307.584" style="stroke: #000000; stroke-width: 0.8"/>
      </g>
     </g>
     <g id="text_9">
      <!-- 1.00 -->
      <g transform="translate(387.35446 322.182437) scale(0.1 -0.1)">
       <use xlink:href="#DejaVuSans-31"/>
       <use xlink:href="#DejaVuSans-2e" transform="translate(63.623047 0)"/>
       <use xlink:href="#DejaVuSans-30" transform="translate(95.410156 0)"/>
       <use xlink:href="#DejaVuSans-30" transform="translate(159.033203 0)"/>
      </g>
     </g>
    </g>
    <g id="text_10">
     <!-- Index -->
     <g transform="translate(222.393594 335.860562) scale(0.1 -0.1)">
      <defs>
       <path id="DejaVuSans-49" d="M 628 4666 
L 1259 4666 
L 1259 0 
L 628 0 
L 628 4666 
z
" transform="scale(0.015625)"/>
       <path id="DejaVuSans-6e" d="M 3513 2113 
L 3513 0 
L 2938 0 
L 2938 2094 
Q 2938 2591 2744 2837 
Q 2550 3084 2163 3084 
Q 1697 3084 1428 2787 
Q 1159 2491 1159 1978 
L 1159 0 
L 581 0 
L 581 3500 
L 1159 3500 
L 1159 2956 
Q 1366 3272 1645 3428 
Q 1925 3584 2291 3584 
Q 2894 3584 3203 3211 
Q 3513 2838 3513 2113 
z
" transform="scale(0.015625)"/>
       <path id="DejaVuSans-64" d="M 2906 2969 
L 2906 4863 
L 3481 4863 
L 3481 0 
L 2906 0 
L 2906 525 
Q 2725 213 2448 61 
Q 2172 -91 1784 -91 
Q 1150 -91 751 415 
Q 353 922 353 1747 
Q 353 2572 751 3078 
Q 1150 3584 1784 3584 
Q 2172 3584 2448 3432 
Q 2725 3281 2906 2969 
z
M 947 1747 
Q 947 1113 1208 752 
Q 1469 391 1925 391 
Q 2381 391 2643 752 
Q 2906 1113 2906 1747 
Q 2906 2381 2643 2742 
Q 2381 3103 1925 3103 
Q 1469 3103 1208 2742 
Q 947 2381 947 1747 
z
" transform="scale(0.015625)"/>
       <path id="DejaVuSans-65" d="M 3597 1894 
L 3597 1613 
L 953 1613 
Q 991 1019 1311 708 
Q 1631 397 2203 397 
Q 2534 397 2845 478 
Q 3156 559 3463 722 
L 3463 178 
Q 3153 47 2828 -22 
Q 2503 -91 2169 -91 
Q 1331 -91 842 396 
Q 353 884 353 1716 
Q 353 2575 817 3079 
Q 1281 3584 2069 3584 
Q 2775 3584 3186 3129 
Q 3597 2675 3597 1894 
z
M 3022 2063 
Q 3016 2534 2758 2815 
Q 2500 3097 2075 3097 
Q 1594 3097 1305 2825 
Q 1016 2553 972 2059 
L 3022 2063 
z
" transform="scale(0.015625)"/>
       <path id="DejaVuSans-78" d="M 3513 3500 
L 2247 1797 
L 3578 0 
L 2900 0 
L 1881 1375 
L 863 0 
L 184 0 
L 1544 1831 
L 300 3500 
L 978 3500 
L 1906 2253 
L 2834 3500 
L 3513 3500 
z
" transform="scale(0.015625)"/>
      </defs>
      <use xlink:href="#DejaVuSans-49"/>
      <use xlink:href="#DejaVuSans-6e" transform="translate(29.492188 0)"/>
      <use xlink:href="#DejaVuSans-64" transform="translate(92.871094 0)"/>
      <use xlink:href="#DejaVuSans-65" transform="translate(156.347656 0)"/>
      <use xlink:href="#DejaVuSans-78" transform="translate(216.121094 0)"/>
     </g>
    </g>
   </g>
   <g id="matplotlib.axis_2">
    <g id="ytick_1">
     <g id="line2d_19">
      <path d="M 57.6 302.513077 
L 414.72 302.513077 
" clip-path="url(#p0aad80249a)" style="fill: none; stroke: #b0b0b0; stroke-opacity: 0.5; stroke-width: 0.8; stroke-linecap: square"/>
     </g>
     <g id="line2d_20">
      <defs>
       <path id="mef5a36040b" d="M 0 0 
L -3.5 0 
" style="stroke: #000000; stroke-width: 0.8"/>
      </defs>
      <g>
       <use xlink:href="#mef5a36040b" x="57.6" y="302.513077" style="stroke: #000000; stroke-width: 0.8"/>
      </g>
     </g>
     <g id="text_11">
      <!-- −1.00 -->
      <g transform="translate(19.954687 306.312296) scale(0.1 -0.1)">
       <use xlink:href="#DejaVuSans-2212"/>
       <use xlink:href="#DejaVuSans-31" transform="translate(83.789062 0)"/>
       <use xlink:href="#DejaVuSans-2e" transform="translate(147.412109 0)"/>
       <use xlink:href="#DejaVuSans-30" transform="translate(179.199219 0)"/>
       <use xlink:href="#DejaVuSans-30" transform="translate(242.822266 0)"/>
      </g>
     </g>
    </g>
    <g id="ytick_2">
     <g id="line2d_21">
      <path d="M 57.6 271.394927 
L 414.72 271.394927 
" clip-path="url(#p0aad80249a)" style="fill: none; stroke: #b0b0b0; stroke-opacity: 0.5; stroke-width: 0.8; stroke-linecap: square"/>
     </g>
     <g id="line2d_22">
      <g>
       <use xlink:href="#mef5a36040b" x="57.6" y="271.394927" style="stroke: #000000; stroke-width: 0.8"/>
      </g>
     </g>
     <g id="text_12">
      <!-- −0.75 -->
      <g transform="translate(19.954687 275.194146) scale(0.1 -0.1)">
       <use xlink:href="#DejaVuSans-2212"/>
       <use xlink:href="#DejaVuSans-30" transform="translate(83.789062 0)"/>
       <use xlink:href="#DejaVuSans-2e" transform="translate(147.412109 0)"/>
       <use xlink:href="#DejaVuSans-37" transform="translate(179.199219 0)"/>
       <use xlink:href="#DejaVuSans-35" transform="translate(242.822266 0)"/>
      </g>
     </g>
    </g>
    <g id="ytick_3">
     <g id="line2d_23">
      <path d="M 57.6 240.276776 
L 414.72 240.276776 
" clip-path="url(#p0aad80249a)" style="fill: none; stroke: #b0b0b0; stroke-opacity: 0.5; stroke-width: 0.8; stroke-linecap: square"/>
     </g>
     <g id="line2d_24">
      <g>
       <use xlink:href="#mef5a36040b" x="57.6" y="240.276776" style="stroke: #000000; stroke-width: 0.8"/>
      </g>
     </g>
     <g id="text_13">
      <!-- −0.50 -->
      <g transform="translate(19.954687 244.075995) scale(0.1 -0.1)">
       <use xlink:href="#DejaVuSans-2212"/>
       <use xlink:href="#DejaVuSans-30" transform="translate(83.789062 0)"/>
       <use xlink:href="#DejaVuSans-2e" transform="translate(147.412109 0)"/>
       <use xlink:href="#DejaVuSans-35" transform="translate(179.199219 0)"/>
       <use xlink:href="#DejaVuSans-30" transform="translate(242.822266 0)"/>
      </g>
     </g>
    </g>
    <g id="ytick_4">
     <g id="line2d_25">
      <path d="M 57.6 209.158626 
L 414.72 209.158626 
" clip-path="url(#p0aad80249a)" style="fill: none; stroke: #b0b0b0; stroke-opacity: 0.5; stroke-width: 0.8; stroke-linecap: square"/>
     </g>
     <g id="line2d_26">
      <g>
       <use xlink:href="#mef5a36040b" x="57.6" y="209.158626" style="stroke: #000000; stroke-width: 0.8"/>
      </g>
     </g>
     <g id="text_14">
      <!-- −0.25 -->
      <g transform="translate(19.954687 212.957845) scale(0.1 -0.1)">
       <use xlink:href="#DejaVuSans-2212"/>
       <use xlink:href="#DejaVuSans-30" transform="translate(83.789062 0)"/>
       <use xlink:href="#DejaVuSans-2e" transform="translate(147.412109 0)"/>
       <use xlink:href="#DejaVuSans-32" transform="translate(179.199219 0)"/>
       <use xlink:href="#DejaVuSans-35" transform="translate(242.822266 0)"/>
      </g>
     </g>
    </g>
    <g id="ytick_5">
     <g id="line2d_27">
      <path d="M 57.6 178.040476 
L 414.72 178.040476 
" clip-path="url(#p0aad80249a)" style="fill: none; stroke: #b0b0b0; stroke-opacity: 0.5; stroke-width: 0.8; stroke-linecap: square"/>
     </g>
     <g id="line2d_28">
      <g>
       <use xlink:href="#mef5a36040b" x="57.6" y="178.040476" style="stroke: #000000; stroke-width: 0.8"/>
      </g>
     </g>
     <g id="text_15">
      <!-- 0.00 -->
      <g transform="translate(28.334375 181.839694) scale(0.1 -0.1)">
       <use xlink:href="#DejaVuSans-30"/>
       <use xlink:href="#DejaVuSans-2e" transform="translate(63.623047 0)"/>
       <use xlink:href="#DejaVuSans-30" transform="translate(95.410156 0)"/>
       <use xlink:href="#DejaVuSans-30" transform="translate(159.033203 0)"/>
      </g>
     </g>
    </g>
    <g id="ytick_6">
     <g id="line2d_29">
      <path d="M 57.6 146.922325 
L 414.72 146.922325 
" clip-path="url(#p0aad80249a)" style="fill: none; stroke: #b0b0b0; stroke-opacity: 0.5; stroke-width: 0.8; stroke-linecap: square"/>
     </g>
     <g id="line2d_30">
      <g>
       <use xlink:href="#mef5a36040b" x="57.6" y="146.922325" style="stroke: #000000; stroke-width: 0.8"/>
      </g>
     </g>
     <g id="text_16">
      <!-- 0.25 -->
      <g transform="translate(28.334375 150.721544) scale(0.1 -0.1)">
       <use xlink:href="#DejaVuSans-30"/>
       <use xlink:href="#DejaVuSans-2e" transform="translate(63.623047 0)"/>
       <use xlink:href="#DejaVuSans-32" transform="translate(95.410156 0)"/>
       <use xlink:href="#DejaVuSans-35" transform="translate(159.033203 0)"/>
      </g>
     </g>
    </g>
    <g id="ytick_7">
     <g id="line2d_31">
      <path d="M 57.6 115.804175 
L 414.72 115.804175 
" clip-path="url(#p0aad80249a)" style="fill: none; stroke: #b0b0b0; stroke-opacity: 0.5; stroke-width: 0.8; stroke-linecap: square"/>
     </g>
     <g id="line2d_32">
      <g>
       <use xlink:href="#mef5a36040b" x="57.6" y="115.804175" style="stroke: #000000; stroke-width: 0.8"/>
      </g>
     </g>
     <g id="text_17">
      <!-- 0.50 -->
      <g transform="translate(28.334375 119.603393) scale(0.1 -0.1)">
       <use xlink:href="#DejaVuSans-30"/>
       <use xlink:href="#DejaVuSans-2e" transform="translate(63.623047 0)"/>
       <use xlink:href="#DejaVuSans-35" transform="translate(95.410156 0)"/>
       <use xlink:href="#DejaVuSans-30" transform="translate(159.033203 0)"/>
      </g>
     </g>
    </g>
    <g id="ytick_8">
     <g id="line2d_33">
      <path d="M 57.6 84.686024 
L 414.72 84.686024 
" clip-path="url(#p0aad80249a)" style="fill: none; stroke: #b0b0b0; stroke-opacity: 0.5; stroke-width: 0.8; stroke-linecap: square"/>
     </g>
     <g id="line2d_34">
      <g>
       <use xlink:href="#mef5a36040b" x="57.6" y="84.686024" style="stroke: #000000; stroke-width: 0.8"/>
      </g>
     </g>
     <g id="text_18">
      <!-- 0.75 -->
      <g transform="translate(28.334375 88.485243) scale(0.1 -0.1)">
       <use xlink:href="#DejaVuSans-30"/>
       <use xlink:href="#DejaVuSans-2e" transform="translate(63.623047 0)"/>
       <use xlink:href="#DejaVuSans-37" transform="translate(95.410156 0)"/>
       <use xlink:href="#DejaVuSans-35" transform="translate(159.033203 0)"/>
      </g>
     </g>
    </g>
    <g id="ytick_9">
     <g id="line2d_35">
      <path d="M 57.6 53.567874 
L 414.72 53.567874 
" clip-path="url(#p0aad80249a)" style="fill: none; stroke: #b0b0b0; stroke-opacity: 0.5; stroke-width: 0.8; stroke-linecap: square"/>
     </g>
     <g id="line2d_36">
      <g>
       <use xlink:href="#mef5a36040b" x="57.6" y="53.567874" style="stroke: #000000; stroke-width: 0.8"/>
      </g>
     </g>
     <g id="text_19">
      <!-- 1.00 -->
      <g transform="translate(28.334375 57.367093) scale(0.1 -0.1)">
       <use xlink:href="#DejaVuSans-31"/>
       <use xlink:href="#DejaVuSans-2e" transform="translate(63.623047 0)"/>
       <use xlink:href="#DejaVuSans-30" transform="translate(95.410156 0)"/>
       <use xlink:href="#DejaVuSans-30" transform="translate(159.033203 0)"/>
      </g>
     </g>
    </g>
    <g id="text_20">
     <!-- Value -->
     <g transform="translate(13.875 188.25925) rotate(-90) scale(0.1 -0.1)">
      <defs>
       <path id="DejaVuSans-56" d="M 1831 0 
L 50 4666 
L 709 4666 
L 2188 738 
L 3669 4666 
L 4325 4666 
L 2547 0 
L 1831 0 
z
" transform="scale(0.015625)"/>
       <path id="DejaVuSans-61" d="M 2194 1759 
Q 1497 1759 1228 1600 
Q 959 1441 959 1056 
Q 959 750 1161 570 
Q 1363 391 1709 391 
Q 2188 391 2477 730 
Q 2766 1069 2766 1631 
L 2766 1759 
L 2194 1759 
z
M 3341 1997 
L 3341 0 
L 2766 0 
L 2766 531 
Q 2569 213 2275 61 
Q 1981 -91 1556 -91 
Q 1019 -91 701 211 
Q 384 513 384 1019 
Q 384 1609 779 1909 
Q 1175 2209 1959 2209 
L 2766 2209 
L 2766 2266 
Q 2766 2663 2505 2880 
Q 2244 3097 1772 3097 
Q 1472 3097 1187 3025 
Q 903 2953 641 2809 
L 641 3341 
Q 956 3463 1253 3523 
Q 1550 3584 1831 3584 
Q 2591 3584 2966 3190 
Q 3341 2797 3341 1997 
z
" transform="scale(0.015625)"/>
       <path id="DejaVuSans-6c" d="M 603 4863 
L 1178 4863 
L 1178 0 
L 603 0 
L 603 4863 
z
" transform="scale(0.015625)"/>
       <path id="DejaVuSans-75" d="M 544 1381 
L 544 3500 
L 1119 3500 
L 1119 1403 
Q 1119 906 1312 657 
Q 1506 409 1894 409 
Q 2359 409 2629 706 
Q 2900 1003 2900 1516 
L 2900 3500 
L 3475 3500 
L 3475 0 
L 2900 0 
L 2900 538 
Q 2691 219 2414 64 
Q 2138 -91 1772 -91 
Q 1169 -91 856 284 
Q 544 659 544 1381 
z
M 1991 3584 
L 1991 3584 
z
" transform="scale(0.015625)"/>
      </defs>
      <use xlink:href="#DejaVuSans-56"/>
      <use xlink:href="#DejaVuSans-61" transform="translate(60.658203 0)"/>
      <use xlink:href="#DejaVuSans-6c" transform="translate(121.9375 0)"/>
      <use xlink:href="#DejaVuSans-75" transform="translate(149.720703 0)"/>
      <use xlink:href="#DejaVuSans-65" transform="translate(213.099609 0)"/>
     </g>
    </g>
   </g>
   <g id="line2d_37">
    <path d="M 110.018975 295.488 
L 129.27091 295.30517 
L 144.941692 294.843491 
L 152.905728 294.081026 
L 153.266227 293.037056 
L 145.121527 291.774221 
L 124.423399 289.004646 
L 124.124124 287.730186 
L 136.393938 286.656606 
L 138.305179 285.829134 
L 128.426724 285.24015 
L 94.008241 284.509171 
L 91.971544 284.163268 
L 113.667788 283.694697 
L 138.361356 283.036137 
L 150.179055 282.166168 
L 149.740772 281.11193 
L 142.462084 279.940499 
L 132.94094 278.741224 
L 128.230769 277.603609 
L 135.48628 276.596549 
L 139.488896 275.753422 
L 134.436904 275.066677 
L 114.345291 273.964199 
L 114.000823 273.408854 
L 139.450518 272.00027 
L 146.416618 271.108118 
L 146.607637 270.115592 
L 142.709589 269.06973 
L 138.138277 268.025633 
L 137.306844 267.032848 
L 140.252408 266.124374 
L 141.531989 265.310686 
L 138.961694 264.579678 
L 134.393949 263.901753 
L 131.440689 263.238467 
L 133.255226 262.552166 
L 144.948828 261.010898 
L 148.594553 260.143823 
L 149.586067 259.228694 
L 148.86377 258.289949 
L 147.867833 257.354528 
L 147.727621 256.445943 
L 148.362474 255.579639 
L 148.763994 254.760639 
L 148.365507 253.983551 
L 147.734307 253.234722 
L 147.803916 252.49576 
L 149.368485 251.747799 
L 158.541048 249.32889 
L 160.336336 248.459893 
L 161.180632 247.574671 
L 161.899421 245.815309 
L 163.571761 242.578344 
L 164.331227 241.810314 
L 165.842182 241.036044 
L 172.252403 238.595283 
L 173.503455 237.74256 
L 174.208382 236.882733 
L 175.228335 235.183151 
L 176.633292 233.550401 
L 177.431924 232.756894 
L 178.444251 231.969623 
L 179.797979 231.180203 
L 184.60994 228.746349 
L 185.666212 227.913175 
L 187.153141 226.242462 
L 188.641684 224.598223 
L 190.444041 222.987479 
L 192.677288 221.38593 
L 195.031484 219.768976 
L 197.07055 218.134319 
L 203.538822 212.450464 
L 207.681101 209.233786 
L 211.827413 205.999391 
L 214.507253 203.58016 
L 216.290439 201.985082 
L 218.332668 200.398326 
L 221.60004 198.001806 
L 223.41761 196.38971 
L 226.693776 193.203012 
L 228.725806 191.636726 
L 232.068736 189.269735 
L 233.919832 187.669361 
L 236.957178 184.494742 
L 238.829994 182.936559 
L 239.839225 182.158027 
L 221.403969 182.060612 
L 259.648194 181.278377 
L 254.255625 180.491526 
L 242.039749 179.700382 
L 243.548773 178.906546 
L 245.510924 177.319855 
L 248.380541 174.962291 
L 254.353622 170.259955 
L 282.603905 147.506633 
L 285.305008 145.152013 
L 292.090904 139.723072 
L 297.180363 135.055339 
L 299.527329 132.734352 
L 308.1487 123.4329 
L 310.277273 121.113404 
L 313.331824 118.042442 
L 316.916545 114.17749 
L 324.935279 106.517045 
L 328.388906 103.485612 
L 332.953553 98.908815 
L 336.42487 95.892665 
L 341.13709 91.344633 
L 344.746766 88.352106 
L 348.429139 84.582104 
L 351.391774 82.330579 
L 353.147726 80.854422 
L 354.383182 79.370095 
L 355.566659 77.860752 
L 357.235252 76.344383 
L 360.26122 74.11766 
L 361.045141 73.386384 
L 361.617236 72.653158 
L 363.410655 69.646386 
L 364.200503 68.887956 
L 367.098286 66.667235 
L 367.754731 65.941272 
L 368.091524 65.212334 
L 368.32126 63.722169 
L 368.59394 62.959503 
L 369.118093 62.192534 
L 369.982617 61.430847 
L 373.318373 59.234595 
L 373.744363 58.519575 
L 373.524332 57.793322 
L 373.058755 57.046058 
L 372.920046 56.280224 
L 373.616698 55.516987 
L 374.994241 54.799341 
L 370.69424 54.188812 
L 353.84039 53.75629 
L 333.644808 53.568 
L 319.901337 53.668975 
L 309.068321 54.069579 
L 314.906372 54.737109 
L 328.716954 55.597092 
L 362.336085 57.458385 
L 361.527638 58.232402 
L 352.993806 58.788741 
L 354.841314 59.097526 
L 363.7783 59.181689 
L 384.741793 58.985208 
L 380.816702 58.91207 
L 359.256558 58.982396 
L 336.144714 59.250813 
L 329.147182 59.725149 
L 334.893936 60.366942 
L 364.042485 61.843003 
L 370.033207 62.503574 
L 363.803106 63.024865 
L 362.212797 63.384011 
L 367.82496 63.597549 
L 383.104382 63.803482 
L 380.079903 63.933117 
L 366.633908 64.158073 
L 353.720251 64.506276 
L 349.362193 64.975017 
L 353.14029 65.534154 
L 369.048634 66.725802 
L 371.363388 67.259023 
L 369.623407 67.706598 
L 369.3796 68.062035 
L 372.140213 68.340186 
L 375.945125 68.571723 
L 377.533604 68.794608 
L 374.50231 69.044893 
L 362.667051 69.7185 
L 360.338834 70.149982 
L 361.323188 70.626663 
L 366.953121 71.614255 
L 368.35398 72.075674 
L 368.71289 72.863987 
L 369.939192 73.497382 
L 369.592435 73.793925 
L 367.681364 74.10225 
L 361.552324 74.807062 
L 359.607023 75.211509 
L 359.164082 75.643043 
L 359.866591 76.088682 
L 361.818898 76.962479 
L 362.168583 77.366941 
L 362.205201 78.094077 
L 361.931112 78.428777 
L 361.077462 78.759166 
L 354.156635 80.230568 
L 353.8241 80.645187 
L 354.133748 81.065904 
L 354.906836 81.887441 
L 354.929362 82.275529 
L 354.721154 82.646954 
L 354.275256 83.00584 
L 353.496991 83.359051 
L 348.64936 84.839608 
L 348.10399 85.235798 
L 347.901578 85.636216 
L 347.737974 86.429219 
L 347.191334 87.192286 
L 346.026017 87.931477 
L 342.855773 89.430753 
L 341.930175 90.204763 
L 340.548954 91.739561 
L 339.526883 92.488198 
L 335.307854 95.125051 
L 333.085096 97.002681 
L 331.735706 97.736093 
L 329.432615 98.846709 
L 328.361742 99.599345 
L 326.927252 101.083129 
L 325.677944 101.802074 
L 322.461437 103.252502 
L 321.630474 103.995782 
L 320.862694 105.099261 
L 319.917587 105.814696 
L 316.018611 107.969787 
L 314.063746 109.79115 
L 312.31396 110.863848 
L 309.89889 112.306129 
L 307.424529 114.134444 
L 305.525696 115.584056 
L 303.609283 116.663764 
L 301.72834 117.758378 
L 300.884114 118.495362 
L 299.756425 119.589764 
L 298.036577 120.664212 
L 296.125266 121.746317 
L 295.301529 122.477937 
L 294.38547 123.570235 
L 293.432953 124.286539 
L 290.43261 126.078437 
L 287.407757 128.606366 
L 285.290642 130.04331 
L 279.285748 134.732525 
L 275.879023 137.253758 
L 274.613774 138.330391 
L 270.214896 141.544806 
L 268.831346 142.609368 
L 265.782392 144.730354 
L 263.605082 146.491469 
L 261.725403 147.891904 
L 259.514088 149.632255 
L 257.535911 151.019919 
L 255.022973 153.092543 
L 252.477364 154.809908 
L 250.484026 156.529369 
L 247.034142 158.928988 
L 245.830881 159.960694 
L 241.691241 163.053848 
L 240.381268 164.085541 
L 238.473925 165.46222 
L 235.527081 167.873195 
L 233.730663 169.248721 
L 232.479116 170.280062 
L 215.63581 182.231861 
L 214.213123 183.253428 
L 212.482422 184.612812 
L 208.56732 187.316578 
L 207.126299 188.325198 
L 204.57141 189.99968 
L 202.257385 191.667055 
L 199.741399 193.325787 
L 197.462598 194.976631 
L 194.943738 196.619796 
L 192.753391 198.259594 
L 190.18949 199.892392 
L 187.54686 201.852524 
L 185.060976 203.482466 
L 183.365219 204.788236 
L 179.509697 207.395676 
L 178.150773 208.374541 
L 175.64569 210.005729 
L 167.051464 216.857243 
L 165.601713 218.157719 
L 163.422529 219.778027 
L 161.419932 221.724232 
L 159.720267 223.014685 
L 157.350575 225.275933 
L 155.758063 226.56239 
L 154.150424 228.171517 
L 152.026418 229.770632 
L 150.332965 231.369006 
L 147.914381 233.274001 
L 146.587139 234.540969 
L 144.12536 236.42877 
L 142.716815 237.686115 
L 140.012929 239.556633 
L 138.680049 240.807015 
L 135.356456 243.289224 
L 134.269532 244.219703 
L 131.691082 246.075536 
L 130.295989 247.316803 
L 127.741695 249.172977 
L 126.40122 250.414972 
L 123.817793 252.269172 
L 122.885829 253.203435 
L 121.523167 254.128632 
L 120.119 255.054801 
L 117.50524 257.223551 
L 116.074708 258.146544 
L 115.109384 259.078767 
L 114.446062 259.697762 
L 112.532483 260.922685 
L 111.377009 261.848616 
L 110.422119 262.775394 
L 108.983711 263.689892 
L 107.635681 264.607655 
L 106.013541 266.144487 
L 103.619263 267.660278 
L 101.636764 269.492851 
L 99.741234 270.696689 
L 98.973004 271.613547 
L 98.363041 272.219676 
L 96.890204 273.114032 
L 96.003083 273.71292 
L 95.471375 274.319584 
L 95.033441 274.925928 
L 94.272277 275.522338 
L 92.310506 276.703533 
L 91.798526 277.305879 
L 91.230019 278.207453 
L 90.397236 278.793981 
L 89.026549 279.671495 
L 88.63211 280.270272 
L 88.44393 280.872158 
L 88.23999 281.169109 
L 87.40224 281.751378 
L 85.944724 282.620294 
L 85.685865 282.916756 
L 85.534294 283.518856 
L 85.496336 283.819599 
L 85.334941 284.116624 
L 85.004804 284.408582 
L 82.636941 285.852667 
L 82.57003 286.153417 
L 82.630945 287.057796 
L 82.341524 287.349457 
L 81.169391 287.916874 
L 80.063868 288.487443 
L 79.82069 288.782866 
L 79.820241 289.085641 
L 80.224304 289.998374 
L 79.938981 290.28896 
L 78.487961 290.847161 
L 77.154002 291.411358 
L 76.937569 291.709407 
L 77.0888 292.018793 
L 78.222007 292.946906 
L 77.819912 293.231103 
L 73.832727 294.328343 
L 74.181633 294.640548 
L 75.739601 294.958421 
L 79.00142 295.245453 
L 86.996198 295.445058 
L 86.996198 295.445058 
" clip-path="url(#p0aad80249a)" style="fill: none; stroke: #1f77b4; stroke-width: 1.5; stroke-linecap: square"/>
   </g>
   <g id="line2d_38">
    <path d="M 86.096285 295.488 
L 89.649244 295.30517 
L 92.222237 294.843491 
L 93.318775 294.081026 
L 92.745651 293.037056 
L 90.683858 291.774221 
L 81.970531 287.730186 
L 80.855075 286.656606 
L 81.551996 285.829134 
L 84.076078 285.24015 
L 88.037828 284.831689 
L 97.347906 284.163268 
L 101.089414 283.694697 
L 103.434301 283.036137 
L 104.208008 282.166168 
L 103.613636 281.11193 
L 99.361756 277.603609 
L 99.172677 276.596549 
L 100.172671 275.753422 
L 102.273951 275.066677 
L 108.254878 273.964199 
L 111.13663 273.408854 
L 113.385103 272.765955 
L 114.805741 272.00027 
L 115.428227 271.108118 
L 115.47403 270.115592 
L 115.197622 268.025633 
L 115.511068 267.032848 
L 116.368596 266.124374 
L 117.766367 265.310686 
L 119.568222 264.579678 
L 125.186812 262.552166 
L 126.52202 261.814318 
L 127.484746 261.010898 
L 128.148317 260.143823 
L 129.749 257.354528 
L 130.592356 256.445943 
L 131.701816 255.579639 
L 133.056863 254.760639 
L 136.193905 253.234722 
L 139.20833 251.747799 
L 140.45538 250.975414 
L 141.484777 250.169524 
L 142.319868 249.32889 
L 145.274207 245.815309 
L 146.329549 244.966388 
L 148.990796 243.353021 
L 153.301336 241.036044 
L 154.486912 240.244989 
L 155.482589 239.431354 
L 157.063898 237.74256 
L 158.641699 236.026563 
L 159.622304 235.183151 
L 162.066853 233.550401 
L 167.366339 230.381703 
L 169.375452 228.746349 
L 172.929581 225.415624 
L 175.138882 223.789759 
L 182.290104 218.953107 
L 185.235309 216.496828 
L 188.155684 214.061104 
L 190.363461 212.450464 
L 196.263253 208.42707 
L 198.21137 206.809294 
L 200.902571 204.383514 
L 203.022772 202.780817 
L 210.085934 198.001806 
L 214.680948 193.991104 
L 216.955927 192.419167 
L 220.505844 190.06384 
L 222.584637 188.470821 
L 227.478157 184.494742 
L 235.072026 178.906546 
L 246.497049 170.259955 
L 251.969016 166.325463 
L 257.915017 161.608282 
L 263.452011 157.69451 
L 269.279241 152.96988 
L 274.750949 149.082719 
L 280.604466 144.376026 
L 284.910434 141.284491 
L 291.972578 135.826975 
L 295.142062 133.510232 
L 301.148484 128.847911 
L 305.412172 125.76171 
L 311.345208 121.113404 
L 315.6263 118.042442 
L 322.54298 112.648686 
L 325.751551 110.363367 
L 333.738933 104.240398 
L 336.842245 101.968849 
L 341.595881 98.149317 
L 346.887842 94.385629 
L 351.493475 90.590432 
L 356.923355 86.855724 
L 362.437196 82.330579 
L 366.896174 79.370095 
L 368.61099 77.860752 
L 370.238727 76.344383 
L 372.26559 74.852259 
L 376.887872 71.913216 
L 378.554616 70.40716 
L 380.046063 68.887956 
L 380.959328 68.137398 
L 383.31155 66.667235 
L 385.89029 65.212334 
L 386.96672 64.47375 
L 387.800501 63.722169 
L 389.56226 61.430847 
L 390.436588 60.682871 
L 391.667557 59.952085 
L 396.302152 57.793322 
L 397.112858 57.046058 
L 396.960187 56.280224 
L 395.667394 55.516987 
L 393.306517 54.799341 
L 390.222193 54.188812 
L 386.98254 53.75629 
L 384.262394 53.568 
L 382.685407 53.668975 
L 382.66389 54.069579 
L 384.280213 54.737109 
L 387.243807 55.597092 
L 397.286126 58.232402 
L 398.487273 58.788741 
L 397.861909 59.097526 
L 395.512565 59.181689 
L 381.217317 58.982396 
L 379.86313 59.250813 
L 380.021907 59.725149 
L 381.413522 60.366942 
L 385.597991 61.843003 
L 387.115473 62.503574 
L 387.623755 63.024865 
L 386.977384 63.384011 
L 385.317656 63.597549 
L 378.382947 63.933117 
L 376.87571 64.158073 
L 376.172092 64.506276 
L 376.212248 64.975017 
L 378.097564 66.725802 
L 378.29211 67.259023 
L 377.961664 67.706598 
L 377.123554 68.062035 
L 374.549112 68.571723 
L 372.187775 69.044893 
L 371.476372 69.348908 
L 371.12088 69.7185 
L 371.046913 70.149982 
L 371.200573 71.123656 
L 371.141578 71.614255 
L 370.854176 72.075674 
L 370.303978 72.493505 
L 368.564257 73.193716 
L 365.765316 74.10225 
L 365.141622 74.437291 
L 364.729983 74.807062 
L 364.374251 75.643043 
L 364.086789 76.533163 
L 363.756183 76.962479 
L 363.238486 77.366941 
L 361.707123 78.094077 
L 359.226336 79.097479 
L 358.247429 79.831277 
L 357.795164 80.645187 
L 357.314755 81.482727 
L 356.893432 81.887441 
L 355.606246 82.646954 
L 352.642982 84.077439 
L 351.766495 84.839608 
L 350.538414 86.429219 
L 349.489059 87.192286 
L 345.682348 89.430753 
L 344.55123 90.592591 
L 343.795803 91.360807 
L 342.782846 92.115022 
L 339.234654 94.362756 
L 336.30495 97.002681 
L 333.297521 98.846709 
L 332.17345 99.975592 
L 331.419361 100.718485 
L 330.415089 101.443766 
L 327.544041 103.252502 
L 322.86601 106.880449 
L 320.316743 108.703496 
L 316.502447 111.581642 
L 313.818249 113.402516 
L 310.083956 116.303086 
L 307.996449 117.758378 
L 304.853889 120.306876 
L 302.794211 121.746317 
L 298.629994 124.999081 
L 296.236836 126.804935 
L 292.903043 129.323156 
L 283.288509 136.531857 
L 279.524998 139.39906 
L 230.904853 176.098157 
L 228.176235 178.144413 
L 221.424679 183.253428 
L 216.96149 186.640494 
L 206.840573 194.318709 
L 199.797908 199.564825 
L 193.751844 204.136562 
L 181.644652 213.271318 
L 175.759504 217.833758 
L 168.882446 223.014685 
L 165.942173 225.275933 
L 163.392861 227.20796 
L 157.892807 231.369006 
L 154.558225 233.909503 
L 140.456109 244.527999 
L 137.992212 246.38688 
L 133.103235 250.106009 
L 126.934568 254.744933 
L 120.189199 260.004929 
L 118.115223 261.53883 
L 116.180056 263.081307 
L 114.0903 264.607655 
L 112.177091 266.144487 
L 110.066037 267.660278 
L 108.172346 269.191648 
L 106.042374 270.696689 
L 104.208827 272.219676 
L 101.695979 274.015562 
L 100.26024 275.22558 
L 97.699969 277.003719 
L 96.331181 278.207453 
L 93.793327 279.969537 
L 92.493339 281.169109 
L 89.89608 282.916756 
L 88.76919 284.116624 
L 87.298491 284.981118 
L 86.351286 285.557103 
L 85.74665 286.153417 
L 84.946698 287.057796 
L 83.975677 287.634894 
L 82.376474 288.487443 
L 81.841267 289.085641 
L 81.533018 289.698522 
L 81.253461 289.998374 
L 80.203486 290.570546 
L 78.326565 291.411358 
L 78.030119 291.709407 
L 77.953684 292.018793 
L 78.018796 292.646274 
L 77.821501 292.946906 
L 77.290162 293.231103 
L 74.020068 294.328343 
L 74.467066 294.640548 
L 76.022985 294.958421 
L 78.696939 295.245453 
L 82.225082 295.445058 
L 82.225082 295.445058 
" clip-path="url(#p0aad80249a)" style="fill: none; stroke: #ff7f0e; stroke-opacity: 0.5; stroke-width: 1.5; stroke-linecap: square"/>
   </g>
   <g id="patch_3">
    <path d="M 57.6 307.584 
L 57.6 41.472 
" style="fill: none; stroke: #000000; stroke-width: 0.8; stroke-linejoin: miter; stroke-linecap: square"/>
   </g>
   <g id="patch_4">
    <path d="M 414.72 307.584 
L 414.72 41.472 
" style="fill: none; stroke: #000000; stroke-width: 0.8; stroke-linejoin: miter; stroke-linecap: square"/>
   </g>
   <g id="patch_5">
    <path d="M 57.6 307.584 
L 414.72 307.584 
" style="fill: none; stroke: #000000; stroke-width: 0.8; stroke-linejoin: miter; stroke-linecap: square"/>
   </g>
   <g id="patch_6">
    <path d="M 57.6 41.472 
L 414.72 41.472 
" style="fill: none; stroke: #000000; stroke-width: 0.8; stroke-linejoin: miter; stroke-linecap: square"/>
   </g>
   <g id="text_21">
    <!-- Compare - Epoch 700 -->
    <g transform="translate(171.234375 35.472) scale(0.12 -0.12)">
     <defs>
      <path id="DejaVuSans-43" d="M 4122 4306 
L 4122 3641 
Q 3803 3938 3442 4084 
Q 3081 4231 2675 4231 
Q 1875 4231 1450 3742 
Q 1025 3253 1025 2328 
Q 1025 1406 1450 917 
Q 1875 428 2675 428 
Q 3081 428 3442 575 
Q 3803 722 4122 1019 
L 4122 359 
Q 3791 134 3420 21 
Q 3050 -91 2638 -91 
Q 1578 -91 968 557 
Q 359 1206 359 2328 
Q 359 3453 968 4101 
Q 1578 4750 2638 4750 
Q 3056 4750 3426 4639 
Q 3797 4528 4122 4306 
z
" transform="scale(0.015625)"/>
      <path id="DejaVuSans-6f" d="M 1959 3097 
Q 1497 3097 1228 2736 
Q 959 2375 959 1747 
Q 959 1119 1226 758 
Q 1494 397 1959 397 
Q 2419 397 2687 759 
Q 2956 1122 2956 1747 
Q 2956 2369 2687 2733 
Q 2419 3097 1959 3097 
z
M 1959 3584 
Q 2709 3584 3137 3096 
Q 3566 2609 3566 1747 
Q 3566 888 3137 398 
Q 2709 -91 1959 -91 
Q 1206 -91 779 398 
Q 353 888 353 1747 
Q 353 2609 779 3096 
Q 1206 3584 1959 3584 
z
" transform="scale(0.015625)"/>
      <path id="DejaVuSans-6d" d="M 3328 2828 
Q 3544 3216 3844 3400 
Q 4144 3584 4550 3584 
Q 5097 3584 5394 3201 
Q 5691 2819 5691 2113 
L 5691 0 
L 5113 0 
L 5113 2094 
Q 5113 2597 4934 2840 
Q 4756 3084 4391 3084 
Q 3944 3084 3684 2787 
Q 3425 2491 3425 1978 
L 3425 0 
L 2847 0 
L 2847 2094 
Q 2847 2600 2669 2842 
Q 2491 3084 2119 3084 
Q 1678 3084 1418 2786 
Q 1159 2488 1159 1978 
L 1159 0 
L 581 0 
L 581 3500 
L 1159 3500 
L 1159 2956 
Q 1356 3278 1631 3431 
Q 1906 3584 2284 3584 
Q 2666 3584 2933 3390 
Q 3200 3197 3328 2828 
z
" transform="scale(0.015625)"/>
      <path id="DejaVuSans-70" d="M 1159 525 
L 1159 -1331 
L 581 -1331 
L 581 3500 
L 1159 3500 
L 1159 2969 
Q 1341 3281 1617 3432 
Q 1894 3584 2278 3584 
Q 2916 3584 3314 3078 
Q 3713 2572 3713 1747 
Q 3713 922 3314 415 
Q 2916 -91 2278 -91 
Q 1894 -91 1617 61 
Q 1341 213 1159 525 
z
M 3116 1747 
Q 3116 2381 2855 2742 
Q 2594 3103 2138 3103 
Q 1681 3103 1420 2742 
Q 1159 2381 1159 1747 
Q 1159 1113 1420 752 
Q 1681 391 2138 391 
Q 2594 391 2855 752 
Q 3116 1113 3116 1747 
z
" transform="scale(0.015625)"/>
      <path id="DejaVuSans-72" d="M 2631 2963 
Q 2534 3019 2420 3045 
Q 2306 3072 2169 3072 
Q 1681 3072 1420 2755 
Q 1159 2438 1159 1844 
L 1159 0 
L 581 0 
L 581 3500 
L 1159 3500 
L 1159 2956 
Q 1341 3275 1631 3429 
Q 1922 3584 2338 3584 
Q 2397 3584 2469 3576 
Q 2541 3569 2628 3553 
L 2631 2963 
z
" transform="scale(0.015625)"/>
      <path id="DejaVuSans-20" transform="scale(0.015625)"/>
      <path id="DejaVuSans-2d" d="M 313 2009 
L 1997 2009 
L 1997 1497 
L 313 1497 
L 313 2009 
z
" transform="scale(0.015625)"/>
      <path id="DejaVuSans-45" d="M 628 4666 
L 3578 4666 
L 3578 4134 
L 1259 4134 
L 1259 2753 
L 3481 2753 
L 3481 2222 
L 1259 2222 
L 1259 531 
L 3634 531 
L 3634 0 
L 628 0 
L 628 4666 
z
" transform="scale(0.015625)"/>
      <path id="DejaVuSans-63" d="M 3122 3366 
L 3122 2828 
Q 2878 2963 2633 3030 
Q 2388 3097 2138 3097 
Q 1578 3097 1268 2742 
Q 959 2388 959 1747 
Q 959 1106 1268 751 
Q 1578 397 2138 397 
Q 2388 397 2633 464 
Q 2878 531 3122 666 
L 3122 134 
Q 2881 22 2623 -34 
Q 2366 -91 2075 -91 
Q 1284 -91 818 406 
Q 353 903 353 1747 
Q 353 2603 823 3093 
Q 1294 3584 2113 3584 
Q 2378 3584 2631 3529 
Q 2884 3475 3122 3366 
z
" transform="scale(0.015625)"/>
      <path id="DejaVuSans-68" d="M 3513 2113 
L 3513 0 
L 2938 0 
L 2938 2094 
Q 2938 2591 2744 2837 
Q 2550 3084 2163 3084 
Q 1697 3084 1428 2787 
Q 1159 2491 1159 1978 
L 1159 0 
L 581 0 
L 581 4863 
L 1159 4863 
L 1159 2956 
Q 1366 3272 1645 3428 
Q 1925 3584 2291 3584 
Q 2894 3584 3203 3211 
Q 3513 2838 3513 2113 
z
" transform="scale(0.015625)"/>
     </defs>
     <use xlink:href="#DejaVuSans-43"/>
     <use xlink:href="#DejaVuSans-6f" transform="translate(69.824219 0)"/>
     <use xlink:href="#DejaVuSans-6d" transform="translate(131.005859 0)"/>
     <use xlink:href="#DejaVuSans-70" transform="translate(228.417969 0)"/>
     <use xlink:href="#DejaVuSans-61" transform="translate(291.894531 0)"/>
     <use xlink:href="#DejaVuSans-72" transform="translate(353.173828 0)"/>
     <use xlink:href="#DejaVuSans-65" transform="translate(392.037109 0)"/>
     <use xlink:href="#DejaVuSans-20" transform="translate(453.560547 0)"/>
     <use xlink:href="#DejaVuSans-2d" transform="translate(485.347656 0)"/>
     <use xlink:href="#DejaVuSans-20" transform="translate(521.431641 0)"/>
     <use xlink:href="#DejaVuSans-45" transform="translate(553.21875 0)"/>
     <use xlink:href="#DejaVuSans-70" transform="translate(616.402344 0)"/>
     <use xlink:href="#DejaVuSans-6f" transform="translate(679.878906 0)"/>
     <use xlink:href="#DejaVuSans-63" transform="translate(741.060547 0)"/>
     <use xlink:href="#DejaVuSans-68" transform="translate(796.041016 0)"/>
     <use xlink:href="#DejaVuSans-20" transform="translate(859.419922 0)"/>
     <use xlink:href="#DejaVuSans-37" transform="translate(891.207031 0)"/>
     <use xlink:href="#DejaVuSans-30" transform="translate(954.830078 0)"/>
     <use xlink:href="#DejaVuSans-30" transform="translate(1018.453125 0)"/>
    </g>
   </g>
   <g id="legend_1">
    <g id="patch_7">
     <path d="M 64.6 78.82825 
L 181.128125 78.82825 
Q 183.128125 78.82825 183.128125 76.82825 
L 183.128125 48.472 
Q 183.128125 46.472 181.128125 46.472 
L 64.6 46.472 
Q 62.6 46.472 62.6 48.472 
L 62.6 76.82825 
Q 62.6 78.82825 64.6 78.82825 
z
" style="fill: #ffffff; opacity: 0.8; stroke: #cccccc; stroke-linejoin: miter"/>
    </g>
    <g id="line2d_39">
     <path d="M 66.6 54.570437 
L 76.6 54.570437 
L 86.6 54.570437 
" style="fill: none; stroke: #1f77b4; stroke-width: 1.5; stroke-linecap: square"/>
    </g>
    <g id="text_22">
     <!-- Pred: Sample 1 -->
     <g transform="translate(94.6 58.070437) scale(0.1 -0.1)">
      <defs>
       <path id="DejaVuSans-50" d="M 1259 4147 
L 1259 2394 
L 2053 2394 
Q 2494 2394 2734 2622 
Q 2975 2850 2975 3272 
Q 2975 3691 2734 3919 
Q 2494 4147 2053 4147 
L 1259 4147 
z
M 628 4666 
L 2053 4666 
Q 2838 4666 3239 4311 
Q 3641 3956 3641 3272 
Q 3641 2581 3239 2228 
Q 2838 1875 2053 1875 
L 1259 1875 
L 1259 0 
L 628 0 
L 628 4666 
z
" transform="scale(0.015625)"/>
       <path id="DejaVuSans-3a" d="M 750 794 
L 1409 794 
L 1409 0 
L 750 0 
L 750 794 
z
M 750 3309 
L 1409 3309 
L 1409 2516 
L 750 2516 
L 750 3309 
z
" transform="scale(0.015625)"/>
       <path id="DejaVuSans-53" d="M 3425 4513 
L 3425 3897 
Q 3066 4069 2747 4153 
Q 2428 4238 2131 4238 
Q 1616 4238 1336 4038 
Q 1056 3838 1056 3469 
Q 1056 3159 1242 3001 
Q 1428 2844 1947 2747 
L 2328 2669 
Q 3034 2534 3370 2195 
Q 3706 1856 3706 1288 
Q 3706 609 3251 259 
Q 2797 -91 1919 -91 
Q 1588 -91 1214 -16 
Q 841 59 441 206 
L 441 856 
Q 825 641 1194 531 
Q 1563 422 1919 422 
Q 2459 422 2753 634 
Q 3047 847 3047 1241 
Q 3047 1584 2836 1778 
Q 2625 1972 2144 2069 
L 1759 2144 
Q 1053 2284 737 2584 
Q 422 2884 422 3419 
Q 422 4038 858 4394 
Q 1294 4750 2059 4750 
Q 2388 4750 2728 4690 
Q 3069 4631 3425 4513 
z
" transform="scale(0.015625)"/>
      </defs>
      <use xlink:href="#DejaVuSans-50"/>
      <use xlink:href="#DejaVuSans-72" transform="translate(58.552734 0)"/>
      <use xlink:href="#DejaVuSans-65" transform="translate(97.416016 0)"/>
      <use xlink:href="#DejaVuSans-64" transform="translate(158.939453 0)"/>
      <use xlink:href="#DejaVuSans-3a" transform="translate(222.416016 0)"/>
      <use xlink:href="#DejaVuSans-20" transform="translate(256.107422 0)"/>
      <use xlink:href="#DejaVuSans-53" transform="translate(287.894531 0)"/>
      <use xlink:href="#DejaVuSans-61" transform="translate(351.371094 0)"/>
      <use xlink:href="#DejaVuSans-6d" transform="translate(412.650391 0)"/>
      <use xlink:href="#DejaVuSans-70" transform="translate(510.0625 0)"/>
      <use xlink:href="#DejaVuSans-6c" transform="translate(573.539062 0)"/>
      <use xlink:href="#DejaVuSans-65" transform="translate(601.322266 0)"/>
      <use xlink:href="#DejaVuSans-20" transform="translate(662.845703 0)"/>
      <use xlink:href="#DejaVuSans-31" transform="translate(694.632812 0)"/>
     </g>
    </g>
    <g id="line2d_40">
     <path d="M 66.6 69.248562 
L 76.6 69.248562 
L 86.6 69.248562 
" style="fill: none; stroke: #ff7f0e; stroke-opacity: 0.5; stroke-width: 1.5; stroke-linecap: square"/>
    </g>
    <g id="text_23">
     <!-- Target: Sample 1 -->
     <g transform="translate(94.6 72.748562) scale(0.1 -0.1)">
      <defs>
       <path id="DejaVuSans-54" d="M -19 4666 
L 3928 4666 
L 3928 4134 
L 2272 4134 
L 2272 0 
L 1638 0 
L 1638 4134 
L -19 4134 
L -19 4666 
z
" transform="scale(0.015625)"/>
       <path id="DejaVuSans-67" d="M 2906 1791 
Q 2906 2416 2648 2759 
Q 2391 3103 1925 3103 
Q 1463 3103 1205 2759 
Q 947 2416 947 1791 
Q 947 1169 1205 825 
Q 1463 481 1925 481 
Q 2391 481 2648 825 
Q 2906 1169 2906 1791 
z
M 3481 434 
Q 3481 -459 3084 -895 
Q 2688 -1331 1869 -1331 
Q 1566 -1331 1297 -1286 
Q 1028 -1241 775 -1147 
L 775 -588 
Q 1028 -725 1275 -790 
Q 1522 -856 1778 -856 
Q 2344 -856 2625 -561 
Q 2906 -266 2906 331 
L 2906 616 
Q 2728 306 2450 153 
Q 2172 0 1784 0 
Q 1141 0 747 490 
Q 353 981 353 1791 
Q 353 2603 747 3093 
Q 1141 3584 1784 3584 
Q 2172 3584 2450 3431 
Q 2728 3278 2906 2969 
L 2906 3500 
L 3481 3500 
L 3481 434 
z
" transform="scale(0.015625)"/>
       <path id="DejaVuSans-74" d="M 1172 4494 
L 1172 3500 
L 2356 3500 
L 2356 3053 
L 1172 3053 
L 1172 1153 
Q 1172 725 1289 603 
Q 1406 481 1766 481 
L 2356 481 
L 2356 0 
L 1766 0 
Q 1100 0 847 248 
Q 594 497 594 1153 
L 594 3053 
L 172 3053 
L 172 3500 
L 594 3500 
L 594 4494 
L 1172 4494 
z
" transform="scale(0.015625)"/>
      </defs>
      <use xlink:href="#DejaVuSans-54"/>
      <use xlink:href="#DejaVuSans-61" transform="translate(44.583984 0)"/>
      <use xlink:href="#DejaVuSans-72" transform="translate(105.863281 0)"/>
      <use xlink:href="#DejaVuSans-67" transform="translate(145.226562 0)"/>
      <use xlink:href="#DejaVuSans-65" transform="translate(208.703125 0)"/>
      <use xlink:href="#DejaVuSans-74" transform="translate(270.226562 0)"/>
      <use xlink:href="#DejaVuSans-3a" transform="translate(309.435547 0)"/>
      <use xlink:href="#DejaVuSans-20" transform="translate(343.126953 0)"/>
      <use xlink:href="#DejaVuSans-53" transform="translate(374.914062 0)"/>
      <use xlink:href="#DejaVuSans-61" transform="translate(438.390625 0)"/>
      <use xlink:href="#DejaVuSans-6d" transform="translate(499.669922 0)"/>
      <use xlink:href="#DejaVuSans-70" transform="translate(597.082031 0)"/>
      <use xlink:href="#DejaVuSans-6c" transform="translate(660.558594 0)"/>
      <use xlink:href="#DejaVuSans-65" transform="translate(688.341797 0)"/>
      <use xlink:href="#DejaVuSans-20" transform="translate(749.865234 0)"/>
      <use xlink:href="#DejaVuSans-31" transform="translate(781.652344 0)"/>
     </g>
    </g>
   </g>
  </g>
 </g>
 <defs>
  <clipPath id="p0aad80249a">
   <rect x="57.6" y="41.472" width="357.12" height="266.112"/>
  </clipPath>
 </defs>
</svg>
