<?xml version="1.0" encoding="utf-8" standalone="no"?>
<!DOCTYPE svg PUBLIC "-//W3C//DTD SVG 1.1//EN"
  "http://www.w3.org/Graphics/SVG/1.1/DTD/svg11.dtd">
<svg xmlns:xlink="http://www.w3.org/1999/xlink" width="460.8pt" height="345.6pt" viewBox="0 0 460.8 345.6" xmlns="http://www.w3.org/2000/svg" version="1.1">
 <metadata>
  <rdf:RDF xmlns:dc="http://purl.org/dc/elements/1.1/" xmlns:cc="http://creativecommons.org/ns#" xmlns:rdf="http://www.w3.org/1999/02/22-rdf-syntax-ns#">
   <cc:Work>
    <dc:type rdf:resource="http://purl.org/dc/dcmitype/StillImage"/>
    <dc:date>2025-07-23T12:33:41.279327</dc:date>
    <dc:format>image/svg+xml</dc:format>
    <dc:creator>
     <cc:Agent>
      <dc:title>Matplotlib v3.10.3, https://matplotlib.org/</dc:title>
     </cc:Agent>
    </dc:creator>
   </cc:Work>
  </rdf:RDF>
 </metadata>
 <defs>
  <style type="text/css">*{stroke-linejoin: round; stroke-linecap: butt}</style>
 </defs>
 <g id="figure_1">
  <g id="patch_1">
   <path d="M 0 345.6 
L 460.8 345.6 
L 460.8 0 
L 0 0 
z
" style="fill: #ffffff"/>
  </g>
  <g id="axes_1">
   <g id="patch_2">
    <path d="M 57.6 307.584 
L 414.72 307.584 
L 414.72 41.472 
L 57.6 41.472 
z
" style="fill: #ffffff"/>
   </g>
   <g id="matplotlib.axis_1">
    <g id="xtick_1">
     <g id="line2d_1">
      <path d="M 62.945727 307.584 
L 62.945727 41.472 
" clip-path="url(#pbf4d92362f)" style="fill: none; stroke: #b0b0b0; stroke-opacity: 0.5; stroke-width: 0.8; stroke-linecap: square"/>
     </g>
     <g id="line2d_2">
      <defs>
       <path id="m25b1ce6085" d="M 0 0 
L 0 3.5 
" style="stroke: #000000; stroke-width: 0.8"/>
      </defs>
      <g>
       <use xlink:href="#m25b1ce6085" x="62.945727" y="307.584" style="stroke: #000000; stroke-width: 0.8"/>
      </g>
     </g>
     <g id="text_1">
      <!-- −1.00 -->
      <g transform="translate(47.623071 322.182437) scale(0.1 -0.1)">
       <defs>
        <path id="DejaVuSans-2212" d="M 678 2272 
L 4684 2272 
L 4684 1741 
L 678 1741 
L 678 2272 
z
" transform="scale(0.015625)"/>
        <path id="DejaVuSans-31" d="M 794 531 
L 1825 531 
L 1825 4091 
L 703 3866 
L 703 4441 
L 1819 4666 
L 2450 4666 
L 2450 531 
L 3481 531 
L 3481 0 
L 794 0 
L 794 531 
z
" transform="scale(0.015625)"/>
        <path id="DejaVuSans-2e" d="M 684 794 
L 1344 794 
L 1344 0 
L 684 0 
L 684 794 
z
" transform="scale(0.015625)"/>
        <path id="DejaVuSans-30" d="M 2034 4250 
Q 1547 4250 1301 3770 
Q 1056 3291 1056 2328 
Q 1056 1369 1301 889 
Q 1547 409 2034 409 
Q 2525 409 2770 889 
Q 3016 1369 3016 2328 
Q 3016 3291 2770 3770 
Q 2525 4250 2034 4250 
z
M 2034 4750 
Q 2819 4750 3233 4129 
Q 3647 3509 3647 2328 
Q 3647 1150 3233 529 
Q 2819 -91 2034 -91 
Q 1250 -91 836 529 
Q 422 1150 422 2328 
Q 422 3509 836 4129 
Q 1250 4750 2034 4750 
z
" transform="scale(0.015625)"/>
       </defs>
       <use xlink:href="#DejaVuSans-2212"/>
       <use xlink:href="#DejaVuSans-31" transform="translate(83.789062 0)"/>
       <use xlink:href="#DejaVuSans-2e" transform="translate(147.412109 0)"/>
       <use xlink:href="#DejaVuSans-30" transform="translate(179.199219 0)"/>
       <use xlink:href="#DejaVuSans-30" transform="translate(242.822266 0)"/>
      </g>
     </g>
    </g>
    <g id="xtick_2">
     <g id="line2d_3">
      <path d="M 104.88842 307.584 
L 104.88842 41.472 
" clip-path="url(#pbf4d92362f)" style="fill: none; stroke: #b0b0b0; stroke-opacity: 0.5; stroke-width: 0.8; stroke-linecap: square"/>
     </g>
     <g id="line2d_4">
      <g>
       <use xlink:href="#m25b1ce6085" x="104.88842" y="307.584" style="stroke: #000000; stroke-width: 0.8"/>
      </g>
     </g>
     <g id="text_2">
      <!-- −0.75 -->
      <g transform="translate(89.565764 322.182437) scale(0.1 -0.1)">
       <defs>
        <path id="DejaVuSans-37" d="M 525 4666 
L 3525 4666 
L 3525 4397 
L 1831 0 
L 1172 0 
L 2766 4134 
L 525 4134 
L 525 4666 
z
" transform="scale(0.015625)"/>
        <path id="DejaVuSans-35" d="M 691 4666 
L 3169 4666 
L 3169 4134 
L 1269 4134 
L 1269 2991 
Q 1406 3038 1543 3061 
Q 1681 3084 1819 3084 
Q 2600 3084 3056 2656 
Q 3513 2228 3513 1497 
Q 3513 744 3044 326 
Q 2575 -91 1722 -91 
Q 1428 -91 1123 -41 
Q 819 9 494 109 
L 494 744 
Q 775 591 1075 516 
Q 1375 441 1709 441 
Q 2250 441 2565 725 
Q 2881 1009 2881 1497 
Q 2881 1984 2565 2268 
Q 2250 2553 1709 2553 
Q 1456 2553 1204 2497 
Q 953 2441 691 2322 
L 691 4666 
z
" transform="scale(0.015625)"/>
       </defs>
       <use xlink:href="#DejaVuSans-2212"/>
       <use xlink:href="#DejaVuSans-30" transform="translate(83.789062 0)"/>
       <use xlink:href="#DejaVuSans-2e" transform="translate(147.412109 0)"/>
       <use xlink:href="#DejaVuSans-37" transform="translate(179.199219 0)"/>
       <use xlink:href="#DejaVuSans-35" transform="translate(242.822266 0)"/>
      </g>
     </g>
    </g>
    <g id="xtick_3">
     <g id="line2d_5">
      <path d="M 146.831114 307.584 
L 146.831114 41.472 
" clip-path="url(#pbf4d92362f)" style="fill: none; stroke: #b0b0b0; stroke-opacity: 0.5; stroke-width: 0.8; stroke-linecap: square"/>
     </g>
     <g id="line2d_6">
      <g>
       <use xlink:href="#m25b1ce6085" x="146.831114" y="307.584" style="stroke: #000000; stroke-width: 0.8"/>
      </g>
     </g>
     <g id="text_3">
      <!-- −0.50 -->
      <g transform="translate(131.508457 322.182437) scale(0.1 -0.1)">
       <use xlink:href="#DejaVuSans-2212"/>
       <use xlink:href="#DejaVuSans-30" transform="translate(83.789062 0)"/>
       <use xlink:href="#DejaVuSans-2e" transform="translate(147.412109 0)"/>
       <use xlink:href="#DejaVuSans-35" transform="translate(179.199219 0)"/>
       <use xlink:href="#DejaVuSans-30" transform="translate(242.822266 0)"/>
      </g>
     </g>
    </g>
    <g id="xtick_4">
     <g id="line2d_7">
      <path d="M 188.773807 307.584 
L 188.773807 41.472 
" clip-path="url(#pbf4d92362f)" style="fill: none; stroke: #b0b0b0; stroke-opacity: 0.5; stroke-width: 0.8; stroke-linecap: square"/>
     </g>
     <g id="line2d_8">
      <g>
       <use xlink:href="#m25b1ce6085" x="188.773807" y="307.584" style="stroke: #000000; stroke-width: 0.8"/>
      </g>
     </g>
     <g id="text_4">
      <!-- −0.25 -->
      <g transform="translate(173.451151 322.182437) scale(0.1 -0.1)">
       <defs>
        <path id="DejaVuSans-32" d="M 1228 531 
L 3431 531 
L 3431 0 
L 469 0 
L 469 531 
Q 828 903 1448 1529 
Q 2069 2156 2228 2338 
Q 2531 2678 2651 2914 
Q 2772 3150 2772 3378 
Q 2772 3750 2511 3984 
Q 2250 4219 1831 4219 
Q 1534 4219 1204 4116 
Q 875 4013 500 3803 
L 500 4441 
Q 881 4594 1212 4672 
Q 1544 4750 1819 4750 
Q 2544 4750 2975 4387 
Q 3406 4025 3406 3419 
Q 3406 3131 3298 2873 
Q 3191 2616 2906 2266 
Q 2828 2175 2409 1742 
Q 1991 1309 1228 531 
z
" transform="scale(0.015625)"/>
       </defs>
       <use xlink:href="#DejaVuSans-2212"/>
       <use xlink:href="#DejaVuSans-30" transform="translate(83.789062 0)"/>
       <use xlink:href="#DejaVuSans-2e" transform="translate(147.412109 0)"/>
       <use xlink:href="#DejaVuSans-32" transform="translate(179.199219 0)"/>
       <use xlink:href="#DejaVuSans-35" transform="translate(242.822266 0)"/>
      </g>
     </g>
    </g>
    <g id="xtick_5">
     <g id="line2d_9">
      <path d="M 230.7165 307.584 
L 230.7165 41.472 
" clip-path="url(#pbf4d92362f)" style="fill: none; stroke: #b0b0b0; stroke-opacity: 0.5; stroke-width: 0.8; stroke-linecap: square"/>
     </g>
     <g id="line2d_10">
      <g>
       <use xlink:href="#m25b1ce6085" x="230.7165" y="307.584" style="stroke: #000000; stroke-width: 0.8"/>
      </g>
     </g>
     <g id="text_5">
      <!-- 0.00 -->
      <g transform="translate(219.583688 322.182437) scale(0.1 -0.1)">
       <use xlink:href="#DejaVuSans-30"/>
       <use xlink:href="#DejaVuSans-2e" transform="translate(63.623047 0)"/>
       <use xlink:href="#DejaVuSans-30" transform="translate(95.410156 0)"/>
       <use xlink:href="#DejaVuSans-30" transform="translate(159.033203 0)"/>
      </g>
     </g>
    </g>
    <g id="xtick_6">
     <g id="line2d_11">
      <path d="M 272.659193 307.584 
L 272.659193 41.472 
" clip-path="url(#pbf4d92362f)" style="fill: none; stroke: #b0b0b0; stroke-opacity: 0.5; stroke-width: 0.8; stroke-linecap: square"/>
     </g>
     <g id="line2d_12">
      <g>
       <use xlink:href="#m25b1ce6085" x="272.659193" y="307.584" style="stroke: #000000; stroke-width: 0.8"/>
      </g>
     </g>
     <g id="text_6">
      <!-- 0.25 -->
      <g transform="translate(261.526381 322.182437) scale(0.1 -0.1)">
       <use xlink:href="#DejaVuSans-30"/>
       <use xlink:href="#DejaVuSans-2e" transform="translate(63.623047 0)"/>
       <use xlink:href="#DejaVuSans-32" transform="translate(95.410156 0)"/>
       <use xlink:href="#DejaVuSans-35" transform="translate(159.033203 0)"/>
      </g>
     </g>
    </g>
    <g id="xtick_7">
     <g id="line2d_13">
      <path d="M 314.601886 307.584 
L 314.601886 41.472 
" clip-path="url(#pbf4d92362f)" style="fill: none; stroke: #b0b0b0; stroke-opacity: 0.5; stroke-width: 0.8; stroke-linecap: square"/>
     </g>
     <g id="line2d_14">
      <g>
       <use xlink:href="#m25b1ce6085" x="314.601886" y="307.584" style="stroke: #000000; stroke-width: 0.8"/>
      </g>
     </g>
     <g id="text_7">
      <!-- 0.50 -->
      <g transform="translate(303.469074 322.182437) scale(0.1 -0.1)">
       <use xlink:href="#DejaVuSans-30"/>
       <use xlink:href="#DejaVuSans-2e" transform="translate(63.623047 0)"/>
       <use xlink:href="#DejaVuSans-35" transform="translate(95.410156 0)"/>
       <use xlink:href="#DejaVuSans-30" transform="translate(159.033203 0)"/>
      </g>
     </g>
    </g>
    <g id="xtick_8">
     <g id="line2d_15">
      <path d="M 356.54458 307.584 
L 356.54458 41.472 
" clip-path="url(#pbf4d92362f)" style="fill: none; stroke: #b0b0b0; stroke-opacity: 0.5; stroke-width: 0.8; stroke-linecap: square"/>
     </g>
     <g id="line2d_16">
      <g>
       <use xlink:href="#m25b1ce6085" x="356.54458" y="307.584" style="stroke: #000000; stroke-width: 0.8"/>
      </g>
     </g>
     <g id="text_8">
      <!-- 0.75 -->
      <g transform="translate(345.411767 322.182437) scale(0.1 -0.1)">
       <use xlink:href="#DejaVuSans-30"/>
       <use xlink:href="#DejaVuSans-2e" transform="translate(63.623047 0)"/>
       <use xlink:href="#DejaVuSans-37" transform="translate(95.410156 0)"/>
       <use xlink:href="#DejaVuSans-35" transform="translate(159.033203 0)"/>
      </g>
     </g>
    </g>
    <g id="xtick_9">
     <g id="line2d_17">
      <path d="M 398.487273 307.584 
L 398.487273 41.472 
" clip-path="url(#pbf4d92362f)" style="fill: none; stroke: #b0b0b0; stroke-opacity: 0.5; stroke-width: 0.8; stroke-linecap: square"/>
     </g>
     <g id="line2d_18">
      <g>
       <use xlink:href="#m25b1ce6085" x="398.487273" y="307.584" style="stroke: #000000; stroke-width: 0.8"/>
      </g>
     </g>
     <g id="text_9">
      <!-- 1.00 -->
      <g transform="translate(387.35446 322.182437) scale(0.1 -0.1)">
       <use xlink:href="#DejaVuSans-31"/>
       <use xlink:href="#DejaVuSans-2e" transform="translate(63.623047 0)"/>
       <use xlink:href="#DejaVuSans-30" transform="translate(95.410156 0)"/>
       <use xlink:href="#DejaVuSans-30" transform="translate(159.033203 0)"/>
      </g>
     </g>
    </g>
    <g id="text_10">
     <!-- Index -->
     <g transform="translate(222.393594 335.860562) scale(0.1 -0.1)">
      <defs>
       <path id="DejaVuSans-49" d="M 628 4666 
L 1259 4666 
L 1259 0 
L 628 0 
L 628 4666 
z
" transform="scale(0.015625)"/>
       <path id="DejaVuSans-6e" d="M 3513 2113 
L 3513 0 
L 2938 0 
L 2938 2094 
Q 2938 2591 2744 2837 
Q 2550 3084 2163 3084 
Q 1697 3084 1428 2787 
Q 1159 2491 1159 1978 
L 1159 0 
L 581 0 
L 581 3500 
L 1159 3500 
L 1159 2956 
Q 1366 3272 1645 3428 
Q 1925 3584 2291 3584 
Q 2894 3584 3203 3211 
Q 3513 2838 3513 2113 
z
" transform="scale(0.015625)"/>
       <path id="DejaVuSans-64" d="M 2906 2969 
L 2906 4863 
L 3481 4863 
L 3481 0 
L 2906 0 
L 2906 525 
Q 2725 213 2448 61 
Q 2172 -91 1784 -91 
Q 1150 -91 751 415 
Q 353 922 353 1747 
Q 353 2572 751 3078 
Q 1150 3584 1784 3584 
Q 2172 3584 2448 3432 
Q 2725 3281 2906 2969 
z
M 947 1747 
Q 947 1113 1208 752 
Q 1469 391 1925 391 
Q 2381 391 2643 752 
Q 2906 1113 2906 1747 
Q 2906 2381 2643 2742 
Q 2381 3103 1925 3103 
Q 1469 3103 1208 2742 
Q 947 2381 947 1747 
z
" transform="scale(0.015625)"/>
       <path id="DejaVuSans-65" d="M 3597 1894 
L 3597 1613 
L 953 1613 
Q 991 1019 1311 708 
Q 1631 397 2203 397 
Q 2534 397 2845 478 
Q 3156 559 3463 722 
L 3463 178 
Q 3153 47 2828 -22 
Q 2503 -91 2169 -91 
Q 1331 -91 842 396 
Q 353 884 353 1716 
Q 353 2575 817 3079 
Q 1281 3584 2069 3584 
Q 2775 3584 3186 3129 
Q 3597 2675 3597 1894 
z
M 3022 2063 
Q 3016 2534 2758 2815 
Q 2500 3097 2075 3097 
Q 1594 3097 1305 2825 
Q 1016 2553 972 2059 
L 3022 2063 
z
" transform="scale(0.015625)"/>
       <path id="DejaVuSans-78" d="M 3513 3500 
L 2247 1797 
L 3578 0 
L 2900 0 
L 1881 1375 
L 863 0 
L 184 0 
L 1544 1831 
L 300 3500 
L 978 3500 
L 1906 2253 
L 2834 3500 
L 3513 3500 
z
" transform="scale(0.015625)"/>
      </defs>
      <use xlink:href="#DejaVuSans-49"/>
      <use xlink:href="#DejaVuSans-6e" transform="translate(29.492188 0)"/>
      <use xlink:href="#DejaVuSans-64" transform="translate(92.871094 0)"/>
      <use xlink:href="#DejaVuSans-65" transform="translate(156.347656 0)"/>
      <use xlink:href="#DejaVuSans-78" transform="translate(216.121094 0)"/>
     </g>
    </g>
   </g>
   <g id="matplotlib.axis_2">
    <g id="ytick_1">
     <g id="line2d_19">
      <path d="M 57.6 302.513077 
L 414.72 302.513077 
" clip-path="url(#pbf4d92362f)" style="fill: none; stroke: #b0b0b0; stroke-opacity: 0.5; stroke-width: 0.8; stroke-linecap: square"/>
     </g>
     <g id="line2d_20">
      <defs>
       <path id="m928b1c8392" d="M 0 0 
L -3.5 0 
" style="stroke: #000000; stroke-width: 0.8"/>
      </defs>
      <g>
       <use xlink:href="#m928b1c8392" x="57.6" y="302.513077" style="stroke: #000000; stroke-width: 0.8"/>
      </g>
     </g>
     <g id="text_11">
      <!-- −1.00 -->
      <g transform="translate(19.954687 306.312296) scale(0.1 -0.1)">
       <use xlink:href="#DejaVuSans-2212"/>
       <use xlink:href="#DejaVuSans-31" transform="translate(83.789062 0)"/>
       <use xlink:href="#DejaVuSans-2e" transform="translate(147.412109 0)"/>
       <use xlink:href="#DejaVuSans-30" transform="translate(179.199219 0)"/>
       <use xlink:href="#DejaVuSans-30" transform="translate(242.822266 0)"/>
      </g>
     </g>
    </g>
    <g id="ytick_2">
     <g id="line2d_21">
      <path d="M 57.6 271.394927 
L 414.72 271.394927 
" clip-path="url(#pbf4d92362f)" style="fill: none; stroke: #b0b0b0; stroke-opacity: 0.5; stroke-width: 0.8; stroke-linecap: square"/>
     </g>
     <g id="line2d_22">
      <g>
       <use xlink:href="#m928b1c8392" x="57.6" y="271.394927" style="stroke: #000000; stroke-width: 0.8"/>
      </g>
     </g>
     <g id="text_12">
      <!-- −0.75 -->
      <g transform="translate(19.954687 275.194146) scale(0.1 -0.1)">
       <use xlink:href="#DejaVuSans-2212"/>
       <use xlink:href="#DejaVuSans-30" transform="translate(83.789062 0)"/>
       <use xlink:href="#DejaVuSans-2e" transform="translate(147.412109 0)"/>
       <use xlink:href="#DejaVuSans-37" transform="translate(179.199219 0)"/>
       <use xlink:href="#DejaVuSans-35" transform="translate(242.822266 0)"/>
      </g>
     </g>
    </g>
    <g id="ytick_3">
     <g id="line2d_23">
      <path d="M 57.6 240.276776 
L 414.72 240.276776 
" clip-path="url(#pbf4d92362f)" style="fill: none; stroke: #b0b0b0; stroke-opacity: 0.5; stroke-width: 0.8; stroke-linecap: square"/>
     </g>
     <g id="line2d_24">
      <g>
       <use xlink:href="#m928b1c8392" x="57.6" y="240.276776" style="stroke: #000000; stroke-width: 0.8"/>
      </g>
     </g>
     <g id="text_13">
      <!-- −0.50 -->
      <g transform="translate(19.954687 244.075995) scale(0.1 -0.1)">
       <use xlink:href="#DejaVuSans-2212"/>
       <use xlink:href="#DejaVuSans-30" transform="translate(83.789062 0)"/>
       <use xlink:href="#DejaVuSans-2e" transform="translate(147.412109 0)"/>
       <use xlink:href="#DejaVuSans-35" transform="translate(179.199219 0)"/>
       <use xlink:href="#DejaVuSans-30" transform="translate(242.822266 0)"/>
      </g>
     </g>
    </g>
    <g id="ytick_4">
     <g id="line2d_25">
      <path d="M 57.6 209.158626 
L 414.72 209.158626 
" clip-path="url(#pbf4d92362f)" style="fill: none; stroke: #b0b0b0; stroke-opacity: 0.5; stroke-width: 0.8; stroke-linecap: square"/>
     </g>
     <g id="line2d_26">
      <g>
       <use xlink:href="#m928b1c8392" x="57.6" y="209.158626" style="stroke: #000000; stroke-width: 0.8"/>
      </g>
     </g>
     <g id="text_14">
      <!-- −0.25 -->
      <g transform="translate(19.954687 212.957845) scale(0.1 -0.1)">
       <use xlink:href="#DejaVuSans-2212"/>
       <use xlink:href="#DejaVuSans-30" transform="translate(83.789062 0)"/>
       <use xlink:href="#DejaVuSans-2e" transform="translate(147.412109 0)"/>
       <use xlink:href="#DejaVuSans-32" transform="translate(179.199219 0)"/>
       <use xlink:href="#DejaVuSans-35" transform="translate(242.822266 0)"/>
      </g>
     </g>
    </g>
    <g id="ytick_5">
     <g id="line2d_27">
      <path d="M 57.6 178.040476 
L 414.72 178.040476 
" clip-path="url(#pbf4d92362f)" style="fill: none; stroke: #b0b0b0; stroke-opacity: 0.5; stroke-width: 0.8; stroke-linecap: square"/>
     </g>
     <g id="line2d_28">
      <g>
       <use xlink:href="#m928b1c8392" x="57.6" y="178.040476" style="stroke: #000000; stroke-width: 0.8"/>
      </g>
     </g>
     <g id="text_15">
      <!-- 0.00 -->
      <g transform="translate(28.334375 181.839694) scale(0.1 -0.1)">
       <use xlink:href="#DejaVuSans-30"/>
       <use xlink:href="#DejaVuSans-2e" transform="translate(63.623047 0)"/>
       <use xlink:href="#DejaVuSans-30" transform="translate(95.410156 0)"/>
       <use xlink:href="#DejaVuSans-30" transform="translate(159.033203 0)"/>
      </g>
     </g>
    </g>
    <g id="ytick_6">
     <g id="line2d_29">
      <path d="M 57.6 146.922325 
L 414.72 146.922325 
" clip-path="url(#pbf4d92362f)" style="fill: none; stroke: #b0b0b0; stroke-opacity: 0.5; stroke-width: 0.8; stroke-linecap: square"/>
     </g>
     <g id="line2d_30">
      <g>
       <use xlink:href="#m928b1c8392" x="57.6" y="146.922325" style="stroke: #000000; stroke-width: 0.8"/>
      </g>
     </g>
     <g id="text_16">
      <!-- 0.25 -->
      <g transform="translate(28.334375 150.721544) scale(0.1 -0.1)">
       <use xlink:href="#DejaVuSans-30"/>
       <use xlink:href="#DejaVuSans-2e" transform="translate(63.623047 0)"/>
       <use xlink:href="#DejaVuSans-32" transform="translate(95.410156 0)"/>
       <use xlink:href="#DejaVuSans-35" transform="translate(159.033203 0)"/>
      </g>
     </g>
    </g>
    <g id="ytick_7">
     <g id="line2d_31">
      <path d="M 57.6 115.804175 
L 414.72 115.804175 
" clip-path="url(#pbf4d92362f)" style="fill: none; stroke: #b0b0b0; stroke-opacity: 0.5; stroke-width: 0.8; stroke-linecap: square"/>
     </g>
     <g id="line2d_32">
      <g>
       <use xlink:href="#m928b1c8392" x="57.6" y="115.804175" style="stroke: #000000; stroke-width: 0.8"/>
      </g>
     </g>
     <g id="text_17">
      <!-- 0.50 -->
      <g transform="translate(28.334375 119.603393) scale(0.1 -0.1)">
       <use xlink:href="#DejaVuSans-30"/>
       <use xlink:href="#DejaVuSans-2e" transform="translate(63.623047 0)"/>
       <use xlink:href="#DejaVuSans-35" transform="translate(95.410156 0)"/>
       <use xlink:href="#DejaVuSans-30" transform="translate(159.033203 0)"/>
      </g>
     </g>
    </g>
    <g id="ytick_8">
     <g id="line2d_33">
      <path d="M 57.6 84.686024 
L 414.72 84.686024 
" clip-path="url(#pbf4d92362f)" style="fill: none; stroke: #b0b0b0; stroke-opacity: 0.5; stroke-width: 0.8; stroke-linecap: square"/>
     </g>
     <g id="line2d_34">
      <g>
       <use xlink:href="#m928b1c8392" x="57.6" y="84.686024" style="stroke: #000000; stroke-width: 0.8"/>
      </g>
     </g>
     <g id="text_18">
      <!-- 0.75 -->
      <g transform="translate(28.334375 88.485243) scale(0.1 -0.1)">
       <use xlink:href="#DejaVuSans-30"/>
       <use xlink:href="#DejaVuSans-2e" transform="translate(63.623047 0)"/>
       <use xlink:href="#DejaVuSans-37" transform="translate(95.410156 0)"/>
       <use xlink:href="#DejaVuSans-35" transform="translate(159.033203 0)"/>
      </g>
     </g>
    </g>
    <g id="ytick_9">
     <g id="line2d_35">
      <path d="M 57.6 53.567874 
L 414.72 53.567874 
" clip-path="url(#pbf4d92362f)" style="fill: none; stroke: #b0b0b0; stroke-opacity: 0.5; stroke-width: 0.8; stroke-linecap: square"/>
     </g>
     <g id="line2d_36">
      <g>
       <use xlink:href="#m928b1c8392" x="57.6" y="53.567874" style="stroke: #000000; stroke-width: 0.8"/>
      </g>
     </g>
     <g id="text_19">
      <!-- 1.00 -->
      <g transform="translate(28.334375 57.367093) scale(0.1 -0.1)">
       <use xlink:href="#DejaVuSans-31"/>
       <use xlink:href="#DejaVuSans-2e" transform="translate(63.623047 0)"/>
       <use xlink:href="#DejaVuSans-30" transform="translate(95.410156 0)"/>
       <use xlink:href="#DejaVuSans-30" transform="translate(159.033203 0)"/>
      </g>
     </g>
    </g>
    <g id="text_20">
     <!-- Value -->
     <g transform="translate(13.875 188.25925) rotate(-90) scale(0.1 -0.1)">
      <defs>
       <path id="DejaVuSans-56" d="M 1831 0 
L 50 4666 
L 709 4666 
L 2188 738 
L 3669 4666 
L 4325 4666 
L 2547 0 
L 1831 0 
z
" transform="scale(0.015625)"/>
       <path id="DejaVuSans-61" d="M 2194 1759 
Q 1497 1759 1228 1600 
Q 959 1441 959 1056 
Q 959 750 1161 570 
Q 1363 391 1709 391 
Q 2188 391 2477 730 
Q 2766 1069 2766 1631 
L 2766 1759 
L 2194 1759 
z
M 3341 1997 
L 3341 0 
L 2766 0 
L 2766 531 
Q 2569 213 2275 61 
Q 1981 -91 1556 -91 
Q 1019 -91 701 211 
Q 384 513 384 1019 
Q 384 1609 779 1909 
Q 1175 2209 1959 2209 
L 2766 2209 
L 2766 2266 
Q 2766 2663 2505 2880 
Q 2244 3097 1772 3097 
Q 1472 3097 1187 3025 
Q 903 2953 641 2809 
L 641 3341 
Q 956 3463 1253 3523 
Q 1550 3584 1831 3584 
Q 2591 3584 2966 3190 
Q 3341 2797 3341 1997 
z
" transform="scale(0.015625)"/>
       <path id="DejaVuSans-6c" d="M 603 4863 
L 1178 4863 
L 1178 0 
L 603 0 
L 603 4863 
z
" transform="scale(0.015625)"/>
       <path id="DejaVuSans-75" d="M 544 1381 
L 544 3500 
L 1119 3500 
L 1119 1403 
Q 1119 906 1312 657 
Q 1506 409 1894 409 
Q 2359 409 2629 706 
Q 2900 1003 2900 1516 
L 2900 3500 
L 3475 3500 
L 3475 0 
L 2900 0 
L 2900 538 
Q 2691 219 2414 64 
Q 2138 -91 1772 -91 
Q 1169 -91 856 284 
Q 544 659 544 1381 
z
M 1991 3584 
L 1991 3584 
z
" transform="scale(0.015625)"/>
      </defs>
      <use xlink:href="#DejaVuSans-56"/>
      <use xlink:href="#DejaVuSans-61" transform="translate(60.658203 0)"/>
      <use xlink:href="#DejaVuSans-6c" transform="translate(121.9375 0)"/>
      <use xlink:href="#DejaVuSans-75" transform="translate(149.720703 0)"/>
      <use xlink:href="#DejaVuSans-65" transform="translate(213.099609 0)"/>
     </g>
    </g>
   </g>
   <g id="line2d_37">
    <path d="M 107.463289 295.488 
L 127.128617 295.30517 
L 147.738671 294.843491 
L 160.644584 294.081026 
L 161.396938 293.037056 
L 154.708974 291.774221 
L 137.946747 289.004646 
L 132.960768 287.730186 
L 139.785472 286.656606 
L 135.956804 285.829134 
L 120.912988 285.24015 
L 87.015258 284.509171 
L 83.644776 284.163268 
L 108.884357 283.694697 
L 138.047766 283.036137 
L 153.26841 282.166168 
L 155.063811 281.11193 
L 149.71634 279.940499 
L 142.230482 278.741224 
L 135.989493 277.603609 
L 136.757407 275.753422 
L 129.568046 275.066677 
L 106.341168 273.964199 
L 108.760408 273.408854 
L 140.00151 272.00027 
L 148.756828 271.108118 
L 150.546748 270.115592 
L 148.159868 269.06973 
L 144.163216 268.025633 
L 140.866673 267.032848 
L 139.247736 266.124374 
L 137.108834 265.310686 
L 132.75282 264.579678 
L 127.96399 263.901753 
L 126.69693 263.238467 
L 131.051514 262.552166 
L 145.976081 261.010898 
L 150.570228 260.143823 
L 152.321048 259.228694 
L 152.032746 258.289949 
L 150.730411 257.354528 
L 144.993499 253.983551 
L 144.321584 253.234722 
L 145.130028 252.49576 
L 147.798516 251.747799 
L 155.964358 250.169524 
L 159.374135 249.32889 
L 161.545702 248.459893 
L 162.530184 247.574671 
L 162.659213 246.688328 
L 162.35878 245.815309 
L 161.307174 244.146328 
L 160.966112 243.353021 
L 161.125925 242.578344 
L 162.194452 241.810314 
L 164.327559 241.036044 
L 170.083326 239.431354 
L 172.415602 238.595283 
L 173.88877 237.74256 
L 174.608489 236.882733 
L 174.835452 236.026563 
L 174.870562 234.35769 
L 175.05091 233.550401 
L 175.581636 232.756894 
L 176.662842 231.969623 
L 178.344423 231.180203 
L 182.524849 229.570382 
L 184.269719 228.746349 
L 185.486179 227.913175 
L 186.273303 227.076548 
L 187.20196 225.415624 
L 187.659406 224.598223 
L 188.267761 223.789759 
L 189.115732 222.987479 
L 190.23041 222.187483 
L 195.497401 218.953107 
L 197.394911 217.31486 
L 200.662824 214.061104 
L 202.564288 212.450464 
L 206.864622 209.233786 
L 210.121205 206.809294 
L 212.0251 205.190318 
L 216.231795 201.191592 
L 218.487314 199.603138 
L 220.858822 198.001806 
L 222.749853 196.38971 
L 226.437678 192.419167 
L 228.723406 190.852463 
L 231.252273 189.269735 
L 232.339229 188.470821 
L 233.235414 187.669361 
L 234.508409 186.071354 
L 235.770043 184.494742 
L 236.565017 183.714462 
L 238.60938 182.158027 
L 221.215314 182.060612 
L 302.334928 181.278377 
L 262.574477 180.491526 
L 244.725604 179.700382 
L 243.159417 178.906546 
L 244.56999 177.319855 
L 246.196927 175.745031 
L 248.124369 174.181017 
L 253.289286 170.259955 
L 260.762962 163.961494 
L 264.102169 160.827766 
L 267.159634 158.482051 
L 269.125847 156.904013 
L 270.717264 155.320914 
L 272.921136 152.96988 
L 274.758931 151.42018 
L 278.830372 148.295678 
L 280.31788 146.718173 
L 281.709003 145.152013 
L 283.377905 143.603563 
L 288.276254 139.723072 
L 289.771632 138.156887 
L 291.698041 135.826975 
L 296.229803 131.177133 
L 299.323328 127.305527 
L 301.46881 124.986728 
L 302.641825 123.4329 
L 304.302232 121.113404 
L 305.758924 119.579143 
L 308.07538 117.270268 
L 309.315365 115.721058 
L 311.08205 113.41133 
L 312.669402 111.887934 
L 315.309801 109.596479 
L 316.724259 108.055033 
L 318.689973 105.754178 
L 320.316569 104.240398 
L 322.997677 101.968849 
L 324.442045 100.438828 
L 326.376339 98.149317 
L 327.987036 96.643001 
L 331.572346 93.626658 
L 335.146296 89.841388 
L 339.696299 86.100418 
L 343.19903 82.330579 
L 347.807452 78.618224 
L 348.831313 77.101262 
L 349.326319 76.344383 
L 349.959364 75.594107 
L 351.64374 74.11766 
L 354.555236 71.913216 
L 355.24607 71.164194 
L 355.560918 70.40716 
L 355.910765 68.887956 
L 356.313931 68.137398 
L 356.938236 67.397576 
L 358.541903 65.941272 
L 360.244149 64.47375 
L 360.798944 63.722169 
L 360.902584 62.959503 
L 360.609676 62.192534 
L 360.470847 61.430847 
L 360.755525 60.682871 
L 362.105644 59.234595 
L 364.614023 57.046058 
L 364.350105 56.280224 
L 363.276574 55.516987 
L 364.421034 54.799341 
L 367.629008 54.188812 
L 359.943511 53.75629 
L 342.131049 53.568 
L 328.213804 53.668975 
L 312.162337 54.069579 
L 305.203329 54.737109 
L 320.630687 55.597092 
L 339.790828 56.543649 
L 351.862698 57.458385 
L 348.242318 58.232402 
L 341.492214 58.788741 
L 356.977646 59.097526 
L 382.245567 59.181689 
L 397.043185 59.110903 
L 395.699656 58.985208 
L 383.552796 58.91207 
L 360.538257 58.982396 
L 338.610198 59.250813 
L 325.127759 59.725149 
L 328.520171 60.366942 
L 343.320229 61.102765 
L 355.885535 61.843003 
L 359.240697 62.503574 
L 354.522006 63.024865 
L 358.765241 63.384011 
L 392.061366 63.803482 
L 353.684213 64.506276 
L 347.407545 64.975017 
L 350.248232 65.534154 
L 362.53149 66.725802 
L 364.435114 67.259023 
L 364.731632 67.706598 
L 368.078364 68.062035 
L 380.895978 68.571723 
L 382.467145 68.794608 
L 377.987522 69.044893 
L 363.498882 69.7185 
L 360.15427 70.149982 
L 360.07875 70.626663 
L 366.342179 72.493505 
L 368.193273 72.863987 
L 372.391939 73.497382 
L 372.439108 73.793925 
L 370.283966 74.10225 
L 362.995526 74.807062 
L 360.385328 75.211509 
L 359.231837 75.643043 
L 359.243777 76.088682 
L 360.655266 76.962479 
L 362.50144 77.74307 
L 363.511282 78.094077 
L 364.068317 78.428777 
L 363.614261 78.759166 
L 361.989505 79.097479 
L 357.227884 79.831277 
L 355.495358 80.230568 
L 354.629535 80.645187 
L 354.476117 81.065904 
L 354.716415 81.482727 
L 356.111563 83.00584 
L 355.749506 83.359051 
L 354.769844 83.714131 
L 350.515189 84.839608 
L 349.662606 85.235798 
L 349.21654 85.636216 
L 349.043312 86.035515 
L 348.961782 87.192286 
L 348.749064 87.563414 
L 348.289108 87.931477 
L 346.705961 88.671878 
L 344.985435 89.430753 
L 343.826325 90.204763 
L 343.15873 90.97835 
L 342.240768 92.115022 
L 341.274876 92.860446 
L 337.10804 95.506061 
L 334.959818 97.369684 
L 333.585629 98.103645 
L 331.302568 99.222385 
L 330.280457 99.975592 
L 328.890548 101.443766 
L 327.656358 102.1603 
L 324.536204 103.623496 
L 323.714251 104.36708 
L 322.887308 105.458726 
L 321.948246 106.168968 
L 318.034368 108.336842 
L 315.497579 110.506593 
L 310.243702 113.768747 
L 306.722052 116.303086 
L 303.547988 118.126809 
L 302.284368 119.227661 
L 300.967859 120.306876 
L 299.08912 121.383186 
L 297.885815 122.111572 
L 297.017222 122.843972 
L 295.495329 124.286539 
L 293.735409 125.356907 
L 292.028443 126.441497 
L 288.854884 128.964462 
L 286.253321 130.766024 
L 282.405818 133.65311 
L 279.463212 135.810712 
L 277.034147 137.613824 
L 275.152373 139.04303 
L 272.042023 141.187482 
L 269.740257 142.962394 
L 266.707657 145.084154 
L 264.440386 146.841776 
L 261.677379 148.938283 
L 259.263994 150.672512 
L 257.489484 152.060701 
L 255.691183 153.43501 
L 253.227279 155.155111 
L 251.093007 156.870707 
L 247.732369 159.27359 
L 245.964324 160.645206 
L 243.577799 162.363696 
L 241.05115 164.42902 
L 238.814538 166.152941 
L 236.689671 167.873195 
L 217.050848 182.231861 
L 215.161054 183.594277 
L 212.851383 185.288374 
L 209.973667 187.316578 
L 207.567151 188.994878 
L 205.186266 190.668741 
L 202.780956 192.330283 
L 200.435715 193.98849 
L 198.063345 195.633046 
L 195.782689 197.277891 
L 193.966894 198.585556 
L 191.590969 200.220275 
L 189.402167 201.852524 
L 186.59566 203.809673 
L 184.364358 205.437717 
L 182.027078 207.068434 
L 179.827011 208.700038 
L 177.074774 210.660877 
L 173.447884 213.598625 
L 171.579094 215.228848 
L 169.584801 216.857243 
L 167.715746 218.481164 
L 166.081454 219.778027 
L 163.672449 222.046219 
L 162.152352 223.338898 
L 160.121604 225.275933 
L 158.259534 226.885238 
L 156.92414 228.171517 
L 154.212593 230.412084 
L 152.736555 231.6862 
L 150.763401 233.274001 
L 148.966571 234.855232 
L 146.946898 236.42877 
L 145.018889 237.997604 
L 142.818807 239.556633 
L 140.966722 241.116906 
L 138.395603 242.977412 
L 136.936245 244.219703 
L 134.383857 246.075536 
L 132.940829 247.316803 
L 130.072282 249.484618 
L 128.982311 250.414972 
L 126.076475 252.581088 
L 124.983894 253.512843 
L 121.92752 255.677594 
L 120.847619 256.608971 
L 117.421377 259.078767 
L 116.266386 260.004929 
L 113.561129 261.848616 
L 112.521127 262.775394 
L 111.091389 263.689892 
L 109.701801 264.607655 
L 107.926395 266.144487 
L 105.124719 267.967378 
L 103.78503 269.191648 
L 101.067272 271.001653 
L 99.902342 272.219676 
L 98.422024 273.114032 
L 97.488032 273.71292 
L 96.889907 274.319584 
L 96.390171 274.925928 
L 95.603037 275.522338 
L 93.219237 277.003719 
L 92.038087 278.502082 
L 89.944104 279.969537 
L 89.422858 281.169109 
L 88.618235 281.751378 
L 87.122987 282.620294 
L 86.84665 282.916756 
L 86.716231 283.518856 
L 86.685131 283.819599 
L 86.534392 284.116624 
L 86.211575 284.408582 
L 83.761835 285.852667 
L 83.752795 286.153417 
L 84.058733 286.759606 
L 84.062623 287.057796 
L 83.839545 287.349457 
L 82.811113 287.916874 
L 81.704342 288.487443 
L 81.464014 288.782866 
L 81.534534 289.085641 
L 82.127869 289.698522 
L 82.218158 289.998374 
L 81.98905 290.28896 
L 80.71032 290.847161 
L 79.285662 291.411358 
L 79.034974 291.709407 
L 79.285542 292.018793 
L 80.487452 292.646274 
L 80.659381 292.946906 
L 80.291924 293.231103 
L 78.28876 293.765 
L 76.183668 294.328343 
L 76.340597 294.640548 
L 78.966535 295.245453 
L 81.275716 295.445058 
L 81.275716 295.445058 
" clip-path="url(#pbf4d92362f)" style="fill: none; stroke: #1f77b4; stroke-width: 1.5; stroke-linecap: square"/>
   </g>
   <g id="line2d_38">
    <path d="M 85.915917 295.488 
L 89.470928 295.30517 
L 92.045407 294.843491 
L 93.142578 294.081026 
L 92.569122 293.037056 
L 90.506139 291.774221 
L 81.787781 287.730186 
L 80.671681 286.656606 
L 81.369005 285.829134 
L 83.894544 285.24015 
L 87.858581 284.831689 
L 97.174034 284.163268 
L 100.917703 283.694697 
L 103.263944 283.036137 
L 104.038098 282.166168 
L 103.443382 281.11193 
L 99.189048 277.603609 
L 98.999859 276.596549 
L 100.000431 275.753422 
L 102.102924 275.066677 
L 108.087304 273.964199 
L 110.97072 273.408854 
L 113.220492 272.765955 
L 114.64195 272.00027 
L 115.264795 271.108118 
L 115.310624 270.115592 
L 115.034057 268.025633 
L 115.347684 267.032848 
L 116.205707 266.124374 
L 117.604285 265.310686 
L 119.40718 264.579678 
L 125.029014 262.552166 
L 126.364993 261.814318 
L 127.328275 261.010898 
L 127.992229 260.143823 
L 129.593836 257.354528 
L 130.437679 256.445943 
L 131.54778 255.579639 
L 132.903609 254.760639 
L 136.042463 253.234722 
L 139.058628 251.747799 
L 140.306398 250.975414 
L 141.336389 250.169524 
L 142.171962 249.32889 
L 145.128008 245.815309 
L 146.183959 244.966388 
L 148.846742 243.353021 
L 153.159771 241.036044 
L 154.346032 240.244989 
L 155.342283 239.431354 
L 156.924505 237.74256 
L 158.503217 236.026563 
L 159.484389 235.183151 
L 161.930349 233.550401 
L 167.232895 230.381703 
L 169.243168 228.746349 
L 172.799349 225.415624 
L 175.009926 223.789759 
L 182.165276 218.953107 
L 185.112182 216.496828 
L 188.034243 214.061104 
L 190.243295 212.450464 
L 196.146493 208.42707 
L 198.095735 206.809294 
L 200.78849 204.383514 
L 202.909915 202.780817 
L 209.977155 198.001806 
L 214.574822 193.991104 
L 216.851115 192.419167 
L 220.403081 190.06384 
L 222.483075 188.470821 
L 227.37942 184.494742 
L 234.977674 178.906546 
L 246.409293 170.259955 
L 251.88442 166.325463 
L 257.833853 161.608282 
L 263.374045 157.69451 
L 269.204639 152.96988 
L 274.679506 149.082719 
L 280.536403 144.376026 
L 284.844857 141.284491 
L 291.911079 135.826975 
L 295.082393 133.510232 
L 301.092283 128.847911 
L 305.358433 125.76171 
L 311.294894 121.113404 
L 315.578458 118.042442 
L 322.499131 112.648686 
L 325.709555 110.363367 
L 333.701548 104.240398 
L 336.806653 101.968849 
L 341.563033 98.149317 
L 346.85805 94.385629 
L 351.466342 90.590432 
L 356.899357 86.855724 
L 362.416381 82.330579 
L 366.877934 79.370095 
L 368.59374 77.860752 
L 370.222416 76.344383 
L 372.25045 74.852259 
L 376.875401 71.913216 
L 378.543108 70.40716 
L 380.035415 68.887956 
L 380.949208 68.137398 
L 383.302788 66.667235 
L 385.883017 65.212334 
L 386.960068 64.47375 
L 387.794331 63.722169 
L 389.557107 61.430847 
L 390.431939 60.682871 
L 391.663619 59.952085 
L 396.300891 57.793322 
L 397.112064 57.046058 
L 396.959305 56.280224 
L 395.665766 55.516987 
L 393.303526 54.799341 
L 390.217421 54.188812 
L 386.975898 53.75629 
L 384.25418 53.568 
L 382.676283 53.668975 
L 382.654754 54.069579 
L 384.27201 54.737109 
L 387.237316 55.597092 
L 397.285433 58.232402 
L 398.487273 58.788741 
L 397.861548 59.097526 
L 395.510847 59.181689 
L 381.207346 58.982396 
L 379.852377 59.250813 
L 380.011246 59.725149 
L 381.403664 60.366942 
L 385.590549 61.843003 
L 387.108907 62.503574 
L 387.617483 63.024865 
L 386.970738 63.384011 
L 385.310052 63.597549 
L 378.371339 63.933117 
L 376.863232 64.158073 
L 376.159207 64.506276 
L 376.199387 64.975017 
L 378.085791 66.725802 
L 378.28045 67.259023 
L 377.949813 67.706598 
L 377.111219 68.062035 
L 374.535291 68.571723 
L 372.17259 69.044893 
L 371.460776 69.348908 
L 371.105079 69.7185 
L 371.03107 70.149982 
L 371.184818 71.123656 
L 371.125789 71.614255 
L 370.838221 72.075674 
L 370.287706 72.493505 
L 368.54698 73.193716 
L 365.746423 74.10225 
L 365.122369 74.437291 
L 364.710492 74.807062 
L 364.354555 75.643043 
L 364.066927 76.533163 
L 363.73613 76.962479 
L 363.218134 77.366941 
L 361.685887 78.094077 
L 359.203668 79.097479 
L 358.224196 79.831277 
L 357.771669 80.645187 
L 357.290983 81.482727 
L 356.869417 81.887441 
L 355.581488 82.646954 
L 352.616512 84.077439 
L 351.739519 84.839608 
L 350.510729 86.429219 
L 349.460768 87.192286 
L 345.65186 89.430753 
L 344.520089 90.592591 
L 343.764225 91.360807 
L 342.750684 92.115022 
L 339.200443 94.362756 
L 336.269047 97.002681 
L 333.259882 98.846709 
L 332.135161 99.975592 
L 331.380638 100.718485 
L 330.375786 101.443766 
L 327.50308 103.252502 
L 322.822348 106.880449 
L 320.271609 108.703496 
L 316.455111 111.581642 
L 313.769363 113.402516 
L 310.032914 116.303086 
L 307.944201 117.758378 
L 304.799827 120.306876 
L 302.738959 121.746317 
L 298.572339 124.999081 
L 296.177799 126.804935 
L 292.842081 129.323156 
L 283.221996 136.531857 
L 279.456312 139.39906 
L 230.808094 176.098157 
L 228.077902 178.144413 
L 221.322446 183.253428 
L 216.856681 186.640494 
L 206.729921 194.318709 
L 199.683189 199.564825 
L 193.633634 204.136562 
L 181.519452 213.271318 
L 175.630906 217.833758 
L 168.749877 223.014685 
L 165.807907 225.275933 
L 163.257123 227.20796 
L 157.753893 231.369006 
L 154.417386 233.909503 
L 140.307128 244.527999 
L 137.841808 246.38688 
L 132.950008 250.106009 
L 126.777779 254.744933 
L 120.028515 260.004929 
L 117.953342 261.53883 
L 116.017058 263.081307 
L 113.926096 264.607655 
L 112.011782 266.144487 
L 109.899509 267.660278 
L 108.004725 269.191648 
L 105.873522 270.696689 
L 104.038917 272.219676 
L 101.524618 274.015562 
L 100.08805 275.22558 
L 97.526301 277.003719 
L 96.156723 278.207453 
L 93.617404 279.969537 
L 92.316664 281.169109 
L 89.717906 282.916756 
L 88.590365 284.116624 
L 87.118817 284.981118 
L 86.171065 285.557103 
L 85.56608 286.153417 
L 84.765667 287.057796 
L 83.794085 287.634894 
L 82.193958 288.487443 
L 81.658443 289.085641 
L 81.350015 289.698522 
L 81.070297 289.998374 
L 80.019716 290.570546 
L 78.141712 291.411358 
L 77.845094 291.709407 
L 77.768615 292.018793 
L 77.833764 292.646274 
L 77.636356 292.946906 
L 77.10471 293.231103 
L 73.832727 294.328343 
L 74.279984 294.640548 
L 75.836801 294.958421 
L 78.512299 295.245453 
L 82.042479 295.445058 
L 82.042479 295.445058 
" clip-path="url(#pbf4d92362f)" style="fill: none; stroke: #ff7f0e; stroke-opacity: 0.5; stroke-width: 1.5; stroke-linecap: square"/>
   </g>
   <g id="patch_3">
    <path d="M 57.6 307.584 
L 57.6 41.472 
" style="fill: none; stroke: #000000; stroke-width: 0.8; stroke-linejoin: miter; stroke-linecap: square"/>
   </g>
   <g id="patch_4">
    <path d="M 414.72 307.584 
L 414.72 41.472 
" style="fill: none; stroke: #000000; stroke-width: 0.8; stroke-linejoin: miter; stroke-linecap: square"/>
   </g>
   <g id="patch_5">
    <path d="M 57.6 307.584 
L 414.72 307.584 
" style="fill: none; stroke: #000000; stroke-width: 0.8; stroke-linejoin: miter; stroke-linecap: square"/>
   </g>
   <g id="patch_6">
    <path d="M 57.6 41.472 
L 414.72 41.472 
" style="fill: none; stroke: #000000; stroke-width: 0.8; stroke-linejoin: miter; stroke-linecap: square"/>
   </g>
   <g id="text_21">
    <!-- Compare - Epoch 200 -->
    <g transform="translate(171.234375 35.472) scale(0.12 -0.12)">
     <defs>
      <path id="DejaVuSans-43" d="M 4122 4306 
L 4122 3641 
Q 3803 3938 3442 4084 
Q 3081 4231 2675 4231 
Q 1875 4231 1450 3742 
Q 1025 3253 1025 2328 
Q 1025 1406 1450 917 
Q 1875 428 2675 428 
Q 3081 428 3442 575 
Q 3803 722 4122 1019 
L 4122 359 
Q 3791 134 3420 21 
Q 3050 -91 2638 -91 
Q 1578 -91 968 557 
Q 359 1206 359 2328 
Q 359 3453 968 4101 
Q 1578 4750 2638 4750 
Q 3056 4750 3426 4639 
Q 3797 4528 4122 4306 
z
" transform="scale(0.015625)"/>
      <path id="DejaVuSans-6f" d="M 1959 3097 
Q 1497 3097 1228 2736 
Q 959 2375 959 1747 
Q 959 1119 1226 758 
Q 1494 397 1959 397 
Q 2419 397 2687 759 
Q 2956 1122 2956 1747 
Q 2956 2369 2687 2733 
Q 2419 3097 1959 3097 
z
M 1959 3584 
Q 2709 3584 3137 3096 
Q 3566 2609 3566 1747 
Q 3566 888 3137 398 
Q 2709 -91 1959 -91 
Q 1206 -91 779 398 
Q 353 888 353 1747 
Q 353 2609 779 3096 
Q 1206 3584 1959 3584 
z
" transform="scale(0.015625)"/>
      <path id="DejaVuSans-6d" d="M 3328 2828 
Q 3544 3216 3844 3400 
Q 4144 3584 4550 3584 
Q 5097 3584 5394 3201 
Q 5691 2819 5691 2113 
L 5691 0 
L 5113 0 
L 5113 2094 
Q 5113 2597 4934 2840 
Q 4756 3084 4391 3084 
Q 3944 3084 3684 2787 
Q 3425 2491 3425 1978 
L 3425 0 
L 2847 0 
L 2847 2094 
Q 2847 2600 2669 2842 
Q 2491 3084 2119 3084 
Q 1678 3084 1418 2786 
Q 1159 2488 1159 1978 
L 1159 0 
L 581 0 
L 581 3500 
L 1159 3500 
L 1159 2956 
Q 1356 3278 1631 3431 
Q 1906 3584 2284 3584 
Q 2666 3584 2933 3390 
Q 3200 3197 3328 2828 
z
" transform="scale(0.015625)"/>
      <path id="DejaVuSans-70" d="M 1159 525 
L 1159 -1331 
L 581 -1331 
L 581 3500 
L 1159 3500 
L 1159 2969 
Q 1341 3281 1617 3432 
Q 1894 3584 2278 3584 
Q 2916 3584 3314 3078 
Q 3713 2572 3713 1747 
Q 3713 922 3314 415 
Q 2916 -91 2278 -91 
Q 1894 -91 1617 61 
Q 1341 213 1159 525 
z
M 3116 1747 
Q 3116 2381 2855 2742 
Q 2594 3103 2138 3103 
Q 1681 3103 1420 2742 
Q 1159 2381 1159 1747 
Q 1159 1113 1420 752 
Q 1681 391 2138 391 
Q 2594 391 2855 752 
Q 3116 1113 3116 1747 
z
" transform="scale(0.015625)"/>
      <path id="DejaVuSans-72" d="M 2631 2963 
Q 2534 3019 2420 3045 
Q 2306 3072 2169 3072 
Q 1681 3072 1420 2755 
Q 1159 2438 1159 1844 
L 1159 0 
L 581 0 
L 581 3500 
L 1159 3500 
L 1159 2956 
Q 1341 3275 1631 3429 
Q 1922 3584 2338 3584 
Q 2397 3584 2469 3576 
Q 2541 3569 2628 3553 
L 2631 2963 
z
" transform="scale(0.015625)"/>
      <path id="DejaVuSans-20" transform="scale(0.015625)"/>
      <path id="DejaVuSans-2d" d="M 313 2009 
L 1997 2009 
L 1997 1497 
L 313 1497 
L 313 2009 
z
" transform="scale(0.015625)"/>
      <path id="DejaVuSans-45" d="M 628 4666 
L 3578 4666 
L 3578 4134 
L 1259 4134 
L 1259 2753 
L 3481 2753 
L 3481 2222 
L 1259 2222 
L 1259 531 
L 3634 531 
L 3634 0 
L 628 0 
L 628 4666 
z
" transform="scale(0.015625)"/>
      <path id="DejaVuSans-63" d="M 3122 3366 
L 3122 2828 
Q 2878 2963 2633 3030 
Q 2388 3097 2138 3097 
Q 1578 3097 1268 2742 
Q 959 2388 959 1747 
Q 959 1106 1268 751 
Q 1578 397 2138 397 
Q 2388 397 2633 464 
Q 2878 531 3122 666 
L 3122 134 
Q 2881 22 2623 -34 
Q 2366 -91 2075 -91 
Q 1284 -91 818 406 
Q 353 903 353 1747 
Q 353 2603 823 3093 
Q 1294 3584 2113 3584 
Q 2378 3584 2631 3529 
Q 2884 3475 3122 3366 
z
" transform="scale(0.015625)"/>
      <path id="DejaVuSans-68" d="M 3513 2113 
L 3513 0 
L 2938 0 
L 2938 2094 
Q 2938 2591 2744 2837 
Q 2550 3084 2163 3084 
Q 1697 3084 1428 2787 
Q 1159 2491 1159 1978 
L 1159 0 
L 581 0 
L 581 4863 
L 1159 4863 
L 1159 2956 
Q 1366 3272 1645 3428 
Q 1925 3584 2291 3584 
Q 2894 3584 3203 3211 
Q 3513 2838 3513 2113 
z
" transform="scale(0.015625)"/>
     </defs>
     <use xlink:href="#DejaVuSans-43"/>
     <use xlink:href="#DejaVuSans-6f" transform="translate(69.824219 0)"/>
     <use xlink:href="#DejaVuSans-6d" transform="translate(131.005859 0)"/>
     <use xlink:href="#DejaVuSans-70" transform="translate(228.417969 0)"/>
     <use xlink:href="#DejaVuSans-61" transform="translate(291.894531 0)"/>
     <use xlink:href="#DejaVuSans-72" transform="translate(353.173828 0)"/>
     <use xlink:href="#DejaVuSans-65" transform="translate(392.037109 0)"/>
     <use xlink:href="#DejaVuSans-20" transform="translate(453.560547 0)"/>
     <use xlink:href="#DejaVuSans-2d" transform="translate(485.347656 0)"/>
     <use xlink:href="#DejaVuSans-20" transform="translate(521.431641 0)"/>
     <use xlink:href="#DejaVuSans-45" transform="translate(553.21875 0)"/>
     <use xlink:href="#DejaVuSans-70" transform="translate(616.402344 0)"/>
     <use xlink:href="#DejaVuSans-6f" transform="translate(679.878906 0)"/>
     <use xlink:href="#DejaVuSans-63" transform="translate(741.060547 0)"/>
     <use xlink:href="#DejaVuSans-68" transform="translate(796.041016 0)"/>
     <use xlink:href="#DejaVuSans-20" transform="translate(859.419922 0)"/>
     <use xlink:href="#DejaVuSans-32" transform="translate(891.207031 0)"/>
     <use xlink:href="#DejaVuSans-30" transform="translate(954.830078 0)"/>
     <use xlink:href="#DejaVuSans-30" transform="translate(1018.453125 0)"/>
    </g>
   </g>
   <g id="legend_1">
    <g id="patch_7">
     <path d="M 64.6 78.82825 
L 181.128125 78.82825 
Q 183.128125 78.82825 183.128125 76.82825 
L 183.128125 48.472 
Q 183.128125 46.472 181.128125 46.472 
L 64.6 46.472 
Q 62.6 46.472 62.6 48.472 
L 62.6 76.82825 
Q 62.6 78.82825 64.6 78.82825 
z
" style="fill: #ffffff; opacity: 0.8; stroke: #cccccc; stroke-linejoin: miter"/>
    </g>
    <g id="line2d_39">
     <path d="M 66.6 54.570437 
L 76.6 54.570437 
L 86.6 54.570437 
" style="fill: none; stroke: #1f77b4; stroke-width: 1.5; stroke-linecap: square"/>
    </g>
    <g id="text_22">
     <!-- Pred: Sample 1 -->
     <g transform="translate(94.6 58.070437) scale(0.1 -0.1)">
      <defs>
       <path id="DejaVuSans-50" d="M 1259 4147 
L 1259 2394 
L 2053 2394 
Q 2494 2394 2734 2622 
Q 2975 2850 2975 3272 
Q 2975 3691 2734 3919 
Q 2494 4147 2053 4147 
L 1259 4147 
z
M 628 4666 
L 2053 4666 
Q 2838 4666 3239 4311 
Q 3641 3956 3641 3272 
Q 3641 2581 3239 2228 
Q 2838 1875 2053 1875 
L 1259 1875 
L 1259 0 
L 628 0 
L 628 4666 
z
" transform="scale(0.015625)"/>
       <path id="DejaVuSans-3a" d="M 750 794 
L 1409 794 
L 1409 0 
L 750 0 
L 750 794 
z
M 750 3309 
L 1409 3309 
L 1409 2516 
L 750 2516 
L 750 3309 
z
" transform="scale(0.015625)"/>
       <path id="DejaVuSans-53" d="M 3425 4513 
L 3425 3897 
Q 3066 4069 2747 4153 
Q 2428 4238 2131 4238 
Q 1616 4238 1336 4038 
Q 1056 3838 1056 3469 
Q 1056 3159 1242 3001 
Q 1428 2844 1947 2747 
L 2328 2669 
Q 3034 2534 3370 2195 
Q 3706 1856 3706 1288 
Q 3706 609 3251 259 
Q 2797 -91 1919 -91 
Q 1588 -91 1214 -16 
Q 841 59 441 206 
L 441 856 
Q 825 641 1194 531 
Q 1563 422 1919 422 
Q 2459 422 2753 634 
Q 3047 847 3047 1241 
Q 3047 1584 2836 1778 
Q 2625 1972 2144 2069 
L 1759 2144 
Q 1053 2284 737 2584 
Q 422 2884 422 3419 
Q 422 4038 858 4394 
Q 1294 4750 2059 4750 
Q 2388 4750 2728 4690 
Q 3069 4631 3425 4513 
z
" transform="scale(0.015625)"/>
      </defs>
      <use xlink:href="#DejaVuSans-50"/>
      <use xlink:href="#DejaVuSans-72" transform="translate(58.552734 0)"/>
      <use xlink:href="#DejaVuSans-65" transform="translate(97.416016 0)"/>
      <use xlink:href="#DejaVuSans-64" transform="translate(158.939453 0)"/>
      <use xlink:href="#DejaVuSans-3a" transform="translate(222.416016 0)"/>
      <use xlink:href="#DejaVuSans-20" transform="translate(256.107422 0)"/>
      <use xlink:href="#DejaVuSans-53" transform="translate(287.894531 0)"/>
      <use xlink:href="#DejaVuSans-61" transform="translate(351.371094 0)"/>
      <use xlink:href="#DejaVuSans-6d" transform="translate(412.650391 0)"/>
      <use xlink:href="#DejaVuSans-70" transform="translate(510.0625 0)"/>
      <use xlink:href="#DejaVuSans-6c" transform="translate(573.539062 0)"/>
      <use xlink:href="#DejaVuSans-65" transform="translate(601.322266 0)"/>
      <use xlink:href="#DejaVuSans-20" transform="translate(662.845703 0)"/>
      <use xlink:href="#DejaVuSans-31" transform="translate(694.632812 0)"/>
     </g>
    </g>
    <g id="line2d_40">
     <path d="M 66.6 69.248562 
L 76.6 69.248562 
L 86.6 69.248562 
" style="fill: none; stroke: #ff7f0e; stroke-opacity: 0.5; stroke-width: 1.5; stroke-linecap: square"/>
    </g>
    <g id="text_23">
     <!-- Target: Sample 1 -->
     <g transform="translate(94.6 72.748562) scale(0.1 -0.1)">
      <defs>
       <path id="DejaVuSans-54" d="M -19 4666 
L 3928 4666 
L 3928 4134 
L 2272 4134 
L 2272 0 
L 1638 0 
L 1638 4134 
L -19 4134 
L -19 4666 
z
" transform="scale(0.015625)"/>
       <path id="DejaVuSans-67" d="M 2906 1791 
Q 2906 2416 2648 2759 
Q 2391 3103 1925 3103 
Q 1463 3103 1205 2759 
Q 947 2416 947 1791 
Q 947 1169 1205 825 
Q 1463 481 1925 481 
Q 2391 481 2648 825 
Q 2906 1169 2906 1791 
z
M 3481 434 
Q 3481 -459 3084 -895 
Q 2688 -1331 1869 -1331 
Q 1566 -1331 1297 -1286 
Q 1028 -1241 775 -1147 
L 775 -588 
Q 1028 -725 1275 -790 
Q 1522 -856 1778 -856 
Q 2344 -856 2625 -561 
Q 2906 -266 2906 331 
L 2906 616 
Q 2728 306 2450 153 
Q 2172 0 1784 0 
Q 1141 0 747 490 
Q 353 981 353 1791 
Q 353 2603 747 3093 
Q 1141 3584 1784 3584 
Q 2172 3584 2450 3431 
Q 2728 3278 2906 2969 
L 2906 3500 
L 3481 3500 
L 3481 434 
z
" transform="scale(0.015625)"/>
       <path id="DejaVuSans-74" d="M 1172 4494 
L 1172 3500 
L 2356 3500 
L 2356 3053 
L 1172 3053 
L 1172 1153 
Q 1172 725 1289 603 
Q 1406 481 1766 481 
L 2356 481 
L 2356 0 
L 1766 0 
Q 1100 0 847 248 
Q 594 497 594 1153 
L 594 3053 
L 172 3053 
L 172 3500 
L 594 3500 
L 594 4494 
L 1172 4494 
z
" transform="scale(0.015625)"/>
      </defs>
      <use xlink:href="#DejaVuSans-54"/>
      <use xlink:href="#DejaVuSans-61" transform="translate(44.583984 0)"/>
      <use xlink:href="#DejaVuSans-72" transform="translate(105.863281 0)"/>
      <use xlink:href="#DejaVuSans-67" transform="translate(145.226562 0)"/>
      <use xlink:href="#DejaVuSans-65" transform="translate(208.703125 0)"/>
      <use xlink:href="#DejaVuSans-74" transform="translate(270.226562 0)"/>
      <use xlink:href="#DejaVuSans-3a" transform="translate(309.435547 0)"/>
      <use xlink:href="#DejaVuSans-20" transform="translate(343.126953 0)"/>
      <use xlink:href="#DejaVuSans-53" transform="translate(374.914062 0)"/>
      <use xlink:href="#DejaVuSans-61" transform="translate(438.390625 0)"/>
      <use xlink:href="#DejaVuSans-6d" transform="translate(499.669922 0)"/>
      <use xlink:href="#DejaVuSans-70" transform="translate(597.082031 0)"/>
      <use xlink:href="#DejaVuSans-6c" transform="translate(660.558594 0)"/>
      <use xlink:href="#DejaVuSans-65" transform="translate(688.341797 0)"/>
      <use xlink:href="#DejaVuSans-20" transform="translate(749.865234 0)"/>
      <use xlink:href="#DejaVuSans-31" transform="translate(781.652344 0)"/>
     </g>
    </g>
   </g>
  </g>
 </g>
 <defs>
  <clipPath id="pbf4d92362f">
   <rect x="57.6" y="41.472" width="357.12" height="266.112"/>
  </clipPath>
 </defs>
</svg>
