<?xml version="1.0" encoding="utf-8" standalone="no"?>
<!DOCTYPE svg PUBLIC "-//W3C//DTD SVG 1.1//EN"
  "http://www.w3.org/Graphics/SVG/1.1/DTD/svg11.dtd">
<svg xmlns:xlink="http://www.w3.org/1999/xlink" width="460.8pt" height="345.6pt" viewBox="0 0 460.8 345.6" xmlns="http://www.w3.org/2000/svg" version="1.1">
 <metadata>
  <rdf:RDF xmlns:dc="http://purl.org/dc/elements/1.1/" xmlns:cc="http://creativecommons.org/ns#" xmlns:rdf="http://www.w3.org/1999/02/22-rdf-syntax-ns#">
   <cc:Work>
    <dc:type rdf:resource="http://purl.org/dc/dcmitype/StillImage"/>
    <dc:date>2025-07-23T13:32:29.728098</dc:date>
    <dc:format>image/svg+xml</dc:format>
    <dc:creator>
     <cc:Agent>
      <dc:title>Matplotlib v3.10.3, https://matplotlib.org/</dc:title>
     </cc:Agent>
    </dc:creator>
   </cc:Work>
  </rdf:RDF>
 </metadata>
 <defs>
  <style type="text/css">*{stroke-linejoin: round; stroke-linecap: butt}</style>
 </defs>
 <g id="figure_1">
  <g id="patch_1">
   <path d="M 0 345.6 
L 460.8 345.6 
L 460.8 0 
L 0 0 
z
" style="fill: #ffffff"/>
  </g>
  <g id="axes_1">
   <g id="patch_2">
    <path d="M 57.6 307.584 
L 414.72 307.584 
L 414.72 41.472 
L 57.6 41.472 
z
" style="fill: #ffffff"/>
   </g>
   <g id="matplotlib.axis_1">
    <g id="xtick_1">
     <g id="line2d_1">
      <path d="M 62.945727 307.584 
L 62.945727 41.472 
" clip-path="url(#p8fe36aeaba)" style="fill: none; stroke: #b0b0b0; stroke-opacity: 0.5; stroke-width: 0.8; stroke-linecap: square"/>
     </g>
     <g id="line2d_2">
      <defs>
       <path id="m6cde225480" d="M 0 0 
L 0 3.5 
" style="stroke: #000000; stroke-width: 0.8"/>
      </defs>
      <g>
       <use xlink:href="#m6cde225480" x="62.945727" y="307.584" style="stroke: #000000; stroke-width: 0.8"/>
      </g>
     </g>
     <g id="text_1">
      <!-- −1.00 -->
      <g transform="translate(47.623071 322.182437) scale(0.1 -0.1)">
       <defs>
        <path id="DejaVuSans-2212" d="M 678 2272 
L 4684 2272 
L 4684 1741 
L 678 1741 
L 678 2272 
z
" transform="scale(0.015625)"/>
        <path id="DejaVuSans-31" d="M 794 531 
L 1825 531 
L 1825 4091 
L 703 3866 
L 703 4441 
L 1819 4666 
L 2450 4666 
L 2450 531 
L 3481 531 
L 3481 0 
L 794 0 
L 794 531 
z
" transform="scale(0.015625)"/>
        <path id="DejaVuSans-2e" d="M 684 794 
L 1344 794 
L 1344 0 
L 684 0 
L 684 794 
z
" transform="scale(0.015625)"/>
        <path id="DejaVuSans-30" d="M 2034 4250 
Q 1547 4250 1301 3770 
Q 1056 3291 1056 2328 
Q 1056 1369 1301 889 
Q 1547 409 2034 409 
Q 2525 409 2770 889 
Q 3016 1369 3016 2328 
Q 3016 3291 2770 3770 
Q 2525 4250 2034 4250 
z
M 2034 4750 
Q 2819 4750 3233 4129 
Q 3647 3509 3647 2328 
Q 3647 1150 3233 529 
Q 2819 -91 2034 -91 
Q 1250 -91 836 529 
Q 422 1150 422 2328 
Q 422 3509 836 4129 
Q 1250 4750 2034 4750 
z
" transform="scale(0.015625)"/>
       </defs>
       <use xlink:href="#DejaVuSans-2212"/>
       <use xlink:href="#DejaVuSans-31" transform="translate(83.789062 0)"/>
       <use xlink:href="#DejaVuSans-2e" transform="translate(147.412109 0)"/>
       <use xlink:href="#DejaVuSans-30" transform="translate(179.199219 0)"/>
       <use xlink:href="#DejaVuSans-30" transform="translate(242.822266 0)"/>
      </g>
     </g>
    </g>
    <g id="xtick_2">
     <g id="line2d_3">
      <path d="M 104.88842 307.584 
L 104.88842 41.472 
" clip-path="url(#p8fe36aeaba)" style="fill: none; stroke: #b0b0b0; stroke-opacity: 0.5; stroke-width: 0.8; stroke-linecap: square"/>
     </g>
     <g id="line2d_4">
      <g>
       <use xlink:href="#m6cde225480" x="104.88842" y="307.584" style="stroke: #000000; stroke-width: 0.8"/>
      </g>
     </g>
     <g id="text_2">
      <!-- −0.75 -->
      <g transform="translate(89.565764 322.182437) scale(0.1 -0.1)">
       <defs>
        <path id="DejaVuSans-37" d="M 525 4666 
L 3525 4666 
L 3525 4397 
L 1831 0 
L 1172 0 
L 2766 4134 
L 525 4134 
L 525 4666 
z
" transform="scale(0.015625)"/>
        <path id="DejaVuSans-35" d="M 691 4666 
L 3169 4666 
L 3169 4134 
L 1269 4134 
L 1269 2991 
Q 1406 3038 1543 3061 
Q 1681 3084 1819 3084 
Q 2600 3084 3056 2656 
Q 3513 2228 3513 1497 
Q 3513 744 3044 326 
Q 2575 -91 1722 -91 
Q 1428 -91 1123 -41 
Q 819 9 494 109 
L 494 744 
Q 775 591 1075 516 
Q 1375 441 1709 441 
Q 2250 441 2565 725 
Q 2881 1009 2881 1497 
Q 2881 1984 2565 2268 
Q 2250 2553 1709 2553 
Q 1456 2553 1204 2497 
Q 953 2441 691 2322 
L 691 4666 
z
" transform="scale(0.015625)"/>
       </defs>
       <use xlink:href="#DejaVuSans-2212"/>
       <use xlink:href="#DejaVuSans-30" transform="translate(83.789062 0)"/>
       <use xlink:href="#DejaVuSans-2e" transform="translate(147.412109 0)"/>
       <use xlink:href="#DejaVuSans-37" transform="translate(179.199219 0)"/>
       <use xlink:href="#DejaVuSans-35" transform="translate(242.822266 0)"/>
      </g>
     </g>
    </g>
    <g id="xtick_3">
     <g id="line2d_5">
      <path d="M 146.831114 307.584 
L 146.831114 41.472 
" clip-path="url(#p8fe36aeaba)" style="fill: none; stroke: #b0b0b0; stroke-opacity: 0.5; stroke-width: 0.8; stroke-linecap: square"/>
     </g>
     <g id="line2d_6">
      <g>
       <use xlink:href="#m6cde225480" x="146.831114" y="307.584" style="stroke: #000000; stroke-width: 0.8"/>
      </g>
     </g>
     <g id="text_3">
      <!-- −0.50 -->
      <g transform="translate(131.508457 322.182437) scale(0.1 -0.1)">
       <use xlink:href="#DejaVuSans-2212"/>
       <use xlink:href="#DejaVuSans-30" transform="translate(83.789062 0)"/>
       <use xlink:href="#DejaVuSans-2e" transform="translate(147.412109 0)"/>
       <use xlink:href="#DejaVuSans-35" transform="translate(179.199219 0)"/>
       <use xlink:href="#DejaVuSans-30" transform="translate(242.822266 0)"/>
      </g>
     </g>
    </g>
    <g id="xtick_4">
     <g id="line2d_7">
      <path d="M 188.773807 307.584 
L 188.773807 41.472 
" clip-path="url(#p8fe36aeaba)" style="fill: none; stroke: #b0b0b0; stroke-opacity: 0.5; stroke-width: 0.8; stroke-linecap: square"/>
     </g>
     <g id="line2d_8">
      <g>
       <use xlink:href="#m6cde225480" x="188.773807" y="307.584" style="stroke: #000000; stroke-width: 0.8"/>
      </g>
     </g>
     <g id="text_4">
      <!-- −0.25 -->
      <g transform="translate(173.451151 322.182437) scale(0.1 -0.1)">
       <defs>
        <path id="DejaVuSans-32" d="M 1228 531 
L 3431 531 
L 3431 0 
L 469 0 
L 469 531 
Q 828 903 1448 1529 
Q 2069 2156 2228 2338 
Q 2531 2678 2651 2914 
Q 2772 3150 2772 3378 
Q 2772 3750 2511 3984 
Q 2250 4219 1831 4219 
Q 1534 4219 1204 4116 
Q 875 4013 500 3803 
L 500 4441 
Q 881 4594 1212 4672 
Q 1544 4750 1819 4750 
Q 2544 4750 2975 4387 
Q 3406 4025 3406 3419 
Q 3406 3131 3298 2873 
Q 3191 2616 2906 2266 
Q 2828 2175 2409 1742 
Q 1991 1309 1228 531 
z
" transform="scale(0.015625)"/>
       </defs>
       <use xlink:href="#DejaVuSans-2212"/>
       <use xlink:href="#DejaVuSans-30" transform="translate(83.789062 0)"/>
       <use xlink:href="#DejaVuSans-2e" transform="translate(147.412109 0)"/>
       <use xlink:href="#DejaVuSans-32" transform="translate(179.199219 0)"/>
       <use xlink:href="#DejaVuSans-35" transform="translate(242.822266 0)"/>
      </g>
     </g>
    </g>
    <g id="xtick_5">
     <g id="line2d_9">
      <path d="M 230.7165 307.584 
L 230.7165 41.472 
" clip-path="url(#p8fe36aeaba)" style="fill: none; stroke: #b0b0b0; stroke-opacity: 0.5; stroke-width: 0.8; stroke-linecap: square"/>
     </g>
     <g id="line2d_10">
      <g>
       <use xlink:href="#m6cde225480" x="230.7165" y="307.584" style="stroke: #000000; stroke-width: 0.8"/>
      </g>
     </g>
     <g id="text_5">
      <!-- 0.00 -->
      <g transform="translate(219.583688 322.182437) scale(0.1 -0.1)">
       <use xlink:href="#DejaVuSans-30"/>
       <use xlink:href="#DejaVuSans-2e" transform="translate(63.623047 0)"/>
       <use xlink:href="#DejaVuSans-30" transform="translate(95.410156 0)"/>
       <use xlink:href="#DejaVuSans-30" transform="translate(159.033203 0)"/>
      </g>
     </g>
    </g>
    <g id="xtick_6">
     <g id="line2d_11">
      <path d="M 272.659193 307.584 
L 272.659193 41.472 
" clip-path="url(#p8fe36aeaba)" style="fill: none; stroke: #b0b0b0; stroke-opacity: 0.5; stroke-width: 0.8; stroke-linecap: square"/>
     </g>
     <g id="line2d_12">
      <g>
       <use xlink:href="#m6cde225480" x="272.659193" y="307.584" style="stroke: #000000; stroke-width: 0.8"/>
      </g>
     </g>
     <g id="text_6">
      <!-- 0.25 -->
      <g transform="translate(261.526381 322.182437) scale(0.1 -0.1)">
       <use xlink:href="#DejaVuSans-30"/>
       <use xlink:href="#DejaVuSans-2e" transform="translate(63.623047 0)"/>
       <use xlink:href="#DejaVuSans-32" transform="translate(95.410156 0)"/>
       <use xlink:href="#DejaVuSans-35" transform="translate(159.033203 0)"/>
      </g>
     </g>
    </g>
    <g id="xtick_7">
     <g id="line2d_13">
      <path d="M 314.601886 307.584 
L 314.601886 41.472 
" clip-path="url(#p8fe36aeaba)" style="fill: none; stroke: #b0b0b0; stroke-opacity: 0.5; stroke-width: 0.8; stroke-linecap: square"/>
     </g>
     <g id="line2d_14">
      <g>
       <use xlink:href="#m6cde225480" x="314.601886" y="307.584" style="stroke: #000000; stroke-width: 0.8"/>
      </g>
     </g>
     <g id="text_7">
      <!-- 0.50 -->
      <g transform="translate(303.469074 322.182437) scale(0.1 -0.1)">
       <use xlink:href="#DejaVuSans-30"/>
       <use xlink:href="#DejaVuSans-2e" transform="translate(63.623047 0)"/>
       <use xlink:href="#DejaVuSans-35" transform="translate(95.410156 0)"/>
       <use xlink:href="#DejaVuSans-30" transform="translate(159.033203 0)"/>
      </g>
     </g>
    </g>
    <g id="xtick_8">
     <g id="line2d_15">
      <path d="M 356.54458 307.584 
L 356.54458 41.472 
" clip-path="url(#p8fe36aeaba)" style="fill: none; stroke: #b0b0b0; stroke-opacity: 0.5; stroke-width: 0.8; stroke-linecap: square"/>
     </g>
     <g id="line2d_16">
      <g>
       <use xlink:href="#m6cde225480" x="356.54458" y="307.584" style="stroke: #000000; stroke-width: 0.8"/>
      </g>
     </g>
     <g id="text_8">
      <!-- 0.75 -->
      <g transform="translate(345.411767 322.182437) scale(0.1 -0.1)">
       <use xlink:href="#DejaVuSans-30"/>
       <use xlink:href="#DejaVuSans-2e" transform="translate(63.623047 0)"/>
       <use xlink:href="#DejaVuSans-37" transform="translate(95.410156 0)"/>
       <use xlink:href="#DejaVuSans-35" transform="translate(159.033203 0)"/>
      </g>
     </g>
    </g>
    <g id="xtick_9">
     <g id="line2d_17">
      <path d="M 398.487273 307.584 
L 398.487273 41.472 
" clip-path="url(#p8fe36aeaba)" style="fill: none; stroke: #b0b0b0; stroke-opacity: 0.5; stroke-width: 0.8; stroke-linecap: square"/>
     </g>
     <g id="line2d_18">
      <g>
       <use xlink:href="#m6cde225480" x="398.487273" y="307.584" style="stroke: #000000; stroke-width: 0.8"/>
      </g>
     </g>
     <g id="text_9">
      <!-- 1.00 -->
      <g transform="translate(387.35446 322.182437) scale(0.1 -0.1)">
       <use xlink:href="#DejaVuSans-31"/>
       <use xlink:href="#DejaVuSans-2e" transform="translate(63.623047 0)"/>
       <use xlink:href="#DejaVuSans-30" transform="translate(95.410156 0)"/>
       <use xlink:href="#DejaVuSans-30" transform="translate(159.033203 0)"/>
      </g>
     </g>
    </g>
    <g id="text_10">
     <!-- Index -->
     <g transform="translate(222.393594 335.860562) scale(0.1 -0.1)">
      <defs>
       <path id="DejaVuSans-49" d="M 628 4666 
L 1259 4666 
L 1259 0 
L 628 0 
L 628 4666 
z
" transform="scale(0.015625)"/>
       <path id="DejaVuSans-6e" d="M 3513 2113 
L 3513 0 
L 2938 0 
L 2938 2094 
Q 2938 2591 2744 2837 
Q 2550 3084 2163 3084 
Q 1697 3084 1428 2787 
Q 1159 2491 1159 1978 
L 1159 0 
L 581 0 
L 581 3500 
L 1159 3500 
L 1159 2956 
Q 1366 3272 1645 3428 
Q 1925 3584 2291 3584 
Q 2894 3584 3203 3211 
Q 3513 2838 3513 2113 
z
" transform="scale(0.015625)"/>
       <path id="DejaVuSans-64" d="M 2906 2969 
L 2906 4863 
L 3481 4863 
L 3481 0 
L 2906 0 
L 2906 525 
Q 2725 213 2448 61 
Q 2172 -91 1784 -91 
Q 1150 -91 751 415 
Q 353 922 353 1747 
Q 353 2572 751 3078 
Q 1150 3584 1784 3584 
Q 2172 3584 2448 3432 
Q 2725 3281 2906 2969 
z
M 947 1747 
Q 947 1113 1208 752 
Q 1469 391 1925 391 
Q 2381 391 2643 752 
Q 2906 1113 2906 1747 
Q 2906 2381 2643 2742 
Q 2381 3103 1925 3103 
Q 1469 3103 1208 2742 
Q 947 2381 947 1747 
z
" transform="scale(0.015625)"/>
       <path id="DejaVuSans-65" d="M 3597 1894 
L 3597 1613 
L 953 1613 
Q 991 1019 1311 708 
Q 1631 397 2203 397 
Q 2534 397 2845 478 
Q 3156 559 3463 722 
L 3463 178 
Q 3153 47 2828 -22 
Q 2503 -91 2169 -91 
Q 1331 -91 842 396 
Q 353 884 353 1716 
Q 353 2575 817 3079 
Q 1281 3584 2069 3584 
Q 2775 3584 3186 3129 
Q 3597 2675 3597 1894 
z
M 3022 2063 
Q 3016 2534 2758 2815 
Q 2500 3097 2075 3097 
Q 1594 3097 1305 2825 
Q 1016 2553 972 2059 
L 3022 2063 
z
" transform="scale(0.015625)"/>
       <path id="DejaVuSans-78" d="M 3513 3500 
L 2247 1797 
L 3578 0 
L 2900 0 
L 1881 1375 
L 863 0 
L 184 0 
L 1544 1831 
L 300 3500 
L 978 3500 
L 1906 2253 
L 2834 3500 
L 3513 3500 
z
" transform="scale(0.015625)"/>
      </defs>
      <use xlink:href="#DejaVuSans-49"/>
      <use xlink:href="#DejaVuSans-6e" transform="translate(29.492188 0)"/>
      <use xlink:href="#DejaVuSans-64" transform="translate(92.871094 0)"/>
      <use xlink:href="#DejaVuSans-65" transform="translate(156.347656 0)"/>
      <use xlink:href="#DejaVuSans-78" transform="translate(216.121094 0)"/>
     </g>
    </g>
   </g>
   <g id="matplotlib.axis_2">
    <g id="ytick_1">
     <g id="line2d_19">
      <path d="M 57.6 302.513077 
L 414.72 302.513077 
" clip-path="url(#p8fe36aeaba)" style="fill: none; stroke: #b0b0b0; stroke-opacity: 0.5; stroke-width: 0.8; stroke-linecap: square"/>
     </g>
     <g id="line2d_20">
      <defs>
       <path id="m8c7b9d9aea" d="M 0 0 
L -3.5 0 
" style="stroke: #000000; stroke-width: 0.8"/>
      </defs>
      <g>
       <use xlink:href="#m8c7b9d9aea" x="57.6" y="302.513077" style="stroke: #000000; stroke-width: 0.8"/>
      </g>
     </g>
     <g id="text_11">
      <!-- −1.00 -->
      <g transform="translate(19.954687 306.312296) scale(0.1 -0.1)">
       <use xlink:href="#DejaVuSans-2212"/>
       <use xlink:href="#DejaVuSans-31" transform="translate(83.789062 0)"/>
       <use xlink:href="#DejaVuSans-2e" transform="translate(147.412109 0)"/>
       <use xlink:href="#DejaVuSans-30" transform="translate(179.199219 0)"/>
       <use xlink:href="#DejaVuSans-30" transform="translate(242.822266 0)"/>
      </g>
     </g>
    </g>
    <g id="ytick_2">
     <g id="line2d_21">
      <path d="M 57.6 271.394927 
L 414.72 271.394927 
" clip-path="url(#p8fe36aeaba)" style="fill: none; stroke: #b0b0b0; stroke-opacity: 0.5; stroke-width: 0.8; stroke-linecap: square"/>
     </g>
     <g id="line2d_22">
      <g>
       <use xlink:href="#m8c7b9d9aea" x="57.6" y="271.394927" style="stroke: #000000; stroke-width: 0.8"/>
      </g>
     </g>
     <g id="text_12">
      <!-- −0.75 -->
      <g transform="translate(19.954687 275.194146) scale(0.1 -0.1)">
       <use xlink:href="#DejaVuSans-2212"/>
       <use xlink:href="#DejaVuSans-30" transform="translate(83.789062 0)"/>
       <use xlink:href="#DejaVuSans-2e" transform="translate(147.412109 0)"/>
       <use xlink:href="#DejaVuSans-37" transform="translate(179.199219 0)"/>
       <use xlink:href="#DejaVuSans-35" transform="translate(242.822266 0)"/>
      </g>
     </g>
    </g>
    <g id="ytick_3">
     <g id="line2d_23">
      <path d="M 57.6 240.276776 
L 414.72 240.276776 
" clip-path="url(#p8fe36aeaba)" style="fill: none; stroke: #b0b0b0; stroke-opacity: 0.5; stroke-width: 0.8; stroke-linecap: square"/>
     </g>
     <g id="line2d_24">
      <g>
       <use xlink:href="#m8c7b9d9aea" x="57.6" y="240.276776" style="stroke: #000000; stroke-width: 0.8"/>
      </g>
     </g>
     <g id="text_13">
      <!-- −0.50 -->
      <g transform="translate(19.954687 244.075995) scale(0.1 -0.1)">
       <use xlink:href="#DejaVuSans-2212"/>
       <use xlink:href="#DejaVuSans-30" transform="translate(83.789062 0)"/>
       <use xlink:href="#DejaVuSans-2e" transform="translate(147.412109 0)"/>
       <use xlink:href="#DejaVuSans-35" transform="translate(179.199219 0)"/>
       <use xlink:href="#DejaVuSans-30" transform="translate(242.822266 0)"/>
      </g>
     </g>
    </g>
    <g id="ytick_4">
     <g id="line2d_25">
      <path d="M 57.6 209.158626 
L 414.72 209.158626 
" clip-path="url(#p8fe36aeaba)" style="fill: none; stroke: #b0b0b0; stroke-opacity: 0.5; stroke-width: 0.8; stroke-linecap: square"/>
     </g>
     <g id="line2d_26">
      <g>
       <use xlink:href="#m8c7b9d9aea" x="57.6" y="209.158626" style="stroke: #000000; stroke-width: 0.8"/>
      </g>
     </g>
     <g id="text_14">
      <!-- −0.25 -->
      <g transform="translate(19.954687 212.957845) scale(0.1 -0.1)">
       <use xlink:href="#DejaVuSans-2212"/>
       <use xlink:href="#DejaVuSans-30" transform="translate(83.789062 0)"/>
       <use xlink:href="#DejaVuSans-2e" transform="translate(147.412109 0)"/>
       <use xlink:href="#DejaVuSans-32" transform="translate(179.199219 0)"/>
       <use xlink:href="#DejaVuSans-35" transform="translate(242.822266 0)"/>
      </g>
     </g>
    </g>
    <g id="ytick_5">
     <g id="line2d_27">
      <path d="M 57.6 178.040476 
L 414.72 178.040476 
" clip-path="url(#p8fe36aeaba)" style="fill: none; stroke: #b0b0b0; stroke-opacity: 0.5; stroke-width: 0.8; stroke-linecap: square"/>
     </g>
     <g id="line2d_28">
      <g>
       <use xlink:href="#m8c7b9d9aea" x="57.6" y="178.040476" style="stroke: #000000; stroke-width: 0.8"/>
      </g>
     </g>
     <g id="text_15">
      <!-- 0.00 -->
      <g transform="translate(28.334375 181.839694) scale(0.1 -0.1)">
       <use xlink:href="#DejaVuSans-30"/>
       <use xlink:href="#DejaVuSans-2e" transform="translate(63.623047 0)"/>
       <use xlink:href="#DejaVuSans-30" transform="translate(95.410156 0)"/>
       <use xlink:href="#DejaVuSans-30" transform="translate(159.033203 0)"/>
      </g>
     </g>
    </g>
    <g id="ytick_6">
     <g id="line2d_29">
      <path d="M 57.6 146.922325 
L 414.72 146.922325 
" clip-path="url(#p8fe36aeaba)" style="fill: none; stroke: #b0b0b0; stroke-opacity: 0.5; stroke-width: 0.8; stroke-linecap: square"/>
     </g>
     <g id="line2d_30">
      <g>
       <use xlink:href="#m8c7b9d9aea" x="57.6" y="146.922325" style="stroke: #000000; stroke-width: 0.8"/>
      </g>
     </g>
     <g id="text_16">
      <!-- 0.25 -->
      <g transform="translate(28.334375 150.721544) scale(0.1 -0.1)">
       <use xlink:href="#DejaVuSans-30"/>
       <use xlink:href="#DejaVuSans-2e" transform="translate(63.623047 0)"/>
       <use xlink:href="#DejaVuSans-32" transform="translate(95.410156 0)"/>
       <use xlink:href="#DejaVuSans-35" transform="translate(159.033203 0)"/>
      </g>
     </g>
    </g>
    <g id="ytick_7">
     <g id="line2d_31">
      <path d="M 57.6 115.804175 
L 414.72 115.804175 
" clip-path="url(#p8fe36aeaba)" style="fill: none; stroke: #b0b0b0; stroke-opacity: 0.5; stroke-width: 0.8; stroke-linecap: square"/>
     </g>
     <g id="line2d_32">
      <g>
       <use xlink:href="#m8c7b9d9aea" x="57.6" y="115.804175" style="stroke: #000000; stroke-width: 0.8"/>
      </g>
     </g>
     <g id="text_17">
      <!-- 0.50 -->
      <g transform="translate(28.334375 119.603393) scale(0.1 -0.1)">
       <use xlink:href="#DejaVuSans-30"/>
       <use xlink:href="#DejaVuSans-2e" transform="translate(63.623047 0)"/>
       <use xlink:href="#DejaVuSans-35" transform="translate(95.410156 0)"/>
       <use xlink:href="#DejaVuSans-30" transform="translate(159.033203 0)"/>
      </g>
     </g>
    </g>
    <g id="ytick_8">
     <g id="line2d_33">
      <path d="M 57.6 84.686024 
L 414.72 84.686024 
" clip-path="url(#p8fe36aeaba)" style="fill: none; stroke: #b0b0b0; stroke-opacity: 0.5; stroke-width: 0.8; stroke-linecap: square"/>
     </g>
     <g id="line2d_34">
      <g>
       <use xlink:href="#m8c7b9d9aea" x="57.6" y="84.686024" style="stroke: #000000; stroke-width: 0.8"/>
      </g>
     </g>
     <g id="text_18">
      <!-- 0.75 -->
      <g transform="translate(28.334375 88.485243) scale(0.1 -0.1)">
       <use xlink:href="#DejaVuSans-30"/>
       <use xlink:href="#DejaVuSans-2e" transform="translate(63.623047 0)"/>
       <use xlink:href="#DejaVuSans-37" transform="translate(95.410156 0)"/>
       <use xlink:href="#DejaVuSans-35" transform="translate(159.033203 0)"/>
      </g>
     </g>
    </g>
    <g id="ytick_9">
     <g id="line2d_35">
      <path d="M 57.6 53.567874 
L 414.72 53.567874 
" clip-path="url(#p8fe36aeaba)" style="fill: none; stroke: #b0b0b0; stroke-opacity: 0.5; stroke-width: 0.8; stroke-linecap: square"/>
     </g>
     <g id="line2d_36">
      <g>
       <use xlink:href="#m8c7b9d9aea" x="57.6" y="53.567874" style="stroke: #000000; stroke-width: 0.8"/>
      </g>
     </g>
     <g id="text_19">
      <!-- 1.00 -->
      <g transform="translate(28.334375 57.367093) scale(0.1 -0.1)">
       <use xlink:href="#DejaVuSans-31"/>
       <use xlink:href="#DejaVuSans-2e" transform="translate(63.623047 0)"/>
       <use xlink:href="#DejaVuSans-30" transform="translate(95.410156 0)"/>
       <use xlink:href="#DejaVuSans-30" transform="translate(159.033203 0)"/>
      </g>
     </g>
    </g>
    <g id="text_20">
     <!-- Value -->
     <g transform="translate(13.875 188.25925) rotate(-90) scale(0.1 -0.1)">
      <defs>
       <path id="DejaVuSans-56" d="M 1831 0 
L 50 4666 
L 709 4666 
L 2188 738 
L 3669 4666 
L 4325 4666 
L 2547 0 
L 1831 0 
z
" transform="scale(0.015625)"/>
       <path id="DejaVuSans-61" d="M 2194 1759 
Q 1497 1759 1228 1600 
Q 959 1441 959 1056 
Q 959 750 1161 570 
Q 1363 391 1709 391 
Q 2188 391 2477 730 
Q 2766 1069 2766 1631 
L 2766 1759 
L 2194 1759 
z
M 3341 1997 
L 3341 0 
L 2766 0 
L 2766 531 
Q 2569 213 2275 61 
Q 1981 -91 1556 -91 
Q 1019 -91 701 211 
Q 384 513 384 1019 
Q 384 1609 779 1909 
Q 1175 2209 1959 2209 
L 2766 2209 
L 2766 2266 
Q 2766 2663 2505 2880 
Q 2244 3097 1772 3097 
Q 1472 3097 1187 3025 
Q 903 2953 641 2809 
L 641 3341 
Q 956 3463 1253 3523 
Q 1550 3584 1831 3584 
Q 2591 3584 2966 3190 
Q 3341 2797 3341 1997 
z
" transform="scale(0.015625)"/>
       <path id="DejaVuSans-6c" d="M 603 4863 
L 1178 4863 
L 1178 0 
L 603 0 
L 603 4863 
z
" transform="scale(0.015625)"/>
       <path id="DejaVuSans-75" d="M 544 1381 
L 544 3500 
L 1119 3500 
L 1119 1403 
Q 1119 906 1312 657 
Q 1506 409 1894 409 
Q 2359 409 2629 706 
Q 2900 1003 2900 1516 
L 2900 3500 
L 3475 3500 
L 3475 0 
L 2900 0 
L 2900 538 
Q 2691 219 2414 64 
Q 2138 -91 1772 -91 
Q 1169 -91 856 284 
Q 544 659 544 1381 
z
M 1991 3584 
L 1991 3584 
z
" transform="scale(0.015625)"/>
      </defs>
      <use xlink:href="#DejaVuSans-56"/>
      <use xlink:href="#DejaVuSans-61" transform="translate(60.658203 0)"/>
      <use xlink:href="#DejaVuSans-6c" transform="translate(121.9375 0)"/>
      <use xlink:href="#DejaVuSans-75" transform="translate(149.720703 0)"/>
      <use xlink:href="#DejaVuSans-65" transform="translate(213.099609 0)"/>
     </g>
    </g>
   </g>
   <g id="line2d_37">
    <path d="M 112.417518 295.488 
L 130.229821 295.30517 
L 142.285341 294.843491 
L 148.818312 294.081026 
L 149.827929 293.037056 
L 141.411848 291.774221 
L 131.364012 290.390891 
L 122.839752 289.004646 
L 124.789516 287.730186 
L 131.871247 286.656606 
L 132.125685 285.829134 
L 123.651865 285.24015 
L 95.335899 284.509171 
L 94.596646 284.163268 
L 114.736139 283.694697 
L 137.767909 283.036137 
L 148.134258 282.166168 
L 147.013752 281.11193 
L 139.760492 279.940499 
L 131.324832 278.741224 
L 128.650444 277.603609 
L 134.715144 276.596549 
L 136.551549 275.753422 
L 132.197715 275.066677 
L 116.418775 273.964199 
L 115.188855 273.408854 
L 138.76994 272.00027 
L 144.89251 271.108118 
L 144.692051 270.115592 
L 137.424861 268.025633 
L 137.62089 267.032848 
L 140.585125 266.124374 
L 141.621117 265.310686 
L 139.506794 264.579678 
L 135.543627 263.901753 
L 132.397603 263.238467 
L 133.442684 262.552166 
L 143.986747 261.010898 
L 147.29043 260.143823 
L 148.217407 259.228694 
L 147.26295 257.354528 
L 147.638017 256.445943 
L 148.603994 255.579639 
L 149.174574 254.760639 
L 148.874627 253.983551 
L 148.206742 253.234722 
L 148.017254 252.49576 
L 149.162419 251.747799 
L 151.677504 250.975414 
L 154.720208 250.169524 
L 157.350007 249.32889 
L 159.110482 248.459893 
L 160.104379 247.574671 
L 161.448768 245.815309 
L 162.840181 244.146328 
L 163.267568 243.353021 
L 163.558 242.578344 
L 164.104906 241.810314 
L 165.292781 241.036044 
L 170.981694 238.595283 
L 172.267183 237.74256 
L 173.852845 236.026563 
L 176.27172 233.550401 
L 177.902207 231.969623 
L 179.031917 231.180203 
L 183.346082 228.746349 
L 185.325935 227.076548 
L 188.738467 223.789759 
L 190.602829 222.187483 
L 196.812223 217.31486 
L 204.40741 210.843199 
L 212.486778 204.383514 
L 216.156178 201.191592 
L 222.117279 196.38971 
L 225.682099 193.203012 
L 229.650869 190.06384 
L 232.576215 187.669361 
L 235.974072 184.494742 
L 238.688234 182.158027 
L 211.382577 182.060612 
L 256.641916 181.278377 
L 251.074162 180.491526 
L 240.168702 179.700382 
L 242.392163 178.906546 
L 254.210546 169.472893 
L 260.244936 164.749356 
L 264.155954 161.608282 
L 270.220783 156.904013 
L 275.231502 152.96988 
L 279.13179 149.865908 
L 283.949725 145.932778 
L 288.950598 142.059958 
L 293.65208 138.156887 
L 296.339947 135.826975 
L 298.690298 133.510232 
L 301.794902 130.398561 
L 304.239122 128.076157 
L 306.359775 125.76171 
L 308.445857 123.4329 
L 311.610351 120.345723 
L 313.791543 118.042442 
L 315.977185 115.721058 
L 325.888513 106.517045 
L 328.62692 104.240398 
L 330.078648 102.72897 
L 331.460077 101.205033 
L 333.129163 99.672579 
L 336.829773 96.643001 
L 338.31277 95.140831 
L 339.702329 93.626658 
L 341.421485 92.10356 
L 345.318072 89.096187 
L 346.712441 87.606074 
L 348.00191 86.100418 
L 349.724096 84.582104 
L 353.855482 81.59158 
L 354.600756 80.854422 
L 355.632857 79.370095 
L 356.146883 78.618224 
L 356.820187 77.860752 
L 357.69279 77.101262 
L 359.860872 75.594107 
L 361.934755 74.11766 
L 362.648289 73.386384 
L 363.092975 72.653158 
L 363.694 71.164194 
L 364.139877 70.40716 
L 364.861461 69.646386 
L 366.940604 68.137398 
L 368.980047 66.667235 
L 369.560652 65.941272 
L 369.73548 65.212334 
L 369.682291 63.722169 
L 370.027688 62.959503 
L 370.790622 62.192534 
L 371.931852 61.430847 
L 374.60928 59.952085 
L 375.606942 59.234595 
L 375.88168 58.519575 
L 375.336904 57.793322 
L 374.58198 57.046058 
L 374.555341 56.280224 
L 375.85878 55.516987 
L 377.554386 54.799341 
L 371.804613 54.188812 
L 353.564834 53.75629 
L 333.872387 53.568 
L 319.790563 53.668975 
L 310.250942 54.069579 
L 318.384265 54.737109 
L 349.480888 56.543649 
L 367.101112 57.458385 
L 369.292974 58.232402 
L 360.559746 58.788741 
L 359.485985 59.097526 
L 364.660112 59.181689 
L 385.725468 58.985208 
L 381.107426 58.91207 
L 358.540413 58.982396 
L 336.355366 59.250813 
L 330.461175 59.725149 
L 336.531525 60.366942 
L 350.672948 61.102765 
L 367.719297 61.843003 
L 375.8755 62.503574 
L 365.830403 63.384011 
L 369.617661 63.597549 
L 384.561568 63.803482 
L 380.799249 63.933117 
L 367.102142 64.158073 
L 354.368378 64.506276 
L 350.321491 64.975017 
L 354.599346 65.534154 
L 372.821365 66.725802 
L 375.88106 67.259023 
L 372.484148 68.062035 
L 374.526171 68.340186 
L 378.001762 68.571723 
L 379.342041 68.794608 
L 376.062788 69.044893 
L 364.185436 69.7185 
L 362.071214 70.149982 
L 363.469672 70.626663 
L 370.251566 71.614255 
L 371.934672 72.075674 
L 372.045081 72.493505 
L 371.840343 72.863987 
L 372.422388 73.497382 
L 371.865913 73.793925 
L 369.80759 74.10225 
L 363.632891 74.807062 
L 361.815906 75.211509 
L 361.606738 75.643043 
L 362.613309 76.088682 
L 365.034249 76.962479 
L 365.374447 77.366941 
L 365.281967 77.74307 
L 365.028519 78.094077 
L 364.537993 78.428777 
L 363.515802 78.759166 
L 357.71477 79.831277 
L 356.631199 80.230568 
L 356.4837 80.645187 
L 357.989478 81.887441 
L 357.962008 82.275529 
L 357.629031 82.646954 
L 357.034295 83.00584 
L 356.124783 83.359051 
L 351.274363 84.839608 
L 350.836987 85.235798 
L 350.754267 86.035515 
L 350.684028 86.429219 
L 350.43359 86.814859 
L 350.053333 87.192286 
L 348.754944 87.931477 
L 346.243885 89.048749 
L 345.127494 89.816734 
L 342.916212 92.115022 
L 341.041828 93.23311 
L 339.102154 94.362756 
L 337.747705 95.506061 
L 336.516185 96.633489 
L 335.301945 97.369684 
L 331.683245 99.222385 
L 330.944931 99.975592 
L 330.302477 100.718485 
L 329.241325 101.443766 
L 327.672518 102.1603 
L 325.290478 103.252502 
L 324.551484 103.995782 
L 324.129928 104.735329 
L 323.374504 105.458726 
L 322.109854 106.168968 
L 319.932842 107.2405 
L 318.925041 107.969787 
L 317.473673 109.431025 
L 315.801416 110.506593 
L 312.788986 112.306129 
L 310.357211 114.134444 
L 308.438027 115.584056 
L 304.206657 118.126809 
L 302.69622 119.589764 
L 300.897265 120.664212 
L 299.01555 121.746317 
L 298.250122 122.477937 
L 297.340134 123.570235 
L 296.329842 124.286539 
L 293.335702 126.078437 
L 290.833678 128.248262 
L 288.17797 130.04331 
L 284.932822 132.571072 
L 278.727608 137.253758 
L 277.436424 138.330391 
L 273.408217 141.187482 
L 272.117303 142.255683 
L 268.524182 144.730354 
L 266.790952 146.140789 
L 263.986735 148.241405 
L 262.659996 149.285544 
L 259.76525 151.367378 
L 258.116403 152.749626 
L 255.044039 154.809908 
L 253.008846 156.529369 
L 249.929271 158.584205 
L 248.307575 159.960694 
L 244.514386 162.708908 
L 243.264626 163.742062 
L 240.473609 165.807564 
L 238.844178 167.186418 
L 236.074036 169.248721 
L 234.803726 170.280062 
L 226.147438 176.440695 
L 224.806249 177.464624 
L 221.264248 179.85094 
L 219.958449 180.874623 
L 215.950612 183.594277 
L 214.592898 184.612812 
L 211.087137 186.97878 
L 209.172038 188.325198 
L 206.605189 189.99968 
L 204.251019 191.667055 
L 201.72841 193.325787 
L 199.93506 194.64803 
L 196.884365 196.619796 
L 195.168914 197.933177 
L 191.679985 200.220275 
L 190.435816 201.201739 
L 186.122519 204.136562 
L 184.693251 205.113089 
L 182.592658 206.414255 
L 179.433324 208.700038 
L 177.46042 210.005729 
L 174.426425 212.291731 
L 173.180336 213.271318 
L 171.328961 214.90389 
L 169.169219 216.530856 
L 167.361544 218.157719 
L 165.186592 219.778027 
L 163.588045 221.40187 
L 161.148665 223.338898 
L 159.930125 224.633483 
L 157.226048 226.885238 
L 156.316945 227.851259 
L 153.172511 230.412084 
L 152.10283 231.369006 
L 150.011937 232.95569 
L 148.382761 234.540969 
L 145.947351 236.42877 
L 144.954289 237.373509 
L 143.576341 238.308474 
L 142.205402 239.243379 
L 139.625743 241.425972 
L 138.238905 242.354456 
L 135.23665 244.836086 
L 133.95914 245.764399 
L 132.273024 247.316803 
L 130.071872 248.861581 
L 128.449796 250.414972 
L 126.221584 251.95779 
L 124.612437 253.512843 
L 121.91606 255.365871 
L 120.64508 256.608971 
L 117.648755 258.767698 
L 116.736933 259.697762 
L 113.43832 262.158566 
L 112.795195 262.775394 
L 111.340777 263.689892 
L 110.015258 264.607655 
L 108.473791 266.144487 
L 106.082421 267.660278 
L 104.195536 269.492851 
L 102.281802 270.696689 
L 101.785786 271.307707 
L 101.34165 271.917821 
L 100.555116 272.519031 
L 98.609972 273.71292 
L 98.129496 274.319584 
L 97.74662 274.925928 
L 96.991626 275.522338 
L 94.994332 276.703533 
L 94.537286 277.305879 
L 94.03883 278.207453 
L 93.176057 278.793981 
L 91.745909 279.671495 
L 91.393272 280.270272 
L 91.274013 280.872158 
L 91.088415 281.169109 
L 90.222742 281.751378 
L 88.686034 282.620294 
L 88.437297 282.916756 
L 88.363697 283.518856 
L 88.371357 283.819599 
L 88.237808 284.116624 
L 87.910981 284.408582 
L 85.414182 285.852667 
L 85.372962 286.153417 
L 85.55372 287.057796 
L 85.261903 287.349457 
L 83.980773 287.916874 
L 82.744474 288.487443 
L 82.487366 288.782866 
L 82.518075 289.085641 
L 83.110601 289.998374 
L 82.833263 290.28896 
L 81.238026 290.847161 
L 79.707149 291.411358 
L 79.471661 291.709407 
L 79.678249 292.018793 
L 81.149277 292.946906 
L 80.75642 293.231103 
L 78.097612 293.765 
L 76.767513 294.037053 
L 76.150958 294.328343 
L 76.589634 294.640548 
L 78.473169 294.958421 
L 82.355927 295.245453 
L 90.538359 295.445058 
L 90.538359 295.445058 
" clip-path="url(#p8fe36aeaba)" style="fill: none; stroke: #1f77b4; stroke-width: 1.5; stroke-linecap: square"/>
   </g>
   <g id="line2d_38">
    <path d="M 85.915917 295.488 
L 89.470928 295.30517 
L 92.045407 294.843491 
L 93.142578 294.081026 
L 92.569122 293.037056 
L 90.506139 291.774221 
L 81.787781 287.730186 
L 80.671681 286.656606 
L 81.369005 285.829134 
L 83.894544 285.24015 
L 87.858581 284.831689 
L 97.174034 284.163268 
L 100.917703 283.694697 
L 103.263944 283.036137 
L 104.038098 282.166168 
L 103.443382 281.11193 
L 99.189048 277.603609 
L 98.999859 276.596549 
L 100.000431 275.753422 
L 102.102924 275.066677 
L 108.087304 273.964199 
L 110.97072 273.408854 
L 113.220492 272.765955 
L 114.64195 272.00027 
L 115.264795 271.108118 
L 115.310624 270.115592 
L 115.034057 268.025633 
L 115.347684 267.032848 
L 116.205707 266.124374 
L 117.604285 265.310686 
L 119.40718 264.579678 
L 125.029014 262.552166 
L 126.364993 261.814318 
L 127.328275 261.010898 
L 127.992229 260.143823 
L 129.593836 257.354528 
L 130.437679 256.445943 
L 131.54778 255.579639 
L 132.903609 254.760639 
L 136.042463 253.234722 
L 139.058628 251.747799 
L 140.306398 250.975414 
L 141.336389 250.169524 
L 142.171962 249.32889 
L 145.128008 245.815309 
L 146.183959 244.966388 
L 148.846742 243.353021 
L 153.159771 241.036044 
L 154.346032 240.244989 
L 155.342283 239.431354 
L 156.924505 237.74256 
L 158.503217 236.026563 
L 159.484389 235.183151 
L 161.930349 233.550401 
L 167.232895 230.381703 
L 169.243168 228.746349 
L 172.799349 225.415624 
L 175.009926 223.789759 
L 182.165276 218.953107 
L 185.112182 216.496828 
L 188.034243 214.061104 
L 190.243295 212.450464 
L 196.146493 208.42707 
L 198.095735 206.809294 
L 200.78849 204.383514 
L 202.909915 202.780817 
L 209.977155 198.001806 
L 214.574822 193.991104 
L 216.851115 192.419167 
L 220.403081 190.06384 
L 222.483075 188.470821 
L 227.37942 184.494742 
L 234.977674 178.906546 
L 246.409293 170.259955 
L 251.88442 166.325463 
L 257.833853 161.608282 
L 263.374045 157.69451 
L 269.204639 152.96988 
L 274.679506 149.082719 
L 280.536403 144.376026 
L 284.844857 141.284491 
L 291.911079 135.826975 
L 295.082393 133.510232 
L 301.092283 128.847911 
L 305.358433 125.76171 
L 311.294894 121.113404 
L 315.578458 118.042442 
L 322.499131 112.648686 
L 325.709555 110.363367 
L 333.701548 104.240398 
L 336.806653 101.968849 
L 341.563033 98.149317 
L 346.85805 94.385629 
L 351.466342 90.590432 
L 356.899357 86.855724 
L 362.416381 82.330579 
L 366.877934 79.370095 
L 368.59374 77.860752 
L 370.222416 76.344383 
L 372.25045 74.852259 
L 376.875401 71.913216 
L 378.543108 70.40716 
L 380.035415 68.887956 
L 380.949208 68.137398 
L 383.302788 66.667235 
L 385.883017 65.212334 
L 386.960068 64.47375 
L 387.794331 63.722169 
L 389.557107 61.430847 
L 390.431939 60.682871 
L 391.663619 59.952085 
L 396.300891 57.793322 
L 397.112064 57.046058 
L 396.959305 56.280224 
L 395.665766 55.516987 
L 393.303526 54.799341 
L 390.217421 54.188812 
L 386.975898 53.75629 
L 384.25418 53.568 
L 382.676283 53.668975 
L 382.654754 54.069579 
L 384.27201 54.737109 
L 387.237316 55.597092 
L 397.285433 58.232402 
L 398.487273 58.788741 
L 397.861548 59.097526 
L 395.510847 59.181689 
L 381.207346 58.982396 
L 379.852377 59.250813 
L 380.011246 59.725149 
L 381.403664 60.366942 
L 385.590549 61.843003 
L 387.108907 62.503574 
L 387.617483 63.024865 
L 386.970738 63.384011 
L 385.310052 63.597549 
L 378.371339 63.933117 
L 376.863232 64.158073 
L 376.159207 64.506276 
L 376.199387 64.975017 
L 378.085791 66.725802 
L 378.28045 67.259023 
L 377.949813 67.706598 
L 377.111219 68.062035 
L 374.535291 68.571723 
L 372.17259 69.044893 
L 371.460776 69.348908 
L 371.105079 69.7185 
L 371.03107 70.149982 
L 371.184818 71.123656 
L 371.125789 71.614255 
L 370.838221 72.075674 
L 370.287706 72.493505 
L 368.54698 73.193716 
L 365.746423 74.10225 
L 365.122369 74.437291 
L 364.710492 74.807062 
L 364.354555 75.643043 
L 364.066927 76.533163 
L 363.73613 76.962479 
L 363.218134 77.366941 
L 361.685887 78.094077 
L 359.203668 79.097479 
L 358.224196 79.831277 
L 357.771669 80.645187 
L 357.290983 81.482727 
L 356.869417 81.887441 
L 355.581488 82.646954 
L 352.616512 84.077439 
L 351.739519 84.839608 
L 350.510729 86.429219 
L 349.460768 87.192286 
L 345.65186 89.430753 
L 344.520089 90.592591 
L 343.764225 91.360807 
L 342.750684 92.115022 
L 339.200443 94.362756 
L 336.269047 97.002681 
L 333.259882 98.846709 
L 332.135161 99.975592 
L 331.380638 100.718485 
L 330.375786 101.443766 
L 327.50308 103.252502 
L 322.822348 106.880449 
L 320.271609 108.703496 
L 316.455111 111.581642 
L 313.769363 113.402516 
L 310.032914 116.303086 
L 307.944201 117.758378 
L 304.799827 120.306876 
L 302.738959 121.746317 
L 298.572339 124.999081 
L 296.177799 126.804935 
L 292.842081 129.323156 
L 283.221996 136.531857 
L 279.456312 139.39906 
L 230.808094 176.098157 
L 228.077902 178.144413 
L 221.322446 183.253428 
L 216.856681 186.640494 
L 206.729921 194.318709 
L 199.683189 199.564825 
L 193.633634 204.136562 
L 181.519452 213.271318 
L 175.630906 217.833758 
L 168.749877 223.014685 
L 165.807907 225.275933 
L 163.257123 227.20796 
L 157.753893 231.369006 
L 154.417386 233.909503 
L 140.307128 244.527999 
L 137.841808 246.38688 
L 132.950008 250.106009 
L 126.777779 254.744933 
L 120.028515 260.004929 
L 117.953342 261.53883 
L 116.017058 263.081307 
L 113.926096 264.607655 
L 112.011782 266.144487 
L 109.899509 267.660278 
L 108.004725 269.191648 
L 105.873522 270.696689 
L 104.038917 272.219676 
L 101.524618 274.015562 
L 100.08805 275.22558 
L 97.526301 277.003719 
L 96.156723 278.207453 
L 93.617404 279.969537 
L 92.316664 281.169109 
L 89.717906 282.916756 
L 88.590365 284.116624 
L 87.118817 284.981118 
L 86.171065 285.557103 
L 85.56608 286.153417 
L 84.765667 287.057796 
L 83.794085 287.634894 
L 82.193958 288.487443 
L 81.658443 289.085641 
L 81.350015 289.698522 
L 81.070297 289.998374 
L 80.019716 290.570546 
L 78.141712 291.411358 
L 77.845094 291.709407 
L 77.768615 292.018793 
L 77.833764 292.646274 
L 77.636356 292.946906 
L 77.10471 293.231103 
L 73.832727 294.328343 
L 74.279984 294.640548 
L 75.836801 294.958421 
L 78.512299 295.245453 
L 82.042479 295.445058 
L 82.042479 295.445058 
" clip-path="url(#p8fe36aeaba)" style="fill: none; stroke: #ff7f0e; stroke-opacity: 0.5; stroke-width: 1.5; stroke-linecap: square"/>
   </g>
   <g id="patch_3">
    <path d="M 57.6 307.584 
L 57.6 41.472 
" style="fill: none; stroke: #000000; stroke-width: 0.8; stroke-linejoin: miter; stroke-linecap: square"/>
   </g>
   <g id="patch_4">
    <path d="M 414.72 307.584 
L 414.72 41.472 
" style="fill: none; stroke: #000000; stroke-width: 0.8; stroke-linejoin: miter; stroke-linecap: square"/>
   </g>
   <g id="patch_5">
    <path d="M 57.6 307.584 
L 414.72 307.584 
" style="fill: none; stroke: #000000; stroke-width: 0.8; stroke-linejoin: miter; stroke-linecap: square"/>
   </g>
   <g id="patch_6">
    <path d="M 57.6 41.472 
L 414.72 41.472 
" style="fill: none; stroke: #000000; stroke-width: 0.8; stroke-linejoin: miter; stroke-linecap: square"/>
   </g>
   <g id="text_21">
    <!-- Compare - Epoch 800 -->
    <g transform="translate(171.234375 35.472) scale(0.12 -0.12)">
     <defs>
      <path id="DejaVuSans-43" d="M 4122 4306 
L 4122 3641 
Q 3803 3938 3442 4084 
Q 3081 4231 2675 4231 
Q 1875 4231 1450 3742 
Q 1025 3253 1025 2328 
Q 1025 1406 1450 917 
Q 1875 428 2675 428 
Q 3081 428 3442 575 
Q 3803 722 4122 1019 
L 4122 359 
Q 3791 134 3420 21 
Q 3050 -91 2638 -91 
Q 1578 -91 968 557 
Q 359 1206 359 2328 
Q 359 3453 968 4101 
Q 1578 4750 2638 4750 
Q 3056 4750 3426 4639 
Q 3797 4528 4122 4306 
z
" transform="scale(0.015625)"/>
      <path id="DejaVuSans-6f" d="M 1959 3097 
Q 1497 3097 1228 2736 
Q 959 2375 959 1747 
Q 959 1119 1226 758 
Q 1494 397 1959 397 
Q 2419 397 2687 759 
Q 2956 1122 2956 1747 
Q 2956 2369 2687 2733 
Q 2419 3097 1959 3097 
z
M 1959 3584 
Q 2709 3584 3137 3096 
Q 3566 2609 3566 1747 
Q 3566 888 3137 398 
Q 2709 -91 1959 -91 
Q 1206 -91 779 398 
Q 353 888 353 1747 
Q 353 2609 779 3096 
Q 1206 3584 1959 3584 
z
" transform="scale(0.015625)"/>
      <path id="DejaVuSans-6d" d="M 3328 2828 
Q 3544 3216 3844 3400 
Q 4144 3584 4550 3584 
Q 5097 3584 5394 3201 
Q 5691 2819 5691 2113 
L 5691 0 
L 5113 0 
L 5113 2094 
Q 5113 2597 4934 2840 
Q 4756 3084 4391 3084 
Q 3944 3084 3684 2787 
Q 3425 2491 3425 1978 
L 3425 0 
L 2847 0 
L 2847 2094 
Q 2847 2600 2669 2842 
Q 2491 3084 2119 3084 
Q 1678 3084 1418 2786 
Q 1159 2488 1159 1978 
L 1159 0 
L 581 0 
L 581 3500 
L 1159 3500 
L 1159 2956 
Q 1356 3278 1631 3431 
Q 1906 3584 2284 3584 
Q 2666 3584 2933 3390 
Q 3200 3197 3328 2828 
z
" transform="scale(0.015625)"/>
      <path id="DejaVuSans-70" d="M 1159 525 
L 1159 -1331 
L 581 -1331 
L 581 3500 
L 1159 3500 
L 1159 2969 
Q 1341 3281 1617 3432 
Q 1894 3584 2278 3584 
Q 2916 3584 3314 3078 
Q 3713 2572 3713 1747 
Q 3713 922 3314 415 
Q 2916 -91 2278 -91 
Q 1894 -91 1617 61 
Q 1341 213 1159 525 
z
M 3116 1747 
Q 3116 2381 2855 2742 
Q 2594 3103 2138 3103 
Q 1681 3103 1420 2742 
Q 1159 2381 1159 1747 
Q 1159 1113 1420 752 
Q 1681 391 2138 391 
Q 2594 391 2855 752 
Q 3116 1113 3116 1747 
z
" transform="scale(0.015625)"/>
      <path id="DejaVuSans-72" d="M 2631 2963 
Q 2534 3019 2420 3045 
Q 2306 3072 2169 3072 
Q 1681 3072 1420 2755 
Q 1159 2438 1159 1844 
L 1159 0 
L 581 0 
L 581 3500 
L 1159 3500 
L 1159 2956 
Q 1341 3275 1631 3429 
Q 1922 3584 2338 3584 
Q 2397 3584 2469 3576 
Q 2541 3569 2628 3553 
L 2631 2963 
z
" transform="scale(0.015625)"/>
      <path id="DejaVuSans-20" transform="scale(0.015625)"/>
      <path id="DejaVuSans-2d" d="M 313 2009 
L 1997 2009 
L 1997 1497 
L 313 1497 
L 313 2009 
z
" transform="scale(0.015625)"/>
      <path id="DejaVuSans-45" d="M 628 4666 
L 3578 4666 
L 3578 4134 
L 1259 4134 
L 1259 2753 
L 3481 2753 
L 3481 2222 
L 1259 2222 
L 1259 531 
L 3634 531 
L 3634 0 
L 628 0 
L 628 4666 
z
" transform="scale(0.015625)"/>
      <path id="DejaVuSans-63" d="M 3122 3366 
L 3122 2828 
Q 2878 2963 2633 3030 
Q 2388 3097 2138 3097 
Q 1578 3097 1268 2742 
Q 959 2388 959 1747 
Q 959 1106 1268 751 
Q 1578 397 2138 397 
Q 2388 397 2633 464 
Q 2878 531 3122 666 
L 3122 134 
Q 2881 22 2623 -34 
Q 2366 -91 2075 -91 
Q 1284 -91 818 406 
Q 353 903 353 1747 
Q 353 2603 823 3093 
Q 1294 3584 2113 3584 
Q 2378 3584 2631 3529 
Q 2884 3475 3122 3366 
z
" transform="scale(0.015625)"/>
      <path id="DejaVuSans-68" d="M 3513 2113 
L 3513 0 
L 2938 0 
L 2938 2094 
Q 2938 2591 2744 2837 
Q 2550 3084 2163 3084 
Q 1697 3084 1428 2787 
Q 1159 2491 1159 1978 
L 1159 0 
L 581 0 
L 581 4863 
L 1159 4863 
L 1159 2956 
Q 1366 3272 1645 3428 
Q 1925 3584 2291 3584 
Q 2894 3584 3203 3211 
Q 3513 2838 3513 2113 
z
" transform="scale(0.015625)"/>
      <path id="DejaVuSans-38" d="M 2034 2216 
Q 1584 2216 1326 1975 
Q 1069 1734 1069 1313 
Q 1069 891 1326 650 
Q 1584 409 2034 409 
Q 2484 409 2743 651 
Q 3003 894 3003 1313 
Q 3003 1734 2745 1975 
Q 2488 2216 2034 2216 
z
M 1403 2484 
Q 997 2584 770 2862 
Q 544 3141 544 3541 
Q 544 4100 942 4425 
Q 1341 4750 2034 4750 
Q 2731 4750 3128 4425 
Q 3525 4100 3525 3541 
Q 3525 3141 3298 2862 
Q 3072 2584 2669 2484 
Q 3125 2378 3379 2068 
Q 3634 1759 3634 1313 
Q 3634 634 3220 271 
Q 2806 -91 2034 -91 
Q 1263 -91 848 271 
Q 434 634 434 1313 
Q 434 1759 690 2068 
Q 947 2378 1403 2484 
z
M 1172 3481 
Q 1172 3119 1398 2916 
Q 1625 2713 2034 2713 
Q 2441 2713 2670 2916 
Q 2900 3119 2900 3481 
Q 2900 3844 2670 4047 
Q 2441 4250 2034 4250 
Q 1625 4250 1398 4047 
Q 1172 3844 1172 3481 
z
" transform="scale(0.015625)"/>
     </defs>
     <use xlink:href="#DejaVuSans-43"/>
     <use xlink:href="#DejaVuSans-6f" transform="translate(69.824219 0)"/>
     <use xlink:href="#DejaVuSans-6d" transform="translate(131.005859 0)"/>
     <use xlink:href="#DejaVuSans-70" transform="translate(228.417969 0)"/>
     <use xlink:href="#DejaVuSans-61" transform="translate(291.894531 0)"/>
     <use xlink:href="#DejaVuSans-72" transform="translate(353.173828 0)"/>
     <use xlink:href="#DejaVuSans-65" transform="translate(392.037109 0)"/>
     <use xlink:href="#DejaVuSans-20" transform="translate(453.560547 0)"/>
     <use xlink:href="#DejaVuSans-2d" transform="translate(485.347656 0)"/>
     <use xlink:href="#DejaVuSans-20" transform="translate(521.431641 0)"/>
     <use xlink:href="#DejaVuSans-45" transform="translate(553.21875 0)"/>
     <use xlink:href="#DejaVuSans-70" transform="translate(616.402344 0)"/>
     <use xlink:href="#DejaVuSans-6f" transform="translate(679.878906 0)"/>
     <use xlink:href="#DejaVuSans-63" transform="translate(741.060547 0)"/>
     <use xlink:href="#DejaVuSans-68" transform="translate(796.041016 0)"/>
     <use xlink:href="#DejaVuSans-20" transform="translate(859.419922 0)"/>
     <use xlink:href="#DejaVuSans-38" transform="translate(891.207031 0)"/>
     <use xlink:href="#DejaVuSans-30" transform="translate(954.830078 0)"/>
     <use xlink:href="#DejaVuSans-30" transform="translate(1018.453125 0)"/>
    </g>
   </g>
   <g id="legend_1">
    <g id="patch_7">
     <path d="M 64.6 78.82825 
L 181.128125 78.82825 
Q 183.128125 78.82825 183.128125 76.82825 
L 183.128125 48.472 
Q 183.128125 46.472 181.128125 46.472 
L 64.6 46.472 
Q 62.6 46.472 62.6 48.472 
L 62.6 76.82825 
Q 62.6 78.82825 64.6 78.82825 
z
" style="fill: #ffffff; opacity: 0.8; stroke: #cccccc; stroke-linejoin: miter"/>
    </g>
    <g id="line2d_39">
     <path d="M 66.6 54.570437 
L 76.6 54.570437 
L 86.6 54.570437 
" style="fill: none; stroke: #1f77b4; stroke-width: 1.5; stroke-linecap: square"/>
    </g>
    <g id="text_22">
     <!-- Pred: Sample 1 -->
     <g transform="translate(94.6 58.070437) scale(0.1 -0.1)">
      <defs>
       <path id="DejaVuSans-50" d="M 1259 4147 
L 1259 2394 
L 2053 2394 
Q 2494 2394 2734 2622 
Q 2975 2850 2975 3272 
Q 2975 3691 2734 3919 
Q 2494 4147 2053 4147 
L 1259 4147 
z
M 628 4666 
L 2053 4666 
Q 2838 4666 3239 4311 
Q 3641 3956 3641 3272 
Q 3641 2581 3239 2228 
Q 2838 1875 2053 1875 
L 1259 1875 
L 1259 0 
L 628 0 
L 628 4666 
z
" transform="scale(0.015625)"/>
       <path id="DejaVuSans-3a" d="M 750 794 
L 1409 794 
L 1409 0 
L 750 0 
L 750 794 
z
M 750 3309 
L 1409 3309 
L 1409 2516 
L 750 2516 
L 750 3309 
z
" transform="scale(0.015625)"/>
       <path id="DejaVuSans-53" d="M 3425 4513 
L 3425 3897 
Q 3066 4069 2747 4153 
Q 2428 4238 2131 4238 
Q 1616 4238 1336 4038 
Q 1056 3838 1056 3469 
Q 1056 3159 1242 3001 
Q 1428 2844 1947 2747 
L 2328 2669 
Q 3034 2534 3370 2195 
Q 3706 1856 3706 1288 
Q 3706 609 3251 259 
Q 2797 -91 1919 -91 
Q 1588 -91 1214 -16 
Q 841 59 441 206 
L 441 856 
Q 825 641 1194 531 
Q 1563 422 1919 422 
Q 2459 422 2753 634 
Q 3047 847 3047 1241 
Q 3047 1584 2836 1778 
Q 2625 1972 2144 2069 
L 1759 2144 
Q 1053 2284 737 2584 
Q 422 2884 422 3419 
Q 422 4038 858 4394 
Q 1294 4750 2059 4750 
Q 2388 4750 2728 4690 
Q 3069 4631 3425 4513 
z
" transform="scale(0.015625)"/>
      </defs>
      <use xlink:href="#DejaVuSans-50"/>
      <use xlink:href="#DejaVuSans-72" transform="translate(58.552734 0)"/>
      <use xlink:href="#DejaVuSans-65" transform="translate(97.416016 0)"/>
      <use xlink:href="#DejaVuSans-64" transform="translate(158.939453 0)"/>
      <use xlink:href="#DejaVuSans-3a" transform="translate(222.416016 0)"/>
      <use xlink:href="#DejaVuSans-20" transform="translate(256.107422 0)"/>
      <use xlink:href="#DejaVuSans-53" transform="translate(287.894531 0)"/>
      <use xlink:href="#DejaVuSans-61" transform="translate(351.371094 0)"/>
      <use xlink:href="#DejaVuSans-6d" transform="translate(412.650391 0)"/>
      <use xlink:href="#DejaVuSans-70" transform="translate(510.0625 0)"/>
      <use xlink:href="#DejaVuSans-6c" transform="translate(573.539062 0)"/>
      <use xlink:href="#DejaVuSans-65" transform="translate(601.322266 0)"/>
      <use xlink:href="#DejaVuSans-20" transform="translate(662.845703 0)"/>
      <use xlink:href="#DejaVuSans-31" transform="translate(694.632812 0)"/>
     </g>
    </g>
    <g id="line2d_40">
     <path d="M 66.6 69.248562 
L 76.6 69.248562 
L 86.6 69.248562 
" style="fill: none; stroke: #ff7f0e; stroke-opacity: 0.5; stroke-width: 1.5; stroke-linecap: square"/>
    </g>
    <g id="text_23">
     <!-- Target: Sample 1 -->
     <g transform="translate(94.6 72.748562) scale(0.1 -0.1)">
      <defs>
       <path id="DejaVuSans-54" d="M -19 4666 
L 3928 4666 
L 3928 4134 
L 2272 4134 
L 2272 0 
L 1638 0 
L 1638 4134 
L -19 4134 
L -19 4666 
z
" transform="scale(0.015625)"/>
       <path id="DejaVuSans-67" d="M 2906 1791 
Q 2906 2416 2648 2759 
Q 2391 3103 1925 3103 
Q 1463 3103 1205 2759 
Q 947 2416 947 1791 
Q 947 1169 1205 825 
Q 1463 481 1925 481 
Q 2391 481 2648 825 
Q 2906 1169 2906 1791 
z
M 3481 434 
Q 3481 -459 3084 -895 
Q 2688 -1331 1869 -1331 
Q 1566 -1331 1297 -1286 
Q 1028 -1241 775 -1147 
L 775 -588 
Q 1028 -725 1275 -790 
Q 1522 -856 1778 -856 
Q 2344 -856 2625 -561 
Q 2906 -266 2906 331 
L 2906 616 
Q 2728 306 2450 153 
Q 2172 0 1784 0 
Q 1141 0 747 490 
Q 353 981 353 1791 
Q 353 2603 747 3093 
Q 1141 3584 1784 3584 
Q 2172 3584 2450 3431 
Q 2728 3278 2906 2969 
L 2906 3500 
L 3481 3500 
L 3481 434 
z
" transform="scale(0.015625)"/>
       <path id="DejaVuSans-74" d="M 1172 4494 
L 1172 3500 
L 2356 3500 
L 2356 3053 
L 1172 3053 
L 1172 1153 
Q 1172 725 1289 603 
Q 1406 481 1766 481 
L 2356 481 
L 2356 0 
L 1766 0 
Q 1100 0 847 248 
Q 594 497 594 1153 
L 594 3053 
L 172 3053 
L 172 3500 
L 594 3500 
L 594 4494 
L 1172 4494 
z
" transform="scale(0.015625)"/>
      </defs>
      <use xlink:href="#DejaVuSans-54"/>
      <use xlink:href="#DejaVuSans-61" transform="translate(44.583984 0)"/>
      <use xlink:href="#DejaVuSans-72" transform="translate(105.863281 0)"/>
      <use xlink:href="#DejaVuSans-67" transform="translate(145.226562 0)"/>
      <use xlink:href="#DejaVuSans-65" transform="translate(208.703125 0)"/>
      <use xlink:href="#DejaVuSans-74" transform="translate(270.226562 0)"/>
      <use xlink:href="#DejaVuSans-3a" transform="translate(309.435547 0)"/>
      <use xlink:href="#DejaVuSans-20" transform="translate(343.126953 0)"/>
      <use xlink:href="#DejaVuSans-53" transform="translate(374.914062 0)"/>
      <use xlink:href="#DejaVuSans-61" transform="translate(438.390625 0)"/>
      <use xlink:href="#DejaVuSans-6d" transform="translate(499.669922 0)"/>
      <use xlink:href="#DejaVuSans-70" transform="translate(597.082031 0)"/>
      <use xlink:href="#DejaVuSans-6c" transform="translate(660.558594 0)"/>
      <use xlink:href="#DejaVuSans-65" transform="translate(688.341797 0)"/>
      <use xlink:href="#DejaVuSans-20" transform="translate(749.865234 0)"/>
      <use xlink:href="#DejaVuSans-31" transform="translate(781.652344 0)"/>
     </g>
    </g>
   </g>
  </g>
 </g>
 <defs>
  <clipPath id="p8fe36aeaba">
   <rect x="57.6" y="41.472" width="357.12" height="266.112"/>
  </clipPath>
 </defs>
</svg>
