<?xml version="1.0" encoding="utf-8" standalone="no"?>
<!DOCTYPE svg PUBLIC "-//W3C//DTD SVG 1.1//EN"
  "http://www.w3.org/Graphics/SVG/1.1/DTD/svg11.dtd">
<svg xmlns:xlink="http://www.w3.org/1999/xlink" width="460.8pt" height="345.6pt" viewBox="0 0 460.8 345.6" xmlns="http://www.w3.org/2000/svg" version="1.1">
 <metadata>
  <rdf:RDF xmlns:dc="http://purl.org/dc/elements/1.1/" xmlns:cc="http://creativecommons.org/ns#" xmlns:rdf="http://www.w3.org/1999/02/22-rdf-syntax-ns#">
   <cc:Work>
    <dc:type rdf:resource="http://purl.org/dc/dcmitype/StillImage"/>
    <dc:date>2025-07-23T13:42:23.611463</dc:date>
    <dc:format>image/svg+xml</dc:format>
    <dc:creator>
     <cc:Agent>
      <dc:title>Matplotlib v3.10.3, https://matplotlib.org/</dc:title>
     </cc:Agent>
    </dc:creator>
   </cc:Work>
  </rdf:RDF>
 </metadata>
 <defs>
  <style type="text/css">*{stroke-linejoin: round; stroke-linecap: butt}</style>
 </defs>
 <g id="figure_1">
  <g id="patch_1">
   <path d="M 0 345.6 
L 460.8 345.6 
L 460.8 0 
L 0 0 
z
" style="fill: #ffffff"/>
  </g>
  <g id="axes_1">
   <g id="patch_2">
    <path d="M 57.6 307.584 
L 414.72 307.584 
L 414.72 41.472 
L 57.6 41.472 
z
" style="fill: #ffffff"/>
   </g>
   <g id="matplotlib.axis_1">
    <g id="xtick_1">
     <g id="line2d_1">
      <path d="M 63.011188 307.584 
L 63.011188 41.472 
" clip-path="url(#pfafc6f7317)" style="fill: none; stroke: #b0b0b0; stroke-opacity: 0.5; stroke-width: 0.8; stroke-linecap: square"/>
     </g>
     <g id="line2d_2">
      <defs>
       <path id="ma9a58a5bcb" d="M 0 0 
L 0 3.5 
" style="stroke: #000000; stroke-width: 0.8"/>
      </defs>
      <g>
       <use xlink:href="#ma9a58a5bcb" x="63.011188" y="307.584" style="stroke: #000000; stroke-width: 0.8"/>
      </g>
     </g>
     <g id="text_1">
      <!-- −1.00 -->
      <g transform="translate(47.688532 322.182437) scale(0.1 -0.1)">
       <defs>
        <path id="DejaVuSans-2212" d="M 678 2272 
L 4684 2272 
L 4684 1741 
L 678 1741 
L 678 2272 
z
" transform="scale(0.015625)"/>
        <path id="DejaVuSans-31" d="M 794 531 
L 1825 531 
L 1825 4091 
L 703 3866 
L 703 4441 
L 1819 4666 
L 2450 4666 
L 2450 531 
L 3481 531 
L 3481 0 
L 794 0 
L 794 531 
z
" transform="scale(0.015625)"/>
        <path id="DejaVuSans-2e" d="M 684 794 
L 1344 794 
L 1344 0 
L 684 0 
L 684 794 
z
" transform="scale(0.015625)"/>
        <path id="DejaVuSans-30" d="M 2034 4250 
Q 1547 4250 1301 3770 
Q 1056 3291 1056 2328 
Q 1056 1369 1301 889 
Q 1547 409 2034 409 
Q 2525 409 2770 889 
Q 3016 1369 3016 2328 
Q 3016 3291 2770 3770 
Q 2525 4250 2034 4250 
z
M 2034 4750 
Q 2819 4750 3233 4129 
Q 3647 3509 3647 2328 
Q 3647 1150 3233 529 
Q 2819 -91 2034 -91 
Q 1250 -91 836 529 
Q 422 1150 422 2328 
Q 422 3509 836 4129 
Q 1250 4750 2034 4750 
z
" transform="scale(0.015625)"/>
       </defs>
       <use xlink:href="#DejaVuSans-2212"/>
       <use xlink:href="#DejaVuSans-31" transform="translate(83.789062 0)"/>
       <use xlink:href="#DejaVuSans-2e" transform="translate(147.412109 0)"/>
       <use xlink:href="#DejaVuSans-30" transform="translate(179.199219 0)"/>
       <use xlink:href="#DejaVuSans-30" transform="translate(242.822266 0)"/>
      </g>
     </g>
    </g>
    <g id="xtick_2">
     <g id="line2d_3">
      <path d="M 104.945699 307.584 
L 104.945699 41.472 
" clip-path="url(#pfafc6f7317)" style="fill: none; stroke: #b0b0b0; stroke-opacity: 0.5; stroke-width: 0.8; stroke-linecap: square"/>
     </g>
     <g id="line2d_4">
      <g>
       <use xlink:href="#ma9a58a5bcb" x="104.945699" y="307.584" style="stroke: #000000; stroke-width: 0.8"/>
      </g>
     </g>
     <g id="text_2">
      <!-- −0.75 -->
      <g transform="translate(89.623043 322.182437) scale(0.1 -0.1)">
       <defs>
        <path id="DejaVuSans-37" d="M 525 4666 
L 3525 4666 
L 3525 4397 
L 1831 0 
L 1172 0 
L 2766 4134 
L 525 4134 
L 525 4666 
z
" transform="scale(0.015625)"/>
        <path id="DejaVuSans-35" d="M 691 4666 
L 3169 4666 
L 3169 4134 
L 1269 4134 
L 1269 2991 
Q 1406 3038 1543 3061 
Q 1681 3084 1819 3084 
Q 2600 3084 3056 2656 
Q 3513 2228 3513 1497 
Q 3513 744 3044 326 
Q 2575 -91 1722 -91 
Q 1428 -91 1123 -41 
Q 819 9 494 109 
L 494 744 
Q 775 591 1075 516 
Q 1375 441 1709 441 
Q 2250 441 2565 725 
Q 2881 1009 2881 1497 
Q 2881 1984 2565 2268 
Q 2250 2553 1709 2553 
Q 1456 2553 1204 2497 
Q 953 2441 691 2322 
L 691 4666 
z
" transform="scale(0.015625)"/>
       </defs>
       <use xlink:href="#DejaVuSans-2212"/>
       <use xlink:href="#DejaVuSans-30" transform="translate(83.789062 0)"/>
       <use xlink:href="#DejaVuSans-2e" transform="translate(147.412109 0)"/>
       <use xlink:href="#DejaVuSans-37" transform="translate(179.199219 0)"/>
       <use xlink:href="#DejaVuSans-35" transform="translate(242.822266 0)"/>
      </g>
     </g>
    </g>
    <g id="xtick_3">
     <g id="line2d_5">
      <path d="M 146.880209 307.584 
L 146.880209 41.472 
" clip-path="url(#pfafc6f7317)" style="fill: none; stroke: #b0b0b0; stroke-opacity: 0.5; stroke-width: 0.8; stroke-linecap: square"/>
     </g>
     <g id="line2d_6">
      <g>
       <use xlink:href="#ma9a58a5bcb" x="146.880209" y="307.584" style="stroke: #000000; stroke-width: 0.8"/>
      </g>
     </g>
     <g id="text_3">
      <!-- −0.50 -->
      <g transform="translate(131.557553 322.182437) scale(0.1 -0.1)">
       <use xlink:href="#DejaVuSans-2212"/>
       <use xlink:href="#DejaVuSans-30" transform="translate(83.789062 0)"/>
       <use xlink:href="#DejaVuSans-2e" transform="translate(147.412109 0)"/>
       <use xlink:href="#DejaVuSans-35" transform="translate(179.199219 0)"/>
       <use xlink:href="#DejaVuSans-30" transform="translate(242.822266 0)"/>
      </g>
     </g>
    </g>
    <g id="xtick_4">
     <g id="line2d_7">
      <path d="M 188.81472 307.584 
L 188.81472 41.472 
" clip-path="url(#pfafc6f7317)" style="fill: none; stroke: #b0b0b0; stroke-opacity: 0.5; stroke-width: 0.8; stroke-linecap: square"/>
     </g>
     <g id="line2d_8">
      <g>
       <use xlink:href="#ma9a58a5bcb" x="188.81472" y="307.584" style="stroke: #000000; stroke-width: 0.8"/>
      </g>
     </g>
     <g id="text_4">
      <!-- −0.25 -->
      <g transform="translate(173.492064 322.182437) scale(0.1 -0.1)">
       <defs>
        <path id="DejaVuSans-32" d="M 1228 531 
L 3431 531 
L 3431 0 
L 469 0 
L 469 531 
Q 828 903 1448 1529 
Q 2069 2156 2228 2338 
Q 2531 2678 2651 2914 
Q 2772 3150 2772 3378 
Q 2772 3750 2511 3984 
Q 2250 4219 1831 4219 
Q 1534 4219 1204 4116 
Q 875 4013 500 3803 
L 500 4441 
Q 881 4594 1212 4672 
Q 1544 4750 1819 4750 
Q 2544 4750 2975 4387 
Q 3406 4025 3406 3419 
Q 3406 3131 3298 2873 
Q 3191 2616 2906 2266 
Q 2828 2175 2409 1742 
Q 1991 1309 1228 531 
z
" transform="scale(0.015625)"/>
       </defs>
       <use xlink:href="#DejaVuSans-2212"/>
       <use xlink:href="#DejaVuSans-30" transform="translate(83.789062 0)"/>
       <use xlink:href="#DejaVuSans-2e" transform="translate(147.412109 0)"/>
       <use xlink:href="#DejaVuSans-32" transform="translate(179.199219 0)"/>
       <use xlink:href="#DejaVuSans-35" transform="translate(242.822266 0)"/>
      </g>
     </g>
    </g>
    <g id="xtick_5">
     <g id="line2d_9">
      <path d="M 230.749231 307.584 
L 230.749231 41.472 
" clip-path="url(#pfafc6f7317)" style="fill: none; stroke: #b0b0b0; stroke-opacity: 0.5; stroke-width: 0.8; stroke-linecap: square"/>
     </g>
     <g id="line2d_10">
      <g>
       <use xlink:href="#ma9a58a5bcb" x="230.749231" y="307.584" style="stroke: #000000; stroke-width: 0.8"/>
      </g>
     </g>
     <g id="text_5">
      <!-- 0.00 -->
      <g transform="translate(219.616418 322.182437) scale(0.1 -0.1)">
       <use xlink:href="#DejaVuSans-30"/>
       <use xlink:href="#DejaVuSans-2e" transform="translate(63.623047 0)"/>
       <use xlink:href="#DejaVuSans-30" transform="translate(95.410156 0)"/>
       <use xlink:href="#DejaVuSans-30" transform="translate(159.033203 0)"/>
      </g>
     </g>
    </g>
    <g id="xtick_6">
     <g id="line2d_11">
      <path d="M 272.683741 307.584 
L 272.683741 41.472 
" clip-path="url(#pfafc6f7317)" style="fill: none; stroke: #b0b0b0; stroke-opacity: 0.5; stroke-width: 0.8; stroke-linecap: square"/>
     </g>
     <g id="line2d_12">
      <g>
       <use xlink:href="#ma9a58a5bcb" x="272.683741" y="307.584" style="stroke: #000000; stroke-width: 0.8"/>
      </g>
     </g>
     <g id="text_6">
      <!-- 0.25 -->
      <g transform="translate(261.550929 322.182437) scale(0.1 -0.1)">
       <use xlink:href="#DejaVuSans-30"/>
       <use xlink:href="#DejaVuSans-2e" transform="translate(63.623047 0)"/>
       <use xlink:href="#DejaVuSans-32" transform="translate(95.410156 0)"/>
       <use xlink:href="#DejaVuSans-35" transform="translate(159.033203 0)"/>
      </g>
     </g>
    </g>
    <g id="xtick_7">
     <g id="line2d_13">
      <path d="M 314.618252 307.584 
L 314.618252 41.472 
" clip-path="url(#pfafc6f7317)" style="fill: none; stroke: #b0b0b0; stroke-opacity: 0.5; stroke-width: 0.8; stroke-linecap: square"/>
     </g>
     <g id="line2d_14">
      <g>
       <use xlink:href="#ma9a58a5bcb" x="314.618252" y="307.584" style="stroke: #000000; stroke-width: 0.8"/>
      </g>
     </g>
     <g id="text_7">
      <!-- 0.50 -->
      <g transform="translate(303.485439 322.182437) scale(0.1 -0.1)">
       <use xlink:href="#DejaVuSans-30"/>
       <use xlink:href="#DejaVuSans-2e" transform="translate(63.623047 0)"/>
       <use xlink:href="#DejaVuSans-35" transform="translate(95.410156 0)"/>
       <use xlink:href="#DejaVuSans-30" transform="translate(159.033203 0)"/>
      </g>
     </g>
    </g>
    <g id="xtick_8">
     <g id="line2d_15">
      <path d="M 356.552762 307.584 
L 356.552762 41.472 
" clip-path="url(#pfafc6f7317)" style="fill: none; stroke: #b0b0b0; stroke-opacity: 0.5; stroke-width: 0.8; stroke-linecap: square"/>
     </g>
     <g id="line2d_16">
      <g>
       <use xlink:href="#ma9a58a5bcb" x="356.552762" y="307.584" style="stroke: #000000; stroke-width: 0.8"/>
      </g>
     </g>
     <g id="text_8">
      <!-- 0.75 -->
      <g transform="translate(345.41995 322.182437) scale(0.1 -0.1)">
       <use xlink:href="#DejaVuSans-30"/>
       <use xlink:href="#DejaVuSans-2e" transform="translate(63.623047 0)"/>
       <use xlink:href="#DejaVuSans-37" transform="translate(95.410156 0)"/>
       <use xlink:href="#DejaVuSans-35" transform="translate(159.033203 0)"/>
      </g>
     </g>
    </g>
    <g id="xtick_9">
     <g id="line2d_17">
      <path d="M 398.487273 307.584 
L 398.487273 41.472 
" clip-path="url(#pfafc6f7317)" style="fill: none; stroke: #b0b0b0; stroke-opacity: 0.5; stroke-width: 0.8; stroke-linecap: square"/>
     </g>
     <g id="line2d_18">
      <g>
       <use xlink:href="#ma9a58a5bcb" x="398.487273" y="307.584" style="stroke: #000000; stroke-width: 0.8"/>
      </g>
     </g>
     <g id="text_9">
      <!-- 1.00 -->
      <g transform="translate(387.35446 322.182437) scale(0.1 -0.1)">
       <use xlink:href="#DejaVuSans-31"/>
       <use xlink:href="#DejaVuSans-2e" transform="translate(63.623047 0)"/>
       <use xlink:href="#DejaVuSans-30" transform="translate(95.410156 0)"/>
       <use xlink:href="#DejaVuSans-30" transform="translate(159.033203 0)"/>
      </g>
     </g>
    </g>
    <g id="text_10">
     <!-- Index -->
     <g transform="translate(222.393594 335.860562) scale(0.1 -0.1)">
      <defs>
       <path id="DejaVuSans-49" d="M 628 4666 
L 1259 4666 
L 1259 0 
L 628 0 
L 628 4666 
z
" transform="scale(0.015625)"/>
       <path id="DejaVuSans-6e" d="M 3513 2113 
L 3513 0 
L 2938 0 
L 2938 2094 
Q 2938 2591 2744 2837 
Q 2550 3084 2163 3084 
Q 1697 3084 1428 2787 
Q 1159 2491 1159 1978 
L 1159 0 
L 581 0 
L 581 3500 
L 1159 3500 
L 1159 2956 
Q 1366 3272 1645 3428 
Q 1925 3584 2291 3584 
Q 2894 3584 3203 3211 
Q 3513 2838 3513 2113 
z
" transform="scale(0.015625)"/>
       <path id="DejaVuSans-64" d="M 2906 2969 
L 2906 4863 
L 3481 4863 
L 3481 0 
L 2906 0 
L 2906 525 
Q 2725 213 2448 61 
Q 2172 -91 1784 -91 
Q 1150 -91 751 415 
Q 353 922 353 1747 
Q 353 2572 751 3078 
Q 1150 3584 1784 3584 
Q 2172 3584 2448 3432 
Q 2725 3281 2906 2969 
z
M 947 1747 
Q 947 1113 1208 752 
Q 1469 391 1925 391 
Q 2381 391 2643 752 
Q 2906 1113 2906 1747 
Q 2906 2381 2643 2742 
Q 2381 3103 1925 3103 
Q 1469 3103 1208 2742 
Q 947 2381 947 1747 
z
" transform="scale(0.015625)"/>
       <path id="DejaVuSans-65" d="M 3597 1894 
L 3597 1613 
L 953 1613 
Q 991 1019 1311 708 
Q 1631 397 2203 397 
Q 2534 397 2845 478 
Q 3156 559 3463 722 
L 3463 178 
Q 3153 47 2828 -22 
Q 2503 -91 2169 -91 
Q 1331 -91 842 396 
Q 353 884 353 1716 
Q 353 2575 817 3079 
Q 1281 3584 2069 3584 
Q 2775 3584 3186 3129 
Q 3597 2675 3597 1894 
z
M 3022 2063 
Q 3016 2534 2758 2815 
Q 2500 3097 2075 3097 
Q 1594 3097 1305 2825 
Q 1016 2553 972 2059 
L 3022 2063 
z
" transform="scale(0.015625)"/>
       <path id="DejaVuSans-78" d="M 3513 3500 
L 2247 1797 
L 3578 0 
L 2900 0 
L 1881 1375 
L 863 0 
L 184 0 
L 1544 1831 
L 300 3500 
L 978 3500 
L 1906 2253 
L 2834 3500 
L 3513 3500 
z
" transform="scale(0.015625)"/>
      </defs>
      <use xlink:href="#DejaVuSans-49"/>
      <use xlink:href="#DejaVuSans-6e" transform="translate(29.492188 0)"/>
      <use xlink:href="#DejaVuSans-64" transform="translate(92.871094 0)"/>
      <use xlink:href="#DejaVuSans-65" transform="translate(156.347656 0)"/>
      <use xlink:href="#DejaVuSans-78" transform="translate(216.121094 0)"/>
     </g>
    </g>
   </g>
   <g id="matplotlib.axis_2">
    <g id="ytick_1">
     <g id="line2d_19">
      <path d="M 57.6 302.513077 
L 414.72 302.513077 
" clip-path="url(#pfafc6f7317)" style="fill: none; stroke: #b0b0b0; stroke-opacity: 0.5; stroke-width: 0.8; stroke-linecap: square"/>
     </g>
     <g id="line2d_20">
      <defs>
       <path id="m511bb8779b" d="M 0 0 
L -3.5 0 
" style="stroke: #000000; stroke-width: 0.8"/>
      </defs>
      <g>
       <use xlink:href="#m511bb8779b" x="57.6" y="302.513077" style="stroke: #000000; stroke-width: 0.8"/>
      </g>
     </g>
     <g id="text_11">
      <!-- −1.00 -->
      <g transform="translate(19.954687 306.312296) scale(0.1 -0.1)">
       <use xlink:href="#DejaVuSans-2212"/>
       <use xlink:href="#DejaVuSans-31" transform="translate(83.789062 0)"/>
       <use xlink:href="#DejaVuSans-2e" transform="translate(147.412109 0)"/>
       <use xlink:href="#DejaVuSans-30" transform="translate(179.199219 0)"/>
       <use xlink:href="#DejaVuSans-30" transform="translate(242.822266 0)"/>
      </g>
     </g>
    </g>
    <g id="ytick_2">
     <g id="line2d_21">
      <path d="M 57.6 271.394927 
L 414.72 271.394927 
" clip-path="url(#pfafc6f7317)" style="fill: none; stroke: #b0b0b0; stroke-opacity: 0.5; stroke-width: 0.8; stroke-linecap: square"/>
     </g>
     <g id="line2d_22">
      <g>
       <use xlink:href="#m511bb8779b" x="57.6" y="271.394927" style="stroke: #000000; stroke-width: 0.8"/>
      </g>
     </g>
     <g id="text_12">
      <!-- −0.75 -->
      <g transform="translate(19.954687 275.194146) scale(0.1 -0.1)">
       <use xlink:href="#DejaVuSans-2212"/>
       <use xlink:href="#DejaVuSans-30" transform="translate(83.789062 0)"/>
       <use xlink:href="#DejaVuSans-2e" transform="translate(147.412109 0)"/>
       <use xlink:href="#DejaVuSans-37" transform="translate(179.199219 0)"/>
       <use xlink:href="#DejaVuSans-35" transform="translate(242.822266 0)"/>
      </g>
     </g>
    </g>
    <g id="ytick_3">
     <g id="line2d_23">
      <path d="M 57.6 240.276776 
L 414.72 240.276776 
" clip-path="url(#pfafc6f7317)" style="fill: none; stroke: #b0b0b0; stroke-opacity: 0.5; stroke-width: 0.8; stroke-linecap: square"/>
     </g>
     <g id="line2d_24">
      <g>
       <use xlink:href="#m511bb8779b" x="57.6" y="240.276776" style="stroke: #000000; stroke-width: 0.8"/>
      </g>
     </g>
     <g id="text_13">
      <!-- −0.50 -->
      <g transform="translate(19.954687 244.075995) scale(0.1 -0.1)">
       <use xlink:href="#DejaVuSans-2212"/>
       <use xlink:href="#DejaVuSans-30" transform="translate(83.789062 0)"/>
       <use xlink:href="#DejaVuSans-2e" transform="translate(147.412109 0)"/>
       <use xlink:href="#DejaVuSans-35" transform="translate(179.199219 0)"/>
       <use xlink:href="#DejaVuSans-30" transform="translate(242.822266 0)"/>
      </g>
     </g>
    </g>
    <g id="ytick_4">
     <g id="line2d_25">
      <path d="M 57.6 209.158626 
L 414.72 209.158626 
" clip-path="url(#pfafc6f7317)" style="fill: none; stroke: #b0b0b0; stroke-opacity: 0.5; stroke-width: 0.8; stroke-linecap: square"/>
     </g>
     <g id="line2d_26">
      <g>
       <use xlink:href="#m511bb8779b" x="57.6" y="209.158626" style="stroke: #000000; stroke-width: 0.8"/>
      </g>
     </g>
     <g id="text_14">
      <!-- −0.25 -->
      <g transform="translate(19.954687 212.957845) scale(0.1 -0.1)">
       <use xlink:href="#DejaVuSans-2212"/>
       <use xlink:href="#DejaVuSans-30" transform="translate(83.789062 0)"/>
       <use xlink:href="#DejaVuSans-2e" transform="translate(147.412109 0)"/>
       <use xlink:href="#DejaVuSans-32" transform="translate(179.199219 0)"/>
       <use xlink:href="#DejaVuSans-35" transform="translate(242.822266 0)"/>
      </g>
     </g>
    </g>
    <g id="ytick_5">
     <g id="line2d_27">
      <path d="M 57.6 178.040476 
L 414.72 178.040476 
" clip-path="url(#pfafc6f7317)" style="fill: none; stroke: #b0b0b0; stroke-opacity: 0.5; stroke-width: 0.8; stroke-linecap: square"/>
     </g>
     <g id="line2d_28">
      <g>
       <use xlink:href="#m511bb8779b" x="57.6" y="178.040476" style="stroke: #000000; stroke-width: 0.8"/>
      </g>
     </g>
     <g id="text_15">
      <!-- 0.00 -->
      <g transform="translate(28.334375 181.839694) scale(0.1 -0.1)">
       <use xlink:href="#DejaVuSans-30"/>
       <use xlink:href="#DejaVuSans-2e" transform="translate(63.623047 0)"/>
       <use xlink:href="#DejaVuSans-30" transform="translate(95.410156 0)"/>
       <use xlink:href="#DejaVuSans-30" transform="translate(159.033203 0)"/>
      </g>
     </g>
    </g>
    <g id="ytick_6">
     <g id="line2d_29">
      <path d="M 57.6 146.922325 
L 414.72 146.922325 
" clip-path="url(#pfafc6f7317)" style="fill: none; stroke: #b0b0b0; stroke-opacity: 0.5; stroke-width: 0.8; stroke-linecap: square"/>
     </g>
     <g id="line2d_30">
      <g>
       <use xlink:href="#m511bb8779b" x="57.6" y="146.922325" style="stroke: #000000; stroke-width: 0.8"/>
      </g>
     </g>
     <g id="text_16">
      <!-- 0.25 -->
      <g transform="translate(28.334375 150.721544) scale(0.1 -0.1)">
       <use xlink:href="#DejaVuSans-30"/>
       <use xlink:href="#DejaVuSans-2e" transform="translate(63.623047 0)"/>
       <use xlink:href="#DejaVuSans-32" transform="translate(95.410156 0)"/>
       <use xlink:href="#DejaVuSans-35" transform="translate(159.033203 0)"/>
      </g>
     </g>
    </g>
    <g id="ytick_7">
     <g id="line2d_31">
      <path d="M 57.6 115.804175 
L 414.72 115.804175 
" clip-path="url(#pfafc6f7317)" style="fill: none; stroke: #b0b0b0; stroke-opacity: 0.5; stroke-width: 0.8; stroke-linecap: square"/>
     </g>
     <g id="line2d_32">
      <g>
       <use xlink:href="#m511bb8779b" x="57.6" y="115.804175" style="stroke: #000000; stroke-width: 0.8"/>
      </g>
     </g>
     <g id="text_17">
      <!-- 0.50 -->
      <g transform="translate(28.334375 119.603393) scale(0.1 -0.1)">
       <use xlink:href="#DejaVuSans-30"/>
       <use xlink:href="#DejaVuSans-2e" transform="translate(63.623047 0)"/>
       <use xlink:href="#DejaVuSans-35" transform="translate(95.410156 0)"/>
       <use xlink:href="#DejaVuSans-30" transform="translate(159.033203 0)"/>
      </g>
     </g>
    </g>
    <g id="ytick_8">
     <g id="line2d_33">
      <path d="M 57.6 84.686024 
L 414.72 84.686024 
" clip-path="url(#pfafc6f7317)" style="fill: none; stroke: #b0b0b0; stroke-opacity: 0.5; stroke-width: 0.8; stroke-linecap: square"/>
     </g>
     <g id="line2d_34">
      <g>
       <use xlink:href="#m511bb8779b" x="57.6" y="84.686024" style="stroke: #000000; stroke-width: 0.8"/>
      </g>
     </g>
     <g id="text_18">
      <!-- 0.75 -->
      <g transform="translate(28.334375 88.485243) scale(0.1 -0.1)">
       <use xlink:href="#DejaVuSans-30"/>
       <use xlink:href="#DejaVuSans-2e" transform="translate(63.623047 0)"/>
       <use xlink:href="#DejaVuSans-37" transform="translate(95.410156 0)"/>
       <use xlink:href="#DejaVuSans-35" transform="translate(159.033203 0)"/>
      </g>
     </g>
    </g>
    <g id="ytick_9">
     <g id="line2d_35">
      <path d="M 57.6 53.567874 
L 414.72 53.567874 
" clip-path="url(#pfafc6f7317)" style="fill: none; stroke: #b0b0b0; stroke-opacity: 0.5; stroke-width: 0.8; stroke-linecap: square"/>
     </g>
     <g id="line2d_36">
      <g>
       <use xlink:href="#m511bb8779b" x="57.6" y="53.567874" style="stroke: #000000; stroke-width: 0.8"/>
      </g>
     </g>
     <g id="text_19">
      <!-- 1.00 -->
      <g transform="translate(28.334375 57.367093) scale(0.1 -0.1)">
       <use xlink:href="#DejaVuSans-31"/>
       <use xlink:href="#DejaVuSans-2e" transform="translate(63.623047 0)"/>
       <use xlink:href="#DejaVuSans-30" transform="translate(95.410156 0)"/>
       <use xlink:href="#DejaVuSans-30" transform="translate(159.033203 0)"/>
      </g>
     </g>
    </g>
    <g id="text_20">
     <!-- Value -->
     <g transform="translate(13.875 188.25925) rotate(-90) scale(0.1 -0.1)">
      <defs>
       <path id="DejaVuSans-56" d="M 1831 0 
L 50 4666 
L 709 4666 
L 2188 738 
L 3669 4666 
L 4325 4666 
L 2547 0 
L 1831 0 
z
" transform="scale(0.015625)"/>
       <path id="DejaVuSans-61" d="M 2194 1759 
Q 1497 1759 1228 1600 
Q 959 1441 959 1056 
Q 959 750 1161 570 
Q 1363 391 1709 391 
Q 2188 391 2477 730 
Q 2766 1069 2766 1631 
L 2766 1759 
L 2194 1759 
z
M 3341 1997 
L 3341 0 
L 2766 0 
L 2766 531 
Q 2569 213 2275 61 
Q 1981 -91 1556 -91 
Q 1019 -91 701 211 
Q 384 513 384 1019 
Q 384 1609 779 1909 
Q 1175 2209 1959 2209 
L 2766 2209 
L 2766 2266 
Q 2766 2663 2505 2880 
Q 2244 3097 1772 3097 
Q 1472 3097 1187 3025 
Q 903 2953 641 2809 
L 641 3341 
Q 956 3463 1253 3523 
Q 1550 3584 1831 3584 
Q 2591 3584 2966 3190 
Q 3341 2797 3341 1997 
z
" transform="scale(0.015625)"/>
       <path id="DejaVuSans-6c" d="M 603 4863 
L 1178 4863 
L 1178 0 
L 603 0 
L 603 4863 
z
" transform="scale(0.015625)"/>
       <path id="DejaVuSans-75" d="M 544 1381 
L 544 3500 
L 1119 3500 
L 1119 1403 
Q 1119 906 1312 657 
Q 1506 409 1894 409 
Q 2359 409 2629 706 
Q 2900 1003 2900 1516 
L 2900 3500 
L 3475 3500 
L 3475 0 
L 2900 0 
L 2900 538 
Q 2691 219 2414 64 
Q 2138 -91 1772 -91 
Q 1169 -91 856 284 
Q 544 659 544 1381 
z
M 1991 3584 
L 1991 3584 
z
" transform="scale(0.015625)"/>
      </defs>
      <use xlink:href="#DejaVuSans-56"/>
      <use xlink:href="#DejaVuSans-61" transform="translate(60.658203 0)"/>
      <use xlink:href="#DejaVuSans-6c" transform="translate(121.9375 0)"/>
      <use xlink:href="#DejaVuSans-75" transform="translate(149.720703 0)"/>
      <use xlink:href="#DejaVuSans-65" transform="translate(213.099609 0)"/>
     </g>
    </g>
   </g>
   <g id="line2d_37">
    <path d="M 107.315877 295.488 
L 125.216816 295.30517 
L 136.108091 294.843491 
L 144.07607 294.081026 
L 145.408689 293.037056 
L 137.736359 291.774221 
L 127.628825 290.390891 
L 119.881881 289.004646 
L 124.848151 287.730186 
L 126.644185 286.656606 
L 122.478453 285.829134 
L 114.33295 285.24015 
L 97.062032 284.509171 
L 95.50081 284.163268 
L 136.075727 283.036137 
L 145.622825 282.166168 
L 144.240486 281.11193 
L 128.669613 278.741224 
L 129.077011 277.603609 
L 134.841838 276.596549 
L 134.031443 275.753422 
L 130.284665 275.066677 
L 125.319215 274.492605 
L 119.206898 273.964199 
L 115.820887 273.408854 
L 137.283062 272.00027 
L 142.887022 271.108118 
L 142.296122 270.115592 
L 138.745084 269.06973 
L 136.518477 268.025633 
L 138.792175 267.032848 
L 142.480874 266.124374 
L 143.444358 265.310686 
L 141.791145 264.579678 
L 134.257277 263.238467 
L 133.833563 262.552166 
L 142.65047 261.010898 
L 145.652989 260.143823 
L 146.621952 259.228694 
L 146.684249 258.289949 
L 147.178399 257.354528 
L 148.64598 256.445943 
L 150.373569 255.579639 
L 151.308059 254.760639 
L 151.100281 253.983551 
L 149.446532 252.49576 
L 149.796366 251.747799 
L 151.57061 250.975414 
L 156.478402 249.32889 
L 158.28278 248.459893 
L 163.497974 244.966388 
L 164.497806 244.146328 
L 165.015736 243.353021 
L 165.285096 241.810314 
L 165.910154 241.036044 
L 167.191168 240.244989 
L 170.519266 238.595283 
L 173.13259 236.882733 
L 177.636504 233.550401 
L 179.707772 231.180203 
L 180.75319 230.381703 
L 184.455777 227.913175 
L 188.804512 224.598223 
L 190.557935 222.987479 
L 192.233752 221.38593 
L 195.17055 218.953107 
L 201.272119 214.061104 
L 205.971233 210.039041 
L 216.876245 201.191592 
L 221.583147 197.196172 
L 227.488059 192.419167 
L 231.946032 188.470821 
L 236.880443 184.494742 
L 238.550324 182.936559 
L 239.30411 182.158027 
L 205.524724 182.060612 
L 253.574943 181.278377 
L 240.297703 179.700382 
L 242.840921 178.906546 
L 248.986191 174.181017 
L 252.62946 171.046791 
L 266.734681 160.047624 
L 271.55873 156.112081 
L 276.933837 152.194355 
L 279.446011 149.865908 
L 281.250134 148.295678 
L 283.401531 146.718173 
L 286.773775 144.376026 
L 288.613616 142.832362 
L 291.055084 140.505302 
L 293.053958 138.939555 
L 295.20574 137.376883 
L 297.02308 135.826975 
L 298.485413 134.283622 
L 300.596454 131.956266 
L 303.272919 129.621928 
L 304.923524 128.076157 
L 306.258002 126.534473 
L 308.213449 124.210029 
L 310.711856 121.883652 
L 313.082404 119.579143 
L 315.734085 116.49594 
L 317.503205 114.947657 
L 320.186859 112.648686 
L 321.650361 111.126827 
L 322.943998 109.596479 
L 324.623717 108.055033 
L 328.651017 104.995793 
L 330.108701 103.485612 
L 331.963744 101.205033 
L 333.783154 99.672579 
L 336.837982 97.394449 
L 338.319631 95.892665 
L 340.186071 93.626658 
L 342.047563 92.10356 
L 345.268577 89.841388 
L 346.102748 89.096187 
L 347.251534 87.606074 
L 348.398101 86.100418 
L 349.23886 85.341558 
L 351.466727 83.825596 
L 353.75869 82.330579 
L 354.638392 81.59158 
L 355.251827 80.854422 
L 356.422249 78.618224 
L 357.145162 77.860752 
L 358.159235 77.101262 
L 362.749542 74.11766 
L 363.321106 73.386384 
L 363.562556 72.653158 
L 363.867434 71.164194 
L 364.365063 70.40716 
L 365.26585 69.646386 
L 369.903137 66.667235 
L 370.319942 65.941272 
L 370.236589 65.212334 
L 369.918714 64.47375 
L 369.798418 63.722169 
L 370.23273 62.959503 
L 371.297283 62.192534 
L 375.930991 59.952085 
L 376.844465 59.234595 
L 376.803603 58.519575 
L 374.665588 57.046058 
L 374.762718 56.280224 
L 376.874129 55.516987 
L 379.660112 54.799341 
L 373.777229 54.188812 
L 354.508778 53.75629 
L 336.175267 53.568 
L 319.73979 53.668975 
L 309.180488 54.069579 
L 317.338488 54.737109 
L 331.017296 55.597092 
L 348.143793 56.543649 
L 367.310724 57.458385 
L 369.931361 58.232402 
L 358.417553 59.097526 
L 359.681986 59.181689 
L 381.614115 58.985208 
L 380.427526 58.91207 
L 355.210215 58.982396 
L 332.724909 59.250813 
L 326.929328 59.725149 
L 333.511579 60.366942 
L 348.494641 61.102765 
L 367.28192 61.843003 
L 375.411826 62.503574 
L 362.017271 63.384011 
L 363.665116 63.597549 
L 381.208777 63.803482 
L 378.043831 63.933117 
L 363.092462 64.158073 
L 350.407622 64.506276 
L 346.706085 64.975017 
L 351.742591 65.534154 
L 371.95131 66.725802 
L 374.344883 67.259023 
L 368.547342 68.062035 
L 370.188239 68.340186 
L 376.502724 68.794608 
L 373.176631 69.044893 
L 366.583122 69.348908 
L 361.111435 69.7185 
L 359.312001 70.149982 
L 361.195368 70.626663 
L 368.623917 71.614255 
L 370.007146 72.075674 
L 369.583632 72.493505 
L 368.937033 72.863987 
L 369.032124 73.193716 
L 369.488711 73.497382 
L 369.118296 73.793925 
L 367.117513 74.10225 
L 360.999878 74.807062 
L 359.346994 75.211509 
L 359.362931 75.643043 
L 362.915838 76.962479 
L 362.998671 77.366941 
L 362.274398 78.094077 
L 361.780389 78.428777 
L 360.814765 78.759166 
L 355.202157 79.831277 
L 354.255279 80.230568 
L 354.242992 80.645187 
L 355.443058 81.482727 
L 355.6809 81.887441 
L 355.495817 82.275529 
L 355.03923 82.646954 
L 354.388422 83.00584 
L 352.28523 83.714131 
L 349.701436 84.452529 
L 348.867985 84.839608 
L 348.49928 85.235798 
L 348.284534 86.429219 
L 347.508352 87.192286 
L 346.170934 87.931477 
L 343.758155 89.048749 
L 342.706718 89.816734 
L 340.901586 91.739561 
L 339.164859 92.860446 
L 336.611278 94.362756 
L 335.262483 95.506061 
L 333.973375 96.633489 
L 332.731887 97.369684 
L 329.754103 98.846709 
L 328.788879 99.599345 
L 327.761178 100.718485 
L 326.635927 101.443766 
L 322.358847 103.623496 
L 321.244304 105.099261 
L 320.171862 105.814696 
L 316.869534 107.603883 
L 315.739304 108.703496 
L 314.910572 109.431025 
L 313.206669 110.506593 
L 310.263417 112.306129 
L 307.360898 114.499073 
L 305.857199 115.584056 
L 301.702024 118.126809 
L 300.095546 119.589764 
L 298.284919 120.664212 
L 296.490429 121.746317 
L 295.741301 122.477937 
L 295.134675 123.208363 
L 294.267211 123.929437 
L 290.405926 126.441497 
L 289.233075 127.529384 
L 287.654021 128.606366 
L 285.601954 130.04331 
L 282.81897 132.210368 
L 276.506938 136.892932 
L 274.758199 138.330391 
L 271.158726 140.829341 
L 269.405413 142.255683 
L 266.259728 144.376219 
L 263.550559 146.491469 
L 261.669691 147.891904 
L 259.371234 149.632255 
L 257.396501 151.019919 
L 255.282006 152.749626 
L 252.242649 154.809908 
L 250.130928 156.529369 
L 247.086458 158.584205 
L 245.397751 159.960694 
L 241.987325 162.363696 
L 240.31258 163.742062 
L 237.532721 165.807564 
L 235.854137 167.186418 
L 233.085765 169.248721 
L 231.785255 170.280062 
L 227.474037 173.365451 
L 225.424059 174.73029 
L 223.515257 176.098157 
L 221.720107 177.464624 
L 218.623647 179.508706 
L 216.855392 180.874623 
L 213.282293 183.253428 
L 211.467692 184.612812 
L 208.419947 186.640494 
L 206.562315 187.989781 
L 203.045066 190.334466 
L 201.101711 191.667055 
L 198.602694 193.325787 
L 196.777435 194.64803 
L 193.755955 196.619796 
L 192.002334 197.933177 
L 188.546155 200.220275 
L 187.268554 201.201739 
L 183.390653 203.809673 
L 182.03118 204.788236 
L 178.603117 207.068434 
L 177.292054 208.048792 
L 173.901563 210.333333 
L 171.721157 211.966094 
L 170.03258 213.271318 
L 168.151313 214.90389 
L 166.024076 216.530856 
L 164.190759 218.157719 
L 162.060152 219.778027 
L 160.427204 221.40187 
L 158.0359 223.338898 
L 156.791359 224.633483 
L 154.137853 226.885238 
L 153.213511 227.851259 
L 150.106363 230.412084 
L 149.025253 231.369006 
L 146.982549 232.95569 
L 145.347291 234.540969 
L 143.319104 236.112996 
L 141.557142 237.686115 
L 139.271217 239.243379 
L 137.171644 241.116906 
L 135.009604 242.665637 
L 133.740832 243.910614 
L 130.536384 246.38688 
L 129.462752 247.316803 
L 127.318008 248.861581 
L 125.702417 250.414972 
L 123.538377 251.95779 
L 121.936063 253.512843 
L 119.301949 255.365871 
L 118.031117 256.608971 
L 115.389785 258.456687 
L 114.199787 259.697762 
L 111.243638 261.848616 
L 110.328974 262.775394 
L 108.893586 263.689892 
L 107.609487 264.607655 
L 106.078419 266.144487 
L 103.752222 267.660278 
L 102.350647 269.191648 
L 99.739038 271.001653 
L 99.085091 271.917821 
L 98.299381 272.519031 
L 96.401417 273.71292 
L 95.936831 274.319584 
L 95.552509 274.925928 
L 94.799723 275.522338 
L 92.852899 276.703533 
L 92.415728 277.305879 
L 91.903242 278.207453 
L 91.037528 278.793981 
L 89.630224 279.671495 
L 89.286544 280.270272 
L 89.156071 280.872158 
L 88.96302 281.169109 
L 88.094986 281.751378 
L 86.583064 282.620294 
L 86.343033 282.916756 
L 86.271747 283.518856 
L 86.272697 283.819599 
L 86.131726 284.116624 
L 85.801153 284.408582 
L 83.342853 285.852667 
L 83.298622 286.153417 
L 83.487054 286.759606 
L 83.427996 287.057796 
L 83.120338 287.349457 
L 81.825921 287.916874 
L 80.585094 288.487443 
L 80.327956 288.782866 
L 80.35635 289.085641 
L 80.89836 289.998374 
L 80.60534 290.28896 
L 79.002076 290.847161 
L 77.463769 291.411358 
L 77.231916 291.709407 
L 77.442833 292.018793 
L 78.855286 292.946906 
L 78.446039 293.231103 
L 75.798537 293.765 
L 74.451811 294.037053 
L 73.832727 294.328343 
L 74.30867 294.640548 
L 76.202225 294.958421 
L 79.988845 295.245453 
L 87.296159 295.445058 
L 87.296159 295.445058 
" clip-path="url(#pfafc6f7317)" style="fill: none; stroke: #1f77b4; stroke-width: 1.5; stroke-linecap: square"/>
   </g>
   <g id="line2d_38">
    <path d="M 85.976897 295.488 
L 89.531214 295.30517 
L 92.105191 294.843491 
L 93.202148 294.081026 
L 92.628804 293.037056 
L 90.566224 291.774221 
L 81.849567 287.730186 
L 80.733684 286.656606 
L 81.430872 285.829134 
L 83.955918 285.24015 
L 87.919182 284.831689 
L 97.232818 284.163268 
L 100.975756 283.694697 
L 103.321539 283.036137 
L 104.095542 282.166168 
L 103.500943 281.11193 
L 99.247438 277.603609 
L 99.058286 276.596549 
L 100.058663 275.753422 
L 102.160745 275.066677 
L 108.143958 273.964199 
L 111.026812 273.408854 
L 113.276145 272.765955 
L 114.697325 272.00027 
L 115.320049 271.108118 
L 115.365869 270.115592 
L 115.089356 268.025633 
L 115.402922 267.032848 
L 116.260777 266.124374 
L 117.659083 265.310686 
L 119.461626 264.579678 
L 125.082363 262.552166 
L 126.418081 261.814318 
L 127.381176 261.010898 
L 128.045001 260.143823 
L 129.646295 257.354528 
L 130.489973 256.445943 
L 131.599857 255.579639 
L 132.955422 254.760639 
L 136.093663 253.234722 
L 139.10924 251.747799 
L 140.356766 250.975414 
L 141.386557 250.169524 
L 142.221967 249.32889 
L 145.177436 245.815309 
L 146.233181 244.966388 
L 148.895445 243.353021 
L 153.207632 241.036044 
L 154.393661 240.244989 
L 155.389719 239.431354 
L 156.971632 237.74256 
L 158.550036 236.026563 
L 159.531016 235.183151 
L 161.976499 233.550401 
L 167.278011 230.381703 
L 169.287892 228.746349 
L 172.843379 225.415624 
L 175.053524 223.789759 
L 182.207479 218.953107 
L 185.15381 216.496828 
L 188.0753 214.061104 
L 190.283921 212.450464 
L 196.185968 208.42707 
L 198.134829 206.809294 
L 200.827059 204.383514 
L 202.94807 202.780817 
L 210.013932 198.001806 
L 214.610702 193.991104 
L 216.88655 192.419167 
L 220.437824 190.06384 
L 222.517412 188.470821 
L 227.412802 184.494742 
L 235.009573 178.906546 
L 246.438962 170.259955 
L 251.913021 166.325463 
L 257.861293 161.608282 
L 263.400404 157.69451 
L 269.229861 152.96988 
L 274.70366 149.082719 
L 280.559414 144.376026 
L 284.867028 141.284491 
L 291.931871 135.826975 
L 295.102566 133.510232 
L 301.111284 128.847911 
L 305.376601 125.76171 
L 311.311904 121.113404 
L 315.594633 118.042442 
L 322.513956 112.648686 
L 325.723753 110.363367 
L 333.714188 104.240398 
L 336.818686 101.968849 
L 341.574139 98.149317 
L 346.868122 94.385629 
L 351.475515 90.590432 
L 356.90747 86.855724 
L 362.423418 82.330579 
L 366.884101 79.370095 
L 368.599572 77.860752 
L 370.227931 76.344383 
L 372.255568 74.852259 
L 376.879618 71.913216 
L 378.546999 70.40716 
L 380.039015 68.887956 
L 380.952629 68.137398 
L 383.305751 66.667235 
L 385.885476 65.212334 
L 386.962317 64.47375 
L 387.796417 63.722169 
L 389.558849 61.430847 
L 390.433511 60.682871 
L 391.66495 59.952085 
L 396.301317 57.793322 
L 397.112332 57.046058 
L 396.959603 56.280224 
L 395.666317 55.516987 
L 393.304537 54.799341 
L 390.219034 54.188812 
L 386.978144 53.75629 
L 384.256957 53.568 
L 382.679368 53.668975 
L 382.657842 54.069579 
L 384.274784 54.737109 
L 387.239511 55.597092 
L 397.285667 58.232402 
L 398.487273 58.788741 
L 397.86167 59.097526 
L 395.511428 59.181689 
L 381.210717 58.982396 
L 379.856012 59.250813 
L 380.01485 59.725149 
L 381.406997 60.366942 
L 385.593065 61.843003 
L 387.111127 62.503574 
L 387.619603 63.024865 
L 386.972985 63.384011 
L 385.312622 63.597549 
L 378.375263 63.933117 
L 376.86745 64.158073 
L 376.163563 64.506276 
L 376.203735 64.975017 
L 378.089772 66.725802 
L 378.284392 67.259023 
L 377.953819 67.706598 
L 377.11539 68.062035 
L 374.539964 68.571723 
L 372.177724 69.044893 
L 371.466049 69.348908 
L 371.110421 69.7185 
L 371.036426 70.149982 
L 371.190145 71.123656 
L 371.131127 71.614255 
L 370.843615 72.075674 
L 370.293207 72.493505 
L 368.552821 73.193716 
L 365.752811 74.10225 
L 365.128878 74.437291 
L 364.717082 74.807062 
L 364.361214 75.643043 
L 364.073642 76.533163 
L 363.74291 76.962479 
L 363.225015 77.366941 
L 361.693067 78.094077 
L 359.211331 79.097479 
L 358.232051 79.831277 
L 357.779613 80.645187 
L 357.29902 81.482727 
L 356.877536 81.887441 
L 355.589858 82.646954 
L 352.625461 84.077439 
L 351.748639 84.839608 
L 350.520089 86.429219 
L 349.470333 87.192286 
L 345.662167 89.430753 
L 344.530617 90.592591 
L 343.774901 91.360807 
L 342.761557 92.115022 
L 339.212009 94.362756 
L 336.281185 97.002681 
L 333.272607 98.846709 
L 332.148106 99.975592 
L 331.39373 100.718485 
L 330.389074 101.443766 
L 327.516928 103.252502 
L 322.83711 106.880449 
L 320.286869 108.703496 
L 316.471115 111.581642 
L 313.785891 113.402516 
L 310.050171 116.303086 
L 307.961866 117.758378 
L 304.818105 120.306876 
L 302.757639 121.746317 
L 298.591831 124.999081 
L 296.197758 126.804935 
L 292.862692 129.323156 
L 283.244483 136.531857 
L 279.479534 139.39906 
L 230.840807 176.098157 
L 228.111147 178.144413 
L 221.35701 183.253428 
L 216.892115 186.640494 
L 206.767331 194.318709 
L 199.721974 199.564825 
L 193.673599 204.136562 
L 181.56178 213.271318 
L 175.674383 217.833758 
L 168.794697 223.014685 
L 165.8533 225.275933 
L 163.303014 227.20796 
L 157.800858 231.369006 
L 154.465002 233.909503 
L 140.357496 244.527999 
L 137.892658 246.38688 
L 133.001812 250.106009 
L 126.830787 254.744933 
L 120.08284 260.004929 
L 118.008072 261.53883 
L 116.072166 263.081307 
L 113.981611 264.607655 
L 112.06767 266.144487 
L 109.95581 267.660278 
L 108.061395 269.191648 
L 105.930609 270.696689 
L 104.096362 272.219676 
L 101.582553 274.015562 
L 100.146265 275.22558 
L 97.585016 277.003719 
L 96.215705 278.207453 
L 93.676881 279.969537 
L 92.376396 281.169109 
L 89.778144 282.916756 
L 88.650823 284.116624 
L 87.179563 284.981118 
L 86.231995 285.557103 
L 85.627128 286.153417 
L 84.826871 287.057796 
L 83.855479 287.634894 
L 82.255664 288.487443 
L 81.720253 289.085641 
L 81.411886 289.698522 
L 81.132223 289.998374 
L 80.081846 290.570546 
L 78.204208 291.411358 
L 77.907648 291.709407 
L 77.831184 292.018793 
L 77.896321 292.646274 
L 77.698951 292.946906 
L 77.167409 293.231103 
L 73.896064 294.328343 
L 74.343233 294.640548 
L 75.899747 294.958421 
L 78.574723 295.245453 
L 82.104215 295.445058 
L 82.104215 295.445058 
" clip-path="url(#pfafc6f7317)" style="fill: none; stroke: #ff7f0e; stroke-opacity: 0.5; stroke-width: 1.5; stroke-linecap: square"/>
   </g>
   <g id="patch_3">
    <path d="M 57.6 307.584 
L 57.6 41.472 
" style="fill: none; stroke: #000000; stroke-width: 0.8; stroke-linejoin: miter; stroke-linecap: square"/>
   </g>
   <g id="patch_4">
    <path d="M 414.72 307.584 
L 414.72 41.472 
" style="fill: none; stroke: #000000; stroke-width: 0.8; stroke-linejoin: miter; stroke-linecap: square"/>
   </g>
   <g id="patch_5">
    <path d="M 57.6 307.584 
L 414.72 307.584 
" style="fill: none; stroke: #000000; stroke-width: 0.8; stroke-linejoin: miter; stroke-linecap: square"/>
   </g>
   <g id="patch_6">
    <path d="M 57.6 41.472 
L 414.72 41.472 
" style="fill: none; stroke: #000000; stroke-width: 0.8; stroke-linejoin: miter; stroke-linecap: square"/>
   </g>
   <g id="text_21">
    <!-- Compare - Epoch 900 -->
    <g transform="translate(171.234375 35.472) scale(0.12 -0.12)">
     <defs>
      <path id="DejaVuSans-43" d="M 4122 4306 
L 4122 3641 
Q 3803 3938 3442 4084 
Q 3081 4231 2675 4231 
Q 1875 4231 1450 3742 
Q 1025 3253 1025 2328 
Q 1025 1406 1450 917 
Q 1875 428 2675 428 
Q 3081 428 3442 575 
Q 3803 722 4122 1019 
L 4122 359 
Q 3791 134 3420 21 
Q 3050 -91 2638 -91 
Q 1578 -91 968 557 
Q 359 1206 359 2328 
Q 359 3453 968 4101 
Q 1578 4750 2638 4750 
Q 3056 4750 3426 4639 
Q 3797 4528 4122 4306 
z
" transform="scale(0.015625)"/>
      <path id="DejaVuSans-6f" d="M 1959 3097 
Q 1497 3097 1228 2736 
Q 959 2375 959 1747 
Q 959 1119 1226 758 
Q 1494 397 1959 397 
Q 2419 397 2687 759 
Q 2956 1122 2956 1747 
Q 2956 2369 2687 2733 
Q 2419 3097 1959 3097 
z
M 1959 3584 
Q 2709 3584 3137 3096 
Q 3566 2609 3566 1747 
Q 3566 888 3137 398 
Q 2709 -91 1959 -91 
Q 1206 -91 779 398 
Q 353 888 353 1747 
Q 353 2609 779 3096 
Q 1206 3584 1959 3584 
z
" transform="scale(0.015625)"/>
      <path id="DejaVuSans-6d" d="M 3328 2828 
Q 3544 3216 3844 3400 
Q 4144 3584 4550 3584 
Q 5097 3584 5394 3201 
Q 5691 2819 5691 2113 
L 5691 0 
L 5113 0 
L 5113 2094 
Q 5113 2597 4934 2840 
Q 4756 3084 4391 3084 
Q 3944 3084 3684 2787 
Q 3425 2491 3425 1978 
L 3425 0 
L 2847 0 
L 2847 2094 
Q 2847 2600 2669 2842 
Q 2491 3084 2119 3084 
Q 1678 3084 1418 2786 
Q 1159 2488 1159 1978 
L 1159 0 
L 581 0 
L 581 3500 
L 1159 3500 
L 1159 2956 
Q 1356 3278 1631 3431 
Q 1906 3584 2284 3584 
Q 2666 3584 2933 3390 
Q 3200 3197 3328 2828 
z
" transform="scale(0.015625)"/>
      <path id="DejaVuSans-70" d="M 1159 525 
L 1159 -1331 
L 581 -1331 
L 581 3500 
L 1159 3500 
L 1159 2969 
Q 1341 3281 1617 3432 
Q 1894 3584 2278 3584 
Q 2916 3584 3314 3078 
Q 3713 2572 3713 1747 
Q 3713 922 3314 415 
Q 2916 -91 2278 -91 
Q 1894 -91 1617 61 
Q 1341 213 1159 525 
z
M 3116 1747 
Q 3116 2381 2855 2742 
Q 2594 3103 2138 3103 
Q 1681 3103 1420 2742 
Q 1159 2381 1159 1747 
Q 1159 1113 1420 752 
Q 1681 391 2138 391 
Q 2594 391 2855 752 
Q 3116 1113 3116 1747 
z
" transform="scale(0.015625)"/>
      <path id="DejaVuSans-72" d="M 2631 2963 
Q 2534 3019 2420 3045 
Q 2306 3072 2169 3072 
Q 1681 3072 1420 2755 
Q 1159 2438 1159 1844 
L 1159 0 
L 581 0 
L 581 3500 
L 1159 3500 
L 1159 2956 
Q 1341 3275 1631 3429 
Q 1922 3584 2338 3584 
Q 2397 3584 2469 3576 
Q 2541 3569 2628 3553 
L 2631 2963 
z
" transform="scale(0.015625)"/>
      <path id="DejaVuSans-20" transform="scale(0.015625)"/>
      <path id="DejaVuSans-2d" d="M 313 2009 
L 1997 2009 
L 1997 1497 
L 313 1497 
L 313 2009 
z
" transform="scale(0.015625)"/>
      <path id="DejaVuSans-45" d="M 628 4666 
L 3578 4666 
L 3578 4134 
L 1259 4134 
L 1259 2753 
L 3481 2753 
L 3481 2222 
L 1259 2222 
L 1259 531 
L 3634 531 
L 3634 0 
L 628 0 
L 628 4666 
z
" transform="scale(0.015625)"/>
      <path id="DejaVuSans-63" d="M 3122 3366 
L 3122 2828 
Q 2878 2963 2633 3030 
Q 2388 3097 2138 3097 
Q 1578 3097 1268 2742 
Q 959 2388 959 1747 
Q 959 1106 1268 751 
Q 1578 397 2138 397 
Q 2388 397 2633 464 
Q 2878 531 3122 666 
L 3122 134 
Q 2881 22 2623 -34 
Q 2366 -91 2075 -91 
Q 1284 -91 818 406 
Q 353 903 353 1747 
Q 353 2603 823 3093 
Q 1294 3584 2113 3584 
Q 2378 3584 2631 3529 
Q 2884 3475 3122 3366 
z
" transform="scale(0.015625)"/>
      <path id="DejaVuSans-68" d="M 3513 2113 
L 3513 0 
L 2938 0 
L 2938 2094 
Q 2938 2591 2744 2837 
Q 2550 3084 2163 3084 
Q 1697 3084 1428 2787 
Q 1159 2491 1159 1978 
L 1159 0 
L 581 0 
L 581 4863 
L 1159 4863 
L 1159 2956 
Q 1366 3272 1645 3428 
Q 1925 3584 2291 3584 
Q 2894 3584 3203 3211 
Q 3513 2838 3513 2113 
z
" transform="scale(0.015625)"/>
      <path id="DejaVuSans-39" d="M 703 97 
L 703 672 
Q 941 559 1184 500 
Q 1428 441 1663 441 
Q 2288 441 2617 861 
Q 2947 1281 2994 2138 
Q 2813 1869 2534 1725 
Q 2256 1581 1919 1581 
Q 1219 1581 811 2004 
Q 403 2428 403 3163 
Q 403 3881 828 4315 
Q 1253 4750 1959 4750 
Q 2769 4750 3195 4129 
Q 3622 3509 3622 2328 
Q 3622 1225 3098 567 
Q 2575 -91 1691 -91 
Q 1453 -91 1209 -44 
Q 966 3 703 97 
z
M 1959 2075 
Q 2384 2075 2632 2365 
Q 2881 2656 2881 3163 
Q 2881 3666 2632 3958 
Q 2384 4250 1959 4250 
Q 1534 4250 1286 3958 
Q 1038 3666 1038 3163 
Q 1038 2656 1286 2365 
Q 1534 2075 1959 2075 
z
" transform="scale(0.015625)"/>
     </defs>
     <use xlink:href="#DejaVuSans-43"/>
     <use xlink:href="#DejaVuSans-6f" transform="translate(69.824219 0)"/>
     <use xlink:href="#DejaVuSans-6d" transform="translate(131.005859 0)"/>
     <use xlink:href="#DejaVuSans-70" transform="translate(228.417969 0)"/>
     <use xlink:href="#DejaVuSans-61" transform="translate(291.894531 0)"/>
     <use xlink:href="#DejaVuSans-72" transform="translate(353.173828 0)"/>
     <use xlink:href="#DejaVuSans-65" transform="translate(392.037109 0)"/>
     <use xlink:href="#DejaVuSans-20" transform="translate(453.560547 0)"/>
     <use xlink:href="#DejaVuSans-2d" transform="translate(485.347656 0)"/>
     <use xlink:href="#DejaVuSans-20" transform="translate(521.431641 0)"/>
     <use xlink:href="#DejaVuSans-45" transform="translate(553.21875 0)"/>
     <use xlink:href="#DejaVuSans-70" transform="translate(616.402344 0)"/>
     <use xlink:href="#DejaVuSans-6f" transform="translate(679.878906 0)"/>
     <use xlink:href="#DejaVuSans-63" transform="translate(741.060547 0)"/>
     <use xlink:href="#DejaVuSans-68" transform="translate(796.041016 0)"/>
     <use xlink:href="#DejaVuSans-20" transform="translate(859.419922 0)"/>
     <use xlink:href="#DejaVuSans-39" transform="translate(891.207031 0)"/>
     <use xlink:href="#DejaVuSans-30" transform="translate(954.830078 0)"/>
     <use xlink:href="#DejaVuSans-30" transform="translate(1018.453125 0)"/>
    </g>
   </g>
   <g id="legend_1">
    <g id="patch_7">
     <path d="M 64.6 78.82825 
L 181.128125 78.82825 
Q 183.128125 78.82825 183.128125 76.82825 
L 183.128125 48.472 
Q 183.128125 46.472 181.128125 46.472 
L 64.6 46.472 
Q 62.6 46.472 62.6 48.472 
L 62.6 76.82825 
Q 62.6 78.82825 64.6 78.82825 
z
" style="fill: #ffffff; opacity: 0.8; stroke: #cccccc; stroke-linejoin: miter"/>
    </g>
    <g id="line2d_39">
     <path d="M 66.6 54.570437 
L 76.6 54.570437 
L 86.6 54.570437 
" style="fill: none; stroke: #1f77b4; stroke-width: 1.5; stroke-linecap: square"/>
    </g>
    <g id="text_22">
     <!-- Pred: Sample 1 -->
     <g transform="translate(94.6 58.070437) scale(0.1 -0.1)">
      <defs>
       <path id="DejaVuSans-50" d="M 1259 4147 
L 1259 2394 
L 2053 2394 
Q 2494 2394 2734 2622 
Q 2975 2850 2975 3272 
Q 2975 3691 2734 3919 
Q 2494 4147 2053 4147 
L 1259 4147 
z
M 628 4666 
L 2053 4666 
Q 2838 4666 3239 4311 
Q 3641 3956 3641 3272 
Q 3641 2581 3239 2228 
Q 2838 1875 2053 1875 
L 1259 1875 
L 1259 0 
L 628 0 
L 628 4666 
z
" transform="scale(0.015625)"/>
       <path id="DejaVuSans-3a" d="M 750 794 
L 1409 794 
L 1409 0 
L 750 0 
L 750 794 
z
M 750 3309 
L 1409 3309 
L 1409 2516 
L 750 2516 
L 750 3309 
z
" transform="scale(0.015625)"/>
       <path id="DejaVuSans-53" d="M 3425 4513 
L 3425 3897 
Q 3066 4069 2747 4153 
Q 2428 4238 2131 4238 
Q 1616 4238 1336 4038 
Q 1056 3838 1056 3469 
Q 1056 3159 1242 3001 
Q 1428 2844 1947 2747 
L 2328 2669 
Q 3034 2534 3370 2195 
Q 3706 1856 3706 1288 
Q 3706 609 3251 259 
Q 2797 -91 1919 -91 
Q 1588 -91 1214 -16 
Q 841 59 441 206 
L 441 856 
Q 825 641 1194 531 
Q 1563 422 1919 422 
Q 2459 422 2753 634 
Q 3047 847 3047 1241 
Q 3047 1584 2836 1778 
Q 2625 1972 2144 2069 
L 1759 2144 
Q 1053 2284 737 2584 
Q 422 2884 422 3419 
Q 422 4038 858 4394 
Q 1294 4750 2059 4750 
Q 2388 4750 2728 4690 
Q 3069 4631 3425 4513 
z
" transform="scale(0.015625)"/>
      </defs>
      <use xlink:href="#DejaVuSans-50"/>
      <use xlink:href="#DejaVuSans-72" transform="translate(58.552734 0)"/>
      <use xlink:href="#DejaVuSans-65" transform="translate(97.416016 0)"/>
      <use xlink:href="#DejaVuSans-64" transform="translate(158.939453 0)"/>
      <use xlink:href="#DejaVuSans-3a" transform="translate(222.416016 0)"/>
      <use xlink:href="#DejaVuSans-20" transform="translate(256.107422 0)"/>
      <use xlink:href="#DejaVuSans-53" transform="translate(287.894531 0)"/>
      <use xlink:href="#DejaVuSans-61" transform="translate(351.371094 0)"/>
      <use xlink:href="#DejaVuSans-6d" transform="translate(412.650391 0)"/>
      <use xlink:href="#DejaVuSans-70" transform="translate(510.0625 0)"/>
      <use xlink:href="#DejaVuSans-6c" transform="translate(573.539062 0)"/>
      <use xlink:href="#DejaVuSans-65" transform="translate(601.322266 0)"/>
      <use xlink:href="#DejaVuSans-20" transform="translate(662.845703 0)"/>
      <use xlink:href="#DejaVuSans-31" transform="translate(694.632812 0)"/>
     </g>
    </g>
    <g id="line2d_40">
     <path d="M 66.6 69.248562 
L 76.6 69.248562 
L 86.6 69.248562 
" style="fill: none; stroke: #ff7f0e; stroke-opacity: 0.5; stroke-width: 1.5; stroke-linecap: square"/>
    </g>
    <g id="text_23">
     <!-- Target: Sample 1 -->
     <g transform="translate(94.6 72.748562) scale(0.1 -0.1)">
      <defs>
       <path id="DejaVuSans-54" d="M -19 4666 
L 3928 4666 
L 3928 4134 
L 2272 4134 
L 2272 0 
L 1638 0 
L 1638 4134 
L -19 4134 
L -19 4666 
z
" transform="scale(0.015625)"/>
       <path id="DejaVuSans-67" d="M 2906 1791 
Q 2906 2416 2648 2759 
Q 2391 3103 1925 3103 
Q 1463 3103 1205 2759 
Q 947 2416 947 1791 
Q 947 1169 1205 825 
Q 1463 481 1925 481 
Q 2391 481 2648 825 
Q 2906 1169 2906 1791 
z
M 3481 434 
Q 3481 -459 3084 -895 
Q 2688 -1331 1869 -1331 
Q 1566 -1331 1297 -1286 
Q 1028 -1241 775 -1147 
L 775 -588 
Q 1028 -725 1275 -790 
Q 1522 -856 1778 -856 
Q 2344 -856 2625 -561 
Q 2906 -266 2906 331 
L 2906 616 
Q 2728 306 2450 153 
Q 2172 0 1784 0 
Q 1141 0 747 490 
Q 353 981 353 1791 
Q 353 2603 747 3093 
Q 1141 3584 1784 3584 
Q 2172 3584 2450 3431 
Q 2728 3278 2906 2969 
L 2906 3500 
L 3481 3500 
L 3481 434 
z
" transform="scale(0.015625)"/>
       <path id="DejaVuSans-74" d="M 1172 4494 
L 1172 3500 
L 2356 3500 
L 2356 3053 
L 1172 3053 
L 1172 1153 
Q 1172 725 1289 603 
Q 1406 481 1766 481 
L 2356 481 
L 2356 0 
L 1766 0 
Q 1100 0 847 248 
Q 594 497 594 1153 
L 594 3053 
L 172 3053 
L 172 3500 
L 594 3500 
L 594 4494 
L 1172 4494 
z
" transform="scale(0.015625)"/>
      </defs>
      <use xlink:href="#DejaVuSans-54"/>
      <use xlink:href="#DejaVuSans-61" transform="translate(44.583984 0)"/>
      <use xlink:href="#DejaVuSans-72" transform="translate(105.863281 0)"/>
      <use xlink:href="#DejaVuSans-67" transform="translate(145.226562 0)"/>
      <use xlink:href="#DejaVuSans-65" transform="translate(208.703125 0)"/>
      <use xlink:href="#DejaVuSans-74" transform="translate(270.226562 0)"/>
      <use xlink:href="#DejaVuSans-3a" transform="translate(309.435547 0)"/>
      <use xlink:href="#DejaVuSans-20" transform="translate(343.126953 0)"/>
      <use xlink:href="#DejaVuSans-53" transform="translate(374.914062 0)"/>
      <use xlink:href="#DejaVuSans-61" transform="translate(438.390625 0)"/>
      <use xlink:href="#DejaVuSans-6d" transform="translate(499.669922 0)"/>
      <use xlink:href="#DejaVuSans-70" transform="translate(597.082031 0)"/>
      <use xlink:href="#DejaVuSans-6c" transform="translate(660.558594 0)"/>
      <use xlink:href="#DejaVuSans-65" transform="translate(688.341797 0)"/>
      <use xlink:href="#DejaVuSans-20" transform="translate(749.865234 0)"/>
      <use xlink:href="#DejaVuSans-31" transform="translate(781.652344 0)"/>
     </g>
    </g>
   </g>
  </g>
 </g>
 <defs>
  <clipPath id="pfafc6f7317">
   <rect x="57.6" y="41.472" width="357.12" height="266.112"/>
  </clipPath>
 </defs>
</svg>
