<?xml version="1.0" encoding="utf-8" standalone="no"?>
<!DOCTYPE svg PUBLIC "-//W3C//DTD SVG 1.1//EN"
  "http://www.w3.org/Graphics/SVG/1.1/DTD/svg11.dtd">
<svg xmlns:xlink="http://www.w3.org/1999/xlink" width="460.8pt" height="345.6pt" viewBox="0 0 460.8 345.6" xmlns="http://www.w3.org/2000/svg" version="1.1">
 <metadata>
  <rdf:RDF xmlns:dc="http://purl.org/dc/elements/1.1/" xmlns:cc="http://creativecommons.org/ns#" xmlns:rdf="http://www.w3.org/1999/02/22-rdf-syntax-ns#">
   <cc:Work>
    <dc:type rdf:resource="http://purl.org/dc/dcmitype/StillImage"/>
    <dc:date>2025-07-23T12:23:33.872525</dc:date>
    <dc:format>image/svg+xml</dc:format>
    <dc:creator>
     <cc:Agent>
      <dc:title>Matplotlib v3.10.3, https://matplotlib.org/</dc:title>
     </cc:Agent>
    </dc:creator>
   </cc:Work>
  </rdf:RDF>
 </metadata>
 <defs>
  <style type="text/css">*{stroke-linejoin: round; stroke-linecap: butt}</style>
 </defs>
 <g id="figure_1">
  <g id="patch_1">
   <path d="M 0 345.6 
L 460.8 345.6 
L 460.8 0 
L 0 0 
z
" style="fill: #ffffff"/>
  </g>
  <g id="axes_1">
   <g id="patch_2">
    <path d="M 57.6 307.584 
L 414.72 307.584 
L 414.72 41.472 
L 57.6 41.472 
z
" style="fill: #ffffff"/>
   </g>
   <g id="matplotlib.axis_1">
    <g id="xtick_1">
     <g id="line2d_1">
      <path d="M 63.120188 307.584 
L 63.120188 41.472 
" clip-path="url(#pf999f1bc1f)" style="fill: none; stroke: #b0b0b0; stroke-opacity: 0.5; stroke-width: 0.8; stroke-linecap: square"/>
     </g>
     <g id="line2d_2">
      <defs>
       <path id="m2fa536abbe" d="M 0 0 
L 0 3.5 
" style="stroke: #000000; stroke-width: 0.8"/>
      </defs>
      <g>
       <use xlink:href="#m2fa536abbe" x="63.120188" y="307.584" style="stroke: #000000; stroke-width: 0.8"/>
      </g>
     </g>
     <g id="text_1">
      <!-- −1.00 -->
      <g transform="translate(47.797531 322.182437) scale(0.1 -0.1)">
       <defs>
        <path id="DejaVuSans-2212" d="M 678 2272 
L 4684 2272 
L 4684 1741 
L 678 1741 
L 678 2272 
z
" transform="scale(0.015625)"/>
        <path id="DejaVuSans-31" d="M 794 531 
L 1825 531 
L 1825 4091 
L 703 3866 
L 703 4441 
L 1819 4666 
L 2450 4666 
L 2450 531 
L 3481 531 
L 3481 0 
L 794 0 
L 794 531 
z
" transform="scale(0.015625)"/>
        <path id="DejaVuSans-2e" d="M 684 794 
L 1344 794 
L 1344 0 
L 684 0 
L 684 794 
z
" transform="scale(0.015625)"/>
        <path id="DejaVuSans-30" d="M 2034 4250 
Q 1547 4250 1301 3770 
Q 1056 3291 1056 2328 
Q 1056 1369 1301 889 
Q 1547 409 2034 409 
Q 2525 409 2770 889 
Q 3016 1369 3016 2328 
Q 3016 3291 2770 3770 
Q 2525 4250 2034 4250 
z
M 2034 4750 
Q 2819 4750 3233 4129 
Q 3647 3509 3647 2328 
Q 3647 1150 3233 529 
Q 2819 -91 2034 -91 
Q 1250 -91 836 529 
Q 422 1150 422 2328 
Q 422 3509 836 4129 
Q 1250 4750 2034 4750 
z
" transform="scale(0.015625)"/>
       </defs>
       <use xlink:href="#DejaVuSans-2212"/>
       <use xlink:href="#DejaVuSans-31" transform="translate(83.789062 0)"/>
       <use xlink:href="#DejaVuSans-2e" transform="translate(147.412109 0)"/>
       <use xlink:href="#DejaVuSans-30" transform="translate(179.199219 0)"/>
       <use xlink:href="#DejaVuSans-30" transform="translate(242.822266 0)"/>
      </g>
     </g>
    </g>
    <g id="xtick_2">
     <g id="line2d_3">
      <path d="M 104.390764 307.584 
L 104.390764 41.472 
" clip-path="url(#pf999f1bc1f)" style="fill: none; stroke: #b0b0b0; stroke-opacity: 0.5; stroke-width: 0.8; stroke-linecap: square"/>
     </g>
     <g id="line2d_4">
      <g>
       <use xlink:href="#m2fa536abbe" x="104.390764" y="307.584" style="stroke: #000000; stroke-width: 0.8"/>
      </g>
     </g>
     <g id="text_2">
      <!-- −0.75 -->
      <g transform="translate(89.068108 322.182437) scale(0.1 -0.1)">
       <defs>
        <path id="DejaVuSans-37" d="M 525 4666 
L 3525 4666 
L 3525 4397 
L 1831 0 
L 1172 0 
L 2766 4134 
L 525 4134 
L 525 4666 
z
" transform="scale(0.015625)"/>
        <path id="DejaVuSans-35" d="M 691 4666 
L 3169 4666 
L 3169 4134 
L 1269 4134 
L 1269 2991 
Q 1406 3038 1543 3061 
Q 1681 3084 1819 3084 
Q 2600 3084 3056 2656 
Q 3513 2228 3513 1497 
Q 3513 744 3044 326 
Q 2575 -91 1722 -91 
Q 1428 -91 1123 -41 
Q 819 9 494 109 
L 494 744 
Q 775 591 1075 516 
Q 1375 441 1709 441 
Q 2250 441 2565 725 
Q 2881 1009 2881 1497 
Q 2881 1984 2565 2268 
Q 2250 2553 1709 2553 
Q 1456 2553 1204 2497 
Q 953 2441 691 2322 
L 691 4666 
z
" transform="scale(0.015625)"/>
       </defs>
       <use xlink:href="#DejaVuSans-2212"/>
       <use xlink:href="#DejaVuSans-30" transform="translate(83.789062 0)"/>
       <use xlink:href="#DejaVuSans-2e" transform="translate(147.412109 0)"/>
       <use xlink:href="#DejaVuSans-37" transform="translate(179.199219 0)"/>
       <use xlink:href="#DejaVuSans-35" transform="translate(242.822266 0)"/>
      </g>
     </g>
    </g>
    <g id="xtick_3">
     <g id="line2d_5">
      <path d="M 145.661341 307.584 
L 145.661341 41.472 
" clip-path="url(#pf999f1bc1f)" style="fill: none; stroke: #b0b0b0; stroke-opacity: 0.5; stroke-width: 0.8; stroke-linecap: square"/>
     </g>
     <g id="line2d_6">
      <g>
       <use xlink:href="#m2fa536abbe" x="145.661341" y="307.584" style="stroke: #000000; stroke-width: 0.8"/>
      </g>
     </g>
     <g id="text_3">
      <!-- −0.50 -->
      <g transform="translate(130.338685 322.182437) scale(0.1 -0.1)">
       <use xlink:href="#DejaVuSans-2212"/>
       <use xlink:href="#DejaVuSans-30" transform="translate(83.789062 0)"/>
       <use xlink:href="#DejaVuSans-2e" transform="translate(147.412109 0)"/>
       <use xlink:href="#DejaVuSans-35" transform="translate(179.199219 0)"/>
       <use xlink:href="#DejaVuSans-30" transform="translate(242.822266 0)"/>
      </g>
     </g>
    </g>
    <g id="xtick_4">
     <g id="line2d_7">
      <path d="M 186.931918 307.584 
L 186.931918 41.472 
" clip-path="url(#pf999f1bc1f)" style="fill: none; stroke: #b0b0b0; stroke-opacity: 0.5; stroke-width: 0.8; stroke-linecap: square"/>
     </g>
     <g id="line2d_8">
      <g>
       <use xlink:href="#m2fa536abbe" x="186.931918" y="307.584" style="stroke: #000000; stroke-width: 0.8"/>
      </g>
     </g>
     <g id="text_4">
      <!-- −0.25 -->
      <g transform="translate(171.609262 322.182437) scale(0.1 -0.1)">
       <defs>
        <path id="DejaVuSans-32" d="M 1228 531 
L 3431 531 
L 3431 0 
L 469 0 
L 469 531 
Q 828 903 1448 1529 
Q 2069 2156 2228 2338 
Q 2531 2678 2651 2914 
Q 2772 3150 2772 3378 
Q 2772 3750 2511 3984 
Q 2250 4219 1831 4219 
Q 1534 4219 1204 4116 
Q 875 4013 500 3803 
L 500 4441 
Q 881 4594 1212 4672 
Q 1544 4750 1819 4750 
Q 2544 4750 2975 4387 
Q 3406 4025 3406 3419 
Q 3406 3131 3298 2873 
Q 3191 2616 2906 2266 
Q 2828 2175 2409 1742 
Q 1991 1309 1228 531 
z
" transform="scale(0.015625)"/>
       </defs>
       <use xlink:href="#DejaVuSans-2212"/>
       <use xlink:href="#DejaVuSans-30" transform="translate(83.789062 0)"/>
       <use xlink:href="#DejaVuSans-2e" transform="translate(147.412109 0)"/>
       <use xlink:href="#DejaVuSans-32" transform="translate(179.199219 0)"/>
       <use xlink:href="#DejaVuSans-35" transform="translate(242.822266 0)"/>
      </g>
     </g>
    </g>
    <g id="xtick_5">
     <g id="line2d_9">
      <path d="M 228.202495 307.584 
L 228.202495 41.472 
" clip-path="url(#pf999f1bc1f)" style="fill: none; stroke: #b0b0b0; stroke-opacity: 0.5; stroke-width: 0.8; stroke-linecap: square"/>
     </g>
     <g id="line2d_10">
      <g>
       <use xlink:href="#m2fa536abbe" x="228.202495" y="307.584" style="stroke: #000000; stroke-width: 0.8"/>
      </g>
     </g>
     <g id="text_5">
      <!-- 0.00 -->
      <g transform="translate(217.069682 322.182437) scale(0.1 -0.1)">
       <use xlink:href="#DejaVuSans-30"/>
       <use xlink:href="#DejaVuSans-2e" transform="translate(63.623047 0)"/>
       <use xlink:href="#DejaVuSans-30" transform="translate(95.410156 0)"/>
       <use xlink:href="#DejaVuSans-30" transform="translate(159.033203 0)"/>
      </g>
     </g>
    </g>
    <g id="xtick_6">
     <g id="line2d_11">
      <path d="M 269.473071 307.584 
L 269.473071 41.472 
" clip-path="url(#pf999f1bc1f)" style="fill: none; stroke: #b0b0b0; stroke-opacity: 0.5; stroke-width: 0.8; stroke-linecap: square"/>
     </g>
     <g id="line2d_12">
      <g>
       <use xlink:href="#m2fa536abbe" x="269.473071" y="307.584" style="stroke: #000000; stroke-width: 0.8"/>
      </g>
     </g>
     <g id="text_6">
      <!-- 0.25 -->
      <g transform="translate(258.340259 322.182437) scale(0.1 -0.1)">
       <use xlink:href="#DejaVuSans-30"/>
       <use xlink:href="#DejaVuSans-2e" transform="translate(63.623047 0)"/>
       <use xlink:href="#DejaVuSans-32" transform="translate(95.410156 0)"/>
       <use xlink:href="#DejaVuSans-35" transform="translate(159.033203 0)"/>
      </g>
     </g>
    </g>
    <g id="xtick_7">
     <g id="line2d_13">
      <path d="M 310.743648 307.584 
L 310.743648 41.472 
" clip-path="url(#pf999f1bc1f)" style="fill: none; stroke: #b0b0b0; stroke-opacity: 0.5; stroke-width: 0.8; stroke-linecap: square"/>
     </g>
     <g id="line2d_14">
      <g>
       <use xlink:href="#m2fa536abbe" x="310.743648" y="307.584" style="stroke: #000000; stroke-width: 0.8"/>
      </g>
     </g>
     <g id="text_7">
      <!-- 0.50 -->
      <g transform="translate(299.610836 322.182437) scale(0.1 -0.1)">
       <use xlink:href="#DejaVuSans-30"/>
       <use xlink:href="#DejaVuSans-2e" transform="translate(63.623047 0)"/>
       <use xlink:href="#DejaVuSans-35" transform="translate(95.410156 0)"/>
       <use xlink:href="#DejaVuSans-30" transform="translate(159.033203 0)"/>
      </g>
     </g>
    </g>
    <g id="xtick_8">
     <g id="line2d_15">
      <path d="M 352.014225 307.584 
L 352.014225 41.472 
" clip-path="url(#pf999f1bc1f)" style="fill: none; stroke: #b0b0b0; stroke-opacity: 0.5; stroke-width: 0.8; stroke-linecap: square"/>
     </g>
     <g id="line2d_16">
      <g>
       <use xlink:href="#m2fa536abbe" x="352.014225" y="307.584" style="stroke: #000000; stroke-width: 0.8"/>
      </g>
     </g>
     <g id="text_8">
      <!-- 0.75 -->
      <g transform="translate(340.881413 322.182437) scale(0.1 -0.1)">
       <use xlink:href="#DejaVuSans-30"/>
       <use xlink:href="#DejaVuSans-2e" transform="translate(63.623047 0)"/>
       <use xlink:href="#DejaVuSans-37" transform="translate(95.410156 0)"/>
       <use xlink:href="#DejaVuSans-35" transform="translate(159.033203 0)"/>
      </g>
     </g>
    </g>
    <g id="xtick_9">
     <g id="line2d_17">
      <path d="M 393.284802 307.584 
L 393.284802 41.472 
" clip-path="url(#pf999f1bc1f)" style="fill: none; stroke: #b0b0b0; stroke-opacity: 0.5; stroke-width: 0.8; stroke-linecap: square"/>
     </g>
     <g id="line2d_18">
      <g>
       <use xlink:href="#m2fa536abbe" x="393.284802" y="307.584" style="stroke: #000000; stroke-width: 0.8"/>
      </g>
     </g>
     <g id="text_9">
      <!-- 1.00 -->
      <g transform="translate(382.151989 322.182437) scale(0.1 -0.1)">
       <use xlink:href="#DejaVuSans-31"/>
       <use xlink:href="#DejaVuSans-2e" transform="translate(63.623047 0)"/>
       <use xlink:href="#DejaVuSans-30" transform="translate(95.410156 0)"/>
       <use xlink:href="#DejaVuSans-30" transform="translate(159.033203 0)"/>
      </g>
     </g>
    </g>
    <g id="text_10">
     <!-- Index -->
     <g transform="translate(222.393594 335.860562) scale(0.1 -0.1)">
      <defs>
       <path id="DejaVuSans-49" d="M 628 4666 
L 1259 4666 
L 1259 0 
L 628 0 
L 628 4666 
z
" transform="scale(0.015625)"/>
       <path id="DejaVuSans-6e" d="M 3513 2113 
L 3513 0 
L 2938 0 
L 2938 2094 
Q 2938 2591 2744 2837 
Q 2550 3084 2163 3084 
Q 1697 3084 1428 2787 
Q 1159 2491 1159 1978 
L 1159 0 
L 581 0 
L 581 3500 
L 1159 3500 
L 1159 2956 
Q 1366 3272 1645 3428 
Q 1925 3584 2291 3584 
Q 2894 3584 3203 3211 
Q 3513 2838 3513 2113 
z
" transform="scale(0.015625)"/>
       <path id="DejaVuSans-64" d="M 2906 2969 
L 2906 4863 
L 3481 4863 
L 3481 0 
L 2906 0 
L 2906 525 
Q 2725 213 2448 61 
Q 2172 -91 1784 -91 
Q 1150 -91 751 415 
Q 353 922 353 1747 
Q 353 2572 751 3078 
Q 1150 3584 1784 3584 
Q 2172 3584 2448 3432 
Q 2725 3281 2906 2969 
z
M 947 1747 
Q 947 1113 1208 752 
Q 1469 391 1925 391 
Q 2381 391 2643 752 
Q 2906 1113 2906 1747 
Q 2906 2381 2643 2742 
Q 2381 3103 1925 3103 
Q 1469 3103 1208 2742 
Q 947 2381 947 1747 
z
" transform="scale(0.015625)"/>
       <path id="DejaVuSans-65" d="M 3597 1894 
L 3597 1613 
L 953 1613 
Q 991 1019 1311 708 
Q 1631 397 2203 397 
Q 2534 397 2845 478 
Q 3156 559 3463 722 
L 3463 178 
Q 3153 47 2828 -22 
Q 2503 -91 2169 -91 
Q 1331 -91 842 396 
Q 353 884 353 1716 
Q 353 2575 817 3079 
Q 1281 3584 2069 3584 
Q 2775 3584 3186 3129 
Q 3597 2675 3597 1894 
z
M 3022 2063 
Q 3016 2534 2758 2815 
Q 2500 3097 2075 3097 
Q 1594 3097 1305 2825 
Q 1016 2553 972 2059 
L 3022 2063 
z
" transform="scale(0.015625)"/>
       <path id="DejaVuSans-78" d="M 3513 3500 
L 2247 1797 
L 3578 0 
L 2900 0 
L 1881 1375 
L 863 0 
L 184 0 
L 1544 1831 
L 300 3500 
L 978 3500 
L 1906 2253 
L 2834 3500 
L 3513 3500 
z
" transform="scale(0.015625)"/>
      </defs>
      <use xlink:href="#DejaVuSans-49"/>
      <use xlink:href="#DejaVuSans-6e" transform="translate(29.492188 0)"/>
      <use xlink:href="#DejaVuSans-64" transform="translate(92.871094 0)"/>
      <use xlink:href="#DejaVuSans-65" transform="translate(156.347656 0)"/>
      <use xlink:href="#DejaVuSans-78" transform="translate(216.121094 0)"/>
     </g>
    </g>
   </g>
   <g id="matplotlib.axis_2">
    <g id="ytick_1">
     <g id="line2d_19">
      <path d="M 57.6 302.513077 
L 414.72 302.513077 
" clip-path="url(#pf999f1bc1f)" style="fill: none; stroke: #b0b0b0; stroke-opacity: 0.5; stroke-width: 0.8; stroke-linecap: square"/>
     </g>
     <g id="line2d_20">
      <defs>
       <path id="mcb31f4674f" d="M 0 0 
L -3.5 0 
" style="stroke: #000000; stroke-width: 0.8"/>
      </defs>
      <g>
       <use xlink:href="#mcb31f4674f" x="57.6" y="302.513077" style="stroke: #000000; stroke-width: 0.8"/>
      </g>
     </g>
     <g id="text_11">
      <!-- −1.00 -->
      <g transform="translate(19.954687 306.312296) scale(0.1 -0.1)">
       <use xlink:href="#DejaVuSans-2212"/>
       <use xlink:href="#DejaVuSans-31" transform="translate(83.789062 0)"/>
       <use xlink:href="#DejaVuSans-2e" transform="translate(147.412109 0)"/>
       <use xlink:href="#DejaVuSans-30" transform="translate(179.199219 0)"/>
       <use xlink:href="#DejaVuSans-30" transform="translate(242.822266 0)"/>
      </g>
     </g>
    </g>
    <g id="ytick_2">
     <g id="line2d_21">
      <path d="M 57.6 271.394927 
L 414.72 271.394927 
" clip-path="url(#pf999f1bc1f)" style="fill: none; stroke: #b0b0b0; stroke-opacity: 0.5; stroke-width: 0.8; stroke-linecap: square"/>
     </g>
     <g id="line2d_22">
      <g>
       <use xlink:href="#mcb31f4674f" x="57.6" y="271.394927" style="stroke: #000000; stroke-width: 0.8"/>
      </g>
     </g>
     <g id="text_12">
      <!-- −0.75 -->
      <g transform="translate(19.954687 275.194146) scale(0.1 -0.1)">
       <use xlink:href="#DejaVuSans-2212"/>
       <use xlink:href="#DejaVuSans-30" transform="translate(83.789062 0)"/>
       <use xlink:href="#DejaVuSans-2e" transform="translate(147.412109 0)"/>
       <use xlink:href="#DejaVuSans-37" transform="translate(179.199219 0)"/>
       <use xlink:href="#DejaVuSans-35" transform="translate(242.822266 0)"/>
      </g>
     </g>
    </g>
    <g id="ytick_3">
     <g id="line2d_23">
      <path d="M 57.6 240.276776 
L 414.72 240.276776 
" clip-path="url(#pf999f1bc1f)" style="fill: none; stroke: #b0b0b0; stroke-opacity: 0.5; stroke-width: 0.8; stroke-linecap: square"/>
     </g>
     <g id="line2d_24">
      <g>
       <use xlink:href="#mcb31f4674f" x="57.6" y="240.276776" style="stroke: #000000; stroke-width: 0.8"/>
      </g>
     </g>
     <g id="text_13">
      <!-- −0.50 -->
      <g transform="translate(19.954687 244.075995) scale(0.1 -0.1)">
       <use xlink:href="#DejaVuSans-2212"/>
       <use xlink:href="#DejaVuSans-30" transform="translate(83.789062 0)"/>
       <use xlink:href="#DejaVuSans-2e" transform="translate(147.412109 0)"/>
       <use xlink:href="#DejaVuSans-35" transform="translate(179.199219 0)"/>
       <use xlink:href="#DejaVuSans-30" transform="translate(242.822266 0)"/>
      </g>
     </g>
    </g>
    <g id="ytick_4">
     <g id="line2d_25">
      <path d="M 57.6 209.158626 
L 414.72 209.158626 
" clip-path="url(#pf999f1bc1f)" style="fill: none; stroke: #b0b0b0; stroke-opacity: 0.5; stroke-width: 0.8; stroke-linecap: square"/>
     </g>
     <g id="line2d_26">
      <g>
       <use xlink:href="#mcb31f4674f" x="57.6" y="209.158626" style="stroke: #000000; stroke-width: 0.8"/>
      </g>
     </g>
     <g id="text_14">
      <!-- −0.25 -->
      <g transform="translate(19.954687 212.957845) scale(0.1 -0.1)">
       <use xlink:href="#DejaVuSans-2212"/>
       <use xlink:href="#DejaVuSans-30" transform="translate(83.789062 0)"/>
       <use xlink:href="#DejaVuSans-2e" transform="translate(147.412109 0)"/>
       <use xlink:href="#DejaVuSans-32" transform="translate(179.199219 0)"/>
       <use xlink:href="#DejaVuSans-35" transform="translate(242.822266 0)"/>
      </g>
     </g>
    </g>
    <g id="ytick_5">
     <g id="line2d_27">
      <path d="M 57.6 178.040476 
L 414.72 178.040476 
" clip-path="url(#pf999f1bc1f)" style="fill: none; stroke: #b0b0b0; stroke-opacity: 0.5; stroke-width: 0.8; stroke-linecap: square"/>
     </g>
     <g id="line2d_28">
      <g>
       <use xlink:href="#mcb31f4674f" x="57.6" y="178.040476" style="stroke: #000000; stroke-width: 0.8"/>
      </g>
     </g>
     <g id="text_15">
      <!-- 0.00 -->
      <g transform="translate(28.334375 181.839694) scale(0.1 -0.1)">
       <use xlink:href="#DejaVuSans-30"/>
       <use xlink:href="#DejaVuSans-2e" transform="translate(63.623047 0)"/>
       <use xlink:href="#DejaVuSans-30" transform="translate(95.410156 0)"/>
       <use xlink:href="#DejaVuSans-30" transform="translate(159.033203 0)"/>
      </g>
     </g>
    </g>
    <g id="ytick_6">
     <g id="line2d_29">
      <path d="M 57.6 146.922325 
L 414.72 146.922325 
" clip-path="url(#pf999f1bc1f)" style="fill: none; stroke: #b0b0b0; stroke-opacity: 0.5; stroke-width: 0.8; stroke-linecap: square"/>
     </g>
     <g id="line2d_30">
      <g>
       <use xlink:href="#mcb31f4674f" x="57.6" y="146.922325" style="stroke: #000000; stroke-width: 0.8"/>
      </g>
     </g>
     <g id="text_16">
      <!-- 0.25 -->
      <g transform="translate(28.334375 150.721544) scale(0.1 -0.1)">
       <use xlink:href="#DejaVuSans-30"/>
       <use xlink:href="#DejaVuSans-2e" transform="translate(63.623047 0)"/>
       <use xlink:href="#DejaVuSans-32" transform="translate(95.410156 0)"/>
       <use xlink:href="#DejaVuSans-35" transform="translate(159.033203 0)"/>
      </g>
     </g>
    </g>
    <g id="ytick_7">
     <g id="line2d_31">
      <path d="M 57.6 115.804175 
L 414.72 115.804175 
" clip-path="url(#pf999f1bc1f)" style="fill: none; stroke: #b0b0b0; stroke-opacity: 0.5; stroke-width: 0.8; stroke-linecap: square"/>
     </g>
     <g id="line2d_32">
      <g>
       <use xlink:href="#mcb31f4674f" x="57.6" y="115.804175" style="stroke: #000000; stroke-width: 0.8"/>
      </g>
     </g>
     <g id="text_17">
      <!-- 0.50 -->
      <g transform="translate(28.334375 119.603393) scale(0.1 -0.1)">
       <use xlink:href="#DejaVuSans-30"/>
       <use xlink:href="#DejaVuSans-2e" transform="translate(63.623047 0)"/>
       <use xlink:href="#DejaVuSans-35" transform="translate(95.410156 0)"/>
       <use xlink:href="#DejaVuSans-30" transform="translate(159.033203 0)"/>
      </g>
     </g>
    </g>
    <g id="ytick_8">
     <g id="line2d_33">
      <path d="M 57.6 84.686024 
L 414.72 84.686024 
" clip-path="url(#pf999f1bc1f)" style="fill: none; stroke: #b0b0b0; stroke-opacity: 0.5; stroke-width: 0.8; stroke-linecap: square"/>
     </g>
     <g id="line2d_34">
      <g>
       <use xlink:href="#mcb31f4674f" x="57.6" y="84.686024" style="stroke: #000000; stroke-width: 0.8"/>
      </g>
     </g>
     <g id="text_18">
      <!-- 0.75 -->
      <g transform="translate(28.334375 88.485243) scale(0.1 -0.1)">
       <use xlink:href="#DejaVuSans-30"/>
       <use xlink:href="#DejaVuSans-2e" transform="translate(63.623047 0)"/>
       <use xlink:href="#DejaVuSans-37" transform="translate(95.410156 0)"/>
       <use xlink:href="#DejaVuSans-35" transform="translate(159.033203 0)"/>
      </g>
     </g>
    </g>
    <g id="ytick_9">
     <g id="line2d_35">
      <path d="M 57.6 53.567874 
L 414.72 53.567874 
" clip-path="url(#pf999f1bc1f)" style="fill: none; stroke: #b0b0b0; stroke-opacity: 0.5; stroke-width: 0.8; stroke-linecap: square"/>
     </g>
     <g id="line2d_36">
      <g>
       <use xlink:href="#mcb31f4674f" x="57.6" y="53.567874" style="stroke: #000000; stroke-width: 0.8"/>
      </g>
     </g>
     <g id="text_19">
      <!-- 1.00 -->
      <g transform="translate(28.334375 57.367093) scale(0.1 -0.1)">
       <use xlink:href="#DejaVuSans-31"/>
       <use xlink:href="#DejaVuSans-2e" transform="translate(63.623047 0)"/>
       <use xlink:href="#DejaVuSans-30" transform="translate(95.410156 0)"/>
       <use xlink:href="#DejaVuSans-30" transform="translate(159.033203 0)"/>
      </g>
     </g>
    </g>
    <g id="text_20">
     <!-- Value -->
     <g transform="translate(13.875 188.25925) rotate(-90) scale(0.1 -0.1)">
      <defs>
       <path id="DejaVuSans-56" d="M 1831 0 
L 50 4666 
L 709 4666 
L 2188 738 
L 3669 4666 
L 4325 4666 
L 2547 0 
L 1831 0 
z
" transform="scale(0.015625)"/>
       <path id="DejaVuSans-61" d="M 2194 1759 
Q 1497 1759 1228 1600 
Q 959 1441 959 1056 
Q 959 750 1161 570 
Q 1363 391 1709 391 
Q 2188 391 2477 730 
Q 2766 1069 2766 1631 
L 2766 1759 
L 2194 1759 
z
M 3341 1997 
L 3341 0 
L 2766 0 
L 2766 531 
Q 2569 213 2275 61 
Q 1981 -91 1556 -91 
Q 1019 -91 701 211 
Q 384 513 384 1019 
Q 384 1609 779 1909 
Q 1175 2209 1959 2209 
L 2766 2209 
L 2766 2266 
Q 2766 2663 2505 2880 
Q 2244 3097 1772 3097 
Q 1472 3097 1187 3025 
Q 903 2953 641 2809 
L 641 3341 
Q 956 3463 1253 3523 
Q 1550 3584 1831 3584 
Q 2591 3584 2966 3190 
Q 3341 2797 3341 1997 
z
" transform="scale(0.015625)"/>
       <path id="DejaVuSans-6c" d="M 603 4863 
L 1178 4863 
L 1178 0 
L 603 0 
L 603 4863 
z
" transform="scale(0.015625)"/>
       <path id="DejaVuSans-75" d="M 544 1381 
L 544 3500 
L 1119 3500 
L 1119 1403 
Q 1119 906 1312 657 
Q 1506 409 1894 409 
Q 2359 409 2629 706 
Q 2900 1003 2900 1516 
L 2900 3500 
L 3475 3500 
L 3475 0 
L 2900 0 
L 2900 538 
Q 2691 219 2414 64 
Q 2138 -91 1772 -91 
Q 1169 -91 856 284 
Q 544 659 544 1381 
z
M 1991 3584 
L 1991 3584 
z
" transform="scale(0.015625)"/>
      </defs>
      <use xlink:href="#DejaVuSans-56"/>
      <use xlink:href="#DejaVuSans-61" transform="translate(60.658203 0)"/>
      <use xlink:href="#DejaVuSans-6c" transform="translate(121.9375 0)"/>
      <use xlink:href="#DejaVuSans-75" transform="translate(149.720703 0)"/>
      <use xlink:href="#DejaVuSans-65" transform="translate(213.099609 0)"/>
     </g>
    </g>
   </g>
   <g id="line2d_37">
    <path d="M 106.713803 295.488 
L 124.317419 295.30517 
L 139.716585 294.843491 
L 144.222545 294.081026 
L 138.046261 291.774221 
L 135.405116 290.390891 
L 132.312842 289.004646 
L 127.859101 287.730186 
L 123.673157 286.656606 
L 117.042261 285.829134 
L 105.385703 285.24015 
L 81.129936 284.509171 
L 85.39019 284.163268 
L 107.034438 283.694697 
L 129.17682 283.036137 
L 140.061111 282.166168 
L 142.156686 281.11193 
L 140.612881 279.940499 
L 137.449662 278.741224 
L 133.05798 277.603609 
L 128.209698 276.596549 
L 122.633428 275.753422 
L 115.157039 275.066677 
L 107.227473 274.492605 
L 103.700423 273.964199 
L 109.644205 273.408854 
L 122.646603 272.765955 
L 134.802131 272.00027 
L 141.819067 271.108118 
L 144.285489 270.115592 
L 143.966644 269.06973 
L 141.926024 268.025633 
L 138.839624 267.032848 
L 135.213341 266.124374 
L 127.512282 264.579678 
L 125.370776 263.901753 
L 126.546636 263.238467 
L 131.326119 262.552166 
L 137.85059 261.814318 
L 143.744002 261.010898 
L 147.733389 260.143823 
L 149.722336 259.228694 
L 150.132095 258.289949 
L 149.445246 257.354528 
L 148.071987 256.445943 
L 144.702288 254.760639 
L 143.513341 253.983551 
L 143.495009 253.234722 
L 144.883013 252.49576 
L 147.645727 251.747799 
L 154.885931 250.169524 
L 157.924215 249.32889 
L 160.036832 248.459893 
L 161.207954 247.574671 
L 161.581946 246.688328 
L 161.401422 245.815309 
L 160.259754 244.146328 
L 160.018928 243.353021 
L 160.437523 242.578344 
L 161.735105 241.810314 
L 163.874629 241.036044 
L 169.107652 239.431354 
L 171.256744 238.595283 
L 172.730865 237.74256 
L 173.574538 236.882733 
L 173.926297 236.026563 
L 174.013388 234.35769 
L 174.23789 233.550401 
L 174.879879 232.756894 
L 176.068315 231.969623 
L 177.761525 231.180203 
L 181.709748 229.570382 
L 183.370055 228.746349 
L 184.585983 227.913175 
L 185.425179 227.076548 
L 186.447963 225.415624 
L 186.93486 224.598223 
L 187.58139 223.789759 
L 188.471625 222.987479 
L 190.930224 221.38593 
L 193.609794 219.768976 
L 195.806048 218.134319 
L 198.334386 215.68162 
L 200.049342 214.061104 
L 203.019895 211.646792 
L 211.46167 205.190318 
L 215.7333 201.191592 
L 217.987072 199.603138 
L 220.333687 198.001806 
L 222.239321 196.38971 
L 225.984136 192.419167 
L 228.275535 190.852463 
L 230.762025 189.269735 
L 232.751277 187.669361 
L 234.047179 186.071354 
L 235.311727 184.494742 
L 236.11703 183.714462 
L 238.172786 182.158027 
L 207.944534 182.060612 
L 318.871965 181.278377 
L 258.003726 180.491526 
L 243.074598 179.700382 
L 242.56463 178.906546 
L 245.729937 175.745031 
L 247.655067 174.181017 
L 251.823873 171.046791 
L 259.344713 164.749356 
L 264.348855 160.047624 
L 268.302431 156.904013 
L 269.855786 155.320914 
L 271.951537 152.96988 
L 273.734648 151.42018 
L 276.803873 149.082719 
L 278.461076 147.506633 
L 281.185337 144.376026 
L 282.978494 142.832362 
L 285.933864 140.505302 
L 287.523261 138.939555 
L 288.80359 137.376883 
L 290.007306 135.826975 
L 292.300481 133.510232 
L 293.734628 131.956266 
L 295.459164 129.621928 
L 296.574997 128.076157 
L 300.369298 123.4329 
L 301.878684 121.113404 
L 303.241798 119.579143 
L 305.450475 117.270268 
L 306.615857 115.721058 
L 308.198642 113.41133 
L 309.677692 111.887934 
L 312.205135 109.596479 
L 313.545239 108.055033 
L 315.301168 105.754178 
L 316.798746 104.240398 
L 320.10096 101.205033 
L 321.300987 99.672579 
L 322.457089 98.149317 
L 323.922669 96.643001 
L 327.354275 93.626658 
L 328.612887 92.10356 
L 329.826551 90.590432 
L 331.384289 89.096187 
L 334.903783 86.100418 
L 336.102373 84.582104 
L 337.255592 83.074801 
L 338.83426 81.59158 
L 341.689221 79.370095 
L 342.410675 78.618224 
L 343.372002 77.101262 
L 344.255033 75.594107 
L 344.885323 74.852259 
L 346.609254 73.386384 
L 348.536668 71.913216 
L 349.21472 71.164194 
L 349.520557 70.40716 
L 349.959633 68.137398 
L 350.373568 67.397576 
L 351.004104 66.667235 
L 353.539325 64.47375 
L 354.089235 63.722169 
L 354.213372 62.959503 
L 353.603175 61.430847 
L 353.545613 60.682871 
L 353.823997 59.952085 
L 354.4289 59.234595 
L 357.042967 57.046058 
L 356.823936 56.280224 
L 355.704132 55.516987 
L 355.001471 54.799341 
L 355.963801 54.188812 
L 353.435448 53.75629 
L 342.81543 53.568 
L 328.53165 53.668975 
L 319.352151 54.069579 
L 322.414129 54.737109 
L 333.961723 55.597092 
L 343.134747 56.543649 
L 348.989844 57.458385 
L 353.814118 58.788741 
L 368.114271 59.097526 
L 398.487273 59.110903 
L 389.331251 58.985208 
L 372.635423 58.91207 
L 355.399751 58.982396 
L 340.729774 59.250813 
L 333.669435 59.725149 
L 337.240764 60.366942 
L 345.307819 61.102765 
L 352.145034 61.843003 
L 360.205801 63.024865 
L 367.280752 63.384011 
L 385.482916 63.714727 
L 384.000717 63.803482 
L 362.265707 64.158073 
L 352.144286 64.506276 
L 347.842676 64.975017 
L 349.086785 65.534154 
L 360.158069 67.259023 
L 363.823091 67.706598 
L 375.424931 68.571723 
L 373.721487 68.794608 
L 362.363691 69.348908 
L 357.268728 69.7185 
L 354.595545 70.149982 
L 354.159766 70.626663 
L 355.164416 71.123656 
L 356.839718 71.614255 
L 360.964017 72.493505 
L 364.809764 73.193716 
L 365.31146 73.497382 
L 364.193171 73.793925 
L 353.175169 75.211509 
L 352.147356 75.643043 
L 352.097902 76.088682 
L 352.730947 76.533163 
L 354.930369 77.366941 
L 356.740239 78.094077 
L 356.706981 78.428777 
L 355.714581 78.759166 
L 348.122694 80.230568 
L 347.369959 80.645187 
L 347.263454 81.065904 
L 347.589836 81.482727 
L 348.979788 82.646954 
L 348.882789 83.00584 
L 348.241094 83.359051 
L 345.669998 84.077439 
L 343.122704 84.839608 
L 342.379631 85.235798 
L 342.010781 85.636216 
L 341.905162 86.035515 
L 341.94273 86.814859 
L 341.857892 87.192286 
L 341.551662 87.563414 
L 340.993113 87.931477 
L 337.129546 89.816734 
L 336.347656 90.592591 
L 335.508116 91.739561 
L 334.666942 92.488198 
L 332.847665 93.607361 
L 331.043168 94.743507 
L 329.315282 96.261063 
L 328.463186 97.002681 
L 327.253713 97.736093 
L 324.314268 99.222385 
L 323.35923 99.975592 
L 321.939523 101.443766 
L 320.634379 102.1603 
L 318.232288 103.252502 
L 317.194577 103.995782 
L 315.584098 105.814696 
L 314.326312 106.523611 
L 312.214758 107.603883 
L 311.214398 108.336842 
L 309.208718 110.149354 
L 306.838548 111.581642 
L 304.540679 113.036314 
L 302.124248 114.862247 
L 300.592654 115.943521 
L 296.45977 118.495362 
L 294.813445 119.949188 
L 293.723042 120.664212 
L 291.279438 122.111572 
L 290.442751 122.843972 
L 289.348924 123.929437 
L 288.335733 124.642654 
L 285.461073 126.441497 
L 282.820931 128.606366 
L 279.725277 130.766024 
L 276.374524 133.292547 
L 268.673382 139.04303 
L 265.60457 141.187482 
L 263.798392 142.609368 
L 259.859387 145.43725 
L 257.526499 147.191924 
L 251.523369 151.71446 
L 249.301446 153.43501 
L 246.890861 155.155111 
L 244.758489 156.870707 
L 241.875371 158.928988 
L 239.702956 160.645206 
L 237.374821 162.363696 
L 234.877792 164.42902 
L 232.694403 166.152941 
L 230.590499 167.873195 
L 210.868347 182.571883 
L 181.420806 204.136562 
L 179.661143 205.437717 
L 177.438336 207.068434 
L 175.312952 208.700038 
L 173.089492 210.333333 
L 169.234318 213.598625 
L 167.444329 215.228848 
L 165.562373 216.857243 
L 163.768616 218.481164 
L 162.232559 219.778027 
L 159.944909 222.046219 
L 158.530786 223.338898 
L 156.972 224.954999 
L 154.859383 226.885238 
L 153.586184 228.171517 
L 151.043848 230.412084 
L 149.635137 231.6862 
L 147.791123 233.274001 
L 146.466216 234.540969 
L 143.519953 237.059568 
L 142.353578 237.997604 
L 140.300333 239.556633 
L 138.538166 241.116906 
L 136.466994 242.665637 
L 134.74515 244.219703 
L 132.36755 246.075536 
L 131.001125 247.316803 
L 128.640243 249.172977 
L 127.291126 250.414972 
L 124.888258 252.269172 
L 123.546028 253.512843 
L 120.698211 255.677594 
L 119.671362 256.608971 
L 116.778371 258.767698 
L 115.784013 259.697762 
L 112.547124 262.158566 
L 111.453583 263.081307 
L 109.228075 264.607655 
L 107.557171 266.144487 
L 105.263996 267.660278 
L 103.681058 269.191648 
L 101.162781 271.001653 
L 100.424835 271.917821 
L 99.649282 272.519031 
L 97.813898 273.71292 
L 97.08037 274.623561 
L 96.49364 275.22558 
L 95.038225 276.110958 
L 94.150627 276.703533 
L 93.653753 277.305879 
L 93.117353 278.207453 
L 92.342932 278.793981 
L 91.085323 279.671495 
L 90.778217 280.270272 
L 90.644496 280.872158 
L 90.451688 281.169109 
L 89.663884 281.751378 
L 88.286478 282.620294 
L 88.073862 282.916756 
L 88.025815 283.518856 
L 88.009019 283.819599 
L 87.864041 284.116624 
L 87.544055 284.408582 
L 85.283607 285.852667 
L 85.342005 286.153417 
L 85.707628 286.759606 
L 85.719966 287.057796 
L 85.501231 287.349457 
L 84.481742 287.916874 
L 83.487807 288.487443 
L 83.349078 288.782866 
L 83.505302 289.085641 
L 84.152792 289.698522 
L 84.245462 289.998374 
L 84.014358 290.28896 
L 82.71068 290.847161 
L 81.415592 291.411358 
L 81.313801 291.709407 
L 81.679098 292.018793 
L 82.897506 292.646274 
L 83.066128 292.946906 
L 82.686642 293.231103 
L 80.562483 293.765 
L 79.374657 294.037053 
L 78.758516 294.328343 
L 79.185853 294.640548 
L 83.077877 295.445058 
L 83.077877 295.445058 
" clip-path="url(#pf999f1bc1f)" style="fill: none; stroke: #1f77b4; stroke-width: 1.5; stroke-linecap: square"/>
   </g>
   <g id="line2d_38">
    <path d="M 85.722289 295.488 
L 89.220331 295.30517 
L 91.753555 294.843491 
L 92.833144 294.081026 
L 92.268878 293.037056 
L 90.238954 291.774221 
L 81.660305 287.730186 
L 80.562089 286.656606 
L 81.248239 285.829134 
L 83.733307 285.24015 
L 87.633822 284.831689 
L 96.799998 284.163268 
L 100.483676 283.694697 
L 102.792319 283.036137 
L 103.554067 282.166168 
L 102.968882 281.11193 
L 98.782722 277.603609 
L 98.596565 276.596549 
L 99.581103 275.753422 
L 101.649904 275.066677 
L 107.538387 273.964199 
L 110.375597 273.408854 
L 112.589317 272.765955 
L 113.987997 272.00027 
L 114.600861 271.108118 
L 114.645956 270.115592 
L 114.37382 268.025633 
L 114.682422 267.032848 
L 115.526695 266.124374 
L 116.902862 265.310686 
L 118.676866 264.579678 
L 124.208612 262.552166 
L 125.523182 261.814318 
L 126.471028 261.010898 
L 127.124343 260.143823 
L 128.700285 257.354528 
L 129.530605 256.445943 
L 130.622917 255.579639 
L 131.957019 254.760639 
L 135.045575 253.234722 
L 138.013407 251.747799 
L 139.241181 250.975414 
L 140.254667 250.169524 
L 141.076851 249.32889 
L 143.985527 245.815309 
L 145.024557 244.966388 
L 147.64467 243.353021 
L 151.888584 241.036044 
L 153.055835 240.244989 
L 154.036122 239.431354 
L 155.59299 237.74256 
L 157.146403 236.026563 
L 158.111852 235.183151 
L 160.518616 233.550401 
L 165.736191 230.381703 
L 167.714251 228.746349 
L 171.213445 225.415624 
L 173.388598 223.789759 
L 180.429287 218.953107 
L 183.328969 216.496828 
L 186.204205 214.061104 
L 188.377858 212.450464 
L 194.18646 208.42707 
L 196.104465 206.809294 
L 198.75407 204.383514 
L 200.8415 202.780817 
L 207.79549 198.001806 
L 212.319481 193.991104 
L 214.559297 192.419167 
L 218.054344 190.06384 
L 220.101007 188.470821 
L 224.91889 184.494742 
L 232.395385 178.906546 
L 243.643816 170.259955 
L 249.031206 166.325463 
L 254.885302 161.608282 
L 260.336714 157.69451 
L 266.073876 152.96988 
L 271.46101 149.082719 
L 277.224052 144.376026 
L 281.463465 141.284491 
L 288.416453 135.826975 
L 292.507818 132.734352 
L 296.397893 129.621928 
L 302.60986 124.986728 
L 306.442186 121.883652 
L 313.583151 116.49594 
L 316.412825 114.17749 
L 323.557696 108.826498 
L 326.357329 106.517045 
L 334.397355 100.438828 
L 337.272753 98.149317 
L 342.482918 94.385629 
L 347.017364 90.590432 
L 352.363317 86.855724 
L 357.791933 82.330579 
L 362.181991 79.370095 
L 363.870302 77.860752 
L 365.47288 76.344383 
L 367.468414 74.852259 
L 372.019253 71.913216 
L 373.660235 70.40716 
L 375.128629 68.887956 
L 376.027778 68.137398 
L 378.343643 66.667235 
L 380.882525 65.212334 
L 381.942316 64.47375 
L 382.763211 63.722169 
L 384.497738 61.430847 
L 385.358552 60.682871 
L 386.570495 59.952085 
L 391.133456 57.793322 
L 391.93163 57.046058 
L 391.78132 56.280224 
L 390.508509 55.516987 
L 388.184122 54.799341 
L 385.147472 54.188812 
L 381.957893 53.75629 
L 379.27979 53.568 
L 377.727178 53.668975 
L 377.705993 54.069579 
L 379.297334 54.737109 
L 382.215121 55.597092 
L 392.102221 58.232402 
L 393.284802 58.788741 
L 392.669104 59.097526 
L 390.356073 59.181689 
L 376.281779 58.982396 
L 374.948523 59.250813 
L 375.104846 59.725149 
L 376.474952 60.366942 
L 380.594744 61.843003 
L 382.08877 62.503574 
L 382.589196 63.024865 
L 381.952815 63.384011 
L 380.318741 63.597549 
L 373.491219 63.933117 
L 372.007278 64.158073 
L 371.314536 64.506276 
L 371.354071 64.975017 
L 373.210247 66.725802 
L 373.401786 67.259023 
L 373.076447 67.706598 
L 372.251292 68.062035 
L 369.716642 68.571723 
L 367.391803 69.044893 
L 366.691395 69.348908 
L 366.341398 69.7185 
L 366.268575 70.149982 
L 366.419859 71.123656 
L 366.361776 71.614255 
L 366.078816 72.075674 
L 365.537123 72.493505 
L 363.824292 73.193716 
L 361.068613 74.10225 
L 360.454558 74.437291 
L 360.049282 74.807062 
L 359.699048 75.643043 
L 359.41603 76.533163 
L 359.090534 76.962479 
L 358.580839 77.366941 
L 357.073145 78.094077 
L 354.630702 79.097479 
L 353.666926 79.831277 
L 353.221651 80.645187 
L 352.748668 81.482727 
L 352.333857 81.887441 
L 351.066566 82.646954 
L 348.149103 84.077439 
L 347.286164 84.839608 
L 346.077065 86.429219 
L 345.043929 87.192286 
L 341.296057 89.430753 
L 340.182423 90.592591 
L 339.438671 91.360807 
L 338.441371 92.115022 
L 334.948022 94.362756 
L 332.063601 97.002681 
L 329.102656 98.846709 
L 327.995959 99.975592 
L 327.253526 100.718485 
L 326.264777 101.443766 
L 323.438105 103.252502 
L 318.83238 106.880449 
L 316.322516 108.703496 
L 312.567176 111.581642 
L 309.924466 113.402516 
L 306.247892 116.303086 
L 304.19265 117.758378 
L 301.098664 120.306876 
L 298.628822 122.111572 
L 295.979687 124.286539 
L 292.6148 126.804935 
L 289.332536 129.323156 
L 279.866609 136.531857 
L 276.161269 139.39906 
L 228.292621 176.098157 
L 225.606179 178.144413 
L 218.958977 183.253428 
L 214.564774 186.640494 
L 204.600292 194.318709 
L 197.666481 199.564825 
L 191.713868 204.136562 
L 179.793811 213.271318 
L 173.999627 217.833758 
L 167.228865 223.014685 
L 164.334038 225.275933 
L 161.824129 227.20796 
L 156.409087 231.369006 
L 153.126046 233.909503 
L 139.2419 244.527999 
L 136.816086 246.38688 
L 132.002676 250.106009 
L 125.929354 254.744933 
L 119.288245 260.004929 
L 117.246326 261.53883 
L 115.34107 263.081307 
L 113.283614 264.607655 
L 111.399976 266.144487 
L 109.321552 267.660278 
L 107.457131 269.191648 
L 105.36008 270.696689 
L 103.554874 272.219676 
L 101.080866 274.015562 
L 99.667318 275.22558 
L 97.14662 277.003719 
L 95.798989 278.207453 
L 93.300361 279.969537 
L 92.020466 281.169109 
L 89.463352 282.916756 
L 88.353879 284.116624 
L 86.905913 284.981118 
L 85.973348 285.557103 
L 85.378058 286.153417 
L 84.59047 287.057796 
L 83.634458 287.634894 
L 82.059972 288.487443 
L 81.533038 289.085641 
L 81.229553 289.698522 
L 80.954318 289.998374 
L 79.920572 290.570546 
L 78.072662 291.411358 
L 77.780797 291.709407 
L 77.705544 292.018793 
L 77.769649 292.646274 
L 77.575404 292.946906 
L 77.052278 293.231103 
L 73.832727 294.328343 
L 74.272816 294.640548 
L 75.804686 294.958421 
L 78.43731 295.245453 
L 81.910921 295.445058 
L 81.910921 295.445058 
" clip-path="url(#pf999f1bc1f)" style="fill: none; stroke: #ff7f0e; stroke-opacity: 0.5; stroke-width: 1.5; stroke-linecap: square"/>
   </g>
   <g id="patch_3">
    <path d="M 57.6 307.584 
L 57.6 41.472 
" style="fill: none; stroke: #000000; stroke-width: 0.8; stroke-linejoin: miter; stroke-linecap: square"/>
   </g>
   <g id="patch_4">
    <path d="M 414.72 307.584 
L 414.72 41.472 
" style="fill: none; stroke: #000000; stroke-width: 0.8; stroke-linejoin: miter; stroke-linecap: square"/>
   </g>
   <g id="patch_5">
    <path d="M 57.6 307.584 
L 414.72 307.584 
" style="fill: none; stroke: #000000; stroke-width: 0.8; stroke-linejoin: miter; stroke-linecap: square"/>
   </g>
   <g id="patch_6">
    <path d="M 57.6 41.472 
L 414.72 41.472 
" style="fill: none; stroke: #000000; stroke-width: 0.8; stroke-linejoin: miter; stroke-linecap: square"/>
   </g>
   <g id="text_21">
    <!-- Compare - Epoch 100 -->
    <g transform="translate(171.234375 35.472) scale(0.12 -0.12)">
     <defs>
      <path id="DejaVuSans-43" d="M 4122 4306 
L 4122 3641 
Q 3803 3938 3442 4084 
Q 3081 4231 2675 4231 
Q 1875 4231 1450 3742 
Q 1025 3253 1025 2328 
Q 1025 1406 1450 917 
Q 1875 428 2675 428 
Q 3081 428 3442 575 
Q 3803 722 4122 1019 
L 4122 359 
Q 3791 134 3420 21 
Q 3050 -91 2638 -91 
Q 1578 -91 968 557 
Q 359 1206 359 2328 
Q 359 3453 968 4101 
Q 1578 4750 2638 4750 
Q 3056 4750 3426 4639 
Q 3797 4528 4122 4306 
z
" transform="scale(0.015625)"/>
      <path id="DejaVuSans-6f" d="M 1959 3097 
Q 1497 3097 1228 2736 
Q 959 2375 959 1747 
Q 959 1119 1226 758 
Q 1494 397 1959 397 
Q 2419 397 2687 759 
Q 2956 1122 2956 1747 
Q 2956 2369 2687 2733 
Q 2419 3097 1959 3097 
z
M 1959 3584 
Q 2709 3584 3137 3096 
Q 3566 2609 3566 1747 
Q 3566 888 3137 398 
Q 2709 -91 1959 -91 
Q 1206 -91 779 398 
Q 353 888 353 1747 
Q 353 2609 779 3096 
Q 1206 3584 1959 3584 
z
" transform="scale(0.015625)"/>
      <path id="DejaVuSans-6d" d="M 3328 2828 
Q 3544 3216 3844 3400 
Q 4144 3584 4550 3584 
Q 5097 3584 5394 3201 
Q 5691 2819 5691 2113 
L 5691 0 
L 5113 0 
L 5113 2094 
Q 5113 2597 4934 2840 
Q 4756 3084 4391 3084 
Q 3944 3084 3684 2787 
Q 3425 2491 3425 1978 
L 3425 0 
L 2847 0 
L 2847 2094 
Q 2847 2600 2669 2842 
Q 2491 3084 2119 3084 
Q 1678 3084 1418 2786 
Q 1159 2488 1159 1978 
L 1159 0 
L 581 0 
L 581 3500 
L 1159 3500 
L 1159 2956 
Q 1356 3278 1631 3431 
Q 1906 3584 2284 3584 
Q 2666 3584 2933 3390 
Q 3200 3197 3328 2828 
z
" transform="scale(0.015625)"/>
      <path id="DejaVuSans-70" d="M 1159 525 
L 1159 -1331 
L 581 -1331 
L 581 3500 
L 1159 3500 
L 1159 2969 
Q 1341 3281 1617 3432 
Q 1894 3584 2278 3584 
Q 2916 3584 3314 3078 
Q 3713 2572 3713 1747 
Q 3713 922 3314 415 
Q 2916 -91 2278 -91 
Q 1894 -91 1617 61 
Q 1341 213 1159 525 
z
M 3116 1747 
Q 3116 2381 2855 2742 
Q 2594 3103 2138 3103 
Q 1681 3103 1420 2742 
Q 1159 2381 1159 1747 
Q 1159 1113 1420 752 
Q 1681 391 2138 391 
Q 2594 391 2855 752 
Q 3116 1113 3116 1747 
z
" transform="scale(0.015625)"/>
      <path id="DejaVuSans-72" d="M 2631 2963 
Q 2534 3019 2420 3045 
Q 2306 3072 2169 3072 
Q 1681 3072 1420 2755 
Q 1159 2438 1159 1844 
L 1159 0 
L 581 0 
L 581 3500 
L 1159 3500 
L 1159 2956 
Q 1341 3275 1631 3429 
Q 1922 3584 2338 3584 
Q 2397 3584 2469 3576 
Q 2541 3569 2628 3553 
L 2631 2963 
z
" transform="scale(0.015625)"/>
      <path id="DejaVuSans-20" transform="scale(0.015625)"/>
      <path id="DejaVuSans-2d" d="M 313 2009 
L 1997 2009 
L 1997 1497 
L 313 1497 
L 313 2009 
z
" transform="scale(0.015625)"/>
      <path id="DejaVuSans-45" d="M 628 4666 
L 3578 4666 
L 3578 4134 
L 1259 4134 
L 1259 2753 
L 3481 2753 
L 3481 2222 
L 1259 2222 
L 1259 531 
L 3634 531 
L 3634 0 
L 628 0 
L 628 4666 
z
" transform="scale(0.015625)"/>
      <path id="DejaVuSans-63" d="M 3122 3366 
L 3122 2828 
Q 2878 2963 2633 3030 
Q 2388 3097 2138 3097 
Q 1578 3097 1268 2742 
Q 959 2388 959 1747 
Q 959 1106 1268 751 
Q 1578 397 2138 397 
Q 2388 397 2633 464 
Q 2878 531 3122 666 
L 3122 134 
Q 2881 22 2623 -34 
Q 2366 -91 2075 -91 
Q 1284 -91 818 406 
Q 353 903 353 1747 
Q 353 2603 823 3093 
Q 1294 3584 2113 3584 
Q 2378 3584 2631 3529 
Q 2884 3475 3122 3366 
z
" transform="scale(0.015625)"/>
      <path id="DejaVuSans-68" d="M 3513 2113 
L 3513 0 
L 2938 0 
L 2938 2094 
Q 2938 2591 2744 2837 
Q 2550 3084 2163 3084 
Q 1697 3084 1428 2787 
Q 1159 2491 1159 1978 
L 1159 0 
L 581 0 
L 581 4863 
L 1159 4863 
L 1159 2956 
Q 1366 3272 1645 3428 
Q 1925 3584 2291 3584 
Q 2894 3584 3203 3211 
Q 3513 2838 3513 2113 
z
" transform="scale(0.015625)"/>
     </defs>
     <use xlink:href="#DejaVuSans-43"/>
     <use xlink:href="#DejaVuSans-6f" transform="translate(69.824219 0)"/>
     <use xlink:href="#DejaVuSans-6d" transform="translate(131.005859 0)"/>
     <use xlink:href="#DejaVuSans-70" transform="translate(228.417969 0)"/>
     <use xlink:href="#DejaVuSans-61" transform="translate(291.894531 0)"/>
     <use xlink:href="#DejaVuSans-72" transform="translate(353.173828 0)"/>
     <use xlink:href="#DejaVuSans-65" transform="translate(392.037109 0)"/>
     <use xlink:href="#DejaVuSans-20" transform="translate(453.560547 0)"/>
     <use xlink:href="#DejaVuSans-2d" transform="translate(485.347656 0)"/>
     <use xlink:href="#DejaVuSans-20" transform="translate(521.431641 0)"/>
     <use xlink:href="#DejaVuSans-45" transform="translate(553.21875 0)"/>
     <use xlink:href="#DejaVuSans-70" transform="translate(616.402344 0)"/>
     <use xlink:href="#DejaVuSans-6f" transform="translate(679.878906 0)"/>
     <use xlink:href="#DejaVuSans-63" transform="translate(741.060547 0)"/>
     <use xlink:href="#DejaVuSans-68" transform="translate(796.041016 0)"/>
     <use xlink:href="#DejaVuSans-20" transform="translate(859.419922 0)"/>
     <use xlink:href="#DejaVuSans-31" transform="translate(891.207031 0)"/>
     <use xlink:href="#DejaVuSans-30" transform="translate(954.830078 0)"/>
     <use xlink:href="#DejaVuSans-30" transform="translate(1018.453125 0)"/>
    </g>
   </g>
   <g id="legend_1">
    <g id="patch_7">
     <path d="M 64.6 78.82825 
L 181.128125 78.82825 
Q 183.128125 78.82825 183.128125 76.82825 
L 183.128125 48.472 
Q 183.128125 46.472 181.128125 46.472 
L 64.6 46.472 
Q 62.6 46.472 62.6 48.472 
L 62.6 76.82825 
Q 62.6 78.82825 64.6 78.82825 
z
" style="fill: #ffffff; opacity: 0.8; stroke: #cccccc; stroke-linejoin: miter"/>
    </g>
    <g id="line2d_39">
     <path d="M 66.6 54.570437 
L 76.6 54.570437 
L 86.6 54.570437 
" style="fill: none; stroke: #1f77b4; stroke-width: 1.5; stroke-linecap: square"/>
    </g>
    <g id="text_22">
     <!-- Pred: Sample 1 -->
     <g transform="translate(94.6 58.070437) scale(0.1 -0.1)">
      <defs>
       <path id="DejaVuSans-50" d="M 1259 4147 
L 1259 2394 
L 2053 2394 
Q 2494 2394 2734 2622 
Q 2975 2850 2975 3272 
Q 2975 3691 2734 3919 
Q 2494 4147 2053 4147 
L 1259 4147 
z
M 628 4666 
L 2053 4666 
Q 2838 4666 3239 4311 
Q 3641 3956 3641 3272 
Q 3641 2581 3239 2228 
Q 2838 1875 2053 1875 
L 1259 1875 
L 1259 0 
L 628 0 
L 628 4666 
z
" transform="scale(0.015625)"/>
       <path id="DejaVuSans-3a" d="M 750 794 
L 1409 794 
L 1409 0 
L 750 0 
L 750 794 
z
M 750 3309 
L 1409 3309 
L 1409 2516 
L 750 2516 
L 750 3309 
z
" transform="scale(0.015625)"/>
       <path id="DejaVuSans-53" d="M 3425 4513 
L 3425 3897 
Q 3066 4069 2747 4153 
Q 2428 4238 2131 4238 
Q 1616 4238 1336 4038 
Q 1056 3838 1056 3469 
Q 1056 3159 1242 3001 
Q 1428 2844 1947 2747 
L 2328 2669 
Q 3034 2534 3370 2195 
Q 3706 1856 3706 1288 
Q 3706 609 3251 259 
Q 2797 -91 1919 -91 
Q 1588 -91 1214 -16 
Q 841 59 441 206 
L 441 856 
Q 825 641 1194 531 
Q 1563 422 1919 422 
Q 2459 422 2753 634 
Q 3047 847 3047 1241 
Q 3047 1584 2836 1778 
Q 2625 1972 2144 2069 
L 1759 2144 
Q 1053 2284 737 2584 
Q 422 2884 422 3419 
Q 422 4038 858 4394 
Q 1294 4750 2059 4750 
Q 2388 4750 2728 4690 
Q 3069 4631 3425 4513 
z
" transform="scale(0.015625)"/>
      </defs>
      <use xlink:href="#DejaVuSans-50"/>
      <use xlink:href="#DejaVuSans-72" transform="translate(58.552734 0)"/>
      <use xlink:href="#DejaVuSans-65" transform="translate(97.416016 0)"/>
      <use xlink:href="#DejaVuSans-64" transform="translate(158.939453 0)"/>
      <use xlink:href="#DejaVuSans-3a" transform="translate(222.416016 0)"/>
      <use xlink:href="#DejaVuSans-20" transform="translate(256.107422 0)"/>
      <use xlink:href="#DejaVuSans-53" transform="translate(287.894531 0)"/>
      <use xlink:href="#DejaVuSans-61" transform="translate(351.371094 0)"/>
      <use xlink:href="#DejaVuSans-6d" transform="translate(412.650391 0)"/>
      <use xlink:href="#DejaVuSans-70" transform="translate(510.0625 0)"/>
      <use xlink:href="#DejaVuSans-6c" transform="translate(573.539062 0)"/>
      <use xlink:href="#DejaVuSans-65" transform="translate(601.322266 0)"/>
      <use xlink:href="#DejaVuSans-20" transform="translate(662.845703 0)"/>
      <use xlink:href="#DejaVuSans-31" transform="translate(694.632812 0)"/>
     </g>
    </g>
    <g id="line2d_40">
     <path d="M 66.6 69.248562 
L 76.6 69.248562 
L 86.6 69.248562 
" style="fill: none; stroke: #ff7f0e; stroke-opacity: 0.5; stroke-width: 1.5; stroke-linecap: square"/>
    </g>
    <g id="text_23">
     <!-- Target: Sample 1 -->
     <g transform="translate(94.6 72.748562) scale(0.1 -0.1)">
      <defs>
       <path id="DejaVuSans-54" d="M -19 4666 
L 3928 4666 
L 3928 4134 
L 2272 4134 
L 2272 0 
L 1638 0 
L 1638 4134 
L -19 4134 
L -19 4666 
z
" transform="scale(0.015625)"/>
       <path id="DejaVuSans-67" d="M 2906 1791 
Q 2906 2416 2648 2759 
Q 2391 3103 1925 3103 
Q 1463 3103 1205 2759 
Q 947 2416 947 1791 
Q 947 1169 1205 825 
Q 1463 481 1925 481 
Q 2391 481 2648 825 
Q 2906 1169 2906 1791 
z
M 3481 434 
Q 3481 -459 3084 -895 
Q 2688 -1331 1869 -1331 
Q 1566 -1331 1297 -1286 
Q 1028 -1241 775 -1147 
L 775 -588 
Q 1028 -725 1275 -790 
Q 1522 -856 1778 -856 
Q 2344 -856 2625 -561 
Q 2906 -266 2906 331 
L 2906 616 
Q 2728 306 2450 153 
Q 2172 0 1784 0 
Q 1141 0 747 490 
Q 353 981 353 1791 
Q 353 2603 747 3093 
Q 1141 3584 1784 3584 
Q 2172 3584 2450 3431 
Q 2728 3278 2906 2969 
L 2906 3500 
L 3481 3500 
L 3481 434 
z
" transform="scale(0.015625)"/>
       <path id="DejaVuSans-74" d="M 1172 4494 
L 1172 3500 
L 2356 3500 
L 2356 3053 
L 1172 3053 
L 1172 1153 
Q 1172 725 1289 603 
Q 1406 481 1766 481 
L 2356 481 
L 2356 0 
L 1766 0 
Q 1100 0 847 248 
Q 594 497 594 1153 
L 594 3053 
L 172 3053 
L 172 3500 
L 594 3500 
L 594 4494 
L 1172 4494 
z
" transform="scale(0.015625)"/>
      </defs>
      <use xlink:href="#DejaVuSans-54"/>
      <use xlink:href="#DejaVuSans-61" transform="translate(44.583984 0)"/>
      <use xlink:href="#DejaVuSans-72" transform="translate(105.863281 0)"/>
      <use xlink:href="#DejaVuSans-67" transform="translate(145.226562 0)"/>
      <use xlink:href="#DejaVuSans-65" transform="translate(208.703125 0)"/>
      <use xlink:href="#DejaVuSans-74" transform="translate(270.226562 0)"/>
      <use xlink:href="#DejaVuSans-3a" transform="translate(309.435547 0)"/>
      <use xlink:href="#DejaVuSans-20" transform="translate(343.126953 0)"/>
      <use xlink:href="#DejaVuSans-53" transform="translate(374.914062 0)"/>
      <use xlink:href="#DejaVuSans-61" transform="translate(438.390625 0)"/>
      <use xlink:href="#DejaVuSans-6d" transform="translate(499.669922 0)"/>
      <use xlink:href="#DejaVuSans-70" transform="translate(597.082031 0)"/>
      <use xlink:href="#DejaVuSans-6c" transform="translate(660.558594 0)"/>
      <use xlink:href="#DejaVuSans-65" transform="translate(688.341797 0)"/>
      <use xlink:href="#DejaVuSans-20" transform="translate(749.865234 0)"/>
      <use xlink:href="#DejaVuSans-31" transform="translate(781.652344 0)"/>
     </g>
    </g>
   </g>
  </g>
 </g>
 <defs>
  <clipPath id="pf999f1bc1f">
   <rect x="57.6" y="41.472" width="357.12" height="266.112"/>
  </clipPath>
 </defs>
</svg>
