<?xml version="1.0" encoding="utf-8" standalone="no"?>
<!DOCTYPE svg PUBLIC "-//W3C//DTD SVG 1.1//EN"
  "http://www.w3.org/Graphics/SVG/1.1/DTD/svg11.dtd">
<svg xmlns:xlink="http://www.w3.org/1999/xlink" width="460.8pt" height="345.6pt" viewBox="0 0 460.8 345.6" xmlns="http://www.w3.org/2000/svg" version="1.1">
 <metadata>
  <rdf:RDF xmlns:dc="http://purl.org/dc/elements/1.1/" xmlns:cc="http://creativecommons.org/ns#" xmlns:rdf="http://www.w3.org/1999/02/22-rdf-syntax-ns#">
   <cc:Work>
    <dc:type rdf:resource="http://purl.org/dc/dcmitype/StillImage"/>
    <dc:date>2025-07-23T12:53:11.371195</dc:date>
    <dc:format>image/svg+xml</dc:format>
    <dc:creator>
     <cc:Agent>
      <dc:title>Matplotlib v3.10.3, https://matplotlib.org/</dc:title>
     </cc:Agent>
    </dc:creator>
   </cc:Work>
  </rdf:RDF>
 </metadata>
 <defs>
  <style type="text/css">*{stroke-linejoin: round; stroke-linecap: butt}</style>
 </defs>
 <g id="figure_1">
  <g id="patch_1">
   <path d="M 0 345.6 
L 460.8 345.6 
L 460.8 0 
L 0 0 
z
" style="fill: #ffffff"/>
  </g>
  <g id="axes_1">
   <g id="patch_2">
    <path d="M 57.6 307.584 
L 414.72 307.584 
L 414.72 41.472 
L 57.6 41.472 
z
" style="fill: #ffffff"/>
   </g>
   <g id="matplotlib.axis_1">
    <g id="xtick_1">
     <g id="line2d_1">
      <path d="M 64.070687 307.584 
L 64.070687 41.472 
" clip-path="url(#p839e7606f3)" style="fill: none; stroke: #b0b0b0; stroke-opacity: 0.5; stroke-width: 0.8; stroke-linecap: square"/>
     </g>
     <g id="line2d_2">
      <defs>
       <path id="ma9c2a129a1" d="M 0 0 
L 0 3.5 
" style="stroke: #000000; stroke-width: 0.8"/>
      </defs>
      <g>
       <use xlink:href="#ma9c2a129a1" x="64.070687" y="307.584" style="stroke: #000000; stroke-width: 0.8"/>
      </g>
     </g>
     <g id="text_1">
      <!-- −1.00 -->
      <g transform="translate(48.748031 322.182437) scale(0.1 -0.1)">
       <defs>
        <path id="DejaVuSans-2212" d="M 678 2272 
L 4684 2272 
L 4684 1741 
L 678 1741 
L 678 2272 
z
" transform="scale(0.015625)"/>
        <path id="DejaVuSans-31" d="M 794 531 
L 1825 531 
L 1825 4091 
L 703 3866 
L 703 4441 
L 1819 4666 
L 2450 4666 
L 2450 531 
L 3481 531 
L 3481 0 
L 794 0 
L 794 531 
z
" transform="scale(0.015625)"/>
        <path id="DejaVuSans-2e" d="M 684 794 
L 1344 794 
L 1344 0 
L 684 0 
L 684 794 
z
" transform="scale(0.015625)"/>
        <path id="DejaVuSans-30" d="M 2034 4250 
Q 1547 4250 1301 3770 
Q 1056 3291 1056 2328 
Q 1056 1369 1301 889 
Q 1547 409 2034 409 
Q 2525 409 2770 889 
Q 3016 1369 3016 2328 
Q 3016 3291 2770 3770 
Q 2525 4250 2034 4250 
z
M 2034 4750 
Q 2819 4750 3233 4129 
Q 3647 3509 3647 2328 
Q 3647 1150 3233 529 
Q 2819 -91 2034 -91 
Q 1250 -91 836 529 
Q 422 1150 422 2328 
Q 422 3509 836 4129 
Q 1250 4750 2034 4750 
z
" transform="scale(0.015625)"/>
       </defs>
       <use xlink:href="#DejaVuSans-2212"/>
       <use xlink:href="#DejaVuSans-31" transform="translate(83.789062 0)"/>
       <use xlink:href="#DejaVuSans-2e" transform="translate(147.412109 0)"/>
       <use xlink:href="#DejaVuSans-30" transform="translate(179.199219 0)"/>
       <use xlink:href="#DejaVuSans-30" transform="translate(242.822266 0)"/>
      </g>
     </g>
    </g>
    <g id="xtick_2">
     <g id="line2d_3">
      <path d="M 105.87276 307.584 
L 105.87276 41.472 
" clip-path="url(#p839e7606f3)" style="fill: none; stroke: #b0b0b0; stroke-opacity: 0.5; stroke-width: 0.8; stroke-linecap: square"/>
     </g>
     <g id="line2d_4">
      <g>
       <use xlink:href="#ma9c2a129a1" x="105.87276" y="307.584" style="stroke: #000000; stroke-width: 0.8"/>
      </g>
     </g>
     <g id="text_2">
      <!-- −0.75 -->
      <g transform="translate(90.550104 322.182437) scale(0.1 -0.1)">
       <defs>
        <path id="DejaVuSans-37" d="M 525 4666 
L 3525 4666 
L 3525 4397 
L 1831 0 
L 1172 0 
L 2766 4134 
L 525 4134 
L 525 4666 
z
" transform="scale(0.015625)"/>
        <path id="DejaVuSans-35" d="M 691 4666 
L 3169 4666 
L 3169 4134 
L 1269 4134 
L 1269 2991 
Q 1406 3038 1543 3061 
Q 1681 3084 1819 3084 
Q 2600 3084 3056 2656 
Q 3513 2228 3513 1497 
Q 3513 744 3044 326 
Q 2575 -91 1722 -91 
Q 1428 -91 1123 -41 
Q 819 9 494 109 
L 494 744 
Q 775 591 1075 516 
Q 1375 441 1709 441 
Q 2250 441 2565 725 
Q 2881 1009 2881 1497 
Q 2881 1984 2565 2268 
Q 2250 2553 1709 2553 
Q 1456 2553 1204 2497 
Q 953 2441 691 2322 
L 691 4666 
z
" transform="scale(0.015625)"/>
       </defs>
       <use xlink:href="#DejaVuSans-2212"/>
       <use xlink:href="#DejaVuSans-30" transform="translate(83.789062 0)"/>
       <use xlink:href="#DejaVuSans-2e" transform="translate(147.412109 0)"/>
       <use xlink:href="#DejaVuSans-37" transform="translate(179.199219 0)"/>
       <use xlink:href="#DejaVuSans-35" transform="translate(242.822266 0)"/>
      </g>
     </g>
    </g>
    <g id="xtick_3">
     <g id="line2d_5">
      <path d="M 147.674834 307.584 
L 147.674834 41.472 
" clip-path="url(#p839e7606f3)" style="fill: none; stroke: #b0b0b0; stroke-opacity: 0.5; stroke-width: 0.8; stroke-linecap: square"/>
     </g>
     <g id="line2d_6">
      <g>
       <use xlink:href="#ma9c2a129a1" x="147.674834" y="307.584" style="stroke: #000000; stroke-width: 0.8"/>
      </g>
     </g>
     <g id="text_3">
      <!-- −0.50 -->
      <g transform="translate(132.352177 322.182437) scale(0.1 -0.1)">
       <use xlink:href="#DejaVuSans-2212"/>
       <use xlink:href="#DejaVuSans-30" transform="translate(83.789062 0)"/>
       <use xlink:href="#DejaVuSans-2e" transform="translate(147.412109 0)"/>
       <use xlink:href="#DejaVuSans-35" transform="translate(179.199219 0)"/>
       <use xlink:href="#DejaVuSans-30" transform="translate(242.822266 0)"/>
      </g>
     </g>
    </g>
    <g id="xtick_4">
     <g id="line2d_7">
      <path d="M 189.476907 307.584 
L 189.476907 41.472 
" clip-path="url(#p839e7606f3)" style="fill: none; stroke: #b0b0b0; stroke-opacity: 0.5; stroke-width: 0.8; stroke-linecap: square"/>
     </g>
     <g id="line2d_8">
      <g>
       <use xlink:href="#ma9c2a129a1" x="189.476907" y="307.584" style="stroke: #000000; stroke-width: 0.8"/>
      </g>
     </g>
     <g id="text_4">
      <!-- −0.25 -->
      <g transform="translate(174.154251 322.182437) scale(0.1 -0.1)">
       <defs>
        <path id="DejaVuSans-32" d="M 1228 531 
L 3431 531 
L 3431 0 
L 469 0 
L 469 531 
Q 828 903 1448 1529 
Q 2069 2156 2228 2338 
Q 2531 2678 2651 2914 
Q 2772 3150 2772 3378 
Q 2772 3750 2511 3984 
Q 2250 4219 1831 4219 
Q 1534 4219 1204 4116 
Q 875 4013 500 3803 
L 500 4441 
Q 881 4594 1212 4672 
Q 1544 4750 1819 4750 
Q 2544 4750 2975 4387 
Q 3406 4025 3406 3419 
Q 3406 3131 3298 2873 
Q 3191 2616 2906 2266 
Q 2828 2175 2409 1742 
Q 1991 1309 1228 531 
z
" transform="scale(0.015625)"/>
       </defs>
       <use xlink:href="#DejaVuSans-2212"/>
       <use xlink:href="#DejaVuSans-30" transform="translate(83.789062 0)"/>
       <use xlink:href="#DejaVuSans-2e" transform="translate(147.412109 0)"/>
       <use xlink:href="#DejaVuSans-32" transform="translate(179.199219 0)"/>
       <use xlink:href="#DejaVuSans-35" transform="translate(242.822266 0)"/>
      </g>
     </g>
    </g>
    <g id="xtick_5">
     <g id="line2d_9">
      <path d="M 231.27898 307.584 
L 231.27898 41.472 
" clip-path="url(#p839e7606f3)" style="fill: none; stroke: #b0b0b0; stroke-opacity: 0.5; stroke-width: 0.8; stroke-linecap: square"/>
     </g>
     <g id="line2d_10">
      <g>
       <use xlink:href="#ma9c2a129a1" x="231.27898" y="307.584" style="stroke: #000000; stroke-width: 0.8"/>
      </g>
     </g>
     <g id="text_5">
      <!-- 0.00 -->
      <g transform="translate(220.146167 322.182437) scale(0.1 -0.1)">
       <use xlink:href="#DejaVuSans-30"/>
       <use xlink:href="#DejaVuSans-2e" transform="translate(63.623047 0)"/>
       <use xlink:href="#DejaVuSans-30" transform="translate(95.410156 0)"/>
       <use xlink:href="#DejaVuSans-30" transform="translate(159.033203 0)"/>
      </g>
     </g>
    </g>
    <g id="xtick_6">
     <g id="line2d_11">
      <path d="M 273.081053 307.584 
L 273.081053 41.472 
" clip-path="url(#p839e7606f3)" style="fill: none; stroke: #b0b0b0; stroke-opacity: 0.5; stroke-width: 0.8; stroke-linecap: square"/>
     </g>
     <g id="line2d_12">
      <g>
       <use xlink:href="#ma9c2a129a1" x="273.081053" y="307.584" style="stroke: #000000; stroke-width: 0.8"/>
      </g>
     </g>
     <g id="text_6">
      <!-- 0.25 -->
      <g transform="translate(261.948241 322.182437) scale(0.1 -0.1)">
       <use xlink:href="#DejaVuSans-30"/>
       <use xlink:href="#DejaVuSans-2e" transform="translate(63.623047 0)"/>
       <use xlink:href="#DejaVuSans-32" transform="translate(95.410156 0)"/>
       <use xlink:href="#DejaVuSans-35" transform="translate(159.033203 0)"/>
      </g>
     </g>
    </g>
    <g id="xtick_7">
     <g id="line2d_13">
      <path d="M 314.883126 307.584 
L 314.883126 41.472 
" clip-path="url(#p839e7606f3)" style="fill: none; stroke: #b0b0b0; stroke-opacity: 0.5; stroke-width: 0.8; stroke-linecap: square"/>
     </g>
     <g id="line2d_14">
      <g>
       <use xlink:href="#ma9c2a129a1" x="314.883126" y="307.584" style="stroke: #000000; stroke-width: 0.8"/>
      </g>
     </g>
     <g id="text_7">
      <!-- 0.50 -->
      <g transform="translate(303.750314 322.182437) scale(0.1 -0.1)">
       <use xlink:href="#DejaVuSans-30"/>
       <use xlink:href="#DejaVuSans-2e" transform="translate(63.623047 0)"/>
       <use xlink:href="#DejaVuSans-35" transform="translate(95.410156 0)"/>
       <use xlink:href="#DejaVuSans-30" transform="translate(159.033203 0)"/>
      </g>
     </g>
    </g>
    <g id="xtick_8">
     <g id="line2d_15">
      <path d="M 356.6852 307.584 
L 356.6852 41.472 
" clip-path="url(#p839e7606f3)" style="fill: none; stroke: #b0b0b0; stroke-opacity: 0.5; stroke-width: 0.8; stroke-linecap: square"/>
     </g>
     <g id="line2d_16">
      <g>
       <use xlink:href="#ma9c2a129a1" x="356.6852" y="307.584" style="stroke: #000000; stroke-width: 0.8"/>
      </g>
     </g>
     <g id="text_8">
      <!-- 0.75 -->
      <g transform="translate(345.552387 322.182437) scale(0.1 -0.1)">
       <use xlink:href="#DejaVuSans-30"/>
       <use xlink:href="#DejaVuSans-2e" transform="translate(63.623047 0)"/>
       <use xlink:href="#DejaVuSans-37" transform="translate(95.410156 0)"/>
       <use xlink:href="#DejaVuSans-35" transform="translate(159.033203 0)"/>
      </g>
     </g>
    </g>
    <g id="xtick_9">
     <g id="line2d_17">
      <path d="M 398.487273 307.584 
L 398.487273 41.472 
" clip-path="url(#p839e7606f3)" style="fill: none; stroke: #b0b0b0; stroke-opacity: 0.5; stroke-width: 0.8; stroke-linecap: square"/>
     </g>
     <g id="line2d_18">
      <g>
       <use xlink:href="#ma9c2a129a1" x="398.487273" y="307.584" style="stroke: #000000; stroke-width: 0.8"/>
      </g>
     </g>
     <g id="text_9">
      <!-- 1.00 -->
      <g transform="translate(387.35446 322.182437) scale(0.1 -0.1)">
       <use xlink:href="#DejaVuSans-31"/>
       <use xlink:href="#DejaVuSans-2e" transform="translate(63.623047 0)"/>
       <use xlink:href="#DejaVuSans-30" transform="translate(95.410156 0)"/>
       <use xlink:href="#DejaVuSans-30" transform="translate(159.033203 0)"/>
      </g>
     </g>
    </g>
    <g id="text_10">
     <!-- Index -->
     <g transform="translate(222.393594 335.860562) scale(0.1 -0.1)">
      <defs>
       <path id="DejaVuSans-49" d="M 628 4666 
L 1259 4666 
L 1259 0 
L 628 0 
L 628 4666 
z
" transform="scale(0.015625)"/>
       <path id="DejaVuSans-6e" d="M 3513 2113 
L 3513 0 
L 2938 0 
L 2938 2094 
Q 2938 2591 2744 2837 
Q 2550 3084 2163 3084 
Q 1697 3084 1428 2787 
Q 1159 2491 1159 1978 
L 1159 0 
L 581 0 
L 581 3500 
L 1159 3500 
L 1159 2956 
Q 1366 3272 1645 3428 
Q 1925 3584 2291 3584 
Q 2894 3584 3203 3211 
Q 3513 2838 3513 2113 
z
" transform="scale(0.015625)"/>
       <path id="DejaVuSans-64" d="M 2906 2969 
L 2906 4863 
L 3481 4863 
L 3481 0 
L 2906 0 
L 2906 525 
Q 2725 213 2448 61 
Q 2172 -91 1784 -91 
Q 1150 -91 751 415 
Q 353 922 353 1747 
Q 353 2572 751 3078 
Q 1150 3584 1784 3584 
Q 2172 3584 2448 3432 
Q 2725 3281 2906 2969 
z
M 947 1747 
Q 947 1113 1208 752 
Q 1469 391 1925 391 
Q 2381 391 2643 752 
Q 2906 1113 2906 1747 
Q 2906 2381 2643 2742 
Q 2381 3103 1925 3103 
Q 1469 3103 1208 2742 
Q 947 2381 947 1747 
z
" transform="scale(0.015625)"/>
       <path id="DejaVuSans-65" d="M 3597 1894 
L 3597 1613 
L 953 1613 
Q 991 1019 1311 708 
Q 1631 397 2203 397 
Q 2534 397 2845 478 
Q 3156 559 3463 722 
L 3463 178 
Q 3153 47 2828 -22 
Q 2503 -91 2169 -91 
Q 1331 -91 842 396 
Q 353 884 353 1716 
Q 353 2575 817 3079 
Q 1281 3584 2069 3584 
Q 2775 3584 3186 3129 
Q 3597 2675 3597 1894 
z
M 3022 2063 
Q 3016 2534 2758 2815 
Q 2500 3097 2075 3097 
Q 1594 3097 1305 2825 
Q 1016 2553 972 2059 
L 3022 2063 
z
" transform="scale(0.015625)"/>
       <path id="DejaVuSans-78" d="M 3513 3500 
L 2247 1797 
L 3578 0 
L 2900 0 
L 1881 1375 
L 863 0 
L 184 0 
L 1544 1831 
L 300 3500 
L 978 3500 
L 1906 2253 
L 2834 3500 
L 3513 3500 
z
" transform="scale(0.015625)"/>
      </defs>
      <use xlink:href="#DejaVuSans-49"/>
      <use xlink:href="#DejaVuSans-6e" transform="translate(29.492188 0)"/>
      <use xlink:href="#DejaVuSans-64" transform="translate(92.871094 0)"/>
      <use xlink:href="#DejaVuSans-65" transform="translate(156.347656 0)"/>
      <use xlink:href="#DejaVuSans-78" transform="translate(216.121094 0)"/>
     </g>
    </g>
   </g>
   <g id="matplotlib.axis_2">
    <g id="ytick_1">
     <g id="line2d_19">
      <path d="M 57.6 302.513077 
L 414.72 302.513077 
" clip-path="url(#p839e7606f3)" style="fill: none; stroke: #b0b0b0; stroke-opacity: 0.5; stroke-width: 0.8; stroke-linecap: square"/>
     </g>
     <g id="line2d_20">
      <defs>
       <path id="m80929fc16f" d="M 0 0 
L -3.5 0 
" style="stroke: #000000; stroke-width: 0.8"/>
      </defs>
      <g>
       <use xlink:href="#m80929fc16f" x="57.6" y="302.513077" style="stroke: #000000; stroke-width: 0.8"/>
      </g>
     </g>
     <g id="text_11">
      <!-- −1.00 -->
      <g transform="translate(19.954687 306.312296) scale(0.1 -0.1)">
       <use xlink:href="#DejaVuSans-2212"/>
       <use xlink:href="#DejaVuSans-31" transform="translate(83.789062 0)"/>
       <use xlink:href="#DejaVuSans-2e" transform="translate(147.412109 0)"/>
       <use xlink:href="#DejaVuSans-30" transform="translate(179.199219 0)"/>
       <use xlink:href="#DejaVuSans-30" transform="translate(242.822266 0)"/>
      </g>
     </g>
    </g>
    <g id="ytick_2">
     <g id="line2d_21">
      <path d="M 57.6 271.394927 
L 414.72 271.394927 
" clip-path="url(#p839e7606f3)" style="fill: none; stroke: #b0b0b0; stroke-opacity: 0.5; stroke-width: 0.8; stroke-linecap: square"/>
     </g>
     <g id="line2d_22">
      <g>
       <use xlink:href="#m80929fc16f" x="57.6" y="271.394927" style="stroke: #000000; stroke-width: 0.8"/>
      </g>
     </g>
     <g id="text_12">
      <!-- −0.75 -->
      <g transform="translate(19.954687 275.194146) scale(0.1 -0.1)">
       <use xlink:href="#DejaVuSans-2212"/>
       <use xlink:href="#DejaVuSans-30" transform="translate(83.789062 0)"/>
       <use xlink:href="#DejaVuSans-2e" transform="translate(147.412109 0)"/>
       <use xlink:href="#DejaVuSans-37" transform="translate(179.199219 0)"/>
       <use xlink:href="#DejaVuSans-35" transform="translate(242.822266 0)"/>
      </g>
     </g>
    </g>
    <g id="ytick_3">
     <g id="line2d_23">
      <path d="M 57.6 240.276776 
L 414.72 240.276776 
" clip-path="url(#p839e7606f3)" style="fill: none; stroke: #b0b0b0; stroke-opacity: 0.5; stroke-width: 0.8; stroke-linecap: square"/>
     </g>
     <g id="line2d_24">
      <g>
       <use xlink:href="#m80929fc16f" x="57.6" y="240.276776" style="stroke: #000000; stroke-width: 0.8"/>
      </g>
     </g>
     <g id="text_13">
      <!-- −0.50 -->
      <g transform="translate(19.954687 244.075995) scale(0.1 -0.1)">
       <use xlink:href="#DejaVuSans-2212"/>
       <use xlink:href="#DejaVuSans-30" transform="translate(83.789062 0)"/>
       <use xlink:href="#DejaVuSans-2e" transform="translate(147.412109 0)"/>
       <use xlink:href="#DejaVuSans-35" transform="translate(179.199219 0)"/>
       <use xlink:href="#DejaVuSans-30" transform="translate(242.822266 0)"/>
      </g>
     </g>
    </g>
    <g id="ytick_4">
     <g id="line2d_25">
      <path d="M 57.6 209.158626 
L 414.72 209.158626 
" clip-path="url(#p839e7606f3)" style="fill: none; stroke: #b0b0b0; stroke-opacity: 0.5; stroke-width: 0.8; stroke-linecap: square"/>
     </g>
     <g id="line2d_26">
      <g>
       <use xlink:href="#m80929fc16f" x="57.6" y="209.158626" style="stroke: #000000; stroke-width: 0.8"/>
      </g>
     </g>
     <g id="text_14">
      <!-- −0.25 -->
      <g transform="translate(19.954687 212.957845) scale(0.1 -0.1)">
       <use xlink:href="#DejaVuSans-2212"/>
       <use xlink:href="#DejaVuSans-30" transform="translate(83.789062 0)"/>
       <use xlink:href="#DejaVuSans-2e" transform="translate(147.412109 0)"/>
       <use xlink:href="#DejaVuSans-32" transform="translate(179.199219 0)"/>
       <use xlink:href="#DejaVuSans-35" transform="translate(242.822266 0)"/>
      </g>
     </g>
    </g>
    <g id="ytick_5">
     <g id="line2d_27">
      <path d="M 57.6 178.040476 
L 414.72 178.040476 
" clip-path="url(#p839e7606f3)" style="fill: none; stroke: #b0b0b0; stroke-opacity: 0.5; stroke-width: 0.8; stroke-linecap: square"/>
     </g>
     <g id="line2d_28">
      <g>
       <use xlink:href="#m80929fc16f" x="57.6" y="178.040476" style="stroke: #000000; stroke-width: 0.8"/>
      </g>
     </g>
     <g id="text_15">
      <!-- 0.00 -->
      <g transform="translate(28.334375 181.839694) scale(0.1 -0.1)">
       <use xlink:href="#DejaVuSans-30"/>
       <use xlink:href="#DejaVuSans-2e" transform="translate(63.623047 0)"/>
       <use xlink:href="#DejaVuSans-30" transform="translate(95.410156 0)"/>
       <use xlink:href="#DejaVuSans-30" transform="translate(159.033203 0)"/>
      </g>
     </g>
    </g>
    <g id="ytick_6">
     <g id="line2d_29">
      <path d="M 57.6 146.922325 
L 414.72 146.922325 
" clip-path="url(#p839e7606f3)" style="fill: none; stroke: #b0b0b0; stroke-opacity: 0.5; stroke-width: 0.8; stroke-linecap: square"/>
     </g>
     <g id="line2d_30">
      <g>
       <use xlink:href="#m80929fc16f" x="57.6" y="146.922325" style="stroke: #000000; stroke-width: 0.8"/>
      </g>
     </g>
     <g id="text_16">
      <!-- 0.25 -->
      <g transform="translate(28.334375 150.721544) scale(0.1 -0.1)">
       <use xlink:href="#DejaVuSans-30"/>
       <use xlink:href="#DejaVuSans-2e" transform="translate(63.623047 0)"/>
       <use xlink:href="#DejaVuSans-32" transform="translate(95.410156 0)"/>
       <use xlink:href="#DejaVuSans-35" transform="translate(159.033203 0)"/>
      </g>
     </g>
    </g>
    <g id="ytick_7">
     <g id="line2d_31">
      <path d="M 57.6 115.804175 
L 414.72 115.804175 
" clip-path="url(#p839e7606f3)" style="fill: none; stroke: #b0b0b0; stroke-opacity: 0.5; stroke-width: 0.8; stroke-linecap: square"/>
     </g>
     <g id="line2d_32">
      <g>
       <use xlink:href="#m80929fc16f" x="57.6" y="115.804175" style="stroke: #000000; stroke-width: 0.8"/>
      </g>
     </g>
     <g id="text_17">
      <!-- 0.50 -->
      <g transform="translate(28.334375 119.603393) scale(0.1 -0.1)">
       <use xlink:href="#DejaVuSans-30"/>
       <use xlink:href="#DejaVuSans-2e" transform="translate(63.623047 0)"/>
       <use xlink:href="#DejaVuSans-35" transform="translate(95.410156 0)"/>
       <use xlink:href="#DejaVuSans-30" transform="translate(159.033203 0)"/>
      </g>
     </g>
    </g>
    <g id="ytick_8">
     <g id="line2d_33">
      <path d="M 57.6 84.686024 
L 414.72 84.686024 
" clip-path="url(#p839e7606f3)" style="fill: none; stroke: #b0b0b0; stroke-opacity: 0.5; stroke-width: 0.8; stroke-linecap: square"/>
     </g>
     <g id="line2d_34">
      <g>
       <use xlink:href="#m80929fc16f" x="57.6" y="84.686024" style="stroke: #000000; stroke-width: 0.8"/>
      </g>
     </g>
     <g id="text_18">
      <!-- 0.75 -->
      <g transform="translate(28.334375 88.485243) scale(0.1 -0.1)">
       <use xlink:href="#DejaVuSans-30"/>
       <use xlink:href="#DejaVuSans-2e" transform="translate(63.623047 0)"/>
       <use xlink:href="#DejaVuSans-37" transform="translate(95.410156 0)"/>
       <use xlink:href="#DejaVuSans-35" transform="translate(159.033203 0)"/>
      </g>
     </g>
    </g>
    <g id="ytick_9">
     <g id="line2d_35">
      <path d="M 57.6 53.567874 
L 414.72 53.567874 
" clip-path="url(#p839e7606f3)" style="fill: none; stroke: #b0b0b0; stroke-opacity: 0.5; stroke-width: 0.8; stroke-linecap: square"/>
     </g>
     <g id="line2d_36">
      <g>
       <use xlink:href="#m80929fc16f" x="57.6" y="53.567874" style="stroke: #000000; stroke-width: 0.8"/>
      </g>
     </g>
     <g id="text_19">
      <!-- 1.00 -->
      <g transform="translate(28.334375 57.367093) scale(0.1 -0.1)">
       <use xlink:href="#DejaVuSans-31"/>
       <use xlink:href="#DejaVuSans-2e" transform="translate(63.623047 0)"/>
       <use xlink:href="#DejaVuSans-30" transform="translate(95.410156 0)"/>
       <use xlink:href="#DejaVuSans-30" transform="translate(159.033203 0)"/>
      </g>
     </g>
    </g>
    <g id="text_20">
     <!-- Value -->
     <g transform="translate(13.875 188.25925) rotate(-90) scale(0.1 -0.1)">
      <defs>
       <path id="DejaVuSans-56" d="M 1831 0 
L 50 4666 
L 709 4666 
L 2188 738 
L 3669 4666 
L 4325 4666 
L 2547 0 
L 1831 0 
z
" transform="scale(0.015625)"/>
       <path id="DejaVuSans-61" d="M 2194 1759 
Q 1497 1759 1228 1600 
Q 959 1441 959 1056 
Q 959 750 1161 570 
Q 1363 391 1709 391 
Q 2188 391 2477 730 
Q 2766 1069 2766 1631 
L 2766 1759 
L 2194 1759 
z
M 3341 1997 
L 3341 0 
L 2766 0 
L 2766 531 
Q 2569 213 2275 61 
Q 1981 -91 1556 -91 
Q 1019 -91 701 211 
Q 384 513 384 1019 
Q 384 1609 779 1909 
Q 1175 2209 1959 2209 
L 2766 2209 
L 2766 2266 
Q 2766 2663 2505 2880 
Q 2244 3097 1772 3097 
Q 1472 3097 1187 3025 
Q 903 2953 641 2809 
L 641 3341 
Q 956 3463 1253 3523 
Q 1550 3584 1831 3584 
Q 2591 3584 2966 3190 
Q 3341 2797 3341 1997 
z
" transform="scale(0.015625)"/>
       <path id="DejaVuSans-6c" d="M 603 4863 
L 1178 4863 
L 1178 0 
L 603 0 
L 603 4863 
z
" transform="scale(0.015625)"/>
       <path id="DejaVuSans-75" d="M 544 1381 
L 544 3500 
L 1119 3500 
L 1119 1403 
Q 1119 906 1312 657 
Q 1506 409 1894 409 
Q 2359 409 2629 706 
Q 2900 1003 2900 1516 
L 2900 3500 
L 3475 3500 
L 3475 0 
L 2900 0 
L 2900 538 
Q 2691 219 2414 64 
Q 2138 -91 1772 -91 
Q 1169 -91 856 284 
Q 544 659 544 1381 
z
M 1991 3584 
L 1991 3584 
z
" transform="scale(0.015625)"/>
      </defs>
      <use xlink:href="#DejaVuSans-56"/>
      <use xlink:href="#DejaVuSans-61" transform="translate(60.658203 0)"/>
      <use xlink:href="#DejaVuSans-6c" transform="translate(121.9375 0)"/>
      <use xlink:href="#DejaVuSans-75" transform="translate(149.720703 0)"/>
      <use xlink:href="#DejaVuSans-65" transform="translate(213.099609 0)"/>
     </g>
    </g>
   </g>
   <g id="line2d_37">
    <path d="M 111.269571 295.488 
L 127.721093 295.30517 
L 144.74321 294.843491 
L 155.885495 294.081026 
L 161.059104 293.037056 
L 158.412464 291.774221 
L 149.296266 290.390891 
L 136.339579 289.004646 
L 128.567937 287.730186 
L 138.406489 286.656606 
L 137.923119 285.829134 
L 126.037859 285.24015 
L 91.79314 284.509171 
L 86.438896 284.163268 
L 139.137743 283.036137 
L 155.216631 282.166168 
L 158.863054 281.11193 
L 153.335166 279.940499 
L 142.494314 278.741224 
L 133.334971 277.603609 
L 136.088506 276.596549 
L 139.398523 275.753422 
L 134.026988 275.066677 
L 110.276948 273.964199 
L 110.581412 273.408854 
L 142.111804 272.00027 
L 151.761183 271.108118 
L 153.67352 270.115592 
L 149.971997 269.06973 
L 143.978419 268.025633 
L 140.049797 267.032848 
L 139.981228 266.124374 
L 139.756825 265.310686 
L 136.331984 264.579678 
L 131.221767 263.901753 
L 128.906934 263.238467 
L 132.586844 262.552166 
L 147.992657 261.010898 
L 152.835909 260.143823 
L 154.378552 259.228694 
L 153.458734 258.289949 
L 149.851244 256.445943 
L 147.101776 253.983551 
L 146.473694 253.234722 
L 147.130958 252.49576 
L 149.703323 251.747799 
L 158.126139 250.169524 
L 161.655657 249.32889 
L 163.768452 248.459893 
L 164.513709 247.574671 
L 164.349368 246.688328 
L 163.157886 244.146328 
L 163.0587 243.353021 
L 163.355206 242.578344 
L 164.473589 241.810314 
L 166.655556 241.036044 
L 172.60131 239.431354 
L 174.957191 238.595283 
L 176.328631 237.74256 
L 176.848418 236.882733 
L 176.923968 234.35769 
L 177.248609 233.550401 
L 177.915056 232.756894 
L 179.094798 231.969623 
L 180.850358 231.180203 
L 185.13753 229.570382 
L 186.868005 228.746349 
L 187.999913 227.913175 
L 188.670412 227.076548 
L 189.953779 224.598223 
L 190.625788 223.789759 
L 191.546204 222.987479 
L 192.721306 222.187483 
L 196.854338 219.768976 
L 198.014601 218.953107 
L 199.820401 217.31486 
L 202.17679 214.869773 
L 203.9855 213.254951 
L 207.075276 210.843199 
L 213.432712 205.999391 
L 215.118009 204.383514 
L 217.485246 201.985082 
L 219.558484 200.398326 
L 223.108418 198.001806 
L 224.085683 197.196172 
L 225.534051 195.585177 
L 226.77079 193.991104 
L 227.52771 193.203012 
L 228.449586 192.419167 
L 230.804445 190.852463 
L 233.323341 189.269735 
L 234.357234 188.470821 
L 235.173148 187.669361 
L 237.507247 184.494742 
L 238.32849 183.714462 
L 240.431775 182.158027 
L 229.473621 182.060612 
L 274.612853 181.278377 
L 261.580292 180.491526 
L 245.895382 179.700382 
L 244.667127 178.906546 
L 247.729477 175.745031 
L 249.674458 174.181017 
L 253.80194 171.046791 
L 262.134463 163.961494 
L 264.590548 161.608282 
L 266.533284 160.047624 
L 269.726421 157.69451 
L 271.467846 156.112081 
L 274.420337 152.96988 
L 276.376241 151.42018 
L 279.628813 149.082719 
L 281.285207 147.506633 
L 283.349137 145.152013 
L 285.122068 143.603563 
L 289.28334 140.505302 
L 290.893117 138.939555 
L 294.425684 135.055339 
L 296.934962 132.734352 
L 298.277814 131.177133 
L 300.765475 128.076157 
L 304.33428 124.210029 
L 306.599949 121.113404 
L 308.98096 118.811874 
L 310.532129 117.270268 
L 311.765699 115.721058 
L 312.920286 114.17749 
L 314.369937 112.648686 
L 317.973983 109.596479 
L 319.37755 108.055033 
L 320.659298 106.517045 
L 322.217663 104.995793 
L 326.62195 101.205033 
L 329.271665 98.149317 
L 330.978708 96.643001 
L 333.801559 94.385629 
L 335.298919 92.86515 
L 336.633399 91.344633 
L 338.27582 89.841388 
L 342.882346 86.100418 
L 345.611573 83.074801 
L 347.511814 81.59158 
L 350.444893 79.370095 
L 351.164168 78.618224 
L 353.431482 75.594107 
L 355.282928 74.11766 
L 358.186696 71.913216 
L 358.83205 71.164194 
L 359.15214 70.40716 
L 359.621258 68.887956 
L 360.122428 68.137398 
L 360.867715 67.397576 
L 364.295396 64.47375 
L 364.776324 63.722169 
L 364.888087 62.959503 
L 364.714622 62.192534 
L 364.72419 61.430847 
L 365.178897 60.682871 
L 366.991026 59.234595 
L 368.765203 57.793322 
L 369.310564 57.046058 
L 369.017382 56.280224 
L 368.067536 55.516987 
L 368.54663 54.799341 
L 367.202592 54.188812 
L 353.811759 53.75629 
L 336.905053 53.568 
L 326.052839 53.668975 
L 311.183238 54.069579 
L 307.07853 54.737109 
L 321.201958 55.597092 
L 340.938611 56.543649 
L 357.116864 57.458385 
L 354.488288 58.232402 
L 347.531598 58.788741 
L 357.609732 59.097526 
L 375.330742 59.181689 
L 393.507276 58.985208 
L 385.889795 58.91207 
L 360.042398 58.982396 
L 335.211733 59.250813 
L 325.099893 59.725149 
L 330.590069 60.366942 
L 360.511447 61.843003 
L 365.450959 62.503574 
L 359.982889 63.024865 
L 361.967945 63.384011 
L 372.149929 63.597549 
L 391.219681 63.803482 
L 385.690945 63.933117 
L 368.871464 64.158073 
L 354.133176 64.506276 
L 348.90386 64.975017 
L 352.34956 65.534154 
L 367.129559 66.725802 
L 369.520017 67.259023 
L 369.049215 67.706598 
L 370.929076 68.062035 
L 383.073512 68.794608 
L 378.817943 69.044893 
L 364.551712 69.7185 
L 361.552934 70.149982 
L 362.017667 70.626663 
L 368.630069 72.075674 
L 369.60817 72.493505 
L 370.826691 72.863987 
L 373.817087 73.497382 
L 373.588647 73.793925 
L 371.298839 74.10225 
L 363.978226 74.807062 
L 361.537197 75.211509 
L 360.697888 75.643043 
L 361.115499 76.088682 
L 363.86431 77.366941 
L 365.150971 78.094077 
L 365.323768 78.428777 
L 364.589514 78.759166 
L 360.313265 79.453264 
L 357.956014 79.831277 
L 356.37362 80.230568 
L 355.752016 80.645187 
L 355.881191 81.065904 
L 357.154138 82.275529 
L 357.336573 82.646954 
L 357.220993 83.00584 
L 356.615744 83.359051 
L 353.91235 84.077439 
L 351.142929 84.839608 
L 350.41314 85.235798 
L 350.105687 85.636216 
L 349.836415 87.192286 
L 349.491219 87.563414 
L 348.901528 87.931477 
L 344.822663 89.816734 
L 344.038667 90.592591 
L 343.132263 91.739561 
L 342.223368 92.488198 
L 340.262262 93.607361 
L 338.337273 94.743507 
L 336.994611 95.885083 
L 335.735806 97.002681 
L 334.452504 97.736093 
L 331.347425 99.222385 
L 330.434723 99.975592 
L 329.485803 101.083129 
L 328.388642 101.802074 
L 324.431068 103.623496 
L 323.755267 104.36708 
L 323.292976 105.099261 
L 322.498765 105.814696 
L 321.162351 106.523611 
L 318.923711 107.603883 
L 317.94235 108.336842 
L 316.451776 109.79115 
L 315.379054 110.506593 
L 311.095305 113.036314 
L 309.168572 114.499073 
L 307.740284 115.584056 
L 305.839573 116.663764 
L 303.835362 117.758378 
L 302.899613 118.495362 
L 301.341442 119.949188 
L 300.192273 120.664212 
L 297.634418 122.111572 
L 296.880351 122.843972 
L 295.879417 123.929437 
L 294.825535 124.642654 
L 292.311882 126.078437 
L 291.063442 127.167794 
L 289.787276 128.248262 
L 285.242457 131.488693 
L 279.925273 135.45101 
L 277.902165 136.892932 
L 275.193813 139.04303 
L 272.545624 140.829341 
L 270.395569 142.609368 
L 266.886144 145.084154 
L 265.149206 146.491469 
L 262.82172 148.241405 
L 261.064381 149.632255 
L 258.658051 151.367378 
L 256.596792 153.092543 
L 253.635797 155.155111 
L 252.067745 156.529369 
L 247.865556 159.617549 
L 246.496867 160.645206 
L 244.501246 162.018603 
L 241.134719 164.772847 
L 239.417126 166.152941 
L 237.793023 167.529888 
L 235.137204 169.592904 
L 233.353434 170.96536 
L 230.528685 173.022905 
L 228.724544 174.389434 
L 226.270874 176.098157 
L 224.11172 177.804602 
L 221.126457 179.85094 
L 219.409731 181.214244 
L 215.971999 183.594277 
L 214.205172 184.950775 
L 211.261873 186.97878 
L 209.45685 188.325198 
L 206.502682 190.334466 
L 204.683217 191.667055 
L 201.769085 193.657439 
L 199.973241 194.976631 
L 197.077047 196.94905 
L 195.361014 198.259594 
L 192.420944 200.220275 
L 190.756885 201.527399 
L 187.394504 203.809673 
L 185.665814 205.113089 
L 182.744331 207.068434 
L 181.042006 208.374541 
L 178.145439 210.333333 
L 165.888473 220.429354 
L 164.936169 221.40187 
L 161.912272 223.987565 
L 160.911292 224.954999 
L 158.548963 226.885238 
L 157.255445 228.171517 
L 154.773645 230.091462 
L 153.412799 231.369006 
L 150.623136 233.592112 
L 149.602 234.540969 
L 146.72708 236.744499 
L 145.647739 237.686115 
L 142.531638 239.87023 
L 141.516352 240.807015 
L 140.101712 241.734861 
L 138.741389 242.665637 
L 136.52596 244.527999 
L 134.655508 245.764399 
L 132.450793 247.625039 
L 130.586041 248.861581 
L 128.418491 250.722955 
L 126.505083 251.95779 
L 123.825609 254.128632 
L 122.321322 255.054801 
L 121.296508 255.989176 
L 120.595621 256.608971 
L 119.095909 257.530288 
L 117.689581 258.456687 
L 115.958818 260.004929 
L 113.115217 261.848616 
L 112.160696 262.775394 
L 111.230034 263.385856 
L 109.186436 264.607655 
L 107.031941 266.447203 
L 104.915259 267.660278 
L 104.291652 268.275221 
L 103.742544 268.888257 
L 102.890846 269.492851 
L 100.794227 270.696689 
L 100.202253 271.307707 
L 99.745373 271.917821 
L 98.969659 272.519031 
L 96.475281 274.015562 
L 95.514272 275.22558 
L 94.535632 275.816953 
L 92.852518 276.703533 
L 92.262936 277.305879 
L 91.801552 278.207453 
L 90.976983 278.793981 
L 89.394898 279.671495 
L 89.090026 279.969537 
L 88.899299 280.571898 
L 88.70342 281.169109 
L 88.3801 281.461965 
L 87.288172 282.039249 
L 86.168887 282.620294 
L 85.838471 282.916756 
L 85.712695 283.216949 
L 85.679218 284.116624 
L 85.393282 284.408582 
L 84.227115 284.981118 
L 82.955742 285.557103 
L 82.594939 285.852667 
L 82.540712 286.153417 
L 82.995977 287.057796 
L 82.81107 287.349457 
L 82.334587 287.634894 
L 80.265086 288.487443 
L 79.91388 288.782866 
L 79.922421 289.085641 
L 80.84517 289.998374 
L 80.693411 290.28896 
L 80.121988 290.570546 
L 77.453118 291.411358 
L 77.053396 291.709407 
L 77.222267 292.018793 
L 79.143229 292.946906 
L 78.916264 293.231103 
L 77.950661 293.500782 
L 73.832727 294.328343 
L 73.929242 294.640548 
L 75.813109 294.958421 
L 79.007377 295.245453 
L 85.560189 295.445058 
L 85.560189 295.445058 
" clip-path="url(#p839e7606f3)" style="fill: none; stroke: #1f77b4; stroke-width: 1.5; stroke-linecap: square"/>
   </g>
   <g id="line2d_38">
    <path d="M 86.963866 295.488 
L 90.506958 295.30517 
L 93.072805 294.843491 
L 94.166297 294.081026 
L 93.594765 293.037056 
L 91.538698 291.774221 
L 82.84957 287.730186 
L 81.737211 286.656606 
L 82.432198 285.829134 
L 84.94927 285.24015 
L 88.900017 284.831689 
L 98.184238 284.163268 
L 101.915356 283.694697 
L 104.25373 283.036137 
L 105.025288 282.166168 
L 104.432567 281.11193 
L 100.192496 277.603609 
L 100.003942 276.596549 
L 101.001159 275.753422 
L 103.096602 275.066677 
L 109.060919 273.964199 
L 111.934668 273.408854 
L 114.176897 272.765955 
L 115.593589 272.00027 
L 116.214346 271.108118 
L 116.260022 270.115592 
L 115.984382 268.025633 
L 116.296958 267.032848 
L 117.152104 266.124374 
L 118.545993 265.310686 
L 120.342844 264.579678 
L 125.945829 262.552166 
L 127.277329 261.814318 
L 128.237381 261.010898 
L 128.89911 260.143823 
L 130.495347 257.354528 
L 131.336361 256.445943 
L 132.44274 255.579639 
L 133.794023 254.760639 
L 136.922354 253.234722 
L 139.928406 251.747799 
L 141.171993 250.975414 
L 142.198531 250.169524 
L 143.031303 249.32889 
L 145.977438 245.815309 
L 147.029849 244.966388 
L 149.683704 243.353021 
L 153.982273 241.036044 
L 155.164556 240.244989 
L 156.157468 239.431354 
L 157.734385 237.74256 
L 159.307804 236.026563 
L 160.285687 235.183151 
L 162.723446 233.550401 
L 168.008214 230.381703 
L 170.011748 228.746349 
L 173.556006 225.415624 
L 175.759171 223.789759 
L 182.890533 218.953107 
L 185.827558 216.496828 
L 188.739822 214.061104 
L 190.941468 212.450464 
L 196.824875 208.42707 
L 198.767581 206.809294 
L 201.451309 204.383514 
L 203.565621 202.780817 
L 210.609167 198.001806 
L 215.19142 193.991104 
L 217.460081 192.419167 
L 221.000138 190.06384 
L 223.073159 188.470821 
L 227.953088 184.494742 
L 235.525868 178.906546 
L 246.91916 170.259955 
L 252.375931 166.325463 
L 258.305418 161.608282 
L 263.827035 157.69451 
L 269.638081 152.96988 
L 275.094593 149.082719 
L 280.931853 144.376026 
L 285.225863 141.284491 
L 292.268394 135.826975 
L 295.429075 133.510232 
L 301.418816 128.847911 
L 305.670663 125.76171 
L 311.587221 121.113404 
L 315.856424 118.042442 
L 322.753894 112.648686 
L 325.953554 110.363367 
L 333.918754 104.240398 
L 337.013448 101.968849 
L 341.753882 98.149317 
L 347.031145 94.385629 
L 351.623987 90.590432 
L 357.038787 86.855724 
L 362.537315 82.330579 
L 366.98391 79.370095 
L 368.693963 77.860752 
L 370.317179 76.344383 
L 372.338413 74.852259 
L 376.947859 71.913216 
L 378.609974 70.40716 
L 380.097278 68.887956 
L 381.008007 68.137398 
L 383.353697 66.667235 
L 385.925275 65.212334 
L 386.998715 64.47375 
L 387.830181 63.722169 
L 389.587046 61.430847 
L 390.458946 60.682871 
L 391.686497 59.952085 
L 396.308221 57.793322 
L 397.116675 57.046058 
L 396.964428 56.280224 
L 395.675226 55.516987 
L 393.320905 54.799341 
L 390.245147 54.188812 
L 387.014492 53.75629 
L 384.301899 53.568 
L 382.729292 53.668975 
L 382.707835 54.069579 
L 384.319669 54.737109 
L 387.275033 55.597092 
L 397.289462 58.232402 
L 398.487273 58.788741 
L 397.863646 59.097526 
L 395.520826 59.181689 
L 381.26528 58.982396 
L 379.914853 59.250813 
L 380.07319 59.725149 
L 381.46094 60.366942 
L 385.633788 61.843003 
L 387.147055 62.503574 
L 387.653925 63.024865 
L 387.009349 63.384011 
L 385.354231 63.597549 
L 378.438781 63.933117 
L 376.93573 64.158073 
L 376.234066 64.506276 
L 376.274111 64.975017 
L 378.154191 66.725802 
L 378.348197 67.259023 
L 378.018668 67.706598 
L 377.182886 68.062035 
L 374.615594 68.571723 
L 372.260815 69.044893 
L 371.551387 69.348908 
L 371.196883 69.7185 
L 371.123121 70.149982 
L 371.276355 71.123656 
L 371.217523 71.614255 
L 370.930919 72.075674 
L 370.38225 72.493505 
L 368.64736 73.193716 
L 365.856193 74.10225 
L 365.23423 74.437291 
L 364.823734 74.807062 
L 364.468991 75.643043 
L 364.182327 76.533163 
L 363.852639 76.962479 
L 363.33638 77.366941 
L 361.80927 78.094077 
L 359.335373 79.097479 
L 358.359184 79.831277 
L 357.908175 80.645187 
L 357.429101 81.482727 
L 357.008948 81.887441 
L 355.725336 82.646954 
L 352.770302 84.077439 
L 351.896249 84.839608 
L 350.671579 86.429219 
L 349.625138 87.192286 
L 345.828999 89.430753 
L 344.701023 90.592591 
L 343.947694 91.360807 
L 342.93755 92.115022 
L 339.399212 94.362756 
L 336.477644 97.002681 
L 333.478568 98.846709 
L 332.357618 99.975592 
L 331.605624 100.718485 
L 330.604141 101.443766 
L 327.741066 103.252502 
L 323.076028 106.880449 
L 320.533841 108.703496 
L 316.730138 111.581642 
L 314.053394 113.402516 
L 310.329472 116.303086 
L 308.247762 117.758378 
L 305.11393 120.306876 
L 303.059972 121.746317 
L 298.907321 124.999081 
L 296.520809 126.804935 
L 293.196275 129.323156 
L 283.608442 136.531857 
L 279.855383 139.39906 
L 231.370267 176.098157 
L 228.649228 178.144413 
L 221.916422 183.253428 
L 217.465628 186.640494 
L 207.37282 194.318709 
L 200.349714 199.564825 
L 194.320441 204.136562 
L 182.246873 213.271318 
L 176.378069 217.833758 
L 169.520111 223.014685 
L 166.588004 225.275933 
L 164.045772 227.20796 
L 158.560993 231.369006 
L 155.235672 233.909503 
L 141.17272 244.527999 
L 138.715666 246.38688 
L 133.840267 250.106009 
L 127.688732 254.744933 
L 120.962096 260.004929 
L 118.89388 261.53883 
L 116.964088 263.081307 
L 114.880135 264.607655 
L 112.972239 266.144487 
L 110.867048 267.660278 
L 108.978617 269.191648 
L 106.85456 270.696689 
L 105.026106 272.219676 
L 102.520236 274.015562 
L 101.088484 275.22558 
L 98.535324 277.003719 
L 97.170337 278.207453 
L 94.639532 279.969537 
L 93.343153 281.169109 
L 90.753108 282.916756 
L 89.629347 284.116624 
L 88.162733 284.981118 
L 87.218158 285.557103 
L 86.615202 286.153417 
L 85.817472 287.057796 
L 84.849147 287.634894 
L 83.254385 288.487443 
L 82.720665 289.085641 
L 82.413272 289.698522 
L 82.134492 289.998374 
L 81.087433 290.570546 
L 79.215724 291.411358 
L 78.920101 291.709407 
L 78.843878 292.018793 
L 78.908809 292.646274 
L 78.712063 292.946906 
L 78.1822 293.231103 
L 74.921187 294.328343 
L 75.366944 294.640548 
L 76.918541 294.958421 
L 79.585069 295.245453 
L 83.103414 295.445058 
L 83.103414 295.445058 
" clip-path="url(#p839e7606f3)" style="fill: none; stroke: #ff7f0e; stroke-opacity: 0.5; stroke-width: 1.5; stroke-linecap: square"/>
   </g>
   <g id="patch_3">
    <path d="M 57.6 307.584 
L 57.6 41.472 
" style="fill: none; stroke: #000000; stroke-width: 0.8; stroke-linejoin: miter; stroke-linecap: square"/>
   </g>
   <g id="patch_4">
    <path d="M 414.72 307.584 
L 414.72 41.472 
" style="fill: none; stroke: #000000; stroke-width: 0.8; stroke-linejoin: miter; stroke-linecap: square"/>
   </g>
   <g id="patch_5">
    <path d="M 57.6 307.584 
L 414.72 307.584 
" style="fill: none; stroke: #000000; stroke-width: 0.8; stroke-linejoin: miter; stroke-linecap: square"/>
   </g>
   <g id="patch_6">
    <path d="M 57.6 41.472 
L 414.72 41.472 
" style="fill: none; stroke: #000000; stroke-width: 0.8; stroke-linejoin: miter; stroke-linecap: square"/>
   </g>
   <g id="text_21">
    <!-- Compare - Epoch 400 -->
    <g transform="translate(171.234375 35.472) scale(0.12 -0.12)">
     <defs>
      <path id="DejaVuSans-43" d="M 4122 4306 
L 4122 3641 
Q 3803 3938 3442 4084 
Q 3081 4231 2675 4231 
Q 1875 4231 1450 3742 
Q 1025 3253 1025 2328 
Q 1025 1406 1450 917 
Q 1875 428 2675 428 
Q 3081 428 3442 575 
Q 3803 722 4122 1019 
L 4122 359 
Q 3791 134 3420 21 
Q 3050 -91 2638 -91 
Q 1578 -91 968 557 
Q 359 1206 359 2328 
Q 359 3453 968 4101 
Q 1578 4750 2638 4750 
Q 3056 4750 3426 4639 
Q 3797 4528 4122 4306 
z
" transform="scale(0.015625)"/>
      <path id="DejaVuSans-6f" d="M 1959 3097 
Q 1497 3097 1228 2736 
Q 959 2375 959 1747 
Q 959 1119 1226 758 
Q 1494 397 1959 397 
Q 2419 397 2687 759 
Q 2956 1122 2956 1747 
Q 2956 2369 2687 2733 
Q 2419 3097 1959 3097 
z
M 1959 3584 
Q 2709 3584 3137 3096 
Q 3566 2609 3566 1747 
Q 3566 888 3137 398 
Q 2709 -91 1959 -91 
Q 1206 -91 779 398 
Q 353 888 353 1747 
Q 353 2609 779 3096 
Q 1206 3584 1959 3584 
z
" transform="scale(0.015625)"/>
      <path id="DejaVuSans-6d" d="M 3328 2828 
Q 3544 3216 3844 3400 
Q 4144 3584 4550 3584 
Q 5097 3584 5394 3201 
Q 5691 2819 5691 2113 
L 5691 0 
L 5113 0 
L 5113 2094 
Q 5113 2597 4934 2840 
Q 4756 3084 4391 3084 
Q 3944 3084 3684 2787 
Q 3425 2491 3425 1978 
L 3425 0 
L 2847 0 
L 2847 2094 
Q 2847 2600 2669 2842 
Q 2491 3084 2119 3084 
Q 1678 3084 1418 2786 
Q 1159 2488 1159 1978 
L 1159 0 
L 581 0 
L 581 3500 
L 1159 3500 
L 1159 2956 
Q 1356 3278 1631 3431 
Q 1906 3584 2284 3584 
Q 2666 3584 2933 3390 
Q 3200 3197 3328 2828 
z
" transform="scale(0.015625)"/>
      <path id="DejaVuSans-70" d="M 1159 525 
L 1159 -1331 
L 581 -1331 
L 581 3500 
L 1159 3500 
L 1159 2969 
Q 1341 3281 1617 3432 
Q 1894 3584 2278 3584 
Q 2916 3584 3314 3078 
Q 3713 2572 3713 1747 
Q 3713 922 3314 415 
Q 2916 -91 2278 -91 
Q 1894 -91 1617 61 
Q 1341 213 1159 525 
z
M 3116 1747 
Q 3116 2381 2855 2742 
Q 2594 3103 2138 3103 
Q 1681 3103 1420 2742 
Q 1159 2381 1159 1747 
Q 1159 1113 1420 752 
Q 1681 391 2138 391 
Q 2594 391 2855 752 
Q 3116 1113 3116 1747 
z
" transform="scale(0.015625)"/>
      <path id="DejaVuSans-72" d="M 2631 2963 
Q 2534 3019 2420 3045 
Q 2306 3072 2169 3072 
Q 1681 3072 1420 2755 
Q 1159 2438 1159 1844 
L 1159 0 
L 581 0 
L 581 3500 
L 1159 3500 
L 1159 2956 
Q 1341 3275 1631 3429 
Q 1922 3584 2338 3584 
Q 2397 3584 2469 3576 
Q 2541 3569 2628 3553 
L 2631 2963 
z
" transform="scale(0.015625)"/>
      <path id="DejaVuSans-20" transform="scale(0.015625)"/>
      <path id="DejaVuSans-2d" d="M 313 2009 
L 1997 2009 
L 1997 1497 
L 313 1497 
L 313 2009 
z
" transform="scale(0.015625)"/>
      <path id="DejaVuSans-45" d="M 628 4666 
L 3578 4666 
L 3578 4134 
L 1259 4134 
L 1259 2753 
L 3481 2753 
L 3481 2222 
L 1259 2222 
L 1259 531 
L 3634 531 
L 3634 0 
L 628 0 
L 628 4666 
z
" transform="scale(0.015625)"/>
      <path id="DejaVuSans-63" d="M 3122 3366 
L 3122 2828 
Q 2878 2963 2633 3030 
Q 2388 3097 2138 3097 
Q 1578 3097 1268 2742 
Q 959 2388 959 1747 
Q 959 1106 1268 751 
Q 1578 397 2138 397 
Q 2388 397 2633 464 
Q 2878 531 3122 666 
L 3122 134 
Q 2881 22 2623 -34 
Q 2366 -91 2075 -91 
Q 1284 -91 818 406 
Q 353 903 353 1747 
Q 353 2603 823 3093 
Q 1294 3584 2113 3584 
Q 2378 3584 2631 3529 
Q 2884 3475 3122 3366 
z
" transform="scale(0.015625)"/>
      <path id="DejaVuSans-68" d="M 3513 2113 
L 3513 0 
L 2938 0 
L 2938 2094 
Q 2938 2591 2744 2837 
Q 2550 3084 2163 3084 
Q 1697 3084 1428 2787 
Q 1159 2491 1159 1978 
L 1159 0 
L 581 0 
L 581 4863 
L 1159 4863 
L 1159 2956 
Q 1366 3272 1645 3428 
Q 1925 3584 2291 3584 
Q 2894 3584 3203 3211 
Q 3513 2838 3513 2113 
z
" transform="scale(0.015625)"/>
      <path id="DejaVuSans-34" d="M 2419 4116 
L 825 1625 
L 2419 1625 
L 2419 4116 
z
M 2253 4666 
L 3047 4666 
L 3047 1625 
L 3713 1625 
L 3713 1100 
L 3047 1100 
L 3047 0 
L 2419 0 
L 2419 1100 
L 313 1100 
L 313 1709 
L 2253 4666 
z
" transform="scale(0.015625)"/>
     </defs>
     <use xlink:href="#DejaVuSans-43"/>
     <use xlink:href="#DejaVuSans-6f" transform="translate(69.824219 0)"/>
     <use xlink:href="#DejaVuSans-6d" transform="translate(131.005859 0)"/>
     <use xlink:href="#DejaVuSans-70" transform="translate(228.417969 0)"/>
     <use xlink:href="#DejaVuSans-61" transform="translate(291.894531 0)"/>
     <use xlink:href="#DejaVuSans-72" transform="translate(353.173828 0)"/>
     <use xlink:href="#DejaVuSans-65" transform="translate(392.037109 0)"/>
     <use xlink:href="#DejaVuSans-20" transform="translate(453.560547 0)"/>
     <use xlink:href="#DejaVuSans-2d" transform="translate(485.347656 0)"/>
     <use xlink:href="#DejaVuSans-20" transform="translate(521.431641 0)"/>
     <use xlink:href="#DejaVuSans-45" transform="translate(553.21875 0)"/>
     <use xlink:href="#DejaVuSans-70" transform="translate(616.402344 0)"/>
     <use xlink:href="#DejaVuSans-6f" transform="translate(679.878906 0)"/>
     <use xlink:href="#DejaVuSans-63" transform="translate(741.060547 0)"/>
     <use xlink:href="#DejaVuSans-68" transform="translate(796.041016 0)"/>
     <use xlink:href="#DejaVuSans-20" transform="translate(859.419922 0)"/>
     <use xlink:href="#DejaVuSans-34" transform="translate(891.207031 0)"/>
     <use xlink:href="#DejaVuSans-30" transform="translate(954.830078 0)"/>
     <use xlink:href="#DejaVuSans-30" transform="translate(1018.453125 0)"/>
    </g>
   </g>
   <g id="legend_1">
    <g id="patch_7">
     <path d="M 64.6 78.82825 
L 181.128125 78.82825 
Q 183.128125 78.82825 183.128125 76.82825 
L 183.128125 48.472 
Q 183.128125 46.472 181.128125 46.472 
L 64.6 46.472 
Q 62.6 46.472 62.6 48.472 
L 62.6 76.82825 
Q 62.6 78.82825 64.6 78.82825 
z
" style="fill: #ffffff; opacity: 0.8; stroke: #cccccc; stroke-linejoin: miter"/>
    </g>
    <g id="line2d_39">
     <path d="M 66.6 54.570437 
L 76.6 54.570437 
L 86.6 54.570437 
" style="fill: none; stroke: #1f77b4; stroke-width: 1.5; stroke-linecap: square"/>
    </g>
    <g id="text_22">
     <!-- Pred: Sample 1 -->
     <g transform="translate(94.6 58.070437) scale(0.1 -0.1)">
      <defs>
       <path id="DejaVuSans-50" d="M 1259 4147 
L 1259 2394 
L 2053 2394 
Q 2494 2394 2734 2622 
Q 2975 2850 2975 3272 
Q 2975 3691 2734 3919 
Q 2494 4147 2053 4147 
L 1259 4147 
z
M 628 4666 
L 2053 4666 
Q 2838 4666 3239 4311 
Q 3641 3956 3641 3272 
Q 3641 2581 3239 2228 
Q 2838 1875 2053 1875 
L 1259 1875 
L 1259 0 
L 628 0 
L 628 4666 
z
" transform="scale(0.015625)"/>
       <path id="DejaVuSans-3a" d="M 750 794 
L 1409 794 
L 1409 0 
L 750 0 
L 750 794 
z
M 750 3309 
L 1409 3309 
L 1409 2516 
L 750 2516 
L 750 3309 
z
" transform="scale(0.015625)"/>
       <path id="DejaVuSans-53" d="M 3425 4513 
L 3425 3897 
Q 3066 4069 2747 4153 
Q 2428 4238 2131 4238 
Q 1616 4238 1336 4038 
Q 1056 3838 1056 3469 
Q 1056 3159 1242 3001 
Q 1428 2844 1947 2747 
L 2328 2669 
Q 3034 2534 3370 2195 
Q 3706 1856 3706 1288 
Q 3706 609 3251 259 
Q 2797 -91 1919 -91 
Q 1588 -91 1214 -16 
Q 841 59 441 206 
L 441 856 
Q 825 641 1194 531 
Q 1563 422 1919 422 
Q 2459 422 2753 634 
Q 3047 847 3047 1241 
Q 3047 1584 2836 1778 
Q 2625 1972 2144 2069 
L 1759 2144 
Q 1053 2284 737 2584 
Q 422 2884 422 3419 
Q 422 4038 858 4394 
Q 1294 4750 2059 4750 
Q 2388 4750 2728 4690 
Q 3069 4631 3425 4513 
z
" transform="scale(0.015625)"/>
      </defs>
      <use xlink:href="#DejaVuSans-50"/>
      <use xlink:href="#DejaVuSans-72" transform="translate(58.552734 0)"/>
      <use xlink:href="#DejaVuSans-65" transform="translate(97.416016 0)"/>
      <use xlink:href="#DejaVuSans-64" transform="translate(158.939453 0)"/>
      <use xlink:href="#DejaVuSans-3a" transform="translate(222.416016 0)"/>
      <use xlink:href="#DejaVuSans-20" transform="translate(256.107422 0)"/>
      <use xlink:href="#DejaVuSans-53" transform="translate(287.894531 0)"/>
      <use xlink:href="#DejaVuSans-61" transform="translate(351.371094 0)"/>
      <use xlink:href="#DejaVuSans-6d" transform="translate(412.650391 0)"/>
      <use xlink:href="#DejaVuSans-70" transform="translate(510.0625 0)"/>
      <use xlink:href="#DejaVuSans-6c" transform="translate(573.539062 0)"/>
      <use xlink:href="#DejaVuSans-65" transform="translate(601.322266 0)"/>
      <use xlink:href="#DejaVuSans-20" transform="translate(662.845703 0)"/>
      <use xlink:href="#DejaVuSans-31" transform="translate(694.632812 0)"/>
     </g>
    </g>
    <g id="line2d_40">
     <path d="M 66.6 69.248562 
L 76.6 69.248562 
L 86.6 69.248562 
" style="fill: none; stroke: #ff7f0e; stroke-opacity: 0.5; stroke-width: 1.5; stroke-linecap: square"/>
    </g>
    <g id="text_23">
     <!-- Target: Sample 1 -->
     <g transform="translate(94.6 72.748562) scale(0.1 -0.1)">
      <defs>
       <path id="DejaVuSans-54" d="M -19 4666 
L 3928 4666 
L 3928 4134 
L 2272 4134 
L 2272 0 
L 1638 0 
L 1638 4134 
L -19 4134 
L -19 4666 
z
" transform="scale(0.015625)"/>
       <path id="DejaVuSans-67" d="M 2906 1791 
Q 2906 2416 2648 2759 
Q 2391 3103 1925 3103 
Q 1463 3103 1205 2759 
Q 947 2416 947 1791 
Q 947 1169 1205 825 
Q 1463 481 1925 481 
Q 2391 481 2648 825 
Q 2906 1169 2906 1791 
z
M 3481 434 
Q 3481 -459 3084 -895 
Q 2688 -1331 1869 -1331 
Q 1566 -1331 1297 -1286 
Q 1028 -1241 775 -1147 
L 775 -588 
Q 1028 -725 1275 -790 
Q 1522 -856 1778 -856 
Q 2344 -856 2625 -561 
Q 2906 -266 2906 331 
L 2906 616 
Q 2728 306 2450 153 
Q 2172 0 1784 0 
Q 1141 0 747 490 
Q 353 981 353 1791 
Q 353 2603 747 3093 
Q 1141 3584 1784 3584 
Q 2172 3584 2450 3431 
Q 2728 3278 2906 2969 
L 2906 3500 
L 3481 3500 
L 3481 434 
z
" transform="scale(0.015625)"/>
       <path id="DejaVuSans-74" d="M 1172 4494 
L 1172 3500 
L 2356 3500 
L 2356 3053 
L 1172 3053 
L 1172 1153 
Q 1172 725 1289 603 
Q 1406 481 1766 481 
L 2356 481 
L 2356 0 
L 1766 0 
Q 1100 0 847 248 
Q 594 497 594 1153 
L 594 3053 
L 172 3053 
L 172 3500 
L 594 3500 
L 594 4494 
L 1172 4494 
z
" transform="scale(0.015625)"/>
      </defs>
      <use xlink:href="#DejaVuSans-54"/>
      <use xlink:href="#DejaVuSans-61" transform="translate(44.583984 0)"/>
      <use xlink:href="#DejaVuSans-72" transform="translate(105.863281 0)"/>
      <use xlink:href="#DejaVuSans-67" transform="translate(145.226562 0)"/>
      <use xlink:href="#DejaVuSans-65" transform="translate(208.703125 0)"/>
      <use xlink:href="#DejaVuSans-74" transform="translate(270.226562 0)"/>
      <use xlink:href="#DejaVuSans-3a" transform="translate(309.435547 0)"/>
      <use xlink:href="#DejaVuSans-20" transform="translate(343.126953 0)"/>
      <use xlink:href="#DejaVuSans-53" transform="translate(374.914062 0)"/>
      <use xlink:href="#DejaVuSans-61" transform="translate(438.390625 0)"/>
      <use xlink:href="#DejaVuSans-6d" transform="translate(499.669922 0)"/>
      <use xlink:href="#DejaVuSans-70" transform="translate(597.082031 0)"/>
      <use xlink:href="#DejaVuSans-6c" transform="translate(660.558594 0)"/>
      <use xlink:href="#DejaVuSans-65" transform="translate(688.341797 0)"/>
      <use xlink:href="#DejaVuSans-20" transform="translate(749.865234 0)"/>
      <use xlink:href="#DejaVuSans-31" transform="translate(781.652344 0)"/>
     </g>
    </g>
   </g>
  </g>
 </g>
 <defs>
  <clipPath id="p839e7606f3">
   <rect x="57.6" y="41.472" width="357.12" height="266.112"/>
  </clipPath>
 </defs>
</svg>
