<?xml version="1.0" encoding="utf-8" standalone="no"?>
<!DOCTYPE svg PUBLIC "-//W3C//DTD SVG 1.1//EN"
  "http://www.w3.org/Graphics/SVG/1.1/DTD/svg11.dtd">
<svg xmlns:xlink="http://www.w3.org/1999/xlink" width="460.8pt" height="345.6pt" viewBox="0 0 460.8 345.6" xmlns="http://www.w3.org/2000/svg" version="1.1">
 <metadata>
  <rdf:RDF xmlns:dc="http://purl.org/dc/elements/1.1/" xmlns:cc="http://creativecommons.org/ns#" xmlns:rdf="http://www.w3.org/1999/02/22-rdf-syntax-ns#">
   <cc:Work>
    <dc:type rdf:resource="http://purl.org/dc/dcmitype/StillImage"/>
    <dc:date>2025-07-23T12:43:28.323881</dc:date>
    <dc:format>image/svg+xml</dc:format>
    <dc:creator>
     <cc:Agent>
      <dc:title>Matplotlib v3.10.3, https://matplotlib.org/</dc:title>
     </cc:Agent>
    </dc:creator>
   </cc:Work>
  </rdf:RDF>
 </metadata>
 <defs>
  <style type="text/css">*{stroke-linejoin: round; stroke-linecap: butt}</style>
 </defs>
 <g id="figure_1">
  <g id="patch_1">
   <path d="M 0 345.6 
L 460.8 345.6 
L 460.8 0 
L 0 0 
z
" style="fill: #ffffff"/>
  </g>
  <g id="axes_1">
   <g id="patch_2">
    <path d="M 57.6 307.584 
L 414.72 307.584 
L 414.72 41.472 
L 57.6 41.472 
z
" style="fill: #ffffff"/>
   </g>
   <g id="matplotlib.axis_1">
    <g id="xtick_1">
     <g id="line2d_1">
      <path d="M 63.916245 307.584 
L 63.916245 41.472 
" clip-path="url(#pc7e064f3b4)" style="fill: none; stroke: #b0b0b0; stroke-opacity: 0.5; stroke-width: 0.8; stroke-linecap: square"/>
     </g>
     <g id="line2d_2">
      <defs>
       <path id="m6c860bad54" d="M 0 0 
L 0 3.5 
" style="stroke: #000000; stroke-width: 0.8"/>
      </defs>
      <g>
       <use xlink:href="#m6c860bad54" x="63.916245" y="307.584" style="stroke: #000000; stroke-width: 0.8"/>
      </g>
     </g>
     <g id="text_1">
      <!-- −1.00 -->
      <g transform="translate(48.593589 322.182437) scale(0.1 -0.1)">
       <defs>
        <path id="DejaVuSans-2212" d="M 678 2272 
L 4684 2272 
L 4684 1741 
L 678 1741 
L 678 2272 
z
" transform="scale(0.015625)"/>
        <path id="DejaVuSans-31" d="M 794 531 
L 1825 531 
L 1825 4091 
L 703 3866 
L 703 4441 
L 1819 4666 
L 2450 4666 
L 2450 531 
L 3481 531 
L 3481 0 
L 794 0 
L 794 531 
z
" transform="scale(0.015625)"/>
        <path id="DejaVuSans-2e" d="M 684 794 
L 1344 794 
L 1344 0 
L 684 0 
L 684 794 
z
" transform="scale(0.015625)"/>
        <path id="DejaVuSans-30" d="M 2034 4250 
Q 1547 4250 1301 3770 
Q 1056 3291 1056 2328 
Q 1056 1369 1301 889 
Q 1547 409 2034 409 
Q 2525 409 2770 889 
Q 3016 1369 3016 2328 
Q 3016 3291 2770 3770 
Q 2525 4250 2034 4250 
z
M 2034 4750 
Q 2819 4750 3233 4129 
Q 3647 3509 3647 2328 
Q 3647 1150 3233 529 
Q 2819 -91 2034 -91 
Q 1250 -91 836 529 
Q 422 1150 422 2328 
Q 422 3509 836 4129 
Q 1250 4750 2034 4750 
z
" transform="scale(0.015625)"/>
       </defs>
       <use xlink:href="#DejaVuSans-2212"/>
       <use xlink:href="#DejaVuSans-31" transform="translate(83.789062 0)"/>
       <use xlink:href="#DejaVuSans-2e" transform="translate(147.412109 0)"/>
       <use xlink:href="#DejaVuSans-30" transform="translate(179.199219 0)"/>
       <use xlink:href="#DejaVuSans-30" transform="translate(242.822266 0)"/>
      </g>
     </g>
    </g>
    <g id="xtick_2">
     <g id="line2d_3">
      <path d="M 105.737624 307.584 
L 105.737624 41.472 
" clip-path="url(#pc7e064f3b4)" style="fill: none; stroke: #b0b0b0; stroke-opacity: 0.5; stroke-width: 0.8; stroke-linecap: square"/>
     </g>
     <g id="line2d_4">
      <g>
       <use xlink:href="#m6c860bad54" x="105.737624" y="307.584" style="stroke: #000000; stroke-width: 0.8"/>
      </g>
     </g>
     <g id="text_2">
      <!-- −0.75 -->
      <g transform="translate(90.414967 322.182437) scale(0.1 -0.1)">
       <defs>
        <path id="DejaVuSans-37" d="M 525 4666 
L 3525 4666 
L 3525 4397 
L 1831 0 
L 1172 0 
L 2766 4134 
L 525 4134 
L 525 4666 
z
" transform="scale(0.015625)"/>
        <path id="DejaVuSans-35" d="M 691 4666 
L 3169 4666 
L 3169 4134 
L 1269 4134 
L 1269 2991 
Q 1406 3038 1543 3061 
Q 1681 3084 1819 3084 
Q 2600 3084 3056 2656 
Q 3513 2228 3513 1497 
Q 3513 744 3044 326 
Q 2575 -91 1722 -91 
Q 1428 -91 1123 -41 
Q 819 9 494 109 
L 494 744 
Q 775 591 1075 516 
Q 1375 441 1709 441 
Q 2250 441 2565 725 
Q 2881 1009 2881 1497 
Q 2881 1984 2565 2268 
Q 2250 2553 1709 2553 
Q 1456 2553 1204 2497 
Q 953 2441 691 2322 
L 691 4666 
z
" transform="scale(0.015625)"/>
       </defs>
       <use xlink:href="#DejaVuSans-2212"/>
       <use xlink:href="#DejaVuSans-30" transform="translate(83.789062 0)"/>
       <use xlink:href="#DejaVuSans-2e" transform="translate(147.412109 0)"/>
       <use xlink:href="#DejaVuSans-37" transform="translate(179.199219 0)"/>
       <use xlink:href="#DejaVuSans-35" transform="translate(242.822266 0)"/>
      </g>
     </g>
    </g>
    <g id="xtick_3">
     <g id="line2d_5">
      <path d="M 147.559002 307.584 
L 147.559002 41.472 
" clip-path="url(#pc7e064f3b4)" style="fill: none; stroke: #b0b0b0; stroke-opacity: 0.5; stroke-width: 0.8; stroke-linecap: square"/>
     </g>
     <g id="line2d_6">
      <g>
       <use xlink:href="#m6c860bad54" x="147.559002" y="307.584" style="stroke: #000000; stroke-width: 0.8"/>
      </g>
     </g>
     <g id="text_3">
      <!-- −0.50 -->
      <g transform="translate(132.236346 322.182437) scale(0.1 -0.1)">
       <use xlink:href="#DejaVuSans-2212"/>
       <use xlink:href="#DejaVuSans-30" transform="translate(83.789062 0)"/>
       <use xlink:href="#DejaVuSans-2e" transform="translate(147.412109 0)"/>
       <use xlink:href="#DejaVuSans-35" transform="translate(179.199219 0)"/>
       <use xlink:href="#DejaVuSans-30" transform="translate(242.822266 0)"/>
      </g>
     </g>
    </g>
    <g id="xtick_4">
     <g id="line2d_7">
      <path d="M 189.38038 307.584 
L 189.38038 41.472 
" clip-path="url(#pc7e064f3b4)" style="fill: none; stroke: #b0b0b0; stroke-opacity: 0.5; stroke-width: 0.8; stroke-linecap: square"/>
     </g>
     <g id="line2d_8">
      <g>
       <use xlink:href="#m6c860bad54" x="189.38038" y="307.584" style="stroke: #000000; stroke-width: 0.8"/>
      </g>
     </g>
     <g id="text_4">
      <!-- −0.25 -->
      <g transform="translate(174.057724 322.182437) scale(0.1 -0.1)">
       <defs>
        <path id="DejaVuSans-32" d="M 1228 531 
L 3431 531 
L 3431 0 
L 469 0 
L 469 531 
Q 828 903 1448 1529 
Q 2069 2156 2228 2338 
Q 2531 2678 2651 2914 
Q 2772 3150 2772 3378 
Q 2772 3750 2511 3984 
Q 2250 4219 1831 4219 
Q 1534 4219 1204 4116 
Q 875 4013 500 3803 
L 500 4441 
Q 881 4594 1212 4672 
Q 1544 4750 1819 4750 
Q 2544 4750 2975 4387 
Q 3406 4025 3406 3419 
Q 3406 3131 3298 2873 
Q 3191 2616 2906 2266 
Q 2828 2175 2409 1742 
Q 1991 1309 1228 531 
z
" transform="scale(0.015625)"/>
       </defs>
       <use xlink:href="#DejaVuSans-2212"/>
       <use xlink:href="#DejaVuSans-30" transform="translate(83.789062 0)"/>
       <use xlink:href="#DejaVuSans-2e" transform="translate(147.412109 0)"/>
       <use xlink:href="#DejaVuSans-32" transform="translate(179.199219 0)"/>
       <use xlink:href="#DejaVuSans-35" transform="translate(242.822266 0)"/>
      </g>
     </g>
    </g>
    <g id="xtick_5">
     <g id="line2d_9">
      <path d="M 231.201759 307.584 
L 231.201759 41.472 
" clip-path="url(#pc7e064f3b4)" style="fill: none; stroke: #b0b0b0; stroke-opacity: 0.5; stroke-width: 0.8; stroke-linecap: square"/>
     </g>
     <g id="line2d_10">
      <g>
       <use xlink:href="#m6c860bad54" x="231.201759" y="307.584" style="stroke: #000000; stroke-width: 0.8"/>
      </g>
     </g>
     <g id="text_5">
      <!-- 0.00 -->
      <g transform="translate(220.068946 322.182437) scale(0.1 -0.1)">
       <use xlink:href="#DejaVuSans-30"/>
       <use xlink:href="#DejaVuSans-2e" transform="translate(63.623047 0)"/>
       <use xlink:href="#DejaVuSans-30" transform="translate(95.410156 0)"/>
       <use xlink:href="#DejaVuSans-30" transform="translate(159.033203 0)"/>
      </g>
     </g>
    </g>
    <g id="xtick_6">
     <g id="line2d_11">
      <path d="M 273.023137 307.584 
L 273.023137 41.472 
" clip-path="url(#pc7e064f3b4)" style="fill: none; stroke: #b0b0b0; stroke-opacity: 0.5; stroke-width: 0.8; stroke-linecap: square"/>
     </g>
     <g id="line2d_12">
      <g>
       <use xlink:href="#m6c860bad54" x="273.023137" y="307.584" style="stroke: #000000; stroke-width: 0.8"/>
      </g>
     </g>
     <g id="text_6">
      <!-- 0.25 -->
      <g transform="translate(261.890325 322.182437) scale(0.1 -0.1)">
       <use xlink:href="#DejaVuSans-30"/>
       <use xlink:href="#DejaVuSans-2e" transform="translate(63.623047 0)"/>
       <use xlink:href="#DejaVuSans-32" transform="translate(95.410156 0)"/>
       <use xlink:href="#DejaVuSans-35" transform="translate(159.033203 0)"/>
      </g>
     </g>
    </g>
    <g id="xtick_7">
     <g id="line2d_13">
      <path d="M 314.844516 307.584 
L 314.844516 41.472 
" clip-path="url(#pc7e064f3b4)" style="fill: none; stroke: #b0b0b0; stroke-opacity: 0.5; stroke-width: 0.8; stroke-linecap: square"/>
     </g>
     <g id="line2d_14">
      <g>
       <use xlink:href="#m6c860bad54" x="314.844516" y="307.584" style="stroke: #000000; stroke-width: 0.8"/>
      </g>
     </g>
     <g id="text_7">
      <!-- 0.50 -->
      <g transform="translate(303.711703 322.182437) scale(0.1 -0.1)">
       <use xlink:href="#DejaVuSans-30"/>
       <use xlink:href="#DejaVuSans-2e" transform="translate(63.623047 0)"/>
       <use xlink:href="#DejaVuSans-35" transform="translate(95.410156 0)"/>
       <use xlink:href="#DejaVuSans-30" transform="translate(159.033203 0)"/>
      </g>
     </g>
    </g>
    <g id="xtick_8">
     <g id="line2d_15">
      <path d="M 356.665894 307.584 
L 356.665894 41.472 
" clip-path="url(#pc7e064f3b4)" style="fill: none; stroke: #b0b0b0; stroke-opacity: 0.5; stroke-width: 0.8; stroke-linecap: square"/>
     </g>
     <g id="line2d_16">
      <g>
       <use xlink:href="#m6c860bad54" x="356.665894" y="307.584" style="stroke: #000000; stroke-width: 0.8"/>
      </g>
     </g>
     <g id="text_8">
      <!-- 0.75 -->
      <g transform="translate(345.533082 322.182437) scale(0.1 -0.1)">
       <use xlink:href="#DejaVuSans-30"/>
       <use xlink:href="#DejaVuSans-2e" transform="translate(63.623047 0)"/>
       <use xlink:href="#DejaVuSans-37" transform="translate(95.410156 0)"/>
       <use xlink:href="#DejaVuSans-35" transform="translate(159.033203 0)"/>
      </g>
     </g>
    </g>
    <g id="xtick_9">
     <g id="line2d_17">
      <path d="M 398.487273 307.584 
L 398.487273 41.472 
" clip-path="url(#pc7e064f3b4)" style="fill: none; stroke: #b0b0b0; stroke-opacity: 0.5; stroke-width: 0.8; stroke-linecap: square"/>
     </g>
     <g id="line2d_18">
      <g>
       <use xlink:href="#m6c860bad54" x="398.487273" y="307.584" style="stroke: #000000; stroke-width: 0.8"/>
      </g>
     </g>
     <g id="text_9">
      <!-- 1.00 -->
      <g transform="translate(387.35446 322.182437) scale(0.1 -0.1)">
       <use xlink:href="#DejaVuSans-31"/>
       <use xlink:href="#DejaVuSans-2e" transform="translate(63.623047 0)"/>
       <use xlink:href="#DejaVuSans-30" transform="translate(95.410156 0)"/>
       <use xlink:href="#DejaVuSans-30" transform="translate(159.033203 0)"/>
      </g>
     </g>
    </g>
    <g id="text_10">
     <!-- Index -->
     <g transform="translate(222.393594 335.860562) scale(0.1 -0.1)">
      <defs>
       <path id="DejaVuSans-49" d="M 628 4666 
L 1259 4666 
L 1259 0 
L 628 0 
L 628 4666 
z
" transform="scale(0.015625)"/>
       <path id="DejaVuSans-6e" d="M 3513 2113 
L 3513 0 
L 2938 0 
L 2938 2094 
Q 2938 2591 2744 2837 
Q 2550 3084 2163 3084 
Q 1697 3084 1428 2787 
Q 1159 2491 1159 1978 
L 1159 0 
L 581 0 
L 581 3500 
L 1159 3500 
L 1159 2956 
Q 1366 3272 1645 3428 
Q 1925 3584 2291 3584 
Q 2894 3584 3203 3211 
Q 3513 2838 3513 2113 
z
" transform="scale(0.015625)"/>
       <path id="DejaVuSans-64" d="M 2906 2969 
L 2906 4863 
L 3481 4863 
L 3481 0 
L 2906 0 
L 2906 525 
Q 2725 213 2448 61 
Q 2172 -91 1784 -91 
Q 1150 -91 751 415 
Q 353 922 353 1747 
Q 353 2572 751 3078 
Q 1150 3584 1784 3584 
Q 2172 3584 2448 3432 
Q 2725 3281 2906 2969 
z
M 947 1747 
Q 947 1113 1208 752 
Q 1469 391 1925 391 
Q 2381 391 2643 752 
Q 2906 1113 2906 1747 
Q 2906 2381 2643 2742 
Q 2381 3103 1925 3103 
Q 1469 3103 1208 2742 
Q 947 2381 947 1747 
z
" transform="scale(0.015625)"/>
       <path id="DejaVuSans-65" d="M 3597 1894 
L 3597 1613 
L 953 1613 
Q 991 1019 1311 708 
Q 1631 397 2203 397 
Q 2534 397 2845 478 
Q 3156 559 3463 722 
L 3463 178 
Q 3153 47 2828 -22 
Q 2503 -91 2169 -91 
Q 1331 -91 842 396 
Q 353 884 353 1716 
Q 353 2575 817 3079 
Q 1281 3584 2069 3584 
Q 2775 3584 3186 3129 
Q 3597 2675 3597 1894 
z
M 3022 2063 
Q 3016 2534 2758 2815 
Q 2500 3097 2075 3097 
Q 1594 3097 1305 2825 
Q 1016 2553 972 2059 
L 3022 2063 
z
" transform="scale(0.015625)"/>
       <path id="DejaVuSans-78" d="M 3513 3500 
L 2247 1797 
L 3578 0 
L 2900 0 
L 1881 1375 
L 863 0 
L 184 0 
L 1544 1831 
L 300 3500 
L 978 3500 
L 1906 2253 
L 2834 3500 
L 3513 3500 
z
" transform="scale(0.015625)"/>
      </defs>
      <use xlink:href="#DejaVuSans-49"/>
      <use xlink:href="#DejaVuSans-6e" transform="translate(29.492188 0)"/>
      <use xlink:href="#DejaVuSans-64" transform="translate(92.871094 0)"/>
      <use xlink:href="#DejaVuSans-65" transform="translate(156.347656 0)"/>
      <use xlink:href="#DejaVuSans-78" transform="translate(216.121094 0)"/>
     </g>
    </g>
   </g>
   <g id="matplotlib.axis_2">
    <g id="ytick_1">
     <g id="line2d_19">
      <path d="M 57.6 302.513077 
L 414.72 302.513077 
" clip-path="url(#pc7e064f3b4)" style="fill: none; stroke: #b0b0b0; stroke-opacity: 0.5; stroke-width: 0.8; stroke-linecap: square"/>
     </g>
     <g id="line2d_20">
      <defs>
       <path id="m6780c6e728" d="M 0 0 
L -3.5 0 
" style="stroke: #000000; stroke-width: 0.8"/>
      </defs>
      <g>
       <use xlink:href="#m6780c6e728" x="57.6" y="302.513077" style="stroke: #000000; stroke-width: 0.8"/>
      </g>
     </g>
     <g id="text_11">
      <!-- −1.00 -->
      <g transform="translate(19.954687 306.312296) scale(0.1 -0.1)">
       <use xlink:href="#DejaVuSans-2212"/>
       <use xlink:href="#DejaVuSans-31" transform="translate(83.789062 0)"/>
       <use xlink:href="#DejaVuSans-2e" transform="translate(147.412109 0)"/>
       <use xlink:href="#DejaVuSans-30" transform="translate(179.199219 0)"/>
       <use xlink:href="#DejaVuSans-30" transform="translate(242.822266 0)"/>
      </g>
     </g>
    </g>
    <g id="ytick_2">
     <g id="line2d_21">
      <path d="M 57.6 271.394927 
L 414.72 271.394927 
" clip-path="url(#pc7e064f3b4)" style="fill: none; stroke: #b0b0b0; stroke-opacity: 0.5; stroke-width: 0.8; stroke-linecap: square"/>
     </g>
     <g id="line2d_22">
      <g>
       <use xlink:href="#m6780c6e728" x="57.6" y="271.394927" style="stroke: #000000; stroke-width: 0.8"/>
      </g>
     </g>
     <g id="text_12">
      <!-- −0.75 -->
      <g transform="translate(19.954687 275.194146) scale(0.1 -0.1)">
       <use xlink:href="#DejaVuSans-2212"/>
       <use xlink:href="#DejaVuSans-30" transform="translate(83.789062 0)"/>
       <use xlink:href="#DejaVuSans-2e" transform="translate(147.412109 0)"/>
       <use xlink:href="#DejaVuSans-37" transform="translate(179.199219 0)"/>
       <use xlink:href="#DejaVuSans-35" transform="translate(242.822266 0)"/>
      </g>
     </g>
    </g>
    <g id="ytick_3">
     <g id="line2d_23">
      <path d="M 57.6 240.276776 
L 414.72 240.276776 
" clip-path="url(#pc7e064f3b4)" style="fill: none; stroke: #b0b0b0; stroke-opacity: 0.5; stroke-width: 0.8; stroke-linecap: square"/>
     </g>
     <g id="line2d_24">
      <g>
       <use xlink:href="#m6780c6e728" x="57.6" y="240.276776" style="stroke: #000000; stroke-width: 0.8"/>
      </g>
     </g>
     <g id="text_13">
      <!-- −0.50 -->
      <g transform="translate(19.954687 244.075995) scale(0.1 -0.1)">
       <use xlink:href="#DejaVuSans-2212"/>
       <use xlink:href="#DejaVuSans-30" transform="translate(83.789062 0)"/>
       <use xlink:href="#DejaVuSans-2e" transform="translate(147.412109 0)"/>
       <use xlink:href="#DejaVuSans-35" transform="translate(179.199219 0)"/>
       <use xlink:href="#DejaVuSans-30" transform="translate(242.822266 0)"/>
      </g>
     </g>
    </g>
    <g id="ytick_4">
     <g id="line2d_25">
      <path d="M 57.6 209.158626 
L 414.72 209.158626 
" clip-path="url(#pc7e064f3b4)" style="fill: none; stroke: #b0b0b0; stroke-opacity: 0.5; stroke-width: 0.8; stroke-linecap: square"/>
     </g>
     <g id="line2d_26">
      <g>
       <use xlink:href="#m6780c6e728" x="57.6" y="209.158626" style="stroke: #000000; stroke-width: 0.8"/>
      </g>
     </g>
     <g id="text_14">
      <!-- −0.25 -->
      <g transform="translate(19.954687 212.957845) scale(0.1 -0.1)">
       <use xlink:href="#DejaVuSans-2212"/>
       <use xlink:href="#DejaVuSans-30" transform="translate(83.789062 0)"/>
       <use xlink:href="#DejaVuSans-2e" transform="translate(147.412109 0)"/>
       <use xlink:href="#DejaVuSans-32" transform="translate(179.199219 0)"/>
       <use xlink:href="#DejaVuSans-35" transform="translate(242.822266 0)"/>
      </g>
     </g>
    </g>
    <g id="ytick_5">
     <g id="line2d_27">
      <path d="M 57.6 178.040476 
L 414.72 178.040476 
" clip-path="url(#pc7e064f3b4)" style="fill: none; stroke: #b0b0b0; stroke-opacity: 0.5; stroke-width: 0.8; stroke-linecap: square"/>
     </g>
     <g id="line2d_28">
      <g>
       <use xlink:href="#m6780c6e728" x="57.6" y="178.040476" style="stroke: #000000; stroke-width: 0.8"/>
      </g>
     </g>
     <g id="text_15">
      <!-- 0.00 -->
      <g transform="translate(28.334375 181.839694) scale(0.1 -0.1)">
       <use xlink:href="#DejaVuSans-30"/>
       <use xlink:href="#DejaVuSans-2e" transform="translate(63.623047 0)"/>
       <use xlink:href="#DejaVuSans-30" transform="translate(95.410156 0)"/>
       <use xlink:href="#DejaVuSans-30" transform="translate(159.033203 0)"/>
      </g>
     </g>
    </g>
    <g id="ytick_6">
     <g id="line2d_29">
      <path d="M 57.6 146.922325 
L 414.72 146.922325 
" clip-path="url(#pc7e064f3b4)" style="fill: none; stroke: #b0b0b0; stroke-opacity: 0.5; stroke-width: 0.8; stroke-linecap: square"/>
     </g>
     <g id="line2d_30">
      <g>
       <use xlink:href="#m6780c6e728" x="57.6" y="146.922325" style="stroke: #000000; stroke-width: 0.8"/>
      </g>
     </g>
     <g id="text_16">
      <!-- 0.25 -->
      <g transform="translate(28.334375 150.721544) scale(0.1 -0.1)">
       <use xlink:href="#DejaVuSans-30"/>
       <use xlink:href="#DejaVuSans-2e" transform="translate(63.623047 0)"/>
       <use xlink:href="#DejaVuSans-32" transform="translate(95.410156 0)"/>
       <use xlink:href="#DejaVuSans-35" transform="translate(159.033203 0)"/>
      </g>
     </g>
    </g>
    <g id="ytick_7">
     <g id="line2d_31">
      <path d="M 57.6 115.804175 
L 414.72 115.804175 
" clip-path="url(#pc7e064f3b4)" style="fill: none; stroke: #b0b0b0; stroke-opacity: 0.5; stroke-width: 0.8; stroke-linecap: square"/>
     </g>
     <g id="line2d_32">
      <g>
       <use xlink:href="#m6780c6e728" x="57.6" y="115.804175" style="stroke: #000000; stroke-width: 0.8"/>
      </g>
     </g>
     <g id="text_17">
      <!-- 0.50 -->
      <g transform="translate(28.334375 119.603393) scale(0.1 -0.1)">
       <use xlink:href="#DejaVuSans-30"/>
       <use xlink:href="#DejaVuSans-2e" transform="translate(63.623047 0)"/>
       <use xlink:href="#DejaVuSans-35" transform="translate(95.410156 0)"/>
       <use xlink:href="#DejaVuSans-30" transform="translate(159.033203 0)"/>
      </g>
     </g>
    </g>
    <g id="ytick_8">
     <g id="line2d_33">
      <path d="M 57.6 84.686024 
L 414.72 84.686024 
" clip-path="url(#pc7e064f3b4)" style="fill: none; stroke: #b0b0b0; stroke-opacity: 0.5; stroke-width: 0.8; stroke-linecap: square"/>
     </g>
     <g id="line2d_34">
      <g>
       <use xlink:href="#m6780c6e728" x="57.6" y="84.686024" style="stroke: #000000; stroke-width: 0.8"/>
      </g>
     </g>
     <g id="text_18">
      <!-- 0.75 -->
      <g transform="translate(28.334375 88.485243) scale(0.1 -0.1)">
       <use xlink:href="#DejaVuSans-30"/>
       <use xlink:href="#DejaVuSans-2e" transform="translate(63.623047 0)"/>
       <use xlink:href="#DejaVuSans-37" transform="translate(95.410156 0)"/>
       <use xlink:href="#DejaVuSans-35" transform="translate(159.033203 0)"/>
      </g>
     </g>
    </g>
    <g id="ytick_9">
     <g id="line2d_35">
      <path d="M 57.6 53.567874 
L 414.72 53.567874 
" clip-path="url(#pc7e064f3b4)" style="fill: none; stroke: #b0b0b0; stroke-opacity: 0.5; stroke-width: 0.8; stroke-linecap: square"/>
     </g>
     <g id="line2d_36">
      <g>
       <use xlink:href="#m6780c6e728" x="57.6" y="53.567874" style="stroke: #000000; stroke-width: 0.8"/>
      </g>
     </g>
     <g id="text_19">
      <!-- 1.00 -->
      <g transform="translate(28.334375 57.367093) scale(0.1 -0.1)">
       <use xlink:href="#DejaVuSans-31"/>
       <use xlink:href="#DejaVuSans-2e" transform="translate(63.623047 0)"/>
       <use xlink:href="#DejaVuSans-30" transform="translate(95.410156 0)"/>
       <use xlink:href="#DejaVuSans-30" transform="translate(159.033203 0)"/>
      </g>
     </g>
    </g>
    <g id="text_20">
     <!-- Value -->
     <g transform="translate(13.875 188.25925) rotate(-90) scale(0.1 -0.1)">
      <defs>
       <path id="DejaVuSans-56" d="M 1831 0 
L 50 4666 
L 709 4666 
L 2188 738 
L 3669 4666 
L 4325 4666 
L 2547 0 
L 1831 0 
z
" transform="scale(0.015625)"/>
       <path id="DejaVuSans-61" d="M 2194 1759 
Q 1497 1759 1228 1600 
Q 959 1441 959 1056 
Q 959 750 1161 570 
Q 1363 391 1709 391 
Q 2188 391 2477 730 
Q 2766 1069 2766 1631 
L 2766 1759 
L 2194 1759 
z
M 3341 1997 
L 3341 0 
L 2766 0 
L 2766 531 
Q 2569 213 2275 61 
Q 1981 -91 1556 -91 
Q 1019 -91 701 211 
Q 384 513 384 1019 
Q 384 1609 779 1909 
Q 1175 2209 1959 2209 
L 2766 2209 
L 2766 2266 
Q 2766 2663 2505 2880 
Q 2244 3097 1772 3097 
Q 1472 3097 1187 3025 
Q 903 2953 641 2809 
L 641 3341 
Q 956 3463 1253 3523 
Q 1550 3584 1831 3584 
Q 2591 3584 2966 3190 
Q 3341 2797 3341 1997 
z
" transform="scale(0.015625)"/>
       <path id="DejaVuSans-6c" d="M 603 4863 
L 1178 4863 
L 1178 0 
L 603 0 
L 603 4863 
z
" transform="scale(0.015625)"/>
       <path id="DejaVuSans-75" d="M 544 1381 
L 544 3500 
L 1119 3500 
L 1119 1403 
Q 1119 906 1312 657 
Q 1506 409 1894 409 
Q 2359 409 2629 706 
Q 2900 1003 2900 1516 
L 2900 3500 
L 3475 3500 
L 3475 0 
L 2900 0 
L 2900 538 
Q 2691 219 2414 64 
Q 2138 -91 1772 -91 
Q 1169 -91 856 284 
Q 544 659 544 1381 
z
M 1991 3584 
L 1991 3584 
z
" transform="scale(0.015625)"/>
      </defs>
      <use xlink:href="#DejaVuSans-56"/>
      <use xlink:href="#DejaVuSans-61" transform="translate(60.658203 0)"/>
      <use xlink:href="#DejaVuSans-6c" transform="translate(121.9375 0)"/>
      <use xlink:href="#DejaVuSans-75" transform="translate(149.720703 0)"/>
      <use xlink:href="#DejaVuSans-65" transform="translate(213.099609 0)"/>
     </g>
    </g>
   </g>
   <g id="line2d_37">
    <path d="M 110.115408 295.488 
L 127.476164 295.30517 
L 145.64493 294.843491 
L 158.874664 294.081026 
L 163.743231 293.037056 
L 160.304883 291.774221 
L 151.332365 290.390891 
L 139.855293 289.004646 
L 131.710666 287.730186 
L 138.85594 286.656606 
L 136.186854 285.829134 
L 123.136888 285.24015 
L 89.388644 284.509171 
L 84.788735 284.163268 
L 110.433742 283.694697 
L 140.154143 283.036137 
L 156.606492 282.166168 
L 160.041549 281.11193 
L 154.650363 279.940499 
L 135.938228 277.603609 
L 136.548173 276.596549 
L 138.248417 275.753422 
L 132.151344 275.066677 
L 108.524805 273.964199 
L 110.086044 273.408854 
L 142.96722 272.00027 
L 152.623758 271.108118 
L 154.619612 270.115592 
L 151.356814 269.06973 
L 145.807926 268.025633 
L 141.467901 267.032848 
L 138.810951 265.310686 
L 134.918434 264.579678 
L 129.952461 263.901753 
L 128.276526 263.238467 
L 132.659785 262.552166 
L 148.648612 261.010898 
L 153.563484 260.143823 
L 155.220674 259.228694 
L 154.454552 258.289949 
L 150.628139 256.445943 
L 146.667555 253.983551 
L 146.049593 253.234722 
L 146.903728 252.49576 
L 149.726731 251.747799 
L 158.463011 250.169524 
L 162.062799 249.32889 
L 164.237314 248.459893 
L 165.037231 247.574671 
L 164.876644 246.688328 
L 162.863909 243.353021 
L 163.109484 242.578344 
L 164.287956 241.810314 
L 166.584819 241.036044 
L 172.728981 239.431354 
L 175.14919 238.595283 
L 176.573746 237.74256 
L 177.128093 236.882733 
L 177.149481 236.026563 
L 176.970427 234.35769 
L 177.170021 233.550401 
L 177.766546 232.756894 
L 178.943791 231.969623 
L 180.745325 231.180203 
L 185.155042 229.570382 
L 186.936081 228.746349 
L 188.10856 227.913175 
L 188.797755 227.076548 
L 189.961884 224.598223 
L 190.579664 223.789759 
L 191.468513 222.987479 
L 192.64029 222.187483 
L 198.038927 218.953107 
L 199.868627 217.31486 
L 203.055269 214.061104 
L 204.968626 212.450464 
L 209.290827 209.233786 
L 212.541184 206.809294 
L 214.392999 205.190318 
L 218.512899 201.191592 
L 220.825103 199.603138 
L 223.223969 198.001806 
L 224.227296 197.196172 
L 225.707188 195.585177 
L 226.924392 193.991104 
L 227.658369 193.203012 
L 228.562492 192.419167 
L 230.925784 190.852463 
L 233.505669 189.269735 
L 234.574313 188.470821 
L 235.419387 187.669361 
L 236.548764 186.071354 
L 237.736501 184.494742 
L 238.537077 183.714462 
L 240.641805 182.158027 
L 230.435924 182.060612 
L 283.765617 181.278377 
L 246.668458 179.700382 
L 245.147068 178.906546 
L 246.487305 177.319855 
L 248.055991 175.745031 
L 249.988801 174.181017 
L 254.177787 171.046791 
L 262.524309 163.961494 
L 264.93563 161.608282 
L 266.840403 160.047624 
L 270.970623 156.904013 
L 272.5023 155.320914 
L 274.652667 152.96988 
L 276.554739 151.42018 
L 279.823121 149.082719 
L 281.494623 147.506633 
L 283.496993 145.152013 
L 285.19961 143.603563 
L 290.227249 139.723072 
L 291.67416 138.156887 
L 293.598442 135.826975 
L 298.240473 131.177133 
L 300.640227 128.076157 
L 304.194154 124.210029 
L 306.382941 121.113404 
L 307.891961 119.579143 
L 310.286745 117.270268 
L 311.513122 115.721058 
L 313.251969 113.41133 
L 314.892137 111.887934 
L 317.623661 109.596479 
L 319.028684 108.055033 
L 320.95156 105.754178 
L 322.624593 104.240398 
L 325.40315 101.968849 
L 326.847658 100.438828 
L 328.736842 98.149317 
L 330.386084 96.643001 
L 334.072989 93.626658 
L 337.602631 89.841388 
L 342.290314 86.100418 
L 345.739201 82.330579 
L 350.512664 78.618224 
L 351.510771 77.101262 
L 351.977723 76.344383 
L 352.595525 75.594107 
L 354.330807 74.11766 
L 357.382898 71.913216 
L 358.097559 71.164194 
L 358.421268 70.40716 
L 358.729571 68.887956 
L 359.119407 68.137398 
L 359.763992 67.397576 
L 361.503641 65.941272 
L 363.325581 64.47375 
L 363.910768 63.722169 
L 364.020499 62.959503 
L 363.719016 62.192534 
L 363.550177 61.430847 
L 363.828069 60.682871 
L 364.505648 59.952085 
L 366.312472 58.519575 
L 367.365857 57.793322 
L 368.177666 57.046058 
L 367.916775 56.280224 
L 366.682864 55.516987 
L 367.77749 54.188812 
L 356.273426 53.75629 
L 338.501546 53.568 
L 328.353966 53.668975 
L 312.060036 54.069579 
L 303.559365 54.737109 
L 317.882688 55.597092 
L 338.141214 56.543649 
L 353.587171 57.458385 
L 350.757412 58.232402 
L 343.735221 58.788741 
L 356.869203 59.097526 
L 378.694781 59.181689 
L 393.270798 59.110903 
L 395.92038 58.985208 
L 385.617482 58.91207 
L 359.963092 58.982396 
L 335.78445 59.250813 
L 323.033613 59.725149 
L 327.248841 60.366942 
L 357.186051 61.843003 
L 361.716173 62.503574 
L 356.27212 63.024865 
L 359.532435 63.384011 
L 384.949774 63.714727 
L 392.63405 63.803482 
L 386.165119 63.933117 
L 368.456794 64.158073 
L 352.987954 64.506276 
L 347.105077 64.975017 
L 350.267378 65.534154 
L 364.16448 66.725802 
L 366.391063 67.259023 
L 366.217488 67.706598 
L 368.923386 68.062035 
L 383.295287 68.794608 
L 378.861137 69.044893 
L 363.838778 69.7185 
L 360.450016 70.149982 
L 360.518806 70.626663 
L 366.408732 72.075674 
L 367.575507 72.493505 
L 369.205894 72.863987 
L 373.15026 73.497382 
L 373.176813 73.793925 
L 370.942263 74.10225 
L 363.347587 74.807062 
L 360.6721 75.211509 
L 359.574563 75.643043 
L 359.747669 76.088682 
L 361.479042 76.962479 
L 364.603483 78.428777 
L 364.059167 78.759166 
L 362.323935 79.097479 
L 357.35486 79.831277 
L 355.607384 80.230568 
L 354.804679 80.645187 
L 354.770189 81.065904 
L 355.581668 81.887441 
L 356.363035 82.646954 
L 356.43004 83.00584 
L 355.978494 83.359051 
L 354.908995 83.714131 
L 350.489023 84.839608 
L 349.659078 85.235798 
L 349.261883 85.636216 
L 349.126995 86.429219 
L 349.049252 87.192286 
L 348.791242 87.563414 
L 348.277856 87.931477 
L 346.596537 88.671878 
L 344.831452 89.430753 
L 343.684867 90.204763 
L 342.765003 91.360807 
L 342.088232 92.115022 
L 341.064719 92.860446 
L 337.278942 95.125051 
L 336.019895 96.261063 
L 335.188035 97.002681 
L 333.971963 97.736093 
L 330.859367 99.222385 
L 329.883367 99.975592 
L 328.519614 101.443766 
L 327.204978 102.1603 
L 324.62626 103.252502 
L 323.5469 103.995782 
L 322.036534 105.814696 
L 320.769809 106.523611 
L 318.515018 107.603883 
L 317.470925 108.336842 
L 315.491165 110.149354 
L 313.68797 111.221992 
L 310.632344 113.036314 
L 308.664569 114.499073 
L 307.245228 115.584056 
L 305.387258 116.663764 
L 303.365045 117.758378 
L 302.376546 118.495362 
L 300.806424 119.949188 
L 299.708707 120.664212 
L 297.13626 122.111572 
L 296.319925 122.843972 
L 295.301249 123.929437 
L 294.292942 124.642654 
L 291.294415 126.441497 
L 288.696801 128.606366 
L 285.539875 130.766024 
L 282.662177 132.931817 
L 272.819029 140.112926 
L 271.392067 141.187482 
L 269.6414 142.609368 
L 265.693565 145.43725 
L 263.864715 146.841776 
L 261.579027 148.590249 
L 259.733503 149.978781 
L 257.808094 151.367378 
L 255.216568 153.43501 
L 252.743916 155.155111 
L 250.661325 156.870707 
L 247.691863 158.928988 
L 246.034415 160.303117 
L 242.745762 162.708908 
L 241.109751 164.085541 
L 238.408624 166.152941 
L 236.305856 167.873195 
L 234.095491 169.592904 
L 232.303439 170.96536 
L 229.463436 173.022905 
L 227.655266 174.389434 
L 224.781341 176.440695 
L 223.021162 177.804602 
L 220.043654 179.85094 
L 217.806228 181.553368 
L 215.301943 183.253428 
L 212.593153 185.288374 
L 210.162424 186.97878 
L 207.842154 188.660125 
L 205.401499 190.334466 
L 203.069687 191.998716 
L 200.664843 193.657439 
L 198.364271 195.304834 
L 195.985725 196.94905 
L 194.261628 198.259594 
L 190.945634 200.548042 
L 189.185487 201.852524 
L 186.746263 203.482466 
L 184.608841 205.113089 
L 181.721291 207.068434 
L 180.015105 208.374541 
L 176.739404 210.660877 
L 172.373006 214.2525 
L 170.758942 215.553759 
L 169.157221 216.857243 
L 167.726324 218.157719 
L 165.273758 220.103698 
L 164.013255 221.40187 
L 161.024789 223.987565 
L 160.023272 224.954999 
L 157.696706 226.885238 
L 156.391832 228.171517 
L 153.624567 230.412084 
L 152.575778 231.369006 
L 149.812835 233.592112 
L 148.783071 234.540969 
L 145.599921 237.059568 
L 144.396711 237.997604 
L 142.11109 239.556633 
L 140.310239 241.116906 
L 137.653079 242.977412 
L 136.233698 244.219703 
L 133.588583 246.075536 
L 132.180669 247.316803 
L 129.227151 249.484618 
L 128.173755 250.414972 
L 125.169126 252.581088 
L 124.121334 253.512843 
L 120.65066 255.989176 
L 119.940546 256.608971 
L 118.468479 257.530288 
L 117.077375 258.456687 
L 115.321852 260.004929 
L 112.510381 261.848616 
L 111.534929 262.775394 
L 110.615134 263.385856 
L 108.603147 264.607655 
L 106.424804 266.447203 
L 104.339291 267.660278 
L 103.43918 268.582566 
L 102.750025 269.191648 
L 101.200044 270.0926 
L 100.228969 270.696689 
L 99.630091 271.307707 
L 99.157785 271.917821 
L 98.385312 272.519031 
L 95.92467 274.015562 
L 94.935538 275.22558 
L 93.970136 275.816953 
L 92.310823 276.703533 
L 91.713949 277.305879 
L 91.239599 278.207453 
L 90.436047 278.793981 
L 88.891909 279.671495 
L 88.443095 280.270272 
L 88.194219 281.169109 
L 87.877799 281.461965 
L 86.816586 282.039249 
L 85.716526 282.620294 
L 85.389558 282.916756 
L 85.264661 283.216949 
L 85.222274 284.116624 
L 84.940245 284.408582 
L 83.807739 284.981118 
L 82.553887 285.557103 
L 82.193166 285.852667 
L 82.151118 286.153417 
L 82.631571 287.057796 
L 82.460538 287.349457 
L 82.012053 287.634894 
L 80.010765 288.487443 
L 79.667244 288.782866 
L 79.689749 289.085641 
L 80.631968 289.998374 
L 80.49036 290.28896 
L 79.953781 290.570546 
L 77.352488 291.411358 
L 76.951584 291.709407 
L 77.137872 292.018793 
L 79.036629 292.946906 
L 78.81626 293.231103 
L 77.927445 293.500782 
L 73.832727 294.328343 
L 73.878684 294.640548 
L 75.681978 294.958421 
L 78.282124 295.245453 
L 83.356223 295.445058 
L 83.356223 295.445058 
" clip-path="url(#pc7e064f3b4)" style="fill: none; stroke: #1f77b4; stroke-width: 1.5; stroke-linecap: square"/>
   </g>
   <g id="line2d_38">
    <path d="M 86.819996 295.488 
L 90.364724 295.30517 
L 92.931757 294.843491 
L 94.025754 294.081026 
L 93.453958 293.037056 
L 91.396942 291.774221 
L 82.703801 287.730186 
L 81.590928 286.656606 
L 82.286235 285.829134 
L 84.80447 285.24015 
L 88.757041 284.831689 
L 98.04555 284.163268 
L 101.778391 283.694697 
L 104.117846 283.036137 
L 104.88976 282.166168 
L 104.296765 281.11193 
L 100.054735 277.603609 
L 99.866094 276.596549 
L 100.863772 275.753422 
L 102.960183 275.066677 
L 108.927255 273.964199 
L 111.802331 273.408854 
L 114.045595 272.765955 
L 115.462942 272.00027 
L 116.083985 271.108118 
L 116.129682 270.115592 
L 115.853914 268.025633 
L 116.166635 267.032848 
L 117.022176 266.124374 
L 118.416709 265.310686 
L 120.21439 264.579678 
L 125.819962 262.552166 
L 127.152077 261.814318 
L 128.112573 261.010898 
L 128.774607 260.143823 
L 130.371581 257.354528 
L 131.212984 256.445943 
L 132.319874 255.579639 
L 133.671781 254.760639 
L 136.801556 253.234722 
L 139.808997 251.747799 
L 141.053158 250.975414 
L 142.08017 250.169524 
L 142.913327 249.32889 
L 145.860822 245.815309 
L 146.913719 244.966388 
L 149.5688 243.353021 
L 153.869355 241.036044 
L 155.052184 240.244989 
L 156.045554 239.431354 
L 157.623199 237.74256 
L 159.197345 236.026563 
L 160.175679 235.183151 
L 162.614564 233.550401 
L 167.901773 230.381703 
L 169.906232 228.746349 
L 173.452127 225.415624 
L 175.65631 223.789759 
L 182.790965 218.953107 
L 185.729347 216.496828 
L 188.642956 214.061104 
L 190.845618 212.450464 
L 196.731742 208.42707 
L 198.675346 206.809294 
L 201.360312 204.383514 
L 203.475601 202.780817 
L 210.5224 198.001806 
L 215.106769 193.991104 
L 217.376478 192.419167 
L 220.91817 190.06384 
L 222.992148 188.470821 
L 227.874331 184.494742 
L 235.450608 178.906546 
L 246.849162 170.259955 
L 252.308453 166.325463 
L 258.240678 161.608282 
L 263.764845 157.69451 
L 269.578575 152.96988 
L 275.037607 149.082719 
L 280.877563 144.376026 
L 285.173556 141.284491 
L 292.219339 135.826975 
L 295.38148 133.510232 
L 301.373988 128.847911 
L 305.627798 125.76171 
L 311.547088 121.113404 
L 315.818263 118.042442 
L 322.718919 112.648686 
L 325.920056 110.363367 
L 333.888934 104.240398 
L 336.985057 101.968849 
L 341.727681 98.149317 
L 347.007382 94.385629 
L 351.602345 90.590432 
L 357.019645 86.855724 
L 362.520712 82.330579 
L 366.969361 79.370095 
L 368.680204 77.860752 
L 370.304169 76.344383 
L 372.326337 74.852259 
L 376.937911 71.913216 
L 378.600794 70.40716 
L 380.088785 68.887956 
L 380.999935 68.137398 
L 383.346708 66.667235 
L 385.919473 65.212334 
L 386.993409 64.47375 
L 387.825259 63.722169 
L 389.582936 61.430847 
L 390.455239 60.682871 
L 391.683356 59.952085 
L 396.307215 57.793322 
L 397.116042 57.046058 
L 396.963725 56.280224 
L 395.673927 55.516987 
L 393.318519 54.799341 
L 390.241341 54.188812 
L 387.009193 53.75629 
L 384.295348 53.568 
L 382.722015 53.668975 
L 382.700548 54.069579 
L 384.313126 54.737109 
L 387.269855 55.597092 
L 397.288909 58.232402 
L 398.487273 58.788741 
L 397.863358 59.097526 
L 395.519456 59.181689 
L 381.257326 58.982396 
L 379.906276 59.250813 
L 380.064685 59.725149 
L 381.453076 60.366942 
L 385.627852 61.843003 
L 387.141818 62.503574 
L 387.648922 63.024865 
L 387.004048 63.384011 
L 385.348165 63.597549 
L 378.429522 63.933117 
L 376.925777 64.158073 
L 376.223789 64.506276 
L 376.263852 64.975017 
L 378.144801 66.725802 
L 378.338896 67.259023 
L 378.009215 67.706598 
L 377.173047 68.062035 
L 374.604569 68.571723 
L 372.248703 69.044893 
L 371.538947 69.348908 
L 371.184279 69.7185 
L 371.110484 70.149982 
L 371.263788 71.123656 
L 371.204929 71.614255 
L 370.918193 72.075674 
L 370.36927 72.493505 
L 368.633579 73.193716 
L 365.841123 74.10225 
L 365.218873 74.437291 
L 364.808188 74.807062 
L 364.45328 75.643043 
L 364.166484 76.533163 
L 363.836644 76.962479 
L 363.320147 77.366941 
L 361.792331 78.094077 
L 359.317291 79.097479 
L 358.340652 79.831277 
L 357.889435 80.645187 
L 357.410139 81.482727 
L 356.989792 81.887441 
L 355.705588 82.646954 
L 352.749188 84.077439 
L 351.874732 84.839608 
L 350.649496 86.429219 
L 349.602572 87.192286 
L 345.80468 89.430753 
L 344.676183 90.592591 
L 343.922506 91.360807 
L 342.911896 92.115022 
L 339.371924 94.362756 
L 336.449007 97.002681 
L 333.448545 98.846709 
L 332.327078 99.975592 
L 331.574736 100.718485 
L 330.572791 101.443766 
L 327.708394 103.252502 
L 323.041201 106.880449 
L 320.49784 108.703496 
L 316.69238 111.581642 
L 314.014401 113.402516 
L 310.288759 116.303086 
L 308.206088 117.758378 
L 305.070808 120.306876 
L 303.015901 121.746317 
L 298.861332 124.999081 
L 296.473718 126.804935 
L 293.147649 129.323156 
L 283.555388 136.531857 
L 279.800596 139.39906 
L 231.293088 176.098157 
L 228.570792 178.144413 
L 221.834877 183.253428 
L 217.382028 186.640494 
L 207.284558 194.318709 
L 200.258209 199.564825 
L 194.226151 204.136562 
L 182.147008 213.271318 
L 176.275494 217.833758 
L 169.414368 223.014685 
L 166.480907 225.275933 
L 163.937501 227.20796 
L 158.450189 231.369006 
L 155.123332 233.909503 
L 141.053886 244.527999 
L 138.595697 246.38688 
L 133.718046 250.106009 
L 127.56367 254.744933 
L 120.833927 260.004929 
L 118.764757 261.53883 
L 116.834073 263.081307 
L 114.749158 264.607655 
L 112.840381 266.144487 
L 110.734218 267.660278 
L 108.844914 269.191648 
L 106.719876 270.696689 
L 104.890578 272.219676 
L 102.383551 274.015562 
L 100.951138 275.22558 
L 98.396799 277.003719 
L 97.031181 278.207453 
L 94.499207 279.969537 
L 93.20223 281.169109 
L 90.610988 282.916756 
L 89.486709 284.116624 
L 88.019417 284.981118 
L 87.074406 285.557103 
L 86.471171 286.153417 
L 85.673073 287.057796 
L 84.704301 287.634894 
L 83.108802 288.487443 
L 82.574836 289.085641 
L 82.2673 289.698522 
L 81.988392 289.998374 
L 80.940849 290.570546 
L 79.068277 291.411358 
L 78.772517 291.709407 
L 78.696259 292.018793 
L 78.76122 292.646274 
L 78.564383 292.946906 
L 78.034275 293.231103 
L 74.771756 294.328343 
L 75.217718 294.640548 
L 76.770032 294.958421 
L 79.437792 295.245453 
L 82.957762 295.445058 
L 82.957762 295.445058 
" clip-path="url(#pc7e064f3b4)" style="fill: none; stroke: #ff7f0e; stroke-opacity: 0.5; stroke-width: 1.5; stroke-linecap: square"/>
   </g>
   <g id="patch_3">
    <path d="M 57.6 307.584 
L 57.6 41.472 
" style="fill: none; stroke: #000000; stroke-width: 0.8; stroke-linejoin: miter; stroke-linecap: square"/>
   </g>
   <g id="patch_4">
    <path d="M 414.72 307.584 
L 414.72 41.472 
" style="fill: none; stroke: #000000; stroke-width: 0.8; stroke-linejoin: miter; stroke-linecap: square"/>
   </g>
   <g id="patch_5">
    <path d="M 57.6 307.584 
L 414.72 307.584 
" style="fill: none; stroke: #000000; stroke-width: 0.8; stroke-linejoin: miter; stroke-linecap: square"/>
   </g>
   <g id="patch_6">
    <path d="M 57.6 41.472 
L 414.72 41.472 
" style="fill: none; stroke: #000000; stroke-width: 0.8; stroke-linejoin: miter; stroke-linecap: square"/>
   </g>
   <g id="text_21">
    <!-- Compare - Epoch 300 -->
    <g transform="translate(171.234375 35.472) scale(0.12 -0.12)">
     <defs>
      <path id="DejaVuSans-43" d="M 4122 4306 
L 4122 3641 
Q 3803 3938 3442 4084 
Q 3081 4231 2675 4231 
Q 1875 4231 1450 3742 
Q 1025 3253 1025 2328 
Q 1025 1406 1450 917 
Q 1875 428 2675 428 
Q 3081 428 3442 575 
Q 3803 722 4122 1019 
L 4122 359 
Q 3791 134 3420 21 
Q 3050 -91 2638 -91 
Q 1578 -91 968 557 
Q 359 1206 359 2328 
Q 359 3453 968 4101 
Q 1578 4750 2638 4750 
Q 3056 4750 3426 4639 
Q 3797 4528 4122 4306 
z
" transform="scale(0.015625)"/>
      <path id="DejaVuSans-6f" d="M 1959 3097 
Q 1497 3097 1228 2736 
Q 959 2375 959 1747 
Q 959 1119 1226 758 
Q 1494 397 1959 397 
Q 2419 397 2687 759 
Q 2956 1122 2956 1747 
Q 2956 2369 2687 2733 
Q 2419 3097 1959 3097 
z
M 1959 3584 
Q 2709 3584 3137 3096 
Q 3566 2609 3566 1747 
Q 3566 888 3137 398 
Q 2709 -91 1959 -91 
Q 1206 -91 779 398 
Q 353 888 353 1747 
Q 353 2609 779 3096 
Q 1206 3584 1959 3584 
z
" transform="scale(0.015625)"/>
      <path id="DejaVuSans-6d" d="M 3328 2828 
Q 3544 3216 3844 3400 
Q 4144 3584 4550 3584 
Q 5097 3584 5394 3201 
Q 5691 2819 5691 2113 
L 5691 0 
L 5113 0 
L 5113 2094 
Q 5113 2597 4934 2840 
Q 4756 3084 4391 3084 
Q 3944 3084 3684 2787 
Q 3425 2491 3425 1978 
L 3425 0 
L 2847 0 
L 2847 2094 
Q 2847 2600 2669 2842 
Q 2491 3084 2119 3084 
Q 1678 3084 1418 2786 
Q 1159 2488 1159 1978 
L 1159 0 
L 581 0 
L 581 3500 
L 1159 3500 
L 1159 2956 
Q 1356 3278 1631 3431 
Q 1906 3584 2284 3584 
Q 2666 3584 2933 3390 
Q 3200 3197 3328 2828 
z
" transform="scale(0.015625)"/>
      <path id="DejaVuSans-70" d="M 1159 525 
L 1159 -1331 
L 581 -1331 
L 581 3500 
L 1159 3500 
L 1159 2969 
Q 1341 3281 1617 3432 
Q 1894 3584 2278 3584 
Q 2916 3584 3314 3078 
Q 3713 2572 3713 1747 
Q 3713 922 3314 415 
Q 2916 -91 2278 -91 
Q 1894 -91 1617 61 
Q 1341 213 1159 525 
z
M 3116 1747 
Q 3116 2381 2855 2742 
Q 2594 3103 2138 3103 
Q 1681 3103 1420 2742 
Q 1159 2381 1159 1747 
Q 1159 1113 1420 752 
Q 1681 391 2138 391 
Q 2594 391 2855 752 
Q 3116 1113 3116 1747 
z
" transform="scale(0.015625)"/>
      <path id="DejaVuSans-72" d="M 2631 2963 
Q 2534 3019 2420 3045 
Q 2306 3072 2169 3072 
Q 1681 3072 1420 2755 
Q 1159 2438 1159 1844 
L 1159 0 
L 581 0 
L 581 3500 
L 1159 3500 
L 1159 2956 
Q 1341 3275 1631 3429 
Q 1922 3584 2338 3584 
Q 2397 3584 2469 3576 
Q 2541 3569 2628 3553 
L 2631 2963 
z
" transform="scale(0.015625)"/>
      <path id="DejaVuSans-20" transform="scale(0.015625)"/>
      <path id="DejaVuSans-2d" d="M 313 2009 
L 1997 2009 
L 1997 1497 
L 313 1497 
L 313 2009 
z
" transform="scale(0.015625)"/>
      <path id="DejaVuSans-45" d="M 628 4666 
L 3578 4666 
L 3578 4134 
L 1259 4134 
L 1259 2753 
L 3481 2753 
L 3481 2222 
L 1259 2222 
L 1259 531 
L 3634 531 
L 3634 0 
L 628 0 
L 628 4666 
z
" transform="scale(0.015625)"/>
      <path id="DejaVuSans-63" d="M 3122 3366 
L 3122 2828 
Q 2878 2963 2633 3030 
Q 2388 3097 2138 3097 
Q 1578 3097 1268 2742 
Q 959 2388 959 1747 
Q 959 1106 1268 751 
Q 1578 397 2138 397 
Q 2388 397 2633 464 
Q 2878 531 3122 666 
L 3122 134 
Q 2881 22 2623 -34 
Q 2366 -91 2075 -91 
Q 1284 -91 818 406 
Q 353 903 353 1747 
Q 353 2603 823 3093 
Q 1294 3584 2113 3584 
Q 2378 3584 2631 3529 
Q 2884 3475 3122 3366 
z
" transform="scale(0.015625)"/>
      <path id="DejaVuSans-68" d="M 3513 2113 
L 3513 0 
L 2938 0 
L 2938 2094 
Q 2938 2591 2744 2837 
Q 2550 3084 2163 3084 
Q 1697 3084 1428 2787 
Q 1159 2491 1159 1978 
L 1159 0 
L 581 0 
L 581 4863 
L 1159 4863 
L 1159 2956 
Q 1366 3272 1645 3428 
Q 1925 3584 2291 3584 
Q 2894 3584 3203 3211 
Q 3513 2838 3513 2113 
z
" transform="scale(0.015625)"/>
      <path id="DejaVuSans-33" d="M 2597 2516 
Q 3050 2419 3304 2112 
Q 3559 1806 3559 1356 
Q 3559 666 3084 287 
Q 2609 -91 1734 -91 
Q 1441 -91 1130 -33 
Q 819 25 488 141 
L 488 750 
Q 750 597 1062 519 
Q 1375 441 1716 441 
Q 2309 441 2620 675 
Q 2931 909 2931 1356 
Q 2931 1769 2642 2001 
Q 2353 2234 1838 2234 
L 1294 2234 
L 1294 2753 
L 1863 2753 
Q 2328 2753 2575 2939 
Q 2822 3125 2822 3475 
Q 2822 3834 2567 4026 
Q 2313 4219 1838 4219 
Q 1578 4219 1281 4162 
Q 984 4106 628 3988 
L 628 4550 
Q 988 4650 1302 4700 
Q 1616 4750 1894 4750 
Q 2613 4750 3031 4423 
Q 3450 4097 3450 3541 
Q 3450 3153 3228 2886 
Q 3006 2619 2597 2516 
z
" transform="scale(0.015625)"/>
     </defs>
     <use xlink:href="#DejaVuSans-43"/>
     <use xlink:href="#DejaVuSans-6f" transform="translate(69.824219 0)"/>
     <use xlink:href="#DejaVuSans-6d" transform="translate(131.005859 0)"/>
     <use xlink:href="#DejaVuSans-70" transform="translate(228.417969 0)"/>
     <use xlink:href="#DejaVuSans-61" transform="translate(291.894531 0)"/>
     <use xlink:href="#DejaVuSans-72" transform="translate(353.173828 0)"/>
     <use xlink:href="#DejaVuSans-65" transform="translate(392.037109 0)"/>
     <use xlink:href="#DejaVuSans-20" transform="translate(453.560547 0)"/>
     <use xlink:href="#DejaVuSans-2d" transform="translate(485.347656 0)"/>
     <use xlink:href="#DejaVuSans-20" transform="translate(521.431641 0)"/>
     <use xlink:href="#DejaVuSans-45" transform="translate(553.21875 0)"/>
     <use xlink:href="#DejaVuSans-70" transform="translate(616.402344 0)"/>
     <use xlink:href="#DejaVuSans-6f" transform="translate(679.878906 0)"/>
     <use xlink:href="#DejaVuSans-63" transform="translate(741.060547 0)"/>
     <use xlink:href="#DejaVuSans-68" transform="translate(796.041016 0)"/>
     <use xlink:href="#DejaVuSans-20" transform="translate(859.419922 0)"/>
     <use xlink:href="#DejaVuSans-33" transform="translate(891.207031 0)"/>
     <use xlink:href="#DejaVuSans-30" transform="translate(954.830078 0)"/>
     <use xlink:href="#DejaVuSans-30" transform="translate(1018.453125 0)"/>
    </g>
   </g>
   <g id="legend_1">
    <g id="patch_7">
     <path d="M 64.6 78.82825 
L 181.128125 78.82825 
Q 183.128125 78.82825 183.128125 76.82825 
L 183.128125 48.472 
Q 183.128125 46.472 181.128125 46.472 
L 64.6 46.472 
Q 62.6 46.472 62.6 48.472 
L 62.6 76.82825 
Q 62.6 78.82825 64.6 78.82825 
z
" style="fill: #ffffff; opacity: 0.8; stroke: #cccccc; stroke-linejoin: miter"/>
    </g>
    <g id="line2d_39">
     <path d="M 66.6 54.570437 
L 76.6 54.570437 
L 86.6 54.570437 
" style="fill: none; stroke: #1f77b4; stroke-width: 1.5; stroke-linecap: square"/>
    </g>
    <g id="text_22">
     <!-- Pred: Sample 1 -->
     <g transform="translate(94.6 58.070437) scale(0.1 -0.1)">
      <defs>
       <path id="DejaVuSans-50" d="M 1259 4147 
L 1259 2394 
L 2053 2394 
Q 2494 2394 2734 2622 
Q 2975 2850 2975 3272 
Q 2975 3691 2734 3919 
Q 2494 4147 2053 4147 
L 1259 4147 
z
M 628 4666 
L 2053 4666 
Q 2838 4666 3239 4311 
Q 3641 3956 3641 3272 
Q 3641 2581 3239 2228 
Q 2838 1875 2053 1875 
L 1259 1875 
L 1259 0 
L 628 0 
L 628 4666 
z
" transform="scale(0.015625)"/>
       <path id="DejaVuSans-3a" d="M 750 794 
L 1409 794 
L 1409 0 
L 750 0 
L 750 794 
z
M 750 3309 
L 1409 3309 
L 1409 2516 
L 750 2516 
L 750 3309 
z
" transform="scale(0.015625)"/>
       <path id="DejaVuSans-53" d="M 3425 4513 
L 3425 3897 
Q 3066 4069 2747 4153 
Q 2428 4238 2131 4238 
Q 1616 4238 1336 4038 
Q 1056 3838 1056 3469 
Q 1056 3159 1242 3001 
Q 1428 2844 1947 2747 
L 2328 2669 
Q 3034 2534 3370 2195 
Q 3706 1856 3706 1288 
Q 3706 609 3251 259 
Q 2797 -91 1919 -91 
Q 1588 -91 1214 -16 
Q 841 59 441 206 
L 441 856 
Q 825 641 1194 531 
Q 1563 422 1919 422 
Q 2459 422 2753 634 
Q 3047 847 3047 1241 
Q 3047 1584 2836 1778 
Q 2625 1972 2144 2069 
L 1759 2144 
Q 1053 2284 737 2584 
Q 422 2884 422 3419 
Q 422 4038 858 4394 
Q 1294 4750 2059 4750 
Q 2388 4750 2728 4690 
Q 3069 4631 3425 4513 
z
" transform="scale(0.015625)"/>
      </defs>
      <use xlink:href="#DejaVuSans-50"/>
      <use xlink:href="#DejaVuSans-72" transform="translate(58.552734 0)"/>
      <use xlink:href="#DejaVuSans-65" transform="translate(97.416016 0)"/>
      <use xlink:href="#DejaVuSans-64" transform="translate(158.939453 0)"/>
      <use xlink:href="#DejaVuSans-3a" transform="translate(222.416016 0)"/>
      <use xlink:href="#DejaVuSans-20" transform="translate(256.107422 0)"/>
      <use xlink:href="#DejaVuSans-53" transform="translate(287.894531 0)"/>
      <use xlink:href="#DejaVuSans-61" transform="translate(351.371094 0)"/>
      <use xlink:href="#DejaVuSans-6d" transform="translate(412.650391 0)"/>
      <use xlink:href="#DejaVuSans-70" transform="translate(510.0625 0)"/>
      <use xlink:href="#DejaVuSans-6c" transform="translate(573.539062 0)"/>
      <use xlink:href="#DejaVuSans-65" transform="translate(601.322266 0)"/>
      <use xlink:href="#DejaVuSans-20" transform="translate(662.845703 0)"/>
      <use xlink:href="#DejaVuSans-31" transform="translate(694.632812 0)"/>
     </g>
    </g>
    <g id="line2d_40">
     <path d="M 66.6 69.248562 
L 76.6 69.248562 
L 86.6 69.248562 
" style="fill: none; stroke: #ff7f0e; stroke-opacity: 0.5; stroke-width: 1.5; stroke-linecap: square"/>
    </g>
    <g id="text_23">
     <!-- Target: Sample 1 -->
     <g transform="translate(94.6 72.748562) scale(0.1 -0.1)">
      <defs>
       <path id="DejaVuSans-54" d="M -19 4666 
L 3928 4666 
L 3928 4134 
L 2272 4134 
L 2272 0 
L 1638 0 
L 1638 4134 
L -19 4134 
L -19 4666 
z
" transform="scale(0.015625)"/>
       <path id="DejaVuSans-67" d="M 2906 1791 
Q 2906 2416 2648 2759 
Q 2391 3103 1925 3103 
Q 1463 3103 1205 2759 
Q 947 2416 947 1791 
Q 947 1169 1205 825 
Q 1463 481 1925 481 
Q 2391 481 2648 825 
Q 2906 1169 2906 1791 
z
M 3481 434 
Q 3481 -459 3084 -895 
Q 2688 -1331 1869 -1331 
Q 1566 -1331 1297 -1286 
Q 1028 -1241 775 -1147 
L 775 -588 
Q 1028 -725 1275 -790 
Q 1522 -856 1778 -856 
Q 2344 -856 2625 -561 
Q 2906 -266 2906 331 
L 2906 616 
Q 2728 306 2450 153 
Q 2172 0 1784 0 
Q 1141 0 747 490 
Q 353 981 353 1791 
Q 353 2603 747 3093 
Q 1141 3584 1784 3584 
Q 2172 3584 2450 3431 
Q 2728 3278 2906 2969 
L 2906 3500 
L 3481 3500 
L 3481 434 
z
" transform="scale(0.015625)"/>
       <path id="DejaVuSans-74" d="M 1172 4494 
L 1172 3500 
L 2356 3500 
L 2356 3053 
L 1172 3053 
L 1172 1153 
Q 1172 725 1289 603 
Q 1406 481 1766 481 
L 2356 481 
L 2356 0 
L 1766 0 
Q 1100 0 847 248 
Q 594 497 594 1153 
L 594 3053 
L 172 3053 
L 172 3500 
L 594 3500 
L 594 4494 
L 1172 4494 
z
" transform="scale(0.015625)"/>
      </defs>
      <use xlink:href="#DejaVuSans-54"/>
      <use xlink:href="#DejaVuSans-61" transform="translate(44.583984 0)"/>
      <use xlink:href="#DejaVuSans-72" transform="translate(105.863281 0)"/>
      <use xlink:href="#DejaVuSans-67" transform="translate(145.226562 0)"/>
      <use xlink:href="#DejaVuSans-65" transform="translate(208.703125 0)"/>
      <use xlink:href="#DejaVuSans-74" transform="translate(270.226562 0)"/>
      <use xlink:href="#DejaVuSans-3a" transform="translate(309.435547 0)"/>
      <use xlink:href="#DejaVuSans-20" transform="translate(343.126953 0)"/>
      <use xlink:href="#DejaVuSans-53" transform="translate(374.914062 0)"/>
      <use xlink:href="#DejaVuSans-61" transform="translate(438.390625 0)"/>
      <use xlink:href="#DejaVuSans-6d" transform="translate(499.669922 0)"/>
      <use xlink:href="#DejaVuSans-70" transform="translate(597.082031 0)"/>
      <use xlink:href="#DejaVuSans-6c" transform="translate(660.558594 0)"/>
      <use xlink:href="#DejaVuSans-65" transform="translate(688.341797 0)"/>
      <use xlink:href="#DejaVuSans-20" transform="translate(749.865234 0)"/>
      <use xlink:href="#DejaVuSans-31" transform="translate(781.652344 0)"/>
     </g>
    </g>
   </g>
  </g>
 </g>
 <defs>
  <clipPath id="pc7e064f3b4">
   <rect x="57.6" y="41.472" width="357.12" height="266.112"/>
  </clipPath>
 </defs>
</svg>
