<?xml version="1.0" encoding="utf-8" standalone="no"?>
<!DOCTYPE svg PUBLIC "-//W3C//DTD SVG 1.1//EN"
  "http://www.w3.org/Graphics/SVG/1.1/DTD/svg11.dtd">
<svg xmlns:xlink="http://www.w3.org/1999/xlink" width="460.8pt" height="345.6pt" viewBox="0 0 460.8 345.6" xmlns="http://www.w3.org/2000/svg" version="1.1">
 <metadata>
  <rdf:RDF xmlns:dc="http://purl.org/dc/elements/1.1/" xmlns:cc="http://creativecommons.org/ns#" xmlns:rdf="http://www.w3.org/1999/02/22-rdf-syntax-ns#">
   <cc:Work>
    <dc:type rdf:resource="http://purl.org/dc/dcmitype/StillImage"/>
    <dc:date>2025-04-16T01:35:32.603412</dc:date>
    <dc:format>image/svg+xml</dc:format>
    <dc:creator>
     <cc:Agent>
      <dc:title>Matplotlib v3.10.0, https://matplotlib.org/</dc:title>
     </cc:Agent>
    </dc:creator>
   </cc:Work>
  </rdf:RDF>
 </metadata>
 <defs>
  <style type="text/css">*{stroke-linejoin: round; stroke-linecap: butt}</style>
 </defs>
 <g id="figure_1">
  <g id="patch_1">
   <path d="M 0 345.6 
L 460.8 345.6 
L 460.8 0 
L 0 0 
z
" style="fill: #ffffff"/>
  </g>
  <g id="axes_1">
   <g id="patch_2">
    <path d="M 57.6 307.584 
L 414.72 307.584 
L 414.72 41.472 
L 57.6 41.472 
z
" style="fill: #ffffff"/>
   </g>
   <g id="matplotlib.axis_1">
    <g id="xtick_1">
     <g id="line2d_1">
      <path d="M 97.056468 307.584 
L 97.056468 41.472 
" clip-path="url(#pbd7ec7d156)" style="fill: none; stroke: #b0b0b0; stroke-opacity: 0.5; stroke-width: 0.8; stroke-linecap: square"/>
     </g>
     <g id="line2d_2">
      <defs>
       <path id="ma5e4cf5463" d="M 0 0 
L 0 3.5 
" style="stroke: #000000; stroke-width: 0.8"/>
      </defs>
      <g>
       <use xlink:href="#ma5e4cf5463" x="97.056468" y="307.584" style="stroke: #000000; stroke-width: 0.8"/>
      </g>
     </g>
     <g id="text_1">
      <!-- −1.0 -->
      <g transform="translate(84.915061 322.182437) scale(0.1 -0.1)">
       <defs>
        <path id="DejaVuSans-2212" d="M 678 2272 
L 4684 2272 
L 4684 1741 
L 678 1741 
L 678 2272 
z
" transform="scale(0.015625)"/>
        <path id="DejaVuSans-31" d="M 794 531 
L 1825 531 
L 1825 4091 
L 703 3866 
L 703 4441 
L 1819 4666 
L 2450 4666 
L 2450 531 
L 3481 531 
L 3481 0 
L 794 0 
L 794 531 
z
" transform="scale(0.015625)"/>
        <path id="DejaVuSans-2e" d="M 684 794 
L 1344 794 
L 1344 0 
L 684 0 
L 684 794 
z
" transform="scale(0.015625)"/>
        <path id="DejaVuSans-30" d="M 2034 4250 
Q 1547 4250 1301 3770 
Q 1056 3291 1056 2328 
Q 1056 1369 1301 889 
Q 1547 409 2034 409 
Q 2525 409 2770 889 
Q 3016 1369 3016 2328 
Q 3016 3291 2770 3770 
Q 2525 4250 2034 4250 
z
M 2034 4750 
Q 2819 4750 3233 4129 
Q 3647 3509 3647 2328 
Q 3647 1150 3233 529 
Q 2819 -91 2034 -91 
Q 1250 -91 836 529 
Q 422 1150 422 2328 
Q 422 3509 836 4129 
Q 1250 4750 2034 4750 
z
" transform="scale(0.015625)"/>
       </defs>
       <use xlink:href="#DejaVuSans-2212"/>
       <use xlink:href="#DejaVuSans-31" transform="translate(83.789062 0)"/>
       <use xlink:href="#DejaVuSans-2e" transform="translate(147.412109 0)"/>
       <use xlink:href="#DejaVuSans-30" transform="translate(179.199219 0)"/>
      </g>
     </g>
    </g>
    <g id="xtick_2">
     <g id="line2d_3">
      <path d="M 166.132988 307.584 
L 166.132988 41.472 
" clip-path="url(#pbd7ec7d156)" style="fill: none; stroke: #b0b0b0; stroke-opacity: 0.5; stroke-width: 0.8; stroke-linecap: square"/>
     </g>
     <g id="line2d_4">
      <g>
       <use xlink:href="#ma5e4cf5463" x="166.132988" y="307.584" style="stroke: #000000; stroke-width: 0.8"/>
      </g>
     </g>
     <g id="text_2">
      <!-- −0.5 -->
      <g transform="translate(153.991582 322.182437) scale(0.1 -0.1)">
       <defs>
        <path id="DejaVuSans-35" d="M 691 4666 
L 3169 4666 
L 3169 4134 
L 1269 4134 
L 1269 2991 
Q 1406 3038 1543 3061 
Q 1681 3084 1819 3084 
Q 2600 3084 3056 2656 
Q 3513 2228 3513 1497 
Q 3513 744 3044 326 
Q 2575 -91 1722 -91 
Q 1428 -91 1123 -41 
Q 819 9 494 109 
L 494 744 
Q 775 591 1075 516 
Q 1375 441 1709 441 
Q 2250 441 2565 725 
Q 2881 1009 2881 1497 
Q 2881 1984 2565 2268 
Q 2250 2553 1709 2553 
Q 1456 2553 1204 2497 
Q 953 2441 691 2322 
L 691 4666 
z
" transform="scale(0.015625)"/>
       </defs>
       <use xlink:href="#DejaVuSans-2212"/>
       <use xlink:href="#DejaVuSans-30" transform="translate(83.789062 0)"/>
       <use xlink:href="#DejaVuSans-2e" transform="translate(147.412109 0)"/>
       <use xlink:href="#DejaVuSans-35" transform="translate(179.199219 0)"/>
      </g>
     </g>
    </g>
    <g id="xtick_3">
     <g id="line2d_5">
      <path d="M 235.209509 307.584 
L 235.209509 41.472 
" clip-path="url(#pbd7ec7d156)" style="fill: none; stroke: #b0b0b0; stroke-opacity: 0.5; stroke-width: 0.8; stroke-linecap: square"/>
     </g>
     <g id="line2d_6">
      <g>
       <use xlink:href="#ma5e4cf5463" x="235.209509" y="307.584" style="stroke: #000000; stroke-width: 0.8"/>
      </g>
     </g>
     <g id="text_3">
      <!-- 0.0 -->
      <g transform="translate(227.257947 322.182437) scale(0.1 -0.1)">
       <use xlink:href="#DejaVuSans-30"/>
       <use xlink:href="#DejaVuSans-2e" transform="translate(63.623047 0)"/>
       <use xlink:href="#DejaVuSans-30" transform="translate(95.410156 0)"/>
      </g>
     </g>
    </g>
    <g id="xtick_4">
     <g id="line2d_7">
      <path d="M 304.28603 307.584 
L 304.28603 41.472 
" clip-path="url(#pbd7ec7d156)" style="fill: none; stroke: #b0b0b0; stroke-opacity: 0.5; stroke-width: 0.8; stroke-linecap: square"/>
     </g>
     <g id="line2d_8">
      <g>
       <use xlink:href="#ma5e4cf5463" x="304.28603" y="307.584" style="stroke: #000000; stroke-width: 0.8"/>
      </g>
     </g>
     <g id="text_4">
      <!-- 0.5 -->
      <g transform="translate(296.334467 322.182437) scale(0.1 -0.1)">
       <use xlink:href="#DejaVuSans-30"/>
       <use xlink:href="#DejaVuSans-2e" transform="translate(63.623047 0)"/>
       <use xlink:href="#DejaVuSans-35" transform="translate(95.410156 0)"/>
      </g>
     </g>
    </g>
    <g id="xtick_5">
     <g id="line2d_9">
      <path d="M 373.362551 307.584 
L 373.362551 41.472 
" clip-path="url(#pbd7ec7d156)" style="fill: none; stroke: #b0b0b0; stroke-opacity: 0.5; stroke-width: 0.8; stroke-linecap: square"/>
     </g>
     <g id="line2d_10">
      <g>
       <use xlink:href="#ma5e4cf5463" x="373.362551" y="307.584" style="stroke: #000000; stroke-width: 0.8"/>
      </g>
     </g>
     <g id="text_5">
      <!-- 1.0 -->
      <g transform="translate(365.410988 322.182437) scale(0.1 -0.1)">
       <use xlink:href="#DejaVuSans-31"/>
       <use xlink:href="#DejaVuSans-2e" transform="translate(63.623047 0)"/>
       <use xlink:href="#DejaVuSans-30" transform="translate(95.410156 0)"/>
      </g>
     </g>
    </g>
    <g id="text_6">
     <!-- Index -->
     <g transform="translate(222.393594 335.860562) scale(0.1 -0.1)">
      <defs>
       <path id="DejaVuSans-49" d="M 628 4666 
L 1259 4666 
L 1259 0 
L 628 0 
L 628 4666 
z
" transform="scale(0.015625)"/>
       <path id="DejaVuSans-6e" d="M 3513 2113 
L 3513 0 
L 2938 0 
L 2938 2094 
Q 2938 2591 2744 2837 
Q 2550 3084 2163 3084 
Q 1697 3084 1428 2787 
Q 1159 2491 1159 1978 
L 1159 0 
L 581 0 
L 581 3500 
L 1159 3500 
L 1159 2956 
Q 1366 3272 1645 3428 
Q 1925 3584 2291 3584 
Q 2894 3584 3203 3211 
Q 3513 2838 3513 2113 
z
" transform="scale(0.015625)"/>
       <path id="DejaVuSans-64" d="M 2906 2969 
L 2906 4863 
L 3481 4863 
L 3481 0 
L 2906 0 
L 2906 525 
Q 2725 213 2448 61 
Q 2172 -91 1784 -91 
Q 1150 -91 751 415 
Q 353 922 353 1747 
Q 353 2572 751 3078 
Q 1150 3584 1784 3584 
Q 2172 3584 2448 3432 
Q 2725 3281 2906 2969 
z
M 947 1747 
Q 947 1113 1208 752 
Q 1469 391 1925 391 
Q 2381 391 2643 752 
Q 2906 1113 2906 1747 
Q 2906 2381 2643 2742 
Q 2381 3103 1925 3103 
Q 1469 3103 1208 2742 
Q 947 2381 947 1747 
z
" transform="scale(0.015625)"/>
       <path id="DejaVuSans-65" d="M 3597 1894 
L 3597 1613 
L 953 1613 
Q 991 1019 1311 708 
Q 1631 397 2203 397 
Q 2534 397 2845 478 
Q 3156 559 3463 722 
L 3463 178 
Q 3153 47 2828 -22 
Q 2503 -91 2169 -91 
Q 1331 -91 842 396 
Q 353 884 353 1716 
Q 353 2575 817 3079 
Q 1281 3584 2069 3584 
Q 2775 3584 3186 3129 
Q 3597 2675 3597 1894 
z
M 3022 2063 
Q 3016 2534 2758 2815 
Q 2500 3097 2075 3097 
Q 1594 3097 1305 2825 
Q 1016 2553 972 2059 
L 3022 2063 
z
" transform="scale(0.015625)"/>
       <path id="DejaVuSans-78" d="M 3513 3500 
L 2247 1797 
L 3578 0 
L 2900 0 
L 1881 1375 
L 863 0 
L 184 0 
L 1544 1831 
L 300 3500 
L 978 3500 
L 1906 2253 
L 2834 3500 
L 3513 3500 
z
" transform="scale(0.015625)"/>
      </defs>
      <use xlink:href="#DejaVuSans-49"/>
      <use xlink:href="#DejaVuSans-6e" transform="translate(29.492188 0)"/>
      <use xlink:href="#DejaVuSans-64" transform="translate(92.871094 0)"/>
      <use xlink:href="#DejaVuSans-65" transform="translate(156.347656 0)"/>
      <use xlink:href="#DejaVuSans-78" transform="translate(216.121094 0)"/>
     </g>
    </g>
   </g>
   <g id="matplotlib.axis_2">
    <g id="ytick_1">
     <g id="line2d_11">
      <path d="M 57.6 275.686072 
L 414.72 275.686072 
" clip-path="url(#pbd7ec7d156)" style="fill: none; stroke: #b0b0b0; stroke-opacity: 0.5; stroke-width: 0.8; stroke-linecap: square"/>
     </g>
     <g id="line2d_12">
      <defs>
       <path id="m3f7c9cd8ff" d="M 0 0 
L -3.5 0 
" style="stroke: #000000; stroke-width: 0.8"/>
      </defs>
      <g>
       <use xlink:href="#m3f7c9cd8ff" x="57.6" y="275.686072" style="stroke: #000000; stroke-width: 0.8"/>
      </g>
     </g>
     <g id="text_7">
      <!-- −1.0 -->
      <g transform="translate(26.317187 279.485291) scale(0.1 -0.1)">
       <use xlink:href="#DejaVuSans-2212"/>
       <use xlink:href="#DejaVuSans-31" transform="translate(83.789062 0)"/>
       <use xlink:href="#DejaVuSans-2e" transform="translate(147.412109 0)"/>
       <use xlink:href="#DejaVuSans-30" transform="translate(179.199219 0)"/>
      </g>
     </g>
    </g>
    <g id="ytick_2">
     <g id="line2d_13">
      <path d="M 57.6 225.196158 
L 414.72 225.196158 
" clip-path="url(#pbd7ec7d156)" style="fill: none; stroke: #b0b0b0; stroke-opacity: 0.5; stroke-width: 0.8; stroke-linecap: square"/>
     </g>
     <g id="line2d_14">
      <g>
       <use xlink:href="#m3f7c9cd8ff" x="57.6" y="225.196158" style="stroke: #000000; stroke-width: 0.8"/>
      </g>
     </g>
     <g id="text_8">
      <!-- −0.5 -->
      <g transform="translate(26.317187 228.995376) scale(0.1 -0.1)">
       <use xlink:href="#DejaVuSans-2212"/>
       <use xlink:href="#DejaVuSans-30" transform="translate(83.789062 0)"/>
       <use xlink:href="#DejaVuSans-2e" transform="translate(147.412109 0)"/>
       <use xlink:href="#DejaVuSans-35" transform="translate(179.199219 0)"/>
      </g>
     </g>
    </g>
    <g id="ytick_3">
     <g id="line2d_15">
      <path d="M 57.6 174.706243 
L 414.72 174.706243 
" clip-path="url(#pbd7ec7d156)" style="fill: none; stroke: #b0b0b0; stroke-opacity: 0.5; stroke-width: 0.8; stroke-linecap: square"/>
     </g>
     <g id="line2d_16">
      <g>
       <use xlink:href="#m3f7c9cd8ff" x="57.6" y="174.706243" style="stroke: #000000; stroke-width: 0.8"/>
      </g>
     </g>
     <g id="text_9">
      <!-- 0.0 -->
      <g transform="translate(34.696875 178.505461) scale(0.1 -0.1)">
       <use xlink:href="#DejaVuSans-30"/>
       <use xlink:href="#DejaVuSans-2e" transform="translate(63.623047 0)"/>
       <use xlink:href="#DejaVuSans-30" transform="translate(95.410156 0)"/>
      </g>
     </g>
    </g>
    <g id="ytick_4">
     <g id="line2d_17">
      <path d="M 57.6 124.216328 
L 414.72 124.216328 
" clip-path="url(#pbd7ec7d156)" style="fill: none; stroke: #b0b0b0; stroke-opacity: 0.5; stroke-width: 0.8; stroke-linecap: square"/>
     </g>
     <g id="line2d_18">
      <g>
       <use xlink:href="#m3f7c9cd8ff" x="57.6" y="124.216328" style="stroke: #000000; stroke-width: 0.8"/>
      </g>
     </g>
     <g id="text_10">
      <!-- 0.5 -->
      <g transform="translate(34.696875 128.015547) scale(0.1 -0.1)">
       <use xlink:href="#DejaVuSans-30"/>
       <use xlink:href="#DejaVuSans-2e" transform="translate(63.623047 0)"/>
       <use xlink:href="#DejaVuSans-35" transform="translate(95.410156 0)"/>
      </g>
     </g>
    </g>
    <g id="ytick_5">
     <g id="line2d_19">
      <path d="M 57.6 73.726413 
L 414.72 73.726413 
" clip-path="url(#pbd7ec7d156)" style="fill: none; stroke: #b0b0b0; stroke-opacity: 0.5; stroke-width: 0.8; stroke-linecap: square"/>
     </g>
     <g id="line2d_20">
      <g>
       <use xlink:href="#m3f7c9cd8ff" x="57.6" y="73.726413" style="stroke: #000000; stroke-width: 0.8"/>
      </g>
     </g>
     <g id="text_11">
      <!-- 1.0 -->
      <g transform="translate(34.696875 77.525632) scale(0.1 -0.1)">
       <use xlink:href="#DejaVuSans-31"/>
       <use xlink:href="#DejaVuSans-2e" transform="translate(63.623047 0)"/>
       <use xlink:href="#DejaVuSans-30" transform="translate(95.410156 0)"/>
      </g>
     </g>
    </g>
    <g id="text_12">
     <!-- Value -->
     <g transform="translate(20.2375 188.25925) rotate(-90) scale(0.1 -0.1)">
      <defs>
       <path id="DejaVuSans-56" d="M 1831 0 
L 50 4666 
L 709 4666 
L 2188 738 
L 3669 4666 
L 4325 4666 
L 2547 0 
L 1831 0 
z
" transform="scale(0.015625)"/>
       <path id="DejaVuSans-61" d="M 2194 1759 
Q 1497 1759 1228 1600 
Q 959 1441 959 1056 
Q 959 750 1161 570 
Q 1363 391 1709 391 
Q 2188 391 2477 730 
Q 2766 1069 2766 1631 
L 2766 1759 
L 2194 1759 
z
M 3341 1997 
L 3341 0 
L 2766 0 
L 2766 531 
Q 2569 213 2275 61 
Q 1981 -91 1556 -91 
Q 1019 -91 701 211 
Q 384 513 384 1019 
Q 384 1609 779 1909 
Q 1175 2209 1959 2209 
L 2766 2209 
L 2766 2266 
Q 2766 2663 2505 2880 
Q 2244 3097 1772 3097 
Q 1472 3097 1187 3025 
Q 903 2953 641 2809 
L 641 3341 
Q 956 3463 1253 3523 
Q 1550 3584 1831 3584 
Q 2591 3584 2966 3190 
Q 3341 2797 3341 1997 
z
" transform="scale(0.015625)"/>
       <path id="DejaVuSans-6c" d="M 603 4863 
L 1178 4863 
L 1178 0 
L 603 0 
L 603 4863 
z
" transform="scale(0.015625)"/>
       <path id="DejaVuSans-75" d="M 544 1381 
L 544 3500 
L 1119 3500 
L 1119 1403 
Q 1119 906 1312 657 
Q 1506 409 1894 409 
Q 2359 409 2629 706 
Q 2900 1003 2900 1516 
L 2900 3500 
L 3475 3500 
L 3475 0 
L 2900 0 
L 2900 538 
Q 2691 219 2414 64 
Q 2138 -91 1772 -91 
Q 1169 -91 856 284 
Q 544 659 544 1381 
z
M 1991 3584 
L 1991 3584 
z
" transform="scale(0.015625)"/>
      </defs>
      <use xlink:href="#DejaVuSans-56"/>
      <use xlink:href="#DejaVuSans-61" transform="translate(60.658203 0)"/>
      <use xlink:href="#DejaVuSans-6c" transform="translate(121.9375 0)"/>
      <use xlink:href="#DejaVuSans-75" transform="translate(149.720703 0)"/>
      <use xlink:href="#DejaVuSans-65" transform="translate(213.099609 0)"/>
     </g>
    </g>
   </g>
   <g id="line2d_21">
    <path d="M 231.931375 177.476813 
L 237.260327 176.999578 
L 238.607868 176.522282 
L 237.994372 176.045235 
L 237.69862 175.568762 
L 238.403811 175.093137 
L 242.7744 173.67209 
L 243.214118 173.19971 
L 243.09673 172.254426 
L 243.453867 171.780772 
L 244.321551 171.306266 
L 246.531897 170.355736 
L 247.251841 169.880725 
L 247.618613 169.406618 
L 248.170044 168.462377 
L 248.776614 167.992118 
L 251.997518 166.11223 
L 253.352635 164.695495 
L 254.714265 163.752062 
L 256.732932 162.345227 
L 258.441842 160.942746 
L 261.618564 158.598232 
L 263.407263 157.194049 
L 267.140909 154.393682 
L 306.954045 124.247572 
L 311.112417 121.042501 
L 326.139605 109.675979 
L 328.625381 109.166867 
L 327.492181 108.714128 
L 327.002258 108.261449 
L 327.447072 107.809162 
L 331.045584 106.456776 
L 331.6133 106.007113 
L 332.208288 104.656937 
L 332.89356 104.206063 
L 335.386146 102.854785 
L 336.20705 101.957734 
L 336.616966 101.510141 
L 337.911061 100.614635 
L 339.380601 99.716927 
L 340.417728 98.818184 
L 341.372031 97.921746 
L 343.35386 96.582934 
L 345.118263 95.242502 
L 346.750938 93.898892 
L 352.660143 89.438045 
L 355.628785 87.214236 
L 357.944221 85.429696 
L 360.21785 83.650682 
L 363.245583 81.429876 
L 366.019 79.206272 
L 369.608512 76.549484 
L 371.790391 74.777476 
L 375.394478 72.132605 
L 377.518782 70.36927 
L 381.165095 67.737303 
L 383.18477 65.980818 
L 386.948295 63.36444 
L 388.773601 61.611084 
L 390.1549 60.75472 
L 392.303034 59.451069 
L 393.1076 58.561059 
L 393.678321 57.684387 
L 394.152072 57.25842 
L 394.869055 56.838724 
L 397.885606 55.554046 
L 398.487273 55.104063 
L 398.426815 54.655429 
L 397.500986 54.234156 
L 395.633091 53.879717 
L 392.922372 53.64078 
L 389.646531 53.568 
L 386.261335 53.704183 
L 383.357103 54.074211 
L 381.555348 54.676615 
L 381.285682 55.479676 
L 382.565943 56.422917 
L 384.940972 57.424553 
L 389.791574 59.247222 
L 390.745235 59.921877 
L 390.202792 60.388809 
L 388.35988 60.657972 
L 383.046891 60.81982 
L 377.82351 61.031479 
L 375.310091 61.348529 
L 373.229842 61.858423 
L 372.239397 62.553217 
L 368.776064 63.499383 
L 380.49029 65.290104 
L 383.630787 66.073628 
L 383.329517 66.704165 
L 380.243961 67.161539 
L 369.942951 67.986063 
L 365.479192 69.282106 
L 364.196165 70.001734 
L 364.434209 70.809815 
L 366.306741 71.64238 
L 371.169662 73.123912 
L 371.670051 73.683101 
L 370.155649 74.104584 
L 363.928772 74.650478 
L 361.223133 74.879574 
L 359.422308 75.157375 
L 358.324723 75.530123 
L 357.598204 76.022514 
L 357.121769 76.633375 
L 357.033215 77.337011 
L 357.528268 78.089171 
L 358.559376 78.837358 
L 359.738861 79.531845 
L 360.45456 80.136205 
L 360.187538 80.63423 
L 358.789309 81.032673 
L 350.267986 82.328 
L 349.249741 82.775075 
L 348.756902 83.312993 
L 348.698536 83.930692 
L 348.989348 84.600959 
L 350.352324 86.55768 
L 350.123099 87.092378 
L 349.245163 87.551269 
L 347.790552 87.948057 
L 342.669279 89.048203 
L 341.4969 89.48229 
L 340.741264 89.978931 
L 340.380096 90.536013 
L 340.344769 91.138826 
L 340.819937 92.975038 
L 340.570816 93.519824 
L 339.898967 94.012113 
L 338.824751 94.457016 
L 333.583353 96.12039 
L 332.748863 96.600069 
L 332.205489 97.121821 
L 331.916801 97.678524 
L 331.639848 99.402375 
L 331.320314 99.940841 
L 330.721612 100.445325 
L 329.840151 100.917096 
L 325.430057 102.693691 
L 324.635084 103.172546 
L 324.047071 103.67813 
L 323.323483 104.750747 
L 322.715566 105.83918 
L 322.26185 106.364212 
L 321.64397 106.869003 
L 319.96029 107.822704 
L 317.219317 109.213219 
L 315.866345 110.191646 
L 314.424037 111.74263 
L 313.392485 112.773174 
L 312.062306 113.763633 
L 307.612332 116.642132 
L 302.774078 120.615011 
L 299.307635 123.026265 
L 294.267226 126.944605 
L 291.001181 129.372161 
L 287.798368 131.808247 
L 283.879045 134.737313 
L 282.011212 136.203299 
L 279.119991 136.750299 
L 280.520299 137.23554 
L 281.140102 137.720468 
L 280.560805 138.205815 
L 276.278741 139.66907 
L 275.772081 140.159181 
L 275.844323 141.13963 
L 275.530784 141.628537 
L 274.710979 142.115884 
L 272.469605 143.085734 
L 271.661284 143.568917 
L 271.192524 144.051723 
L 270.521777 145.018579 
L 269.920971 145.503378 
L 266.80575 147.448853 
L 265.361317 148.90126 
L 263.91604 149.86228 
L 262.425485 150.820416 
L 253.590725 157.542716 
L 251.706138 158.981997 
L 248.622525 161.383467 
L 242.280211 166.15347 
L 237.21409 169.954055 
L 190.190153 205.536715 
L 187.45853 206.058418 
L 188.771119 206.522397 
L 189.381679 206.986681 
L 188.924192 207.451193 
L 184.941068 208.844181 
L 184.376984 209.307667 
L 184.359214 210.233008 
L 184.094761 210.695073 
L 183.361242 211.157036 
L 180.445519 212.542853 
L 179.986619 213.00475 
L 179.44038 213.927707 
L 178.933172 214.388596 
L 175.369887 216.688531 
L 174.499518 217.607242 
L 173.198585 218.524915 
L 171.168621 219.899302 
L 168.980146 221.730055 
L 166.451444 223.557079 
L 164.113725 225.380822 
L 161.699928 227.204942 
L 159.32592 229.023639 
L 156.341237 231.296014 
L 152.158144 234.4683 
L 103.768625 271.493619 
L 101.271633 271.991259 
L 102.487648 272.434157 
L 103.075192 272.876953 
L 102.738728 273.319021 
L 101.639537 273.759812 
L 98.982837 274.637556 
L 98.306853 275.07538 
L 98.151006 275.513469 
L 98.196411 275.952395 
L 98.05434 276.392459 
L 97.51342 276.833317 
L 94.811973 278.154 
L 94.289523 278.591512 
L 93.272274 279.898605 
L 91.780583 280.773279 
L 90.380164 281.652058 
L 89.660035 282.527947 
L 89.300464 282.962798 
L 88.768331 283.395711 
L 85.794715 285.131625 
L 85.025557 286.010476 
L 84.296699 286.885209 
L 83.00356 287.746245 
L 80.732336 289.033704 
L 79.748322 289.911749 
L 78.798251 291.230867 
L 78.325093 291.65799 
L 77.639895 292.078396 
L 73.935692 293.799732 
L 73.832727 294.24957 
L 74.583719 294.682591 
L 76.302042 295.064428 
L 78.898976 295.349747 
L 82.082524 295.488 
L 85.375015 295.432578 
L 88.211131 295.150594 
L 90.052939 294.632575 
L 90.582289 293.898273 
L 89.845642 292.997766 
L 88.233726 292.006278 
L 83.049575 289.366102 
L 82.46609 288.828052 
L 82.973553 288.49965 
L 84.719824 288.345639 
L 94.905995 288.158501 
L 98.103739 287.901158 
L 100.102515 287.448587 
L 100.458956 286.795974 
L 99.191344 285.978973 
L 92.379549 283.296556 
L 91.515792 282.594949 
L 91.900742 282.074751 
L 93.455526 281.733613 
L 95.910167 281.531861 
L 104.873901 281.034052 
L 107.077527 280.662484 
L 108.232943 280.121183 
L 108.12013 279.4209 
L 106.866088 278.605295 
L 103.062412 276.90281 
L 101.779088 276.158108 
L 101.499154 275.552634 
L 102.3534 275.101695 
L 104.2181 274.787835 
L 114.402196 273.808752 
L 115.768186 273.34876 
L 116.184682 272.751646 
L 115.687265 272.040168 
L 114.546432 271.260345 
L 112.080889 269.731258 
L 111.574414 269.087474 
L 111.887525 268.564519 
L 113.063939 268.160894 
L 114.968462 267.850043 
L 121.87507 266.992704 
L 123.407267 266.575193 
L 124.158654 266.049788 
L 124.120882 265.424591 
L 123.483733 264.728521 
L 121.766958 263.299317 
L 121.357058 262.654407 
L 121.535929 262.096356 
L 122.36739 261.632247 
L 123.78436 261.249032 
L 130.969791 259.841219 
L 131.908284 259.35549 
L 132.238506 258.791637 
L 132.05672 258.16606 
L 131.104846 256.850534 
L 130.861177 256.227551 
L 131.028058 255.662241 
L 131.677321 255.16477 
L 132.781773 254.730268 
L 138.73192 253.169028 
L 139.692276 252.698503 
L 140.222738 252.17181 
L 140.367082 251.597424 
L 140.069164 249.792329 
L 140.306014 249.236872 
L 143.047786 248.666729 
L 141.801172 248.206809 
L 141.8322 247.779139 
L 143.160715 247.365775 
L 147.395487 246.504571 
L 148.817036 246.02807 
L 149.222934 245.514263 
L 148.837911 244.968575 
L 148.235528 244.403138 
L 147.991653 243.833615 
L 148.392421 243.275497 
L 149.343736 242.740763 
L 151.572486 241.758671 
L 153.022724 240.858543 
L 154.508651 239.951163 
L 156.378753 238.967313 
L 157.076632 238.444737 
L 157.468911 237.90993 
L 157.78217 236.840594 
L 158.114434 236.322436 
L 158.751748 235.821239 
L 160.696044 234.864986 
L 162.534254 233.934222 
L 163.776454 232.978968 
L 168.327075 228.953417 
L 170.679838 227.523082 
L 172.147439 226.559918 
L 173.790572 225.074005 
L 175.575932 223.581563 
L 182.156147 218.710943 
L 184.032087 217.23964 
L 188.082512 214.312785 
L 191.1811 211.85877 
L 195.823216 208.44049 
L 199.598582 205.504514 
L 204.163864 202.103974 
L 209.230068 198.228008 
L 213.097208 195.329112 
L 216.180373 192.916043 
L 220.742333 189.556724 
L 223.811886 187.147599 
L 228.941891 183.321009 
L 233.354731 179.975596 
L 235.890289 178.072897 
L 238.607197 177.53645 
L 238.607197 177.53645 
" clip-path="url(#pbd7ec7d156)" style="fill: none; stroke: #1f77b4; stroke-width: 1.5; stroke-linecap: square"/>
   </g>
   <g id="line2d_22">
    <path d="M 235.667371 177.476813 
L 266.035519 154.393682 
L 270.383848 151.121796 
L 274.125193 148.323241 
L 278.400418 145.051635 
L 380.565356 67.294965 
L 382.28829 65.980818 
L 384.830991 64.24612 
L 387.994941 61.611084 
L 390.730479 59.891024 
L 391.610639 59.006588 
L 392.348455 58.119034 
L 392.87555 57.684387 
L 394.483645 56.838724 
L 396.292564 55.992965 
L 396.78392 55.554046 
L 396.683508 55.104063 
L 395.822338 54.655429 
L 394.158923 54.234156 
L 391.816371 53.879717 
L 389.083402 53.64078 
L 386.374823 53.568 
L 384.154769 53.704183 
L 382.840302 54.074211 
L 382.70346 54.676615 
L 383.798706 55.479676 
L 385.93131 56.422917 
L 393.697623 59.247222 
L 394.820982 59.921877 
L 394.511132 60.388809 
L 392.705292 60.657972 
L 385.756589 60.81982 
L 378.146947 61.031479 
L 375.607523 61.348529 
L 374.424628 61.858423 
L 374.650996 62.553217 
L 376.292836 63.499383 
L 382.359502 66.073628 
L 383.032464 66.704165 
L 382.45975 67.161539 
L 380.660531 67.461615 
L 374.637772 67.801898 
L 371.404322 67.986063 
L 368.711982 68.270455 
L 366.938875 68.69836 
L 366.259392 69.282106 
L 366.615891 70.001734 
L 367.739999 70.809815 
L 370.57847 72.432405 
L 371.400287 73.123912 
L 371.390933 73.683101 
L 370.446091 74.104584 
L 368.662591 74.411709 
L 361.427227 75.157375 
L 359.636687 75.530123 
L 358.599074 76.022514 
L 358.350984 76.633375 
L 358.758668 77.337011 
L 360.963003 79.531845 
L 360.985945 80.136205 
L 360.340734 80.63423 
L 359.048599 81.032673 
L 355.258337 81.653724 
L 351.691684 82.328 
L 350.584144 82.775075 
L 350.051993 83.312993 
L 350.032922 83.930692 
L 351.095189 85.949582 
L 351.059097 86.55768 
L 350.565163 87.092378 
L 349.597561 87.551269 
L 346.665809 88.308545 
L 343.653392 89.048203 
L 342.563292 89.48229 
L 341.869983 89.978931 
L 341.554122 90.536013 
L 341.515716 91.138826 
L 341.63263 92.38407 
L 341.460824 92.975038 
L 340.98364 93.519824 
L 340.172725 94.012113 
L 337.79805 94.869374 
L 335.279484 95.680778 
L 334.293757 96.12039 
L 333.585502 96.600069 
L 333.14688 97.121821 
L 332.762903 98.25595 
L 332.581816 98.836349 
L 332.25539 99.402375 
L 331.712148 99.940841 
L 330.933957 100.445325 
L 328.864488 101.364448 
L 326.733523 102.239086 
L 325.870458 102.693691 
L 325.200082 103.172546 
L 324.342263 104.206996 
L 323.664748 105.29847 
L 323.201142 105.83918 
L 322.592608 106.364212 
L 320.966866 107.353696 
L 317.515078 109.213219 
L 316.35076 110.191646 
L 314.366115 112.261829 
L 312.973691 113.273895 
L 308.486349 116.152394 
L 305.098435 119.147124 
L 299.536223 123.026265 
L 297.263842 124.993204 
L 295.063575 126.459535 
L 292.864872 127.913429 
L 291.090657 129.372161 
L 289.364001 130.834999 
L 287.260379 132.294664 
L 284.392022 134.247447 
L 277.935025 139.179962 
L 275.275286 141.13963 
L 270.94265 144.534783 
L 266.349026 147.934389 
L 262.618275 150.820416 
L 258.678574 153.711352 
L 254.288858 157.065404 
L 249.788267 160.425873 
L 244.050171 164.718122 
L 232.15647 173.751677 
L 227.711628 177.053513 
L 207.385701 192.513718 
L 96.079568 277.274427 
L 93.810979 279.027603 
L 90.914455 281.212488 
L 88.71362 282.962798 
L 85.688077 285.131625 
L 83.084127 287.317412 
L 79.882545 289.470517 
L 78.226196 291.230867 
L 76.769634 292.078396 
L 74.954785 292.919822 
L 74.322124 293.35377 
L 74.183207 293.799732 
L 74.738908 294.24957 
L 76.088866 294.682591 
L 78.183063 295.064428 
L 80.802395 295.349747 
L 83.578925 295.488 
L 86.056689 295.432578 
L 87.781682 295.150594 
L 88.403951 294.632575 
L 87.766464 293.898273 
L 85.959603 292.997766 
L 80.396761 291.01355 
L 77.81292 290.109035 
L 76.174588 289.366102 
L 75.924273 288.828052 
L 77.245015 288.49965 
L 80.01415 288.345639 
L 91.984438 288.158501 
L 95.001763 287.901158 
L 96.65192 287.448587 
L 96.776394 286.795974 
L 95.531937 285.978973 
L 93.35373 285.065863 
L 88.716305 283.296556 
L 87.501377 282.594949 
L 87.582817 282.074751 
L 89.048388 281.733613 
L 91.695981 281.531861 
L 101.750646 281.034052 
L 103.954717 280.662484 
L 104.973349 280.121183 
L 104.791925 279.4209 
L 103.647107 278.605295 
L 99.078407 276.158108 
L 98.752236 275.552634 
L 99.477849 275.101695 
L 101.204909 274.787835 
L 111.270921 273.808752 
L 112.566407 273.34876 
L 112.936386 272.751646 
L 112.487034 272.040168 
L 109.445326 269.731258 
L 109.123199 269.087474 
L 109.579418 268.564519 
L 110.836169 268.160894 
L 115.012122 267.58682 
L 119.239277 266.992704 
L 120.596448 266.575193 
L 121.243116 266.049788 
L 121.216914 265.424591 
L 120.699191 264.728521 
L 119.342966 263.299317 
L 119.096942 262.654407 
L 119.415982 262.096356 
L 120.353775 261.632247 
L 121.82777 261.249032 
L 127.245602 260.249123 
L 128.553811 259.841219 
L 129.344798 259.35549 
L 129.619512 258.791637 
L 129.491686 258.16606 
L 128.850947 256.850534 
L 128.786602 256.227551 
L 129.117664 255.662241 
L 129.902558 255.16477 
L 131.096512 254.730268 
L 136.732115 253.169028 
L 137.523185 252.698503 
L 137.931825 252.17181 
L 138.036281 251.597424 
L 137.934831 250.384056 
L 138.063677 249.792329 
L 138.481515 249.236872 
L 139.348607 248.666729 
L 141.694419 247.779139 
L 144.19692 246.946741 
L 145.176717 246.504571 
L 145.88069 246.02807 
L 146.318102 245.514263 
L 146.713937 244.403138 
L 146.907219 243.833615 
L 147.245841 243.275497 
L 147.796478 242.740763 
L 148.572001 242.235455 
L 150.595826 241.303446 
L 152.641307 240.411474 
L 154.100143 239.470484 
L 154.938553 238.444737 
L 155.649467 237.372115 
L 156.136921 236.840594 
L 157.534375 235.821239 
L 161.79344 233.462 
L 162.903928 232.48385 
L 164.814215 230.439644 
L 166.223383 229.439796 
L 170.181231 227.044263 
L 171.295829 226.069321 
L 173.366793 224.075857 
L 174.801233 223.091938 
L 178.609381 220.675329 
L 180.224936 219.20406 
L 181.319676 218.218657 
L 182.667826 217.23964 
L 187.077229 214.312785 
L 191.26786 210.885594 
L 195.461496 207.948228 
L 199.728305 204.53637 
L 204.391344 201.126926 
L 208.05238 198.228008 
L 212.670493 194.843412 
L 215.745271 192.438369 
L 220.950886 188.588869 
L 224.7338 185.717636 
L 229.83649 181.881147 
L 235.5887 177.53645 
L 235.5887 177.53645 
" clip-path="url(#pbd7ec7d156)" style="fill: none; stroke: #ff7f0e; stroke-opacity: 0.5; stroke-width: 1.5; stroke-linecap: square"/>
   </g>
   <g id="patch_3">
    <path d="M 57.6 307.584 
L 57.6 41.472 
" style="fill: none; stroke: #000000; stroke-width: 0.8; stroke-linejoin: miter; stroke-linecap: square"/>
   </g>
   <g id="patch_4">
    <path d="M 414.72 307.584 
L 414.72 41.472 
" style="fill: none; stroke: #000000; stroke-width: 0.8; stroke-linejoin: miter; stroke-linecap: square"/>
   </g>
   <g id="patch_5">
    <path d="M 57.6 307.584 
L 414.72 307.584 
" style="fill: none; stroke: #000000; stroke-width: 0.8; stroke-linejoin: miter; stroke-linecap: square"/>
   </g>
   <g id="patch_6">
    <path d="M 57.6 41.472 
L 414.72 41.472 
" style="fill: none; stroke: #000000; stroke-width: 0.8; stroke-linejoin: miter; stroke-linecap: square"/>
   </g>
   <g id="text_13">
    <!-- Compare - Epoch 1500 -->
    <g transform="translate(167.416875 35.472) scale(0.12 -0.12)">
     <defs>
      <path id="DejaVuSans-43" d="M 4122 4306 
L 4122 3641 
Q 3803 3938 3442 4084 
Q 3081 4231 2675 4231 
Q 1875 4231 1450 3742 
Q 1025 3253 1025 2328 
Q 1025 1406 1450 917 
Q 1875 428 2675 428 
Q 3081 428 3442 575 
Q 3803 722 4122 1019 
L 4122 359 
Q 3791 134 3420 21 
Q 3050 -91 2638 -91 
Q 1578 -91 968 557 
Q 359 1206 359 2328 
Q 359 3453 968 4101 
Q 1578 4750 2638 4750 
Q 3056 4750 3426 4639 
Q 3797 4528 4122 4306 
z
" transform="scale(0.015625)"/>
      <path id="DejaVuSans-6f" d="M 1959 3097 
Q 1497 3097 1228 2736 
Q 959 2375 959 1747 
Q 959 1119 1226 758 
Q 1494 397 1959 397 
Q 2419 397 2687 759 
Q 2956 1122 2956 1747 
Q 2956 2369 2687 2733 
Q 2419 3097 1959 3097 
z
M 1959 3584 
Q 2709 3584 3137 3096 
Q 3566 2609 3566 1747 
Q 3566 888 3137 398 
Q 2709 -91 1959 -91 
Q 1206 -91 779 398 
Q 353 888 353 1747 
Q 353 2609 779 3096 
Q 1206 3584 1959 3584 
z
" transform="scale(0.015625)"/>
      <path id="DejaVuSans-6d" d="M 3328 2828 
Q 3544 3216 3844 3400 
Q 4144 3584 4550 3584 
Q 5097 3584 5394 3201 
Q 5691 2819 5691 2113 
L 5691 0 
L 5113 0 
L 5113 2094 
Q 5113 2597 4934 2840 
Q 4756 3084 4391 3084 
Q 3944 3084 3684 2787 
Q 3425 2491 3425 1978 
L 3425 0 
L 2847 0 
L 2847 2094 
Q 2847 2600 2669 2842 
Q 2491 3084 2119 3084 
Q 1678 3084 1418 2786 
Q 1159 2488 1159 1978 
L 1159 0 
L 581 0 
L 581 3500 
L 1159 3500 
L 1159 2956 
Q 1356 3278 1631 3431 
Q 1906 3584 2284 3584 
Q 2666 3584 2933 3390 
Q 3200 3197 3328 2828 
z
" transform="scale(0.015625)"/>
      <path id="DejaVuSans-70" d="M 1159 525 
L 1159 -1331 
L 581 -1331 
L 581 3500 
L 1159 3500 
L 1159 2969 
Q 1341 3281 1617 3432 
Q 1894 3584 2278 3584 
Q 2916 3584 3314 3078 
Q 3713 2572 3713 1747 
Q 3713 922 3314 415 
Q 2916 -91 2278 -91 
Q 1894 -91 1617 61 
Q 1341 213 1159 525 
z
M 3116 1747 
Q 3116 2381 2855 2742 
Q 2594 3103 2138 3103 
Q 1681 3103 1420 2742 
Q 1159 2381 1159 1747 
Q 1159 1113 1420 752 
Q 1681 391 2138 391 
Q 2594 391 2855 752 
Q 3116 1113 3116 1747 
z
" transform="scale(0.015625)"/>
      <path id="DejaVuSans-72" d="M 2631 2963 
Q 2534 3019 2420 3045 
Q 2306 3072 2169 3072 
Q 1681 3072 1420 2755 
Q 1159 2438 1159 1844 
L 1159 0 
L 581 0 
L 581 3500 
L 1159 3500 
L 1159 2956 
Q 1341 3275 1631 3429 
Q 1922 3584 2338 3584 
Q 2397 3584 2469 3576 
Q 2541 3569 2628 3553 
L 2631 2963 
z
" transform="scale(0.015625)"/>
      <path id="DejaVuSans-20" transform="scale(0.015625)"/>
      <path id="DejaVuSans-2d" d="M 313 2009 
L 1997 2009 
L 1997 1497 
L 313 1497 
L 313 2009 
z
" transform="scale(0.015625)"/>
      <path id="DejaVuSans-45" d="M 628 4666 
L 3578 4666 
L 3578 4134 
L 1259 4134 
L 1259 2753 
L 3481 2753 
L 3481 2222 
L 1259 2222 
L 1259 531 
L 3634 531 
L 3634 0 
L 628 0 
L 628 4666 
z
" transform="scale(0.015625)"/>
      <path id="DejaVuSans-63" d="M 3122 3366 
L 3122 2828 
Q 2878 2963 2633 3030 
Q 2388 3097 2138 3097 
Q 1578 3097 1268 2742 
Q 959 2388 959 1747 
Q 959 1106 1268 751 
Q 1578 397 2138 397 
Q 2388 397 2633 464 
Q 2878 531 3122 666 
L 3122 134 
Q 2881 22 2623 -34 
Q 2366 -91 2075 -91 
Q 1284 -91 818 406 
Q 353 903 353 1747 
Q 353 2603 823 3093 
Q 1294 3584 2113 3584 
Q 2378 3584 2631 3529 
Q 2884 3475 3122 3366 
z
" transform="scale(0.015625)"/>
      <path id="DejaVuSans-68" d="M 3513 2113 
L 3513 0 
L 2938 0 
L 2938 2094 
Q 2938 2591 2744 2837 
Q 2550 3084 2163 3084 
Q 1697 3084 1428 2787 
Q 1159 2491 1159 1978 
L 1159 0 
L 581 0 
L 581 4863 
L 1159 4863 
L 1159 2956 
Q 1366 3272 1645 3428 
Q 1925 3584 2291 3584 
Q 2894 3584 3203 3211 
Q 3513 2838 3513 2113 
z
" transform="scale(0.015625)"/>
     </defs>
     <use xlink:href="#DejaVuSans-43"/>
     <use xlink:href="#DejaVuSans-6f" transform="translate(69.824219 0)"/>
     <use xlink:href="#DejaVuSans-6d" transform="translate(131.005859 0)"/>
     <use xlink:href="#DejaVuSans-70" transform="translate(228.417969 0)"/>
     <use xlink:href="#DejaVuSans-61" transform="translate(291.894531 0)"/>
     <use xlink:href="#DejaVuSans-72" transform="translate(353.173828 0)"/>
     <use xlink:href="#DejaVuSans-65" transform="translate(392.037109 0)"/>
     <use xlink:href="#DejaVuSans-20" transform="translate(453.560547 0)"/>
     <use xlink:href="#DejaVuSans-2d" transform="translate(485.347656 0)"/>
     <use xlink:href="#DejaVuSans-20" transform="translate(521.431641 0)"/>
     <use xlink:href="#DejaVuSans-45" transform="translate(553.21875 0)"/>
     <use xlink:href="#DejaVuSans-70" transform="translate(616.402344 0)"/>
     <use xlink:href="#DejaVuSans-6f" transform="translate(679.878906 0)"/>
     <use xlink:href="#DejaVuSans-63" transform="translate(741.060547 0)"/>
     <use xlink:href="#DejaVuSans-68" transform="translate(796.041016 0)"/>
     <use xlink:href="#DejaVuSans-20" transform="translate(859.419922 0)"/>
     <use xlink:href="#DejaVuSans-31" transform="translate(891.207031 0)"/>
     <use xlink:href="#DejaVuSans-35" transform="translate(954.830078 0)"/>
     <use xlink:href="#DejaVuSans-30" transform="translate(1018.453125 0)"/>
     <use xlink:href="#DejaVuSans-30" transform="translate(1082.076172 0)"/>
    </g>
   </g>
   <g id="legend_1">
    <g id="patch_7">
     <path d="M 64.6 78.82825 
L 181.128125 78.82825 
Q 183.128125 78.82825 183.128125 76.82825 
L 183.128125 48.472 
Q 183.128125 46.472 181.128125 46.472 
L 64.6 46.472 
Q 62.6 46.472 62.6 48.472 
L 62.6 76.82825 
Q 62.6 78.82825 64.6 78.82825 
z
" style="fill: #ffffff; opacity: 0.8; stroke: #cccccc; stroke-linejoin: miter"/>
    </g>
    <g id="line2d_23">
     <path d="M 66.6 54.570437 
L 76.6 54.570437 
L 86.6 54.570437 
" style="fill: none; stroke: #1f77b4; stroke-width: 1.5; stroke-linecap: square"/>
    </g>
    <g id="text_14">
     <!-- Pred: Sample 1 -->
     <g transform="translate(94.6 58.070437) scale(0.1 -0.1)">
      <defs>
       <path id="DejaVuSans-50" d="M 1259 4147 
L 1259 2394 
L 2053 2394 
Q 2494 2394 2734 2622 
Q 2975 2850 2975 3272 
Q 2975 3691 2734 3919 
Q 2494 4147 2053 4147 
L 1259 4147 
z
M 628 4666 
L 2053 4666 
Q 2838 4666 3239 4311 
Q 3641 3956 3641 3272 
Q 3641 2581 3239 2228 
Q 2838 1875 2053 1875 
L 1259 1875 
L 1259 0 
L 628 0 
L 628 4666 
z
" transform="scale(0.015625)"/>
       <path id="DejaVuSans-3a" d="M 750 794 
L 1409 794 
L 1409 0 
L 750 0 
L 750 794 
z
M 750 3309 
L 1409 3309 
L 1409 2516 
L 750 2516 
L 750 3309 
z
" transform="scale(0.015625)"/>
       <path id="DejaVuSans-53" d="M 3425 4513 
L 3425 3897 
Q 3066 4069 2747 4153 
Q 2428 4238 2131 4238 
Q 1616 4238 1336 4038 
Q 1056 3838 1056 3469 
Q 1056 3159 1242 3001 
Q 1428 2844 1947 2747 
L 2328 2669 
Q 3034 2534 3370 2195 
Q 3706 1856 3706 1288 
Q 3706 609 3251 259 
Q 2797 -91 1919 -91 
Q 1588 -91 1214 -16 
Q 841 59 441 206 
L 441 856 
Q 825 641 1194 531 
Q 1563 422 1919 422 
Q 2459 422 2753 634 
Q 3047 847 3047 1241 
Q 3047 1584 2836 1778 
Q 2625 1972 2144 2069 
L 1759 2144 
Q 1053 2284 737 2584 
Q 422 2884 422 3419 
Q 422 4038 858 4394 
Q 1294 4750 2059 4750 
Q 2388 4750 2728 4690 
Q 3069 4631 3425 4513 
z
" transform="scale(0.015625)"/>
      </defs>
      <use xlink:href="#DejaVuSans-50"/>
      <use xlink:href="#DejaVuSans-72" transform="translate(58.552734 0)"/>
      <use xlink:href="#DejaVuSans-65" transform="translate(97.416016 0)"/>
      <use xlink:href="#DejaVuSans-64" transform="translate(158.939453 0)"/>
      <use xlink:href="#DejaVuSans-3a" transform="translate(222.416016 0)"/>
      <use xlink:href="#DejaVuSans-20" transform="translate(256.107422 0)"/>
      <use xlink:href="#DejaVuSans-53" transform="translate(287.894531 0)"/>
      <use xlink:href="#DejaVuSans-61" transform="translate(351.371094 0)"/>
      <use xlink:href="#DejaVuSans-6d" transform="translate(412.650391 0)"/>
      <use xlink:href="#DejaVuSans-70" transform="translate(510.0625 0)"/>
      <use xlink:href="#DejaVuSans-6c" transform="translate(573.539062 0)"/>
      <use xlink:href="#DejaVuSans-65" transform="translate(601.322266 0)"/>
      <use xlink:href="#DejaVuSans-20" transform="translate(662.845703 0)"/>
      <use xlink:href="#DejaVuSans-31" transform="translate(694.632812 0)"/>
     </g>
    </g>
    <g id="line2d_24">
     <path d="M 66.6 69.248562 
L 76.6 69.248562 
L 86.6 69.248562 
" style="fill: none; stroke: #ff7f0e; stroke-opacity: 0.5; stroke-width: 1.5; stroke-linecap: square"/>
    </g>
    <g id="text_15">
     <!-- Target: Sample 1 -->
     <g transform="translate(94.6 72.748562) scale(0.1 -0.1)">
      <defs>
       <path id="DejaVuSans-54" d="M -19 4666 
L 3928 4666 
L 3928 4134 
L 2272 4134 
L 2272 0 
L 1638 0 
L 1638 4134 
L -19 4134 
L -19 4666 
z
" transform="scale(0.015625)"/>
       <path id="DejaVuSans-67" d="M 2906 1791 
Q 2906 2416 2648 2759 
Q 2391 3103 1925 3103 
Q 1463 3103 1205 2759 
Q 947 2416 947 1791 
Q 947 1169 1205 825 
Q 1463 481 1925 481 
Q 2391 481 2648 825 
Q 2906 1169 2906 1791 
z
M 3481 434 
Q 3481 -459 3084 -895 
Q 2688 -1331 1869 -1331 
Q 1566 -1331 1297 -1286 
Q 1028 -1241 775 -1147 
L 775 -588 
Q 1028 -725 1275 -790 
Q 1522 -856 1778 -856 
Q 2344 -856 2625 -561 
Q 2906 -266 2906 331 
L 2906 616 
Q 2728 306 2450 153 
Q 2172 0 1784 0 
Q 1141 0 747 490 
Q 353 981 353 1791 
Q 353 2603 747 3093 
Q 1141 3584 1784 3584 
Q 2172 3584 2450 3431 
Q 2728 3278 2906 2969 
L 2906 3500 
L 3481 3500 
L 3481 434 
z
" transform="scale(0.015625)"/>
       <path id="DejaVuSans-74" d="M 1172 4494 
L 1172 3500 
L 2356 3500 
L 2356 3053 
L 1172 3053 
L 1172 1153 
Q 1172 725 1289 603 
Q 1406 481 1766 481 
L 2356 481 
L 2356 0 
L 1766 0 
Q 1100 0 847 248 
Q 594 497 594 1153 
L 594 3053 
L 172 3053 
L 172 3500 
L 594 3500 
L 594 4494 
L 1172 4494 
z
" transform="scale(0.015625)"/>
      </defs>
      <use xlink:href="#DejaVuSans-54"/>
      <use xlink:href="#DejaVuSans-61" transform="translate(44.583984 0)"/>
      <use xlink:href="#DejaVuSans-72" transform="translate(105.863281 0)"/>
      <use xlink:href="#DejaVuSans-67" transform="translate(145.226562 0)"/>
      <use xlink:href="#DejaVuSans-65" transform="translate(208.703125 0)"/>
      <use xlink:href="#DejaVuSans-74" transform="translate(270.226562 0)"/>
      <use xlink:href="#DejaVuSans-3a" transform="translate(309.435547 0)"/>
      <use xlink:href="#DejaVuSans-20" transform="translate(343.126953 0)"/>
      <use xlink:href="#DejaVuSans-53" transform="translate(374.914062 0)"/>
      <use xlink:href="#DejaVuSans-61" transform="translate(438.390625 0)"/>
      <use xlink:href="#DejaVuSans-6d" transform="translate(499.669922 0)"/>
      <use xlink:href="#DejaVuSans-70" transform="translate(597.082031 0)"/>
      <use xlink:href="#DejaVuSans-6c" transform="translate(660.558594 0)"/>
      <use xlink:href="#DejaVuSans-65" transform="translate(688.341797 0)"/>
      <use xlink:href="#DejaVuSans-20" transform="translate(749.865234 0)"/>
      <use xlink:href="#DejaVuSans-31" transform="translate(781.652344 0)"/>
     </g>
    </g>
   </g>
  </g>
 </g>
 <defs>
  <clipPath id="pbd7ec7d156">
   <rect x="57.6" y="41.472" width="357.12" height="266.112"/>
  </clipPath>
 </defs>
</svg>
