<?xml version="1.0" encoding="utf-8" standalone="no"?>
<!DOCTYPE svg PUBLIC "-//W3C//DTD SVG 1.1//EN"
  "http://www.w3.org/Graphics/SVG/1.1/DTD/svg11.dtd">
<svg xmlns:xlink="http://www.w3.org/1999/xlink" width="460.8pt" height="345.6pt" viewBox="0 0 460.8 345.6" xmlns="http://www.w3.org/2000/svg" version="1.1">
 <metadata>
  <rdf:RDF xmlns:dc="http://purl.org/dc/elements/1.1/" xmlns:cc="http://creativecommons.org/ns#" xmlns:rdf="http://www.w3.org/1999/02/22-rdf-syntax-ns#">
   <cc:Work>
    <dc:type rdf:resource="http://purl.org/dc/dcmitype/StillImage"/>
    <dc:date>2025-04-16T04:27:41.604444</dc:date>
    <dc:format>image/svg+xml</dc:format>
    <dc:creator>
     <cc:Agent>
      <dc:title>Matplotlib v3.10.0, https://matplotlib.org/</dc:title>
     </cc:Agent>
    </dc:creator>
   </cc:Work>
  </rdf:RDF>
 </metadata>
 <defs>
  <style type="text/css">*{stroke-linejoin: round; stroke-linecap: butt}</style>
 </defs>
 <g id="figure_1">
  <g id="patch_1">
   <path d="M 0 345.6 
L 460.8 345.6 
L 460.8 0 
L 0 0 
z
" style="fill: #ffffff"/>
  </g>
  <g id="axes_1">
   <g id="patch_2">
    <path d="M 57.6 307.584 
L 414.72 307.584 
L 414.72 41.472 
L 57.6 41.472 
z
" style="fill: #ffffff"/>
   </g>
   <g id="matplotlib.axis_1">
    <g id="xtick_1">
     <g id="line2d_1">
      <path d="M 97.411502 307.584 
L 97.411502 41.472 
" clip-path="url(#pa6cbe4ec45)" style="fill: none; stroke: #b0b0b0; stroke-opacity: 0.5; stroke-width: 0.8; stroke-linecap: square"/>
     </g>
     <g id="line2d_2">
      <defs>
       <path id="m6a1cc07cdd" d="M 0 0 
L 0 3.5 
" style="stroke: #000000; stroke-width: 0.8"/>
      </defs>
      <g>
       <use xlink:href="#m6a1cc07cdd" x="97.411502" y="307.584" style="stroke: #000000; stroke-width: 0.8"/>
      </g>
     </g>
     <g id="text_1">
      <!-- −1.0 -->
      <g transform="translate(85.270096 322.182437) scale(0.1 -0.1)">
       <defs>
        <path id="DejaVuSans-2212" d="M 678 2272 
L 4684 2272 
L 4684 1741 
L 678 1741 
L 678 2272 
z
" transform="scale(0.015625)"/>
        <path id="DejaVuSans-31" d="M 794 531 
L 1825 531 
L 1825 4091 
L 703 3866 
L 703 4441 
L 1819 4666 
L 2450 4666 
L 2450 531 
L 3481 531 
L 3481 0 
L 794 0 
L 794 531 
z
" transform="scale(0.015625)"/>
        <path id="DejaVuSans-2e" d="M 684 794 
L 1344 794 
L 1344 0 
L 684 0 
L 684 794 
z
" transform="scale(0.015625)"/>
        <path id="DejaVuSans-30" d="M 2034 4250 
Q 1547 4250 1301 3770 
Q 1056 3291 1056 2328 
Q 1056 1369 1301 889 
Q 1547 409 2034 409 
Q 2525 409 2770 889 
Q 3016 1369 3016 2328 
Q 3016 3291 2770 3770 
Q 2525 4250 2034 4250 
z
M 2034 4750 
Q 2819 4750 3233 4129 
Q 3647 3509 3647 2328 
Q 3647 1150 3233 529 
Q 2819 -91 2034 -91 
Q 1250 -91 836 529 
Q 422 1150 422 2328 
Q 422 3509 836 4129 
Q 1250 4750 2034 4750 
z
" transform="scale(0.015625)"/>
       </defs>
       <use xlink:href="#DejaVuSans-2212"/>
       <use xlink:href="#DejaVuSans-31" transform="translate(83.789062 0)"/>
       <use xlink:href="#DejaVuSans-2e" transform="translate(147.412109 0)"/>
       <use xlink:href="#DejaVuSans-30" transform="translate(179.199219 0)"/>
      </g>
     </g>
    </g>
    <g id="xtick_2">
     <g id="line2d_3">
      <path d="M 166.614645 307.584 
L 166.614645 41.472 
" clip-path="url(#pa6cbe4ec45)" style="fill: none; stroke: #b0b0b0; stroke-opacity: 0.5; stroke-width: 0.8; stroke-linecap: square"/>
     </g>
     <g id="line2d_4">
      <g>
       <use xlink:href="#m6a1cc07cdd" x="166.614645" y="307.584" style="stroke: #000000; stroke-width: 0.8"/>
      </g>
     </g>
     <g id="text_2">
      <!-- −0.5 -->
      <g transform="translate(154.473239 322.182437) scale(0.1 -0.1)">
       <defs>
        <path id="DejaVuSans-35" d="M 691 4666 
L 3169 4666 
L 3169 4134 
L 1269 4134 
L 1269 2991 
Q 1406 3038 1543 3061 
Q 1681 3084 1819 3084 
Q 2600 3084 3056 2656 
Q 3513 2228 3513 1497 
Q 3513 744 3044 326 
Q 2575 -91 1722 -91 
Q 1428 -91 1123 -41 
Q 819 9 494 109 
L 494 744 
Q 775 591 1075 516 
Q 1375 441 1709 441 
Q 2250 441 2565 725 
Q 2881 1009 2881 1497 
Q 2881 1984 2565 2268 
Q 2250 2553 1709 2553 
Q 1456 2553 1204 2497 
Q 953 2441 691 2322 
L 691 4666 
z
" transform="scale(0.015625)"/>
       </defs>
       <use xlink:href="#DejaVuSans-2212"/>
       <use xlink:href="#DejaVuSans-30" transform="translate(83.789062 0)"/>
       <use xlink:href="#DejaVuSans-2e" transform="translate(147.412109 0)"/>
       <use xlink:href="#DejaVuSans-35" transform="translate(179.199219 0)"/>
      </g>
     </g>
    </g>
    <g id="xtick_3">
     <g id="line2d_5">
      <path d="M 235.817788 307.584 
L 235.817788 41.472 
" clip-path="url(#pa6cbe4ec45)" style="fill: none; stroke: #b0b0b0; stroke-opacity: 0.5; stroke-width: 0.8; stroke-linecap: square"/>
     </g>
     <g id="line2d_6">
      <g>
       <use xlink:href="#m6a1cc07cdd" x="235.817788" y="307.584" style="stroke: #000000; stroke-width: 0.8"/>
      </g>
     </g>
     <g id="text_3">
      <!-- 0.0 -->
      <g transform="translate(227.866225 322.182437) scale(0.1 -0.1)">
       <use xlink:href="#DejaVuSans-30"/>
       <use xlink:href="#DejaVuSans-2e" transform="translate(63.623047 0)"/>
       <use xlink:href="#DejaVuSans-30" transform="translate(95.410156 0)"/>
      </g>
     </g>
    </g>
    <g id="xtick_4">
     <g id="line2d_7">
      <path d="M 305.02093 307.584 
L 305.02093 41.472 
" clip-path="url(#pa6cbe4ec45)" style="fill: none; stroke: #b0b0b0; stroke-opacity: 0.5; stroke-width: 0.8; stroke-linecap: square"/>
     </g>
     <g id="line2d_8">
      <g>
       <use xlink:href="#m6a1cc07cdd" x="305.02093" y="307.584" style="stroke: #000000; stroke-width: 0.8"/>
      </g>
     </g>
     <g id="text_4">
      <!-- 0.5 -->
      <g transform="translate(297.069368 322.182437) scale(0.1 -0.1)">
       <use xlink:href="#DejaVuSans-30"/>
       <use xlink:href="#DejaVuSans-2e" transform="translate(63.623047 0)"/>
       <use xlink:href="#DejaVuSans-35" transform="translate(95.410156 0)"/>
      </g>
     </g>
    </g>
    <g id="xtick_5">
     <g id="line2d_9">
      <path d="M 374.224073 307.584 
L 374.224073 41.472 
" clip-path="url(#pa6cbe4ec45)" style="fill: none; stroke: #b0b0b0; stroke-opacity: 0.5; stroke-width: 0.8; stroke-linecap: square"/>
     </g>
     <g id="line2d_10">
      <g>
       <use xlink:href="#m6a1cc07cdd" x="374.224073" y="307.584" style="stroke: #000000; stroke-width: 0.8"/>
      </g>
     </g>
     <g id="text_5">
      <!-- 1.0 -->
      <g transform="translate(366.272511 322.182437) scale(0.1 -0.1)">
       <use xlink:href="#DejaVuSans-31"/>
       <use xlink:href="#DejaVuSans-2e" transform="translate(63.623047 0)"/>
       <use xlink:href="#DejaVuSans-30" transform="translate(95.410156 0)"/>
      </g>
     </g>
    </g>
    <g id="text_6">
     <!-- Index -->
     <g transform="translate(222.393594 335.860562) scale(0.1 -0.1)">
      <defs>
       <path id="DejaVuSans-49" d="M 628 4666 
L 1259 4666 
L 1259 0 
L 628 0 
L 628 4666 
z
" transform="scale(0.015625)"/>
       <path id="DejaVuSans-6e" d="M 3513 2113 
L 3513 0 
L 2938 0 
L 2938 2094 
Q 2938 2591 2744 2837 
Q 2550 3084 2163 3084 
Q 1697 3084 1428 2787 
Q 1159 2491 1159 1978 
L 1159 0 
L 581 0 
L 581 3500 
L 1159 3500 
L 1159 2956 
Q 1366 3272 1645 3428 
Q 1925 3584 2291 3584 
Q 2894 3584 3203 3211 
Q 3513 2838 3513 2113 
z
" transform="scale(0.015625)"/>
       <path id="DejaVuSans-64" d="M 2906 2969 
L 2906 4863 
L 3481 4863 
L 3481 0 
L 2906 0 
L 2906 525 
Q 2725 213 2448 61 
Q 2172 -91 1784 -91 
Q 1150 -91 751 415 
Q 353 922 353 1747 
Q 353 2572 751 3078 
Q 1150 3584 1784 3584 
Q 2172 3584 2448 3432 
Q 2725 3281 2906 2969 
z
M 947 1747 
Q 947 1113 1208 752 
Q 1469 391 1925 391 
Q 2381 391 2643 752 
Q 2906 1113 2906 1747 
Q 2906 2381 2643 2742 
Q 2381 3103 1925 3103 
Q 1469 3103 1208 2742 
Q 947 2381 947 1747 
z
" transform="scale(0.015625)"/>
       <path id="DejaVuSans-65" d="M 3597 1894 
L 3597 1613 
L 953 1613 
Q 991 1019 1311 708 
Q 1631 397 2203 397 
Q 2534 397 2845 478 
Q 3156 559 3463 722 
L 3463 178 
Q 3153 47 2828 -22 
Q 2503 -91 2169 -91 
Q 1331 -91 842 396 
Q 353 884 353 1716 
Q 353 2575 817 3079 
Q 1281 3584 2069 3584 
Q 2775 3584 3186 3129 
Q 3597 2675 3597 1894 
z
M 3022 2063 
Q 3016 2534 2758 2815 
Q 2500 3097 2075 3097 
Q 1594 3097 1305 2825 
Q 1016 2553 972 2059 
L 3022 2063 
z
" transform="scale(0.015625)"/>
       <path id="DejaVuSans-78" d="M 3513 3500 
L 2247 1797 
L 3578 0 
L 2900 0 
L 1881 1375 
L 863 0 
L 184 0 
L 1544 1831 
L 300 3500 
L 978 3500 
L 1906 2253 
L 2834 3500 
L 3513 3500 
z
" transform="scale(0.015625)"/>
      </defs>
      <use xlink:href="#DejaVuSans-49"/>
      <use xlink:href="#DejaVuSans-6e" transform="translate(29.492188 0)"/>
      <use xlink:href="#DejaVuSans-64" transform="translate(92.871094 0)"/>
      <use xlink:href="#DejaVuSans-65" transform="translate(156.347656 0)"/>
      <use xlink:href="#DejaVuSans-78" transform="translate(216.121094 0)"/>
     </g>
    </g>
   </g>
   <g id="matplotlib.axis_2">
    <g id="ytick_1">
     <g id="line2d_11">
      <path d="M 57.6 275.686072 
L 414.72 275.686072 
" clip-path="url(#pa6cbe4ec45)" style="fill: none; stroke: #b0b0b0; stroke-opacity: 0.5; stroke-width: 0.8; stroke-linecap: square"/>
     </g>
     <g id="line2d_12">
      <defs>
       <path id="mff97312b35" d="M 0 0 
L -3.5 0 
" style="stroke: #000000; stroke-width: 0.8"/>
      </defs>
      <g>
       <use xlink:href="#mff97312b35" x="57.6" y="275.686072" style="stroke: #000000; stroke-width: 0.8"/>
      </g>
     </g>
     <g id="text_7">
      <!-- −1.0 -->
      <g transform="translate(26.317187 279.485291) scale(0.1 -0.1)">
       <use xlink:href="#DejaVuSans-2212"/>
       <use xlink:href="#DejaVuSans-31" transform="translate(83.789062 0)"/>
       <use xlink:href="#DejaVuSans-2e" transform="translate(147.412109 0)"/>
       <use xlink:href="#DejaVuSans-30" transform="translate(179.199219 0)"/>
      </g>
     </g>
    </g>
    <g id="ytick_2">
     <g id="line2d_13">
      <path d="M 57.6 225.196158 
L 414.72 225.196158 
" clip-path="url(#pa6cbe4ec45)" style="fill: none; stroke: #b0b0b0; stroke-opacity: 0.5; stroke-width: 0.8; stroke-linecap: square"/>
     </g>
     <g id="line2d_14">
      <g>
       <use xlink:href="#mff97312b35" x="57.6" y="225.196158" style="stroke: #000000; stroke-width: 0.8"/>
      </g>
     </g>
     <g id="text_8">
      <!-- −0.5 -->
      <g transform="translate(26.317187 228.995376) scale(0.1 -0.1)">
       <use xlink:href="#DejaVuSans-2212"/>
       <use xlink:href="#DejaVuSans-30" transform="translate(83.789062 0)"/>
       <use xlink:href="#DejaVuSans-2e" transform="translate(147.412109 0)"/>
       <use xlink:href="#DejaVuSans-35" transform="translate(179.199219 0)"/>
      </g>
     </g>
    </g>
    <g id="ytick_3">
     <g id="line2d_15">
      <path d="M 57.6 174.706243 
L 414.72 174.706243 
" clip-path="url(#pa6cbe4ec45)" style="fill: none; stroke: #b0b0b0; stroke-opacity: 0.5; stroke-width: 0.8; stroke-linecap: square"/>
     </g>
     <g id="line2d_16">
      <g>
       <use xlink:href="#mff97312b35" x="57.6" y="174.706243" style="stroke: #000000; stroke-width: 0.8"/>
      </g>
     </g>
     <g id="text_9">
      <!-- 0.0 -->
      <g transform="translate(34.696875 178.505461) scale(0.1 -0.1)">
       <use xlink:href="#DejaVuSans-30"/>
       <use xlink:href="#DejaVuSans-2e" transform="translate(63.623047 0)"/>
       <use xlink:href="#DejaVuSans-30" transform="translate(95.410156 0)"/>
      </g>
     </g>
    </g>
    <g id="ytick_4">
     <g id="line2d_17">
      <path d="M 57.6 124.216328 
L 414.72 124.216328 
" clip-path="url(#pa6cbe4ec45)" style="fill: none; stroke: #b0b0b0; stroke-opacity: 0.5; stroke-width: 0.8; stroke-linecap: square"/>
     </g>
     <g id="line2d_18">
      <g>
       <use xlink:href="#mff97312b35" x="57.6" y="124.216328" style="stroke: #000000; stroke-width: 0.8"/>
      </g>
     </g>
     <g id="text_10">
      <!-- 0.5 -->
      <g transform="translate(34.696875 128.015547) scale(0.1 -0.1)">
       <use xlink:href="#DejaVuSans-30"/>
       <use xlink:href="#DejaVuSans-2e" transform="translate(63.623047 0)"/>
       <use xlink:href="#DejaVuSans-35" transform="translate(95.410156 0)"/>
      </g>
     </g>
    </g>
    <g id="ytick_5">
     <g id="line2d_19">
      <path d="M 57.6 73.726413 
L 414.72 73.726413 
" clip-path="url(#pa6cbe4ec45)" style="fill: none; stroke: #b0b0b0; stroke-opacity: 0.5; stroke-width: 0.8; stroke-linecap: square"/>
     </g>
     <g id="line2d_20">
      <g>
       <use xlink:href="#mff97312b35" x="57.6" y="73.726413" style="stroke: #000000; stroke-width: 0.8"/>
      </g>
     </g>
     <g id="text_11">
      <!-- 1.0 -->
      <g transform="translate(34.696875 77.525632) scale(0.1 -0.1)">
       <use xlink:href="#DejaVuSans-31"/>
       <use xlink:href="#DejaVuSans-2e" transform="translate(63.623047 0)"/>
       <use xlink:href="#DejaVuSans-30" transform="translate(95.410156 0)"/>
      </g>
     </g>
    </g>
    <g id="text_12">
     <!-- Value -->
     <g transform="translate(20.2375 188.25925) rotate(-90) scale(0.1 -0.1)">
      <defs>
       <path id="DejaVuSans-56" d="M 1831 0 
L 50 4666 
L 709 4666 
L 2188 738 
L 3669 4666 
L 4325 4666 
L 2547 0 
L 1831 0 
z
" transform="scale(0.015625)"/>
       <path id="DejaVuSans-61" d="M 2194 1759 
Q 1497 1759 1228 1600 
Q 959 1441 959 1056 
Q 959 750 1161 570 
Q 1363 391 1709 391 
Q 2188 391 2477 730 
Q 2766 1069 2766 1631 
L 2766 1759 
L 2194 1759 
z
M 3341 1997 
L 3341 0 
L 2766 0 
L 2766 531 
Q 2569 213 2275 61 
Q 1981 -91 1556 -91 
Q 1019 -91 701 211 
Q 384 513 384 1019 
Q 384 1609 779 1909 
Q 1175 2209 1959 2209 
L 2766 2209 
L 2766 2266 
Q 2766 2663 2505 2880 
Q 2244 3097 1772 3097 
Q 1472 3097 1187 3025 
Q 903 2953 641 2809 
L 641 3341 
Q 956 3463 1253 3523 
Q 1550 3584 1831 3584 
Q 2591 3584 2966 3190 
Q 3341 2797 3341 1997 
z
" transform="scale(0.015625)"/>
       <path id="DejaVuSans-6c" d="M 603 4863 
L 1178 4863 
L 1178 0 
L 603 0 
L 603 4863 
z
" transform="scale(0.015625)"/>
       <path id="DejaVuSans-75" d="M 544 1381 
L 544 3500 
L 1119 3500 
L 1119 1403 
Q 1119 906 1312 657 
Q 1506 409 1894 409 
Q 2359 409 2629 706 
Q 2900 1003 2900 1516 
L 2900 3500 
L 3475 3500 
L 3475 0 
L 2900 0 
L 2900 538 
Q 2691 219 2414 64 
Q 2138 -91 1772 -91 
Q 1169 -91 856 284 
Q 544 659 544 1381 
z
M 1991 3584 
L 1991 3584 
z
" transform="scale(0.015625)"/>
      </defs>
      <use xlink:href="#DejaVuSans-56"/>
      <use xlink:href="#DejaVuSans-61" transform="translate(60.658203 0)"/>
      <use xlink:href="#DejaVuSans-6c" transform="translate(121.9375 0)"/>
      <use xlink:href="#DejaVuSans-75" transform="translate(149.720703 0)"/>
      <use xlink:href="#DejaVuSans-65" transform="translate(213.099609 0)"/>
     </g>
    </g>
   </g>
   <g id="line2d_21">
    <path d="M 231.972181 177.476813 
L 236.578039 176.999578 
L 238.436266 176.522282 
L 237.751771 175.568762 
L 238.172991 175.093137 
L 239.416697 174.618521 
L 242.278144 173.67209 
L 242.961983 173.19971 
L 243.124113 172.727303 
L 243.140109 172.254426 
L 243.399817 171.780772 
L 244.075216 171.306266 
L 246.88868 169.880725 
L 247.409035 169.406618 
L 248.101849 168.462377 
L 248.63078 167.992118 
L 252.266136 165.640479 
L 253.795466 164.223322 
L 259.546088 160.005658 
L 264.499302 156.260066 
L 271.314294 151.121796 
L 275.033801 148.323241 
L 278.711907 145.518858 
L 282.461182 142.724756 
L 290.436864 136.679424 
L 298.30971 130.671942 
L 326.047954 109.675979 
L 328.504471 109.166867 
L 327.473932 108.714128 
L 326.934149 108.261449 
L 327.341204 107.809162 
L 330.916622 106.456776 
L 331.515662 106.007113 
L 332.176402 104.656937 
L 332.826384 104.206063 
L 335.25411 102.854785 
L 336.153372 101.957734 
L 337.145988 101.062578 
L 339.849301 99.267469 
L 341.915758 97.474954 
L 345.057937 95.242502 
L 347.274917 93.452057 
L 352.584636 89.438045 
L 355.565542 87.214236 
L 357.882368 85.429696 
L 360.148912 83.650682 
L 363.192309 81.429876 
L 365.949188 79.206272 
L 369.556796 76.549484 
L 371.722727 74.777476 
L 375.346588 72.132605 
L 377.451042 70.36927 
L 381.121909 67.737303 
L 383.114234 65.980818 
L 386.912409 63.36444 
L 388.697206 61.611084 
L 390.080195 60.75472 
L 392.27373 59.451069 
L 393.078022 58.561059 
L 393.608161 57.684387 
L 394.061002 57.25842 
L 394.768228 56.838724 
L 398.487273 55.104063 
L 398.441207 54.655429 
L 397.50002 54.234156 
L 395.581149 53.879717 
L 392.779599 53.64078 
L 389.367276 53.568 
L 385.799448 53.704183 
L 382.694392 54.074211 
L 380.743728 54.676615 
L 380.453389 55.479676 
L 381.844826 56.422917 
L 384.369271 57.424553 
L 389.340135 59.247222 
L 390.410347 59.921877 
L 390.155993 60.388809 
L 388.659291 60.657972 
L 383.347089 60.81982 
L 377.249553 61.031479 
L 374.407562 61.348529 
L 372.226707 61.858423 
L 371.356014 62.553217 
L 368.148134 63.499383 
L 380.06592 65.290104 
L 383.161422 66.073628 
L 382.933435 66.704165 
L 380.177983 67.161539 
L 369.630383 67.986063 
L 366.279933 68.69836 
L 364.469084 69.282106 
L 363.539529 70.001734 
L 364.132729 70.809815 
L 366.144449 71.64238 
L 370.694498 73.123912 
L 371.162807 73.683101 
L 369.880595 74.104584 
L 367.285146 74.411709 
L 361.381815 74.879574 
L 359.185525 75.157375 
L 357.624137 75.530123 
L 356.60462 76.022514 
L 356.135775 76.633375 
L 356.309059 77.337011 
L 357.137638 78.089171 
L 359.581104 79.531845 
L 360.201561 80.136205 
L 359.870346 80.63423 
L 358.519497 81.032673 
L 354.0021 81.653724 
L 351.737652 81.963262 
L 349.912217 82.328 
L 348.657461 82.775075 
L 348.00945 83.312993 
L 347.949137 83.930692 
L 348.375042 84.600959 
L 349.775495 85.949582 
L 350.129645 86.55768 
L 349.900428 87.092378 
L 349.006702 87.551269 
L 347.544714 87.948057 
L 342.294863 89.048203 
L 341.020868 89.48229 
L 340.180096 89.978931 
L 339.78596 90.536013 
L 339.780978 91.138826 
L 340.48045 92.975038 
L 340.27104 93.519824 
L 339.617997 94.012113 
L 338.546779 94.457016 
L 333.12423 96.12039 
L 332.23594 96.600069 
L 331.669923 97.121821 
L 331.394607 97.678524 
L 331.247845 99.402375 
L 330.957771 99.940841 
L 330.376368 100.445325 
L 329.501286 100.917096 
L 324.145402 103.172546 
L 323.537848 103.67813 
L 323.124631 104.206996 
L 322.297561 105.83918 
L 321.863943 106.364212 
L 321.25487 106.869003 
L 319.561282 107.822704 
L 316.76143 109.213219 
L 315.379332 110.191646 
L 314.403439 111.220535 
L 312.95913 112.773174 
L 311.631727 113.763633 
L 307.132669 116.642132 
L 304.877766 118.647371 
L 303.013149 120.130835 
L 298.205901 123.515924 
L 295.150888 125.972874 
L 289.889545 129.859891 
L 287.303875 131.808247 
L 283.36871 134.737313 
L 281.505018 136.203299 
L 278.658391 136.750299 
L 279.961354 137.23554 
L 280.587487 137.720468 
L 280.009924 138.205815 
L 275.845373 139.66907 
L 275.31749 140.159181 
L 275.23727 141.13963 
L 274.899418 141.628537 
L 274.1301 142.115884 
L 271.251428 143.568917 
L 270.324142 144.534783 
L 269.893394 145.018579 
L 268.550973 145.989173 
L 266.982102 146.962429 
L 265.817601 147.934389 
L 264.758403 148.90126 
L 262.658737 150.34142 
L 260.699027 151.780281 
L 256.34798 155.156257 
L 253.752832 157.065404 
L 251.164918 158.981997 
L 247.449058 161.860186 
L 242.357902 165.675187 
L 237.30879 169.480004 
L 218.592907 183.6402 
L 213.661415 187.383657 
L 203.214118 195.304153 
L 189.726106 205.536715 
L 187.071494 206.058418 
L 188.29757 206.522397 
L 188.878639 206.986681 
L 188.40119 207.451193 
L 184.580679 208.844181 
L 184.016881 209.307667 
L 183.529429 210.695073 
L 182.828349 211.157036 
L 180.124961 212.542853 
L 179.275539 213.4664 
L 178.912921 213.927707 
L 178.396942 214.388596 
L 174.978074 216.688531 
L 173.423508 218.066232 
L 170.247068 220.357118 
L 167.924047 222.18732 
L 163.716483 225.380822 
L 156.553247 230.841295 
L 151.226146 234.92063 
L 103.648573 271.493619 
L 101.218769 271.991259 
L 102.387333 272.434157 
L 102.937585 272.876953 
L 102.570673 273.319021 
L 100.114692 274.19922 
L 98.955013 274.637556 
L 98.297417 275.07538 
L 98.096306 275.513469 
L 98.062582 275.952395 
L 97.863295 276.392459 
L 97.328676 276.833317 
L 94.836372 278.154 
L 93.93348 279.027603 
L 93.104224 279.898605 
L 89.96447 282.090893 
L 89.185917 282.962798 
L 87.955893 283.827758 
L 85.819859 285.131625 
L 84.969319 286.010476 
L 84.208767 286.885209 
L 82.998839 287.746245 
L 80.145514 289.470517 
L 79.368891 290.354821 
L 78.795358 291.230867 
L 78.345488 291.65799 
L 77.668769 292.078396 
L 73.943339 293.799732 
L 73.832727 294.24957 
L 74.558466 294.682591 
L 76.21536 295.064428 
L 78.692798 295.349747 
L 81.691268 295.488 
L 84.776624 295.432578 
L 87.491058 295.150594 
L 89.405804 294.632575 
L 90.197111 293.898273 
L 89.758873 292.997766 
L 88.299409 292.006278 
L 84.193967 290.109035 
L 82.550206 289.366102 
L 81.802292 288.828052 
L 82.331491 288.49965 
L 84.265525 288.345639 
L 94.702001 288.158501 
L 97.672257 287.901158 
L 99.493105 287.448587 
L 99.886845 286.795974 
L 98.859482 285.978973 
L 96.796639 285.065863 
L 92.315623 283.296556 
L 91.163212 282.594949 
L 91.243959 282.074751 
L 92.652506 281.733613 
L 95.196502 281.531861 
L 101.779481 281.261397 
L 104.719965 281.034052 
L 106.833436 280.662484 
L 107.851625 280.121183 
L 107.681567 279.4209 
L 106.481935 278.605295 
L 101.536966 276.158108 
L 101.12417 275.552634 
L 101.814501 275.101695 
L 103.582048 274.787835 
L 114.102704 273.808752 
L 115.479077 273.34876 
L 115.881504 272.751646 
L 115.374059 272.040168 
L 114.228157 271.260345 
L 111.716755 269.731258 
L 111.154722 269.087474 
L 111.403416 268.564519 
L 112.534783 268.160894 
L 114.437393 267.850043 
L 121.48062 266.992704 
L 123.040565 266.575193 
L 123.815818 266.049788 
L 123.803361 265.424591 
L 123.180825 264.728521 
L 121.407429 263.299317 
L 120.932183 262.654407 
L 121.046672 262.096356 
L 121.839448 261.632247 
L 123.258867 261.249032 
L 130.596739 259.841219 
L 131.544988 259.35549 
L 131.884 258.791637 
L 131.710443 258.16606 
L 130.456124 256.227551 
L 130.576792 255.662241 
L 131.188223 255.16477 
L 132.278696 254.730268 
L 138.351236 253.169028 
L 139.329307 252.698503 
L 139.866137 252.17181 
L 140.008394 251.597424 
L 139.65917 249.792329 
L 139.869948 249.236872 
L 142.516967 248.666729 
L 141.409351 248.206809 
L 141.42439 247.779139 
L 142.743997 247.365775 
L 146.954342 246.504571 
L 148.376698 246.02807 
L 148.819301 245.514263 
L 148.496269 244.968575 
L 147.942337 244.403138 
L 147.69399 243.833615 
L 148.028249 243.275497 
L 148.882493 242.740763 
L 151.902734 241.303446 
L 156.613173 238.444737 
L 157.009767 237.90993 
L 157.425178 236.840594 
L 157.780846 236.322436 
L 158.394934 235.821239 
L 160.236521 234.864986 
L 162.094864 233.934222 
L 163.444739 232.978968 
L 167.964244 228.953417 
L 172.914413 225.573342 
L 174.556062 224.075857 
L 176.547249 222.606558 
L 180.004008 220.187428 
L 184.364369 216.752843 
L 187.734688 214.312785 
L 190.820848 211.85877 
L 195.483067 208.44049 
L 199.260767 205.504514 
L 203.838756 202.103974 
L 208.911117 198.228008 
L 212.789397 195.329112 
L 215.871741 192.916043 
L 220.450734 189.556724 
L 223.518575 187.147599 
L 228.664497 183.321009 
L 233.086256 179.975596 
L 235.62699 178.072897 
L 238.298456 177.53645 
L 238.298456 177.53645 
" clip-path="url(#pa6cbe4ec45)" style="fill: none; stroke: #1f77b4; stroke-width: 1.5; stroke-linecap: square"/>
   </g>
   <g id="line2d_22">
    <path d="M 236.276489 177.476813 
L 266.700304 154.393682 
L 271.056604 151.121796 
L 274.804807 148.323241 
L 279.087868 145.051635 
L 381.440082 67.294965 
L 383.166174 65.980818 
L 385.713536 64.24612 
L 388.883285 61.611084 
L 391.623838 59.891024 
L 392.505611 59.006588 
L 393.24478 58.119034 
L 393.772841 57.684387 
L 395.383884 56.838724 
L 397.196119 55.992965 
L 397.688376 55.554046 
L 397.58778 55.104063 
L 396.72503 54.655429 
L 395.058567 54.234156 
L 392.711721 53.879717 
L 389.973742 53.64078 
L 387.260198 53.568 
L 385.036074 53.704183 
L 383.719198 54.074211 
L 383.582105 54.676615 
L 384.679359 55.479676 
L 386.815872 56.422917 
L 394.596421 59.247222 
L 395.721839 59.921877 
L 395.411421 60.388809 
L 393.602271 60.657972 
L 386.640831 60.81982 
L 379.01724 61.031479 
L 376.473161 61.348529 
L 375.288097 61.858423 
L 375.514881 62.553217 
L 377.15973 63.499383 
L 383.237517 66.073628 
L 383.911712 66.704165 
L 383.337948 67.161539 
L 381.535431 67.461615 
L 375.501632 67.801898 
L 372.262255 67.986063 
L 369.56498 68.270455 
L 367.788623 68.69836 
L 367.107894 69.282106 
L 367.465046 70.001734 
L 368.591215 70.809815 
L 371.434889 72.432405 
L 372.258213 73.123912 
L 372.248841 73.683101 
L 371.302267 74.104584 
L 369.515499 74.411709 
L 362.266871 75.157375 
L 360.473049 75.530123 
L 359.433534 76.022514 
L 359.184989 76.633375 
L 359.593421 77.337011 
L 361.801797 79.531845 
L 361.82478 80.136205 
L 361.178387 80.63423 
L 359.883883 81.032673 
L 356.086673 81.653724 
L 352.513483 82.328 
L 351.403912 82.775075 
L 350.870786 83.312993 
L 350.85168 83.930692 
L 351.915894 85.949582 
L 351.879736 86.55768 
L 351.384896 87.092378 
L 350.41552 87.551269 
L 347.478395 88.308545 
L 344.460456 89.048203 
L 343.368358 89.48229 
L 342.673778 89.978931 
L 342.357337 90.536013 
L 342.318861 91.138826 
L 342.43599 92.38407 
L 342.263869 92.975038 
L 341.785809 93.519824 
L 340.973408 94.012113 
L 338.59438 94.869374 
L 336.071197 95.680778 
L 335.083664 96.12039 
L 334.374111 96.600069 
L 333.934685 97.121821 
L 333.550003 98.25595 
L 333.368585 98.836349 
L 333.04156 99.402375 
L 332.497322 99.940841 
L 331.717705 100.445325 
L 329.644442 101.364448 
L 327.509571 102.239086 
L 326.644924 102.693691 
L 325.97332 103.172546 
L 325.113928 104.206996 
L 324.435171 105.29847 
L 323.970715 105.83918 
L 323.361066 106.364212 
L 321.732344 107.353696 
L 318.274228 109.213219 
L 317.107776 110.191646 
L 315.119493 112.261829 
L 313.724517 113.273895 
L 309.228949 116.152394 
L 305.834825 119.147124 
L 300.262417 123.026265 
L 297.98587 124.993204 
L 295.78157 126.459535 
L 293.578837 127.913429 
L 291.80137 129.372161 
L 290.071549 130.834999 
L 287.964071 132.294664 
L 285.090455 134.247447 
L 278.621622 139.179962 
L 275.957008 141.13963 
L 271.61643 144.534783 
L 267.014385 147.934389 
L 263.276795 150.820416 
L 259.329872 153.711352 
L 254.93211 157.065404 
L 250.423269 160.425873 
L 244.674655 164.718122 
L 232.759152 173.751677 
L 228.306163 177.053513 
L 207.942977 192.513718 
L 96.432812 277.274427 
L 94.160065 279.027603 
L 91.258231 281.212488 
L 89.053362 282.962798 
L 86.022273 285.131625 
L 83.413549 287.317412 
L 80.206099 289.470517 
L 78.546714 291.230867 
L 77.087481 292.078396 
L 75.269306 292.919822 
L 74.635485 293.35377 
L 74.496313 293.799732 
L 75.053033 294.24957 
L 76.405465 294.682591 
L 78.503502 295.064428 
L 81.127635 295.349747 
L 83.909255 295.488 
L 86.39156 295.432578 
L 88.119715 295.150594 
L 88.743125 294.632575 
L 88.10447 293.898273 
L 86.294297 292.997766 
L 80.721257 291.01355 
L 78.13268 290.109035 
L 76.491344 289.366102 
L 76.240571 288.828052 
L 77.563734 288.49965 
L 80.337945 288.345639 
L 92.330175 288.158501 
L 95.353031 287.901158 
L 97.006213 287.448587 
L 97.130915 286.795974 
L 95.884177 285.978973 
L 93.701978 285.065863 
L 89.056051 283.296556 
L 87.838897 282.594949 
L 87.920486 282.074751 
L 89.388743 281.733613 
L 92.04119 281.531861 
L 102.114286 281.034052 
L 104.322397 280.662484 
L 105.342896 280.121183 
L 105.16114 279.4209 
L 104.014223 278.605295 
L 99.437148 276.158108 
L 99.110379 275.552634 
L 99.837322 275.101695 
L 101.567548 274.787835 
L 111.652012 273.808752 
L 112.949872 273.34876 
L 113.32053 272.751646 
L 112.870354 272.040168 
L 109.823071 269.731258 
L 109.500352 269.087474 
L 109.957408 268.564519 
L 111.216463 268.160894 
L 115.40007 267.58682 
L 119.634974 266.992704 
L 120.994633 266.575193 
L 121.642487 266.049788 
L 121.616237 265.424591 
L 121.097564 264.728521 
L 119.738854 263.299317 
L 119.492379 262.654407 
L 119.812003 262.096356 
L 120.751516 261.632247 
L 122.228213 261.249032 
L 127.655976 260.249123 
L 128.966582 259.841219 
L 129.75902 259.35549 
L 130.034237 258.791637 
L 129.906177 258.16606 
L 129.264263 256.850534 
L 129.1998 256.227551 
L 129.531469 255.662241 
L 130.317802 255.16477 
L 131.513945 254.730268 
L 137.159878 253.169028 
L 137.952398 252.698503 
L 138.361787 252.17181 
L 138.466434 251.597424 
L 138.364798 250.384056 
L 138.493881 249.792329 
L 138.912485 249.236872 
L 139.781166 248.666729 
L 142.131279 247.779139 
L 144.638366 246.946741 
L 145.61996 246.504571 
L 146.325223 246.02807 
L 146.763436 245.514263 
L 147.159997 244.403138 
L 147.353633 243.833615 
L 147.692876 243.275497 
L 148.244522 242.740763 
L 149.021467 242.235455 
L 151.049002 241.303446 
L 153.098233 240.411474 
L 154.559742 239.470484 
L 155.399689 238.444737 
L 156.111907 237.372115 
L 156.600254 236.840594 
L 158.00027 235.821239 
L 162.267142 233.462 
L 163.379666 232.48385 
L 165.293454 230.439644 
L 166.705206 229.439796 
L 170.670309 227.044263 
L 171.786949 226.069321 
L 173.861709 224.075857 
L 175.298779 223.091938 
L 179.113907 220.675329 
L 180.732424 219.20406 
L 181.829171 218.218657 
L 183.179792 217.23964 
L 187.597278 214.312785 
L 191.79559 210.885594 
L 195.996914 207.948228 
L 200.271544 204.53637 
L 204.943131 201.126926 
L 208.610877 198.228008 
L 213.237456 194.843412 
L 216.31787 192.438369 
L 221.533027 188.588869 
L 225.322876 185.717636 
L 230.434919 181.881147 
L 236.197674 177.53645 
L 236.197674 177.53645 
" clip-path="url(#pa6cbe4ec45)" style="fill: none; stroke: #ff7f0e; stroke-opacity: 0.5; stroke-width: 1.5; stroke-linecap: square"/>
   </g>
   <g id="patch_3">
    <path d="M 57.6 307.584 
L 57.6 41.472 
" style="fill: none; stroke: #000000; stroke-width: 0.8; stroke-linejoin: miter; stroke-linecap: square"/>
   </g>
   <g id="patch_4">
    <path d="M 414.72 307.584 
L 414.72 41.472 
" style="fill: none; stroke: #000000; stroke-width: 0.8; stroke-linejoin: miter; stroke-linecap: square"/>
   </g>
   <g id="patch_5">
    <path d="M 57.6 307.584 
L 414.72 307.584 
" style="fill: none; stroke: #000000; stroke-width: 0.8; stroke-linejoin: miter; stroke-linecap: square"/>
   </g>
   <g id="patch_6">
    <path d="M 57.6 41.472 
L 414.72 41.472 
" style="fill: none; stroke: #000000; stroke-width: 0.8; stroke-linejoin: miter; stroke-linecap: square"/>
   </g>
   <g id="text_13">
    <!-- Compare - Epoch 2400 -->
    <g transform="translate(167.416875 35.472) scale(0.12 -0.12)">
     <defs>
      <path id="DejaVuSans-43" d="M 4122 4306 
L 4122 3641 
Q 3803 3938 3442 4084 
Q 3081 4231 2675 4231 
Q 1875 4231 1450 3742 
Q 1025 3253 1025 2328 
Q 1025 1406 1450 917 
Q 1875 428 2675 428 
Q 3081 428 3442 575 
Q 3803 722 4122 1019 
L 4122 359 
Q 3791 134 3420 21 
Q 3050 -91 2638 -91 
Q 1578 -91 968 557 
Q 359 1206 359 2328 
Q 359 3453 968 4101 
Q 1578 4750 2638 4750 
Q 3056 4750 3426 4639 
Q 3797 4528 4122 4306 
z
" transform="scale(0.015625)"/>
      <path id="DejaVuSans-6f" d="M 1959 3097 
Q 1497 3097 1228 2736 
Q 959 2375 959 1747 
Q 959 1119 1226 758 
Q 1494 397 1959 397 
Q 2419 397 2687 759 
Q 2956 1122 2956 1747 
Q 2956 2369 2687 2733 
Q 2419 3097 1959 3097 
z
M 1959 3584 
Q 2709 3584 3137 3096 
Q 3566 2609 3566 1747 
Q 3566 888 3137 398 
Q 2709 -91 1959 -91 
Q 1206 -91 779 398 
Q 353 888 353 1747 
Q 353 2609 779 3096 
Q 1206 3584 1959 3584 
z
" transform="scale(0.015625)"/>
      <path id="DejaVuSans-6d" d="M 3328 2828 
Q 3544 3216 3844 3400 
Q 4144 3584 4550 3584 
Q 5097 3584 5394 3201 
Q 5691 2819 5691 2113 
L 5691 0 
L 5113 0 
L 5113 2094 
Q 5113 2597 4934 2840 
Q 4756 3084 4391 3084 
Q 3944 3084 3684 2787 
Q 3425 2491 3425 1978 
L 3425 0 
L 2847 0 
L 2847 2094 
Q 2847 2600 2669 2842 
Q 2491 3084 2119 3084 
Q 1678 3084 1418 2786 
Q 1159 2488 1159 1978 
L 1159 0 
L 581 0 
L 581 3500 
L 1159 3500 
L 1159 2956 
Q 1356 3278 1631 3431 
Q 1906 3584 2284 3584 
Q 2666 3584 2933 3390 
Q 3200 3197 3328 2828 
z
" transform="scale(0.015625)"/>
      <path id="DejaVuSans-70" d="M 1159 525 
L 1159 -1331 
L 581 -1331 
L 581 3500 
L 1159 3500 
L 1159 2969 
Q 1341 3281 1617 3432 
Q 1894 3584 2278 3584 
Q 2916 3584 3314 3078 
Q 3713 2572 3713 1747 
Q 3713 922 3314 415 
Q 2916 -91 2278 -91 
Q 1894 -91 1617 61 
Q 1341 213 1159 525 
z
M 3116 1747 
Q 3116 2381 2855 2742 
Q 2594 3103 2138 3103 
Q 1681 3103 1420 2742 
Q 1159 2381 1159 1747 
Q 1159 1113 1420 752 
Q 1681 391 2138 391 
Q 2594 391 2855 752 
Q 3116 1113 3116 1747 
z
" transform="scale(0.015625)"/>
      <path id="DejaVuSans-72" d="M 2631 2963 
Q 2534 3019 2420 3045 
Q 2306 3072 2169 3072 
Q 1681 3072 1420 2755 
Q 1159 2438 1159 1844 
L 1159 0 
L 581 0 
L 581 3500 
L 1159 3500 
L 1159 2956 
Q 1341 3275 1631 3429 
Q 1922 3584 2338 3584 
Q 2397 3584 2469 3576 
Q 2541 3569 2628 3553 
L 2631 2963 
z
" transform="scale(0.015625)"/>
      <path id="DejaVuSans-20" transform="scale(0.015625)"/>
      <path id="DejaVuSans-2d" d="M 313 2009 
L 1997 2009 
L 1997 1497 
L 313 1497 
L 313 2009 
z
" transform="scale(0.015625)"/>
      <path id="DejaVuSans-45" d="M 628 4666 
L 3578 4666 
L 3578 4134 
L 1259 4134 
L 1259 2753 
L 3481 2753 
L 3481 2222 
L 1259 2222 
L 1259 531 
L 3634 531 
L 3634 0 
L 628 0 
L 628 4666 
z
" transform="scale(0.015625)"/>
      <path id="DejaVuSans-63" d="M 3122 3366 
L 3122 2828 
Q 2878 2963 2633 3030 
Q 2388 3097 2138 3097 
Q 1578 3097 1268 2742 
Q 959 2388 959 1747 
Q 959 1106 1268 751 
Q 1578 397 2138 397 
Q 2388 397 2633 464 
Q 2878 531 3122 666 
L 3122 134 
Q 2881 22 2623 -34 
Q 2366 -91 2075 -91 
Q 1284 -91 818 406 
Q 353 903 353 1747 
Q 353 2603 823 3093 
Q 1294 3584 2113 3584 
Q 2378 3584 2631 3529 
Q 2884 3475 3122 3366 
z
" transform="scale(0.015625)"/>
      <path id="DejaVuSans-68" d="M 3513 2113 
L 3513 0 
L 2938 0 
L 2938 2094 
Q 2938 2591 2744 2837 
Q 2550 3084 2163 3084 
Q 1697 3084 1428 2787 
Q 1159 2491 1159 1978 
L 1159 0 
L 581 0 
L 581 4863 
L 1159 4863 
L 1159 2956 
Q 1366 3272 1645 3428 
Q 1925 3584 2291 3584 
Q 2894 3584 3203 3211 
Q 3513 2838 3513 2113 
z
" transform="scale(0.015625)"/>
      <path id="DejaVuSans-32" d="M 1228 531 
L 3431 531 
L 3431 0 
L 469 0 
L 469 531 
Q 828 903 1448 1529 
Q 2069 2156 2228 2338 
Q 2531 2678 2651 2914 
Q 2772 3150 2772 3378 
Q 2772 3750 2511 3984 
Q 2250 4219 1831 4219 
Q 1534 4219 1204 4116 
Q 875 4013 500 3803 
L 500 4441 
Q 881 4594 1212 4672 
Q 1544 4750 1819 4750 
Q 2544 4750 2975 4387 
Q 3406 4025 3406 3419 
Q 3406 3131 3298 2873 
Q 3191 2616 2906 2266 
Q 2828 2175 2409 1742 
Q 1991 1309 1228 531 
z
" transform="scale(0.015625)"/>
      <path id="DejaVuSans-34" d="M 2419 4116 
L 825 1625 
L 2419 1625 
L 2419 4116 
z
M 2253 4666 
L 3047 4666 
L 3047 1625 
L 3713 1625 
L 3713 1100 
L 3047 1100 
L 3047 0 
L 2419 0 
L 2419 1100 
L 313 1100 
L 313 1709 
L 2253 4666 
z
" transform="scale(0.015625)"/>
     </defs>
     <use xlink:href="#DejaVuSans-43"/>
     <use xlink:href="#DejaVuSans-6f" transform="translate(69.824219 0)"/>
     <use xlink:href="#DejaVuSans-6d" transform="translate(131.005859 0)"/>
     <use xlink:href="#DejaVuSans-70" transform="translate(228.417969 0)"/>
     <use xlink:href="#DejaVuSans-61" transform="translate(291.894531 0)"/>
     <use xlink:href="#DejaVuSans-72" transform="translate(353.173828 0)"/>
     <use xlink:href="#DejaVuSans-65" transform="translate(392.037109 0)"/>
     <use xlink:href="#DejaVuSans-20" transform="translate(453.560547 0)"/>
     <use xlink:href="#DejaVuSans-2d" transform="translate(485.347656 0)"/>
     <use xlink:href="#DejaVuSans-20" transform="translate(521.431641 0)"/>
     <use xlink:href="#DejaVuSans-45" transform="translate(553.21875 0)"/>
     <use xlink:href="#DejaVuSans-70" transform="translate(616.402344 0)"/>
     <use xlink:href="#DejaVuSans-6f" transform="translate(679.878906 0)"/>
     <use xlink:href="#DejaVuSans-63" transform="translate(741.060547 0)"/>
     <use xlink:href="#DejaVuSans-68" transform="translate(796.041016 0)"/>
     <use xlink:href="#DejaVuSans-20" transform="translate(859.419922 0)"/>
     <use xlink:href="#DejaVuSans-32" transform="translate(891.207031 0)"/>
     <use xlink:href="#DejaVuSans-34" transform="translate(954.830078 0)"/>
     <use xlink:href="#DejaVuSans-30" transform="translate(1018.453125 0)"/>
     <use xlink:href="#DejaVuSans-30" transform="translate(1082.076172 0)"/>
    </g>
   </g>
   <g id="legend_1">
    <g id="patch_7">
     <path d="M 64.6 78.82825 
L 181.128125 78.82825 
Q 183.128125 78.82825 183.128125 76.82825 
L 183.128125 48.472 
Q 183.128125 46.472 181.128125 46.472 
L 64.6 46.472 
Q 62.6 46.472 62.6 48.472 
L 62.6 76.82825 
Q 62.6 78.82825 64.6 78.82825 
z
" style="fill: #ffffff; opacity: 0.8; stroke: #cccccc; stroke-linejoin: miter"/>
    </g>
    <g id="line2d_23">
     <path d="M 66.6 54.570437 
L 76.6 54.570437 
L 86.6 54.570437 
" style="fill: none; stroke: #1f77b4; stroke-width: 1.5; stroke-linecap: square"/>
    </g>
    <g id="text_14">
     <!-- Pred: Sample 1 -->
     <g transform="translate(94.6 58.070437) scale(0.1 -0.1)">
      <defs>
       <path id="DejaVuSans-50" d="M 1259 4147 
L 1259 2394 
L 2053 2394 
Q 2494 2394 2734 2622 
Q 2975 2850 2975 3272 
Q 2975 3691 2734 3919 
Q 2494 4147 2053 4147 
L 1259 4147 
z
M 628 4666 
L 2053 4666 
Q 2838 4666 3239 4311 
Q 3641 3956 3641 3272 
Q 3641 2581 3239 2228 
Q 2838 1875 2053 1875 
L 1259 1875 
L 1259 0 
L 628 0 
L 628 4666 
z
" transform="scale(0.015625)"/>
       <path id="DejaVuSans-3a" d="M 750 794 
L 1409 794 
L 1409 0 
L 750 0 
L 750 794 
z
M 750 3309 
L 1409 3309 
L 1409 2516 
L 750 2516 
L 750 3309 
z
" transform="scale(0.015625)"/>
       <path id="DejaVuSans-53" d="M 3425 4513 
L 3425 3897 
Q 3066 4069 2747 4153 
Q 2428 4238 2131 4238 
Q 1616 4238 1336 4038 
Q 1056 3838 1056 3469 
Q 1056 3159 1242 3001 
Q 1428 2844 1947 2747 
L 2328 2669 
Q 3034 2534 3370 2195 
Q 3706 1856 3706 1288 
Q 3706 609 3251 259 
Q 2797 -91 1919 -91 
Q 1588 -91 1214 -16 
Q 841 59 441 206 
L 441 856 
Q 825 641 1194 531 
Q 1563 422 1919 422 
Q 2459 422 2753 634 
Q 3047 847 3047 1241 
Q 3047 1584 2836 1778 
Q 2625 1972 2144 2069 
L 1759 2144 
Q 1053 2284 737 2584 
Q 422 2884 422 3419 
Q 422 4038 858 4394 
Q 1294 4750 2059 4750 
Q 2388 4750 2728 4690 
Q 3069 4631 3425 4513 
z
" transform="scale(0.015625)"/>
      </defs>
      <use xlink:href="#DejaVuSans-50"/>
      <use xlink:href="#DejaVuSans-72" transform="translate(58.552734 0)"/>
      <use xlink:href="#DejaVuSans-65" transform="translate(97.416016 0)"/>
      <use xlink:href="#DejaVuSans-64" transform="translate(158.939453 0)"/>
      <use xlink:href="#DejaVuSans-3a" transform="translate(222.416016 0)"/>
      <use xlink:href="#DejaVuSans-20" transform="translate(256.107422 0)"/>
      <use xlink:href="#DejaVuSans-53" transform="translate(287.894531 0)"/>
      <use xlink:href="#DejaVuSans-61" transform="translate(351.371094 0)"/>
      <use xlink:href="#DejaVuSans-6d" transform="translate(412.650391 0)"/>
      <use xlink:href="#DejaVuSans-70" transform="translate(510.0625 0)"/>
      <use xlink:href="#DejaVuSans-6c" transform="translate(573.539062 0)"/>
      <use xlink:href="#DejaVuSans-65" transform="translate(601.322266 0)"/>
      <use xlink:href="#DejaVuSans-20" transform="translate(662.845703 0)"/>
      <use xlink:href="#DejaVuSans-31" transform="translate(694.632812 0)"/>
     </g>
    </g>
    <g id="line2d_24">
     <path d="M 66.6 69.248562 
L 76.6 69.248562 
L 86.6 69.248562 
" style="fill: none; stroke: #ff7f0e; stroke-opacity: 0.5; stroke-width: 1.5; stroke-linecap: square"/>
    </g>
    <g id="text_15">
     <!-- Target: Sample 1 -->
     <g transform="translate(94.6 72.748562) scale(0.1 -0.1)">
      <defs>
       <path id="DejaVuSans-54" d="M -19 4666 
L 3928 4666 
L 3928 4134 
L 2272 4134 
L 2272 0 
L 1638 0 
L 1638 4134 
L -19 4134 
L -19 4666 
z
" transform="scale(0.015625)"/>
       <path id="DejaVuSans-67" d="M 2906 1791 
Q 2906 2416 2648 2759 
Q 2391 3103 1925 3103 
Q 1463 3103 1205 2759 
Q 947 2416 947 1791 
Q 947 1169 1205 825 
Q 1463 481 1925 481 
Q 2391 481 2648 825 
Q 2906 1169 2906 1791 
z
M 3481 434 
Q 3481 -459 3084 -895 
Q 2688 -1331 1869 -1331 
Q 1566 -1331 1297 -1286 
Q 1028 -1241 775 -1147 
L 775 -588 
Q 1028 -725 1275 -790 
Q 1522 -856 1778 -856 
Q 2344 -856 2625 -561 
Q 2906 -266 2906 331 
L 2906 616 
Q 2728 306 2450 153 
Q 2172 0 1784 0 
Q 1141 0 747 490 
Q 353 981 353 1791 
Q 353 2603 747 3093 
Q 1141 3584 1784 3584 
Q 2172 3584 2450 3431 
Q 2728 3278 2906 2969 
L 2906 3500 
L 3481 3500 
L 3481 434 
z
" transform="scale(0.015625)"/>
       <path id="DejaVuSans-74" d="M 1172 4494 
L 1172 3500 
L 2356 3500 
L 2356 3053 
L 1172 3053 
L 1172 1153 
Q 1172 725 1289 603 
Q 1406 481 1766 481 
L 2356 481 
L 2356 0 
L 1766 0 
Q 1100 0 847 248 
Q 594 497 594 1153 
L 594 3053 
L 172 3053 
L 172 3500 
L 594 3500 
L 594 4494 
L 1172 4494 
z
" transform="scale(0.015625)"/>
      </defs>
      <use xlink:href="#DejaVuSans-54"/>
      <use xlink:href="#DejaVuSans-61" transform="translate(44.583984 0)"/>
      <use xlink:href="#DejaVuSans-72" transform="translate(105.863281 0)"/>
      <use xlink:href="#DejaVuSans-67" transform="translate(145.226562 0)"/>
      <use xlink:href="#DejaVuSans-65" transform="translate(208.703125 0)"/>
      <use xlink:href="#DejaVuSans-74" transform="translate(270.226562 0)"/>
      <use xlink:href="#DejaVuSans-3a" transform="translate(309.435547 0)"/>
      <use xlink:href="#DejaVuSans-20" transform="translate(343.126953 0)"/>
      <use xlink:href="#DejaVuSans-53" transform="translate(374.914062 0)"/>
      <use xlink:href="#DejaVuSans-61" transform="translate(438.390625 0)"/>
      <use xlink:href="#DejaVuSans-6d" transform="translate(499.669922 0)"/>
      <use xlink:href="#DejaVuSans-70" transform="translate(597.082031 0)"/>
      <use xlink:href="#DejaVuSans-6c" transform="translate(660.558594 0)"/>
      <use xlink:href="#DejaVuSans-65" transform="translate(688.341797 0)"/>
      <use xlink:href="#DejaVuSans-20" transform="translate(749.865234 0)"/>
      <use xlink:href="#DejaVuSans-31" transform="translate(781.652344 0)"/>
     </g>
    </g>
   </g>
  </g>
 </g>
 <defs>
  <clipPath id="pa6cbe4ec45">
   <rect x="57.6" y="41.472" width="357.12" height="266.112"/>
  </clipPath>
 </defs>
</svg>
