<?xml version="1.0" encoding="utf-8" standalone="no"?>
<!DOCTYPE svg PUBLIC "-//W3C//DTD SVG 1.1//EN"
  "http://www.w3.org/Graphics/SVG/1.1/DTD/svg11.dtd">
<svg xmlns:xlink="http://www.w3.org/1999/xlink" width="460.8pt" height="345.6pt" viewBox="0 0 460.8 345.6" xmlns="http://www.w3.org/2000/svg" version="1.1">
 <metadata>
  <rdf:RDF xmlns:dc="http://purl.org/dc/elements/1.1/" xmlns:cc="http://creativecommons.org/ns#" xmlns:rdf="http://www.w3.org/1999/02/22-rdf-syntax-ns#">
   <cc:Work>
    <dc:type rdf:resource="http://purl.org/dc/dcmitype/StillImage"/>
    <dc:date>2025-04-15T22:46:03.791790</dc:date>
    <dc:format>image/svg+xml</dc:format>
    <dc:creator>
     <cc:Agent>
      <dc:title>Matplotlib v3.10.0, https://matplotlib.org/</dc:title>
     </cc:Agent>
    </dc:creator>
   </cc:Work>
  </rdf:RDF>
 </metadata>
 <defs>
  <style type="text/css">*{stroke-linejoin: round; stroke-linecap: butt}</style>
 </defs>
 <g id="figure_1">
  <g id="patch_1">
   <path d="M 0 345.6 
L 460.8 345.6 
L 460.8 0 
L 0 0 
z
" style="fill: #ffffff"/>
  </g>
  <g id="axes_1">
   <g id="patch_2">
    <path d="M 57.6 307.584 
L 414.72 307.584 
L 414.72 41.472 
L 57.6 41.472 
z
" style="fill: #ffffff"/>
   </g>
   <g id="matplotlib.axis_1">
    <g id="xtick_1">
     <g id="line2d_1">
      <path d="M 97.004706 307.584 
L 97.004706 41.472 
" clip-path="url(#pb3e07795dd)" style="fill: none; stroke: #b0b0b0; stroke-opacity: 0.5; stroke-width: 0.8; stroke-linecap: square"/>
     </g>
     <g id="line2d_2">
      <defs>
       <path id="mae01012854" d="M 0 0 
L 0 3.5 
" style="stroke: #000000; stroke-width: 0.8"/>
      </defs>
      <g>
       <use xlink:href="#mae01012854" x="97.004706" y="307.584" style="stroke: #000000; stroke-width: 0.8"/>
      </g>
     </g>
     <g id="text_1">
      <!-- −1.0 -->
      <g transform="translate(84.8633 322.182437) scale(0.1 -0.1)">
       <defs>
        <path id="DejaVuSans-2212" d="M 678 2272 
L 4684 2272 
L 4684 1741 
L 678 1741 
L 678 2272 
z
" transform="scale(0.015625)"/>
        <path id="DejaVuSans-31" d="M 794 531 
L 1825 531 
L 1825 4091 
L 703 3866 
L 703 4441 
L 1819 4666 
L 2450 4666 
L 2450 531 
L 3481 531 
L 3481 0 
L 794 0 
L 794 531 
z
" transform="scale(0.015625)"/>
        <path id="DejaVuSans-2e" d="M 684 794 
L 1344 794 
L 1344 0 
L 684 0 
L 684 794 
z
" transform="scale(0.015625)"/>
        <path id="DejaVuSans-30" d="M 2034 4250 
Q 1547 4250 1301 3770 
Q 1056 3291 1056 2328 
Q 1056 1369 1301 889 
Q 1547 409 2034 409 
Q 2525 409 2770 889 
Q 3016 1369 3016 2328 
Q 3016 3291 2770 3770 
Q 2525 4250 2034 4250 
z
M 2034 4750 
Q 2819 4750 3233 4129 
Q 3647 3509 3647 2328 
Q 3647 1150 3233 529 
Q 2819 -91 2034 -91 
Q 1250 -91 836 529 
Q 422 1150 422 2328 
Q 422 3509 836 4129 
Q 1250 4750 2034 4750 
z
" transform="scale(0.015625)"/>
       </defs>
       <use xlink:href="#DejaVuSans-2212"/>
       <use xlink:href="#DejaVuSans-31" transform="translate(83.789062 0)"/>
       <use xlink:href="#DejaVuSans-2e" transform="translate(147.412109 0)"/>
       <use xlink:href="#DejaVuSans-30" transform="translate(179.199219 0)"/>
      </g>
     </g>
    </g>
    <g id="xtick_2">
     <g id="line2d_3">
      <path d="M 166.28133 307.584 
L 166.28133 41.472 
" clip-path="url(#pb3e07795dd)" style="fill: none; stroke: #b0b0b0; stroke-opacity: 0.5; stroke-width: 0.8; stroke-linecap: square"/>
     </g>
     <g id="line2d_4">
      <g>
       <use xlink:href="#mae01012854" x="166.28133" y="307.584" style="stroke: #000000; stroke-width: 0.8"/>
      </g>
     </g>
     <g id="text_2">
      <!-- −0.5 -->
      <g transform="translate(154.139923 322.182437) scale(0.1 -0.1)">
       <defs>
        <path id="DejaVuSans-35" d="M 691 4666 
L 3169 4666 
L 3169 4134 
L 1269 4134 
L 1269 2991 
Q 1406 3038 1543 3061 
Q 1681 3084 1819 3084 
Q 2600 3084 3056 2656 
Q 3513 2228 3513 1497 
Q 3513 744 3044 326 
Q 2575 -91 1722 -91 
Q 1428 -91 1123 -41 
Q 819 9 494 109 
L 494 744 
Q 775 591 1075 516 
Q 1375 441 1709 441 
Q 2250 441 2565 725 
Q 2881 1009 2881 1497 
Q 2881 1984 2565 2268 
Q 2250 2553 1709 2553 
Q 1456 2553 1204 2497 
Q 953 2441 691 2322 
L 691 4666 
z
" transform="scale(0.015625)"/>
       </defs>
       <use xlink:href="#DejaVuSans-2212"/>
       <use xlink:href="#DejaVuSans-30" transform="translate(83.789062 0)"/>
       <use xlink:href="#DejaVuSans-2e" transform="translate(147.412109 0)"/>
       <use xlink:href="#DejaVuSans-35" transform="translate(179.199219 0)"/>
      </g>
     </g>
    </g>
    <g id="xtick_3">
     <g id="line2d_5">
      <path d="M 235.557953 307.584 
L 235.557953 41.472 
" clip-path="url(#pb3e07795dd)" style="fill: none; stroke: #b0b0b0; stroke-opacity: 0.5; stroke-width: 0.8; stroke-linecap: square"/>
     </g>
     <g id="line2d_6">
      <g>
       <use xlink:href="#mae01012854" x="235.557953" y="307.584" style="stroke: #000000; stroke-width: 0.8"/>
      </g>
     </g>
     <g id="text_3">
      <!-- 0.0 -->
      <g transform="translate(227.606391 322.182437) scale(0.1 -0.1)">
       <use xlink:href="#DejaVuSans-30"/>
       <use xlink:href="#DejaVuSans-2e" transform="translate(63.623047 0)"/>
       <use xlink:href="#DejaVuSans-30" transform="translate(95.410156 0)"/>
      </g>
     </g>
    </g>
    <g id="xtick_4">
     <g id="line2d_7">
      <path d="M 304.834577 307.584 
L 304.834577 41.472 
" clip-path="url(#pb3e07795dd)" style="fill: none; stroke: #b0b0b0; stroke-opacity: 0.5; stroke-width: 0.8; stroke-linecap: square"/>
     </g>
     <g id="line2d_8">
      <g>
       <use xlink:href="#mae01012854" x="304.834577" y="307.584" style="stroke: #000000; stroke-width: 0.8"/>
      </g>
     </g>
     <g id="text_4">
      <!-- 0.5 -->
      <g transform="translate(296.883014 322.182437) scale(0.1 -0.1)">
       <use xlink:href="#DejaVuSans-30"/>
       <use xlink:href="#DejaVuSans-2e" transform="translate(63.623047 0)"/>
       <use xlink:href="#DejaVuSans-35" transform="translate(95.410156 0)"/>
      </g>
     </g>
    </g>
    <g id="xtick_5">
     <g id="line2d_9">
      <path d="M 374.1112 307.584 
L 374.1112 41.472 
" clip-path="url(#pb3e07795dd)" style="fill: none; stroke: #b0b0b0; stroke-opacity: 0.5; stroke-width: 0.8; stroke-linecap: square"/>
     </g>
     <g id="line2d_10">
      <g>
       <use xlink:href="#mae01012854" x="374.1112" y="307.584" style="stroke: #000000; stroke-width: 0.8"/>
      </g>
     </g>
     <g id="text_5">
      <!-- 1.0 -->
      <g transform="translate(366.159638 322.182437) scale(0.1 -0.1)">
       <use xlink:href="#DejaVuSans-31"/>
       <use xlink:href="#DejaVuSans-2e" transform="translate(63.623047 0)"/>
       <use xlink:href="#DejaVuSans-30" transform="translate(95.410156 0)"/>
      </g>
     </g>
    </g>
    <g id="text_6">
     <!-- Index -->
     <g transform="translate(222.393594 335.860562) scale(0.1 -0.1)">
      <defs>
       <path id="DejaVuSans-49" d="M 628 4666 
L 1259 4666 
L 1259 0 
L 628 0 
L 628 4666 
z
" transform="scale(0.015625)"/>
       <path id="DejaVuSans-6e" d="M 3513 2113 
L 3513 0 
L 2938 0 
L 2938 2094 
Q 2938 2591 2744 2837 
Q 2550 3084 2163 3084 
Q 1697 3084 1428 2787 
Q 1159 2491 1159 1978 
L 1159 0 
L 581 0 
L 581 3500 
L 1159 3500 
L 1159 2956 
Q 1366 3272 1645 3428 
Q 1925 3584 2291 3584 
Q 2894 3584 3203 3211 
Q 3513 2838 3513 2113 
z
" transform="scale(0.015625)"/>
       <path id="DejaVuSans-64" d="M 2906 2969 
L 2906 4863 
L 3481 4863 
L 3481 0 
L 2906 0 
L 2906 525 
Q 2725 213 2448 61 
Q 2172 -91 1784 -91 
Q 1150 -91 751 415 
Q 353 922 353 1747 
Q 353 2572 751 3078 
Q 1150 3584 1784 3584 
Q 2172 3584 2448 3432 
Q 2725 3281 2906 2969 
z
M 947 1747 
Q 947 1113 1208 752 
Q 1469 391 1925 391 
Q 2381 391 2643 752 
Q 2906 1113 2906 1747 
Q 2906 2381 2643 2742 
Q 2381 3103 1925 3103 
Q 1469 3103 1208 2742 
Q 947 2381 947 1747 
z
" transform="scale(0.015625)"/>
       <path id="DejaVuSans-65" d="M 3597 1894 
L 3597 1613 
L 953 1613 
Q 991 1019 1311 708 
Q 1631 397 2203 397 
Q 2534 397 2845 478 
Q 3156 559 3463 722 
L 3463 178 
Q 3153 47 2828 -22 
Q 2503 -91 2169 -91 
Q 1331 -91 842 396 
Q 353 884 353 1716 
Q 353 2575 817 3079 
Q 1281 3584 2069 3584 
Q 2775 3584 3186 3129 
Q 3597 2675 3597 1894 
z
M 3022 2063 
Q 3016 2534 2758 2815 
Q 2500 3097 2075 3097 
Q 1594 3097 1305 2825 
Q 1016 2553 972 2059 
L 3022 2063 
z
" transform="scale(0.015625)"/>
       <path id="DejaVuSans-78" d="M 3513 3500 
L 2247 1797 
L 3578 0 
L 2900 0 
L 1881 1375 
L 863 0 
L 184 0 
L 1544 1831 
L 300 3500 
L 978 3500 
L 1906 2253 
L 2834 3500 
L 3513 3500 
z
" transform="scale(0.015625)"/>
      </defs>
      <use xlink:href="#DejaVuSans-49"/>
      <use xlink:href="#DejaVuSans-6e" transform="translate(29.492188 0)"/>
      <use xlink:href="#DejaVuSans-64" transform="translate(92.871094 0)"/>
      <use xlink:href="#DejaVuSans-65" transform="translate(156.347656 0)"/>
      <use xlink:href="#DejaVuSans-78" transform="translate(216.121094 0)"/>
     </g>
    </g>
   </g>
   <g id="matplotlib.axis_2">
    <g id="ytick_1">
     <g id="line2d_11">
      <path d="M 57.6 275.686072 
L 414.72 275.686072 
" clip-path="url(#pb3e07795dd)" style="fill: none; stroke: #b0b0b0; stroke-opacity: 0.5; stroke-width: 0.8; stroke-linecap: square"/>
     </g>
     <g id="line2d_12">
      <defs>
       <path id="m865bd75a60" d="M 0 0 
L -3.5 0 
" style="stroke: #000000; stroke-width: 0.8"/>
      </defs>
      <g>
       <use xlink:href="#m865bd75a60" x="57.6" y="275.686072" style="stroke: #000000; stroke-width: 0.8"/>
      </g>
     </g>
     <g id="text_7">
      <!-- −1.0 -->
      <g transform="translate(26.317187 279.485291) scale(0.1 -0.1)">
       <use xlink:href="#DejaVuSans-2212"/>
       <use xlink:href="#DejaVuSans-31" transform="translate(83.789062 0)"/>
       <use xlink:href="#DejaVuSans-2e" transform="translate(147.412109 0)"/>
       <use xlink:href="#DejaVuSans-30" transform="translate(179.199219 0)"/>
      </g>
     </g>
    </g>
    <g id="ytick_2">
     <g id="line2d_13">
      <path d="M 57.6 225.196158 
L 414.72 225.196158 
" clip-path="url(#pb3e07795dd)" style="fill: none; stroke: #b0b0b0; stroke-opacity: 0.5; stroke-width: 0.8; stroke-linecap: square"/>
     </g>
     <g id="line2d_14">
      <g>
       <use xlink:href="#m865bd75a60" x="57.6" y="225.196158" style="stroke: #000000; stroke-width: 0.8"/>
      </g>
     </g>
     <g id="text_8">
      <!-- −0.5 -->
      <g transform="translate(26.317187 228.995376) scale(0.1 -0.1)">
       <use xlink:href="#DejaVuSans-2212"/>
       <use xlink:href="#DejaVuSans-30" transform="translate(83.789062 0)"/>
       <use xlink:href="#DejaVuSans-2e" transform="translate(147.412109 0)"/>
       <use xlink:href="#DejaVuSans-35" transform="translate(179.199219 0)"/>
      </g>
     </g>
    </g>
    <g id="ytick_3">
     <g id="line2d_15">
      <path d="M 57.6 174.706243 
L 414.72 174.706243 
" clip-path="url(#pb3e07795dd)" style="fill: none; stroke: #b0b0b0; stroke-opacity: 0.5; stroke-width: 0.8; stroke-linecap: square"/>
     </g>
     <g id="line2d_16">
      <g>
       <use xlink:href="#m865bd75a60" x="57.6" y="174.706243" style="stroke: #000000; stroke-width: 0.8"/>
      </g>
     </g>
     <g id="text_9">
      <!-- 0.0 -->
      <g transform="translate(34.696875 178.505461) scale(0.1 -0.1)">
       <use xlink:href="#DejaVuSans-30"/>
       <use xlink:href="#DejaVuSans-2e" transform="translate(63.623047 0)"/>
       <use xlink:href="#DejaVuSans-30" transform="translate(95.410156 0)"/>
      </g>
     </g>
    </g>
    <g id="ytick_4">
     <g id="line2d_17">
      <path d="M 57.6 124.216328 
L 414.72 124.216328 
" clip-path="url(#pb3e07795dd)" style="fill: none; stroke: #b0b0b0; stroke-opacity: 0.5; stroke-width: 0.8; stroke-linecap: square"/>
     </g>
     <g id="line2d_18">
      <g>
       <use xlink:href="#m865bd75a60" x="57.6" y="124.216328" style="stroke: #000000; stroke-width: 0.8"/>
      </g>
     </g>
     <g id="text_10">
      <!-- 0.5 -->
      <g transform="translate(34.696875 128.015547) scale(0.1 -0.1)">
       <use xlink:href="#DejaVuSans-30"/>
       <use xlink:href="#DejaVuSans-2e" transform="translate(63.623047 0)"/>
       <use xlink:href="#DejaVuSans-35" transform="translate(95.410156 0)"/>
      </g>
     </g>
    </g>
    <g id="ytick_5">
     <g id="line2d_19">
      <path d="M 57.6 73.726413 
L 414.72 73.726413 
" clip-path="url(#pb3e07795dd)" style="fill: none; stroke: #b0b0b0; stroke-opacity: 0.5; stroke-width: 0.8; stroke-linecap: square"/>
     </g>
     <g id="line2d_20">
      <g>
       <use xlink:href="#m865bd75a60" x="57.6" y="73.726413" style="stroke: #000000; stroke-width: 0.8"/>
      </g>
     </g>
     <g id="text_11">
      <!-- 1.0 -->
      <g transform="translate(34.696875 77.525632) scale(0.1 -0.1)">
       <use xlink:href="#DejaVuSans-31"/>
       <use xlink:href="#DejaVuSans-2e" transform="translate(63.623047 0)"/>
       <use xlink:href="#DejaVuSans-30" transform="translate(95.410156 0)"/>
      </g>
     </g>
    </g>
    <g id="text_12">
     <!-- Value -->
     <g transform="translate(20.2375 188.25925) rotate(-90) scale(0.1 -0.1)">
      <defs>
       <path id="DejaVuSans-56" d="M 1831 0 
L 50 4666 
L 709 4666 
L 2188 738 
L 3669 4666 
L 4325 4666 
L 2547 0 
L 1831 0 
z
" transform="scale(0.015625)"/>
       <path id="DejaVuSans-61" d="M 2194 1759 
Q 1497 1759 1228 1600 
Q 959 1441 959 1056 
Q 959 750 1161 570 
Q 1363 391 1709 391 
Q 2188 391 2477 730 
Q 2766 1069 2766 1631 
L 2766 1759 
L 2194 1759 
z
M 3341 1997 
L 3341 0 
L 2766 0 
L 2766 531 
Q 2569 213 2275 61 
Q 1981 -91 1556 -91 
Q 1019 -91 701 211 
Q 384 513 384 1019 
Q 384 1609 779 1909 
Q 1175 2209 1959 2209 
L 2766 2209 
L 2766 2266 
Q 2766 2663 2505 2880 
Q 2244 3097 1772 3097 
Q 1472 3097 1187 3025 
Q 903 2953 641 2809 
L 641 3341 
Q 956 3463 1253 3523 
Q 1550 3584 1831 3584 
Q 2591 3584 2966 3190 
Q 3341 2797 3341 1997 
z
" transform="scale(0.015625)"/>
       <path id="DejaVuSans-6c" d="M 603 4863 
L 1178 4863 
L 1178 0 
L 603 0 
L 603 4863 
z
" transform="scale(0.015625)"/>
       <path id="DejaVuSans-75" d="M 544 1381 
L 544 3500 
L 1119 3500 
L 1119 1403 
Q 1119 906 1312 657 
Q 1506 409 1894 409 
Q 2359 409 2629 706 
Q 2900 1003 2900 1516 
L 2900 3500 
L 3475 3500 
L 3475 0 
L 2900 0 
L 2900 538 
Q 2691 219 2414 64 
Q 2138 -91 1772 -91 
Q 1169 -91 856 284 
Q 544 659 544 1381 
z
M 1991 3584 
L 1991 3584 
z
" transform="scale(0.015625)"/>
      </defs>
      <use xlink:href="#DejaVuSans-56"/>
      <use xlink:href="#DejaVuSans-61" transform="translate(60.658203 0)"/>
      <use xlink:href="#DejaVuSans-6c" transform="translate(121.9375 0)"/>
      <use xlink:href="#DejaVuSans-75" transform="translate(149.720703 0)"/>
      <use xlink:href="#DejaVuSans-65" transform="translate(213.099609 0)"/>
     </g>
    </g>
   </g>
   <g id="line2d_21">
    <path d="M 222.548467 177.476813 
L 239.892924 176.999578 
L 244.477002 176.522282 
L 243.014936 176.045235 
L 239.815712 175.568762 
L 237.956548 175.093137 
L 238.45928 174.618521 
L 242.599509 173.67209 
L 243.833085 173.19971 
L 244.160626 172.727303 
L 244.127411 172.254426 
L 244.290461 171.780772 
L 244.865069 171.306266 
L 247.328398 169.880725 
L 250.190679 167.522547 
L 252.794773 165.640479 
L 257.694161 161.877828 
L 263.88652 157.194049 
L 290.998858 136.679424 
L 307.948363 123.790204 
L 317.515764 116.48156 
L 326.471349 109.675979 
L 328.640703 109.166867 
L 327.470039 108.714128 
L 327.64629 108.261449 
L 330.86339 106.456776 
L 332.378215 105.107401 
L 335.947758 102.405838 
L 344.795653 95.689993 
L 354.084374 88.547072 
L 376.67012 71.247398 
L 378.93988 69.496534 
L 381.868959 67.294965 
L 384.006419 65.547941 
L 387.593364 62.921716 
L 389.623679 61.182288 
L 393.317884 58.561059 
L 394.569447 57.25842 
L 395.836321 56.419414 
L 398.18072 55.104063 
L 398.487273 54.655429 
L 398.220823 54.234156 
L 397.192502 53.879717 
L 395.256349 53.64078 
L 392.334455 53.568 
L 388.522881 53.704183 
L 384.279608 54.074211 
L 380.603588 54.676615 
L 378.761168 55.479676 
L 379.454016 56.422917 
L 382.236541 57.424553 
L 391.271035 59.921877 
L 391.615163 60.388809 
L 390.453088 60.657972 
L 386.243856 60.81982 
L 380.699633 61.031479 
L 376.998244 61.348529 
L 373.26164 61.858423 
L 370.749843 62.553217 
L 365.624876 63.499383 
L 373.925848 64.406763 
L 379.119699 65.290104 
L 381.520404 66.073628 
L 381.77521 66.704165 
L 380.790261 67.161539 
L 379.259448 67.461615 
L 375.490455 67.801898 
L 369.982058 68.270455 
L 366.703202 68.69836 
L 364.000321 69.282106 
L 362.825198 70.001734 
L 363.60613 70.809815 
L 365.861702 71.64238 
L 370.571246 73.123912 
L 371.320144 73.683101 
L 370.707593 74.104584 
L 369.11224 74.411709 
L 359.696678 75.530123 
L 357.313051 76.022514 
L 355.716187 76.633375 
L 355.398354 77.337011 
L 356.383418 78.089171 
L 359.845991 79.531845 
L 360.860735 80.136205 
L 360.853237 80.63423 
L 359.888472 81.032673 
L 356.334462 81.653724 
L 352.09104 82.328 
L 350.075358 82.775075 
L 348.519142 83.312993 
L 347.768072 83.930692 
L 347.937973 84.600959 
L 348.806254 85.286742 
L 350.684367 86.55768 
L 350.844985 87.092378 
L 350.290317 87.551269 
L 349.140728 87.948057 
L 342.46488 89.48229 
L 341.077466 89.978931 
L 340.180387 90.536013 
L 339.879244 91.138826 
L 340.093657 91.76385 
L 340.997557 92.975038 
L 341.090316 93.519824 
L 340.721264 94.012113 
L 339.900493 94.457016 
L 337.354497 95.26993 
L 334.499356 96.12039 
L 333.282586 96.600069 
L 332.377537 97.121821 
L 331.857183 97.678524 
L 331.694789 98.25595 
L 331.830417 99.402375 
L 331.746115 99.940841 
L 331.376782 100.445325 
L 330.693464 100.917096 
L 328.611286 101.800268 
L 326.248198 102.693691 
L 325.213162 103.172546 
L 324.38633 103.67813 
L 323.799057 104.206996 
L 323.434076 104.750747 
L 322.697723 106.364212 
L 322.234252 106.869003 
L 321.581111 107.353696 
L 319.828691 108.28349 
L 317.040542 109.694969 
L 315.670991 110.701582 
L 314.730853 111.74263 
L 313.849415 112.773174 
L 312.671988 113.763633 
L 310.3622 115.193174 
L 308.08338 116.642132 
L 306.29976 118.144242 
L 304.634145 119.64176 
L 302.621094 121.095967 
L 299.143115 123.515924 
L 294.775965 126.944605 
L 290.824907 129.859891 
L 287.585485 132.294664 
L 284.303801 134.737313 
L 282.441152 136.203299 
L 279.079877 136.750299 
L 281.731581 137.23554 
L 281.797008 137.720468 
L 277.726054 139.179962 
L 277.15619 139.66907 
L 276.624072 140.649613 
L 276.087043 141.13963 
L 273.182959 143.085734 
L 271.325042 144.534783 
L 268.044266 146.962429 
L 264.271755 149.86228 
L 257.872547 154.676045 
L 254.638497 157.065404 
L 251.418247 159.463578 
L 247.668249 162.335953 
L 243.184457 165.675187 
L 238.131957 169.480004 
L 226.185251 178.472074 
L 221.818608 181.762449 
L 217.49415 185.049532 
L 207.561356 192.513718 
L 190.259388 205.536715 
L 187.086388 206.058418 
L 189.516097 206.522397 
L 189.690539 206.986681 
L 188.586389 207.451193 
L 185.878702 208.380169 
L 185.281883 208.844181 
L 184.866682 209.77056 
L 184.39298 210.233008 
L 181.43749 212.08089 
L 179.859439 213.4664 
L 173.092855 218.524915 
L 140.237321 243.480729 
L 130.88691 250.638161 
L 116.911843 261.309997 
L 112.309882 264.860394 
L 103.579645 271.493619 
L 100.832771 271.991259 
L 102.830821 272.434157 
L 103.016594 272.876953 
L 102.14339 273.319021 
L 99.686255 274.19922 
L 99.002648 274.637556 
L 98.10609 275.952395 
L 96.731286 276.833317 
L 95.439604 277.714864 
L 94.015836 279.027603 
L 90.454344 281.652058 
L 88.918774 282.962798 
L 84.809122 286.010476 
L 83.36664 287.317412 
L 82.109197 288.1735 
L 80.063158 289.470517 
L 79.139371 290.354821 
L 78.02982 291.65799 
L 77.401933 292.078396 
L 73.986697 293.799732 
L 73.832727 294.24957 
L 74.412237 294.682591 
L 75.876735 295.064428 
L 78.28332 295.349747 
L 81.567181 295.488 
L 85.381331 295.432578 
L 88.957985 295.150594 
L 91.239026 294.632575 
L 91.606113 293.898273 
L 90.44384 292.997766 
L 85.538208 290.109035 
L 83.784103 289.366102 
L 82.079682 288.828052 
L 81.419719 288.49965 
L 82.81625 288.345639 
L 95.250635 288.158501 
L 98.724439 287.901158 
L 100.65235 287.448587 
L 100.760254 286.795974 
L 99.414966 285.978973 
L 95.691552 284.142929 
L 91.644696 282.074751 
L 91.755408 281.733613 
L 93.697144 281.531861 
L 105.480509 281.034052 
L 108.115803 280.662484 
L 109.067809 280.121183 
L 108.482337 279.4209 
L 104.201751 276.90281 
L 102.193643 275.552634 
L 101.869376 275.101695 
L 102.744454 274.787835 
L 105.092702 274.565438 
L 112.094709 274.137912 
L 114.988747 273.808752 
L 116.610584 273.34876 
L 116.855529 272.751646 
L 116.10915 272.040168 
L 113.922701 270.471049 
L 112.351744 269.087474 
L 111.991924 268.564519 
L 112.361447 268.160894 
L 113.806951 267.850043 
L 121.989886 266.992704 
L 123.90555 266.575193 
L 124.731482 266.049788 
L 124.61143 265.424591 
L 122.082546 262.654407 
L 121.858908 262.096356 
L 122.103885 261.632247 
L 123.062233 261.249032 
L 127.068532 260.597008 
L 129.377139 260.249123 
L 131.234094 259.841219 
L 132.338426 259.35549 
L 132.684173 258.791637 
L 132.50594 258.16606 
L 131.484192 256.227551 
L 131.430686 255.662241 
L 131.697474 255.16477 
L 132.433505 254.730268 
L 133.70256 254.340739 
L 138.833621 253.169028 
L 139.984795 252.698503 
L 140.599618 252.17181 
L 140.780527 251.597424 
L 140.575553 249.792329 
L 140.688297 249.236872 
L 143.505111 248.666729 
L 141.051452 248.206809 
L 141.400734 247.779139 
L 147.639621 246.504571 
L 148.637717 246.02807 
L 148.853055 245.514263 
L 148.751237 244.403138 
L 148.997586 243.833615 
L 149.919374 242.740763 
L 151.028273 241.758671 
L 151.812987 241.303446 
L 155.97229 239.470484 
L 156.654691 238.967313 
L 157.469318 237.90993 
L 158.162909 236.840594 
L 159.195756 235.821239 
L 160.666655 234.864986 
L 164.045669 232.978968 
L 165.29207 231.978163 
L 167.898579 229.439796 
L 170.040941 227.998584 
L 172.283687 226.559918 
L 174.114 225.074005 
L 176.441635 223.091938 
L 183.021471 218.218657 
L 185.653776 216.266844 
L 188.341032 214.312785 
L 192.781772 210.885594 
L 196.102234 208.44049 
L 200.529183 205.020275 
L 205.085544 201.615206 
L 209.517031 198.228008 
L 213.416891 195.329112 
L 217.150076 192.438369 
L 221.685644 189.072509 
L 224.79009 186.670467 
L 229.912266 182.840218 
L 234.970136 179.025016 
L 236.242072 178.072897 
L 238.906634 177.53645 
L 238.906634 177.53645 
" clip-path="url(#pb3e07795dd)" style="fill: none; stroke: #1f77b4; stroke-width: 1.5; stroke-linecap: square"/>
   </g>
   <g id="line2d_22">
    <path d="M 236.017141 177.476813 
L 266.473261 154.393682 
L 270.834186 151.121796 
L 274.586369 148.323241 
L 278.873978 145.051635 
L 381.334871 67.294965 
L 383.062796 65.980818 
L 385.612863 64.24612 
L 388.785978 61.611084 
L 391.529441 59.891024 
L 392.41215 59.006588 
L 393.152104 58.119034 
L 393.680725 57.684387 
L 395.293479 56.838724 
L 397.107638 55.992965 
L 397.600418 55.554046 
L 397.499715 55.104063 
L 396.636049 54.655429 
L 394.967816 54.234156 
L 392.618478 53.879717 
L 389.877592 53.64078 
L 387.161168 53.568 
L 384.934682 53.704183 
L 383.616407 54.074211 
L 383.479169 54.676615 
L 384.577588 55.479676 
L 386.716369 56.422917 
L 394.50518 59.247222 
L 395.631793 59.921877 
L 395.321045 60.388809 
L 393.509974 60.657972 
L 386.541142 60.81982 
L 378.909456 61.031479 
L 376.362676 61.348529 
L 375.176354 61.858423 
L 375.403378 62.553217 
L 377.049975 63.499383 
L 383.134215 66.073628 
L 383.809126 66.704165 
L 383.234753 67.161539 
L 381.430322 67.461615 
L 375.390115 67.801898 
L 372.147299 67.986063 
L 369.44716 68.270455 
L 367.668917 68.69836 
L 366.987465 69.282106 
L 367.344997 70.001734 
L 368.472361 70.809815 
L 371.319054 72.432405 
L 372.143253 73.123912 
L 372.133871 73.683101 
L 371.186292 74.104584 
L 369.397626 74.411709 
L 362.141302 75.157375 
L 360.345575 75.530123 
L 359.304957 76.022514 
L 359.056147 76.633375 
L 359.465013 77.337011 
L 361.675734 79.531845 
L 361.698742 80.136205 
L 361.051662 80.63423 
L 359.755784 81.032673 
L 355.954542 81.653724 
L 352.377557 82.328 
L 351.266808 82.775075 
L 350.733116 83.312993 
L 350.71399 83.930692 
L 351.779334 85.949582 
L 351.743137 86.55768 
L 351.247773 87.092378 
L 350.277367 87.551269 
L 347.337123 88.308545 
L 344.315979 89.048203 
L 343.222722 89.48229 
L 342.527404 89.978931 
L 342.210628 90.536013 
L 342.172111 91.138826 
L 342.289364 92.38407 
L 342.11706 92.975038 
L 341.638493 93.519824 
L 340.825229 94.012113 
L 338.443675 94.869374 
L 335.917813 95.680778 
L 334.929231 96.12039 
L 334.218925 96.600069 
L 333.779032 97.121821 
L 333.393942 98.25595 
L 333.212331 98.836349 
L 332.884959 99.402375 
L 332.340143 99.940841 
L 331.559698 100.445325 
L 329.484234 101.364448 
L 327.347096 102.239086 
L 326.481531 102.693691 
L 325.809214 103.172546 
L 324.94891 104.206996 
L 324.269432 105.29847 
L 323.804483 105.83918 
L 323.194186 106.364212 
L 321.563735 107.353696 
L 318.101947 109.213219 
L 316.934256 110.191646 
L 314.943862 112.261829 
L 313.547405 113.273895 
L 309.047063 116.152394 
L 305.649336 119.147124 
L 300.07101 123.026265 
L 297.792046 124.993204 
L 295.585406 126.459535 
L 293.380334 127.913429 
L 291.60098 129.372161 
L 289.869322 130.834999 
L 287.759606 132.294664 
L 284.882939 134.247447 
L 278.407237 139.179962 
L 275.739793 141.13963 
L 271.394607 144.534783 
L 266.787676 147.934389 
L 263.046117 150.820416 
L 259.095003 153.711352 
L 254.692571 157.065404 
L 250.178943 160.425873 
L 244.424225 164.718122 
L 232.49607 173.751677 
L 228.038352 177.053513 
L 207.653544 192.513718 
L 96.024977 277.274427 
L 93.749816 279.027603 
L 90.844901 281.212488 
L 88.637691 282.962798 
L 85.603383 285.131625 
L 82.99189 287.317412 
L 79.781034 289.470517 
L 78.119886 291.230867 
L 76.659104 292.078396 
L 74.838999 292.919822 
L 74.204505 293.35377 
L 74.065185 293.799732 
L 74.622496 294.24957 
L 75.976365 294.682591 
L 78.076629 295.064428 
L 80.703549 295.349747 
L 83.488122 295.488 
L 85.973063 295.432578 
L 87.703053 295.150594 
L 88.327125 294.632575 
L 87.687791 293.898273 
L 85.875696 292.997766 
L 80.296739 291.01355 
L 77.705413 290.109035 
L 76.062335 289.366102 
L 75.811295 288.828052 
L 77.135863 288.49965 
L 79.91302 288.345639 
L 91.917983 288.158501 
L 94.944049 287.901158 
L 96.598986 287.448587 
L 96.723821 286.795974 
L 95.475759 285.978973 
L 93.291243 285.065863 
L 88.640383 283.296556 
L 87.421936 282.594949 
L 87.503612 282.074751 
L 88.973428 281.733613 
L 91.628691 281.531861 
L 101.712483 281.034052 
L 103.922939 280.662484 
L 104.944522 280.121183 
L 104.762572 279.4209 
L 103.614437 278.605295 
L 99.032502 276.158108 
L 98.705387 275.552634 
L 99.433102 275.101695 
L 101.165164 274.787835 
L 111.260336 273.808752 
L 112.559575 273.34876 
L 112.930626 272.751646 
L 112.479972 272.040168 
L 109.429453 269.731258 
L 109.106392 269.087474 
L 109.563933 268.564519 
L 110.824325 268.160894 
L 115.012374 267.58682 
L 119.251775 266.992704 
L 120.612878 266.575193 
L 121.261419 266.049788 
L 121.235141 265.424591 
L 120.715918 264.728521 
L 119.355765 263.299317 
L 119.109028 262.654407 
L 119.428992 262.096356 
L 120.369502 261.632247 
L 121.847767 261.249032 
L 127.281293 260.249123 
L 128.593292 259.841219 
L 129.38657 259.35549 
L 129.662079 258.791637 
L 129.533884 258.16606 
L 128.891288 256.850534 
L 128.826757 256.227551 
L 129.158779 255.662241 
L 129.945946 255.16477 
L 131.143359 254.730268 
L 136.795287 253.169028 
L 137.588649 252.698503 
L 137.998473 252.17181 
L 138.103231 251.597424 
L 138.001487 250.384056 
L 138.130706 249.792329 
L 138.549755 249.236872 
L 139.419358 248.666729 
L 141.771966 247.779139 
L 144.281716 246.946741 
L 145.264352 246.504571 
L 145.970364 246.02807 
L 146.409043 245.514263 
L 146.806025 244.403138 
L 146.999866 243.833615 
L 147.339469 243.275497 
L 147.891701 242.740763 
L 148.669471 242.235455 
L 150.699158 241.303446 
L 152.750566 240.411474 
L 154.213627 239.470484 
L 155.054466 238.444737 
L 155.76744 237.372115 
L 156.256305 236.840594 
L 157.657808 235.821239 
L 161.92921 233.462 
L 163.042915 232.48385 
L 164.958736 230.439644 
L 166.371986 229.439796 
L 170.3413 227.044263 
L 171.459126 226.069321 
L 173.536089 224.075857 
L 174.974684 223.091938 
L 178.793864 220.675329 
L 180.414099 219.20406 
L 181.51201 218.218657 
L 182.864066 217.23964 
L 187.286242 214.312785 
L 191.489012 210.885594 
L 195.694797 207.948228 
L 199.973966 204.53637 
L 204.650513 201.126926 
L 208.322154 198.228008 
L 212.953646 194.843412 
L 216.03733 192.438369 
L 221.258025 188.588869 
L 225.051897 185.717636 
L 230.169369 181.881147 
L 235.938243 177.53645 
L 235.938243 177.53645 
" clip-path="url(#pb3e07795dd)" style="fill: none; stroke: #ff7f0e; stroke-opacity: 0.5; stroke-width: 1.5; stroke-linecap: square"/>
   </g>
   <g id="patch_3">
    <path d="M 57.6 307.584 
L 57.6 41.472 
" style="fill: none; stroke: #000000; stroke-width: 0.8; stroke-linejoin: miter; stroke-linecap: square"/>
   </g>
   <g id="patch_4">
    <path d="M 414.72 307.584 
L 414.72 41.472 
" style="fill: none; stroke: #000000; stroke-width: 0.8; stroke-linejoin: miter; stroke-linecap: square"/>
   </g>
   <g id="patch_5">
    <path d="M 57.6 307.584 
L 414.72 307.584 
" style="fill: none; stroke: #000000; stroke-width: 0.8; stroke-linejoin: miter; stroke-linecap: square"/>
   </g>
   <g id="patch_6">
    <path d="M 57.6 41.472 
L 414.72 41.472 
" style="fill: none; stroke: #000000; stroke-width: 0.8; stroke-linejoin: miter; stroke-linecap: square"/>
   </g>
   <g id="text_13">
    <!-- Compare - Epoch 600 -->
    <g transform="translate(171.234375 35.472) scale(0.12 -0.12)">
     <defs>
      <path id="DejaVuSans-43" d="M 4122 4306 
L 4122 3641 
Q 3803 3938 3442 4084 
Q 3081 4231 2675 4231 
Q 1875 4231 1450 3742 
Q 1025 3253 1025 2328 
Q 1025 1406 1450 917 
Q 1875 428 2675 428 
Q 3081 428 3442 575 
Q 3803 722 4122 1019 
L 4122 359 
Q 3791 134 3420 21 
Q 3050 -91 2638 -91 
Q 1578 -91 968 557 
Q 359 1206 359 2328 
Q 359 3453 968 4101 
Q 1578 4750 2638 4750 
Q 3056 4750 3426 4639 
Q 3797 4528 4122 4306 
z
" transform="scale(0.015625)"/>
      <path id="DejaVuSans-6f" d="M 1959 3097 
Q 1497 3097 1228 2736 
Q 959 2375 959 1747 
Q 959 1119 1226 758 
Q 1494 397 1959 397 
Q 2419 397 2687 759 
Q 2956 1122 2956 1747 
Q 2956 2369 2687 2733 
Q 2419 3097 1959 3097 
z
M 1959 3584 
Q 2709 3584 3137 3096 
Q 3566 2609 3566 1747 
Q 3566 888 3137 398 
Q 2709 -91 1959 -91 
Q 1206 -91 779 398 
Q 353 888 353 1747 
Q 353 2609 779 3096 
Q 1206 3584 1959 3584 
z
" transform="scale(0.015625)"/>
      <path id="DejaVuSans-6d" d="M 3328 2828 
Q 3544 3216 3844 3400 
Q 4144 3584 4550 3584 
Q 5097 3584 5394 3201 
Q 5691 2819 5691 2113 
L 5691 0 
L 5113 0 
L 5113 2094 
Q 5113 2597 4934 2840 
Q 4756 3084 4391 3084 
Q 3944 3084 3684 2787 
Q 3425 2491 3425 1978 
L 3425 0 
L 2847 0 
L 2847 2094 
Q 2847 2600 2669 2842 
Q 2491 3084 2119 3084 
Q 1678 3084 1418 2786 
Q 1159 2488 1159 1978 
L 1159 0 
L 581 0 
L 581 3500 
L 1159 3500 
L 1159 2956 
Q 1356 3278 1631 3431 
Q 1906 3584 2284 3584 
Q 2666 3584 2933 3390 
Q 3200 3197 3328 2828 
z
" transform="scale(0.015625)"/>
      <path id="DejaVuSans-70" d="M 1159 525 
L 1159 -1331 
L 581 -1331 
L 581 3500 
L 1159 3500 
L 1159 2969 
Q 1341 3281 1617 3432 
Q 1894 3584 2278 3584 
Q 2916 3584 3314 3078 
Q 3713 2572 3713 1747 
Q 3713 922 3314 415 
Q 2916 -91 2278 -91 
Q 1894 -91 1617 61 
Q 1341 213 1159 525 
z
M 3116 1747 
Q 3116 2381 2855 2742 
Q 2594 3103 2138 3103 
Q 1681 3103 1420 2742 
Q 1159 2381 1159 1747 
Q 1159 1113 1420 752 
Q 1681 391 2138 391 
Q 2594 391 2855 752 
Q 3116 1113 3116 1747 
z
" transform="scale(0.015625)"/>
      <path id="DejaVuSans-72" d="M 2631 2963 
Q 2534 3019 2420 3045 
Q 2306 3072 2169 3072 
Q 1681 3072 1420 2755 
Q 1159 2438 1159 1844 
L 1159 0 
L 581 0 
L 581 3500 
L 1159 3500 
L 1159 2956 
Q 1341 3275 1631 3429 
Q 1922 3584 2338 3584 
Q 2397 3584 2469 3576 
Q 2541 3569 2628 3553 
L 2631 2963 
z
" transform="scale(0.015625)"/>
      <path id="DejaVuSans-20" transform="scale(0.015625)"/>
      <path id="DejaVuSans-2d" d="M 313 2009 
L 1997 2009 
L 1997 1497 
L 313 1497 
L 313 2009 
z
" transform="scale(0.015625)"/>
      <path id="DejaVuSans-45" d="M 628 4666 
L 3578 4666 
L 3578 4134 
L 1259 4134 
L 1259 2753 
L 3481 2753 
L 3481 2222 
L 1259 2222 
L 1259 531 
L 3634 531 
L 3634 0 
L 628 0 
L 628 4666 
z
" transform="scale(0.015625)"/>
      <path id="DejaVuSans-63" d="M 3122 3366 
L 3122 2828 
Q 2878 2963 2633 3030 
Q 2388 3097 2138 3097 
Q 1578 3097 1268 2742 
Q 959 2388 959 1747 
Q 959 1106 1268 751 
Q 1578 397 2138 397 
Q 2388 397 2633 464 
Q 2878 531 3122 666 
L 3122 134 
Q 2881 22 2623 -34 
Q 2366 -91 2075 -91 
Q 1284 -91 818 406 
Q 353 903 353 1747 
Q 353 2603 823 3093 
Q 1294 3584 2113 3584 
Q 2378 3584 2631 3529 
Q 2884 3475 3122 3366 
z
" transform="scale(0.015625)"/>
      <path id="DejaVuSans-68" d="M 3513 2113 
L 3513 0 
L 2938 0 
L 2938 2094 
Q 2938 2591 2744 2837 
Q 2550 3084 2163 3084 
Q 1697 3084 1428 2787 
Q 1159 2491 1159 1978 
L 1159 0 
L 581 0 
L 581 4863 
L 1159 4863 
L 1159 2956 
Q 1366 3272 1645 3428 
Q 1925 3584 2291 3584 
Q 2894 3584 3203 3211 
Q 3513 2838 3513 2113 
z
" transform="scale(0.015625)"/>
      <path id="DejaVuSans-36" d="M 2113 2584 
Q 1688 2584 1439 2293 
Q 1191 2003 1191 1497 
Q 1191 994 1439 701 
Q 1688 409 2113 409 
Q 2538 409 2786 701 
Q 3034 994 3034 1497 
Q 3034 2003 2786 2293 
Q 2538 2584 2113 2584 
z
M 3366 4563 
L 3366 3988 
Q 3128 4100 2886 4159 
Q 2644 4219 2406 4219 
Q 1781 4219 1451 3797 
Q 1122 3375 1075 2522 
Q 1259 2794 1537 2939 
Q 1816 3084 2150 3084 
Q 2853 3084 3261 2657 
Q 3669 2231 3669 1497 
Q 3669 778 3244 343 
Q 2819 -91 2113 -91 
Q 1303 -91 875 529 
Q 447 1150 447 2328 
Q 447 3434 972 4092 
Q 1497 4750 2381 4750 
Q 2619 4750 2861 4703 
Q 3103 4656 3366 4563 
z
" transform="scale(0.015625)"/>
     </defs>
     <use xlink:href="#DejaVuSans-43"/>
     <use xlink:href="#DejaVuSans-6f" transform="translate(69.824219 0)"/>
     <use xlink:href="#DejaVuSans-6d" transform="translate(131.005859 0)"/>
     <use xlink:href="#DejaVuSans-70" transform="translate(228.417969 0)"/>
     <use xlink:href="#DejaVuSans-61" transform="translate(291.894531 0)"/>
     <use xlink:href="#DejaVuSans-72" transform="translate(353.173828 0)"/>
     <use xlink:href="#DejaVuSans-65" transform="translate(392.037109 0)"/>
     <use xlink:href="#DejaVuSans-20" transform="translate(453.560547 0)"/>
     <use xlink:href="#DejaVuSans-2d" transform="translate(485.347656 0)"/>
     <use xlink:href="#DejaVuSans-20" transform="translate(521.431641 0)"/>
     <use xlink:href="#DejaVuSans-45" transform="translate(553.21875 0)"/>
     <use xlink:href="#DejaVuSans-70" transform="translate(616.402344 0)"/>
     <use xlink:href="#DejaVuSans-6f" transform="translate(679.878906 0)"/>
     <use xlink:href="#DejaVuSans-63" transform="translate(741.060547 0)"/>
     <use xlink:href="#DejaVuSans-68" transform="translate(796.041016 0)"/>
     <use xlink:href="#DejaVuSans-20" transform="translate(859.419922 0)"/>
     <use xlink:href="#DejaVuSans-36" transform="translate(891.207031 0)"/>
     <use xlink:href="#DejaVuSans-30" transform="translate(954.830078 0)"/>
     <use xlink:href="#DejaVuSans-30" transform="translate(1018.453125 0)"/>
    </g>
   </g>
   <g id="legend_1">
    <g id="patch_7">
     <path d="M 64.6 78.82825 
L 181.128125 78.82825 
Q 183.128125 78.82825 183.128125 76.82825 
L 183.128125 48.472 
Q 183.128125 46.472 181.128125 46.472 
L 64.6 46.472 
Q 62.6 46.472 62.6 48.472 
L 62.6 76.82825 
Q 62.6 78.82825 64.6 78.82825 
z
" style="fill: #ffffff; opacity: 0.8; stroke: #cccccc; stroke-linejoin: miter"/>
    </g>
    <g id="line2d_23">
     <path d="M 66.6 54.570437 
L 76.6 54.570437 
L 86.6 54.570437 
" style="fill: none; stroke: #1f77b4; stroke-width: 1.5; stroke-linecap: square"/>
    </g>
    <g id="text_14">
     <!-- Pred: Sample 1 -->
     <g transform="translate(94.6 58.070437) scale(0.1 -0.1)">
      <defs>
       <path id="DejaVuSans-50" d="M 1259 4147 
L 1259 2394 
L 2053 2394 
Q 2494 2394 2734 2622 
Q 2975 2850 2975 3272 
Q 2975 3691 2734 3919 
Q 2494 4147 2053 4147 
L 1259 4147 
z
M 628 4666 
L 2053 4666 
Q 2838 4666 3239 4311 
Q 3641 3956 3641 3272 
Q 3641 2581 3239 2228 
Q 2838 1875 2053 1875 
L 1259 1875 
L 1259 0 
L 628 0 
L 628 4666 
z
" transform="scale(0.015625)"/>
       <path id="DejaVuSans-3a" d="M 750 794 
L 1409 794 
L 1409 0 
L 750 0 
L 750 794 
z
M 750 3309 
L 1409 3309 
L 1409 2516 
L 750 2516 
L 750 3309 
z
" transform="scale(0.015625)"/>
       <path id="DejaVuSans-53" d="M 3425 4513 
L 3425 3897 
Q 3066 4069 2747 4153 
Q 2428 4238 2131 4238 
Q 1616 4238 1336 4038 
Q 1056 3838 1056 3469 
Q 1056 3159 1242 3001 
Q 1428 2844 1947 2747 
L 2328 2669 
Q 3034 2534 3370 2195 
Q 3706 1856 3706 1288 
Q 3706 609 3251 259 
Q 2797 -91 1919 -91 
Q 1588 -91 1214 -16 
Q 841 59 441 206 
L 441 856 
Q 825 641 1194 531 
Q 1563 422 1919 422 
Q 2459 422 2753 634 
Q 3047 847 3047 1241 
Q 3047 1584 2836 1778 
Q 2625 1972 2144 2069 
L 1759 2144 
Q 1053 2284 737 2584 
Q 422 2884 422 3419 
Q 422 4038 858 4394 
Q 1294 4750 2059 4750 
Q 2388 4750 2728 4690 
Q 3069 4631 3425 4513 
z
" transform="scale(0.015625)"/>
      </defs>
      <use xlink:href="#DejaVuSans-50"/>
      <use xlink:href="#DejaVuSans-72" transform="translate(58.552734 0)"/>
      <use xlink:href="#DejaVuSans-65" transform="translate(97.416016 0)"/>
      <use xlink:href="#DejaVuSans-64" transform="translate(158.939453 0)"/>
      <use xlink:href="#DejaVuSans-3a" transform="translate(222.416016 0)"/>
      <use xlink:href="#DejaVuSans-20" transform="translate(256.107422 0)"/>
      <use xlink:href="#DejaVuSans-53" transform="translate(287.894531 0)"/>
      <use xlink:href="#DejaVuSans-61" transform="translate(351.371094 0)"/>
      <use xlink:href="#DejaVuSans-6d" transform="translate(412.650391 0)"/>
      <use xlink:href="#DejaVuSans-70" transform="translate(510.0625 0)"/>
      <use xlink:href="#DejaVuSans-6c" transform="translate(573.539062 0)"/>
      <use xlink:href="#DejaVuSans-65" transform="translate(601.322266 0)"/>
      <use xlink:href="#DejaVuSans-20" transform="translate(662.845703 0)"/>
      <use xlink:href="#DejaVuSans-31" transform="translate(694.632812 0)"/>
     </g>
    </g>
    <g id="line2d_24">
     <path d="M 66.6 69.248562 
L 76.6 69.248562 
L 86.6 69.248562 
" style="fill: none; stroke: #ff7f0e; stroke-opacity: 0.5; stroke-width: 1.5; stroke-linecap: square"/>
    </g>
    <g id="text_15">
     <!-- Target: Sample 1 -->
     <g transform="translate(94.6 72.748562) scale(0.1 -0.1)">
      <defs>
       <path id="DejaVuSans-54" d="M -19 4666 
L 3928 4666 
L 3928 4134 
L 2272 4134 
L 2272 0 
L 1638 0 
L 1638 4134 
L -19 4134 
L -19 4666 
z
" transform="scale(0.015625)"/>
       <path id="DejaVuSans-67" d="M 2906 1791 
Q 2906 2416 2648 2759 
Q 2391 3103 1925 3103 
Q 1463 3103 1205 2759 
Q 947 2416 947 1791 
Q 947 1169 1205 825 
Q 1463 481 1925 481 
Q 2391 481 2648 825 
Q 2906 1169 2906 1791 
z
M 3481 434 
Q 3481 -459 3084 -895 
Q 2688 -1331 1869 -1331 
Q 1566 -1331 1297 -1286 
Q 1028 -1241 775 -1147 
L 775 -588 
Q 1028 -725 1275 -790 
Q 1522 -856 1778 -856 
Q 2344 -856 2625 -561 
Q 2906 -266 2906 331 
L 2906 616 
Q 2728 306 2450 153 
Q 2172 0 1784 0 
Q 1141 0 747 490 
Q 353 981 353 1791 
Q 353 2603 747 3093 
Q 1141 3584 1784 3584 
Q 2172 3584 2450 3431 
Q 2728 3278 2906 2969 
L 2906 3500 
L 3481 3500 
L 3481 434 
z
" transform="scale(0.015625)"/>
       <path id="DejaVuSans-74" d="M 1172 4494 
L 1172 3500 
L 2356 3500 
L 2356 3053 
L 1172 3053 
L 1172 1153 
Q 1172 725 1289 603 
Q 1406 481 1766 481 
L 2356 481 
L 2356 0 
L 1766 0 
Q 1100 0 847 248 
Q 594 497 594 1153 
L 594 3053 
L 172 3053 
L 172 3500 
L 594 3500 
L 594 4494 
L 1172 4494 
z
" transform="scale(0.015625)"/>
      </defs>
      <use xlink:href="#DejaVuSans-54"/>
      <use xlink:href="#DejaVuSans-61" transform="translate(44.583984 0)"/>
      <use xlink:href="#DejaVuSans-72" transform="translate(105.863281 0)"/>
      <use xlink:href="#DejaVuSans-67" transform="translate(145.226562 0)"/>
      <use xlink:href="#DejaVuSans-65" transform="translate(208.703125 0)"/>
      <use xlink:href="#DejaVuSans-74" transform="translate(270.226562 0)"/>
      <use xlink:href="#DejaVuSans-3a" transform="translate(309.435547 0)"/>
      <use xlink:href="#DejaVuSans-20" transform="translate(343.126953 0)"/>
      <use xlink:href="#DejaVuSans-53" transform="translate(374.914062 0)"/>
      <use xlink:href="#DejaVuSans-61" transform="translate(438.390625 0)"/>
      <use xlink:href="#DejaVuSans-6d" transform="translate(499.669922 0)"/>
      <use xlink:href="#DejaVuSans-70" transform="translate(597.082031 0)"/>
      <use xlink:href="#DejaVuSans-6c" transform="translate(660.558594 0)"/>
      <use xlink:href="#DejaVuSans-65" transform="translate(688.341797 0)"/>
      <use xlink:href="#DejaVuSans-20" transform="translate(749.865234 0)"/>
      <use xlink:href="#DejaVuSans-31" transform="translate(781.652344 0)"/>
     </g>
    </g>
   </g>
  </g>
 </g>
 <defs>
  <clipPath id="pb3e07795dd">
   <rect x="57.6" y="41.472" width="357.12" height="266.112"/>
  </clipPath>
 </defs>
</svg>
