<?xml version="1.0" encoding="utf-8" standalone="no"?>
<!DOCTYPE svg PUBLIC "-//W3C//DTD SVG 1.1//EN"
  "http://www.w3.org/Graphics/SVG/1.1/DTD/svg11.dtd">
<svg xmlns:xlink="http://www.w3.org/1999/xlink" width="460.8pt" height="345.6pt" viewBox="0 0 460.8 345.6" xmlns="http://www.w3.org/2000/svg" version="1.1">
 <metadata>
  <rdf:RDF xmlns:dc="http://purl.org/dc/elements/1.1/" xmlns:cc="http://creativecommons.org/ns#" xmlns:rdf="http://www.w3.org/1999/02/22-rdf-syntax-ns#">
   <cc:Work>
    <dc:type rdf:resource="http://purl.org/dc/dcmitype/StillImage"/>
    <dc:date>2025-04-16T06:22:34.650663</dc:date>
    <dc:format>image/svg+xml</dc:format>
    <dc:creator>
     <cc:Agent>
      <dc:title>Matplotlib v3.10.0, https://matplotlib.org/</dc:title>
     </cc:Agent>
    </dc:creator>
   </cc:Work>
  </rdf:RDF>
 </metadata>
 <defs>
  <style type="text/css">*{stroke-linejoin: round; stroke-linecap: butt}</style>
 </defs>
 <g id="figure_1">
  <g id="patch_1">
   <path d="M 0 345.6 
L 460.8 345.6 
L 460.8 0 
L 0 0 
z
" style="fill: #ffffff"/>
  </g>
  <g id="axes_1">
   <g id="patch_2">
    <path d="M 57.6 307.584 
L 414.72 307.584 
L 414.72 41.472 
L 57.6 41.472 
z
" style="fill: #ffffff"/>
   </g>
   <g id="matplotlib.axis_1">
    <g id="xtick_1">
     <g id="line2d_1">
      <path d="M 97.178366 307.584 
L 97.178366 41.472 
" clip-path="url(#p30e8dd29e6)" style="fill: none; stroke: #b0b0b0; stroke-opacity: 0.5; stroke-width: 0.8; stroke-linecap: square"/>
     </g>
     <g id="line2d_2">
      <defs>
       <path id="mfe5974dc4c" d="M 0 0 
L 0 3.5 
" style="stroke: #000000; stroke-width: 0.8"/>
      </defs>
      <g>
       <use xlink:href="#mfe5974dc4c" x="97.178366" y="307.584" style="stroke: #000000; stroke-width: 0.8"/>
      </g>
     </g>
     <g id="text_1">
      <!-- −1.0 -->
      <g transform="translate(85.03696 322.182437) scale(0.1 -0.1)">
       <defs>
        <path id="DejaVuSans-2212" d="M 678 2272 
L 4684 2272 
L 4684 1741 
L 678 1741 
L 678 2272 
z
" transform="scale(0.015625)"/>
        <path id="DejaVuSans-31" d="M 794 531 
L 1825 531 
L 1825 4091 
L 703 3866 
L 703 4441 
L 1819 4666 
L 2450 4666 
L 2450 531 
L 3481 531 
L 3481 0 
L 794 0 
L 794 531 
z
" transform="scale(0.015625)"/>
        <path id="DejaVuSans-2e" d="M 684 794 
L 1344 794 
L 1344 0 
L 684 0 
L 684 794 
z
" transform="scale(0.015625)"/>
        <path id="DejaVuSans-30" d="M 2034 4250 
Q 1547 4250 1301 3770 
Q 1056 3291 1056 2328 
Q 1056 1369 1301 889 
Q 1547 409 2034 409 
Q 2525 409 2770 889 
Q 3016 1369 3016 2328 
Q 3016 3291 2770 3770 
Q 2525 4250 2034 4250 
z
M 2034 4750 
Q 2819 4750 3233 4129 
Q 3647 3509 3647 2328 
Q 3647 1150 3233 529 
Q 2819 -91 2034 -91 
Q 1250 -91 836 529 
Q 422 1150 422 2328 
Q 422 3509 836 4129 
Q 1250 4750 2034 4750 
z
" transform="scale(0.015625)"/>
       </defs>
       <use xlink:href="#DejaVuSans-2212"/>
       <use xlink:href="#DejaVuSans-31" transform="translate(83.789062 0)"/>
       <use xlink:href="#DejaVuSans-2e" transform="translate(147.412109 0)"/>
       <use xlink:href="#DejaVuSans-30" transform="translate(179.199219 0)"/>
      </g>
     </g>
    </g>
    <g id="xtick_2">
     <g id="line2d_3">
      <path d="M 166.350953 307.584 
L 166.350953 41.472 
" clip-path="url(#p30e8dd29e6)" style="fill: none; stroke: #b0b0b0; stroke-opacity: 0.5; stroke-width: 0.8; stroke-linecap: square"/>
     </g>
     <g id="line2d_4">
      <g>
       <use xlink:href="#mfe5974dc4c" x="166.350953" y="307.584" style="stroke: #000000; stroke-width: 0.8"/>
      </g>
     </g>
     <g id="text_2">
      <!-- −0.5 -->
      <g transform="translate(154.209547 322.182437) scale(0.1 -0.1)">
       <defs>
        <path id="DejaVuSans-35" d="M 691 4666 
L 3169 4666 
L 3169 4134 
L 1269 4134 
L 1269 2991 
Q 1406 3038 1543 3061 
Q 1681 3084 1819 3084 
Q 2600 3084 3056 2656 
Q 3513 2228 3513 1497 
Q 3513 744 3044 326 
Q 2575 -91 1722 -91 
Q 1428 -91 1123 -41 
Q 819 9 494 109 
L 494 744 
Q 775 591 1075 516 
Q 1375 441 1709 441 
Q 2250 441 2565 725 
Q 2881 1009 2881 1497 
Q 2881 1984 2565 2268 
Q 2250 2553 1709 2553 
Q 1456 2553 1204 2497 
Q 953 2441 691 2322 
L 691 4666 
z
" transform="scale(0.015625)"/>
       </defs>
       <use xlink:href="#DejaVuSans-2212"/>
       <use xlink:href="#DejaVuSans-30" transform="translate(83.789062 0)"/>
       <use xlink:href="#DejaVuSans-2e" transform="translate(147.412109 0)"/>
       <use xlink:href="#DejaVuSans-35" transform="translate(179.199219 0)"/>
      </g>
     </g>
    </g>
    <g id="xtick_3">
     <g id="line2d_5">
      <path d="M 235.52354 307.584 
L 235.52354 41.472 
" clip-path="url(#p30e8dd29e6)" style="fill: none; stroke: #b0b0b0; stroke-opacity: 0.5; stroke-width: 0.8; stroke-linecap: square"/>
     </g>
     <g id="line2d_6">
      <g>
       <use xlink:href="#mfe5974dc4c" x="235.52354" y="307.584" style="stroke: #000000; stroke-width: 0.8"/>
      </g>
     </g>
     <g id="text_3">
      <!-- 0.0 -->
      <g transform="translate(227.571977 322.182437) scale(0.1 -0.1)">
       <use xlink:href="#DejaVuSans-30"/>
       <use xlink:href="#DejaVuSans-2e" transform="translate(63.623047 0)"/>
       <use xlink:href="#DejaVuSans-30" transform="translate(95.410156 0)"/>
      </g>
     </g>
    </g>
    <g id="xtick_4">
     <g id="line2d_7">
      <path d="M 304.696126 307.584 
L 304.696126 41.472 
" clip-path="url(#p30e8dd29e6)" style="fill: none; stroke: #b0b0b0; stroke-opacity: 0.5; stroke-width: 0.8; stroke-linecap: square"/>
     </g>
     <g id="line2d_8">
      <g>
       <use xlink:href="#mfe5974dc4c" x="304.696126" y="307.584" style="stroke: #000000; stroke-width: 0.8"/>
      </g>
     </g>
     <g id="text_4">
      <!-- 0.5 -->
      <g transform="translate(296.744564 322.182437) scale(0.1 -0.1)">
       <use xlink:href="#DejaVuSans-30"/>
       <use xlink:href="#DejaVuSans-2e" transform="translate(63.623047 0)"/>
       <use xlink:href="#DejaVuSans-35" transform="translate(95.410156 0)"/>
      </g>
     </g>
    </g>
    <g id="xtick_5">
     <g id="line2d_9">
      <path d="M 373.868713 307.584 
L 373.868713 41.472 
" clip-path="url(#p30e8dd29e6)" style="fill: none; stroke: #b0b0b0; stroke-opacity: 0.5; stroke-width: 0.8; stroke-linecap: square"/>
     </g>
     <g id="line2d_10">
      <g>
       <use xlink:href="#mfe5974dc4c" x="373.868713" y="307.584" style="stroke: #000000; stroke-width: 0.8"/>
      </g>
     </g>
     <g id="text_5">
      <!-- 1.0 -->
      <g transform="translate(365.91715 322.182437) scale(0.1 -0.1)">
       <use xlink:href="#DejaVuSans-31"/>
       <use xlink:href="#DejaVuSans-2e" transform="translate(63.623047 0)"/>
       <use xlink:href="#DejaVuSans-30" transform="translate(95.410156 0)"/>
      </g>
     </g>
    </g>
    <g id="text_6">
     <!-- Index -->
     <g transform="translate(222.393594 335.860562) scale(0.1 -0.1)">
      <defs>
       <path id="DejaVuSans-49" d="M 628 4666 
L 1259 4666 
L 1259 0 
L 628 0 
L 628 4666 
z
" transform="scale(0.015625)"/>
       <path id="DejaVuSans-6e" d="M 3513 2113 
L 3513 0 
L 2938 0 
L 2938 2094 
Q 2938 2591 2744 2837 
Q 2550 3084 2163 3084 
Q 1697 3084 1428 2787 
Q 1159 2491 1159 1978 
L 1159 0 
L 581 0 
L 581 3500 
L 1159 3500 
L 1159 2956 
Q 1366 3272 1645 3428 
Q 1925 3584 2291 3584 
Q 2894 3584 3203 3211 
Q 3513 2838 3513 2113 
z
" transform="scale(0.015625)"/>
       <path id="DejaVuSans-64" d="M 2906 2969 
L 2906 4863 
L 3481 4863 
L 3481 0 
L 2906 0 
L 2906 525 
Q 2725 213 2448 61 
Q 2172 -91 1784 -91 
Q 1150 -91 751 415 
Q 353 922 353 1747 
Q 353 2572 751 3078 
Q 1150 3584 1784 3584 
Q 2172 3584 2448 3432 
Q 2725 3281 2906 2969 
z
M 947 1747 
Q 947 1113 1208 752 
Q 1469 391 1925 391 
Q 2381 391 2643 752 
Q 2906 1113 2906 1747 
Q 2906 2381 2643 2742 
Q 2381 3103 1925 3103 
Q 1469 3103 1208 2742 
Q 947 2381 947 1747 
z
" transform="scale(0.015625)"/>
       <path id="DejaVuSans-65" d="M 3597 1894 
L 3597 1613 
L 953 1613 
Q 991 1019 1311 708 
Q 1631 397 2203 397 
Q 2534 397 2845 478 
Q 3156 559 3463 722 
L 3463 178 
Q 3153 47 2828 -22 
Q 2503 -91 2169 -91 
Q 1331 -91 842 396 
Q 353 884 353 1716 
Q 353 2575 817 3079 
Q 1281 3584 2069 3584 
Q 2775 3584 3186 3129 
Q 3597 2675 3597 1894 
z
M 3022 2063 
Q 3016 2534 2758 2815 
Q 2500 3097 2075 3097 
Q 1594 3097 1305 2825 
Q 1016 2553 972 2059 
L 3022 2063 
z
" transform="scale(0.015625)"/>
       <path id="DejaVuSans-78" d="M 3513 3500 
L 2247 1797 
L 3578 0 
L 2900 0 
L 1881 1375 
L 863 0 
L 184 0 
L 1544 1831 
L 300 3500 
L 978 3500 
L 1906 2253 
L 2834 3500 
L 3513 3500 
z
" transform="scale(0.015625)"/>
      </defs>
      <use xlink:href="#DejaVuSans-49"/>
      <use xlink:href="#DejaVuSans-6e" transform="translate(29.492188 0)"/>
      <use xlink:href="#DejaVuSans-64" transform="translate(92.871094 0)"/>
      <use xlink:href="#DejaVuSans-65" transform="translate(156.347656 0)"/>
      <use xlink:href="#DejaVuSans-78" transform="translate(216.121094 0)"/>
     </g>
    </g>
   </g>
   <g id="matplotlib.axis_2">
    <g id="ytick_1">
     <g id="line2d_11">
      <path d="M 57.6 275.686072 
L 414.72 275.686072 
" clip-path="url(#p30e8dd29e6)" style="fill: none; stroke: #b0b0b0; stroke-opacity: 0.5; stroke-width: 0.8; stroke-linecap: square"/>
     </g>
     <g id="line2d_12">
      <defs>
       <path id="m4255ed26b4" d="M 0 0 
L -3.5 0 
" style="stroke: #000000; stroke-width: 0.8"/>
      </defs>
      <g>
       <use xlink:href="#m4255ed26b4" x="57.6" y="275.686072" style="stroke: #000000; stroke-width: 0.8"/>
      </g>
     </g>
     <g id="text_7">
      <!-- −1.0 -->
      <g transform="translate(26.317187 279.485291) scale(0.1 -0.1)">
       <use xlink:href="#DejaVuSans-2212"/>
       <use xlink:href="#DejaVuSans-31" transform="translate(83.789062 0)"/>
       <use xlink:href="#DejaVuSans-2e" transform="translate(147.412109 0)"/>
       <use xlink:href="#DejaVuSans-30" transform="translate(179.199219 0)"/>
      </g>
     </g>
    </g>
    <g id="ytick_2">
     <g id="line2d_13">
      <path d="M 57.6 225.196158 
L 414.72 225.196158 
" clip-path="url(#p30e8dd29e6)" style="fill: none; stroke: #b0b0b0; stroke-opacity: 0.5; stroke-width: 0.8; stroke-linecap: square"/>
     </g>
     <g id="line2d_14">
      <g>
       <use xlink:href="#m4255ed26b4" x="57.6" y="225.196158" style="stroke: #000000; stroke-width: 0.8"/>
      </g>
     </g>
     <g id="text_8">
      <!-- −0.5 -->
      <g transform="translate(26.317187 228.995376) scale(0.1 -0.1)">
       <use xlink:href="#DejaVuSans-2212"/>
       <use xlink:href="#DejaVuSans-30" transform="translate(83.789062 0)"/>
       <use xlink:href="#DejaVuSans-2e" transform="translate(147.412109 0)"/>
       <use xlink:href="#DejaVuSans-35" transform="translate(179.199219 0)"/>
      </g>
     </g>
    </g>
    <g id="ytick_3">
     <g id="line2d_15">
      <path d="M 57.6 174.706243 
L 414.72 174.706243 
" clip-path="url(#p30e8dd29e6)" style="fill: none; stroke: #b0b0b0; stroke-opacity: 0.5; stroke-width: 0.8; stroke-linecap: square"/>
     </g>
     <g id="line2d_16">
      <g>
       <use xlink:href="#m4255ed26b4" x="57.6" y="174.706243" style="stroke: #000000; stroke-width: 0.8"/>
      </g>
     </g>
     <g id="text_9">
      <!-- 0.0 -->
      <g transform="translate(34.696875 178.505461) scale(0.1 -0.1)">
       <use xlink:href="#DejaVuSans-30"/>
       <use xlink:href="#DejaVuSans-2e" transform="translate(63.623047 0)"/>
       <use xlink:href="#DejaVuSans-30" transform="translate(95.410156 0)"/>
      </g>
     </g>
    </g>
    <g id="ytick_4">
     <g id="line2d_17">
      <path d="M 57.6 124.216328 
L 414.72 124.216328 
" clip-path="url(#p30e8dd29e6)" style="fill: none; stroke: #b0b0b0; stroke-opacity: 0.5; stroke-width: 0.8; stroke-linecap: square"/>
     </g>
     <g id="line2d_18">
      <g>
       <use xlink:href="#m4255ed26b4" x="57.6" y="124.216328" style="stroke: #000000; stroke-width: 0.8"/>
      </g>
     </g>
     <g id="text_10">
      <!-- 0.5 -->
      <g transform="translate(34.696875 128.015547) scale(0.1 -0.1)">
       <use xlink:href="#DejaVuSans-30"/>
       <use xlink:href="#DejaVuSans-2e" transform="translate(63.623047 0)"/>
       <use xlink:href="#DejaVuSans-35" transform="translate(95.410156 0)"/>
      </g>
     </g>
    </g>
    <g id="ytick_5">
     <g id="line2d_19">
      <path d="M 57.6 73.726413 
L 414.72 73.726413 
" clip-path="url(#p30e8dd29e6)" style="fill: none; stroke: #b0b0b0; stroke-opacity: 0.5; stroke-width: 0.8; stroke-linecap: square"/>
     </g>
     <g id="line2d_20">
      <g>
       <use xlink:href="#m4255ed26b4" x="57.6" y="73.726413" style="stroke: #000000; stroke-width: 0.8"/>
      </g>
     </g>
     <g id="text_11">
      <!-- 1.0 -->
      <g transform="translate(34.696875 77.525632) scale(0.1 -0.1)">
       <use xlink:href="#DejaVuSans-31"/>
       <use xlink:href="#DejaVuSans-2e" transform="translate(63.623047 0)"/>
       <use xlink:href="#DejaVuSans-30" transform="translate(95.410156 0)"/>
      </g>
     </g>
    </g>
    <g id="text_12">
     <!-- Value -->
     <g transform="translate(20.2375 188.25925) rotate(-90) scale(0.1 -0.1)">
      <defs>
       <path id="DejaVuSans-56" d="M 1831 0 
L 50 4666 
L 709 4666 
L 2188 738 
L 3669 4666 
L 4325 4666 
L 2547 0 
L 1831 0 
z
" transform="scale(0.015625)"/>
       <path id="DejaVuSans-61" d="M 2194 1759 
Q 1497 1759 1228 1600 
Q 959 1441 959 1056 
Q 959 750 1161 570 
Q 1363 391 1709 391 
Q 2188 391 2477 730 
Q 2766 1069 2766 1631 
L 2766 1759 
L 2194 1759 
z
M 3341 1997 
L 3341 0 
L 2766 0 
L 2766 531 
Q 2569 213 2275 61 
Q 1981 -91 1556 -91 
Q 1019 -91 701 211 
Q 384 513 384 1019 
Q 384 1609 779 1909 
Q 1175 2209 1959 2209 
L 2766 2209 
L 2766 2266 
Q 2766 2663 2505 2880 
Q 2244 3097 1772 3097 
Q 1472 3097 1187 3025 
Q 903 2953 641 2809 
L 641 3341 
Q 956 3463 1253 3523 
Q 1550 3584 1831 3584 
Q 2591 3584 2966 3190 
Q 3341 2797 3341 1997 
z
" transform="scale(0.015625)"/>
       <path id="DejaVuSans-6c" d="M 603 4863 
L 1178 4863 
L 1178 0 
L 603 0 
L 603 4863 
z
" transform="scale(0.015625)"/>
       <path id="DejaVuSans-75" d="M 544 1381 
L 544 3500 
L 1119 3500 
L 1119 1403 
Q 1119 906 1312 657 
Q 1506 409 1894 409 
Q 2359 409 2629 706 
Q 2900 1003 2900 1516 
L 2900 3500 
L 3475 3500 
L 3475 0 
L 2900 0 
L 2900 538 
Q 2691 219 2414 64 
Q 2138 -91 1772 -91 
Q 1169 -91 856 284 
Q 544 659 544 1381 
z
M 1991 3584 
L 1991 3584 
z
" transform="scale(0.015625)"/>
      </defs>
      <use xlink:href="#DejaVuSans-56"/>
      <use xlink:href="#DejaVuSans-61" transform="translate(60.658203 0)"/>
      <use xlink:href="#DejaVuSans-6c" transform="translate(121.9375 0)"/>
      <use xlink:href="#DejaVuSans-75" transform="translate(149.720703 0)"/>
      <use xlink:href="#DejaVuSans-65" transform="translate(213.099609 0)"/>
     </g>
    </g>
   </g>
   <g id="line2d_21">
    <path d="M 232.087499 177.476813 
L 236.246859 176.999578 
L 238.277552 176.522282 
L 238.113939 176.045235 
L 237.749415 175.568762 
L 238.073129 175.093137 
L 239.199877 174.618521 
L 242.037182 173.67209 
L 242.819671 173.19971 
L 243.082097 172.727303 
L 243.141484 172.254426 
L 243.368761 171.780772 
L 243.96381 171.306266 
L 246.710207 169.880725 
L 247.297208 169.406618 
L 248.563557 167.992118 
L 250.059499 167.053052 
L 251.589333 166.11223 
L 252.667244 165.168071 
L 253.708889 164.223322 
L 271.837237 150.654207 
L 275.599024 147.857083 
L 284.241383 141.32645 
L 288.53108 138.070628 
L 295.876564 132.516408 
L 306.789097 124.247572 
L 310.361097 121.49949 
L 318.807952 115.117944 
L 322.380785 112.391518 
L 326.013674 109.675979 
L 328.404969 109.166867 
L 327.46447 108.714128 
L 326.928298 108.261449 
L 327.320668 107.809162 
L 331.47736 106.007113 
L 332.167477 104.656937 
L 332.795618 104.206063 
L 335.20559 102.854785 
L 336.14185 101.957734 
L 337.12701 101.062578 
L 340.320989 98.818184 
L 341.889298 97.474954 
L 345.035911 95.242502 
L 347.850392 93.006126 
L 351.998286 89.884741 
L 354.917408 87.658621 
L 357.857137 85.429696 
L 360.123843 83.650682 
L 363.169393 81.429876 
L 365.925285 79.206272 
L 369.535432 76.549484 
L 371.700951 74.777476 
L 375.32834 72.132605 
L 377.431915 70.36927 
L 381.10685 67.737303 
L 383.0979 65.980818 
L 386.901045 63.36444 
L 388.683355 61.611084 
L 390.069477 60.75472 
L 392.267287 59.451069 
L 393.070136 58.561059 
L 393.597864 57.684387 
L 394.050356 57.25842 
L 394.75798 56.838724 
L 398.487273 55.104063 
L 398.451056 54.655429 
L 397.529234 54.234156 
L 395.645647 53.879717 
L 392.899608 53.64078 
L 389.561275 53.568 
L 386.075272 53.704183 
L 383.046263 54.074211 
L 381.161521 54.676615 
L 380.935432 55.479676 
L 382.389782 56.422917 
L 389.829716 59.247222 
L 390.855075 59.921877 
L 390.622438 60.388809 
L 389.172343 60.657972 
L 383.699975 60.81982 
L 377.318153 61.031479 
L 374.51144 61.348529 
L 372.486697 61.858423 
L 371.813064 62.553217 
L 368.857725 63.499383 
L 380.58524 65.290104 
L 383.542344 66.073628 
L 383.269961 66.704165 
L 380.603926 67.161539 
L 373.836702 67.652136 
L 369.829114 67.986063 
L 366.389115 68.69836 
L 364.759769 69.282106 
L 364.052302 70.001734 
L 364.792398 70.809815 
L 366.808112 71.64238 
L 371.079556 73.123912 
L 371.46876 73.683101 
L 370.222061 74.104584 
L 367.714176 74.411709 
L 359.475747 75.157375 
L 357.824648 75.530123 
L 356.809778 76.022514 
L 356.444718 76.633375 
L 356.765686 77.337011 
L 357.705979 78.089171 
L 360.101389 79.531845 
L 360.620566 80.136205 
L 360.220503 80.63423 
L 358.858822 81.032673 
L 354.372528 81.653724 
L 352.085256 81.963262 
L 350.220569 82.328 
L 348.945124 82.775075 
L 348.320068 83.312993 
L 348.32321 83.930692 
L 348.823356 84.600959 
L 350.270177 85.949582 
L 350.58327 86.55768 
L 350.301701 87.092378 
L 349.370305 87.551269 
L 347.89196 87.948057 
L 342.616762 89.048203 
L 341.338415 89.48229 
L 340.511018 89.978931 
L 340.149504 90.536013 
L 340.185531 91.138826 
L 340.909754 92.975038 
L 340.671073 93.519824 
L 339.989532 94.012113 
L 338.898897 94.457016 
L 333.450228 96.12039 
L 332.569454 96.600069 
L 332.021779 97.121821 
L 331.771042 97.678524 
L 331.650683 99.402375 
L 331.34427 99.940841 
L 330.743044 100.445325 
L 329.851254 100.917096 
L 324.478374 103.172546 
L 323.880876 103.67813 
L 323.481439 104.206996 
L 322.674038 105.83918 
L 322.231945 106.364212 
L 321.610253 106.869003 
L 319.89401 107.822704 
L 317.086027 109.213219 
L 315.713693 110.191646 
L 314.751366 111.220535 
L 313.844832 112.261829 
L 312.676438 113.273895 
L 310.383576 114.71929 
L 308.104666 116.152394 
L 306.301131 117.640349 
L 303.998864 119.64176 
L 301.169347 121.575755 
L 299.12772 123.026265 
L 294.083917 126.944605 
L 290.795617 129.372161 
L 287.593112 131.808247 
L 283.650012 134.737313 
L 281.782756 136.203299 
L 279.003663 136.750299 
L 280.222601 137.23554 
L 280.82769 137.720468 
L 280.252048 138.205815 
L 276.153552 139.66907 
L 275.609245 140.159181 
L 275.464045 141.13963 
L 275.12214 141.628537 
L 274.375942 142.115884 
L 271.542566 143.568917 
L 270.55581 144.534783 
L 269.528266 145.503378 
L 266.060982 147.934389 
L 264.340686 149.382393 
L 260.927252 151.780281 
L 255.950506 155.634878 
L 233.72872 172.329016 
L 221.86374 181.294138 
L 217.537798 184.580334 
L 211.331591 189.2499 
L 202.709593 195.769728 
L 189.816365 205.536715 
L 187.217473 206.058418 
L 188.390564 206.522397 
L 188.945438 206.986681 
L 188.456618 207.451193 
L 184.700793 208.844181 
L 184.128734 209.307667 
L 183.566051 210.695073 
L 182.883083 211.157036 
L 180.238908 212.542853 
L 179.333318 213.4664 
L 178.437508 214.388596 
L 174.553693 217.147973 
L 173.4709 218.066232 
L 169.185034 221.272512 
L 159.611782 228.569486 
L 151.261653 234.92063 
L 103.654869 271.493619 
L 101.250776 271.991259 
L 102.416087 272.434157 
L 102.946206 272.876953 
L 102.55791 273.319021 
L 100.123035 274.19922 
L 98.98619 274.637556 
L 98.33205 275.07538 
L 98.110183 275.513469 
L 98.045946 275.952395 
L 97.828746 276.392459 
L 97.302271 276.833317 
L 94.332419 278.591512 
L 93.068882 279.898605 
L 89.985368 282.090893 
L 89.164295 282.962798 
L 87.945831 283.827758 
L 85.842223 285.131625 
L 84.963248 286.010476 
L 84.19528 286.885209 
L 83.008975 287.746245 
L 80.137927 289.470517 
L 79.359916 290.354821 
L 78.804497 291.230867 
L 78.35814 291.65799 
L 77.678025 292.078396 
L 73.939051 293.799732 
L 73.832727 294.24957 
L 74.555936 294.682591 
L 76.18924 295.064428 
L 78.603393 295.349747 
L 81.484452 295.488 
L 84.40491 295.432578 
L 86.946117 295.150594 
L 88.739279 294.632575 
L 89.498589 293.898273 
L 89.098294 292.997766 
L 87.690518 292.006278 
L 83.629504 290.109035 
L 82.011768 289.366102 
L 81.317553 288.828052 
L 81.92944 288.49965 
L 83.965694 288.345639 
L 94.541819 288.158501 
L 97.39113 287.901158 
L 99.039624 287.448587 
L 99.291408 286.795974 
L 98.204138 285.978973 
L 96.154409 285.065863 
L 91.775577 283.296556 
L 90.669935 282.594949 
L 90.790574 282.074751 
L 92.243918 281.733613 
L 94.852034 281.531861 
L 101.569543 281.261397 
L 104.499558 281.034052 
L 106.522619 280.662484 
L 107.408001 280.121183 
L 107.122071 279.4209 
L 105.861156 278.605295 
L 102.270866 276.90281 
L 101.021974 276.158108 
L 100.67875 275.552634 
L 101.427472 275.101695 
L 103.241595 274.787835 
L 113.793971 273.808752 
L 115.095233 273.34876 
L 115.415335 272.751646 
L 114.84542 272.040168 
L 111.191619 269.731258 
L 110.681529 269.087474 
L 110.989971 268.564519 
L 112.177546 268.160894 
L 114.125593 267.850043 
L 121.172728 266.992704 
L 122.679786 266.575193 
L 123.394344 266.049788 
L 123.332334 265.424591 
L 122.681311 264.728521 
L 120.914759 263.299317 
L 120.469219 262.654407 
L 120.624797 262.096356 
L 121.463062 261.632247 
L 122.925014 261.249032 
L 128.779322 260.249123 
L 130.259515 259.841219 
L 131.161761 259.35549 
L 131.458287 258.791637 
L 131.256557 258.16606 
L 130.280402 256.850534 
L 130.019457 256.227551 
L 130.170087 255.662241 
L 130.815543 255.16477 
L 131.93842 254.730268 
L 138.025578 253.169028 
L 138.974406 252.698503 
L 139.480926 252.17181 
L 139.599949 251.597424 
L 139.252363 249.792329 
L 139.483993 249.236872 
L 142.088052 248.666729 
L 141.098951 248.206809 
L 141.147874 247.779139 
L 142.468729 247.365775 
L 146.602242 246.504571 
L 147.993089 246.02807 
L 148.438085 245.514263 
L 148.143554 244.968575 
L 147.616914 244.403138 
L 147.369798 243.833615 
L 147.676203 243.275497 
L 148.494752 242.740763 
L 152.375376 240.858543 
L 155.597589 238.967313 
L 156.220707 238.444737 
L 156.627434 237.90993 
L 157.494601 236.322436 
L 158.104344 235.821239 
L 159.910172 234.864986 
L 161.784533 233.934222 
L 163.169904 232.978968 
L 167.693511 228.953417 
L 172.076359 226.069321 
L 175.565623 223.091938 
L 180.350802 219.696659 
L 183.418691 217.23964 
L 187.492803 214.312785 
L 190.583385 211.85877 
L 195.25782 208.44049 
L 199.04801 205.504514 
L 203.634132 202.103974 
L 208.721975 198.228008 
L 212.606203 195.329112 
L 215.698174 192.916043 
L 220.284698 189.556724 
L 223.361092 187.147599 
L 228.515788 183.321009 
L 232.306361 180.450907 
L 235.493466 178.072897 
L 238.094837 177.53645 
L 238.094837 177.53645 
" clip-path="url(#p30e8dd29e6)" style="fill: none; stroke: #1f77b4; stroke-width: 1.5; stroke-linecap: square"/>
   </g>
   <g id="line2d_22">
    <path d="M 235.982038 177.476813 
L 266.39242 154.393682 
L 270.746796 151.121796 
L 274.493344 148.323241 
L 278.774514 145.051635 
L 381.081535 67.294965 
L 382.806865 65.980818 
L 385.353103 64.24612 
L 388.521452 61.611084 
L 391.260795 59.891024 
L 392.142179 59.006588 
L 392.881022 58.119034 
L 393.408849 57.684387 
L 395.01918 56.838724 
L 396.830615 55.992965 
L 397.322655 55.554046 
L 397.222103 55.104063 
L 396.359735 54.655429 
L 394.694007 54.234156 
L 392.348197 53.879717 
L 389.611427 53.64078 
L 386.899082 53.568 
L 384.67594 53.704183 
L 383.359645 54.074211 
L 383.222613 54.676615 
L 384.319382 55.479676 
L 386.454952 56.422917 
L 394.232065 59.247222 
L 395.356987 59.921877 
L 395.046705 60.388809 
L 393.238354 60.657972 
L 386.279988 60.81982 
L 378.659763 61.031479 
L 376.116807 61.348529 
L 374.932267 61.858423 
L 375.15895 62.553217 
L 376.803074 63.499383 
L 382.878177 66.073628 
L 383.552074 66.704165 
L 382.978564 67.161539 
L 381.176842 67.461615 
L 375.145707 67.801898 
L 371.907761 67.986063 
L 369.211677 68.270455 
L 367.436104 68.69836 
L 366.755676 69.282106 
L 367.11267 70.001734 
L 368.238342 70.809815 
L 371.08076 72.432405 
L 371.90372 73.123912 
L 371.894353 73.683101 
L 370.948197 74.104584 
L 369.162217 74.411709 
L 361.91679 75.157375 
L 360.12376 75.530123 
L 359.084705 76.022514 
L 358.836269 76.633375 
L 359.244521 77.337011 
L 361.451921 79.531845 
L 361.474895 80.136205 
L 360.828786 80.63423 
L 359.534855 81.032673 
L 355.739321 81.653724 
L 352.167708 82.328 
L 351.058628 82.775075 
L 350.525737 83.312993 
L 350.506639 83.930692 
L 351.570384 85.949582 
L 351.534241 86.55768 
L 351.039621 87.092378 
L 350.070673 87.551269 
L 347.134844 88.308545 
L 344.118237 89.048203 
L 343.026621 89.48229 
L 342.332348 89.978931 
L 342.016048 90.536013 
L 341.977588 91.138826 
L 342.094665 92.38407 
L 341.92262 92.975038 
L 341.444772 93.519824 
L 340.632729 94.012113 
L 338.254752 94.869374 
L 335.732683 95.680778 
L 334.745586 96.12039 
L 334.036346 96.600069 
L 333.597114 97.121821 
L 333.212602 98.25595 
L 333.031264 98.836349 
L 332.704384 99.402375 
L 332.160386 99.940841 
L 331.381113 100.445325 
L 329.308765 101.364448 
L 327.174837 102.239086 
L 326.310572 102.693691 
L 325.639264 103.172546 
L 324.780252 104.206996 
L 324.101795 105.29847 
L 323.637544 105.83918 
L 323.028164 106.364212 
L 321.400161 107.353696 
L 317.943572 109.213219 
L 316.777635 110.191646 
L 314.79023 112.261829 
L 313.39587 113.273895 
L 308.902286 116.152394 
L 305.509662 119.147124 
L 299.939713 123.026265 
L 297.664172 124.993204 
L 295.460845 126.459535 
L 293.259085 127.913429 
L 291.482403 129.372161 
L 289.753345 130.834999 
L 287.646798 132.294664 
L 284.774451 134.247447 
L 278.308474 139.179962 
L 275.645036 141.13963 
L 271.306375 144.534783 
L 266.706362 147.934389 
L 262.970423 150.820416 
L 259.025243 153.711352 
L 254.629422 157.065404 
L 250.122572 160.425873 
L 244.376496 164.718122 
L 232.466255 173.751677 
L 228.015231 177.053513 
L 207.661037 192.513718 
L 96.200109 277.274427 
L 93.928365 279.027603 
L 91.027812 281.212488 
L 88.823916 282.962798 
L 85.794166 285.131625 
L 83.186594 287.317412 
L 79.98056 289.470517 
L 78.321907 291.230867 
L 76.863319 292.078396 
L 75.045947 292.919822 
L 74.412406 293.35377 
L 74.273295 293.799732 
L 74.829769 294.24957 
L 76.181605 294.682591 
L 78.278715 295.064428 
L 80.90169 295.349747 
L 83.682081 295.488 
L 86.16329 295.432578 
L 87.890682 295.150594 
L 88.513817 294.632575 
L 87.875443 293.898273 
L 86.06607 292.997766 
L 80.495491 291.01355 
L 77.908056 290.109035 
L 76.267446 289.366102 
L 76.016783 288.828052 
L 77.339362 288.49965 
L 80.112348 288.345639 
L 92.099283 288.158501 
L 95.120804 287.901158 
L 96.773256 287.448587 
L 96.897903 286.795974 
L 95.651716 285.978973 
L 93.47048 285.065863 
L 88.826605 283.296556 
L 87.609988 282.594949 
L 87.691541 282.074751 
L 89.15915 281.733613 
L 91.810425 281.531861 
L 101.879073 281.034052 
L 104.08621 280.662484 
L 105.106258 280.121183 
L 104.924582 279.4209 
L 103.778172 278.605295 
L 99.203118 276.158108 
L 98.876493 275.552634 
L 99.603115 275.101695 
L 101.332577 274.787835 
L 111.412588 273.808752 
L 112.709876 273.34876 
L 113.080369 272.751646 
L 112.630392 272.040168 
L 109.584455 269.731258 
L 109.261879 269.087474 
L 109.718733 268.564519 
L 110.977231 268.160894 
L 115.158992 267.58682 
L 119.392026 266.992704 
L 120.751084 266.575193 
L 121.398652 266.049788 
L 121.372413 265.424591 
L 120.85397 264.728521 
L 119.495859 263.299317 
L 119.249493 262.654407 
L 119.568977 262.096356 
L 120.508074 261.632247 
L 121.984119 261.249032 
L 127.409486 260.249123 
L 128.719514 259.841219 
L 129.511601 259.35549 
L 129.786696 258.791637 
L 129.658693 258.16606 
L 129.017063 256.850534 
L 128.952628 256.227551 
L 129.284151 255.662241 
L 130.070137 255.16477 
L 131.265751 254.730268 
L 136.909192 253.169028 
L 137.701362 252.698503 
L 138.11057 252.17181 
L 138.215171 251.597424 
L 138.11358 250.384056 
L 138.242605 249.792329 
L 138.661025 249.236872 
L 139.529322 248.666729 
L 141.878397 247.779139 
L 144.384377 246.946741 
L 145.365538 246.504571 
L 146.07049 246.02807 
L 146.50851 245.514263 
L 146.904896 244.403138 
L 147.098446 243.833615 
L 147.437539 243.275497 
L 147.988941 242.740763 
L 148.765543 242.235455 
L 150.792182 241.303446 
L 152.840509 240.411474 
L 154.301373 239.470484 
L 155.140949 238.444737 
L 155.852852 237.372115 
L 156.340984 236.840594 
L 157.740382 235.821239 
L 162.005369 233.462 
L 163.117402 232.48385 
L 165.030345 230.439644 
L 166.441474 229.439796 
L 170.404826 227.044263 
L 171.520973 226.069321 
L 173.594817 224.075857 
L 175.031253 223.091938 
L 178.844696 220.675329 
L 180.462498 219.20406 
L 181.558761 218.218657 
L 182.908786 217.23964 
L 187.324321 214.312785 
L 191.52078 210.885594 
L 195.720248 207.948228 
L 199.992991 204.53637 
L 204.662515 201.126926 
L 208.328642 198.228008 
L 212.953178 194.843412 
L 216.032232 192.438369 
L 221.245087 188.588869 
L 225.033261 185.717636 
L 230.143048 181.881147 
L 235.903258 177.53645 
L 235.903258 177.53645 
" clip-path="url(#p30e8dd29e6)" style="fill: none; stroke: #ff7f0e; stroke-opacity: 0.5; stroke-width: 1.5; stroke-linecap: square"/>
   </g>
   <g id="patch_3">
    <path d="M 57.6 307.584 
L 57.6 41.472 
" style="fill: none; stroke: #000000; stroke-width: 0.8; stroke-linejoin: miter; stroke-linecap: square"/>
   </g>
   <g id="patch_4">
    <path d="M 414.72 307.584 
L 414.72 41.472 
" style="fill: none; stroke: #000000; stroke-width: 0.8; stroke-linejoin: miter; stroke-linecap: square"/>
   </g>
   <g id="patch_5">
    <path d="M 57.6 307.584 
L 414.72 307.584 
" style="fill: none; stroke: #000000; stroke-width: 0.8; stroke-linejoin: miter; stroke-linecap: square"/>
   </g>
   <g id="patch_6">
    <path d="M 57.6 41.472 
L 414.72 41.472 
" style="fill: none; stroke: #000000; stroke-width: 0.8; stroke-linejoin: miter; stroke-linecap: square"/>
   </g>
   <g id="text_13">
    <!-- Compare - Epoch 3000 -->
    <g transform="translate(167.416875 35.472) scale(0.12 -0.12)">
     <defs>
      <path id="DejaVuSans-43" d="M 4122 4306 
L 4122 3641 
Q 3803 3938 3442 4084 
Q 3081 4231 2675 4231 
Q 1875 4231 1450 3742 
Q 1025 3253 1025 2328 
Q 1025 1406 1450 917 
Q 1875 428 2675 428 
Q 3081 428 3442 575 
Q 3803 722 4122 1019 
L 4122 359 
Q 3791 134 3420 21 
Q 3050 -91 2638 -91 
Q 1578 -91 968 557 
Q 359 1206 359 2328 
Q 359 3453 968 4101 
Q 1578 4750 2638 4750 
Q 3056 4750 3426 4639 
Q 3797 4528 4122 4306 
z
" transform="scale(0.015625)"/>
      <path id="DejaVuSans-6f" d="M 1959 3097 
Q 1497 3097 1228 2736 
Q 959 2375 959 1747 
Q 959 1119 1226 758 
Q 1494 397 1959 397 
Q 2419 397 2687 759 
Q 2956 1122 2956 1747 
Q 2956 2369 2687 2733 
Q 2419 3097 1959 3097 
z
M 1959 3584 
Q 2709 3584 3137 3096 
Q 3566 2609 3566 1747 
Q 3566 888 3137 398 
Q 2709 -91 1959 -91 
Q 1206 -91 779 398 
Q 353 888 353 1747 
Q 353 2609 779 3096 
Q 1206 3584 1959 3584 
z
" transform="scale(0.015625)"/>
      <path id="DejaVuSans-6d" d="M 3328 2828 
Q 3544 3216 3844 3400 
Q 4144 3584 4550 3584 
Q 5097 3584 5394 3201 
Q 5691 2819 5691 2113 
L 5691 0 
L 5113 0 
L 5113 2094 
Q 5113 2597 4934 2840 
Q 4756 3084 4391 3084 
Q 3944 3084 3684 2787 
Q 3425 2491 3425 1978 
L 3425 0 
L 2847 0 
L 2847 2094 
Q 2847 2600 2669 2842 
Q 2491 3084 2119 3084 
Q 1678 3084 1418 2786 
Q 1159 2488 1159 1978 
L 1159 0 
L 581 0 
L 581 3500 
L 1159 3500 
L 1159 2956 
Q 1356 3278 1631 3431 
Q 1906 3584 2284 3584 
Q 2666 3584 2933 3390 
Q 3200 3197 3328 2828 
z
" transform="scale(0.015625)"/>
      <path id="DejaVuSans-70" d="M 1159 525 
L 1159 -1331 
L 581 -1331 
L 581 3500 
L 1159 3500 
L 1159 2969 
Q 1341 3281 1617 3432 
Q 1894 3584 2278 3584 
Q 2916 3584 3314 3078 
Q 3713 2572 3713 1747 
Q 3713 922 3314 415 
Q 2916 -91 2278 -91 
Q 1894 -91 1617 61 
Q 1341 213 1159 525 
z
M 3116 1747 
Q 3116 2381 2855 2742 
Q 2594 3103 2138 3103 
Q 1681 3103 1420 2742 
Q 1159 2381 1159 1747 
Q 1159 1113 1420 752 
Q 1681 391 2138 391 
Q 2594 391 2855 752 
Q 3116 1113 3116 1747 
z
" transform="scale(0.015625)"/>
      <path id="DejaVuSans-72" d="M 2631 2963 
Q 2534 3019 2420 3045 
Q 2306 3072 2169 3072 
Q 1681 3072 1420 2755 
Q 1159 2438 1159 1844 
L 1159 0 
L 581 0 
L 581 3500 
L 1159 3500 
L 1159 2956 
Q 1341 3275 1631 3429 
Q 1922 3584 2338 3584 
Q 2397 3584 2469 3576 
Q 2541 3569 2628 3553 
L 2631 2963 
z
" transform="scale(0.015625)"/>
      <path id="DejaVuSans-20" transform="scale(0.015625)"/>
      <path id="DejaVuSans-2d" d="M 313 2009 
L 1997 2009 
L 1997 1497 
L 313 1497 
L 313 2009 
z
" transform="scale(0.015625)"/>
      <path id="DejaVuSans-45" d="M 628 4666 
L 3578 4666 
L 3578 4134 
L 1259 4134 
L 1259 2753 
L 3481 2753 
L 3481 2222 
L 1259 2222 
L 1259 531 
L 3634 531 
L 3634 0 
L 628 0 
L 628 4666 
z
" transform="scale(0.015625)"/>
      <path id="DejaVuSans-63" d="M 3122 3366 
L 3122 2828 
Q 2878 2963 2633 3030 
Q 2388 3097 2138 3097 
Q 1578 3097 1268 2742 
Q 959 2388 959 1747 
Q 959 1106 1268 751 
Q 1578 397 2138 397 
Q 2388 397 2633 464 
Q 2878 531 3122 666 
L 3122 134 
Q 2881 22 2623 -34 
Q 2366 -91 2075 -91 
Q 1284 -91 818 406 
Q 353 903 353 1747 
Q 353 2603 823 3093 
Q 1294 3584 2113 3584 
Q 2378 3584 2631 3529 
Q 2884 3475 3122 3366 
z
" transform="scale(0.015625)"/>
      <path id="DejaVuSans-68" d="M 3513 2113 
L 3513 0 
L 2938 0 
L 2938 2094 
Q 2938 2591 2744 2837 
Q 2550 3084 2163 3084 
Q 1697 3084 1428 2787 
Q 1159 2491 1159 1978 
L 1159 0 
L 581 0 
L 581 4863 
L 1159 4863 
L 1159 2956 
Q 1366 3272 1645 3428 
Q 1925 3584 2291 3584 
Q 2894 3584 3203 3211 
Q 3513 2838 3513 2113 
z
" transform="scale(0.015625)"/>
      <path id="DejaVuSans-33" d="M 2597 2516 
Q 3050 2419 3304 2112 
Q 3559 1806 3559 1356 
Q 3559 666 3084 287 
Q 2609 -91 1734 -91 
Q 1441 -91 1130 -33 
Q 819 25 488 141 
L 488 750 
Q 750 597 1062 519 
Q 1375 441 1716 441 
Q 2309 441 2620 675 
Q 2931 909 2931 1356 
Q 2931 1769 2642 2001 
Q 2353 2234 1838 2234 
L 1294 2234 
L 1294 2753 
L 1863 2753 
Q 2328 2753 2575 2939 
Q 2822 3125 2822 3475 
Q 2822 3834 2567 4026 
Q 2313 4219 1838 4219 
Q 1578 4219 1281 4162 
Q 984 4106 628 3988 
L 628 4550 
Q 988 4650 1302 4700 
Q 1616 4750 1894 4750 
Q 2613 4750 3031 4423 
Q 3450 4097 3450 3541 
Q 3450 3153 3228 2886 
Q 3006 2619 2597 2516 
z
" transform="scale(0.015625)"/>
     </defs>
     <use xlink:href="#DejaVuSans-43"/>
     <use xlink:href="#DejaVuSans-6f" transform="translate(69.824219 0)"/>
     <use xlink:href="#DejaVuSans-6d" transform="translate(131.005859 0)"/>
     <use xlink:href="#DejaVuSans-70" transform="translate(228.417969 0)"/>
     <use xlink:href="#DejaVuSans-61" transform="translate(291.894531 0)"/>
     <use xlink:href="#DejaVuSans-72" transform="translate(353.173828 0)"/>
     <use xlink:href="#DejaVuSans-65" transform="translate(392.037109 0)"/>
     <use xlink:href="#DejaVuSans-20" transform="translate(453.560547 0)"/>
     <use xlink:href="#DejaVuSans-2d" transform="translate(485.347656 0)"/>
     <use xlink:href="#DejaVuSans-20" transform="translate(521.431641 0)"/>
     <use xlink:href="#DejaVuSans-45" transform="translate(553.21875 0)"/>
     <use xlink:href="#DejaVuSans-70" transform="translate(616.402344 0)"/>
     <use xlink:href="#DejaVuSans-6f" transform="translate(679.878906 0)"/>
     <use xlink:href="#DejaVuSans-63" transform="translate(741.060547 0)"/>
     <use xlink:href="#DejaVuSans-68" transform="translate(796.041016 0)"/>
     <use xlink:href="#DejaVuSans-20" transform="translate(859.419922 0)"/>
     <use xlink:href="#DejaVuSans-33" transform="translate(891.207031 0)"/>
     <use xlink:href="#DejaVuSans-30" transform="translate(954.830078 0)"/>
     <use xlink:href="#DejaVuSans-30" transform="translate(1018.453125 0)"/>
     <use xlink:href="#DejaVuSans-30" transform="translate(1082.076172 0)"/>
    </g>
   </g>
   <g id="legend_1">
    <g id="patch_7">
     <path d="M 64.6 78.82825 
L 181.128125 78.82825 
Q 183.128125 78.82825 183.128125 76.82825 
L 183.128125 48.472 
Q 183.128125 46.472 181.128125 46.472 
L 64.6 46.472 
Q 62.6 46.472 62.6 48.472 
L 62.6 76.82825 
Q 62.6 78.82825 64.6 78.82825 
z
" style="fill: #ffffff; opacity: 0.8; stroke: #cccccc; stroke-linejoin: miter"/>
    </g>
    <g id="line2d_23">
     <path d="M 66.6 54.570437 
L 76.6 54.570437 
L 86.6 54.570437 
" style="fill: none; stroke: #1f77b4; stroke-width: 1.5; stroke-linecap: square"/>
    </g>
    <g id="text_14">
     <!-- Pred: Sample 1 -->
     <g transform="translate(94.6 58.070437) scale(0.1 -0.1)">
      <defs>
       <path id="DejaVuSans-50" d="M 1259 4147 
L 1259 2394 
L 2053 2394 
Q 2494 2394 2734 2622 
Q 2975 2850 2975 3272 
Q 2975 3691 2734 3919 
Q 2494 4147 2053 4147 
L 1259 4147 
z
M 628 4666 
L 2053 4666 
Q 2838 4666 3239 4311 
Q 3641 3956 3641 3272 
Q 3641 2581 3239 2228 
Q 2838 1875 2053 1875 
L 1259 1875 
L 1259 0 
L 628 0 
L 628 4666 
z
" transform="scale(0.015625)"/>
       <path id="DejaVuSans-3a" d="M 750 794 
L 1409 794 
L 1409 0 
L 750 0 
L 750 794 
z
M 750 3309 
L 1409 3309 
L 1409 2516 
L 750 2516 
L 750 3309 
z
" transform="scale(0.015625)"/>
       <path id="DejaVuSans-53" d="M 3425 4513 
L 3425 3897 
Q 3066 4069 2747 4153 
Q 2428 4238 2131 4238 
Q 1616 4238 1336 4038 
Q 1056 3838 1056 3469 
Q 1056 3159 1242 3001 
Q 1428 2844 1947 2747 
L 2328 2669 
Q 3034 2534 3370 2195 
Q 3706 1856 3706 1288 
Q 3706 609 3251 259 
Q 2797 -91 1919 -91 
Q 1588 -91 1214 -16 
Q 841 59 441 206 
L 441 856 
Q 825 641 1194 531 
Q 1563 422 1919 422 
Q 2459 422 2753 634 
Q 3047 847 3047 1241 
Q 3047 1584 2836 1778 
Q 2625 1972 2144 2069 
L 1759 2144 
Q 1053 2284 737 2584 
Q 422 2884 422 3419 
Q 422 4038 858 4394 
Q 1294 4750 2059 4750 
Q 2388 4750 2728 4690 
Q 3069 4631 3425 4513 
z
" transform="scale(0.015625)"/>
      </defs>
      <use xlink:href="#DejaVuSans-50"/>
      <use xlink:href="#DejaVuSans-72" transform="translate(58.552734 0)"/>
      <use xlink:href="#DejaVuSans-65" transform="translate(97.416016 0)"/>
      <use xlink:href="#DejaVuSans-64" transform="translate(158.939453 0)"/>
      <use xlink:href="#DejaVuSans-3a" transform="translate(222.416016 0)"/>
      <use xlink:href="#DejaVuSans-20" transform="translate(256.107422 0)"/>
      <use xlink:href="#DejaVuSans-53" transform="translate(287.894531 0)"/>
      <use xlink:href="#DejaVuSans-61" transform="translate(351.371094 0)"/>
      <use xlink:href="#DejaVuSans-6d" transform="translate(412.650391 0)"/>
      <use xlink:href="#DejaVuSans-70" transform="translate(510.0625 0)"/>
      <use xlink:href="#DejaVuSans-6c" transform="translate(573.539062 0)"/>
      <use xlink:href="#DejaVuSans-65" transform="translate(601.322266 0)"/>
      <use xlink:href="#DejaVuSans-20" transform="translate(662.845703 0)"/>
      <use xlink:href="#DejaVuSans-31" transform="translate(694.632812 0)"/>
     </g>
    </g>
    <g id="line2d_24">
     <path d="M 66.6 69.248562 
L 76.6 69.248562 
L 86.6 69.248562 
" style="fill: none; stroke: #ff7f0e; stroke-opacity: 0.5; stroke-width: 1.5; stroke-linecap: square"/>
    </g>
    <g id="text_15">
     <!-- Target: Sample 1 -->
     <g transform="translate(94.6 72.748562) scale(0.1 -0.1)">
      <defs>
       <path id="DejaVuSans-54" d="M -19 4666 
L 3928 4666 
L 3928 4134 
L 2272 4134 
L 2272 0 
L 1638 0 
L 1638 4134 
L -19 4134 
L -19 4666 
z
" transform="scale(0.015625)"/>
       <path id="DejaVuSans-67" d="M 2906 1791 
Q 2906 2416 2648 2759 
Q 2391 3103 1925 3103 
Q 1463 3103 1205 2759 
Q 947 2416 947 1791 
Q 947 1169 1205 825 
Q 1463 481 1925 481 
Q 2391 481 2648 825 
Q 2906 1169 2906 1791 
z
M 3481 434 
Q 3481 -459 3084 -895 
Q 2688 -1331 1869 -1331 
Q 1566 -1331 1297 -1286 
Q 1028 -1241 775 -1147 
L 775 -588 
Q 1028 -725 1275 -790 
Q 1522 -856 1778 -856 
Q 2344 -856 2625 -561 
Q 2906 -266 2906 331 
L 2906 616 
Q 2728 306 2450 153 
Q 2172 0 1784 0 
Q 1141 0 747 490 
Q 353 981 353 1791 
Q 353 2603 747 3093 
Q 1141 3584 1784 3584 
Q 2172 3584 2450 3431 
Q 2728 3278 2906 2969 
L 2906 3500 
L 3481 3500 
L 3481 434 
z
" transform="scale(0.015625)"/>
       <path id="DejaVuSans-74" d="M 1172 4494 
L 1172 3500 
L 2356 3500 
L 2356 3053 
L 1172 3053 
L 1172 1153 
Q 1172 725 1289 603 
Q 1406 481 1766 481 
L 2356 481 
L 2356 0 
L 1766 0 
Q 1100 0 847 248 
Q 594 497 594 1153 
L 594 3053 
L 172 3053 
L 172 3500 
L 594 3500 
L 594 4494 
L 1172 4494 
z
" transform="scale(0.015625)"/>
      </defs>
      <use xlink:href="#DejaVuSans-54"/>
      <use xlink:href="#DejaVuSans-61" transform="translate(44.583984 0)"/>
      <use xlink:href="#DejaVuSans-72" transform="translate(105.863281 0)"/>
      <use xlink:href="#DejaVuSans-67" transform="translate(145.226562 0)"/>
      <use xlink:href="#DejaVuSans-65" transform="translate(208.703125 0)"/>
      <use xlink:href="#DejaVuSans-74" transform="translate(270.226562 0)"/>
      <use xlink:href="#DejaVuSans-3a" transform="translate(309.435547 0)"/>
      <use xlink:href="#DejaVuSans-20" transform="translate(343.126953 0)"/>
      <use xlink:href="#DejaVuSans-53" transform="translate(374.914062 0)"/>
      <use xlink:href="#DejaVuSans-61" transform="translate(438.390625 0)"/>
      <use xlink:href="#DejaVuSans-6d" transform="translate(499.669922 0)"/>
      <use xlink:href="#DejaVuSans-70" transform="translate(597.082031 0)"/>
      <use xlink:href="#DejaVuSans-6c" transform="translate(660.558594 0)"/>
      <use xlink:href="#DejaVuSans-65" transform="translate(688.341797 0)"/>
      <use xlink:href="#DejaVuSans-20" transform="translate(749.865234 0)"/>
      <use xlink:href="#DejaVuSans-31" transform="translate(781.652344 0)"/>
     </g>
    </g>
   </g>
  </g>
 </g>
 <defs>
  <clipPath id="p30e8dd29e6">
   <rect x="57.6" y="41.472" width="357.12" height="266.112"/>
  </clipPath>
 </defs>
</svg>
