<?xml version="1.0" encoding="utf-8" standalone="no"?>
<!DOCTYPE svg PUBLIC "-//W3C//DTD SVG 1.1//EN"
  "http://www.w3.org/Graphics/SVG/1.1/DTD/svg11.dtd">
<svg xmlns:xlink="http://www.w3.org/1999/xlink" width="460.8pt" height="345.6pt" viewBox="0 0 460.8 345.6" xmlns="http://www.w3.org/2000/svg" version="1.1">
 <metadata>
  <rdf:RDF xmlns:dc="http://purl.org/dc/elements/1.1/" xmlns:cc="http://creativecommons.org/ns#" xmlns:rdf="http://www.w3.org/1999/02/22-rdf-syntax-ns#">
   <cc:Work>
    <dc:type rdf:resource="http://purl.org/dc/dcmitype/StillImage"/>
    <dc:date>2025-05-30T20:17:40.323182</dc:date>
    <dc:format>image/svg+xml</dc:format>
    <dc:creator>
     <cc:Agent>
      <dc:title>Matplotlib v3.10.3, https://matplotlib.org/</dc:title>
     </cc:Agent>
    </dc:creator>
   </cc:Work>
  </rdf:RDF>
 </metadata>
 <defs>
  <style type="text/css">*{stroke-linejoin: round; stroke-linecap: butt}</style>
 </defs>
 <g id="figure_1">
  <g id="patch_1">
   <path d="M 0 345.6 
L 460.8 345.6 
L 460.8 0 
L 0 0 
z
" style="fill: #ffffff"/>
  </g>
  <g id="axes_1">
   <g id="patch_2">
    <path d="M 57.6 307.584 
L 414.72 307.584 
L 414.72 41.472 
L 57.6 41.472 
z
" style="fill: #ffffff"/>
   </g>
   <g id="matplotlib.axis_1">
    <g id="xtick_1">
     <g id="line2d_1">
      <path d="M 76.293969 307.584 
L 76.293969 41.472 
" clip-path="url(#p65222d9cdf)" style="fill: none; stroke: #b0b0b0; stroke-opacity: 0.5; stroke-width: 0.8; stroke-linecap: square"/>
     </g>
     <g id="line2d_2">
      <defs>
       <path id="m77ba2fd8e9" d="M 0 0 
L 0 3.5 
" style="stroke: #000000; stroke-width: 0.8"/>
      </defs>
      <g>
       <use xlink:href="#m77ba2fd8e9" x="76.293969" y="307.584" style="stroke: #000000; stroke-width: 0.8"/>
      </g>
     </g>
     <g id="text_1">
      <!-- −1.00 -->
      <g transform="translate(60.971312 322.182437) scale(0.1 -0.1)">
       <defs>
        <path id="DejaVuSans-2212" d="M 678 2272 
L 4684 2272 
L 4684 1741 
L 678 1741 
L 678 2272 
z
" transform="scale(0.015625)"/>
        <path id="DejaVuSans-31" d="M 794 531 
L 1825 531 
L 1825 4091 
L 703 3866 
L 703 4441 
L 1819 4666 
L 2450 4666 
L 2450 531 
L 3481 531 
L 3481 0 
L 794 0 
L 794 531 
z
" transform="scale(0.015625)"/>
        <path id="DejaVuSans-2e" d="M 684 794 
L 1344 794 
L 1344 0 
L 684 0 
L 684 794 
z
" transform="scale(0.015625)"/>
        <path id="DejaVuSans-30" d="M 2034 4250 
Q 1547 4250 1301 3770 
Q 1056 3291 1056 2328 
Q 1056 1369 1301 889 
Q 1547 409 2034 409 
Q 2525 409 2770 889 
Q 3016 1369 3016 2328 
Q 3016 3291 2770 3770 
Q 2525 4250 2034 4250 
z
M 2034 4750 
Q 2819 4750 3233 4129 
Q 3647 3509 3647 2328 
Q 3647 1150 3233 529 
Q 2819 -91 2034 -91 
Q 1250 -91 836 529 
Q 422 1150 422 2328 
Q 422 3509 836 4129 
Q 1250 4750 2034 4750 
z
" transform="scale(0.015625)"/>
       </defs>
       <use xlink:href="#DejaVuSans-2212"/>
       <use xlink:href="#DejaVuSans-31" transform="translate(83.789062 0)"/>
       <use xlink:href="#DejaVuSans-2e" transform="translate(147.412109 0)"/>
       <use xlink:href="#DejaVuSans-30" transform="translate(179.199219 0)"/>
       <use xlink:href="#DejaVuSans-30" transform="translate(242.822266 0)"/>
      </g>
     </g>
    </g>
    <g id="xtick_2">
     <g id="line2d_3">
      <path d="M 116.486437 307.584 
L 116.486437 41.472 
" clip-path="url(#p65222d9cdf)" style="fill: none; stroke: #b0b0b0; stroke-opacity: 0.5; stroke-width: 0.8; stroke-linecap: square"/>
     </g>
     <g id="line2d_4">
      <g>
       <use xlink:href="#m77ba2fd8e9" x="116.486437" y="307.584" style="stroke: #000000; stroke-width: 0.8"/>
      </g>
     </g>
     <g id="text_2">
      <!-- −0.75 -->
      <g transform="translate(101.163781 322.182437) scale(0.1 -0.1)">
       <defs>
        <path id="DejaVuSans-37" d="M 525 4666 
L 3525 4666 
L 3525 4397 
L 1831 0 
L 1172 0 
L 2766 4134 
L 525 4134 
L 525 4666 
z
" transform="scale(0.015625)"/>
        <path id="DejaVuSans-35" d="M 691 4666 
L 3169 4666 
L 3169 4134 
L 1269 4134 
L 1269 2991 
Q 1406 3038 1543 3061 
Q 1681 3084 1819 3084 
Q 2600 3084 3056 2656 
Q 3513 2228 3513 1497 
Q 3513 744 3044 326 
Q 2575 -91 1722 -91 
Q 1428 -91 1123 -41 
Q 819 9 494 109 
L 494 744 
Q 775 591 1075 516 
Q 1375 441 1709 441 
Q 2250 441 2565 725 
Q 2881 1009 2881 1497 
Q 2881 1984 2565 2268 
Q 2250 2553 1709 2553 
Q 1456 2553 1204 2497 
Q 953 2441 691 2322 
L 691 4666 
z
" transform="scale(0.015625)"/>
       </defs>
       <use xlink:href="#DejaVuSans-2212"/>
       <use xlink:href="#DejaVuSans-30" transform="translate(83.789062 0)"/>
       <use xlink:href="#DejaVuSans-2e" transform="translate(147.412109 0)"/>
       <use xlink:href="#DejaVuSans-37" transform="translate(179.199219 0)"/>
       <use xlink:href="#DejaVuSans-35" transform="translate(242.822266 0)"/>
      </g>
     </g>
    </g>
    <g id="xtick_3">
     <g id="line2d_5">
      <path d="M 156.678906 307.584 
L 156.678906 41.472 
" clip-path="url(#p65222d9cdf)" style="fill: none; stroke: #b0b0b0; stroke-opacity: 0.5; stroke-width: 0.8; stroke-linecap: square"/>
     </g>
     <g id="line2d_6">
      <g>
       <use xlink:href="#m77ba2fd8e9" x="156.678906" y="307.584" style="stroke: #000000; stroke-width: 0.8"/>
      </g>
     </g>
     <g id="text_3">
      <!-- −0.50 -->
      <g transform="translate(141.35625 322.182437) scale(0.1 -0.1)">
       <use xlink:href="#DejaVuSans-2212"/>
       <use xlink:href="#DejaVuSans-30" transform="translate(83.789062 0)"/>
       <use xlink:href="#DejaVuSans-2e" transform="translate(147.412109 0)"/>
       <use xlink:href="#DejaVuSans-35" transform="translate(179.199219 0)"/>
       <use xlink:href="#DejaVuSans-30" transform="translate(242.822266 0)"/>
      </g>
     </g>
    </g>
    <g id="xtick_4">
     <g id="line2d_7">
      <path d="M 196.871375 307.584 
L 196.871375 41.472 
" clip-path="url(#p65222d9cdf)" style="fill: none; stroke: #b0b0b0; stroke-opacity: 0.5; stroke-width: 0.8; stroke-linecap: square"/>
     </g>
     <g id="line2d_8">
      <g>
       <use xlink:href="#m77ba2fd8e9" x="196.871375" y="307.584" style="stroke: #000000; stroke-width: 0.8"/>
      </g>
     </g>
     <g id="text_4">
      <!-- −0.25 -->
      <g transform="translate(181.548718 322.182437) scale(0.1 -0.1)">
       <defs>
        <path id="DejaVuSans-32" d="M 1228 531 
L 3431 531 
L 3431 0 
L 469 0 
L 469 531 
Q 828 903 1448 1529 
Q 2069 2156 2228 2338 
Q 2531 2678 2651 2914 
Q 2772 3150 2772 3378 
Q 2772 3750 2511 3984 
Q 2250 4219 1831 4219 
Q 1534 4219 1204 4116 
Q 875 4013 500 3803 
L 500 4441 
Q 881 4594 1212 4672 
Q 1544 4750 1819 4750 
Q 2544 4750 2975 4387 
Q 3406 4025 3406 3419 
Q 3406 3131 3298 2873 
Q 3191 2616 2906 2266 
Q 2828 2175 2409 1742 
Q 1991 1309 1228 531 
z
" transform="scale(0.015625)"/>
       </defs>
       <use xlink:href="#DejaVuSans-2212"/>
       <use xlink:href="#DejaVuSans-30" transform="translate(83.789062 0)"/>
       <use xlink:href="#DejaVuSans-2e" transform="translate(147.412109 0)"/>
       <use xlink:href="#DejaVuSans-32" transform="translate(179.199219 0)"/>
       <use xlink:href="#DejaVuSans-35" transform="translate(242.822266 0)"/>
      </g>
     </g>
    </g>
    <g id="xtick_5">
     <g id="line2d_9">
      <path d="M 237.063843 307.584 
L 237.063843 41.472 
" clip-path="url(#p65222d9cdf)" style="fill: none; stroke: #b0b0b0; stroke-opacity: 0.5; stroke-width: 0.8; stroke-linecap: square"/>
     </g>
     <g id="line2d_10">
      <g>
       <use xlink:href="#m77ba2fd8e9" x="237.063843" y="307.584" style="stroke: #000000; stroke-width: 0.8"/>
      </g>
     </g>
     <g id="text_5">
      <!-- 0.00 -->
      <g transform="translate(225.931031 322.182437) scale(0.1 -0.1)">
       <use xlink:href="#DejaVuSans-30"/>
       <use xlink:href="#DejaVuSans-2e" transform="translate(63.623047 0)"/>
       <use xlink:href="#DejaVuSans-30" transform="translate(95.410156 0)"/>
       <use xlink:href="#DejaVuSans-30" transform="translate(159.033203 0)"/>
      </g>
     </g>
    </g>
    <g id="xtick_6">
     <g id="line2d_11">
      <path d="M 277.256312 307.584 
L 277.256312 41.472 
" clip-path="url(#p65222d9cdf)" style="fill: none; stroke: #b0b0b0; stroke-opacity: 0.5; stroke-width: 0.8; stroke-linecap: square"/>
     </g>
     <g id="line2d_12">
      <g>
       <use xlink:href="#m77ba2fd8e9" x="277.256312" y="307.584" style="stroke: #000000; stroke-width: 0.8"/>
      </g>
     </g>
     <g id="text_6">
      <!-- 0.25 -->
      <g transform="translate(266.1235 322.182437) scale(0.1 -0.1)">
       <use xlink:href="#DejaVuSans-30"/>
       <use xlink:href="#DejaVuSans-2e" transform="translate(63.623047 0)"/>
       <use xlink:href="#DejaVuSans-32" transform="translate(95.410156 0)"/>
       <use xlink:href="#DejaVuSans-35" transform="translate(159.033203 0)"/>
      </g>
     </g>
    </g>
    <g id="xtick_7">
     <g id="line2d_13">
      <path d="M 317.448781 307.584 
L 317.448781 41.472 
" clip-path="url(#p65222d9cdf)" style="fill: none; stroke: #b0b0b0; stroke-opacity: 0.5; stroke-width: 0.8; stroke-linecap: square"/>
     </g>
     <g id="line2d_14">
      <g>
       <use xlink:href="#m77ba2fd8e9" x="317.448781" y="307.584" style="stroke: #000000; stroke-width: 0.8"/>
      </g>
     </g>
     <g id="text_7">
      <!-- 0.50 -->
      <g transform="translate(306.315968 322.182437) scale(0.1 -0.1)">
       <use xlink:href="#DejaVuSans-30"/>
       <use xlink:href="#DejaVuSans-2e" transform="translate(63.623047 0)"/>
       <use xlink:href="#DejaVuSans-35" transform="translate(95.410156 0)"/>
       <use xlink:href="#DejaVuSans-30" transform="translate(159.033203 0)"/>
      </g>
     </g>
    </g>
    <g id="xtick_8">
     <g id="line2d_15">
      <path d="M 357.641249 307.584 
L 357.641249 41.472 
" clip-path="url(#p65222d9cdf)" style="fill: none; stroke: #b0b0b0; stroke-opacity: 0.5; stroke-width: 0.8; stroke-linecap: square"/>
     </g>
     <g id="line2d_16">
      <g>
       <use xlink:href="#m77ba2fd8e9" x="357.641249" y="307.584" style="stroke: #000000; stroke-width: 0.8"/>
      </g>
     </g>
     <g id="text_8">
      <!-- 0.75 -->
      <g transform="translate(346.508437 322.182437) scale(0.1 -0.1)">
       <use xlink:href="#DejaVuSans-30"/>
       <use xlink:href="#DejaVuSans-2e" transform="translate(63.623047 0)"/>
       <use xlink:href="#DejaVuSans-37" transform="translate(95.410156 0)"/>
       <use xlink:href="#DejaVuSans-35" transform="translate(159.033203 0)"/>
      </g>
     </g>
    </g>
    <g id="xtick_9">
     <g id="line2d_17">
      <path d="M 397.833718 307.584 
L 397.833718 41.472 
" clip-path="url(#p65222d9cdf)" style="fill: none; stroke: #b0b0b0; stroke-opacity: 0.5; stroke-width: 0.8; stroke-linecap: square"/>
     </g>
     <g id="line2d_18">
      <g>
       <use xlink:href="#m77ba2fd8e9" x="397.833718" y="307.584" style="stroke: #000000; stroke-width: 0.8"/>
      </g>
     </g>
     <g id="text_9">
      <!-- 1.00 -->
      <g transform="translate(386.700906 322.182437) scale(0.1 -0.1)">
       <use xlink:href="#DejaVuSans-31"/>
       <use xlink:href="#DejaVuSans-2e" transform="translate(63.623047 0)"/>
       <use xlink:href="#DejaVuSans-30" transform="translate(95.410156 0)"/>
       <use xlink:href="#DejaVuSans-30" transform="translate(159.033203 0)"/>
      </g>
     </g>
    </g>
    <g id="text_10">
     <!-- Index -->
     <g transform="translate(222.393594 335.860562) scale(0.1 -0.1)">
      <defs>
       <path id="DejaVuSans-49" d="M 628 4666 
L 1259 4666 
L 1259 0 
L 628 0 
L 628 4666 
z
" transform="scale(0.015625)"/>
       <path id="DejaVuSans-6e" d="M 3513 2113 
L 3513 0 
L 2938 0 
L 2938 2094 
Q 2938 2591 2744 2837 
Q 2550 3084 2163 3084 
Q 1697 3084 1428 2787 
Q 1159 2491 1159 1978 
L 1159 0 
L 581 0 
L 581 3500 
L 1159 3500 
L 1159 2956 
Q 1366 3272 1645 3428 
Q 1925 3584 2291 3584 
Q 2894 3584 3203 3211 
Q 3513 2838 3513 2113 
z
" transform="scale(0.015625)"/>
       <path id="DejaVuSans-64" d="M 2906 2969 
L 2906 4863 
L 3481 4863 
L 3481 0 
L 2906 0 
L 2906 525 
Q 2725 213 2448 61 
Q 2172 -91 1784 -91 
Q 1150 -91 751 415 
Q 353 922 353 1747 
Q 353 2572 751 3078 
Q 1150 3584 1784 3584 
Q 2172 3584 2448 3432 
Q 2725 3281 2906 2969 
z
M 947 1747 
Q 947 1113 1208 752 
Q 1469 391 1925 391 
Q 2381 391 2643 752 
Q 2906 1113 2906 1747 
Q 2906 2381 2643 2742 
Q 2381 3103 1925 3103 
Q 1469 3103 1208 2742 
Q 947 2381 947 1747 
z
" transform="scale(0.015625)"/>
       <path id="DejaVuSans-65" d="M 3597 1894 
L 3597 1613 
L 953 1613 
Q 991 1019 1311 708 
Q 1631 397 2203 397 
Q 2534 397 2845 478 
Q 3156 559 3463 722 
L 3463 178 
Q 3153 47 2828 -22 
Q 2503 -91 2169 -91 
Q 1331 -91 842 396 
Q 353 884 353 1716 
Q 353 2575 817 3079 
Q 1281 3584 2069 3584 
Q 2775 3584 3186 3129 
Q 3597 2675 3597 1894 
z
M 3022 2063 
Q 3016 2534 2758 2815 
Q 2500 3097 2075 3097 
Q 1594 3097 1305 2825 
Q 1016 2553 972 2059 
L 3022 2063 
z
" transform="scale(0.015625)"/>
       <path id="DejaVuSans-78" d="M 3513 3500 
L 2247 1797 
L 3578 0 
L 2900 0 
L 1881 1375 
L 863 0 
L 184 0 
L 1544 1831 
L 300 3500 
L 978 3500 
L 1906 2253 
L 2834 3500 
L 3513 3500 
z
" transform="scale(0.015625)"/>
      </defs>
      <use xlink:href="#DejaVuSans-49"/>
      <use xlink:href="#DejaVuSans-6e" transform="translate(29.492188 0)"/>
      <use xlink:href="#DejaVuSans-64" transform="translate(92.871094 0)"/>
      <use xlink:href="#DejaVuSans-65" transform="translate(156.347656 0)"/>
      <use xlink:href="#DejaVuSans-78" transform="translate(216.121094 0)"/>
     </g>
    </g>
   </g>
   <g id="matplotlib.axis_2">
    <g id="ytick_1">
     <g id="line2d_19">
      <path d="M 57.6 295.50573 
L 414.72 295.50573 
" clip-path="url(#p65222d9cdf)" style="fill: none; stroke: #b0b0b0; stroke-opacity: 0.5; stroke-width: 0.8; stroke-linecap: square"/>
     </g>
     <g id="line2d_20">
      <defs>
       <path id="meca3c9399d" d="M 0 0 
L -3.5 0 
" style="stroke: #000000; stroke-width: 0.8"/>
      </defs>
      <g>
       <use xlink:href="#meca3c9399d" x="57.6" y="295.50573" style="stroke: #000000; stroke-width: 0.8"/>
      </g>
     </g>
     <g id="text_11">
      <!-- −1.00 -->
      <g transform="translate(19.954687 299.304949) scale(0.1 -0.1)">
       <use xlink:href="#DejaVuSans-2212"/>
       <use xlink:href="#DejaVuSans-31" transform="translate(83.789062 0)"/>
       <use xlink:href="#DejaVuSans-2e" transform="translate(147.412109 0)"/>
       <use xlink:href="#DejaVuSans-30" transform="translate(179.199219 0)"/>
       <use xlink:href="#DejaVuSans-30" transform="translate(242.822266 0)"/>
      </g>
     </g>
    </g>
    <g id="ytick_2">
     <g id="line2d_21">
      <path d="M 57.6 265.263499 
L 414.72 265.263499 
" clip-path="url(#p65222d9cdf)" style="fill: none; stroke: #b0b0b0; stroke-opacity: 0.5; stroke-width: 0.8; stroke-linecap: square"/>
     </g>
     <g id="line2d_22">
      <g>
       <use xlink:href="#meca3c9399d" x="57.6" y="265.263499" style="stroke: #000000; stroke-width: 0.8"/>
      </g>
     </g>
     <g id="text_12">
      <!-- −0.75 -->
      <g transform="translate(19.954687 269.062717) scale(0.1 -0.1)">
       <use xlink:href="#DejaVuSans-2212"/>
       <use xlink:href="#DejaVuSans-30" transform="translate(83.789062 0)"/>
       <use xlink:href="#DejaVuSans-2e" transform="translate(147.412109 0)"/>
       <use xlink:href="#DejaVuSans-37" transform="translate(179.199219 0)"/>
       <use xlink:href="#DejaVuSans-35" transform="translate(242.822266 0)"/>
      </g>
     </g>
    </g>
    <g id="ytick_3">
     <g id="line2d_23">
      <path d="M 57.6 235.021267 
L 414.72 235.021267 
" clip-path="url(#p65222d9cdf)" style="fill: none; stroke: #b0b0b0; stroke-opacity: 0.5; stroke-width: 0.8; stroke-linecap: square"/>
     </g>
     <g id="line2d_24">
      <g>
       <use xlink:href="#meca3c9399d" x="57.6" y="235.021267" style="stroke: #000000; stroke-width: 0.8"/>
      </g>
     </g>
     <g id="text_13">
      <!-- −0.50 -->
      <g transform="translate(19.954687 238.820486) scale(0.1 -0.1)">
       <use xlink:href="#DejaVuSans-2212"/>
       <use xlink:href="#DejaVuSans-30" transform="translate(83.789062 0)"/>
       <use xlink:href="#DejaVuSans-2e" transform="translate(147.412109 0)"/>
       <use xlink:href="#DejaVuSans-35" transform="translate(179.199219 0)"/>
       <use xlink:href="#DejaVuSans-30" transform="translate(242.822266 0)"/>
      </g>
     </g>
    </g>
    <g id="ytick_4">
     <g id="line2d_25">
      <path d="M 57.6 204.779035 
L 414.72 204.779035 
" clip-path="url(#p65222d9cdf)" style="fill: none; stroke: #b0b0b0; stroke-opacity: 0.5; stroke-width: 0.8; stroke-linecap: square"/>
     </g>
     <g id="line2d_26">
      <g>
       <use xlink:href="#meca3c9399d" x="57.6" y="204.779035" style="stroke: #000000; stroke-width: 0.8"/>
      </g>
     </g>
     <g id="text_14">
      <!-- −0.25 -->
      <g transform="translate(19.954687 208.578254) scale(0.1 -0.1)">
       <use xlink:href="#DejaVuSans-2212"/>
       <use xlink:href="#DejaVuSans-30" transform="translate(83.789062 0)"/>
       <use xlink:href="#DejaVuSans-2e" transform="translate(147.412109 0)"/>
       <use xlink:href="#DejaVuSans-32" transform="translate(179.199219 0)"/>
       <use xlink:href="#DejaVuSans-35" transform="translate(242.822266 0)"/>
      </g>
     </g>
    </g>
    <g id="ytick_5">
     <g id="line2d_27">
      <path d="M 57.6 174.536804 
L 414.72 174.536804 
" clip-path="url(#p65222d9cdf)" style="fill: none; stroke: #b0b0b0; stroke-opacity: 0.5; stroke-width: 0.8; stroke-linecap: square"/>
     </g>
     <g id="line2d_28">
      <g>
       <use xlink:href="#meca3c9399d" x="57.6" y="174.536804" style="stroke: #000000; stroke-width: 0.8"/>
      </g>
     </g>
     <g id="text_15">
      <!-- 0.00 -->
      <g transform="translate(28.334375 178.336023) scale(0.1 -0.1)">
       <use xlink:href="#DejaVuSans-30"/>
       <use xlink:href="#DejaVuSans-2e" transform="translate(63.623047 0)"/>
       <use xlink:href="#DejaVuSans-30" transform="translate(95.410156 0)"/>
       <use xlink:href="#DejaVuSans-30" transform="translate(159.033203 0)"/>
      </g>
     </g>
    </g>
    <g id="ytick_6">
     <g id="line2d_29">
      <path d="M 57.6 144.294572 
L 414.72 144.294572 
" clip-path="url(#p65222d9cdf)" style="fill: none; stroke: #b0b0b0; stroke-opacity: 0.5; stroke-width: 0.8; stroke-linecap: square"/>
     </g>
     <g id="line2d_30">
      <g>
       <use xlink:href="#meca3c9399d" x="57.6" y="144.294572" style="stroke: #000000; stroke-width: 0.8"/>
      </g>
     </g>
     <g id="text_16">
      <!-- 0.25 -->
      <g transform="translate(28.334375 148.093791) scale(0.1 -0.1)">
       <use xlink:href="#DejaVuSans-30"/>
       <use xlink:href="#DejaVuSans-2e" transform="translate(63.623047 0)"/>
       <use xlink:href="#DejaVuSans-32" transform="translate(95.410156 0)"/>
       <use xlink:href="#DejaVuSans-35" transform="translate(159.033203 0)"/>
      </g>
     </g>
    </g>
    <g id="ytick_7">
     <g id="line2d_31">
      <path d="M 57.6 114.052341 
L 414.72 114.052341 
" clip-path="url(#p65222d9cdf)" style="fill: none; stroke: #b0b0b0; stroke-opacity: 0.5; stroke-width: 0.8; stroke-linecap: square"/>
     </g>
     <g id="line2d_32">
      <g>
       <use xlink:href="#meca3c9399d" x="57.6" y="114.052341" style="stroke: #000000; stroke-width: 0.8"/>
      </g>
     </g>
     <g id="text_17">
      <!-- 0.50 -->
      <g transform="translate(28.334375 117.851559) scale(0.1 -0.1)">
       <use xlink:href="#DejaVuSans-30"/>
       <use xlink:href="#DejaVuSans-2e" transform="translate(63.623047 0)"/>
       <use xlink:href="#DejaVuSans-35" transform="translate(95.410156 0)"/>
       <use xlink:href="#DejaVuSans-30" transform="translate(159.033203 0)"/>
      </g>
     </g>
    </g>
    <g id="ytick_8">
     <g id="line2d_33">
      <path d="M 57.6 83.810109 
L 414.72 83.810109 
" clip-path="url(#p65222d9cdf)" style="fill: none; stroke: #b0b0b0; stroke-opacity: 0.5; stroke-width: 0.8; stroke-linecap: square"/>
     </g>
     <g id="line2d_34">
      <g>
       <use xlink:href="#meca3c9399d" x="57.6" y="83.810109" style="stroke: #000000; stroke-width: 0.8"/>
      </g>
     </g>
     <g id="text_18">
      <!-- 0.75 -->
      <g transform="translate(28.334375 87.609328) scale(0.1 -0.1)">
       <use xlink:href="#DejaVuSans-30"/>
       <use xlink:href="#DejaVuSans-2e" transform="translate(63.623047 0)"/>
       <use xlink:href="#DejaVuSans-37" transform="translate(95.410156 0)"/>
       <use xlink:href="#DejaVuSans-35" transform="translate(159.033203 0)"/>
      </g>
     </g>
    </g>
    <g id="ytick_9">
     <g id="line2d_35">
      <path d="M 57.6 53.567877 
L 414.72 53.567877 
" clip-path="url(#p65222d9cdf)" style="fill: none; stroke: #b0b0b0; stroke-opacity: 0.5; stroke-width: 0.8; stroke-linecap: square"/>
     </g>
     <g id="line2d_36">
      <g>
       <use xlink:href="#meca3c9399d" x="57.6" y="53.567877" style="stroke: #000000; stroke-width: 0.8"/>
      </g>
     </g>
     <g id="text_19">
      <!-- 1.00 -->
      <g transform="translate(28.334375 57.367096) scale(0.1 -0.1)">
       <use xlink:href="#DejaVuSans-31"/>
       <use xlink:href="#DejaVuSans-2e" transform="translate(63.623047 0)"/>
       <use xlink:href="#DejaVuSans-30" transform="translate(95.410156 0)"/>
       <use xlink:href="#DejaVuSans-30" transform="translate(159.033203 0)"/>
      </g>
     </g>
    </g>
    <g id="text_20">
     <!-- Value -->
     <g transform="translate(13.875 188.25925) rotate(-90) scale(0.1 -0.1)">
      <defs>
       <path id="DejaVuSans-56" d="M 1831 0 
L 50 4666 
L 709 4666 
L 2188 738 
L 3669 4666 
L 4325 4666 
L 2547 0 
L 1831 0 
z
" transform="scale(0.015625)"/>
       <path id="DejaVuSans-61" d="M 2194 1759 
Q 1497 1759 1228 1600 
Q 959 1441 959 1056 
Q 959 750 1161 570 
Q 1363 391 1709 391 
Q 2188 391 2477 730 
Q 2766 1069 2766 1631 
L 2766 1759 
L 2194 1759 
z
M 3341 1997 
L 3341 0 
L 2766 0 
L 2766 531 
Q 2569 213 2275 61 
Q 1981 -91 1556 -91 
Q 1019 -91 701 211 
Q 384 513 384 1019 
Q 384 1609 779 1909 
Q 1175 2209 1959 2209 
L 2766 2209 
L 2766 2266 
Q 2766 2663 2505 2880 
Q 2244 3097 1772 3097 
Q 1472 3097 1187 3025 
Q 903 2953 641 2809 
L 641 3341 
Q 956 3463 1253 3523 
Q 1550 3584 1831 3584 
Q 2591 3584 2966 3190 
Q 3341 2797 3341 1997 
z
" transform="scale(0.015625)"/>
       <path id="DejaVuSans-6c" d="M 603 4863 
L 1178 4863 
L 1178 0 
L 603 0 
L 603 4863 
z
" transform="scale(0.015625)"/>
       <path id="DejaVuSans-75" d="M 544 1381 
L 544 3500 
L 1119 3500 
L 1119 1403 
Q 1119 906 1312 657 
Q 1506 409 1894 409 
Q 2359 409 2629 706 
Q 2900 1003 2900 1516 
L 2900 3500 
L 3475 3500 
L 3475 0 
L 2900 0 
L 2900 538 
Q 2691 219 2414 64 
Q 2138 -91 1772 -91 
Q 1169 -91 856 284 
Q 544 659 544 1381 
z
M 1991 3584 
L 1991 3584 
z
" transform="scale(0.015625)"/>
      </defs>
      <use xlink:href="#DejaVuSans-56"/>
      <use xlink:href="#DejaVuSans-61" transform="translate(60.658203 0)"/>
      <use xlink:href="#DejaVuSans-6c" transform="translate(121.9375 0)"/>
      <use xlink:href="#DejaVuSans-75" transform="translate(149.720703 0)"/>
      <use xlink:href="#DejaVuSans-65" transform="translate(213.099609 0)"/>
     </g>
    </g>
   </g>
   <g id="line2d_37">
    <path d="M 222.895109 177.029613 
L 254.301948 176.555445 
L 241.127799 176.081934 
L 243.023387 175.608125 
L 243.968393 175.133284 
L 245.726734 173.702602 
L 247.910711 171.80344 
L 251.591409 168.963712 
L 253.301818 167.545937 
L 265.528671 159.08651 
L 267.354287 157.68201 
L 272.825701 153.939409 
L 274.719488 152.538958 
L 277.460772 150.674265 
L 279.689179 148.798341 
L 281.509089 147.400819 
L 284.087037 145.533033 
L 287.501242 142.735732 
L 290.077638 140.87429 
L 293.418253 138.087638 
L 296.565362 135.772051 
L 298.798848 133.922642 
L 303.820942 130.237738 
L 305.583126 128.863402 
L 308.893561 126.570902 
L 311.663396 124.279794 
L 315.54624 121.537457 
L 317.711901 119.710783 
L 321.331816 116.978984 
L 323.303021 115.159873 
L 327.383229 111.986414 
L 328.83816 110.63058 
L 332.909781 107.473322 
L 334.308453 106.123466 
L 336.1811 104.784821 
L 337.948032 103.434741 
L 340.308454 101.192501 
L 343.389194 98.95923 
L 345.683525 96.722786 
L 349.276484 94.04797 
L 351.024711 92.263902 
L 355.067997 89.149322 
L 356.359611 87.815789 
L 357.634273 86.93518 
L 359.638308 85.602289 
L 360.575739 84.705493 
L 361.875143 83.374549 
L 363.165186 82.497847 
L 365.23537 81.170213 
L 366.172839 80.274584 
L 367.365071 78.946012 
L 368.631167 78.073803 
L 370.780465 76.753465 
L 371.71848 75.860447 
L 372.784749 74.536699 
L 374.023582 73.671195 
L 376.290535 72.36062 
L 377.249613 71.470053 
L 378.060639 70.149514 
L 378.539358 69.718734 
L 379.981161 68.860808 
L 381.518253 67.988959 
L 382.071401 67.545539 
L 382.43052 67.099769 
L 383.026291 65.781472 
L 383.467236 65.353626 
L 384.987128 64.503214 
L 386.68998 63.635395 
L 387.277913 63.191601 
L 387.589713 62.744612 
L 387.814483 61.429603 
L 388.224754 61.007244 
L 388.978044 60.588996 
L 392.050629 59.30241 
L 392.657727 58.854102 
L 392.818955 58.401482 
L 392.600327 57.952546 
L 392.251337 57.514873 
L 392.159047 57.092111 
L 392.635093 56.681816 
L 393.776068 56.275421 
L 396.913575 55.429637 
L 397.725722 54.980673 
L 397.014422 54.5293 
L 393.857271 54.108881 
L 384.466676 53.569911 
L 387.366093 53.568 
L 388.126187 53.805284 
L 388.166875 54.295564 
L 385.24584 55.017128 
L 380.74275 55.91231 
L 378.865867 56.89519 
L 380.900835 57.866441 
L 387.194199 58.732276 
L 394.741432 59.422959 
L 398.487273 59.907124 
L 398.12388 60.197628 
L 394.042906 60.347934 
L 381.15557 60.562325 
L 377.63838 60.796033 
L 377.354926 61.191078 
L 376.357297 61.759496 
L 373.708629 62.473879 
L 371.766853 63.275904 
L 372.47041 64.091375 
L 375.970878 64.848544 
L 380.438483 65.494444 
L 382.730533 66.005943 
L 381.868901 66.393065 
L 378.247165 66.69416 
L 369.570111 67.262989 
L 367.961226 67.636173 
L 367.312453 68.110157 
L 365.039338 69.338693 
L 364.650101 70.031394 
L 365.517003 70.71907 
L 368.720697 71.937137 
L 368.925507 72.435175 
L 367.64015 72.867685 
L 361.072234 74.041624 
L 359.901102 74.485369 
L 358.292313 75.530654 
L 357.741493 76.117199 
L 357.573232 76.722093 
L 357.800043 77.323476 
L 358.209423 77.902327 
L 358.439042 78.446273 
L 358.193985 78.951492 
L 357.403284 79.4227 
L 352.616673 81.231219 
L 351.07571 82.254045 
L 350.549345 82.80218 
L 350.226621 83.362716 
L 350.075053 84.47239 
L 349.982973 85.001562 
L 349.661649 85.507481 
L 349.03619 85.992223 
L 347.125126 86.92828 
L 345.209558 87.883855 
L 343.798362 88.905779 
L 342.971238 89.975984 
L 342.159857 91.547565 
L 341.636952 92.045206 
L 340.113783 93.01425 
L 337.619961 94.486573 
L 336.270803 95.511916 
L 333.5125 98.071316 
L 327.701075 102.068762 
L 324.51279 104.588845 
L 317.659052 109.586368 
L 315.043828 111.570429 
L 310.790563 114.546283 
L 306.987312 117.508148 
L 303.337982 119.963818 
L 298.896006 123.401845 
L 295.294418 125.843606 
L 290.74617 129.273799 
L 285.882142 132.695675 
L 282.681605 135.151935 
L 279.537951 137.58712 
L 276.384628 140.04315 
L 273.455936 142.48092 
L 269.540794 145.399084 
L 266.032128 148.308503 
L 262.181156 151.205748 
L 258.56687 154.097053 
L 254.210065 157.463264 
L 232.611657 174.170292 
L 221.760391 182.191056 
L 211.479109 189.680362 
L 208.367384 192.008904 
L 204.448383 194.807873 
L 201.322866 197.134672 
L 197.437449 199.931461 
L 193.613874 202.721914 
L 185.98161 208.295125 
L 171.46964 219.344002 
L 168.496964 221.624789 
L 165.680552 223.912364 
L 163.347833 225.728973 
L 160.440338 228.00998 
L 157.633413 230.276739 
L 154.723915 232.54671 
L 151.959211 234.804139 
L 149.065956 237.062354 
L 146.335644 239.3082 
L 143.446921 241.555747 
L 140.765624 243.791455 
L 137.870501 246.02823 
L 135.236427 248.254882 
L 132.312785 250.483921 
L 129.745953 252.706044 
L 126.285071 255.374176 
L 124.271032 257.147466 
L 120.810466 259.81055 
L 118.843036 261.581316 
L 114.911081 264.682932 
L 113.470946 266.004567 
L 109.513904 269.097711 
L 108.156218 270.415957 
L 106.336169 271.723208 
L 104.620802 273.049458 
L 102.354988 275.236641 
L 99.2988 277.424566 
L 97.188704 279.602764 
L 94.009053 281.778346 
L 93.291803 282.660621 
L 92.611158 283.52319 
L 91.433798 284.371195 
L 89.234431 285.670118 
L 88.34108 286.55837 
L 87.634131 287.855606 
L 87.12468 288.273998 
L 85.509173 289.114108 
L 83.851426 289.988192 
L 83.323662 290.437185 
L 83.094781 290.886193 
L 83.187407 291.755251 
L 83.00458 292.169282 
L 82.362064 292.575309 
L 78.968692 293.846515 
L 78.515644 294.298147 
L 79.538322 294.736203 
L 83.580726 295.11832 
L 92.214198 295.388772 
L 103.447677 295.488 
L 103.151918 295.365418 
L 95.746768 294.992781 
L 93.203365 294.374259 
L 94.999159 293.550748 
L 98.769743 292.596024 
L 97.06919 291.60519 
L 88.19094 290.677296 
L 78.874255 289.895936 
L 73.832727 289.312276 
L 75.93071 288.934773 
L 106.04296 288.352245 
L 104.333304 288.035453 
L 102.919195 287.54381 
L 103.222916 286.886893 
L 105.110244 286.110905 
L 104.447969 285.285981 
L 98.910377 284.488579 
L 92.134806 283.783338 
L 88.292094 283.208734 
L 88.865164 282.769821 
L 94.030815 282.439466 
L 105.644859 281.892168 
L 108.414565 281.559722 
L 109.654826 281.132403 
L 111.241087 279.970526 
L 111.297615 279.283795 
L 109.430267 278.582542 
L 103.037003 277.30114 
L 101.8271 276.76956 
L 102.853918 276.312289 
L 105.637452 275.909305 
L 112.095752 275.143382 
L 114.363242 274.72088 
L 115.89425 274.246506 
L 116.873403 273.716938 
L 117.325837 273.141224 
L 117.103137 272.537483 
L 116.188724 271.928046 
L 113.932934 270.771959 
L 113.654904 270.248974 
L 114.268806 269.764066 
L 115.647746 269.308187 
L 121.043467 267.965158 
L 122.409845 267.480042 
L 123.397958 266.965096 
L 123.986379 266.423356 
L 124.144665 265.863548 
L 123.912823 265.297877 
L 123.056596 264.198053 
L 123.006824 263.68054 
L 123.478126 263.186994 
L 124.465473 262.712253 
L 129.846436 260.807073 
L 130.691404 260.291911 
L 131.188283 259.760424 
L 131.352548 259.219687 
L 131.202982 257.626317 
L 131.574127 257.122633 
L 132.307477 256.632318 
L 135.622109 255.181971 
L 137.571005 254.178231 
L 138.21376 253.661598 
L 138.993978 252.617394 
L 139.766798 251.587697 
L 140.374586 251.08379 
L 142.060267 250.091831 
L 144.799816 248.601633 
L 146.230695 247.589443 
L 150.010382 244.54817 
L 157.902828 239.031151 
L 159.832052 237.5368 
L 162.272408 236.057086 
L 164.588122 234.558571 
L 166.257517 233.051832 
L 167.460665 232.064131 
L 169.05474 231.08933 
L 171.6602 229.617706 
L 173.013512 228.619583 
L 175.201591 226.634974 
L 176.721329 225.663867 
L 180.03955 223.712202 
L 181.902825 222.224917 
L 183.803981 220.748963 
L 191.81187 215.355724 
L 193.73508 213.876081 
L 196.220671 211.918248 
L 200.370195 208.968582 
L 202.492067 207.001426 
L 203.894979 206.034174 
L 206.897413 204.086811 
L 208.50066 202.608941 
L 209.566871 201.634185 
L 210.919445 200.670428 
L 213.837519 198.73805 
L 216.094147 196.790704 
L 218.031291 195.344567 
L 220.732448 193.415556 
L 224.472594 190.520685 
L 227.028289 188.590798 
L 229.446538 186.669414 
L 233.406872 183.785804 
L 235.691438 181.86773 
L 240.302059 178.522167 
L 241.97063 177.088924 
L 241.97063 177.088924 
" clip-path="url(#p65222d9cdf)" style="fill: none; stroke: #1f77b4; stroke-width: 1.5; stroke-linecap: square"/>
   </g>
   <g id="line2d_38">
    <path d="M 237.24255 177.029613 
L 240.979016 174.180022 
L 244.122744 171.80344 
L 247.169214 169.438286 
L 249.635328 167.545937 
L 252.796502 165.193857 
L 255.776975 162.836665 
L 259.572903 160.028928 
L 262.60598 157.68201 
L 265.783912 155.349542 
L 269.451338 152.538958 
L 272.533668 150.205193 
L 275.643467 147.865947 
L 278.71337 145.533033 
L 281.770493 143.199312 
L 284.819495 140.87429 
L 287.211291 139.010983 
L 290.894198 136.236964 
L 293.233802 134.382541 
L 297.52546 131.161465 
L 299.926566 129.32011 
L 303.019465 127.031767 
L 305.965099 124.734855 
L 309.045862 122.456328 
L 311.985162 120.164902 
L 315.067023 117.893907 
L 317.953297 115.611981 
L 321.034371 113.352292 
L 323.852115 111.080561 
L 327.488714 108.3803 
L 329.73312 106.571255 
L 333.406765 103.886308 
L 335.631392 102.083515 
L 339.833127 98.95923 
L 342.10721 97.165961 
L 345.179909 94.946714 
L 347.948466 92.706298 
L 351.075298 90.49421 
L 354.449131 87.815789 
L 356.908964 86.049134 
L 359.612339 83.815185 
L 363.293287 81.170213 
L 365.360538 79.385344 
L 369.05033 76.753465 
L 371.088211 74.973809 
L 375.289831 71.916061 
L 376.777448 70.584887 
L 378.806838 69.290239 
L 380.094342 68.427569 
L 381.057482 67.545539 
L 382.445756 66.215165 
L 383.788398 65.353626 
L 385.890147 64.072765 
L 386.799261 63.191601 
L 387.538484 62.299231 
L 388.682966 61.429603 
L 391.790595 59.741013 
L 392.25402 59.30241 
L 392.710709 58.401482 
L 392.945445 57.952546 
L 393.385997 57.514873 
L 394.126783 57.092111 
L 397.308762 55.861174 
L 397.833718 55.429637 
L 397.572831 54.980673 
L 396.350087 54.5293 
L 394.194273 54.108881 
L 391.367886 53.769312 
L 388.333938 53.569911 
L 385.663748 53.568 
L 383.904664 53.805284 
L 383.441325 54.295564 
L 384.387044 55.017128 
L 386.536639 55.91231 
L 394.513873 58.732276 
L 395.493237 59.422959 
L 394.930305 59.907124 
L 392.86728 60.197628 
L 385.961116 60.439346 
L 382.421503 60.562325 
L 379.675351 60.796033 
L 378.123558 61.191078 
L 377.866255 61.759496 
L 378.696696 62.473879 
L 382.834112 64.848544 
L 383.111768 65.494444 
L 382.411565 66.005943 
L 380.831696 66.393065 
L 372.65868 67.636173 
L 371.765741 68.110157 
L 371.511744 68.685316 
L 371.708504 69.338693 
L 372.348154 70.71907 
L 372.286404 71.362735 
L 371.782952 71.937137 
L 370.846307 72.435175 
L 368.188085 73.259046 
L 365.677177 74.041624 
L 364.812086 74.485369 
L 364.247621 74.98239 
L 363.923555 75.530654 
L 363.247779 77.323476 
L 362.762735 77.902327 
L 362.058162 78.446273 
L 360.106985 79.4227 
L 356.990129 80.761547 
L 356.205944 81.231219 
L 355.602113 81.728529 
L 354.805969 82.80218 
L 354.09833 83.923325 
L 353.594437 84.47239 
L 352.932651 85.001562 
L 351.17488 85.992223 
L 348.32721 87.399329 
L 346.988267 88.386118 
L 346.114168 89.438196 
L 345.238316 90.510895 
L 343.930143 91.547565 
L 341.265184 93.01425 
L 339.609133 93.987288 
L 338.368019 94.995571 
L 336.352006 97.063971 
L 334.999753 98.071316 
L 330.354266 101.052664 
L 328.624764 102.577313 
L 326.880351 104.089906 
L 324.69784 105.582346 
L 321.755244 107.576192 
L 320.065682 109.084545 
L 318.316574 110.58323 
L 316.083759 112.062353 
L 313.904486 113.546271 
L 312.21975 115.046906 
L 310.500812 116.533246 
L 308.333672 117.994286 
L 306.1778 119.46689 
L 303.794029 121.454852 
L 301.923888 122.918718 
L 295.915008 127.324481 
L 291.468758 130.732924 
L 287.3648 133.679997 
L 283.659599 136.613891 
L 279.583962 139.55008 
L 276.578592 141.997728 
L 271.958705 145.399084 
L 268.919193 147.82883 
L 263.748436 151.691009 
L 257.365807 156.500589 
L 245.968284 165.1349 
L 242.155058 167.994688 
L 237.81494 171.330326 
L 209.945656 192.473093 
L 201.330758 198.997142 
L 197.00143 202.257035 
L 187.94626 209.224148 
L 173.450935 220.256459 
L 170.422579 222.540502 
L 166.814287 225.275066 
L 163.26513 228.00998 
L 136.651552 248.254882 
L 134.353675 250.035951 
L 132.097713 251.822017 
L 128.488079 254.480112 
L 125.639853 256.706584 
L 122.642224 258.91764 
L 119.80977 261.141415 
L 116.809132 263.346457 
L 114.637976 265.125861 
L 110.500474 268.207425 
L 108.935678 269.540135 
L 104.255981 273.049458 
L 102.620197 274.370819 
L 99.518108 276.540402 
L 97.020826 278.743072 
L 93.807828 280.896251 
L 91.386632 283.094797 
L 88.029693 285.230786 
L 87.208126 286.113984 
L 86.403031 286.998617 
L 85.119275 287.855606 
L 82.741949 289.114108 
L 82.181336 289.546027 
L 81.818135 289.988192 
L 81.069837 291.327413 
L 80.481799 291.755251 
L 78.494179 292.575309 
L 77.397504 292.983895 
L 76.615926 293.405944 
L 76.477773 293.846515 
L 77.231466 294.298147 
L 78.955295 294.736203 
L 81.502301 295.11832 
L 84.500984 295.388772 
L 87.419059 295.488 
L 89.679007 295.365418 
L 90.798421 294.992781 
L 90.519184 294.374259 
L 88.889197 293.550748 
L 83.277072 291.60519 
L 80.625059 290.677296 
L 78.980488 289.895936 
L 78.793799 289.312276 
L 80.193275 288.934773 
L 82.955124 288.72801 
L 93.541229 288.352245 
L 95.697925 288.035453 
L 96.535984 287.54381 
L 96.125866 286.886893 
L 94.824976 286.110905 
L 91.751587 284.488579 
L 91.036646 283.783338 
L 91.295626 283.208734 
L 92.538234 282.769821 
L 94.53719 282.439466 
L 99.208867 281.892168 
L 101.072823 281.559722 
L 102.272511 281.132403 
L 102.769658 280.598097 
L 102.701487 279.970526 
L 101.946193 278.582542 
L 101.825941 277.910663 
L 102.133726 277.30114 
L 102.911519 276.76956 
L 104.08129 276.312289 
L 108.187026 275.143382 
L 109.192924 274.72088 
L 109.882203 274.246506 
L 110.289388 273.716938 
L 111.268436 271.334219 
L 111.864983 270.771959 
L 112.680216 270.248974 
L 114.765435 269.308187 
L 116.895568 268.424109 
L 118.475197 267.480042 
L 118.996311 266.965096 
L 119.696993 265.863548 
L 120.45863 264.739179 
L 121.039174 264.198053 
L 122.697956 263.186994 
L 126.488654 261.302688 
L 127.655598 260.291911 
L 129.394472 258.145574 
L 130.885673 257.122633 
L 134.465006 255.181971 
L 135.750746 254.178231 
L 138.333466 251.587697 
L 139.811348 250.586055 
L 143.014812 248.601633 
L 144.940643 247.079703 
L 147.235376 245.050051 
L 149.376912 243.549355 
L 152.40556 241.551767 
L 153.594592 240.544797 
L 155.762893 238.530027 
L 157.194662 237.5368 
L 160.302904 235.560591 
L 161.499894 234.558571 
L 163.663264 232.555777 
L 165.830003 231.08933 
L 168.020472 229.617706 
L 170.390779 227.620403 
L 172.273939 226.148285 
L 178.320589 221.730615 
L 184.889703 216.834097 
L 186.948886 215.355724 
L 191.276503 211.918248 
L 194.119248 209.959495 
L 199.086285 206.034174 
L 201.145659 204.577743 
L 206.776397 200.189711 
L 209.895534 197.76291 
L 213.153964 195.344567 
L 221.443482 189.073557 
L 224.612729 186.669414 
L 227.808915 184.268528 
L 230.937319 181.86773 
L 234.127116 179.483026 
L 237.161938 177.088924 
L 237.161938 177.088924 
" clip-path="url(#p65222d9cdf)" style="fill: none; stroke: #ff7f0e; stroke-opacity: 0.5; stroke-width: 1.5; stroke-linecap: square"/>
   </g>
   <g id="patch_3">
    <path d="M 57.6 307.584 
L 57.6 41.472 
" style="fill: none; stroke: #000000; stroke-width: 0.8; stroke-linejoin: miter; stroke-linecap: square"/>
   </g>
   <g id="patch_4">
    <path d="M 414.72 307.584 
L 414.72 41.472 
" style="fill: none; stroke: #000000; stroke-width: 0.8; stroke-linejoin: miter; stroke-linecap: square"/>
   </g>
   <g id="patch_5">
    <path d="M 57.6 307.584 
L 414.72 307.584 
" style="fill: none; stroke: #000000; stroke-width: 0.8; stroke-linejoin: miter; stroke-linecap: square"/>
   </g>
   <g id="patch_6">
    <path d="M 57.6 41.472 
L 414.72 41.472 
" style="fill: none; stroke: #000000; stroke-width: 0.8; stroke-linejoin: miter; stroke-linecap: square"/>
   </g>
   <g id="text_21">
    <!-- Compare - Epoch 1050 -->
    <g transform="translate(167.416875 35.472) scale(0.12 -0.12)">
     <defs>
      <path id="DejaVuSans-43" d="M 4122 4306 
L 4122 3641 
Q 3803 3938 3442 4084 
Q 3081 4231 2675 4231 
Q 1875 4231 1450 3742 
Q 1025 3253 1025 2328 
Q 1025 1406 1450 917 
Q 1875 428 2675 428 
Q 3081 428 3442 575 
Q 3803 722 4122 1019 
L 4122 359 
Q 3791 134 3420 21 
Q 3050 -91 2638 -91 
Q 1578 -91 968 557 
Q 359 1206 359 2328 
Q 359 3453 968 4101 
Q 1578 4750 2638 4750 
Q 3056 4750 3426 4639 
Q 3797 4528 4122 4306 
z
" transform="scale(0.015625)"/>
      <path id="DejaVuSans-6f" d="M 1959 3097 
Q 1497 3097 1228 2736 
Q 959 2375 959 1747 
Q 959 1119 1226 758 
Q 1494 397 1959 397 
Q 2419 397 2687 759 
Q 2956 1122 2956 1747 
Q 2956 2369 2687 2733 
Q 2419 3097 1959 3097 
z
M 1959 3584 
Q 2709 3584 3137 3096 
Q 3566 2609 3566 1747 
Q 3566 888 3137 398 
Q 2709 -91 1959 -91 
Q 1206 -91 779 398 
Q 353 888 353 1747 
Q 353 2609 779 3096 
Q 1206 3584 1959 3584 
z
" transform="scale(0.015625)"/>
      <path id="DejaVuSans-6d" d="M 3328 2828 
Q 3544 3216 3844 3400 
Q 4144 3584 4550 3584 
Q 5097 3584 5394 3201 
Q 5691 2819 5691 2113 
L 5691 0 
L 5113 0 
L 5113 2094 
Q 5113 2597 4934 2840 
Q 4756 3084 4391 3084 
Q 3944 3084 3684 2787 
Q 3425 2491 3425 1978 
L 3425 0 
L 2847 0 
L 2847 2094 
Q 2847 2600 2669 2842 
Q 2491 3084 2119 3084 
Q 1678 3084 1418 2786 
Q 1159 2488 1159 1978 
L 1159 0 
L 581 0 
L 581 3500 
L 1159 3500 
L 1159 2956 
Q 1356 3278 1631 3431 
Q 1906 3584 2284 3584 
Q 2666 3584 2933 3390 
Q 3200 3197 3328 2828 
z
" transform="scale(0.015625)"/>
      <path id="DejaVuSans-70" d="M 1159 525 
L 1159 -1331 
L 581 -1331 
L 581 3500 
L 1159 3500 
L 1159 2969 
Q 1341 3281 1617 3432 
Q 1894 3584 2278 3584 
Q 2916 3584 3314 3078 
Q 3713 2572 3713 1747 
Q 3713 922 3314 415 
Q 2916 -91 2278 -91 
Q 1894 -91 1617 61 
Q 1341 213 1159 525 
z
M 3116 1747 
Q 3116 2381 2855 2742 
Q 2594 3103 2138 3103 
Q 1681 3103 1420 2742 
Q 1159 2381 1159 1747 
Q 1159 1113 1420 752 
Q 1681 391 2138 391 
Q 2594 391 2855 752 
Q 3116 1113 3116 1747 
z
" transform="scale(0.015625)"/>
      <path id="DejaVuSans-72" d="M 2631 2963 
Q 2534 3019 2420 3045 
Q 2306 3072 2169 3072 
Q 1681 3072 1420 2755 
Q 1159 2438 1159 1844 
L 1159 0 
L 581 0 
L 581 3500 
L 1159 3500 
L 1159 2956 
Q 1341 3275 1631 3429 
Q 1922 3584 2338 3584 
Q 2397 3584 2469 3576 
Q 2541 3569 2628 3553 
L 2631 2963 
z
" transform="scale(0.015625)"/>
      <path id="DejaVuSans-20" transform="scale(0.015625)"/>
      <path id="DejaVuSans-2d" d="M 313 2009 
L 1997 2009 
L 1997 1497 
L 313 1497 
L 313 2009 
z
" transform="scale(0.015625)"/>
      <path id="DejaVuSans-45" d="M 628 4666 
L 3578 4666 
L 3578 4134 
L 1259 4134 
L 1259 2753 
L 3481 2753 
L 3481 2222 
L 1259 2222 
L 1259 531 
L 3634 531 
L 3634 0 
L 628 0 
L 628 4666 
z
" transform="scale(0.015625)"/>
      <path id="DejaVuSans-63" d="M 3122 3366 
L 3122 2828 
Q 2878 2963 2633 3030 
Q 2388 3097 2138 3097 
Q 1578 3097 1268 2742 
Q 959 2388 959 1747 
Q 959 1106 1268 751 
Q 1578 397 2138 397 
Q 2388 397 2633 464 
Q 2878 531 3122 666 
L 3122 134 
Q 2881 22 2623 -34 
Q 2366 -91 2075 -91 
Q 1284 -91 818 406 
Q 353 903 353 1747 
Q 353 2603 823 3093 
Q 1294 3584 2113 3584 
Q 2378 3584 2631 3529 
Q 2884 3475 3122 3366 
z
" transform="scale(0.015625)"/>
      <path id="DejaVuSans-68" d="M 3513 2113 
L 3513 0 
L 2938 0 
L 2938 2094 
Q 2938 2591 2744 2837 
Q 2550 3084 2163 3084 
Q 1697 3084 1428 2787 
Q 1159 2491 1159 1978 
L 1159 0 
L 581 0 
L 581 4863 
L 1159 4863 
L 1159 2956 
Q 1366 3272 1645 3428 
Q 1925 3584 2291 3584 
Q 2894 3584 3203 3211 
Q 3513 2838 3513 2113 
z
" transform="scale(0.015625)"/>
     </defs>
     <use xlink:href="#DejaVuSans-43"/>
     <use xlink:href="#DejaVuSans-6f" transform="translate(69.824219 0)"/>
     <use xlink:href="#DejaVuSans-6d" transform="translate(131.005859 0)"/>
     <use xlink:href="#DejaVuSans-70" transform="translate(228.417969 0)"/>
     <use xlink:href="#DejaVuSans-61" transform="translate(291.894531 0)"/>
     <use xlink:href="#DejaVuSans-72" transform="translate(353.173828 0)"/>
     <use xlink:href="#DejaVuSans-65" transform="translate(392.037109 0)"/>
     <use xlink:href="#DejaVuSans-20" transform="translate(453.560547 0)"/>
     <use xlink:href="#DejaVuSans-2d" transform="translate(485.347656 0)"/>
     <use xlink:href="#DejaVuSans-20" transform="translate(521.431641 0)"/>
     <use xlink:href="#DejaVuSans-45" transform="translate(553.21875 0)"/>
     <use xlink:href="#DejaVuSans-70" transform="translate(616.402344 0)"/>
     <use xlink:href="#DejaVuSans-6f" transform="translate(679.878906 0)"/>
     <use xlink:href="#DejaVuSans-63" transform="translate(741.060547 0)"/>
     <use xlink:href="#DejaVuSans-68" transform="translate(796.041016 0)"/>
     <use xlink:href="#DejaVuSans-20" transform="translate(859.419922 0)"/>
     <use xlink:href="#DejaVuSans-31" transform="translate(891.207031 0)"/>
     <use xlink:href="#DejaVuSans-30" transform="translate(954.830078 0)"/>
     <use xlink:href="#DejaVuSans-35" transform="translate(1018.453125 0)"/>
     <use xlink:href="#DejaVuSans-30" transform="translate(1082.076172 0)"/>
    </g>
   </g>
   <g id="legend_1">
    <g id="patch_7">
     <path d="M 64.6 78.82825 
L 181.128125 78.82825 
Q 183.128125 78.82825 183.128125 76.82825 
L 183.128125 48.472 
Q 183.128125 46.472 181.128125 46.472 
L 64.6 46.472 
Q 62.6 46.472 62.6 48.472 
L 62.6 76.82825 
Q 62.6 78.82825 64.6 78.82825 
z
" style="fill: #ffffff; opacity: 0.8; stroke: #cccccc; stroke-linejoin: miter"/>
    </g>
    <g id="line2d_39">
     <path d="M 66.6 54.570437 
L 76.6 54.570437 
L 86.6 54.570437 
" style="fill: none; stroke: #1f77b4; stroke-width: 1.5; stroke-linecap: square"/>
    </g>
    <g id="text_22">
     <!-- Pred: Sample 1 -->
     <g transform="translate(94.6 58.070437) scale(0.1 -0.1)">
      <defs>
       <path id="DejaVuSans-50" d="M 1259 4147 
L 1259 2394 
L 2053 2394 
Q 2494 2394 2734 2622 
Q 2975 2850 2975 3272 
Q 2975 3691 2734 3919 
Q 2494 4147 2053 4147 
L 1259 4147 
z
M 628 4666 
L 2053 4666 
Q 2838 4666 3239 4311 
Q 3641 3956 3641 3272 
Q 3641 2581 3239 2228 
Q 2838 1875 2053 1875 
L 1259 1875 
L 1259 0 
L 628 0 
L 628 4666 
z
" transform="scale(0.015625)"/>
       <path id="DejaVuSans-3a" d="M 750 794 
L 1409 794 
L 1409 0 
L 750 0 
L 750 794 
z
M 750 3309 
L 1409 3309 
L 1409 2516 
L 750 2516 
L 750 3309 
z
" transform="scale(0.015625)"/>
       <path id="DejaVuSans-53" d="M 3425 4513 
L 3425 3897 
Q 3066 4069 2747 4153 
Q 2428 4238 2131 4238 
Q 1616 4238 1336 4038 
Q 1056 3838 1056 3469 
Q 1056 3159 1242 3001 
Q 1428 2844 1947 2747 
L 2328 2669 
Q 3034 2534 3370 2195 
Q 3706 1856 3706 1288 
Q 3706 609 3251 259 
Q 2797 -91 1919 -91 
Q 1588 -91 1214 -16 
Q 841 59 441 206 
L 441 856 
Q 825 641 1194 531 
Q 1563 422 1919 422 
Q 2459 422 2753 634 
Q 3047 847 3047 1241 
Q 3047 1584 2836 1778 
Q 2625 1972 2144 2069 
L 1759 2144 
Q 1053 2284 737 2584 
Q 422 2884 422 3419 
Q 422 4038 858 4394 
Q 1294 4750 2059 4750 
Q 2388 4750 2728 4690 
Q 3069 4631 3425 4513 
z
" transform="scale(0.015625)"/>
      </defs>
      <use xlink:href="#DejaVuSans-50"/>
      <use xlink:href="#DejaVuSans-72" transform="translate(58.552734 0)"/>
      <use xlink:href="#DejaVuSans-65" transform="translate(97.416016 0)"/>
      <use xlink:href="#DejaVuSans-64" transform="translate(158.939453 0)"/>
      <use xlink:href="#DejaVuSans-3a" transform="translate(222.416016 0)"/>
      <use xlink:href="#DejaVuSans-20" transform="translate(256.107422 0)"/>
      <use xlink:href="#DejaVuSans-53" transform="translate(287.894531 0)"/>
      <use xlink:href="#DejaVuSans-61" transform="translate(351.371094 0)"/>
      <use xlink:href="#DejaVuSans-6d" transform="translate(412.650391 0)"/>
      <use xlink:href="#DejaVuSans-70" transform="translate(510.0625 0)"/>
      <use xlink:href="#DejaVuSans-6c" transform="translate(573.539062 0)"/>
      <use xlink:href="#DejaVuSans-65" transform="translate(601.322266 0)"/>
      <use xlink:href="#DejaVuSans-20" transform="translate(662.845703 0)"/>
      <use xlink:href="#DejaVuSans-31" transform="translate(694.632812 0)"/>
     </g>
    </g>
    <g id="line2d_40">
     <path d="M 66.6 69.248562 
L 76.6 69.248562 
L 86.6 69.248562 
" style="fill: none; stroke: #ff7f0e; stroke-opacity: 0.5; stroke-width: 1.5; stroke-linecap: square"/>
    </g>
    <g id="text_23">
     <!-- Target: Sample 1 -->
     <g transform="translate(94.6 72.748562) scale(0.1 -0.1)">
      <defs>
       <path id="DejaVuSans-54" d="M -19 4666 
L 3928 4666 
L 3928 4134 
L 2272 4134 
L 2272 0 
L 1638 0 
L 1638 4134 
L -19 4134 
L -19 4666 
z
" transform="scale(0.015625)"/>
       <path id="DejaVuSans-67" d="M 2906 1791 
Q 2906 2416 2648 2759 
Q 2391 3103 1925 3103 
Q 1463 3103 1205 2759 
Q 947 2416 947 1791 
Q 947 1169 1205 825 
Q 1463 481 1925 481 
Q 2391 481 2648 825 
Q 2906 1169 2906 1791 
z
M 3481 434 
Q 3481 -459 3084 -895 
Q 2688 -1331 1869 -1331 
Q 1566 -1331 1297 -1286 
Q 1028 -1241 775 -1147 
L 775 -588 
Q 1028 -725 1275 -790 
Q 1522 -856 1778 -856 
Q 2344 -856 2625 -561 
Q 2906 -266 2906 331 
L 2906 616 
Q 2728 306 2450 153 
Q 2172 0 1784 0 
Q 1141 0 747 490 
Q 353 981 353 1791 
Q 353 2603 747 3093 
Q 1141 3584 1784 3584 
Q 2172 3584 2450 3431 
Q 2728 3278 2906 2969 
L 2906 3500 
L 3481 3500 
L 3481 434 
z
" transform="scale(0.015625)"/>
       <path id="DejaVuSans-74" d="M 1172 4494 
L 1172 3500 
L 2356 3500 
L 2356 3053 
L 1172 3053 
L 1172 1153 
Q 1172 725 1289 603 
Q 1406 481 1766 481 
L 2356 481 
L 2356 0 
L 1766 0 
Q 1100 0 847 248 
Q 594 497 594 1153 
L 594 3053 
L 172 3053 
L 172 3500 
L 594 3500 
L 594 4494 
L 1172 4494 
z
" transform="scale(0.015625)"/>
      </defs>
      <use xlink:href="#DejaVuSans-54"/>
      <use xlink:href="#DejaVuSans-61" transform="translate(44.583984 0)"/>
      <use xlink:href="#DejaVuSans-72" transform="translate(105.863281 0)"/>
      <use xlink:href="#DejaVuSans-67" transform="translate(145.226562 0)"/>
      <use xlink:href="#DejaVuSans-65" transform="translate(208.703125 0)"/>
      <use xlink:href="#DejaVuSans-74" transform="translate(270.226562 0)"/>
      <use xlink:href="#DejaVuSans-3a" transform="translate(309.435547 0)"/>
      <use xlink:href="#DejaVuSans-20" transform="translate(343.126953 0)"/>
      <use xlink:href="#DejaVuSans-53" transform="translate(374.914062 0)"/>
      <use xlink:href="#DejaVuSans-61" transform="translate(438.390625 0)"/>
      <use xlink:href="#DejaVuSans-6d" transform="translate(499.669922 0)"/>
      <use xlink:href="#DejaVuSans-70" transform="translate(597.082031 0)"/>
      <use xlink:href="#DejaVuSans-6c" transform="translate(660.558594 0)"/>
      <use xlink:href="#DejaVuSans-65" transform="translate(688.341797 0)"/>
      <use xlink:href="#DejaVuSans-20" transform="translate(749.865234 0)"/>
      <use xlink:href="#DejaVuSans-31" transform="translate(781.652344 0)"/>
     </g>
    </g>
   </g>
  </g>
 </g>
 <defs>
  <clipPath id="p65222d9cdf">
   <rect x="57.6" y="41.472" width="357.12" height="266.112"/>
  </clipPath>
 </defs>
</svg>
