<?xml version="1.0" encoding="utf-8" standalone="no"?>
<!DOCTYPE svg PUBLIC "-//W3C//DTD SVG 1.1//EN"
  "http://www.w3.org/Graphics/SVG/1.1/DTD/svg11.dtd">
<svg xmlns:xlink="http://www.w3.org/1999/xlink" width="460.8pt" height="345.6pt" viewBox="0 0 460.8 345.6" xmlns="http://www.w3.org/2000/svg" version="1.1">
 <metadata>
  <rdf:RDF xmlns:dc="http://purl.org/dc/elements/1.1/" xmlns:cc="http://creativecommons.org/ns#" xmlns:rdf="http://www.w3.org/1999/02/22-rdf-syntax-ns#">
   <cc:Work>
    <dc:type rdf:resource="http://purl.org/dc/dcmitype/StillImage"/>
    <dc:date>2025-04-15T21:48:53.368321</dc:date>
    <dc:format>image/svg+xml</dc:format>
    <dc:creator>
     <cc:Agent>
      <dc:title>Matplotlib v3.10.0, https://matplotlib.org/</dc:title>
     </cc:Agent>
    </dc:creator>
   </cc:Work>
  </rdf:RDF>
 </metadata>
 <defs>
  <style type="text/css">*{stroke-linejoin: round; stroke-linecap: butt}</style>
 </defs>
 <g id="figure_1">
  <g id="patch_1">
   <path d="M 0 345.6 
L 460.8 345.6 
L 460.8 0 
L 0 0 
z
" style="fill: #ffffff"/>
  </g>
  <g id="axes_1">
   <g id="patch_2">
    <path d="M 57.6 307.584 
L 414.72 307.584 
L 414.72 41.472 
L 57.6 41.472 
z
" style="fill: #ffffff"/>
   </g>
   <g id="matplotlib.axis_1">
    <g id="xtick_1">
     <g id="line2d_1">
      <path d="M 97.141908 307.584 
L 97.141908 41.472 
" clip-path="url(#pe724d67157)" style="fill: none; stroke: #b0b0b0; stroke-opacity: 0.5; stroke-width: 0.8; stroke-linecap: square"/>
     </g>
     <g id="line2d_2">
      <defs>
       <path id="mc2b0d2eb71" d="M 0 0 
L 0 3.5 
" style="stroke: #000000; stroke-width: 0.8"/>
      </defs>
      <g>
       <use xlink:href="#mc2b0d2eb71" x="97.141908" y="307.584" style="stroke: #000000; stroke-width: 0.8"/>
      </g>
     </g>
     <g id="text_1">
      <!-- −1.0 -->
      <g transform="translate(85.000502 322.182437) scale(0.1 -0.1)">
       <defs>
        <path id="DejaVuSans-2212" d="M 678 2272 
L 4684 2272 
L 4684 1741 
L 678 1741 
L 678 2272 
z
" transform="scale(0.015625)"/>
        <path id="DejaVuSans-31" d="M 794 531 
L 1825 531 
L 1825 4091 
L 703 3866 
L 703 4441 
L 1819 4666 
L 2450 4666 
L 2450 531 
L 3481 531 
L 3481 0 
L 794 0 
L 794 531 
z
" transform="scale(0.015625)"/>
        <path id="DejaVuSans-2e" d="M 684 794 
L 1344 794 
L 1344 0 
L 684 0 
L 684 794 
z
" transform="scale(0.015625)"/>
        <path id="DejaVuSans-30" d="M 2034 4250 
Q 1547 4250 1301 3770 
Q 1056 3291 1056 2328 
Q 1056 1369 1301 889 
Q 1547 409 2034 409 
Q 2525 409 2770 889 
Q 3016 1369 3016 2328 
Q 3016 3291 2770 3770 
Q 2525 4250 2034 4250 
z
M 2034 4750 
Q 2819 4750 3233 4129 
Q 3647 3509 3647 2328 
Q 3647 1150 3233 529 
Q 2819 -91 2034 -91 
Q 1250 -91 836 529 
Q 422 1150 422 2328 
Q 422 3509 836 4129 
Q 1250 4750 2034 4750 
z
" transform="scale(0.015625)"/>
       </defs>
       <use xlink:href="#DejaVuSans-2212"/>
       <use xlink:href="#DejaVuSans-31" transform="translate(83.789062 0)"/>
       <use xlink:href="#DejaVuSans-2e" transform="translate(147.412109 0)"/>
       <use xlink:href="#DejaVuSans-30" transform="translate(179.199219 0)"/>
      </g>
     </g>
    </g>
    <g id="xtick_2">
     <g id="line2d_3">
      <path d="M 166.566894 307.584 
L 166.566894 41.472 
" clip-path="url(#pe724d67157)" style="fill: none; stroke: #b0b0b0; stroke-opacity: 0.5; stroke-width: 0.8; stroke-linecap: square"/>
     </g>
     <g id="line2d_4">
      <g>
       <use xlink:href="#mc2b0d2eb71" x="166.566894" y="307.584" style="stroke: #000000; stroke-width: 0.8"/>
      </g>
     </g>
     <g id="text_2">
      <!-- −0.5 -->
      <g transform="translate(154.425488 322.182437) scale(0.1 -0.1)">
       <defs>
        <path id="DejaVuSans-35" d="M 691 4666 
L 3169 4666 
L 3169 4134 
L 1269 4134 
L 1269 2991 
Q 1406 3038 1543 3061 
Q 1681 3084 1819 3084 
Q 2600 3084 3056 2656 
Q 3513 2228 3513 1497 
Q 3513 744 3044 326 
Q 2575 -91 1722 -91 
Q 1428 -91 1123 -41 
Q 819 9 494 109 
L 494 744 
Q 775 591 1075 516 
Q 1375 441 1709 441 
Q 2250 441 2565 725 
Q 2881 1009 2881 1497 
Q 2881 1984 2565 2268 
Q 2250 2553 1709 2553 
Q 1456 2553 1204 2497 
Q 953 2441 691 2322 
L 691 4666 
z
" transform="scale(0.015625)"/>
       </defs>
       <use xlink:href="#DejaVuSans-2212"/>
       <use xlink:href="#DejaVuSans-30" transform="translate(83.789062 0)"/>
       <use xlink:href="#DejaVuSans-2e" transform="translate(147.412109 0)"/>
       <use xlink:href="#DejaVuSans-35" transform="translate(179.199219 0)"/>
      </g>
     </g>
    </g>
    <g id="xtick_3">
     <g id="line2d_5">
      <path d="M 235.991879 307.584 
L 235.991879 41.472 
" clip-path="url(#pe724d67157)" style="fill: none; stroke: #b0b0b0; stroke-opacity: 0.5; stroke-width: 0.8; stroke-linecap: square"/>
     </g>
     <g id="line2d_6">
      <g>
       <use xlink:href="#mc2b0d2eb71" x="235.991879" y="307.584" style="stroke: #000000; stroke-width: 0.8"/>
      </g>
     </g>
     <g id="text_3">
      <!-- 0.0 -->
      <g transform="translate(228.040317 322.182437) scale(0.1 -0.1)">
       <use xlink:href="#DejaVuSans-30"/>
       <use xlink:href="#DejaVuSans-2e" transform="translate(63.623047 0)"/>
       <use xlink:href="#DejaVuSans-30" transform="translate(95.410156 0)"/>
      </g>
     </g>
    </g>
    <g id="xtick_4">
     <g id="line2d_7">
      <path d="M 305.416865 307.584 
L 305.416865 41.472 
" clip-path="url(#pe724d67157)" style="fill: none; stroke: #b0b0b0; stroke-opacity: 0.5; stroke-width: 0.8; stroke-linecap: square"/>
     </g>
     <g id="line2d_8">
      <g>
       <use xlink:href="#mc2b0d2eb71" x="305.416865" y="307.584" style="stroke: #000000; stroke-width: 0.8"/>
      </g>
     </g>
     <g id="text_4">
      <!-- 0.5 -->
      <g transform="translate(297.465302 322.182437) scale(0.1 -0.1)">
       <use xlink:href="#DejaVuSans-30"/>
       <use xlink:href="#DejaVuSans-2e" transform="translate(63.623047 0)"/>
       <use xlink:href="#DejaVuSans-35" transform="translate(95.410156 0)"/>
      </g>
     </g>
    </g>
    <g id="xtick_5">
     <g id="line2d_9">
      <path d="M 374.84185 307.584 
L 374.84185 41.472 
" clip-path="url(#pe724d67157)" style="fill: none; stroke: #b0b0b0; stroke-opacity: 0.5; stroke-width: 0.8; stroke-linecap: square"/>
     </g>
     <g id="line2d_10">
      <g>
       <use xlink:href="#mc2b0d2eb71" x="374.84185" y="307.584" style="stroke: #000000; stroke-width: 0.8"/>
      </g>
     </g>
     <g id="text_5">
      <!-- 1.0 -->
      <g transform="translate(366.890288 322.182437) scale(0.1 -0.1)">
       <use xlink:href="#DejaVuSans-31"/>
       <use xlink:href="#DejaVuSans-2e" transform="translate(63.623047 0)"/>
       <use xlink:href="#DejaVuSans-30" transform="translate(95.410156 0)"/>
      </g>
     </g>
    </g>
    <g id="text_6">
     <!-- Index -->
     <g transform="translate(222.393594 335.860562) scale(0.1 -0.1)">
      <defs>
       <path id="DejaVuSans-49" d="M 628 4666 
L 1259 4666 
L 1259 0 
L 628 0 
L 628 4666 
z
" transform="scale(0.015625)"/>
       <path id="DejaVuSans-6e" d="M 3513 2113 
L 3513 0 
L 2938 0 
L 2938 2094 
Q 2938 2591 2744 2837 
Q 2550 3084 2163 3084 
Q 1697 3084 1428 2787 
Q 1159 2491 1159 1978 
L 1159 0 
L 581 0 
L 581 3500 
L 1159 3500 
L 1159 2956 
Q 1366 3272 1645 3428 
Q 1925 3584 2291 3584 
Q 2894 3584 3203 3211 
Q 3513 2838 3513 2113 
z
" transform="scale(0.015625)"/>
       <path id="DejaVuSans-64" d="M 2906 2969 
L 2906 4863 
L 3481 4863 
L 3481 0 
L 2906 0 
L 2906 525 
Q 2725 213 2448 61 
Q 2172 -91 1784 -91 
Q 1150 -91 751 415 
Q 353 922 353 1747 
Q 353 2572 751 3078 
Q 1150 3584 1784 3584 
Q 2172 3584 2448 3432 
Q 2725 3281 2906 2969 
z
M 947 1747 
Q 947 1113 1208 752 
Q 1469 391 1925 391 
Q 2381 391 2643 752 
Q 2906 1113 2906 1747 
Q 2906 2381 2643 2742 
Q 2381 3103 1925 3103 
Q 1469 3103 1208 2742 
Q 947 2381 947 1747 
z
" transform="scale(0.015625)"/>
       <path id="DejaVuSans-65" d="M 3597 1894 
L 3597 1613 
L 953 1613 
Q 991 1019 1311 708 
Q 1631 397 2203 397 
Q 2534 397 2845 478 
Q 3156 559 3463 722 
L 3463 178 
Q 3153 47 2828 -22 
Q 2503 -91 2169 -91 
Q 1331 -91 842 396 
Q 353 884 353 1716 
Q 353 2575 817 3079 
Q 1281 3584 2069 3584 
Q 2775 3584 3186 3129 
Q 3597 2675 3597 1894 
z
M 3022 2063 
Q 3016 2534 2758 2815 
Q 2500 3097 2075 3097 
Q 1594 3097 1305 2825 
Q 1016 2553 972 2059 
L 3022 2063 
z
" transform="scale(0.015625)"/>
       <path id="DejaVuSans-78" d="M 3513 3500 
L 2247 1797 
L 3578 0 
L 2900 0 
L 1881 1375 
L 863 0 
L 184 0 
L 1544 1831 
L 300 3500 
L 978 3500 
L 1906 2253 
L 2834 3500 
L 3513 3500 
z
" transform="scale(0.015625)"/>
      </defs>
      <use xlink:href="#DejaVuSans-49"/>
      <use xlink:href="#DejaVuSans-6e" transform="translate(29.492188 0)"/>
      <use xlink:href="#DejaVuSans-64" transform="translate(92.871094 0)"/>
      <use xlink:href="#DejaVuSans-65" transform="translate(156.347656 0)"/>
      <use xlink:href="#DejaVuSans-78" transform="translate(216.121094 0)"/>
     </g>
    </g>
   </g>
   <g id="matplotlib.axis_2">
    <g id="ytick_1">
     <g id="line2d_11">
      <path d="M 57.6 275.686072 
L 414.72 275.686072 
" clip-path="url(#pe724d67157)" style="fill: none; stroke: #b0b0b0; stroke-opacity: 0.5; stroke-width: 0.8; stroke-linecap: square"/>
     </g>
     <g id="line2d_12">
      <defs>
       <path id="med69ce09fc" d="M 0 0 
L -3.5 0 
" style="stroke: #000000; stroke-width: 0.8"/>
      </defs>
      <g>
       <use xlink:href="#med69ce09fc" x="57.6" y="275.686072" style="stroke: #000000; stroke-width: 0.8"/>
      </g>
     </g>
     <g id="text_7">
      <!-- −1.0 -->
      <g transform="translate(26.317187 279.485291) scale(0.1 -0.1)">
       <use xlink:href="#DejaVuSans-2212"/>
       <use xlink:href="#DejaVuSans-31" transform="translate(83.789062 0)"/>
       <use xlink:href="#DejaVuSans-2e" transform="translate(147.412109 0)"/>
       <use xlink:href="#DejaVuSans-30" transform="translate(179.199219 0)"/>
      </g>
     </g>
    </g>
    <g id="ytick_2">
     <g id="line2d_13">
      <path d="M 57.6 225.196158 
L 414.72 225.196158 
" clip-path="url(#pe724d67157)" style="fill: none; stroke: #b0b0b0; stroke-opacity: 0.5; stroke-width: 0.8; stroke-linecap: square"/>
     </g>
     <g id="line2d_14">
      <g>
       <use xlink:href="#med69ce09fc" x="57.6" y="225.196158" style="stroke: #000000; stroke-width: 0.8"/>
      </g>
     </g>
     <g id="text_8">
      <!-- −0.5 -->
      <g transform="translate(26.317187 228.995376) scale(0.1 -0.1)">
       <use xlink:href="#DejaVuSans-2212"/>
       <use xlink:href="#DejaVuSans-30" transform="translate(83.789062 0)"/>
       <use xlink:href="#DejaVuSans-2e" transform="translate(147.412109 0)"/>
       <use xlink:href="#DejaVuSans-35" transform="translate(179.199219 0)"/>
      </g>
     </g>
    </g>
    <g id="ytick_3">
     <g id="line2d_15">
      <path d="M 57.6 174.706243 
L 414.72 174.706243 
" clip-path="url(#pe724d67157)" style="fill: none; stroke: #b0b0b0; stroke-opacity: 0.5; stroke-width: 0.8; stroke-linecap: square"/>
     </g>
     <g id="line2d_16">
      <g>
       <use xlink:href="#med69ce09fc" x="57.6" y="174.706243" style="stroke: #000000; stroke-width: 0.8"/>
      </g>
     </g>
     <g id="text_9">
      <!-- 0.0 -->
      <g transform="translate(34.696875 178.505461) scale(0.1 -0.1)">
       <use xlink:href="#DejaVuSans-30"/>
       <use xlink:href="#DejaVuSans-2e" transform="translate(63.623047 0)"/>
       <use xlink:href="#DejaVuSans-30" transform="translate(95.410156 0)"/>
      </g>
     </g>
    </g>
    <g id="ytick_4">
     <g id="line2d_17">
      <path d="M 57.6 124.216328 
L 414.72 124.216328 
" clip-path="url(#pe724d67157)" style="fill: none; stroke: #b0b0b0; stroke-opacity: 0.5; stroke-width: 0.8; stroke-linecap: square"/>
     </g>
     <g id="line2d_18">
      <g>
       <use xlink:href="#med69ce09fc" x="57.6" y="124.216328" style="stroke: #000000; stroke-width: 0.8"/>
      </g>
     </g>
     <g id="text_10">
      <!-- 0.5 -->
      <g transform="translate(34.696875 128.015547) scale(0.1 -0.1)">
       <use xlink:href="#DejaVuSans-30"/>
       <use xlink:href="#DejaVuSans-2e" transform="translate(63.623047 0)"/>
       <use xlink:href="#DejaVuSans-35" transform="translate(95.410156 0)"/>
      </g>
     </g>
    </g>
    <g id="ytick_5">
     <g id="line2d_19">
      <path d="M 57.6 73.726413 
L 414.72 73.726413 
" clip-path="url(#pe724d67157)" style="fill: none; stroke: #b0b0b0; stroke-opacity: 0.5; stroke-width: 0.8; stroke-linecap: square"/>
     </g>
     <g id="line2d_20">
      <g>
       <use xlink:href="#med69ce09fc" x="57.6" y="73.726413" style="stroke: #000000; stroke-width: 0.8"/>
      </g>
     </g>
     <g id="text_11">
      <!-- 1.0 -->
      <g transform="translate(34.696875 77.525632) scale(0.1 -0.1)">
       <use xlink:href="#DejaVuSans-31"/>
       <use xlink:href="#DejaVuSans-2e" transform="translate(63.623047 0)"/>
       <use xlink:href="#DejaVuSans-30" transform="translate(95.410156 0)"/>
      </g>
     </g>
    </g>
    <g id="text_12">
     <!-- Value -->
     <g transform="translate(20.2375 188.25925) rotate(-90) scale(0.1 -0.1)">
      <defs>
       <path id="DejaVuSans-56" d="M 1831 0 
L 50 4666 
L 709 4666 
L 2188 738 
L 3669 4666 
L 4325 4666 
L 2547 0 
L 1831 0 
z
" transform="scale(0.015625)"/>
       <path id="DejaVuSans-61" d="M 2194 1759 
Q 1497 1759 1228 1600 
Q 959 1441 959 1056 
Q 959 750 1161 570 
Q 1363 391 1709 391 
Q 2188 391 2477 730 
Q 2766 1069 2766 1631 
L 2766 1759 
L 2194 1759 
z
M 3341 1997 
L 3341 0 
L 2766 0 
L 2766 531 
Q 2569 213 2275 61 
Q 1981 -91 1556 -91 
Q 1019 -91 701 211 
Q 384 513 384 1019 
Q 384 1609 779 1909 
Q 1175 2209 1959 2209 
L 2766 2209 
L 2766 2266 
Q 2766 2663 2505 2880 
Q 2244 3097 1772 3097 
Q 1472 3097 1187 3025 
Q 903 2953 641 2809 
L 641 3341 
Q 956 3463 1253 3523 
Q 1550 3584 1831 3584 
Q 2591 3584 2966 3190 
Q 3341 2797 3341 1997 
z
" transform="scale(0.015625)"/>
       <path id="DejaVuSans-6c" d="M 603 4863 
L 1178 4863 
L 1178 0 
L 603 0 
L 603 4863 
z
" transform="scale(0.015625)"/>
       <path id="DejaVuSans-75" d="M 544 1381 
L 544 3500 
L 1119 3500 
L 1119 1403 
Q 1119 906 1312 657 
Q 1506 409 1894 409 
Q 2359 409 2629 706 
Q 2900 1003 2900 1516 
L 2900 3500 
L 3475 3500 
L 3475 0 
L 2900 0 
L 2900 538 
Q 2691 219 2414 64 
Q 2138 -91 1772 -91 
Q 1169 -91 856 284 
Q 544 659 544 1381 
z
M 1991 3584 
L 1991 3584 
z
" transform="scale(0.015625)"/>
      </defs>
      <use xlink:href="#DejaVuSans-56"/>
      <use xlink:href="#DejaVuSans-61" transform="translate(60.658203 0)"/>
      <use xlink:href="#DejaVuSans-6c" transform="translate(121.9375 0)"/>
      <use xlink:href="#DejaVuSans-75" transform="translate(149.720703 0)"/>
      <use xlink:href="#DejaVuSans-65" transform="translate(213.099609 0)"/>
     </g>
    </g>
   </g>
   <g id="line2d_21">
    <path d="M 221.767794 177.476813 
L 240.869744 176.999578 
L 244.262917 176.522282 
L 242.302391 176.045235 
L 239.373089 175.568762 
L 238.282564 175.093137 
L 239.248687 174.618521 
L 242.477977 173.67209 
L 243.21045 173.19971 
L 243.829382 172.254426 
L 244.355552 171.780772 
L 247.076726 169.880725 
L 249.446775 167.992118 
L 254.460426 164.223322 
L 258.788956 160.942746 
L 270.498241 152.057657 
L 326.205732 109.675979 
L 328.428867 109.166867 
L 327.023022 108.714128 
L 327.414714 108.261449 
L 329.987208 106.906861 
L 332.784614 104.656937 
L 335.704075 102.405838 
L 385.848173 64.24612 
L 387.567865 62.921716 
L 389.633994 61.182288 
L 393.321776 58.561059 
L 394.626322 57.25842 
L 395.892698 56.419414 
L 398.177746 55.104063 
L 398.487273 54.655429 
L 398.255774 54.234156 
L 397.304717 53.879717 
L 395.498507 53.64078 
L 392.771862 53.568 
L 389.237668 53.704183 
L 385.334592 54.074211 
L 381.897427 54.676615 
L 379.865014 55.479676 
L 379.751003 56.422917 
L 381.379276 57.424553 
L 384.110159 58.394 
L 391.155754 60.388809 
L 391.0961 60.657972 
L 389.763813 60.77652 
L 381.401572 61.031479 
L 377.675008 61.348529 
L 374.14924 61.858423 
L 371.73251 62.553217 
L 366.777532 63.499383 
L 373.525254 64.406763 
L 376.928868 65.290104 
L 378.991488 66.073628 
L 380.172621 66.704165 
L 380.622625 67.161539 
L 380.208224 67.461615 
L 378.848775 67.652136 
L 370.552106 68.270455 
L 367.321123 68.69836 
L 364.735288 69.282106 
L 363.412287 70.001734 
L 363.610541 70.809815 
L 365.052428 71.64238 
L 370.365993 73.683101 
L 370.584407 74.104584 
L 369.717684 74.411709 
L 365.681718 74.879574 
L 360.281528 75.530123 
L 357.828383 76.022514 
L 356.130665 76.633375 
L 355.516537 77.337011 
L 355.997809 78.089171 
L 357.229955 78.837358 
L 359.873276 80.136205 
L 360.366035 80.63423 
L 360.002383 81.032673 
L 358.838126 81.3588 
L 350.502228 82.775075 
L 348.822477 83.312993 
L 347.870857 83.930692 
L 347.724768 84.600959 
L 348.236976 85.286742 
L 349.875512 86.55768 
L 350.292089 87.092378 
L 350.135952 87.551269 
L 349.361781 87.948057 
L 346.410613 88.664849 
L 342.809805 89.48229 
L 341.299433 89.978931 
L 340.246034 90.536013 
L 339.737418 91.138826 
L 339.720551 91.76385 
L 340.597545 93.519824 
L 340.458597 94.012113 
L 339.898727 94.457016 
L 338.932889 94.869374 
L 333.438906 96.600069 
L 332.410228 97.121821 
L 331.741245 97.678524 
L 331.422044 98.25595 
L 331.380085 99.402375 
L 331.342238 99.940841 
L 331.10334 100.445325 
L 330.588641 100.917096 
L 329.787282 101.364448 
L 324.369861 103.67813 
L 323.675041 104.206996 
L 323.205554 104.750747 
L 321.998633 106.869003 
L 321.446385 107.353696 
L 319.854369 108.28349 
L 317.032119 109.694969 
L 315.535212 110.701582 
L 314.492737 111.74263 
L 313.107781 113.273895 
L 311.853538 114.244239 
L 306.67734 117.640349 
L 303.198219 120.615011 
L 297.75921 124.50078 
L 294.636835 126.944605 
L 290.037465 130.347618 
L 286.092313 133.269257 
L 282.278639 136.203299 
L 279.256591 136.750299 
L 281.604612 137.23554 
L 281.260691 137.720468 
L 277.857259 139.179962 
L 276.867545 140.159181 
L 275.748533 141.13963 
L 269.165948 145.989173 
L 253.873364 157.542716 
L 250.688662 159.945097 
L 246.925745 162.811334 
L 242.471071 166.15347 
L 236.790142 170.428479 
L 218.079673 184.580334 
L 212.502002 188.782848 
L 190.362586 205.536715 
L 187.606304 206.058418 
L 189.618912 206.522397 
L 189.334139 206.986681 
L 186.29263 208.380169 
L 183.600687 210.695073 
L 181.697965 212.08089 
L 176.270103 216.228919 
L 138.11639 245.274803 
L 127.581979 253.308985 
L 113.633236 263.973526 
L 106.150414 269.730602 
L 103.776298 271.493619 
L 101.447816 271.991259 
L 102.992509 272.434157 
L 102.705701 272.876953 
L 100.110679 274.19922 
L 94.629068 278.591512 
L 80.850631 289.033704 
L 79.609845 289.911749 
L 78.686049 290.795812 
L 77.872012 291.65799 
L 76.649631 292.496707 
L 74.223392 293.799732 
L 73.832727 294.24957 
L 74.007204 294.682591 
L 74.949223 295.064428 
L 76.805073 295.349747 
L 79.636626 295.488 
L 83.295028 295.432578 
L 87.29265 295.150594 
L 90.771146 294.632575 
L 92.870926 293.898273 
L 93.235042 292.997766 
L 92.126855 292.006278 
L 90.053724 291.01355 
L 87.427716 290.109035 
L 81.046411 288.49965 
L 81.601538 288.345639 
L 91.150953 288.158501 
L 95.332934 287.901158 
L 99.05013 287.448587 
L 101.480755 286.795974 
L 102.09653 285.978973 
L 101.033961 285.065863 
L 98.876182 284.142929 
L 96.231388 283.296556 
L 91.747942 282.074751 
L 91.178281 281.733613 
L 92.258908 281.531861 
L 102.086748 281.034052 
L 105.718749 280.662484 
L 108.501919 280.121183 
L 109.898222 279.4209 
L 109.789797 278.605295 
L 108.505371 277.740974 
L 106.558757 276.90281 
L 101.633763 275.101695 
L 101.90954 274.787835 
L 103.5204 274.565438 
L 112.654057 273.808752 
L 115.424168 273.34876 
L 117.228954 272.751646 
L 117.834749 272.040168 
L 117.353708 271.260345 
L 116.133058 270.471049 
L 112.074713 268.564519 
L 111.926703 268.160894 
L 112.844101 267.850043 
L 117.296405 267.317789 
L 120.072301 266.992704 
L 122.608943 266.575193 
L 124.505122 266.049788 
L 125.507913 265.424591 
L 125.609874 264.728521 
L 125.013018 264.004403 
L 122.169507 262.096356 
L 121.940887 261.632247 
L 122.482161 261.249032 
L 123.815408 260.917013 
L 130.153546 259.841219 
L 131.918061 259.35549 
L 133.060908 258.791637 
L 133.52384 258.16606 
L 133.413089 257.507542 
L 132.933655 256.850534 
L 131.847217 255.662241 
L 131.721388 255.16477 
L 132.120726 254.730268 
L 133.094774 254.340739 
L 139.596017 252.698503 
L 140.721286 252.17181 
L 141.366342 251.597424 
L 141.5796 250.993605 
L 141.48824 250.384056 
L 141.101879 249.236872 
L 143.408321 248.666729 
L 140.860622 248.206809 
L 141.400224 247.779139 
L 146.854424 246.504571 
L 147.993746 246.02807 
L 148.725089 245.514263 
L 149.22326 244.968575 
L 149.811426 243.833615 
L 150.109399 242.740763 
L 150.374251 242.235455 
L 150.863783 241.758671 
L 151.615584 241.303446 
L 156.678862 238.967313 
L 157.329455 238.444737 
L 158.173005 237.372115 
L 158.838156 236.322436 
L 159.852839 235.336684 
L 161.386111 234.399812 
L 164.015603 232.978968 
L 165.42576 231.978163 
L 166.956032 230.439644 
L 167.971191 229.439796 
L 169.247797 228.474117 
L 173.626385 225.573342 
L 177.802076 222.12408 
L 181.266941 219.696659 
L 186.329177 215.780528 
L 188.973951 213.820773 
L 192.751189 210.885594 
L 196.711147 207.948228 
L 200.473311 205.020275 
L 205.655016 201.126926 
L 209.427694 198.228008 
L 213.943918 194.843412 
L 217.692736 191.961112 
L 221.573869 189.072509 
L 225.293874 186.194077 
L 229.761782 182.840218 
L 234.783812 179.025016 
L 236.055092 178.072897 
L 238.703362 177.53645 
L 238.703362 177.53645 
" clip-path="url(#pe724d67157)" style="fill: none; stroke: #1f77b4; stroke-width: 1.5; stroke-linecap: square"/>
   </g>
   <g id="line2d_22">
    <path d="M 236.452051 177.476813 
L 266.973395 154.393682 
L 271.34366 151.121796 
L 275.103878 148.323241 
L 279.400669 145.051635 
L 382.080991 67.294965 
L 383.812616 65.980818 
L 386.368144 64.24612 
L 389.548055 61.611084 
L 392.297393 59.891024 
L 393.181993 59.006588 
L 393.923531 58.119034 
L 394.453285 57.684387 
L 396.069492 56.838724 
L 397.887537 55.992965 
L 398.381372 55.554046 
L 398.280453 55.104063 
L 397.414938 54.655429 
L 395.743132 54.234156 
L 393.388763 53.879717 
L 390.642007 53.64078 
L 387.919765 53.568 
L 385.688511 53.704183 
L 384.367413 54.074211 
L 384.229881 54.676615 
L 385.330652 55.479676 
L 387.474014 56.422917 
L 395.279505 59.247222 
L 396.408531 59.921877 
L 396.097118 60.388809 
L 394.282168 60.657972 
L 387.298412 60.81982 
L 379.650382 61.031479 
L 377.098148 61.348529 
L 375.909285 61.858423 
L 376.136795 62.553217 
L 377.786918 63.499383 
L 383.884188 66.073628 
L 384.560544 66.704165 
L 383.984941 67.161539 
L 382.176646 67.461615 
L 376.123504 67.801898 
L 372.873743 67.986063 
L 370.167821 68.270455 
L 368.38577 68.69836 
L 367.702859 69.282106 
L 368.061156 70.001734 
L 369.190935 70.809815 
L 372.043724 72.432405 
L 372.869688 73.123912 
L 372.860286 73.683101 
L 371.910678 74.104584 
L 370.118181 74.411709 
L 362.846317 75.157375 
L 361.046745 75.530123 
L 360.003898 76.022514 
L 359.754555 76.633375 
L 360.164297 77.337011 
L 362.379752 79.531845 
L 362.402809 80.136205 
L 361.754343 80.63423 
L 360.45569 81.032673 
L 356.646308 81.653724 
L 353.061662 82.328 
L 351.948535 82.775075 
L 351.4137 83.312993 
L 351.394532 83.930692 
L 352.462158 85.949582 
L 352.425884 86.55768 
L 351.929458 87.092378 
L 350.956975 87.551269 
L 348.010434 88.308545 
L 344.98282 89.048203 
L 343.887221 89.48229 
L 343.190415 89.978931 
L 342.87296 90.536013 
L 342.83436 91.138826 
L 342.951864 92.38407 
L 342.779192 92.975038 
L 342.2996 93.519824 
L 341.484594 94.012113 
L 339.09794 94.869374 
L 336.566669 95.680778 
L 335.57597 96.12039 
L 334.864142 96.600069 
L 334.423307 97.121821 
L 334.037392 98.25595 
L 333.855392 98.836349 
L 333.527319 99.402375 
L 332.981337 99.940841 
L 332.19922 100.445325 
L 330.119311 101.364448 
L 327.977596 102.239086 
L 327.110178 102.693691 
L 326.43642 103.172546 
L 325.574274 104.206996 
L 324.893341 105.29847 
L 324.427396 105.83918 
L 323.815792 106.364212 
L 322.18185 107.353696 
L 318.712648 109.213219 
L 317.542457 110.191646 
L 315.5478 112.261829 
L 314.148352 113.273895 
L 309.638372 116.152394 
L 306.233368 119.147124 
L 300.643097 123.026265 
L 298.359252 124.993204 
L 296.147886 126.459535 
L 293.938092 127.913429 
L 292.154927 129.372161 
L 290.41956 130.834999 
L 288.305326 132.294664 
L 285.422499 134.247447 
L 278.932929 139.179962 
L 276.259772 141.13963 
L 271.90528 144.534783 
L 267.288483 147.934389 
L 263.538911 150.820416 
L 259.579336 153.711352 
L 255.167476 157.065404 
L 250.644181 160.425873 
L 244.877139 164.718122 
L 232.923439 173.751677 
L 228.456174 177.053513 
L 208.027711 192.513718 
L 96.160081 277.274427 
L 93.880048 279.027603 
L 90.968912 281.212488 
L 88.756974 282.962798 
L 85.716169 285.131625 
L 83.099083 287.317412 
L 79.88135 289.470517 
L 78.216645 291.230867 
L 76.752735 292.078396 
L 74.928732 292.919822 
L 74.292879 293.35377 
L 74.153261 293.799732 
L 74.711765 294.24957 
L 76.068533 294.682591 
L 78.173295 295.064428 
L 80.805841 295.349747 
L 83.596377 295.488 
L 86.08664 295.432578 
L 87.820335 295.150594 
L 88.445743 294.632575 
L 87.805041 293.898273 
L 85.989065 292.997766 
L 80.39816 291.01355 
L 77.801284 290.109035 
L 76.154687 289.366102 
L 75.90311 288.828052 
L 77.230515 288.49965 
L 80.013619 288.345639 
L 92.044292 288.158501 
L 95.076839 287.901158 
L 96.73532 287.448587 
L 96.860422 286.795974 
L 95.609687 285.978973 
L 93.420492 285.065863 
L 88.759673 283.296556 
L 87.538616 282.594949 
L 87.620467 282.074751 
L 89.093431 281.733613 
L 91.75438 281.531861 
L 101.859767 281.034052 
L 104.074957 280.662484 
L 105.098728 280.121183 
L 104.916389 279.4209 
L 103.765795 278.605295 
L 99.174048 276.158108 
L 98.846231 275.552634 
L 99.575505 275.101695 
L 101.311277 274.787835 
L 111.428068 273.808752 
L 112.730089 273.34876 
L 113.101935 272.751646 
L 112.650316 272.040168 
L 109.593264 269.731258 
L 109.269511 269.087474 
L 109.728032 268.564519 
L 110.991123 268.160894 
L 115.188142 267.58682 
L 119.436621 266.992704 
L 120.800639 266.575193 
L 121.45057 266.049788 
L 121.424235 265.424591 
L 120.9039 264.728521 
L 119.540834 263.299317 
L 119.293569 262.654407 
L 119.614218 262.096356 
L 120.556742 261.632247 
L 122.038173 261.249032 
L 127.483336 260.249123 
L 128.798144 259.841219 
L 129.593121 259.35549 
L 129.869221 258.791637 
L 129.740751 258.16606 
L 129.096779 256.850534 
L 129.032109 256.227551 
L 129.364842 255.662241 
L 130.153695 255.16477 
L 131.353672 254.730268 
L 137.017705 253.169028 
L 137.812765 252.698503 
L 138.223467 252.17181 
L 138.328449 251.597424 
L 138.226487 250.384056 
L 138.355984 249.792329 
L 138.77593 249.236872 
L 139.647395 248.666729 
L 142.005042 247.779139 
L 144.520166 246.946741 
L 145.504906 246.504571 
L 146.21243 246.02807 
L 146.652049 245.514263 
L 147.049881 244.403138 
L 147.244138 243.833615 
L 147.584468 243.275497 
L 148.137882 242.740763 
L 148.917318 242.235455 
L 150.951352 241.303446 
L 153.007153 240.411474 
L 154.473347 239.470484 
L 155.315987 238.444737 
L 156.030488 237.372115 
L 156.5204 236.840594 
L 157.924904 235.821239 
L 162.205454 233.462 
L 163.321544 232.48385 
L 165.241468 230.439644 
L 166.657745 229.439796 
L 170.635559 227.044263 
L 171.755779 226.069321 
L 173.83719 224.075857 
L 175.278866 223.091938 
L 179.106225 220.675329 
L 180.72993 219.20406 
L 181.830192 218.218657 
L 183.185144 217.23964 
L 187.61679 214.312785 
L 191.828561 210.885594 
L 196.043353 207.948228 
L 200.331686 204.53637 
L 205.018249 201.126926 
L 208.697752 198.228008 
L 213.339163 194.843412 
L 216.429451 192.438369 
L 221.661327 188.588869 
L 225.463324 185.717636 
L 230.591755 181.881147 
L 236.372983 177.53645 
L 236.372983 177.53645 
" clip-path="url(#pe724d67157)" style="fill: none; stroke: #ff7f0e; stroke-opacity: 0.5; stroke-width: 1.5; stroke-linecap: square"/>
   </g>
   <g id="patch_3">
    <path d="M 57.6 307.584 
L 57.6 41.472 
" style="fill: none; stroke: #000000; stroke-width: 0.8; stroke-linejoin: miter; stroke-linecap: square"/>
   </g>
   <g id="patch_4">
    <path d="M 414.72 307.584 
L 414.72 41.472 
" style="fill: none; stroke: #000000; stroke-width: 0.8; stroke-linejoin: miter; stroke-linecap: square"/>
   </g>
   <g id="patch_5">
    <path d="M 57.6 307.584 
L 414.72 307.584 
" style="fill: none; stroke: #000000; stroke-width: 0.8; stroke-linejoin: miter; stroke-linecap: square"/>
   </g>
   <g id="patch_6">
    <path d="M 57.6 41.472 
L 414.72 41.472 
" style="fill: none; stroke: #000000; stroke-width: 0.8; stroke-linejoin: miter; stroke-linecap: square"/>
   </g>
   <g id="text_13">
    <!-- Compare - Epoch 300 -->
    <g transform="translate(171.234375 35.472) scale(0.12 -0.12)">
     <defs>
      <path id="DejaVuSans-43" d="M 4122 4306 
L 4122 3641 
Q 3803 3938 3442 4084 
Q 3081 4231 2675 4231 
Q 1875 4231 1450 3742 
Q 1025 3253 1025 2328 
Q 1025 1406 1450 917 
Q 1875 428 2675 428 
Q 3081 428 3442 575 
Q 3803 722 4122 1019 
L 4122 359 
Q 3791 134 3420 21 
Q 3050 -91 2638 -91 
Q 1578 -91 968 557 
Q 359 1206 359 2328 
Q 359 3453 968 4101 
Q 1578 4750 2638 4750 
Q 3056 4750 3426 4639 
Q 3797 4528 4122 4306 
z
" transform="scale(0.015625)"/>
      <path id="DejaVuSans-6f" d="M 1959 3097 
Q 1497 3097 1228 2736 
Q 959 2375 959 1747 
Q 959 1119 1226 758 
Q 1494 397 1959 397 
Q 2419 397 2687 759 
Q 2956 1122 2956 1747 
Q 2956 2369 2687 2733 
Q 2419 3097 1959 3097 
z
M 1959 3584 
Q 2709 3584 3137 3096 
Q 3566 2609 3566 1747 
Q 3566 888 3137 398 
Q 2709 -91 1959 -91 
Q 1206 -91 779 398 
Q 353 888 353 1747 
Q 353 2609 779 3096 
Q 1206 3584 1959 3584 
z
" transform="scale(0.015625)"/>
      <path id="DejaVuSans-6d" d="M 3328 2828 
Q 3544 3216 3844 3400 
Q 4144 3584 4550 3584 
Q 5097 3584 5394 3201 
Q 5691 2819 5691 2113 
L 5691 0 
L 5113 0 
L 5113 2094 
Q 5113 2597 4934 2840 
Q 4756 3084 4391 3084 
Q 3944 3084 3684 2787 
Q 3425 2491 3425 1978 
L 3425 0 
L 2847 0 
L 2847 2094 
Q 2847 2600 2669 2842 
Q 2491 3084 2119 3084 
Q 1678 3084 1418 2786 
Q 1159 2488 1159 1978 
L 1159 0 
L 581 0 
L 581 3500 
L 1159 3500 
L 1159 2956 
Q 1356 3278 1631 3431 
Q 1906 3584 2284 3584 
Q 2666 3584 2933 3390 
Q 3200 3197 3328 2828 
z
" transform="scale(0.015625)"/>
      <path id="DejaVuSans-70" d="M 1159 525 
L 1159 -1331 
L 581 -1331 
L 581 3500 
L 1159 3500 
L 1159 2969 
Q 1341 3281 1617 3432 
Q 1894 3584 2278 3584 
Q 2916 3584 3314 3078 
Q 3713 2572 3713 1747 
Q 3713 922 3314 415 
Q 2916 -91 2278 -91 
Q 1894 -91 1617 61 
Q 1341 213 1159 525 
z
M 3116 1747 
Q 3116 2381 2855 2742 
Q 2594 3103 2138 3103 
Q 1681 3103 1420 2742 
Q 1159 2381 1159 1747 
Q 1159 1113 1420 752 
Q 1681 391 2138 391 
Q 2594 391 2855 752 
Q 3116 1113 3116 1747 
z
" transform="scale(0.015625)"/>
      <path id="DejaVuSans-72" d="M 2631 2963 
Q 2534 3019 2420 3045 
Q 2306 3072 2169 3072 
Q 1681 3072 1420 2755 
Q 1159 2438 1159 1844 
L 1159 0 
L 581 0 
L 581 3500 
L 1159 3500 
L 1159 2956 
Q 1341 3275 1631 3429 
Q 1922 3584 2338 3584 
Q 2397 3584 2469 3576 
Q 2541 3569 2628 3553 
L 2631 2963 
z
" transform="scale(0.015625)"/>
      <path id="DejaVuSans-20" transform="scale(0.015625)"/>
      <path id="DejaVuSans-2d" d="M 313 2009 
L 1997 2009 
L 1997 1497 
L 313 1497 
L 313 2009 
z
" transform="scale(0.015625)"/>
      <path id="DejaVuSans-45" d="M 628 4666 
L 3578 4666 
L 3578 4134 
L 1259 4134 
L 1259 2753 
L 3481 2753 
L 3481 2222 
L 1259 2222 
L 1259 531 
L 3634 531 
L 3634 0 
L 628 0 
L 628 4666 
z
" transform="scale(0.015625)"/>
      <path id="DejaVuSans-63" d="M 3122 3366 
L 3122 2828 
Q 2878 2963 2633 3030 
Q 2388 3097 2138 3097 
Q 1578 3097 1268 2742 
Q 959 2388 959 1747 
Q 959 1106 1268 751 
Q 1578 397 2138 397 
Q 2388 397 2633 464 
Q 2878 531 3122 666 
L 3122 134 
Q 2881 22 2623 -34 
Q 2366 -91 2075 -91 
Q 1284 -91 818 406 
Q 353 903 353 1747 
Q 353 2603 823 3093 
Q 1294 3584 2113 3584 
Q 2378 3584 2631 3529 
Q 2884 3475 3122 3366 
z
" transform="scale(0.015625)"/>
      <path id="DejaVuSans-68" d="M 3513 2113 
L 3513 0 
L 2938 0 
L 2938 2094 
Q 2938 2591 2744 2837 
Q 2550 3084 2163 3084 
Q 1697 3084 1428 2787 
Q 1159 2491 1159 1978 
L 1159 0 
L 581 0 
L 581 4863 
L 1159 4863 
L 1159 2956 
Q 1366 3272 1645 3428 
Q 1925 3584 2291 3584 
Q 2894 3584 3203 3211 
Q 3513 2838 3513 2113 
z
" transform="scale(0.015625)"/>
      <path id="DejaVuSans-33" d="M 2597 2516 
Q 3050 2419 3304 2112 
Q 3559 1806 3559 1356 
Q 3559 666 3084 287 
Q 2609 -91 1734 -91 
Q 1441 -91 1130 -33 
Q 819 25 488 141 
L 488 750 
Q 750 597 1062 519 
Q 1375 441 1716 441 
Q 2309 441 2620 675 
Q 2931 909 2931 1356 
Q 2931 1769 2642 2001 
Q 2353 2234 1838 2234 
L 1294 2234 
L 1294 2753 
L 1863 2753 
Q 2328 2753 2575 2939 
Q 2822 3125 2822 3475 
Q 2822 3834 2567 4026 
Q 2313 4219 1838 4219 
Q 1578 4219 1281 4162 
Q 984 4106 628 3988 
L 628 4550 
Q 988 4650 1302 4700 
Q 1616 4750 1894 4750 
Q 2613 4750 3031 4423 
Q 3450 4097 3450 3541 
Q 3450 3153 3228 2886 
Q 3006 2619 2597 2516 
z
" transform="scale(0.015625)"/>
     </defs>
     <use xlink:href="#DejaVuSans-43"/>
     <use xlink:href="#DejaVuSans-6f" transform="translate(69.824219 0)"/>
     <use xlink:href="#DejaVuSans-6d" transform="translate(131.005859 0)"/>
     <use xlink:href="#DejaVuSans-70" transform="translate(228.417969 0)"/>
     <use xlink:href="#DejaVuSans-61" transform="translate(291.894531 0)"/>
     <use xlink:href="#DejaVuSans-72" transform="translate(353.173828 0)"/>
     <use xlink:href="#DejaVuSans-65" transform="translate(392.037109 0)"/>
     <use xlink:href="#DejaVuSans-20" transform="translate(453.560547 0)"/>
     <use xlink:href="#DejaVuSans-2d" transform="translate(485.347656 0)"/>
     <use xlink:href="#DejaVuSans-20" transform="translate(521.431641 0)"/>
     <use xlink:href="#DejaVuSans-45" transform="translate(553.21875 0)"/>
     <use xlink:href="#DejaVuSans-70" transform="translate(616.402344 0)"/>
     <use xlink:href="#DejaVuSans-6f" transform="translate(679.878906 0)"/>
     <use xlink:href="#DejaVuSans-63" transform="translate(741.060547 0)"/>
     <use xlink:href="#DejaVuSans-68" transform="translate(796.041016 0)"/>
     <use xlink:href="#DejaVuSans-20" transform="translate(859.419922 0)"/>
     <use xlink:href="#DejaVuSans-33" transform="translate(891.207031 0)"/>
     <use xlink:href="#DejaVuSans-30" transform="translate(954.830078 0)"/>
     <use xlink:href="#DejaVuSans-30" transform="translate(1018.453125 0)"/>
    </g>
   </g>
   <g id="legend_1">
    <g id="patch_7">
     <path d="M 64.6 78.82825 
L 181.128125 78.82825 
Q 183.128125 78.82825 183.128125 76.82825 
L 183.128125 48.472 
Q 183.128125 46.472 181.128125 46.472 
L 64.6 46.472 
Q 62.6 46.472 62.6 48.472 
L 62.6 76.82825 
Q 62.6 78.82825 64.6 78.82825 
z
" style="fill: #ffffff; opacity: 0.8; stroke: #cccccc; stroke-linejoin: miter"/>
    </g>
    <g id="line2d_23">
     <path d="M 66.6 54.570437 
L 76.6 54.570437 
L 86.6 54.570437 
" style="fill: none; stroke: #1f77b4; stroke-width: 1.5; stroke-linecap: square"/>
    </g>
    <g id="text_14">
     <!-- Pred: Sample 1 -->
     <g transform="translate(94.6 58.070437) scale(0.1 -0.1)">
      <defs>
       <path id="DejaVuSans-50" d="M 1259 4147 
L 1259 2394 
L 2053 2394 
Q 2494 2394 2734 2622 
Q 2975 2850 2975 3272 
Q 2975 3691 2734 3919 
Q 2494 4147 2053 4147 
L 1259 4147 
z
M 628 4666 
L 2053 4666 
Q 2838 4666 3239 4311 
Q 3641 3956 3641 3272 
Q 3641 2581 3239 2228 
Q 2838 1875 2053 1875 
L 1259 1875 
L 1259 0 
L 628 0 
L 628 4666 
z
" transform="scale(0.015625)"/>
       <path id="DejaVuSans-3a" d="M 750 794 
L 1409 794 
L 1409 0 
L 750 0 
L 750 794 
z
M 750 3309 
L 1409 3309 
L 1409 2516 
L 750 2516 
L 750 3309 
z
" transform="scale(0.015625)"/>
       <path id="DejaVuSans-53" d="M 3425 4513 
L 3425 3897 
Q 3066 4069 2747 4153 
Q 2428 4238 2131 4238 
Q 1616 4238 1336 4038 
Q 1056 3838 1056 3469 
Q 1056 3159 1242 3001 
Q 1428 2844 1947 2747 
L 2328 2669 
Q 3034 2534 3370 2195 
Q 3706 1856 3706 1288 
Q 3706 609 3251 259 
Q 2797 -91 1919 -91 
Q 1588 -91 1214 -16 
Q 841 59 441 206 
L 441 856 
Q 825 641 1194 531 
Q 1563 422 1919 422 
Q 2459 422 2753 634 
Q 3047 847 3047 1241 
Q 3047 1584 2836 1778 
Q 2625 1972 2144 2069 
L 1759 2144 
Q 1053 2284 737 2584 
Q 422 2884 422 3419 
Q 422 4038 858 4394 
Q 1294 4750 2059 4750 
Q 2388 4750 2728 4690 
Q 3069 4631 3425 4513 
z
" transform="scale(0.015625)"/>
      </defs>
      <use xlink:href="#DejaVuSans-50"/>
      <use xlink:href="#DejaVuSans-72" transform="translate(58.552734 0)"/>
      <use xlink:href="#DejaVuSans-65" transform="translate(97.416016 0)"/>
      <use xlink:href="#DejaVuSans-64" transform="translate(158.939453 0)"/>
      <use xlink:href="#DejaVuSans-3a" transform="translate(222.416016 0)"/>
      <use xlink:href="#DejaVuSans-20" transform="translate(256.107422 0)"/>
      <use xlink:href="#DejaVuSans-53" transform="translate(287.894531 0)"/>
      <use xlink:href="#DejaVuSans-61" transform="translate(351.371094 0)"/>
      <use xlink:href="#DejaVuSans-6d" transform="translate(412.650391 0)"/>
      <use xlink:href="#DejaVuSans-70" transform="translate(510.0625 0)"/>
      <use xlink:href="#DejaVuSans-6c" transform="translate(573.539062 0)"/>
      <use xlink:href="#DejaVuSans-65" transform="translate(601.322266 0)"/>
      <use xlink:href="#DejaVuSans-20" transform="translate(662.845703 0)"/>
      <use xlink:href="#DejaVuSans-31" transform="translate(694.632812 0)"/>
     </g>
    </g>
    <g id="line2d_24">
     <path d="M 66.6 69.248562 
L 76.6 69.248562 
L 86.6 69.248562 
" style="fill: none; stroke: #ff7f0e; stroke-opacity: 0.5; stroke-width: 1.5; stroke-linecap: square"/>
    </g>
    <g id="text_15">
     <!-- Target: Sample 1 -->
     <g transform="translate(94.6 72.748562) scale(0.1 -0.1)">
      <defs>
       <path id="DejaVuSans-54" d="M -19 4666 
L 3928 4666 
L 3928 4134 
L 2272 4134 
L 2272 0 
L 1638 0 
L 1638 4134 
L -19 4134 
L -19 4666 
z
" transform="scale(0.015625)"/>
       <path id="DejaVuSans-67" d="M 2906 1791 
Q 2906 2416 2648 2759 
Q 2391 3103 1925 3103 
Q 1463 3103 1205 2759 
Q 947 2416 947 1791 
Q 947 1169 1205 825 
Q 1463 481 1925 481 
Q 2391 481 2648 825 
Q 2906 1169 2906 1791 
z
M 3481 434 
Q 3481 -459 3084 -895 
Q 2688 -1331 1869 -1331 
Q 1566 -1331 1297 -1286 
Q 1028 -1241 775 -1147 
L 775 -588 
Q 1028 -725 1275 -790 
Q 1522 -856 1778 -856 
Q 2344 -856 2625 -561 
Q 2906 -266 2906 331 
L 2906 616 
Q 2728 306 2450 153 
Q 2172 0 1784 0 
Q 1141 0 747 490 
Q 353 981 353 1791 
Q 353 2603 747 3093 
Q 1141 3584 1784 3584 
Q 2172 3584 2450 3431 
Q 2728 3278 2906 2969 
L 2906 3500 
L 3481 3500 
L 3481 434 
z
" transform="scale(0.015625)"/>
       <path id="DejaVuSans-74" d="M 1172 4494 
L 1172 3500 
L 2356 3500 
L 2356 3053 
L 1172 3053 
L 1172 1153 
Q 1172 725 1289 603 
Q 1406 481 1766 481 
L 2356 481 
L 2356 0 
L 1766 0 
Q 1100 0 847 248 
Q 594 497 594 1153 
L 594 3053 
L 172 3053 
L 172 3500 
L 594 3500 
L 594 4494 
L 1172 4494 
z
" transform="scale(0.015625)"/>
      </defs>
      <use xlink:href="#DejaVuSans-54"/>
      <use xlink:href="#DejaVuSans-61" transform="translate(44.583984 0)"/>
      <use xlink:href="#DejaVuSans-72" transform="translate(105.863281 0)"/>
      <use xlink:href="#DejaVuSans-67" transform="translate(145.226562 0)"/>
      <use xlink:href="#DejaVuSans-65" transform="translate(208.703125 0)"/>
      <use xlink:href="#DejaVuSans-74" transform="translate(270.226562 0)"/>
      <use xlink:href="#DejaVuSans-3a" transform="translate(309.435547 0)"/>
      <use xlink:href="#DejaVuSans-20" transform="translate(343.126953 0)"/>
      <use xlink:href="#DejaVuSans-53" transform="translate(374.914062 0)"/>
      <use xlink:href="#DejaVuSans-61" transform="translate(438.390625 0)"/>
      <use xlink:href="#DejaVuSans-6d" transform="translate(499.669922 0)"/>
      <use xlink:href="#DejaVuSans-70" transform="translate(597.082031 0)"/>
      <use xlink:href="#DejaVuSans-6c" transform="translate(660.558594 0)"/>
      <use xlink:href="#DejaVuSans-65" transform="translate(688.341797 0)"/>
      <use xlink:href="#DejaVuSans-20" transform="translate(749.865234 0)"/>
      <use xlink:href="#DejaVuSans-31" transform="translate(781.652344 0)"/>
     </g>
    </g>
   </g>
  </g>
 </g>
 <defs>
  <clipPath id="pe724d67157">
   <rect x="57.6" y="41.472" width="357.12" height="266.112"/>
  </clipPath>
 </defs>
</svg>
