<?xml version="1.0" encoding="utf-8" standalone="no"?>
<!DOCTYPE svg PUBLIC "-//W3C//DTD SVG 1.1//EN"
  "http://www.w3.org/Graphics/SVG/1.1/DTD/svg11.dtd">
<svg xmlns:xlink="http://www.w3.org/1999/xlink" width="460.8pt" height="345.6pt" viewBox="0 0 460.8 345.6" xmlns="http://www.w3.org/2000/svg" version="1.1">
 <metadata>
  <rdf:RDF xmlns:dc="http://purl.org/dc/elements/1.1/" xmlns:cc="http://creativecommons.org/ns#" xmlns:rdf="http://www.w3.org/1999/02/22-rdf-syntax-ns#">
   <cc:Work>
    <dc:type rdf:resource="http://purl.org/dc/dcmitype/StillImage"/>
    <dc:date>2025-04-16T06:27:18.131006</dc:date>
    <dc:format>image/svg+xml</dc:format>
    <dc:creator>
     <cc:Agent>
      <dc:title>Matplotlib v3.10.0, https://matplotlib.org/</dc:title>
     </cc:Agent>
    </dc:creator>
   </cc:Work>
  </rdf:RDF>
 </metadata>
 <defs>
  <style type="text/css">*{stroke-linejoin: round; stroke-linecap: butt}</style>
 </defs>
 <g id="figure_1">
  <g id="patch_1">
   <path d="M 0 345.6 
L 460.8 345.6 
L 460.8 0 
L 0 0 
z
" style="fill: #ffffff"/>
  </g>
  <g id="axes_1">
   <g id="patch_2">
    <path d="M 57.6 307.584 
L 414.72 307.584 
L 414.72 41.472 
L 57.6 41.472 
z
" style="fill: #ffffff"/>
   </g>
   <g id="matplotlib.axis_1">
    <g id="xtick_1">
     <g id="line2d_1">
      <path d="M 72.552477 307.584 
L 72.552477 41.472 
" clip-path="url(#p31603d9172)" style="fill: none; stroke: #b0b0b0; stroke-opacity: 0.5; stroke-width: 0.8; stroke-linecap: square"/>
     </g>
     <g id="line2d_2">
      <defs>
       <path id="md588ef8b97" d="M 0 0 
L 0 3.5 
" style="stroke: #000000; stroke-width: 0.8"/>
      </defs>
      <g>
       <use xlink:href="#md588ef8b97" x="72.552477" y="307.584" style="stroke: #000000; stroke-width: 0.8"/>
      </g>
     </g>
     <g id="text_1">
      <!-- −0.8 -->
      <g transform="translate(60.411071 322.182437) scale(0.1 -0.1)">
       <defs>
        <path id="DejaVuSans-2212" d="M 678 2272 
L 4684 2272 
L 4684 1741 
L 678 1741 
L 678 2272 
z
" transform="scale(0.015625)"/>
        <path id="DejaVuSans-30" d="M 2034 4250 
Q 1547 4250 1301 3770 
Q 1056 3291 1056 2328 
Q 1056 1369 1301 889 
Q 1547 409 2034 409 
Q 2525 409 2770 889 
Q 3016 1369 3016 2328 
Q 3016 3291 2770 3770 
Q 2525 4250 2034 4250 
z
M 2034 4750 
Q 2819 4750 3233 4129 
Q 3647 3509 3647 2328 
Q 3647 1150 3233 529 
Q 2819 -91 2034 -91 
Q 1250 -91 836 529 
Q 422 1150 422 2328 
Q 422 3509 836 4129 
Q 1250 4750 2034 4750 
z
" transform="scale(0.015625)"/>
        <path id="DejaVuSans-2e" d="M 684 794 
L 1344 794 
L 1344 0 
L 684 0 
L 684 794 
z
" transform="scale(0.015625)"/>
        <path id="DejaVuSans-38" d="M 2034 2216 
Q 1584 2216 1326 1975 
Q 1069 1734 1069 1313 
Q 1069 891 1326 650 
Q 1584 409 2034 409 
Q 2484 409 2743 651 
Q 3003 894 3003 1313 
Q 3003 1734 2745 1975 
Q 2488 2216 2034 2216 
z
M 1403 2484 
Q 997 2584 770 2862 
Q 544 3141 544 3541 
Q 544 4100 942 4425 
Q 1341 4750 2034 4750 
Q 2731 4750 3128 4425 
Q 3525 4100 3525 3541 
Q 3525 3141 3298 2862 
Q 3072 2584 2669 2484 
Q 3125 2378 3379 2068 
Q 3634 1759 3634 1313 
Q 3634 634 3220 271 
Q 2806 -91 2034 -91 
Q 1263 -91 848 271 
Q 434 634 434 1313 
Q 434 1759 690 2068 
Q 947 2378 1403 2484 
z
M 1172 3481 
Q 1172 3119 1398 2916 
Q 1625 2713 2034 2713 
Q 2441 2713 2670 2916 
Q 2900 3119 2900 3481 
Q 2900 3844 2670 4047 
Q 2441 4250 2034 4250 
Q 1625 4250 1398 4047 
Q 1172 3844 1172 3481 
z
" transform="scale(0.015625)"/>
       </defs>
       <use xlink:href="#DejaVuSans-2212"/>
       <use xlink:href="#DejaVuSans-30" transform="translate(83.789062 0)"/>
       <use xlink:href="#DejaVuSans-2e" transform="translate(147.412109 0)"/>
       <use xlink:href="#DejaVuSans-38" transform="translate(179.199219 0)"/>
      </g>
     </g>
    </g>
    <g id="xtick_2">
     <g id="line2d_3">
      <path d="M 115.42787 307.584 
L 115.42787 41.472 
" clip-path="url(#p31603d9172)" style="fill: none; stroke: #b0b0b0; stroke-opacity: 0.5; stroke-width: 0.8; stroke-linecap: square"/>
     </g>
     <g id="line2d_4">
      <g>
       <use xlink:href="#md588ef8b97" x="115.42787" y="307.584" style="stroke: #000000; stroke-width: 0.8"/>
      </g>
     </g>
     <g id="text_2">
      <!-- −0.6 -->
      <g transform="translate(103.286464 322.182437) scale(0.1 -0.1)">
       <defs>
        <path id="DejaVuSans-36" d="M 2113 2584 
Q 1688 2584 1439 2293 
Q 1191 2003 1191 1497 
Q 1191 994 1439 701 
Q 1688 409 2113 409 
Q 2538 409 2786 701 
Q 3034 994 3034 1497 
Q 3034 2003 2786 2293 
Q 2538 2584 2113 2584 
z
M 3366 4563 
L 3366 3988 
Q 3128 4100 2886 4159 
Q 2644 4219 2406 4219 
Q 1781 4219 1451 3797 
Q 1122 3375 1075 2522 
Q 1259 2794 1537 2939 
Q 1816 3084 2150 3084 
Q 2853 3084 3261 2657 
Q 3669 2231 3669 1497 
Q 3669 778 3244 343 
Q 2819 -91 2113 -91 
Q 1303 -91 875 529 
Q 447 1150 447 2328 
Q 447 3434 972 4092 
Q 1497 4750 2381 4750 
Q 2619 4750 2861 4703 
Q 3103 4656 3366 4563 
z
" transform="scale(0.015625)"/>
       </defs>
       <use xlink:href="#DejaVuSans-2212"/>
       <use xlink:href="#DejaVuSans-30" transform="translate(83.789062 0)"/>
       <use xlink:href="#DejaVuSans-2e" transform="translate(147.412109 0)"/>
       <use xlink:href="#DejaVuSans-36" transform="translate(179.199219 0)"/>
      </g>
     </g>
    </g>
    <g id="xtick_3">
     <g id="line2d_5">
      <path d="M 158.303263 307.584 
L 158.303263 41.472 
" clip-path="url(#p31603d9172)" style="fill: none; stroke: #b0b0b0; stroke-opacity: 0.5; stroke-width: 0.8; stroke-linecap: square"/>
     </g>
     <g id="line2d_6">
      <g>
       <use xlink:href="#md588ef8b97" x="158.303263" y="307.584" style="stroke: #000000; stroke-width: 0.8"/>
      </g>
     </g>
     <g id="text_3">
      <!-- −0.4 -->
      <g transform="translate(146.161857 322.182437) scale(0.1 -0.1)">
       <defs>
        <path id="DejaVuSans-34" d="M 2419 4116 
L 825 1625 
L 2419 1625 
L 2419 4116 
z
M 2253 4666 
L 3047 4666 
L 3047 1625 
L 3713 1625 
L 3713 1100 
L 3047 1100 
L 3047 0 
L 2419 0 
L 2419 1100 
L 313 1100 
L 313 1709 
L 2253 4666 
z
" transform="scale(0.015625)"/>
       </defs>
       <use xlink:href="#DejaVuSans-2212"/>
       <use xlink:href="#DejaVuSans-30" transform="translate(83.789062 0)"/>
       <use xlink:href="#DejaVuSans-2e" transform="translate(147.412109 0)"/>
       <use xlink:href="#DejaVuSans-34" transform="translate(179.199219 0)"/>
      </g>
     </g>
    </g>
    <g id="xtick_4">
     <g id="line2d_7">
      <path d="M 201.178656 307.584 
L 201.178656 41.472 
" clip-path="url(#p31603d9172)" style="fill: none; stroke: #b0b0b0; stroke-opacity: 0.5; stroke-width: 0.8; stroke-linecap: square"/>
     </g>
     <g id="line2d_8">
      <g>
       <use xlink:href="#md588ef8b97" x="201.178656" y="307.584" style="stroke: #000000; stroke-width: 0.8"/>
      </g>
     </g>
     <g id="text_4">
      <!-- −0.2 -->
      <g transform="translate(189.03725 322.182437) scale(0.1 -0.1)">
       <defs>
        <path id="DejaVuSans-32" d="M 1228 531 
L 3431 531 
L 3431 0 
L 469 0 
L 469 531 
Q 828 903 1448 1529 
Q 2069 2156 2228 2338 
Q 2531 2678 2651 2914 
Q 2772 3150 2772 3378 
Q 2772 3750 2511 3984 
Q 2250 4219 1831 4219 
Q 1534 4219 1204 4116 
Q 875 4013 500 3803 
L 500 4441 
Q 881 4594 1212 4672 
Q 1544 4750 1819 4750 
Q 2544 4750 2975 4387 
Q 3406 4025 3406 3419 
Q 3406 3131 3298 2873 
Q 3191 2616 2906 2266 
Q 2828 2175 2409 1742 
Q 1991 1309 1228 531 
z
" transform="scale(0.015625)"/>
       </defs>
       <use xlink:href="#DejaVuSans-2212"/>
       <use xlink:href="#DejaVuSans-30" transform="translate(83.789062 0)"/>
       <use xlink:href="#DejaVuSans-2e" transform="translate(147.412109 0)"/>
       <use xlink:href="#DejaVuSans-32" transform="translate(179.199219 0)"/>
      </g>
     </g>
    </g>
    <g id="xtick_5">
     <g id="line2d_9">
      <path d="M 244.054049 307.584 
L 244.054049 41.472 
" clip-path="url(#p31603d9172)" style="fill: none; stroke: #b0b0b0; stroke-opacity: 0.5; stroke-width: 0.8; stroke-linecap: square"/>
     </g>
     <g id="line2d_10">
      <g>
       <use xlink:href="#md588ef8b97" x="244.054049" y="307.584" style="stroke: #000000; stroke-width: 0.8"/>
      </g>
     </g>
     <g id="text_5">
      <!-- 0.0 -->
      <g transform="translate(236.102486 322.182437) scale(0.1 -0.1)">
       <use xlink:href="#DejaVuSans-30"/>
       <use xlink:href="#DejaVuSans-2e" transform="translate(63.623047 0)"/>
       <use xlink:href="#DejaVuSans-30" transform="translate(95.410156 0)"/>
      </g>
     </g>
    </g>
    <g id="xtick_6">
     <g id="line2d_11">
      <path d="M 286.929441 307.584 
L 286.929441 41.472 
" clip-path="url(#p31603d9172)" style="fill: none; stroke: #b0b0b0; stroke-opacity: 0.5; stroke-width: 0.8; stroke-linecap: square"/>
     </g>
     <g id="line2d_12">
      <g>
       <use xlink:href="#md588ef8b97" x="286.929441" y="307.584" style="stroke: #000000; stroke-width: 0.8"/>
      </g>
     </g>
     <g id="text_6">
      <!-- 0.2 -->
      <g transform="translate(278.977879 322.182437) scale(0.1 -0.1)">
       <use xlink:href="#DejaVuSans-30"/>
       <use xlink:href="#DejaVuSans-2e" transform="translate(63.623047 0)"/>
       <use xlink:href="#DejaVuSans-32" transform="translate(95.410156 0)"/>
      </g>
     </g>
    </g>
    <g id="xtick_7">
     <g id="line2d_13">
      <path d="M 329.804834 307.584 
L 329.804834 41.472 
" clip-path="url(#p31603d9172)" style="fill: none; stroke: #b0b0b0; stroke-opacity: 0.5; stroke-width: 0.8; stroke-linecap: square"/>
     </g>
     <g id="line2d_14">
      <g>
       <use xlink:href="#md588ef8b97" x="329.804834" y="307.584" style="stroke: #000000; stroke-width: 0.8"/>
      </g>
     </g>
     <g id="text_7">
      <!-- 0.4 -->
      <g transform="translate(321.853272 322.182437) scale(0.1 -0.1)">
       <use xlink:href="#DejaVuSans-30"/>
       <use xlink:href="#DejaVuSans-2e" transform="translate(63.623047 0)"/>
       <use xlink:href="#DejaVuSans-34" transform="translate(95.410156 0)"/>
      </g>
     </g>
    </g>
    <g id="xtick_8">
     <g id="line2d_15">
      <path d="M 372.680227 307.584 
L 372.680227 41.472 
" clip-path="url(#p31603d9172)" style="fill: none; stroke: #b0b0b0; stroke-opacity: 0.5; stroke-width: 0.8; stroke-linecap: square"/>
     </g>
     <g id="line2d_16">
      <g>
       <use xlink:href="#md588ef8b97" x="372.680227" y="307.584" style="stroke: #000000; stroke-width: 0.8"/>
      </g>
     </g>
     <g id="text_8">
      <!-- 0.6 -->
      <g transform="translate(364.728665 322.182437) scale(0.1 -0.1)">
       <use xlink:href="#DejaVuSans-30"/>
       <use xlink:href="#DejaVuSans-2e" transform="translate(63.623047 0)"/>
       <use xlink:href="#DejaVuSans-36" transform="translate(95.410156 0)"/>
      </g>
     </g>
    </g>
    <g id="text_9">
     <!-- Index -->
     <g transform="translate(222.393594 335.860562) scale(0.1 -0.1)">
      <defs>
       <path id="DejaVuSans-49" d="M 628 4666 
L 1259 4666 
L 1259 0 
L 628 0 
L 628 4666 
z
" transform="scale(0.015625)"/>
       <path id="DejaVuSans-6e" d="M 3513 2113 
L 3513 0 
L 2938 0 
L 2938 2094 
Q 2938 2591 2744 2837 
Q 2550 3084 2163 3084 
Q 1697 3084 1428 2787 
Q 1159 2491 1159 1978 
L 1159 0 
L 581 0 
L 581 3500 
L 1159 3500 
L 1159 2956 
Q 1366 3272 1645 3428 
Q 1925 3584 2291 3584 
Q 2894 3584 3203 3211 
Q 3513 2838 3513 2113 
z
" transform="scale(0.015625)"/>
       <path id="DejaVuSans-64" d="M 2906 2969 
L 2906 4863 
L 3481 4863 
L 3481 0 
L 2906 0 
L 2906 525 
Q 2725 213 2448 61 
Q 2172 -91 1784 -91 
Q 1150 -91 751 415 
Q 353 922 353 1747 
Q 353 2572 751 3078 
Q 1150 3584 1784 3584 
Q 2172 3584 2448 3432 
Q 2725 3281 2906 2969 
z
M 947 1747 
Q 947 1113 1208 752 
Q 1469 391 1925 391 
Q 2381 391 2643 752 
Q 2906 1113 2906 1747 
Q 2906 2381 2643 2742 
Q 2381 3103 1925 3103 
Q 1469 3103 1208 2742 
Q 947 2381 947 1747 
z
" transform="scale(0.015625)"/>
       <path id="DejaVuSans-65" d="M 3597 1894 
L 3597 1613 
L 953 1613 
Q 991 1019 1311 708 
Q 1631 397 2203 397 
Q 2534 397 2845 478 
Q 3156 559 3463 722 
L 3463 178 
Q 3153 47 2828 -22 
Q 2503 -91 2169 -91 
Q 1331 -91 842 396 
Q 353 884 353 1716 
Q 353 2575 817 3079 
Q 1281 3584 2069 3584 
Q 2775 3584 3186 3129 
Q 3597 2675 3597 1894 
z
M 3022 2063 
Q 3016 2534 2758 2815 
Q 2500 3097 2075 3097 
Q 1594 3097 1305 2825 
Q 1016 2553 972 2059 
L 3022 2063 
z
" transform="scale(0.015625)"/>
       <path id="DejaVuSans-78" d="M 3513 3500 
L 2247 1797 
L 3578 0 
L 2900 0 
L 1881 1375 
L 863 0 
L 184 0 
L 1544 1831 
L 300 3500 
L 978 3500 
L 1906 2253 
L 2834 3500 
L 3513 3500 
z
" transform="scale(0.015625)"/>
      </defs>
      <use xlink:href="#DejaVuSans-49"/>
      <use xlink:href="#DejaVuSans-6e" transform="translate(29.492188 0)"/>
      <use xlink:href="#DejaVuSans-64" transform="translate(92.871094 0)"/>
      <use xlink:href="#DejaVuSans-65" transform="translate(156.347656 0)"/>
      <use xlink:href="#DejaVuSans-78" transform="translate(216.121094 0)"/>
     </g>
    </g>
   </g>
   <g id="matplotlib.axis_2">
    <g id="ytick_1">
     <g id="line2d_17">
      <path d="M 57.6 279.381494 
L 414.72 279.381494 
" clip-path="url(#p31603d9172)" style="fill: none; stroke: #b0b0b0; stroke-opacity: 0.5; stroke-width: 0.8; stroke-linecap: square"/>
     </g>
     <g id="line2d_18">
      <defs>
       <path id="me1278b09ca" d="M 0 0 
L -3.5 0 
" style="stroke: #000000; stroke-width: 0.8"/>
      </defs>
      <g>
       <use xlink:href="#me1278b09ca" x="57.6" y="279.381494" style="stroke: #000000; stroke-width: 0.8"/>
      </g>
     </g>
     <g id="text_10">
      <!-- −0.6 -->
      <g transform="translate(26.317187 283.180713) scale(0.1 -0.1)">
       <use xlink:href="#DejaVuSans-2212"/>
       <use xlink:href="#DejaVuSans-30" transform="translate(83.789062 0)"/>
       <use xlink:href="#DejaVuSans-2e" transform="translate(147.412109 0)"/>
       <use xlink:href="#DejaVuSans-36" transform="translate(179.199219 0)"/>
      </g>
     </g>
    </g>
    <g id="ytick_2">
     <g id="line2d_19">
      <path d="M 57.6 243.960765 
L 414.72 243.960765 
" clip-path="url(#p31603d9172)" style="fill: none; stroke: #b0b0b0; stroke-opacity: 0.5; stroke-width: 0.8; stroke-linecap: square"/>
     </g>
     <g id="line2d_20">
      <g>
       <use xlink:href="#me1278b09ca" x="57.6" y="243.960765" style="stroke: #000000; stroke-width: 0.8"/>
      </g>
     </g>
     <g id="text_11">
      <!-- −0.4 -->
      <g transform="translate(26.317187 247.759984) scale(0.1 -0.1)">
       <use xlink:href="#DejaVuSans-2212"/>
       <use xlink:href="#DejaVuSans-30" transform="translate(83.789062 0)"/>
       <use xlink:href="#DejaVuSans-2e" transform="translate(147.412109 0)"/>
       <use xlink:href="#DejaVuSans-34" transform="translate(179.199219 0)"/>
      </g>
     </g>
    </g>
    <g id="ytick_3">
     <g id="line2d_21">
      <path d="M 57.6 208.540036 
L 414.72 208.540036 
" clip-path="url(#p31603d9172)" style="fill: none; stroke: #b0b0b0; stroke-opacity: 0.5; stroke-width: 0.8; stroke-linecap: square"/>
     </g>
     <g id="line2d_22">
      <g>
       <use xlink:href="#me1278b09ca" x="57.6" y="208.540036" style="stroke: #000000; stroke-width: 0.8"/>
      </g>
     </g>
     <g id="text_12">
      <!-- −0.2 -->
      <g transform="translate(26.317187 212.339255) scale(0.1 -0.1)">
       <use xlink:href="#DejaVuSans-2212"/>
       <use xlink:href="#DejaVuSans-30" transform="translate(83.789062 0)"/>
       <use xlink:href="#DejaVuSans-2e" transform="translate(147.412109 0)"/>
       <use xlink:href="#DejaVuSans-32" transform="translate(179.199219 0)"/>
      </g>
     </g>
    </g>
    <g id="ytick_4">
     <g id="line2d_23">
      <path d="M 57.6 173.119307 
L 414.72 173.119307 
" clip-path="url(#p31603d9172)" style="fill: none; stroke: #b0b0b0; stroke-opacity: 0.5; stroke-width: 0.8; stroke-linecap: square"/>
     </g>
     <g id="line2d_24">
      <g>
       <use xlink:href="#me1278b09ca" x="57.6" y="173.119307" style="stroke: #000000; stroke-width: 0.8"/>
      </g>
     </g>
     <g id="text_13">
      <!-- 0.0 -->
      <g transform="translate(34.696875 176.918526) scale(0.1 -0.1)">
       <use xlink:href="#DejaVuSans-30"/>
       <use xlink:href="#DejaVuSans-2e" transform="translate(63.623047 0)"/>
       <use xlink:href="#DejaVuSans-30" transform="translate(95.410156 0)"/>
      </g>
     </g>
    </g>
    <g id="ytick_5">
     <g id="line2d_25">
      <path d="M 57.6 137.698578 
L 414.72 137.698578 
" clip-path="url(#p31603d9172)" style="fill: none; stroke: #b0b0b0; stroke-opacity: 0.5; stroke-width: 0.8; stroke-linecap: square"/>
     </g>
     <g id="line2d_26">
      <g>
       <use xlink:href="#me1278b09ca" x="57.6" y="137.698578" style="stroke: #000000; stroke-width: 0.8"/>
      </g>
     </g>
     <g id="text_14">
      <!-- 0.2 -->
      <g transform="translate(34.696875 141.497797) scale(0.1 -0.1)">
       <use xlink:href="#DejaVuSans-30"/>
       <use xlink:href="#DejaVuSans-2e" transform="translate(63.623047 0)"/>
       <use xlink:href="#DejaVuSans-32" transform="translate(95.410156 0)"/>
      </g>
     </g>
    </g>
    <g id="ytick_6">
     <g id="line2d_27">
      <path d="M 57.6 102.277849 
L 414.72 102.277849 
" clip-path="url(#p31603d9172)" style="fill: none; stroke: #b0b0b0; stroke-opacity: 0.5; stroke-width: 0.8; stroke-linecap: square"/>
     </g>
     <g id="line2d_28">
      <g>
       <use xlink:href="#me1278b09ca" x="57.6" y="102.277849" style="stroke: #000000; stroke-width: 0.8"/>
      </g>
     </g>
     <g id="text_15">
      <!-- 0.4 -->
      <g transform="translate(34.696875 106.077068) scale(0.1 -0.1)">
       <use xlink:href="#DejaVuSans-30"/>
       <use xlink:href="#DejaVuSans-2e" transform="translate(63.623047 0)"/>
       <use xlink:href="#DejaVuSans-34" transform="translate(95.410156 0)"/>
      </g>
     </g>
    </g>
    <g id="ytick_7">
     <g id="line2d_29">
      <path d="M 57.6 66.85712 
L 414.72 66.85712 
" clip-path="url(#p31603d9172)" style="fill: none; stroke: #b0b0b0; stroke-opacity: 0.5; stroke-width: 0.8; stroke-linecap: square"/>
     </g>
     <g id="line2d_30">
      <g>
       <use xlink:href="#me1278b09ca" x="57.6" y="66.85712" style="stroke: #000000; stroke-width: 0.8"/>
      </g>
     </g>
     <g id="text_16">
      <!-- 0.6 -->
      <g transform="translate(34.696875 70.656339) scale(0.1 -0.1)">
       <use xlink:href="#DejaVuSans-30"/>
       <use xlink:href="#DejaVuSans-2e" transform="translate(63.623047 0)"/>
       <use xlink:href="#DejaVuSans-36" transform="translate(95.410156 0)"/>
      </g>
     </g>
    </g>
    <g id="text_17">
     <!-- Value -->
     <g transform="translate(20.2375 188.25925) rotate(-90) scale(0.1 -0.1)">
      <defs>
       <path id="DejaVuSans-56" d="M 1831 0 
L 50 4666 
L 709 4666 
L 2188 738 
L 3669 4666 
L 4325 4666 
L 2547 0 
L 1831 0 
z
" transform="scale(0.015625)"/>
       <path id="DejaVuSans-61" d="M 2194 1759 
Q 1497 1759 1228 1600 
Q 959 1441 959 1056 
Q 959 750 1161 570 
Q 1363 391 1709 391 
Q 2188 391 2477 730 
Q 2766 1069 2766 1631 
L 2766 1759 
L 2194 1759 
z
M 3341 1997 
L 3341 0 
L 2766 0 
L 2766 531 
Q 2569 213 2275 61 
Q 1981 -91 1556 -91 
Q 1019 -91 701 211 
Q 384 513 384 1019 
Q 384 1609 779 1909 
Q 1175 2209 1959 2209 
L 2766 2209 
L 2766 2266 
Q 2766 2663 2505 2880 
Q 2244 3097 1772 3097 
Q 1472 3097 1187 3025 
Q 903 2953 641 2809 
L 641 3341 
Q 956 3463 1253 3523 
Q 1550 3584 1831 3584 
Q 2591 3584 2966 3190 
Q 3341 2797 3341 1997 
z
" transform="scale(0.015625)"/>
       <path id="DejaVuSans-6c" d="M 603 4863 
L 1178 4863 
L 1178 0 
L 603 0 
L 603 4863 
z
" transform="scale(0.015625)"/>
       <path id="DejaVuSans-75" d="M 544 1381 
L 544 3500 
L 1119 3500 
L 1119 1403 
Q 1119 906 1312 657 
Q 1506 409 1894 409 
Q 2359 409 2629 706 
Q 2900 1003 2900 1516 
L 2900 3500 
L 3475 3500 
L 3475 0 
L 2900 0 
L 2900 538 
Q 2691 219 2414 64 
Q 2138 -91 1772 -91 
Q 1169 -91 856 284 
Q 544 659 544 1381 
z
M 1991 3584 
L 1991 3584 
z
" transform="scale(0.015625)"/>
      </defs>
      <use xlink:href="#DejaVuSans-56"/>
      <use xlink:href="#DejaVuSans-61" transform="translate(60.658203 0)"/>
      <use xlink:href="#DejaVuSans-6c" transform="translate(121.9375 0)"/>
      <use xlink:href="#DejaVuSans-75" transform="translate(149.720703 0)"/>
      <use xlink:href="#DejaVuSans-65" transform="translate(213.099609 0)"/>
     </g>
    </g>
   </g>
   <g id="line2d_31">
    <path d="M 237.317566 173.589778 
L 232.10446 173.295402 
L 244.215631 172.70752 
L 247.814152 172.414375 
L 249.190321 172.12169 
L 248.841447 171.829189 
L 247.877351 171.53652 
L 247.351568 171.243372 
L 247.658096 170.949595 
L 250.059599 170.065859 
L 250.29284 169.771487 
L 250.523736 169.184207 
L 251.402776 168.597841 
L 252.431918 168.009999 
L 253.065068 167.41985 
L 253.986307 166.53419 
L 257.10569 164.170915 
L 258.55514 162.985228 
L 260.562006 161.501185 
L 262.320042 160.01069 
L 264.323457 158.519919 
L 266.091652 157.025958 
L 268.433489 155.233995 
L 269.84235 154.039505 
L 272.216963 152.252001 
L 273.588187 151.06023 
L 276.312121 148.981846 
L 277.733307 147.79554 
L 279.734263 146.317313 
L 281.461958 144.839414 
L 283.784928 143.072514 
L 285.154108 141.896939 
L 287.505286 140.141699 
L 288.839832 138.972093 
L 291.514551 136.934841 
L 292.908073 135.772501 
L 294.873417 134.323288 
L 296.574866 132.872628 
L 298.8835 131.133418 
L 299.517148 130.551616 
L 303.13711 130.224994 
L 299.465921 129.935126 
L 298.67448 129.645519 
L 299.666572 129.35587 
L 302.685016 128.775319 
L 303.168818 128.484168 
L 302.855582 127.60927 
L 303.269776 127.318046 
L 304.968357 126.446093 
L 309.311897 122.94097 
L 310.361778 122.059649 
L 311.740126 120.885261 
L 313.763027 119.418234 
L 315.861338 117.65262 
L 317.487008 116.476976 
L 319.552032 114.709895 
L 321.537047 113.241586 
L 323.250565 111.772674 
L 325.238577 110.308197 
L 326.926219 108.844559 
L 329.24926 107.094615 
L 330.571411 105.929353 
L 332.941833 104.188678 
L 334.208681 103.02814 
L 336.621819 101.296791 
L 337.838303 100.140075 
L 340.836955 97.839309 
L 341.843633 96.977991 
L 344.205468 95.259305 
L 345.075129 94.397571 
L 346.328644 93.542012 
L 347.552399 92.683059 
L 349.461731 90.960678 
L 351.2003 89.81656 
L 353.058444 88.089513 
L 356.711839 87.768304 
L 353.213158 87.482347 
L 352.549502 87.195487 
L 353.563987 86.907234 
L 356.2105 86.327752 
L 356.51331 86.037736 
L 356.166148 85.460438 
L 356.353816 85.173521 
L 358.970045 83.734663 
L 359.584201 82.862447 
L 360.340484 82.285572 
L 362.570745 80.843933 
L 364.3748 79.102888 
L 366.272645 77.949085 
L 366.760862 77.364324 
L 367.18271 76.781696 
L 367.960166 76.206098 
L 369.968936 75.055377 
L 370.458162 74.471165 
L 370.811725 73.888357 
L 371.523887 73.313731 
L 373.651132 72.1687 
L 374.15964 71.586008 
L 374.417191 71.003992 
L 375.059394 70.431297 
L 377.681462 69.004437 
L 377.941287 68.421386 
L 378.205022 67.844141 
L 378.553756 67.56037 
L 379.752971 66.998769 
L 381.02226 66.432556 
L 381.411039 66.14454 
L 381.589776 65.853802 
L 381.700675 64.985343 
L 381.987321 64.702912 
L 383.244535 64.146505 
L 384.717746 63.585865 
L 385.180905 63.299191 
L 385.36695 63.008515 
L 385.19298 62.424662 
L 385.14721 62.137386 
L 385.340411 61.855662 
L 385.848101 61.5791 
L 389.019132 60.466677 
L 389.236036 60.175643 
L 389.098994 59.881325 
L 388.5072 59.299478 
L 388.540767 59.018736 
L 389.021074 58.745563 
L 391.132092 58.20765 
L 393.110463 57.647612 
L 393.36703 57.353115 
L 393.024532 57.052802 
L 391.560214 56.461761 
L 391.226188 56.183436 
L 391.650145 55.91857 
L 392.937617 55.661822 
L 398.36688 54.839695 
L 398.487273 54.528424 
L 396.804454 54.212055 
L 393.235878 53.918529 
L 388.036834 53.688066 
L 381.801965 53.568 
L 375.485331 53.605189 
L 370.228199 53.838735 
L 367.121006 54.293179 
L 366.683811 54.97492 
L 368.519083 55.872165 
L 371.508834 56.957817 
L 374.360853 58.195226 
L 376.25843 59.543875 
L 377.026622 60.964603 
L 376.96488 62.42292 
L 376.348552 65.338722 
L 376.466108 66.748925 
L 376.944665 68.099622 
L 377.533328 69.37326 
L 377.723897 70.557792 
L 376.876316 71.650179 
L 374.388926 72.660038 
L 369.995884 73.610951 
L 350.563681 76.49841 
L 345.793411 77.604298 
L 343.675135 78.819422 
L 344.479553 80.135717 
L 332.829835 81.70004 
L 355.013418 83.114297 
L 366.094011 84.498373 
L 367.677188 85.809764 
L 362.471525 87.023548 
L 347.98447 89.177102 
L 336.854025 91.191442 
L 331.893 92.257101 
L 328.04381 93.403821 
L 326.444424 94.638326 
L 327.634586 95.94541 
L 331.020515 97.293205 
L 335.172477 98.64167 
L 338.38795 99.953415 
L 339.363667 101.202467 
L 337.516934 102.380327 
L 333.161695 103.49645 
L 321.23073 105.645645 
L 316.185237 106.739473 
L 312.968839 107.877474 
L 311.790285 109.068297 
L 312.307859 110.306862 
L 315.302773 112.858327 
L 316.19928 114.128164 
L 315.99532 115.370634 
L 314.542618 116.577878 
L 312.001516 117.751004 
L 302.139542 121.170411 
L 299.592026 122.319933 
L 297.78723 123.489613 
L 296.641356 124.68154 
L 295.933079 125.893138 
L 294.838565 128.349545 
L 294.10235 129.578508 
L 293.130152 130.798438 
L 291.899881 132.004595 
L 290.397792 133.195028 
L 288.620148 134.370725 
L 284.339826 136.695044 
L 279.756055 139.026333 
L 277.76253 140.209459 
L 276.17191 141.407759 
L 275.040666 142.619614 
L 274.310558 143.840093 
L 273.270082 146.278134 
L 272.443431 147.482142 
L 271.125459 148.671235 
L 269.239516 149.846486 
L 264.280351 152.176549 
L 261.760538 153.345808 
L 259.621089 154.525995 
L 258.043259 155.719498 
L 257.034977 156.924851 
L 255.268521 160.557849 
L 254.158853 161.755538 
L 252.517504 162.94245 
L 250.413118 164.120837 
L 245.731903 166.471069 
L 243.696582 167.652579 
L 242.099726 168.84193 
L 240.936966 170.038566 
L 238.241035 173.640168 
L 236.912763 174.833726 
L 235.226373 176.021927 
L 229.359513 179.574254 
L 227.7178 180.761668 
L 226.365295 181.951912 
L 222.921118 185.524527 
L 221.48104 186.711202 
L 217.940716 189.079561 
L 214.357637 191.452111 
L 212.886362 192.642149 
L 210.588896 195.023981 
L 209.500555 196.211358 
L 208.232454 197.394204 
L 206.683368 198.572566 
L 202.861899 200.923601 
L 199.123064 203.28482 
L 197.680987 204.472622 
L 196.565767 205.663482 
L 194.745861 208.041446 
L 193.626826 209.222547 
L 192.15198 210.396956 
L 190.300417 211.566296 
L 184.070985 215.079544 
L 182.488229 216.261957 
L 181.330842 217.449989 
L 178.857949 221.011023 
L 177.584622 222.185664 
L 175.852519 223.353222 
L 167.485741 228.026911 
L 166.158849 229.211332 
L 165.261696 230.400773 
L 163.859747 232.776931 
L 162.802909 233.955906 
L 161.266889 235.127169 
L 159.270712 236.292848 
L 154.707565 238.625003 
L 152.732337 239.799533 
L 151.232363 240.981938 
L 150.224036 242.170339 
L 148.858166 244.548836 
L 147.928813 245.730576 
L 146.521568 246.904922 
L 144.596602 248.073636 
L 137.926704 251.587161 
L 136.358413 252.771746 
L 135.338203 253.962396 
L 123.367007 255.303703 
L 135.15157 256.491925 
L 139.778165 257.672267 
L 138.059492 258.843773 
L 132.104842 260.008845 
L 125.569936 261.172771 
L 121.237806 262.341364 
L 119.82773 263.519161 
L 120.377932 264.707325 
L 121.33686 265.902994 
L 121.565047 267.10012 
L 120.736275 268.291429 
L 119.106254 269.471169 
L 114.795693 271.79368 
L 107.564752 275.277406 
L 105.736265 276.465506 
L 104.728041 277.666633 
L 104.570937 278.872172 
L 104.914585 280.070765 
L 105.09336 281.2525 
L 104.382987 282.413028 
L 102.314583 283.555926 
L 98.895815 284.692649 
L 90.853326 287.008447 
L 88.364441 288.2074 
L 88.103428 289.427179 
L 90.345074 290.642662 
L 94.762458 291.813556 
L 100.590748 292.889686 
L 114.478087 295.08887 
L 114.066614 295.3933 
L 110.68186 295.488 
L 105.508806 295.400384 
L 100.294684 295.165255 
L 96.528627 294.817945 
L 94.976845 294.38816 
L 95.387678 293.898775 
L 96.764468 293.367091 
L 97.79237 292.809174 
L 97.367455 292.244597 
L 95.02388 291.699359 
L 91.119668 291.205065 
L 82.311299 290.315262 
L 84.775012 290.247121 
L 115.250559 290.185325 
L 119.171856 289.950017 
L 118.541856 289.567608 
L 113.496031 289.058588 
L 96.045278 287.874003 
L 82.723002 286.90164 
L 82.211824 286.607565 
L 86.739071 286.443997 
L 120.939136 286.123215 
L 122.498853 285.856154 
L 119.617777 285.468667 
L 93.589654 283.466631 
L 91.730373 283.091506 
L 93.597666 282.816939 
L 98.716951 282.628395 
L 118.026295 282.205461 
L 120.596396 281.981733 
L 120.209392 281.680332 
L 117.439024 281.306294 
L 105.51738 279.99836 
L 103.543712 279.601542 
L 103.479873 279.259067 
L 105.259932 278.973533 
L 112.22655 278.523458 
L 118.532835 278.090232 
L 119.963623 277.829536 
L 120.069807 277.526077 
L 119.065838 277.18166 
L 112.419036 275.662169 
L 112.127075 275.324782 
L 112.833806 275.021502 
L 114.453298 274.748635 
L 122.908997 273.718234 
L 123.541578 273.414226 
L 123.247815 273.081991 
L 122.199826 272.727809 
L 119.361198 271.999664 
L 118.419418 271.650771 
L 118.257114 271.323919 
L 118.981951 271.021494 
L 122.470474 270.470725 
L 126.152798 269.92669 
L 127.118562 269.633893 
L 127.297069 269.32183 
L 126.799115 268.992614 
L 124.356154 267.972157 
L 124.259081 267.646709 
L 124.754977 267.335913 
L 127.102526 266.750741 
L 129.587884 266.179313 
L 130.334801 265.885122 
L 130.645789 265.581547 
L 130.624526 265.268693 
L 130.092073 264.304204 
L 130.21566 263.986262 
L 130.571166 263.674432 
L 131.797828 263.069689 
L 133.776237 262.18585 
L 134.294916 261.888682 
L 138.101761 261.549664 
L 134.524049 261.243719 
L 133.341943 260.934011 
L 133.798253 260.621891 
L 136.447143 259.998183 
L 137.019291 259.690665 
L 136.965266 259.387686 
L 136.729725 259.089616 
L 136.830734 258.795304 
L 137.434437 258.502992 
L 140.100883 257.615205 
L 140.408344 257.311076 
L 140.391841 257.003431 
L 140.156403 256.386205 
L 140.258294 256.081537 
L 140.594933 255.781704 
L 141.860529 255.195386 
L 143.964385 254.319533 
L 144.361975 254.020608 
L 144.562849 253.717576 
L 144.617966 252.803008 
L 144.828852 252.503244 
L 145.875768 251.915586 
L 147.966769 251.041004 
L 148.648411 250.444014 
L 149.221543 249.231867 
L 150.153298 248.635363 
L 151.839989 247.746969 
L 152.581041 247.1481 
L 153.764974 245.933894 
L 159.616238 241.363001 
L 160.06071 240.747174 
L 160.840179 240.14025 
L 163.513716 238.625488 
L 163.940548 238.005116 
L 164.251395 237.385473 
L 164.98349 236.775398 
L 167.738372 235.26384 
L 168.223554 234.646561 
L 168.608991 234.027398 
L 169.332691 233.41394 
L 171.808389 231.893409 
L 174.238502 229.741327 
L 175.481009 228.822283 
L 177.29399 227.295809 
L 178.99197 226.076336 
L 181.033808 224.253776 
L 182.880951 223.050269 
L 183.754126 222.14127 
L 184.360448 221.538315 
L 185.717911 220.642801 
L 187.026811 219.746564 
L 188.975224 217.949134 
L 189.439361 217.652093 
L 193.258658 217.318031 
L 189.710552 217.020687 
L 188.756723 216.722741 
L 189.494593 216.424259 
L 192.441188 215.827132 
L 193.04744 215.529291 
L 193.000577 215.232232 
L 192.782235 214.935848 
L 192.827022 214.639807 
L 193.269743 214.34369 
L 195.086474 213.45234 
L 195.482466 212.857253 
L 195.679398 212.560637 
L 196.475645 211.969928 
L 197.971606 211.084727 
L 198.918708 210.192528 
L 199.857229 209.300294 
L 203.059145 206.924252 
L 204.023899 206.026692 
L 206.884396 203.933115 
L 207.864835 203.02928 
L 211.335021 200.313434 
L 212.538702 199.406865 
L 214.170448 198.195467 
L 215.918089 196.678985 
L 218.006797 195.165953 
L 219.720851 193.650473 
L 222.18381 191.837839 
L 223.521761 190.627082 
L 226.325524 188.518122 
L 227.342502 187.613657 
L 230.432943 185.210063 
L 231.523655 184.311522 
L 233.569825 182.818883 
L 235.267945 181.328025 
L 237.654301 179.550414 
L 238.99719 178.367329 
L 241.715163 176.306798 
L 242.723304 175.423725 
L 244.775544 173.957547 
L 248.452393 173.626573 
L 248.452393 173.626573 
" clip-path="url(#p31603d9172)" style="fill: none; stroke: #1f77b4; stroke-width: 1.5; stroke-linecap: square"/>
   </g>
   <g id="line2d_32">
    <path d="M 244.860746 173.589778 
L 246.359281 172.414375 
L 248.415573 170.949595 
L 250.207051 169.477611 
L 252.588104 167.715149 
L 254.425508 166.239659 
L 256.335892 164.764601 
L 257.744232 163.577362 
L 260.081001 161.799146 
L 261.861251 160.3083 
L 263.742689 158.818909 
L 265.466956 157.324082 
L 267.368924 155.832727 
L 269.028378 154.337307 
L 271.326292 152.550711 
L 272.693031 151.357283 
L 275.36432 149.279504 
L 276.82414 148.091227 
L 279.151349 146.317313 
L 280.617983 145.133966 
L 282.932517 143.367507 
L 284.374084 142.189818 
L 286.72145 140.434863 
L 288.138496 139.263595 
L 290.849042 137.226433 
L 292.344493 136.062266 
L 294.32417 134.613797 
L 296.102315 133.161945 
L 298.150217 131.714922 
L 300.332101 129.935126 
L 302.255668 128.484168 
L 303.658019 127.318046 
L 305.950974 125.571512 
L 307.281201 124.400697 
L 309.916086 122.353877 
L 311.268974 121.178169 
L 313.524765 119.418234 
L 314.869111 118.239508 
L 317.111224 116.476976 
L 318.410138 115.296988 
L 321.013883 113.241586 
L 322.411526 112.065356 
L 324.340549 110.601844 
L 326.073559 109.135968 
L 328.072375 107.67955 
L 329.78358 106.219427 
L 331.85084 104.7707 
L 333.524158 103.317005 
L 335.958181 101.586622 
L 337.26399 100.42809 
L 340.0159 98.416722 
L 340.978502 97.551293 
L 344.025881 95.259305 
L 345.056339 94.397571 
L 347.152433 92.970346 
L 348.677458 91.531916 
L 351.167537 89.81656 
L 352.316689 88.662387 
L 355.088488 86.617826 
L 355.94021 85.748517 
L 358.668897 83.734663 
L 359.448806 82.862447 
L 360.796002 81.998591 
L 361.675656 81.423901 
L 362.231467 80.843933 
L 362.909128 79.968507 
L 363.732585 79.390059 
L 365.190488 78.52862 
L 365.783662 77.949085 
L 366.387646 77.072255 
L 367.181074 76.493068 
L 369.117905 75.345324 
L 369.554818 74.76373 
L 369.908113 74.17898 
L 370.667591 73.599983 
L 372.777395 72.457264 
L 373.224952 71.878024 
L 373.481468 71.294182 
L 373.745753 71.003992 
L 374.730146 70.431297 
L 376.4634 69.580763 
L 376.944473 69.004437 
L 377.101833 68.421386 
L 377.310968 68.131312 
L 377.707248 67.844141 
L 380.621265 66.432556 
L 380.772159 66.14454 
L 380.872273 65.272092 
L 381.206849 64.985343 
L 382.558606 64.423922 
L 384.061666 63.867948 
L 384.505952 63.585865 
L 384.659517 63.299191 
L 384.397047 62.424662 
L 384.634178 62.137386 
L 385.213361 61.855662 
L 388.52606 60.751726 
L 388.69681 60.466677 
L 388.503009 60.175643 
L 387.838112 59.587852 
L 387.890374 59.299478 
L 388.435018 59.018736 
L 390.727059 58.476876 
L 392.754395 57.932355 
L 392.937144 57.647612 
L 392.477524 57.353115 
L 390.752794 56.753228 
L 390.396087 56.461761 
L 390.910077 56.183436 
L 392.395286 55.91857 
L 398.446051 55.131711 
L 398.436583 54.839695 
L 396.243582 54.528424 
L 391.678537 54.212055 
L 385.067131 53.918529 
L 377.205525 53.688066 
L 369.188489 53.568 
L 362.156614 53.605189 
L 357.033369 53.838735 
L 354.327234 54.293179 
L 354.053315 54.97492 
L 355.792434 55.872165 
L 366.276031 59.543875 
L 369.783043 60.964603 
L 382.61166 66.748925 
L 385.324796 68.099622 
L 386.951163 69.37326 
L 386.747611 70.557792 
L 384.118988 71.650179 
L 378.871873 72.660038 
L 371.384314 73.610951 
L 353.982833 75.487337 
L 346.979733 76.49841 
L 342.869568 77.604298 
L 342.305546 78.819422 
L 345.132336 80.135717 
L 351.138979 81.70004 
L 357.242069 83.114297 
L 362.222663 84.498373 
L 364.592676 85.809764 
L 363.519693 87.023548 
L 359.028555 88.138589 
L 351.977053 89.177102 
L 336.194118 91.191442 
L 330.541562 92.257101 
L 327.706532 93.403821 
L 327.778036 94.638326 
L 330.111351 95.94541 
L 336.743503 98.64167 
L 338.550784 99.953415 
L 338.280954 101.202467 
L 335.849915 102.380327 
L 331.738752 103.49645 
L 322.035345 105.645645 
L 318.235196 106.739473 
L 315.872116 107.877474 
L 314.976024 109.068297 
L 315.190404 110.306862 
L 315.916998 111.577411 
L 316.506115 112.858327 
L 316.433952 114.128164 
L 315.419978 115.370634 
L 313.461636 116.577878 
L 310.789957 117.751004 
L 304.795498 120.03383 
L 302.173238 121.170411 
L 300.084102 122.319933 
L 298.562354 123.489613 
L 297.523009 124.68154 
L 296.807056 125.893138 
L 295.610435 128.349545 
L 294.806838 129.578508 
L 293.712388 130.798438 
L 292.267711 132.004595 
L 290.464572 133.195028 
L 286.035931 135.535438 
L 281.448608 137.856474 
L 279.527447 139.026333 
L 278.021163 140.209459 
L 276.944574 141.407759 
L 276.201321 142.619614 
L 274.895848 145.062113 
L 273.865885 146.278134 
L 272.366796 147.482142 
L 270.385627 148.671235 
L 261.336102 153.345808 
L 259.896583 154.525995 
L 258.927671 155.719498 
L 256.860583 159.350382 
L 255.673597 160.557849 
L 254.038247 161.755538 
L 249.820604 164.120837 
L 245.674289 166.471069 
L 244.032061 167.652579 
L 242.704388 168.84193 
L 239.350965 172.441435 
L 237.995161 173.640168 
L 234.770466 176.021927 
L 231.485618 178.389647 
L 228.686607 180.761668 
L 226.0227 183.143706 
L 222.855023 185.524527 
L 217.693364 189.079561 
L 216.272231 190.264613 
L 214.004106 192.642149 
L 212.9302 193.833495 
L 211.688882 195.023981 
L 210.167987 196.211358 
L 208.349062 197.394204 
L 202.373133 200.923601 
L 200.809209 202.101863 
L 199.625222 203.28482 
L 197.101862 206.854248 
L 195.893565 208.041446 
L 194.252859 209.222547 
L 192.216955 210.396956 
L 187.725383 212.733967 
L 185.766671 213.903969 
L 184.238222 215.079544 
L 183.152544 216.261957 
L 180.735394 219.828591 
L 179.421242 221.011023 
L 177.653482 222.185664 
L 169.350152 226.850148 
L 167.992402 228.026911 
L 167.000642 229.211332 
L 165.270027 231.590831 
L 164.054361 232.776931 
L 162.424985 233.955906 
L 158.251824 236.292848 
L 156.144614 237.45726 
L 154.334841 238.625003 
L 152.938189 239.799533 
L 151.913602 240.981938 
L 150.162511 243.360857 
L 148.932495 244.548836 
L 147.258793 245.730576 
L 142.901216 248.073636 
L 140.70725 249.240528 
L 138.874624 250.410514 
L 137.557475 251.587161 
L 136.724307 252.771746 
L 135.432708 255.303703 
L 134.350819 256.491925 
L 132.666659 257.672267 
L 130.414599 258.843773 
L 125.336024 261.172771 
L 123.279696 262.341364 
L 121.920387 263.519161 
L 121.264742 264.707325 
L 120.877726 267.10012 
L 120.243139 268.291429 
L 118.822036 269.471169 
L 116.544753 270.637565 
L 108.060009 274.105425 
L 106.389802 275.277406 
L 105.784361 276.465506 
L 106.024291 277.666633 
L 106.552029 278.872172 
L 106.641066 280.070765 
L 105.643996 281.2525 
L 103.238512 282.413028 
L 99.591506 283.555926 
L 95.375309 284.692649 
L 91.620598 285.838778 
L 89.440784 287.008447 
L 89.70498 288.2074 
L 92.761214 289.427179 
L 98.296124 290.642662 
L 105.382344 291.813556 
L 118.895087 293.820194 
L 122.896411 294.562211 
L 124.212122 295.08887 
L 122.999107 295.3933 
L 119.957681 295.488 
L 116.063462 295.400384 
L 112.229592 295.165255 
L 109.01095 294.817945 
L 104.111751 293.898775 
L 101.31064 293.367091 
L 97.432085 292.809174 
L 92.259479 292.244597 
L 73.832727 290.494347 
L 75.805795 290.315262 
L 81.648754 290.247121 
L 117.092258 290.185325 
L 119.438708 289.950017 
L 116.908692 289.567608 
L 110.146915 289.058588 
L 83.688612 287.332702 
L 80.015462 286.90164 
L 81.034778 286.607565 
L 86.419727 286.443997 
L 117.51104 286.123215 
L 118.817883 285.856154 
L 116.291368 285.468667 
L 94.05979 283.466631 
L 92.864127 283.091506 
L 94.678022 282.816939 
L 104.307023 282.49221 
L 113.743359 282.205461 
L 115.820695 281.981733 
L 115.691396 281.680332 
L 113.703569 281.306294 
L 104.762771 279.99836 
L 103.515511 279.601542 
L 103.851684 279.259067 
L 105.646002 278.973533 
L 116.765912 278.090232 
L 117.80051 277.829536 
L 117.662266 277.526077 
L 116.550043 277.18166 
L 111.665423 276.029788 
L 111.016487 275.662169 
L 111.30671 275.324782 
L 112.508034 275.021502 
L 116.592478 274.496004 
L 120.274547 273.994374 
L 121.119189 273.718234 
L 121.143735 273.414226 
L 120.47245 273.081991 
L 117.465091 271.999664 
L 117.257233 271.650771 
L 117.753832 271.323919 
L 118.888302 271.021494 
L 124.535836 269.92669 
L 124.945239 269.633893 
L 124.805692 269.32183 
L 122.768045 267.972157 
L 122.936521 267.646709 
L 123.538997 267.335913 
L 125.61853 266.750741 
L 127.765019 266.179313 
L 128.513214 265.885122 
L 128.964094 265.581547 
L 129.13473 265.268693 
L 129.091247 264.949051 
L 128.686712 263.986262 
L 128.787683 263.674432 
L 129.11426 263.369157 
L 130.436922 262.774168 
L 133.030189 261.888682 
L 133.694331 261.549664 
L 134.007849 261.243719 
L 134.067649 260.934011 
L 133.688032 259.998183 
L 133.824665 259.690665 
L 134.257605 259.387686 
L 135.922177 258.795304 
L 137.831139 258.210248 
L 138.494706 257.914848 
L 138.840813 257.615205 
L 138.88123 257.311076 
L 138.383181 256.386205 
L 138.522977 256.081537 
L 138.971493 255.781704 
L 140.611154 255.195386 
L 142.369714 254.614146 
L 142.963719 254.319533 
L 143.295202 254.020608 
L 143.403002 253.717576 
L 143.4532 252.803008 
L 143.721165 252.503244 
L 144.786845 251.915586 
L 146.71995 251.041004 
L 147.575473 250.444014 
L 149.531617 248.635363 
L 151.674247 247.1481 
L 154.19086 245.629458 
L 154.684961 245.020962 
L 155.032825 244.413437 
L 155.719143 243.807843 
L 157.568362 242.900369 
L 158.65273 242.289867 
L 159.152044 241.672646 
L 159.528953 240.747174 
L 160.330272 240.14025 
L 162.668256 238.932521 
L 163.24832 238.31597 
L 163.704771 237.385473 
L 164.413246 236.775398 
L 166.914014 235.26384 
L 169.288103 233.109768 
L 170.926794 231.893409 
L 175.703286 227.904971 
L 177.777006 226.381885 
L 179.286531 224.856847 
L 182.144134 222.747496 
L 183.101196 221.839135 
L 184.920872 220.642801 
L 186.062166 219.746564 
L 187.461124 218.545406 
L 189.994757 216.722741 
L 190.959326 215.827132 
L 192.302347 214.935848 
L 193.616419 214.047116 
L 195.665065 212.264913 
L 197.882759 210.788116 
L 199.576142 209.300294 
L 202.538594 207.223976 
L 203.992574 206.026692 
L 206.40444 204.234318 
L 208.308246 202.728661 
L 209.81888 201.524681 
L 211.649516 200.010954 
L 213.198979 198.802219 
L 215.249091 196.981327 
L 217.214522 195.469482 
L 218.863262 193.952403 
L 221.22441 192.141137 
L 222.579563 190.928805 
L 225.316985 188.82027 
L 226.777576 187.613657 
L 228.773463 186.112705 
L 230.590714 184.610337 
L 232.560945 183.117922 
L 234.306626 181.624816 
L 236.695477 179.847193 
L 238.111931 178.662049 
L 240.54262 176.896898 
L 241.971088 175.717503 
L 244.819518 173.626573 
L 244.819518 173.626573 
" clip-path="url(#p31603d9172)" style="fill: none; stroke: #ff7f0e; stroke-opacity: 0.7; stroke-width: 1.5; stroke-linecap: square"/>
   </g>
   <g id="patch_3">
    <path d="M 57.6 307.584 
L 57.6 41.472 
" style="fill: none; stroke: #000000; stroke-width: 0.8; stroke-linejoin: miter; stroke-linecap: square"/>
   </g>
   <g id="patch_4">
    <path d="M 414.72 307.584 
L 414.72 41.472 
" style="fill: none; stroke: #000000; stroke-width: 0.8; stroke-linejoin: miter; stroke-linecap: square"/>
   </g>
   <g id="patch_5">
    <path d="M 57.6 307.584 
L 414.72 307.584 
" style="fill: none; stroke: #000000; stroke-width: 0.8; stroke-linejoin: miter; stroke-linecap: square"/>
   </g>
   <g id="patch_6">
    <path d="M 57.6 41.472 
L 414.72 41.472 
" style="fill: none; stroke: #000000; stroke-width: 0.8; stroke-linejoin: miter; stroke-linecap: square"/>
   </g>
   <g id="text_18">
    <!-- Best Model - Predicted vs Target -->
    <g transform="translate(139.75125 35.472) scale(0.12 -0.12)">
     <defs>
      <path id="DejaVuSans-42" d="M 1259 2228 
L 1259 519 
L 2272 519 
Q 2781 519 3026 730 
Q 3272 941 3272 1375 
Q 3272 1813 3026 2020 
Q 2781 2228 2272 2228 
L 1259 2228 
z
M 1259 4147 
L 1259 2741 
L 2194 2741 
Q 2656 2741 2882 2914 
Q 3109 3088 3109 3444 
Q 3109 3797 2882 3972 
Q 2656 4147 2194 4147 
L 1259 4147 
z
M 628 4666 
L 2241 4666 
Q 2963 4666 3353 4366 
Q 3744 4066 3744 3513 
Q 3744 3084 3544 2831 
Q 3344 2578 2956 2516 
Q 3422 2416 3680 2098 
Q 3938 1781 3938 1306 
Q 3938 681 3513 340 
Q 3088 0 2303 0 
L 628 0 
L 628 4666 
z
" transform="scale(0.015625)"/>
      <path id="DejaVuSans-73" d="M 2834 3397 
L 2834 2853 
Q 2591 2978 2328 3040 
Q 2066 3103 1784 3103 
Q 1356 3103 1142 2972 
Q 928 2841 928 2578 
Q 928 2378 1081 2264 
Q 1234 2150 1697 2047 
L 1894 2003 
Q 2506 1872 2764 1633 
Q 3022 1394 3022 966 
Q 3022 478 2636 193 
Q 2250 -91 1575 -91 
Q 1294 -91 989 -36 
Q 684 19 347 128 
L 347 722 
Q 666 556 975 473 
Q 1284 391 1588 391 
Q 1994 391 2212 530 
Q 2431 669 2431 922 
Q 2431 1156 2273 1281 
Q 2116 1406 1581 1522 
L 1381 1569 
Q 847 1681 609 1914 
Q 372 2147 372 2553 
Q 372 3047 722 3315 
Q 1072 3584 1716 3584 
Q 2034 3584 2315 3537 
Q 2597 3491 2834 3397 
z
" transform="scale(0.015625)"/>
      <path id="DejaVuSans-74" d="M 1172 4494 
L 1172 3500 
L 2356 3500 
L 2356 3053 
L 1172 3053 
L 1172 1153 
Q 1172 725 1289 603 
Q 1406 481 1766 481 
L 2356 481 
L 2356 0 
L 1766 0 
Q 1100 0 847 248 
Q 594 497 594 1153 
L 594 3053 
L 172 3053 
L 172 3500 
L 594 3500 
L 594 4494 
L 1172 4494 
z
" transform="scale(0.015625)"/>
      <path id="DejaVuSans-20" transform="scale(0.015625)"/>
      <path id="DejaVuSans-4d" d="M 628 4666 
L 1569 4666 
L 2759 1491 
L 3956 4666 
L 4897 4666 
L 4897 0 
L 4281 0 
L 4281 4097 
L 3078 897 
L 2444 897 
L 1241 4097 
L 1241 0 
L 628 0 
L 628 4666 
z
" transform="scale(0.015625)"/>
      <path id="DejaVuSans-6f" d="M 1959 3097 
Q 1497 3097 1228 2736 
Q 959 2375 959 1747 
Q 959 1119 1226 758 
Q 1494 397 1959 397 
Q 2419 397 2687 759 
Q 2956 1122 2956 1747 
Q 2956 2369 2687 2733 
Q 2419 3097 1959 3097 
z
M 1959 3584 
Q 2709 3584 3137 3096 
Q 3566 2609 3566 1747 
Q 3566 888 3137 398 
Q 2709 -91 1959 -91 
Q 1206 -91 779 398 
Q 353 888 353 1747 
Q 353 2609 779 3096 
Q 1206 3584 1959 3584 
z
" transform="scale(0.015625)"/>
      <path id="DejaVuSans-2d" d="M 313 2009 
L 1997 2009 
L 1997 1497 
L 313 1497 
L 313 2009 
z
" transform="scale(0.015625)"/>
      <path id="DejaVuSans-50" d="M 1259 4147 
L 1259 2394 
L 2053 2394 
Q 2494 2394 2734 2622 
Q 2975 2850 2975 3272 
Q 2975 3691 2734 3919 
Q 2494 4147 2053 4147 
L 1259 4147 
z
M 628 4666 
L 2053 4666 
Q 2838 4666 3239 4311 
Q 3641 3956 3641 3272 
Q 3641 2581 3239 2228 
Q 2838 1875 2053 1875 
L 1259 1875 
L 1259 0 
L 628 0 
L 628 4666 
z
" transform="scale(0.015625)"/>
      <path id="DejaVuSans-72" d="M 2631 2963 
Q 2534 3019 2420 3045 
Q 2306 3072 2169 3072 
Q 1681 3072 1420 2755 
Q 1159 2438 1159 1844 
L 1159 0 
L 581 0 
L 581 3500 
L 1159 3500 
L 1159 2956 
Q 1341 3275 1631 3429 
Q 1922 3584 2338 3584 
Q 2397 3584 2469 3576 
Q 2541 3569 2628 3553 
L 2631 2963 
z
" transform="scale(0.015625)"/>
      <path id="DejaVuSans-69" d="M 603 3500 
L 1178 3500 
L 1178 0 
L 603 0 
L 603 3500 
z
M 603 4863 
L 1178 4863 
L 1178 4134 
L 603 4134 
L 603 4863 
z
" transform="scale(0.015625)"/>
      <path id="DejaVuSans-63" d="M 3122 3366 
L 3122 2828 
Q 2878 2963 2633 3030 
Q 2388 3097 2138 3097 
Q 1578 3097 1268 2742 
Q 959 2388 959 1747 
Q 959 1106 1268 751 
Q 1578 397 2138 397 
Q 2388 397 2633 464 
Q 2878 531 3122 666 
L 3122 134 
Q 2881 22 2623 -34 
Q 2366 -91 2075 -91 
Q 1284 -91 818 406 
Q 353 903 353 1747 
Q 353 2603 823 3093 
Q 1294 3584 2113 3584 
Q 2378 3584 2631 3529 
Q 2884 3475 3122 3366 
z
" transform="scale(0.015625)"/>
      <path id="DejaVuSans-76" d="M 191 3500 
L 800 3500 
L 1894 563 
L 2988 3500 
L 3597 3500 
L 2284 0 
L 1503 0 
L 191 3500 
z
" transform="scale(0.015625)"/>
      <path id="DejaVuSans-54" d="M -19 4666 
L 3928 4666 
L 3928 4134 
L 2272 4134 
L 2272 0 
L 1638 0 
L 1638 4134 
L -19 4134 
L -19 4666 
z
" transform="scale(0.015625)"/>
      <path id="DejaVuSans-67" d="M 2906 1791 
Q 2906 2416 2648 2759 
Q 2391 3103 1925 3103 
Q 1463 3103 1205 2759 
Q 947 2416 947 1791 
Q 947 1169 1205 825 
Q 1463 481 1925 481 
Q 2391 481 2648 825 
Q 2906 1169 2906 1791 
z
M 3481 434 
Q 3481 -459 3084 -895 
Q 2688 -1331 1869 -1331 
Q 1566 -1331 1297 -1286 
Q 1028 -1241 775 -1147 
L 775 -588 
Q 1028 -725 1275 -790 
Q 1522 -856 1778 -856 
Q 2344 -856 2625 -561 
Q 2906 -266 2906 331 
L 2906 616 
Q 2728 306 2450 153 
Q 2172 0 1784 0 
Q 1141 0 747 490 
Q 353 981 353 1791 
Q 353 2603 747 3093 
Q 1141 3584 1784 3584 
Q 2172 3584 2450 3431 
Q 2728 3278 2906 2969 
L 2906 3500 
L 3481 3500 
L 3481 434 
z
" transform="scale(0.015625)"/>
     </defs>
     <use xlink:href="#DejaVuSans-42"/>
     <use xlink:href="#DejaVuSans-65" transform="translate(68.603516 0)"/>
     <use xlink:href="#DejaVuSans-73" transform="translate(130.126953 0)"/>
     <use xlink:href="#DejaVuSans-74" transform="translate(182.226562 0)"/>
     <use xlink:href="#DejaVuSans-20" transform="translate(221.435547 0)"/>
     <use xlink:href="#DejaVuSans-4d" transform="translate(253.222656 0)"/>
     <use xlink:href="#DejaVuSans-6f" transform="translate(339.501953 0)"/>
     <use xlink:href="#DejaVuSans-64" transform="translate(400.683594 0)"/>
     <use xlink:href="#DejaVuSans-65" transform="translate(464.160156 0)"/>
     <use xlink:href="#DejaVuSans-6c" transform="translate(525.683594 0)"/>
     <use xlink:href="#DejaVuSans-20" transform="translate(553.466797 0)"/>
     <use xlink:href="#DejaVuSans-2d" transform="translate(585.253906 0)"/>
     <use xlink:href="#DejaVuSans-20" transform="translate(621.337891 0)"/>
     <use xlink:href="#DejaVuSans-50" transform="translate(653.125 0)"/>
     <use xlink:href="#DejaVuSans-72" transform="translate(711.677734 0)"/>
     <use xlink:href="#DejaVuSans-65" transform="translate(750.541016 0)"/>
     <use xlink:href="#DejaVuSans-64" transform="translate(812.064453 0)"/>
     <use xlink:href="#DejaVuSans-69" transform="translate(875.541016 0)"/>
     <use xlink:href="#DejaVuSans-63" transform="translate(903.324219 0)"/>
     <use xlink:href="#DejaVuSans-74" transform="translate(958.304688 0)"/>
     <use xlink:href="#DejaVuSans-65" transform="translate(997.513672 0)"/>
     <use xlink:href="#DejaVuSans-64" transform="translate(1059.037109 0)"/>
     <use xlink:href="#DejaVuSans-20" transform="translate(1122.513672 0)"/>
     <use xlink:href="#DejaVuSans-76" transform="translate(1154.300781 0)"/>
     <use xlink:href="#DejaVuSans-73" transform="translate(1213.480469 0)"/>
     <use xlink:href="#DejaVuSans-20" transform="translate(1265.580078 0)"/>
     <use xlink:href="#DejaVuSans-54" transform="translate(1297.367188 0)"/>
     <use xlink:href="#DejaVuSans-61" transform="translate(1341.951172 0)"/>
     <use xlink:href="#DejaVuSans-72" transform="translate(1403.230469 0)"/>
     <use xlink:href="#DejaVuSans-67" transform="translate(1442.59375 0)"/>
     <use xlink:href="#DejaVuSans-65" transform="translate(1506.070312 0)"/>
     <use xlink:href="#DejaVuSans-74" transform="translate(1567.59375 0)"/>
    </g>
   </g>
   <g id="legend_1">
    <g id="patch_7">
     <path d="M 64.6 78.82825 
L 181.128125 78.82825 
Q 183.128125 78.82825 183.128125 76.82825 
L 183.128125 48.472 
Q 183.128125 46.472 181.128125 46.472 
L 64.6 46.472 
Q 62.6 46.472 62.6 48.472 
L 62.6 76.82825 
Q 62.6 78.82825 64.6 78.82825 
z
" style="fill: #ffffff; opacity: 0.8; stroke: #cccccc; stroke-linejoin: miter"/>
    </g>
    <g id="line2d_33">
     <path d="M 66.6 54.570437 
L 76.6 54.570437 
L 86.6 54.570437 
" style="fill: none; stroke: #1f77b4; stroke-width: 1.5; stroke-linecap: square"/>
    </g>
    <g id="text_19">
     <!-- Pred: Sample 1 -->
     <g transform="translate(94.6 58.070437) scale(0.1 -0.1)">
      <defs>
       <path id="DejaVuSans-3a" d="M 750 794 
L 1409 794 
L 1409 0 
L 750 0 
L 750 794 
z
M 750 3309 
L 1409 3309 
L 1409 2516 
L 750 2516 
L 750 3309 
z
" transform="scale(0.015625)"/>
       <path id="DejaVuSans-53" d="M 3425 4513 
L 3425 3897 
Q 3066 4069 2747 4153 
Q 2428 4238 2131 4238 
Q 1616 4238 1336 4038 
Q 1056 3838 1056 3469 
Q 1056 3159 1242 3001 
Q 1428 2844 1947 2747 
L 2328 2669 
Q 3034 2534 3370 2195 
Q 3706 1856 3706 1288 
Q 3706 609 3251 259 
Q 2797 -91 1919 -91 
Q 1588 -91 1214 -16 
Q 841 59 441 206 
L 441 856 
Q 825 641 1194 531 
Q 1563 422 1919 422 
Q 2459 422 2753 634 
Q 3047 847 3047 1241 
Q 3047 1584 2836 1778 
Q 2625 1972 2144 2069 
L 1759 2144 
Q 1053 2284 737 2584 
Q 422 2884 422 3419 
Q 422 4038 858 4394 
Q 1294 4750 2059 4750 
Q 2388 4750 2728 4690 
Q 3069 4631 3425 4513 
z
" transform="scale(0.015625)"/>
       <path id="DejaVuSans-6d" d="M 3328 2828 
Q 3544 3216 3844 3400 
Q 4144 3584 4550 3584 
Q 5097 3584 5394 3201 
Q 5691 2819 5691 2113 
L 5691 0 
L 5113 0 
L 5113 2094 
Q 5113 2597 4934 2840 
Q 4756 3084 4391 3084 
Q 3944 3084 3684 2787 
Q 3425 2491 3425 1978 
L 3425 0 
L 2847 0 
L 2847 2094 
Q 2847 2600 2669 2842 
Q 2491 3084 2119 3084 
Q 1678 3084 1418 2786 
Q 1159 2488 1159 1978 
L 1159 0 
L 581 0 
L 581 3500 
L 1159 3500 
L 1159 2956 
Q 1356 3278 1631 3431 
Q 1906 3584 2284 3584 
Q 2666 3584 2933 3390 
Q 3200 3197 3328 2828 
z
" transform="scale(0.015625)"/>
       <path id="DejaVuSans-70" d="M 1159 525 
L 1159 -1331 
L 581 -1331 
L 581 3500 
L 1159 3500 
L 1159 2969 
Q 1341 3281 1617 3432 
Q 1894 3584 2278 3584 
Q 2916 3584 3314 3078 
Q 3713 2572 3713 1747 
Q 3713 922 3314 415 
Q 2916 -91 2278 -91 
Q 1894 -91 1617 61 
Q 1341 213 1159 525 
z
M 3116 1747 
Q 3116 2381 2855 2742 
Q 2594 3103 2138 3103 
Q 1681 3103 1420 2742 
Q 1159 2381 1159 1747 
Q 1159 1113 1420 752 
Q 1681 391 2138 391 
Q 2594 391 2855 752 
Q 3116 1113 3116 1747 
z
" transform="scale(0.015625)"/>
       <path id="DejaVuSans-31" d="M 794 531 
L 1825 531 
L 1825 4091 
L 703 3866 
L 703 4441 
L 1819 4666 
L 2450 4666 
L 2450 531 
L 3481 531 
L 3481 0 
L 794 0 
L 794 531 
z
" transform="scale(0.015625)"/>
      </defs>
      <use xlink:href="#DejaVuSans-50"/>
      <use xlink:href="#DejaVuSans-72" transform="translate(58.552734 0)"/>
      <use xlink:href="#DejaVuSans-65" transform="translate(97.416016 0)"/>
      <use xlink:href="#DejaVuSans-64" transform="translate(158.939453 0)"/>
      <use xlink:href="#DejaVuSans-3a" transform="translate(222.416016 0)"/>
      <use xlink:href="#DejaVuSans-20" transform="translate(256.107422 0)"/>
      <use xlink:href="#DejaVuSans-53" transform="translate(287.894531 0)"/>
      <use xlink:href="#DejaVuSans-61" transform="translate(351.371094 0)"/>
      <use xlink:href="#DejaVuSans-6d" transform="translate(412.650391 0)"/>
      <use xlink:href="#DejaVuSans-70" transform="translate(510.0625 0)"/>
      <use xlink:href="#DejaVuSans-6c" transform="translate(573.539062 0)"/>
      <use xlink:href="#DejaVuSans-65" transform="translate(601.322266 0)"/>
      <use xlink:href="#DejaVuSans-20" transform="translate(662.845703 0)"/>
      <use xlink:href="#DejaVuSans-31" transform="translate(694.632812 0)"/>
     </g>
    </g>
    <g id="line2d_34">
     <path d="M 66.6 69.248562 
L 76.6 69.248562 
L 86.6 69.248562 
" style="fill: none; stroke: #ff7f0e; stroke-opacity: 0.7; stroke-width: 1.5; stroke-linecap: square"/>
    </g>
    <g id="text_20">
     <!-- Target: Sample 1 -->
     <g transform="translate(94.6 72.748562) scale(0.1 -0.1)">
      <use xlink:href="#DejaVuSans-54"/>
      <use xlink:href="#DejaVuSans-61" transform="translate(44.583984 0)"/>
      <use xlink:href="#DejaVuSans-72" transform="translate(105.863281 0)"/>
      <use xlink:href="#DejaVuSans-67" transform="translate(145.226562 0)"/>
      <use xlink:href="#DejaVuSans-65" transform="translate(208.703125 0)"/>
      <use xlink:href="#DejaVuSans-74" transform="translate(270.226562 0)"/>
      <use xlink:href="#DejaVuSans-3a" transform="translate(309.435547 0)"/>
      <use xlink:href="#DejaVuSans-20" transform="translate(343.126953 0)"/>
      <use xlink:href="#DejaVuSans-53" transform="translate(374.914062 0)"/>
      <use xlink:href="#DejaVuSans-61" transform="translate(438.390625 0)"/>
      <use xlink:href="#DejaVuSans-6d" transform="translate(499.669922 0)"/>
      <use xlink:href="#DejaVuSans-70" transform="translate(597.082031 0)"/>
      <use xlink:href="#DejaVuSans-6c" transform="translate(660.558594 0)"/>
      <use xlink:href="#DejaVuSans-65" transform="translate(688.341797 0)"/>
      <use xlink:href="#DejaVuSans-20" transform="translate(749.865234 0)"/>
      <use xlink:href="#DejaVuSans-31" transform="translate(781.652344 0)"/>
     </g>
    </g>
   </g>
  </g>
 </g>
 <defs>
  <clipPath id="p31603d9172">
   <rect x="57.6" y="41.472" width="357.12" height="266.112"/>
  </clipPath>
 </defs>
</svg>
