<?xml version="1.0" encoding="utf-8" standalone="no"?>
<!DOCTYPE svg PUBLIC "-//W3C//DTD SVG 1.1//EN"
  "http://www.w3.org/Graphics/SVG/1.1/DTD/svg11.dtd">
<svg xmlns:xlink="http://www.w3.org/1999/xlink" width="460.8pt" height="345.6pt" viewBox="0 0 460.8 345.6" xmlns="http://www.w3.org/2000/svg" version="1.1">
 <metadata>
  <rdf:RDF xmlns:dc="http://purl.org/dc/elements/1.1/" xmlns:cc="http://creativecommons.org/ns#" xmlns:rdf="http://www.w3.org/1999/02/22-rdf-syntax-ns#">
   <cc:Work>
    <dc:type rdf:resource="http://purl.org/dc/dcmitype/StillImage"/>
    <dc:date>2025-04-16T04:34:14.051621</dc:date>
    <dc:format>image/svg+xml</dc:format>
    <dc:creator>
     <cc:Agent>
      <dc:title>Matplotlib v3.10.0, https://matplotlib.org/</dc:title>
     </cc:Agent>
    </dc:creator>
   </cc:Work>
  </rdf:RDF>
 </metadata>
 <defs>
  <style type="text/css">*{stroke-linejoin: round; stroke-linecap: butt}</style>
 </defs>
 <g id="figure_1">
  <g id="patch_1">
   <path d="M 0 345.6 
L 460.8 345.6 
L 460.8 0 
L 0 0 
z
" style="fill: #ffffff"/>
  </g>
  <g id="axes_1">
   <g id="patch_2">
    <path d="M 57.6 307.584 
L 414.72 307.584 
L 414.72 41.472 
L 57.6 41.472 
z
" style="fill: #ffffff"/>
   </g>
   <g id="matplotlib.axis_1">
    <g id="xtick_1">
     <g id="line2d_1">
      <path d="M 97.345112 307.584 
L 97.345112 41.472 
" clip-path="url(#p88c0ef0233)" style="fill: none; stroke: #b0b0b0; stroke-opacity: 0.5; stroke-width: 0.8; stroke-linecap: square"/>
     </g>
     <g id="line2d_2">
      <defs>
       <path id="m2d7e19b24e" d="M 0 0 
L 0 3.5 
" style="stroke: #000000; stroke-width: 0.8"/>
      </defs>
      <g>
       <use xlink:href="#m2d7e19b24e" x="97.345112" y="307.584" style="stroke: #000000; stroke-width: 0.8"/>
      </g>
     </g>
     <g id="text_1">
      <!-- −1.0 -->
      <g transform="translate(85.203706 322.182437) scale(0.1 -0.1)">
       <defs>
        <path id="DejaVuSans-2212" d="M 678 2272 
L 4684 2272 
L 4684 1741 
L 678 1741 
L 678 2272 
z
" transform="scale(0.015625)"/>
        <path id="DejaVuSans-31" d="M 794 531 
L 1825 531 
L 1825 4091 
L 703 3866 
L 703 4441 
L 1819 4666 
L 2450 4666 
L 2450 531 
L 3481 531 
L 3481 0 
L 794 0 
L 794 531 
z
" transform="scale(0.015625)"/>
        <path id="DejaVuSans-2e" d="M 684 794 
L 1344 794 
L 1344 0 
L 684 0 
L 684 794 
z
" transform="scale(0.015625)"/>
        <path id="DejaVuSans-30" d="M 2034 4250 
Q 1547 4250 1301 3770 
Q 1056 3291 1056 2328 
Q 1056 1369 1301 889 
Q 1547 409 2034 409 
Q 2525 409 2770 889 
Q 3016 1369 3016 2328 
Q 3016 3291 2770 3770 
Q 2525 4250 2034 4250 
z
M 2034 4750 
Q 2819 4750 3233 4129 
Q 3647 3509 3647 2328 
Q 3647 1150 3233 529 
Q 2819 -91 2034 -91 
Q 1250 -91 836 529 
Q 422 1150 422 2328 
Q 422 3509 836 4129 
Q 1250 4750 2034 4750 
z
" transform="scale(0.015625)"/>
       </defs>
       <use xlink:href="#DejaVuSans-2212"/>
       <use xlink:href="#DejaVuSans-31" transform="translate(83.789062 0)"/>
       <use xlink:href="#DejaVuSans-2e" transform="translate(147.412109 0)"/>
       <use xlink:href="#DejaVuSans-30" transform="translate(179.199219 0)"/>
      </g>
     </g>
    </g>
    <g id="xtick_2">
     <g id="line2d_3">
      <path d="M 166.619043 307.584 
L 166.619043 41.472 
" clip-path="url(#p88c0ef0233)" style="fill: none; stroke: #b0b0b0; stroke-opacity: 0.5; stroke-width: 0.8; stroke-linecap: square"/>
     </g>
     <g id="line2d_4">
      <g>
       <use xlink:href="#m2d7e19b24e" x="166.619043" y="307.584" style="stroke: #000000; stroke-width: 0.8"/>
      </g>
     </g>
     <g id="text_2">
      <!-- −0.5 -->
      <g transform="translate(154.477637 322.182437) scale(0.1 -0.1)">
       <defs>
        <path id="DejaVuSans-35" d="M 691 4666 
L 3169 4666 
L 3169 4134 
L 1269 4134 
L 1269 2991 
Q 1406 3038 1543 3061 
Q 1681 3084 1819 3084 
Q 2600 3084 3056 2656 
Q 3513 2228 3513 1497 
Q 3513 744 3044 326 
Q 2575 -91 1722 -91 
Q 1428 -91 1123 -41 
Q 819 9 494 109 
L 494 744 
Q 775 591 1075 516 
Q 1375 441 1709 441 
Q 2250 441 2565 725 
Q 2881 1009 2881 1497 
Q 2881 1984 2565 2268 
Q 2250 2553 1709 2553 
Q 1456 2553 1204 2497 
Q 953 2441 691 2322 
L 691 4666 
z
" transform="scale(0.015625)"/>
       </defs>
       <use xlink:href="#DejaVuSans-2212"/>
       <use xlink:href="#DejaVuSans-30" transform="translate(83.789062 0)"/>
       <use xlink:href="#DejaVuSans-2e" transform="translate(147.412109 0)"/>
       <use xlink:href="#DejaVuSans-35" transform="translate(179.199219 0)"/>
      </g>
     </g>
    </g>
    <g id="xtick_3">
     <g id="line2d_5">
      <path d="M 235.892974 307.584 
L 235.892974 41.472 
" clip-path="url(#p88c0ef0233)" style="fill: none; stroke: #b0b0b0; stroke-opacity: 0.5; stroke-width: 0.8; stroke-linecap: square"/>
     </g>
     <g id="line2d_6">
      <g>
       <use xlink:href="#m2d7e19b24e" x="235.892974" y="307.584" style="stroke: #000000; stroke-width: 0.8"/>
      </g>
     </g>
     <g id="text_3">
      <!-- 0.0 -->
      <g transform="translate(227.941412 322.182437) scale(0.1 -0.1)">
       <use xlink:href="#DejaVuSans-30"/>
       <use xlink:href="#DejaVuSans-2e" transform="translate(63.623047 0)"/>
       <use xlink:href="#DejaVuSans-30" transform="translate(95.410156 0)"/>
      </g>
     </g>
    </g>
    <g id="xtick_4">
     <g id="line2d_7">
      <path d="M 305.166905 307.584 
L 305.166905 41.472 
" clip-path="url(#p88c0ef0233)" style="fill: none; stroke: #b0b0b0; stroke-opacity: 0.5; stroke-width: 0.8; stroke-linecap: square"/>
     </g>
     <g id="line2d_8">
      <g>
       <use xlink:href="#m2d7e19b24e" x="305.166905" y="307.584" style="stroke: #000000; stroke-width: 0.8"/>
      </g>
     </g>
     <g id="text_4">
      <!-- 0.5 -->
      <g transform="translate(297.215343 322.182437) scale(0.1 -0.1)">
       <use xlink:href="#DejaVuSans-30"/>
       <use xlink:href="#DejaVuSans-2e" transform="translate(63.623047 0)"/>
       <use xlink:href="#DejaVuSans-35" transform="translate(95.410156 0)"/>
      </g>
     </g>
    </g>
    <g id="xtick_5">
     <g id="line2d_9">
      <path d="M 374.440836 307.584 
L 374.440836 41.472 
" clip-path="url(#p88c0ef0233)" style="fill: none; stroke: #b0b0b0; stroke-opacity: 0.5; stroke-width: 0.8; stroke-linecap: square"/>
     </g>
     <g id="line2d_10">
      <g>
       <use xlink:href="#m2d7e19b24e" x="374.440836" y="307.584" style="stroke: #000000; stroke-width: 0.8"/>
      </g>
     </g>
     <g id="text_5">
      <!-- 1.0 -->
      <g transform="translate(366.489274 322.182437) scale(0.1 -0.1)">
       <use xlink:href="#DejaVuSans-31"/>
       <use xlink:href="#DejaVuSans-2e" transform="translate(63.623047 0)"/>
       <use xlink:href="#DejaVuSans-30" transform="translate(95.410156 0)"/>
      </g>
     </g>
    </g>
    <g id="text_6">
     <!-- Index -->
     <g transform="translate(222.393594 335.860562) scale(0.1 -0.1)">
      <defs>
       <path id="DejaVuSans-49" d="M 628 4666 
L 1259 4666 
L 1259 0 
L 628 0 
L 628 4666 
z
" transform="scale(0.015625)"/>
       <path id="DejaVuSans-6e" d="M 3513 2113 
L 3513 0 
L 2938 0 
L 2938 2094 
Q 2938 2591 2744 2837 
Q 2550 3084 2163 3084 
Q 1697 3084 1428 2787 
Q 1159 2491 1159 1978 
L 1159 0 
L 581 0 
L 581 3500 
L 1159 3500 
L 1159 2956 
Q 1366 3272 1645 3428 
Q 1925 3584 2291 3584 
Q 2894 3584 3203 3211 
Q 3513 2838 3513 2113 
z
" transform="scale(0.015625)"/>
       <path id="DejaVuSans-64" d="M 2906 2969 
L 2906 4863 
L 3481 4863 
L 3481 0 
L 2906 0 
L 2906 525 
Q 2725 213 2448 61 
Q 2172 -91 1784 -91 
Q 1150 -91 751 415 
Q 353 922 353 1747 
Q 353 2572 751 3078 
Q 1150 3584 1784 3584 
Q 2172 3584 2448 3432 
Q 2725 3281 2906 2969 
z
M 947 1747 
Q 947 1113 1208 752 
Q 1469 391 1925 391 
Q 2381 391 2643 752 
Q 2906 1113 2906 1747 
Q 2906 2381 2643 2742 
Q 2381 3103 1925 3103 
Q 1469 3103 1208 2742 
Q 947 2381 947 1747 
z
" transform="scale(0.015625)"/>
       <path id="DejaVuSans-65" d="M 3597 1894 
L 3597 1613 
L 953 1613 
Q 991 1019 1311 708 
Q 1631 397 2203 397 
Q 2534 397 2845 478 
Q 3156 559 3463 722 
L 3463 178 
Q 3153 47 2828 -22 
Q 2503 -91 2169 -91 
Q 1331 -91 842 396 
Q 353 884 353 1716 
Q 353 2575 817 3079 
Q 1281 3584 2069 3584 
Q 2775 3584 3186 3129 
Q 3597 2675 3597 1894 
z
M 3022 2063 
Q 3016 2534 2758 2815 
Q 2500 3097 2075 3097 
Q 1594 3097 1305 2825 
Q 1016 2553 972 2059 
L 3022 2063 
z
" transform="scale(0.015625)"/>
       <path id="DejaVuSans-78" d="M 3513 3500 
L 2247 1797 
L 3578 0 
L 2900 0 
L 1881 1375 
L 863 0 
L 184 0 
L 1544 1831 
L 300 3500 
L 978 3500 
L 1906 2253 
L 2834 3500 
L 3513 3500 
z
" transform="scale(0.015625)"/>
      </defs>
      <use xlink:href="#DejaVuSans-49"/>
      <use xlink:href="#DejaVuSans-6e" transform="translate(29.492188 0)"/>
      <use xlink:href="#DejaVuSans-64" transform="translate(92.871094 0)"/>
      <use xlink:href="#DejaVuSans-65" transform="translate(156.347656 0)"/>
      <use xlink:href="#DejaVuSans-78" transform="translate(216.121094 0)"/>
     </g>
    </g>
   </g>
   <g id="matplotlib.axis_2">
    <g id="ytick_1">
     <g id="line2d_11">
      <path d="M 57.6 275.510055 
L 414.72 275.510055 
" clip-path="url(#p88c0ef0233)" style="fill: none; stroke: #b0b0b0; stroke-opacity: 0.5; stroke-width: 0.8; stroke-linecap: square"/>
     </g>
     <g id="line2d_12">
      <defs>
       <path id="m1e58b4142e" d="M 0 0 
L -3.5 0 
" style="stroke: #000000; stroke-width: 0.8"/>
      </defs>
      <g>
       <use xlink:href="#m1e58b4142e" x="57.6" y="275.510055" style="stroke: #000000; stroke-width: 0.8"/>
      </g>
     </g>
     <g id="text_7">
      <!-- −1.0 -->
      <g transform="translate(26.317187 279.309274) scale(0.1 -0.1)">
       <use xlink:href="#DejaVuSans-2212"/>
       <use xlink:href="#DejaVuSans-31" transform="translate(83.789062 0)"/>
       <use xlink:href="#DejaVuSans-2e" transform="translate(147.412109 0)"/>
       <use xlink:href="#DejaVuSans-30" transform="translate(179.199219 0)"/>
      </g>
     </g>
    </g>
    <g id="ytick_2">
     <g id="line2d_13">
      <path d="M 57.6 225.025611 
L 414.72 225.025611 
" clip-path="url(#p88c0ef0233)" style="fill: none; stroke: #b0b0b0; stroke-opacity: 0.5; stroke-width: 0.8; stroke-linecap: square"/>
     </g>
     <g id="line2d_14">
      <g>
       <use xlink:href="#m1e58b4142e" x="57.6" y="225.025611" style="stroke: #000000; stroke-width: 0.8"/>
      </g>
     </g>
     <g id="text_8">
      <!-- −0.5 -->
      <g transform="translate(26.317187 228.82483) scale(0.1 -0.1)">
       <use xlink:href="#DejaVuSans-2212"/>
       <use xlink:href="#DejaVuSans-30" transform="translate(83.789062 0)"/>
       <use xlink:href="#DejaVuSans-2e" transform="translate(147.412109 0)"/>
       <use xlink:href="#DejaVuSans-35" transform="translate(179.199219 0)"/>
      </g>
     </g>
    </g>
    <g id="ytick_3">
     <g id="line2d_15">
      <path d="M 57.6 174.541168 
L 414.72 174.541168 
" clip-path="url(#p88c0ef0233)" style="fill: none; stroke: #b0b0b0; stroke-opacity: 0.5; stroke-width: 0.8; stroke-linecap: square"/>
     </g>
     <g id="line2d_16">
      <g>
       <use xlink:href="#m1e58b4142e" x="57.6" y="174.541168" style="stroke: #000000; stroke-width: 0.8"/>
      </g>
     </g>
     <g id="text_9">
      <!-- 0.0 -->
      <g transform="translate(34.696875 178.340387) scale(0.1 -0.1)">
       <use xlink:href="#DejaVuSans-30"/>
       <use xlink:href="#DejaVuSans-2e" transform="translate(63.623047 0)"/>
       <use xlink:href="#DejaVuSans-30" transform="translate(95.410156 0)"/>
      </g>
     </g>
    </g>
    <g id="ytick_4">
     <g id="line2d_17">
      <path d="M 57.6 124.056724 
L 414.72 124.056724 
" clip-path="url(#p88c0ef0233)" style="fill: none; stroke: #b0b0b0; stroke-opacity: 0.5; stroke-width: 0.8; stroke-linecap: square"/>
     </g>
     <g id="line2d_18">
      <g>
       <use xlink:href="#m1e58b4142e" x="57.6" y="124.056724" style="stroke: #000000; stroke-width: 0.8"/>
      </g>
     </g>
     <g id="text_10">
      <!-- 0.5 -->
      <g transform="translate(34.696875 127.855943) scale(0.1 -0.1)">
       <use xlink:href="#DejaVuSans-30"/>
       <use xlink:href="#DejaVuSans-2e" transform="translate(63.623047 0)"/>
       <use xlink:href="#DejaVuSans-35" transform="translate(95.410156 0)"/>
      </g>
     </g>
    </g>
    <g id="ytick_5">
     <g id="line2d_19">
      <path d="M 57.6 73.572281 
L 414.72 73.572281 
" clip-path="url(#p88c0ef0233)" style="fill: none; stroke: #b0b0b0; stroke-opacity: 0.5; stroke-width: 0.8; stroke-linecap: square"/>
     </g>
     <g id="line2d_20">
      <g>
       <use xlink:href="#m1e58b4142e" x="57.6" y="73.572281" style="stroke: #000000; stroke-width: 0.8"/>
      </g>
     </g>
     <g id="text_11">
      <!-- 1.0 -->
      <g transform="translate(34.696875 77.371499) scale(0.1 -0.1)">
       <use xlink:href="#DejaVuSans-31"/>
       <use xlink:href="#DejaVuSans-2e" transform="translate(63.623047 0)"/>
       <use xlink:href="#DejaVuSans-30" transform="translate(95.410156 0)"/>
      </g>
     </g>
    </g>
    <g id="text_12">
     <!-- Value -->
     <g transform="translate(20.2375 188.25925) rotate(-90) scale(0.1 -0.1)">
      <defs>
       <path id="DejaVuSans-56" d="M 1831 0 
L 50 4666 
L 709 4666 
L 2188 738 
L 3669 4666 
L 4325 4666 
L 2547 0 
L 1831 0 
z
" transform="scale(0.015625)"/>
       <path id="DejaVuSans-61" d="M 2194 1759 
Q 1497 1759 1228 1600 
Q 959 1441 959 1056 
Q 959 750 1161 570 
Q 1363 391 1709 391 
Q 2188 391 2477 730 
Q 2766 1069 2766 1631 
L 2766 1759 
L 2194 1759 
z
M 3341 1997 
L 3341 0 
L 2766 0 
L 2766 531 
Q 2569 213 2275 61 
Q 1981 -91 1556 -91 
Q 1019 -91 701 211 
Q 384 513 384 1019 
Q 384 1609 779 1909 
Q 1175 2209 1959 2209 
L 2766 2209 
L 2766 2266 
Q 2766 2663 2505 2880 
Q 2244 3097 1772 3097 
Q 1472 3097 1187 3025 
Q 903 2953 641 2809 
L 641 3341 
Q 956 3463 1253 3523 
Q 1550 3584 1831 3584 
Q 2591 3584 2966 3190 
Q 3341 2797 3341 1997 
z
" transform="scale(0.015625)"/>
       <path id="DejaVuSans-6c" d="M 603 4863 
L 1178 4863 
L 1178 0 
L 603 0 
L 603 4863 
z
" transform="scale(0.015625)"/>
       <path id="DejaVuSans-75" d="M 544 1381 
L 544 3500 
L 1119 3500 
L 1119 1403 
Q 1119 906 1312 657 
Q 1506 409 1894 409 
Q 2359 409 2629 706 
Q 2900 1003 2900 1516 
L 2900 3500 
L 3475 3500 
L 3475 0 
L 2900 0 
L 2900 538 
Q 2691 219 2414 64 
Q 2138 -91 1772 -91 
Q 1169 -91 856 284 
Q 544 659 544 1381 
z
M 1991 3584 
L 1991 3584 
z
" transform="scale(0.015625)"/>
      </defs>
      <use xlink:href="#DejaVuSans-56"/>
      <use xlink:href="#DejaVuSans-61" transform="translate(60.658203 0)"/>
      <use xlink:href="#DejaVuSans-6c" transform="translate(121.9375 0)"/>
      <use xlink:href="#DejaVuSans-75" transform="translate(149.720703 0)"/>
      <use xlink:href="#DejaVuSans-65" transform="translate(213.099609 0)"/>
     </g>
    </g>
   </g>
   <g id="line2d_21">
    <path d="M 237.150042 177.476808 
L 237.845894 176.999573 
L 237.754742 176.522276 
L 238.182007 176.045229 
L 238.935311 175.568756 
L 241.004344 173.672084 
L 243.727707 171.780766 
L 249.930342 167.053046 
L 253.033442 164.695489 
L 256.114079 162.345221 
L 260.484998 159.067244 
L 267.941741 153.460114 
L 278.454302 145.518851 
L 282.212479 142.724748 
L 289.599304 137.143314 
L 301.193523 128.37445 
L 325.91344 109.675972 
L 329.825977 109.166861 
L 325.470673 108.714123 
L 326.10871 108.261444 
L 329.348015 107.357593 
L 330.110146 106.906853 
L 330.669508 106.007106 
L 331.14382 105.557406 
L 334.283994 103.304614 
L 336.011935 101.957726 
L 339.63126 99.267463 
L 342.539109 97.028832 
L 346.101908 94.346514 
L 349.047852 92.115971 
L 351.99221 89.884736 
L 354.926576 87.658616 
L 357.868118 85.429692 
L 360.154165 83.650678 
L 363.739228 80.983351 
L 365.976404 79.206268 
L 369.592773 76.549473 
L 371.778212 74.77747 
L 375.403351 72.132591 
L 377.534171 70.369266 
L 381.19913 67.737297 
L 383.225518 65.980808 
L 387.010402 63.364438 
L 388.84289 61.611079 
L 390.236625 60.754711 
L 392.38383 59.45107 
L 393.175368 58.561048 
L 393.758423 57.684375 
L 394.256634 57.258405 
L 395.007063 56.838719 
L 398.013671 55.554035 
L 398.487273 55.104053 
L 398.214177 54.655431 
L 396.982086 54.234156 
L 394.677763 53.879707 
L 391.378076 53.640772 
L 387.439278 53.568 
L 383.666781 53.70418 
L 381.183192 54.074204 
L 380.783385 54.676603 
L 382.20163 55.479662 
L 384.313324 56.422909 
L 386.054032 57.424544 
L 388.869448 59.921863 
L 389.828494 60.388804 
L 389.961449 60.657962 
L 388.474216 60.776509 
L 376.124745 61.031477 
L 372.449843 61.348516 
L 370.927289 61.858416 
L 371.839569 62.553207 
L 368.268215 63.499366 
L 379.625253 64.406756 
L 381.864584 65.290098 
L 380.711671 66.073621 
L 379.068393 66.704162 
L 378.098694 67.461614 
L 376.935508 67.652127 
L 366.315803 68.27045 
L 363.753919 68.698357 
L 363.251463 69.2821 
L 364.514547 70.001734 
L 366.533049 70.809812 
L 368.274632 71.642384 
L 369.287231 72.432395 
L 369.66508 73.123912 
L 369.640603 73.683094 
L 369.175128 74.10458 
L 367.960642 74.411701 
L 362.849822 74.879569 
L 359.704289 75.15737 
L 357.136079 75.530114 
L 355.800348 76.022507 
L 355.86486 76.633367 
L 356.907082 77.337005 
L 358.233968 78.089167 
L 359.259863 78.837352 
L 359.780222 79.531836 
L 359.830018 80.136203 
L 359.4588 80.634228 
L 358.562285 81.03267 
L 357.006839 81.358791 
L 350.085234 82.327995 
L 348.525634 82.77507 
L 347.939731 83.31299 
L 348.214412 83.930687 
L 349.655581 85.286736 
L 350.082137 85.949576 
L 350.129266 86.557674 
L 349.79326 87.092374 
L 349.063823 87.551263 
L 347.885756 87.94805 
L 341.118692 89.48228 
L 340.245497 89.978921 
L 339.984682 90.536009 
L 340.146987 91.138817 
L 340.661227 92.384064 
L 340.63452 92.975035 
L 340.318309 93.519816 
L 339.697622 94.012112 
L 338.761187 94.457008 
L 336.088454 95.269925 
L 333.337303 96.120383 
L 332.400182 96.600064 
L 331.866214 97.121813 
L 331.66299 97.678516 
L 331.605539 98.836343 
L 331.447793 99.402368 
L 331.089515 99.940835 
L 330.499358 100.445318 
L 329.677397 100.917092 
L 327.486731 101.800259 
L 325.22853 102.693687 
L 324.361859 103.172538 
L 323.748596 103.678123 
L 323.347583 104.206991 
L 322.490327 105.839173 
L 322.032217 106.364208 
L 320.659903 107.353687 
L 316.221606 109.694965 
L 315.05804 110.701578 
L 313.143508 112.773168 
L 311.819892 113.763621 
L 307.321245 116.642121 
L 305.057676 118.647366 
L 303.186845 120.130826 
L 297.780831 124.007862 
L 295.310554 125.97287 
L 288.779804 130.834994 
L 281.645358 136.203293 
L 277.766349 136.750291 
L 281.843449 137.235534 
L 281.206254 137.720464 
L 277.730397 138.692192 
L 276.807807 139.179956 
L 276.481967 139.669065 
L 276.297188 140.159174 
L 275.915544 140.649607 
L 274.481311 141.62853 
L 273.029323 142.601543 
L 269.821428 145.018575 
L 266.657463 147.448848 
L 262.155512 150.820411 
L 258.329557 153.711346 
L 254.520386 156.588791 
L 250.675528 159.463572 
L 246.901025 162.335947 
L 242.457058 165.675181 
L 236.767077 169.954049 
L 210.652892 189.717047 
L 198.361782 199.028408 
L 189.757878 205.53671 
L 186.357012 206.058414 
L 189.596515 206.522394 
L 189.305041 206.986675 
L 185.382689 208.380163 
L 184.92192 208.844176 
L 184.4005 209.770554 
L 183.852633 210.233002 
L 181.046189 212.080886 
L 178.772768 213.927702 
L 173.903935 217.607238 
L 113.367305 263.973517 
L 110.455591 266.186938 
L 107.616846 268.403976 
L 104.722218 270.611451 
L 103.526281 271.493613 
L 100.522489 271.991253 
L 103.144385 272.434152 
L 103.151999 272.876948 
L 102.089257 273.319016 
L 99.626411 274.199216 
L 99.001802 274.637552 
L 98.006883 275.952394 
L 94.497919 278.591501 
L 93.345171 279.462999 
L 90.928357 281.212482 
L 88.916668 282.962795 
L 84.807555 286.010467 
L 83.393522 287.317407 
L 82.086562 288.173486 
L 80.011137 289.470508 
L 79.153336 290.354812 
L 78.545524 291.230871 
L 78.093971 291.657984 
L 77.423067 292.078393 
L 73.885777 293.799722 
L 73.832727 294.24956 
L 74.580531 294.682582 
L 76.21063 295.064426 
L 78.621349 295.34975 
L 81.582752 295.488 
L 84.778718 295.432572 
L 87.820802 295.150595 
L 90.099145 294.632571 
L 90.911758 293.898277 
L 89.982194 292.997759 
L 87.800273 292.00627 
L 81.087068 289.366092 
L 80.528111 288.828039 
L 81.536391 288.499637 
L 83.972249 288.345643 
L 94.270144 288.158501 
L 97.322287 287.90115 
L 99.590852 287.44858 
L 100.449017 286.795965 
L 99.450398 285.978968 
L 96.934041 285.06586 
L 91.232057 283.296541 
L 89.721998 282.59495 
L 89.81135 282.074748 
L 91.609022 281.733611 
L 98.165513 281.40155 
L 104.486549 281.034054 
L 106.780945 280.662477 
L 108.127263 280.121175 
L 108.128477 279.420896 
L 106.727086 278.605283 
L 100.360358 276.158108 
L 99.808849 275.552628 
L 100.684075 275.101695 
L 102.838646 274.787833 
L 111.614244 274.137908 
L 113.904924 273.808748 
L 115.493509 273.348752 
L 116.110298 272.751642 
L 115.60084 272.040163 
L 114.173964 271.260341 
L 110.808716 269.731251 
L 110.003452 269.08747 
L 110.269826 268.564518 
L 111.654072 268.160888 
L 116.490971 267.586817 
L 121.246636 266.992698 
L 122.893861 266.575191 
L 123.810031 266.049783 
L 123.865261 265.424586 
L 123.136897 264.728514 
L 120.764247 263.299314 
L 120.023719 262.654402 
L 120.03988 262.096351 
L 120.933901 261.632245 
L 122.578179 261.249029 
L 128.832102 260.24912 
L 130.402007 259.841212 
L 131.419974 259.355488 
L 131.802101 258.791629 
L 131.582072 258.166054 
L 129.745538 256.227545 
L 129.747355 255.662236 
L 130.372773 255.164764 
L 131.590066 254.730267 
L 138.111534 253.169022 
L 139.129402 252.698494 
L 139.68594 252.171804 
L 139.799704 251.597419 
L 139.082273 249.792322 
L 139.195178 249.236871 
L 143.263067 248.666723 
L 138.817618 248.206805 
L 140.264288 247.779133 
L 145.616343 246.946736 
L 147.138195 246.504565 
L 147.669364 246.028061 
L 147.708268 244.403131 
L 148.183818 243.275492 
L 148.574591 242.740756 
L 149.142583 242.235449 
L 149.950192 241.758667 
L 152.132666 240.858541 
L 154.296436 239.951163 
L 155.103112 239.470482 
L 155.689618 238.967305 
L 156.379037 237.909929 
L 156.986726 236.840588 
L 157.455142 236.322432 
L 158.868903 235.336679 
L 163.15981 232.978959 
L 164.291829 231.978154 
L 166.222432 229.935157 
L 167.561338 228.953411 
L 171.363101 226.559913 
L 173.093721 225.073998 
L 174.778298 223.581559 
L 176.870128 222.124074 
L 179.656529 220.187421 
L 183.997724 216.752838 
L 187.384769 214.31278 
L 191.141274 211.371832 
L 194.525549 208.932252 
L 199.587679 205.020269 
L 203.505337 202.103968 
L 207.911213 198.708042 
L 212.457146 195.329106 
L 215.541136 192.916038 
L 220.132093 189.556719 
L 223.192493 187.147593 
L 228.355302 183.321003 
L 232.12898 180.450902 
L 235.327592 178.072891 
L 239.540604 177.536445 
L 239.540604 177.536445 
" clip-path="url(#p88c0ef0233)" style="fill: none; stroke: #1f77b4; stroke-width: 1.5; stroke-linecap: square"/>
   </g>
   <g id="line2d_22">
    <path d="M 236.125254 177.476808 
L 266.58019 154.393676 
L 270.940945 151.12179 
L 274.692982 148.323237 
L 278.980425 145.05163 
L 381.968504 66.8541 
L 383.822496 65.54793 
L 385.715153 64.246118 
L 388.888144 61.611079 
L 391.6315 59.891025 
L 392.514175 59.006576 
L 393.254101 58.119022 
L 393.782701 57.684375 
L 395.395392 56.838719 
L 397.209481 55.992967 
L 397.702242 55.554035 
L 397.601542 55.104053 
L 396.737911 54.655431 
L 395.069742 54.234156 
L 392.720496 53.879707 
L 389.979716 53.640772 
L 387.263397 53.568 
L 385.036998 53.70418 
L 383.718774 54.074204 
L 383.581541 54.676603 
L 384.679918 55.479662 
L 386.818616 56.422909 
L 394.60714 59.247221 
L 395.733693 59.921863 
L 395.422958 60.388804 
L 393.611957 60.657962 
L 386.643396 60.819816 
L 379.012006 61.031477 
L 376.465325 61.348516 
L 375.279066 61.858416 
L 375.506065 62.553207 
L 377.152597 63.499366 
L 383.236601 66.073621 
L 383.911485 66.704162 
L 383.337135 67.161534 
L 381.532774 67.461614 
L 375.492802 67.801896 
L 372.250121 67.986053 
L 369.550078 68.27045 
L 367.771904 68.698357 
L 367.090479 69.2821 
L 367.447996 70.001734 
L 368.575317 70.809812 
L 371.4219 72.432395 
L 372.246066 73.123912 
L 372.236685 73.683094 
L 371.289151 74.10458 
L 369.500546 74.411701 
L 362.244504 75.15737 
L 360.448847 75.530114 
L 359.408269 76.022507 
L 359.159477 76.633367 
L 359.568327 77.337005 
L 361.778962 79.531836 
L 361.801961 80.136203 
L 361.154914 80.634228 
L 359.859079 81.03267 
L 356.057984 81.65372 
L 352.481147 82.327995 
L 351.370441 82.77507 
L 350.836762 83.31299 
L 350.817636 83.930687 
L 351.882939 85.949576 
L 351.846752 86.557674 
L 351.351406 87.092374 
L 350.38103 87.551263 
L 347.4409 88.308541 
L 344.419882 89.048198 
L 343.326667 89.48228 
L 342.631377 89.978921 
L 342.314613 90.536009 
L 342.276105 91.138817 
L 342.393346 92.384064 
L 342.221049 92.975035 
L 341.7425 93.519816 
L 340.929268 94.012112 
L 338.547806 94.86937 
L 336.022043 95.68077 
L 335.033499 96.120383 
L 334.32322 96.600064 
L 333.883345 97.121813 
L 333.49827 98.255946 
L 333.316666 98.836343 
L 332.989307 99.402368 
L 332.444512 99.940835 
L 331.664097 100.445318 
L 329.588713 101.364438 
L 327.451659 102.239077 
L 326.586128 102.693687 
L 325.913836 103.172538 
L 325.053565 104.206991 
L 324.374114 105.298461 
L 323.909183 105.839173 
L 323.29891 106.364208 
L 321.668522 107.353687 
L 318.206869 109.213213 
L 317.039223 110.191636 
L 315.048907 112.261824 
L 313.652504 113.273889 
L 309.152345 116.152389 
L 305.754742 119.147119 
L 300.176633 123.026255 
L 297.897758 124.993198 
L 295.691203 126.45953 
L 293.486217 127.913422 
L 291.706931 129.372156 
L 289.975341 130.834994 
L 287.865707 132.294658 
L 284.989152 134.247439 
L 278.513706 139.179956 
L 275.846362 141.139622 
L 271.501344 144.534777 
L 266.894594 147.934382 
L 263.153179 150.820411 
L 259.202219 153.711346 
L 254.799958 157.065398 
L 250.286505 160.425867 
L 244.532011 164.718117 
L 232.60432 173.751671 
L 228.146776 177.053507 
L 207.762759 192.513711 
L 96.138522 277.274415 
L 93.86345 279.027593 
L 90.958648 281.212482 
L 88.751539 282.962795 
L 85.717333 285.131615 
L 83.105942 287.317407 
L 79.895227 289.470508 
L 78.234127 291.230871 
L 76.773402 292.078393 
L 74.953367 292.919811 
L 74.318898 293.353761 
L 74.179584 293.799722 
L 74.73689 294.24956 
L 76.090689 294.682582 
L 78.190888 295.064426 
L 80.817689 295.34975 
L 83.602154 295.488 
L 86.086999 295.432572 
L 87.816921 295.150595 
L 88.440985 294.632571 
L 87.80166 293.898277 
L 85.989652 292.997759 
L 80.410895 291.013542 
L 77.81967 290.109028 
L 76.176656 289.366092 
L 75.925626 288.828039 
L 77.250142 288.499637 
L 80.027191 288.345643 
L 92.031688 288.158501 
L 95.057636 287.90115 
L 96.712526 287.44858 
L 96.837339 286.795965 
L 95.589326 285.978968 
L 93.404894 285.06586 
L 88.754215 283.296541 
L 87.535816 282.59495 
L 87.617488 282.074748 
L 89.087264 281.733611 
L 91.742407 281.531857 
L 101.825807 281.034054 
L 104.036177 280.662477 
L 105.05772 280.121175 
L 104.875786 279.420896 
L 103.727688 278.605283 
L 99.145939 276.158108 
L 98.818836 275.552628 
L 99.546514 275.101695 
L 101.278518 274.787833 
L 111.373289 273.808748 
L 112.672486 273.348752 
L 113.043514 272.751642 
L 112.592878 272.040163 
L 109.542486 269.731251 
L 109.219429 269.08747 
L 109.676952 268.564518 
L 110.937294 268.160888 
L 115.125181 267.586817 
L 119.364417 266.992698 
L 120.725475 266.575191 
L 121.373984 266.049783 
L 121.347706 265.424586 
L 120.828503 264.728514 
L 119.468411 263.299314 
L 119.221676 262.654402 
L 119.541628 262.096351 
L 120.482101 261.632245 
L 121.960309 261.249029 
L 127.393632 260.24912 
L 128.705579 259.841212 
L 129.498827 259.355488 
L 129.774325 258.791629 
L 129.646135 258.166054 
L 129.003564 256.850526 
L 128.939036 256.227545 
L 129.271044 255.662236 
L 130.058181 255.164764 
L 131.255547 254.730267 
L 136.907256 253.169022 
L 137.700587 252.698494 
L 138.110395 252.171804 
L 138.215148 251.597419 
L 138.113409 250.384051 
L 138.242631 249.792322 
L 138.661655 249.236871 
L 139.531225 248.666723 
L 141.883742 247.779133 
L 144.393394 246.946736 
L 145.375991 246.504565 
L 146.081976 246.028061 
L 146.520638 245.514256 
L 146.917604 244.403131 
L 147.111439 243.833609 
L 147.451028 243.275492 
L 148.003239 242.740756 
L 148.780978 242.235449 
L 150.810587 241.303444 
L 152.861914 240.411466 
L 154.324918 239.470482 
L 155.165725 238.444732 
L 155.878671 237.372111 
L 156.367517 236.840588 
L 157.768966 235.821235 
L 162.040202 233.461999 
L 163.153864 232.483846 
L 165.06961 230.439639 
L 166.48281 229.439791 
L 170.451964 227.044259 
L 171.569747 226.06932 
L 173.64663 224.075853 
L 175.085169 223.091932 
L 178.904204 220.675324 
L 180.524372 219.204054 
L 181.622241 218.218653 
L 182.974244 217.239633 
L 187.396252 214.31278 
L 191.598855 210.885587 
L 195.804476 207.948223 
L 200.083479 204.536365 
L 204.759845 201.12692 
L 208.431343 198.228002 
L 213.062654 194.843407 
L 216.146219 192.438363 
L 221.366712 188.588863 
L 225.160437 185.71763 
L 230.27771 181.881141 
L 236.046358 177.536445 
L 236.046358 177.536445 
" clip-path="url(#p88c0ef0233)" style="fill: none; stroke: #ff7f0e; stroke-opacity: 0.5; stroke-width: 1.5; stroke-linecap: square"/>
   </g>
   <g id="patch_3">
    <path d="M 57.6 307.584 
L 57.6 41.472 
" style="fill: none; stroke: #000000; stroke-width: 0.8; stroke-linejoin: miter; stroke-linecap: square"/>
   </g>
   <g id="patch_4">
    <path d="M 414.72 307.584 
L 414.72 41.472 
" style="fill: none; stroke: #000000; stroke-width: 0.8; stroke-linejoin: miter; stroke-linecap: square"/>
   </g>
   <g id="patch_5">
    <path d="M 57.6 307.584 
L 414.72 307.584 
" style="fill: none; stroke: #000000; stroke-width: 0.8; stroke-linejoin: miter; stroke-linecap: square"/>
   </g>
   <g id="patch_6">
    <path d="M 57.6 41.472 
L 414.72 41.472 
" style="fill: none; stroke: #000000; stroke-width: 0.8; stroke-linejoin: miter; stroke-linecap: square"/>
   </g>
   <g id="text_13">
    <!-- Compare - Epoch 2400 -->
    <g transform="translate(167.416875 35.472) scale(0.12 -0.12)">
     <defs>
      <path id="DejaVuSans-43" d="M 4122 4306 
L 4122 3641 
Q 3803 3938 3442 4084 
Q 3081 4231 2675 4231 
Q 1875 4231 1450 3742 
Q 1025 3253 1025 2328 
Q 1025 1406 1450 917 
Q 1875 428 2675 428 
Q 3081 428 3442 575 
Q 3803 722 4122 1019 
L 4122 359 
Q 3791 134 3420 21 
Q 3050 -91 2638 -91 
Q 1578 -91 968 557 
Q 359 1206 359 2328 
Q 359 3453 968 4101 
Q 1578 4750 2638 4750 
Q 3056 4750 3426 4639 
Q 3797 4528 4122 4306 
z
" transform="scale(0.015625)"/>
      <path id="DejaVuSans-6f" d="M 1959 3097 
Q 1497 3097 1228 2736 
Q 959 2375 959 1747 
Q 959 1119 1226 758 
Q 1494 397 1959 397 
Q 2419 397 2687 759 
Q 2956 1122 2956 1747 
Q 2956 2369 2687 2733 
Q 2419 3097 1959 3097 
z
M 1959 3584 
Q 2709 3584 3137 3096 
Q 3566 2609 3566 1747 
Q 3566 888 3137 398 
Q 2709 -91 1959 -91 
Q 1206 -91 779 398 
Q 353 888 353 1747 
Q 353 2609 779 3096 
Q 1206 3584 1959 3584 
z
" transform="scale(0.015625)"/>
      <path id="DejaVuSans-6d" d="M 3328 2828 
Q 3544 3216 3844 3400 
Q 4144 3584 4550 3584 
Q 5097 3584 5394 3201 
Q 5691 2819 5691 2113 
L 5691 0 
L 5113 0 
L 5113 2094 
Q 5113 2597 4934 2840 
Q 4756 3084 4391 3084 
Q 3944 3084 3684 2787 
Q 3425 2491 3425 1978 
L 3425 0 
L 2847 0 
L 2847 2094 
Q 2847 2600 2669 2842 
Q 2491 3084 2119 3084 
Q 1678 3084 1418 2786 
Q 1159 2488 1159 1978 
L 1159 0 
L 581 0 
L 581 3500 
L 1159 3500 
L 1159 2956 
Q 1356 3278 1631 3431 
Q 1906 3584 2284 3584 
Q 2666 3584 2933 3390 
Q 3200 3197 3328 2828 
z
" transform="scale(0.015625)"/>
      <path id="DejaVuSans-70" d="M 1159 525 
L 1159 -1331 
L 581 -1331 
L 581 3500 
L 1159 3500 
L 1159 2969 
Q 1341 3281 1617 3432 
Q 1894 3584 2278 3584 
Q 2916 3584 3314 3078 
Q 3713 2572 3713 1747 
Q 3713 922 3314 415 
Q 2916 -91 2278 -91 
Q 1894 -91 1617 61 
Q 1341 213 1159 525 
z
M 3116 1747 
Q 3116 2381 2855 2742 
Q 2594 3103 2138 3103 
Q 1681 3103 1420 2742 
Q 1159 2381 1159 1747 
Q 1159 1113 1420 752 
Q 1681 391 2138 391 
Q 2594 391 2855 752 
Q 3116 1113 3116 1747 
z
" transform="scale(0.015625)"/>
      <path id="DejaVuSans-72" d="M 2631 2963 
Q 2534 3019 2420 3045 
Q 2306 3072 2169 3072 
Q 1681 3072 1420 2755 
Q 1159 2438 1159 1844 
L 1159 0 
L 581 0 
L 581 3500 
L 1159 3500 
L 1159 2956 
Q 1341 3275 1631 3429 
Q 1922 3584 2338 3584 
Q 2397 3584 2469 3576 
Q 2541 3569 2628 3553 
L 2631 2963 
z
" transform="scale(0.015625)"/>
      <path id="DejaVuSans-20" transform="scale(0.015625)"/>
      <path id="DejaVuSans-2d" d="M 313 2009 
L 1997 2009 
L 1997 1497 
L 313 1497 
L 313 2009 
z
" transform="scale(0.015625)"/>
      <path id="DejaVuSans-45" d="M 628 4666 
L 3578 4666 
L 3578 4134 
L 1259 4134 
L 1259 2753 
L 3481 2753 
L 3481 2222 
L 1259 2222 
L 1259 531 
L 3634 531 
L 3634 0 
L 628 0 
L 628 4666 
z
" transform="scale(0.015625)"/>
      <path id="DejaVuSans-63" d="M 3122 3366 
L 3122 2828 
Q 2878 2963 2633 3030 
Q 2388 3097 2138 3097 
Q 1578 3097 1268 2742 
Q 959 2388 959 1747 
Q 959 1106 1268 751 
Q 1578 397 2138 397 
Q 2388 397 2633 464 
Q 2878 531 3122 666 
L 3122 134 
Q 2881 22 2623 -34 
Q 2366 -91 2075 -91 
Q 1284 -91 818 406 
Q 353 903 353 1747 
Q 353 2603 823 3093 
Q 1294 3584 2113 3584 
Q 2378 3584 2631 3529 
Q 2884 3475 3122 3366 
z
" transform="scale(0.015625)"/>
      <path id="DejaVuSans-68" d="M 3513 2113 
L 3513 0 
L 2938 0 
L 2938 2094 
Q 2938 2591 2744 2837 
Q 2550 3084 2163 3084 
Q 1697 3084 1428 2787 
Q 1159 2491 1159 1978 
L 1159 0 
L 581 0 
L 581 4863 
L 1159 4863 
L 1159 2956 
Q 1366 3272 1645 3428 
Q 1925 3584 2291 3584 
Q 2894 3584 3203 3211 
Q 3513 2838 3513 2113 
z
" transform="scale(0.015625)"/>
      <path id="DejaVuSans-32" d="M 1228 531 
L 3431 531 
L 3431 0 
L 469 0 
L 469 531 
Q 828 903 1448 1529 
Q 2069 2156 2228 2338 
Q 2531 2678 2651 2914 
Q 2772 3150 2772 3378 
Q 2772 3750 2511 3984 
Q 2250 4219 1831 4219 
Q 1534 4219 1204 4116 
Q 875 4013 500 3803 
L 500 4441 
Q 881 4594 1212 4672 
Q 1544 4750 1819 4750 
Q 2544 4750 2975 4387 
Q 3406 4025 3406 3419 
Q 3406 3131 3298 2873 
Q 3191 2616 2906 2266 
Q 2828 2175 2409 1742 
Q 1991 1309 1228 531 
z
" transform="scale(0.015625)"/>
      <path id="DejaVuSans-34" d="M 2419 4116 
L 825 1625 
L 2419 1625 
L 2419 4116 
z
M 2253 4666 
L 3047 4666 
L 3047 1625 
L 3713 1625 
L 3713 1100 
L 3047 1100 
L 3047 0 
L 2419 0 
L 2419 1100 
L 313 1100 
L 313 1709 
L 2253 4666 
z
" transform="scale(0.015625)"/>
     </defs>
     <use xlink:href="#DejaVuSans-43"/>
     <use xlink:href="#DejaVuSans-6f" transform="translate(69.824219 0)"/>
     <use xlink:href="#DejaVuSans-6d" transform="translate(131.005859 0)"/>
     <use xlink:href="#DejaVuSans-70" transform="translate(228.417969 0)"/>
     <use xlink:href="#DejaVuSans-61" transform="translate(291.894531 0)"/>
     <use xlink:href="#DejaVuSans-72" transform="translate(353.173828 0)"/>
     <use xlink:href="#DejaVuSans-65" transform="translate(392.037109 0)"/>
     <use xlink:href="#DejaVuSans-20" transform="translate(453.560547 0)"/>
     <use xlink:href="#DejaVuSans-2d" transform="translate(485.347656 0)"/>
     <use xlink:href="#DejaVuSans-20" transform="translate(521.431641 0)"/>
     <use xlink:href="#DejaVuSans-45" transform="translate(553.21875 0)"/>
     <use xlink:href="#DejaVuSans-70" transform="translate(616.402344 0)"/>
     <use xlink:href="#DejaVuSans-6f" transform="translate(679.878906 0)"/>
     <use xlink:href="#DejaVuSans-63" transform="translate(741.060547 0)"/>
     <use xlink:href="#DejaVuSans-68" transform="translate(796.041016 0)"/>
     <use xlink:href="#DejaVuSans-20" transform="translate(859.419922 0)"/>
     <use xlink:href="#DejaVuSans-32" transform="translate(891.207031 0)"/>
     <use xlink:href="#DejaVuSans-34" transform="translate(954.830078 0)"/>
     <use xlink:href="#DejaVuSans-30" transform="translate(1018.453125 0)"/>
     <use xlink:href="#DejaVuSans-30" transform="translate(1082.076172 0)"/>
    </g>
   </g>
   <g id="legend_1">
    <g id="patch_7">
     <path d="M 64.6 78.82825 
L 181.128125 78.82825 
Q 183.128125 78.82825 183.128125 76.82825 
L 183.128125 48.472 
Q 183.128125 46.472 181.128125 46.472 
L 64.6 46.472 
Q 62.6 46.472 62.6 48.472 
L 62.6 76.82825 
Q 62.6 78.82825 64.6 78.82825 
z
" style="fill: #ffffff; opacity: 0.8; stroke: #cccccc; stroke-linejoin: miter"/>
    </g>
    <g id="line2d_23">
     <path d="M 66.6 54.570437 
L 76.6 54.570437 
L 86.6 54.570437 
" style="fill: none; stroke: #1f77b4; stroke-width: 1.5; stroke-linecap: square"/>
    </g>
    <g id="text_14">
     <!-- Pred: Sample 1 -->
     <g transform="translate(94.6 58.070437) scale(0.1 -0.1)">
      <defs>
       <path id="DejaVuSans-50" d="M 1259 4147 
L 1259 2394 
L 2053 2394 
Q 2494 2394 2734 2622 
Q 2975 2850 2975 3272 
Q 2975 3691 2734 3919 
Q 2494 4147 2053 4147 
L 1259 4147 
z
M 628 4666 
L 2053 4666 
Q 2838 4666 3239 4311 
Q 3641 3956 3641 3272 
Q 3641 2581 3239 2228 
Q 2838 1875 2053 1875 
L 1259 1875 
L 1259 0 
L 628 0 
L 628 4666 
z
" transform="scale(0.015625)"/>
       <path id="DejaVuSans-3a" d="M 750 794 
L 1409 794 
L 1409 0 
L 750 0 
L 750 794 
z
M 750 3309 
L 1409 3309 
L 1409 2516 
L 750 2516 
L 750 3309 
z
" transform="scale(0.015625)"/>
       <path id="DejaVuSans-53" d="M 3425 4513 
L 3425 3897 
Q 3066 4069 2747 4153 
Q 2428 4238 2131 4238 
Q 1616 4238 1336 4038 
Q 1056 3838 1056 3469 
Q 1056 3159 1242 3001 
Q 1428 2844 1947 2747 
L 2328 2669 
Q 3034 2534 3370 2195 
Q 3706 1856 3706 1288 
Q 3706 609 3251 259 
Q 2797 -91 1919 -91 
Q 1588 -91 1214 -16 
Q 841 59 441 206 
L 441 856 
Q 825 641 1194 531 
Q 1563 422 1919 422 
Q 2459 422 2753 634 
Q 3047 847 3047 1241 
Q 3047 1584 2836 1778 
Q 2625 1972 2144 2069 
L 1759 2144 
Q 1053 2284 737 2584 
Q 422 2884 422 3419 
Q 422 4038 858 4394 
Q 1294 4750 2059 4750 
Q 2388 4750 2728 4690 
Q 3069 4631 3425 4513 
z
" transform="scale(0.015625)"/>
      </defs>
      <use xlink:href="#DejaVuSans-50"/>
      <use xlink:href="#DejaVuSans-72" transform="translate(58.552734 0)"/>
      <use xlink:href="#DejaVuSans-65" transform="translate(97.416016 0)"/>
      <use xlink:href="#DejaVuSans-64" transform="translate(158.939453 0)"/>
      <use xlink:href="#DejaVuSans-3a" transform="translate(222.416016 0)"/>
      <use xlink:href="#DejaVuSans-20" transform="translate(256.107422 0)"/>
      <use xlink:href="#DejaVuSans-53" transform="translate(287.894531 0)"/>
      <use xlink:href="#DejaVuSans-61" transform="translate(351.371094 0)"/>
      <use xlink:href="#DejaVuSans-6d" transform="translate(412.650391 0)"/>
      <use xlink:href="#DejaVuSans-70" transform="translate(510.0625 0)"/>
      <use xlink:href="#DejaVuSans-6c" transform="translate(573.539062 0)"/>
      <use xlink:href="#DejaVuSans-65" transform="translate(601.322266 0)"/>
      <use xlink:href="#DejaVuSans-20" transform="translate(662.845703 0)"/>
      <use xlink:href="#DejaVuSans-31" transform="translate(694.632812 0)"/>
     </g>
    </g>
    <g id="line2d_24">
     <path d="M 66.6 69.248562 
L 76.6 69.248562 
L 86.6 69.248562 
" style="fill: none; stroke: #ff7f0e; stroke-opacity: 0.5; stroke-width: 1.5; stroke-linecap: square"/>
    </g>
    <g id="text_15">
     <!-- Target: Sample 1 -->
     <g transform="translate(94.6 72.748562) scale(0.1 -0.1)">
      <defs>
       <path id="DejaVuSans-54" d="M -19 4666 
L 3928 4666 
L 3928 4134 
L 2272 4134 
L 2272 0 
L 1638 0 
L 1638 4134 
L -19 4134 
L -19 4666 
z
" transform="scale(0.015625)"/>
       <path id="DejaVuSans-67" d="M 2906 1791 
Q 2906 2416 2648 2759 
Q 2391 3103 1925 3103 
Q 1463 3103 1205 2759 
Q 947 2416 947 1791 
Q 947 1169 1205 825 
Q 1463 481 1925 481 
Q 2391 481 2648 825 
Q 2906 1169 2906 1791 
z
M 3481 434 
Q 3481 -459 3084 -895 
Q 2688 -1331 1869 -1331 
Q 1566 -1331 1297 -1286 
Q 1028 -1241 775 -1147 
L 775 -588 
Q 1028 -725 1275 -790 
Q 1522 -856 1778 -856 
Q 2344 -856 2625 -561 
Q 2906 -266 2906 331 
L 2906 616 
Q 2728 306 2450 153 
Q 2172 0 1784 0 
Q 1141 0 747 490 
Q 353 981 353 1791 
Q 353 2603 747 3093 
Q 1141 3584 1784 3584 
Q 2172 3584 2450 3431 
Q 2728 3278 2906 2969 
L 2906 3500 
L 3481 3500 
L 3481 434 
z
" transform="scale(0.015625)"/>
       <path id="DejaVuSans-74" d="M 1172 4494 
L 1172 3500 
L 2356 3500 
L 2356 3053 
L 1172 3053 
L 1172 1153 
Q 1172 725 1289 603 
Q 1406 481 1766 481 
L 2356 481 
L 2356 0 
L 1766 0 
Q 1100 0 847 248 
Q 594 497 594 1153 
L 594 3053 
L 172 3053 
L 172 3500 
L 594 3500 
L 594 4494 
L 1172 4494 
z
" transform="scale(0.015625)"/>
      </defs>
      <use xlink:href="#DejaVuSans-54"/>
      <use xlink:href="#DejaVuSans-61" transform="translate(44.583984 0)"/>
      <use xlink:href="#DejaVuSans-72" transform="translate(105.863281 0)"/>
      <use xlink:href="#DejaVuSans-67" transform="translate(145.226562 0)"/>
      <use xlink:href="#DejaVuSans-65" transform="translate(208.703125 0)"/>
      <use xlink:href="#DejaVuSans-74" transform="translate(270.226562 0)"/>
      <use xlink:href="#DejaVuSans-3a" transform="translate(309.435547 0)"/>
      <use xlink:href="#DejaVuSans-20" transform="translate(343.126953 0)"/>
      <use xlink:href="#DejaVuSans-53" transform="translate(374.914062 0)"/>
      <use xlink:href="#DejaVuSans-61" transform="translate(438.390625 0)"/>
      <use xlink:href="#DejaVuSans-6d" transform="translate(499.669922 0)"/>
      <use xlink:href="#DejaVuSans-70" transform="translate(597.082031 0)"/>
      <use xlink:href="#DejaVuSans-6c" transform="translate(660.558594 0)"/>
      <use xlink:href="#DejaVuSans-65" transform="translate(688.341797 0)"/>
      <use xlink:href="#DejaVuSans-20" transform="translate(749.865234 0)"/>
      <use xlink:href="#DejaVuSans-31" transform="translate(781.652344 0)"/>
     </g>
    </g>
   </g>
  </g>
 </g>
 <defs>
  <clipPath id="p88c0ef0233">
   <rect x="57.6" y="41.472" width="357.12" height="266.112"/>
  </clipPath>
 </defs>
</svg>
