<?xml version="1.0" encoding="utf-8" standalone="no"?>
<!DOCTYPE svg PUBLIC "-//W3C//DTD SVG 1.1//EN"
  "http://www.w3.org/Graphics/SVG/1.1/DTD/svg11.dtd">
<svg xmlns:xlink="http://www.w3.org/1999/xlink" width="460.8pt" height="345.6pt" viewBox="0 0 460.8 345.6" xmlns="http://www.w3.org/2000/svg" version="1.1">
 <metadata>
  <rdf:RDF xmlns:dc="http://purl.org/dc/elements/1.1/" xmlns:cc="http://creativecommons.org/ns#" xmlns:rdf="http://www.w3.org/1999/02/22-rdf-syntax-ns#">
   <cc:Work>
    <dc:type rdf:resource="http://purl.org/dc/dcmitype/StillImage"/>
    <dc:date>2025-04-15T22:52:43.611765</dc:date>
    <dc:format>image/svg+xml</dc:format>
    <dc:creator>
     <cc:Agent>
      <dc:title>Matplotlib v3.10.0, https://matplotlib.org/</dc:title>
     </cc:Agent>
    </dc:creator>
   </cc:Work>
  </rdf:RDF>
 </metadata>
 <defs>
  <style type="text/css">*{stroke-linejoin: round; stroke-linecap: butt}</style>
 </defs>
 <g id="figure_1">
  <g id="patch_1">
   <path d="M 0 345.6 
L 460.8 345.6 
L 460.8 0 
L 0 0 
z
" style="fill: #ffffff"/>
  </g>
  <g id="axes_1">
   <g id="patch_2">
    <path d="M 57.6 307.584 
L 414.72 307.584 
L 414.72 41.472 
L 57.6 41.472 
z
" style="fill: #ffffff"/>
   </g>
   <g id="matplotlib.axis_1">
    <g id="xtick_1">
     <g id="line2d_1">
      <path d="M 97.520571 307.584 
L 97.520571 41.472 
" clip-path="url(#p05d079059a)" style="fill: none; stroke: #b0b0b0; stroke-opacity: 0.5; stroke-width: 0.8; stroke-linecap: square"/>
     </g>
     <g id="line2d_2">
      <defs>
       <path id="mc5db4e6c3b" d="M 0 0 
L 0 3.5 
" style="stroke: #000000; stroke-width: 0.8"/>
      </defs>
      <g>
       <use xlink:href="#mc5db4e6c3b" x="97.520571" y="307.584" style="stroke: #000000; stroke-width: 0.8"/>
      </g>
     </g>
     <g id="text_1">
      <!-- −1.0 -->
      <g transform="translate(85.379165 322.182437) scale(0.1 -0.1)">
       <defs>
        <path id="DejaVuSans-2212" d="M 678 2272 
L 4684 2272 
L 4684 1741 
L 678 1741 
L 678 2272 
z
" transform="scale(0.015625)"/>
        <path id="DejaVuSans-31" d="M 794 531 
L 1825 531 
L 1825 4091 
L 703 3866 
L 703 4441 
L 1819 4666 
L 2450 4666 
L 2450 531 
L 3481 531 
L 3481 0 
L 794 0 
L 794 531 
z
" transform="scale(0.015625)"/>
        <path id="DejaVuSans-2e" d="M 684 794 
L 1344 794 
L 1344 0 
L 684 0 
L 684 794 
z
" transform="scale(0.015625)"/>
        <path id="DejaVuSans-30" d="M 2034 4250 
Q 1547 4250 1301 3770 
Q 1056 3291 1056 2328 
Q 1056 1369 1301 889 
Q 1547 409 2034 409 
Q 2525 409 2770 889 
Q 3016 1369 3016 2328 
Q 3016 3291 2770 3770 
Q 2525 4250 2034 4250 
z
M 2034 4750 
Q 2819 4750 3233 4129 
Q 3647 3509 3647 2328 
Q 3647 1150 3233 529 
Q 2819 -91 2034 -91 
Q 1250 -91 836 529 
Q 422 1150 422 2328 
Q 422 3509 836 4129 
Q 1250 4750 2034 4750 
z
" transform="scale(0.015625)"/>
       </defs>
       <use xlink:href="#DejaVuSans-2212"/>
       <use xlink:href="#DejaVuSans-31" transform="translate(83.789062 0)"/>
       <use xlink:href="#DejaVuSans-2e" transform="translate(147.412109 0)"/>
       <use xlink:href="#DejaVuSans-30" transform="translate(179.199219 0)"/>
      </g>
     </g>
    </g>
    <g id="xtick_2">
     <g id="line2d_3">
      <path d="M 166.685439 307.584 
L 166.685439 41.472 
" clip-path="url(#p05d079059a)" style="fill: none; stroke: #b0b0b0; stroke-opacity: 0.5; stroke-width: 0.8; stroke-linecap: square"/>
     </g>
     <g id="line2d_4">
      <g>
       <use xlink:href="#mc5db4e6c3b" x="166.685439" y="307.584" style="stroke: #000000; stroke-width: 0.8"/>
      </g>
     </g>
     <g id="text_2">
      <!-- −0.5 -->
      <g transform="translate(154.544032 322.182437) scale(0.1 -0.1)">
       <defs>
        <path id="DejaVuSans-35" d="M 691 4666 
L 3169 4666 
L 3169 4134 
L 1269 4134 
L 1269 2991 
Q 1406 3038 1543 3061 
Q 1681 3084 1819 3084 
Q 2600 3084 3056 2656 
Q 3513 2228 3513 1497 
Q 3513 744 3044 326 
Q 2575 -91 1722 -91 
Q 1428 -91 1123 -41 
Q 819 9 494 109 
L 494 744 
Q 775 591 1075 516 
Q 1375 441 1709 441 
Q 2250 441 2565 725 
Q 2881 1009 2881 1497 
Q 2881 1984 2565 2268 
Q 2250 2553 1709 2553 
Q 1456 2553 1204 2497 
Q 953 2441 691 2322 
L 691 4666 
z
" transform="scale(0.015625)"/>
       </defs>
       <use xlink:href="#DejaVuSans-2212"/>
       <use xlink:href="#DejaVuSans-30" transform="translate(83.789062 0)"/>
       <use xlink:href="#DejaVuSans-2e" transform="translate(147.412109 0)"/>
       <use xlink:href="#DejaVuSans-35" transform="translate(179.199219 0)"/>
      </g>
     </g>
    </g>
    <g id="xtick_3">
     <g id="line2d_5">
      <path d="M 235.850306 307.584 
L 235.850306 41.472 
" clip-path="url(#p05d079059a)" style="fill: none; stroke: #b0b0b0; stroke-opacity: 0.5; stroke-width: 0.8; stroke-linecap: square"/>
     </g>
     <g id="line2d_6">
      <g>
       <use xlink:href="#mc5db4e6c3b" x="235.850306" y="307.584" style="stroke: #000000; stroke-width: 0.8"/>
      </g>
     </g>
     <g id="text_3">
      <!-- 0.0 -->
      <g transform="translate(227.898743 322.182437) scale(0.1 -0.1)">
       <use xlink:href="#DejaVuSans-30"/>
       <use xlink:href="#DejaVuSans-2e" transform="translate(63.623047 0)"/>
       <use xlink:href="#DejaVuSans-30" transform="translate(95.410156 0)"/>
      </g>
     </g>
    </g>
    <g id="xtick_4">
     <g id="line2d_7">
      <path d="M 305.015173 307.584 
L 305.015173 41.472 
" clip-path="url(#p05d079059a)" style="fill: none; stroke: #b0b0b0; stroke-opacity: 0.5; stroke-width: 0.8; stroke-linecap: square"/>
     </g>
     <g id="line2d_8">
      <g>
       <use xlink:href="#mc5db4e6c3b" x="305.015173" y="307.584" style="stroke: #000000; stroke-width: 0.8"/>
      </g>
     </g>
     <g id="text_4">
      <!-- 0.5 -->
      <g transform="translate(297.063611 322.182437) scale(0.1 -0.1)">
       <use xlink:href="#DejaVuSans-30"/>
       <use xlink:href="#DejaVuSans-2e" transform="translate(63.623047 0)"/>
       <use xlink:href="#DejaVuSans-35" transform="translate(95.410156 0)"/>
      </g>
     </g>
    </g>
    <g id="xtick_5">
     <g id="line2d_9">
      <path d="M 374.180041 307.584 
L 374.180041 41.472 
" clip-path="url(#p05d079059a)" style="fill: none; stroke: #b0b0b0; stroke-opacity: 0.5; stroke-width: 0.8; stroke-linecap: square"/>
     </g>
     <g id="line2d_10">
      <g>
       <use xlink:href="#mc5db4e6c3b" x="374.180041" y="307.584" style="stroke: #000000; stroke-width: 0.8"/>
      </g>
     </g>
     <g id="text_5">
      <!-- 1.0 -->
      <g transform="translate(366.228478 322.182437) scale(0.1 -0.1)">
       <use xlink:href="#DejaVuSans-31"/>
       <use xlink:href="#DejaVuSans-2e" transform="translate(63.623047 0)"/>
       <use xlink:href="#DejaVuSans-30" transform="translate(95.410156 0)"/>
      </g>
     </g>
    </g>
    <g id="text_6">
     <!-- Index -->
     <g transform="translate(222.393594 335.860562) scale(0.1 -0.1)">
      <defs>
       <path id="DejaVuSans-49" d="M 628 4666 
L 1259 4666 
L 1259 0 
L 628 0 
L 628 4666 
z
" transform="scale(0.015625)"/>
       <path id="DejaVuSans-6e" d="M 3513 2113 
L 3513 0 
L 2938 0 
L 2938 2094 
Q 2938 2591 2744 2837 
Q 2550 3084 2163 3084 
Q 1697 3084 1428 2787 
Q 1159 2491 1159 1978 
L 1159 0 
L 581 0 
L 581 3500 
L 1159 3500 
L 1159 2956 
Q 1366 3272 1645 3428 
Q 1925 3584 2291 3584 
Q 2894 3584 3203 3211 
Q 3513 2838 3513 2113 
z
" transform="scale(0.015625)"/>
       <path id="DejaVuSans-64" d="M 2906 2969 
L 2906 4863 
L 3481 4863 
L 3481 0 
L 2906 0 
L 2906 525 
Q 2725 213 2448 61 
Q 2172 -91 1784 -91 
Q 1150 -91 751 415 
Q 353 922 353 1747 
Q 353 2572 751 3078 
Q 1150 3584 1784 3584 
Q 2172 3584 2448 3432 
Q 2725 3281 2906 2969 
z
M 947 1747 
Q 947 1113 1208 752 
Q 1469 391 1925 391 
Q 2381 391 2643 752 
Q 2906 1113 2906 1747 
Q 2906 2381 2643 2742 
Q 2381 3103 1925 3103 
Q 1469 3103 1208 2742 
Q 947 2381 947 1747 
z
" transform="scale(0.015625)"/>
       <path id="DejaVuSans-65" d="M 3597 1894 
L 3597 1613 
L 953 1613 
Q 991 1019 1311 708 
Q 1631 397 2203 397 
Q 2534 397 2845 478 
Q 3156 559 3463 722 
L 3463 178 
Q 3153 47 2828 -22 
Q 2503 -91 2169 -91 
Q 1331 -91 842 396 
Q 353 884 353 1716 
Q 353 2575 817 3079 
Q 1281 3584 2069 3584 
Q 2775 3584 3186 3129 
Q 3597 2675 3597 1894 
z
M 3022 2063 
Q 3016 2534 2758 2815 
Q 2500 3097 2075 3097 
Q 1594 3097 1305 2825 
Q 1016 2553 972 2059 
L 3022 2063 
z
" transform="scale(0.015625)"/>
       <path id="DejaVuSans-78" d="M 3513 3500 
L 2247 1797 
L 3578 0 
L 2900 0 
L 1881 1375 
L 863 0 
L 184 0 
L 1544 1831 
L 300 3500 
L 978 3500 
L 1906 2253 
L 2834 3500 
L 3513 3500 
z
" transform="scale(0.015625)"/>
      </defs>
      <use xlink:href="#DejaVuSans-49"/>
      <use xlink:href="#DejaVuSans-6e" transform="translate(29.492188 0)"/>
      <use xlink:href="#DejaVuSans-64" transform="translate(92.871094 0)"/>
      <use xlink:href="#DejaVuSans-65" transform="translate(156.347656 0)"/>
      <use xlink:href="#DejaVuSans-78" transform="translate(216.121094 0)"/>
     </g>
    </g>
   </g>
   <g id="matplotlib.axis_2">
    <g id="ytick_1">
     <g id="line2d_11">
      <path d="M 57.6 275.510055 
L 414.72 275.510055 
" clip-path="url(#p05d079059a)" style="fill: none; stroke: #b0b0b0; stroke-opacity: 0.5; stroke-width: 0.8; stroke-linecap: square"/>
     </g>
     <g id="line2d_12">
      <defs>
       <path id="m9874cedb19" d="M 0 0 
L -3.5 0 
" style="stroke: #000000; stroke-width: 0.8"/>
      </defs>
      <g>
       <use xlink:href="#m9874cedb19" x="57.6" y="275.510055" style="stroke: #000000; stroke-width: 0.8"/>
      </g>
     </g>
     <g id="text_7">
      <!-- −1.0 -->
      <g transform="translate(26.317187 279.309274) scale(0.1 -0.1)">
       <use xlink:href="#DejaVuSans-2212"/>
       <use xlink:href="#DejaVuSans-31" transform="translate(83.789062 0)"/>
       <use xlink:href="#DejaVuSans-2e" transform="translate(147.412109 0)"/>
       <use xlink:href="#DejaVuSans-30" transform="translate(179.199219 0)"/>
      </g>
     </g>
    </g>
    <g id="ytick_2">
     <g id="line2d_13">
      <path d="M 57.6 225.025611 
L 414.72 225.025611 
" clip-path="url(#p05d079059a)" style="fill: none; stroke: #b0b0b0; stroke-opacity: 0.5; stroke-width: 0.8; stroke-linecap: square"/>
     </g>
     <g id="line2d_14">
      <g>
       <use xlink:href="#m9874cedb19" x="57.6" y="225.025611" style="stroke: #000000; stroke-width: 0.8"/>
      </g>
     </g>
     <g id="text_8">
      <!-- −0.5 -->
      <g transform="translate(26.317187 228.82483) scale(0.1 -0.1)">
       <use xlink:href="#DejaVuSans-2212"/>
       <use xlink:href="#DejaVuSans-30" transform="translate(83.789062 0)"/>
       <use xlink:href="#DejaVuSans-2e" transform="translate(147.412109 0)"/>
       <use xlink:href="#DejaVuSans-35" transform="translate(179.199219 0)"/>
      </g>
     </g>
    </g>
    <g id="ytick_3">
     <g id="line2d_15">
      <path d="M 57.6 174.541168 
L 414.72 174.541168 
" clip-path="url(#p05d079059a)" style="fill: none; stroke: #b0b0b0; stroke-opacity: 0.5; stroke-width: 0.8; stroke-linecap: square"/>
     </g>
     <g id="line2d_16">
      <g>
       <use xlink:href="#m9874cedb19" x="57.6" y="174.541168" style="stroke: #000000; stroke-width: 0.8"/>
      </g>
     </g>
     <g id="text_9">
      <!-- 0.0 -->
      <g transform="translate(34.696875 178.340387) scale(0.1 -0.1)">
       <use xlink:href="#DejaVuSans-30"/>
       <use xlink:href="#DejaVuSans-2e" transform="translate(63.623047 0)"/>
       <use xlink:href="#DejaVuSans-30" transform="translate(95.410156 0)"/>
      </g>
     </g>
    </g>
    <g id="ytick_4">
     <g id="line2d_17">
      <path d="M 57.6 124.056724 
L 414.72 124.056724 
" clip-path="url(#p05d079059a)" style="fill: none; stroke: #b0b0b0; stroke-opacity: 0.5; stroke-width: 0.8; stroke-linecap: square"/>
     </g>
     <g id="line2d_18">
      <g>
       <use xlink:href="#m9874cedb19" x="57.6" y="124.056724" style="stroke: #000000; stroke-width: 0.8"/>
      </g>
     </g>
     <g id="text_10">
      <!-- 0.5 -->
      <g transform="translate(34.696875 127.855943) scale(0.1 -0.1)">
       <use xlink:href="#DejaVuSans-30"/>
       <use xlink:href="#DejaVuSans-2e" transform="translate(63.623047 0)"/>
       <use xlink:href="#DejaVuSans-35" transform="translate(95.410156 0)"/>
      </g>
     </g>
    </g>
    <g id="ytick_5">
     <g id="line2d_19">
      <path d="M 57.6 73.572281 
L 414.72 73.572281 
" clip-path="url(#p05d079059a)" style="fill: none; stroke: #b0b0b0; stroke-opacity: 0.5; stroke-width: 0.8; stroke-linecap: square"/>
     </g>
     <g id="line2d_20">
      <g>
       <use xlink:href="#m9874cedb19" x="57.6" y="73.572281" style="stroke: #000000; stroke-width: 0.8"/>
      </g>
     </g>
     <g id="text_11">
      <!-- 1.0 -->
      <g transform="translate(34.696875 77.371499) scale(0.1 -0.1)">
       <use xlink:href="#DejaVuSans-31"/>
       <use xlink:href="#DejaVuSans-2e" transform="translate(63.623047 0)"/>
       <use xlink:href="#DejaVuSans-30" transform="translate(95.410156 0)"/>
      </g>
     </g>
    </g>
    <g id="text_12">
     <!-- Value -->
     <g transform="translate(20.2375 188.25925) rotate(-90) scale(0.1 -0.1)">
      <defs>
       <path id="DejaVuSans-56" d="M 1831 0 
L 50 4666 
L 709 4666 
L 2188 738 
L 3669 4666 
L 4325 4666 
L 2547 0 
L 1831 0 
z
" transform="scale(0.015625)"/>
       <path id="DejaVuSans-61" d="M 2194 1759 
Q 1497 1759 1228 1600 
Q 959 1441 959 1056 
Q 959 750 1161 570 
Q 1363 391 1709 391 
Q 2188 391 2477 730 
Q 2766 1069 2766 1631 
L 2766 1759 
L 2194 1759 
z
M 3341 1997 
L 3341 0 
L 2766 0 
L 2766 531 
Q 2569 213 2275 61 
Q 1981 -91 1556 -91 
Q 1019 -91 701 211 
Q 384 513 384 1019 
Q 384 1609 779 1909 
Q 1175 2209 1959 2209 
L 2766 2209 
L 2766 2266 
Q 2766 2663 2505 2880 
Q 2244 3097 1772 3097 
Q 1472 3097 1187 3025 
Q 903 2953 641 2809 
L 641 3341 
Q 956 3463 1253 3523 
Q 1550 3584 1831 3584 
Q 2591 3584 2966 3190 
Q 3341 2797 3341 1997 
z
" transform="scale(0.015625)"/>
       <path id="DejaVuSans-6c" d="M 603 4863 
L 1178 4863 
L 1178 0 
L 603 0 
L 603 4863 
z
" transform="scale(0.015625)"/>
       <path id="DejaVuSans-75" d="M 544 1381 
L 544 3500 
L 1119 3500 
L 1119 1403 
Q 1119 906 1312 657 
Q 1506 409 1894 409 
Q 2359 409 2629 706 
Q 2900 1003 2900 1516 
L 2900 3500 
L 3475 3500 
L 3475 0 
L 2900 0 
L 2900 538 
Q 2691 219 2414 64 
Q 2138 -91 1772 -91 
Q 1169 -91 856 284 
Q 544 659 544 1381 
z
M 1991 3584 
L 1991 3584 
z
" transform="scale(0.015625)"/>
      </defs>
      <use xlink:href="#DejaVuSans-56"/>
      <use xlink:href="#DejaVuSans-61" transform="translate(60.658203 0)"/>
      <use xlink:href="#DejaVuSans-6c" transform="translate(121.9375 0)"/>
      <use xlink:href="#DejaVuSans-75" transform="translate(149.720703 0)"/>
      <use xlink:href="#DejaVuSans-65" transform="translate(213.099609 0)"/>
     </g>
    </g>
   </g>
   <g id="line2d_21">
    <path d="M 234.996526 177.476808 
L 235.267341 176.999573 
L 239.418107 176.522276 
L 241.6446 176.045229 
L 241.050566 175.568756 
L 239.667558 175.093131 
L 239.267114 174.618515 
L 240.095619 174.144899 
L 242.523774 173.199704 
L 243.188325 172.727297 
L 244.069025 171.780766 
L 246.021624 170.355731 
L 263.994883 156.726909 
L 285.026537 140.859733 
L 289.328423 137.607072 
L 302.729295 127.454846 
L 311.743451 120.586333 
L 320.823123 113.755364 
L 326.194043 109.675972 
L 329.517946 109.166861 
L 326.223437 108.714123 
L 326.729735 108.261444 
L 329.514219 107.357593 
L 330.226612 106.906853 
L 330.937496 106.007106 
L 332.131014 105.107394 
L 334.012281 103.755144 
L 336.294738 101.957726 
L 341.033128 98.36951 
L 348.081653 93.006119 
L 358.111151 85.429692 
L 361.003011 83.207948 
L 363.971641 80.983351 
L 366.817592 78.765031 
L 369.810075 76.549473 
L 372.60987 74.338026 
L 375.608421 72.132591 
L 378.366306 69.932717 
L 381.391151 67.737297 
L 384.064986 65.54793 
L 387.178598 63.364438 
L 389.097314 61.611079 
L 390.386912 60.754711 
L 392.464957 59.45107 
L 393.394739 58.561048 
L 394.096446 57.684375 
L 394.57016 57.258405 
L 396.075533 56.419406 
L 397.914651 55.554035 
L 398.479753 55.104053 
L 398.487273 54.655431 
L 397.728163 54.234156 
L 396.030993 53.879707 
L 393.306913 53.640772 
L 389.60658 53.568 
L 385.328481 53.70418 
L 381.418591 54.074204 
L 379.188491 54.676603 
L 379.39785 55.479662 
L 381.578876 56.422909 
L 389.63491 59.247221 
L 391.093072 59.921863 
L 391.371987 60.388804 
L 390.326196 60.657962 
L 388.248052 60.776509 
L 378.053075 61.031477 
L 373.90989 61.348516 
L 370.847951 61.858416 
L 370.102842 62.553207 
L 365.08463 63.499366 
L 378.27284 64.406756 
L 382.033906 65.290098 
L 381.868212 66.073621 
L 379.735091 67.161534 
L 378.891585 67.461614 
L 377.369623 67.652127 
L 367.42782 68.27045 
L 364.184925 68.698357 
L 362.536697 69.2821 
L 362.913152 70.001734 
L 364.851854 70.809812 
L 369.497503 72.432395 
L 370.825689 73.123912 
L 371.113872 73.683094 
L 370.341133 74.10458 
L 368.655844 74.411701 
L 357.715551 75.530114 
L 355.680027 76.022507 
L 354.969218 76.633367 
L 355.634531 77.337005 
L 360.289843 79.531836 
L 360.884784 80.136203 
L 360.606257 80.634228 
L 359.484858 81.03267 
L 357.68732 81.358791 
L 350.565331 82.327995 
L 348.625128 82.77507 
L 347.528432 83.31299 
L 347.436095 83.930687 
L 348.145338 84.600954 
L 350.204616 85.949576 
L 350.751126 86.557674 
L 350.676129 87.092374 
L 349.948911 87.551263 
L 348.636573 87.94805 
L 341.287819 89.48228 
L 340.108143 89.978921 
L 339.58641 90.536009 
L 339.666676 91.138817 
L 340.976302 92.975035 
L 340.924507 93.519816 
L 340.413929 94.012112 
L 339.455462 94.457008 
L 336.586795 95.269925 
L 333.546681 96.120383 
L 332.416872 96.600064 
L 331.712823 97.121813 
L 331.43155 97.678516 
L 331.458635 98.255946 
L 331.67041 99.402368 
L 331.51537 99.940835 
L 331.049258 100.445318 
L 330.259444 100.917092 
L 327.94902 101.800259 
L 325.462843 102.693687 
L 324.468337 103.172538 
L 323.749496 103.678123 
L 323.29769 104.206991 
L 322.892279 105.298461 
L 322.696284 105.839173 
L 322.369787 106.364208 
L 321.850733 106.868998 
L 320.237597 107.822699 
L 316.39695 109.694965 
L 315.145311 110.701578 
L 312.872559 113.273889 
L 311.444847 114.244236 
L 307.519027 116.642121 
L 305.820142 118.144232 
L 304.162717 119.64175 
L 302.092836 121.095961 
L 299.24491 123.026255 
L 288.411556 131.321826 
L 282.568876 135.715736 
L 281.941573 136.203293 
L 277.510741 136.750291 
L 282.468228 137.235534 
L 281.823495 137.720464 
L 277.805207 138.692192 
L 277.02736 139.179956 
L 276.739042 140.159174 
L 276.234512 140.649607 
L 273.971621 142.115879 
L 271.467347 144.051719 
L 268.804099 145.989169 
L 262.459107 150.820411 
L 259.224511 153.227859 
L 254.833672 156.588791 
L 251.565053 158.981992 
L 247.21546 162.335947 
L 242.745176 165.675181 
L 238.342493 169.006168 
L 232.086272 173.751671 
L 204.143539 194.838769 
L 190.008338 205.53671 
L 186.022197 206.058414 
L 190.319673 206.522394 
L 189.829254 206.986675 
L 186.324005 207.915764 
L 185.57843 208.380163 
L 185.199947 209.307663 
L 184.704957 209.770554 
L 181.923796 211.618922 
L 179.572971 213.466393 
L 163.28136 225.836975 
L 146.048346 238.985474 
L 132.537307 249.297589 
L 122.073556 257.312557 
L 113.959839 263.529204 
L 109.894471 266.629415 
L 103.542648 271.493613 
L 100.174956 271.991253 
L 103.646182 272.434152 
L 103.254424 272.876948 
L 100.349455 273.759808 
L 99.609705 274.199216 
L 99.028253 275.075371 
L 98.537752 275.513461 
L 96.033915 277.274415 
L 94.4966 278.591501 
L 90.404692 281.652052 
L 88.260357 283.39571 
L 85.215724 285.570656 
L 82.709841 287.746229 
L 79.465941 289.911739 
L 77.943319 291.657984 
L 77.3066 292.078393 
L 73.924627 293.799722 
L 73.832727 294.24956 
L 74.50739 294.682582 
L 76.112199 295.064426 
L 78.707227 295.34975 
L 82.218104 295.488 
L 86.255974 295.432572 
L 89.995273 295.150595 
L 92.294203 294.632571 
L 92.467548 293.898277 
L 90.896017 292.997759 
L 81.089697 288.828039 
L 81.16603 288.499637 
L 83.039497 288.345643 
L 94.367383 288.158501 
L 98.40198 287.90115 
L 101.352231 287.44858 
L 102.171423 286.795965 
L 100.701949 285.978968 
L 92.718479 283.296541 
L 91.123054 282.59495 
L 90.567483 282.074748 
L 91.478368 281.733611 
L 93.87177 281.531857 
L 104.895825 281.034054 
L 108.06359 280.662477 
L 109.803239 280.121175 
L 109.63621 279.420896 
L 107.921906 278.605283 
L 103.380088 276.902814 
L 101.720078 276.158108 
L 100.832296 275.552628 
L 101.029222 275.101695 
L 102.513289 274.787833 
L 108.343379 274.371222 
L 111.732591 274.137908 
L 114.761196 273.808748 
L 116.87185 273.348752 
L 117.592281 272.751642 
L 116.917635 272.040163 
L 111.111587 269.08747 
L 110.928711 268.564518 
L 111.753732 268.160888 
L 113.594416 267.850035 
L 121.813621 266.992698 
L 123.952053 266.575191 
L 125.111882 266.049783 
L 125.16639 265.424586 
L 124.359278 264.728514 
L 121.963896 263.299314 
L 121.121429 262.654402 
L 120.849193 262.096351 
L 121.334136 261.632245 
L 122.628154 261.249029 
L 126.937981 260.596997 
L 129.267319 260.24912 
L 131.223789 259.841212 
L 132.508515 259.355488 
L 132.98927 258.791629 
L 132.763899 258.166054 
L 130.792315 256.227545 
L 130.60126 255.662236 
L 130.94748 255.164764 
L 131.899046 254.730267 
L 135.214695 253.969505 
L 138.799366 253.169022 
L 140.040096 252.698494 
L 140.724917 252.171804 
L 140.883239 251.597419 
L 140.681498 250.9936 
L 140.065944 249.792322 
L 140.043047 249.236871 
L 144.055919 248.666723 
L 139.140259 248.206805 
L 140.476533 247.779133 
L 146.306368 246.946736 
L 147.774225 246.504565 
L 148.248879 246.028061 
L 148.562539 244.968573 
L 149.02687 243.833609 
L 149.340826 242.740756 
L 149.727604 242.235449 
L 150.440128 241.758667 
L 152.653029 240.858541 
L 154.960864 239.951163 
L 155.845266 239.470482 
L 156.502466 238.967305 
L 156.956458 238.444732 
L 158.213934 236.322432 
L 158.764838 235.821235 
L 160.321512 234.864983 
L 163.87551 232.978959 
L 165.084785 231.978154 
L 167.528598 229.439791 
L 168.954876 228.474115 
L 172.05342 226.559913 
L 173.292352 225.573335 
L 176.102108 223.091932 
L 182.111071 218.71094 
L 183.964506 217.239633 
L 188.647658 213.820767 
L 191.773291 211.371832 
L 195.784361 208.440483 
L 199.519483 205.504506 
L 204.738888 201.615202 
L 208.498561 198.708042 
L 213.057137 195.329106 
L 216.113343 192.916038 
L 221.306738 189.072504 
L 224.405203 186.670461 
L 228.307656 183.801969 
L 233.302724 179.97559 
L 235.859697 178.072891 
L 239.83293 177.536445 
L 239.83293 177.536445 
" clip-path="url(#p05d079059a)" style="fill: none; stroke: #1f77b4; stroke-width: 1.5; stroke-linecap: square"/>
   </g>
   <g id="line2d_22">
    <path d="M 236.08222 177.476808 
L 266.489208 154.393676 
L 270.843098 151.12179 
L 274.589228 148.323237 
L 278.86992 145.05163 
L 381.695857 66.8541 
L 383.54693 65.54793 
L 385.436607 64.246118 
L 388.604603 61.611079 
L 391.34364 59.891025 
L 392.224925 59.006576 
L 392.963686 58.119022 
L 393.491454 57.684375 
L 395.101606 56.838719 
L 396.912839 55.992967 
L 397.404824 55.554035 
L 397.304283 55.104053 
L 396.442011 54.655431 
L 394.776469 54.234156 
L 392.430921 53.879707 
L 389.694456 53.640772 
L 386.982414 53.568 
L 384.75952 53.70418 
L 383.443372 54.074204 
L 383.306355 54.676603 
L 384.403002 55.479662 
L 386.538333 56.422909 
L 394.314595 59.247221 
L 395.439375 59.921863 
L 395.129128 60.388804 
L 393.320979 60.657962 
L 386.363389 60.819816 
L 378.744014 61.031477 
L 376.201342 61.348516 
L 375.016951 61.858416 
L 375.243592 62.553207 
L 376.887532 63.499366 
L 382.961957 66.073621 
L 383.635779 66.704162 
L 383.062333 67.161534 
L 381.260813 67.461614 
L 375.230351 67.801896 
L 371.992774 67.986053 
L 369.296983 68.27045 
L 367.521608 68.698357 
L 366.841255 69.2821 
L 367.19821 70.001734 
L 368.323756 70.809812 
L 371.165857 72.432395 
L 371.988726 73.123912 
L 371.979359 73.683094 
L 371.033317 74.10458 
L 369.247528 74.411701 
L 362.00291 75.15737 
L 360.21008 75.530114 
L 359.17114 76.022507 
L 358.922741 76.633367 
L 359.330947 77.337005 
L 361.538101 79.531836 
L 361.561064 80.136203 
L 360.915036 80.634228 
L 359.62124 81.03267 
L 355.82613 81.65372 
L 352.254924 82.327995 
L 351.145967 82.77507 
L 350.613128 83.31299 
L 350.594032 83.930687 
L 351.657658 85.949576 
L 351.621528 86.557674 
L 351.126962 87.092374 
L 350.158114 87.551263 
L 347.222613 88.308541 
L 344.206351 89.048198 
L 343.114857 89.48228 
L 342.420662 89.978921 
L 342.104396 90.536009 
L 342.065949 91.138817 
L 342.183005 92.384064 
L 342.010979 92.975035 
L 341.533184 93.519816 
L 340.721232 94.012112 
L 338.34352 94.86937 
L 335.821733 95.68077 
L 334.834746 96.120383 
L 334.125585 96.600064 
L 333.686402 97.121813 
L 333.301933 98.255946 
L 333.120615 98.836343 
L 332.793772 99.402368 
L 332.249834 99.940835 
L 331.470648 100.445318 
L 329.398532 101.364438 
L 327.264842 102.239077 
L 326.400674 102.693687 
L 325.72944 103.172538 
L 324.870524 104.206991 
L 324.192142 105.298461 
L 323.727944 105.839173 
L 323.118631 106.364208 
L 321.49081 107.353687 
L 318.034607 109.213213 
L 316.8688 110.191636 
L 314.881617 112.261824 
L 313.487412 113.273889 
L 308.994339 116.152389 
L 305.602084 119.147119 
L 300.032758 123.026255 
L 297.75747 124.993198 
L 295.554389 126.45953 
L 293.352875 127.913422 
L 291.576391 129.372156 
L 289.847526 130.834994 
L 287.741214 132.294658 
L 284.869187 134.247439 
L 278.403937 139.179956 
L 275.740792 141.139622 
L 271.402614 144.534777 
L 266.803117 147.934382 
L 263.067592 150.820411 
L 259.122853 153.711346 
L 254.727522 157.065398 
L 250.221175 160.425867 
L 244.475741 164.718117 
L 232.566829 173.751671 
L 228.116303 177.053507 
L 207.764378 192.513711 
L 96.31588 277.274415 
L 94.04439 279.027593 
L 91.144161 281.212482 
L 88.940528 282.962795 
L 85.911098 285.131615 
L 83.303818 287.317407 
L 80.098158 289.470508 
L 78.439674 291.230871 
L 76.981249 292.078393 
L 75.164079 292.919811 
L 74.530609 293.353761 
L 74.391514 293.799722 
L 74.947942 294.24956 
L 76.29961 294.682582 
L 78.396503 295.064426 
L 81.019168 295.34975 
L 83.799249 295.488 
L 86.280182 295.432572 
L 88.007381 295.150595 
L 88.630463 294.632571 
L 87.992144 293.898277 
L 86.182989 292.997759 
L 80.613015 291.013542 
L 78.025869 290.109028 
L 76.385442 289.366092 
L 76.134807 288.828039 
L 77.457238 288.499637 
L 80.229915 288.345643 
L 92.215512 288.158501 
L 95.236696 287.90115 
L 96.88898 287.44858 
L 97.013597 286.795965 
L 95.767549 285.978968 
L 93.586556 285.06586 
L 88.943199 283.296541 
L 87.726718 282.59495 
L 87.808262 282.074748 
L 89.275724 281.733611 
L 91.926687 281.531857 
L 101.994211 281.034054 
L 104.201101 280.662477 
L 105.221036 280.121175 
L 105.039388 279.420896 
L 103.893098 278.605283 
L 99.318562 276.158108 
L 98.991974 275.552628 
L 99.718507 275.101695 
L 101.447784 274.787833 
L 111.526662 273.808748 
L 112.823813 273.348752 
L 113.194257 272.751642 
L 112.74433 272.040163 
L 109.698741 269.731251 
L 109.376193 269.08747 
L 109.832996 268.564518 
L 111.091354 268.160888 
L 115.272648 267.586817 
L 119.505209 266.992698 
L 120.864124 266.575191 
L 121.511612 266.049783 
L 121.485376 265.424586 
L 120.96699 264.728514 
L 119.60904 263.299314 
L 119.362693 262.654402 
L 119.682141 262.096351 
L 120.621133 261.632245 
L 122.097013 261.249029 
L 127.521783 260.24912 
L 128.831665 259.841212 
L 129.623664 259.355488 
L 129.898728 258.791629 
L 129.77074 258.166054 
L 129.129181 256.850526 
L 129.064753 256.227545 
L 129.396239 255.662236 
L 130.182137 255.164764 
L 131.377618 254.730267 
L 137.020429 253.169022 
L 137.81251 252.698494 
L 138.221673 252.171804 
L 138.326262 251.597419 
L 138.224683 250.384051 
L 138.353702 249.792322 
L 138.772066 249.236871 
L 139.640266 248.666723 
L 141.989079 247.779133 
L 144.49478 246.946736 
L 145.475831 246.504565 
L 146.180704 246.028061 
L 146.618675 245.514256 
L 147.015017 244.403131 
L 147.208546 243.833609 
L 147.547601 243.275492 
L 148.098942 242.740756 
L 148.875457 242.235449 
L 150.90187 241.303444 
L 152.949968 240.411466 
L 154.410669 239.470482 
L 155.250152 238.444732 
L 155.961976 237.372111 
L 156.450052 236.840588 
L 157.849294 235.821235 
L 162.113806 233.461999 
L 163.225714 232.483846 
L 165.138444 230.439639 
L 166.549419 229.439791 
L 170.512325 227.044259 
L 171.628348 226.06932 
L 173.701961 224.075853 
L 175.138235 223.091932 
L 178.951258 220.675324 
L 180.568875 219.204054 
L 181.665015 218.218653 
L 183.01489 217.239633 
L 187.429936 214.31278 
L 191.625922 210.885587 
L 195.824922 207.948223 
L 200.097188 204.536365 
L 204.766192 201.12692 
L 208.431909 198.228002 
L 213.05593 194.843407 
L 216.13464 192.438363 
L 221.346913 188.588863 
L 225.134666 185.71763 
L 230.243882 181.881141 
L 236.003449 177.536445 
L 236.003449 177.536445 
" clip-path="url(#p05d079059a)" style="fill: none; stroke: #ff7f0e; stroke-opacity: 0.5; stroke-width: 1.5; stroke-linecap: square"/>
   </g>
   <g id="patch_3">
    <path d="M 57.6 307.584 
L 57.6 41.472 
" style="fill: none; stroke: #000000; stroke-width: 0.8; stroke-linejoin: miter; stroke-linecap: square"/>
   </g>
   <g id="patch_4">
    <path d="M 414.72 307.584 
L 414.72 41.472 
" style="fill: none; stroke: #000000; stroke-width: 0.8; stroke-linejoin: miter; stroke-linecap: square"/>
   </g>
   <g id="patch_5">
    <path d="M 57.6 307.584 
L 414.72 307.584 
" style="fill: none; stroke: #000000; stroke-width: 0.8; stroke-linejoin: miter; stroke-linecap: square"/>
   </g>
   <g id="patch_6">
    <path d="M 57.6 41.472 
L 414.72 41.472 
" style="fill: none; stroke: #000000; stroke-width: 0.8; stroke-linejoin: miter; stroke-linecap: square"/>
   </g>
   <g id="text_13">
    <!-- Compare - Epoch 600 -->
    <g transform="translate(171.234375 35.472) scale(0.12 -0.12)">
     <defs>
      <path id="DejaVuSans-43" d="M 4122 4306 
L 4122 3641 
Q 3803 3938 3442 4084 
Q 3081 4231 2675 4231 
Q 1875 4231 1450 3742 
Q 1025 3253 1025 2328 
Q 1025 1406 1450 917 
Q 1875 428 2675 428 
Q 3081 428 3442 575 
Q 3803 722 4122 1019 
L 4122 359 
Q 3791 134 3420 21 
Q 3050 -91 2638 -91 
Q 1578 -91 968 557 
Q 359 1206 359 2328 
Q 359 3453 968 4101 
Q 1578 4750 2638 4750 
Q 3056 4750 3426 4639 
Q 3797 4528 4122 4306 
z
" transform="scale(0.015625)"/>
      <path id="DejaVuSans-6f" d="M 1959 3097 
Q 1497 3097 1228 2736 
Q 959 2375 959 1747 
Q 959 1119 1226 758 
Q 1494 397 1959 397 
Q 2419 397 2687 759 
Q 2956 1122 2956 1747 
Q 2956 2369 2687 2733 
Q 2419 3097 1959 3097 
z
M 1959 3584 
Q 2709 3584 3137 3096 
Q 3566 2609 3566 1747 
Q 3566 888 3137 398 
Q 2709 -91 1959 -91 
Q 1206 -91 779 398 
Q 353 888 353 1747 
Q 353 2609 779 3096 
Q 1206 3584 1959 3584 
z
" transform="scale(0.015625)"/>
      <path id="DejaVuSans-6d" d="M 3328 2828 
Q 3544 3216 3844 3400 
Q 4144 3584 4550 3584 
Q 5097 3584 5394 3201 
Q 5691 2819 5691 2113 
L 5691 0 
L 5113 0 
L 5113 2094 
Q 5113 2597 4934 2840 
Q 4756 3084 4391 3084 
Q 3944 3084 3684 2787 
Q 3425 2491 3425 1978 
L 3425 0 
L 2847 0 
L 2847 2094 
Q 2847 2600 2669 2842 
Q 2491 3084 2119 3084 
Q 1678 3084 1418 2786 
Q 1159 2488 1159 1978 
L 1159 0 
L 581 0 
L 581 3500 
L 1159 3500 
L 1159 2956 
Q 1356 3278 1631 3431 
Q 1906 3584 2284 3584 
Q 2666 3584 2933 3390 
Q 3200 3197 3328 2828 
z
" transform="scale(0.015625)"/>
      <path id="DejaVuSans-70" d="M 1159 525 
L 1159 -1331 
L 581 -1331 
L 581 3500 
L 1159 3500 
L 1159 2969 
Q 1341 3281 1617 3432 
Q 1894 3584 2278 3584 
Q 2916 3584 3314 3078 
Q 3713 2572 3713 1747 
Q 3713 922 3314 415 
Q 2916 -91 2278 -91 
Q 1894 -91 1617 61 
Q 1341 213 1159 525 
z
M 3116 1747 
Q 3116 2381 2855 2742 
Q 2594 3103 2138 3103 
Q 1681 3103 1420 2742 
Q 1159 2381 1159 1747 
Q 1159 1113 1420 752 
Q 1681 391 2138 391 
Q 2594 391 2855 752 
Q 3116 1113 3116 1747 
z
" transform="scale(0.015625)"/>
      <path id="DejaVuSans-72" d="M 2631 2963 
Q 2534 3019 2420 3045 
Q 2306 3072 2169 3072 
Q 1681 3072 1420 2755 
Q 1159 2438 1159 1844 
L 1159 0 
L 581 0 
L 581 3500 
L 1159 3500 
L 1159 2956 
Q 1341 3275 1631 3429 
Q 1922 3584 2338 3584 
Q 2397 3584 2469 3576 
Q 2541 3569 2628 3553 
L 2631 2963 
z
" transform="scale(0.015625)"/>
      <path id="DejaVuSans-20" transform="scale(0.015625)"/>
      <path id="DejaVuSans-2d" d="M 313 2009 
L 1997 2009 
L 1997 1497 
L 313 1497 
L 313 2009 
z
" transform="scale(0.015625)"/>
      <path id="DejaVuSans-45" d="M 628 4666 
L 3578 4666 
L 3578 4134 
L 1259 4134 
L 1259 2753 
L 3481 2753 
L 3481 2222 
L 1259 2222 
L 1259 531 
L 3634 531 
L 3634 0 
L 628 0 
L 628 4666 
z
" transform="scale(0.015625)"/>
      <path id="DejaVuSans-63" d="M 3122 3366 
L 3122 2828 
Q 2878 2963 2633 3030 
Q 2388 3097 2138 3097 
Q 1578 3097 1268 2742 
Q 959 2388 959 1747 
Q 959 1106 1268 751 
Q 1578 397 2138 397 
Q 2388 397 2633 464 
Q 2878 531 3122 666 
L 3122 134 
Q 2881 22 2623 -34 
Q 2366 -91 2075 -91 
Q 1284 -91 818 406 
Q 353 903 353 1747 
Q 353 2603 823 3093 
Q 1294 3584 2113 3584 
Q 2378 3584 2631 3529 
Q 2884 3475 3122 3366 
z
" transform="scale(0.015625)"/>
      <path id="DejaVuSans-68" d="M 3513 2113 
L 3513 0 
L 2938 0 
L 2938 2094 
Q 2938 2591 2744 2837 
Q 2550 3084 2163 3084 
Q 1697 3084 1428 2787 
Q 1159 2491 1159 1978 
L 1159 0 
L 581 0 
L 581 4863 
L 1159 4863 
L 1159 2956 
Q 1366 3272 1645 3428 
Q 1925 3584 2291 3584 
Q 2894 3584 3203 3211 
Q 3513 2838 3513 2113 
z
" transform="scale(0.015625)"/>
      <path id="DejaVuSans-36" d="M 2113 2584 
Q 1688 2584 1439 2293 
Q 1191 2003 1191 1497 
Q 1191 994 1439 701 
Q 1688 409 2113 409 
Q 2538 409 2786 701 
Q 3034 994 3034 1497 
Q 3034 2003 2786 2293 
Q 2538 2584 2113 2584 
z
M 3366 4563 
L 3366 3988 
Q 3128 4100 2886 4159 
Q 2644 4219 2406 4219 
Q 1781 4219 1451 3797 
Q 1122 3375 1075 2522 
Q 1259 2794 1537 2939 
Q 1816 3084 2150 3084 
Q 2853 3084 3261 2657 
Q 3669 2231 3669 1497 
Q 3669 778 3244 343 
Q 2819 -91 2113 -91 
Q 1303 -91 875 529 
Q 447 1150 447 2328 
Q 447 3434 972 4092 
Q 1497 4750 2381 4750 
Q 2619 4750 2861 4703 
Q 3103 4656 3366 4563 
z
" transform="scale(0.015625)"/>
     </defs>
     <use xlink:href="#DejaVuSans-43"/>
     <use xlink:href="#DejaVuSans-6f" transform="translate(69.824219 0)"/>
     <use xlink:href="#DejaVuSans-6d" transform="translate(131.005859 0)"/>
     <use xlink:href="#DejaVuSans-70" transform="translate(228.417969 0)"/>
     <use xlink:href="#DejaVuSans-61" transform="translate(291.894531 0)"/>
     <use xlink:href="#DejaVuSans-72" transform="translate(353.173828 0)"/>
     <use xlink:href="#DejaVuSans-65" transform="translate(392.037109 0)"/>
     <use xlink:href="#DejaVuSans-20" transform="translate(453.560547 0)"/>
     <use xlink:href="#DejaVuSans-2d" transform="translate(485.347656 0)"/>
     <use xlink:href="#DejaVuSans-20" transform="translate(521.431641 0)"/>
     <use xlink:href="#DejaVuSans-45" transform="translate(553.21875 0)"/>
     <use xlink:href="#DejaVuSans-70" transform="translate(616.402344 0)"/>
     <use xlink:href="#DejaVuSans-6f" transform="translate(679.878906 0)"/>
     <use xlink:href="#DejaVuSans-63" transform="translate(741.060547 0)"/>
     <use xlink:href="#DejaVuSans-68" transform="translate(796.041016 0)"/>
     <use xlink:href="#DejaVuSans-20" transform="translate(859.419922 0)"/>
     <use xlink:href="#DejaVuSans-36" transform="translate(891.207031 0)"/>
     <use xlink:href="#DejaVuSans-30" transform="translate(954.830078 0)"/>
     <use xlink:href="#DejaVuSans-30" transform="translate(1018.453125 0)"/>
    </g>
   </g>
   <g id="legend_1">
    <g id="patch_7">
     <path d="M 64.6 78.82825 
L 181.128125 78.82825 
Q 183.128125 78.82825 183.128125 76.82825 
L 183.128125 48.472 
Q 183.128125 46.472 181.128125 46.472 
L 64.6 46.472 
Q 62.6 46.472 62.6 48.472 
L 62.6 76.82825 
Q 62.6 78.82825 64.6 78.82825 
z
" style="fill: #ffffff; opacity: 0.8; stroke: #cccccc; stroke-linejoin: miter"/>
    </g>
    <g id="line2d_23">
     <path d="M 66.6 54.570437 
L 76.6 54.570437 
L 86.6 54.570437 
" style="fill: none; stroke: #1f77b4; stroke-width: 1.5; stroke-linecap: square"/>
    </g>
    <g id="text_14">
     <!-- Pred: Sample 1 -->
     <g transform="translate(94.6 58.070437) scale(0.1 -0.1)">
      <defs>
       <path id="DejaVuSans-50" d="M 1259 4147 
L 1259 2394 
L 2053 2394 
Q 2494 2394 2734 2622 
Q 2975 2850 2975 3272 
Q 2975 3691 2734 3919 
Q 2494 4147 2053 4147 
L 1259 4147 
z
M 628 4666 
L 2053 4666 
Q 2838 4666 3239 4311 
Q 3641 3956 3641 3272 
Q 3641 2581 3239 2228 
Q 2838 1875 2053 1875 
L 1259 1875 
L 1259 0 
L 628 0 
L 628 4666 
z
" transform="scale(0.015625)"/>
       <path id="DejaVuSans-3a" d="M 750 794 
L 1409 794 
L 1409 0 
L 750 0 
L 750 794 
z
M 750 3309 
L 1409 3309 
L 1409 2516 
L 750 2516 
L 750 3309 
z
" transform="scale(0.015625)"/>
       <path id="DejaVuSans-53" d="M 3425 4513 
L 3425 3897 
Q 3066 4069 2747 4153 
Q 2428 4238 2131 4238 
Q 1616 4238 1336 4038 
Q 1056 3838 1056 3469 
Q 1056 3159 1242 3001 
Q 1428 2844 1947 2747 
L 2328 2669 
Q 3034 2534 3370 2195 
Q 3706 1856 3706 1288 
Q 3706 609 3251 259 
Q 2797 -91 1919 -91 
Q 1588 -91 1214 -16 
Q 841 59 441 206 
L 441 856 
Q 825 641 1194 531 
Q 1563 422 1919 422 
Q 2459 422 2753 634 
Q 3047 847 3047 1241 
Q 3047 1584 2836 1778 
Q 2625 1972 2144 2069 
L 1759 2144 
Q 1053 2284 737 2584 
Q 422 2884 422 3419 
Q 422 4038 858 4394 
Q 1294 4750 2059 4750 
Q 2388 4750 2728 4690 
Q 3069 4631 3425 4513 
z
" transform="scale(0.015625)"/>
      </defs>
      <use xlink:href="#DejaVuSans-50"/>
      <use xlink:href="#DejaVuSans-72" transform="translate(58.552734 0)"/>
      <use xlink:href="#DejaVuSans-65" transform="translate(97.416016 0)"/>
      <use xlink:href="#DejaVuSans-64" transform="translate(158.939453 0)"/>
      <use xlink:href="#DejaVuSans-3a" transform="translate(222.416016 0)"/>
      <use xlink:href="#DejaVuSans-20" transform="translate(256.107422 0)"/>
      <use xlink:href="#DejaVuSans-53" transform="translate(287.894531 0)"/>
      <use xlink:href="#DejaVuSans-61" transform="translate(351.371094 0)"/>
      <use xlink:href="#DejaVuSans-6d" transform="translate(412.650391 0)"/>
      <use xlink:href="#DejaVuSans-70" transform="translate(510.0625 0)"/>
      <use xlink:href="#DejaVuSans-6c" transform="translate(573.539062 0)"/>
      <use xlink:href="#DejaVuSans-65" transform="translate(601.322266 0)"/>
      <use xlink:href="#DejaVuSans-20" transform="translate(662.845703 0)"/>
      <use xlink:href="#DejaVuSans-31" transform="translate(694.632812 0)"/>
     </g>
    </g>
    <g id="line2d_24">
     <path d="M 66.6 69.248562 
L 76.6 69.248562 
L 86.6 69.248562 
" style="fill: none; stroke: #ff7f0e; stroke-opacity: 0.5; stroke-width: 1.5; stroke-linecap: square"/>
    </g>
    <g id="text_15">
     <!-- Target: Sample 1 -->
     <g transform="translate(94.6 72.748562) scale(0.1 -0.1)">
      <defs>
       <path id="DejaVuSans-54" d="M -19 4666 
L 3928 4666 
L 3928 4134 
L 2272 4134 
L 2272 0 
L 1638 0 
L 1638 4134 
L -19 4134 
L -19 4666 
z
" transform="scale(0.015625)"/>
       <path id="DejaVuSans-67" d="M 2906 1791 
Q 2906 2416 2648 2759 
Q 2391 3103 1925 3103 
Q 1463 3103 1205 2759 
Q 947 2416 947 1791 
Q 947 1169 1205 825 
Q 1463 481 1925 481 
Q 2391 481 2648 825 
Q 2906 1169 2906 1791 
z
M 3481 434 
Q 3481 -459 3084 -895 
Q 2688 -1331 1869 -1331 
Q 1566 -1331 1297 -1286 
Q 1028 -1241 775 -1147 
L 775 -588 
Q 1028 -725 1275 -790 
Q 1522 -856 1778 -856 
Q 2344 -856 2625 -561 
Q 2906 -266 2906 331 
L 2906 616 
Q 2728 306 2450 153 
Q 2172 0 1784 0 
Q 1141 0 747 490 
Q 353 981 353 1791 
Q 353 2603 747 3093 
Q 1141 3584 1784 3584 
Q 2172 3584 2450 3431 
Q 2728 3278 2906 2969 
L 2906 3500 
L 3481 3500 
L 3481 434 
z
" transform="scale(0.015625)"/>
       <path id="DejaVuSans-74" d="M 1172 4494 
L 1172 3500 
L 2356 3500 
L 2356 3053 
L 1172 3053 
L 1172 1153 
Q 1172 725 1289 603 
Q 1406 481 1766 481 
L 2356 481 
L 2356 0 
L 1766 0 
Q 1100 0 847 248 
Q 594 497 594 1153 
L 594 3053 
L 172 3053 
L 172 3500 
L 594 3500 
L 594 4494 
L 1172 4494 
z
" transform="scale(0.015625)"/>
      </defs>
      <use xlink:href="#DejaVuSans-54"/>
      <use xlink:href="#DejaVuSans-61" transform="translate(44.583984 0)"/>
      <use xlink:href="#DejaVuSans-72" transform="translate(105.863281 0)"/>
      <use xlink:href="#DejaVuSans-67" transform="translate(145.226562 0)"/>
      <use xlink:href="#DejaVuSans-65" transform="translate(208.703125 0)"/>
      <use xlink:href="#DejaVuSans-74" transform="translate(270.226562 0)"/>
      <use xlink:href="#DejaVuSans-3a" transform="translate(309.435547 0)"/>
      <use xlink:href="#DejaVuSans-20" transform="translate(343.126953 0)"/>
      <use xlink:href="#DejaVuSans-53" transform="translate(374.914062 0)"/>
      <use xlink:href="#DejaVuSans-61" transform="translate(438.390625 0)"/>
      <use xlink:href="#DejaVuSans-6d" transform="translate(499.669922 0)"/>
      <use xlink:href="#DejaVuSans-70" transform="translate(597.082031 0)"/>
      <use xlink:href="#DejaVuSans-6c" transform="translate(660.558594 0)"/>
      <use xlink:href="#DejaVuSans-65" transform="translate(688.341797 0)"/>
      <use xlink:href="#DejaVuSans-20" transform="translate(749.865234 0)"/>
      <use xlink:href="#DejaVuSans-31" transform="translate(781.652344 0)"/>
     </g>
    </g>
   </g>
  </g>
 </g>
 <defs>
  <clipPath id="p05d079059a">
   <rect x="57.6" y="41.472" width="357.12" height="266.112"/>
  </clipPath>
 </defs>
</svg>
