<?xml version="1.0" encoding="utf-8" standalone="no"?>
<!DOCTYPE svg PUBLIC "-//W3C//DTD SVG 1.1//EN"
  "http://www.w3.org/Graphics/SVG/1.1/DTD/svg11.dtd">
<svg xmlns:xlink="http://www.w3.org/1999/xlink" width="460.8pt" height="345.6pt" viewBox="0 0 460.8 345.6" xmlns="http://www.w3.org/2000/svg" version="1.1">
 <metadata>
  <rdf:RDF xmlns:dc="http://purl.org/dc/elements/1.1/" xmlns:cc="http://creativecommons.org/ns#" xmlns:rdf="http://www.w3.org/1999/02/22-rdf-syntax-ns#">
   <cc:Work>
    <dc:type rdf:resource="http://purl.org/dc/dcmitype/StillImage"/>
    <dc:date>2025-04-16T05:31:43.126174</dc:date>
    <dc:format>image/svg+xml</dc:format>
    <dc:creator>
     <cc:Agent>
      <dc:title>Matplotlib v3.10.0, https://matplotlib.org/</dc:title>
     </cc:Agent>
    </dc:creator>
   </cc:Work>
  </rdf:RDF>
 </metadata>
 <defs>
  <style type="text/css">*{stroke-linejoin: round; stroke-linecap: butt}</style>
 </defs>
 <g id="figure_1">
  <g id="patch_1">
   <path d="M 0 345.6 
L 460.8 345.6 
L 460.8 0 
L 0 0 
z
" style="fill: #ffffff"/>
  </g>
  <g id="axes_1">
   <g id="patch_2">
    <path d="M 57.6 307.584 
L 414.72 307.584 
L 414.72 41.472 
L 57.6 41.472 
z
" style="fill: #ffffff"/>
   </g>
   <g id="matplotlib.axis_1">
    <g id="xtick_1">
     <g id="line2d_1">
      <path d="M 96.959972 307.584 
L 96.959972 41.472 
" clip-path="url(#pd90589e536)" style="fill: none; stroke: #b0b0b0; stroke-opacity: 0.5; stroke-width: 0.8; stroke-linecap: square"/>
     </g>
     <g id="line2d_2">
      <defs>
       <path id="mbfad180fe3" d="M 0 0 
L 0 3.5 
" style="stroke: #000000; stroke-width: 0.8"/>
      </defs>
      <g>
       <use xlink:href="#mbfad180fe3" x="96.959972" y="307.584" style="stroke: #000000; stroke-width: 0.8"/>
      </g>
     </g>
     <g id="text_1">
      <!-- −1.0 -->
      <g transform="translate(84.818566 322.182437) scale(0.1 -0.1)">
       <defs>
        <path id="DejaVuSans-2212" d="M 678 2272 
L 4684 2272 
L 4684 1741 
L 678 1741 
L 678 2272 
z
" transform="scale(0.015625)"/>
        <path id="DejaVuSans-31" d="M 794 531 
L 1825 531 
L 1825 4091 
L 703 3866 
L 703 4441 
L 1819 4666 
L 2450 4666 
L 2450 531 
L 3481 531 
L 3481 0 
L 794 0 
L 794 531 
z
" transform="scale(0.015625)"/>
        <path id="DejaVuSans-2e" d="M 684 794 
L 1344 794 
L 1344 0 
L 684 0 
L 684 794 
z
" transform="scale(0.015625)"/>
        <path id="DejaVuSans-30" d="M 2034 4250 
Q 1547 4250 1301 3770 
Q 1056 3291 1056 2328 
Q 1056 1369 1301 889 
Q 1547 409 2034 409 
Q 2525 409 2770 889 
Q 3016 1369 3016 2328 
Q 3016 3291 2770 3770 
Q 2525 4250 2034 4250 
z
M 2034 4750 
Q 2819 4750 3233 4129 
Q 3647 3509 3647 2328 
Q 3647 1150 3233 529 
Q 2819 -91 2034 -91 
Q 1250 -91 836 529 
Q 422 1150 422 2328 
Q 422 3509 836 4129 
Q 1250 4750 2034 4750 
z
" transform="scale(0.015625)"/>
       </defs>
       <use xlink:href="#DejaVuSans-2212"/>
       <use xlink:href="#DejaVuSans-31" transform="translate(83.789062 0)"/>
       <use xlink:href="#DejaVuSans-2e" transform="translate(147.412109 0)"/>
       <use xlink:href="#DejaVuSans-30" transform="translate(179.199219 0)"/>
      </g>
     </g>
    </g>
    <g id="xtick_2">
     <g id="line2d_3">
      <path d="M 166.119419 307.584 
L 166.119419 41.472 
" clip-path="url(#pd90589e536)" style="fill: none; stroke: #b0b0b0; stroke-opacity: 0.5; stroke-width: 0.8; stroke-linecap: square"/>
     </g>
     <g id="line2d_4">
      <g>
       <use xlink:href="#mbfad180fe3" x="166.119419" y="307.584" style="stroke: #000000; stroke-width: 0.8"/>
      </g>
     </g>
     <g id="text_2">
      <!-- −0.5 -->
      <g transform="translate(153.978013 322.182437) scale(0.1 -0.1)">
       <defs>
        <path id="DejaVuSans-35" d="M 691 4666 
L 3169 4666 
L 3169 4134 
L 1269 4134 
L 1269 2991 
Q 1406 3038 1543 3061 
Q 1681 3084 1819 3084 
Q 2600 3084 3056 2656 
Q 3513 2228 3513 1497 
Q 3513 744 3044 326 
Q 2575 -91 1722 -91 
Q 1428 -91 1123 -41 
Q 819 9 494 109 
L 494 744 
Q 775 591 1075 516 
Q 1375 441 1709 441 
Q 2250 441 2565 725 
Q 2881 1009 2881 1497 
Q 2881 1984 2565 2268 
Q 2250 2553 1709 2553 
Q 1456 2553 1204 2497 
Q 953 2441 691 2322 
L 691 4666 
z
" transform="scale(0.015625)"/>
       </defs>
       <use xlink:href="#DejaVuSans-2212"/>
       <use xlink:href="#DejaVuSans-30" transform="translate(83.789062 0)"/>
       <use xlink:href="#DejaVuSans-2e" transform="translate(147.412109 0)"/>
       <use xlink:href="#DejaVuSans-35" transform="translate(179.199219 0)"/>
      </g>
     </g>
    </g>
    <g id="xtick_3">
     <g id="line2d_5">
      <path d="M 235.278866 307.584 
L 235.278866 41.472 
" clip-path="url(#pd90589e536)" style="fill: none; stroke: #b0b0b0; stroke-opacity: 0.5; stroke-width: 0.8; stroke-linecap: square"/>
     </g>
     <g id="line2d_6">
      <g>
       <use xlink:href="#mbfad180fe3" x="235.278866" y="307.584" style="stroke: #000000; stroke-width: 0.8"/>
      </g>
     </g>
     <g id="text_3">
      <!-- 0.0 -->
      <g transform="translate(227.327304 322.182437) scale(0.1 -0.1)">
       <use xlink:href="#DejaVuSans-30"/>
       <use xlink:href="#DejaVuSans-2e" transform="translate(63.623047 0)"/>
       <use xlink:href="#DejaVuSans-30" transform="translate(95.410156 0)"/>
      </g>
     </g>
    </g>
    <g id="xtick_4">
     <g id="line2d_7">
      <path d="M 304.438314 307.584 
L 304.438314 41.472 
" clip-path="url(#pd90589e536)" style="fill: none; stroke: #b0b0b0; stroke-opacity: 0.5; stroke-width: 0.8; stroke-linecap: square"/>
     </g>
     <g id="line2d_8">
      <g>
       <use xlink:href="#mbfad180fe3" x="304.438314" y="307.584" style="stroke: #000000; stroke-width: 0.8"/>
      </g>
     </g>
     <g id="text_4">
      <!-- 0.5 -->
      <g transform="translate(296.486751 322.182437) scale(0.1 -0.1)">
       <use xlink:href="#DejaVuSans-30"/>
       <use xlink:href="#DejaVuSans-2e" transform="translate(63.623047 0)"/>
       <use xlink:href="#DejaVuSans-35" transform="translate(95.410156 0)"/>
      </g>
     </g>
    </g>
    <g id="xtick_5">
     <g id="line2d_9">
      <path d="M 373.597761 307.584 
L 373.597761 41.472 
" clip-path="url(#pd90589e536)" style="fill: none; stroke: #b0b0b0; stroke-opacity: 0.5; stroke-width: 0.8; stroke-linecap: square"/>
     </g>
     <g id="line2d_10">
      <g>
       <use xlink:href="#mbfad180fe3" x="373.597761" y="307.584" style="stroke: #000000; stroke-width: 0.8"/>
      </g>
     </g>
     <g id="text_5">
      <!-- 1.0 -->
      <g transform="translate(365.646198 322.182437) scale(0.1 -0.1)">
       <use xlink:href="#DejaVuSans-31"/>
       <use xlink:href="#DejaVuSans-2e" transform="translate(63.623047 0)"/>
       <use xlink:href="#DejaVuSans-30" transform="translate(95.410156 0)"/>
      </g>
     </g>
    </g>
    <g id="text_6">
     <!-- Index -->
     <g transform="translate(222.393594 335.860562) scale(0.1 -0.1)">
      <defs>
       <path id="DejaVuSans-49" d="M 628 4666 
L 1259 4666 
L 1259 0 
L 628 0 
L 628 4666 
z
" transform="scale(0.015625)"/>
       <path id="DejaVuSans-6e" d="M 3513 2113 
L 3513 0 
L 2938 0 
L 2938 2094 
Q 2938 2591 2744 2837 
Q 2550 3084 2163 3084 
Q 1697 3084 1428 2787 
Q 1159 2491 1159 1978 
L 1159 0 
L 581 0 
L 581 3500 
L 1159 3500 
L 1159 2956 
Q 1366 3272 1645 3428 
Q 1925 3584 2291 3584 
Q 2894 3584 3203 3211 
Q 3513 2838 3513 2113 
z
" transform="scale(0.015625)"/>
       <path id="DejaVuSans-64" d="M 2906 2969 
L 2906 4863 
L 3481 4863 
L 3481 0 
L 2906 0 
L 2906 525 
Q 2725 213 2448 61 
Q 2172 -91 1784 -91 
Q 1150 -91 751 415 
Q 353 922 353 1747 
Q 353 2572 751 3078 
Q 1150 3584 1784 3584 
Q 2172 3584 2448 3432 
Q 2725 3281 2906 2969 
z
M 947 1747 
Q 947 1113 1208 752 
Q 1469 391 1925 391 
Q 2381 391 2643 752 
Q 2906 1113 2906 1747 
Q 2906 2381 2643 2742 
Q 2381 3103 1925 3103 
Q 1469 3103 1208 2742 
Q 947 2381 947 1747 
z
" transform="scale(0.015625)"/>
       <path id="DejaVuSans-65" d="M 3597 1894 
L 3597 1613 
L 953 1613 
Q 991 1019 1311 708 
Q 1631 397 2203 397 
Q 2534 397 2845 478 
Q 3156 559 3463 722 
L 3463 178 
Q 3153 47 2828 -22 
Q 2503 -91 2169 -91 
Q 1331 -91 842 396 
Q 353 884 353 1716 
Q 353 2575 817 3079 
Q 1281 3584 2069 3584 
Q 2775 3584 3186 3129 
Q 3597 2675 3597 1894 
z
M 3022 2063 
Q 3016 2534 2758 2815 
Q 2500 3097 2075 3097 
Q 1594 3097 1305 2825 
Q 1016 2553 972 2059 
L 3022 2063 
z
" transform="scale(0.015625)"/>
       <path id="DejaVuSans-78" d="M 3513 3500 
L 2247 1797 
L 3578 0 
L 2900 0 
L 1881 1375 
L 863 0 
L 184 0 
L 1544 1831 
L 300 3500 
L 978 3500 
L 1906 2253 
L 2834 3500 
L 3513 3500 
z
" transform="scale(0.015625)"/>
      </defs>
      <use xlink:href="#DejaVuSans-49"/>
      <use xlink:href="#DejaVuSans-6e" transform="translate(29.492188 0)"/>
      <use xlink:href="#DejaVuSans-64" transform="translate(92.871094 0)"/>
      <use xlink:href="#DejaVuSans-65" transform="translate(156.347656 0)"/>
      <use xlink:href="#DejaVuSans-78" transform="translate(216.121094 0)"/>
     </g>
    </g>
   </g>
   <g id="matplotlib.axis_2">
    <g id="ytick_1">
     <g id="line2d_11">
      <path d="M 57.6 275.510055 
L 414.72 275.510055 
" clip-path="url(#pd90589e536)" style="fill: none; stroke: #b0b0b0; stroke-opacity: 0.5; stroke-width: 0.8; stroke-linecap: square"/>
     </g>
     <g id="line2d_12">
      <defs>
       <path id="m1dcc0fe6fd" d="M 0 0 
L -3.5 0 
" style="stroke: #000000; stroke-width: 0.8"/>
      </defs>
      <g>
       <use xlink:href="#m1dcc0fe6fd" x="57.6" y="275.510055" style="stroke: #000000; stroke-width: 0.8"/>
      </g>
     </g>
     <g id="text_7">
      <!-- −1.0 -->
      <g transform="translate(26.317187 279.309274) scale(0.1 -0.1)">
       <use xlink:href="#DejaVuSans-2212"/>
       <use xlink:href="#DejaVuSans-31" transform="translate(83.789062 0)"/>
       <use xlink:href="#DejaVuSans-2e" transform="translate(147.412109 0)"/>
       <use xlink:href="#DejaVuSans-30" transform="translate(179.199219 0)"/>
      </g>
     </g>
    </g>
    <g id="ytick_2">
     <g id="line2d_13">
      <path d="M 57.6 225.025611 
L 414.72 225.025611 
" clip-path="url(#pd90589e536)" style="fill: none; stroke: #b0b0b0; stroke-opacity: 0.5; stroke-width: 0.8; stroke-linecap: square"/>
     </g>
     <g id="line2d_14">
      <g>
       <use xlink:href="#m1dcc0fe6fd" x="57.6" y="225.025611" style="stroke: #000000; stroke-width: 0.8"/>
      </g>
     </g>
     <g id="text_8">
      <!-- −0.5 -->
      <g transform="translate(26.317187 228.82483) scale(0.1 -0.1)">
       <use xlink:href="#DejaVuSans-2212"/>
       <use xlink:href="#DejaVuSans-30" transform="translate(83.789062 0)"/>
       <use xlink:href="#DejaVuSans-2e" transform="translate(147.412109 0)"/>
       <use xlink:href="#DejaVuSans-35" transform="translate(179.199219 0)"/>
      </g>
     </g>
    </g>
    <g id="ytick_3">
     <g id="line2d_15">
      <path d="M 57.6 174.541168 
L 414.72 174.541168 
" clip-path="url(#pd90589e536)" style="fill: none; stroke: #b0b0b0; stroke-opacity: 0.5; stroke-width: 0.8; stroke-linecap: square"/>
     </g>
     <g id="line2d_16">
      <g>
       <use xlink:href="#m1dcc0fe6fd" x="57.6" y="174.541168" style="stroke: #000000; stroke-width: 0.8"/>
      </g>
     </g>
     <g id="text_9">
      <!-- 0.0 -->
      <g transform="translate(34.696875 178.340387) scale(0.1 -0.1)">
       <use xlink:href="#DejaVuSans-30"/>
       <use xlink:href="#DejaVuSans-2e" transform="translate(63.623047 0)"/>
       <use xlink:href="#DejaVuSans-30" transform="translate(95.410156 0)"/>
      </g>
     </g>
    </g>
    <g id="ytick_4">
     <g id="line2d_17">
      <path d="M 57.6 124.056724 
L 414.72 124.056724 
" clip-path="url(#pd90589e536)" style="fill: none; stroke: #b0b0b0; stroke-opacity: 0.5; stroke-width: 0.8; stroke-linecap: square"/>
     </g>
     <g id="line2d_18">
      <g>
       <use xlink:href="#m1dcc0fe6fd" x="57.6" y="124.056724" style="stroke: #000000; stroke-width: 0.8"/>
      </g>
     </g>
     <g id="text_10">
      <!-- 0.5 -->
      <g transform="translate(34.696875 127.855943) scale(0.1 -0.1)">
       <use xlink:href="#DejaVuSans-30"/>
       <use xlink:href="#DejaVuSans-2e" transform="translate(63.623047 0)"/>
       <use xlink:href="#DejaVuSans-35" transform="translate(95.410156 0)"/>
      </g>
     </g>
    </g>
    <g id="ytick_5">
     <g id="line2d_19">
      <path d="M 57.6 73.572281 
L 414.72 73.572281 
" clip-path="url(#pd90589e536)" style="fill: none; stroke: #b0b0b0; stroke-opacity: 0.5; stroke-width: 0.8; stroke-linecap: square"/>
     </g>
     <g id="line2d_20">
      <g>
       <use xlink:href="#m1dcc0fe6fd" x="57.6" y="73.572281" style="stroke: #000000; stroke-width: 0.8"/>
      </g>
     </g>
     <g id="text_11">
      <!-- 1.0 -->
      <g transform="translate(34.696875 77.371499) scale(0.1 -0.1)">
       <use xlink:href="#DejaVuSans-31"/>
       <use xlink:href="#DejaVuSans-2e" transform="translate(63.623047 0)"/>
       <use xlink:href="#DejaVuSans-30" transform="translate(95.410156 0)"/>
      </g>
     </g>
    </g>
    <g id="text_12">
     <!-- Value -->
     <g transform="translate(20.2375 188.25925) rotate(-90) scale(0.1 -0.1)">
      <defs>
       <path id="DejaVuSans-56" d="M 1831 0 
L 50 4666 
L 709 4666 
L 2188 738 
L 3669 4666 
L 4325 4666 
L 2547 0 
L 1831 0 
z
" transform="scale(0.015625)"/>
       <path id="DejaVuSans-61" d="M 2194 1759 
Q 1497 1759 1228 1600 
Q 959 1441 959 1056 
Q 959 750 1161 570 
Q 1363 391 1709 391 
Q 2188 391 2477 730 
Q 2766 1069 2766 1631 
L 2766 1759 
L 2194 1759 
z
M 3341 1997 
L 3341 0 
L 2766 0 
L 2766 531 
Q 2569 213 2275 61 
Q 1981 -91 1556 -91 
Q 1019 -91 701 211 
Q 384 513 384 1019 
Q 384 1609 779 1909 
Q 1175 2209 1959 2209 
L 2766 2209 
L 2766 2266 
Q 2766 2663 2505 2880 
Q 2244 3097 1772 3097 
Q 1472 3097 1187 3025 
Q 903 2953 641 2809 
L 641 3341 
Q 956 3463 1253 3523 
Q 1550 3584 1831 3584 
Q 2591 3584 2966 3190 
Q 3341 2797 3341 1997 
z
" transform="scale(0.015625)"/>
       <path id="DejaVuSans-6c" d="M 603 4863 
L 1178 4863 
L 1178 0 
L 603 0 
L 603 4863 
z
" transform="scale(0.015625)"/>
       <path id="DejaVuSans-75" d="M 544 1381 
L 544 3500 
L 1119 3500 
L 1119 1403 
Q 1119 906 1312 657 
Q 1506 409 1894 409 
Q 2359 409 2629 706 
Q 2900 1003 2900 1516 
L 2900 3500 
L 3475 3500 
L 3475 0 
L 2900 0 
L 2900 538 
Q 2691 219 2414 64 
Q 2138 -91 1772 -91 
Q 1169 -91 856 284 
Q 544 659 544 1381 
z
M 1991 3584 
L 1991 3584 
z
" transform="scale(0.015625)"/>
      </defs>
      <use xlink:href="#DejaVuSans-56"/>
      <use xlink:href="#DejaVuSans-61" transform="translate(60.658203 0)"/>
      <use xlink:href="#DejaVuSans-6c" transform="translate(121.9375 0)"/>
      <use xlink:href="#DejaVuSans-75" transform="translate(149.720703 0)"/>
      <use xlink:href="#DejaVuSans-65" transform="translate(213.099609 0)"/>
     </g>
    </g>
   </g>
   <g id="line2d_21">
    <path d="M 237.080348 177.476808 
L 237.88492 176.999573 
L 237.885147 176.522276 
L 238.453354 176.045229 
L 239.257707 175.568756 
L 241.27357 173.672084 
L 244.014668 171.780766 
L 249.5483 167.522541 
L 252.710219 165.168066 
L 256.381617 162.345221 
L 260.743635 159.067244 
L 268.190437 153.460114 
L 278.686618 145.518851 
L 282.440064 142.724748 
L 290.41646 136.679418 
L 299.526823 129.752465 
L 308.656569 122.874043 
L 313.478467 119.219855 
L 321.279793 113.300622 
L 325.453001 110.128156 
L 326.06459 109.675972 
L 329.982031 109.166861 
L 325.601153 108.714123 
L 326.220402 108.261444 
L 329.529353 107.357593 
L 330.291865 106.906853 
L 330.79636 106.007106 
L 331.264001 105.557406 
L 333.89464 103.755144 
L 336.144212 101.957726 
L 339.754019 99.267463 
L 342.660294 97.028832 
L 346.212646 94.346514 
L 349.156466 92.115971 
L 352.091523 89.884736 
L 355.023917 87.658616 
L 357.955832 85.429692 
L 360.241606 83.650678 
L 363.277302 81.429866 
L 366.052788 79.206268 
L 369.656725 76.549473 
L 371.843161 74.77747 
L 375.455763 72.132591 
L 377.588041 70.369266 
L 381.239227 67.737297 
L 383.268928 65.980808 
L 387.037514 63.364438 
L 388.87601 61.611079 
L 390.273015 60.754711 
L 391.788708 59.891025 
L 392.86263 59.006576 
L 393.775257 57.684375 
L 394.28173 57.258405 
L 395.039098 56.838719 
L 398.029887 55.554035 
L 398.487273 55.104053 
L 398.200498 54.655431 
L 396.965034 54.234156 
L 394.675848 53.879707 
L 391.414838 53.640772 
L 387.534259 53.568 
L 383.822559 53.70418 
L 381.379992 54.074204 
L 380.984951 54.676603 
L 382.356696 55.479662 
L 384.365901 56.422909 
L 385.982192 57.424544 
L 387.772342 59.247221 
L 388.82008 59.921863 
L 389.866927 60.388804 
L 390.000487 60.657962 
L 388.421576 60.776509 
L 376.029527 61.031477 
L 372.490861 61.348516 
L 371.088612 61.858416 
L 372.047895 62.553207 
L 368.409579 63.499366 
L 379.657645 64.406756 
L 381.797755 65.290098 
L 380.592005 66.073621 
L 378.97291 66.704162 
L 378.339209 67.161534 
L 378.115026 67.461614 
L 376.926259 67.652127 
L 366.27984 68.27045 
L 363.812408 68.698357 
L 363.396146 69.2821 
L 364.684176 70.001734 
L 366.648218 70.809812 
L 368.290916 71.642384 
L 369.225697 72.432395 
L 369.591305 73.123912 
L 369.608569 73.683094 
L 369.185719 74.10458 
L 367.972384 74.411701 
L 362.802381 74.879569 
L 359.674816 75.15737 
L 357.167168 75.530114 
L 355.902866 76.022507 
L 356.009631 76.633367 
L 359.268439 78.837352 
L 359.74989 79.531836 
L 359.803355 80.136203 
L 359.458828 80.634228 
L 358.579838 81.03267 
L 357.018686 81.358791 
L 350.113441 82.327995 
L 348.600922 82.77507 
L 348.055008 83.31299 
L 348.340324 83.930687 
L 349.712373 85.286736 
L 350.099738 85.949576 
L 350.131133 86.557674 
L 349.801776 87.092374 
L 349.085886 87.551263 
L 347.914193 87.94805 
L 341.187869 89.48228 
L 340.342203 89.978921 
L 340.09585 90.536009 
L 340.251819 91.138817 
L 340.715289 92.384064 
L 340.669862 92.975035 
L 340.348864 93.519816 
L 339.732963 94.012112 
L 338.803047 94.457008 
L 336.138911 95.269925 
L 333.411779 96.120383 
L 332.491567 96.600064 
L 331.969182 97.121813 
L 331.76655 97.678516 
L 331.682226 98.836343 
L 331.509867 99.402368 
L 331.143797 99.940835 
L 330.553017 100.445318 
L 329.734565 100.917092 
L 327.554263 101.800259 
L 325.313109 102.693687 
L 324.456692 103.172538 
L 323.850808 103.678123 
L 323.176074 104.750737 
L 322.570906 105.839173 
L 322.106826 106.364208 
L 320.734455 107.353687 
L 316.322843 109.694965 
L 315.164176 110.701578 
L 313.235635 112.773168 
L 311.911807 113.763621 
L 307.432186 116.642121 
L 302.598054 120.615004 
L 299.119634 123.026255 
L 293.388131 127.428944 
L 290.171518 129.859884 
L 286.907232 132.294658 
L 283.658305 134.737307 
L 281.782297 136.203293 
L 277.8979 136.750291 
L 281.987386 137.235534 
L 281.364831 137.720464 
L 277.849926 138.692192 
L 276.928134 139.179956 
L 276.622014 139.669065 
L 276.455996 140.159174 
L 276.078045 140.649607 
L 274.621808 141.62853 
L 273.169115 142.601543 
L 269.972128 145.018575 
L 266.813565 147.448848 
L 262.316226 150.820411 
L 258.494801 153.711346 
L 254.68904 156.588791 
L 250.849666 159.463572 
L 247.077942 162.335947 
L 242.639708 165.675181 
L 236.956067 169.954049 
L 210.869241 189.717047 
L 197.9723 199.492961 
L 189.994971 205.53671 
L 186.598506 206.058414 
L 189.827584 206.522394 
L 189.556292 206.986675 
L 185.605379 208.380163 
L 185.153814 208.844176 
L 184.657647 209.770554 
L 184.107165 210.233002 
L 181.288199 212.080886 
L 179.021808 213.927702 
L 174.76092 217.147967 
L 143.263747 241.236678 
L 122.899052 256.8689 
L 118.883412 259.979607 
L 103.851094 271.493613 
L 100.848664 271.991253 
L 103.452632 272.434152 
L 103.494258 272.876948 
L 102.437847 273.319016 
L 99.937273 274.199216 
L 99.310852 274.637552 
L 98.354438 275.952394 
L 94.835427 278.591501 
L 93.684848 279.462999 
L 91.793061 280.773273 
L 87.999559 283.827757 
L 86.126684 285.131615 
L 84.717675 286.449255 
L 83.739075 287.317407 
L 82.431209 288.173486 
L 80.358752 289.470508 
L 79.505716 290.354812 
L 78.899732 291.230871 
L 78.446881 291.657984 
L 77.773574 292.078393 
L 74.23598 293.799722 
L 74.190256 294.24956 
L 74.947888 294.682582 
L 76.587725 295.064426 
L 79.005542 295.34975 
L 81.972092 295.488 
L 85.175324 295.432572 
L 88.232761 295.150595 
L 90.537662 294.632571 
L 91.379997 293.898277 
L 90.467667 292.997759 
L 88.289549 292.00627 
L 81.600251 289.366092 
L 81.015851 288.828039 
L 81.972488 288.499637 
L 84.351061 288.345643 
L 94.572924 288.158501 
L 97.6422 287.90115 
L 99.949829 287.44858 
L 100.857972 286.795965 
L 99.898549 285.978968 
L 97.399154 285.06586 
L 91.712743 283.296541 
L 90.20823 282.59495 
L 90.286025 282.074748 
L 92.05314 281.733611 
L 98.52241 281.40155 
L 104.783212 281.034054 
L 107.088195 280.662477 
L 108.474136 280.121175 
L 108.52418 279.420896 
L 107.15838 278.605283 
L 100.828177 276.158108 
L 100.276639 275.552628 
L 101.136939 275.101695 
L 103.262507 274.787833 
L 111.926482 274.137908 
L 114.20688 273.808748 
L 115.812214 273.348752 
L 116.463765 272.751642 
L 115.989544 272.040163 
L 114.587312 271.260341 
L 111.250652 269.731251 
L 110.453216 269.08747 
L 110.71684 268.564518 
L 112.084924 268.160888 
L 116.85874 267.586817 
L 121.559593 266.992698 
L 123.205902 266.575191 
L 124.139858 266.049783 
L 124.221428 265.424586 
L 123.51755 264.728514 
L 121.179754 263.299314 
L 120.451094 262.654402 
L 120.471853 262.096351 
L 121.359681 261.632245 
L 122.986295 261.249029 
L 129.160752 260.24912 
L 130.720131 259.841212 
L 131.742822 259.355488 
L 132.140469 258.791629 
L 131.9397 258.166054 
L 130.150597 256.227545 
L 130.160333 255.662236 
L 130.785526 255.164764 
L 131.993231 254.730267 
L 138.440456 253.169022 
L 139.455281 252.698494 
L 140.018352 252.171804 
L 140.144492 251.597419 
L 139.653618 250.384051 
L 139.468118 249.792322 
L 139.589691 249.236871 
L 143.671806 248.666723 
L 139.218064 248.206805 
L 140.620609 247.779133 
L 145.987729 246.946736 
L 147.507593 246.504565 
L 148.013035 246.028061 
L 148.045411 244.403131 
L 148.570352 243.275492 
L 148.96639 242.740756 
L 149.527804 242.235449 
L 150.324523 241.758667 
L 152.489829 240.858541 
L 154.640863 239.951163 
L 155.442273 239.470482 
L 156.026507 238.967305 
L 156.724095 237.909929 
L 157.347944 236.840588 
L 157.821893 236.322432 
L 159.235659 235.336679 
L 163.498608 232.978959 
L 164.631453 231.978154 
L 166.576566 229.935157 
L 167.915992 228.953411 
L 171.701109 226.559913 
L 173.432682 225.073998 
L 175.123371 223.581559 
L 177.213603 222.124074 
L 179.990959 220.187421 
L 184.335396 216.752838 
L 187.715216 214.31278 
L 191.473201 211.371832 
L 194.850935 208.932252 
L 199.912103 205.020269 
L 203.823515 202.103968 
L 208.227852 198.708042 
L 212.766548 195.329106 
L 215.851163 192.916038 
L 220.432929 189.556719 
L 223.494886 187.147593 
L 228.648277 183.321003 
L 232.420376 180.450902 
L 235.613195 178.072891 
L 239.836781 177.536445 
L 239.836781 177.536445 
" clip-path="url(#pd90589e536)" style="fill: none; stroke: #1f77b4; stroke-width: 1.5; stroke-linecap: square"/>
   </g>
   <g id="line2d_22">
    <path d="M 235.510762 177.476808 
L 265.915367 154.393676 
L 270.268916 151.12179 
L 274.014752 148.323237 
L 278.295109 145.05163 
L 381.112988 66.8541 
L 382.963916 65.54793 
L 384.853445 64.246118 
L 388.021193 61.611079 
L 390.760015 59.891025 
L 391.641231 59.006576 
L 392.379934 58.119022 
L 392.907661 57.684375 
L 394.517686 56.838719 
L 396.328777 55.992967 
L 396.820723 55.554035 
L 396.720191 55.104053 
L 395.857986 54.655431 
L 394.192575 54.234156 
L 391.84721 53.879707 
L 389.11096 53.640772 
L 386.39913 53.568 
L 384.176411 53.70418 
L 382.860366 54.074204 
L 382.723359 54.676603 
L 383.819921 55.479662 
L 385.955084 56.422909 
L 393.730737 59.247221 
L 394.855428 59.921863 
L 394.545206 60.388804 
L 392.737199 60.657962 
L 385.780154 60.819816 
L 378.161376 61.031477 
L 375.618904 61.348516 
L 374.434605 61.858416 
L 374.661229 62.553207 
L 376.30504 63.499366 
L 382.378989 66.073621 
L 383.052758 66.704162 
L 382.479357 67.161534 
L 380.677978 67.461614 
L 374.647988 67.801896 
L 371.410665 67.986053 
L 368.715085 68.27045 
L 366.939849 68.698357 
L 366.25955 69.2821 
L 366.616477 70.001734 
L 367.741935 70.809812 
L 370.583813 72.432395 
L 371.406617 73.123912 
L 371.397251 73.683094 
L 370.451283 74.10458 
L 368.665635 74.411701 
L 361.421584 75.15737 
L 359.628895 75.530114 
L 358.590036 76.022507 
L 358.341656 76.633367 
L 358.74983 77.337005 
L 360.956812 79.531836 
L 360.979772 80.136203 
L 360.333795 80.634228 
L 359.040101 81.03267 
L 355.245288 81.65372 
L 351.674362 82.327995 
L 350.565492 82.77507 
L 350.032695 83.31299 
L 350.0136 83.930687 
L 351.077143 85.949576 
L 351.041015 86.557674 
L 350.546489 87.092374 
L 349.577716 87.551263 
L 346.642445 88.308541 
L 343.62642 89.048198 
L 342.535012 89.48228 
L 341.84087 89.978921 
L 341.52463 90.536009 
L 341.486186 91.138817 
L 341.603232 92.384064 
L 341.43122 92.975035 
L 340.953463 93.519816 
L 340.141574 94.012112 
L 337.764048 94.86937 
L 335.242459 95.68077 
L 334.255549 96.120383 
L 333.546444 96.600064 
L 333.107295 97.121813 
L 332.722856 98.255946 
L 332.541553 98.836343 
L 332.214735 99.402368 
L 331.67084 99.940835 
L 330.891715 100.445318 
L 328.819761 101.364438 
L 326.686238 102.239077 
L 325.822138 102.693687 
L 325.150957 103.172538 
L 324.292108 104.206991 
L 323.61378 105.298461 
L 323.149617 105.839173 
L 322.540352 106.364208 
L 320.912659 107.353687 
L 317.456726 109.213213 
L 316.291011 110.191636 
L 314.303983 112.261824 
L 312.909888 113.273889 
L 308.417167 116.152389 
L 305.025178 119.147119 
L 299.456288 123.026255 
L 297.181179 124.993198 
L 294.97827 126.45953 
L 292.776928 127.913422 
L 291.000584 129.372156 
L 289.271855 130.834994 
L 287.165707 132.294658 
L 284.293906 134.247439 
L 277.829162 139.179956 
L 275.166226 141.139622 
L 270.828389 144.534777 
L 266.229252 147.934382 
L 262.49402 150.820411 
L 258.549589 153.711346 
L 254.154603 157.065398 
L 249.648609 160.425867 
L 243.903626 164.718117 
L 231.995647 173.751671 
L 227.545469 177.053507 
L 207.19514 192.513711 
L 95.755376 277.274415 
L 93.484063 279.027593 
L 90.584062 281.212482 
L 88.380601 282.962795 
L 85.351409 285.131615 
L 82.744333 287.317407 
L 79.538924 289.470508 
L 77.88057 291.230871 
L 76.422259 292.078393 
L 74.605232 292.919811 
L 73.971811 293.353761 
L 73.832727 293.799722 
L 74.389112 294.24956 
L 75.740674 294.682582 
L 77.837402 295.064426 
L 80.459862 295.34975 
L 83.239726 295.488 
L 85.720464 295.432572 
L 87.447527 295.150595 
L 88.07056 294.632571 
L 87.432291 293.898277 
L 85.623278 292.997759 
L 80.053741 291.013542 
L 77.466798 290.109028 
L 75.826499 289.366092 
L 75.575884 288.828039 
L 76.898211 288.499637 
L 79.670671 288.345643 
L 91.655329 288.158501 
L 94.676276 287.90115 
L 96.328431 287.44858 
L 96.453037 286.795965 
L 95.207087 285.978968 
L 93.026265 285.06586 
L 88.383272 283.296541 
L 87.166886 282.59495 
L 87.248424 282.074748 
L 88.715771 281.733611 
L 91.366526 281.531857 
L 101.433261 281.034054 
L 103.639979 280.662477 
L 104.659833 280.121175 
L 104.4782 279.420896 
L 103.331999 278.605283 
L 98.757822 276.158108 
L 98.43126 275.552628 
L 99.157736 275.101695 
L 100.886877 274.787833 
L 110.964965 273.808748 
L 112.262015 273.348752 
L 112.63243 272.751642 
L 112.182538 272.040163 
L 109.137187 269.731251 
L 108.814665 269.08747 
L 109.271432 268.564518 
L 110.529691 268.160888 
L 114.710657 267.586817 
L 118.942887 266.992698 
L 120.301696 266.575191 
L 120.949132 266.049783 
L 120.922899 265.424586 
L 120.404554 264.728514 
L 119.046709 263.299314 
L 118.800382 262.654402 
L 119.119805 262.096351 
L 120.058724 261.632245 
L 121.534488 261.249029 
L 126.958833 260.24912 
L 128.268612 259.841212 
L 129.060549 259.355488 
L 129.335592 258.791629 
L 129.207613 258.166054 
L 128.566104 256.850526 
L 128.501682 256.227545 
L 128.833142 255.662236 
L 129.618978 255.164764 
L 130.814365 254.730267 
L 136.456734 253.169022 
L 137.248754 252.698494 
L 137.657884 252.171804 
L 137.762465 251.597419 
L 137.660894 250.384051 
L 137.789903 249.792322 
L 138.208234 249.236871 
L 139.076366 248.666723 
L 141.424995 247.779133 
L 143.9305 246.946736 
L 144.911474 246.504565 
L 145.616292 246.028061 
L 146.054229 245.514256 
L 146.450539 244.403131 
L 146.644053 243.833609 
L 146.983081 243.275492 
L 147.534379 242.740756 
L 148.310833 242.235449 
L 150.337088 241.303444 
L 152.385025 240.411466 
L 153.845612 239.470482 
L 154.685029 238.444732 
L 155.396797 237.372111 
L 155.884835 236.840588 
L 157.283967 235.821235 
L 161.548144 233.461999 
L 162.659966 232.483846 
L 164.572546 230.439639 
L 165.98341 229.439791 
L 169.946006 227.044259 
L 171.061941 226.06932 
L 173.135391 224.075853 
L 174.571554 223.091932 
L 178.384277 220.675324 
L 180.001768 219.204054 
L 181.097822 218.218653 
L 182.447591 217.239633 
L 186.862291 214.31278 
L 191.057949 210.885587 
L 195.256619 207.948223 
L 199.528551 204.536365 
L 204.197188 201.12692 
L 207.862618 198.228002 
L 212.486276 194.843407 
L 215.564745 192.438363 
L 220.77661 188.588863 
L 224.564066 185.71763 
L 229.672881 181.881141 
L 235.431997 177.536445 
L 235.431997 177.536445 
" clip-path="url(#pd90589e536)" style="fill: none; stroke: #ff7f0e; stroke-opacity: 0.5; stroke-width: 1.5; stroke-linecap: square"/>
   </g>
   <g id="patch_3">
    <path d="M 57.6 307.584 
L 57.6 41.472 
" style="fill: none; stroke: #000000; stroke-width: 0.8; stroke-linejoin: miter; stroke-linecap: square"/>
   </g>
   <g id="patch_4">
    <path d="M 414.72 307.584 
L 414.72 41.472 
" style="fill: none; stroke: #000000; stroke-width: 0.8; stroke-linejoin: miter; stroke-linecap: square"/>
   </g>
   <g id="patch_5">
    <path d="M 57.6 307.584 
L 414.72 307.584 
" style="fill: none; stroke: #000000; stroke-width: 0.8; stroke-linejoin: miter; stroke-linecap: square"/>
   </g>
   <g id="patch_6">
    <path d="M 57.6 41.472 
L 414.72 41.472 
" style="fill: none; stroke: #000000; stroke-width: 0.8; stroke-linejoin: miter; stroke-linecap: square"/>
   </g>
   <g id="text_13">
    <!-- Compare - Epoch 2700 -->
    <g transform="translate(167.416875 35.472) scale(0.12 -0.12)">
     <defs>
      <path id="DejaVuSans-43" d="M 4122 4306 
L 4122 3641 
Q 3803 3938 3442 4084 
Q 3081 4231 2675 4231 
Q 1875 4231 1450 3742 
Q 1025 3253 1025 2328 
Q 1025 1406 1450 917 
Q 1875 428 2675 428 
Q 3081 428 3442 575 
Q 3803 722 4122 1019 
L 4122 359 
Q 3791 134 3420 21 
Q 3050 -91 2638 -91 
Q 1578 -91 968 557 
Q 359 1206 359 2328 
Q 359 3453 968 4101 
Q 1578 4750 2638 4750 
Q 3056 4750 3426 4639 
Q 3797 4528 4122 4306 
z
" transform="scale(0.015625)"/>
      <path id="DejaVuSans-6f" d="M 1959 3097 
Q 1497 3097 1228 2736 
Q 959 2375 959 1747 
Q 959 1119 1226 758 
Q 1494 397 1959 397 
Q 2419 397 2687 759 
Q 2956 1122 2956 1747 
Q 2956 2369 2687 2733 
Q 2419 3097 1959 3097 
z
M 1959 3584 
Q 2709 3584 3137 3096 
Q 3566 2609 3566 1747 
Q 3566 888 3137 398 
Q 2709 -91 1959 -91 
Q 1206 -91 779 398 
Q 353 888 353 1747 
Q 353 2609 779 3096 
Q 1206 3584 1959 3584 
z
" transform="scale(0.015625)"/>
      <path id="DejaVuSans-6d" d="M 3328 2828 
Q 3544 3216 3844 3400 
Q 4144 3584 4550 3584 
Q 5097 3584 5394 3201 
Q 5691 2819 5691 2113 
L 5691 0 
L 5113 0 
L 5113 2094 
Q 5113 2597 4934 2840 
Q 4756 3084 4391 3084 
Q 3944 3084 3684 2787 
Q 3425 2491 3425 1978 
L 3425 0 
L 2847 0 
L 2847 2094 
Q 2847 2600 2669 2842 
Q 2491 3084 2119 3084 
Q 1678 3084 1418 2786 
Q 1159 2488 1159 1978 
L 1159 0 
L 581 0 
L 581 3500 
L 1159 3500 
L 1159 2956 
Q 1356 3278 1631 3431 
Q 1906 3584 2284 3584 
Q 2666 3584 2933 3390 
Q 3200 3197 3328 2828 
z
" transform="scale(0.015625)"/>
      <path id="DejaVuSans-70" d="M 1159 525 
L 1159 -1331 
L 581 -1331 
L 581 3500 
L 1159 3500 
L 1159 2969 
Q 1341 3281 1617 3432 
Q 1894 3584 2278 3584 
Q 2916 3584 3314 3078 
Q 3713 2572 3713 1747 
Q 3713 922 3314 415 
Q 2916 -91 2278 -91 
Q 1894 -91 1617 61 
Q 1341 213 1159 525 
z
M 3116 1747 
Q 3116 2381 2855 2742 
Q 2594 3103 2138 3103 
Q 1681 3103 1420 2742 
Q 1159 2381 1159 1747 
Q 1159 1113 1420 752 
Q 1681 391 2138 391 
Q 2594 391 2855 752 
Q 3116 1113 3116 1747 
z
" transform="scale(0.015625)"/>
      <path id="DejaVuSans-72" d="M 2631 2963 
Q 2534 3019 2420 3045 
Q 2306 3072 2169 3072 
Q 1681 3072 1420 2755 
Q 1159 2438 1159 1844 
L 1159 0 
L 581 0 
L 581 3500 
L 1159 3500 
L 1159 2956 
Q 1341 3275 1631 3429 
Q 1922 3584 2338 3584 
Q 2397 3584 2469 3576 
Q 2541 3569 2628 3553 
L 2631 2963 
z
" transform="scale(0.015625)"/>
      <path id="DejaVuSans-20" transform="scale(0.015625)"/>
      <path id="DejaVuSans-2d" d="M 313 2009 
L 1997 2009 
L 1997 1497 
L 313 1497 
L 313 2009 
z
" transform="scale(0.015625)"/>
      <path id="DejaVuSans-45" d="M 628 4666 
L 3578 4666 
L 3578 4134 
L 1259 4134 
L 1259 2753 
L 3481 2753 
L 3481 2222 
L 1259 2222 
L 1259 531 
L 3634 531 
L 3634 0 
L 628 0 
L 628 4666 
z
" transform="scale(0.015625)"/>
      <path id="DejaVuSans-63" d="M 3122 3366 
L 3122 2828 
Q 2878 2963 2633 3030 
Q 2388 3097 2138 3097 
Q 1578 3097 1268 2742 
Q 959 2388 959 1747 
Q 959 1106 1268 751 
Q 1578 397 2138 397 
Q 2388 397 2633 464 
Q 2878 531 3122 666 
L 3122 134 
Q 2881 22 2623 -34 
Q 2366 -91 2075 -91 
Q 1284 -91 818 406 
Q 353 903 353 1747 
Q 353 2603 823 3093 
Q 1294 3584 2113 3584 
Q 2378 3584 2631 3529 
Q 2884 3475 3122 3366 
z
" transform="scale(0.015625)"/>
      <path id="DejaVuSans-68" d="M 3513 2113 
L 3513 0 
L 2938 0 
L 2938 2094 
Q 2938 2591 2744 2837 
Q 2550 3084 2163 3084 
Q 1697 3084 1428 2787 
Q 1159 2491 1159 1978 
L 1159 0 
L 581 0 
L 581 4863 
L 1159 4863 
L 1159 2956 
Q 1366 3272 1645 3428 
Q 1925 3584 2291 3584 
Q 2894 3584 3203 3211 
Q 3513 2838 3513 2113 
z
" transform="scale(0.015625)"/>
      <path id="DejaVuSans-32" d="M 1228 531 
L 3431 531 
L 3431 0 
L 469 0 
L 469 531 
Q 828 903 1448 1529 
Q 2069 2156 2228 2338 
Q 2531 2678 2651 2914 
Q 2772 3150 2772 3378 
Q 2772 3750 2511 3984 
Q 2250 4219 1831 4219 
Q 1534 4219 1204 4116 
Q 875 4013 500 3803 
L 500 4441 
Q 881 4594 1212 4672 
Q 1544 4750 1819 4750 
Q 2544 4750 2975 4387 
Q 3406 4025 3406 3419 
Q 3406 3131 3298 2873 
Q 3191 2616 2906 2266 
Q 2828 2175 2409 1742 
Q 1991 1309 1228 531 
z
" transform="scale(0.015625)"/>
      <path id="DejaVuSans-37" d="M 525 4666 
L 3525 4666 
L 3525 4397 
L 1831 0 
L 1172 0 
L 2766 4134 
L 525 4134 
L 525 4666 
z
" transform="scale(0.015625)"/>
     </defs>
     <use xlink:href="#DejaVuSans-43"/>
     <use xlink:href="#DejaVuSans-6f" transform="translate(69.824219 0)"/>
     <use xlink:href="#DejaVuSans-6d" transform="translate(131.005859 0)"/>
     <use xlink:href="#DejaVuSans-70" transform="translate(228.417969 0)"/>
     <use xlink:href="#DejaVuSans-61" transform="translate(291.894531 0)"/>
     <use xlink:href="#DejaVuSans-72" transform="translate(353.173828 0)"/>
     <use xlink:href="#DejaVuSans-65" transform="translate(392.037109 0)"/>
     <use xlink:href="#DejaVuSans-20" transform="translate(453.560547 0)"/>
     <use xlink:href="#DejaVuSans-2d" transform="translate(485.347656 0)"/>
     <use xlink:href="#DejaVuSans-20" transform="translate(521.431641 0)"/>
     <use xlink:href="#DejaVuSans-45" transform="translate(553.21875 0)"/>
     <use xlink:href="#DejaVuSans-70" transform="translate(616.402344 0)"/>
     <use xlink:href="#DejaVuSans-6f" transform="translate(679.878906 0)"/>
     <use xlink:href="#DejaVuSans-63" transform="translate(741.060547 0)"/>
     <use xlink:href="#DejaVuSans-68" transform="translate(796.041016 0)"/>
     <use xlink:href="#DejaVuSans-20" transform="translate(859.419922 0)"/>
     <use xlink:href="#DejaVuSans-32" transform="translate(891.207031 0)"/>
     <use xlink:href="#DejaVuSans-37" transform="translate(954.830078 0)"/>
     <use xlink:href="#DejaVuSans-30" transform="translate(1018.453125 0)"/>
     <use xlink:href="#DejaVuSans-30" transform="translate(1082.076172 0)"/>
    </g>
   </g>
   <g id="legend_1">
    <g id="patch_7">
     <path d="M 64.6 78.82825 
L 181.128125 78.82825 
Q 183.128125 78.82825 183.128125 76.82825 
L 183.128125 48.472 
Q 183.128125 46.472 181.128125 46.472 
L 64.6 46.472 
Q 62.6 46.472 62.6 48.472 
L 62.6 76.82825 
Q 62.6 78.82825 64.6 78.82825 
z
" style="fill: #ffffff; opacity: 0.8; stroke: #cccccc; stroke-linejoin: miter"/>
    </g>
    <g id="line2d_23">
     <path d="M 66.6 54.570437 
L 76.6 54.570437 
L 86.6 54.570437 
" style="fill: none; stroke: #1f77b4; stroke-width: 1.5; stroke-linecap: square"/>
    </g>
    <g id="text_14">
     <!-- Pred: Sample 1 -->
     <g transform="translate(94.6 58.070437) scale(0.1 -0.1)">
      <defs>
       <path id="DejaVuSans-50" d="M 1259 4147 
L 1259 2394 
L 2053 2394 
Q 2494 2394 2734 2622 
Q 2975 2850 2975 3272 
Q 2975 3691 2734 3919 
Q 2494 4147 2053 4147 
L 1259 4147 
z
M 628 4666 
L 2053 4666 
Q 2838 4666 3239 4311 
Q 3641 3956 3641 3272 
Q 3641 2581 3239 2228 
Q 2838 1875 2053 1875 
L 1259 1875 
L 1259 0 
L 628 0 
L 628 4666 
z
" transform="scale(0.015625)"/>
       <path id="DejaVuSans-3a" d="M 750 794 
L 1409 794 
L 1409 0 
L 750 0 
L 750 794 
z
M 750 3309 
L 1409 3309 
L 1409 2516 
L 750 2516 
L 750 3309 
z
" transform="scale(0.015625)"/>
       <path id="DejaVuSans-53" d="M 3425 4513 
L 3425 3897 
Q 3066 4069 2747 4153 
Q 2428 4238 2131 4238 
Q 1616 4238 1336 4038 
Q 1056 3838 1056 3469 
Q 1056 3159 1242 3001 
Q 1428 2844 1947 2747 
L 2328 2669 
Q 3034 2534 3370 2195 
Q 3706 1856 3706 1288 
Q 3706 609 3251 259 
Q 2797 -91 1919 -91 
Q 1588 -91 1214 -16 
Q 841 59 441 206 
L 441 856 
Q 825 641 1194 531 
Q 1563 422 1919 422 
Q 2459 422 2753 634 
Q 3047 847 3047 1241 
Q 3047 1584 2836 1778 
Q 2625 1972 2144 2069 
L 1759 2144 
Q 1053 2284 737 2584 
Q 422 2884 422 3419 
Q 422 4038 858 4394 
Q 1294 4750 2059 4750 
Q 2388 4750 2728 4690 
Q 3069 4631 3425 4513 
z
" transform="scale(0.015625)"/>
      </defs>
      <use xlink:href="#DejaVuSans-50"/>
      <use xlink:href="#DejaVuSans-72" transform="translate(58.552734 0)"/>
      <use xlink:href="#DejaVuSans-65" transform="translate(97.416016 0)"/>
      <use xlink:href="#DejaVuSans-64" transform="translate(158.939453 0)"/>
      <use xlink:href="#DejaVuSans-3a" transform="translate(222.416016 0)"/>
      <use xlink:href="#DejaVuSans-20" transform="translate(256.107422 0)"/>
      <use xlink:href="#DejaVuSans-53" transform="translate(287.894531 0)"/>
      <use xlink:href="#DejaVuSans-61" transform="translate(351.371094 0)"/>
      <use xlink:href="#DejaVuSans-6d" transform="translate(412.650391 0)"/>
      <use xlink:href="#DejaVuSans-70" transform="translate(510.0625 0)"/>
      <use xlink:href="#DejaVuSans-6c" transform="translate(573.539062 0)"/>
      <use xlink:href="#DejaVuSans-65" transform="translate(601.322266 0)"/>
      <use xlink:href="#DejaVuSans-20" transform="translate(662.845703 0)"/>
      <use xlink:href="#DejaVuSans-31" transform="translate(694.632812 0)"/>
     </g>
    </g>
    <g id="line2d_24">
     <path d="M 66.6 69.248562 
L 76.6 69.248562 
L 86.6 69.248562 
" style="fill: none; stroke: #ff7f0e; stroke-opacity: 0.5; stroke-width: 1.5; stroke-linecap: square"/>
    </g>
    <g id="text_15">
     <!-- Target: Sample 1 -->
     <g transform="translate(94.6 72.748562) scale(0.1 -0.1)">
      <defs>
       <path id="DejaVuSans-54" d="M -19 4666 
L 3928 4666 
L 3928 4134 
L 2272 4134 
L 2272 0 
L 1638 0 
L 1638 4134 
L -19 4134 
L -19 4666 
z
" transform="scale(0.015625)"/>
       <path id="DejaVuSans-67" d="M 2906 1791 
Q 2906 2416 2648 2759 
Q 2391 3103 1925 3103 
Q 1463 3103 1205 2759 
Q 947 2416 947 1791 
Q 947 1169 1205 825 
Q 1463 481 1925 481 
Q 2391 481 2648 825 
Q 2906 1169 2906 1791 
z
M 3481 434 
Q 3481 -459 3084 -895 
Q 2688 -1331 1869 -1331 
Q 1566 -1331 1297 -1286 
Q 1028 -1241 775 -1147 
L 775 -588 
Q 1028 -725 1275 -790 
Q 1522 -856 1778 -856 
Q 2344 -856 2625 -561 
Q 2906 -266 2906 331 
L 2906 616 
Q 2728 306 2450 153 
Q 2172 0 1784 0 
Q 1141 0 747 490 
Q 353 981 353 1791 
Q 353 2603 747 3093 
Q 1141 3584 1784 3584 
Q 2172 3584 2450 3431 
Q 2728 3278 2906 2969 
L 2906 3500 
L 3481 3500 
L 3481 434 
z
" transform="scale(0.015625)"/>
       <path id="DejaVuSans-74" d="M 1172 4494 
L 1172 3500 
L 2356 3500 
L 2356 3053 
L 1172 3053 
L 1172 1153 
Q 1172 725 1289 603 
Q 1406 481 1766 481 
L 2356 481 
L 2356 0 
L 1766 0 
Q 1100 0 847 248 
Q 594 497 594 1153 
L 594 3053 
L 172 3053 
L 172 3500 
L 594 3500 
L 594 4494 
L 1172 4494 
z
" transform="scale(0.015625)"/>
      </defs>
      <use xlink:href="#DejaVuSans-54"/>
      <use xlink:href="#DejaVuSans-61" transform="translate(44.583984 0)"/>
      <use xlink:href="#DejaVuSans-72" transform="translate(105.863281 0)"/>
      <use xlink:href="#DejaVuSans-67" transform="translate(145.226562 0)"/>
      <use xlink:href="#DejaVuSans-65" transform="translate(208.703125 0)"/>
      <use xlink:href="#DejaVuSans-74" transform="translate(270.226562 0)"/>
      <use xlink:href="#DejaVuSans-3a" transform="translate(309.435547 0)"/>
      <use xlink:href="#DejaVuSans-20" transform="translate(343.126953 0)"/>
      <use xlink:href="#DejaVuSans-53" transform="translate(374.914062 0)"/>
      <use xlink:href="#DejaVuSans-61" transform="translate(438.390625 0)"/>
      <use xlink:href="#DejaVuSans-6d" transform="translate(499.669922 0)"/>
      <use xlink:href="#DejaVuSans-70" transform="translate(597.082031 0)"/>
      <use xlink:href="#DejaVuSans-6c" transform="translate(660.558594 0)"/>
      <use xlink:href="#DejaVuSans-65" transform="translate(688.341797 0)"/>
      <use xlink:href="#DejaVuSans-20" transform="translate(749.865234 0)"/>
      <use xlink:href="#DejaVuSans-31" transform="translate(781.652344 0)"/>
     </g>
    </g>
   </g>
  </g>
 </g>
 <defs>
  <clipPath id="pd90589e536">
   <rect x="57.6" y="41.472" width="357.12" height="266.112"/>
  </clipPath>
 </defs>
</svg>
