<?xml version="1.0" encoding="utf-8" standalone="no"?>
<!DOCTYPE svg PUBLIC "-//W3C//DTD SVG 1.1//EN"
  "http://www.w3.org/Graphics/SVG/1.1/DTD/svg11.dtd">
<svg xmlns:xlink="http://www.w3.org/1999/xlink" width="460.8pt" height="345.6pt" viewBox="0 0 460.8 345.6" xmlns="http://www.w3.org/2000/svg" version="1.1">
 <metadata>
  <rdf:RDF xmlns:dc="http://purl.org/dc/elements/1.1/" xmlns:cc="http://creativecommons.org/ns#" xmlns:rdf="http://www.w3.org/1999/02/22-rdf-syntax-ns#">
   <cc:Work>
    <dc:type rdf:resource="http://purl.org/dc/dcmitype/StillImage"/>
    <dc:date>2025-04-16T02:38:43.131432</dc:date>
    <dc:format>image/svg+xml</dc:format>
    <dc:creator>
     <cc:Agent>
      <dc:title>Matplotlib v3.10.0, https://matplotlib.org/</dc:title>
     </cc:Agent>
    </dc:creator>
   </cc:Work>
  </rdf:RDF>
 </metadata>
 <defs>
  <style type="text/css">*{stroke-linejoin: round; stroke-linecap: butt}</style>
 </defs>
 <g id="figure_1">
  <g id="patch_1">
   <path d="M 0 345.6 
L 460.8 345.6 
L 460.8 0 
L 0 0 
z
" style="fill: #ffffff"/>
  </g>
  <g id="axes_1">
   <g id="patch_2">
    <path d="M 57.6 307.584 
L 414.72 307.584 
L 414.72 41.472 
L 57.6 41.472 
z
" style="fill: #ffffff"/>
   </g>
   <g id="matplotlib.axis_1">
    <g id="xtick_1">
     <g id="line2d_1">
      <path d="M 97.163286 307.584 
L 97.163286 41.472 
" clip-path="url(#pd427fc0dea)" style="fill: none; stroke: #b0b0b0; stroke-opacity: 0.5; stroke-width: 0.8; stroke-linecap: square"/>
     </g>
     <g id="line2d_2">
      <defs>
       <path id="m6b068479c7" d="M 0 0 
L 0 3.5 
" style="stroke: #000000; stroke-width: 0.8"/>
      </defs>
      <g>
       <use xlink:href="#m6b068479c7" x="97.163286" y="307.584" style="stroke: #000000; stroke-width: 0.8"/>
      </g>
     </g>
     <g id="text_1">
      <!-- −1.0 -->
      <g transform="translate(85.02188 322.182437) scale(0.1 -0.1)">
       <defs>
        <path id="DejaVuSans-2212" d="M 678 2272 
L 4684 2272 
L 4684 1741 
L 678 1741 
L 678 2272 
z
" transform="scale(0.015625)"/>
        <path id="DejaVuSans-31" d="M 794 531 
L 1825 531 
L 1825 4091 
L 703 3866 
L 703 4441 
L 1819 4666 
L 2450 4666 
L 2450 531 
L 3481 531 
L 3481 0 
L 794 0 
L 794 531 
z
" transform="scale(0.015625)"/>
        <path id="DejaVuSans-2e" d="M 684 794 
L 1344 794 
L 1344 0 
L 684 0 
L 684 794 
z
" transform="scale(0.015625)"/>
        <path id="DejaVuSans-30" d="M 2034 4250 
Q 1547 4250 1301 3770 
Q 1056 3291 1056 2328 
Q 1056 1369 1301 889 
Q 1547 409 2034 409 
Q 2525 409 2770 889 
Q 3016 1369 3016 2328 
Q 3016 3291 2770 3770 
Q 2525 4250 2034 4250 
z
M 2034 4750 
Q 2819 4750 3233 4129 
Q 3647 3509 3647 2328 
Q 3647 1150 3233 529 
Q 2819 -91 2034 -91 
Q 1250 -91 836 529 
Q 422 1150 422 2328 
Q 422 3509 836 4129 
Q 1250 4750 2034 4750 
z
" transform="scale(0.015625)"/>
       </defs>
       <use xlink:href="#DejaVuSans-2212"/>
       <use xlink:href="#DejaVuSans-31" transform="translate(83.789062 0)"/>
       <use xlink:href="#DejaVuSans-2e" transform="translate(147.412109 0)"/>
       <use xlink:href="#DejaVuSans-30" transform="translate(179.199219 0)"/>
      </g>
     </g>
    </g>
    <g id="xtick_2">
     <g id="line2d_3">
      <path d="M 166.296905 307.584 
L 166.296905 41.472 
" clip-path="url(#pd427fc0dea)" style="fill: none; stroke: #b0b0b0; stroke-opacity: 0.5; stroke-width: 0.8; stroke-linecap: square"/>
     </g>
     <g id="line2d_4">
      <g>
       <use xlink:href="#m6b068479c7" x="166.296905" y="307.584" style="stroke: #000000; stroke-width: 0.8"/>
      </g>
     </g>
     <g id="text_2">
      <!-- −0.5 -->
      <g transform="translate(154.155499 322.182437) scale(0.1 -0.1)">
       <defs>
        <path id="DejaVuSans-35" d="M 691 4666 
L 3169 4666 
L 3169 4134 
L 1269 4134 
L 1269 2991 
Q 1406 3038 1543 3061 
Q 1681 3084 1819 3084 
Q 2600 3084 3056 2656 
Q 3513 2228 3513 1497 
Q 3513 744 3044 326 
Q 2575 -91 1722 -91 
Q 1428 -91 1123 -41 
Q 819 9 494 109 
L 494 744 
Q 775 591 1075 516 
Q 1375 441 1709 441 
Q 2250 441 2565 725 
Q 2881 1009 2881 1497 
Q 2881 1984 2565 2268 
Q 2250 2553 1709 2553 
Q 1456 2553 1204 2497 
Q 953 2441 691 2322 
L 691 4666 
z
" transform="scale(0.015625)"/>
       </defs>
       <use xlink:href="#DejaVuSans-2212"/>
       <use xlink:href="#DejaVuSans-30" transform="translate(83.789062 0)"/>
       <use xlink:href="#DejaVuSans-2e" transform="translate(147.412109 0)"/>
       <use xlink:href="#DejaVuSans-35" transform="translate(179.199219 0)"/>
      </g>
     </g>
    </g>
    <g id="xtick_3">
     <g id="line2d_5">
      <path d="M 235.430523 307.584 
L 235.430523 41.472 
" clip-path="url(#pd427fc0dea)" style="fill: none; stroke: #b0b0b0; stroke-opacity: 0.5; stroke-width: 0.8; stroke-linecap: square"/>
     </g>
     <g id="line2d_6">
      <g>
       <use xlink:href="#m6b068479c7" x="235.430523" y="307.584" style="stroke: #000000; stroke-width: 0.8"/>
      </g>
     </g>
     <g id="text_3">
      <!-- 0.0 -->
      <g transform="translate(227.478961 322.182437) scale(0.1 -0.1)">
       <use xlink:href="#DejaVuSans-30"/>
       <use xlink:href="#DejaVuSans-2e" transform="translate(63.623047 0)"/>
       <use xlink:href="#DejaVuSans-30" transform="translate(95.410156 0)"/>
      </g>
     </g>
    </g>
    <g id="xtick_4">
     <g id="line2d_7">
      <path d="M 304.564142 307.584 
L 304.564142 41.472 
" clip-path="url(#pd427fc0dea)" style="fill: none; stroke: #b0b0b0; stroke-opacity: 0.5; stroke-width: 0.8; stroke-linecap: square"/>
     </g>
     <g id="line2d_8">
      <g>
       <use xlink:href="#m6b068479c7" x="304.564142" y="307.584" style="stroke: #000000; stroke-width: 0.8"/>
      </g>
     </g>
     <g id="text_4">
      <!-- 0.5 -->
      <g transform="translate(296.612579 322.182437) scale(0.1 -0.1)">
       <use xlink:href="#DejaVuSans-30"/>
       <use xlink:href="#DejaVuSans-2e" transform="translate(63.623047 0)"/>
       <use xlink:href="#DejaVuSans-35" transform="translate(95.410156 0)"/>
      </g>
     </g>
    </g>
    <g id="xtick_5">
     <g id="line2d_9">
      <path d="M 373.697761 307.584 
L 373.697761 41.472 
" clip-path="url(#pd427fc0dea)" style="fill: none; stroke: #b0b0b0; stroke-opacity: 0.5; stroke-width: 0.8; stroke-linecap: square"/>
     </g>
     <g id="line2d_10">
      <g>
       <use xlink:href="#m6b068479c7" x="373.697761" y="307.584" style="stroke: #000000; stroke-width: 0.8"/>
      </g>
     </g>
     <g id="text_5">
      <!-- 1.0 -->
      <g transform="translate(365.746198 322.182437) scale(0.1 -0.1)">
       <use xlink:href="#DejaVuSans-31"/>
       <use xlink:href="#DejaVuSans-2e" transform="translate(63.623047 0)"/>
       <use xlink:href="#DejaVuSans-30" transform="translate(95.410156 0)"/>
      </g>
     </g>
    </g>
    <g id="text_6">
     <!-- Index -->
     <g transform="translate(222.393594 335.860562) scale(0.1 -0.1)">
      <defs>
       <path id="DejaVuSans-49" d="M 628 4666 
L 1259 4666 
L 1259 0 
L 628 0 
L 628 4666 
z
" transform="scale(0.015625)"/>
       <path id="DejaVuSans-6e" d="M 3513 2113 
L 3513 0 
L 2938 0 
L 2938 2094 
Q 2938 2591 2744 2837 
Q 2550 3084 2163 3084 
Q 1697 3084 1428 2787 
Q 1159 2491 1159 1978 
L 1159 0 
L 581 0 
L 581 3500 
L 1159 3500 
L 1159 2956 
Q 1366 3272 1645 3428 
Q 1925 3584 2291 3584 
Q 2894 3584 3203 3211 
Q 3513 2838 3513 2113 
z
" transform="scale(0.015625)"/>
       <path id="DejaVuSans-64" d="M 2906 2969 
L 2906 4863 
L 3481 4863 
L 3481 0 
L 2906 0 
L 2906 525 
Q 2725 213 2448 61 
Q 2172 -91 1784 -91 
Q 1150 -91 751 415 
Q 353 922 353 1747 
Q 353 2572 751 3078 
Q 1150 3584 1784 3584 
Q 2172 3584 2448 3432 
Q 2725 3281 2906 2969 
z
M 947 1747 
Q 947 1113 1208 752 
Q 1469 391 1925 391 
Q 2381 391 2643 752 
Q 2906 1113 2906 1747 
Q 2906 2381 2643 2742 
Q 2381 3103 1925 3103 
Q 1469 3103 1208 2742 
Q 947 2381 947 1747 
z
" transform="scale(0.015625)"/>
       <path id="DejaVuSans-65" d="M 3597 1894 
L 3597 1613 
L 953 1613 
Q 991 1019 1311 708 
Q 1631 397 2203 397 
Q 2534 397 2845 478 
Q 3156 559 3463 722 
L 3463 178 
Q 3153 47 2828 -22 
Q 2503 -91 2169 -91 
Q 1331 -91 842 396 
Q 353 884 353 1716 
Q 353 2575 817 3079 
Q 1281 3584 2069 3584 
Q 2775 3584 3186 3129 
Q 3597 2675 3597 1894 
z
M 3022 2063 
Q 3016 2534 2758 2815 
Q 2500 3097 2075 3097 
Q 1594 3097 1305 2825 
Q 1016 2553 972 2059 
L 3022 2063 
z
" transform="scale(0.015625)"/>
       <path id="DejaVuSans-78" d="M 3513 3500 
L 2247 1797 
L 3578 0 
L 2900 0 
L 1881 1375 
L 863 0 
L 184 0 
L 1544 1831 
L 300 3500 
L 978 3500 
L 1906 2253 
L 2834 3500 
L 3513 3500 
z
" transform="scale(0.015625)"/>
      </defs>
      <use xlink:href="#DejaVuSans-49"/>
      <use xlink:href="#DejaVuSans-6e" transform="translate(29.492188 0)"/>
      <use xlink:href="#DejaVuSans-64" transform="translate(92.871094 0)"/>
      <use xlink:href="#DejaVuSans-65" transform="translate(156.347656 0)"/>
      <use xlink:href="#DejaVuSans-78" transform="translate(216.121094 0)"/>
     </g>
    </g>
   </g>
   <g id="matplotlib.axis_2">
    <g id="ytick_1">
     <g id="line2d_11">
      <path d="M 57.6 275.510055 
L 414.72 275.510055 
" clip-path="url(#pd427fc0dea)" style="fill: none; stroke: #b0b0b0; stroke-opacity: 0.5; stroke-width: 0.8; stroke-linecap: square"/>
     </g>
     <g id="line2d_12">
      <defs>
       <path id="m37e00f4cb2" d="M 0 0 
L -3.5 0 
" style="stroke: #000000; stroke-width: 0.8"/>
      </defs>
      <g>
       <use xlink:href="#m37e00f4cb2" x="57.6" y="275.510055" style="stroke: #000000; stroke-width: 0.8"/>
      </g>
     </g>
     <g id="text_7">
      <!-- −1.0 -->
      <g transform="translate(26.317187 279.309274) scale(0.1 -0.1)">
       <use xlink:href="#DejaVuSans-2212"/>
       <use xlink:href="#DejaVuSans-31" transform="translate(83.789062 0)"/>
       <use xlink:href="#DejaVuSans-2e" transform="translate(147.412109 0)"/>
       <use xlink:href="#DejaVuSans-30" transform="translate(179.199219 0)"/>
      </g>
     </g>
    </g>
    <g id="ytick_2">
     <g id="line2d_13">
      <path d="M 57.6 225.025611 
L 414.72 225.025611 
" clip-path="url(#pd427fc0dea)" style="fill: none; stroke: #b0b0b0; stroke-opacity: 0.5; stroke-width: 0.8; stroke-linecap: square"/>
     </g>
     <g id="line2d_14">
      <g>
       <use xlink:href="#m37e00f4cb2" x="57.6" y="225.025611" style="stroke: #000000; stroke-width: 0.8"/>
      </g>
     </g>
     <g id="text_8">
      <!-- −0.5 -->
      <g transform="translate(26.317187 228.82483) scale(0.1 -0.1)">
       <use xlink:href="#DejaVuSans-2212"/>
       <use xlink:href="#DejaVuSans-30" transform="translate(83.789062 0)"/>
       <use xlink:href="#DejaVuSans-2e" transform="translate(147.412109 0)"/>
       <use xlink:href="#DejaVuSans-35" transform="translate(179.199219 0)"/>
      </g>
     </g>
    </g>
    <g id="ytick_3">
     <g id="line2d_15">
      <path d="M 57.6 174.541168 
L 414.72 174.541168 
" clip-path="url(#pd427fc0dea)" style="fill: none; stroke: #b0b0b0; stroke-opacity: 0.5; stroke-width: 0.8; stroke-linecap: square"/>
     </g>
     <g id="line2d_16">
      <g>
       <use xlink:href="#m37e00f4cb2" x="57.6" y="174.541168" style="stroke: #000000; stroke-width: 0.8"/>
      </g>
     </g>
     <g id="text_9">
      <!-- 0.0 -->
      <g transform="translate(34.696875 178.340387) scale(0.1 -0.1)">
       <use xlink:href="#DejaVuSans-30"/>
       <use xlink:href="#DejaVuSans-2e" transform="translate(63.623047 0)"/>
       <use xlink:href="#DejaVuSans-30" transform="translate(95.410156 0)"/>
      </g>
     </g>
    </g>
    <g id="ytick_4">
     <g id="line2d_17">
      <path d="M 57.6 124.056724 
L 414.72 124.056724 
" clip-path="url(#pd427fc0dea)" style="fill: none; stroke: #b0b0b0; stroke-opacity: 0.5; stroke-width: 0.8; stroke-linecap: square"/>
     </g>
     <g id="line2d_18">
      <g>
       <use xlink:href="#m37e00f4cb2" x="57.6" y="124.056724" style="stroke: #000000; stroke-width: 0.8"/>
      </g>
     </g>
     <g id="text_10">
      <!-- 0.5 -->
      <g transform="translate(34.696875 127.855943) scale(0.1 -0.1)">
       <use xlink:href="#DejaVuSans-30"/>
       <use xlink:href="#DejaVuSans-2e" transform="translate(63.623047 0)"/>
       <use xlink:href="#DejaVuSans-35" transform="translate(95.410156 0)"/>
      </g>
     </g>
    </g>
    <g id="ytick_5">
     <g id="line2d_19">
      <path d="M 57.6 73.572281 
L 414.72 73.572281 
" clip-path="url(#pd427fc0dea)" style="fill: none; stroke: #b0b0b0; stroke-opacity: 0.5; stroke-width: 0.8; stroke-linecap: square"/>
     </g>
     <g id="line2d_20">
      <g>
       <use xlink:href="#m37e00f4cb2" x="57.6" y="73.572281" style="stroke: #000000; stroke-width: 0.8"/>
      </g>
     </g>
     <g id="text_11">
      <!-- 1.0 -->
      <g transform="translate(34.696875 77.371499) scale(0.1 -0.1)">
       <use xlink:href="#DejaVuSans-31"/>
       <use xlink:href="#DejaVuSans-2e" transform="translate(63.623047 0)"/>
       <use xlink:href="#DejaVuSans-30" transform="translate(95.410156 0)"/>
      </g>
     </g>
    </g>
    <g id="text_12">
     <!-- Value -->
     <g transform="translate(20.2375 188.25925) rotate(-90) scale(0.1 -0.1)">
      <defs>
       <path id="DejaVuSans-56" d="M 1831 0 
L 50 4666 
L 709 4666 
L 2188 738 
L 3669 4666 
L 4325 4666 
L 2547 0 
L 1831 0 
z
" transform="scale(0.015625)"/>
       <path id="DejaVuSans-61" d="M 2194 1759 
Q 1497 1759 1228 1600 
Q 959 1441 959 1056 
Q 959 750 1161 570 
Q 1363 391 1709 391 
Q 2188 391 2477 730 
Q 2766 1069 2766 1631 
L 2766 1759 
L 2194 1759 
z
M 3341 1997 
L 3341 0 
L 2766 0 
L 2766 531 
Q 2569 213 2275 61 
Q 1981 -91 1556 -91 
Q 1019 -91 701 211 
Q 384 513 384 1019 
Q 384 1609 779 1909 
Q 1175 2209 1959 2209 
L 2766 2209 
L 2766 2266 
Q 2766 2663 2505 2880 
Q 2244 3097 1772 3097 
Q 1472 3097 1187 3025 
Q 903 2953 641 2809 
L 641 3341 
Q 956 3463 1253 3523 
Q 1550 3584 1831 3584 
Q 2591 3584 2966 3190 
Q 3341 2797 3341 1997 
z
" transform="scale(0.015625)"/>
       <path id="DejaVuSans-6c" d="M 603 4863 
L 1178 4863 
L 1178 0 
L 603 0 
L 603 4863 
z
" transform="scale(0.015625)"/>
       <path id="DejaVuSans-75" d="M 544 1381 
L 544 3500 
L 1119 3500 
L 1119 1403 
Q 1119 906 1312 657 
Q 1506 409 1894 409 
Q 2359 409 2629 706 
Q 2900 1003 2900 1516 
L 2900 3500 
L 3475 3500 
L 3475 0 
L 2900 0 
L 2900 538 
Q 2691 219 2414 64 
Q 2138 -91 1772 -91 
Q 1169 -91 856 284 
Q 544 659 544 1381 
z
M 1991 3584 
L 1991 3584 
z
" transform="scale(0.015625)"/>
      </defs>
      <use xlink:href="#DejaVuSans-56"/>
      <use xlink:href="#DejaVuSans-61" transform="translate(60.658203 0)"/>
      <use xlink:href="#DejaVuSans-6c" transform="translate(121.9375 0)"/>
      <use xlink:href="#DejaVuSans-75" transform="translate(149.720703 0)"/>
      <use xlink:href="#DejaVuSans-65" transform="translate(213.099609 0)"/>
     </g>
    </g>
   </g>
   <g id="line2d_21">
    <path d="M 236.229368 177.476808 
L 238.45462 176.999573 
L 238.512561 176.522276 
L 239.555317 175.093131 
L 239.82218 174.618515 
L 240.355232 174.144899 
L 243.847834 171.780766 
L 248.729795 167.992113 
L 253.151157 164.695489 
L 256.218682 162.345221 
L 260.593572 159.067244 
L 267.414092 153.926992 
L 279.146188 145.05163 
L 288.430322 138.070622 
L 295.782938 132.516402 
L 306.707904 124.247565 
L 310.293023 121.499483 
L 317.515108 116.026422 
L 325.964012 109.675972 
L 329.828967 109.166861 
L 325.579568 108.714123 
L 326.274695 108.261444 
L 329.33193 107.357593 
L 330.060788 106.906853 
L 331.237277 105.557406 
L 334.328318 103.304614 
L 336.678435 101.510133 
L 339.678623 99.267463 
L 342.574929 97.028832 
L 346.144505 94.346514 
L 349.078301 92.115971 
L 352.030524 89.884736 
L 354.952617 87.658616 
L 357.902994 85.429692 
L 360.177431 83.650678 
L 363.771014 80.983351 
L 365.99541 79.206268 
L 369.619585 76.549473 
L 371.793328 74.77747 
L 375.937798 71.689422 
L 377.544271 70.369266 
L 381.217351 67.737297 
L 383.230355 65.980808 
L 387.466567 62.921714 
L 388.844376 61.611079 
L 390.211223 60.754711 
L 392.380088 59.45107 
L 393.205494 58.561048 
L 393.779835 57.684375 
L 394.25345 57.258405 
L 394.974059 56.838719 
L 397.970984 55.554035 
L 398.487273 55.104053 
L 398.268827 54.655431 
L 397.082103 54.234156 
L 394.785002 53.879707 
L 391.420644 53.640772 
L 387.317464 53.568 
L 383.27832 53.70418 
L 380.474639 54.074204 
L 379.816532 54.676603 
L 381.178864 55.479662 
L 383.487931 56.422909 
L 385.564113 57.424544 
L 386.892556 58.393982 
L 388.490442 59.921863 
L 389.233995 60.388804 
L 389.356857 60.657962 
L 388.138717 60.776509 
L 376.290232 61.031477 
L 372.259312 61.348516 
L 370.290803 61.858416 
L 370.898184 62.553207 
L 367.232109 63.499366 
L 379.054354 64.406756 
L 381.518013 65.290098 
L 380.430449 66.073621 
L 378.754615 66.704162 
L 377.965554 67.161534 
L 377.682463 67.461614 
L 376.640276 67.652127 
L 366.247497 68.27045 
L 363.421144 68.698357 
L 362.61297 69.2821 
L 363.705842 70.001734 
L 367.726674 71.642384 
L 368.943199 72.432395 
L 369.39359 73.123912 
L 369.312289 73.683094 
L 368.7758 74.10458 
L 367.591417 74.411701 
L 362.74859 74.879569 
L 359.61659 75.15737 
L 356.908179 75.530114 
L 355.347708 76.022507 
L 355.226676 76.633367 
L 356.219019 77.337005 
L 358.818001 78.837352 
L 359.449916 79.531836 
L 359.521121 80.136203 
L 359.116833 80.634228 
L 358.20926 81.03267 
L 356.706908 81.358791 
L 349.865549 82.327995 
L 348.177156 82.77507 
L 347.448949 83.31299 
L 347.642399 83.930687 
L 349.699197 85.949576 
L 349.798951 86.557674 
L 349.470557 87.092374 
L 348.736235 87.551263 
L 347.574416 87.94805 
L 340.80432 89.48228 
L 339.844951 89.978921 
L 339.516565 90.536009 
L 339.660608 91.138817 
L 340.261478 92.384064 
L 340.282328 92.975035 
L 339.990988 93.519816 
L 339.379148 94.012112 
L 338.451599 94.457008 
L 335.810594 95.269925 
L 333.02872 96.120383 
L 332.044923 96.600064 
L 331.46656 97.121813 
L 331.241002 97.678516 
L 331.092105 99.402368 
L 330.758462 99.940835 
L 330.182909 100.445318 
L 329.370285 100.917092 
L 327.193863 101.800259 
L 324.918042 102.693687 
L 324.026697 103.172538 
L 323.388534 103.678123 
L 322.972543 104.206991 
L 322.147203 105.839173 
L 321.706529 106.364208 
L 321.106961 106.868998 
L 319.480254 107.822699 
L 316.682417 109.213213 
L 315.246127 110.191636 
L 314.26186 111.220528 
L 312.828464 112.773168 
L 311.518646 113.763621 
L 306.408462 117.138696 
L 302.893612 120.130826 
L 297.486635 124.007862 
L 295.026434 125.97287 
L 288.50407 130.834994 
L 281.381013 136.203293 
L 277.453205 136.750291 
L 281.654602 137.235534 
L 280.929785 137.720464 
L 277.456831 138.692192 
L 276.589349 139.179956 
L 275.632192 140.649607 
L 274.212942 141.62853 
L 272.178559 143.085729 
L 268.913012 145.503372 
L 189.630266 205.53671 
L 186.168808 206.058414 
L 189.596963 206.522394 
L 189.173233 206.986675 
L 186.206175 207.915764 
L 185.279746 208.380163 
L 184.86307 208.844176 
L 184.272675 209.770554 
L 182.966789 210.695069 
L 181.546611 211.618922 
L 166.604918 223.100842 
L 142.896937 241.236678 
L 122.525771 256.8689 
L 118.506274 259.979607 
L 103.469747 271.493613 
L 100.42527 271.991253 
L 103.243571 272.434152 
L 103.073519 272.876948 
L 99.571184 274.199216 
L 99.019605 274.637552 
L 98.392223 275.513461 
L 97.287344 276.392458 
L 95.453993 277.714864 
L 93.886023 279.027593 
L 90.88806 281.212482 
L 88.851272 282.962795 
L 84.757256 286.010467 
L 83.32901 287.317407 
L 82.031967 288.173486 
L 79.98158 289.470508 
L 79.111094 290.354812 
L 78.473574 291.230871 
L 78.013953 291.657984 
L 77.346567 292.078393 
L 73.894554 293.799722 
L 73.832727 294.24956 
L 74.539853 294.682582 
L 76.100241 295.064426 
L 78.426582 295.34975 
L 81.314127 295.488 
L 84.474857 295.432572 
L 87.54546 295.150595 
L 89.931913 294.632571 
L 90.942354 293.898277 
L 90.278512 292.997759 
L 88.343175 292.00627 
L 81.535012 289.366092 
L 80.804761 288.828039 
L 81.722487 288.499637 
L 84.178498 288.345643 
L 94.586606 288.158501 
L 97.527703 287.90115 
L 99.676212 287.44858 
L 100.507354 286.795965 
L 99.638301 285.978968 
L 97.35475 285.06586 
L 91.870085 283.296541 
L 90.226888 282.59495 
L 90.115069 282.074748 
L 91.759783 281.733611 
L 98.342115 281.40155 
L 104.790039 281.034054 
L 107.052336 280.662477 
L 108.345671 280.121175 
L 108.356665 279.420896 
L 107.064476 278.605283 
L 100.882517 276.158108 
L 100.188553 275.552628 
L 100.90467 275.101695 
L 102.964329 274.787833 
L 111.883353 274.137908 
L 114.203571 273.808748 
L 115.780581 273.348752 
L 116.391951 272.751642 
L 115.92989 272.040163 
L 114.595827 271.260341 
L 111.307075 269.731251 
L 110.414972 269.08747 
L 110.550633 268.564518 
L 111.824848 268.160888 
L 116.647161 267.586817 
L 121.523802 266.992698 
L 123.19769 266.575191 
L 124.12491 266.049783 
L 124.20622 265.424586 
L 123.530015 264.728514 
L 120.430799 262.654402 
L 120.352201 262.096351 
L 121.148194 261.632245 
L 122.732457 261.249029 
L 129.07855 260.24912 
L 130.693117 259.841212 
L 131.740035 259.355488 
L 132.147315 258.791629 
L 131.958546 258.166054 
L 130.127726 256.227545 
L 130.064993 255.662236 
L 130.615475 255.164764 
L 131.776239 254.730267 
L 138.380667 253.169022 
L 139.434523 252.698494 
L 140.019364 252.171804 
L 140.156814 251.597419 
L 139.972232 250.9936 
L 139.434293 249.792322 
L 139.502424 249.236871 
L 143.503403 248.666723 
L 138.98555 248.206805 
L 140.520827 247.779133 
L 145.818 246.946736 
L 147.305312 246.504565 
L 147.886823 246.028061 
L 148.025508 244.968573 
L 148.258426 243.833609 
L 148.483778 243.275492 
L 148.826561 242.740756 
L 149.367516 242.235449 
L 150.165034 241.758667 
L 152.351304 240.858541 
L 154.541539 239.951163 
L 155.369632 239.470482 
L 155.9781 238.967305 
L 156.690221 237.909929 
L 157.274006 236.840588 
L 157.718496 236.322432 
L 158.327014 235.821235 
L 159.964929 234.864983 
L 162.66823 233.461999 
L 164.04214 232.483846 
L 165.031278 231.465558 
L 166.470336 229.935157 
L 167.785098 228.953411 
L 172.236188 226.06932 
L 176.353164 222.606551 
L 179.885465 220.187421 
L 184.918156 216.266837 
L 187.602823 214.31278 
L 191.343622 211.371832 
L 195.352241 208.440483 
L 199.101998 205.504506 
L 203.700284 202.103968 
L 208.08991 198.708042 
L 212.640839 195.329106 
L 215.709324 192.916038 
L 220.307171 189.556719 
L 223.351422 187.147593 
L 228.51831 183.321003 
L 232.277557 180.450902 
L 235.477928 178.072891 
L 239.658033 177.536445 
L 239.658033 177.536445 
" clip-path="url(#pd427fc0dea)" style="fill: none; stroke: #1f77b4; stroke-width: 1.5; stroke-linecap: square"/>
   </g>
   <g id="line2d_22">
    <path d="M 235.662333 177.476808 
L 266.055582 154.393676 
L 270.407506 151.12179 
L 274.151943 148.323237 
L 278.430701 145.05163 
L 381.210181 66.8541 
L 383.060418 65.54793 
L 384.949241 64.246118 
L 388.115806 61.611079 
L 390.853605 59.891025 
L 391.734492 59.006576 
L 392.472919 58.119022 
L 393.000449 57.684375 
L 394.609873 56.838719 
L 396.420288 55.992967 
L 396.91205 55.554035 
L 396.811555 55.104053 
L 395.949673 54.655431 
L 394.284883 54.234156 
L 391.940395 53.879707 
L 389.205167 53.640772 
L 386.494349 53.568 
L 384.27246 53.70418 
L 382.956906 54.074204 
L 382.819951 54.676603 
L 383.916103 55.479662 
L 386.050469 56.422909 
L 393.823218 59.247221 
L 394.947489 59.921863 
L 394.637383 60.388804 
L 392.830051 60.657962 
L 385.875604 60.819816 
L 378.259672 61.031477 
L 375.718149 61.348516 
L 374.534293 61.858416 
L 374.760831 62.553207 
L 376.404029 63.499366 
L 382.475709 66.073621 
L 383.149227 66.704162 
L 382.57604 67.161534 
L 380.775333 67.461614 
L 374.747596 67.801896 
L 371.511482 67.986053 
L 368.816908 68.27045 
L 367.042335 68.698357 
L 366.362291 69.2821 
L 366.719084 70.001734 
L 367.844122 70.809812 
L 370.684938 72.432395 
L 371.507435 73.123912 
L 371.498073 73.683094 
L 370.552458 74.10458 
L 368.767477 74.411701 
L 361.526131 75.15737 
L 359.734111 75.530114 
L 358.695641 76.022507 
L 358.447353 76.633367 
L 358.855375 77.337005 
L 361.061532 79.531836 
L 361.084485 80.136203 
L 360.438749 80.634228 
L 359.145538 81.03267 
L 355.352142 81.65372 
L 351.78255 82.327995 
L 350.674094 82.77507 
L 350.141495 83.31299 
L 350.122408 83.930687 
L 351.185553 85.949576 
L 351.149439 86.557674 
L 350.655097 87.092374 
L 349.686687 87.551263 
L 346.752512 88.308541 
L 343.737613 89.048198 
L 342.646612 89.48228 
L 341.95273 89.978921 
L 341.636608 90.536009 
L 341.598178 91.138817 
L 341.715181 92.384064 
L 341.543233 92.975035 
L 341.065654 93.519816 
L 340.254069 94.012112 
L 337.877431 94.86937 
L 335.356783 95.68077 
L 334.370242 96.120383 
L 333.661402 96.600064 
L 333.222417 97.121813 
L 332.838122 98.255946 
L 332.656886 98.836343 
L 332.33019 99.402368 
L 331.786498 99.940835 
L 331.007664 100.445318 
L 328.936484 101.364438 
L 326.803758 102.239077 
L 325.93998 102.693687 
L 325.26905 103.172538 
L 324.410522 104.206991 
L 323.732447 105.298461 
L 323.268458 105.839173 
L 322.65942 106.364208 
L 321.032335 107.353687 
L 317.577693 109.213213 
L 316.412413 110.191636 
L 314.426127 112.261824 
L 313.032553 113.273889 
L 308.541509 116.152389 
L 305.150787 119.147119 
L 299.583977 123.026255 
L 297.309718 124.993198 
L 295.107632 126.45953 
L 292.907112 127.913422 
L 291.131431 129.372156 
L 289.403347 130.834994 
L 287.297987 132.294658 
L 284.427258 134.247439 
L 277.964928 139.179956 
L 275.302986 141.139622 
L 270.966769 144.534777 
L 266.36935 147.934382 
L 262.635513 150.820411 
L 258.692555 153.711346 
L 254.299211 157.065398 
L 249.7949 160.425867 
L 244.052062 164.718117 
L 232.14853 173.751671 
L 227.700014 177.053507 
L 207.357285 192.513711 
L 95.95914 277.274415 
L 93.688675 279.027593 
L 90.789757 281.212482 
L 88.587119 282.962795 
L 85.559059 285.131615 
L 82.952956 287.317407 
L 79.748745 289.470508 
L 78.09101 291.230871 
L 76.633244 292.078393 
L 74.816895 292.919811 
L 74.183711 293.353761 
L 74.044679 293.799722 
L 74.600856 294.24956 
L 75.951913 294.682582 
L 78.047858 295.064426 
L 80.669339 295.34975 
L 83.448164 295.488 
L 85.927976 295.432572 
L 87.654394 295.150595 
L 88.277194 294.632571 
L 87.639164 293.898277 
L 85.830826 292.997759 
L 80.263369 291.013542 
L 77.677392 290.109028 
L 76.037706 289.366092 
L 75.787185 288.828039 
L 77.109018 288.499637 
L 79.880442 288.345643 
L 91.860624 288.158501 
L 94.880443 287.90115 
L 96.531981 287.44858 
L 96.656541 286.795965 
L 95.411056 285.978968 
L 93.231049 285.06586 
L 88.58979 283.296541 
L 87.373858 282.59495 
L 87.455365 282.074748 
L 88.922164 281.733611 
L 91.571929 281.531857 
L 101.634905 281.034054 
L 103.840798 280.662477 
L 104.860272 280.121175 
L 104.678707 279.420896 
L 103.532934 278.605283 
L 98.960465 276.158108 
L 98.634025 275.552628 
L 99.360229 275.101695 
L 101.088725 274.787833 
L 111.163049 273.808748 
L 112.459614 273.348752 
L 112.829891 272.751642 
L 112.380168 272.040163 
L 109.335954 269.731251 
L 109.013552 269.08747 
L 109.470148 268.564518 
L 110.727938 268.160888 
L 114.907342 267.586817 
L 119.137992 266.992698 
L 120.496293 266.575191 
L 121.143488 266.049783 
L 121.117264 265.424586 
L 120.599112 264.728514 
L 119.241775 263.299314 
L 118.99554 262.654402 
L 119.314843 262.096351 
L 120.253412 261.632245 
L 121.728625 261.249029 
L 127.150943 260.24912 
L 128.460233 259.841212 
L 129.251875 259.355488 
L 129.526815 258.791629 
L 129.398884 258.166054 
L 128.757615 256.850526 
L 128.693217 256.227545 
L 129.024553 255.662236 
L 129.810095 255.164764 
L 131.005036 254.730267 
L 136.645298 253.169022 
L 137.437021 252.698494 
L 137.845999 252.171804 
L 137.950541 251.597419 
L 137.849008 250.384051 
L 137.977968 249.792322 
L 138.396144 249.236871 
L 139.263952 248.666723 
L 141.611704 247.779133 
L 144.116272 246.946736 
L 145.09688 246.504565 
L 145.801435 246.028061 
L 146.239208 245.514256 
L 146.635371 244.403131 
L 146.828812 243.833609 
L 147.167714 243.275492 
L 147.718806 242.740756 
L 148.49497 242.235449 
L 150.520468 241.303444 
L 152.56764 240.411466 
L 154.027681 239.470482 
L 154.866785 238.444732 
L 155.578287 237.372111 
L 156.066143 236.840588 
L 157.464753 235.821235 
L 161.727337 233.461999 
L 162.838744 232.483846 
L 164.75061 230.439639 
L 166.160947 229.439791 
L 170.122062 227.044259 
L 171.237581 226.06932 
L 173.310257 224.075853 
L 174.745883 223.091932 
L 178.557182 220.675324 
L 180.174069 219.204054 
L 181.269714 218.218653 
L 182.618978 217.239633 
L 187.03203 214.31278 
L 191.226121 210.885587 
L 195.423223 207.948223 
L 199.693559 204.536365 
L 204.360453 201.12692 
L 208.024514 198.228002 
L 212.646446 194.843407 
L 215.723765 192.438363 
L 220.933683 188.588863 
L 224.719724 185.71763 
L 229.826632 181.881141 
L 235.583597 177.536445 
L 235.583597 177.536445 
" clip-path="url(#pd427fc0dea)" style="fill: none; stroke: #ff7f0e; stroke-opacity: 0.5; stroke-width: 1.5; stroke-linecap: square"/>
   </g>
   <g id="patch_3">
    <path d="M 57.6 307.584 
L 57.6 41.472 
" style="fill: none; stroke: #000000; stroke-width: 0.8; stroke-linejoin: miter; stroke-linecap: square"/>
   </g>
   <g id="patch_4">
    <path d="M 414.72 307.584 
L 414.72 41.472 
" style="fill: none; stroke: #000000; stroke-width: 0.8; stroke-linejoin: miter; stroke-linecap: square"/>
   </g>
   <g id="patch_5">
    <path d="M 57.6 307.584 
L 414.72 307.584 
" style="fill: none; stroke: #000000; stroke-width: 0.8; stroke-linejoin: miter; stroke-linecap: square"/>
   </g>
   <g id="patch_6">
    <path d="M 57.6 41.472 
L 414.72 41.472 
" style="fill: none; stroke: #000000; stroke-width: 0.8; stroke-linejoin: miter; stroke-linecap: square"/>
   </g>
   <g id="text_13">
    <!-- Compare - Epoch 1800 -->
    <g transform="translate(167.416875 35.472) scale(0.12 -0.12)">
     <defs>
      <path id="DejaVuSans-43" d="M 4122 4306 
L 4122 3641 
Q 3803 3938 3442 4084 
Q 3081 4231 2675 4231 
Q 1875 4231 1450 3742 
Q 1025 3253 1025 2328 
Q 1025 1406 1450 917 
Q 1875 428 2675 428 
Q 3081 428 3442 575 
Q 3803 722 4122 1019 
L 4122 359 
Q 3791 134 3420 21 
Q 3050 -91 2638 -91 
Q 1578 -91 968 557 
Q 359 1206 359 2328 
Q 359 3453 968 4101 
Q 1578 4750 2638 4750 
Q 3056 4750 3426 4639 
Q 3797 4528 4122 4306 
z
" transform="scale(0.015625)"/>
      <path id="DejaVuSans-6f" d="M 1959 3097 
Q 1497 3097 1228 2736 
Q 959 2375 959 1747 
Q 959 1119 1226 758 
Q 1494 397 1959 397 
Q 2419 397 2687 759 
Q 2956 1122 2956 1747 
Q 2956 2369 2687 2733 
Q 2419 3097 1959 3097 
z
M 1959 3584 
Q 2709 3584 3137 3096 
Q 3566 2609 3566 1747 
Q 3566 888 3137 398 
Q 2709 -91 1959 -91 
Q 1206 -91 779 398 
Q 353 888 353 1747 
Q 353 2609 779 3096 
Q 1206 3584 1959 3584 
z
" transform="scale(0.015625)"/>
      <path id="DejaVuSans-6d" d="M 3328 2828 
Q 3544 3216 3844 3400 
Q 4144 3584 4550 3584 
Q 5097 3584 5394 3201 
Q 5691 2819 5691 2113 
L 5691 0 
L 5113 0 
L 5113 2094 
Q 5113 2597 4934 2840 
Q 4756 3084 4391 3084 
Q 3944 3084 3684 2787 
Q 3425 2491 3425 1978 
L 3425 0 
L 2847 0 
L 2847 2094 
Q 2847 2600 2669 2842 
Q 2491 3084 2119 3084 
Q 1678 3084 1418 2786 
Q 1159 2488 1159 1978 
L 1159 0 
L 581 0 
L 581 3500 
L 1159 3500 
L 1159 2956 
Q 1356 3278 1631 3431 
Q 1906 3584 2284 3584 
Q 2666 3584 2933 3390 
Q 3200 3197 3328 2828 
z
" transform="scale(0.015625)"/>
      <path id="DejaVuSans-70" d="M 1159 525 
L 1159 -1331 
L 581 -1331 
L 581 3500 
L 1159 3500 
L 1159 2969 
Q 1341 3281 1617 3432 
Q 1894 3584 2278 3584 
Q 2916 3584 3314 3078 
Q 3713 2572 3713 1747 
Q 3713 922 3314 415 
Q 2916 -91 2278 -91 
Q 1894 -91 1617 61 
Q 1341 213 1159 525 
z
M 3116 1747 
Q 3116 2381 2855 2742 
Q 2594 3103 2138 3103 
Q 1681 3103 1420 2742 
Q 1159 2381 1159 1747 
Q 1159 1113 1420 752 
Q 1681 391 2138 391 
Q 2594 391 2855 752 
Q 3116 1113 3116 1747 
z
" transform="scale(0.015625)"/>
      <path id="DejaVuSans-72" d="M 2631 2963 
Q 2534 3019 2420 3045 
Q 2306 3072 2169 3072 
Q 1681 3072 1420 2755 
Q 1159 2438 1159 1844 
L 1159 0 
L 581 0 
L 581 3500 
L 1159 3500 
L 1159 2956 
Q 1341 3275 1631 3429 
Q 1922 3584 2338 3584 
Q 2397 3584 2469 3576 
Q 2541 3569 2628 3553 
L 2631 2963 
z
" transform="scale(0.015625)"/>
      <path id="DejaVuSans-20" transform="scale(0.015625)"/>
      <path id="DejaVuSans-2d" d="M 313 2009 
L 1997 2009 
L 1997 1497 
L 313 1497 
L 313 2009 
z
" transform="scale(0.015625)"/>
      <path id="DejaVuSans-45" d="M 628 4666 
L 3578 4666 
L 3578 4134 
L 1259 4134 
L 1259 2753 
L 3481 2753 
L 3481 2222 
L 1259 2222 
L 1259 531 
L 3634 531 
L 3634 0 
L 628 0 
L 628 4666 
z
" transform="scale(0.015625)"/>
      <path id="DejaVuSans-63" d="M 3122 3366 
L 3122 2828 
Q 2878 2963 2633 3030 
Q 2388 3097 2138 3097 
Q 1578 3097 1268 2742 
Q 959 2388 959 1747 
Q 959 1106 1268 751 
Q 1578 397 2138 397 
Q 2388 397 2633 464 
Q 2878 531 3122 666 
L 3122 134 
Q 2881 22 2623 -34 
Q 2366 -91 2075 -91 
Q 1284 -91 818 406 
Q 353 903 353 1747 
Q 353 2603 823 3093 
Q 1294 3584 2113 3584 
Q 2378 3584 2631 3529 
Q 2884 3475 3122 3366 
z
" transform="scale(0.015625)"/>
      <path id="DejaVuSans-68" d="M 3513 2113 
L 3513 0 
L 2938 0 
L 2938 2094 
Q 2938 2591 2744 2837 
Q 2550 3084 2163 3084 
Q 1697 3084 1428 2787 
Q 1159 2491 1159 1978 
L 1159 0 
L 581 0 
L 581 4863 
L 1159 4863 
L 1159 2956 
Q 1366 3272 1645 3428 
Q 1925 3584 2291 3584 
Q 2894 3584 3203 3211 
Q 3513 2838 3513 2113 
z
" transform="scale(0.015625)"/>
      <path id="DejaVuSans-38" d="M 2034 2216 
Q 1584 2216 1326 1975 
Q 1069 1734 1069 1313 
Q 1069 891 1326 650 
Q 1584 409 2034 409 
Q 2484 409 2743 651 
Q 3003 894 3003 1313 
Q 3003 1734 2745 1975 
Q 2488 2216 2034 2216 
z
M 1403 2484 
Q 997 2584 770 2862 
Q 544 3141 544 3541 
Q 544 4100 942 4425 
Q 1341 4750 2034 4750 
Q 2731 4750 3128 4425 
Q 3525 4100 3525 3541 
Q 3525 3141 3298 2862 
Q 3072 2584 2669 2484 
Q 3125 2378 3379 2068 
Q 3634 1759 3634 1313 
Q 3634 634 3220 271 
Q 2806 -91 2034 -91 
Q 1263 -91 848 271 
Q 434 634 434 1313 
Q 434 1759 690 2068 
Q 947 2378 1403 2484 
z
M 1172 3481 
Q 1172 3119 1398 2916 
Q 1625 2713 2034 2713 
Q 2441 2713 2670 2916 
Q 2900 3119 2900 3481 
Q 2900 3844 2670 4047 
Q 2441 4250 2034 4250 
Q 1625 4250 1398 4047 
Q 1172 3844 1172 3481 
z
" transform="scale(0.015625)"/>
     </defs>
     <use xlink:href="#DejaVuSans-43"/>
     <use xlink:href="#DejaVuSans-6f" transform="translate(69.824219 0)"/>
     <use xlink:href="#DejaVuSans-6d" transform="translate(131.005859 0)"/>
     <use xlink:href="#DejaVuSans-70" transform="translate(228.417969 0)"/>
     <use xlink:href="#DejaVuSans-61" transform="translate(291.894531 0)"/>
     <use xlink:href="#DejaVuSans-72" transform="translate(353.173828 0)"/>
     <use xlink:href="#DejaVuSans-65" transform="translate(392.037109 0)"/>
     <use xlink:href="#DejaVuSans-20" transform="translate(453.560547 0)"/>
     <use xlink:href="#DejaVuSans-2d" transform="translate(485.347656 0)"/>
     <use xlink:href="#DejaVuSans-20" transform="translate(521.431641 0)"/>
     <use xlink:href="#DejaVuSans-45" transform="translate(553.21875 0)"/>
     <use xlink:href="#DejaVuSans-70" transform="translate(616.402344 0)"/>
     <use xlink:href="#DejaVuSans-6f" transform="translate(679.878906 0)"/>
     <use xlink:href="#DejaVuSans-63" transform="translate(741.060547 0)"/>
     <use xlink:href="#DejaVuSans-68" transform="translate(796.041016 0)"/>
     <use xlink:href="#DejaVuSans-20" transform="translate(859.419922 0)"/>
     <use xlink:href="#DejaVuSans-31" transform="translate(891.207031 0)"/>
     <use xlink:href="#DejaVuSans-38" transform="translate(954.830078 0)"/>
     <use xlink:href="#DejaVuSans-30" transform="translate(1018.453125 0)"/>
     <use xlink:href="#DejaVuSans-30" transform="translate(1082.076172 0)"/>
    </g>
   </g>
   <g id="legend_1">
    <g id="patch_7">
     <path d="M 64.6 78.82825 
L 181.128125 78.82825 
Q 183.128125 78.82825 183.128125 76.82825 
L 183.128125 48.472 
Q 183.128125 46.472 181.128125 46.472 
L 64.6 46.472 
Q 62.6 46.472 62.6 48.472 
L 62.6 76.82825 
Q 62.6 78.82825 64.6 78.82825 
z
" style="fill: #ffffff; opacity: 0.8; stroke: #cccccc; stroke-linejoin: miter"/>
    </g>
    <g id="line2d_23">
     <path d="M 66.6 54.570437 
L 76.6 54.570437 
L 86.6 54.570437 
" style="fill: none; stroke: #1f77b4; stroke-width: 1.5; stroke-linecap: square"/>
    </g>
    <g id="text_14">
     <!-- Pred: Sample 1 -->
     <g transform="translate(94.6 58.070437) scale(0.1 -0.1)">
      <defs>
       <path id="DejaVuSans-50" d="M 1259 4147 
L 1259 2394 
L 2053 2394 
Q 2494 2394 2734 2622 
Q 2975 2850 2975 3272 
Q 2975 3691 2734 3919 
Q 2494 4147 2053 4147 
L 1259 4147 
z
M 628 4666 
L 2053 4666 
Q 2838 4666 3239 4311 
Q 3641 3956 3641 3272 
Q 3641 2581 3239 2228 
Q 2838 1875 2053 1875 
L 1259 1875 
L 1259 0 
L 628 0 
L 628 4666 
z
" transform="scale(0.015625)"/>
       <path id="DejaVuSans-3a" d="M 750 794 
L 1409 794 
L 1409 0 
L 750 0 
L 750 794 
z
M 750 3309 
L 1409 3309 
L 1409 2516 
L 750 2516 
L 750 3309 
z
" transform="scale(0.015625)"/>
       <path id="DejaVuSans-53" d="M 3425 4513 
L 3425 3897 
Q 3066 4069 2747 4153 
Q 2428 4238 2131 4238 
Q 1616 4238 1336 4038 
Q 1056 3838 1056 3469 
Q 1056 3159 1242 3001 
Q 1428 2844 1947 2747 
L 2328 2669 
Q 3034 2534 3370 2195 
Q 3706 1856 3706 1288 
Q 3706 609 3251 259 
Q 2797 -91 1919 -91 
Q 1588 -91 1214 -16 
Q 841 59 441 206 
L 441 856 
Q 825 641 1194 531 
Q 1563 422 1919 422 
Q 2459 422 2753 634 
Q 3047 847 3047 1241 
Q 3047 1584 2836 1778 
Q 2625 1972 2144 2069 
L 1759 2144 
Q 1053 2284 737 2584 
Q 422 2884 422 3419 
Q 422 4038 858 4394 
Q 1294 4750 2059 4750 
Q 2388 4750 2728 4690 
Q 3069 4631 3425 4513 
z
" transform="scale(0.015625)"/>
      </defs>
      <use xlink:href="#DejaVuSans-50"/>
      <use xlink:href="#DejaVuSans-72" transform="translate(58.552734 0)"/>
      <use xlink:href="#DejaVuSans-65" transform="translate(97.416016 0)"/>
      <use xlink:href="#DejaVuSans-64" transform="translate(158.939453 0)"/>
      <use xlink:href="#DejaVuSans-3a" transform="translate(222.416016 0)"/>
      <use xlink:href="#DejaVuSans-20" transform="translate(256.107422 0)"/>
      <use xlink:href="#DejaVuSans-53" transform="translate(287.894531 0)"/>
      <use xlink:href="#DejaVuSans-61" transform="translate(351.371094 0)"/>
      <use xlink:href="#DejaVuSans-6d" transform="translate(412.650391 0)"/>
      <use xlink:href="#DejaVuSans-70" transform="translate(510.0625 0)"/>
      <use xlink:href="#DejaVuSans-6c" transform="translate(573.539062 0)"/>
      <use xlink:href="#DejaVuSans-65" transform="translate(601.322266 0)"/>
      <use xlink:href="#DejaVuSans-20" transform="translate(662.845703 0)"/>
      <use xlink:href="#DejaVuSans-31" transform="translate(694.632812 0)"/>
     </g>
    </g>
    <g id="line2d_24">
     <path d="M 66.6 69.248562 
L 76.6 69.248562 
L 86.6 69.248562 
" style="fill: none; stroke: #ff7f0e; stroke-opacity: 0.5; stroke-width: 1.5; stroke-linecap: square"/>
    </g>
    <g id="text_15">
     <!-- Target: Sample 1 -->
     <g transform="translate(94.6 72.748562) scale(0.1 -0.1)">
      <defs>
       <path id="DejaVuSans-54" d="M -19 4666 
L 3928 4666 
L 3928 4134 
L 2272 4134 
L 2272 0 
L 1638 0 
L 1638 4134 
L -19 4134 
L -19 4666 
z
" transform="scale(0.015625)"/>
       <path id="DejaVuSans-67" d="M 2906 1791 
Q 2906 2416 2648 2759 
Q 2391 3103 1925 3103 
Q 1463 3103 1205 2759 
Q 947 2416 947 1791 
Q 947 1169 1205 825 
Q 1463 481 1925 481 
Q 2391 481 2648 825 
Q 2906 1169 2906 1791 
z
M 3481 434 
Q 3481 -459 3084 -895 
Q 2688 -1331 1869 -1331 
Q 1566 -1331 1297 -1286 
Q 1028 -1241 775 -1147 
L 775 -588 
Q 1028 -725 1275 -790 
Q 1522 -856 1778 -856 
Q 2344 -856 2625 -561 
Q 2906 -266 2906 331 
L 2906 616 
Q 2728 306 2450 153 
Q 2172 0 1784 0 
Q 1141 0 747 490 
Q 353 981 353 1791 
Q 353 2603 747 3093 
Q 1141 3584 1784 3584 
Q 2172 3584 2450 3431 
Q 2728 3278 2906 2969 
L 2906 3500 
L 3481 3500 
L 3481 434 
z
" transform="scale(0.015625)"/>
       <path id="DejaVuSans-74" d="M 1172 4494 
L 1172 3500 
L 2356 3500 
L 2356 3053 
L 1172 3053 
L 1172 1153 
Q 1172 725 1289 603 
Q 1406 481 1766 481 
L 2356 481 
L 2356 0 
L 1766 0 
Q 1100 0 847 248 
Q 594 497 594 1153 
L 594 3053 
L 172 3053 
L 172 3500 
L 594 3500 
L 594 4494 
L 1172 4494 
z
" transform="scale(0.015625)"/>
      </defs>
      <use xlink:href="#DejaVuSans-54"/>
      <use xlink:href="#DejaVuSans-61" transform="translate(44.583984 0)"/>
      <use xlink:href="#DejaVuSans-72" transform="translate(105.863281 0)"/>
      <use xlink:href="#DejaVuSans-67" transform="translate(145.226562 0)"/>
      <use xlink:href="#DejaVuSans-65" transform="translate(208.703125 0)"/>
      <use xlink:href="#DejaVuSans-74" transform="translate(270.226562 0)"/>
      <use xlink:href="#DejaVuSans-3a" transform="translate(309.435547 0)"/>
      <use xlink:href="#DejaVuSans-20" transform="translate(343.126953 0)"/>
      <use xlink:href="#DejaVuSans-53" transform="translate(374.914062 0)"/>
      <use xlink:href="#DejaVuSans-61" transform="translate(438.390625 0)"/>
      <use xlink:href="#DejaVuSans-6d" transform="translate(499.669922 0)"/>
      <use xlink:href="#DejaVuSans-70" transform="translate(597.082031 0)"/>
      <use xlink:href="#DejaVuSans-6c" transform="translate(660.558594 0)"/>
      <use xlink:href="#DejaVuSans-65" transform="translate(688.341797 0)"/>
      <use xlink:href="#DejaVuSans-20" transform="translate(749.865234 0)"/>
      <use xlink:href="#DejaVuSans-31" transform="translate(781.652344 0)"/>
     </g>
    </g>
   </g>
  </g>
 </g>
 <defs>
  <clipPath id="pd427fc0dea">
   <rect x="57.6" y="41.472" width="357.12" height="266.112"/>
  </clipPath>
 </defs>
</svg>
